<?xml version="1.0" encoding="UTF-8" standalone="no"?>
<!DOCTYPE svg PUBLIC "-//W3C//DTD SVG 1.1//EN"
 "http://www.w3.org/Graphics/SVG/1.1/DTD/svg11.dtd">
<!-- Generated by graphviz version 2.40.1 (20161225.0304)
 -->
<!-- Title: ABLWallFunction.H Pages: 1 -->
<svg width="556pt" height="207pt"
 viewBox="0.00 0.00 555.50 207.00" xmlns="http://www.w3.org/2000/svg" xmlns:xlink="http://www.w3.org/1999/xlink">
<g id="graph0" class="graph" transform="scale(1 1) rotate(0) translate(4 203)">
<title>ABLWallFunction.H</title>
<polygon fill="#ffffff" stroke="transparent" points="-4,4 -4,-203 551.5,-203 551.5,4 -4,4"/>
<!-- Node38 -->
<g id="node1" class="node">
<title>Node38</title>
<polygon fill="#bfbfbf" stroke="#000000" points="208,-179.5 208,-198.5 311,-198.5 311,-179.5 208,-179.5"/>
<text text-anchor="middle" x="259.5" y="-186.5" font-family="Helvetica,sans-Serif" font-size="10.00" fill="#000000">ABLWallFunction.H</text>
</g>
<!-- Node39 -->
<g id="node2" class="node">
<title>Node39</title>
<g id="a_node2"><a xlink:href="_a_b_l_8_h.html" target="_top" xlink:title="ABL.H">
<polygon fill="#ffffff" stroke="#000000" points="240.5,-67.5 240.5,-86.5 286.5,-86.5 286.5,-67.5 240.5,-67.5"/>
<text text-anchor="middle" x="263.5" y="-74.5" font-family="Helvetica,sans-Serif" font-size="10.00" fill="#000000">ABL.H</text>
</a>
</g>
</g>
<!-- Node38&#45;&gt;Node39 -->
<g id="edge1" class="edge">
<title>Node38&#45;&gt;Node39</title>
<path fill="none" stroke="#191970" d="M252.8755,-169.3565C249.2768,-156.2381 246.0215,-138.5953 248.5,-123 250.5567,-110.0584 255.6769,-95.8079 259.3632,-86.6493"/>
<polygon fill="#191970" stroke="#191970" points="249.6013,-170.6195 255.8607,-179.1675 256.2981,-168.5817 249.6013,-170.6195"/>
</g>
<!-- Node45 -->
<g id="node8" class="node">
<title>Node45</title>
<g id="a_node8"><a xlink:href="_a_b_l_wall_function_8cpp.html" target="_top" xlink:title="ABLWallFunction.cpp">
<polygon fill="#ffffff" stroke="#000000" points="0,-6 0,-25 111,-25 111,-6 0,-6"/>
<text text-anchor="middle" x="55.5" y="-13" font-family="Helvetica,sans-Serif" font-size="10.00" fill="#000000">ABLWallFunction.cpp</text>
</a>
</g>
</g>
<!-- Node38&#45;&gt;Node45 -->
<g id="edge12" class="edge">
<title>Node38&#45;&gt;Node45</title>
<path fill="none" stroke="#191970" d="M240.4557,-172.803C198.6752,-137.2691 100.0459,-53.3859 66.7237,-25.0457"/>
<polygon fill="#191970" stroke="#191970" points="238.3564,-175.6122 248.2415,-179.4248 242.8915,-170.2799 238.3564,-175.6122"/>
</g>
<!-- Node46 -->
<g id="node9" class="node">
<title>Node46</title>
<g id="a_node9"><a xlink:href="_a_b_l_stats_8_h.html" target="_top" xlink:title="ABLStats.H">
<polygon fill="#ffffff" stroke="#000000" points="257,-123.5 257,-142.5 326,-142.5 326,-123.5 257,-123.5"/>
<text text-anchor="middle" x="291.5" y="-130.5" font-family="Helvetica,sans-Serif" font-size="10.00" fill="#000000">ABLStats.H</text>
</a>
</g>
</g>
<!-- Node38&#45;&gt;Node46 -->
<g id="edge8" class="edge">
<title>Node38&#45;&gt;Node46</title>
<path fill="none" stroke="#191970" d="M270.1645,-170.3372C275.4654,-161.0605 281.6487,-150.2398 285.9899,-142.6427"/>
<polygon fill="#191970" stroke="#191970" points="266.9966,-168.8266 265.074,-179.2455 273.0743,-172.2996 266.9966,-168.8266"/>
</g>
<!-- Node48 -->
<g id="node11" class="node">
<title>Node48</title>
<g id="a_node11"><a xlink:href="_boussinesq_bubble_8cpp.html" target="_top" xlink:title="BoussinesqBubble.cpp">
<polygon fill="#ffffff" stroke="#000000" points="344.5,-123.5 344.5,-142.5 460.5,-142.5 460.5,-123.5 344.5,-123.5"/>
<text text-anchor="middle" x="402.5" y="-130.5" font-family="Helvetica,sans-Serif" font-size="10.00" fill="#000000">BoussinesqBubble.cpp</text>
</a>
</g>
</g>
<!-- Node38&#45;&gt;Node48 -->
<g id="edge11" class="edge">
<title>Node38&#45;&gt;Node48</title>
<path fill="none" stroke="#191970" d="M293.5798,-175.6541C319.6573,-165.4419 354.9815,-151.6086 378.2382,-142.5011"/>
<polygon fill="#191970" stroke="#191970" points="292.1178,-172.4677 284.0826,-179.3733 294.6703,-178.9858 292.1178,-172.4677"/>
</g>
<!-- Node40 -->
<g id="node3" class="node">
<title>Node40</title>
<g id="a_node3"><a xlink:href="incflo__set__velocity__bcs_8cpp.html" target="_top" xlink:title="incflo_set_velocity\l_bcs.cpp">
<polygon fill="#ffffff" stroke="#000000" points="449.5,-.5 449.5,-30.5 547.5,-30.5 547.5,-.5 449.5,-.5"/>
<text text-anchor="start" x="457.5" y="-18.5" font-family="Helvetica,sans-Serif" font-size="10.00" fill="#000000">incflo_set_velocity</text>
<text text-anchor="middle" x="498.5" y="-7.5" font-family="Helvetica,sans-Serif" font-size="10.00" fill="#000000">_bcs.cpp</text>
</a>
</g>
</g>
<!-- Node39&#45;&gt;Node40 -->
<g id="edge2" class="edge">
<title>Node39&#45;&gt;Node40</title>
<path fill="none" stroke="#191970" d="M296.1966,-67.084C296.2979,-67.0559 296.399,-67.0279 296.5,-67 360.0866,-49.4288 376.6314,-47.5166 440.5,-31 443.4263,-30.2432 446.434,-29.459 449.467,-28.6633"/>
<polygon fill="#191970" stroke="#191970" points="295.1804,-63.7343 286.5369,-69.8612 297.1147,-70.4617 295.1804,-63.7343"/>
</g>
<!-- Node41 -->
<g id="node4" class="node">
<title>Node41</title>
<g id="a_node4"><a xlink:href="_a_b_l_forcing_8cpp.html" target="_top" xlink:title="ABLForcing.cpp">
<polygon fill="#ffffff" stroke="#000000" points="129.5,-6 129.5,-25 215.5,-25 215.5,-6 129.5,-6"/>
<text text-anchor="middle" x="172.5" y="-13" font-family="Helvetica,sans-Serif" font-size="10.00" fill="#000000">ABLForcing.cpp</text>
</a>
</g>
</g>
<!-- Node39&#45;&gt;Node41 -->
<g id="edge3" class="edge">
<title>Node39&#45;&gt;Node41</title>
<path fill="none" stroke="#191970" d="M240.9883,-61.786C223.9725,-50.2864 201.1391,-34.855 186.6189,-25.0419"/>
<polygon fill="#191970" stroke="#191970" points="239.0361,-64.691 249.2813,-67.3906 242.9557,-58.8913 239.0361,-64.691"/>
</g>
<!-- Node42 -->
<g id="node5" class="node">
<title>Node42</title>
<g id="a_node5"><a xlink:href="incflo_8cpp.html" target="_top" xlink:title="incflo.cpp">
<polygon fill="#ffffff" stroke="#000000" points="234,-6 234,-25 293,-25 293,-6 234,-6"/>
<text text-anchor="middle" x="263.5" y="-13" font-family="Helvetica,sans-Serif" font-size="10.00" fill="#000000">incflo.cpp</text>
</a>
</g>
</g>
<!-- Node39&#45;&gt;Node42 -->
<g id="edge4" class="edge">
<title>Node39&#45;&gt;Node42</title>
<path fill="none" stroke="#191970" d="M263.5,-57.2462C263.5,-46.5519 263.5,-33.814 263.5,-25.2449"/>
<polygon fill="#191970" stroke="#191970" points="260.0001,-57.3906 263.5,-67.3906 267.0001,-57.3907 260.0001,-57.3906"/>
</g>
<!-- Node43 -->
<g id="node6" class="node">
<title>Node43</title>
<g id="a_node6"><a xlink:href="init_8cpp.html" target="_top" xlink:title="init.cpp">
<polygon fill="#ffffff" stroke="#000000" points="311.5,-6 311.5,-25 359.5,-25 359.5,-6 311.5,-6"/>
<text text-anchor="middle" x="335.5" y="-13" font-family="Helvetica,sans-Serif" font-size="10.00" fill="#000000">init.cpp</text>
</a>
</g>
</g>
<!-- Node39&#45;&gt;Node43 -->
<g id="edge5" class="edge">
<title>Node39&#45;&gt;Node43</title>
<path fill="none" stroke="#191970" d="M282.3848,-60.8692C295.6277,-49.5576 312.8976,-34.8062 324.0914,-25.2449"/>
<polygon fill="#191970" stroke="#191970" points="280.0805,-58.2344 274.75,-67.3906 284.627,-63.557 280.0805,-58.2344"/>
</g>
<!-- Node44 -->
<g id="node7" class="node">
<title>Node44</title>
<g id="a_node7"><a xlink:href="_a_b_l_8cpp.html" target="_top" xlink:title="ABL.cpp">
<polygon fill="#ffffff" stroke="#000000" points="377.5,-6 377.5,-25 431.5,-25 431.5,-6 377.5,-6"/>
<text text-anchor="middle" x="404.5" y="-13" font-family="Helvetica,sans-Serif" font-size="10.00" fill="#000000">ABL.cpp</text>
</a>
</g>
</g>
<!-- Node39&#45;&gt;Node44 -->
<g id="edge6" class="edge">
<title>Node39&#45;&gt;Node44</title>
<path fill="none" stroke="#191970" d="M294.8116,-63.3428C321.4729,-51.7139 359.0931,-35.3051 382.6235,-25.0419"/>
<polygon fill="#191970" stroke="#191970" points="293.298,-60.1845 285.5313,-67.3906 296.0966,-66.6007 293.298,-60.1845"/>
</g>
<!-- Node39&#45;&gt;Node45 -->
<g id="edge7" class="edge">
<title>Node39&#45;&gt;Node45</title>
<path fill="none" stroke="#191970" d="M230.619,-67.278C191.527,-55.7195 126.7048,-36.5534 87.8484,-25.0645"/>
<polygon fill="#191970" stroke="#191970" points="229.8636,-70.7044 240.4456,-70.1834 231.8484,-63.9916 229.8636,-70.7044"/>
</g>
<!-- Node46&#45;&gt;Node39 -->
<g id="edge9" class="edge">
<title>Node46&#45;&gt;Node39</title>
<path fill="none" stroke="#191970" d="M282.0219,-114.0437C277.4165,-104.8331 272.0799,-94.1598 268.3213,-86.6427"/>
<polygon fill="#191970" stroke="#191970" points="279.0201,-115.8665 286.6228,-123.2455 285.2811,-112.736 279.0201,-115.8665"/>
</g>
<!-- Node47 -->
<g id="node10" class="node">
<title>Node47</title>
<g id="a_node10"><a xlink:href="_a_b_l_stats_8cpp.html" target="_top" xlink:title="ABLStats.cpp">
<polygon fill="#ffffff" stroke="#000000" points="305,-67.5 305,-86.5 382,-86.5 382,-67.5 305,-67.5"/>
<text text-anchor="middle" x="343.5" y="-74.5" font-family="Helvetica,sans-Serif" font-size="10.00" fill="#000000">ABLStats.cpp</text>
</a>
</g>
</g>
<!-- Node46&#45;&gt;Node47 -->
<g id="edge10" class="edge">
<title>Node46&#45;&gt;Node47</title>
<path fill="none" stroke="#191970" d="M307.4822,-115.7884C316.3778,-106.2085 327.1204,-94.6396 334.5461,-86.6427"/>
<polygon fill="#191970" stroke="#191970" points="304.7975,-113.536 300.5577,-123.2455 309.927,-118.2992 304.7975,-113.536"/>
</g>
</g>
</svg>
