<?xml version="1.0" encoding="UTF-8" standalone="no"?>
<!DOCTYPE svg PUBLIC "-//W3C//DTD SVG 1.1//EN"
 "http://www.w3.org/Graphics/SVG/1.1/DTD/svg11.dtd">
<!-- Generated by graphviz version 2.40.1 (20161225.0304)
 -->
<!-- Title: ABLBoundaryPlane.H Pages: 1 -->
<!--zoomable 274 -->
<svg id="main" version="1.1" xmlns="http://www.w3.org/2000/svg" xmlns:xlink="http://www.w3.org/1999/xlink" xml:space="preserve" onload="init(evt)">
<style type="text/css"><![CDATA[
.edge:hover path { stroke: red; }
.edge:hover polygon { stroke: red; fill: red; }
]]></style>
<script type="text/javascript"><![CDATA[
var edges = document.getElementsByTagName('g');
if (edges && edges.length) {
  for (var i=0;i<edges.length;i++) {
    if (edges[i].id.substr(0,4)=='edge') {
      edges[i].setAttribute('class','edge');
    }
  }
}
]]></script>
        <defs>
                <circle id="rim" cx="0" cy="0" r="7"/>
                <circle id="rim2" cx="0" cy="0" r="3.5"/>
                <g id="zoomPlus">
                        <use xlink:href="#rim" fill="#404040">
                                <set attributeName="fill" to="#808080" begin="zoomplus.mouseover" end="zoomplus.mouseout"/>
                        </use>
                        <path d="M-4,0h8M0,-4v8" fill="none" stroke="white" stroke-width="1.5" pointer-events="none"/>
                </g>
                <g id="zoomMin">
                        <use xlink:href="#rim" fill="#404040">
                                <set attributeName="fill" to="#808080" begin="zoomminus.mouseover" end="zoomminus.mouseout"/>
                        </use>
                        <path d="M-4,0h8" fill="none" stroke="white" stroke-width="1.5" pointer-events="none"/>
                </g>
                <g id="dirArrow">
                        <path fill="none" stroke="white" stroke-width="1.5" d="M0,-3.0v7 M-2.5,-0.5L0,-3.0L2.5,-0.5"/>
                </g>
               <g id="resetDef">
                       <use xlink:href="#rim2" fill="#404040">
                               <set attributeName="fill" to="#808080" begin="reset.mouseover" end="reset.mouseout"/>
                       </use>
               </g>
        </defs>

<script type="text/javascript">
var viewWidth = 2200;
var viewHeight = 274;
var sectionId = 'dynsection-0';
</script>
<script xlink:href="svgpan.js"/>
<svg id="graph" class="graph">
<g id="viewport">
<title>ABLBoundaryPlane.H</title>
<polygon fill="#ffffff" stroke="transparent" points="-4,4 -4,-270 2195.883,-270 2195.883,4 -4,4"/>
<!-- Node0 -->
<g id="node1" class="node">
<title>Node0</title>
<polygon fill="#bfbfbf" stroke="#000000" points="1312,-246.5 1312,-265.5 1424,-265.5 1424,-246.5 1312,-246.5"/>
<text text-anchor="middle" x="1368" y="-253.5" font-family="Helvetica,sans-Serif" font-size="10.00" fill="#000000">ABLBoundaryPlane.H</text>
</g>
<!-- Node1 -->
<g id="node2" class="node">
<title>Node1</title>
<g id="a_node2"><a xlink:href="_field_8_h.html" target="_top" xlink:title="amr&#45;wind/core/Field.H">
<polygon fill="#ffffff" stroke="#000000" points="1369.5,-62 1369.5,-81 1482.5,-81 1482.5,-62 1369.5,-62"/>
<text text-anchor="middle" x="1426" y="-69" font-family="Helvetica,sans-Serif" font-size="10.00" fill="#000000">amr&#45;wind/core/Field.H</text>
</a>
</g>
</g>
<!-- Node0&#45;&gt;Node1 -->
<g id="edge1" class="edge">
<title>Node0&#45;&gt;Node1</title>
<path fill="none" stroke="#191970" d="M1372.5531,-246.3623C1380.8358,-228.5029 1398.4817,-188.9026 1409,-154 1415.3083,-133.0673 1420.0464,-108.4477 1422.8968,-91.5862"/>
<polygon fill="#191970" stroke="#191970" points="1426.42,-91.7242 1424.5647,-81.2931 1419.5101,-90.6044 1426.42,-91.7242"/>
</g>
<!-- Node7 -->
<g id="node8" class="node">
<title>Node7</title>
<polygon fill="#ffffff" stroke="#bfbfbf" points="2030.5,-.5 2030.5,-19.5 2115.5,-19.5 2115.5,-.5 2030.5,-.5"/>
<text text-anchor="middle" x="2073" y="-7.5" font-family="Helvetica,sans-Serif" font-size="10.00" fill="#000000">AMReX_Gpu.H</text>
</g>
<!-- Node0&#45;&gt;Node7 -->
<g id="edge60" class="edge">
<title>Node0&#45;&gt;Node7</title>
<path fill="none" stroke="#191970" d="M1424.0541,-253.8985C1594.0506,-246.1709 2097.5723,-212.8427 2186,-87 2193.9213,-75.727 2193.6895,-67.4324 2186,-56 2172.3558,-35.7143 2148.0448,-24.37 2125.4591,-18.028"/>
<polygon fill="#191970" stroke="#191970" points="2126.1389,-14.5897 2115.5857,-15.5283 2124.4209,-21.3756 2126.1389,-14.5897"/>
</g>
<!-- Node10 -->
<g id="node11" class="node">
<title>Node10</title>
<g id="a_node11"><a xlink:href="_c_f_d_sim_8_h.html" target="_top" xlink:title="amr&#45;wind/CFDSim.H">
<polygon fill="#ffffff" stroke="#000000" points="1193,-190.5 1193,-209.5 1301,-209.5 1301,-190.5 1193,-190.5"/>
<text text-anchor="middle" x="1247" y="-197.5" font-family="Helvetica,sans-Serif" font-size="10.00" fill="#000000">amr&#45;wind/CFDSim.H</text>
</a>
</g>
</g>
<!-- Node0&#45;&gt;Node10 -->
<g id="edge10" class="edge">
<title>Node0&#45;&gt;Node10</title>
<path fill="none" stroke="#191970" d="M1347.1994,-246.3733C1327.7757,-237.3838 1298.5776,-223.8706 1276.7036,-213.7471"/>
<polygon fill="#191970" stroke="#191970" points="1278.0745,-210.5249 1267.5292,-209.5011 1275.1344,-216.8776 1278.0745,-210.5249"/>
</g>
<!-- Node34 -->
<g id="node35" class="node">
<title>Node34</title>
<g id="a_node35"><a xlink:href="nc__interface_8_h.html" target="_top" xlink:title="Interface to NetCDF library. ">
<polygon fill="#ffffff" stroke="#000000" points="48.5,-56.5 48.5,-86.5 163.5,-86.5 163.5,-56.5 48.5,-56.5"/>
<text text-anchor="start" x="56.5" y="-74.5" font-family="Helvetica,sans-Serif" font-size="10.00" fill="#000000">amr&#45;wind/utilities</text>
<text text-anchor="middle" x="106" y="-63.5" font-family="Helvetica,sans-Serif" font-size="10.00" fill="#000000">/ncutils/nc_interface.H</text>
</a>
</g>
</g>
<!-- Node0&#45;&gt;Node34 -->
<g id="edge61" class="edge">
<title>Node0&#45;&gt;Node34</title>
<path fill="none" stroke="#191970" d="M1311.9313,-252.4418C1166.8846,-242.6751 767.7431,-212.2238 440,-154 343.7891,-136.908 234.1404,-107.9682 167.5227,-89.3043"/>
<polygon fill="#191970" stroke="#191970" points="168.1854,-85.8549 157.6111,-86.5142 166.2886,-92.593 168.1854,-85.8549"/>
</g>
<!-- Node2 -->
<g id="node3" class="node">
<title>Node2</title>
<polygon fill="#ffffff" stroke="#bfbfbf" points="699.5,-.5 699.5,-19.5 740.5,-19.5 740.5,-.5 699.5,-.5"/>
<text text-anchor="middle" x="720" y="-7.5" font-family="Helvetica,sans-Serif" font-size="10.00" fill="#000000">string</text>
</g>
<!-- Node1&#45;&gt;Node2 -->
<g id="edge2" class="edge">
<title>Node1&#45;&gt;Node2</title>
<path fill="none" stroke="#191970" d="M1369.4371,-62.2647C1353.781,-59.9501 1336.7601,-57.6571 1321,-56 1071.4464,-29.7601 1001.4305,-67.5896 750.933,-19.6647"/>
<polygon fill="#191970" stroke="#191970" points="751.2794,-16.1667 740.7958,-17.6976 749.9459,-23.0385 751.2794,-16.1667"/>
</g>
<!-- Node3 -->
<g id="node4" class="node">
<title>Node3</title>
<polygon fill="#ffffff" stroke="#bfbfbf" points="1306,-.5 1306,-19.5 1358,-19.5 1358,-.5 1306,-.5"/>
<text text-anchor="middle" x="1332" y="-7.5" font-family="Helvetica,sans-Serif" font-size="10.00" fill="#000000">memory</text>
</g>
<!-- Node1&#45;&gt;Node3 -->
<g id="edge3" class="edge">
<title>Node1&#45;&gt;Node3</title>
<path fill="none" stroke="#191970" d="M1411.3125,-61.8906C1396.2744,-52.0519 1372.6824,-36.6167 1355.1333,-25.1351"/>
<polygon fill="#191970" stroke="#191970" points="1356.8687,-22.088 1346.5844,-19.5419 1353.0363,-27.9457 1356.8687,-22.088"/>
</g>
<!-- Node4 -->
<g id="node5" class="node">
<title>Node4</title>
<polygon fill="#ffffff" stroke="#bfbfbf" points="1204.5,-.5 1204.5,-19.5 1287.5,-19.5 1287.5,-.5 1204.5,-.5"/>
<text text-anchor="middle" x="1246" y="-7.5" font-family="Helvetica,sans-Serif" font-size="10.00" fill="#000000">unordered_map</text>
</g>
<!-- Node1&#45;&gt;Node4 -->
<g id="edge4" class="edge">
<title>Node1&#45;&gt;Node4</title>
<path fill="none" stroke="#191970" d="M1397.875,-61.8906C1367.0972,-51.3749 1317.6079,-34.466 1283.5345,-22.8243"/>
<polygon fill="#191970" stroke="#191970" points="1284.522,-19.4631 1273.9275,-19.5419 1282.2588,-26.0871 1284.522,-19.4631"/>
</g>
<!-- Node5 -->
<g id="node6" class="node">
<title>Node5</title>
<polygon fill="#ffffff" stroke="#bfbfbf" points="1019,-.5 1019,-19.5 1123,-19.5 1123,-.5 1019,-.5"/>
<text text-anchor="middle" x="1071" y="-7.5" font-family="Helvetica,sans-Serif" font-size="10.00" fill="#000000">AMReX_MultiFab.H</text>
</g>
<!-- Node1&#45;&gt;Node5 -->
<g id="edge5" class="edge">
<title>Node1&#45;&gt;Node5</title>
<path fill="none" stroke="#191970" d="M1384.0295,-61.938C1374.5053,-59.8795 1364.4206,-57.7873 1355,-56 1259.4476,-37.8714 1232.7428,-36.2107 1133.1158,-20.171"/>
<polygon fill="#191970" stroke="#191970" points="1133.6728,-16.7157 1123.242,-18.5729 1132.5543,-23.6258 1133.6728,-16.7157"/>
</g>
<!-- Node6 -->
<g id="node7" class="node">
<title>Node6</title>
<polygon fill="#ffffff" stroke="#bfbfbf" points="1376.5,-.5 1376.5,-19.5 1475.5,-19.5 1475.5,-.5 1376.5,-.5"/>
<text text-anchor="middle" x="1426" y="-7.5" font-family="Helvetica,sans-Serif" font-size="10.00" fill="#000000">AMReX_BCRec.H</text>
</g>
<!-- Node1&#45;&gt;Node6 -->
<g id="edge6" class="edge">
<title>Node1&#45;&gt;Node6</title>
<path fill="none" stroke="#191970" d="M1426,-61.8906C1426,-53.3657 1426,-40.6392 1426,-29.9235"/>
<polygon fill="#191970" stroke="#191970" points="1429.5001,-29.7448 1426,-19.7449 1422.5001,-29.7449 1429.5001,-29.7448"/>
</g>
<!-- Node1&#45;&gt;Node7 -->
<g id="edge7" class="edge">
<title>Node1&#45;&gt;Node7</title>
<path fill="none" stroke="#191970" d="M1482.5877,-62.4003C1497.945,-60.1128 1514.588,-57.7995 1530,-56 1709.293,-35.0662 1922.9551,-19.7845 2020.162,-13.3581"/>
<polygon fill="#191970" stroke="#191970" points="2020.5677,-16.8391 2030.3167,-12.691 2020.1088,-9.8541 2020.5677,-16.8391"/>
</g>
<!-- Node8 -->
<g id="node9" class="node">
<title>Node8</title>
<g id="a_node9"><a xlink:href="incflo__enums_8_h.html" target="_top" xlink:title="amr&#45;wind/incflo_enums.H">
<polygon fill="#ffffff" stroke="#000000" points="1494,-.5 1494,-19.5 1622,-19.5 1622,-.5 1494,-.5"/>
<text text-anchor="middle" x="1558" y="-7.5" font-family="Helvetica,sans-Serif" font-size="10.00" fill="#000000">amr&#45;wind/incflo_enums.H</text>
</a>
</g>
</g>
<!-- Node1&#45;&gt;Node8 -->
<g id="edge8" class="edge">
<title>Node1&#45;&gt;Node8</title>
<path fill="none" stroke="#191970" d="M1446.625,-61.8906C1468.5173,-51.6908 1503.3193,-35.4763 1528.1927,-23.8875"/>
<polygon fill="#191970" stroke="#191970" points="1529.9335,-26.9377 1537.5198,-19.5419 1526.9772,-20.5926 1529.9335,-26.9377"/>
</g>
<!-- Node9 -->
<g id="node10" class="node">
<title>Node9</title>
<g id="a_node10"><a xlink:href="_field_desc_types_8_h.html" target="_top" xlink:title="amr&#45;wind/core/FieldDescTypes.H">
<polygon fill="#ffffff" stroke="#000000" points="518.5,-.5 518.5,-19.5 681.5,-19.5 681.5,-.5 518.5,-.5"/>
<text text-anchor="middle" x="600" y="-7.5" font-family="Helvetica,sans-Serif" font-size="10.00" fill="#000000">amr&#45;wind/core/FieldDescTypes.H</text>
</a>
</g>
</g>
<!-- Node1&#45;&gt;Node9 -->
<g id="edge9" class="edge">
<title>Node1&#45;&gt;Node9</title>
<path fill="none" stroke="#191970" d="M1369.4436,-62.2024C1353.7875,-59.8876 1336.765,-57.6101 1321,-56 1044.8278,-27.795 971.6218,-43.1484 691.9354,-20.1238"/>
<polygon fill="#191970" stroke="#191970" points="692.1542,-16.63 681.8983,-19.2885 691.5735,-23.6059 692.1542,-16.63"/>
</g>
<!-- Node11 -->
<g id="node12" class="node">
<title>Node11</title>
<polygon fill="#ffffff" stroke="#bfbfbf" points="182,-62 182,-81 288,-81 288,-62 182,-62"/>
<text text-anchor="middle" x="235" y="-69" font-family="Helvetica,sans-Serif" font-size="10.00" fill="#000000">AMReX_AmrCore.H</text>
</g>
<!-- Node10&#45;&gt;Node11 -->
<g id="edge11" class="edge">
<title>Node10&#45;&gt;Node11</title>
<path fill="none" stroke="#191970" d="M1192.9407,-198.7466C1082.6244,-195.6079 823.8415,-185.272 609,-154 488.7462,-136.496 349.5767,-101.9368 279.7897,-83.5955"/>
<polygon fill="#191970" stroke="#191970" points="280.5696,-80.1815 270.0073,-81.011 278.7815,-86.9493 280.5696,-80.1815"/>
</g>
<!-- Node12 -->
<g id="node13" class="node">
<title>Node12</title>
<g id="a_node13"><a xlink:href="_sim_time_8_h.html" target="_top" xlink:title="amr&#45;wind/core/SimTime.H">
<polygon fill="#ffffff" stroke="#000000" points="1860.5,-129 1860.5,-148 1991.5,-148 1991.5,-129 1860.5,-129"/>
<text text-anchor="middle" x="1926" y="-136" font-family="Helvetica,sans-Serif" font-size="10.00" fill="#000000">amr&#45;wind/core/SimTime.H</text>
</a>
</g>
</g>
<!-- Node10&#45;&gt;Node12 -->
<g id="edge12" class="edge">
<title>Node10&#45;&gt;Node12</title>
<path fill="none" stroke="#191970" d="M1301.1323,-195.097C1421.5916,-184.1865 1712.042,-157.8791 1850.3431,-145.3526"/>
<polygon fill="#191970" stroke="#191970" points="1850.7917,-148.8264 1860.4352,-144.4385 1850.1602,-141.8549 1850.7917,-148.8264"/>
</g>
<!-- Node16 -->
<g id="node17" class="node">
<title>Node16</title>
<g id="a_node17"><a xlink:href="_field_repo_8_h.html" target="_top" xlink:title="amr&#45;wind/core/FieldRepo.H">
<polygon fill="#ffffff" stroke="#000000" points="618,-129 618,-148 754,-148 754,-129 618,-129"/>
<text text-anchor="middle" x="686" y="-136" font-family="Helvetica,sans-Serif" font-size="10.00" fill="#000000">amr&#45;wind/core/FieldRepo.H</text>
</a>
</g>
</g>
<!-- Node10&#45;&gt;Node16 -->
<g id="edge16" class="edge">
<title>Node10&#45;&gt;Node16</title>
<path fill="none" stroke="#191970" d="M1192.9543,-194.0752C1093.2579,-183.1459 880.0592,-159.7739 764.4451,-147.0996"/>
<polygon fill="#191970" stroke="#191970" points="764.5714,-143.5926 754.2495,-145.9819 763.8085,-150.5509 764.5714,-143.5926"/>
</g>
<!-- Node24 -->
<g id="node25" class="node">
<title>Node24</title>
<g id="a_node25"><a xlink:href="_p_d_e_base_8_h.html" target="_top" xlink:title="amr&#45;wind/equation_systems\l/PDEBase.H">
<polygon fill="#ffffff" stroke="#000000" points="1116.5,-123.5 1116.5,-153.5 1255.5,-153.5 1255.5,-123.5 1116.5,-123.5"/>
<text text-anchor="start" x="1124.5" y="-141.5" font-family="Helvetica,sans-Serif" font-size="10.00" fill="#000000">amr&#45;wind/equation_systems</text>
<text text-anchor="middle" x="1186" y="-130.5" font-family="Helvetica,sans-Serif" font-size="10.00" fill="#000000">/PDEBase.H</text>
</a>
</g>
</g>
<!-- Node10&#45;&gt;Node24 -->
<g id="edge38" class="edge">
<title>Node10&#45;&gt;Node24</title>
<path fill="none" stroke="#191970" d="M1237.4688,-190.3906C1229.5953,-182.4527 1218.1087,-170.8718 1207.9833,-160.6635"/>
<polygon fill="#191970" stroke="#191970" points="1210.4494,-158.1797 1200.9223,-153.5446 1205.4795,-163.1093 1210.4494,-158.1797"/>
</g>
<!-- Node32 -->
<g id="node33" class="node">
<title>Node32</title>
<g id="a_node33"><a xlink:href="_physics_8_h.html" target="_top" xlink:title="amr&#45;wind/core/Physics.H">
<polygon fill="#ffffff" stroke="#000000" points="1273.5,-129 1273.5,-148 1400.5,-148 1400.5,-129 1273.5,-129"/>
<text text-anchor="middle" x="1337" y="-136" font-family="Helvetica,sans-Serif" font-size="10.00" fill="#000000">amr&#45;wind/core/Physics.H</text>
</a>
</g>
</g>
<!-- Node10&#45;&gt;Node32 -->
<g id="edge55" class="edge">
<title>Node10&#45;&gt;Node32</title>
<path fill="none" stroke="#191970" d="M1261.0625,-190.3906C1275.3286,-180.6421 1297.635,-165.3994 1314.3872,-153.9521"/>
<polygon fill="#191970" stroke="#191970" points="1316.7545,-156.5736 1323.0362,-148.0419 1312.8051,-150.7941 1316.7545,-156.5736"/>
</g>
<!-- Node13 -->
<g id="node14" class="node">
<title>Node13</title>
<polygon fill="#ffffff" stroke="#bfbfbf" points="1939.5,-62 1939.5,-81 2032.5,-81 2032.5,-62 1939.5,-62"/>
<text text-anchor="middle" x="1986" y="-69" font-family="Helvetica,sans-Serif" font-size="10.00" fill="#000000">AMReX_REAL.H</text>
</g>
<!-- Node12&#45;&gt;Node13 -->
<g id="edge13" class="edge">
<title>Node12&#45;&gt;Node13</title>
<path fill="none" stroke="#191970" d="M1934.5965,-128.9005C1943.953,-118.4525 1959.1052,-101.5325 1970.5401,-88.7635"/>
<polygon fill="#191970" stroke="#191970" points="1973.3555,-90.8661 1977.4194,-81.0817 1968.1408,-86.1963 1973.3555,-90.8661"/>
</g>
<!-- Node14 -->
<g id="node15" class="node">
<title>Node14</title>
<polygon fill="#ffffff" stroke="#bfbfbf" points="2051,-62 2051,-81 2177,-81 2177,-62 2051,-62"/>
<text text-anchor="middle" x="2114" y="-69" font-family="Helvetica,sans-Serif" font-size="10.00" fill="#000000">AMReX_GpuQualifiers.H</text>
</g>
<!-- Node12&#45;&gt;Node14 -->
<g id="edge14" class="edge">
<title>Node12&#45;&gt;Node14</title>
<path fill="none" stroke="#191970" d="M1952.9358,-128.9005C1985.6033,-117.2584 2040.8188,-97.5805 2077.3425,-84.5641"/>
<polygon fill="#191970" stroke="#191970" points="2078.8694,-87.7356 2087.1142,-81.0817 2076.5195,-81.1418 2078.8694,-87.7356"/>
</g>
<!-- Node15 -->
<g id="node16" class="node">
<title>Node15</title>
<polygon fill="#ffffff" stroke="#bfbfbf" points="1811,-62 1811,-81 1921,-81 1921,-62 1811,-62"/>
<text text-anchor="middle" x="1866" y="-69" font-family="Helvetica,sans-Serif" font-size="10.00" fill="#000000">AMReX_Extension.H</text>
</g>
<!-- Node12&#45;&gt;Node15 -->
<g id="edge15" class="edge">
<title>Node12&#45;&gt;Node15</title>
<path fill="none" stroke="#191970" d="M1917.4035,-128.9005C1908.047,-118.4525 1892.8948,-101.5325 1881.4599,-88.7635"/>
<polygon fill="#191970" stroke="#191970" points="1883.8592,-86.1963 1874.5806,-81.0817 1878.6445,-90.8661 1883.8592,-86.1963"/>
</g>
<!-- Node16&#45;&gt;Node1 -->
<g id="edge24" class="edge">
<title>Node16&#45;&gt;Node1</title>
<path fill="none" stroke="#191970" d="M754.2722,-134.4381C870.7464,-127.1786 1115.2304,-110.5063 1321,-87 1333.4235,-85.5808 1346.6384,-83.8249 1359.3524,-82.0105"/>
<polygon fill="#191970" stroke="#191970" points="1360.0238,-85.4497 1369.4166,-80.5481 1359.0172,-78.5225 1360.0238,-85.4497"/>
</g>
<!-- Node16&#45;&gt;Node2 -->
<g id="edge17" class="edge">
<title>Node16&#45;&gt;Node2</title>
<path fill="none" stroke="#191970" d="M688.5555,-128.8416C694.1181,-107.8184 707.4161,-57.5598 714.813,-29.6038"/>
<polygon fill="#191970" stroke="#191970" points="718.2404,-30.3331 717.4148,-19.7705 711.4733,-28.5425 718.2404,-30.3331"/>
</g>
<!-- Node16&#45;&gt;Node4 -->
<g id="edge18" class="edge">
<title>Node16&#45;&gt;Node4</title>
<path fill="none" stroke="#191970" d="M754.1091,-130.4741C828.1922,-121.0661 941.3516,-104.5194 981,-87 1001.5728,-77.9095 1000.5604,-65.3861 1021,-56 1024.9713,-54.1763 1129.0871,-33.2648 1194.2795,-20.2729"/>
<polygon fill="#191970" stroke="#191970" points="1195.2632,-23.6458 1204.387,-18.2599 1193.8959,-16.7806 1195.2632,-23.6458"/>
</g>
<!-- Node16&#45;&gt;Node5 -->
<g id="edge36" class="edge">
<title>Node16&#45;&gt;Node5</title>
<path fill="none" stroke="#191970" d="M754.0931,-132.9717C807.7556,-126.7481 883.5201,-113.7546 945,-87 966.6028,-77.599 968.1062,-68.6213 988,-56 1005.9086,-44.6382 1026.7946,-33.071 1043.1349,-24.3782"/>
<polygon fill="#191970" stroke="#191970" points="1044.9583,-27.3736 1052.1737,-19.6154 1041.6951,-21.1807 1044.9583,-27.3736"/>
</g>
<!-- Node16&#45;&gt;Node9 -->
<g id="edge19" class="edge">
<title>Node16&#45;&gt;Node9</title>
<path fill="none" stroke="#191970" d="M629.4602,-128.9228C585.1949,-120.1369 528.8707,-105.6636 515,-87 506.7816,-75.9418 507.9474,-67.8359 515,-56 523.891,-41.0789 539.4897,-30.7035 554.9177,-23.6373"/>
<polygon fill="#191970" stroke="#191970" points="556.5654,-26.742 564.4402,-19.6541 553.8642,-20.2841 556.5654,-26.742"/>
</g>
<!-- Node16&#45;&gt;Node11 -->
<g id="edge35" class="edge">
<title>Node16&#45;&gt;Node11</title>
<path fill="none" stroke="#191970" d="M617.7181,-131.3055C540.697,-122.7353 411.8469,-107.0264 302,-87 295.9107,-85.8898 289.5399,-84.5936 283.2514,-83.2323"/>
<polygon fill="#191970" stroke="#191970" points="284.0113,-79.8159 273.4894,-81.0567 282.4886,-86.6482 284.0113,-79.8159"/>
</g>
<!-- Node17 -->
<g id="node18" class="node">
<title>Node17</title>
<g id="a_node18"><a xlink:href="_field_utils_8_h.html" target="_top" xlink:title="amr&#45;wind/core/FieldUtils.H">
<polygon fill="#ffffff" stroke="#000000" points="524.5,-62 524.5,-81 657.5,-81 657.5,-62 524.5,-62"/>
<text text-anchor="middle" x="591" y="-69" font-family="Helvetica,sans-Serif" font-size="10.00" fill="#000000">amr&#45;wind/core/FieldUtils.H</text>
</a>
</g>
</g>
<!-- Node16&#45;&gt;Node17 -->
<g id="edge20" class="edge">
<title>Node16&#45;&gt;Node17</title>
<path fill="none" stroke="#191970" d="M672.3888,-128.9005C656.8689,-117.9549 631.2777,-99.9064 612.9333,-86.9688"/>
<polygon fill="#191970" stroke="#191970" points="614.7752,-83.9849 604.5859,-81.0817 610.7408,-89.7054 614.7752,-83.9849"/>
</g>
<!-- Node19 -->
<g id="node20" class="node">
<title>Node19</title>
<g id="a_node20"><a xlink:href="_int_field_8_h.html" target="_top" xlink:title="amr&#45;wind/core/IntField.H">
<polygon fill="#ffffff" stroke="#000000" points="344,-62 344,-81 468,-81 468,-62 344,-62"/>
<text text-anchor="middle" x="406" y="-69" font-family="Helvetica,sans-Serif" font-size="10.00" fill="#000000">amr&#45;wind/core/IntField.H</text>
</a>
</g>
</g>
<!-- Node16&#45;&gt;Node19 -->
<g id="edge25" class="edge">
<title>Node16&#45;&gt;Node19</title>
<path fill="none" stroke="#191970" d="M646.1802,-128.9717C596.1484,-116.9998 510.2704,-96.4504 455.9046,-83.4415"/>
<polygon fill="#191970" stroke="#191970" points="456.6758,-80.0272 446.1358,-81.1039 455.0467,-86.8351 456.6758,-80.0272"/>
</g>
<!-- Node20 -->
<g id="node21" class="node">
<title>Node20</title>
<polygon fill="#ffffff" stroke="#bfbfbf" points="258.5,-.5 258.5,-19.5 365.5,-19.5 365.5,-.5 258.5,-.5"/>
<text text-anchor="middle" x="312" y="-7.5" font-family="Helvetica,sans-Serif" font-size="10.00" fill="#000000">AMReX_iMultiFab.H</text>
</g>
<!-- Node16&#45;&gt;Node20 -->
<g id="edge37" class="edge">
<title>Node16&#45;&gt;Node20</title>
<path fill="none" stroke="#191970" d="M617.9039,-132.4481C521.8932,-123.3267 356.0203,-105.1815 335,-87 318.5622,-72.7822 313.613,-47.3561 312.2572,-29.627"/>
<polygon fill="#191970" stroke="#191970" points="315.7484,-29.3503 311.8034,-19.5173 308.7554,-29.6642 315.7484,-29.3503"/>
</g>
<!-- Node21 -->
<g id="node22" class="node">
<title>Node21</title>
<g id="a_node22"><a xlink:href="_scratch_field_8_h.html" target="_top" xlink:title="amr&#45;wind/core/ScratchField.H">
<polygon fill="#ffffff" stroke="#000000" points="790,-62 790,-81 936,-81 936,-62 790,-62"/>
<text text-anchor="middle" x="863" y="-69" font-family="Helvetica,sans-Serif" font-size="10.00" fill="#000000">amr&#45;wind/core/ScratchField.H</text>
</a>
</g>
</g>
<!-- Node16&#45;&gt;Node21 -->
<g id="edge29" class="edge">
<title>Node16&#45;&gt;Node21</title>
<path fill="none" stroke="#191970" d="M711.3598,-128.9005C741.9844,-117.3082 793.6568,-97.7486 828.0456,-84.7313"/>
<polygon fill="#191970" stroke="#191970" points="829.5739,-87.8952 837.6873,-81.0817 827.0958,-81.3486 829.5739,-87.8952"/>
</g>
<!-- Node17&#45;&gt;Node5 -->
<g id="edge22" class="edge">
<title>Node17&#45;&gt;Node5</title>
<path fill="none" stroke="#191970" d="M657.7048,-64.0591C740.2936,-54.6673 885.2132,-37.6022 1009,-20 1009.1012,-19.9856 1009.2025,-19.9712 1009.3039,-19.9567"/>
<polygon fill="#191970" stroke="#191970" points="1009.5409,-23.4596 1018.9262,-18.5436 1008.5237,-16.5339 1009.5409,-23.4596"/>
</g>
<!-- Node17&#45;&gt;Node9 -->
<g id="edge21" class="edge">
<title>Node17&#45;&gt;Node9</title>
<path fill="none" stroke="#191970" d="M592.4063,-61.8906C593.6538,-53.3657 595.5162,-40.6392 597.0844,-29.9235"/>
<polygon fill="#191970" stroke="#191970" points="600.589,-30.1463 598.5739,-19.7449 593.6627,-29.1326 600.589,-30.1463"/>
</g>
<!-- Node18 -->
<g id="node19" class="node">
<title>Node18</title>
<polygon fill="#ffffff" stroke="#bfbfbf" points="384,-.5 384,-19.5 500,-19.5 500,-.5 384,-.5"/>
<text text-anchor="middle" x="442" y="-7.5" font-family="Helvetica,sans-Serif" font-size="10.00" fill="#000000">AMReX_Interpolater.H</text>
</g>
<!-- Node17&#45;&gt;Node18 -->
<g id="edge23" class="edge">
<title>Node17&#45;&gt;Node18</title>
<path fill="none" stroke="#191970" d="M567.7188,-61.8906C542.679,-51.5554 502.6775,-35.0447 474.534,-23.4284"/>
<polygon fill="#191970" stroke="#191970" points="475.6967,-20.122 465.1178,-19.5419 473.026,-26.5925 475.6967,-20.122"/>
</g>
<!-- Node19&#45;&gt;Node2 -->
<g id="edge26" class="edge">
<title>Node19&#45;&gt;Node2</title>
<path fill="none" stroke="#191970" d="M468.0407,-62.8537C523.6838,-54.5105 607.6403,-40.4716 689.489,-19.8263"/>
<polygon fill="#191970" stroke="#191970" points="690.6376,-23.1452 699.458,-17.2757 688.9025,-16.3636 690.6376,-23.1452"/>
</g>
<!-- Node19&#45;&gt;Node9 -->
<g id="edge27" class="edge">
<title>Node19&#45;&gt;Node9</title>
<path fill="none" stroke="#191970" d="M436.3125,-61.8906C469.6265,-51.3298 523.2808,-34.3208 560.0181,-22.6747"/>
<polygon fill="#191970" stroke="#191970" points="561.4256,-25.9002 569.9004,-19.5419 559.3102,-19.2275 561.4256,-25.9002"/>
</g>
<!-- Node19&#45;&gt;Node20 -->
<g id="edge28" class="edge">
<title>Node19&#45;&gt;Node20</title>
<path fill="none" stroke="#191970" d="M391.3125,-61.8906C376.2744,-52.0519 352.6824,-36.6167 335.1333,-25.1351"/>
<polygon fill="#191970" stroke="#191970" points="336.8687,-22.088 326.5844,-19.5419 333.0363,-27.9457 336.8687,-22.088"/>
</g>
<!-- Node21&#45;&gt;Node2 -->
<g id="edge30" class="edge">
<title>Node21&#45;&gt;Node2</title>
<path fill="none" stroke="#191970" d="M840.6563,-61.8906C816.31,-51.42 777.2257,-34.6111 750.1683,-22.9745"/>
<polygon fill="#191970" stroke="#191970" points="751.3627,-19.6782 740.7934,-18.9426 748.5971,-26.1088 751.3627,-19.6782"/>
</g>
<!-- Node21&#45;&gt;Node5 -->
<g id="edge32" class="edge">
<title>Node21&#45;&gt;Node5</title>
<path fill="none" stroke="#191970" d="M895.5,-61.8906C931.447,-51.2621 989.4827,-34.1025 1028.888,-22.4514"/>
<polygon fill="#191970" stroke="#191970" points="1030.131,-25.7337 1038.7282,-19.5419 1028.1462,-19.021 1030.131,-25.7337"/>
</g>
<!-- Node21&#45;&gt;Node9 -->
<g id="edge31" class="edge">
<title>Node21&#45;&gt;Node9</title>
<path fill="none" stroke="#191970" d="M822.1948,-61.9581C776.0311,-51.1632 700.7928,-33.5694 650.846,-21.8899"/>
<polygon fill="#191970" stroke="#191970" points="651.4352,-18.4333 640.9009,-19.5643 649.8413,-25.2494 651.4352,-18.4333"/>
</g>
<!-- Node22 -->
<g id="node23" class="node">
<title>Node22</title>
<polygon fill="#ffffff" stroke="#bfbfbf" points="905.5,-.5 905.5,-19.5 1000.5,-19.5 1000.5,-.5 905.5,-.5"/>
<text text-anchor="middle" x="953" y="-7.5" font-family="Helvetica,sans-Serif" font-size="10.00" fill="#000000">AMReX_Vector.H</text>
</g>
<!-- Node21&#45;&gt;Node22 -->
<g id="edge33" class="edge">
<title>Node21&#45;&gt;Node22</title>
<path fill="none" stroke="#191970" d="M877.0625,-61.8906C891.3286,-52.1421 913.635,-36.8994 930.3872,-25.4521"/>
<polygon fill="#191970" stroke="#191970" points="932.7545,-28.0736 939.0362,-19.5419 928.8051,-22.2941 932.7545,-28.0736"/>
</g>
<!-- Node23 -->
<g id="node24" class="node">
<title>Node23</title>
<polygon fill="#ffffff" stroke="#bfbfbf" points="759,-.5 759,-19.5 887,-19.5 887,-.5 759,-.5"/>
<text text-anchor="middle" x="823" y="-7.5" font-family="Helvetica,sans-Serif" font-size="10.00" fill="#000000">AMReX_PhysBCFunct.H</text>
</g>
<!-- Node21&#45;&gt;Node23 -->
<g id="edge34" class="edge">
<title>Node21&#45;&gt;Node23</title>
<path fill="none" stroke="#191970" d="M856.75,-61.8906C850.9135,-52.917 842.0491,-39.2879 834.8694,-28.2491"/>
<polygon fill="#191970" stroke="#191970" points="837.7245,-26.2194 829.3381,-19.7449 831.8564,-30.0361 837.7245,-26.2194"/>
</g>
<!-- Node24&#45;&gt;Node2 -->
<g id="edge39" class="edge">
<title>Node24&#45;&gt;Node2</title>
<path fill="none" stroke="#191970" d="M1116.4692,-135.9449C1016.1917,-131.2124 836.8676,-118.5185 781,-87 757.1875,-73.5658 739.2775,-46.7614 729.2155,-28.6005"/>
<polygon fill="#191970" stroke="#191970" points="732.2011,-26.7581 724.4454,-19.5401 726.0071,-30.0192 732.2011,-26.7581"/>
</g>
<!-- Node24&#45;&gt;Node8 -->
<g id="edge54" class="edge">
<title>Node24&#45;&gt;Node8</title>
<path fill="none" stroke="#191970" d="M1255.7157,-124.5067C1258.5121,-123.9896 1261.2817,-123.4854 1264,-123 1364.5588,-105.0418 1401.6509,-136.5107 1491,-87 1515.7171,-73.3036 1535.6388,-46.7921 1547.1483,-28.7459"/>
<polygon fill="#191970" stroke="#191970" points="1550.4312,-30.0854 1552.6541,-19.7263 1544.4564,-26.4382 1550.4312,-30.0854"/>
</g>
<!-- Node24&#45;&gt;Node9 -->
<g id="edge53" class="edge">
<title>Node24&#45;&gt;Node9</title>
<path fill="none" stroke="#191970" d="M1116.4393,-133.5784C1009.9505,-125.5069 811.734,-108.2138 744,-87 697.8182,-72.5362 649.1979,-43.1248 621.9252,-25.1312"/>
<polygon fill="#191970" stroke="#191970" points="623.7846,-22.1641 613.5289,-19.5048 619.8879,-27.9792 623.7846,-22.1641"/>
</g>
<!-- Node25 -->
<g id="node26" class="node">
<title>Node25</title>
<g id="a_node26"><a xlink:href="_factory_8_h.html" target="_top" xlink:title="amr&#45;wind/core/Factory.H">
<polygon fill="#ffffff" stroke="#000000" points="1539.5,-62 1539.5,-81 1664.5,-81 1664.5,-62 1539.5,-62"/>
<text text-anchor="middle" x="1602" y="-69" font-family="Helvetica,sans-Serif" font-size="10.00" fill="#000000">amr&#45;wind/core/Factory.H</text>
</a>
</g>
</g>
<!-- Node24&#45;&gt;Node25 -->
<g id="edge40" class="edge">
<title>Node24&#45;&gt;Node25</title>
<path fill="none" stroke="#191970" d="M1255.7036,-124.4366C1258.5033,-123.9389 1261.2769,-123.4579 1264,-123 1379.4767,-103.5799 1409.5475,-106.5634 1525,-87 1532.1172,-85.794 1539.5835,-84.424 1546.9502,-83.0093"/>
<polygon fill="#191970" stroke="#191970" points="1547.7502,-86.4192 1556.8918,-81.0638 1546.4057,-79.5496 1547.7502,-86.4192"/>
</g>
<!-- Node29 -->
<g id="node30" class="node">
<title>Node29</title>
<g id="a_node30"><a xlink:href="_coll_mgr_8_h.html" target="_top" xlink:title="amr&#45;wind/core/CollMgr.H">
<polygon fill="#ffffff" stroke="#000000" points="1187.5,-62 1187.5,-81 1312.5,-81 1312.5,-62 1187.5,-62"/>
<text text-anchor="middle" x="1250" y="-69" font-family="Helvetica,sans-Serif" font-size="10.00" fill="#000000">amr&#45;wind/core/CollMgr.H</text>
</a>
</g>
</g>
<!-- Node24&#45;&gt;Node29 -->
<g id="edge46" class="edge">
<title>Node24&#45;&gt;Node29</title>
<path fill="none" stroke="#191970" d="M1200.5226,-123.2967C1210.3973,-112.9591 1223.4749,-99.2684 1233.7051,-88.5588"/>
<polygon fill="#191970" stroke="#191970" points="1236.4964,-90.7037 1240.8729,-81.055 1231.4346,-85.8685 1236.4964,-90.7037"/>
</g>
<!-- Node30 -->
<g id="node31" class="node">
<title>Node30</title>
<g id="a_node31"><a xlink:href="_p_d_e_fields_8_h.html" target="_top" xlink:title="amr&#45;wind/equation_systems\l/PDEFields.H">
<polygon fill="#ffffff" stroke="#000000" points="1030.5,-56.5 1030.5,-86.5 1169.5,-86.5 1169.5,-56.5 1030.5,-56.5"/>
<text text-anchor="start" x="1038.5" y="-74.5" font-family="Helvetica,sans-Serif" font-size="10.00" fill="#000000">amr&#45;wind/equation_systems</text>
<text text-anchor="middle" x="1100" y="-63.5" font-family="Helvetica,sans-Serif" font-size="10.00" fill="#000000">/PDEFields.H</text>
</a>
</g>
</g>
<!-- Node24&#45;&gt;Node30 -->
<g id="edge51" class="edge">
<title>Node24&#45;&gt;Node30</title>
<path fill="none" stroke="#191970" d="M1166.4853,-123.2967C1154.9398,-114.302 1140.136,-102.7687 1127.4294,-92.8694"/>
<polygon fill="#191970" stroke="#191970" points="1129.4771,-90.028 1119.4375,-86.6432 1125.1751,-95.55 1129.4771,-90.028"/>
</g>
<!-- Node25&#45;&gt;Node3 -->
<g id="edge41" class="edge">
<title>Node25&#45;&gt;Node3</title>
<path fill="none" stroke="#191970" d="M1554.0859,-61.9155C1508.591,-52.6096 1438.0816,-37.6571 1368.182,-20.1931"/>
<polygon fill="#191970" stroke="#191970" points="1368.8774,-16.759 1358.3256,-17.7125 1367.169,-23.5473 1368.8774,-16.759"/>
</g>
<!-- Node25&#45;&gt;Node4 -->
<g id="edge42" class="edge">
<title>Node25&#45;&gt;Node4</title>
<path fill="none" stroke="#191970" d="M1542.8791,-61.9909C1483.5366,-52.3391 1389.2373,-36.7117 1297.7223,-20.0956"/>
<polygon fill="#191970" stroke="#191970" points="1298.197,-16.6245 1287.7316,-18.2756 1296.9424,-23.5112 1298.197,-16.6245"/>
</g>
<!-- Node26 -->
<g id="node27" class="node">
<title>Node26</title>
<polygon fill="#ffffff" stroke="#bfbfbf" points="1826,-.5 1826,-19.5 1880,-19.5 1880,-.5 1826,-.5"/>
<text text-anchor="middle" x="1853" y="-7.5" font-family="Helvetica,sans-Serif" font-size="10.00" fill="#000000">iostream</text>
</g>
<!-- Node25&#45;&gt;Node26 -->
<g id="edge43" class="edge">
<title>Node25&#45;&gt;Node26</title>
<path fill="none" stroke="#191970" d="M1643.7282,-61.9716C1685.0923,-52.4222 1750.4951,-37.0443 1816.2066,-20.1436"/>
<polygon fill="#191970" stroke="#191970" points="1817.0943,-23.5292 1825.9012,-17.6395 1815.3436,-16.7517 1817.0943,-23.5292"/>
</g>
<!-- Node27 -->
<g id="node28" class="node">
<title>Node27</title>
<polygon fill="#ffffff" stroke="#bfbfbf" points="1640.5,-.5 1640.5,-19.5 1727.5,-19.5 1727.5,-.5 1640.5,-.5"/>
<text text-anchor="middle" x="1684" y="-7.5" font-family="Helvetica,sans-Serif" font-size="10.00" fill="#000000">AMReX_Print.H</text>
</g>
<!-- Node25&#45;&gt;Node27 -->
<g id="edge44" class="edge">
<title>Node25&#45;&gt;Node27</title>
<path fill="none" stroke="#191970" d="M1614.8125,-61.8906C1627.6901,-52.2324 1647.7584,-37.1812 1662.972,-25.771"/>
<polygon fill="#191970" stroke="#191970" points="1665.3775,-28.3419 1671.2775,-19.5419 1661.1774,-22.7419 1665.3775,-28.3419"/>
</g>
<!-- Node28 -->
<g id="node29" class="node">
<title>Node28</title>
<polygon fill="#ffffff" stroke="#bfbfbf" points="1746,-.5 1746,-19.5 1808,-19.5 1808,-.5 1746,-.5"/>
<text text-anchor="middle" x="1777" y="-7.5" font-family="Helvetica,sans-Serif" font-size="10.00" fill="#000000">AMReX.H</text>
</g>
<!-- Node25&#45;&gt;Node28 -->
<g id="edge45" class="edge">
<title>Node25&#45;&gt;Node28</title>
<path fill="none" stroke="#191970" d="M1629.3438,-61.8906C1659.1382,-51.42 1706.9685,-34.6111 1740.0808,-22.9745"/>
<polygon fill="#191970" stroke="#191970" points="1741.5743,-26.1595 1749.8483,-19.5419 1739.2534,-19.5554 1741.5743,-26.1595"/>
</g>
<!-- Node29&#45;&gt;Node2 -->
<g id="edge47" class="edge">
<title>Node29&#45;&gt;Node2</title>
<path fill="none" stroke="#191970" d="M1210.1787,-61.9752C1199.7554,-59.7441 1188.4967,-57.5647 1178,-56 992.419,-28.3358 938.8051,-57.4258 750.7403,-19.6704"/>
<polygon fill="#191970" stroke="#191970" points="751.3058,-16.2137 740.8074,-17.6398 749.9037,-23.0718 751.3058,-16.2137"/>
</g>
<!-- Node29&#45;&gt;Node3 -->
<g id="edge48" class="edge">
<title>Node29&#45;&gt;Node3</title>
<path fill="none" stroke="#191970" d="M1262.8125,-61.8906C1275.6901,-52.2324 1295.7584,-37.1812 1310.972,-25.771"/>
<polygon fill="#191970" stroke="#191970" points="1313.3775,-28.3419 1319.2775,-19.5419 1309.1774,-22.7419 1313.3775,-28.3419"/>
</g>
<!-- Node29&#45;&gt;Node4 -->
<g id="edge49" class="edge">
<title>Node29&#45;&gt;Node4</title>
<path fill="none" stroke="#191970" d="M1249.375,-61.8906C1248.8205,-53.3657 1247.9928,-40.6392 1247.2958,-29.9235"/>
<polygon fill="#191970" stroke="#191970" points="1250.7756,-29.4966 1246.6338,-19.7449 1243.7903,-29.951 1250.7756,-29.4966"/>
</g>
<!-- Node29&#45;&gt;Node22 -->
<g id="edge50" class="edge">
<title>Node29&#45;&gt;Node22</title>
<path fill="none" stroke="#191970" d="M1205.846,-61.9189C1196.6471,-59.9441 1187.0099,-57.8908 1178,-56 1121.0453,-44.0477 1055.8936,-30.7711 1010.4071,-21.5658"/>
<polygon fill="#191970" stroke="#191970" points="1010.9315,-18.101 1000.4362,-19.5493 1009.544,-24.9621 1010.9315,-18.101"/>
</g>
<!-- Node31 -->
<g id="node32" class="node">
<title>Node31</title>
<polygon fill="#ffffff" stroke="#bfbfbf" points="1141.5,-.5 1141.5,-19.5 1186.5,-19.5 1186.5,-.5 1141.5,-.5"/>
<text text-anchor="middle" x="1164" y="-7.5" font-family="Helvetica,sans-Serif" font-size="10.00" fill="#000000">iosfwd</text>
</g>
<!-- Node30&#45;&gt;Node31 -->
<g id="edge52" class="edge">
<title>Node30&#45;&gt;Node31</title>
<path fill="none" stroke="#191970" d="M1115.8202,-56.2977C1125.0742,-47.4052 1136.7781,-36.1586 1146.333,-26.9769"/>
<polygon fill="#191970" stroke="#191970" points="1148.9674,-29.2995 1153.7528,-19.8469 1144.1172,-24.2521 1148.9674,-29.2995"/>
</g>
<!-- Node32&#45;&gt;Node5 -->
<g id="edge58" class="edge">
<title>Node32&#45;&gt;Node5</title>
<path fill="none" stroke="#191970" d="M1338.2852,-128.7666C1339.9688,-111.5029 1340.6953,-75.5071 1321,-56 1317.631,-52.6632 1206.0456,-33.0636 1133.1062,-20.5482"/>
<polygon fill="#191970" stroke="#191970" points="1133.5333,-17.0704 1123.0859,-18.8317 1132.3513,-23.9699 1133.5333,-17.0704"/>
</g>
<!-- Node32&#45;&gt;Node25 -->
<g id="edge56" class="edge">
<title>Node32&#45;&gt;Node25</title>
<path fill="none" stroke="#191970" d="M1374.6866,-128.9717C1421.8417,-117.0495 1502.6416,-96.6208 1554.1268,-83.6038"/>
<polygon fill="#191970" stroke="#191970" points="1555.1773,-86.9484 1564.0143,-81.1039 1553.4615,-80.1619 1555.1773,-86.9484"/>
</g>
<!-- Node32&#45;&gt;Node29 -->
<g id="edge57" class="edge">
<title>Node32&#45;&gt;Node29</title>
<path fill="none" stroke="#191970" d="M1324.535,-128.9005C1310.4513,-118.0544 1287.3112,-100.2339 1270.5461,-87.3229"/>
<polygon fill="#191970" stroke="#191970" points="1272.5003,-84.4102 1262.4419,-81.0817 1268.2292,-89.9562 1272.5003,-84.4102"/>
</g>
<!-- Node33 -->
<g id="node34" class="node">
<title>Node33</title>
<polygon fill="#ffffff" stroke="#bfbfbf" points="1683,-62 1683,-81 1793,-81 1793,-62 1683,-62"/>
<text text-anchor="middle" x="1738" y="-69" font-family="Helvetica,sans-Serif" font-size="10.00" fill="#000000">AMReX_Geometry.H</text>
</g>
<!-- Node32&#45;&gt;Node33 -->
<g id="edge59" class="edge">
<title>Node32&#45;&gt;Node33</title>
<path fill="none" stroke="#191970" d="M1400.7459,-130.3148C1468.5287,-121.2416 1578.7387,-105.4305 1673,-87 1678.6892,-85.8876 1684.6339,-84.6189 1690.5176,-83.2974"/>
<polygon fill="#191970" stroke="#191970" points="1691.3474,-86.698 1700.306,-81.0416 1689.7754,-79.8768 1691.3474,-86.698"/>
</g>
<!-- Node34&#45;&gt;Node2 -->
<g id="edge62" class="edge">
<title>Node34&#45;&gt;Node2</title>
<path fill="none" stroke="#191970" d="M163.6327,-57.5588C166.7924,-56.9848 169.93,-56.4591 173,-56 397.5757,-22.4188 462.2351,-63.5769 689.3142,-19.6265"/>
<polygon fill="#191970" stroke="#191970" points="690.0654,-23.0459 699.2007,-17.6795 688.7128,-16.1778 690.0654,-23.0459"/>
</g>
<!-- Node34&#45;&gt;Node4 -->
<g id="edge63" class="edge">
<title>Node34&#45;&gt;Node4</title>
<path fill="none" stroke="#191970" d="M163.6148,-57.4311C166.7791,-56.89 169.9225,-56.4063 173,-56 620.2929,3.059 741.6941,-70.7922 1194.2637,-19.8751"/>
<polygon fill="#191970" stroke="#191970" points="1194.796,-23.3371 1204.3355,-18.7275 1194.0036,-16.3821 1194.796,-23.3371"/>
</g>
<!-- Node35 -->
<g id="node36" class="node">
<title>Node35</title>
<polygon fill="#ffffff" stroke="#bfbfbf" points="160,-.5 160,-19.5 204,-19.5 204,-.5 160,-.5"/>
<text text-anchor="middle" x="182" y="-7.5" font-family="Helvetica,sans-Serif" font-size="10.00" fill="#000000">vector</text>
</g>
<!-- Node34&#45;&gt;Node35 -->
<g id="edge64" class="edge">
<title>Node34&#45;&gt;Node35</title>
<path fill="none" stroke="#191970" d="M124.7865,-56.2977C136.1053,-47.1384 150.5105,-35.4816 162.0346,-26.1562"/>
<polygon fill="#191970" stroke="#191970" points="164.2595,-28.8583 169.8314,-19.8469 159.8561,-23.4167 164.2595,-28.8583"/>
</g>
<!-- Node36 -->
<g id="node37" class="node">
<title>Node36</title>
<polygon fill="#ffffff" stroke="#bfbfbf" points="0,-.5 0,-19.5 52,-19.5 52,-.5 0,-.5"/>
<text text-anchor="middle" x="26" y="-7.5" font-family="Helvetica,sans-Serif" font-size="10.00" fill="#000000">netcdf.h</text>
</g>
<!-- Node34&#45;&gt;Node36 -->
<g id="edge65" class="edge">
<title>Node34&#45;&gt;Node36</title>
<path fill="none" stroke="#191970" d="M86.2247,-56.2977C74.3102,-47.1384 59.1468,-35.4816 47.0162,-26.1562"/>
<polygon fill="#191970" stroke="#191970" points="48.8703,-23.1668 38.809,-19.8469 44.604,-28.7165 48.8703,-23.1668"/>
</g>
<!-- Node37 -->
<g id="node38" class="node">
<title>Node37</title>
<polygon fill="#ffffff" stroke="#bfbfbf" points="70.5,-.5 70.5,-19.5 141.5,-19.5 141.5,-.5 70.5,-.5"/>
<text text-anchor="middle" x="106" y="-7.5" font-family="Helvetica,sans-Serif" font-size="10.00" fill="#000000">netcdf_par.h</text>
</g>
<!-- Node34&#45;&gt;Node37 -->
<g id="edge66" class="edge">
<title>Node34&#45;&gt;Node37</title>
<path fill="none" stroke="#191970" d="M106,-56.2977C106,-48.3834 106,-38.6043 106,-30.0759"/>
<polygon fill="#191970" stroke="#191970" points="109.5001,-29.8469 106,-19.8469 102.5001,-29.847 109.5001,-29.8469"/>
</g>
</g>
</svg>
        <g id="navigator" transform="translate(0 0)" fill="#404254">
                <rect fill="#f2f5e9" fill-opacity="0.5" stroke="#606060" stroke-width=".5" x="0" y="0" width="60" height="60"/>
                <use id="zoomplus" xlink:href="#zoomPlus" x="17" y="9" onmousedown="handleZoom(evt,'in')"/>
                <use id="zoomminus" xlink:href="#zoomMin" x="42" y="9" onmousedown="handleZoom(evt,'out')"/>
                <use id="reset" xlink:href="#resetDef" x="30" y="36" onmousedown="handleReset()"/>
                <g id="arrowUp" xlink:href="#dirArrow" transform="translate(30 24)" onmousedown="handlePan(0,-1)">
                  <use xlink:href="#rim" fill="#404040">
                        <set attributeName="fill" to="#808080" begin="arrowUp.mouseover" end="arrowUp.mouseout"/>
                  </use>
                  <path fill="none" stroke="white" stroke-width="1.5" d="M0,-3.0v7 M-2.5,-0.5L0,-3.0L2.5,-0.5"/>
                </g>
                <g id="arrowRight" xlink:href="#dirArrow" transform="rotate(90) translate(36 -43)" onmousedown="handlePan(1,0)">
                  <use xlink:href="#rim" fill="#404040">
                        <set attributeName="fill" to="#808080" begin="arrowRight.mouseover" end="arrowRight.mouseout"/>
                  </use>
                  <path fill="none" stroke="white" stroke-width="1.5" d="M0,-3.0v7 M-2.5,-0.5L0,-3.0L2.5,-0.5"/>
                </g>
                <g id="arrowDown" xlink:href="#dirArrow" transform="rotate(180) translate(-30 -48)" onmousedown="handlePan(0,1)">
                  <use xlink:href="#rim" fill="#404040">
                        <set attributeName="fill" to="#808080" begin="arrowDown.mouseover" end="arrowDown.mouseout"/>
                  </use>
                  <path fill="none" stroke="white" stroke-width="1.5" d="M0,-3.0v7 M-2.5,-0.5L0,-3.0L2.5,-0.5"/>
                </g>
                <g id="arrowLeft" xlink:href="#dirArrow" transform="rotate(270) translate(-36 17)" onmousedown="handlePan(-1,0)">
                  <use xlink:href="#rim" fill="#404040">
                        <set attributeName="fill" to="#808080" begin="arrowLeft.mouseover" end="arrowLeft.mouseout"/>
                  </use>
                  <path fill="none" stroke="white" stroke-width="1.5" d="M0,-3.0v7 M-2.5,-0.5L0,-3.0L2.5,-0.5"/>
                </g>
        </g>
        <svg viewBox="0 0 15 15" width="100%" height="30px" preserveAspectRatio="xMaxYMin meet">
         <g id="arrow_out" transform="scale(0.3 0.3)">
          <a xlink:href="_a_b_l_boundary_plane_8_h__incl_org.svg" target="_base">
           <rect id="button" ry="5" rx="5" y="6" x="6" height="38" width="38"
                fill="#f2f5e9" fill-opacity="0.5" stroke="#606060" stroke-width="1.0"/>
           <path id="arrow"
             d="M 11.500037,31.436501 C 11.940474,20.09759 22.043105,11.32322 32.158766,21.979434 L 37.068811,17.246167 C 37.068811,17.246167 37.088388,32 37.088388,32 L 22.160133,31.978069 C 22.160133,31.978069 26.997745,27.140456 26.997745,27.140456 C 18.528582,18.264221 13.291696,25.230495 11.500037,31.436501 z"
             style="fill:#404040;"/>
          </a>
         </g>
        </svg>
</svg>
