<?xml version="1.0" encoding="UTF-8" standalone="no"?>
<!DOCTYPE svg PUBLIC "-//W3C//DTD SVG 1.1//EN"
 "http://www.w3.org/Graphics/SVG/1.1/DTD/svg11.dtd">
<!-- Generated by graphviz version 2.40.1 (20161225.0304)
 -->
<!-- Title: ABLStats.H Pages: 1 -->
<svg width="703pt" height="151pt"
 viewBox="0.00 0.00 702.50 151.00" xmlns="http://www.w3.org/2000/svg" xmlns:xlink="http://www.w3.org/1999/xlink">
<g id="graph0" class="graph" transform="scale(1 1) rotate(0) translate(4 147)">
<title>ABLStats.H</title>
<polygon fill="#ffffff" stroke="transparent" points="-4,4 -4,-147 698.5,-147 698.5,4 -4,4"/>
<!-- Node49 -->
<g id="node1" class="node">
<title>Node49</title>
<polygon fill="#bfbfbf" stroke="#000000" points="402.5,-123.5 402.5,-142.5 471.5,-142.5 471.5,-123.5 402.5,-123.5"/>
<text text-anchor="middle" x="437" y="-130.5" font-family="Helvetica,sans-Serif" font-size="10.00" fill="#000000">ABLStats.H</text>
</g>
<!-- Node50 -->
<g id="node2" class="node">
<title>Node50</title>
<g id="a_node2"><a xlink:href="_a_b_l_8_h.html" target="_top" xlink:title="ABL.H">
<polygon fill="#ffffff" stroke="#000000" points="374,-67.5 374,-86.5 420,-86.5 420,-67.5 374,-67.5"/>
<text text-anchor="middle" x="397" y="-74.5" font-family="Helvetica,sans-Serif" font-size="10.00" fill="#000000">ABL.H</text>
</a>
</g>
</g>
<!-- Node49&#45;&gt;Node50 -->
<g id="edge1" class="edge">
<title>Node49&#45;&gt;Node50</title>
<path fill="none" stroke="#191970" d="M424.0864,-114.9209C417.3697,-105.5176 409.4283,-94.3997 403.8876,-86.6427"/>
<polygon fill="#191970" stroke="#191970" points="421.372,-117.1425 430.0325,-123.2455 427.0682,-113.0738 421.372,-117.1425"/>
</g>
<!-- Node58 -->
<g id="node10" class="node">
<title>Node58</title>
<g id="a_node10"><a xlink:href="_a_b_l_stats_8cpp.html" target="_top" xlink:title="ABLStats.cpp">
<polygon fill="#ffffff" stroke="#000000" points="438.5,-67.5 438.5,-86.5 515.5,-86.5 515.5,-67.5 438.5,-67.5"/>
<text text-anchor="middle" x="477" y="-74.5" font-family="Helvetica,sans-Serif" font-size="10.00" fill="#000000">ABLStats.cpp</text>
</a>
</g>
</g>
<!-- Node49&#45;&gt;Node58 -->
<g id="edge9" class="edge">
<title>Node49&#45;&gt;Node58</title>
<path fill="none" stroke="#191970" d="M449.9136,-114.9209C456.6303,-105.5176 464.5717,-94.3997 470.1124,-86.6427"/>
<polygon fill="#191970" stroke="#191970" points="446.9318,-113.0738 443.9675,-123.2455 452.628,-117.1425 446.9318,-113.0738"/>
</g>
<!-- Node51 -->
<g id="node3" class="node">
<title>Node51</title>
<g id="a_node3"><a xlink:href="incflo__set__velocity__bcs_8cpp.html" target="_top" xlink:title="incflo_set_velocity\l_bcs.cpp">
<polygon fill="#ffffff" stroke="#000000" points="0,-.5 0,-30.5 98,-30.5 98,-.5 0,-.5"/>
<text text-anchor="start" x="8" y="-18.5" font-family="Helvetica,sans-Serif" font-size="10.00" fill="#000000">incflo_set_velocity</text>
<text text-anchor="middle" x="49" y="-7.5" font-family="Helvetica,sans-Serif" font-size="10.00" fill="#000000">_bcs.cpp</text>
</a>
</g>
</g>
<!-- Node50&#45;&gt;Node51 -->
<g id="edge2" class="edge">
<title>Node50&#45;&gt;Node51</title>
<path fill="none" stroke="#191970" d="M363.8778,-72.8854C309.8038,-65.9135 199.3281,-50.6042 107,-31 104.1453,-30.3938 101.2211,-29.7349 98.277,-29.0419"/>
<polygon fill="#191970" stroke="#191970" points="363.5557,-76.3726 373.9185,-74.1675 364.4423,-69.429 363.5557,-76.3726"/>
</g>
<!-- Node52 -->
<g id="node4" class="node">
<title>Node52</title>
<g id="a_node4"><a xlink:href="_a_b_l_forcing_8cpp.html" target="_top" xlink:title="ABLForcing.cpp">
<polygon fill="#ffffff" stroke="#000000" points="116,-6 116,-25 202,-25 202,-6 116,-6"/>
<text text-anchor="middle" x="159" y="-13" font-family="Helvetica,sans-Serif" font-size="10.00" fill="#000000">ABLForcing.cpp</text>
</a>
</g>
</g>
<!-- Node50&#45;&gt;Node52 -->
<g id="edge3" class="edge">
<title>Node50&#45;&gt;Node52</title>
<path fill="none" stroke="#191970" d="M363.8857,-69.3094C326.594,-60.5329 264.2447,-45.5108 211,-31 204.1834,-29.1423 196.8977,-27.0427 190.0028,-25.0024"/>
<polygon fill="#191970" stroke="#191970" points="363.176,-72.7379 373.7111,-71.6136 364.7743,-65.9228 363.176,-72.7379"/>
</g>
<!-- Node53 -->
<g id="node5" class="node">
<title>Node53</title>
<g id="a_node5"><a xlink:href="_a_b_l_mean_boussinesq_8cpp.html" target="_top" xlink:title="ABLMeanBoussinesq.cpp">
<polygon fill="#ffffff" stroke="#000000" points="220.5,-6 220.5,-25 349.5,-25 349.5,-6 220.5,-6"/>
<text text-anchor="middle" x="285" y="-13" font-family="Helvetica,sans-Serif" font-size="10.00" fill="#000000">ABLMeanBoussinesq.cpp</text>
</a>
</g>
</g>
<!-- Node50&#45;&gt;Node53 -->
<g id="edge4" class="edge">
<title>Node50&#45;&gt;Node53</title>
<path fill="none" stroke="#191970" d="M370.7227,-62.571C349.6453,-50.9972 320.658,-35.0801 302.3771,-25.0419"/>
<polygon fill="#191970" stroke="#191970" points="369.0499,-65.6453 379.5,-67.3906 372.4192,-59.5095 369.0499,-65.6453"/>
</g>
<!-- Node54 -->
<g id="node6" class="node">
<title>Node54</title>
<g id="a_node6"><a xlink:href="incflo_8cpp.html" target="_top" xlink:title="incflo.cpp">
<polygon fill="#ffffff" stroke="#000000" points="367.5,-6 367.5,-25 426.5,-25 426.5,-6 367.5,-6"/>
<text text-anchor="middle" x="397" y="-13" font-family="Helvetica,sans-Serif" font-size="10.00" fill="#000000">incflo.cpp</text>
</a>
</g>
</g>
<!-- Node50&#45;&gt;Node54 -->
<g id="edge5" class="edge">
<title>Node50&#45;&gt;Node54</title>
<path fill="none" stroke="#191970" d="M397,-57.2462C397,-46.5519 397,-33.814 397,-25.2449"/>
<polygon fill="#191970" stroke="#191970" points="393.5001,-57.3906 397,-67.3906 400.5001,-57.3907 393.5001,-57.3906"/>
</g>
<!-- Node55 -->
<g id="node7" class="node">
<title>Node55</title>
<g id="a_node7"><a xlink:href="init_8cpp.html" target="_top" xlink:title="init.cpp">
<polygon fill="#ffffff" stroke="#000000" points="445,-6 445,-25 493,-25 493,-6 445,-6"/>
<text text-anchor="middle" x="469" y="-13" font-family="Helvetica,sans-Serif" font-size="10.00" fill="#000000">init.cpp</text>
</a>
</g>
</g>
<!-- Node50&#45;&gt;Node55 -->
<g id="edge6" class="edge">
<title>Node50&#45;&gt;Node55</title>
<path fill="none" stroke="#191970" d="M415.8848,-60.8692C429.1277,-49.5576 446.3976,-34.8062 457.5914,-25.2449"/>
<polygon fill="#191970" stroke="#191970" points="413.5805,-58.2344 408.25,-67.3906 418.127,-63.557 413.5805,-58.2344"/>
</g>
<!-- Node56 -->
<g id="node8" class="node">
<title>Node56</title>
<g id="a_node8"><a xlink:href="_a_b_l_8cpp.html" target="_top" xlink:title="ABL.cpp">
<polygon fill="#ffffff" stroke="#000000" points="511,-6 511,-25 565,-25 565,-6 511,-6"/>
<text text-anchor="middle" x="538" y="-13" font-family="Helvetica,sans-Serif" font-size="10.00" fill="#000000">ABL.cpp</text>
</a>
</g>
</g>
<!-- Node50&#45;&gt;Node56 -->
<g id="edge7" class="edge">
<title>Node50&#45;&gt;Node56</title>
<path fill="none" stroke="#191970" d="M428.3116,-63.3428C454.9729,-51.7139 492.5931,-35.3051 516.1235,-25.0419"/>
<polygon fill="#191970" stroke="#191970" points="426.798,-60.1845 419.0313,-67.3906 429.5966,-66.6007 426.798,-60.1845"/>
</g>
<!-- Node57 -->
<g id="node9" class="node">
<title>Node57</title>
<g id="a_node9"><a xlink:href="_a_b_l_wall_function_8cpp.html" target="_top" xlink:title="ABLWallFunction.cpp">
<polygon fill="#ffffff" stroke="#000000" points="583.5,-6 583.5,-25 694.5,-25 694.5,-6 583.5,-6"/>
<text text-anchor="middle" x="639" y="-13" font-family="Helvetica,sans-Serif" font-size="10.00" fill="#000000">ABLWallFunction.cpp</text>
</a>
</g>
</g>
<!-- Node50&#45;&gt;Node57 -->
<g id="edge8" class="edge">
<title>Node50&#45;&gt;Node57</title>
<path fill="none" stroke="#191970" d="M429.6964,-67.0835C429.7978,-67.0556 429.899,-67.0277 430,-67 461.5323,-58.3439 547.6198,-37.4563 598.9403,-25.105"/>
<polygon fill="#191970" stroke="#191970" points="428.6837,-63.7327 420.0341,-69.8512 430.6113,-70.4621 428.6837,-63.7327"/>
</g>
</g>
</svg>
