<?xml version="1.0" encoding="UTF-8" standalone="no"?>
<!DOCTYPE svg PUBLIC "-//W3C//DTD SVG 1.1//EN"
 "http://www.w3.org/Graphics/SVG/1.1/DTD/svg11.dtd">
<!-- Generated by graphviz version 2.40.1 (20161225.0304)
 -->
<!-- Title: ABLWallFunction.H Pages: 1 -->
<svg width="439pt" height="196pt"
 viewBox="0.00 0.00 438.50 196.00" xmlns="http://www.w3.org/2000/svg" xmlns:xlink="http://www.w3.org/1999/xlink">
<g id="graph0" class="graph" transform="scale(1 1) rotate(0) translate(4 192)">
<title>ABLWallFunction.H</title>
<polygon fill="#ffffff" stroke="transparent" points="-4,4 -4,-192 434.5,-192 434.5,4 -4,4"/>
<!-- Node38 -->
<g id="node1" class="node">
<title>Node38</title>
<polygon fill="#bfbfbf" stroke="#000000" points="141,-168.5 141,-187.5 244,-187.5 244,-168.5 141,-168.5"/>
<text text-anchor="middle" x="192.5" y="-175.5" font-family="Helvetica,sans-Serif" font-size="10.00" fill="#000000">ABLWallFunction.H</text>
</g>
<!-- Node39 -->
<g id="node2" class="node">
<title>Node39</title>
<g id="a_node2"><a xlink:href="_a_b_l_8_h.html" target="_top" xlink:title="ABL.H">
<polygon fill="#ffffff" stroke="#000000" points="171.5,-56.5 171.5,-75.5 217.5,-75.5 217.5,-56.5 171.5,-56.5"/>
<text text-anchor="middle" x="194.5" y="-63.5" font-family="Helvetica,sans-Serif" font-size="10.00" fill="#000000">ABL.H</text>
</a>
</g>
</g>
<!-- Node38&#45;&gt;Node39 -->
<g id="edge1" class="edge">
<title>Node38&#45;&gt;Node39</title>
<path fill="none" stroke="#191970" d="M186.0805,-158.387C182.5683,-145.2814 179.3322,-127.6415 181.5,-112 183.2772,-99.1763 187.7159,-84.8999 190.9124,-75.7033"/>
<polygon fill="#191970" stroke="#191970" points="182.787,-159.5917 188.9831,-168.1858 189.4987,-157.6035 182.787,-159.5917"/>
</g>
<!-- Node44 -->
<g id="node7" class="node">
<title>Node44</title>
<g id="a_node7"><a xlink:href="_a_b_l_wall_function_8cpp.html" target="_top" xlink:title="ABLWallFunction.cpp">
<polygon fill="#ffffff" stroke="#000000" points="0,-.5 0,-19.5 111,-19.5 111,-.5 0,-.5"/>
<text text-anchor="middle" x="55.5" y="-7.5" font-family="Helvetica,sans-Serif" font-size="10.00" fill="#000000">ABLWallFunction.cpp</text>
</a>
</g>
</g>
<!-- Node38&#45;&gt;Node44 -->
<g id="edge11" class="edge">
<title>Node38&#45;&gt;Node44</title>
<path fill="none" stroke="#191970" d="M178.2681,-160.5477C149.6498,-125.4538 85.9569,-47.3486 63.5144,-19.8279"/>
<polygon fill="#191970" stroke="#191970" points="175.7095,-162.9483 184.7418,-168.4862 181.1344,-158.5244 175.7095,-162.9483"/>
</g>
<!-- Node45 -->
<g id="node8" class="node">
<title>Node45</title>
<g id="a_node8"><a xlink:href="_a_b_l_stats_8_h.html" target="_top" xlink:title="ABLStats.H">
<polygon fill="#ffffff" stroke="#000000" points="190,-112.5 190,-131.5 259,-131.5 259,-112.5 190,-112.5"/>
<text text-anchor="middle" x="224.5" y="-119.5" font-family="Helvetica,sans-Serif" font-size="10.00" fill="#000000">ABLStats.H</text>
</a>
</g>
</g>
<!-- Node38&#45;&gt;Node45 -->
<g id="edge7" class="edge">
<title>Node38&#45;&gt;Node45</title>
<path fill="none" stroke="#191970" d="M203.1645,-159.3372C208.4654,-150.0605 214.6487,-139.2398 218.9899,-131.6427"/>
<polygon fill="#191970" stroke="#191970" points="199.9966,-157.8266 198.074,-168.2455 206.0743,-161.2996 199.9966,-157.8266"/>
</g>
<!-- Node47 -->
<g id="node10" class="node">
<title>Node47</title>
<g id="a_node10"><a xlink:href="_boussinesq_bubble_8cpp.html" target="_top" xlink:title="BoussinesqBubble.cpp">
<polygon fill="#ffffff" stroke="#000000" points="277.5,-112.5 277.5,-131.5 393.5,-131.5 393.5,-112.5 277.5,-112.5"/>
<text text-anchor="middle" x="335.5" y="-119.5" font-family="Helvetica,sans-Serif" font-size="10.00" fill="#000000">BoussinesqBubble.cpp</text>
</a>
</g>
</g>
<!-- Node38&#45;&gt;Node47 -->
<g id="edge10" class="edge">
<title>Node38&#45;&gt;Node47</title>
<path fill="none" stroke="#191970" d="M226.5798,-164.6541C252.6573,-154.4419 287.9815,-140.6086 311.2382,-131.5011"/>
<polygon fill="#191970" stroke="#191970" points="225.1178,-161.4677 217.0826,-168.3733 227.6703,-167.9858 225.1178,-161.4677"/>
</g>
<!-- Node40 -->
<g id="node3" class="node">
<title>Node40</title>
<g id="a_node3"><a xlink:href="_a_b_l_forcing_8cpp.html" target="_top" xlink:title="ABLForcing.cpp">
<polygon fill="#ffffff" stroke="#000000" points="344.5,-.5 344.5,-19.5 430.5,-19.5 430.5,-.5 344.5,-.5"/>
<text text-anchor="middle" x="387.5" y="-7.5" font-family="Helvetica,sans-Serif" font-size="10.00" fill="#000000">ABLForcing.cpp</text>
</a>
</g>
</g>
<!-- Node39&#45;&gt;Node40 -->
<g id="edge2" class="edge">
<title>Node39&#45;&gt;Node40</title>
<path fill="none" stroke="#191970" d="M227.1981,-56.0892C227.2989,-56.0594 227.3995,-56.0297 227.5,-56 271.0204,-43.1506 321.3386,-28.7606 353.7479,-19.5524"/>
<polygon fill="#191970" stroke="#191970" points="226.1474,-52.7501 217.5664,-58.9644 228.1497,-59.4577 226.1474,-52.7501"/>
</g>
<!-- Node41 -->
<g id="node4" class="node">
<title>Node41</title>
<g id="a_node4"><a xlink:href="incflo_8cpp.html" target="_top" xlink:title="incflo.cpp">
<polygon fill="#ffffff" stroke="#000000" points="129,-.5 129,-19.5 188,-19.5 188,-.5 129,-.5"/>
<text text-anchor="middle" x="158.5" y="-7.5" font-family="Helvetica,sans-Serif" font-size="10.00" fill="#000000">incflo.cpp</text>
</a>
</g>
</g>
<!-- Node39&#45;&gt;Node41 -->
<g id="edge3" class="edge">
<title>Node39&#45;&gt;Node41</title>
<path fill="none" stroke="#191970" d="M182.6904,-47.6296C176.6856,-38.2887 169.6341,-27.3197 164.6989,-19.6427"/>
<polygon fill="#191970" stroke="#191970" points="179.8775,-49.7264 188.2293,-56.2455 185.7658,-45.9411 179.8775,-49.7264"/>
</g>
<!-- Node42 -->
<g id="node5" class="node">
<title>Node42</title>
<g id="a_node5"><a xlink:href="init_8cpp.html" target="_top" xlink:title="init.cpp">
<polygon fill="#ffffff" stroke="#000000" points="206.5,-.5 206.5,-19.5 254.5,-19.5 254.5,-.5 206.5,-.5"/>
<text text-anchor="middle" x="230.5" y="-7.5" font-family="Helvetica,sans-Serif" font-size="10.00" fill="#000000">init.cpp</text>
</a>
</g>
</g>
<!-- Node39&#45;&gt;Node42 -->
<g id="edge4" class="edge">
<title>Node39&#45;&gt;Node42</title>
<path fill="none" stroke="#191970" d="M206.3096,-47.6296C212.3144,-38.2887 219.3659,-27.3197 224.3011,-19.6427"/>
<polygon fill="#191970" stroke="#191970" points="203.2342,-45.9411 200.7707,-56.2455 209.1225,-49.7264 203.2342,-45.9411"/>
</g>
<!-- Node43 -->
<g id="node6" class="node">
<title>Node43</title>
<g id="a_node6"><a xlink:href="_a_b_l_8cpp.html" target="_top" xlink:title="ABL.cpp">
<polygon fill="#ffffff" stroke="#000000" points="272.5,-.5 272.5,-19.5 326.5,-19.5 326.5,-.5 272.5,-.5"/>
<text text-anchor="middle" x="299.5" y="-7.5" font-family="Helvetica,sans-Serif" font-size="10.00" fill="#000000">ABL.cpp</text>
</a>
</g>
</g>
<!-- Node39&#45;&gt;Node43 -->
<g id="edge5" class="edge">
<title>Node39&#45;&gt;Node43</title>
<path fill="none" stroke="#191970" d="M221.7625,-51.46C240.5522,-41.4388 265.0013,-28.3993 281.42,-19.6427"/>
<polygon fill="#191970" stroke="#191970" points="219.9661,-48.4514 212.7896,-56.2455 223.2602,-54.6278 219.9661,-48.4514"/>
</g>
<!-- Node39&#45;&gt;Node44 -->
<g id="edge6" class="edge">
<title>Node39&#45;&gt;Node44</title>
<path fill="none" stroke="#191970" d="M161.6905,-52.7818C136.3958,-42.5911 102.0105,-28.7381 79.3073,-19.5914"/>
<polygon fill="#191970" stroke="#191970" points="160.651,-56.1363 171.2345,-56.6269 163.2669,-49.6435 160.651,-56.1363"/>
</g>
<!-- Node45&#45;&gt;Node39 -->
<g id="edge8" class="edge">
<title>Node45&#45;&gt;Node39</title>
<path fill="none" stroke="#191970" d="M214.502,-103.3372C209.5324,-94.0605 203.7356,-83.2398 199.6657,-75.6427"/>
<polygon fill="#191970" stroke="#191970" points="211.4669,-105.0835 219.2744,-112.2455 217.6373,-101.7779 211.4669,-105.0835"/>
</g>
<!-- Node46 -->
<g id="node9" class="node">
<title>Node46</title>
<g id="a_node9"><a xlink:href="_a_b_l_stats_8cpp.html" target="_top" xlink:title="ABLStats.cpp">
<polygon fill="#ffffff" stroke="#000000" points="236,-56.5 236,-75.5 313,-75.5 313,-56.5 236,-56.5"/>
<text text-anchor="middle" x="274.5" y="-63.5" font-family="Helvetica,sans-Serif" font-size="10.00" fill="#000000">ABLStats.cpp</text>
</a>
</g>
</g>
<!-- Node45&#45;&gt;Node46 -->
<g id="edge9" class="edge">
<title>Node45&#45;&gt;Node46</title>
<path fill="none" stroke="#191970" d="M240.1247,-104.5004C248.6273,-94.9775 258.8218,-83.5596 265.8905,-75.6427"/>
<polygon fill="#191970" stroke="#191970" points="237.2587,-102.4551 233.2093,-112.2455 242.4803,-107.1172 237.2587,-102.4551"/>
</g>
</g>
</svg>
