<?xml version="1.0" encoding="UTF-8" standalone="no"?>
<!DOCTYPE svg PUBLIC "-//W3C//DTD SVG 1.1//EN"
 "http://www.w3.org/Graphics/SVG/1.1/DTD/svg11.dtd">
<!-- Generated by graphviz version 2.40.1 (20161225.0304)
 -->
<!-- Title: ABLWallFunction.H Pages: 1 -->
<!--zoomable 352 -->
<svg id="main" version="1.1" xmlns="http://www.w3.org/2000/svg" xmlns:xlink="http://www.w3.org/1999/xlink" xml:space="preserve" onload="init(evt)">
<style type="text/css"><![CDATA[
.edge:hover path { stroke: red; }
.edge:hover polygon { stroke: red; fill: red; }
]]></style>
<script type="text/javascript"><![CDATA[
var edges = document.getElementsByTagName('g');
if (edges && edges.length) {
  for (var i=0;i<edges.length;i++) {
    if (edges[i].id.substr(0,4)=='edge') {
      edges[i].setAttribute('class','edge');
    }
  }
}
]]></script>
        <defs>
                <circle id="rim" cx="0" cy="0" r="7"/>
                <circle id="rim2" cx="0" cy="0" r="3.5"/>
                <g id="zoomPlus">
                        <use xlink:href="#rim" fill="#404040">
                                <set attributeName="fill" to="#808080" begin="zoomplus.mouseover" end="zoomplus.mouseout"/>
                        </use>
                        <path d="M-4,0h8M0,-4v8" fill="none" stroke="white" stroke-width="1.5" pointer-events="none"/>
                </g>
                <g id="zoomMin">
                        <use xlink:href="#rim" fill="#404040">
                                <set attributeName="fill" to="#808080" begin="zoomminus.mouseover" end="zoomminus.mouseout"/>
                        </use>
                        <path d="M-4,0h8" fill="none" stroke="white" stroke-width="1.5" pointer-events="none"/>
                </g>
                <g id="dirArrow">
                        <path fill="none" stroke="white" stroke-width="1.5" d="M0,-3.0v7 M-2.5,-0.5L0,-3.0L2.5,-0.5"/>
                </g>
               <g id="resetDef">
                       <use xlink:href="#rim2" fill="#404040">
                               <set attributeName="fill" to="#808080" begin="reset.mouseover" end="reset.mouseout"/>
                       </use>
               </g>
        </defs>

<script type="text/javascript">
var viewWidth = 2341;
var viewHeight = 352;
var sectionId = 'dynsection-0';
</script>
<script xlink:href="svgpan.js"/>
<svg id="graph" class="graph">
<g id="viewport">
<title>ABLWallFunction.H</title>
<polygon fill="#ffffff" stroke="transparent" points="-4,4 -4,-348 2337.3891,-348 2337.3891,4 -4,4"/>
<!-- Node0 -->
<g id="node1" class="node">
<title>Node0</title>
<polygon fill="#bfbfbf" stroke="#000000" points="871,-324.5 871,-343.5 974,-343.5 974,-324.5 871,-324.5"/>
<text text-anchor="middle" x="922.5" y="-331.5" font-family="Helvetica,sans-Serif" font-size="10.00" fill="#000000">ABLWallFunction.H</text>
</g>
<!-- Node1 -->
<g id="node2" class="node">
<title>Node1</title>
<g id="a_node2"><a xlink:href="_c_f_d_sim_8_h.html" target="_top" xlink:title="amr&#45;wind/CFDSim.H">
<polygon fill="#ffffff" stroke="#000000" points="703.5,-196 703.5,-215 811.5,-215 811.5,-196 703.5,-196"/>
<text text-anchor="middle" x="757.5" y="-203" font-family="Helvetica,sans-Serif" font-size="10.00" fill="#000000">amr&#45;wind/CFDSim.H</text>
</a>
</g>
</g>
<!-- Node0&#45;&gt;Node1 -->
<g id="edge1" class="edge">
<title>Node0&#45;&gt;Node1</title>
<path fill="none" stroke="#191970" d="M907.0564,-324.4672C892.8238,-315.505 871.2792,-301.4866 853.5,-288 825.1326,-266.4816 794.2184,-239.1545 775.3442,-221.991"/>
<polygon fill="#191970" stroke="#191970" points="777.5437,-219.2595 767.8033,-215.0908 772.8181,-224.4237 777.5437,-219.2595"/>
</g>
<!-- Node33 -->
<g id="node34" class="node">
<title>Node33</title>
<g id="a_node34"><a xlink:href="_field_plane_averaging_8_h.html" target="_top" xlink:title="amr&#45;wind/utilities\l/FieldPlaneAveraging.H">
<polygon fill="#ffffff" stroke="#000000" points="863,-257.5 863,-287.5 982,-287.5 982,-257.5 863,-257.5"/>
<text text-anchor="start" x="871" y="-275.5" font-family="Helvetica,sans-Serif" font-size="10.00" fill="#000000">amr&#45;wind/utilities</text>
<text text-anchor="middle" x="922.5" y="-264.5" font-family="Helvetica,sans-Serif" font-size="10.00" fill="#000000">/FieldPlaneAveraging.H</text>
</a>
</g>
</g>
<!-- Node0&#45;&gt;Node33 -->
<g id="edge57" class="edge">
<title>Node0&#45;&gt;Node33</title>
<path fill="none" stroke="#191970" d="M922.5,-324.3906C922.5,-317.2234 922.5,-307.0862 922.5,-297.671"/>
<polygon fill="#191970" stroke="#191970" points="926.0001,-297.5446 922.5,-287.5446 919.0001,-297.5446 926.0001,-297.5446"/>
</g>
<!-- Node35 -->
<g id="node36" class="node">
<title>Node35</title>
<g id="a_node36"><a xlink:href="_field_b_c_ops_8_h.html" target="_top" xlink:title="amr&#45;wind/core/FieldBCOps.H">
<polygon fill="#ffffff" stroke="#000000" points="1999,-129 1999,-148 2144,-148 2144,-129 1999,-129"/>
<text text-anchor="middle" x="2071.5" y="-136" font-family="Helvetica,sans-Serif" font-size="10.00" fill="#000000">amr&#45;wind/core/FieldBCOps.H</text>
</a>
</g>
</g>
<!-- Node0&#45;&gt;Node35 -->
<g id="edge62" class="edge">
<title>Node0&#45;&gt;Node35</title>
<path fill="none" stroke="#191970" d="M974.1023,-325.22C1160.2566,-293.5462 1797.202,-185.1712 2005.2063,-149.7797"/>
<polygon fill="#191970" stroke="#191970" points="2006.0986,-153.1783 2015.3698,-148.0504 2004.9244,-146.2775 2006.0986,-153.1783"/>
</g>
<!-- Node2 -->
<g id="node3" class="node">
<title>Node2</title>
<polygon fill="#ffffff" stroke="#bfbfbf" points="603.5,-62 603.5,-81 709.5,-81 709.5,-62 603.5,-62"/>
<text text-anchor="middle" x="656.5" y="-69" font-family="Helvetica,sans-Serif" font-size="10.00" fill="#000000">AMReX_AmrCore.H</text>
</g>
<!-- Node1&#45;&gt;Node2 -->
<g id="edge2" class="edge">
<title>Node1&#45;&gt;Node2</title>
<path fill="none" stroke="#191970" d="M750.2363,-195.8631C733.4209,-173.5535 691.6046,-118.0744 669.9595,-89.3571"/>
<polygon fill="#191970" stroke="#191970" points="672.5119,-86.9286 663.6979,-81.0496 666.922,-91.142 672.5119,-86.9286"/>
</g>
<!-- Node3 -->
<g id="node4" class="node">
<title>Node3</title>
<g id="a_node4"><a xlink:href="_sim_time_8_h.html" target="_top" xlink:title="amr&#45;wind/core/SimTime.H">
<polygon fill="#ffffff" stroke="#000000" points="1617,-129 1617,-148 1748,-148 1748,-129 1617,-129"/>
<text text-anchor="middle" x="1682.5" y="-136" font-family="Helvetica,sans-Serif" font-size="10.00" fill="#000000">amr&#45;wind/core/SimTime.H</text>
</a>
</g>
</g>
<!-- Node1&#45;&gt;Node3 -->
<g id="edge3" class="edge">
<title>Node1&#45;&gt;Node3</title>
<path fill="none" stroke="#191970" d="M791.2773,-195.9933C800.6703,-193.6776 810.9227,-191.4519 820.5,-190 970.9924,-167.1849 1425.0804,-148.1618 1606.4588,-141.2694"/>
<polygon fill="#191970" stroke="#191970" points="1606.8488,-144.7572 1616.7094,-140.8818 1606.5842,-137.7622 1606.8488,-144.7572"/>
</g>
<!-- Node7 -->
<g id="node8" class="node">
<title>Node7</title>
<g id="a_node8"><a xlink:href="_field_repo_8_h.html" target="_top" xlink:title="amr&#45;wind/core/FieldRepo.H">
<polygon fill="#ffffff" stroke="#000000" points="1005.5,-129 1005.5,-148 1141.5,-148 1141.5,-129 1005.5,-129"/>
<text text-anchor="middle" x="1073.5" y="-136" font-family="Helvetica,sans-Serif" font-size="10.00" fill="#000000">amr&#45;wind/core/FieldRepo.H</text>
</a>
</g>
</g>
<!-- Node1&#45;&gt;Node7 -->
<g id="edge7" class="edge">
<title>Node1&#45;&gt;Node7</title>
<path fill="none" stroke="#191970" d="M795.0856,-195.989C803.4376,-193.9492 812.2578,-191.852 820.5,-190 886.3059,-175.2135 962.1589,-160.0173 1013.5142,-150.0013"/>
<polygon fill="#191970" stroke="#191970" points="1014.3007,-153.414 1023.4484,-148.0688 1012.964,-146.5428 1014.3007,-153.414"/>
</g>
<!-- Node22 -->
<g id="node23" class="node">
<title>Node22</title>
<g id="a_node23"><a xlink:href="_p_d_e_base_8_h.html" target="_top" xlink:title="amr&#45;wind/equation_systems\l/PDEBase.H">
<polygon fill="#ffffff" stroke="#000000" points="339,-123.5 339,-153.5 478,-153.5 478,-123.5 339,-123.5"/>
<text text-anchor="start" x="347" y="-141.5" font-family="Helvetica,sans-Serif" font-size="10.00" fill="#000000">amr&#45;wind/equation_systems</text>
<text text-anchor="middle" x="408.5" y="-130.5" font-family="Helvetica,sans-Serif" font-size="10.00" fill="#000000">/PDEBase.H</text>
</a>
</g>
</g>
<!-- Node1&#45;&gt;Node22 -->
<g id="edge35" class="edge">
<title>Node1&#45;&gt;Node22</title>
<path fill="none" stroke="#191970" d="M707.8674,-195.9717C650.677,-184.9924 555.9088,-166.7991 488.3203,-153.8237"/>
<polygon fill="#191970" stroke="#191970" points="488.6155,-150.3165 478.135,-151.8683 487.2957,-157.191 488.6155,-150.3165"/>
</g>
<!-- Node31 -->
<g id="node32" class="node">
<title>Node31</title>
<g id="a_node32"><a xlink:href="_physics_8_h.html" target="_top" xlink:title="amr&#45;wind/core/Physics.H">
<polygon fill="#ffffff" stroke="#000000" points="512,-129 512,-148 639,-148 639,-129 512,-129"/>
<text text-anchor="middle" x="575.5" y="-136" font-family="Helvetica,sans-Serif" font-size="10.00" fill="#000000">amr&#45;wind/core/Physics.H</text>
</a>
</g>
</g>
<!-- Node1&#45;&gt;Node31 -->
<g id="edge52" class="edge">
<title>Node1&#45;&gt;Node31</title>
<path fill="none" stroke="#191970" d="M731.4238,-195.9005C699.7989,-184.2584 646.3456,-164.5805 610.9876,-151.5641"/>
<polygon fill="#191970" stroke="#191970" points="612.1213,-148.2519 601.5278,-148.0817 609.703,-154.8209 612.1213,-148.2519"/>
</g>
<!-- Node4 -->
<g id="node5" class="node">
<title>Node4</title>
<polygon fill="#ffffff" stroke="#bfbfbf" points="1636,-62 1636,-81 1729,-81 1729,-62 1636,-62"/>
<text text-anchor="middle" x="1682.5" y="-69" font-family="Helvetica,sans-Serif" font-size="10.00" fill="#000000">AMReX_REAL.H</text>
</g>
<!-- Node3&#45;&gt;Node4 -->
<g id="edge4" class="edge">
<title>Node3&#45;&gt;Node4</title>
<path fill="none" stroke="#191970" d="M1682.5,-128.9005C1682.5,-119.149 1682.5,-103.7597 1682.5,-91.3695"/>
<polygon fill="#191970" stroke="#191970" points="1686.0001,-91.0816 1682.5,-81.0817 1679.0001,-91.0817 1686.0001,-91.0816"/>
</g>
<!-- Node5 -->
<g id="node6" class="node">
<title>Node5</title>
<polygon fill="#ffffff" stroke="#bfbfbf" points="1747.5,-62 1747.5,-81 1873.5,-81 1873.5,-62 1747.5,-62"/>
<text text-anchor="middle" x="1810.5" y="-69" font-family="Helvetica,sans-Serif" font-size="10.00" fill="#000000">AMReX_GpuQualifiers.H</text>
</g>
<!-- Node3&#45;&gt;Node5 -->
<g id="edge5" class="edge">
<title>Node3&#45;&gt;Node5</title>
<path fill="none" stroke="#191970" d="M1700.8393,-128.9005C1722.4156,-117.6067 1758.4391,-98.7506 1783.2766,-85.7497"/>
<polygon fill="#191970" stroke="#191970" points="1784.9582,-88.8201 1792.1947,-81.0817 1781.7119,-82.6183 1784.9582,-88.8201"/>
</g>
<!-- Node6 -->
<g id="node7" class="node">
<title>Node6</title>
<polygon fill="#ffffff" stroke="#bfbfbf" points="1891.5,-62 1891.5,-81 2001.5,-81 2001.5,-62 1891.5,-62"/>
<text text-anchor="middle" x="1946.5" y="-69" font-family="Helvetica,sans-Serif" font-size="10.00" fill="#000000">AMReX_Extension.H</text>
</g>
<!-- Node3&#45;&gt;Node6 -->
<g id="edge6" class="edge">
<title>Node3&#45;&gt;Node6</title>
<path fill="none" stroke="#191970" d="M1720.0444,-128.9717C1767.0215,-117.0495 1847.5165,-96.6208 1898.8075,-83.6038"/>
<polygon fill="#191970" stroke="#191970" points="1899.8259,-86.9563 1908.6577,-81.1039 1898.104,-80.1714 1899.8259,-86.9563"/>
</g>
<!-- Node7&#45;&gt;Node2 -->
<g id="edge32" class="edge">
<title>Node7&#45;&gt;Node2</title>
<path fill="none" stroke="#191970" d="M1005.4291,-130.6968C933.711,-121.9924 817.6389,-106.5317 718.5,-87 713.1251,-85.9411 707.5171,-84.714 701.966,-83.4231"/>
<polygon fill="#191970" stroke="#191970" points="702.6388,-79.9852 692.0979,-81.053 701.004,-86.7917 702.6388,-79.9852"/>
</g>
<!-- Node8 -->
<g id="node9" class="node">
<title>Node8</title>
<polygon fill="#ffffff" stroke="#bfbfbf" points="957,-.5 957,-19.5 998,-19.5 998,-.5 957,-.5"/>
<text text-anchor="middle" x="977.5" y="-7.5" font-family="Helvetica,sans-Serif" font-size="10.00" fill="#000000">string</text>
</g>
<!-- Node7&#45;&gt;Node8 -->
<g id="edge8" class="edge">
<title>Node7&#45;&gt;Node8</title>
<path fill="none" stroke="#191970" d="M1066.9533,-128.6717C1056.4526,-113.0279 1035.0373,-81.6148 1015.5,-56 1008.1499,-46.3635 999.5809,-35.927 992.4425,-27.4346"/>
<polygon fill="#191970" stroke="#191970" points="995.0151,-25.0567 985.8789,-19.6919 989.6754,-29.5832 995.0151,-25.0567"/>
</g>
<!-- Node9 -->
<g id="node10" class="node">
<title>Node9</title>
<polygon fill="#ffffff" stroke="#bfbfbf" points="728,-.5 728,-19.5 811,-19.5 811,-.5 728,-.5"/>
<text text-anchor="middle" x="769.5" y="-7.5" font-family="Helvetica,sans-Serif" font-size="10.00" fill="#000000">unordered_map</text>
</g>
<!-- Node7&#45;&gt;Node9 -->
<g id="edge9" class="edge">
<title>Node7&#45;&gt;Node9</title>
<path fill="none" stroke="#191970" d="M1014.1061,-128.9373C975.6524,-121.1769 925.3258,-108.0039 884.5,-87 865.1187,-77.0288 864.3475,-68.5112 846.5,-56 830.2386,-44.6006 811.0698,-33.143 795.9259,-24.5141"/>
<polygon fill="#191970" stroke="#191970" points="797.5098,-21.3892 787.0789,-19.5328 794.0754,-27.4889 797.5098,-21.3892"/>
</g>
<!-- Node10 -->
<g id="node11" class="node">
<title>Node10</title>
<g id="a_node11"><a xlink:href="_field_desc_types_8_h.html" target="_top" xlink:title="amr&#45;wind/core/FieldDescTypes.H">
<polygon fill="#ffffff" stroke="#000000" points="1139,-.5 1139,-19.5 1302,-19.5 1302,-.5 1139,-.5"/>
<text text-anchor="middle" x="1220.5" y="-7.5" font-family="Helvetica,sans-Serif" font-size="10.00" fill="#000000">amr&#45;wind/core/FieldDescTypes.H</text>
</a>
</g>
</g>
<!-- Node7&#45;&gt;Node10 -->
<g id="edge10" class="edge">
<title>Node7&#45;&gt;Node10</title>
<path fill="none" stroke="#191970" d="M1141.7223,-132.6984C1234.3598,-124.1196 1390.4315,-106.902 1407.5,-87 1416.4694,-76.5416 1415.9995,-66.8437 1407.5,-56 1394.8024,-39.8004 1351.0597,-28.5425 1309.0729,-21.2203"/>
<polygon fill="#191970" stroke="#191970" points="1309.4669,-17.7375 1299.0256,-19.5346 1308.3086,-24.641 1309.4669,-17.7375"/>
</g>
<!-- Node11 -->
<g id="node12" class="node">
<title>Node11</title>
<g id="a_node12"><a xlink:href="_field_utils_8_h.html" target="_top" xlink:title="amr&#45;wind/core/FieldUtils.H">
<polygon fill="#ffffff" stroke="#000000" points="1266,-62 1266,-81 1399,-81 1399,-62 1266,-62"/>
<text text-anchor="middle" x="1332.5" y="-69" font-family="Helvetica,sans-Serif" font-size="10.00" fill="#000000">amr&#45;wind/core/FieldUtils.H</text>
</a>
</g>
</g>
<!-- Node7&#45;&gt;Node11 -->
<g id="edge11" class="edge">
<title>Node7&#45;&gt;Node11</title>
<path fill="none" stroke="#191970" d="M1110.3333,-128.9717C1156.3247,-117.0743 1235.0623,-96.7059 1285.3959,-83.6852"/>
<polygon fill="#191970" stroke="#191970" points="1286.5697,-86.9969 1295.3744,-81.1039 1284.8165,-80.22 1286.5697,-86.9969"/>
</g>
<!-- Node12 -->
<g id="node13" class="node">
<title>Node12</title>
<polygon fill="#ffffff" stroke="#bfbfbf" points="1016.5,-.5 1016.5,-19.5 1120.5,-19.5 1120.5,-.5 1016.5,-.5"/>
<text text-anchor="middle" x="1068.5" y="-7.5" font-family="Helvetica,sans-Serif" font-size="10.00" fill="#000000">AMReX_MultiFab.H</text>
</g>
<!-- Node7&#45;&gt;Node12 -->
<g id="edge33" class="edge">
<title>Node7&#45;&gt;Node12</title>
<path fill="none" stroke="#191970" d="M1073.1242,-128.8416C1072.3098,-107.9114 1070.3679,-58.004 1069.2773,-29.9762"/>
<polygon fill="#191970" stroke="#191970" points="1072.7664,-29.6268 1068.8802,-19.7705 1065.7717,-29.899 1072.7664,-29.6268"/>
</g>
<!-- Node14 -->
<g id="node15" class="node">
<title>Node14</title>
<g id="a_node15"><a xlink:href="_field_8_h.html" target="_top" xlink:title="amr&#45;wind/core/Field.H">
<polygon fill="#ffffff" stroke="#000000" points="894,-62 894,-81 1007,-81 1007,-62 894,-62"/>
<text text-anchor="middle" x="950.5" y="-69" font-family="Helvetica,sans-Serif" font-size="10.00" fill="#000000">amr&#45;wind/core/Field.H</text>
</a>
</g>
</g>
<!-- Node7&#45;&gt;Node14 -->
<g id="edge15" class="edge">
<title>Node7&#45;&gt;Node14</title>
<path fill="none" stroke="#191970" d="M1055.8771,-128.9005C1035.2349,-117.6564 1000.832,-98.9166 976.976,-85.9219"/>
<polygon fill="#191970" stroke="#191970" points="978.5462,-82.7916 968.0902,-81.0817 975.1977,-88.9388 978.5462,-82.7916"/>
</g>
<!-- Node19 -->
<g id="node20" class="node">
<title>Node19</title>
<g id="a_node20"><a xlink:href="_int_field_8_h.html" target="_top" xlink:title="amr&#45;wind/core/IntField.H">
<polygon fill="#ffffff" stroke="#000000" points="1455.5,-62 1455.5,-81 1579.5,-81 1579.5,-62 1455.5,-62"/>
<text text-anchor="middle" x="1517.5" y="-69" font-family="Helvetica,sans-Serif" font-size="10.00" fill="#000000">amr&#45;wind/core/IntField.H</text>
</a>
</g>
</g>
<!-- Node7&#45;&gt;Node19 -->
<g id="edge24" class="edge">
<title>Node7&#45;&gt;Node19</title>
<path fill="none" stroke="#191970" d="M1141.5216,-130.2666C1215.5274,-121.0094 1337.2284,-104.9113 1441.5,-87 1448.5257,-85.7932 1455.8956,-84.4226 1463.1669,-83.0077"/>
<polygon fill="#191970" stroke="#191970" points="1463.8513,-86.4403 1472.9796,-81.062 1462.4898,-79.5739 1463.8513,-86.4403"/>
</g>
<!-- Node20 -->
<g id="node21" class="node">
<title>Node20</title>
<polygon fill="#ffffff" stroke="#bfbfbf" points="1558,-.5 1558,-19.5 1665,-19.5 1665,-.5 1558,-.5"/>
<text text-anchor="middle" x="1611.5" y="-7.5" font-family="Helvetica,sans-Serif" font-size="10.00" fill="#000000">AMReX_iMultiFab.H</text>
</g>
<!-- Node7&#45;&gt;Node20 -->
<g id="edge34" class="edge">
<title>Node7&#45;&gt;Node20</title>
<path fill="none" stroke="#191970" d="M1141.5328,-135.8713C1273.5901,-130.1708 1554.7186,-114.8867 1588.5,-87 1605.2605,-73.1641 1610.1397,-47.6552 1611.3912,-29.8026"/>
<polygon fill="#191970" stroke="#191970" points="1614.8961,-29.7378 1611.777,-19.6125 1607.9011,-29.4729 1614.8961,-29.7378"/>
</g>
<!-- Node21 -->
<g id="node22" class="node">
<title>Node21</title>
<g id="a_node22"><a xlink:href="_scratch_field_8_h.html" target="_top" xlink:title="amr&#45;wind/core/ScratchField.H">
<polygon fill="#ffffff" stroke="#000000" points="1101.5,-62 1101.5,-81 1247.5,-81 1247.5,-62 1101.5,-62"/>
<text text-anchor="middle" x="1174.5" y="-69" font-family="Helvetica,sans-Serif" font-size="10.00" fill="#000000">amr&#45;wind/core/ScratchField.H</text>
</a>
</g>
</g>
<!-- Node7&#45;&gt;Node21 -->
<g id="edge28" class="edge">
<title>Node7&#45;&gt;Node21</title>
<path fill="none" stroke="#191970" d="M1087.9708,-128.9005C1104.6209,-117.8554 1132.174,-99.5776 1151.7114,-86.6172"/>
<polygon fill="#191970" stroke="#191970" points="1153.6576,-89.5263 1160.056,-81.0817 1149.788,-83.693 1153.6576,-89.5263"/>
</g>
<!-- Node11&#45;&gt;Node10 -->
<g id="edge12" class="edge">
<title>Node11&#45;&gt;Node10</title>
<path fill="none" stroke="#191970" d="M1315,-61.8906C1296.7535,-51.8713 1267.9376,-36.0483 1246.9194,-24.5071"/>
<polygon fill="#191970" stroke="#191970" points="1248.3272,-21.2872 1237.8771,-19.5419 1244.958,-27.423 1248.3272,-21.2872"/>
</g>
<!-- Node11&#45;&gt;Node12 -->
<g id="edge13" class="edge">
<title>Node11&#45;&gt;Node12</title>
<path fill="none" stroke="#191970" d="M1291.5397,-61.9581C1245.2005,-51.1632 1169.676,-33.5694 1119.5394,-21.8899"/>
<polygon fill="#191970" stroke="#191970" points="1120.0898,-18.4244 1109.5564,-19.5643 1118.5016,-25.2419 1120.0898,-18.4244"/>
</g>
<!-- Node13 -->
<g id="node14" class="node">
<title>Node13</title>
<polygon fill="#ffffff" stroke="#bfbfbf" points="1320.5,-.5 1320.5,-19.5 1436.5,-19.5 1436.5,-.5 1320.5,-.5"/>
<text text-anchor="middle" x="1378.5" y="-7.5" font-family="Helvetica,sans-Serif" font-size="10.00" fill="#000000">AMReX_Interpolater.H</text>
</g>
<!-- Node11&#45;&gt;Node13 -->
<g id="edge14" class="edge">
<title>Node11&#45;&gt;Node13</title>
<path fill="none" stroke="#191970" d="M1339.6875,-61.8906C1346.4666,-52.8273 1356.7978,-39.0149 1365.0973,-27.9188"/>
<polygon fill="#191970" stroke="#191970" points="1368.0243,-29.849 1371.2112,-19.7449 1362.4188,-25.6563 1368.0243,-29.849"/>
</g>
<!-- Node14&#45;&gt;Node8 -->
<g id="edge16" class="edge">
<title>Node14&#45;&gt;Node8</title>
<path fill="none" stroke="#191970" d="M954.7188,-61.8906C958.5796,-53.0965 964.4034,-39.8312 969.1961,-28.9145"/>
<polygon fill="#191970" stroke="#191970" points="972.4066,-30.3083 973.2218,-19.7449 965.9971,-27.4943 972.4066,-30.3083"/>
</g>
<!-- Node14&#45;&gt;Node9 -->
<g id="edge18" class="edge">
<title>Node14&#45;&gt;Node9</title>
<path fill="none" stroke="#191970" d="M922.2188,-61.8906C891.27,-51.3749 841.5058,-34.466 807.243,-22.8243"/>
<polygon fill="#191970" stroke="#191970" points="808.1771,-19.4452 797.5827,-19.5419 805.925,-26.073 808.1771,-19.4452"/>
</g>
<!-- Node14&#45;&gt;Node10 -->
<g id="edge23" class="edge">
<title>Node14&#45;&gt;Node10</title>
<path fill="none" stroke="#191970" d="M992.3913,-61.9581C1039.8826,-51.1406 1117.3472,-33.4959 1168.6215,-21.8168"/>
<polygon fill="#191970" stroke="#191970" points="1169.5375,-25.1978 1178.5105,-19.5643 1167.9829,-18.3727 1169.5375,-25.1978"/>
</g>
<!-- Node14&#45;&gt;Node12 -->
<g id="edge19" class="edge">
<title>Node14&#45;&gt;Node12</title>
<path fill="none" stroke="#191970" d="M968.9375,-61.8906C988.3347,-51.7811 1019.069,-35.7628 1041.2617,-24.1962"/>
<polygon fill="#191970" stroke="#191970" points="1042.9418,-27.2675 1050.192,-19.5419 1039.7064,-21.06 1042.9418,-27.2675"/>
</g>
<!-- Node15 -->
<g id="node16" class="node">
<title>Node15</title>
<polygon fill="#ffffff" stroke="#bfbfbf" points="368.5,-.5 368.5,-19.5 420.5,-19.5 420.5,-.5 368.5,-.5"/>
<text text-anchor="middle" x="394.5" y="-7.5" font-family="Helvetica,sans-Serif" font-size="10.00" fill="#000000">memory</text>
</g>
<!-- Node14&#45;&gt;Node15 -->
<g id="edge17" class="edge">
<title>Node14&#45;&gt;Node15</title>
<path fill="none" stroke="#191970" d="M893.9104,-62.4169C878.553,-60.1293 861.9106,-57.8118 846.5,-56 664.9974,-34.6606 614.2185,-53.0374 430.7232,-19.9121"/>
<polygon fill="#191970" stroke="#191970" points="431.2117,-16.4434 420.7446,-18.084 429.9502,-23.3288 431.2117,-16.4434"/>
</g>
<!-- Node16 -->
<g id="node17" class="node">
<title>Node16</title>
<polygon fill="#ffffff" stroke="#bfbfbf" points="840,-.5 840,-19.5 939,-19.5 939,-.5 840,-.5"/>
<text text-anchor="middle" x="889.5" y="-7.5" font-family="Helvetica,sans-Serif" font-size="10.00" fill="#000000">AMReX_BCRec.H</text>
</g>
<!-- Node14&#45;&gt;Node16 -->
<g id="edge20" class="edge">
<title>Node14&#45;&gt;Node16</title>
<path fill="none" stroke="#191970" d="M940.9688,-61.8906C931.7121,-52.5581 917.461,-38.1902 906.2997,-26.9374"/>
<polygon fill="#191970" stroke="#191970" points="908.6928,-24.38 899.1656,-19.7449 903.7228,-29.3095 908.6928,-24.38"/>
</g>
<!-- Node17 -->
<g id="node18" class="node">
<title>Node17</title>
<polygon fill="#ffffff" stroke="#bfbfbf" points="1455,-.5 1455,-19.5 1540,-19.5 1540,-.5 1455,-.5"/>
<text text-anchor="middle" x="1497.5" y="-7.5" font-family="Helvetica,sans-Serif" font-size="10.00" fill="#000000">AMReX_Gpu.H</text>
</g>
<!-- Node14&#45;&gt;Node17 -->
<g id="edge21" class="edge">
<title>Node14&#45;&gt;Node17</title>
<path fill="none" stroke="#191970" d="M1007.151,-65.2232C1033.151,-62.3663 1064.3851,-58.968 1092.5,-56 1246.1149,-39.7832 1287.7754,-42.7793 1444.958,-19.9607"/>
<polygon fill="#191970" stroke="#191970" points="1445.5973,-23.4046 1454.9849,-18.4931 1444.5834,-16.4784 1445.5973,-23.4046"/>
</g>
<!-- Node18 -->
<g id="node19" class="node">
<title>Node18</title>
<g id="a_node19"><a xlink:href="incflo__enums_8_h.html" target="_top" xlink:title="amr&#45;wind/incflo_enums.H">
<polygon fill="#ffffff" stroke="#000000" points="438.5,-.5 438.5,-19.5 566.5,-19.5 566.5,-.5 438.5,-.5"/>
<text text-anchor="middle" x="502.5" y="-7.5" font-family="Helvetica,sans-Serif" font-size="10.00" fill="#000000">amr&#45;wind/incflo_enums.H</text>
</a>
</g>
</g>
<!-- Node14&#45;&gt;Node18 -->
<g id="edge22" class="edge">
<title>Node14&#45;&gt;Node18</title>
<path fill="none" stroke="#191970" d="M893.8492,-62.8901C878.492,-60.6016 861.8649,-58.1654 846.5,-56 729.3587,-39.4912 697.5707,-36.4026 576.6183,-20.1451"/>
<polygon fill="#191970" stroke="#191970" points="576.9698,-16.6609 566.5921,-18.7948 576.0354,-23.5983 576.9698,-16.6609"/>
</g>
<!-- Node19&#45;&gt;Node8 -->
<g id="edge25" class="edge">
<title>Node19&#45;&gt;Node8</title>
<path fill="none" stroke="#191970" d="M1455.324,-62.1835C1439.7293,-59.9998 1423.0186,-57.7905 1407.5,-56 1233.3836,-35.9103 1184.0061,-55.7252 1008.1475,-19.6711"/>
<polygon fill="#191970" stroke="#191970" points="1008.8141,-16.2349 998.3107,-17.6237 1007.3877,-23.088 1008.8141,-16.2349"/>
</g>
<!-- Node19&#45;&gt;Node10 -->
<g id="edge26" class="edge">
<title>Node19&#45;&gt;Node10</title>
<path fill="none" stroke="#191970" d="M1471.4196,-61.9581C1418.8527,-51.073 1332.9017,-33.2751 1276.5123,-21.5985"/>
<polygon fill="#191970" stroke="#191970" points="1277.1905,-18.1648 1266.6885,-19.5643 1275.771,-25.0193 1277.1905,-18.1648"/>
</g>
<!-- Node19&#45;&gt;Node20 -->
<g id="edge27" class="edge">
<title>Node19&#45;&gt;Node20</title>
<path fill="none" stroke="#191970" d="M1532.1875,-61.8906C1547.2256,-52.0519 1570.8176,-36.6167 1588.3667,-25.1351"/>
<polygon fill="#191970" stroke="#191970" points="1590.4637,-27.9457 1596.9156,-19.5419 1586.6313,-22.088 1590.4637,-27.9457"/>
</g>
<!-- Node21&#45;&gt;Node8 -->
<g id="edge29" class="edge">
<title>Node21&#45;&gt;Node8</title>
<path fill="none" stroke="#191970" d="M1142.7287,-61.9358C1110.9875,-52.3292 1060.5682,-36.9309 1007.6853,-20.0104"/>
<polygon fill="#191970" stroke="#191970" points="1008.7279,-16.6692 998.1367,-16.947 1006.5895,-23.3346 1008.7279,-16.6692"/>
</g>
<!-- Node21&#45;&gt;Node10 -->
<g id="edge30" class="edge">
<title>Node21&#45;&gt;Node10</title>
<path fill="none" stroke="#191970" d="M1181.6875,-61.8906C1188.4666,-52.8273 1198.7978,-39.0149 1207.0973,-27.9188"/>
<polygon fill="#191970" stroke="#191970" points="1210.0243,-29.849 1213.2112,-19.7449 1204.4188,-25.6563 1210.0243,-29.849"/>
</g>
<!-- Node21&#45;&gt;Node12 -->
<g id="edge31" class="edge">
<title>Node21&#45;&gt;Node12</title>
<path fill="none" stroke="#191970" d="M1157.9375,-61.8906C1140.7463,-51.9165 1113.6418,-36.1908 1093.7734,-24.6633"/>
<polygon fill="#191970" stroke="#191970" points="1095.3523,-21.533 1084.9462,-19.5419 1091.8394,-27.5877 1095.3523,-21.533"/>
</g>
<!-- Node22&#45;&gt;Node8 -->
<g id="edge36" class="edge">
<title>Node22&#45;&gt;Node8</title>
<path fill="none" stroke="#191970" d="M429.253,-123.4001C461.6462,-99.8605 520.8274,-56.9862 523.5,-56 697.896,8.3527 760.1391,-55.8976 946.8396,-19.6221"/>
<polygon fill="#191970" stroke="#191970" points="947.5802,-23.0433 956.6922,-17.6376 946.198,-16.1812 947.5802,-23.0433"/>
</g>
<!-- Node22&#45;&gt;Node10 -->
<g id="edge50" class="edge">
<title>Node22&#45;&gt;Node10</title>
<path fill="none" stroke="#191970" d="M441.0189,-123.333C490.0229,-100.591 578.7679,-59.8888 594.5,-56 822.6891,.406 890.2707,-39.885 1128.6515,-20.0192"/>
<polygon fill="#191970" stroke="#191970" points="1129.0005,-23.5022 1138.6637,-19.1581 1128.4005,-16.528 1129.0005,-23.5022"/>
</g>
<!-- Node22&#45;&gt;Node18 -->
<g id="edge51" class="edge">
<title>Node22&#45;&gt;Node18</title>
<path fill="none" stroke="#191970" d="M379.2182,-123.3633C351.8502,-107.2024 317.7988,-80.5882 336.5,-56 348.1332,-40.7047 389.9214,-29.1735 428.6563,-21.4818"/>
<polygon fill="#191970" stroke="#191970" points="429.7805,-24.8302 438.9437,-19.5118 428.4639,-17.9551 429.7805,-24.8302"/>
</g>
<!-- Node23 -->
<g id="node24" class="node">
<title>Node23</title>
<g id="a_node24"><a xlink:href="_factory_8_h.html" target="_top" xlink:title="amr&#45;wind/core/Factory.H">
<polygon fill="#ffffff" stroke="#000000" points="164,-62 164,-81 289,-81 289,-62 164,-62"/>
<text text-anchor="middle" x="226.5" y="-69" font-family="Helvetica,sans-Serif" font-size="10.00" fill="#000000">amr&#45;wind/core/Factory.H</text>
</a>
</g>
</g>
<!-- Node22&#45;&gt;Node23 -->
<g id="edge37" class="edge">
<title>Node22&#45;&gt;Node23</title>
<path fill="none" stroke="#191970" d="M367.6556,-123.4639C335.9238,-111.7824 292.3593,-95.7449 262.0534,-84.5884"/>
<polygon fill="#191970" stroke="#191970" points="262.9138,-81.1755 252.3203,-81.0053 260.4955,-87.7445 262.9138,-81.1755"/>
</g>
<!-- Node27 -->
<g id="node28" class="node">
<title>Node27</title>
<g id="a_node28"><a xlink:href="_coll_mgr_8_h.html" target="_top" xlink:title="amr&#45;wind/core/CollMgr.H">
<polygon fill="#ffffff" stroke="#000000" points="346,-62 346,-81 471,-81 471,-62 346,-62"/>
<text text-anchor="middle" x="408.5" y="-69" font-family="Helvetica,sans-Serif" font-size="10.00" fill="#000000">amr&#45;wind/core/CollMgr.H</text>
</a>
</g>
</g>
<!-- Node22&#45;&gt;Node27 -->
<g id="edge43" class="edge">
<title>Node22&#45;&gt;Node27</title>
<path fill="none" stroke="#191970" d="M408.5,-123.2967C408.5,-113.7699 408.5,-101.3954 408.5,-91.1306"/>
<polygon fill="#191970" stroke="#191970" points="412.0001,-91.0549 408.5,-81.055 405.0001,-91.055 412.0001,-91.0549"/>
</g>
<!-- Node29 -->
<g id="node30" class="node">
<title>Node29</title>
<g id="a_node30"><a xlink:href="_p_d_e_fields_8_h.html" target="_top" xlink:title="amr&#45;wind/equation_systems\l/PDEFields.H">
<polygon fill="#ffffff" stroke="#000000" points="0,-56.5 0,-86.5 139,-86.5 139,-56.5 0,-56.5"/>
<text text-anchor="start" x="8" y="-74.5" font-family="Helvetica,sans-Serif" font-size="10.00" fill="#000000">amr&#45;wind/equation_systems</text>
<text text-anchor="middle" x="69.5" y="-63.5" font-family="Helvetica,sans-Serif" font-size="10.00" fill="#000000">/PDEFields.H</text>
</a>
</g>
</g>
<!-- Node22&#45;&gt;Node29 -->
<g id="edge48" class="edge">
<title>Node22&#45;&gt;Node29</title>
<path fill="none" stroke="#191970" d="M338.67,-124.6988C283.6335,-113.8214 206.8534,-98.6465 149.375,-87.2865"/>
<polygon fill="#191970" stroke="#191970" points="149.7282,-83.7887 139.2394,-85.2833 148.371,-90.6559 149.7282,-83.7887"/>
</g>
<!-- Node23&#45;&gt;Node9 -->
<g id="edge39" class="edge">
<title>Node23&#45;&gt;Node9</title>
<path fill="none" stroke="#191970" d="M289.2697,-62.2347C304.6983,-60.0734 321.184,-57.8616 336.5,-56 492.6116,-37.0252 532.2314,-37.6353 688.5,-20 698.0094,-18.9268 708.1391,-17.7239 717.8998,-16.5343"/>
<polygon fill="#191970" stroke="#191970" points="718.3983,-19.9995 727.8965,-15.3056 717.5442,-13.0518 718.3983,-19.9995"/>
</g>
<!-- Node23&#45;&gt;Node15 -->
<g id="edge38" class="edge">
<title>Node23&#45;&gt;Node15</title>
<path fill="none" stroke="#191970" d="M252.75,-61.8906C281.2293,-51.4652 326.8743,-34.7559 358.6457,-23.1252"/>
<polygon fill="#191970" stroke="#191970" points="360.2469,-26.2663 368.4343,-19.5419 357.8406,-19.6929 360.2469,-26.2663"/>
</g>
<!-- Node24 -->
<g id="node25" class="node">
<title>Node24</title>
<polygon fill="#ffffff" stroke="#bfbfbf" points="282.5,-.5 282.5,-19.5 336.5,-19.5 336.5,-.5 282.5,-.5"/>
<text text-anchor="middle" x="309.5" y="-7.5" font-family="Helvetica,sans-Serif" font-size="10.00" fill="#000000">iostream</text>
</g>
<!-- Node23&#45;&gt;Node24 -->
<g id="edge40" class="edge">
<title>Node23&#45;&gt;Node24</title>
<path fill="none" stroke="#191970" d="M239.4688,-61.8906C252.5034,-52.2324 272.8164,-37.1812 288.2155,-25.771"/>
<polygon fill="#191970" stroke="#191970" points="290.6713,-28.3075 296.6223,-19.5419 286.5039,-22.6832 290.6713,-28.3075"/>
</g>
<!-- Node25 -->
<g id="node26" class="node">
<title>Node25</title>
<polygon fill="#ffffff" stroke="#bfbfbf" points="97,-.5 97,-19.5 184,-19.5 184,-.5 97,-.5"/>
<text text-anchor="middle" x="140.5" y="-7.5" font-family="Helvetica,sans-Serif" font-size="10.00" fill="#000000">AMReX_Print.H</text>
</g>
<!-- Node23&#45;&gt;Node25 -->
<g id="edge41" class="edge">
<title>Node23&#45;&gt;Node25</title>
<path fill="none" stroke="#191970" d="M213.0625,-61.8906C199.4305,-52.1421 178.1154,-36.8994 162.1078,-25.4521"/>
<polygon fill="#191970" stroke="#191970" points="164.0132,-22.5118 153.8431,-19.5419 159.9414,-28.2057 164.0132,-22.5118"/>
</g>
<!-- Node26 -->
<g id="node27" class="node">
<title>Node26</title>
<polygon fill="#ffffff" stroke="#bfbfbf" points="202.5,-.5 202.5,-19.5 264.5,-19.5 264.5,-.5 202.5,-.5"/>
<text text-anchor="middle" x="233.5" y="-7.5" font-family="Helvetica,sans-Serif" font-size="10.00" fill="#000000">AMReX.H</text>
</g>
<!-- Node23&#45;&gt;Node26 -->
<g id="edge42" class="edge">
<title>Node23&#45;&gt;Node26</title>
<path fill="none" stroke="#191970" d="M227.5938,-61.8906C228.5641,-53.3657 230.0126,-40.6392 231.2323,-29.9235"/>
<polygon fill="#191970" stroke="#191970" points="234.7374,-30.0766 232.3908,-19.7449 227.7823,-29.2849 234.7374,-30.0766"/>
</g>
<!-- Node27&#45;&gt;Node8 -->
<g id="edge44" class="edge">
<title>Node27&#45;&gt;Node8</title>
<path fill="none" stroke="#191970" d="M451.1079,-61.9677C462.2547,-59.7367 474.2899,-57.5592 485.5,-56 686.205,-28.0837 743.7919,-59.8129 946.6131,-19.6866"/>
<polygon fill="#191970" stroke="#191970" points="947.5836,-23.0615 956.6961,-17.6567 946.202,-16.1992 947.5836,-23.0615"/>
</g>
<!-- Node27&#45;&gt;Node9 -->
<g id="edge46" class="edge">
<title>Node27&#45;&gt;Node9</title>
<path fill="none" stroke="#191970" d="M454.4548,-61.9516C464.6618,-59.9139 475.4374,-57.827 485.5,-56 566.2325,-41.3416 660.2983,-26.5539 717.3414,-17.8389"/>
<polygon fill="#191970" stroke="#191970" points="718.1913,-21.2499 727.5501,-16.2837 717.1371,-14.3298 718.1913,-21.2499"/>
</g>
<!-- Node27&#45;&gt;Node15 -->
<g id="edge45" class="edge">
<title>Node27&#45;&gt;Node15</title>
<path fill="none" stroke="#191970" d="M406.3125,-61.8906C404.3514,-53.276 401.4137,-40.3708 398.9585,-29.5858"/>
<polygon fill="#191970" stroke="#191970" points="402.3507,-28.7185 396.7183,-19.7449 395.5254,-30.2723 402.3507,-28.7185"/>
</g>
<!-- Node28 -->
<g id="node29" class="node">
<title>Node28</title>
<polygon fill="#ffffff" stroke="#bfbfbf" points="585,-.5 585,-19.5 680,-19.5 680,-.5 585,-.5"/>
<text text-anchor="middle" x="632.5" y="-7.5" font-family="Helvetica,sans-Serif" font-size="10.00" fill="#000000">AMReX_Vector.H</text>
</g>
<!-- Node27&#45;&gt;Node28 -->
<g id="edge47" class="edge">
<title>Node27&#45;&gt;Node28</title>
<path fill="none" stroke="#191970" d="M443.5,-61.8906C482.4588,-51.1944 545.5093,-33.8836 587.9571,-22.2294"/>
<polygon fill="#191970" stroke="#191970" points="589.0293,-25.5646 597.7458,-19.5419 587.1759,-18.8144 589.0293,-25.5646"/>
</g>
<!-- Node30 -->
<g id="node31" class="node">
<title>Node30</title>
<polygon fill="#ffffff" stroke="#bfbfbf" points="34,-.5 34,-19.5 79,-19.5 79,-.5 34,-.5"/>
<text text-anchor="middle" x="56.5" y="-7.5" font-family="Helvetica,sans-Serif" font-size="10.00" fill="#000000">iosfwd</text>
</g>
<!-- Node29&#45;&gt;Node30 -->
<g id="edge49" class="edge">
<title>Node29&#45;&gt;Node30</title>
<path fill="none" stroke="#191970" d="M66.2865,-56.2977C64.5948,-48.2945 62.4999,-38.3843 60.683,-29.7889"/>
<polygon fill="#191970" stroke="#191970" points="64.074,-28.9069 58.5815,-19.8469 57.2253,-30.3546 64.074,-28.9069"/>
</g>
<!-- Node31&#45;&gt;Node12 -->
<g id="edge55" class="edge">
<title>Node31&#45;&gt;Node12</title>
<path fill="none" stroke="#191970" d="M574.4558,-128.8079C573.1666,-111.279 573.3171,-74.422 594.5,-56 629.1741,-25.8452 960.898,-25.6623 1006.5,-20 1006.6014,-19.9874 1006.703,-19.9748 1006.8046,-19.9621"/>
<polygon fill="#191970" stroke="#191970" points="1006.9939,-23.4679 1016.4441,-18.6779 1006.0694,-16.5292 1006.9939,-23.4679"/>
</g>
<!-- Node31&#45;&gt;Node23 -->
<g id="edge53" class="edge">
<title>Node31&#45;&gt;Node23</title>
<path fill="none" stroke="#191970" d="M525.8674,-128.9717C462.77,-116.8584 353.9314,-95.9639 286.3185,-82.9838"/>
<polygon fill="#191970" stroke="#191970" points="286.7241,-79.4978 276.2436,-81.0496 285.4043,-86.3723 286.7241,-79.4978"/>
</g>
<!-- Node31&#45;&gt;Node27 -->
<g id="edge54" class="edge">
<title>Node31&#45;&gt;Node27</title>
<path fill="none" stroke="#191970" d="M551.573,-128.9005C522.8025,-117.3579 474.3436,-97.9163 441.8983,-84.8993"/>
<polygon fill="#191970" stroke="#191970" points="442.9668,-81.5569 432.3826,-81.0817 440.3603,-88.0535 442.9668,-81.5569"/>
</g>
<!-- Node32 -->
<g id="node33" class="node">
<title>Node32</title>
<polygon fill="#ffffff" stroke="#bfbfbf" points="727.5,-62 727.5,-81 837.5,-81 837.5,-62 727.5,-62"/>
<text text-anchor="middle" x="782.5" y="-69" font-family="Helvetica,sans-Serif" font-size="10.00" fill="#000000">AMReX_Geometry.H</text>
</g>
<!-- Node31&#45;&gt;Node32 -->
<g id="edge56" class="edge">
<title>Node31&#45;&gt;Node32</title>
<path fill="none" stroke="#191970" d="M605.1581,-128.9005C641.4345,-117.1589 702.9639,-97.2436 743.1644,-84.2318"/>
<polygon fill="#191970" stroke="#191970" points="744.4607,-87.4911 752.897,-81.0817 742.3051,-80.8312 744.4607,-87.4911"/>
</g>
<!-- Node33&#45;&gt;Node1 -->
<g id="edge59" class="edge">
<title>Node33&#45;&gt;Node1</title>
<path fill="none" stroke="#191970" d="M885.4708,-257.4639C857.0377,-245.9183 818.1254,-230.1176 790.6966,-218.9798"/>
<polygon fill="#191970" stroke="#191970" points="791.7335,-215.6234 781.1514,-215.1039 789.0999,-222.1091 791.7335,-215.6234"/>
</g>
<!-- Node33&#45;&gt;Node3 -->
<g id="edge61" class="edge">
<title>Node33&#45;&gt;Node3</title>
<path fill="none" stroke="#191970" d="M982.1359,-261.9852C1122.6708,-237.2067 1473.6546,-175.3227 1618.4681,-149.7898"/>
<polygon fill="#191970" stroke="#191970" points="1619.2923,-153.1986 1628.5326,-148.0153 1618.0768,-146.3049 1619.2923,-153.1986"/>
</g>
<!-- Node33&#45;&gt;Node14 -->
<g id="edge60" class="edge">
<title>Node33&#45;&gt;Node14</title>
<path fill="none" stroke="#191970" d="M930.3644,-257.1681C935.0913,-247.1533 940.7145,-233.6353 943.5,-221 953.5742,-175.303 952.9385,-119.9133 951.6758,-91.0839"/>
<polygon fill="#191970" stroke="#191970" points="955.171,-90.8995 951.1634,-81.0919 948.1802,-91.2581 955.171,-90.8995"/>
</g>
<!-- Node34 -->
<g id="node35" class="node">
<title>Node34</title>
<g id="a_node35"><a xlink:href="_direction_selector_8_h.html" target="_top" xlink:title="amr&#45;wind/utilities\l/DirectionSelector.H">
<polygon fill="#ffffff" stroke="#000000" points="830,-190.5 830,-220.5 935,-220.5 935,-190.5 830,-190.5"/>
<text text-anchor="start" x="838" y="-208.5" font-family="Helvetica,sans-Serif" font-size="10.00" fill="#000000">amr&#45;wind/utilities</text>
<text text-anchor="middle" x="882.5" y="-197.5" font-family="Helvetica,sans-Serif" font-size="10.00" fill="#000000">/DirectionSelector.H</text>
</a>
</g>
</g>
<!-- Node33&#45;&gt;Node34 -->
<g id="edge58" class="edge">
<title>Node33&#45;&gt;Node34</title>
<path fill="none" stroke="#191970" d="M913.4234,-257.2967C908.5137,-249.0729 902.3371,-238.7272 896.7975,-229.4483"/>
<polygon fill="#191970" stroke="#191970" points="899.672,-227.4352 891.5407,-220.6432 893.6617,-231.0236 899.672,-227.4352"/>
</g>
<!-- Node35&#45;&gt;Node10 -->
<g id="edge63" class="edge">
<title>Node35&#45;&gt;Node10</title>
<path fill="none" stroke="#191970" d="M2067.7384,-128.925C2060.0784,-110.8959 2040.7884,-72.2641 2010.5,-56 1944.2586,-20.4301 1425.2043,-25.8308 1312.4733,-19.8749"/>
<polygon fill="#191970" stroke="#191970" points="1312.5362,-16.3717 1302.3312,-19.2189 1312.0844,-23.3571 1312.5362,-16.3717"/>
</g>
<!-- Node35&#45;&gt;Node17 -->
<g id="edge64" class="edge">
<title>Node35&#45;&gt;Node17</title>
<path fill="none" stroke="#191970" d="M2144.1106,-133.8624C2211.1927,-127.884 2303.798,-114.7453 2326.5,-87 2335.2249,-76.3368 2336.0145,-65.965 2326.5,-56 2297.9039,-26.0501 1650.8108,-25.1949 1550.1505,-19.6047"/>
<polygon fill="#191970" stroke="#191970" points="1550.2422,-16.1015 1540.0022,-18.8201 1549.7026,-23.0806 1550.2422,-16.1015"/>
</g>
<!-- Node35&#45;&gt;Node32 -->
<g id="edge66" class="edge">
<title>Node35&#45;&gt;Node32</title>
<path fill="none" stroke="#191970" d="M1998.8584,-134.7469C1935.2219,-131.499 1840.2407,-126.7481 1757.5,-123 1369.5681,-105.4269 1271.0413,-124.2264 884.5,-87 872.5907,-85.8531 859.9519,-84.2494 847.7751,-82.5054"/>
<polygon fill="#191970" stroke="#191970" points="848.0856,-79.0134 837.6814,-81.0144 847.0626,-85.9382 848.0856,-79.0134"/>
</g>
<!-- Node36 -->
<g id="node37" class="node">
<title>Node36</title>
<polygon fill="#ffffff" stroke="#bfbfbf" points="2058,-62 2058,-81 2171,-81 2171,-62 2058,-62"/>
<text text-anchor="middle" x="2114.5" y="-69" font-family="Helvetica,sans-Serif" font-size="10.00" fill="#000000">AMReX_FArrayBox.H</text>
</g>
<!-- Node35&#45;&gt;Node36 -->
<g id="edge65" class="edge">
<title>Node35&#45;&gt;Node36</title>
<path fill="none" stroke="#191970" d="M2077.6609,-128.9005C2084.2386,-118.6515 2094.8133,-102.1747 2102.9493,-89.4976"/>
<polygon fill="#191970" stroke="#191970" points="2105.8949,-91.388 2108.3506,-81.0817 2100.0037,-87.6071 2105.8949,-91.388"/>
</g>
<!-- Node37 -->
<g id="node38" class="node">
<title>Node37</title>
<polygon fill="#ffffff" stroke="#bfbfbf" points="2189.5,-62 2189.5,-81 2317.5,-81 2317.5,-62 2189.5,-62"/>
<text text-anchor="middle" x="2253.5" y="-69" font-family="Helvetica,sans-Serif" font-size="10.00" fill="#000000">AMReX_PhysBCFunct.H</text>
</g>
<!-- Node35&#45;&gt;Node37 -->
<g id="edge67" class="edge">
<title>Node35&#45;&gt;Node37</title>
<path fill="none" stroke="#191970" d="M2097.5762,-128.9005C2129.2011,-117.2584 2182.6544,-97.5805 2218.0124,-84.5641"/>
<polygon fill="#191970" stroke="#191970" points="2219.297,-87.8209 2227.4722,-81.0817 2216.8787,-81.2519 2219.297,-87.8209"/>
</g>
</g>
</svg>
        <g id="navigator" transform="translate(0 0)" fill="#404254">
                <rect fill="#f2f5e9" fill-opacity="0.5" stroke="#606060" stroke-width=".5" x="0" y="0" width="60" height="60"/>
                <use id="zoomplus" xlink:href="#zoomPlus" x="17" y="9" onmousedown="handleZoom(evt,'in')"/>
                <use id="zoomminus" xlink:href="#zoomMin" x="42" y="9" onmousedown="handleZoom(evt,'out')"/>
                <use id="reset" xlink:href="#resetDef" x="30" y="36" onmousedown="handleReset()"/>
                <g id="arrowUp" xlink:href="#dirArrow" transform="translate(30 24)" onmousedown="handlePan(0,-1)">
                  <use xlink:href="#rim" fill="#404040">
                        <set attributeName="fill" to="#808080" begin="arrowUp.mouseover" end="arrowUp.mouseout"/>
                  </use>
                  <path fill="none" stroke="white" stroke-width="1.5" d="M0,-3.0v7 M-2.5,-0.5L0,-3.0L2.5,-0.5"/>
                </g>
                <g id="arrowRight" xlink:href="#dirArrow" transform="rotate(90) translate(36 -43)" onmousedown="handlePan(1,0)">
                  <use xlink:href="#rim" fill="#404040">
                        <set attributeName="fill" to="#808080" begin="arrowRight.mouseover" end="arrowRight.mouseout"/>
                  </use>
                  <path fill="none" stroke="white" stroke-width="1.5" d="M0,-3.0v7 M-2.5,-0.5L0,-3.0L2.5,-0.5"/>
                </g>
                <g id="arrowDown" xlink:href="#dirArrow" transform="rotate(180) translate(-30 -48)" onmousedown="handlePan(0,1)">
                  <use xlink:href="#rim" fill="#404040">
                        <set attributeName="fill" to="#808080" begin="arrowDown.mouseover" end="arrowDown.mouseout"/>
                  </use>
                  <path fill="none" stroke="white" stroke-width="1.5" d="M0,-3.0v7 M-2.5,-0.5L0,-3.0L2.5,-0.5"/>
                </g>
                <g id="arrowLeft" xlink:href="#dirArrow" transform="rotate(270) translate(-36 17)" onmousedown="handlePan(-1,0)">
                  <use xlink:href="#rim" fill="#404040">
                        <set attributeName="fill" to="#808080" begin="arrowLeft.mouseover" end="arrowLeft.mouseout"/>
                  </use>
                  <path fill="none" stroke="white" stroke-width="1.5" d="M0,-3.0v7 M-2.5,-0.5L0,-3.0L2.5,-0.5"/>
                </g>
        </g>
        <svg viewBox="0 0 15 15" width="100%" height="30px" preserveAspectRatio="xMaxYMin meet">
         <g id="arrow_out" transform="scale(0.3 0.3)">
          <a xlink:href="_a_b_l_wall_function_8_h__incl_org.svg" target="_base">
           <rect id="button" ry="5" rx="5" y="6" x="6" height="38" width="38"
                fill="#f2f5e9" fill-opacity="0.5" stroke="#606060" stroke-width="1.0"/>
           <path id="arrow"
             d="M 11.500037,31.436501 C 11.940474,20.09759 22.043105,11.32322 32.158766,21.979434 L 37.068811,17.246167 C 37.068811,17.246167 37.088388,32 37.088388,32 L 22.160133,31.978069 C 22.160133,31.978069 26.997745,27.140456 26.997745,27.140456 C 18.528582,18.264221 13.291696,25.230495 11.500037,31.436501 z"
             style="fill:#404040;"/>
          </a>
         </g>
        </svg>
</svg>
