<?xml version="1.0" encoding="UTF-8" standalone="no"?>
<!DOCTYPE svg PUBLIC "-//W3C//DTD SVG 1.1//EN"
 "http://www.w3.org/Graphics/SVG/1.1/DTD/svg11.dtd">
<!-- Generated by graphviz version 2.40.1 (20161225.0304)
 -->
<!-- Title: ABLForcing.cpp Pages: 1 -->
<svg width="2815pt" height="553pt"
 viewBox="0.00 0.00 2814.82 553.00" xmlns="http://www.w3.org/2000/svg" xmlns:xlink="http://www.w3.org/1999/xlink">
<g id="graph0" class="graph" transform="scale(1 1) rotate(0) translate(4 549)">
<title>ABLForcing.cpp</title>
<polygon fill="#ffffff" stroke="transparent" points="-4,4 -4,-549 2810.8163,-549 2810.8163,4 -4,4"/>
<!-- Node0 -->
<g id="node1" class="node">
<title>Node0</title>
<polygon fill="#bfbfbf" stroke="#000000" points="2179.8163,-525.5 2179.8163,-544.5 2265.8163,-544.5 2265.8163,-525.5 2179.8163,-525.5"/>
<text text-anchor="middle" x="2222.8163" y="-532.5" font-family="Helvetica,sans-Serif" font-size="10.00" fill="#000000">ABLForcing.cpp</text>
</g>
<!-- Node1 -->
<g id="node2" class="node">
<title>Node1</title>
<g id="a_node2"><a xlink:href="_a_b_l_forcing_8_h.html" target="_top" xlink:title="amr&#45;wind/equation_systems\l/icns/source_terms/ABLForcing.H">
<polygon fill="#ffffff" stroke="#000000" points="1314.8163,-257.5 1314.8163,-287.5 1478.8163,-287.5 1478.8163,-257.5 1314.8163,-257.5"/>
<text text-anchor="start" x="1322.8163" y="-275.5" font-family="Helvetica,sans-Serif" font-size="10.00" fill="#000000">amr&#45;wind/equation_systems</text>
<text text-anchor="middle" x="1396.8163" y="-264.5" font-family="Helvetica,sans-Serif" font-size="10.00" fill="#000000">/icns/source_terms/ABLForcing.H</text>
</a>
</g>
</g>
<!-- Node0&#45;&gt;Node1 -->
<g id="edge1" class="edge">
<title>Node0&#45;&gt;Node1</title>
<path fill="none" stroke="#191970" d="M2179.4046,-534.307C2057.4889,-531.9587 1713.9092,-522.4729 1606.8163,-489 1550.7231,-471.4676 1535.1848,-462.7276 1492.8163,-422 1453.9219,-384.612 1423.3621,-328.5264 1407.904,-296.7454"/>
<polygon fill="#191970" stroke="#191970" points="1411.0601,-295.2323 1403.599,-287.7102 1404.7408,-298.2434 1411.0601,-295.2323"/>
</g>
<!-- Node17 -->
<g id="node17" class="node">
<title>Node17</title>
<polygon fill="#ffffff" stroke="#bfbfbf" points="1882.3163,-.5 1882.3163,-19.5 1967.3163,-19.5 1967.3163,-.5 1882.3163,-.5"/>
<text text-anchor="middle" x="1924.8163" y="-7.5" font-family="Helvetica,sans-Serif" font-size="10.00" fill="#000000">AMReX_Gpu.H</text>
</g>
<!-- Node0&#45;&gt;Node17 -->
<g id="edge115" class="edge">
<title>Node0&#45;&gt;Node17</title>
<path fill="none" stroke="#191970" d="M2246.368,-525.4837C2319.0491,-494.6419 2539.7985,-389.5675 2620.8163,-221 2645.1586,-170.3527 2637.7616,-100.3664 2582.8163,-56 2534.2195,-16.7598 2084.0607,-25.2037 2021.8163,-20 2007.5619,-18.8083 1992.1504,-17.314 1977.8983,-15.8465"/>
<polygon fill="#191970" stroke="#191970" points="1978.0682,-12.3453 1967.7587,-14.7874 1977.341,-19.3074 1978.0682,-12.3453"/>
</g>
<!-- Node29 -->
<g id="node28" class="node">
<title>Node29</title>
<g id="a_node28"><a xlink:href="_plane_averaging_8_h.html" target="_top" xlink:title="amr&#45;wind/utilities\l/PlaneAveraging.H">
<polygon fill="#ffffff" stroke="#000000" points="2384.8163,-257.5 2384.8163,-287.5 2482.8163,-287.5 2482.8163,-257.5 2384.8163,-257.5"/>
<text text-anchor="start" x="2392.8163" y="-275.5" font-family="Helvetica,sans-Serif" font-size="10.00" fill="#000000">amr&#45;wind/utilities</text>
<text text-anchor="middle" x="2433.8163" y="-264.5" font-family="Helvetica,sans-Serif" font-size="10.00" fill="#000000">/PlaneAveraging.H</text>
</a>
</g>
</g>
<!-- Node0&#45;&gt;Node29 -->
<g id="edge44" class="edge">
<title>Node0&#45;&gt;Node29</title>
<path fill="none" stroke="#191970" d="M2230.5761,-525.3462C2260.7734,-487.7785 2370.9539,-350.7055 2415.2202,-295.6349"/>
<polygon fill="#191970" stroke="#191970" points="2417.9594,-297.8137 2421.4965,-287.8267 2412.5035,-293.4281 2417.9594,-297.8137"/>
</g>
<!-- Node31 -->
<g id="node30" class="node">
<title>Node31</title>
<g id="a_node30"><a xlink:href="_c_f_d_sim_8_h.html" target="_top" xlink:title="amr&#45;wind/CFDSim.H">
<polygon fill="#ffffff" stroke="#000000" points="1686.8163,-196 1686.8163,-215 1794.8163,-215 1794.8163,-196 1686.8163,-196"/>
<text text-anchor="middle" x="1740.8163" y="-203" font-family="Helvetica,sans-Serif" font-size="10.00" fill="#000000">amr&#45;wind/CFDSim.H</text>
</a>
</g>
</g>
<!-- Node0&#45;&gt;Node31 -->
<g id="edge47" class="edge">
<title>Node0&#45;&gt;Node31</title>
<path fill="none" stroke="#191970" d="M2179.7504,-532.8861C2062.8611,-526.9111 1745.5399,-509.0266 1702.8163,-489 1656.0062,-467.0579 1620.8163,-458.1976 1620.8163,-406.5 1620.8163,-406.5 1620.8163,-406.5 1620.8163,-339.5 1620.8163,-284.316 1677.9929,-241.4684 1713.4116,-220.22"/>
<polygon fill="#191970" stroke="#191970" points="1715.435,-223.0925 1722.3293,-215.0476 1711.9229,-217.0373 1715.435,-223.0925"/>
</g>
<!-- Node38 -->
<g id="node36" class="node">
<title>Node38</title>
<g id="a_node36"><a xlink:href="_a_b_l_8_h.html" target="_top" xlink:title="amr&#45;wind/wind_energy\l/ABL.H">
<polygon fill="#ffffff" stroke="#000000" points="1711.8163,-458.5 1711.8163,-488.5 1825.8163,-488.5 1825.8163,-458.5 1711.8163,-458.5"/>
<text text-anchor="start" x="1719.8163" y="-476.5" font-family="Helvetica,sans-Serif" font-size="10.00" fill="#000000">amr&#45;wind/wind_energy</text>
<text text-anchor="middle" x="1768.8163" y="-465.5" font-family="Helvetica,sans-Serif" font-size="10.00" fill="#000000">/ABL.H</text>
</a>
</g>
</g>
<!-- Node0&#45;&gt;Node38 -->
<g id="edge67" class="edge">
<title>Node0&#45;&gt;Node38</title>
<path fill="none" stroke="#191970" d="M2179.6958,-529.1588C2100.3588,-518.4116 1930.7305,-495.4333 1836.1164,-482.6166"/>
<polygon fill="#191970" stroke="#191970" points="1836.4601,-479.1313 1826.0807,-481.2572 1835.5204,-486.068 1836.4601,-479.1313"/>
</g>
<!-- Node58 -->
<g id="node50" class="node">
<title>Node58</title>
<polygon fill="#ffffff" stroke="#bfbfbf" points="2690.8163,-464 2690.8163,-483 2806.8163,-483 2806.8163,-464 2690.8163,-464"/>
<text text-anchor="middle" x="2748.8163" y="-471" font-family="Helvetica,sans-Serif" font-size="10.00" fill="#000000">AMReX_ParmParse.H</text>
</g>
<!-- Node0&#45;&gt;Node58 -->
<g id="edge114" class="edge">
<title>Node0&#45;&gt;Node58</title>
<path fill="none" stroke="#191970" d="M2265.898,-532.2364C2346.7861,-526.6931 2526.7629,-512.6784 2676.8163,-489 2683.6898,-487.9154 2690.8948,-486.5914 2697.9796,-485.1789"/>
<polygon fill="#191970" stroke="#191970" points="2699.1359,-488.514 2708.2212,-483.0636 2697.72,-481.6587 2699.1359,-488.514"/>
</g>
<!-- Node2 -->
<g id="node3" class="node">
<title>Node2</title>
<g id="a_node3"><a xlink:href="_momentum_source_8_h.html" target="_top" xlink:title="amr&#45;wind/equation_systems\l/icns/MomentumSource.H">
<polygon fill="#ffffff" stroke="#000000" points="258.3163,-190.5 258.3163,-220.5 397.3163,-220.5 397.3163,-190.5 258.3163,-190.5"/>
<text text-anchor="start" x="266.3163" y="-208.5" font-family="Helvetica,sans-Serif" font-size="10.00" fill="#000000">amr&#45;wind/equation_systems</text>
<text text-anchor="middle" x="327.8163" y="-197.5" font-family="Helvetica,sans-Serif" font-size="10.00" fill="#000000">/icns/MomentumSource.H</text>
</a>
</g>
</g>
<!-- Node1&#45;&gt;Node2 -->
<g id="edge2" class="edge">
<title>Node1&#45;&gt;Node2</title>
<path fill="none" stroke="#191970" d="M1314.7087,-267.3539C1114.7998,-254.8245 604.7659,-222.8579 407.4465,-210.4909"/>
<polygon fill="#191970" stroke="#191970" points="407.6404,-206.9962 397.4411,-209.8638 407.2025,-213.9825 407.6404,-206.9962"/>
</g>
<!-- Node25 -->
<g id="node24" class="node">
<title>Node25</title>
<g id="a_node24"><a xlink:href="_sim_time_8_h.html" target="_top" xlink:title="amr&#45;wind/core/SimTime.H">
<polygon fill="#ffffff" stroke="#000000" points="1376.3163,-129 1376.3163,-148 1507.3163,-148 1507.3163,-129 1376.3163,-129"/>
<text text-anchor="middle" x="1441.8163" y="-136" font-family="Helvetica,sans-Serif" font-size="10.00" fill="#000000">amr&#45;wind/core/SimTime.H</text>
</a>
</g>
</g>
<!-- Node1&#45;&gt;Node25 -->
<g id="edge40" class="edge">
<title>Node1&#45;&gt;Node25</title>
<path fill="none" stroke="#191970" d="M1401.8909,-257.389C1410.093,-232.9649 1426.2553,-184.8371 1435.2982,-157.9095"/>
<polygon fill="#191970" stroke="#191970" points="1438.7253,-158.6981 1438.591,-148.1042 1432.0895,-156.4697 1438.7253,-158.6981"/>
</g>
<!-- Node3 -->
<g id="node4" class="node">
<title>Node3</title>
<g id="a_node4"><a xlink:href="_factory_8_h.html" target="_top" xlink:title="amr&#45;wind/core/Factory.H">
<polygon fill="#ffffff" stroke="#000000" points="2286.3163,-62 2286.3163,-81 2411.3163,-81 2411.3163,-62 2286.3163,-62"/>
<text text-anchor="middle" x="2348.8163" y="-69" font-family="Helvetica,sans-Serif" font-size="10.00" fill="#000000">amr&#45;wind/core/Factory.H</text>
</a>
</g>
</g>
<!-- Node2&#45;&gt;Node3 -->
<g id="edge3" class="edge">
<title>Node2&#45;&gt;Node3</title>
<path fill="none" stroke="#191970" d="M397.5197,-204.6603C719.661,-200.6337 2052.1898,-182.3227 2135.8163,-154 2158.131,-146.4424 2157.6992,-133.4465 2178.8163,-123 2215.1693,-105.0164 2259.0382,-91.9182 2293.106,-83.4322"/>
<polygon fill="#191970" stroke="#191970" points="2294.0012,-86.8166 2302.8916,-81.0538 2292.3479,-80.0147 2294.0012,-86.8166"/>
</g>
<!-- Node9 -->
<g id="node10" class="node">
<title>Node9</title>
<g id="a_node10"><a xlink:href="_field_desc_types_8_h.html" target="_top" xlink:title="amr&#45;wind/core/FieldDescTypes.H">
<polygon fill="#ffffff" stroke="#000000" points="730.3163,-.5 730.3163,-19.5 893.3163,-19.5 893.3163,-.5 730.3163,-.5"/>
<text text-anchor="middle" x="811.8163" y="-7.5" font-family="Helvetica,sans-Serif" font-size="10.00" fill="#000000">amr&#45;wind/core/FieldDescTypes.H</text>
</a>
</g>
</g>
<!-- Node2&#45;&gt;Node9 -->
<g id="edge9" class="edge">
<title>Node2&#45;&gt;Node9</title>
<path fill="none" stroke="#191970" d="M319.3842,-190.4943C303.8842,-160.6873 275.4537,-93.6553 309.8163,-56 323.4312,-41.0804 578.5196,-23.7546 719.6938,-15.2536"/>
<polygon fill="#191970" stroke="#191970" points="720.3,-18.7236 730.0729,-14.6321 719.8815,-11.7362 720.3,-18.7236"/>
</g>
<!-- Node10 -->
<g id="node11" class="node">
<title>Node10</title>
<g id="a_node11"><a xlink:href="_field_utils_8_h.html" target="_top" xlink:title="amr&#45;wind/core/FieldUtils.H">
<polygon fill="#ffffff" stroke="#000000" points="26.3163,-62 26.3163,-81 159.3163,-81 159.3163,-62 26.3163,-62"/>
<text text-anchor="middle" x="92.8163" y="-69" font-family="Helvetica,sans-Serif" font-size="10.00" fill="#000000">amr&#45;wind/core/FieldUtils.H</text>
</a>
</g>
</g>
<!-- Node2&#45;&gt;Node10 -->
<g id="edge10" class="edge">
<title>Node2&#45;&gt;Node10</title>
<path fill="none" stroke="#191970" d="M301.3156,-190.389C255.8172,-164.4452 163.4146,-111.7561 118.491,-86.1401"/>
<polygon fill="#191970" stroke="#191970" points="120.0801,-83.0172 109.6594,-81.1042 116.6127,-89.0981 120.0801,-83.0172"/>
</g>
<!-- Node11 -->
<g id="node12" class="node">
<title>Node11</title>
<polygon fill="#ffffff" stroke="#bfbfbf" points="455.8163,-.5 455.8163,-19.5 559.8163,-19.5 559.8163,-.5 455.8163,-.5"/>
<text text-anchor="middle" x="507.8163" y="-7.5" font-family="Helvetica,sans-Serif" font-size="10.00" fill="#000000">AMReX_MultiFab.H</text>
</g>
<!-- Node2&#45;&gt;Node11 -->
<g id="edge39" class="edge">
<title>Node2&#45;&gt;Node11</title>
<path fill="none" stroke="#191970" d="M258.0442,-197.1494C144.7952,-180.9741 -59.118,-139.3808 16.8163,-56 23.9637,-48.1516 314.8744,-24.8443 445.4728,-14.7496"/>
<polygon fill="#191970" stroke="#191970" points="446.0204,-18.2179 455.7216,-13.9591 445.482,-11.2386 446.0204,-18.2179"/>
</g>
<!-- Node13 -->
<g id="node14" class="node">
<title>Node13</title>
<g id="a_node14"><a xlink:href="_field_repo_8_h.html" target="_top" xlink:title="amr&#45;wind/core/FieldRepo.H">
<polygon fill="#ffffff" stroke="#000000" points="580.8163,-129 580.8163,-148 716.8163,-148 716.8163,-129 580.8163,-129"/>
<text text-anchor="middle" x="648.8163" y="-136" font-family="Helvetica,sans-Serif" font-size="10.00" fill="#000000">amr&#45;wind/core/FieldRepo.H</text>
</a>
</g>
</g>
<!-- Node2&#45;&gt;Node13 -->
<g id="edge14" class="edge">
<title>Node2&#45;&gt;Node13</title>
<path fill="none" stroke="#191970" d="M397.4685,-190.962C456.1411,-178.7157 538.965,-161.4285 593.2601,-150.0958"/>
<polygon fill="#191970" stroke="#191970" points="593.98,-153.5211 603.0539,-148.0516 592.5498,-146.6687 593.98,-153.5211"/>
</g>
<!-- Node4 -->
<g id="node5" class="node">
<title>Node4</title>
<polygon fill="#ffffff" stroke="#bfbfbf" points="2456.8163,-.5 2456.8163,-19.5 2508.8163,-19.5 2508.8163,-.5 2456.8163,-.5"/>
<text text-anchor="middle" x="2482.8163" y="-7.5" font-family="Helvetica,sans-Serif" font-size="10.00" fill="#000000">memory</text>
</g>
<!-- Node3&#45;&gt;Node4 -->
<g id="edge4" class="edge">
<title>Node3&#45;&gt;Node4</title>
<path fill="none" stroke="#191970" d="M2369.7538,-61.8906C2392.0761,-51.6457 2427.6199,-35.3326 2452.892,-23.7339"/>
<polygon fill="#191970" stroke="#191970" points="2454.3972,-26.8942 2462.0258,-19.5419 2451.4773,-20.5322 2454.3972,-26.8942"/>
</g>
<!-- Node5 -->
<g id="node6" class="node">
<title>Node5</title>
<polygon fill="#ffffff" stroke="#bfbfbf" points="1726.3163,-.5 1726.3163,-19.5 1809.3163,-19.5 1809.3163,-.5 1726.3163,-.5"/>
<text text-anchor="middle" x="1767.8163" y="-7.5" font-family="Helvetica,sans-Serif" font-size="10.00" fill="#000000">unordered_map</text>
</g>
<!-- Node3&#45;&gt;Node5 -->
<g id="edge5" class="edge">
<title>Node3&#45;&gt;Node5</title>
<path fill="none" stroke="#191970" d="M2286.0525,-62.1851C2270.6237,-60.0253 2254.1365,-57.8267 2238.8163,-56 2198.024,-51.1363 1933.4785,-25.7945 1819.704,-14.9413"/>
<polygon fill="#191970" stroke="#191970" points="1819.7877,-11.4335 1809.5006,-13.9683 1819.1231,-18.4019 1819.7877,-11.4335"/>
</g>
<!-- Node6 -->
<g id="node7" class="node">
<title>Node6</title>
<polygon fill="#ffffff" stroke="#bfbfbf" points="2278.8163,-.5 2278.8163,-19.5 2332.8163,-19.5 2332.8163,-.5 2278.8163,-.5"/>
<text text-anchor="middle" x="2305.8163" y="-7.5" font-family="Helvetica,sans-Serif" font-size="10.00" fill="#000000">iostream</text>
</g>
<!-- Node3&#45;&gt;Node6 -->
<g id="edge6" class="edge">
<title>Node3&#45;&gt;Node6</title>
<path fill="none" stroke="#191970" d="M2342.0975,-61.8906C2335.8233,-52.917 2326.294,-39.2879 2318.5758,-28.2491"/>
<polygon fill="#191970" stroke="#191970" points="2321.2284,-25.9348 2312.6298,-19.7449 2315.4915,-29.9459 2321.2284,-25.9348"/>
</g>
<!-- Node7 -->
<g id="node8" class="node">
<title>Node7</title>
<polygon fill="#ffffff" stroke="#bfbfbf" points="2351.3163,-.5 2351.3163,-19.5 2438.3163,-19.5 2438.3163,-.5 2351.3163,-.5"/>
<text text-anchor="middle" x="2394.8163" y="-7.5" font-family="Helvetica,sans-Serif" font-size="10.00" fill="#000000">AMReX_Print.H</text>
</g>
<!-- Node3&#45;&gt;Node7 -->
<g id="edge7" class="edge">
<title>Node3&#45;&gt;Node7</title>
<path fill="none" stroke="#191970" d="M2356.0038,-61.8906C2362.7829,-52.8273 2373.1141,-39.0149 2381.4136,-27.9188"/>
<polygon fill="#191970" stroke="#191970" points="2384.3406,-29.849 2387.5274,-19.7449 2378.7351,-25.6563 2384.3406,-29.849"/>
</g>
<!-- Node8 -->
<g id="node9" class="node">
<title>Node8</title>
<polygon fill="#ffffff" stroke="#bfbfbf" points="2198.8163,-.5 2198.8163,-19.5 2260.8163,-19.5 2260.8163,-.5 2198.8163,-.5"/>
<text text-anchor="middle" x="2229.8163" y="-7.5" font-family="Helvetica,sans-Serif" font-size="10.00" fill="#000000">AMReX.H</text>
</g>
<!-- Node3&#45;&gt;Node8 -->
<g id="edge8" class="edge">
<title>Node3&#45;&gt;Node8</title>
<path fill="none" stroke="#191970" d="M2330.2225,-61.8906C2310.661,-51.7811 2279.6662,-35.7628 2257.2854,-24.1962"/>
<polygon fill="#191970" stroke="#191970" points="2258.7702,-21.0238 2248.2795,-19.5419 2255.5563,-27.2425 2258.7702,-21.0238"/>
</g>
<!-- Node10&#45;&gt;Node9 -->
<g id="edge11" class="edge">
<title>Node10&#45;&gt;Node9</title>
<path fill="none" stroke="#191970" d="M159.6395,-64.6539C187.5082,-61.8634 220.2191,-58.6721 249.8163,-56 415.2745,-41.0621 608.3311,-25.7148 719.688,-17.0652"/>
<polygon fill="#191970" stroke="#191970" points="720.1757,-20.5379 729.875,-16.2749 719.6342,-13.5589 720.1757,-20.5379"/>
</g>
<!-- Node10&#45;&gt;Node11 -->
<g id="edge12" class="edge">
<title>Node10&#45;&gt;Node11</title>
<path fill="none" stroke="#191970" d="M157.2047,-61.9581C235.8612,-50.3018 368.0099,-30.7183 445.6449,-19.2133"/>
<polygon fill="#191970" stroke="#191970" points="446.3836,-22.6422 455.7625,-17.714 445.3574,-15.7178 446.3836,-22.6422"/>
</g>
<!-- Node12 -->
<g id="node13" class="node">
<title>Node12</title>
<polygon fill="#ffffff" stroke="#bfbfbf" points="34.8163,-.5 34.8163,-19.5 150.8163,-19.5 150.8163,-.5 34.8163,-.5"/>
<text text-anchor="middle" x="92.8163" y="-7.5" font-family="Helvetica,sans-Serif" font-size="10.00" fill="#000000">AMReX_Interpolater.H</text>
</g>
<!-- Node10&#45;&gt;Node12 -->
<g id="edge13" class="edge">
<title>Node10&#45;&gt;Node12</title>
<path fill="none" stroke="#191970" d="M92.8163,-61.8906C92.8163,-53.3657 92.8163,-40.6392 92.8163,-29.9235"/>
<polygon fill="#191970" stroke="#191970" points="96.3164,-29.7448 92.8163,-19.7449 89.3164,-29.7449 96.3164,-29.7448"/>
</g>
<!-- Node13&#45;&gt;Node5 -->
<g id="edge16" class="edge">
<title>Node13&#45;&gt;Node5</title>
<path fill="none" stroke="#191970" d="M717.0183,-131.5933C790.1522,-123.5378 909.4446,-108.5221 1010.8163,-87 1060.0837,-76.5401 1070.211,-64.7184 1119.8163,-56 1234.0514,-35.9226 1583.0164,-18.4135 1715.7898,-12.306"/>
<polygon fill="#191970" stroke="#191970" points="1716.2624,-15.7881 1726.0921,-11.8351 1715.9427,-8.7955 1716.2624,-15.7881"/>
</g>
<!-- Node13&#45;&gt;Node9 -->
<g id="edge17" class="edge">
<title>Node13&#45;&gt;Node9</title>
<path fill="none" stroke="#191970" d="M580.6656,-132.4996C489.5504,-123.7772 337.4881,-106.4938 320.8163,-87 311.8613,-76.5293 311.5394,-66.1866 320.8163,-56 334.0678,-41.449 581.6509,-24.0661 720.0626,-15.4287"/>
<polygon fill="#191970" stroke="#191970" points="720.4794,-18.9096 730.2434,-14.7968 720.0457,-11.9231 720.4794,-18.9096"/>
</g>
<!-- Node13&#45;&gt;Node10 -->
<g id="edge18" class="edge">
<title>Node13&#45;&gt;Node10</title>
<path fill="none" stroke="#191970" d="M580.5531,-132.8507C488.0828,-124.7988 317.9931,-108.5743 173.8163,-87 165.7628,-85.7949 157.2897,-84.3602 148.981,-82.8574"/>
<polygon fill="#191970" stroke="#191970" points="149.4373,-79.3825 138.9669,-81.0014 148.1616,-86.2652 149.4373,-79.3825"/>
</g>
<!-- Node13&#45;&gt;Node11 -->
<g id="edge37" class="edge">
<title>Node13&#45;&gt;Node11</title>
<path fill="none" stroke="#191970" d="M580.494,-133.5326C481.1896,-125.6093 306.6916,-108.7592 287.8163,-87 278.788,-76.5924 279.1279,-66.6929 287.8163,-56 307.4021,-31.8953 387.7009,-19.9816 445.6312,-14.4181"/>
<polygon fill="#191970" stroke="#191970" points="446.168,-17.8837 455.8059,-13.4834 445.5276,-10.913 446.168,-17.8837"/>
</g>
<!-- Node14 -->
<g id="node15" class="node">
<title>Node14</title>
<polygon fill="#ffffff" stroke="#bfbfbf" points="987.3163,-.5 987.3163,-19.5 1028.3163,-19.5 1028.3163,-.5 987.3163,-.5"/>
<text text-anchor="middle" x="1007.8163" y="-7.5" font-family="Helvetica,sans-Serif" font-size="10.00" fill="#000000">string</text>
</g>
<!-- Node13&#45;&gt;Node14 -->
<g id="edge15" class="edge">
<title>Node13&#45;&gt;Node14</title>
<path fill="none" stroke="#191970" d="M716.8433,-132.2509C810.2727,-123.0611 969.0524,-105.0317 988.8163,-87 1004.5776,-72.62 1008.2198,-47.4375 1008.6394,-29.7981"/>
<polygon fill="#191970" stroke="#191970" points="1012.1387,-29.6895 1008.5544,-19.7194 1005.1389,-29.7486 1012.1387,-29.6895"/>
</g>
<!-- Node15 -->
<g id="node16" class="node">
<title>Node15</title>
<g id="a_node16"><a xlink:href="_field_8_h.html" target="_top" xlink:title="amr&#45;wind/core/Field.H">
<polygon fill="#ffffff" stroke="#ff0000" points="1700.3163,-62 1700.3163,-81 1813.3163,-81 1813.3163,-62 1700.3163,-62"/>
<text text-anchor="middle" x="1756.8163" y="-69" font-family="Helvetica,sans-Serif" font-size="10.00" fill="#000000">amr&#45;wind/core/Field.H</text>
</a>
</g>
</g>
<!-- Node13&#45;&gt;Node15 -->
<g id="edge19" class="edge">
<title>Node13&#45;&gt;Node15</title>
<path fill="none" stroke="#191970" d="M717.102,-135.8605C912.3439,-128.1764 1470.5716,-105.2118 1652.8163,-87 1664.8786,-85.7946 1677.681,-84.1716 1690.0279,-82.4288"/>
<polygon fill="#191970" stroke="#191970" points="1690.8721,-85.843 1700.2658,-80.9431 1689.8668,-78.9155 1690.8721,-85.843"/>
</g>
<!-- Node19 -->
<g id="node19" class="node">
<title>Node19</title>
<g id="a_node19"><a xlink:href="_int_field_8_h.html" target="_top" xlink:title="amr&#45;wind/core/IntField.H">
<polygon fill="#ffffff" stroke="#000000" points="329.8163,-62 329.8163,-81 453.8163,-81 453.8163,-62 329.8163,-62"/>
<text text-anchor="middle" x="391.8163" y="-69" font-family="Helvetica,sans-Serif" font-size="10.00" fill="#000000">amr&#45;wind/core/IntField.H</text>
</a>
</g>
</g>
<!-- Node13&#45;&gt;Node19 -->
<g id="edge27" class="edge">
<title>Node13&#45;&gt;Node19</title>
<path fill="none" stroke="#191970" d="M612.2674,-128.9717C566.6311,-117.0743 488.5016,-96.7059 438.5567,-83.6852"/>
<polygon fill="#191970" stroke="#191970" points="439.2147,-80.2399 428.6552,-81.1039 437.4488,-87.0135 439.2147,-80.2399"/>
</g>
<!-- Node20 -->
<g id="node20" class="node">
<title>Node20</title>
<polygon fill="#ffffff" stroke="#bfbfbf" points="254.3163,-.5 254.3163,-19.5 361.3163,-19.5 361.3163,-.5 254.3163,-.5"/>
<text text-anchor="middle" x="307.8163" y="-7.5" font-family="Helvetica,sans-Serif" font-size="10.00" fill="#000000">AMReX_iMultiFab.H</text>
</g>
<!-- Node13&#45;&gt;Node20 -->
<g id="edge38" class="edge">
<title>Node13&#45;&gt;Node20</title>
<path fill="none" stroke="#191970" d="M580.5182,-133.8433C478.5794,-126.1894 296.4356,-109.5225 276.8163,-87 261.8238,-69.789 277.2504,-44.3992 291.1939,-27.5399"/>
<polygon fill="#191970" stroke="#191970" points="294.2087,-29.4114 298.1813,-19.5895 288.9508,-24.7903 294.2087,-29.4114"/>
</g>
<!-- Node21 -->
<g id="node21" class="node">
<title>Node21</title>
<g id="a_node21"><a xlink:href="_scratch_field_8_h.html" target="_top" xlink:title="amr&#45;wind/core/ScratchField.H">
<polygon fill="#ffffff" stroke="#ff0000" points="833.8163,-62 833.8163,-81 979.8163,-81 979.8163,-62 833.8163,-62"/>
<text text-anchor="middle" x="906.8163" y="-69" font-family="Helvetica,sans-Serif" font-size="10.00" fill="#000000">amr&#45;wind/core/ScratchField.H</text>
</a>
</g>
</g>
<!-- Node13&#45;&gt;Node21 -->
<g id="edge31" class="edge">
<title>Node13&#45;&gt;Node21</title>
<path fill="none" stroke="#191970" d="M685.5074,-128.9717C731.3212,-117.0743 809.7548,-96.7059 859.894,-83.6852"/>
<polygon fill="#191970" stroke="#191970" points="861.0348,-87.0052 869.834,-81.1039 859.2753,-80.2299 861.0348,-87.0052"/>
</g>
<!-- Node24 -->
<g id="node23" class="node">
<title>Node24</title>
<polygon fill="#ffffff" stroke="#bfbfbf" points="2467.8163,-62 2467.8163,-81 2573.8163,-81 2573.8163,-62 2467.8163,-62"/>
<text text-anchor="middle" x="2520.8163" y="-69" font-family="Helvetica,sans-Serif" font-size="10.00" fill="#000000">AMReX_AmrCore.H</text>
</g>
<!-- Node13&#45;&gt;Node24 -->
<g id="edge36" class="edge">
<title>Node13&#45;&gt;Node24</title>
<path fill="none" stroke="#191970" d="M716.86,-135.6653C797.6731,-132.3549 936.5535,-126.8435 1055.8163,-123 1662.379,-103.452 1816.3988,-141.5887 2420.8163,-87 2432.7773,-85.9197 2445.4808,-84.3112 2457.6775,-82.5335"/>
<polygon fill="#191970" stroke="#191970" points="2458.4109,-85.9625 2467.7761,-81.0083 2457.3655,-79.041 2458.4109,-85.9625"/>
</g>
<!-- Node15&#45;&gt;Node4 -->
<g id="edge21" class="edge">
<title>Node15&#45;&gt;Node4</title>
<path fill="none" stroke="#191970" d="M1813.4779,-64.7999C1839.7202,-61.8404 1871.3312,-58.4783 1899.8163,-56 2139.6538,-35.1334 2205.542,-61.0359 2446.462,-19.8931"/>
<polygon fill="#191970" stroke="#191970" points="2447.3248,-23.296 2456.5823,-18.1433 2446.1321,-16.3983 2447.3248,-23.296"/>
</g>
<!-- Node15&#45;&gt;Node5 -->
<g id="edge22" class="edge">
<title>Node15&#45;&gt;Node5</title>
<path fill="none" stroke="#191970" d="M1758.535,-61.8906C1760.0598,-53.3657 1762.3361,-40.6392 1764.2527,-29.9235"/>
<polygon fill="#191970" stroke="#191970" points="1767.7579,-30.2049 1766.0733,-19.7449 1760.8672,-28.9724 1767.7579,-30.2049"/>
</g>
<!-- Node15&#45;&gt;Node9 -->
<g id="edge26" class="edge">
<title>Node15&#45;&gt;Node9</title>
<path fill="none" stroke="#191970" d="M1718.6984,-61.9746C1708.1125,-59.6589 1696.5709,-57.4378 1685.8163,-56 1373.9617,-14.3067 1292.9639,-37.4034 978.8163,-20 954.3471,-18.6444 927.8664,-17.0961 903.3582,-15.6294"/>
<polygon fill="#191970" stroke="#191970" points="903.5427,-12.1343 893.3508,-15.0285 903.1231,-19.1217 903.5427,-12.1343"/>
</g>
<!-- Node15&#45;&gt;Node11 -->
<g id="edge23" class="edge">
<title>Node15&#45;&gt;Node11</title>
<path fill="none" stroke="#191970" d="M1700.5493,-61.967C1685.1169,-59.6659 1668.3564,-57.4541 1652.8163,-56 1240.5302,-17.4221 1135.5263,-37.6645 721.8163,-20 670.8378,-17.8233 613.0406,-15.1078 570.3729,-13.056"/>
<polygon fill="#191970" stroke="#191970" points="570.2966,-9.5483 560.1396,-12.5627 569.9595,-16.5402 570.2966,-9.5483"/>
</g>
<!-- Node15&#45;&gt;Node14 -->
<g id="edge20" class="edge">
<title>Node15&#45;&gt;Node14</title>
<path fill="none" stroke="#191970" d="M1718.3243,-61.9268C1707.8397,-59.6401 1696.4426,-57.4457 1685.8163,-56 1403.3544,-17.5716 1323.021,-72.7635 1038.8052,-19.6535"/>
<polygon fill="#191970" stroke="#191970" points="1039.0853,-16.1443 1028.6081,-17.7182 1037.7801,-23.0215 1039.0853,-16.1443"/>
</g>
<!-- Node15&#45;&gt;Node17 -->
<g id="edge24" class="edge">
<title>Node15&#45;&gt;Node17</title>
<path fill="none" stroke="#191970" d="M1783.0663,-61.8906C1811.5456,-51.4652 1857.1905,-34.7559 1888.962,-23.1252"/>
<polygon fill="#191970" stroke="#191970" points="1890.5632,-26.2663 1898.7506,-19.5419 1888.1568,-19.6929 1890.5632,-26.2663"/>
</g>
<!-- Node18 -->
<g id="node18" class="node">
<title>Node18</title>
<g id="a_node18"><a xlink:href="incflo__enums_8_h.html" target="_top" xlink:title="amr&#45;wind/incflo_enums.H">
<polygon fill="#ffffff" stroke="#000000" points="2030.8163,-.5 2030.8163,-19.5 2158.8163,-19.5 2158.8163,-.5 2030.8163,-.5"/>
<text text-anchor="middle" x="2094.8163" y="-7.5" font-family="Helvetica,sans-Serif" font-size="10.00" fill="#000000">amr&#45;wind/incflo_enums.H</text>
</a>
</g>
</g>
<!-- Node15&#45;&gt;Node18 -->
<g id="edge25" class="edge">
<title>Node15&#45;&gt;Node18</title>
<path fill="none" stroke="#191970" d="M1809.2579,-61.9581C1869.5412,-50.9894 1968.403,-33.0012 2032.5447,-21.3305"/>
<polygon fill="#191970" stroke="#191970" points="2033.3178,-24.7474 2042.5297,-19.5137 2032.0647,-17.8604 2033.3178,-24.7474"/>
</g>
<!-- Node19&#45;&gt;Node9 -->
<g id="edge29" class="edge">
<title>Node19&#45;&gt;Node9</title>
<path fill="none" stroke="#191970" d="M432.6244,-61.9777C442.4779,-59.8485 452.9978,-57.7157 462.8163,-56 549.6037,-40.8347 649.3183,-28.1623 719.8795,-19.9842"/>
<polygon fill="#191970" stroke="#191970" points="720.5397,-23.4314 730.0736,-18.8104 719.7389,-16.4773 720.5397,-23.4314"/>
</g>
<!-- Node19&#45;&gt;Node14 -->
<g id="edge28" class="edge">
<title>Node19&#45;&gt;Node14</title>
<path fill="none" stroke="#191970" d="M431.0763,-61.9511C441.3549,-59.7204 452.4593,-57.5472 462.8163,-56 656.872,-27.0113 707.3716,-37.3016 902.8163,-20 927.824,-17.7862 956.1616,-15.0755 977.0898,-13.035"/>
<polygon fill="#191970" stroke="#191970" points="977.6902,-16.493 987.3016,-12.0352 977.0081,-9.5263 977.6902,-16.493"/>
</g>
<!-- Node19&#45;&gt;Node20 -->
<g id="edge30" class="edge">
<title>Node19&#45;&gt;Node20</title>
<path fill="none" stroke="#191970" d="M378.6913,-61.8906C365.3763,-52.1421 344.5569,-36.8994 328.9215,-25.4521"/>
<polygon fill="#191970" stroke="#191970" points="330.9854,-22.6253 320.8491,-19.5419 326.8502,-28.2734 330.9854,-22.6253"/>
</g>
<!-- Node21&#45;&gt;Node9 -->
<g id="edge33" class="edge">
<title>Node21&#45;&gt;Node9</title>
<path fill="none" stroke="#191970" d="M891.9725,-61.8906C876.7744,-52.0519 852.9314,-36.6167 835.1956,-25.1351"/>
<polygon fill="#191970" stroke="#191970" points="836.8524,-22.0382 826.5558,-19.5419 833.0483,-27.9144 836.8524,-22.0382"/>
</g>
<!-- Node21&#45;&gt;Node11 -->
<g id="edge34" class="edge">
<title>Node21&#45;&gt;Node11</title>
<path fill="none" stroke="#191970" d="M854.8747,-61.9837C843.3431,-59.9443 831.1733,-57.8485 819.8163,-56 733.431,-41.9398 633.2786,-27.5032 570.2334,-18.6423"/>
<polygon fill="#191970" stroke="#191970" points="570.4472,-15.1381 560.058,-17.2153 569.475,-22.0703 570.4472,-15.1381"/>
</g>
<!-- Node21&#45;&gt;Node14 -->
<g id="edge32" class="edge">
<title>Node21&#45;&gt;Node14</title>
<path fill="none" stroke="#191970" d="M922.5975,-61.8906C938.9037,-51.9616 964.5703,-36.333 983.4776,-24.8201"/>
<polygon fill="#191970" stroke="#191970" points="985.425,-27.7322 992.1458,-19.5419 981.7844,-21.7533 985.425,-27.7322"/>
</g>
<!-- Node22 -->
<g id="node22" class="node">
<title>Node22</title>
<polygon fill="#ffffff" stroke="#bfbfbf" points="1046.3163,-.5 1046.3163,-19.5 1141.3163,-19.5 1141.3163,-.5 1046.3163,-.5"/>
<text text-anchor="middle" x="1093.8163" y="-7.5" font-family="Helvetica,sans-Serif" font-size="10.00" fill="#000000">AMReX_Vector.H</text>
</g>
<!-- Node21&#45;&gt;Node22 -->
<g id="edge35" class="edge">
<title>Node21&#45;&gt;Node22</title>
<path fill="none" stroke="#191970" d="M936.035,-61.8906C968.1469,-51.3298 1019.8653,-34.3208 1055.277,-22.6747"/>
<polygon fill="#191970" stroke="#191970" points="1056.3967,-25.9909 1064.8027,-19.5419 1054.2098,-19.3413 1056.3967,-25.9909"/>
</g>
<!-- Node26 -->
<g id="node25" class="node">
<title>Node26</title>
<polygon fill="#ffffff" stroke="#bfbfbf" points="1150.3163,-62 1150.3163,-81 1243.3163,-81 1243.3163,-62 1150.3163,-62"/>
<text text-anchor="middle" x="1196.8163" y="-69" font-family="Helvetica,sans-Serif" font-size="10.00" fill="#000000">AMReX_REAL.H</text>
</g>
<!-- Node25&#45;&gt;Node26 -->
<g id="edge41" class="edge">
<title>Node25&#45;&gt;Node26</title>
<path fill="none" stroke="#191970" d="M1406.623,-128.9554C1368.6579,-118.6486 1306.4354,-101.7257 1252.8163,-87 1248.986,-85.9481 1245.0093,-84.8531 1241.0216,-83.7531"/>
<polygon fill="#191970" stroke="#191970" points="1241.7352,-80.3192 1231.1643,-81.0304 1239.8715,-87.0666 1241.7352,-80.3192"/>
</g>
<!-- Node27 -->
<g id="node26" class="node">
<title>Node27</title>
<polygon fill="#ffffff" stroke="#bfbfbf" points="1261.8163,-62 1261.8163,-81 1387.8163,-81 1387.8163,-62 1261.8163,-62"/>
<text text-anchor="middle" x="1324.8163" y="-69" font-family="Helvetica,sans-Serif" font-size="10.00" fill="#000000">AMReX_GpuQualifiers.H</text>
</g>
<!-- Node25&#45;&gt;Node27 -->
<g id="edge42" class="edge">
<title>Node25&#45;&gt;Node27</title>
<path fill="none" stroke="#191970" d="M1425.053,-128.9005C1405.5047,-117.7062 1372.9824,-99.0823 1350.3026,-86.0947"/>
<polygon fill="#191970" stroke="#191970" points="1351.9656,-83.0138 1341.5484,-81.0817 1348.487,-89.0883 1351.9656,-83.0138"/>
</g>
<!-- Node28 -->
<g id="node27" class="node">
<title>Node28</title>
<polygon fill="#ffffff" stroke="#bfbfbf" points="1405.8163,-62 1405.8163,-81 1515.8163,-81 1515.8163,-62 1405.8163,-62"/>
<text text-anchor="middle" x="1460.8163" y="-69" font-family="Helvetica,sans-Serif" font-size="10.00" fill="#000000">AMReX_Extension.H</text>
</g>
<!-- Node25&#45;&gt;Node28 -->
<g id="edge43" class="edge">
<title>Node25&#45;&gt;Node28</title>
<path fill="none" stroke="#191970" d="M1444.5385,-128.9005C1447.3321,-119.0495 1451.7572,-103.4451 1455.2889,-90.9912"/>
<polygon fill="#191970" stroke="#191970" points="1458.738,-91.6572 1458.0991,-81.0817 1452.0035,-89.7474 1458.738,-91.6572"/>
</g>
<!-- Node29&#45;&gt;Node24 -->
<g id="edge45" class="edge">
<title>Node29&#45;&gt;Node24</title>
<path fill="none" stroke="#191970" d="M2434.6397,-257.4479C2435.9546,-240.5578 2439.3183,-212.5691 2447.8163,-190 2462.3344,-151.4424 2489.8971,-111.6784 2506.6873,-89.4199"/>
<polygon fill="#191970" stroke="#191970" points="2509.6351,-91.3279 2512.9515,-81.2655 2504.0839,-87.0635 2509.6351,-91.3279"/>
</g>
<!-- Node30 -->
<g id="node29" class="node">
<title>Node30</title>
<g id="a_node29"><a xlink:href="_direction_selector_8_h.html" target="_top" xlink:title="amr&#45;wind/utilities\l/DirectionSelector.H">
<polygon fill="#ffffff" stroke="#000000" points="1987.3163,-190.5 1987.3163,-220.5 2092.3163,-220.5 2092.3163,-190.5 1987.3163,-190.5"/>
<text text-anchor="start" x="1995.3163" y="-208.5" font-family="Helvetica,sans-Serif" font-size="10.00" fill="#000000">amr&#45;wind/utilities</text>
<text text-anchor="middle" x="2039.8163" y="-197.5" font-family="Helvetica,sans-Serif" font-size="10.00" fill="#000000">/DirectionSelector.H</text>
</a>
</g>
</g>
<!-- Node29&#45;&gt;Node30 -->
<g id="edge46" class="edge">
<title>Node29&#45;&gt;Node30</title>
<path fill="none" stroke="#191970" d="M2384.7125,-264.1499C2313.3443,-252.0136 2180.9483,-229.4996 2102.5857,-216.174"/>
<polygon fill="#191970" stroke="#191970" points="2102.8132,-212.6625 2092.3679,-214.4365 2101.6396,-219.5634 2102.8132,-212.6625"/>
</g>
<!-- Node31&#45;&gt;Node13 -->
<g id="edge50" class="edge">
<title>Node31&#45;&gt;Node13</title>
<path fill="none" stroke="#191970" d="M1686.6638,-202.1775C1507.9793,-191.2142 936.5893,-156.1564 726.9199,-143.2921"/>
<polygon fill="#191970" stroke="#191970" points="727.1085,-139.7972 716.9129,-142.6781 726.6797,-146.784 727.1085,-139.7972"/>
</g>
<!-- Node31&#45;&gt;Node24 -->
<g id="edge48" class="edge">
<title>Node31&#45;&gt;Node24</title>
<path fill="none" stroke="#191970" d="M1794.8844,-201.1545C1938.1235,-189.5924 2317.3386,-158.6387 2329.8163,-154 2351.8994,-145.7904 2351.9162,-133.8742 2372.8163,-123 2405.2327,-106.1339 2444.3748,-92.7892 2474.2614,-83.9136"/>
<polygon fill="#191970" stroke="#191970" points="2475.3939,-87.2293 2484.0189,-81.0763 2473.4393,-80.5077 2475.3939,-87.2293"/>
</g>
<!-- Node31&#45;&gt;Node25 -->
<g id="edge49" class="edge">
<title>Node31&#45;&gt;Node25</title>
<path fill="none" stroke="#191970" d="M1698.2944,-195.9717C1644.7567,-183.975 1552.7815,-163.3651 1494.7464,-150.3606"/>
<polygon fill="#191970" stroke="#191970" points="1495.1989,-146.8753 1484.6756,-148.1039 1493.6682,-153.7059 1495.1989,-146.8753"/>
</g>
<!-- Node32 -->
<g id="node31" class="node">
<title>Node32</title>
<g id="a_node31"><a xlink:href="_p_d_e_base_8_h.html" target="_top" xlink:title="amr&#45;wind/equation_systems\l/PDEBase.H">
<polygon fill="#ffffff" stroke="#000000" points="1987.3163,-123.5 1987.3163,-153.5 2126.3163,-153.5 2126.3163,-123.5 1987.3163,-123.5"/>
<text text-anchor="start" x="1995.3163" y="-141.5" font-family="Helvetica,sans-Serif" font-size="10.00" fill="#000000">amr&#45;wind/equation_systems</text>
<text text-anchor="middle" x="2056.8163" y="-130.5" font-family="Helvetica,sans-Serif" font-size="10.00" fill="#000000">/PDEBase.H</text>
</a>
</g>
</g>
<!-- Node31&#45;&gt;Node32 -->
<g id="edge51" class="edge">
<title>Node31&#45;&gt;Node32</title>
<path fill="none" stroke="#191970" d="M1785.7558,-195.9717C1835.5504,-185.414 1916.807,-168.1855 1977.3891,-155.3406"/>
<polygon fill="#191970" stroke="#191970" points="1978.2491,-158.7361 1987.3057,-153.238 1976.7972,-151.8883 1978.2491,-158.7361"/>
</g>
<!-- Node36 -->
<g id="node34" class="node">
<title>Node36</title>
<g id="a_node34"><a xlink:href="_physics_8_h.html" target="_top" xlink:title="amr&#45;wind/core/Physics.H">
<polygon fill="#ffffff" stroke="#000000" points="1525.3163,-129 1525.3163,-148 1652.3163,-148 1652.3163,-129 1525.3163,-129"/>
<text text-anchor="middle" x="1588.8163" y="-136" font-family="Helvetica,sans-Serif" font-size="10.00" fill="#000000">amr&#45;wind/core/Physics.H</text>
</a>
</g>
</g>
<!-- Node31&#45;&gt;Node36 -->
<g id="edge62" class="edge">
<title>Node31&#45;&gt;Node36</title>
<path fill="none" stroke="#191970" d="M1719.0384,-195.9005C1693.0779,-184.4574 1649.5049,-165.2509 1619.9817,-152.2374"/>
<polygon fill="#191970" stroke="#191970" points="1621.116,-148.9125 1610.5538,-148.0817 1618.2925,-155.3178 1621.116,-148.9125"/>
</g>
<!-- Node32&#45;&gt;Node3 -->
<g id="edge53" class="edge">
<title>Node32&#45;&gt;Node3</title>
<path fill="none" stroke="#191970" d="M2122.3468,-123.4639C2175.2494,-111.3253 2248.6509,-94.4831 2297.3822,-83.3016"/>
<polygon fill="#191970" stroke="#191970" points="2298.4263,-86.6531 2307.3902,-81.0053 2296.8608,-79.8304 2298.4263,-86.6531"/>
</g>
<!-- Node32&#45;&gt;Node9 -->
<g id="edge60" class="edge">
<title>Node32&#45;&gt;Node9</title>
<path fill="none" stroke="#191970" d="M1987.0955,-124.5064C1938.4611,-114.0203 1878.3889,-99.4046 1855.8163,-87 1838.1807,-77.3085 1841.3634,-63.8065 1822.8163,-56 1736.3041,-19.587 1072.5562,-24.8054 978.8163,-20 954.3417,-18.7454 927.8591,-17.2314 903.3509,-15.7655"/>
<polygon fill="#191970" stroke="#191970" points="903.5359,-12.2704 893.3437,-15.1631 903.1153,-19.2577 903.5359,-12.2704"/>
</g>
<!-- Node32&#45;&gt;Node14 -->
<g id="edge52" class="edge">
<title>Node32&#45;&gt;Node14</title>
<path fill="none" stroke="#191970" d="M1997.0124,-123.4181C1966.9984,-114.7288 1930.5787,-102.4474 1899.8163,-87 1878.4385,-76.2651 1878.4559,-63.7262 1855.8163,-56 1686.5571,1.763 1232.6079,-51.2124 1038.489,-19.483"/>
<polygon fill="#191970" stroke="#191970" points="1039.0562,-16.0291 1028.6021,-17.7501 1037.8477,-22.924 1039.0562,-16.0291"/>
</g>
<!-- Node32&#45;&gt;Node18 -->
<g id="edge61" class="edge">
<title>Node32&#45;&gt;Node18</title>
<path fill="none" stroke="#191970" d="M2124.7429,-123.4409C2173.4064,-111.9661 2231.5863,-96.5597 2238.8163,-87 2264.0941,-53.5769 2212.1711,-33.0795 2163.7724,-21.7243"/>
<polygon fill="#191970" stroke="#191970" points="2164.3685,-18.2713 2153.8459,-19.5064 2162.842,-25.1028 2164.3685,-18.2713"/>
</g>
<!-- Node33 -->
<g id="node32" class="node">
<title>Node33</title>
<g id="a_node32"><a xlink:href="_coll_mgr_8_h.html" target="_top" xlink:title="amr&#45;wind/core/CollMgr.H">
<polygon fill="#ffffff" stroke="#000000" points="1908.3163,-62 1908.3163,-81 2033.3163,-81 2033.3163,-62 1908.3163,-62"/>
<text text-anchor="middle" x="1970.8163" y="-69" font-family="Helvetica,sans-Serif" font-size="10.00" fill="#000000">amr&#45;wind/core/CollMgr.H</text>
</a>
</g>
</g>
<!-- Node32&#45;&gt;Node33 -->
<g id="edge54" class="edge">
<title>Node32&#45;&gt;Node33</title>
<path fill="none" stroke="#191970" d="M2037.3015,-123.2967C2023.5121,-112.5537 2005.0744,-98.1895 1991.1135,-87.3129"/>
<polygon fill="#191970" stroke="#191970" points="1993.1205,-84.4398 1983.0809,-81.055 1988.8184,-89.9618 1993.1205,-84.4398"/>
</g>
<!-- Node34 -->
<g id="node33" class="node">
<title>Node34</title>
<g id="a_node33"><a xlink:href="_p_d_e_fields_8_h.html" target="_top" xlink:title="amr&#45;wind/equation_systems\l/PDEFields.H">
<polygon fill="#ffffff" stroke="#ff0000" points="2090.3163,-56.5 2090.3163,-86.5 2229.3163,-86.5 2229.3163,-56.5 2090.3163,-56.5"/>
<text text-anchor="start" x="2098.3163" y="-74.5" font-family="Helvetica,sans-Serif" font-size="10.00" fill="#000000">amr&#45;wind/equation_systems</text>
<text text-anchor="middle" x="2159.8163" y="-63.5" font-family="Helvetica,sans-Serif" font-size="10.00" fill="#000000">/PDEFields.H</text>
</a>
</g>
</g>
<!-- Node32&#45;&gt;Node34 -->
<g id="edge59" class="edge">
<title>Node32&#45;&gt;Node34</title>
<path fill="none" stroke="#191970" d="M2079.9315,-123.4639C2094.0126,-114.3044 2112.2108,-102.4667 2127.6805,-92.4038"/>
<polygon fill="#191970" stroke="#191970" points="2129.9477,-95.1044 2136.4218,-86.7177 2126.1308,-89.2366 2129.9477,-95.1044"/>
</g>
<!-- Node33&#45;&gt;Node4 -->
<g id="edge56" class="edge">
<title>Node33&#45;&gt;Node4</title>
<path fill="none" stroke="#191970" d="M2033.5704,-62.2831C2049.3066,-60.0969 2066.1658,-57.8616 2081.8163,-56 2240.7951,-37.0894 2285.4309,-50.0205 2446.3054,-19.9929"/>
<polygon fill="#191970" stroke="#191970" points="2447.3913,-23.3495 2456.5652,-18.0496 2446.0885,-16.4718 2447.3913,-23.3495"/>
</g>
<!-- Node33&#45;&gt;Node5 -->
<g id="edge57" class="edge">
<title>Node33&#45;&gt;Node5</title>
<path fill="none" stroke="#191970" d="M1939.0975,-61.8906C1904.0891,-51.2846 1847.6144,-34.1753 1809.1611,-22.5257"/>
<polygon fill="#191970" stroke="#191970" points="1809.8976,-19.0917 1799.3123,-19.5419 1807.8679,-25.791 1809.8976,-19.0917"/>
</g>
<!-- Node33&#45;&gt;Node14 -->
<g id="edge55" class="edge">
<title>Node33&#45;&gt;Node14</title>
<path fill="none" stroke="#191970" d="M1929.4492,-61.9349C1917.9685,-59.619 1905.4586,-57.4078 1893.8163,-56 1519.1118,-10.69 1414.1555,-87.5074 1038.654,-19.5963"/>
<polygon fill="#191970" stroke="#191970" points="1039.068,-16.114 1028.6011,-17.7555 1037.8071,-22.9995 1039.068,-16.114"/>
</g>
<!-- Node33&#45;&gt;Node22 -->
<g id="edge58" class="edge">
<title>Node33&#45;&gt;Node22</title>
<path fill="none" stroke="#191970" d="M1929.0335,-61.9727C1917.6629,-59.686 1905.3122,-57.48 1893.8163,-56 1617.4089,-20.414 1283.7206,-12.354 1151.6525,-10.5313"/>
<polygon fill="#191970" stroke="#191970" points="1151.4166,-7.028 1141.3715,-10.3966 1151.3248,-14.0274 1151.4166,-7.028"/>
</g>
<!-- Node36&#45;&gt;Node3 -->
<g id="edge63" class="edge">
<title>Node36&#45;&gt;Node3</title>
<path fill="none" stroke="#191970" d="M1628.4116,-128.9868C1639.1915,-126.7001 1650.9049,-124.4906 1661.8163,-123 1916.395,-88.2229 1983.1865,-112.9453 2238.8163,-87 2251.2311,-85.74 2264.3971,-84.1267 2277.1417,-82.4193"/>
<polygon fill="#191970" stroke="#191970" points="2277.8173,-85.8595 2287.2498,-81.0347 2276.8673,-78.9243 2277.8173,-85.8595"/>
</g>
<!-- Node36&#45;&gt;Node11 -->
<g id="edge65" class="edge">
<title>Node36&#45;&gt;Node11</title>
<path fill="none" stroke="#191970" d="M1550.1542,-128.9873C1539.4191,-126.6716 1527.7169,-124.4474 1516.8163,-123 1364.1703,-102.7315 968.4849,-142.4158 824.8163,-87 804.4807,-79.1562 806.6835,-64.9641 786.8163,-56 749.1244,-38.9935 640.2189,-24.4495 570.1487,-16.4916"/>
<polygon fill="#191970" stroke="#191970" points="570.4331,-13.0017 560.1054,-15.3658 569.6532,-19.9581 570.4331,-13.0017"/>
</g>
<!-- Node36&#45;&gt;Node33 -->
<g id="edge64" class="edge">
<title>Node36&#45;&gt;Node33</title>
<path fill="none" stroke="#191970" d="M1632.3726,-128.9235C1642.0501,-126.8874 1652.2689,-124.8083 1661.8163,-123 1742.6784,-107.6845 1835.9129,-92.4805 1898.6381,-82.6076"/>
<polygon fill="#191970" stroke="#191970" points="1899.4864,-86.0174 1908.8228,-81.0092 1898.401,-79.102 1899.4864,-86.0174"/>
</g>
<!-- Node37 -->
<g id="node35" class="node">
<title>Node37</title>
<polygon fill="#ffffff" stroke="#bfbfbf" points="1533.8163,-62 1533.8163,-81 1643.8163,-81 1643.8163,-62 1533.8163,-62"/>
<text text-anchor="middle" x="1588.8163" y="-69" font-family="Helvetica,sans-Serif" font-size="10.00" fill="#000000">AMReX_Geometry.H</text>
</g>
<!-- Node36&#45;&gt;Node37 -->
<g id="edge66" class="edge">
<title>Node36&#45;&gt;Node37</title>
<path fill="none" stroke="#191970" d="M1588.8163,-128.9005C1588.8163,-119.149 1588.8163,-103.7597 1588.8163,-91.3695"/>
<polygon fill="#191970" stroke="#191970" points="1592.3164,-91.0816 1588.8163,-81.0817 1585.3164,-91.0817 1592.3164,-91.0816"/>
</g>
<!-- Node38&#45;&gt;Node4 -->
<g id="edge68" class="edge">
<title>Node38&#45;&gt;Node4</title>
<path fill="none" stroke="#191970" d="M1826.0156,-465.5179C1892.9826,-455.9912 2007.1718,-439.181 2104.8163,-422 2314.5368,-385.0986 2389.9646,-409.5371 2564.8163,-288 2602.0655,-262.1085 2619.1504,-260.2955 2641.8163,-221 2663.7693,-182.9404 2663.9967,-165.9673 2654.8163,-123 2647.9991,-91.0936 2649.0952,-77.7951 2624.8163,-56 2595.3632,-29.5601 2550.5092,-18.2954 2519.1152,-13.5097"/>
<polygon fill="#191970" stroke="#191970" points="2519.4098,-10.0173 2509.0262,-12.1225 2518.4562,-16.9521 2519.4098,-10.0173"/>
</g>
<!-- Node38&#45;&gt;Node25 -->
<g id="edge90" class="edge">
<title>Node38&#45;&gt;Node25</title>
<path fill="none" stroke="#191970" d="M1711.712,-464.7417C1645.3464,-450.9441 1544.8163,-417.2172 1544.8163,-339.5 1544.8163,-339.5 1544.8163,-339.5 1544.8163,-272.5 1544.8163,-234.3133 1543.5627,-220.6728 1520.8163,-190 1508.8323,-173.84 1490.1508,-161.3278 1473.9627,-152.6849"/>
<polygon fill="#191970" stroke="#191970" points="1475.2923,-149.4352 1464.7891,-148.0449 1472.1328,-155.6816 1475.2923,-149.4352"/>
</g>
<!-- Node38&#45;&gt;Node36 -->
<g id="edge69" class="edge">
<title>Node38&#45;&gt;Node36</title>
<path fill="none" stroke="#191970" d="M1745.0548,-458.3527C1715.6753,-438.3378 1666.3165,-400.273 1639.8163,-355 1601.7398,-289.9502 1592.0783,-198.2336 1589.6368,-158.3323"/>
<polygon fill="#191970" stroke="#191970" points="1593.1303,-158.115 1589.1131,-148.3113 1586.1398,-158.4803 1593.1303,-158.115"/>
</g>
<!-- Node39 -->
<g id="node37" class="node">
<title>Node39</title>
<g id="a_node37"><a xlink:href="_a_b_l_field_init_8_h.html" target="_top" xlink:title="amr&#45;wind/wind_energy\l/ABLFieldInit.H">
<polygon fill="#ffffff" stroke="#000000" points="1064.8163,-123.5 1064.8163,-153.5 1178.8163,-153.5 1178.8163,-123.5 1064.8163,-123.5"/>
<text text-anchor="start" x="1072.8163" y="-141.5" font-family="Helvetica,sans-Serif" font-size="10.00" fill="#000000">amr&#45;wind/wind_energy</text>
<text text-anchor="middle" x="1121.8163" y="-130.5" font-family="Helvetica,sans-Serif" font-size="10.00" fill="#000000">/ABLFieldInit.H</text>
</a>
</g>
</g>
<!-- Node38&#45;&gt;Node39 -->
<g id="edge70" class="edge">
<title>Node38&#45;&gt;Node39</title>
<path fill="none" stroke="#191970" d="M1711.643,-469.2059C1634.5523,-459.9458 1506.8163,-430.8235 1506.8163,-339.5 1506.8163,-339.5 1506.8163,-339.5 1506.8163,-272.5 1506.8163,-206.0142 1299.4382,-164.9411 1189.0815,-147.7909"/>
<polygon fill="#191970" stroke="#191970" points="1189.4532,-144.3071 1179.0389,-146.2546 1188.3946,-151.2266 1189.4532,-144.3071"/>
</g>
<!-- Node43 -->
<g id="node41" class="node">
<title>Node43</title>
<g id="a_node41"><a xlink:href="_a_b_l_wall_function_8_h.html" target="_top" xlink:title="amr&#45;wind/wind_energy\l/ABLWallFunction.H">
<polygon fill="#ffffff" stroke="#000000" points="1648.8163,-324.5 1648.8163,-354.5 1762.8163,-354.5 1762.8163,-324.5 1648.8163,-324.5"/>
<text text-anchor="start" x="1656.8163" y="-342.5" font-family="Helvetica,sans-Serif" font-size="10.00" fill="#000000">amr&#45;wind/wind_energy</text>
<text text-anchor="middle" x="1705.8163" y="-331.5" font-family="Helvetica,sans-Serif" font-size="10.00" fill="#000000">/ABLWallFunction.H</text>
</a>
</g>
</g>
<!-- Node38&#45;&gt;Node43 -->
<g id="edge79" class="edge">
<title>Node38&#45;&gt;Node43</title>
<path fill="none" stroke="#191970" d="M1761.7118,-458.389C1750.9356,-435.4681 1730.3445,-391.6712 1717.3874,-364.1116"/>
<polygon fill="#191970" stroke="#191970" points="1720.4136,-362.322 1712.9914,-354.7614 1714.0788,-365.3003 1720.4136,-362.322"/>
</g>
<!-- Node44 -->
<g id="node42" class="node">
<title>Node44</title>
<g id="a_node42"><a xlink:href="_field_plane_averaging_8_h.html" target="_top" xlink:title="amr&#45;wind/utilities\l/FieldPlaneAveraging.H">
<polygon fill="#ffffff" stroke="#000000" points="1773.3163,-257.5 1773.3163,-287.5 1892.3163,-287.5 1892.3163,-257.5 1773.3163,-257.5"/>
<text text-anchor="start" x="1781.3163" y="-275.5" font-family="Helvetica,sans-Serif" font-size="10.00" fill="#000000">amr&#45;wind/utilities</text>
<text text-anchor="middle" x="1832.8163" y="-264.5" font-family="Helvetica,sans-Serif" font-size="10.00" fill="#000000">/FieldPlaneAveraging.H</text>
</a>
</g>
</g>
<!-- Node38&#45;&gt;Node44 -->
<g id="edge91" class="edge">
<title>Node38&#45;&gt;Node44</title>
<path fill="none" stroke="#191970" d="M1773.6267,-458.3923C1784.5875,-423.9685 1811.5041,-339.4334 1824.932,-297.2615"/>
<polygon fill="#191970" stroke="#191970" points="1828.3383,-298.0994 1828.0374,-287.5088 1821.6683,-295.9755 1828.3383,-298.0994"/>
</g>
<!-- Node47 -->
<g id="node44" class="node">
<title>Node47</title>
<g id="a_node44"><a xlink:href="_a_b_l_stats_8_h.html" target="_top" xlink:title="amr&#45;wind/wind_energy\l/ABLStats.H">
<polygon fill="#ffffff" stroke="#000000" points="1981.8163,-391.5 1981.8163,-421.5 2095.8163,-421.5 2095.8163,-391.5 1981.8163,-391.5"/>
<text text-anchor="start" x="1989.8163" y="-409.5" font-family="Helvetica,sans-Serif" font-size="10.00" fill="#000000">amr&#45;wind/wind_energy</text>
<text text-anchor="middle" x="2038.8163" y="-398.5" font-family="Helvetica,sans-Serif" font-size="10.00" fill="#000000">/ABLStats.H</text>
</a>
</g>
</g>
<!-- Node38&#45;&gt;Node47 -->
<g id="edge92" class="edge">
<title>Node38&#45;&gt;Node47</title>
<path fill="none" stroke="#191970" d="M1826.0763,-459.291C1868.6745,-448.7204 1926.9381,-434.2624 1971.7217,-423.1494"/>
<polygon fill="#191970" stroke="#191970" points="1972.7761,-426.494 1981.6388,-420.6885 1971.0901,-419.7 1972.7761,-426.494"/>
</g>
<!-- Node39&#45;&gt;Node15 -->
<g id="edge71" class="edge">
<title>Node39&#45;&gt;Node15</title>
<path fill="none" stroke="#191970" d="M1178.8925,-133.9306C1276.2693,-125.9187 1480.681,-108.1607 1652.8163,-87 1664.8482,-85.5209 1677.6359,-83.7662 1689.9777,-81.9784"/>
<polygon fill="#191970" stroke="#191970" points="1690.8287,-85.391 1700.2136,-80.4742 1689.8109,-78.4654 1690.8287,-85.391"/>
</g>
<!-- Node39&#45;&gt;Node17 -->
<g id="edge78" class="edge">
<title>Node39&#45;&gt;Node17</title>
<path fill="none" stroke="#191970" d="M1120.5746,-123.2436C1119.9639,-104.2386 1122.2018,-72.2891 1141.8163,-56 1199.7669,-7.874 1743.6917,-25.5387 1818.8163,-20 1836.1432,-18.7225 1855.036,-17.0351 1872.0091,-15.4109"/>
<polygon fill="#191970" stroke="#191970" points="1872.683,-18.8621 1882.2979,-14.4121 1872.0065,-11.8948 1872.683,-18.8621"/>
</g>
<!-- Node39&#45;&gt;Node22 -->
<g id="edge77" class="edge">
<title>Node39&#45;&gt;Node22</title>
<path fill="none" stroke="#191970" d="M1117.3058,-123.2622C1114.3759,-113.0565 1110.5987,-99.29 1107.8163,-87 1103.4225,-67.5922 1099.474,-45.1897 1096.8993,-29.5707"/>
<polygon fill="#191970" stroke="#191970" points="1100.3286,-28.8513 1095.2806,-19.5363 1093.4179,-29.9661 1100.3286,-28.8513"/>
</g>
<!-- Node39&#45;&gt;Node26 -->
<g id="edge76" class="edge">
<title>Node39&#45;&gt;Node26</title>
<path fill="none" stroke="#191970" d="M1138.8349,-123.2967C1150.6337,-112.7564 1166.3346,-98.7303 1178.4219,-87.9323"/>
<polygon fill="#191970" stroke="#191970" points="1180.9945,-90.3273 1186.1204,-81.055 1176.331,-85.107 1180.9945,-90.3273"/>
</g>
<!-- Node39&#45;&gt;Node37 -->
<g id="edge75" class="edge">
<title>Node39&#45;&gt;Node37</title>
<path fill="none" stroke="#191970" d="M1178.8518,-133.2167C1257.2123,-125.5025 1402.3875,-109.5766 1524.8163,-87 1530.5782,-85.9375 1536.5981,-84.6792 1542.5418,-83.346"/>
<polygon fill="#191970" stroke="#191970" points="1543.4647,-86.7249 1552.4135,-81.0532 1541.881,-79.9064 1543.4647,-86.7249"/>
</g>
<!-- Node40 -->
<g id="node38" class="node">
<title>Node40</title>
<polygon fill="#ffffff" stroke="#bfbfbf" points="471.8163,-62 471.8163,-81 561.8163,-81 561.8163,-62 471.8163,-62"/>
<text text-anchor="middle" x="516.8163" y="-69" font-family="Helvetica,sans-Serif" font-size="10.00" fill="#000000">AMReX_Array.H</text>
</g>
<!-- Node39&#45;&gt;Node40 -->
<g id="edge72" class="edge">
<title>Node39&#45;&gt;Node40</title>
<path fill="none" stroke="#191970" d="M1064.7356,-136.5631C964.3058,-132.3999 749.7781,-120.1249 571.8163,-87 566.8239,-86.0708 561.6291,-84.8934 556.5124,-83.6044"/>
<polygon fill="#191970" stroke="#191970" points="557.4071,-80.2207 546.8427,-81.0236 555.602,-86.984 557.4071,-80.2207"/>
</g>
<!-- Node41 -->
<g id="node39" class="node">
<title>Node41</title>
<polygon fill="#ffffff" stroke="#bfbfbf" points="580.3163,-62 580.3163,-81 675.3163,-81 675.3163,-62 580.3163,-62"/>
<text text-anchor="middle" x="627.8163" y="-69" font-family="Helvetica,sans-Serif" font-size="10.00" fill="#000000">AMReX_Array4.H</text>
</g>
<!-- Node39&#45;&gt;Node41 -->
<g id="edge73" class="edge">
<title>Node39&#45;&gt;Node41</title>
<path fill="none" stroke="#191970" d="M1064.4837,-134.4678C980.5687,-127.9519 819.6251,-113.1234 684.8163,-87 679.7855,-86.0251 674.5469,-84.8403 669.3734,-83.5646"/>
<polygon fill="#191970" stroke="#191970" points="670.1343,-80.1463 659.5764,-81.0307 668.3814,-86.9233 670.1343,-80.1463"/>
</g>
<!-- Node42 -->
<g id="node40" class="node">
<title>Node42</title>
<polygon fill="#ffffff" stroke="#bfbfbf" points="693.8163,-62 693.8163,-81 777.8163,-81 777.8163,-62 693.8163,-62"/>
<text text-anchor="middle" x="735.8163" y="-69" font-family="Helvetica,sans-Serif" font-size="10.00" fill="#000000">AMReX_Box.H</text>
</g>
<!-- Node39&#45;&gt;Node42 -->
<g id="edge74" class="edge">
<title>Node39&#45;&gt;Node42</title>
<path fill="none" stroke="#191970" d="M1064.8085,-131.6325C998.7343,-123.2049 886.7584,-107.4764 791.8163,-87 787.1908,-86.0024 782.3804,-84.85 777.6079,-83.6331"/>
<polygon fill="#191970" stroke="#191970" points="778.4995,-80.2486 767.9368,-81.0733 776.7084,-87.0156 778.4995,-80.2486"/>
</g>
<!-- Node43&#45;&gt;Node31 -->
<g id="edge80" class="edge">
<title>Node43&#45;&gt;Node31</title>
<path fill="none" stroke="#191970" d="M1709.7632,-324.389C1716.1426,-299.9649 1728.7133,-251.8371 1735.7466,-224.9095"/>
<polygon fill="#191970" stroke="#191970" points="1739.1669,-225.6641 1738.3077,-215.1042 1732.3941,-223.895 1739.1669,-225.6641"/>
</g>
<!-- Node43&#45;&gt;Node44 -->
<g id="edge81" class="edge">
<title>Node43&#45;&gt;Node44</title>
<path fill="none" stroke="#191970" d="M1734.3176,-324.4639C1752.2476,-315.0047 1775.5916,-302.6894 1795.0533,-292.4222"/>
<polygon fill="#191970" stroke="#191970" points="1796.7592,-295.4795 1803.9707,-287.7177 1793.4929,-289.2882 1796.7592,-295.4795"/>
</g>
<!-- Node45 -->
<g id="node43" class="node">
<title>Node45</title>
<g id="a_node43"><a xlink:href="_field_b_c_ops_8_h.html" target="_top" xlink:title="amr&#45;wind/core/FieldBCOps.H">
<polygon fill="#ffffff" stroke="#ff0000" points="1670.3163,-129 1670.3163,-148 1815.3163,-148 1815.3163,-129 1670.3163,-129"/>
<text text-anchor="middle" x="1742.8163" y="-136" font-family="Helvetica,sans-Serif" font-size="10.00" fill="#000000">amr&#45;wind/core/FieldBCOps.H</text>
</a>
</g>
</g>
<!-- Node43&#45;&gt;Node45 -->
<g id="edge86" class="edge">
<title>Node43&#45;&gt;Node45</title>
<path fill="none" stroke="#191970" d="M1697.0713,-324.2621C1682.2535,-296.278 1655.8611,-235.4064 1677.8163,-190 1685.4252,-174.2636 1700.4361,-161.8703 1714.117,-153.1884"/>
<polygon fill="#191970" stroke="#191970" points="1716.0106,-156.1347 1722.8241,-148.0213 1712.4381,-150.1148 1716.0106,-156.1347"/>
</g>
<!-- Node44&#45;&gt;Node15 -->
<g id="edge84" class="edge">
<title>Node44&#45;&gt;Node15</title>
<path fill="none" stroke="#191970" d="M1835.9537,-257.4054C1841.0162,-229.1331 1848.216,-167.0786 1824.8163,-123 1816.4429,-107.227 1800.8703,-94.8867 1786.7384,-86.2449"/>
<polygon fill="#191970" stroke="#191970" points="1788.1678,-83.0303 1777.75,-81.1012 1784.6909,-89.1058 1788.1678,-83.0303"/>
</g>
<!-- Node44&#45;&gt;Node25 -->
<g id="edge85" class="edge">
<title>Node44&#45;&gt;Node25</title>
<path fill="none" stroke="#191970" d="M1832.0945,-257.307C1830.316,-238.369 1824.2593,-206.4902 1803.8163,-190 1753.7864,-149.6438 1580.2283,-164.5128 1516.8163,-154 1509.6921,-152.8189 1502.215,-151.4413 1494.8554,-150.0038"/>
<polygon fill="#191970" stroke="#191970" points="1495.429,-146.5492 1484.9366,-148.0191 1494.0555,-153.4132 1495.429,-146.5492"/>
</g>
<!-- Node44&#45;&gt;Node30 -->
<g id="edge82" class="edge">
<title>Node44&#45;&gt;Node30</title>
<path fill="none" stroke="#191970" d="M1879.2711,-257.4639C1910.0583,-247.499 1950.6387,-234.3642 1983.2973,-223.7936"/>
<polygon fill="#191970" stroke="#191970" points="1984.7226,-227.0111 1993.1588,-220.6017 1982.5669,-220.3513 1984.7226,-227.0111"/>
</g>
<!-- Node44&#45;&gt;Node31 -->
<g id="edge83" class="edge">
<title>Node44&#45;&gt;Node31</title>
<path fill="none" stroke="#191970" d="M1811.94,-257.2967C1797.0494,-246.4524 1777.092,-231.9182 1762.1081,-221.006"/>
<polygon fill="#191970" stroke="#191970" points="1764.0806,-218.1127 1753.9365,-215.055 1759.9597,-223.7712 1764.0806,-218.1127"/>
</g>
<!-- Node45&#45;&gt;Node9 -->
<g id="edge87" class="edge">
<title>Node45&#45;&gt;Node9</title>
<path fill="none" stroke="#191970" d="M1733.1832,-128.9731C1712.0228,-108.1496 1662.5875,-60.1042 1652.8163,-56 1583.6724,-26.9574 1053.6919,-24.2414 978.8163,-20 954.3488,-18.614 927.8687,-17.0554 903.3605,-15.5884"/>
<polygon fill="#191970" stroke="#191970" points="903.5448,-12.0933 893.3531,-14.988 903.1255,-19.0807 903.5448,-12.0933"/>
</g>
<!-- Node45&#45;&gt;Node17 -->
<g id="edge88" class="edge">
<title>Node45&#45;&gt;Node17</title>
<path fill="none" stroke="#191970" d="M1815.6269,-130.9085C1899.6693,-121.3986 2028.277,-104.2478 2042.8163,-87 2051.6963,-76.4657 2050.5906,-67.3748 2042.8163,-56 2034.2611,-43.4827 2000.6787,-31.1021 1971.5167,-22.3437"/>
<polygon fill="#191970" stroke="#191970" points="1972.4192,-18.9611 1961.839,-19.5173 1970.4568,-25.6804 1972.4192,-18.9611"/>
</g>
<!-- Node45&#45;&gt;Node37 -->
<g id="edge89" class="edge">
<title>Node45&#45;&gt;Node37</title>
<path fill="none" stroke="#191970" d="M1720.7518,-128.9005C1694.4497,-117.4574 1650.3035,-98.2509 1620.3917,-85.2374"/>
<polygon fill="#191970" stroke="#191970" points="1621.4059,-81.8617 1610.8398,-81.0817 1618.6132,-88.2806 1621.4059,-81.8617"/>
</g>
<!-- Node47&#45;&gt;Node4 -->
<g id="edge93" class="edge">
<title>Node47&#45;&gt;Node4</title>
<path fill="none" stroke="#191970" d="M2096.0618,-404.4977C2167.6321,-400.5845 2293.1047,-389.0383 2394.8163,-355 2453.4793,-335.3681 2463.6708,-319.6595 2516.8163,-288 2564.0535,-259.8602 2594.4922,-269.2727 2620.8163,-221 2642.1266,-181.9214 2665.2519,-136.7293 2600.8163,-56 2580.9575,-31.1196 2545.8189,-19.6684 2519.0353,-14.4147"/>
<polygon fill="#191970" stroke="#191970" points="2519.3202,-10.9113 2508.8663,-12.6331 2518.1123,-17.8063 2519.3202,-10.9113"/>
</g>
<!-- Node47&#45;&gt;Node31 -->
<g id="edge94" class="edge">
<title>Node47&#45;&gt;Node31</title>
<path fill="none" stroke="#191970" d="M1981.6456,-395.9699C1944.5512,-387.8125 1895.8498,-374.5605 1855.8163,-355 1810.6906,-332.9514 1793.5724,-329.1771 1764.8163,-288 1751.5823,-269.0498 1745.5761,-242.8145 1742.8965,-225.0562"/>
<polygon fill="#191970" stroke="#191970" points="1746.3503,-224.473 1741.5981,-215.0037 1739.408,-225.3697 1746.3503,-224.473"/>
</g>
<!-- Node47&#45;&gt;Node43 -->
<g id="edge113" class="edge">
<title>Node47&#45;&gt;Node43</title>
<path fill="none" stroke="#191970" d="M1981.5715,-394.9823C1923.6182,-383.322 1834.0473,-365.3002 1772.8217,-352.9816"/>
<polygon fill="#191970" stroke="#191970" points="1773.3642,-349.5207 1762.8702,-350.9793 1771.9834,-356.3831 1773.3642,-349.5207"/>
</g>
<!-- Node47&#45;&gt;Node44 -->
<g id="edge95" class="edge">
<title>Node47&#45;&gt;Node44</title>
<path fill="none" stroke="#191970" d="M1981.7764,-396.597C1951.2375,-389.1032 1914.3525,-376.3249 1886.8163,-355 1867.1984,-339.8073 1852.4842,-315.3703 1843.41,-297.028"/>
<polygon fill="#191970" stroke="#191970" points="1846.4982,-295.3708 1839.0682,-287.818 1840.1665,-298.3558 1846.4982,-295.3708"/>
</g>
<!-- Node48 -->
<g id="node45" class="node">
<title>Node48</title>
<g id="a_node45"><a xlink:href="_second_moment_averaging_8_h.html" target="_top" xlink:title="amr&#45;wind/utilities\l/SecondMomentAveraging.H">
<polygon fill="#ffffff" stroke="#000000" points="2044.8163,-324.5 2044.8163,-354.5 2186.8163,-354.5 2186.8163,-324.5 2044.8163,-324.5"/>
<text text-anchor="start" x="2052.8163" y="-342.5" font-family="Helvetica,sans-Serif" font-size="10.00" fill="#000000">amr&#45;wind/utilities</text>
<text text-anchor="middle" x="2115.8163" y="-331.5" font-family="Helvetica,sans-Serif" font-size="10.00" fill="#000000">/SecondMomentAveraging.H</text>
</a>
</g>
</g>
<!-- Node47&#45;&gt;Node48 -->
<g id="edge96" class="edge">
<title>Node47&#45;&gt;Node48</title>
<path fill="none" stroke="#191970" d="M2056.2888,-391.2967C2066.429,-382.4733 2079.3767,-371.2072 2090.6053,-361.4368"/>
<polygon fill="#191970" stroke="#191970" points="2093.1664,-363.8478 2098.4129,-354.6432 2088.5715,-358.567 2093.1664,-363.8478"/>
</g>
<!-- Node49 -->
<g id="node46" class="node">
<title>Node49</title>
<g id="a_node46"><a xlink:href="_third_moment_averaging_8_h.html" target="_top" xlink:title="amr&#45;wind/utilities\l/ThirdMomentAveraging.H">
<polygon fill="#ffffff" stroke="#000000" points="1895.3163,-324.5 1895.3163,-354.5 2026.3163,-354.5 2026.3163,-324.5 1895.3163,-324.5"/>
<text text-anchor="start" x="1903.3163" y="-342.5" font-family="Helvetica,sans-Serif" font-size="10.00" fill="#000000">amr&#45;wind/utilities</text>
<text text-anchor="middle" x="1960.8163" y="-331.5" font-family="Helvetica,sans-Serif" font-size="10.00" fill="#000000">/ThirdMomentAveraging.H</text>
</a>
</g>
</g>
<!-- Node47&#45;&gt;Node49 -->
<g id="edge101" class="edge">
<title>Node47&#45;&gt;Node49</title>
<path fill="none" stroke="#191970" d="M2021.1169,-391.2967C2010.8449,-382.4733 1997.7291,-371.2072 1986.3547,-361.4368"/>
<polygon fill="#191970" stroke="#191970" points="1988.3119,-358.5041 1978.4456,-354.6432 1983.7508,-363.8141 1988.3119,-358.5041"/>
</g>
<!-- Node50 -->
<g id="node47" class="node">
<title>Node50</title>
<g id="a_node47"><a xlink:href="_post_processing_8_h.html" target="_top" xlink:title="amr&#45;wind/utilities\l/PostProcessing.H">
<polygon fill="#ffffff" stroke="#000000" points="2221.3163,-123.5 2221.3163,-153.5 2320.3163,-153.5 2320.3163,-123.5 2221.3163,-123.5"/>
<text text-anchor="start" x="2229.3163" y="-141.5" font-family="Helvetica,sans-Serif" font-size="10.00" fill="#000000">amr&#45;wind/utilities</text>
<text text-anchor="middle" x="2270.8163" y="-130.5" font-family="Helvetica,sans-Serif" font-size="10.00" fill="#000000">/PostProcessing.H</text>
</a>
</g>
</g>
<!-- Node47&#45;&gt;Node50 -->
<g id="edge106" class="edge">
<title>Node47&#45;&gt;Node50</title>
<path fill="none" stroke="#191970" d="M2095.8554,-400.3921C2159.324,-389.987 2257.2409,-362.1139 2289.8163,-288 2307.882,-246.8978 2293.1909,-193.7244 2281.5406,-163.1312"/>
<polygon fill="#191970" stroke="#191970" points="2284.7208,-161.6573 2277.7579,-153.6718 2278.2212,-164.2565 2284.7208,-161.6573"/>
</g>
<!-- Node51 -->
<g id="node48" class="node">
<title>Node51</title>
<g id="a_node48"><a xlink:href="_sampler_base_8_h.html" target="_top" xlink:title="amr&#45;wind/utilities\l/sampling/SamplerBase.H">
<polygon fill="#ffffff" stroke="#ff0000" points="2149.3163,-257.5 2149.3163,-287.5 2280.3163,-287.5 2280.3163,-257.5 2149.3163,-257.5"/>
<text text-anchor="start" x="2157.3163" y="-275.5" font-family="Helvetica,sans-Serif" font-size="10.00" fill="#000000">amr&#45;wind/utilities</text>
<text text-anchor="middle" x="2214.8163" y="-264.5" font-family="Helvetica,sans-Serif" font-size="10.00" fill="#000000">/sampling/SamplerBase.H</text>
</a>
</g>
</g>
<!-- Node47&#45;&gt;Node51 -->
<g id="edge109" class="edge">
<title>Node47&#45;&gt;Node51</title>
<path fill="none" stroke="#191970" d="M2095.9066,-394.0066C2134.9484,-384.3396 2182.0333,-370.0921 2195.8163,-355 2209.9182,-339.5587 2214.214,-315.7983 2215.2478,-297.7354"/>
<polygon fill="#191970" stroke="#191970" points="2218.75,-297.7011 2215.5289,-287.6078 2211.7527,-297.5069 2218.75,-297.7011"/>
</g>
<!-- Node56 -->
<g id="node49" class="node">
<title>Node56</title>
<g id="a_node49"><a xlink:href="_sampling_container_8_h.html" target="_top" xlink:title="amr&#45;wind/utilities\l/sampling/SamplingContainer.H">
<polygon fill="#ffffff" stroke="#ff0000" points="2456.3163,-190.5 2456.3163,-220.5 2611.3163,-220.5 2611.3163,-190.5 2456.3163,-190.5"/>
<text text-anchor="start" x="2464.3163" y="-208.5" font-family="Helvetica,sans-Serif" font-size="10.00" fill="#000000">amr&#45;wind/utilities</text>
<text text-anchor="middle" x="2533.8163" y="-197.5" font-family="Helvetica,sans-Serif" font-size="10.00" fill="#000000">/sampling/SamplingContainer.H</text>
</a>
</g>
</g>
<!-- Node47&#45;&gt;Node56 -->
<g id="edge111" class="edge">
<title>Node47&#45;&gt;Node56</title>
<path fill="none" stroke="#191970" d="M2095.8829,-399.5378C2153.7762,-391.6889 2245.6077,-377.0692 2322.8163,-355 2400.5034,-332.794 2432.0768,-342.4022 2491.8163,-288 2508.8821,-272.4589 2520.0182,-248.3911 2526.5068,-230.2543"/>
<polygon fill="#191970" stroke="#191970" points="2529.8745,-231.2194 2529.7208,-220.6256 2523.2346,-229.003 2529.8745,-231.2194"/>
</g>
<!-- Node48&#45;&gt;Node15 -->
<g id="edge99" class="edge">
<title>Node48&#45;&gt;Node15</title>
<path fill="none" stroke="#191970" d="M2119.4131,-324.3057C2125.4436,-294.7518 2133.9968,-229.013 2101.8163,-190 2065.5714,-146.0596 2032.8799,-171.9322 1978.8163,-154 1911.2921,-131.6031 1833.6336,-101.7951 1790.3846,-84.8246"/>
<polygon fill="#191970" stroke="#191970" points="1791.5125,-81.5073 1780.9255,-81.1022 1788.9491,-88.0211 1791.5125,-81.5073"/>
</g>
<!-- Node48&#45;&gt;Node24 -->
<g id="edge97" class="edge">
<title>Node48&#45;&gt;Node24</title>
<path fill="none" stroke="#191970" d="M2187.1115,-326.5455C2219.8895,-318.5933 2258.3784,-306.321 2289.8163,-288 2381.0637,-234.824 2382.7137,-194.0898 2460.8163,-123 2474.0503,-110.9542 2489.3645,-97.8223 2501.2086,-87.8338"/>
<polygon fill="#191970" stroke="#191970" points="2503.7308,-90.2864 2509.1404,-81.1767 2499.2306,-84.9246 2503.7308,-90.2864"/>
</g>
<!-- Node48&#45;&gt;Node30 -->
<g id="edge98" class="edge">
<title>Node48&#45;&gt;Node30</title>
<path fill="none" stroke="#191970" d="M2107.2458,-324.389C2094.1889,-301.3676 2069.1878,-257.2866 2053.5699,-229.7499"/>
<polygon fill="#191970" stroke="#191970" points="2056.4499,-227.7331 2048.472,-220.7614 2050.361,-231.1865 2056.4499,-227.7331"/>
</g>
<!-- Node48&#45;&gt;Node44 -->
<g id="edge100" class="edge">
<title>Node48&#45;&gt;Node44</title>
<path fill="none" stroke="#191970" d="M2052.3055,-324.4639C2007.821,-313.9322 1948.3813,-299.8599 1902.5776,-289.0159"/>
<polygon fill="#191970" stroke="#191970" points="1903.2639,-285.5817 1892.7265,-286.6837 1901.6512,-292.3934 1903.2639,-285.5817"/>
</g>
<!-- Node49&#45;&gt;Node15 -->
<g id="edge104" class="edge">
<title>Node49&#45;&gt;Node15</title>
<path fill="none" stroke="#191970" d="M1955.8694,-324.3857C1942.8444,-286.4918 1904.3798,-185.9745 1843.8163,-123 1828.5205,-107.0953 1807.2662,-94.3917 1789.5946,-85.5808"/>
<polygon fill="#191970" stroke="#191970" points="1790.7378,-82.2479 1780.2063,-81.0908 1787.7176,-88.5628 1790.7378,-82.2479"/>
</g>
<!-- Node49&#45;&gt;Node24 -->
<g id="edge102" class="edge">
<title>Node49&#45;&gt;Node24</title>
<path fill="none" stroke="#191970" d="M1957.1735,-324.1373C1950.9651,-293.6887 1942.2894,-225.5598 1978.8163,-190 2040.5452,-129.9054 2282.2568,-178.6122 2364.8163,-154 2371.6574,-151.9606 2451.244,-109.1513 2494.0121,-86.0253"/>
<polygon fill="#191970" stroke="#191970" points="2495.9072,-88.9794 2503.0366,-81.1421 2492.5759,-82.8229 2495.9072,-88.9794"/>
</g>
<!-- Node49&#45;&gt;Node30 -->
<g id="edge103" class="edge">
<title>Node49&#45;&gt;Node30</title>
<path fill="none" stroke="#191970" d="M1969.725,-324.389C1983.3566,-301.267 2009.5126,-256.9012 2025.7318,-229.3901"/>
<polygon fill="#191970" stroke="#191970" points="2028.7552,-231.1533 2030.8189,-220.7614 2022.7252,-227.5983 2028.7552,-231.1533"/>
</g>
<!-- Node49&#45;&gt;Node44 -->
<g id="edge105" class="edge">
<title>Node49&#45;&gt;Node44</title>
<path fill="none" stroke="#191970" d="M1932.0906,-324.4639C1914.0194,-315.0047 1890.4915,-302.6894 1870.8766,-292.4222"/>
<polygon fill="#191970" stroke="#191970" points="1872.3718,-289.2544 1861.889,-287.7177 1869.1255,-295.4562 1872.3718,-289.2544"/>
</g>
<!-- Node50&#45;&gt;Node3 -->
<g id="edge108" class="edge">
<title>Node50&#45;&gt;Node3</title>
<path fill="none" stroke="#191970" d="M2288.5157,-123.2967C2300.9044,-112.6551 2317.4298,-98.4602 2330.0477,-87.6217"/>
<polygon fill="#191970" stroke="#191970" points="2332.3874,-90.2259 2337.6926,-81.055 2327.8263,-84.9159 2332.3874,-90.2259"/>
</g>
<!-- Node50&#45;&gt;Node4 -->
<g id="edge107" class="edge">
<title>Node50&#45;&gt;Node4</title>
<path fill="none" stroke="#191970" d="M2320.6078,-124.6516C2357.5692,-113.7752 2404.3061,-98.5838 2420.8163,-87 2442.9841,-71.4467 2461.3781,-45.8157 2472.2294,-28.4376"/>
<polygon fill="#191970" stroke="#191970" points="2475.3009,-30.1216 2477.4579,-19.7486 2469.303,-26.5124 2475.3009,-30.1216"/>
</g>
<!-- Node51&#45;&gt;Node3 -->
<g id="edge110" class="edge">
<title>Node51&#45;&gt;Node3</title>
<path fill="none" stroke="#191970" d="M2209.3401,-257.2837C2199.941,-228.2611 2184.3474,-164.2222 2212.8163,-123 2223.165,-108.0154 2265.037,-93.5651 2299.6185,-83.8053"/>
<polygon fill="#191970" stroke="#191970" points="2300.8959,-87.084 2309.6089,-81.0562 2299.0386,-80.3348 2300.8959,-87.084"/>
</g>
<!-- Node56&#45;&gt;Node4 -->
<g id="edge112" class="edge">
<title>Node56&#45;&gt;Node4</title>
<path fill="none" stroke="#191970" d="M2546.7772,-190.4198C2569.3996,-162.1716 2611.108,-100.1556 2582.8163,-56 2568.78,-34.0932 2541.3893,-22.477 2518.8187,-16.4019"/>
<polygon fill="#191970" stroke="#191970" points="2519.3963,-12.9406 2508.8529,-13.9835 2517.7455,-19.7431 2519.3963,-12.9406"/>
</g>
</g>
</svg>
