<?xml version="1.0" encoding="UTF-8" standalone="no"?>
<!DOCTYPE svg PUBLIC "-//W3C//DTD SVG 1.1//EN"
 "http://www.w3.org/Graphics/SVG/1.1/DTD/svg11.dtd">
<!-- Generated by graphviz version 2.40.1 (20161225.0304)
 -->
<!-- Title: BCInterface.H Pages: 1 -->
<svg width="892pt" height="140pt"
 viewBox="0.00 0.00 891.50 140.00" xmlns="http://www.w3.org/2000/svg" xmlns:xlink="http://www.w3.org/1999/xlink">
<g id="graph0" class="graph" transform="scale(1 1) rotate(0) translate(4 136)">
<title>BCInterface.H</title>
<polygon fill="#ffffff" stroke="transparent" points="-4,4 -4,-136 887.5,-136 887.5,4 -4,4"/>
<!-- Node0 -->
<g id="node1" class="node">
<title>Node0</title>
<polygon fill="#bfbfbf" stroke="#000000" points="613.5,-112.5 613.5,-131.5 693.5,-131.5 693.5,-112.5 613.5,-112.5"/>
<text text-anchor="middle" x="653.5" y="-119.5" font-family="Helvetica,sans-Serif" font-size="10.00" fill="#000000">BCInterface.H</text>
</g>
<!-- Node1 -->
<g id="node2" class="node">
<title>Node1</title>
<g id="a_node2"><a xlink:href="_field_8_h.html" target="_top" xlink:title="amr&#45;wind/core/Field.H">
<polygon fill="#ffffff" stroke="#000000" points="347,-56.5 347,-75.5 460,-75.5 460,-56.5 347,-56.5"/>
<text text-anchor="middle" x="403.5" y="-63.5" font-family="Helvetica,sans-Serif" font-size="10.00" fill="#000000">amr&#45;wind/core/Field.H</text>
</a>
</g>
</g>
<!-- Node0&#45;&gt;Node1 -->
<g id="edge1" class="edge">
<title>Node0&#45;&gt;Node1</title>
<path fill="none" stroke="#191970" d="M613.3332,-113.0026C570.6412,-103.4396 502.952,-88.2772 456.0482,-77.7708"/>
<polygon fill="#191970" stroke="#191970" points="456.6005,-74.3079 446.0773,-75.5373 455.0704,-81.1386 456.6005,-74.3079"/>
</g>
<!-- Node8 -->
<g id="node9" class="node">
<title>Node8</title>
<g id="a_node9"><a xlink:href="incflo__enums_8_h.html" target="_top" xlink:title="amr&#45;wind/incflo_enums.H">
<polygon fill="#ffffff" stroke="#000000" points="755.5,-.5 755.5,-19.5 883.5,-19.5 883.5,-.5 755.5,-.5"/>
<text text-anchor="middle" x="819.5" y="-7.5" font-family="Helvetica,sans-Serif" font-size="10.00" fill="#000000">amr&#45;wind/incflo_enums.H</text>
</a>
</g>
</g>
<!-- Node0&#45;&gt;Node8 -->
<g id="edge10" class="edge">
<title>Node0&#45;&gt;Node8</title>
<path fill="none" stroke="#191970" d="M653.7344,-112.0544C654.614,-97.7271 658.345,-71.3225 673.5,-56 686.4398,-42.9173 728.1021,-30.5281 763.6263,-21.9105"/>
<polygon fill="#191970" stroke="#191970" points="764.5303,-25.2933 773.4542,-19.5824 762.9167,-18.4818 764.5303,-25.2933"/>
</g>
<!-- Node10 -->
<g id="node11" class="node">
<title>Node10</title>
<polygon fill="#ffffff" stroke="#bfbfbf" points="682,-56.5 682,-75.5 801,-75.5 801,-56.5 682,-56.5"/>
<text text-anchor="middle" x="741.5" y="-63.5" font-family="Helvetica,sans-Serif" font-size="10.00" fill="#000000">AMReX_BC_TYPES.H</text>
</g>
<!-- Node0&#45;&gt;Node10 -->
<g id="edge11" class="edge">
<title>Node0&#45;&gt;Node10</title>
<path fill="none" stroke="#191970" d="M668.8284,-112.2455C682.3303,-103.6534 702.2122,-91.0014 717.7686,-81.1018"/>
<polygon fill="#191970" stroke="#191970" points="719.7897,-83.9643 726.3472,-75.6427 716.0315,-78.0587 719.7897,-83.9643"/>
</g>
<!-- Node2 -->
<g id="node3" class="node">
<title>Node2</title>
<polygon fill="#ffffff" stroke="#bfbfbf" points="0,-.5 0,-19.5 41,-19.5 41,-.5 0,-.5"/>
<text text-anchor="middle" x="20.5" y="-7.5" font-family="Helvetica,sans-Serif" font-size="10.00" fill="#000000">string</text>
</g>
<!-- Node1&#45;&gt;Node2 -->
<g id="edge2" class="edge">
<title>Node1&#45;&gt;Node2</title>
<path fill="none" stroke="#191970" d="M346.9683,-61.9999C278.8192,-56.4324 160.8219,-44.4131 50.9343,-19.6876"/>
<polygon fill="#191970" stroke="#191970" points="51.5375,-16.2352 41.0084,-17.414 49.9745,-23.0585 51.5375,-16.2352"/>
</g>
<!-- Node3 -->
<g id="node4" class="node">
<title>Node3</title>
<polygon fill="#ffffff" stroke="#bfbfbf" points="59.5,-.5 59.5,-19.5 111.5,-19.5 111.5,-.5 59.5,-.5"/>
<text text-anchor="middle" x="85.5" y="-7.5" font-family="Helvetica,sans-Serif" font-size="10.00" fill="#000000">memory</text>
</g>
<!-- Node1&#45;&gt;Node3 -->
<g id="edge3" class="edge">
<title>Node1&#45;&gt;Node3</title>
<path fill="none" stroke="#191970" d="M346.7486,-58.7684C291.5293,-51.2839 205.1196,-38.3881 121.6832,-20.0697"/>
<polygon fill="#191970" stroke="#191970" points="122.31,-16.6237 111.7886,-17.8684 120.7898,-23.4566 122.31,-16.6237"/>
</g>
<!-- Node4 -->
<g id="node5" class="node">
<title>Node4</title>
<polygon fill="#ffffff" stroke="#bfbfbf" points="130,-.5 130,-19.5 213,-19.5 213,-.5 130,-.5"/>
<text text-anchor="middle" x="171.5" y="-7.5" font-family="Helvetica,sans-Serif" font-size="10.00" fill="#000000">unordered_map</text>
</g>
<!-- Node1&#45;&gt;Node4 -->
<g id="edge4" class="edge">
<title>Node1&#45;&gt;Node4</title>
<path fill="none" stroke="#191970" d="M363.8814,-56.4369C324.3432,-46.8932 263.4931,-32.2052 220.8418,-21.9101"/>
<polygon fill="#191970" stroke="#191970" points="221.4973,-18.4679 210.9552,-19.5237 219.8548,-25.2724 221.4973,-18.4679"/>
</g>
<!-- Node5 -->
<g id="node6" class="node">
<title>Node5</title>
<polygon fill="#ffffff" stroke="#bfbfbf" points="231.5,-.5 231.5,-19.5 335.5,-19.5 335.5,-.5 231.5,-.5"/>
<text text-anchor="middle" x="283.5" y="-7.5" font-family="Helvetica,sans-Serif" font-size="10.00" fill="#000000">AMReX_MultiFab.H</text>
</g>
<!-- Node1&#45;&gt;Node5 -->
<g id="edge5" class="edge">
<title>Node1&#45;&gt;Node5</title>
<path fill="none" stroke="#191970" d="M382.8713,-56.3733C363.6081,-47.3838 334.6514,-33.8706 312.9581,-23.7471"/>
<polygon fill="#191970" stroke="#191970" points="314.4015,-20.5584 303.8595,-19.5011 311.4413,-26.9017 314.4015,-20.5584"/>
</g>
<!-- Node6 -->
<g id="node7" class="node">
<title>Node6</title>
<polygon fill="#ffffff" stroke="#bfbfbf" points="354,-.5 354,-19.5 453,-19.5 453,-.5 354,-.5"/>
<text text-anchor="middle" x="403.5" y="-7.5" font-family="Helvetica,sans-Serif" font-size="10.00" fill="#000000">AMReX_BCRec.H</text>
</g>
<!-- Node1&#45;&gt;Node6 -->
<g id="edge6" class="edge">
<title>Node1&#45;&gt;Node6</title>
<path fill="none" stroke="#191970" d="M403.5,-56.2455C403.5,-48.9382 403.5,-38.6944 403.5,-29.7046"/>
<polygon fill="#191970" stroke="#191970" points="407.0001,-29.6426 403.5,-19.6427 400.0001,-29.6427 407.0001,-29.6426"/>
</g>
<!-- Node7 -->
<g id="node8" class="node">
<title>Node7</title>
<polygon fill="#ffffff" stroke="#bfbfbf" points="471,-.5 471,-19.5 556,-19.5 556,-.5 471,-.5"/>
<text text-anchor="middle" x="513.5" y="-7.5" font-family="Helvetica,sans-Serif" font-size="10.00" fill="#000000">AMReX_Gpu.H</text>
</g>
<!-- Node1&#45;&gt;Node7 -->
<g id="edge7" class="edge">
<title>Node1&#45;&gt;Node7</title>
<path fill="none" stroke="#191970" d="M422.6605,-56.2455C440.0111,-47.4125 465.7901,-34.2887 485.4583,-24.2758"/>
<polygon fill="#191970" stroke="#191970" points="487.2353,-27.2986 494.559,-19.6427 484.0595,-21.0605 487.2353,-27.2986"/>
</g>
<!-- Node1&#45;&gt;Node8 -->
<g id="edge8" class="edge">
<title>Node1&#45;&gt;Node8</title>
<path fill="none" stroke="#191970" d="M460.2537,-58.4386C526.2232,-49.6382 638.6672,-34.6036 745.4269,-20.1427"/>
<polygon fill="#191970" stroke="#191970" points="745.9679,-23.6015 755.4073,-18.7902 745.0279,-16.6649 745.9679,-23.6015"/>
</g>
<!-- Node9 -->
<g id="node10" class="node">
<title>Node9</title>
<g id="a_node10"><a xlink:href="_field_desc_types_8_h.html" target="_top" xlink:title="amr&#45;wind/core/FieldDescTypes.H">
<polygon fill="#ffffff" stroke="#000000" points="574,-.5 574,-19.5 737,-19.5 737,-.5 574,-.5"/>
<text text-anchor="middle" x="655.5" y="-7.5" font-family="Helvetica,sans-Serif" font-size="10.00" fill="#000000">amr&#45;wind/core/FieldDescTypes.H</text>
</a>
</g>
</g>
<!-- Node1&#45;&gt;Node9 -->
<g id="edge9" class="edge">
<title>Node1&#45;&gt;Node9</title>
<path fill="none" stroke="#191970" d="M446.534,-56.4369C489.7525,-46.8328 556.4141,-32.0191 602.7818,-21.7152"/>
<polygon fill="#191970" stroke="#191970" points="603.6409,-25.1097 612.6435,-19.5237 602.1223,-18.2764 603.6409,-25.1097"/>
</g>
</g>
</svg>
