<?xml version="1.0" encoding="UTF-8" standalone="no"?>
<!DOCTYPE svg PUBLIC "-//W3C//DTD SVG 1.1//EN"
 "http://www.w3.org/Graphics/SVG/1.1/DTD/svg11.dtd">
<!-- Generated by graphviz version 2.40.1 (20161225.0304)
 -->
<!-- Title: BodyForce.cpp Pages: 1 -->
<!--zoomable 352 -->
<svg id="main" version="1.1" xmlns="http://www.w3.org/2000/svg" xmlns:xlink="http://www.w3.org/1999/xlink" xml:space="preserve" onload="init(evt)">
<style type="text/css"><![CDATA[
.edge:hover path { stroke: red; }
.edge:hover polygon { stroke: red; fill: red; }
]]></style>
<script type="text/javascript"><![CDATA[
var edges = document.getElementsByTagName('g');
if (edges && edges.length) {
  for (var i=0;i<edges.length;i++) {
    if (edges[i].id.substr(0,4)=='edge') {
      edges[i].setAttribute('class','edge');
    }
  }
}
]]></script>
        <defs>
                <circle id="rim" cx="0" cy="0" r="7"/>
                <circle id="rim2" cx="0" cy="0" r="3.5"/>
                <g id="zoomPlus">
                        <use xlink:href="#rim" fill="#404040">
                                <set attributeName="fill" to="#808080" begin="zoomplus.mouseover" end="zoomplus.mouseout"/>
                        </use>
                        <path d="M-4,0h8M0,-4v8" fill="none" stroke="white" stroke-width="1.5" pointer-events="none"/>
                </g>
                <g id="zoomMin">
                        <use xlink:href="#rim" fill="#404040">
                                <set attributeName="fill" to="#808080" begin="zoomminus.mouseover" end="zoomminus.mouseout"/>
                        </use>
                        <path d="M-4,0h8" fill="none" stroke="white" stroke-width="1.5" pointer-events="none"/>
                </g>
                <g id="dirArrow">
                        <path fill="none" stroke="white" stroke-width="1.5" d="M0,-3.0v7 M-2.5,-0.5L0,-3.0L2.5,-0.5"/>
                </g>
               <g id="resetDef">
                       <use xlink:href="#rim2" fill="#404040">
                               <set attributeName="fill" to="#808080" begin="reset.mouseover" end="reset.mouseout"/>
                       </use>
               </g>
        </defs>

<script type="text/javascript">
var viewWidth = 2227;
var viewHeight = 352;
var sectionId = 'dynsection-0';
</script>
<script xlink:href="svgpan.js"/>
<svg id="graph" class="graph">
<g id="viewport">
<title>BodyForce.cpp</title>
<polygon fill="#ffffff" stroke="transparent" points="-4,4 -4,-348 2223.0692,-348 2223.0692,4 -4,4"/>
<!-- Node0 -->
<g id="node1" class="node">
<title>Node0</title>
<polygon fill="#bfbfbf" stroke="#000000" points="1298.5692,-324.5 1298.5692,-343.5 1381.5692,-343.5 1381.5692,-324.5 1298.5692,-324.5"/>
<text text-anchor="middle" x="1340.0692" y="-331.5" font-family="Helvetica,sans-Serif" font-size="10.00" fill="#000000">BodyForce.cpp</text>
</g>
<!-- Node1 -->
<g id="node2" class="node">
<title>Node1</title>
<g id="a_node2"><a xlink:href="_body_force_8_h.html" target="_top" xlink:title="amr&#45;wind/equation_systems\l/icns/source_terms/BodyForce.H">
<polygon fill="#ffffff" stroke="#000000" points="1053.5692,-257.5 1053.5692,-287.5 1214.5692,-287.5 1214.5692,-257.5 1053.5692,-257.5"/>
<text text-anchor="start" x="1061.5692" y="-275.5" font-family="Helvetica,sans-Serif" font-size="10.00" fill="#000000">amr&#45;wind/equation_systems</text>
<text text-anchor="middle" x="1134.0692" y="-264.5" font-family="Helvetica,sans-Serif" font-size="10.00" fill="#000000">/icns/source_terms/BodyForce.H</text>
</a>
</g>
</g>
<!-- Node0&#45;&gt;Node1 -->
<g id="edge1" class="edge">
<title>Node0&#45;&gt;Node1</title>
<path fill="none" stroke="#191970" d="M1307.8817,-324.3906C1277.5498,-315.3352 1231.3381,-301.539 1194.1872,-290.4479"/>
<polygon fill="#191970" stroke="#191970" points="1195.0459,-287.0516 1184.4625,-287.5446 1193.0433,-293.7591 1195.0459,-287.0516"/>
</g>
<!-- Node17 -->
<g id="node18" class="node">
<title>Node17</title>
<polygon fill="#ffffff" stroke="#bfbfbf" points="1651.5692,-.5 1651.5692,-19.5 1736.5692,-19.5 1736.5692,-.5 1651.5692,-.5"/>
<text text-anchor="middle" x="1694.0692" y="-7.5" font-family="Helvetica,sans-Serif" font-size="10.00" fill="#000000">AMReX_Gpu.H</text>
</g>
<!-- Node0&#45;&gt;Node17 -->
<g id="edge69" class="edge">
<title>Node0&#45;&gt;Node17</title>
<path fill="none" stroke="#191970" d="M1381.6919,-331.1677C1537.1765,-320.0409 2075.0692,-276.4229 2075.0692,-205.5 2075.0692,-205.5 2075.0692,-205.5 2075.0692,-138.5 2075.0692,-100.7713 2083.3224,-81.0043 2055.0692,-56 2005.4237,-12.0632 1829.6585,-28.9767 1746.7086,-19.774"/>
<polygon fill="#191970" stroke="#191970" points="1746.963,-16.2774 1736.5918,-18.4431 1746.0499,-23.2176 1746.963,-16.2774"/>
</g>
<!-- Node27 -->
<g id="node28" class="node">
<title>Node27</title>
<g id="a_node28"><a xlink:href="_c_f_d_sim_8_h.html" target="_top" xlink:title="amr&#45;wind/CFDSim.H">
<polygon fill="#ffffff" stroke="#000000" points="1162.0692,-196 1162.0692,-215 1270.0692,-215 1270.0692,-196 1162.0692,-196"/>
<text text-anchor="middle" x="1216.0692" y="-203" font-family="Helvetica,sans-Serif" font-size="10.00" fill="#000000">amr&#45;wind/CFDSim.H</text>
</a>
</g>
</g>
<!-- Node0&#45;&gt;Node27 -->
<g id="edge44" class="edge">
<title>Node0&#45;&gt;Node27</title>
<path fill="none" stroke="#191970" d="M1327.5634,-324.3046C1316.2869,-315.3435 1299.4669,-301.4239 1286.0692,-288 1265.052,-266.9416 1243.2456,-240.3599 1229.6721,-223.1509"/>
<polygon fill="#191970" stroke="#191970" points="1232.2861,-220.8116 1223.3723,-215.0849 1226.7694,-225.1204 1232.2861,-220.8116"/>
</g>
<!-- Node35 -->
<g id="node36" class="node">
<title>Node35</title>
<g id="a_node36"><a xlink:href="trig__ops_8_h.html" target="_top" xlink:title="Trigonometric utilities. ">
<polygon fill="#ffffff" stroke="#000000" points="1295.0692,-257.5 1295.0692,-287.5 1385.0692,-287.5 1385.0692,-257.5 1295.0692,-257.5"/>
<text text-anchor="start" x="1303.0692" y="-275.5" font-family="Helvetica,sans-Serif" font-size="10.00" fill="#000000">amr&#45;wind/utilities</text>
<text text-anchor="middle" x="1340.0692" y="-264.5" font-family="Helvetica,sans-Serif" font-size="10.00" fill="#000000">/trig_ops.H</text>
</a>
</g>
</g>
<!-- Node0&#45;&gt;Node35 -->
<g id="edge65" class="edge">
<title>Node0&#45;&gt;Node35</title>
<path fill="none" stroke="#191970" d="M1340.0692,-324.3906C1340.0692,-317.2234 1340.0692,-307.0862 1340.0692,-297.671"/>
<polygon fill="#191970" stroke="#191970" points="1343.5693,-297.5446 1340.0692,-287.5446 1336.5693,-297.5446 1343.5693,-297.5446"/>
</g>
<!-- Node37 -->
<g id="node38" class="node">
<title>Node37</title>
<polygon fill="#ffffff" stroke="#bfbfbf" points="2103.0692,-263 2103.0692,-282 2219.0692,-282 2219.0692,-263 2103.0692,-263"/>
<text text-anchor="middle" x="2161.0692" y="-270" font-family="Helvetica,sans-Serif" font-size="10.00" fill="#000000">AMReX_ParmParse.H</text>
</g>
<!-- Node0&#45;&gt;Node37 -->
<g id="edge68" class="edge">
<title>Node0&#45;&gt;Node37</title>
<path fill="none" stroke="#191970" d="M1381.6964,-333.6389C1495.5121,-332.1789 1821.2603,-324.8365 2089.0692,-288 2096.5557,-286.9703 2104.4229,-285.5898 2112.0961,-284.0756"/>
<polygon fill="#191970" stroke="#191970" points="2112.9375,-287.4758 2122.0232,-282.026 2111.522,-280.6203 2112.9375,-287.4758"/>
</g>
<!-- Node2 -->
<g id="node3" class="node">
<title>Node2</title>
<g id="a_node3"><a xlink:href="_momentum_source_8_h.html" target="_top" xlink:title="amr&#45;wind/equation_systems\l/icns/MomentumSource.H">
<polygon fill="#ffffff" stroke="#000000" points="265.5692,-190.5 265.5692,-220.5 404.5692,-220.5 404.5692,-190.5 265.5692,-190.5"/>
<text text-anchor="start" x="273.5692" y="-208.5" font-family="Helvetica,sans-Serif" font-size="10.00" fill="#000000">amr&#45;wind/equation_systems</text>
<text text-anchor="middle" x="335.0692" y="-197.5" font-family="Helvetica,sans-Serif" font-size="10.00" fill="#000000">/icns/MomentumSource.H</text>
</a>
</g>
</g>
<!-- Node1&#45;&gt;Node2 -->
<g id="edge2" class="edge">
<title>Node1&#45;&gt;Node2</title>
<path fill="none" stroke="#191970" d="M1053.4302,-265.738C900.0451,-252.8759 567.9582,-225.0289 415.0702,-212.2085"/>
<polygon fill="#191970" stroke="#191970" points="415.0772,-208.6969 404.8196,-211.3489 414.4922,-215.6724 415.0772,-208.6969"/>
</g>
<!-- Node23 -->
<g id="node24" class="node">
<title>Node23</title>
<g id="a_node24"><a xlink:href="_sim_time_8_h.html" target="_top" xlink:title="amr&#45;wind/core/SimTime.H">
<polygon fill="#ffffff" stroke="#000000" points="1090.5692,-129 1090.5692,-148 1221.5692,-148 1221.5692,-129 1090.5692,-129"/>
<text text-anchor="middle" x="1156.0692" y="-136" font-family="Helvetica,sans-Serif" font-size="10.00" fill="#000000">amr&#45;wind/core/SimTime.H</text>
</a>
</g>
</g>
<!-- Node1&#45;&gt;Node23 -->
<g id="edge40" class="edge">
<title>Node1&#45;&gt;Node23</title>
<path fill="none" stroke="#191970" d="M1136.5501,-257.389C1140.5422,-233.0735 1148.3915,-185.2644 1152.8235,-158.2698"/>
<polygon fill="#191970" stroke="#191970" points="1156.326,-158.5391 1154.4924,-148.1042 1149.4185,-157.405 1156.326,-158.5391"/>
</g>
<!-- Node3 -->
<g id="node4" class="node">
<title>Node3</title>
<g id="a_node4"><a xlink:href="_factory_8_h.html" target="_top" xlink:title="amr&#45;wind/core/Factory.H">
<polygon fill="#ffffff" stroke="#000000" points="1764.5692,-62 1764.5692,-81 1889.5692,-81 1889.5692,-62 1764.5692,-62"/>
<text text-anchor="middle" x="1827.0692" y="-69" font-family="Helvetica,sans-Serif" font-size="10.00" fill="#000000">amr&#45;wind/core/Factory.H</text>
</a>
</g>
</g>
<!-- Node2&#45;&gt;Node3 -->
<g id="edge3" class="edge">
<title>Node2&#45;&gt;Node3</title>
<path fill="none" stroke="#191970" d="M404.7904,-204.6265C661.9338,-201.1563 1548.6187,-186.9016 1671.0692,-154 1722.5974,-140.1547 1776.2125,-106.9672 1805.2287,-87.1611"/>
<polygon fill="#191970" stroke="#191970" points="1807.5343,-89.8212 1813.7514,-81.2422 1803.5413,-84.0717 1807.5343,-89.8212"/>
</g>
<!-- Node9 -->
<g id="node10" class="node">
<title>Node9</title>
<g id="a_node10"><a xlink:href="_field_desc_types_8_h.html" target="_top" xlink:title="amr&#45;wind/core/FieldDescTypes.H">
<polygon fill="#ffffff" stroke="#000000" points="276.5692,-.5 276.5692,-19.5 439.5692,-19.5 439.5692,-.5 276.5692,-.5"/>
<text text-anchor="middle" x="358.0692" y="-7.5" font-family="Helvetica,sans-Serif" font-size="10.00" fill="#000000">amr&#45;wind/core/FieldDescTypes.H</text>
</a>
</g>
</g>
<!-- Node2&#45;&gt;Node9 -->
<g id="edge9" class="edge">
<title>Node2&#45;&gt;Node9</title>
<path fill="none" stroke="#191970" d="M317.849,-190.497C288.3079,-162.8947 233.8448,-102.6209 263.0692,-56 272.7511,-40.5548 289.2531,-30.1672 305.813,-23.2389"/>
<polygon fill="#191970" stroke="#191970" points="307.4163,-26.3737 315.5187,-19.5472 304.9277,-19.831 307.4163,-26.3737"/>
</g>
<!-- Node10 -->
<g id="node11" class="node">
<title>Node10</title>
<g id="a_node11"><a xlink:href="_field_utils_8_h.html" target="_top" xlink:title="amr&#45;wind/core/FieldUtils.H">
<polygon fill="#ffffff" stroke="#000000" points="15.5692,-62 15.5692,-81 148.5692,-81 148.5692,-62 15.5692,-62"/>
<text text-anchor="middle" x="82.0692" y="-69" font-family="Helvetica,sans-Serif" font-size="10.00" fill="#000000">amr&#45;wind/core/FieldUtils.H</text>
</a>
</g>
</g>
<!-- Node2&#45;&gt;Node10 -->
<g id="edge10" class="edge">
<title>Node2&#45;&gt;Node10</title>
<path fill="none" stroke="#191970" d="M287.6607,-190.3974C261.4617,-181.288 228.7175,-168.6254 201.0692,-154 164.0253,-134.4045 124.7653,-105.3462 101.8836,-87.4584"/>
<polygon fill="#191970" stroke="#191970" points="103.9706,-84.6468 93.9546,-81.1927 99.6305,-90.1389 103.9706,-84.6468"/>
</g>
<!-- Node11 -->
<g id="node12" class="node">
<title>Node11</title>
<polygon fill="#ffffff" stroke="#bfbfbf" points="154.0692,-.5 154.0692,-19.5 258.0692,-19.5 258.0692,-.5 154.0692,-.5"/>
<text text-anchor="middle" x="206.0692" y="-7.5" font-family="Helvetica,sans-Serif" font-size="10.00" fill="#000000">AMReX_MultiFab.H</text>
</g>
<!-- Node2&#45;&gt;Node11 -->
<g id="edge39" class="edge">
<title>Node2&#45;&gt;Node11</title>
<path fill="none" stroke="#191970" d="M265.3022,-190.7829C177.4758,-170.6075 34.5895,-131.726 6.0692,-87 -1.3385,-75.3831 -2.5121,-66.7791 6.0692,-56 14.8042,-45.028 88.4492,-30.1518 143.8556,-20.3243"/>
<polygon fill="#191970" stroke="#191970" points="144.7244,-23.7255 153.9692,-18.5502 143.5148,-16.8308 144.7244,-23.7255"/>
</g>
<!-- Node13 -->
<g id="node14" class="node">
<title>Node13</title>
<g id="a_node14"><a xlink:href="_field_repo_8_h.html" target="_top" xlink:title="amr&#45;wind/core/FieldRepo.H">
<polygon fill="#ffffff" stroke="#000000" points="432.0692,-129 432.0692,-148 568.0692,-148 568.0692,-129 432.0692,-129"/>
<text text-anchor="middle" x="500.0692" y="-136" font-family="Helvetica,sans-Serif" font-size="10.00" fill="#000000">amr&#45;wind/core/FieldRepo.H</text>
</a>
</g>
</g>
<!-- Node2&#45;&gt;Node13 -->
<g id="edge14" class="edge">
<title>Node2&#45;&gt;Node13</title>
<path fill="none" stroke="#191970" d="M372.0985,-190.4639C400.5316,-178.9183 439.4438,-163.1176 466.8727,-151.9798"/>
<polygon fill="#191970" stroke="#191970" points="468.4693,-155.1091 476.4178,-148.1039 465.8357,-148.6234 468.4693,-155.1091"/>
</g>
<!-- Node4 -->
<g id="node5" class="node">
<title>Node4</title>
<polygon fill="#ffffff" stroke="#bfbfbf" points="1468.0692,-.5 1468.0692,-19.5 1520.0692,-19.5 1520.0692,-.5 1468.0692,-.5"/>
<text text-anchor="middle" x="1494.0692" y="-7.5" font-family="Helvetica,sans-Serif" font-size="10.00" fill="#000000">memory</text>
</g>
<!-- Node3&#45;&gt;Node4 -->
<g id="edge4" class="edge">
<title>Node3&#45;&gt;Node4</title>
<path fill="none" stroke="#191970" d="M1784.5054,-61.9384C1774.8472,-59.8798 1764.6211,-57.7876 1755.0692,-56 1658.2183,-37.875 1630.1116,-41.7387 1530.2486,-20.057"/>
<polygon fill="#191970" stroke="#191970" points="1530.8746,-16.6111 1520.3558,-17.8774 1529.3685,-23.4471 1530.8746,-16.6111"/>
</g>
<!-- Node5 -->
<g id="node6" class="node">
<title>Node5</title>
<polygon fill="#ffffff" stroke="#bfbfbf" points="1270.5692,-.5 1270.5692,-19.5 1353.5692,-19.5 1353.5692,-.5 1270.5692,-.5"/>
<text text-anchor="middle" x="1312.0692" y="-7.5" font-family="Helvetica,sans-Serif" font-size="10.00" fill="#000000">unordered_map</text>
</g>
<!-- Node3&#45;&gt;Node5 -->
<g id="edge5" class="edge">
<title>Node3&#45;&gt;Node5</title>
<path fill="none" stroke="#191970" d="M1786.4714,-61.9543C1776.2614,-59.7763 1765.2976,-57.6271 1755.0692,-56 1614.4657,-33.6334 1446.9515,-19.6446 1363.9717,-13.5527"/>
<polygon fill="#191970" stroke="#191970" points="1364.0244,-10.0474 1353.7973,-12.8144 1363.5177,-17.0291 1364.0244,-10.0474"/>
</g>
<!-- Node6 -->
<g id="node7" class="node">
<title>Node6</title>
<polygon fill="#ffffff" stroke="#bfbfbf" points="1755.0692,-.5 1755.0692,-19.5 1809.0692,-19.5 1809.0692,-.5 1755.0692,-.5"/>
<text text-anchor="middle" x="1782.0692" y="-7.5" font-family="Helvetica,sans-Serif" font-size="10.00" fill="#000000">iostream</text>
</g>
<!-- Node3&#45;&gt;Node6 -->
<g id="edge6" class="edge">
<title>Node3&#45;&gt;Node6</title>
<path fill="none" stroke="#191970" d="M1820.038,-61.8906C1813.4063,-52.8273 1803.2996,-39.0149 1795.1805,-27.9188"/>
<polygon fill="#191970" stroke="#191970" points="1797.9294,-25.7484 1789.1996,-19.7449 1792.2801,-29.882 1797.9294,-25.7484"/>
</g>
<!-- Node7 -->
<g id="node8" class="node">
<title>Node7</title>
<polygon fill="#ffffff" stroke="#bfbfbf" points="1827.5692,-.5 1827.5692,-19.5 1914.5692,-19.5 1914.5692,-.5 1827.5692,-.5"/>
<text text-anchor="middle" x="1871.0692" y="-7.5" font-family="Helvetica,sans-Serif" font-size="10.00" fill="#000000">AMReX_Print.H</text>
</g>
<!-- Node3&#45;&gt;Node7 -->
<g id="edge7" class="edge">
<title>Node3&#45;&gt;Node7</title>
<path fill="none" stroke="#191970" d="M1833.9442,-61.8906C1840.4286,-52.8273 1850.3106,-39.0149 1858.2493,-27.9188"/>
<polygon fill="#191970" stroke="#191970" points="1861.1251,-29.9143 1864.0973,-19.7449 1855.4321,-25.8412 1861.1251,-29.9143"/>
</g>
<!-- Node8 -->
<g id="node9" class="node">
<title>Node8</title>
<polygon fill="#ffffff" stroke="#bfbfbf" points="1933.0692,-.5 1933.0692,-19.5 1995.0692,-19.5 1995.0692,-.5 1933.0692,-.5"/>
<text text-anchor="middle" x="1964.0692" y="-7.5" font-family="Helvetica,sans-Serif" font-size="10.00" fill="#000000">AMReX.H</text>
</g>
<!-- Node3&#45;&gt;Node8 -->
<g id="edge8" class="edge">
<title>Node3&#45;&gt;Node8</title>
<path fill="none" stroke="#191970" d="M1848.4755,-61.8906C1871.2976,-51.6457 1907.6372,-35.3326 1933.475,-23.7339"/>
<polygon fill="#191970" stroke="#191970" points="1935.1237,-26.8303 1942.8133,-19.5419 1932.257,-20.4443 1935.1237,-26.8303"/>
</g>
<!-- Node10&#45;&gt;Node9 -->
<g id="edge11" class="edge">
<title>Node10&#45;&gt;Node9</title>
<path fill="none" stroke="#191970" d="M124.8914,-61.9581C173.5392,-51.1181 252.9542,-33.4224 305.3651,-21.7439"/>
<polygon fill="#191970" stroke="#191970" points="306.1472,-25.1555 315.1466,-19.5643 304.6247,-18.3231 306.1472,-25.1555"/>
</g>
<!-- Node10&#45;&gt;Node11 -->
<g id="edge12" class="edge">
<title>Node10&#45;&gt;Node11</title>
<path fill="none" stroke="#191970" d="M101.4442,-61.8906C121.9187,-51.7359 154.4134,-35.6196 177.7577,-24.0416"/>
<polygon fill="#191970" stroke="#191970" points="179.4267,-27.1207 186.8303,-19.5419 176.3165,-20.8496 179.4267,-27.1207"/>
</g>
<!-- Node12 -->
<g id="node13" class="node">
<title>Node12</title>
<polygon fill="#ffffff" stroke="#bfbfbf" points="20.0692,-.5 20.0692,-19.5 136.0692,-19.5 136.0692,-.5 20.0692,-.5"/>
<text text-anchor="middle" x="78.0692" y="-7.5" font-family="Helvetica,sans-Serif" font-size="10.00" fill="#000000">AMReX_Interpolater.H</text>
</g>
<!-- Node10&#45;&gt;Node12 -->
<g id="edge13" class="edge">
<title>Node10&#45;&gt;Node12</title>
<path fill="none" stroke="#191970" d="M81.4442,-61.8906C80.8898,-53.3657 80.062,-40.6392 79.3651,-29.9235"/>
<polygon fill="#191970" stroke="#191970" points="82.8448,-29.4966 78.703,-19.7449 75.8596,-29.951 82.8448,-29.4966"/>
</g>
<!-- Node13&#45;&gt;Node5 -->
<g id="edge16" class="edge">
<title>Node13&#45;&gt;Node5</title>
<path fill="none" stroke="#191970" d="M568.1786,-130.0903C639.8095,-120.5589 747.2813,-104.1108 785.0692,-87 805.2398,-77.8665 803.5297,-64.2704 824.0692,-56 902.2618,-24.5152 1151.6803,-14.2125 1260.4865,-11.1629"/>
<polygon fill="#191970" stroke="#191970" points="1260.6651,-14.6595 1270.5667,-10.89 1260.4755,-7.662 1260.6651,-14.6595"/>
</g>
<!-- Node13&#45;&gt;Node9 -->
<g id="edge17" class="edge">
<title>Node13&#45;&gt;Node9</title>
<path fill="none" stroke="#191970" d="M431.9256,-132.3826C372.1742,-125.4403 291.8323,-111.725 272.0692,-87 263.4668,-76.2378 264.9878,-67.8186 272.0692,-56 281.078,-40.9649 296.8627,-30.5677 312.4705,-23.5159"/>
<polygon fill="#191970" stroke="#191970" points="314.1916,-26.5923 322.1036,-19.546 311.5243,-20.1203 314.1916,-26.5923"/>
</g>
<!-- Node13&#45;&gt;Node10 -->
<g id="edge18" class="edge">
<title>Node13&#45;&gt;Node10</title>
<path fill="none" stroke="#191970" d="M432.8127,-128.9782C364.7051,-119.1582 256.3963,-103.0547 163.0692,-87 155.7109,-85.7342 147.9893,-84.3409 140.3577,-82.9246"/>
<polygon fill="#191970" stroke="#191970" points="140.8893,-79.4633 130.4152,-81.0582 139.5978,-86.3431 140.8893,-79.4633"/>
</g>
<!-- Node13&#45;&gt;Node11 -->
<g id="edge37" class="edge">
<title>Node13&#45;&gt;Node11</title>
<path fill="none" stroke="#191970" d="M431.8825,-129.1366C372.1009,-119.9536 290.5642,-104.7698 263.0692,-87 240.8964,-72.6699 224.306,-46.5076 214.8997,-28.6952"/>
<polygon fill="#191970" stroke="#191970" points="217.9268,-26.9237 210.3133,-19.5558 211.6704,-30.0633 217.9268,-26.9237"/>
</g>
<!-- Node14 -->
<g id="node15" class="node">
<title>Node14</title>
<polygon fill="#ffffff" stroke="#bfbfbf" points="614.5692,-.5 614.5692,-19.5 655.5692,-19.5 655.5692,-.5 614.5692,-.5"/>
<text text-anchor="middle" x="635.0692" y="-7.5" font-family="Helvetica,sans-Serif" font-size="10.00" fill="#000000">string</text>
</g>
<!-- Node13&#45;&gt;Node14 -->
<g id="edge15" class="edge">
<title>Node13&#45;&gt;Node14</title>
<path fill="none" stroke="#191970" d="M544.4834,-128.9635C568.9548,-121.493 597.9548,-108.618 616.0692,-87 629.4337,-71.0507 633.6406,-47.0983 634.8445,-30.1499"/>
<polygon fill="#191970" stroke="#191970" points="638.3595,-29.8554 635.2738,-19.7199 631.3654,-29.5675 638.3595,-29.8554"/>
</g>
<!-- Node15 -->
<g id="node16" class="node">
<title>Node15</title>
<g id="a_node16"><a xlink:href="_field_8_h.html" target="_top" xlink:title="amr&#45;wind/core/Field.H">
<polygon fill="#ffffff" stroke="#000000" points="663.5692,-62 663.5692,-81 776.5692,-81 776.5692,-62 663.5692,-62"/>
<text text-anchor="middle" x="720.0692" y="-69" font-family="Helvetica,sans-Serif" font-size="10.00" fill="#000000">amr&#45;wind/core/Field.H</text>
</a>
</g>
</g>
<!-- Node13&#45;&gt;Node15 -->
<g id="edge19" class="edge">
<title>Node13&#45;&gt;Node15</title>
<path fill="none" stroke="#191970" d="M531.5899,-128.9005C570.3079,-117.1091 636.0928,-97.0746 678.8052,-84.0668"/>
<polygon fill="#191970" stroke="#191970" points="680.0605,-87.3433 688.6071,-81.0817 678.0212,-80.6469 680.0605,-87.3433"/>
</g>
<!-- Node19 -->
<g id="node20" class="node">
<title>Node19</title>
<g id="a_node20"><a xlink:href="_int_field_8_h.html" target="_top" xlink:title="amr&#45;wind/core/IntField.H">
<polygon fill="#ffffff" stroke="#000000" points="483.0692,-62 483.0692,-81 607.0692,-81 607.0692,-62 483.0692,-62"/>
<text text-anchor="middle" x="545.0692" y="-69" font-family="Helvetica,sans-Serif" font-size="10.00" fill="#000000">amr&#45;wind/core/IntField.H</text>
</a>
</g>
</g>
<!-- Node13&#45;&gt;Node19 -->
<g id="edge28" class="edge">
<title>Node13&#45;&gt;Node19</title>
<path fill="none" stroke="#191970" d="M506.5166,-128.9005C513.4003,-118.6515 524.4668,-102.1747 532.9813,-89.4976"/>
<polygon fill="#191970" stroke="#191970" points="535.9637,-91.3345 538.6338,-81.0817 530.1527,-87.4316 535.9637,-91.3345"/>
</g>
<!-- Node20 -->
<g id="node21" class="node">
<title>Node20</title>
<polygon fill="#ffffff" stroke="#bfbfbf" points="475.5692,-.5 475.5692,-19.5 582.5692,-19.5 582.5692,-.5 475.5692,-.5"/>
<text text-anchor="middle" x="529.0692" y="-7.5" font-family="Helvetica,sans-Serif" font-size="10.00" fill="#000000">AMReX_iMultiFab.H</text>
</g>
<!-- Node13&#45;&gt;Node20 -->
<g id="edge38" class="edge">
<title>Node13&#45;&gt;Node20</title>
<path fill="none" stroke="#191970" d="M492.2802,-128.5338C480.9208,-112.7011 462.3713,-81.0337 474.0692,-56 480.0155,-43.2749 491.405,-32.8307 502.2842,-25.129"/>
<polygon fill="#191970" stroke="#191970" points="504.3462,-27.9622 510.7859,-19.5491 500.5053,-22.1101 504.3462,-27.9622"/>
</g>
<!-- Node21 -->
<g id="node22" class="node">
<title>Node21</title>
<g id="a_node22"><a xlink:href="_scratch_field_8_h.html" target="_top" xlink:title="amr&#45;wind/core/ScratchField.H">
<polygon fill="#ffffff" stroke="#000000" points="281.0692,-62 281.0692,-81 427.0692,-81 427.0692,-62 281.0692,-62"/>
<text text-anchor="middle" x="354.0692" y="-69" font-family="Helvetica,sans-Serif" font-size="10.00" fill="#000000">amr&#45;wind/core/ScratchField.H</text>
</a>
</g>
</g>
<!-- Node13&#45;&gt;Node21 -->
<g id="edge32" class="edge">
<title>Node13&#45;&gt;Node21</title>
<path fill="none" stroke="#191970" d="M479.151,-128.9005C454.3237,-117.5072 412.7259,-98.4178 384.3751,-85.4075"/>
<polygon fill="#191970" stroke="#191970" points="385.4972,-82.0715 374.9487,-81.0817 382.5775,-88.4336 385.4972,-82.0715"/>
</g>
<!-- Node22 -->
<g id="node23" class="node">
<title>Node22</title>
<polygon fill="#ffffff" stroke="#bfbfbf" points="833.0692,-62 833.0692,-81 939.0692,-81 939.0692,-62 833.0692,-62"/>
<text text-anchor="middle" x="886.0692" y="-69" font-family="Helvetica,sans-Serif" font-size="10.00" fill="#000000">AMReX_AmrCore.H</text>
</g>
<!-- Node13&#45;&gt;Node22 -->
<g id="edge36" class="edge">
<title>Node13&#45;&gt;Node22</title>
<path fill="none" stroke="#191970" d="M567.5152,-128.9577C632.242,-119.4827 732.6409,-103.9539 819.0692,-87 824.8485,-85.8663 830.8881,-84.5941 836.8733,-83.2787"/>
<polygon fill="#191970" stroke="#191970" points="837.8485,-86.6469 846.8388,-81.0412 836.315,-79.817 837.8485,-86.6469"/>
</g>
<!-- Node15&#45;&gt;Node4 -->
<g id="edge21" class="edge">
<title>Node15&#45;&gt;Node4</title>
<path fill="none" stroke="#191970" d="M776.6364,-62.2177C791.9938,-59.9305 808.6419,-57.663 824.0692,-56 1062.3347,-30.3157 1123.0308,-37.0517 1362.0692,-20 1394.4495,-17.6902 1431.2833,-14.8849 1457.7983,-12.8341"/>
<polygon fill="#191970" stroke="#191970" points="1458.0779,-16.323 1467.7774,-12.0602 1457.5367,-9.344 1458.0779,-16.323"/>
</g>
<!-- Node15&#45;&gt;Node5 -->
<g id="edge22" class="edge">
<title>Node15&#45;&gt;Node5</title>
<path fill="none" stroke="#191970" d="M759.3361,-61.9967C769.6146,-59.7654 780.7173,-57.5804 791.0692,-56 961.7295,-29.9452 1166.2621,-17.219 1260.2269,-12.3946"/>
<polygon fill="#191970" stroke="#191970" points="1260.5098,-15.8849 1270.3206,-11.8851 1260.1568,-8.8938 1260.5098,-15.8849"/>
</g>
<!-- Node15&#45;&gt;Node9 -->
<g id="edge27" class="edge">
<title>Node15&#45;&gt;Node9</title>
<path fill="none" stroke="#191970" d="M663.9039,-61.9581C599.2074,-50.9668 493.0227,-32.9272 424.3389,-21.2585"/>
<polygon fill="#191970" stroke="#191970" points="424.5134,-17.7381 414.0685,-19.5137 423.341,-24.6392 424.5134,-17.7381"/>
</g>
<!-- Node15&#45;&gt;Node11 -->
<g id="edge23" class="edge">
<title>Node15&#45;&gt;Node11</title>
<path fill="none" stroke="#191970" d="M663.4587,-62.5887C648.1014,-60.3008 631.4642,-57.9402 616.0692,-56 464.6828,-36.9208 423.3937,-40.4562 268.6418,-20.1428"/>
<polygon fill="#191970" stroke="#191970" points="268.6553,-16.6141 258.2821,-18.7699 267.7356,-23.5534 268.6553,-16.6141"/>
</g>
<!-- Node15&#45;&gt;Node14 -->
<g id="edge20" class="edge">
<title>Node15&#45;&gt;Node14</title>
<path fill="none" stroke="#191970" d="M706.788,-61.8906C693.3145,-52.1421 672.2473,-36.8994 656.4257,-25.4521"/>
<polygon fill="#191970" stroke="#191970" points="658.4107,-22.5682 648.2572,-19.5419 654.3073,-28.2394 658.4107,-22.5682"/>
</g>
<!-- Node16 -->
<g id="node17" class="node">
<title>Node16</title>
<polygon fill="#ffffff" stroke="#bfbfbf" points="673.5692,-.5 673.5692,-19.5 772.5692,-19.5 772.5692,-.5 673.5692,-.5"/>
<text text-anchor="middle" x="723.0692" y="-7.5" font-family="Helvetica,sans-Serif" font-size="10.00" fill="#000000">AMReX_BCRec.H</text>
</g>
<!-- Node15&#45;&gt;Node16 -->
<g id="edge24" class="edge">
<title>Node15&#45;&gt;Node16</title>
<path fill="none" stroke="#191970" d="M720.538,-61.8906C720.9538,-53.3657 721.5746,-40.6392 722.0974,-29.9235"/>
<polygon fill="#191970" stroke="#191970" points="725.6024,-29.9035 722.5939,-19.7449 718.6107,-29.5624 725.6024,-29.9035"/>
</g>
<!-- Node15&#45;&gt;Node17 -->
<g id="edge25" class="edge">
<title>Node15&#45;&gt;Node17</title>
<path fill="none" stroke="#191970" d="M776.6123,-61.9818C791.9698,-59.695 808.6239,-57.4868 824.0692,-56 1183.0302,-21.446 1278.9227,-61.7339 1641.3204,-19.9028"/>
<polygon fill="#191970" stroke="#191970" points="1641.7708,-23.3741 1651.2976,-18.7383 1640.9592,-16.4213 1641.7708,-23.3741"/>
</g>
<!-- Node18 -->
<g id="node19" class="node">
<title>Node18</title>
<g id="a_node19"><a xlink:href="incflo__enums_8_h.html" target="_top" xlink:title="amr&#45;wind/incflo_enums.H">
<polygon fill="#ffffff" stroke="#000000" points="932.0692,-.5 932.0692,-19.5 1060.0692,-19.5 1060.0692,-.5 932.0692,-.5"/>
<text text-anchor="middle" x="996.0692" y="-7.5" font-family="Helvetica,sans-Serif" font-size="10.00" fill="#000000">amr&#45;wind/incflo_enums.H</text>
</a>
</g>
</g>
<!-- Node15&#45;&gt;Node18 -->
<g id="edge26" class="edge">
<title>Node15&#45;&gt;Node18</title>
<path fill="none" stroke="#191970" d="M762.8914,-61.9581C811.5392,-51.1181 890.9542,-33.4224 943.3651,-21.7439"/>
<polygon fill="#191970" stroke="#191970" points="944.1472,-25.1555 953.1466,-19.5643 942.6247,-18.3231 944.1472,-25.1555"/>
</g>
<!-- Node19&#45;&gt;Node9 -->
<g id="edge30" class="edge">
<title>Node19&#45;&gt;Node9</title>
<path fill="none" stroke="#191970" d="M515.8505,-61.8906C483.7386,-51.3298 432.0202,-34.3208 396.6085,-22.6747"/>
<polygon fill="#191970" stroke="#191970" points="397.6757,-19.3413 387.0828,-19.5419 395.4888,-25.9909 397.6757,-19.3413"/>
</g>
<!-- Node19&#45;&gt;Node14 -->
<g id="edge29" class="edge">
<title>Node19&#45;&gt;Node14</title>
<path fill="none" stroke="#191970" d="M559.1317,-61.8906C573.3978,-52.1421 595.7043,-36.8994 612.4565,-25.4521"/>
<polygon fill="#191970" stroke="#191970" points="614.8237,-28.0736 621.1055,-19.5419 610.8743,-22.2941 614.8237,-28.0736"/>
</g>
<!-- Node19&#45;&gt;Node20 -->
<g id="edge31" class="edge">
<title>Node19&#45;&gt;Node20</title>
<path fill="none" stroke="#191970" d="M542.5692,-61.8906C540.328,-53.276 536.9706,-40.3708 534.1647,-29.5858"/>
<polygon fill="#191970" stroke="#191970" points="537.5096,-28.5414 531.6045,-19.7449 530.7351,-30.304 537.5096,-28.5414"/>
</g>
<!-- Node21&#45;&gt;Node9 -->
<g id="edge34" class="edge">
<title>Node21&#45;&gt;Node9</title>
<path fill="none" stroke="#191970" d="M354.6942,-61.8906C355.2487,-53.3657 356.0764,-40.6392 356.7734,-29.9235"/>
<polygon fill="#191970" stroke="#191970" points="360.2789,-29.951 357.4354,-19.7449 353.2937,-29.4966 360.2789,-29.951"/>
</g>
<!-- Node21&#45;&gt;Node11 -->
<g id="edge35" class="edge">
<title>Node21&#45;&gt;Node11</title>
<path fill="none" stroke="#191970" d="M330.9442,-61.8906C306.0725,-51.5554 266.3395,-35.0447 238.3849,-23.4284"/>
<polygon fill="#191970" stroke="#191970" points="239.6094,-20.1472 229.0318,-19.5419 236.9232,-26.6113 239.6094,-20.1472"/>
</g>
<!-- Node21&#45;&gt;Node14 -->
<g id="edge33" class="edge">
<title>Node21&#45;&gt;Node14</title>
<path fill="none" stroke="#191970" d="M398.6513,-61.9445C446.3089,-51.6988 524.0715,-34.8923 591.0692,-20 595.3707,-19.0439 599.9062,-18.0251 604.3652,-17.0174"/>
<polygon fill="#191970" stroke="#191970" points="605.5072,-20.3473 614.4845,-14.7209 603.9579,-13.5209 605.5072,-20.3473"/>
</g>
<!-- Node24 -->
<g id="node25" class="node">
<title>Node24</title>
<polygon fill="#ffffff" stroke="#bfbfbf" points="1229.5692,-62 1229.5692,-81 1322.5692,-81 1322.5692,-62 1229.5692,-62"/>
<text text-anchor="middle" x="1276.0692" y="-69" font-family="Helvetica,sans-Serif" font-size="10.00" fill="#000000">AMReX_REAL.H</text>
</g>
<!-- Node23&#45;&gt;Node24 -->
<g id="edge41" class="edge">
<title>Node23&#45;&gt;Node24</title>
<path fill="none" stroke="#191970" d="M1173.2623,-128.9005C1193.3119,-117.7062 1226.6681,-99.0823 1249.9294,-86.0947"/>
<polygon fill="#191970" stroke="#191970" points="1251.883,-89.0126 1258.9081,-81.0817 1248.4705,-82.9007 1251.883,-89.0126"/>
</g>
<!-- Node25 -->
<g id="node26" class="node">
<title>Node25</title>
<polygon fill="#ffffff" stroke="#bfbfbf" points="957.0692,-62 957.0692,-81 1083.0692,-81 1083.0692,-62 957.0692,-62"/>
<text text-anchor="middle" x="1020.0692" y="-69" font-family="Helvetica,sans-Serif" font-size="10.00" fill="#000000">AMReX_GpuQualifiers.H</text>
</g>
<!-- Node23&#45;&gt;Node25 -->
<g id="edge42" class="edge">
<title>Node23&#45;&gt;Node25</title>
<path fill="none" stroke="#191970" d="M1136.5837,-128.9005C1113.5579,-117.5569 1075.0464,-98.5844 1048.646,-85.5783"/>
<polygon fill="#191970" stroke="#191970" points="1050.0359,-82.3613 1039.5186,-81.0817 1046.9423,-88.6407 1050.0359,-82.3613"/>
</g>
<!-- Node26 -->
<g id="node27" class="node">
<title>Node26</title>
<polygon fill="#ffffff" stroke="#bfbfbf" points="1101.0692,-62 1101.0692,-81 1211.0692,-81 1211.0692,-62 1101.0692,-62"/>
<text text-anchor="middle" x="1156.0692" y="-69" font-family="Helvetica,sans-Serif" font-size="10.00" fill="#000000">AMReX_Extension.H</text>
</g>
<!-- Node23&#45;&gt;Node26 -->
<g id="edge43" class="edge">
<title>Node23&#45;&gt;Node26</title>
<path fill="none" stroke="#191970" d="M1156.0692,-128.9005C1156.0692,-119.149 1156.0692,-103.7597 1156.0692,-91.3695"/>
<polygon fill="#191970" stroke="#191970" points="1159.5693,-91.0816 1156.0692,-81.0817 1152.5693,-91.0817 1159.5693,-91.0816"/>
</g>
<!-- Node27&#45;&gt;Node13 -->
<g id="edge47" class="edge">
<title>Node27&#45;&gt;Node13</title>
<path fill="none" stroke="#191970" d="M1161.9594,-200.4366C1036.3697,-188.6845 724.6757,-159.5176 578.3193,-145.8223"/>
<polygon fill="#191970" stroke="#191970" points="578.3549,-142.3104 568.0722,-144.8634 577.7026,-149.28 578.3549,-142.3104"/>
</g>
<!-- Node27&#45;&gt;Node22 -->
<g id="edge45" class="edge">
<title>Node27&#45;&gt;Node22</title>
<path fill="none" stroke="#191970" d="M1190.3335,-195.9948C1163.0906,-185.8601 1118.889,-169.2084 1081.0692,-154 1022.994,-130.6462 955.9008,-101.8588 917.4819,-85.1991"/>
<polygon fill="#191970" stroke="#191970" points="918.4628,-81.8093 907.8962,-81.036 915.6742,-88.23 918.4628,-81.8093"/>
</g>
<!-- Node27&#45;&gt;Node23 -->
<g id="edge46" class="edge">
<title>Node27&#45;&gt;Node23</title>
<path fill="none" stroke="#191970" d="M1207.4727,-195.9005C1198.1162,-185.4525 1182.964,-168.5325 1171.5291,-155.7635"/>
<polygon fill="#191970" stroke="#191970" points="1173.9284,-153.1963 1164.6498,-148.0817 1168.7137,-157.8661 1173.9284,-153.1963"/>
</g>
<!-- Node28 -->
<g id="node29" class="node">
<title>Node28</title>
<g id="a_node29"><a xlink:href="_p_d_e_base_8_h.html" target="_top" xlink:title="amr&#45;wind/equation_systems\l/PDEBase.H">
<polygon fill="#ffffff" stroke="#000000" points="1523.5692,-123.5 1523.5692,-153.5 1662.5692,-153.5 1662.5692,-123.5 1523.5692,-123.5"/>
<text text-anchor="start" x="1531.5692" y="-141.5" font-family="Helvetica,sans-Serif" font-size="10.00" fill="#000000">amr&#45;wind/equation_systems</text>
<text text-anchor="middle" x="1593.0692" y="-130.5" font-family="Helvetica,sans-Serif" font-size="10.00" fill="#000000">/PDEBase.H</text>
</a>
</g>
</g>
<!-- Node27&#45;&gt;Node28 -->
<g id="edge48" class="edge">
<title>Node27&#45;&gt;Node28</title>
<path fill="none" stroke="#191970" d="M1269.7866,-195.9698C1328.0013,-185.6395 1423.6297,-168.6638 1506.0692,-154 1508.427,-153.5806 1510.8207,-153.1547 1513.2372,-152.7247"/>
<polygon fill="#191970" stroke="#191970" points="1514.0342,-156.138 1523.2661,-150.9397 1512.8075,-149.2463 1514.0342,-156.138"/>
</g>
<!-- Node33 -->
<g id="node34" class="node">
<title>Node33</title>
<g id="a_node34"><a xlink:href="_physics_8_h.html" target="_top" xlink:title="amr&#45;wind/core/Physics.H">
<polygon fill="#ffffff" stroke="#000000" points="1370.5692,-129 1370.5692,-148 1497.5692,-148 1497.5692,-129 1370.5692,-129"/>
<text text-anchor="middle" x="1434.0692" y="-136" font-family="Helvetica,sans-Serif" font-size="10.00" fill="#000000">amr&#45;wind/core/Physics.H</text>
</a>
</g>
</g>
<!-- Node27&#45;&gt;Node33 -->
<g id="edge60" class="edge">
<title>Node27&#45;&gt;Node33</title>
<path fill="none" stroke="#191970" d="M1247.3033,-195.9005C1285.6693,-184.1091 1350.8562,-164.0746 1393.1803,-151.0668"/>
<polygon fill="#191970" stroke="#191970" points="1394.3626,-154.3651 1402.8931,-148.0817 1392.3061,-147.6739 1394.3626,-154.3651"/>
</g>
<!-- Node28&#45;&gt;Node3 -->
<g id="edge50" class="edge">
<title>Node28&#45;&gt;Node3</title>
<path fill="none" stroke="#191970" d="M1645.5834,-123.4639C1687.2684,-111.5284 1744.8354,-95.0456 1783.8743,-83.8678"/>
<polygon fill="#191970" stroke="#191970" points="1785.2214,-87.1228 1793.8717,-81.0053 1783.2945,-80.3932 1785.2214,-87.1228"/>
</g>
<!-- Node28&#45;&gt;Node9 -->
<g id="edge58" class="edge">
<title>Node28&#45;&gt;Node9</title>
<path fill="none" stroke="#191970" d="M1574.3724,-123.4669C1561.9372,-113.3477 1545.3304,-99.6005 1531.0692,-87 1515.9892,-73.676 1516.6465,-63.7345 1498.0692,-56 1392.1465,-11.9 580.5737,-27.2923 466.0692,-20 460.7252,-19.6597 455.2358,-19.2715 449.6992,-18.8505"/>
<polygon fill="#191970" stroke="#191970" points="449.9484,-15.3593 439.7036,-18.0601 449.3966,-22.3375 449.9484,-15.3593"/>
</g>
<!-- Node28&#45;&gt;Node14 -->
<g id="edge49" class="edge">
<title>Node28&#45;&gt;Node14</title>
<path fill="none" stroke="#191970" d="M1586.7117,-123.3298C1577.605,-103.7834 1558.8234,-70.5874 1531.0692,-56 1448.1403,-12.4131 797.2334,-36.4457 665.9131,-19.5357"/>
<polygon fill="#191970" stroke="#191970" points="666.2028,-16.0386 655.7818,-17.9502 665.1203,-22.9544 666.2028,-16.0386"/>
</g>
<!-- Node28&#45;&gt;Node18 -->
<g id="edge59" class="edge">
<title>Node28&#45;&gt;Node18</title>
<path fill="none" stroke="#191970" d="M1593.4445,-123.2485C1592.9999,-104.2487 1589.0716,-72.3047 1569.0692,-56 1550.0229,-40.4746 1221.0572,-21.6076 1070.3706,-13.7326"/>
<polygon fill="#191970" stroke="#191970" points="1070.4402,-10.2316 1060.2719,-13.2074 1070.0765,-17.2221 1070.4402,-10.2316"/>
</g>
<!-- Node29 -->
<g id="node30" class="node">
<title>Node29</title>
<g id="a_node30"><a xlink:href="_coll_mgr_8_h.html" target="_top" xlink:title="amr&#45;wind/core/CollMgr.H">
<polygon fill="#ffffff" stroke="#000000" points="1621.5692,-62 1621.5692,-81 1746.5692,-81 1746.5692,-62 1621.5692,-62"/>
<text text-anchor="middle" x="1684.0692" y="-69" font-family="Helvetica,sans-Serif" font-size="10.00" fill="#000000">amr&#45;wind/core/CollMgr.H</text>
</a>
</g>
</g>
<!-- Node28&#45;&gt;Node29 -->
<g id="edge51" class="edge">
<title>Node28&#45;&gt;Node29</title>
<path fill="none" stroke="#191970" d="M1613.7185,-123.2967C1628.4474,-112.4524 1648.1878,-97.9182 1663.0088,-87.006"/>
<polygon fill="#191970" stroke="#191970" points="1665.1139,-89.8025 1671.0916,-81.055 1660.9636,-84.1655 1665.1139,-89.8025"/>
</g>
<!-- Node31 -->
<g id="node32" class="node">
<title>Node31</title>
<g id="a_node32"><a xlink:href="_p_d_e_fields_8_h.html" target="_top" xlink:title="amr&#45;wind/equation_systems\l/PDEFields.H">
<polygon fill="#ffffff" stroke="#000000" points="1907.5692,-56.5 1907.5692,-86.5 2046.5692,-86.5 2046.5692,-56.5 1907.5692,-56.5"/>
<text text-anchor="start" x="1915.5692" y="-74.5" font-family="Helvetica,sans-Serif" font-size="10.00" fill="#000000">amr&#45;wind/equation_systems</text>
<text text-anchor="middle" x="1977.0692" y="-63.5" font-family="Helvetica,sans-Serif" font-size="10.00" fill="#000000">/PDEFields.H</text>
</a>
</g>
</g>
<!-- Node28&#45;&gt;Node31 -->
<g id="edge56" class="edge">
<title>Node28&#45;&gt;Node31</title>
<path fill="none" stroke="#191970" d="M1662.8141,-127.2624C1722.3969,-117.5384 1810.66,-102.8425 1897.2939,-87.1153"/>
<polygon fill="#191970" stroke="#191970" points="1898.0904,-90.5279 1907.3013,-85.2926 1896.836,-83.6412 1898.0904,-90.5279"/>
</g>
<!-- Node29&#45;&gt;Node4 -->
<g id="edge53" class="edge">
<title>Node29&#45;&gt;Node4</title>
<path fill="none" stroke="#191970" d="M1654.3817,-61.8906C1620.7052,-50.9901 1565.8057,-33.22 1529.8077,-21.568"/>
<polygon fill="#191970" stroke="#191970" points="1530.7808,-18.2042 1520.1889,-18.4545 1528.6251,-24.864 1530.7808,-18.2042"/>
</g>
<!-- Node29&#45;&gt;Node5 -->
<g id="edge54" class="edge">
<title>Node29&#45;&gt;Node5</title>
<path fill="none" stroke="#191970" d="M1638.5304,-61.9885C1628.2025,-59.9274 1617.2714,-57.8214 1607.0692,-56 1522.1071,-40.832 1422.8723,-25.9356 1363.8717,-17.3738"/>
<polygon fill="#191970" stroke="#191970" points="1364.0893,-13.869 1353.6912,-15.9015 1363.0873,-20.7969 1364.0893,-13.869"/>
</g>
<!-- Node29&#45;&gt;Node14 -->
<g id="edge52" class="edge">
<title>Node29&#45;&gt;Node14</title>
<path fill="none" stroke="#191970" d="M1621.5194,-61.9802C1604.5376,-59.6935 1586.1286,-57.4856 1569.0692,-56 1171.3755,-21.3665 1061.4926,-93.1955 665.7781,-19.8277"/>
<polygon fill="#191970" stroke="#191970" points="666.2545,-16.3561 655.781,-17.9547 664.9654,-23.2364 666.2545,-16.3561"/>
</g>
<!-- Node30 -->
<g id="node31" class="node">
<title>Node30</title>
<polygon fill="#ffffff" stroke="#bfbfbf" points="1538.5692,-.5 1538.5692,-19.5 1633.5692,-19.5 1633.5692,-.5 1538.5692,-.5"/>
<text text-anchor="middle" x="1586.0692" y="-7.5" font-family="Helvetica,sans-Serif" font-size="10.00" fill="#000000">AMReX_Vector.H</text>
</g>
<!-- Node29&#45;&gt;Node30 -->
<g id="edge55" class="edge">
<title>Node29&#45;&gt;Node30</title>
<path fill="none" stroke="#191970" d="M1668.7567,-61.8906C1653.0068,-52.0067 1628.2569,-36.4749 1609.9355,-24.9773"/>
<polygon fill="#191970" stroke="#191970" points="1611.6049,-21.8929 1601.2742,-19.5419 1607.884,-27.8221 1611.6049,-21.8929"/>
</g>
<!-- Node32 -->
<g id="node33" class="node">
<title>Node32</title>
<polygon fill="#ffffff" stroke="#bfbfbf" points="2013.5692,-.5 2013.5692,-19.5 2058.5692,-19.5 2058.5692,-.5 2013.5692,-.5"/>
<text text-anchor="middle" x="2036.0692" y="-7.5" font-family="Helvetica,sans-Serif" font-size="10.00" fill="#000000">iosfwd</text>
</g>
<!-- Node31&#45;&gt;Node32 -->
<g id="edge57" class="edge">
<title>Node31&#45;&gt;Node32</title>
<path fill="none" stroke="#191970" d="M1991.6535,-56.2977C2000.0992,-47.4941 2010.7585,-36.3833 2019.5176,-27.2529"/>
<polygon fill="#191970" stroke="#191970" points="2022.2254,-29.4862 2026.6226,-19.8469 2017.174,-24.6402 2022.2254,-29.4862"/>
</g>
<!-- Node33&#45;&gt;Node3 -->
<g id="edge61" class="edge">
<title>Node33&#45;&gt;Node3</title>
<path fill="none" stroke="#191970" d="M1481.3861,-128.9824C1492.1162,-126.9216 1503.4721,-124.8172 1514.0692,-123 1620.8107,-104.6958 1648.5225,-106.406 1755.0692,-87 1761.4258,-85.8422 1768.0782,-84.5376 1774.6619,-83.1892"/>
<polygon fill="#191970" stroke="#191970" points="1775.8269,-86.5215 1784.899,-81.0491 1774.3944,-79.6696 1775.8269,-86.5215"/>
</g>
<!-- Node33&#45;&gt;Node11 -->
<g id="edge63" class="edge">
<title>Node33&#45;&gt;Node11</title>
<path fill="none" stroke="#191970" d="M1421.9427,-128.7468C1394.8556,-106.9661 1331.744,-56.2498 1331.0692,-56 1222.7377,-15.893 423.5487,-30.8429 268.3011,-19.8458"/>
<polygon fill="#191970" stroke="#191970" points="268.5108,-16.3513 258.2545,-19.0081 267.929,-23.3271 268.5108,-16.3513"/>
</g>
<!-- Node33&#45;&gt;Node29 -->
<g id="edge62" class="edge">
<title>Node33&#45;&gt;Node29</title>
<path fill="none" stroke="#191970" d="M1469.6226,-128.9717C1513.9232,-117.0991 1589.7002,-96.7909 1638.2973,-83.7669"/>
<polygon fill="#191970" stroke="#191970" points="1639.4806,-87.0733 1648.2337,-81.1039 1637.6685,-80.3119 1639.4806,-87.0733"/>
</g>
<!-- Node34 -->
<g id="node35" class="node">
<title>Node34</title>
<polygon fill="#ffffff" stroke="#bfbfbf" points="1379.0692,-62 1379.0692,-81 1489.0692,-81 1489.0692,-62 1379.0692,-62"/>
<text text-anchor="middle" x="1434.0692" y="-69" font-family="Helvetica,sans-Serif" font-size="10.00" fill="#000000">AMReX_Geometry.H</text>
</g>
<!-- Node33&#45;&gt;Node34 -->
<g id="edge64" class="edge">
<title>Node33&#45;&gt;Node34</title>
<path fill="none" stroke="#191970" d="M1434.0692,-128.9005C1434.0692,-119.149 1434.0692,-103.7597 1434.0692,-91.3695"/>
<polygon fill="#191970" stroke="#191970" points="1437.5693,-91.0816 1434.0692,-81.0817 1430.5693,-91.0817 1437.5693,-91.0816"/>
</g>
<!-- Node35&#45;&gt;Node24 -->
<g id="edge67" class="edge">
<title>Node35&#45;&gt;Node24</title>
<path fill="none" stroke="#191970" d="M1332.6053,-257.4255C1327.7692,-247.2888 1321.5586,-233.5378 1317.0692,-221 1300.7298,-175.3681 1287.0888,-119.9519 1280.4359,-91.101"/>
<polygon fill="#191970" stroke="#191970" points="1283.7929,-90.0782 1278.166,-81.1011 1276.9665,-91.6278 1283.7929,-90.0782"/>
</g>
<!-- Node36 -->
<g id="node37" class="node">
<title>Node36</title>
<polygon fill="#ffffff" stroke="#bfbfbf" points="1326.0692,-196 1326.0692,-215 1370.0692,-215 1370.0692,-196 1326.0692,-196"/>
<text text-anchor="middle" x="1348.0692" y="-203" font-family="Helvetica,sans-Serif" font-size="10.00" fill="#000000">cmath</text>
</g>
<!-- Node35&#45;&gt;Node36 -->
<g id="edge66" class="edge">
<title>Node35&#45;&gt;Node36</title>
<path fill="none" stroke="#191970" d="M1341.8846,-257.2967C1343.0221,-247.7699 1344.4996,-235.3954 1345.7253,-225.1306"/>
<polygon fill="#191970" stroke="#191970" points="1349.218,-225.3994 1346.9283,-215.055 1342.2673,-224.5694 1349.218,-225.3994"/>
</g>
</g>
</svg>
        <g id="navigator" transform="translate(0 0)" fill="#404254">
                <rect fill="#f2f5e9" fill-opacity="0.5" stroke="#606060" stroke-width=".5" x="0" y="0" width="60" height="60"/>
                <use id="zoomplus" xlink:href="#zoomPlus" x="17" y="9" onmousedown="handleZoom(evt,'in')"/>
                <use id="zoomminus" xlink:href="#zoomMin" x="42" y="9" onmousedown="handleZoom(evt,'out')"/>
                <use id="reset" xlink:href="#resetDef" x="30" y="36" onmousedown="handleReset()"/>
                <g id="arrowUp" xlink:href="#dirArrow" transform="translate(30 24)" onmousedown="handlePan(0,-1)">
                  <use xlink:href="#rim" fill="#404040">
                        <set attributeName="fill" to="#808080" begin="arrowUp.mouseover" end="arrowUp.mouseout"/>
                  </use>
                  <path fill="none" stroke="white" stroke-width="1.5" d="M0,-3.0v7 M-2.5,-0.5L0,-3.0L2.5,-0.5"/>
                </g>
                <g id="arrowRight" xlink:href="#dirArrow" transform="rotate(90) translate(36 -43)" onmousedown="handlePan(1,0)">
                  <use xlink:href="#rim" fill="#404040">
                        <set attributeName="fill" to="#808080" begin="arrowRight.mouseover" end="arrowRight.mouseout"/>
                  </use>
                  <path fill="none" stroke="white" stroke-width="1.5" d="M0,-3.0v7 M-2.5,-0.5L0,-3.0L2.5,-0.5"/>
                </g>
                <g id="arrowDown" xlink:href="#dirArrow" transform="rotate(180) translate(-30 -48)" onmousedown="handlePan(0,1)">
                  <use xlink:href="#rim" fill="#404040">
                        <set attributeName="fill" to="#808080" begin="arrowDown.mouseover" end="arrowDown.mouseout"/>
                  </use>
                  <path fill="none" stroke="white" stroke-width="1.5" d="M0,-3.0v7 M-2.5,-0.5L0,-3.0L2.5,-0.5"/>
                </g>
                <g id="arrowLeft" xlink:href="#dirArrow" transform="rotate(270) translate(-36 17)" onmousedown="handlePan(-1,0)">
                  <use xlink:href="#rim" fill="#404040">
                        <set attributeName="fill" to="#808080" begin="arrowLeft.mouseover" end="arrowLeft.mouseout"/>
                  </use>
                  <path fill="none" stroke="white" stroke-width="1.5" d="M0,-3.0v7 M-2.5,-0.5L0,-3.0L2.5,-0.5"/>
                </g>
        </g>
        <svg viewBox="0 0 15 15" width="100%" height="30px" preserveAspectRatio="xMaxYMin meet">
         <g id="arrow_out" transform="scale(0.3 0.3)">
          <a xlink:href="_body_force_8cpp__incl_org.svg" target="_base">
           <rect id="button" ry="5" rx="5" y="6" x="6" height="38" width="38"
                fill="#f2f5e9" fill-opacity="0.5" stroke="#606060" stroke-width="1.0"/>
           <path id="arrow"
             d="M 11.500037,31.436501 C 11.940474,20.09759 22.043105,11.32322 32.158766,21.979434 L 37.068811,17.246167 C 37.068811,17.246167 37.088388,32 37.088388,32 L 22.160133,31.978069 C 22.160133,31.978069 26.997745,27.140456 26.997745,27.140456 C 18.528582,18.264221 13.291696,25.230495 11.500037,31.436501 z"
             style="fill:#404040;"/>
          </a>
         </g>
        </svg>
</svg>
