<?xml version="1.0" encoding="UTF-8" standalone="no"?>
<!DOCTYPE svg PUBLIC "-//W3C//DTD SVG 1.1//EN"
 "http://www.w3.org/Graphics/SVG/1.1/DTD/svg11.dtd">
<!-- Generated by graphviz version 2.40.1 (20161225.0304)
 -->
<!-- Title: BoussinesqBuoyancy.cpp Pages: 1 -->
<!--zoomable 352 -->
<svg id="main" version="1.1" xmlns="http://www.w3.org/2000/svg" xmlns:xlink="http://www.w3.org/1999/xlink" xml:space="preserve" onload="init(evt)">
<style type="text/css"><![CDATA[
.edge:hover path { stroke: red; }
.edge:hover polygon { stroke: red; fill: red; }
]]></style>
<script type="text/javascript"><![CDATA[
var edges = document.getElementsByTagName('g');
if (edges && edges.length) {
  for (var i=0;i<edges.length;i++) {
    if (edges[i].id.substr(0,4)=='edge') {
      edges[i].setAttribute('class','edge');
    }
  }
}
]]></script>
        <defs>
                <circle id="rim" cx="0" cy="0" r="7"/>
                <circle id="rim2" cx="0" cy="0" r="3.5"/>
                <g id="zoomPlus">
                        <use xlink:href="#rim" fill="#404040">
                                <set attributeName="fill" to="#808080" begin="zoomplus.mouseover" end="zoomplus.mouseout"/>
                        </use>
                        <path d="M-4,0h8M0,-4v8" fill="none" stroke="white" stroke-width="1.5" pointer-events="none"/>
                </g>
                <g id="zoomMin">
                        <use xlink:href="#rim" fill="#404040">
                                <set attributeName="fill" to="#808080" begin="zoomminus.mouseover" end="zoomminus.mouseout"/>
                        </use>
                        <path d="M-4,0h8" fill="none" stroke="white" stroke-width="1.5" pointer-events="none"/>
                </g>
                <g id="dirArrow">
                        <path fill="none" stroke="white" stroke-width="1.5" d="M0,-3.0v7 M-2.5,-0.5L0,-3.0L2.5,-0.5"/>
                </g>
               <g id="resetDef">
                       <use xlink:href="#rim2" fill="#404040">
                               <set attributeName="fill" to="#808080" begin="reset.mouseover" end="reset.mouseout"/>
                       </use>
               </g>
        </defs>

<script type="text/javascript">
var viewWidth = 2054;
var viewHeight = 352;
var sectionId = 'dynsection-0';
</script>
<script xlink:href="svgpan.js"/>
<svg id="graph" class="graph">
<g id="viewport">
<title>BoussinesqBuoyancy.cpp</title>
<polygon fill="#ffffff" stroke="transparent" points="-4,4 -4,-348 2050.4828,-348 2050.4828,4 -4,4"/>
<!-- Node0 -->
<g id="node1" class="node">
<title>Node0</title>
<polygon fill="#bfbfbf" stroke="#000000" points="354.9828,-324.5 354.9828,-343.5 484.9828,-343.5 484.9828,-324.5 354.9828,-324.5"/>
<text text-anchor="middle" x="419.9828" y="-331.5" font-family="Helvetica,sans-Serif" font-size="10.00" fill="#000000">BoussinesqBuoyancy.cpp</text>
</g>
<!-- Node1 -->
<g id="node2" class="node">
<title>Node1</title>
<g id="a_node2"><a xlink:href="_boussinesq_buoyancy_8_h.html" target="_top" xlink:title="amr&#45;wind/equation_systems\l/icns/source_terms/BoussinesqBuoyancy.H">
<polygon fill="#ffffff" stroke="#000000" points="249.9828,-257.5 249.9828,-287.5 457.9828,-287.5 457.9828,-257.5 249.9828,-257.5"/>
<text text-anchor="start" x="257.9828" y="-275.5" font-family="Helvetica,sans-Serif" font-size="10.00" fill="#000000">amr&#45;wind/equation_systems</text>
<text text-anchor="middle" x="353.9828" y="-264.5" font-family="Helvetica,sans-Serif" font-size="10.00" fill="#000000">/icns/source_terms/BoussinesqBuoyancy.H</text>
</a>
</g>
</g>
<!-- Node0&#45;&gt;Node1 -->
<g id="edge1" class="edge">
<title>Node0&#45;&gt;Node1</title>
<path fill="none" stroke="#191970" d="M409.6703,-324.3906C401.0689,-316.3756 388.4816,-304.6466 377.4494,-294.3666"/>
<polygon fill="#191970" stroke="#191970" points="379.8304,-291.8012 370.1282,-287.5446 375.0583,-296.9225 379.8304,-291.8012"/>
</g>
<!-- Node6 -->
<g id="node7" class="node">
<title>Node6</title>
<g id="a_node7"><a xlink:href="_field_utils_8_h.html" target="_top" xlink:title="amr&#45;wind/core/FieldUtils.H">
<polygon fill="#ffffff" stroke="#000000" points="15.4828,-62 15.4828,-81 148.4828,-81 148.4828,-62 15.4828,-62"/>
<text text-anchor="middle" x="81.9828" y="-69" font-family="Helvetica,sans-Serif" font-size="10.00" fill="#000000">amr&#45;wind/core/FieldUtils.H</text>
</a>
</g>
</g>
<!-- Node0&#45;&gt;Node6 -->
<g id="edge65" class="edge">
<title>Node0&#45;&gt;Node6</title>
<path fill="none" stroke="#191970" d="M354.9416,-326.983C319.2089,-320.8338 275.31,-309.3567 240.9828,-288 161.6036,-238.6141 109.0431,-133.8115 89.976,-90.6693"/>
<polygon fill="#191970" stroke="#191970" points="93.119,-89.1188 85.9464,-81.321 86.6907,-91.8897 93.119,-89.1188"/>
</g>
<!-- Node23 -->
<g id="node24" class="node">
<title>Node23</title>
<g id="a_node24"><a xlink:href="_c_f_d_sim_8_h.html" target="_top" xlink:title="amr&#45;wind/CFDSim.H">
<polygon fill="#ffffff" stroke="#000000" points="971.9828,-196 971.9828,-215 1079.9828,-215 1079.9828,-196 971.9828,-196"/>
<text text-anchor="middle" x="1025.9828" y="-203" font-family="Helvetica,sans-Serif" font-size="10.00" fill="#000000">amr&#45;wind/CFDSim.H</text>
</a>
</g>
</g>
<!-- Node0&#45;&gt;Node23 -->
<g id="edge41" class="edge">
<title>Node0&#45;&gt;Node23</title>
<path fill="none" stroke="#191970" d="M430.0178,-324.2488C450.5154,-304.4297 496.0178,-260.9744 504.9828,-257 585.2177,-221.4296 840.893,-210.2183 961.6503,-206.8568"/>
<polygon fill="#191970" stroke="#191970" points="961.9552,-210.35 971.8575,-206.5825 961.7671,-203.3525 961.9552,-210.35"/>
</g>
<!-- Node35 -->
<g id="node36" class="node">
<title>Node35</title>
<polygon fill="#ffffff" stroke="#bfbfbf" points="513.9828,-263 513.9828,-282 629.9828,-282 629.9828,-263 513.9828,-263"/>
<text text-anchor="middle" x="571.9828" y="-270" font-family="Helvetica,sans-Serif" font-size="10.00" fill="#000000">AMReX_ParmParse.H</text>
</g>
<!-- Node0&#45;&gt;Node35 -->
<g id="edge66" class="edge">
<title>Node0&#45;&gt;Node35</title>
<path fill="none" stroke="#191970" d="M443.7328,-324.3906C469.2768,-314.0554 510.0837,-297.5447 538.7938,-285.9284"/>
<polygon fill="#191970" stroke="#191970" points="540.4424,-289.0371 548.3996,-282.0419 537.8169,-282.5481 540.4424,-289.0371"/>
</g>
<!-- Node2 -->
<g id="node3" class="node">
<title>Node2</title>
<g id="a_node3"><a xlink:href="_field_repo_8_h.html" target="_top" xlink:title="amr&#45;wind/core/FieldRepo.H">
<polygon fill="#ffffff" stroke="#000000" points="514.9828,-129 514.9828,-148 650.9828,-148 650.9828,-129 514.9828,-129"/>
<text text-anchor="middle" x="582.9828" y="-136" font-family="Helvetica,sans-Serif" font-size="10.00" fill="#000000">amr&#45;wind/core/FieldRepo.H</text>
</a>
</g>
</g>
<!-- Node1&#45;&gt;Node2 -->
<g id="edge2" class="edge">
<title>Node1&#45;&gt;Node2</title>
<path fill="none" stroke="#191970" d="M379.8069,-257.389C424.0508,-231.4995 513.8105,-178.9764 557.6883,-153.3012"/>
<polygon fill="#191970" stroke="#191970" points="559.7064,-156.1755 566.5697,-148.1042 556.1711,-150.1338 559.7064,-156.1755"/>
</g>
<!-- Node18 -->
<g id="node19" class="node">
<title>Node18</title>
<g id="a_node19"><a xlink:href="_momentum_source_8_h.html" target="_top" xlink:title="amr&#45;wind/equation_systems\l/icns/MomentumSource.H">
<polygon fill="#ffffff" stroke="#000000" points="200.4828,-190.5 200.4828,-220.5 339.4828,-220.5 339.4828,-190.5 200.4828,-190.5"/>
<text text-anchor="start" x="208.4828" y="-208.5" font-family="Helvetica,sans-Serif" font-size="10.00" fill="#000000">amr&#45;wind/equation_systems</text>
<text text-anchor="middle" x="269.9828" y="-197.5" font-family="Helvetica,sans-Serif" font-size="10.00" fill="#000000">/icns/MomentumSource.H</text>
</a>
</g>
</g>
<!-- Node1&#45;&gt;Node18 -->
<g id="edge30" class="edge">
<title>Node1&#45;&gt;Node18</title>
<path fill="none" stroke="#191970" d="M334.9219,-257.2967C323.7524,-248.3876 309.4606,-236.9882 297.1295,-227.1527"/>
<polygon fill="#191970" stroke="#191970" points="298.9685,-224.1426 288.9683,-220.6432 294.6036,-229.615 298.9685,-224.1426"/>
</g>
<!-- Node3 -->
<g id="node4" class="node">
<title>Node3</title>
<polygon fill="#ffffff" stroke="#bfbfbf" points="842.4828,-.5 842.4828,-19.5 883.4828,-19.5 883.4828,-.5 842.4828,-.5"/>
<text text-anchor="middle" x="862.9828" y="-7.5" font-family="Helvetica,sans-Serif" font-size="10.00" fill="#000000">string</text>
</g>
<!-- Node2&#45;&gt;Node3 -->
<g id="edge3" class="edge">
<title>Node2&#45;&gt;Node3</title>
<path fill="none" stroke="#191970" d="M651.2574,-130.4125C712.41,-122.0128 796.4249,-107.2537 822.9828,-87 841.7309,-72.7023 852.5061,-47.1052 858.0495,-29.3697"/>
<polygon fill="#191970" stroke="#191970" points="861.4833,-30.09 860.8495,-19.5142 854.7498,-28.177 861.4833,-30.09"/>
</g>
<!-- Node4 -->
<g id="node5" class="node">
<title>Node4</title>
<polygon fill="#ffffff" stroke="#bfbfbf" points="1054.4828,-.5 1054.4828,-19.5 1137.4828,-19.5 1137.4828,-.5 1054.4828,-.5"/>
<text text-anchor="middle" x="1095.9828" y="-7.5" font-family="Helvetica,sans-Serif" font-size="10.00" fill="#000000">unordered_map</text>
</g>
<!-- Node2&#45;&gt;Node4 -->
<g id="edge4" class="edge">
<title>Node2&#45;&gt;Node4</title>
<path fill="none" stroke="#191970" d="M651.2284,-132.0295C706.0846,-125.2477 784.3741,-111.9631 848.9828,-87 873.7257,-77.44 875.4324,-66.0441 899.9828,-56 925.7296,-45.4665 995.2359,-30.2476 1044.1292,-20.2425"/>
<polygon fill="#191970" stroke="#191970" points="1045.124,-23.612 1054.2264,-18.1902 1043.7297,-16.7522 1045.124,-23.612"/>
</g>
<!-- Node5 -->
<g id="node6" class="node">
<title>Node5</title>
<g id="a_node6"><a xlink:href="_field_desc_types_8_h.html" target="_top" xlink:title="amr&#45;wind/core/FieldDescTypes.H">
<polygon fill="#ffffff" stroke="#000000" points="310.4828,-.5 310.4828,-19.5 473.4828,-19.5 473.4828,-.5 310.4828,-.5"/>
<text text-anchor="middle" x="391.9828" y="-7.5" font-family="Helvetica,sans-Serif" font-size="10.00" fill="#000000">amr&#45;wind/core/FieldDescTypes.H</text>
</a>
</g>
</g>
<!-- Node2&#45;&gt;Node5 -->
<g id="edge5" class="edge">
<title>Node2&#45;&gt;Node5</title>
<path fill="none" stroke="#191970" d="M514.9555,-135.3074C442.7357,-130.3242 335.5319,-117.8194 309.9828,-87 301.1897,-76.393 303.0203,-67.8891 309.9828,-56 318.6583,-41.186 334.0454,-30.7802 349.1653,-23.6608"/>
<polygon fill="#191970" stroke="#191970" points="350.6861,-26.8166 358.4826,-19.6426 347.9141,-20.3888 350.6861,-26.8166"/>
</g>
<!-- Node2&#45;&gt;Node6 -->
<g id="edge6" class="edge">
<title>Node2&#45;&gt;Node6</title>
<path fill="none" stroke="#191970" d="M514.8943,-129.3944C421.9996,-116.9713 256.0078,-94.7728 158.7813,-81.7705"/>
<polygon fill="#191970" stroke="#191970" points="159.0994,-78.2819 148.7236,-80.4254 158.1714,-85.2201 159.0994,-78.2819"/>
</g>
<!-- Node7 -->
<g id="node8" class="node">
<title>Node7</title>
<polygon fill="#ffffff" stroke="#bfbfbf" points="174.9828,-.5 174.9828,-19.5 278.9828,-19.5 278.9828,-.5 174.9828,-.5"/>
<text text-anchor="middle" x="226.9828" y="-7.5" font-family="Helvetica,sans-Serif" font-size="10.00" fill="#000000">AMReX_MultiFab.H</text>
</g>
<!-- Node2&#45;&gt;Node7 -->
<g id="edge28" class="edge">
<title>Node2&#45;&gt;Node7</title>
<path fill="none" stroke="#191970" d="M514.8037,-130.9296C443.5231,-122.1598 337.0983,-106.4005 300.9828,-87 274.6952,-72.8788 252.2125,-46.0788 239.1406,-28.1236"/>
<polygon fill="#191970" stroke="#191970" points="241.8041,-25.8262 233.1925,-19.6544 236.0758,-29.8494 241.8041,-25.8262"/>
</g>
<!-- Node9 -->
<g id="node10" class="node">
<title>Node9</title>
<g id="a_node10"><a xlink:href="_field_8_h.html" target="_top" xlink:title="amr&#45;wind/core/Field.H">
<polygon fill="#ffffff" stroke="#000000" points="701.4828,-62 701.4828,-81 814.4828,-81 814.4828,-62 701.4828,-62"/>
<text text-anchor="middle" x="757.9828" y="-69" font-family="Helvetica,sans-Serif" font-size="10.00" fill="#000000">amr&#45;wind/core/Field.H</text>
</a>
</g>
</g>
<!-- Node2&#45;&gt;Node9 -->
<g id="edge10" class="edge">
<title>Node2&#45;&gt;Node9</title>
<path fill="none" stroke="#191970" d="M608.0561,-128.9005C638.3347,-117.3082 689.4231,-97.7486 723.4234,-84.7313"/>
<polygon fill="#191970" stroke="#191970" points="724.8686,-87.9258 732.9561,-81.0817 722.3657,-81.3886 724.8686,-87.9258"/>
</g>
<!-- Node14 -->
<g id="node15" class="node">
<title>Node14</title>
<g id="a_node15"><a xlink:href="_int_field_8_h.html" target="_top" xlink:title="amr&#45;wind/core/IntField.H">
<polygon fill="#ffffff" stroke="#000000" points="520.9828,-62 520.9828,-81 644.9828,-81 644.9828,-62 520.9828,-62"/>
<text text-anchor="middle" x="582.9828" y="-69" font-family="Helvetica,sans-Serif" font-size="10.00" fill="#000000">amr&#45;wind/core/IntField.H</text>
</a>
</g>
</g>
<!-- Node2&#45;&gt;Node14 -->
<g id="edge19" class="edge">
<title>Node2&#45;&gt;Node14</title>
<path fill="none" stroke="#191970" d="M582.9828,-128.9005C582.9828,-119.149 582.9828,-103.7597 582.9828,-91.3695"/>
<polygon fill="#191970" stroke="#191970" points="586.4829,-91.0816 582.9828,-81.0817 579.4829,-91.0817 586.4829,-91.0816"/>
</g>
<!-- Node15 -->
<g id="node16" class="node">
<title>Node15</title>
<polygon fill="#ffffff" stroke="#bfbfbf" points="497.4828,-.5 497.4828,-19.5 604.4828,-19.5 604.4828,-.5 497.4828,-.5"/>
<text text-anchor="middle" x="550.9828" y="-7.5" font-family="Helvetica,sans-Serif" font-size="10.00" fill="#000000">AMReX_iMultiFab.H</text>
</g>
<!-- Node2&#45;&gt;Node15 -->
<g id="edge29" class="edge">
<title>Node2&#45;&gt;Node15</title>
<path fill="none" stroke="#191970" d="M605.7941,-128.9436C622.5054,-120.5792 643.951,-106.6696 653.9828,-87 660.2426,-74.7263 661.4801,-67.5593 653.9828,-56 643.7772,-40.2649 626.7933,-29.8651 609.5307,-23.0109"/>
<polygon fill="#191970" stroke="#191970" points="610.5473,-19.6569 599.9529,-19.5564 608.1723,-26.2417 610.5473,-19.6569"/>
</g>
<!-- Node16 -->
<g id="node17" class="node">
<title>Node16</title>
<g id="a_node17"><a xlink:href="_scratch_field_8_h.html" target="_top" xlink:title="amr&#45;wind/core/ScratchField.H">
<polygon fill="#ffffff" stroke="#000000" points="318.9828,-62 318.9828,-81 464.9828,-81 464.9828,-62 318.9828,-62"/>
<text text-anchor="middle" x="391.9828" y="-69" font-family="Helvetica,sans-Serif" font-size="10.00" fill="#000000">amr&#45;wind/core/ScratchField.H</text>
</a>
</g>
</g>
<!-- Node2&#45;&gt;Node16 -->
<g id="edge23" class="edge">
<title>Node2&#45;&gt;Node16</title>
<path fill="none" stroke="#191970" d="M555.6172,-128.9005C522.2866,-117.2086 465.8519,-97.4122 428.7506,-84.3976"/>
<polygon fill="#191970" stroke="#191970" points="429.8925,-81.0891 419.2977,-81.0817 427.5754,-87.6945 429.8925,-81.0891"/>
</g>
<!-- Node17 -->
<g id="node18" class="node">
<title>Node17</title>
<polygon fill="#ffffff" stroke="#bfbfbf" points="908.9828,-62 908.9828,-81 1014.9828,-81 1014.9828,-62 908.9828,-62"/>
<text text-anchor="middle" x="961.9828" y="-69" font-family="Helvetica,sans-Serif" font-size="10.00" fill="#000000">AMReX_AmrCore.H</text>
</g>
<!-- Node2&#45;&gt;Node17 -->
<g id="edge27" class="edge">
<title>Node2&#45;&gt;Node17</title>
<path fill="none" stroke="#191970" d="M648.0353,-128.9984C711.3019,-119.4665 810.0279,-103.8206 894.9828,-87 900.76,-85.8561 906.7985,-84.5776 912.783,-83.2588"/>
<polygon fill="#191970" stroke="#191970" points="913.7594,-86.6267 922.7478,-81.0179 912.2236,-79.7972 913.7594,-86.6267"/>
</g>
<!-- Node6&#45;&gt;Node5 -->
<g id="edge7" class="edge">
<title>Node6&#45;&gt;Node5</title>
<path fill="none" stroke="#191970" d="M130.0802,-61.9581C185.142,-51.0345 275.296,-33.1492 334.1419,-21.4749"/>
<polygon fill="#191970" stroke="#191970" points="334.9,-24.8928 344.0277,-19.5137 333.5377,-18.0266 334.9,-24.8928"/>
</g>
<!-- Node6&#45;&gt;Node7 -->
<g id="edge8" class="edge">
<title>Node6&#45;&gt;Node7</title>
<path fill="none" stroke="#191970" d="M104.6391,-61.8906C128.9002,-51.6005 167.5946,-35.1888 194.9628,-23.5809"/>
<polygon fill="#191970" stroke="#191970" points="196.6462,-26.6688 204.4857,-19.5419 193.9128,-20.2245 196.6462,-26.6688"/>
</g>
<!-- Node8 -->
<g id="node9" class="node">
<title>Node8</title>
<polygon fill="#ffffff" stroke="#bfbfbf" points="23.9828,-.5 23.9828,-19.5 139.9828,-19.5 139.9828,-.5 23.9828,-.5"/>
<text text-anchor="middle" x="81.9828" y="-7.5" font-family="Helvetica,sans-Serif" font-size="10.00" fill="#000000">AMReX_Interpolater.H</text>
</g>
<!-- Node6&#45;&gt;Node8 -->
<g id="edge9" class="edge">
<title>Node6&#45;&gt;Node8</title>
<path fill="none" stroke="#191970" d="M81.9828,-61.8906C81.9828,-53.3657 81.9828,-40.6392 81.9828,-29.9235"/>
<polygon fill="#191970" stroke="#191970" points="85.4829,-29.7448 81.9828,-19.7449 78.4829,-29.7449 85.4829,-29.7448"/>
</g>
<!-- Node9&#45;&gt;Node3 -->
<g id="edge11" class="edge">
<title>Node9&#45;&gt;Node3</title>
<path fill="none" stroke="#191970" d="M774.3891,-61.8906C791.4181,-51.9165 818.2669,-36.1908 837.9479,-24.6633"/>
<polygon fill="#191970" stroke="#191970" points="839.8319,-27.6161 846.6918,-19.5419 836.294,-21.5759 839.8319,-27.6161"/>
</g>
<!-- Node9&#45;&gt;Node4 -->
<g id="edge13" class="edge">
<title>Node9&#45;&gt;Node4</title>
<path fill="none" stroke="#191970" d="M811.32,-61.9886C868.5972,-51.7449 962.265,-34.9076 1042.9828,-20 1043.4432,-19.915 1043.9059,-19.8294 1044.3705,-19.7435"/>
<polygon fill="#191970" stroke="#191970" points="1045.1356,-23.1613 1054.3267,-17.891 1043.8552,-16.2794 1045.1356,-23.1613"/>
</g>
<!-- Node9&#45;&gt;Node5 -->
<g id="edge18" class="edge">
<title>Node9&#45;&gt;Node5</title>
<path fill="none" stroke="#191970" d="M701.1969,-61.9581C635.6511,-50.9443 527.9864,-32.8531 458.5574,-21.1867"/>
<polygon fill="#191970" stroke="#191970" points="459.0426,-17.7192 448.6008,-19.5137 457.8826,-24.6225 459.0426,-17.7192"/>
</g>
<!-- Node9&#45;&gt;Node7 -->
<g id="edge14" class="edge">
<title>Node9&#45;&gt;Node7</title>
<path fill="none" stroke="#191970" d="M701.3738,-62.5768C686.0165,-60.2889 669.3789,-57.9313 653.9828,-56 497.5065,-36.3712 457.5892,-38.5621 300.9828,-20 297.1106,-19.541 293.1268,-19.0519 289.111,-18.546"/>
<polygon fill="#191970" stroke="#191970" points="289.4728,-15.0638 279.1085,-17.2615 288.5812,-22.0068 289.4728,-15.0638"/>
</g>
<!-- Node10 -->
<g id="node11" class="node">
<title>Node10</title>
<polygon fill="#ffffff" stroke="#bfbfbf" points="1269.9828,-.5 1269.9828,-19.5 1321.9828,-19.5 1321.9828,-.5 1269.9828,-.5"/>
<text text-anchor="middle" x="1295.9828" y="-7.5" font-family="Helvetica,sans-Serif" font-size="10.00" fill="#000000">memory</text>
</g>
<!-- Node9&#45;&gt;Node10 -->
<g id="edge12" class="edge">
<title>Node9&#45;&gt;Node10</title>
<path fill="none" stroke="#191970" d="M814.6308,-65.1941C840.6302,-62.3315 871.8647,-58.9366 899.9828,-56 1057.0621,-39.5952 1100.8263,-49.8289 1259.6046,-19.9743"/>
<polygon fill="#191970" stroke="#191970" points="1260.5624,-23.3549 1269.731,-18.0457 1259.2528,-16.4785 1260.5624,-23.3549"/>
</g>
<!-- Node11 -->
<g id="node12" class="node">
<title>Node11</title>
<polygon fill="#ffffff" stroke="#bfbfbf" points="725.4828,-.5 725.4828,-19.5 824.4828,-19.5 824.4828,-.5 725.4828,-.5"/>
<text text-anchor="middle" x="774.9828" y="-7.5" font-family="Helvetica,sans-Serif" font-size="10.00" fill="#000000">AMReX_BCRec.H</text>
</g>
<!-- Node9&#45;&gt;Node11 -->
<g id="edge15" class="edge">
<title>Node9&#45;&gt;Node11</title>
<path fill="none" stroke="#191970" d="M760.6391,-61.8906C763.0204,-53.276 766.5876,-40.3708 769.5689,-29.5858"/>
<polygon fill="#191970" stroke="#191970" points="772.9982,-30.3159 772.2891,-19.7449 766.2512,-28.4509 772.9982,-30.3159"/>
</g>
<!-- Node12 -->
<g id="node13" class="node">
<title>Node12</title>
<polygon fill="#ffffff" stroke="#bfbfbf" points="622.4828,-.5 622.4828,-19.5 707.4828,-19.5 707.4828,-.5 622.4828,-.5"/>
<text text-anchor="middle" x="664.9828" y="-7.5" font-family="Helvetica,sans-Serif" font-size="10.00" fill="#000000">AMReX_Gpu.H</text>
</g>
<!-- Node9&#45;&gt;Node12 -->
<g id="edge16" class="edge">
<title>Node9&#45;&gt;Node12</title>
<path fill="none" stroke="#191970" d="M743.4516,-61.8906C728.5734,-52.0519 705.2324,-36.6167 687.87,-25.1351"/>
<polygon fill="#191970" stroke="#191970" points="689.6838,-22.1385 679.412,-19.5419 685.8226,-27.9773 689.6838,-22.1385"/>
</g>
<!-- Node13 -->
<g id="node14" class="node">
<title>Node13</title>
<g id="a_node14"><a xlink:href="incflo__enums_8_h.html" target="_top" xlink:title="amr&#45;wind/incflo_enums.H">
<polygon fill="#ffffff" stroke="#000000" points="905.9828,-.5 905.9828,-19.5 1033.9828,-19.5 1033.9828,-.5 905.9828,-.5"/>
<text text-anchor="middle" x="969.9828" y="-7.5" font-family="Helvetica,sans-Serif" font-size="10.00" fill="#000000">amr&#45;wind/incflo_enums.H</text>
</a>
</g>
</g>
<!-- Node9&#45;&gt;Node13 -->
<g id="edge17" class="edge">
<title>Node9&#45;&gt;Node13</title>
<path fill="none" stroke="#191970" d="M791.1078,-61.8906C827.8239,-51.2395 887.1492,-34.0296 927.3166,-22.3772"/>
<polygon fill="#191970" stroke="#191970" points="928.4615,-25.6895 937.0904,-19.5419 926.5112,-18.9666 928.4615,-25.6895"/>
</g>
<!-- Node14&#45;&gt;Node3 -->
<g id="edge20" class="edge">
<title>Node14&#45;&gt;Node3</title>
<path fill="none" stroke="#191970" d="M639.0321,-61.9204C687.8042,-53.1403 760.5,-38.9876 832.7034,-19.8218"/>
<polygon fill="#191970" stroke="#191970" points="833.6744,-23.1852 842.4236,-17.21 831.8579,-16.425 833.6744,-23.1852"/>
</g>
<!-- Node14&#45;&gt;Node5 -->
<g id="edge21" class="edge">
<title>Node14&#45;&gt;Node5</title>
<path fill="none" stroke="#191970" d="M553.1391,-61.8906C520.3403,-51.3298 467.5157,-34.3208 431.3464,-22.6747"/>
<polygon fill="#191970" stroke="#191970" points="432.2085,-19.2753 421.617,-19.5419 430.063,-25.9385 432.2085,-19.2753"/>
</g>
<!-- Node14&#45;&gt;Node15 -->
<g id="edge22" class="edge">
<title>Node14&#45;&gt;Node15</title>
<path fill="none" stroke="#191970" d="M577.9828,-61.8906C573.407,-53.0965 566.5048,-39.8312 560.8245,-28.9145"/>
<polygon fill="#191970" stroke="#191970" points="563.774,-27.0003 556.0533,-19.7449 557.5643,-30.2314 563.774,-27.0003"/>
</g>
<!-- Node16&#45;&gt;Node3 -->
<g id="edge24" class="edge">
<title>Node16&#45;&gt;Node3</title>
<path fill="none" stroke="#191970" d="M464.2983,-61.9599C480.0124,-59.9426 496.55,-57.862 511.9828,-56 651.309,-39.1904 691.0081,-50.3419 832.2593,-19.7397"/>
<polygon fill="#191970" stroke="#191970" points="833.144,-23.1289 842.1592,-17.5633 831.6409,-16.2922 833.144,-23.1289"/>
</g>
<!-- Node16&#45;&gt;Node5 -->
<g id="edge25" class="edge">
<title>Node16&#45;&gt;Node5</title>
<path fill="none" stroke="#191970" d="M391.9828,-61.8906C391.9828,-53.3657 391.9828,-40.6392 391.9828,-29.9235"/>
<polygon fill="#191970" stroke="#191970" points="395.4829,-29.7448 391.9828,-19.7449 388.4829,-29.7449 395.4829,-29.7448"/>
</g>
<!-- Node16&#45;&gt;Node7 -->
<g id="edge26" class="edge">
<title>Node16&#45;&gt;Node7</title>
<path fill="none" stroke="#191970" d="M366.2016,-61.8906C338.2308,-51.4652 293.401,-34.7559 262.1968,-23.1252"/>
<polygon fill="#191970" stroke="#191970" points="263.1757,-19.7549 252.583,-19.5419 260.7309,-26.3141 263.1757,-19.7549"/>
</g>
<!-- Node18&#45;&gt;Node2 -->
<g id="edge39" class="edge">
<title>Node18&#45;&gt;Node2</title>
<path fill="none" stroke="#191970" d="M339.8366,-190.5473C396.7597,-178.3624 476.015,-161.3973 528.367,-150.1909"/>
<polygon fill="#191970" stroke="#191970" points="529.4183,-153.5453 538.4641,-148.0296 527.953,-146.7003 529.4183,-153.5453"/>
</g>
<!-- Node18&#45;&gt;Node5 -->
<g id="edge37" class="edge">
<title>Node18&#45;&gt;Node5</title>
<path fill="none" stroke="#191970" d="M269.0393,-190.1732C268.0526,-160.9619 269.8755,-96.6144 300.9828,-56 312.5004,-40.9624 330.2875,-30.4592 347.0911,-23.327"/>
<polygon fill="#191970" stroke="#191970" points="348.7874,-26.4211 356.8163,-19.5084 346.2289,-19.9054 348.7874,-26.4211"/>
</g>
<!-- Node18&#45;&gt;Node6 -->
<g id="edge38" class="edge">
<title>Node18&#45;&gt;Node6</title>
<path fill="none" stroke="#191970" d="M230.5521,-190.4168C209.519,-181.4344 183.7653,-168.8864 162.9828,-154 136.619,-135.1158 111.2701,-107.2083 96.1557,-89.1882"/>
<polygon fill="#191970" stroke="#191970" points="98.655,-86.7171 89.5984,-81.2191 93.2496,-91.1649 98.655,-86.7171"/>
</g>
<!-- Node18&#45;&gt;Node7 -->
<g id="edge40" class="edge">
<title>Node18&#45;&gt;Node7</title>
<path fill="none" stroke="#191970" d="M200.293,-196.6188C136.4459,-184.2733 45.974,-155.1307 5.9828,-87 -.9917,-75.1179 -2.7104,-66.689 5.9828,-56 16.0696,-43.5975 103.0773,-28.3179 164.8542,-18.8672"/>
<polygon fill="#191970" stroke="#191970" points="165.5555,-22.301 174.9194,-17.3445 164.5083,-15.3798 165.5555,-22.301"/>
</g>
<!-- Node19 -->
<g id="node20" class="node">
<title>Node19</title>
<g id="a_node20"><a xlink:href="_factory_8_h.html" target="_top" xlink:title="amr&#45;wind/core/Factory.H">
<polygon fill="#ffffff" stroke="#000000" points="1380.4828,-62 1380.4828,-81 1505.4828,-81 1505.4828,-62 1380.4828,-62"/>
<text text-anchor="middle" x="1442.9828" y="-69" font-family="Helvetica,sans-Serif" font-size="10.00" fill="#000000">amr&#45;wind/core/Factory.H</text>
</a>
</g>
</g>
<!-- Node18&#45;&gt;Node19 -->
<g id="edge31" class="edge">
<title>Node18&#45;&gt;Node19</title>
<path fill="none" stroke="#191970" d="M339.4913,-203.9613C556.3241,-198.8935 1211.3361,-181.4642 1302.9828,-154 1349.8427,-139.9572 1397.4528,-107.088 1423.2981,-87.3387"/>
<polygon fill="#191970" stroke="#191970" points="1425.4553,-90.0949 1431.1961,-81.1902 1421.1552,-84.5713 1425.4553,-90.0949"/>
</g>
<!-- Node19&#45;&gt;Node4 -->
<g id="edge33" class="edge">
<title>Node19&#45;&gt;Node4</title>
<path fill="none" stroke="#191970" d="M1401.0133,-61.9331C1391.4891,-59.8749 1381.4041,-57.784 1371.9828,-56 1272.9103,-37.2396 1247.2816,-37.5231 1147.9828,-20 1147.8781,-19.9815 1147.7733,-19.963 1147.6684,-19.9445"/>
<polygon fill="#191970" stroke="#191970" points="1148.1476,-16.4744 1137.6838,-18.1359 1146.8999,-23.3623 1148.1476,-16.4744"/>
</g>
<!-- Node19&#45;&gt;Node10 -->
<g id="edge32" class="edge">
<title>Node19&#45;&gt;Node10</title>
<path fill="none" stroke="#191970" d="M1420.0141,-61.8906C1395.3104,-51.5554 1355.8458,-35.0447 1328.0801,-23.4284"/>
<polygon fill="#191970" stroke="#191970" points="1329.3663,-20.1727 1318.7903,-19.5419 1326.6646,-26.6303 1329.3663,-20.1727"/>
</g>
<!-- Node20 -->
<g id="node21" class="node">
<title>Node20</title>
<polygon fill="#ffffff" stroke="#bfbfbf" points="1419.9828,-.5 1419.9828,-19.5 1473.9828,-19.5 1473.9828,-.5 1419.9828,-.5"/>
<text text-anchor="middle" x="1446.9828" y="-7.5" font-family="Helvetica,sans-Serif" font-size="10.00" fill="#000000">iostream</text>
</g>
<!-- Node19&#45;&gt;Node20 -->
<g id="edge34" class="edge">
<title>Node19&#45;&gt;Node20</title>
<path fill="none" stroke="#191970" d="M1443.6078,-61.8906C1444.1623,-53.3657 1444.99,-40.6392 1445.687,-29.9235"/>
<polygon fill="#191970" stroke="#191970" points="1449.1925,-29.951 1446.349,-19.7449 1442.2073,-29.4966 1449.1925,-29.951"/>
</g>
<!-- Node21 -->
<g id="node22" class="node">
<title>Node21</title>
<polygon fill="#ffffff" stroke="#bfbfbf" points="1492.4828,-.5 1492.4828,-19.5 1579.4828,-19.5 1579.4828,-.5 1492.4828,-.5"/>
<text text-anchor="middle" x="1535.9828" y="-7.5" font-family="Helvetica,sans-Serif" font-size="10.00" fill="#000000">AMReX_Print.H</text>
</g>
<!-- Node19&#45;&gt;Node21 -->
<g id="edge35" class="edge">
<title>Node19&#45;&gt;Node21</title>
<path fill="none" stroke="#191970" d="M1457.5141,-61.8906C1472.3922,-52.0519 1495.7333,-36.6167 1513.0957,-25.1351"/>
<polygon fill="#191970" stroke="#191970" points="1515.143,-27.9773 1521.5536,-19.5419 1511.2819,-22.1385 1515.143,-27.9773"/>
</g>
<!-- Node22 -->
<g id="node23" class="node">
<title>Node22</title>
<polygon fill="#ffffff" stroke="#bfbfbf" points="1339.9828,-.5 1339.9828,-19.5 1401.9828,-19.5 1401.9828,-.5 1339.9828,-.5"/>
<text text-anchor="middle" x="1370.9828" y="-7.5" font-family="Helvetica,sans-Serif" font-size="10.00" fill="#000000">AMReX.H</text>
</g>
<!-- Node19&#45;&gt;Node22 -->
<g id="edge36" class="edge">
<title>Node19&#45;&gt;Node22</title>
<path fill="none" stroke="#191970" d="M1431.7328,-61.8906C1420.5968,-52.3786 1403.3368,-37.6357 1390.056,-26.2917"/>
<polygon fill="#191970" stroke="#191970" points="1392.2684,-23.5784 1382.3914,-19.7449 1387.722,-28.9011 1392.2684,-23.5784"/>
</g>
<!-- Node23&#45;&gt;Node2 -->
<g id="edge47" class="edge">
<title>Node23&#45;&gt;Node2</title>
<path fill="none" stroke="#191970" d="M971.6623,-197.2845C892.3522,-185.2895 744.6763,-162.9548 655.9565,-149.5366"/>
<polygon fill="#191970" stroke="#191970" points="656.3798,-146.0609 645.9688,-148.0261 655.3329,-152.9822 656.3798,-146.0609"/>
</g>
<!-- Node23&#45;&gt;Node17 -->
<g id="edge42" class="edge">
<title>Node23&#45;&gt;Node17</title>
<path fill="none" stroke="#191970" d="M1021.1598,-195.6417C1016.1026,-185.2868 1007.9391,-168.5205 1000.9828,-154 990.5531,-132.2291 978.7223,-107.1467 970.8533,-90.408"/>
<polygon fill="#191970" stroke="#191970" points="973.9329,-88.7317 966.5137,-81.1682 967.5969,-91.7076 973.9329,-88.7317"/>
</g>
<!-- Node24 -->
<g id="node25" class="node">
<title>Node24</title>
<g id="a_node25"><a xlink:href="_sim_time_8_h.html" target="_top" xlink:title="amr&#45;wind/core/SimTime.H">
<polygon fill="#ffffff" stroke="#000000" points="1746.4828,-129 1746.4828,-148 1877.4828,-148 1877.4828,-129 1746.4828,-129"/>
<text text-anchor="middle" x="1811.9828" y="-136" font-family="Helvetica,sans-Serif" font-size="10.00" fill="#000000">amr&#45;wind/core/SimTime.H</text>
</a>
</g>
</g>
<!-- Node23&#45;&gt;Node24 -->
<g id="edge43" class="edge">
<title>Node23&#45;&gt;Node24</title>
<path fill="none" stroke="#191970" d="M1080.0078,-200.8948C1217.034,-189.2145 1578.4224,-158.4091 1736.3351,-144.9483"/>
<polygon fill="#191970" stroke="#191970" points="1736.7712,-148.424 1746.4378,-144.0872 1736.1766,-141.4492 1736.7712,-148.424"/>
</g>
<!-- Node28 -->
<g id="node29" class="node">
<title>Node28</title>
<g id="a_node29"><a xlink:href="_p_d_e_base_8_h.html" target="_top" xlink:title="amr&#45;wind/equation_systems\l/PDEBase.H">
<polygon fill="#ffffff" stroke="#000000" points="1154.4828,-123.5 1154.4828,-153.5 1293.4828,-153.5 1293.4828,-123.5 1154.4828,-123.5"/>
<text text-anchor="start" x="1162.4828" y="-141.5" font-family="Helvetica,sans-Serif" font-size="10.00" fill="#000000">amr&#45;wind/equation_systems</text>
<text text-anchor="middle" x="1223.9828" y="-130.5" font-family="Helvetica,sans-Serif" font-size="10.00" fill="#000000">/PDEBase.H</text>
</a>
</g>
</g>
<!-- Node23&#45;&gt;Node28 -->
<g id="edge48" class="edge">
<title>Node23&#45;&gt;Node28</title>
<path fill="none" stroke="#191970" d="M1054.3514,-195.9005C1084.3882,-185.7366 1132.525,-169.4479 1169.8604,-156.8141"/>
<polygon fill="#191970" stroke="#191970" points="1171.2396,-160.0425 1179.5901,-153.5218 1168.9959,-153.4118 1171.2396,-160.0425"/>
</g>
<!-- Node33 -->
<g id="node34" class="node">
<title>Node33</title>
<g id="a_node34"><a xlink:href="_physics_8_h.html" target="_top" xlink:title="amr&#45;wind/core/Physics.H">
<polygon fill="#ffffff" stroke="#000000" points="1009.4828,-129 1009.4828,-148 1136.4828,-148 1136.4828,-129 1009.4828,-129"/>
<text text-anchor="middle" x="1072.9828" y="-136" font-family="Helvetica,sans-Serif" font-size="10.00" fill="#000000">amr&#45;wind/core/Physics.H</text>
</a>
</g>
</g>
<!-- Node23&#45;&gt;Node33 -->
<g id="edge60" class="edge">
<title>Node23&#45;&gt;Node33</title>
<path fill="none" stroke="#191970" d="M1032.7168,-195.9005C1039.9064,-185.6515 1051.4647,-169.1747 1060.3576,-156.4976"/>
<polygon fill="#191970" stroke="#191970" points="1063.3838,-158.2783 1066.2614,-148.0817 1057.6532,-154.2582 1063.3838,-158.2783"/>
</g>
<!-- Node25 -->
<g id="node26" class="node">
<title>Node25</title>
<polygon fill="#ffffff" stroke="#bfbfbf" points="1953.4828,-62 1953.4828,-81 2046.4828,-81 2046.4828,-62 1953.4828,-62"/>
<text text-anchor="middle" x="1999.9828" y="-69" font-family="Helvetica,sans-Serif" font-size="10.00" fill="#000000">AMReX_REAL.H</text>
</g>
<!-- Node24&#45;&gt;Node25 -->
<g id="edge44" class="edge">
<title>Node24&#45;&gt;Node25</title>
<path fill="none" stroke="#191970" d="M1838.9186,-128.9005C1871.5861,-117.2584 1926.8017,-97.5805 1963.3254,-84.5641"/>
<polygon fill="#191970" stroke="#191970" points="1964.8523,-87.7356 1973.097,-81.0817 1962.5023,-81.1418 1964.8523,-87.7356"/>
</g>
<!-- Node26 -->
<g id="node27" class="node">
<title>Node26</title>
<polygon fill="#ffffff" stroke="#bfbfbf" points="1680.9828,-62 1680.9828,-81 1806.9828,-81 1806.9828,-62 1680.9828,-62"/>
<text text-anchor="middle" x="1743.9828" y="-69" font-family="Helvetica,sans-Serif" font-size="10.00" fill="#000000">AMReX_GpuQualifiers.H</text>
</g>
<!-- Node24&#45;&gt;Node26 -->
<g id="edge45" class="edge">
<title>Node24&#45;&gt;Node26</title>
<path fill="none" stroke="#191970" d="M1802.2401,-128.9005C1791.5351,-118.353 1774.1359,-101.2096 1761.1349,-88.3998"/>
<polygon fill="#191970" stroke="#191970" points="1763.2873,-85.607 1753.7075,-81.0817 1758.3743,-90.5933 1763.2873,-85.607"/>
</g>
<!-- Node27 -->
<g id="node28" class="node">
<title>Node27</title>
<polygon fill="#ffffff" stroke="#bfbfbf" points="1824.9828,-62 1824.9828,-81 1934.9828,-81 1934.9828,-62 1824.9828,-62"/>
<text text-anchor="middle" x="1879.9828" y="-69" font-family="Helvetica,sans-Serif" font-size="10.00" fill="#000000">AMReX_Extension.H</text>
</g>
<!-- Node24&#45;&gt;Node27 -->
<g id="edge46" class="edge">
<title>Node24&#45;&gt;Node27</title>
<path fill="none" stroke="#191970" d="M1821.7256,-128.9005C1832.4306,-118.353 1849.8298,-101.2096 1862.8308,-88.3998"/>
<polygon fill="#191970" stroke="#191970" points="1865.5914,-90.5933 1870.2582,-81.0817 1860.6784,-85.607 1865.5914,-90.5933"/>
</g>
<!-- Node28&#45;&gt;Node3 -->
<g id="edge49" class="edge">
<title>Node28&#45;&gt;Node3</title>
<path fill="none" stroke="#191970" d="M1212.6905,-123.1598C1196.5094,-101.6281 1167.0243,-64.1539 1151.9828,-56 1051.3595,-1.4528 1008.8497,-44.2123 896.9828,-20 895.9004,-19.7657 894.8021,-19.5149 893.6955,-19.2512"/>
<polygon fill="#191970" stroke="#191970" points="894.279,-15.7854 883.717,-16.6195 892.4938,-22.554 894.279,-15.7854"/>
</g>
<!-- Node28&#45;&gt;Node5 -->
<g id="edge58" class="edge">
<title>Node28&#45;&gt;Node5</title>
<path fill="none" stroke="#191970" d="M1154.3205,-124.1568C1151.5094,-123.7366 1148.7221,-123.3482 1145.9828,-123 1005.9935,-105.2045 643.523,-138.0965 511.9828,-87 491.6659,-79.1079 491.9993,-68.2666 473.9828,-56 456.7259,-44.2505 436.2448,-32.7594 420.0684,-24.2013"/>
<polygon fill="#191970" stroke="#191970" points="421.5833,-21.0439 411.0984,-19.5215 418.3454,-27.2501 421.5833,-21.0439"/>
</g>
<!-- Node28&#45;&gt;Node13 -->
<g id="edge59" class="edge">
<title>Node28&#45;&gt;Node13</title>
<path fill="none" stroke="#191970" d="M1221.1171,-123.4739C1216.7237,-104.7123 1206.4658,-73.0197 1184.9828,-56 1173.2806,-46.729 1095.5834,-31.6095 1036.9248,-21.2524"/>
<polygon fill="#191970" stroke="#191970" points="1037.406,-17.7835 1026.952,-19.5048 1036.1977,-24.6785 1037.406,-17.7835"/>
</g>
<!-- Node28&#45;&gt;Node19 -->
<g id="edge50" class="edge">
<title>Node28&#45;&gt;Node19</title>
<path fill="none" stroke="#191970" d="M1273.1307,-123.4639C1311.9776,-111.5792 1365.5621,-95.1858 1402.0895,-84.0108"/>
<polygon fill="#191970" stroke="#191970" points="1403.3748,-87.2777 1411.9133,-81.0053 1401.3268,-80.584 1403.3748,-87.2777"/>
</g>
<!-- Node29 -->
<g id="node30" class="node">
<title>Node29</title>
<g id="a_node30"><a xlink:href="_coll_mgr_8_h.html" target="_top" xlink:title="amr&#45;wind/core/CollMgr.H">
<polygon fill="#ffffff" stroke="#000000" points="1237.4828,-62 1237.4828,-81 1362.4828,-81 1362.4828,-62 1237.4828,-62"/>
<text text-anchor="middle" x="1299.9828" y="-69" font-family="Helvetica,sans-Serif" font-size="10.00" fill="#000000">amr&#45;wind/core/CollMgr.H</text>
</a>
</g>
</g>
<!-- Node28&#45;&gt;Node29 -->
<g id="edge51" class="edge">
<title>Node28&#45;&gt;Node29</title>
<path fill="none" stroke="#191970" d="M1241.2284,-123.2967C1253.1845,-112.7564 1269.0948,-98.7303 1281.3432,-87.9323"/>
<polygon fill="#191970" stroke="#191970" points="1283.9576,-90.2934 1289.1443,-81.055 1279.3285,-85.0425 1283.9576,-90.2934"/>
</g>
<!-- Node31 -->
<g id="node32" class="node">
<title>Node31</title>
<g id="a_node32"><a xlink:href="_p_d_e_fields_8_h.html" target="_top" xlink:title="amr&#45;wind/equation_systems\l/PDEFields.H">
<polygon fill="#ffffff" stroke="#000000" points="1523.4828,-56.5 1523.4828,-86.5 1662.4828,-86.5 1662.4828,-56.5 1523.4828,-56.5"/>
<text text-anchor="start" x="1531.4828" y="-74.5" font-family="Helvetica,sans-Serif" font-size="10.00" fill="#000000">amr&#45;wind/equation_systems</text>
<text text-anchor="middle" x="1592.9828" y="-63.5" font-family="Helvetica,sans-Serif" font-size="10.00" fill="#000000">/PDEFields.H</text>
</a>
</g>
</g>
<!-- Node28&#45;&gt;Node31 -->
<g id="edge56" class="edge">
<title>Node28&#45;&gt;Node31</title>
<path fill="none" stroke="#191970" d="M1293.7327,-126.5793C1350.4247,-116.7928 1432.7381,-102.3635 1513.4257,-87.2745"/>
<polygon fill="#191970" stroke="#191970" points="1514.0721,-90.7144 1523.2557,-85.4314 1512.782,-83.8343 1514.0721,-90.7144"/>
</g>
<!-- Node29&#45;&gt;Node3 -->
<g id="edge52" class="edge">
<title>Node29&#45;&gt;Node3</title>
<path fill="none" stroke="#191970" d="M1237.3284,-62.944C1220.3469,-60.6554 1201.9641,-58.2057 1184.9828,-56 1057.0613,-39.3845 1023.2726,-46.285 896.9828,-20 895.8986,-19.7743 894.7987,-19.531 893.6907,-19.2735"/>
<polygon fill="#191970" stroke="#191970" points="894.265,-15.8064 883.7057,-16.6729 892.5007,-22.5804 894.265,-15.8064"/>
</g>
<!-- Node29&#45;&gt;Node4 -->
<g id="edge54" class="edge">
<title>Node29&#45;&gt;Node4</title>
<path fill="none" stroke="#191970" d="M1268.1078,-61.8906C1232.9269,-51.2846 1176.174,-34.1753 1137.5313,-22.5257"/>
<polygon fill="#191970" stroke="#191970" points="1138.2186,-19.0773 1127.634,-19.5419 1136.1981,-25.7794 1138.2186,-19.0773"/>
</g>
<!-- Node29&#45;&gt;Node10 -->
<g id="edge53" class="edge">
<title>Node29&#45;&gt;Node10</title>
<path fill="none" stroke="#191970" d="M1299.3578,-61.8906C1298.8034,-53.3657 1297.9756,-40.6392 1297.2787,-29.9235"/>
<polygon fill="#191970" stroke="#191970" points="1300.7584,-29.4966 1296.6166,-19.7449 1293.7731,-29.951 1300.7584,-29.4966"/>
</g>
<!-- Node30 -->
<g id="node31" class="node">
<title>Node30</title>
<polygon fill="#ffffff" stroke="#bfbfbf" points="1156.4828,-.5 1156.4828,-19.5 1251.4828,-19.5 1251.4828,-.5 1156.4828,-.5"/>
<text text-anchor="middle" x="1203.9828" y="-7.5" font-family="Helvetica,sans-Serif" font-size="10.00" fill="#000000">AMReX_Vector.H</text>
</g>
<!-- Node29&#45;&gt;Node30 -->
<g id="edge55" class="edge">
<title>Node29&#45;&gt;Node30</title>
<path fill="none" stroke="#191970" d="M1284.9828,-61.8906C1269.6248,-52.0519 1245.5308,-36.6167 1227.6083,-25.1351"/>
<polygon fill="#191970" stroke="#191970" points="1229.1858,-21.9891 1218.8775,-19.5419 1225.4098,-27.8833 1229.1858,-21.9891"/>
</g>
<!-- Node32 -->
<g id="node33" class="node">
<title>Node32</title>
<polygon fill="#ffffff" stroke="#bfbfbf" points="1597.4828,-.5 1597.4828,-19.5 1642.4828,-19.5 1642.4828,-.5 1597.4828,-.5"/>
<text text-anchor="middle" x="1619.9828" y="-7.5" font-family="Helvetica,sans-Serif" font-size="10.00" fill="#000000">iosfwd</text>
</g>
<!-- Node31&#45;&gt;Node32 -->
<g id="edge57" class="edge">
<title>Node31&#45;&gt;Node32</title>
<path fill="none" stroke="#191970" d="M1599.657,-56.2977C1603.2487,-48.1166 1607.7152,-37.943 1611.5457,-29.2179"/>
<polygon fill="#191970" stroke="#191970" points="1614.8446,-30.4104 1615.6598,-19.8469 1608.4351,-27.5964 1614.8446,-30.4104"/>
</g>
<!-- Node33&#45;&gt;Node7 -->
<g id="edge63" class="edge">
<title>Node33&#45;&gt;Node7</title>
<path fill="none" stroke="#191970" d="M1009.2449,-136.6549C837.4178,-131.3363 373.2782,-114.5686 309.9828,-87 291.5338,-78.9644 291.721,-69.7013 276.9828,-56 266.5594,-46.3099 254.8546,-35.5357 245.3917,-26.8518"/>
<polygon fill="#191970" stroke="#191970" points="247.4778,-24.0161 237.7414,-19.8384 242.7475,-29.1759 247.4778,-24.0161"/>
</g>
<!-- Node33&#45;&gt;Node19 -->
<g id="edge61" class="edge">
<title>Node33&#45;&gt;Node19</title>
<path fill="none" stroke="#191970" d="M1116.1427,-128.9533C1125.9348,-126.894 1136.3016,-124.7976 1145.9828,-123 1245.9843,-104.4313 1272.0348,-105.8544 1371.9828,-87 1378.1663,-85.8335 1384.6354,-84.5332 1391.044,-83.1956"/>
<polygon fill="#191970" stroke="#191970" points="1391.9611,-86.5789 1401.0151,-81.0766 1390.506,-79.7318 1391.9611,-86.5789"/>
</g>
<!-- Node33&#45;&gt;Node29 -->
<g id="edge62" class="edge">
<title>Node33&#45;&gt;Node29</title>
<path fill="none" stroke="#191970" d="M1105.5064,-128.9005C1145.5406,-117.0843 1213.6209,-96.9901 1257.6844,-83.9845"/>
<polygon fill="#191970" stroke="#191970" points="1258.9194,-87.2694 1267.5196,-81.0817 1256.9378,-80.5557 1258.9194,-87.2694"/>
</g>
<!-- Node34 -->
<g id="node35" class="node">
<title>Node34</title>
<polygon fill="#ffffff" stroke="#bfbfbf" points="1032.9828,-62 1032.9828,-81 1142.9828,-81 1142.9828,-62 1032.9828,-62"/>
<text text-anchor="middle" x="1087.9828" y="-69" font-family="Helvetica,sans-Serif" font-size="10.00" fill="#000000">AMReX_Geometry.H</text>
</g>
<!-- Node33&#45;&gt;Node34 -->
<g id="edge64" class="edge">
<title>Node33&#45;&gt;Node34</title>
<path fill="none" stroke="#191970" d="M1075.132,-128.9005C1077.3374,-119.0495 1080.8309,-103.4451 1083.6191,-90.9912"/>
<polygon fill="#191970" stroke="#191970" points="1087.0683,-91.6048 1085.8377,-81.0817 1080.2374,-90.0754 1087.0683,-91.6048"/>
</g>
</g>
</svg>
        <g id="navigator" transform="translate(0 0)" fill="#404254">
                <rect fill="#f2f5e9" fill-opacity="0.5" stroke="#606060" stroke-width=".5" x="0" y="0" width="60" height="60"/>
                <use id="zoomplus" xlink:href="#zoomPlus" x="17" y="9" onmousedown="handleZoom(evt,'in')"/>
                <use id="zoomminus" xlink:href="#zoomMin" x="42" y="9" onmousedown="handleZoom(evt,'out')"/>
                <use id="reset" xlink:href="#resetDef" x="30" y="36" onmousedown="handleReset()"/>
                <g id="arrowUp" xlink:href="#dirArrow" transform="translate(30 24)" onmousedown="handlePan(0,-1)">
                  <use xlink:href="#rim" fill="#404040">
                        <set attributeName="fill" to="#808080" begin="arrowUp.mouseover" end="arrowUp.mouseout"/>
                  </use>
                  <path fill="none" stroke="white" stroke-width="1.5" d="M0,-3.0v7 M-2.5,-0.5L0,-3.0L2.5,-0.5"/>
                </g>
                <g id="arrowRight" xlink:href="#dirArrow" transform="rotate(90) translate(36 -43)" onmousedown="handlePan(1,0)">
                  <use xlink:href="#rim" fill="#404040">
                        <set attributeName="fill" to="#808080" begin="arrowRight.mouseover" end="arrowRight.mouseout"/>
                  </use>
                  <path fill="none" stroke="white" stroke-width="1.5" d="M0,-3.0v7 M-2.5,-0.5L0,-3.0L2.5,-0.5"/>
                </g>
                <g id="arrowDown" xlink:href="#dirArrow" transform="rotate(180) translate(-30 -48)" onmousedown="handlePan(0,1)">
                  <use xlink:href="#rim" fill="#404040">
                        <set attributeName="fill" to="#808080" begin="arrowDown.mouseover" end="arrowDown.mouseout"/>
                  </use>
                  <path fill="none" stroke="white" stroke-width="1.5" d="M0,-3.0v7 M-2.5,-0.5L0,-3.0L2.5,-0.5"/>
                </g>
                <g id="arrowLeft" xlink:href="#dirArrow" transform="rotate(270) translate(-36 17)" onmousedown="handlePan(-1,0)">
                  <use xlink:href="#rim" fill="#404040">
                        <set attributeName="fill" to="#808080" begin="arrowLeft.mouseover" end="arrowLeft.mouseout"/>
                  </use>
                  <path fill="none" stroke="white" stroke-width="1.5" d="M0,-3.0v7 M-2.5,-0.5L0,-3.0L2.5,-0.5"/>
                </g>
        </g>
        <svg viewBox="0 0 15 15" width="100%" height="30px" preserveAspectRatio="xMaxYMin meet">
         <g id="arrow_out" transform="scale(0.3 0.3)">
          <a xlink:href="_boussinesq_buoyancy_8cpp__incl_org.svg" target="_base">
           <rect id="button" ry="5" rx="5" y="6" x="6" height="38" width="38"
                fill="#f2f5e9" fill-opacity="0.5" stroke="#606060" stroke-width="1.0"/>
           <path id="arrow"
             d="M 11.500037,31.436501 C 11.940474,20.09759 22.043105,11.32322 32.158766,21.979434 L 37.068811,17.246167 C 37.068811,17.246167 37.088388,32 37.088388,32 L 22.160133,31.978069 C 22.160133,31.978069 26.997745,27.140456 26.997745,27.140456 C 18.528582,18.264221 13.291696,25.230495 11.500037,31.436501 z"
             style="fill:#404040;"/>
          </a>
         </g>
        </svg>
</svg>
