<?xml version="1.0" encoding="UTF-8" standalone="no"?>
<!DOCTYPE svg PUBLIC "-//W3C//DTD SVG 1.1//EN"
 "http://www.w3.org/Graphics/SVG/1.1/DTD/svg11.dtd">
<!-- Generated by graphviz version 2.40.1 (20161225.0304)
 -->
<!-- Title: BoussinesqBubble.cpp Pages: 1 -->
<svg width="2711pt" height="419pt"
 viewBox="0.00 0.00 2711.27 419.00" xmlns="http://www.w3.org/2000/svg" xmlns:xlink="http://www.w3.org/1999/xlink">
<g id="graph0" class="graph" transform="scale(1 1) rotate(0) translate(4 415)">
<title>BoussinesqBubble.cpp</title>
<polygon fill="#ffffff" stroke="transparent" points="-4,4 -4,-415 2707.2654,-415 2707.2654,4 -4,4"/>
<!-- Node0 -->
<g id="node1" class="node">
<title>Node0</title>
<polygon fill="#bfbfbf" stroke="#000000" points="1082.5,-391.5 1082.5,-410.5 1198.5,-410.5 1198.5,-391.5 1082.5,-391.5"/>
<text text-anchor="middle" x="1140.5" y="-398.5" font-family="Helvetica,sans-Serif" font-size="10.00" fill="#000000">BoussinesqBubble.cpp</text>
</g>
<!-- Node1 -->
<g id="node2" class="node">
<title>Node1</title>
<g id="a_node2"><a xlink:href="_boussinesq_bubble_8_h.html" target="_top" xlink:title="amr&#45;wind/physics/Boussinesq\lBubble.H">
<polygon fill="#ffffff" stroke="#000000" points="831,-190.5 831,-220.5 978,-220.5 978,-190.5 831,-190.5"/>
<text text-anchor="start" x="839" y="-208.5" font-family="Helvetica,sans-Serif" font-size="10.00" fill="#000000">amr&#45;wind/physics/Boussinesq</text>
<text text-anchor="middle" x="904.5" y="-197.5" font-family="Helvetica,sans-Serif" font-size="10.00" fill="#000000">Bubble.H</text>
</a>
</g>
</g>
<!-- Node0&#45;&gt;Node1 -->
<g id="edge1" class="edge">
<title>Node0&#45;&gt;Node1</title>
<path fill="none" stroke="#191970" d="M1128.7967,-391.3051C1092.5864,-361.3089 981.7538,-269.4963 930.7222,-227.2222"/>
<polygon fill="#191970" stroke="#191970" points="932.7123,-224.3258 922.7785,-220.6418 928.2467,-229.7165 932.7123,-224.3258"/>
</g>
<!-- Node14 -->
<g id="node15" class="node">
<title>Node14</title>
<g id="a_node15"><a xlink:href="_boussinesq_bubble_field_init_8_h.html" target="_top" xlink:title="amr&#45;wind/physics/Boussinesq\lBubbleFieldInit.H">
<polygon fill="#ffffff" stroke="#000000" points="1941,-123.5 1941,-153.5 2088,-153.5 2088,-123.5 1941,-123.5"/>
<text text-anchor="start" x="1949" y="-141.5" font-family="Helvetica,sans-Serif" font-size="10.00" fill="#000000">amr&#45;wind/physics/Boussinesq</text>
<text text-anchor="middle" x="2014.5" y="-130.5" font-family="Helvetica,sans-Serif" font-size="10.00" fill="#000000">BubbleFieldInit.H</text>
</a>
</g>
</g>
<!-- Node0&#45;&gt;Node14 -->
<g id="edge33" class="edge">
<title>Node0&#45;&gt;Node14</title>
<path fill="none" stroke="#191970" d="M1172.3821,-391.4244C1301.2137,-352.7307 1784.5642,-207.5597 1954.7546,-156.4441"/>
<polygon fill="#191970" stroke="#191970" points="1955.9767,-159.7316 1964.5473,-153.503 1953.9631,-153.0274 1955.9767,-159.7316"/>
</g>
<!-- Node24 -->
<g id="node25" class="node">
<title>Node24</title>
<g id="a_node25"><a xlink:href="_c_f_d_sim_8_h.html" target="_top" xlink:title="amr&#45;wind/CFDSim.H">
<polygon fill="#ffffff" stroke="#000000" points="1023.5,-196 1023.5,-215 1131.5,-215 1131.5,-196 1023.5,-196"/>
<text text-anchor="middle" x="1077.5" y="-203" font-family="Helvetica,sans-Serif" font-size="10.00" fill="#000000">amr&#45;wind/CFDSim.H</text>
</a>
</g>
</g>
<!-- Node0&#45;&gt;Node24 -->
<g id="edge34" class="edge">
<title>Node0&#45;&gt;Node24</title>
<path fill="none" stroke="#191970" d="M1134.9745,-391.3882C1129.9001,-382.2561 1122.4399,-368.0234 1117.5,-355 1100.3394,-309.758 1087.5275,-254.1831 1081.4385,-225.2039"/>
<polygon fill="#191970" stroke="#191970" points="1084.8151,-224.247 1079.3746,-215.1557 1077.9582,-225.6555 1084.8151,-224.247"/>
</g>
<!-- Node39 -->
<g id="node40" class="node">
<title>Node39</title>
<g id="a_node40"><a xlink:href="_a_b_l_wall_function_8_h.html" target="_top" xlink:title="amr&#45;wind/wind_energy\l/ABLWallFunction.H">
<polygon fill="#ffffff" stroke="#000000" points="1126.5,-324.5 1126.5,-354.5 1240.5,-354.5 1240.5,-324.5 1126.5,-324.5"/>
<text text-anchor="start" x="1134.5" y="-342.5" font-family="Helvetica,sans-Serif" font-size="10.00" fill="#000000">amr&#45;wind/wind_energy</text>
<text text-anchor="middle" x="1183.5" y="-331.5" font-family="Helvetica,sans-Serif" font-size="10.00" fill="#000000">/ABLWallFunction.H</text>
</a>
</g>
</g>
<!-- Node0&#45;&gt;Node39 -->
<g id="edge71" class="edge">
<title>Node0&#45;&gt;Node39</title>
<path fill="none" stroke="#191970" d="M1147.2188,-391.3906C1152.5533,-383.761 1160.241,-372.7658 1167.1679,-362.8588"/>
<polygon fill="#191970" stroke="#191970" points="1170.1192,-364.7456 1172.981,-354.5446 1164.3824,-360.7345 1170.1192,-364.7456"/>
</g>
<!-- Node2 -->
<g id="node3" class="node">
<title>Node2</title>
<g id="a_node3"><a xlink:href="_physics_8_h.html" target="_top" xlink:title="amr&#45;wind/core/Physics.H">
<polygon fill="#ffffff" stroke="#000000" points="787,-129 787,-148 914,-148 914,-129 787,-129"/>
<text text-anchor="middle" x="850.5" y="-136" font-family="Helvetica,sans-Serif" font-size="10.00" fill="#000000">amr&#45;wind/core/Physics.H</text>
</a>
</g>
</g>
<!-- Node1&#45;&gt;Node2 -->
<g id="edge2" class="edge">
<title>Node1&#45;&gt;Node2</title>
<path fill="none" stroke="#191970" d="M892.2466,-190.2967C883.9965,-180.0605 873.0966,-166.5366 864.5034,-155.8746"/>
<polygon fill="#191970" stroke="#191970" points="867.2014,-153.6446 858.201,-148.055 861.7512,-158.0373 867.2014,-153.6446"/>
</g>
<!-- Node1&#45;&gt;Node14 -->
<g id="edge16" class="edge">
<title>Node1&#45;&gt;Node14</title>
<path fill="none" stroke="#191970" d="M978.0593,-194.2169C990.2112,-192.6171 1002.6935,-191.1336 1014.5,-190 1059.7386,-185.6564 1698.4792,-154.0379 1930.7981,-142.6082"/>
<polygon fill="#191970" stroke="#191970" points="1931.0705,-146.0992 1940.8865,-142.112 1930.7266,-139.1076 1931.0705,-146.0992"/>
</g>
<!-- Node20 -->
<g id="node21" class="node">
<title>Node20</title>
<g id="a_node21"><a xlink:href="_field_8_h.html" target="_top" xlink:title="amr&#45;wind/core/Field.H">
<polygon fill="#ffffff" stroke="#000000" points="606,-62 606,-81 719,-81 719,-62 606,-62"/>
<text text-anchor="middle" x="662.5" y="-69" font-family="Helvetica,sans-Serif" font-size="10.00" fill="#000000">amr&#45;wind/core/Field.H</text>
</a>
</g>
</g>
<!-- Node1&#45;&gt;Node20 -->
<g id="edge24" class="edge">
<title>Node1&#45;&gt;Node20</title>
<path fill="none" stroke="#191970" d="M860.1187,-190.4511C835.1775,-181.2744 803.8584,-168.5291 777.5,-154 741.7854,-134.3136 704.0435,-105.4773 681.9142,-87.6297"/>
<polygon fill="#191970" stroke="#191970" points="683.9301,-84.7574 673.9683,-81.1502 679.5063,-90.1824 683.9301,-84.7574"/>
</g>
<!-- Node3 -->
<g id="node4" class="node">
<title>Node3</title>
<g id="a_node4"><a xlink:href="_factory_8_h.html" target="_top" xlink:title="amr&#45;wind/core/Factory.H">
<polygon fill="#ffffff" stroke="#000000" points="204,-62 204,-81 329,-81 329,-62 204,-62"/>
<text text-anchor="middle" x="266.5" y="-69" font-family="Helvetica,sans-Serif" font-size="10.00" fill="#000000">amr&#45;wind/core/Factory.H</text>
</a>
</g>
</g>
<!-- Node2&#45;&gt;Node3 -->
<g id="edge3" class="edge">
<title>Node2&#45;&gt;Node3</title>
<path fill="none" stroke="#191970" d="M786.89,-131.2023C677.5567,-118.6589 454.6487,-93.0856 339.2923,-79.8512"/>
<polygon fill="#191970" stroke="#191970" points="339.4814,-76.35 329.1476,-78.6873 338.6835,-83.3044 339.4814,-76.35"/>
</g>
<!-- Node9 -->
<g id="node10" class="node">
<title>Node9</title>
<g id="a_node10"><a xlink:href="_coll_mgr_8_h.html" target="_top" xlink:title="amr&#45;wind/core/CollMgr.H">
<polygon fill="#ffffff" stroke="#000000" points="424,-62 424,-81 549,-81 549,-62 424,-62"/>
<text text-anchor="middle" x="486.5" y="-69" font-family="Helvetica,sans-Serif" font-size="10.00" fill="#000000">amr&#45;wind/core/CollMgr.H</text>
</a>
</g>
</g>
<!-- Node2&#45;&gt;Node9 -->
<g id="edge9" class="edge">
<title>Node2&#45;&gt;Node9</title>
<path fill="none" stroke="#191970" d="M795.4166,-128.9711C737.592,-118.8847 644.0615,-102.3348 563.5,-87 556.8398,-85.7322 549.8623,-84.3723 542.9419,-83.0037"/>
<polygon fill="#191970" stroke="#191970" points="543.378,-79.522 532.8871,-81.0023 542.0114,-86.3873 543.378,-79.522"/>
</g>
<!-- Node12 -->
<g id="node13" class="node">
<title>Node12</title>
<polygon fill="#ffffff" stroke="#bfbfbf" points="941.5,-.5 941.5,-19.5 1045.5,-19.5 1045.5,-.5 941.5,-.5"/>
<text text-anchor="middle" x="993.5" y="-7.5" font-family="Helvetica,sans-Serif" font-size="10.00" fill="#000000">AMReX_MultiFab.H</text>
</g>
<!-- Node2&#45;&gt;Node12 -->
<g id="edge14" class="edge">
<title>Node2&#45;&gt;Node12</title>
<path fill="none" stroke="#191970" d="M837.8356,-128.7478C818.4766,-112.667 785.6539,-79.9832 804.5,-56 812.5369,-45.7724 879.3573,-31.1939 931.294,-21.2061"/>
<polygon fill="#191970" stroke="#191970" points="931.961,-24.6421 941.1306,-19.3346 930.6526,-17.7655 931.961,-24.6421"/>
</g>
<!-- Node13 -->
<g id="node14" class="node">
<title>Node13</title>
<polygon fill="#ffffff" stroke="#bfbfbf" points="2077.5,-62 2077.5,-81 2187.5,-81 2187.5,-62 2077.5,-62"/>
<text text-anchor="middle" x="2132.5" y="-69" font-family="Helvetica,sans-Serif" font-size="10.00" fill="#000000">AMReX_Geometry.H</text>
</g>
<!-- Node2&#45;&gt;Node13 -->
<g id="edge15" class="edge">
<title>Node2&#45;&gt;Node13</title>
<path fill="none" stroke="#191970" d="M914.2936,-131.5726C944.6168,-128.5099 981.3934,-125.1279 1014.5,-123 1482.2524,-92.9349 1604.1026,-150.4923 2068.5,-87 2075.1971,-86.0844 2082.2145,-84.7649 2089.0471,-83.277"/>
<polygon fill="#191970" stroke="#191970" points="2089.9135,-86.669 2098.8665,-81.0039 2088.3348,-79.8494 2089.9135,-86.669"/>
</g>
<!-- Node4 -->
<g id="node5" class="node">
<title>Node4</title>
<polygon fill="#ffffff" stroke="#bfbfbf" points="321.5,-.5 321.5,-19.5 373.5,-19.5 373.5,-.5 321.5,-.5"/>
<text text-anchor="middle" x="347.5" y="-7.5" font-family="Helvetica,sans-Serif" font-size="10.00" fill="#000000">memory</text>
</g>
<!-- Node3&#45;&gt;Node4 -->
<g id="edge4" class="edge">
<title>Node3&#45;&gt;Node4</title>
<path fill="none" stroke="#191970" d="M279.1563,-61.8906C291.8768,-52.2324 311.7004,-37.1812 326.7284,-25.771"/>
<polygon fill="#191970" stroke="#191970" points="329.0846,-28.3766 334.9326,-19.5419 324.8516,-22.8015 329.0846,-28.3766"/>
</g>
<!-- Node5 -->
<g id="node6" class="node">
<title>Node5</title>
<polygon fill="#ffffff" stroke="#bfbfbf" points="392,-.5 392,-19.5 475,-19.5 475,-.5 392,-.5"/>
<text text-anchor="middle" x="433.5" y="-7.5" font-family="Helvetica,sans-Serif" font-size="10.00" fill="#000000">unordered_map</text>
</g>
<!-- Node3&#45;&gt;Node5 -->
<g id="edge5" class="edge">
<title>Node3&#45;&gt;Node5</title>
<path fill="none" stroke="#191970" d="M292.5938,-61.8906C320.9036,-51.4652 366.2768,-34.7559 397.8592,-23.1252"/>
<polygon fill="#191970" stroke="#191970" points="399.4151,-26.2821 407.5895,-19.5419 396.996,-19.7133 399.4151,-26.2821"/>
</g>
<!-- Node6 -->
<g id="node7" class="node">
<title>Node6</title>
<polygon fill="#ffffff" stroke="#bfbfbf" points="63.5,-.5 63.5,-19.5 117.5,-19.5 117.5,-.5 63.5,-.5"/>
<text text-anchor="middle" x="90.5" y="-7.5" font-family="Helvetica,sans-Serif" font-size="10.00" fill="#000000">iostream</text>
</g>
<!-- Node3&#45;&gt;Node6 -->
<g id="edge6" class="edge">
<title>Node3&#45;&gt;Node6</title>
<path fill="none" stroke="#191970" d="M239,-61.8906C208.9477,-51.3894 160.6502,-34.5127 127.3384,-22.8725"/>
<polygon fill="#191970" stroke="#191970" points="128.113,-19.4357 117.5182,-19.441 125.8039,-26.0439 128.113,-19.4357"/>
</g>
<!-- Node7 -->
<g id="node8" class="node">
<title>Node7</title>
<polygon fill="#ffffff" stroke="#bfbfbf" points="136,-.5 136,-19.5 223,-19.5 223,-.5 136,-.5"/>
<text text-anchor="middle" x="179.5" y="-7.5" font-family="Helvetica,sans-Serif" font-size="10.00" fill="#000000">AMReX_Print.H</text>
</g>
<!-- Node3&#45;&gt;Node7 -->
<g id="edge7" class="edge">
<title>Node3&#45;&gt;Node7</title>
<path fill="none" stroke="#191970" d="M252.9063,-61.8906C239.1157,-52.1421 217.5528,-36.8994 201.359,-25.4521"/>
<polygon fill="#191970" stroke="#191970" points="203.1844,-22.4563 192.9983,-19.5419 199.1437,-28.1723 203.1844,-22.4563"/>
</g>
<!-- Node8 -->
<g id="node9" class="node">
<title>Node8</title>
<polygon fill="#ffffff" stroke="#bfbfbf" points="241.5,-.5 241.5,-19.5 303.5,-19.5 303.5,-.5 241.5,-.5"/>
<text text-anchor="middle" x="272.5" y="-7.5" font-family="Helvetica,sans-Serif" font-size="10.00" fill="#000000">AMReX.H</text>
</g>
<!-- Node3&#45;&gt;Node8 -->
<g id="edge8" class="edge">
<title>Node3&#45;&gt;Node8</title>
<path fill="none" stroke="#191970" d="M267.4375,-61.8906C268.2692,-53.3657 269.5108,-40.6392 270.5562,-29.9235"/>
<polygon fill="#191970" stroke="#191970" points="274.0617,-30.0375 271.5493,-19.7449 267.0947,-29.3577 274.0617,-30.0375"/>
</g>
<!-- Node9&#45;&gt;Node4 -->
<g id="edge11" class="edge">
<title>Node9&#45;&gt;Node4</title>
<path fill="none" stroke="#191970" d="M464.7813,-61.8906C441.626,-51.6457 404.7559,-35.3326 378.5409,-23.7339"/>
<polygon fill="#191970" stroke="#191970" points="379.6273,-20.3874 369.0662,-19.5419 376.795,-26.7888 379.6273,-20.3874"/>
</g>
<!-- Node9&#45;&gt;Node5 -->
<g id="edge12" class="edge">
<title>Node9&#45;&gt;Node5</title>
<path fill="none" stroke="#191970" d="M478.2188,-61.8906C470.3307,-52.7376 458.2686,-38.7409 448.6588,-27.59"/>
<polygon fill="#191970" stroke="#191970" points="451.0775,-25.0352 441.898,-19.7449 445.7749,-29.6049 451.0775,-25.0352"/>
</g>
<!-- Node10 -->
<g id="node11" class="node">
<title>Node10</title>
<polygon fill="#ffffff" stroke="#bfbfbf" points="757,-.5 757,-19.5 798,-19.5 798,-.5 757,-.5"/>
<text text-anchor="middle" x="777.5" y="-7.5" font-family="Helvetica,sans-Serif" font-size="10.00" fill="#000000">string</text>
</g>
<!-- Node9&#45;&gt;Node10 -->
<g id="edge10" class="edge">
<title>Node9&#45;&gt;Node10</title>
<path fill="none" stroke="#191970" d="M546.0743,-61.9635C597.0088,-53.3081 672.3633,-39.3164 746.9127,-19.8835"/>
<polygon fill="#191970" stroke="#191970" points="748.1724,-23.1709 756.9469,-17.2331 746.3846,-16.403 748.1724,-23.1709"/>
</g>
<!-- Node11 -->
<g id="node12" class="node">
<title>Node11</title>
<polygon fill="#ffffff" stroke="#bfbfbf" points="1064,-.5 1064,-19.5 1159,-19.5 1159,-.5 1064,-.5"/>
<text text-anchor="middle" x="1111.5" y="-7.5" font-family="Helvetica,sans-Serif" font-size="10.00" fill="#000000">AMReX_Vector.H</text>
</g>
<!-- Node9&#45;&gt;Node11 -->
<g id="edge13" class="edge">
<title>Node9&#45;&gt;Node11</title>
<path fill="none" stroke="#191970" d="M549.2402,-61.9796C564.6697,-59.826 581.1632,-57.6817 596.5,-56 796.1964,-34.1031 850.2067,-45.295 1053.8391,-19.9625"/>
<polygon fill="#191970" stroke="#191970" points="1054.4808,-23.4094 1063.9656,-18.6882 1053.6068,-16.4642 1054.4808,-23.4094"/>
</g>
<!-- Node14&#45;&gt;Node11 -->
<g id="edge22" class="edge">
<title>Node14&#45;&gt;Node11</title>
<path fill="none" stroke="#191970" d="M1998.9281,-123.4821C1975.163,-100.7268 1931.63,-59.7461 1922.5,-56 1770.1885,6.4944 1351.1591,-36.8531 1169.0901,-19.8297"/>
<polygon fill="#191970" stroke="#191970" points="1169.326,-16.3356 1159.0213,-18.7983 1168.6126,-23.2992 1169.326,-16.3356"/>
</g>
<!-- Node14&#45;&gt;Node13 -->
<g id="edge20" class="edge">
<title>Node14&#45;&gt;Node13</title>
<path fill="none" stroke="#191970" d="M2040.9815,-123.4639C2060.602,-112.3234 2087.2,-97.2212 2106.6649,-86.1691"/>
<polygon fill="#191970" stroke="#191970" points="2108.6178,-89.0851 2115.5856,-81.1039 2105.1615,-82.9979 2108.6178,-89.0851"/>
</g>
<!-- Node15 -->
<g id="node16" class="node">
<title>Node15</title>
<polygon fill="#ffffff" stroke="#bfbfbf" points="1969.5,-62 1969.5,-81 2059.5,-81 2059.5,-62 1969.5,-62"/>
<text text-anchor="middle" x="2014.5" y="-69" font-family="Helvetica,sans-Serif" font-size="10.00" fill="#000000">AMReX_Array.H</text>
</g>
<!-- Node14&#45;&gt;Node15 -->
<g id="edge17" class="edge">
<title>Node14&#45;&gt;Node15</title>
<path fill="none" stroke="#191970" d="M2014.5,-123.2967C2014.5,-113.7699 2014.5,-101.3954 2014.5,-91.1306"/>
<polygon fill="#191970" stroke="#191970" points="2018.0001,-91.0549 2014.5,-81.055 2011.0001,-91.055 2018.0001,-91.0549"/>
</g>
<!-- Node16 -->
<g id="node17" class="node">
<title>Node16</title>
<polygon fill="#ffffff" stroke="#bfbfbf" points="2206,-62 2206,-81 2301,-81 2301,-62 2206,-62"/>
<text text-anchor="middle" x="2253.5" y="-69" font-family="Helvetica,sans-Serif" font-size="10.00" fill="#000000">AMReX_Array4.H</text>
</g>
<!-- Node14&#45;&gt;Node16 -->
<g id="edge18" class="edge">
<title>Node14&#45;&gt;Node16</title>
<path fill="none" stroke="#191970" d="M2068.1363,-123.4639C2110.8932,-111.4776 2170.0097,-94.9052 2209.8901,-83.7254"/>
<polygon fill="#191970" stroke="#191970" points="2210.9091,-87.0747 2219.5931,-81.0053 2209.0195,-80.3346 2210.9091,-87.0747"/>
</g>
<!-- Node17 -->
<g id="node18" class="node">
<title>Node17</title>
<polygon fill="#ffffff" stroke="#bfbfbf" points="2319.5,-62 2319.5,-81 2403.5,-81 2403.5,-62 2319.5,-62"/>
<text text-anchor="middle" x="2361.5" y="-69" font-family="Helvetica,sans-Serif" font-size="10.00" fill="#000000">AMReX_Box.H</text>
</g>
<!-- Node14&#45;&gt;Node17 -->
<g id="edge19" class="edge">
<title>Node14&#45;&gt;Node17</title>
<path fill="none" stroke="#191970" d="M2088.3014,-128.2341C2148.497,-119.2454 2235.5265,-104.844 2310.5,-87 2314.3894,-86.0743 2318.4185,-85.0196 2322.4295,-83.9058"/>
<polygon fill="#191970" stroke="#191970" points="2323.6406,-87.199 2332.2723,-81.0553 2321.6933,-80.4753 2323.6406,-87.199"/>
</g>
<!-- Node18 -->
<g id="node19" class="node">
<title>Node18</title>
<polygon fill="#ffffff" stroke="#bfbfbf" points="1820,-62 1820,-81 1913,-81 1913,-62 1820,-62"/>
<text text-anchor="middle" x="1866.5" y="-69" font-family="Helvetica,sans-Serif" font-size="10.00" fill="#000000">AMReX_REAL.H</text>
</g>
<!-- Node14&#45;&gt;Node18 -->
<g id="edge21" class="edge">
<title>Node14&#45;&gt;Node18</title>
<path fill="none" stroke="#191970" d="M1981.2859,-123.4639C1956.006,-112.0196 1921.4908,-96.3945 1896.9261,-85.274"/>
<polygon fill="#191970" stroke="#191970" points="1898.2681,-82.0396 1887.7146,-81.1039 1895.3812,-88.4166 1898.2681,-82.0396"/>
</g>
<!-- Node19 -->
<g id="node20" class="node">
<title>Node19</title>
<polygon fill="#ffffff" stroke="#bfbfbf" points="2484,-.5 2484,-19.5 2569,-19.5 2569,-.5 2484,-.5"/>
<text text-anchor="middle" x="2526.5" y="-7.5" font-family="Helvetica,sans-Serif" font-size="10.00" fill="#000000">AMReX_Gpu.H</text>
</g>
<!-- Node14&#45;&gt;Node19 -->
<g id="edge23" class="edge">
<title>Node14&#45;&gt;Node19</title>
<path fill="none" stroke="#191970" d="M2088.3342,-133.042C2186.6406,-125.0741 2354.8215,-108.8004 2412.5,-87 2449.9733,-72.8365 2487.2812,-44.1768 2508.5531,-26.0976"/>
<polygon fill="#191970" stroke="#191970" points="2510.8795,-28.7129 2516.1393,-19.5158 2506.2922,-23.4254 2510.8795,-28.7129"/>
</g>
<!-- Node20&#45;&gt;Node4 -->
<g id="edge26" class="edge">
<title>Node20&#45;&gt;Node4</title>
<path fill="none" stroke="#191970" d="M605.8567,-62.7281C551.2236,-53.8967 466.0501,-39.1567 383.5829,-20.0936"/>
<polygon fill="#191970" stroke="#191970" points="384.3361,-16.6753 373.8021,-17.809 382.7439,-23.4919 384.3361,-16.6753"/>
</g>
<!-- Node20&#45;&gt;Node5 -->
<g id="edge27" class="edge">
<title>Node20&#45;&gt;Node5</title>
<path fill="none" stroke="#191970" d="M626.7188,-61.8906C586.8064,-51.1718 522.1603,-33.8105 478.7628,-22.1557"/>
<polygon fill="#191970" stroke="#191970" points="479.5956,-18.7554 469.03,-19.5419 477.78,-25.5159 479.5956,-18.7554"/>
</g>
<!-- Node20&#45;&gt;Node10 -->
<g id="edge25" class="edge">
<title>Node20&#45;&gt;Node10</title>
<path fill="none" stroke="#191970" d="M680.4688,-61.8906C699.2884,-51.8262 729.0585,-35.9057 750.6641,-24.3514"/>
<polygon fill="#191970" stroke="#191970" points="752.4898,-27.3442 759.6574,-19.5419 749.1886,-21.1714 752.4898,-27.3442"/>
</g>
<!-- Node20&#45;&gt;Node12 -->
<g id="edge28" class="edge">
<title>Node20&#45;&gt;Node12</title>
<path fill="none" stroke="#191970" d="M713.8556,-61.9581C772.7689,-51.012 869.3065,-33.0752 932.1299,-21.4026"/>
<polygon fill="#191970" stroke="#191970" points="933.1039,-24.7816 942.2963,-19.5137 931.8252,-17.8994 933.1039,-24.7816"/>
</g>
<!-- Node20&#45;&gt;Node19 -->
<g id="edge30" class="edge">
<title>Node20&#45;&gt;Node19</title>
<path fill="none" stroke="#191970" d="M719.0666,-64.2493C745.0496,-61.1959 776.2937,-57.9129 804.5,-56 1140.9392,-33.1829 2220.8899,-14.8696 2473.3581,-10.8311"/>
<polygon fill="#191970" stroke="#191970" points="2473.7774,-14.3249 2483.7203,-10.6659 2473.6658,-7.3258 2473.7774,-14.3249"/>
</g>
<!-- Node21 -->
<g id="node22" class="node">
<title>Node21</title>
<polygon fill="#ffffff" stroke="#bfbfbf" points="640,-.5 640,-19.5 739,-19.5 739,-.5 640,-.5"/>
<text text-anchor="middle" x="689.5" y="-7.5" font-family="Helvetica,sans-Serif" font-size="10.00" fill="#000000">AMReX_BCRec.H</text>
</g>
<!-- Node20&#45;&gt;Node21 -->
<g id="edge29" class="edge">
<title>Node20&#45;&gt;Node21</title>
<path fill="none" stroke="#191970" d="M666.7188,-61.8906C670.5796,-53.0965 676.4034,-39.8312 681.1961,-28.9145"/>
<polygon fill="#191970" stroke="#191970" points="684.4066,-30.3083 685.2218,-19.7449 677.9971,-27.4943 684.4066,-30.3083"/>
</g>
<!-- Node22 -->
<g id="node23" class="node">
<title>Node22</title>
<g id="a_node23"><a xlink:href="incflo__enums_8_h.html" target="_top" xlink:title="amr&#45;wind/incflo_enums.H">
<polygon fill="#ffffff" stroke="#000000" points="493.5,-.5 493.5,-19.5 621.5,-19.5 621.5,-.5 493.5,-.5"/>
<text text-anchor="middle" x="557.5" y="-7.5" font-family="Helvetica,sans-Serif" font-size="10.00" fill="#000000">amr&#45;wind/incflo_enums.H</text>
</a>
</g>
</g>
<!-- Node20&#45;&gt;Node22 -->
<g id="edge31" class="edge">
<title>Node20&#45;&gt;Node22</title>
<path fill="none" stroke="#191970" d="M646.0938,-61.8906C629.0647,-51.9165 602.2159,-36.1908 582.5349,-24.6633"/>
<polygon fill="#191970" stroke="#191970" points="584.1888,-21.5759 573.791,-19.5419 580.651,-27.6161 584.1888,-21.5759"/>
</g>
<!-- Node23 -->
<g id="node24" class="node">
<title>Node23</title>
<g id="a_node24"><a xlink:href="_field_desc_types_8_h.html" target="_top" xlink:title="amr&#45;wind/core/FieldDescTypes.H">
<polygon fill="#ffffff" stroke="#000000" points="1177,-.5 1177,-19.5 1340,-19.5 1340,-.5 1177,-.5"/>
<text text-anchor="middle" x="1258.5" y="-7.5" font-family="Helvetica,sans-Serif" font-size="10.00" fill="#000000">amr&#45;wind/core/FieldDescTypes.H</text>
</a>
</g>
</g>
<!-- Node20&#45;&gt;Node23 -->
<g id="edge32" class="edge">
<title>Node20&#45;&gt;Node23</title>
<path fill="none" stroke="#191970" d="M719.1468,-65.1836C745.146,-62.3188 776.3806,-58.9251 804.5,-56 962.8785,-39.5246 1005.1045,-37.0731 1166.3042,-20.2215"/>
<polygon fill="#191970" stroke="#191970" points="1167.0073,-23.667 1176.588,-19.1438 1166.2777,-16.7052 1167.0073,-23.667"/>
</g>
<!-- Node24&#45;&gt;Node2 -->
<g id="edge70" class="edge">
<title>Node24&#45;&gt;Node2</title>
<path fill="none" stroke="#191970" d="M1044.9764,-195.9005C1004.9422,-184.0843 936.8619,-163.9901 892.7984,-150.9845"/>
<polygon fill="#191970" stroke="#191970" points="893.545,-147.5557 882.9632,-148.0817 891.5634,-154.2694 893.545,-147.5557"/>
</g>
<!-- Node25 -->
<g id="node26" class="node">
<title>Node25</title>
<polygon fill="#ffffff" stroke="#bfbfbf" points="1423.5,-62 1423.5,-81 1529.5,-81 1529.5,-62 1423.5,-62"/>
<text text-anchor="middle" x="1476.5" y="-69" font-family="Helvetica,sans-Serif" font-size="10.00" fill="#000000">AMReX_AmrCore.H</text>
</g>
<!-- Node24&#45;&gt;Node25 -->
<g id="edge35" class="edge">
<title>Node24&#45;&gt;Node25</title>
<path fill="none" stroke="#191970" d="M1105.8752,-195.9705C1176.2181,-172.3466 1358.7011,-111.0615 1438.3623,-84.3082"/>
<polygon fill="#191970" stroke="#191970" points="1439.6371,-87.5722 1448.0025,-81.0706 1437.4085,-80.9364 1439.6371,-87.5722"/>
</g>
<!-- Node26 -->
<g id="node27" class="node">
<title>Node26</title>
<g id="a_node27"><a xlink:href="_sim_time_8_h.html" target="_top" xlink:title="amr&#45;wind/core/SimTime.H">
<polygon fill="#ffffff" stroke="#000000" points="1545,-129 1545,-148 1676,-148 1676,-129 1545,-129"/>
<text text-anchor="middle" x="1610.5" y="-136" font-family="Helvetica,sans-Serif" font-size="10.00" fill="#000000">amr&#45;wind/core/SimTime.H</text>
</a>
</g>
</g>
<!-- Node24&#45;&gt;Node26 -->
<g id="edge36" class="edge">
<title>Node24&#45;&gt;Node26</title>
<path fill="none" stroke="#191970" d="M1131.5401,-198.707C1227.0118,-186.7058 1425.7138,-161.7283 1534.7872,-148.0174"/>
<polygon fill="#191970" stroke="#191970" points="1535.2492,-151.4869 1544.7346,-146.7669 1534.3761,-144.5416 1535.2492,-151.4869"/>
</g>
<!-- Node29 -->
<g id="node30" class="node">
<title>Node29</title>
<g id="a_node30"><a xlink:href="_field_repo_8_h.html" target="_top" xlink:title="amr&#45;wind/core/FieldRepo.H">
<polygon fill="#ffffff" stroke="#000000" points="1023.5,-129 1023.5,-148 1159.5,-148 1159.5,-129 1023.5,-129"/>
<text text-anchor="middle" x="1091.5" y="-136" font-family="Helvetica,sans-Serif" font-size="10.00" fill="#000000">amr&#45;wind/core/FieldRepo.H</text>
</a>
</g>
</g>
<!-- Node24&#45;&gt;Node29 -->
<g id="edge40" class="edge">
<title>Node24&#45;&gt;Node29</title>
<path fill="none" stroke="#191970" d="M1079.5059,-195.9005C1081.5643,-186.0495 1084.8249,-170.4451 1087.4272,-157.9912"/>
<polygon fill="#191970" stroke="#191970" points="1090.8784,-158.5862 1089.4979,-148.0817 1084.0264,-157.1543 1090.8784,-158.5862"/>
</g>
<!-- Node36 -->
<g id="node37" class="node">
<title>Node36</title>
<g id="a_node37"><a xlink:href="_p_d_e_base_8_h.html" target="_top" xlink:title="amr&#45;wind/equation_systems\l/PDEBase.H">
<polygon fill="#ffffff" stroke="#000000" points="326,-123.5 326,-153.5 465,-153.5 465,-123.5 326,-123.5"/>
<text text-anchor="start" x="334" y="-141.5" font-family="Helvetica,sans-Serif" font-size="10.00" fill="#000000">amr&#45;wind/equation_systems</text>
<text text-anchor="middle" x="395.5" y="-130.5" font-family="Helvetica,sans-Serif" font-size="10.00" fill="#000000">/PDEBase.H</text>
</a>
</g>
</g>
<!-- Node24&#45;&gt;Node36 -->
<g id="edge62" class="edge">
<title>Node24&#45;&gt;Node36</title>
<path fill="none" stroke="#191970" d="M1026.684,-195.9833C1013.9232,-193.8046 1000.2364,-191.6478 987.5,-190 805.0073,-166.3897 589.4278,-150.6793 475.4594,-143.322"/>
<polygon fill="#191970" stroke="#191970" points="475.6251,-139.8255 465.4217,-142.6787 475.1774,-146.8112 475.6251,-139.8255"/>
</g>
<!-- Node26&#45;&gt;Node18 -->
<g id="edge37" class="edge">
<title>Node26&#45;&gt;Node18</title>
<path fill="none" stroke="#191970" d="M1648.5225,-128.9259C1688.796,-118.7343 1754.2094,-102.0363 1810.5,-87 1814.502,-85.931 1818.6609,-84.8061 1822.8234,-83.6709"/>
<polygon fill="#191970" stroke="#191970" points="1823.7528,-87.0453 1832.4705,-81.0243 1821.9009,-80.2947 1823.7528,-87.0453"/>
</g>
<!-- Node27 -->
<g id="node28" class="node">
<title>Node27</title>
<polygon fill="#ffffff" stroke="#bfbfbf" points="1547.5,-62 1547.5,-81 1673.5,-81 1673.5,-62 1547.5,-62"/>
<text text-anchor="middle" x="1610.5" y="-69" font-family="Helvetica,sans-Serif" font-size="10.00" fill="#000000">AMReX_GpuQualifiers.H</text>
</g>
<!-- Node26&#45;&gt;Node27 -->
<g id="edge38" class="edge">
<title>Node26&#45;&gt;Node27</title>
<path fill="none" stroke="#191970" d="M1610.5,-128.9005C1610.5,-119.149 1610.5,-103.7597 1610.5,-91.3695"/>
<polygon fill="#191970" stroke="#191970" points="1614.0001,-91.0816 1610.5,-81.0817 1607.0001,-91.0817 1614.0001,-91.0816"/>
</g>
<!-- Node28 -->
<g id="node29" class="node">
<title>Node28</title>
<polygon fill="#ffffff" stroke="#bfbfbf" points="1691.5,-62 1691.5,-81 1801.5,-81 1801.5,-62 1691.5,-62"/>
<text text-anchor="middle" x="1746.5" y="-69" font-family="Helvetica,sans-Serif" font-size="10.00" fill="#000000">AMReX_Extension.H</text>
</g>
<!-- Node26&#45;&gt;Node28 -->
<g id="edge39" class="edge">
<title>Node26&#45;&gt;Node28</title>
<path fill="none" stroke="#191970" d="M1629.9855,-128.9005C1653.0113,-117.5569 1691.5228,-98.5844 1717.9232,-85.5783"/>
<polygon fill="#191970" stroke="#191970" points="1719.6269,-88.6407 1727.0507,-81.0817 1716.5334,-82.3613 1719.6269,-88.6407"/>
</g>
<!-- Node29&#45;&gt;Node5 -->
<g id="edge42" class="edge">
<title>Node29&#45;&gt;Node5</title>
<path fill="none" stroke="#191970" d="M1023.2661,-131.8992C889.8011,-118.9207 606.2739,-90.9906 596.5,-87 576.0008,-78.6303 576.7873,-66.8753 557.5,-56 532.3621,-41.8259 502.019,-30.4818 477.6408,-22.6054"/>
<polygon fill="#191970" stroke="#191970" points="478.523,-19.2138 467.9334,-19.549 476.4207,-25.8907 478.523,-19.2138"/>
</g>
<!-- Node29&#45;&gt;Node10 -->
<g id="edge41" class="edge">
<title>Node29&#45;&gt;Node10</title>
<path fill="none" stroke="#191970" d="M1041.6513,-128.9703C1031.0435,-126.9724 1019.9049,-124.8969 1009.5,-123 918.4947,-106.4089 875.0316,-146.8542 804.5,-87 787.6744,-72.7215 781.3282,-47.3086 778.938,-29.5991"/>
<polygon fill="#191970" stroke="#191970" points="782.4035,-29.0853 777.8853,-19.5022 775.4413,-29.8112 782.4035,-29.0853"/>
</g>
<!-- Node29&#45;&gt;Node12 -->
<g id="edge60" class="edge">
<title>Node29&#45;&gt;Node12</title>
<path fill="none" stroke="#191970" d="M1073.3518,-128.8974C1057.9224,-119.9088 1036.1581,-105.1576 1022.5,-87 1009.6626,-69.9335 1001.9288,-46.5402 997.7158,-30.03"/>
<polygon fill="#191970" stroke="#191970" points="1001.0238,-28.8043 995.3421,-19.8618 994.2071,-30.3957 1001.0238,-28.8043"/>
</g>
<!-- Node29&#45;&gt;Node20 -->
<g id="edge48" class="edge">
<title>Node29&#45;&gt;Node20</title>
<path fill="none" stroke="#191970" d="M1043.4509,-128.942C1032.3244,-126.861 1020.5165,-124.7582 1009.5,-123 887.3402,-103.5038 855.3736,-108.2116 733.5,-87 726.9025,-85.8517 719.9886,-84.5133 713.1731,-83.1129"/>
<polygon fill="#191970" stroke="#191970" points="713.8136,-79.6711 703.3065,-81.0318 712.3688,-86.5204 713.8136,-79.6711"/>
</g>
<!-- Node29&#45;&gt;Node23 -->
<g id="edge43" class="edge">
<title>Node29&#45;&gt;Node23</title>
<path fill="none" stroke="#191970" d="M1136.1001,-128.9998C1162.8956,-121.3968 1196.1986,-108.3724 1219.5,-87 1236.6014,-71.3143 1247.2841,-46.4293 1253.0557,-29.2146"/>
<polygon fill="#191970" stroke="#191970" points="1256.4064,-30.2261 1256.0282,-19.638 1249.7211,-28.1509 1256.4064,-30.2261"/>
</g>
<!-- Node29&#45;&gt;Node25 -->
<g id="edge59" class="edge">
<title>Node29&#45;&gt;Node25</title>
<path fill="none" stroke="#191970" d="M1159.5525,-129.4021C1225.1335,-120.222 1327.0135,-104.8752 1414.5,-87 1419.7994,-85.9172 1425.3288,-84.6848 1430.8085,-83.3989"/>
<polygon fill="#191970" stroke="#191970" points="1431.6571,-86.7946 1440.5576,-81.0474 1430.0157,-79.9898 1431.6571,-86.7946"/>
</g>
<!-- Node30 -->
<g id="node31" class="node">
<title>Node30</title>
<g id="a_node31"><a xlink:href="_field_utils_8_h.html" target="_top" xlink:title="amr&#45;wind/core/FieldUtils.H">
<polygon fill="#ffffff" stroke="#000000" points="1272,-62 1272,-81 1405,-81 1405,-62 1272,-62"/>
<text text-anchor="middle" x="1338.5" y="-69" font-family="Helvetica,sans-Serif" font-size="10.00" fill="#000000">amr&#45;wind/core/FieldUtils.H</text>
</a>
</g>
</g>
<!-- Node29&#45;&gt;Node30 -->
<g id="edge44" class="edge">
<title>Node29&#45;&gt;Node30</title>
<path fill="none" stroke="#191970" d="M1126.6268,-128.9717C1170.3957,-117.0991 1245.2634,-96.7909 1293.2773,-83.7669"/>
<polygon fill="#191970" stroke="#191970" points="1294.3596,-87.0999 1303.0945,-81.1039 1292.527,-80.344 1294.3596,-87.0999"/>
</g>
<!-- Node32 -->
<g id="node33" class="node">
<title>Node32</title>
<g id="a_node33"><a xlink:href="_int_field_8_h.html" target="_top" xlink:title="amr&#45;wind/core/IntField.H">
<polygon fill="#ffffff" stroke="#000000" points="813.5,-62 813.5,-81 937.5,-81 937.5,-62 813.5,-62"/>
<text text-anchor="middle" x="875.5" y="-69" font-family="Helvetica,sans-Serif" font-size="10.00" fill="#000000">amr&#45;wind/core/IntField.H</text>
</a>
</g>
</g>
<!-- Node29&#45;&gt;Node32 -->
<g id="edge49" class="edge">
<title>Node29&#45;&gt;Node32</title>
<path fill="none" stroke="#191970" d="M1060.5525,-128.9005C1022.5384,-117.1091 957.9496,-97.0746 916.0138,-84.0668"/>
<polygon fill="#191970" stroke="#191970" points="916.9781,-80.7015 906.3901,-81.0817 914.9043,-87.3872 916.9781,-80.7015"/>
</g>
<!-- Node33 -->
<g id="node34" class="node">
<title>Node33</title>
<polygon fill="#ffffff" stroke="#bfbfbf" points="816,-.5 816,-19.5 923,-19.5 923,-.5 816,-.5"/>
<text text-anchor="middle" x="869.5" y="-7.5" font-family="Helvetica,sans-Serif" font-size="10.00" fill="#000000">AMReX_iMultiFab.H</text>
</g>
<!-- Node29&#45;&gt;Node33 -->
<g id="edge61" class="edge">
<title>Node29&#45;&gt;Node33</title>
<path fill="none" stroke="#191970" d="M1074.8139,-128.8416C1036.2297,-106.508 940.6449,-51.1807 894.8074,-24.6486"/>
<polygon fill="#191970" stroke="#191970" points="896.485,-21.5757 886.0769,-19.5952 892.9782,-27.634 896.485,-21.5757"/>
</g>
<!-- Node34 -->
<g id="node35" class="node">
<title>Node34</title>
<g id="a_node35"><a xlink:href="_scratch_field_8_h.html" target="_top" xlink:title="amr&#45;wind/core/ScratchField.H">
<polygon fill="#ffffff" stroke="#000000" points="1031.5,-62 1031.5,-81 1177.5,-81 1177.5,-62 1031.5,-62"/>
<text text-anchor="middle" x="1104.5" y="-69" font-family="Helvetica,sans-Serif" font-size="10.00" fill="#000000">amr&#45;wind/core/ScratchField.H</text>
</a>
</g>
</g>
<!-- Node29&#45;&gt;Node34 -->
<g id="edge53" class="edge">
<title>Node29&#45;&gt;Node34</title>
<path fill="none" stroke="#191970" d="M1093.3626,-128.9005C1095.274,-119.0495 1098.3017,-103.4451 1100.7181,-90.9912"/>
<polygon fill="#191970" stroke="#191970" points="1104.1719,-91.5653 1102.6409,-81.0817 1097.3001,-90.2319 1104.1719,-91.5653"/>
</g>
<!-- Node30&#45;&gt;Node12 -->
<g id="edge46" class="edge">
<title>Node30&#45;&gt;Node12</title>
<path fill="none" stroke="#191970" d="M1284.9723,-61.9581C1223.0813,-50.9254 1121.3514,-32.7909 1055.9179,-21.1267"/>
<polygon fill="#191970" stroke="#191970" points="1056.1986,-17.6216 1045.7396,-19.3123 1054.9701,-24.513 1056.1986,-17.6216"/>
</g>
<!-- Node30&#45;&gt;Node23 -->
<g id="edge45" class="edge">
<title>Node30&#45;&gt;Node23</title>
<path fill="none" stroke="#191970" d="M1326,-61.8906C1313.4364,-52.2324 1293.8577,-37.1812 1279.0151,-25.771"/>
<polygon fill="#191970" stroke="#191970" points="1280.9735,-22.8618 1270.9122,-19.5419 1276.7072,-28.4115 1280.9735,-22.8618"/>
</g>
<!-- Node31 -->
<g id="node32" class="node">
<title>Node31</title>
<polygon fill="#ffffff" stroke="#bfbfbf" points="1504.5,-.5 1504.5,-19.5 1620.5,-19.5 1620.5,-.5 1504.5,-.5"/>
<text text-anchor="middle" x="1562.5" y="-7.5" font-family="Helvetica,sans-Serif" font-size="10.00" fill="#000000">AMReX_Interpolater.H</text>
</g>
<!-- Node30&#45;&gt;Node31 -->
<g id="edge47" class="edge">
<title>Node30&#45;&gt;Node31</title>
<path fill="none" stroke="#191970" d="M1373.5,-61.8906C1412.4588,-51.1944 1475.5093,-33.8836 1517.9571,-22.2294"/>
<polygon fill="#191970" stroke="#191970" points="1519.0293,-25.5646 1527.7458,-19.5419 1517.1759,-18.8144 1519.0293,-25.5646"/>
</g>
<!-- Node32&#45;&gt;Node10 -->
<g id="edge50" class="edge">
<title>Node32&#45;&gt;Node10</title>
<path fill="none" stroke="#191970" d="M860.1875,-61.8906C844.4376,-52.0067 819.6877,-36.4749 801.3663,-24.9773"/>
<polygon fill="#191970" stroke="#191970" points="803.0357,-21.8929 792.705,-19.5419 799.3148,-27.8221 803.0357,-21.8929"/>
</g>
<!-- Node32&#45;&gt;Node23 -->
<g id="edge51" class="edge">
<title>Node32&#45;&gt;Node23</title>
<path fill="none" stroke="#191970" d="M934.9235,-61.9581C1003.6543,-50.9217 1116.6412,-32.7789 1189.2793,-21.1151"/>
<polygon fill="#191970" stroke="#191970" points="1189.9336,-24.5549 1199.2522,-19.5137 1188.8238,-17.6435 1189.9336,-24.5549"/>
</g>
<!-- Node32&#45;&gt;Node33 -->
<g id="edge52" class="edge">
<title>Node32&#45;&gt;Node33</title>
<path fill="none" stroke="#191970" d="M874.5625,-61.8906C873.7308,-53.3657 872.4892,-40.6392 871.4438,-29.9235"/>
<polygon fill="#191970" stroke="#191970" points="874.9053,-29.3577 870.4507,-19.7449 867.9383,-30.0375 874.9053,-29.3577"/>
</g>
<!-- Node34&#45;&gt;Node10 -->
<g id="edge54" class="edge">
<title>Node34&#45;&gt;Node10</title>
<path fill="none" stroke="#191970" d="M1031.5406,-61.9671C973.3879,-53.6551 889.8224,-40.1205 808.004,-19.8079"/>
<polygon fill="#191970" stroke="#191970" points="808.5886,-16.3459 798.0366,-17.297 806.8787,-23.1338 808.5886,-16.3459"/>
</g>
<!-- Node34&#45;&gt;Node11 -->
<g id="edge57" class="edge">
<title>Node34&#45;&gt;Node11</title>
<path fill="none" stroke="#191970" d="M1105.5938,-61.8906C1106.5641,-53.3657 1108.0126,-40.6392 1109.2323,-29.9235"/>
<polygon fill="#191970" stroke="#191970" points="1112.7374,-30.0766 1110.3908,-19.7449 1105.7823,-29.2849 1112.7374,-30.0766"/>
</g>
<!-- Node34&#45;&gt;Node12 -->
<g id="edge56" class="edge">
<title>Node34&#45;&gt;Node12</title>
<path fill="none" stroke="#191970" d="M1087.1563,-61.8906C1069.0727,-51.8713 1040.5141,-36.0483 1019.6835,-24.5071"/>
<polygon fill="#191970" stroke="#191970" points="1021.1654,-21.3268 1010.722,-19.5419 1017.7729,-27.4498 1021.1654,-21.3268"/>
</g>
<!-- Node34&#45;&gt;Node23 -->
<g id="edge55" class="edge">
<title>Node34&#45;&gt;Node23</title>
<path fill="none" stroke="#191970" d="M1128.5625,-61.8906C1154.5556,-51.5103 1196.1478,-34.9004 1225.2547,-23.2766"/>
<polygon fill="#191970" stroke="#191970" points="1226.6177,-26.5011 1234.6065,-19.5419 1224.0215,-20.0003 1226.6177,-26.5011"/>
</g>
<!-- Node35 -->
<g id="node36" class="node">
<title>Node35</title>
<polygon fill="#ffffff" stroke="#bfbfbf" points="1358.5,-.5 1358.5,-19.5 1486.5,-19.5 1486.5,-.5 1358.5,-.5"/>
<text text-anchor="middle" x="1422.5" y="-7.5" font-family="Helvetica,sans-Serif" font-size="10.00" fill="#000000">AMReX_PhysBCFunct.H</text>
</g>
<!-- Node34&#45;&gt;Node35 -->
<g id="edge58" class="edge">
<title>Node34&#45;&gt;Node35</title>
<path fill="none" stroke="#191970" d="M1153.8386,-61.9581C1210.3214,-51.0345 1302.8019,-33.1492 1363.1665,-21.4749"/>
<polygon fill="#191970" stroke="#191970" points="1364.1538,-24.8489 1373.3073,-19.5137 1362.8246,-17.9762 1364.1538,-24.8489"/>
</g>
<!-- Node36&#45;&gt;Node3 -->
<g id="edge64" class="edge">
<title>Node36&#45;&gt;Node3</title>
<path fill="none" stroke="#191970" d="M366.5499,-123.4639C344.8078,-112.1715 315.2284,-96.8086 293.8773,-85.7192"/>
<polygon fill="#191970" stroke="#191970" points="295.4788,-82.6071 284.9911,-81.1039 292.2523,-88.8192 295.4788,-82.6071"/>
</g>
<!-- Node36&#45;&gt;Node9 -->
<g id="edge65" class="edge">
<title>Node36&#45;&gt;Node9</title>
<path fill="none" stroke="#191970" d="M416.1493,-123.2967C430.8781,-112.4524 450.6186,-97.9182 465.4396,-87.006"/>
<polygon fill="#191970" stroke="#191970" points="467.5447,-89.8025 473.5224,-81.055 463.3944,-84.1655 467.5447,-89.8025"/>
</g>
<!-- Node36&#45;&gt;Node10 -->
<g id="edge63" class="edge">
<title>Node36&#45;&gt;Node10</title>
<path fill="none" stroke="#191970" d="M394.2004,-123.4305C393.4935,-104.623 395.4857,-72.882 414.5,-56 468.0393,-8.4648 659.4079,-33.7434 746.802,-19.4635"/>
<polygon fill="#191970" stroke="#191970" points="747.5144,-22.8908 756.6788,-17.5743 746.1993,-16.0154 747.5144,-22.8908"/>
</g>
<!-- Node36&#45;&gt;Node22 -->
<g id="edge69" class="edge">
<title>Node36&#45;&gt;Node22</title>
<path fill="none" stroke="#191970" d="M386.7111,-123.442C377.5319,-105.514 366.4052,-75.5471 381.5,-56 394.3219,-39.3962 441.2334,-27.6374 483.4003,-20.1664"/>
<polygon fill="#191970" stroke="#191970" points="484.1629,-23.5869 493.4302,-18.452 482.9835,-16.687 484.1629,-23.5869"/>
</g>
<!-- Node36&#45;&gt;Node23 -->
<g id="edge68" class="edge">
<title>Node36&#45;&gt;Node23</title>
<path fill="none" stroke="#191970" d="M465.0865,-135.3614C652.1881,-126.7372 1154.1578,-102.3043 1186.5,-87 1193.7245,-83.5814 1224.6137,-48.9761 1243.5082,-27.3368"/>
<polygon fill="#191970" stroke="#191970" points="1246.1672,-29.6129 1250.088,-19.7702 1240.885,-25.0195 1246.1672,-29.6129"/>
</g>
<!-- Node37 -->
<g id="node38" class="node">
<title>Node37</title>
<g id="a_node38"><a xlink:href="_p_d_e_fields_8_h.html" target="_top" xlink:title="amr&#45;wind/equation_systems\l/PDEFields.H">
<polygon fill="#ffffff" stroke="#000000" points="3,-56.5 3,-86.5 142,-86.5 142,-56.5 3,-56.5"/>
<text text-anchor="start" x="11" y="-74.5" font-family="Helvetica,sans-Serif" font-size="10.00" fill="#000000">amr&#45;wind/equation_systems</text>
<text text-anchor="middle" x="72.5" y="-63.5" font-family="Helvetica,sans-Serif" font-size="10.00" fill="#000000">/PDEFields.H</text>
</a>
</g>
</g>
<!-- Node36&#45;&gt;Node37 -->
<g id="edge66" class="edge">
<title>Node36&#45;&gt;Node37</title>
<path fill="none" stroke="#191970" d="M325.8115,-124.0445C274.7631,-113.4555 205.3886,-99.0651 152.1474,-88.0213"/>
<polygon fill="#191970" stroke="#191970" points="152.5661,-84.5337 142.0636,-85.9296 151.1443,-91.3878 152.5661,-84.5337"/>
</g>
<!-- Node38 -->
<g id="node39" class="node">
<title>Node38</title>
<polygon fill="#ffffff" stroke="#bfbfbf" points="0,-.5 0,-19.5 45,-19.5 45,-.5 0,-.5"/>
<text text-anchor="middle" x="22.5" y="-7.5" font-family="Helvetica,sans-Serif" font-size="10.00" fill="#000000">iosfwd</text>
</g>
<!-- Node37&#45;&gt;Node38 -->
<g id="edge67" class="edge">
<title>Node37&#45;&gt;Node38</title>
<path fill="none" stroke="#191970" d="M60.1404,-56.2977C53.1276,-47.672 44.314,-36.8312 36.9786,-27.8087"/>
<polygon fill="#191970" stroke="#191970" points="39.5297,-25.3982 30.5056,-19.8469 34.0982,-29.8141 39.5297,-25.3982"/>
</g>
<!-- Node39&#45;&gt;Node24 -->
<g id="edge72" class="edge">
<title>Node39&#45;&gt;Node24</title>
<path fill="none" stroke="#191970" d="M1168.2159,-324.2255C1158.4851,-314.2337 1145.8174,-300.7196 1135.5,-288 1118.3768,-266.8899 1100.6912,-241.0426 1089.4228,-223.9675"/>
<polygon fill="#191970" stroke="#191970" points="1092.2687,-221.9244 1083.8671,-215.4696 1086.4097,-225.7549 1092.2687,-221.9244"/>
</g>
<!-- Node40 -->
<g id="node41" class="node">
<title>Node40</title>
<g id="a_node41"><a xlink:href="_field_plane_averaging_8_h.html" target="_top" xlink:title="amr&#45;wind/utilities\l/FieldPlaneAveraging.H">
<polygon fill="#ffffff" stroke="#000000" points="1144,-257.5 1144,-287.5 1263,-287.5 1263,-257.5 1144,-257.5"/>
<text text-anchor="start" x="1152" y="-275.5" font-family="Helvetica,sans-Serif" font-size="10.00" fill="#000000">amr&#45;wind/utilities</text>
<text text-anchor="middle" x="1203.5" y="-264.5" font-family="Helvetica,sans-Serif" font-size="10.00" fill="#000000">/FieldPlaneAveraging.H</text>
</a>
</g>
</g>
<!-- Node39&#45;&gt;Node40 -->
<g id="edge73" class="edge">
<title>Node39&#45;&gt;Node40</title>
<path fill="none" stroke="#191970" d="M1188.0383,-324.2967C1190.4164,-316.3299 1193.389,-306.3718 1196.0907,-297.3213"/>
<polygon fill="#191970" stroke="#191970" points="1199.473,-298.2265 1198.9797,-287.6432 1192.7655,-296.2242 1199.473,-298.2265"/>
</g>
<!-- Node42 -->
<g id="node43" class="node">
<title>Node42</title>
<g id="a_node43"><a xlink:href="_field_b_c_ops_8_h.html" target="_top" xlink:title="amr&#45;wind/core/FieldBCOps.H">
<polygon fill="#ffffff" stroke="#000000" points="2378,-129 2378,-148 2523,-148 2523,-129 2378,-129"/>
<text text-anchor="middle" x="2450.5" y="-136" font-family="Helvetica,sans-Serif" font-size="10.00" fill="#000000">amr&#45;wind/core/FieldBCOps.H</text>
</a>
</g>
</g>
<!-- Node39&#45;&gt;Node42 -->
<g id="edge79" class="edge">
<title>Node39&#45;&gt;Node42</title>
<path fill="none" stroke="#191970" d="M1240.8165,-330.4072C1447.5423,-297.6117 2154.4971,-185.4586 2380.4572,-149.6118"/>
<polygon fill="#191970" stroke="#191970" points="2381.2033,-153.0373 2390.5314,-148.0136 2380.1065,-146.1237 2381.2033,-153.0373"/>
</g>
<!-- Node40&#45;&gt;Node20 -->
<g id="edge77" class="edge">
<title>Node40&#45;&gt;Node20</title>
<path fill="none" stroke="#191970" d="M1195.8744,-257.3222C1185.7456,-238.7018 1166.1098,-207.4629 1140.5,-190 1092.3812,-157.1887 1070.0823,-171.3957 1014.5,-154 973.7236,-141.2381 964.7734,-134.0491 923.5,-123 858.1144,-105.4959 782.0544,-91.155 728.9708,-82.0923"/>
<polygon fill="#191970" stroke="#191970" points="729.4462,-78.6231 719.0025,-80.4064 728.2788,-85.5251 729.4462,-78.6231"/>
</g>
<!-- Node40&#45;&gt;Node24 -->
<g id="edge76" class="edge">
<title>Node40&#45;&gt;Node24</title>
<path fill="none" stroke="#191970" d="M1175.2231,-257.4639C1154.082,-246.2222 1125.3542,-230.9463 1104.5216,-219.8686"/>
<polygon fill="#191970" stroke="#191970" points="1106.0337,-216.7087 1095.5611,-215.1039 1102.7472,-222.8892 1106.0337,-216.7087"/>
</g>
<!-- Node40&#45;&gt;Node26 -->
<g id="edge78" class="edge">
<title>Node40&#45;&gt;Node26</title>
<path fill="none" stroke="#191970" d="M1249.3969,-257.389C1330.2739,-230.7612 1496.7254,-175.959 1572.0135,-151.1712"/>
<polygon fill="#191970" stroke="#191970" points="1573.1831,-154.471 1581.587,-148.0193 1570.994,-147.8221 1573.1831,-154.471"/>
</g>
<!-- Node41 -->
<g id="node42" class="node">
<title>Node41</title>
<g id="a_node42"><a xlink:href="_direction_selector_8_h.html" target="_top" xlink:title="amr&#45;wind/utilities\l/DirectionSelector.H">
<polygon fill="#ffffff" stroke="#000000" points="2361,-190.5 2361,-220.5 2466,-220.5 2466,-190.5 2361,-190.5"/>
<text text-anchor="start" x="2369" y="-208.5" font-family="Helvetica,sans-Serif" font-size="10.00" fill="#000000">amr&#45;wind/utilities</text>
<text text-anchor="middle" x="2413.5" y="-197.5" font-family="Helvetica,sans-Serif" font-size="10.00" fill="#000000">/DirectionSelector.H</text>
</a>
</g>
</g>
<!-- Node40&#45;&gt;Node41 -->
<g id="edge74" class="edge">
<title>Node40&#45;&gt;Node41</title>
<path fill="none" stroke="#191970" d="M1263.0914,-269.2003C1467.7421,-257.8684 2140.7746,-220.6013 2350.5137,-208.9877"/>
<polygon fill="#191970" stroke="#191970" points="2350.9443,-212.4693 2360.7355,-208.4217 2350.5572,-205.48 2350.9443,-212.4693"/>
</g>
<!-- Node41&#45;&gt;Node19 -->
<g id="edge75" class="edge">
<title>Node41&#45;&gt;Node19</title>
<path fill="none" stroke="#191970" d="M2466.2031,-200.5646C2532.8695,-191.1752 2645.1572,-164.1609 2696.5,-87 2727.3803,-40.5914 2639.9713,-21.7834 2579.3201,-14.4386"/>
<polygon fill="#191970" stroke="#191970" points="2579.422,-10.9277 2569.0906,-13.2758 2578.6313,-17.8829 2579.422,-10.9277"/>
</g>
<!-- Node42&#45;&gt;Node13 -->
<g id="edge83" class="edge">
<title>Node42&#45;&gt;Node13</title>
<path fill="none" stroke="#191970" d="M2400.9485,-128.9196C2349.8676,-118.9249 2267.9677,-102.5695 2197.5,-87 2192.3918,-85.8714 2187.0664,-84.6594 2181.7588,-83.4285"/>
<polygon fill="#191970" stroke="#191970" points="2182.1706,-79.9302 2171.6357,-81.055 2180.5727,-86.7454 2182.1706,-79.9302"/>
</g>
<!-- Node42&#45;&gt;Node19 -->
<g id="edge81" class="edge">
<title>Node42&#45;&gt;Node19</title>
<path fill="none" stroke="#191970" d="M2472.6135,-128.9287C2489.1791,-120.4805 2510.7623,-106.4674 2521.5,-87 2531.1727,-69.4634 2531.2532,-46.1491 2529.6461,-29.7859"/>
<polygon fill="#191970" stroke="#191970" points="2533.0999,-29.2005 2528.361,-19.7245 2526.1563,-30.0874 2533.0999,-29.2005"/>
</g>
<!-- Node42&#45;&gt;Node23 -->
<g id="edge80" class="edge">
<title>Node42&#45;&gt;Node23</title>
<path fill="none" stroke="#191970" d="M2449.2907,-128.7513C2446.4835,-110.7847 2437.7171,-72.7569 2412.5,-56 2364.9678,-24.4145 1472.6526,-24.2057 1350.3463,-19.7749"/>
<polygon fill="#191970" stroke="#191970" points="1350.4844,-16.2776 1340.326,-19.2871 1350.1439,-23.2693 1350.4844,-16.2776"/>
</g>
<!-- Node42&#45;&gt;Node35 -->
<g id="edge84" class="edge">
<title>Node42&#45;&gt;Node35</title>
<path fill="none" stroke="#191970" d="M2453.487,-128.9504C2458.2354,-111.6532 2465.0979,-75.1589 2445.5,-56 2409.1346,-20.4492 1610.7838,-24.239 1496.6219,-19.7014"/>
<polygon fill="#191970" stroke="#191970" points="1496.7344,-16.2023 1486.5541,-19.137 1496.3425,-23.1914 1496.7344,-16.2023"/>
</g>
<!-- Node43 -->
<g id="node44" class="node">
<title>Node43</title>
<polygon fill="#ffffff" stroke="#bfbfbf" points="2574,-62 2574,-81 2687,-81 2687,-62 2574,-62"/>
<text text-anchor="middle" x="2630.5" y="-69" font-family="Helvetica,sans-Serif" font-size="10.00" fill="#000000">AMReX_FArrayBox.H</text>
</g>
<!-- Node42&#45;&gt;Node43 -->
<g id="edge82" class="edge">
<title>Node42&#45;&gt;Node43</title>
<path fill="none" stroke="#191970" d="M2476.2896,-128.9005C2507.4333,-117.3082 2559.9815,-97.7486 2594.9531,-84.7313"/>
<polygon fill="#191970" stroke="#191970" points="2596.6074,-87.8503 2604.7582,-81.0817 2594.1654,-81.29 2596.6074,-87.8503"/>
</g>
</g>
</svg>
