<?xml version="1.0" encoding="UTF-8" standalone="no"?>
<!DOCTYPE svg PUBLIC "-//W3C//DTD SVG 1.1//EN"
 "http://www.w3.org/Graphics/SVG/1.1/DTD/svg11.dtd">
<!-- Generated by graphviz version 2.40.1 (20161225.0304)
 -->
<!-- Title: CFDSim.H Pages: 1 -->
<svg width="4813pt" height="207pt"
 viewBox="0.00 0.00 4813.00 207.00" xmlns="http://www.w3.org/2000/svg" xmlns:xlink="http://www.w3.org/1999/xlink">
<g id="graph0" class="graph" transform="scale(1 1) rotate(0) translate(4 203)">
<title>CFDSim.H</title>
<polygon fill="#ffffff" stroke="transparent" points="-4,4 -4,-203 4809,-203 4809,4 -4,4"/>
<!-- Node33 -->
<g id="node1" class="node">
<title>Node33</title>
<polygon fill="#bfbfbf" stroke="#000000" points="3148.5,-179.5 3148.5,-198.5 3213.5,-198.5 3213.5,-179.5 3148.5,-179.5"/>
<text text-anchor="middle" x="3181" y="-186.5" font-family="Helvetica,sans-Serif" font-size="10.00" fill="#000000">CFDSim.H</text>
</g>
<!-- Node34 -->
<g id="node2" class="node">
<title>Node34</title>
<g id="a_node2"><a xlink:href="incflo_8_h.html" target="_top" xlink:title="incflo.H">
<polygon fill="#ffffff" stroke="#ff0000" points="860,-123.5 860,-142.5 910,-142.5 910,-123.5 860,-123.5"/>
<text text-anchor="middle" x="885" y="-130.5" font-family="Helvetica,sans-Serif" font-size="10.00" fill="#000000">incflo.H</text>
</a>
</g>
</g>
<!-- Node33&#45;&gt;Node34 -->
<g id="edge1" class="edge">
<title>Node33&#45;&gt;Node34</title>
<path fill="none" stroke="#191970" d="M3137.8471,-187.9475C2843.65,-180.772 1137.967,-139.1699 910.147,-133.6133"/>
<polygon fill="#191970" stroke="#191970" points="3138.0195,-191.4526 3148.1019,-188.1976 3138.1903,-184.4547 3138.0195,-191.4526"/>
</g>
<!-- Node54 -->
<g id="node20" class="node">
<title>Node54</title>
<g id="a_node20"><a xlink:href="_c_f_d_sim_8cpp.html" target="_top" xlink:title="CFDSim.cpp">
<polygon fill="#ffffff" stroke="#000000" points="2043,-123.5 2043,-142.5 2117,-142.5 2117,-123.5 2043,-123.5"/>
<text text-anchor="middle" x="2080" y="-130.5" font-family="Helvetica,sans-Serif" font-size="10.00" fill="#000000">CFDSim.cpp</text>
</a>
</g>
</g>
<!-- Node33&#45;&gt;Node54 -->
<g id="edge19" class="edge">
<title>Node33&#45;&gt;Node54</title>
<path fill="none" stroke="#191970" d="M3138.1405,-187.9805C2966.8381,-183.7728 2330.983,-166.8505 2131,-143 2126.5204,-142.4657 2121.8451,-141.7587 2117.2215,-140.9668"/>
<polygon fill="#191970" stroke="#191970" points="3138.1986,-191.4828 3148.281,-188.228 3138.3694,-184.4849 3138.1986,-191.4828"/>
</g>
<!-- Node55 -->
<g id="node21" class="node">
<title>Node55</title>
<g id="a_node21"><a xlink:href="_p_d_e_ops_8_h.html" target="_top" xlink:title="PDEOps.H">
<polygon fill="#ffffff" stroke="#ff0000" points="2173,-123.5 2173,-142.5 2239,-142.5 2239,-123.5 2173,-123.5"/>
<text text-anchor="middle" x="2206" y="-130.5" font-family="Helvetica,sans-Serif" font-size="10.00" fill="#000000">PDEOps.H</text>
</a>
</g>
</g>
<!-- Node33&#45;&gt;Node55 -->
<g id="edge20" class="edge">
<title>Node33&#45;&gt;Node55</title>
<path fill="none" stroke="#191970" d="M3138.0529,-187.9354C2978.9669,-183.8282 2423.3903,-167.9853 2248,-143 2245.1802,-142.5983 2242.2721,-142.0955 2239.364,-141.5305"/>
<polygon fill="#191970" stroke="#191970" points="3138.2951,-191.4427 3148.3815,-188.1999 3138.4744,-184.445 3138.2951,-191.4427"/>
</g>
<!-- Node68 -->
<g id="node22" class="node">
<title>Node68</title>
<g id="a_node22"><a xlink:href="_p_d_e_8_h.html" target="_top" xlink:title="PDE.H">
<polygon fill="#ffffff" stroke="#ff0000" points="2152,-62 2152,-81 2200,-81 2200,-62 2152,-62"/>
<text text-anchor="middle" x="2176" y="-69" font-family="Helvetica,sans-Serif" font-size="10.00" fill="#000000">PDE.H</text>
</a>
</g>
</g>
<!-- Node33&#45;&gt;Node68 -->
<g id="edge22" class="edge">
<title>Node33&#45;&gt;Node68</title>
<path fill="none" stroke="#191970" d="M3138.3224,-188.6956C2949.6403,-187.1453 2198.1584,-178.7384 2164,-143 2147.9979,-126.2577 2161.198,-96.6454 2169.8889,-81.3129"/>
<polygon fill="#191970" stroke="#191970" points="3138.384,-192.1961 3148.4117,-188.7763 3138.44,-185.1964 3138.384,-192.1961"/>
</g>
<!-- Node79 -->
<g id="node23" class="node">
<title>Node79</title>
<g id="a_node23"><a xlink:href="_a_b_l_forcing_8cpp.html" target="_top" xlink:title="ABLForcing.cpp">
<polygon fill="#ffffff" stroke="#000000" points="2257,-123.5 2257,-142.5 2343,-142.5 2343,-123.5 2257,-123.5"/>
<text text-anchor="middle" x="2300" y="-130.5" font-family="Helvetica,sans-Serif" font-size="10.00" fill="#000000">ABLForcing.cpp</text>
</a>
</g>
</g>
<!-- Node33&#45;&gt;Node79 -->
<g id="edge23" class="edge">
<title>Node33&#45;&gt;Node79</title>
<path fill="none" stroke="#191970" d="M3138.3666,-188.6548C3015.7131,-187.2277 2651.5657,-179.9453 2352,-143 2349.0803,-142.6399 2346.078,-142.2136 2343.0594,-141.7432"/>
<polygon fill="#191970" stroke="#191970" points="3138.4304,-192.1556 3148.4681,-188.7653 3138.507,-185.156 3138.4304,-192.1556"/>
</g>
<!-- Node80 -->
<g id="node24" class="node">
<title>Node80</title>
<g id="a_node24"><a xlink:href="_a_b_l_wall_function_8_h.html" target="_top" xlink:title="ABLWallFunction.H">
<polygon fill="#ffffff" stroke="#ff0000" points="1883.5,-62 1883.5,-81 1986.5,-81 1986.5,-62 1883.5,-62"/>
<text text-anchor="middle" x="1935" y="-69" font-family="Helvetica,sans-Serif" font-size="10.00" fill="#000000">ABLWallFunction.H</text>
</a>
</g>
</g>
<!-- Node33&#45;&gt;Node80 -->
<g id="edge24" class="edge">
<title>Node33&#45;&gt;Node80</title>
<path fill="none" stroke="#191970" d="M3138.2042,-188.2497C2932.5521,-184.5278 2053.5798,-167.2524 2001,-143 1972.1607,-129.6979 1950.0849,-97.3728 1940.3919,-81.1387"/>
<polygon fill="#191970" stroke="#191970" points="3138.2513,-191.751 3148.3127,-188.4315 3138.3773,-184.7521 3138.2513,-191.751"/>
</g>
<!-- Node83 -->
<g id="node25" class="node">
<title>Node83</title>
<g id="a_node25"><a xlink:href="_a_b_l_stats_8_h.html" target="_top" xlink:title="ABLStats.H">
<polygon fill="#ffffff" stroke="#ff0000" points="1820.5,-.5 1820.5,-19.5 1889.5,-19.5 1889.5,-.5 1820.5,-.5"/>
<text text-anchor="middle" x="1855" y="-7.5" font-family="Helvetica,sans-Serif" font-size="10.00" fill="#000000">ABLStats.H</text>
</a>
</g>
</g>
<!-- Node33&#45;&gt;Node83 -->
<g id="edge31" class="edge">
<title>Node33&#45;&gt;Node83</title>
<path fill="none" stroke="#191970" d="M3138.1913,-188.3594C2910.1248,-184.8478 1847.3975,-167.2041 1824,-143 1790.2191,-108.0546 1830.4192,-43.7901 1847.7771,-19.5716"/>
<polygon fill="#191970" stroke="#191970" points="3138.3607,-191.8623 3148.4132,-188.5159 3138.468,-184.8632 3138.3607,-191.8623"/>
</g>
<!-- Node85 -->
<g id="node26" class="node">
<title>Node85</title>
<g id="a_node26"><a xlink:href="_boussinesq_bubble_8cpp.html" target="_top" xlink:title="BoussinesqBubble.cpp">
<polygon fill="#ffffff" stroke="#000000" points="1932,-.5 1932,-19.5 2048,-19.5 2048,-.5 1932,-.5"/>
<text text-anchor="middle" x="1990" y="-7.5" font-family="Helvetica,sans-Serif" font-size="10.00" fill="#000000">BoussinesqBubble.cpp</text>
</a>
</g>
</g>
<!-- Node33&#45;&gt;Node85 -->
<g id="edge44" class="edge">
<title>Node33&#45;&gt;Node85</title>
<path fill="none" stroke="#191970" d="M3138.1862,-188.6384C2935.3361,-186.7546 2078.884,-176.817 2034,-143 2013.604,-127.633 1997.062,-47.9801 1991.7758,-19.851"/>
<polygon fill="#191970" stroke="#191970" points="3138.4071,-192.1405 3148.4386,-188.7319 3138.471,-185.1408 3138.4071,-192.1405"/>
</g>
<!-- Node86 -->
<g id="node27" class="node">
<title>Node86</title>
<g id="a_node27"><a xlink:href="_field_plane_averaging_8_h.html" target="_top" xlink:title="FieldPlaneAveraging.H">
<polygon fill="#ffffff" stroke="#ff0000" points="1833,-123.5 1833,-142.5 1949,-142.5 1949,-123.5 1833,-123.5"/>
<text text-anchor="middle" x="1891" y="-130.5" font-family="Helvetica,sans-Serif" font-size="10.00" fill="#000000">FieldPlaneAveraging.H</text>
</a>
</g>
</g>
<!-- Node33&#45;&gt;Node86 -->
<g id="edge27" class="edge">
<title>Node33&#45;&gt;Node86</title>
<path fill="none" stroke="#191970" d="M3138.2341,-187.9614C2950.5198,-183.314 2198.4568,-163.7448 1963,-143 1958.4743,-142.6013 1953.7977,-142.1169 1949.102,-141.5789"/>
<polygon fill="#191970" stroke="#191970" points="3138.1849,-191.4612 3148.2682,-188.2089 3138.3576,-184.4633 3138.1849,-191.4612"/>
</g>
<!-- Node91 -->
<g id="node28" class="node">
<title>Node91</title>
<g id="a_node28"><a xlink:href="_body_force_8cpp.html" target="_top" xlink:title="BodyForce.cpp">
<polygon fill="#ffffff" stroke="#000000" points="2361.5,-123.5 2361.5,-142.5 2444.5,-142.5 2444.5,-123.5 2361.5,-123.5"/>
<text text-anchor="middle" x="2403" y="-130.5" font-family="Helvetica,sans-Serif" font-size="10.00" fill="#000000">BodyForce.cpp</text>
</a>
</g>
</g>
<!-- Node33&#45;&gt;Node91 -->
<g id="edge32" class="edge">
<title>Node33&#45;&gt;Node91</title>
<path fill="none" stroke="#191970" d="M3137.973,-188.234C3025.2499,-185.8047 2712.2022,-176.3381 2454,-143 2450.9575,-142.6072 2447.8236,-142.1423 2444.6762,-141.6314"/>
<polygon fill="#191970" stroke="#191970" points="3138.1771,-191.739 3148.2477,-188.4477 3138.3227,-184.7405 3138.1771,-191.739"/>
</g>
<!-- Node92 -->
<g id="node29" class="node">
<title>Node92</title>
<g id="a_node29"><a xlink:href="_boussinesq_buoyancy_8cpp.html" target="_top" xlink:title="BoussinesqBuoyancy.cpp">
<polygon fill="#ffffff" stroke="#000000" points="2463,-123.5 2463,-142.5 2593,-142.5 2593,-123.5 2463,-123.5"/>
<text text-anchor="middle" x="2528" y="-130.5" font-family="Helvetica,sans-Serif" font-size="10.00" fill="#000000">BoussinesqBuoyancy.cpp</text>
</a>
</g>
</g>
<!-- Node33&#45;&gt;Node92 -->
<g id="edge33" class="edge">
<title>Node33&#45;&gt;Node92</title>
<path fill="none" stroke="#191970" d="M3138.0991,-186.4026C3041.9703,-180.405 2802.0453,-164.4467 2602,-143 2599.1642,-142.696 2596.2692,-142.3703 2593.3463,-142.0291"/>
<polygon fill="#191970" stroke="#191970" points="3138.0966,-189.9091 3148.2941,-187.0349 3138.5299,-182.9225 3138.0966,-189.9091"/>
</g>
<!-- Node93 -->
<g id="node30" class="node">
<title>Node93</title>
<g id="a_node30"><a xlink:href="_coriolis_forcing_8cpp.html" target="_top" xlink:title="CoriolisForcing.cpp">
<polygon fill="#ffffff" stroke="#000000" points="2611.5,-123.5 2611.5,-142.5 2712.5,-142.5 2712.5,-123.5 2611.5,-123.5"/>
<text text-anchor="middle" x="2662" y="-130.5" font-family="Helvetica,sans-Serif" font-size="10.00" fill="#000000">CoriolisForcing.cpp</text>
</a>
</g>
</g>
<!-- Node33&#45;&gt;Node93 -->
<g id="edge34" class="edge">
<title>Node33&#45;&gt;Node93</title>
<path fill="none" stroke="#191970" d="M3137.9183,-185.679C3056.3462,-179.1722 2873.8198,-163.5674 2721,-143 2718.323,-142.6397 2715.5811,-142.2494 2712.8152,-141.839"/>
<polygon fill="#191970" stroke="#191970" points="3138.038,-189.1994 3148.2832,-186.5 3138.5909,-182.2212 3138.038,-189.1994"/>
</g>
<!-- Node94 -->
<g id="node31" class="node">
<title>Node94</title>
<g id="a_node31"><a xlink:href="_density_buoyancy_8cpp.html" target="_top" xlink:title="DensityBuoyancy.cpp">
<polygon fill="#ffffff" stroke="#000000" points="2730.5,-123.5 2730.5,-142.5 2843.5,-142.5 2843.5,-123.5 2730.5,-123.5"/>
<text text-anchor="middle" x="2787" y="-130.5" font-family="Helvetica,sans-Serif" font-size="10.00" fill="#000000">DensityBuoyancy.cpp</text>
</a>
</g>
</g>
<!-- Node33&#45;&gt;Node94 -->
<g id="edge35" class="edge">
<title>Node33&#45;&gt;Node94</title>
<path fill="none" stroke="#191970" d="M3138.1116,-183.1389C3075.4464,-174.5402 2955.1969,-157.908 2853,-143 2849.9037,-142.5483 2846.7264,-142.0807 2843.5196,-141.6055"/>
<polygon fill="#191970" stroke="#191970" points="3138.0119,-186.6579 3148.3946,-184.5487 3138.9627,-179.7228 3138.0119,-186.6579"/>
</g>
<!-- Node95 -->
<g id="node32" class="node">
<title>Node95</title>
<g id="a_node32"><a xlink:href="_geostrophic_forcing_8cpp.html" target="_top" xlink:title="GeostrophicForcing.cpp">
<polygon fill="#ffffff" stroke="#000000" points="2862,-123.5 2862,-142.5 2982,-142.5 2982,-123.5 2862,-123.5"/>
<text text-anchor="middle" x="2922" y="-130.5" font-family="Helvetica,sans-Serif" font-size="10.00" fill="#000000">GeostrophicForcing.cpp</text>
</a>
</g>
</g>
<!-- Node33&#45;&gt;Node95 -->
<g id="edge36" class="edge">
<title>Node33&#45;&gt;Node95</title>
<path fill="none" stroke="#191970" d="M3138.5002,-179.8109C3091.0229,-169.5455 3014.5205,-153.0044 2966.3173,-142.5821"/>
<polygon fill="#191970" stroke="#191970" points="3137.9459,-183.2718 3148.4597,-181.9643 3139.4253,-176.4299 3137.9459,-183.2718"/>
</g>
<!-- Node96 -->
<g id="node33" class="node">
<title>Node96</title>
<g id="a_node33"><a xlink:href="_p_d_e_base_8cpp.html" target="_top" xlink:title="PDEBase.cpp">
<polygon fill="#ffffff" stroke="#000000" points="3000.5,-123.5 3000.5,-142.5 3079.5,-142.5 3079.5,-123.5 3000.5,-123.5"/>
<text text-anchor="middle" x="3040" y="-130.5" font-family="Helvetica,sans-Serif" font-size="10.00" fill="#000000">PDEBase.cpp</text>
</a>
</g>
</g>
<!-- Node33&#45;&gt;Node96 -->
<g id="edge37" class="edge">
<title>Node33&#45;&gt;Node96</title>
<path fill="none" stroke="#191970" d="M3147.3968,-175.6541C3121.6841,-165.4419 3086.8539,-151.6086 3063.9225,-142.5011"/>
<polygon fill="#191970" stroke="#191970" points="3146.1755,-178.9349 3156.7612,-179.3733 3148.7593,-172.4292 3146.1755,-178.9349"/>
</g>
<!-- Node97 -->
<g id="node34" class="node">
<title>Node97</title>
<g id="a_node34"><a xlink:href="_ksgs_m84_src_8cpp.html" target="_top" xlink:title="KsgsM84Src.cpp">
<polygon fill="#ffffff" stroke="#000000" points="3098,-123.5 3098,-142.5 3190,-142.5 3190,-123.5 3098,-123.5"/>
<text text-anchor="middle" x="3144" y="-130.5" font-family="Helvetica,sans-Serif" font-size="10.00" fill="#000000">KsgsM84Src.cpp</text>
</a>
</g>
</g>
<!-- Node33&#45;&gt;Node97 -->
<g id="edge38" class="edge">
<title>Node33&#45;&gt;Node97</title>
<path fill="none" stroke="#191970" d="M3168.8624,-170.6296C3162.6907,-161.2887 3155.4434,-150.3197 3150.3711,-142.6427"/>
<polygon fill="#191970" stroke="#191970" points="3166.1223,-172.8316 3174.5551,-179.2455 3171.9627,-168.9728 3166.1223,-172.8316"/>
</g>
<!-- Node98 -->
<g id="node35" class="node">
<title>Node98</title>
<g id="a_node35"><a xlink:href="_m_m_s_8_h.html" target="_top" xlink:title="MMS.H">
<polygon fill="#ffffff" stroke="#000000" points="3246,-123.5 3246,-142.5 3296,-142.5 3296,-123.5 3246,-123.5"/>
<text text-anchor="middle" x="3271" y="-130.5" font-family="Helvetica,sans-Serif" font-size="10.00" fill="#000000">MMS.H</text>
</a>
</g>
</g>
<!-- Node33&#45;&gt;Node98 -->
<g id="edge39" class="edge">
<title>Node33&#45;&gt;Node98</title>
<path fill="none" stroke="#191970" d="M3205.4784,-173.769C3221.4266,-163.8456 3241.751,-151.1994 3255.5028,-142.6427"/>
<polygon fill="#191970" stroke="#191970" points="3203.3183,-170.9908 3196.6768,-179.2455 3207.0165,-176.9342 3203.3183,-170.9908"/>
</g>
<!-- Node99 -->
<g id="node36" class="node">
<title>Node99</title>
<g id="a_node36"><a xlink:href="_m_m_s_8cpp.html" target="_top" xlink:title="MMS.cpp">
<polygon fill="#ffffff" stroke="#000000" points="3215.5,-62 3215.5,-81 3274.5,-81 3274.5,-62 3215.5,-62"/>
<text text-anchor="middle" x="3245" y="-69" font-family="Helvetica,sans-Serif" font-size="10.00" fill="#000000">MMS.cpp</text>
</a>
</g>
</g>
<!-- Node33&#45;&gt;Node99 -->
<g id="edge41" class="edge">
<title>Node33&#45;&gt;Node99</title>
<path fill="none" stroke="#191970" d="M3191.1167,-170.4263C3204.887,-145.1449 3229.0341,-100.8124 3239.6902,-81.2484"/>
<polygon fill="#191970" stroke="#191970" points="3187.9471,-168.9285 3186.2374,-179.3845 3194.0944,-172.2768 3187.9471,-168.9285"/>
</g>
<!-- Node100 -->
<g id="node37" class="node">
<title>Node100</title>
<g id="a_node37"><a xlink:href="_m_m_s_forcing_8cpp.html" target="_top" xlink:title="MMSForcing.cpp">
<polygon fill="#ffffff" stroke="#000000" points="3314.5,-123.5 3314.5,-142.5 3405.5,-142.5 3405.5,-123.5 3314.5,-123.5"/>
<text text-anchor="middle" x="3360" y="-130.5" font-family="Helvetica,sans-Serif" font-size="10.00" fill="#000000">MMSForcing.cpp</text>
</a>
</g>
</g>
<!-- Node33&#45;&gt;Node100 -->
<g id="edge42" class="edge">
<title>Node33&#45;&gt;Node100</title>
<path fill="none" stroke="#191970" d="M3221.5195,-176.3235C3254.3466,-166.0536 3299.8776,-151.8093 3329.6303,-142.5011"/>
<polygon fill="#191970" stroke="#191970" points="3220.27,-173.0471 3211.7712,-179.3733 3222.3601,-179.7278 3220.27,-173.0471"/>
</g>
<!-- Node101 -->
<g id="node38" class="node">
<title>Node101</title>
<g id="a_node38"><a xlink:href="_tioga_interface_8cpp.html" target="_top" xlink:title="TiogaInterface.cpp">
<polygon fill="#ffffff" stroke="#000000" points="3424,-123.5 3424,-142.5 3522,-142.5 3522,-123.5 3424,-123.5"/>
<text text-anchor="middle" x="3473" y="-130.5" font-family="Helvetica,sans-Serif" font-size="10.00" fill="#000000">TiogaInterface.cpp</text>
</a>
</g>
</g>
<!-- Node33&#45;&gt;Node101 -->
<g id="edge43" class="edge">
<title>Node33&#45;&gt;Node101</title>
<path fill="none" stroke="#191970" d="M3223.774,-180.7968C3277.02,-170.5852 3367.7673,-153.1816 3423.8289,-142.4301"/>
<polygon fill="#191970" stroke="#191970" points="3222.8079,-177.4182 3213.6462,-182.7391 3224.1264,-184.2929 3222.8079,-177.4182"/>
</g>
<!-- Node102 -->
<g id="node39" class="node">
<title>Node102</title>
<g id="a_node39"><a xlink:href="_convecting_taylor_vortex_8_h.html" target="_top" xlink:title="ConvectingTaylorVortex.H">
<polygon fill="#ffffff" stroke="#000000" points="3578,-123.5 3578,-142.5 3710,-142.5 3710,-123.5 3578,-123.5"/>
<text text-anchor="middle" x="3644" y="-130.5" font-family="Helvetica,sans-Serif" font-size="10.00" fill="#000000">ConvectingTaylorVortex.H</text>
</a>
</g>
</g>
<!-- Node33&#45;&gt;Node102 -->
<g id="edge45" class="edge">
<title>Node33&#45;&gt;Node102</title>
<path fill="none" stroke="#191970" d="M3223.8389,-183.9232C3294.6466,-175.5164 3440.5477,-158.1293 3564,-143 3568.4458,-142.4552 3573.0301,-141.8903 3577.6489,-141.3189"/>
<polygon fill="#191970" stroke="#191970" points="3223.0589,-180.4911 3213.5411,-185.1453 3223.8839,-187.4423 3223.0589,-180.4911"/>
</g>
<!-- Node103 -->
<g id="node40" class="node">
<title>Node103</title>
<g id="a_node40"><a xlink:href="_convecting_taylor_vortex_8cpp.html" target="_top" xlink:title="ConvectingTaylorVortex.cpp">
<polygon fill="#ffffff" stroke="#000000" points="3527,-62 3527,-81 3667,-81 3667,-62 3527,-62"/>
<text text-anchor="middle" x="3597" y="-69" font-family="Helvetica,sans-Serif" font-size="10.00" fill="#000000">ConvectingTaylorVortex.cpp</text>
</a>
</g>
</g>
<!-- Node33&#45;&gt;Node103 -->
<g id="edge47" class="edge">
<title>Node33&#45;&gt;Node103</title>
<path fill="none" stroke="#191970" d="M3223.9093,-186.9949C3305.2233,-182.6074 3478.3359,-170.2857 3531,-143 3559.0492,-128.4675 3581.3368,-97.0148 3591.3136,-81.1155"/>
<polygon fill="#191970" stroke="#191970" points="3223.3343,-183.5202 3213.5311,-187.5386 3223.7005,-190.5106 3223.3343,-183.5202"/>
</g>
<!-- Node104 -->
<g id="node41" class="node">
<title>Node104</title>
<g id="a_node41"><a xlink:href="_free_stream_8cpp.html" target="_top" xlink:title="FreeStream.cpp">
<polygon fill="#ffffff" stroke="#000000" points="3728,-123.5 3728,-142.5 3814,-142.5 3814,-123.5 3728,-123.5"/>
<text text-anchor="middle" x="3771" y="-130.5" font-family="Helvetica,sans-Serif" font-size="10.00" fill="#000000">FreeStream.cpp</text>
</a>
</g>
</g>
<!-- Node33&#45;&gt;Node104 -->
<g id="edge48" class="edge">
<title>Node33&#45;&gt;Node104</title>
<path fill="none" stroke="#191970" d="M3223.8054,-186.8662C3315.1227,-181.9794 3535.6698,-168.3944 3719,-143 3721.914,-142.5964 3724.912,-142.1374 3727.9275,-141.6432"/>
<polygon fill="#191970" stroke="#191970" points="3223.3784,-183.3837 3213.5767,-187.4059 3223.7473,-190.374 3223.3784,-183.3837"/>
</g>
<!-- Node105 -->
<g id="node42" class="node">
<title>Node105</title>
<g id="a_node42"><a xlink:href="_rayleigh_taylor_8cpp.html" target="_top" xlink:title="RayleighTaylor.cpp">
<polygon fill="#ffffff" stroke="#000000" points="3832.5,-123.5 3832.5,-142.5 3933.5,-142.5 3933.5,-123.5 3832.5,-123.5"/>
<text text-anchor="middle" x="3883" y="-130.5" font-family="Helvetica,sans-Serif" font-size="10.00" fill="#000000">RayleighTaylor.cpp</text>
</a>
</g>
</g>
<!-- Node33&#45;&gt;Node105 -->
<g id="edge49" class="edge">
<title>Node33&#45;&gt;Node105</title>
<path fill="none" stroke="#191970" d="M3223.5201,-187.3314C3326.6153,-182.986 3597.9839,-169.7531 3823,-143 3826.0411,-142.6384 3829.1631,-142.2305 3832.3088,-141.7912"/>
<polygon fill="#191970" stroke="#191970" points="3223.3482,-183.8354 3213.5023,-187.7478 3223.639,-190.8294 3223.3482,-183.8354"/>
</g>
<!-- Node106 -->
<g id="node43" class="node">
<title>Node106</title>
<g id="a_node43"><a xlink:href="_taylor_green_vortex_8cpp.html" target="_top" xlink:title="TaylorGreenVortex.cpp">
<polygon fill="#ffffff" stroke="#000000" points="3951.5,-123.5 3951.5,-142.5 4068.5,-142.5 4068.5,-123.5 3951.5,-123.5"/>
<text text-anchor="middle" x="4010" y="-130.5" font-family="Helvetica,sans-Serif" font-size="10.00" fill="#000000">TaylorGreenVortex.cpp</text>
</a>
</g>
</g>
<!-- Node33&#45;&gt;Node106 -->
<g id="edge50" class="edge">
<title>Node33&#45;&gt;Node106</title>
<path fill="none" stroke="#191970" d="M3224.013,-187.7283C3340.2178,-184.0066 3670.0982,-171.5472 3943,-143 3945.6903,-142.7186 3948.438,-142.407 3951.2111,-142.073"/>
<polygon fill="#191970" stroke="#191970" points="3223.6474,-184.238 3213.7628,-188.0516 3223.8681,-191.2346 3223.6474,-184.238"/>
</g>
<!-- Node107 -->
<g id="node44" class="node">
<title>Node107</title>
<g id="a_node44"><a xlink:href="_turb_model_8_h.html" target="_top" xlink:title="TurbModel.H">
<polygon fill="#ffffff" stroke="#ff0000" points="4086.5,-123.5 4086.5,-142.5 4159.5,-142.5 4159.5,-123.5 4086.5,-123.5"/>
<text text-anchor="middle" x="4123" y="-130.5" font-family="Helvetica,sans-Serif" font-size="10.00" fill="#000000">TurbModel.H</text>
</a>
</g>
</g>
<!-- Node33&#45;&gt;Node107 -->
<g id="edge51" class="edge">
<title>Node33&#45;&gt;Node107</title>
<path fill="none" stroke="#191970" d="M3223.8312,-187.7557C3378.7675,-183.1061 3909.7732,-165.8416 4078,-143 4080.6963,-142.6339 4083.4702,-142.1887 4086.2534,-141.6917"/>
<polygon fill="#191970" stroke="#191970" points="3223.647,-184.2595 3213.7558,-188.0561 3223.8557,-191.2564 3223.647,-184.2595"/>
</g>
<!-- Node110 -->
<g id="node45" class="node">
<title>Node110</title>
<g id="a_node45"><a xlink:href="turbulence__utils_8_h.html" target="_top" xlink:title="turbulence_utils.H">
<polygon fill="#ffffff" stroke="#000000" points="4177.5,-123.5 4177.5,-142.5 4272.5,-142.5 4272.5,-123.5 4177.5,-123.5"/>
<text text-anchor="middle" x="4225" y="-130.5" font-family="Helvetica,sans-Serif" font-size="10.00" fill="#000000">turbulence_utils.H</text>
</a>
</g>
</g>
<!-- Node33&#45;&gt;Node110 -->
<g id="edge52" class="edge">
<title>Node33&#45;&gt;Node110</title>
<path fill="none" stroke="#191970" d="M3224.2582,-187.7369C3389.6112,-182.7921 3981.775,-163.9847 4169,-143 4171.7481,-142.692 4174.5649,-142.3317 4177.4027,-141.9343"/>
<polygon fill="#191970" stroke="#191970" points="3223.8842,-184.2464 3213.9928,-188.0424 3224.0925,-191.2433 3223.8842,-184.2464"/>
</g>
<!-- Node115 -->
<g id="node46" class="node">
<title>Node115</title>
<g id="a_node46"><a xlink:href="_i_o_manager_8cpp.html" target="_top" xlink:title="IOManager.cpp">
<polygon fill="#ffffff" stroke="#000000" points="4290.5,-123.5 4290.5,-142.5 4373.5,-142.5 4373.5,-123.5 4290.5,-123.5"/>
<text text-anchor="middle" x="4332" y="-130.5" font-family="Helvetica,sans-Serif" font-size="10.00" fill="#000000">IOManager.cpp</text>
</a>
</g>
</g>
<!-- Node33&#45;&gt;Node115 -->
<g id="edge53" class="edge">
<title>Node33&#45;&gt;Node115</title>
<path fill="none" stroke="#191970" d="M3223.9022,-188.1011C3400.4637,-184.2636 4071.5411,-168.2864 4282,-143 4284.7247,-142.6726 4287.5226,-142.2779 4290.3362,-141.837"/>
<polygon fill="#191970" stroke="#191970" points="3223.6309,-184.606 3213.7088,-188.321 3223.782,-191.6044 3223.6309,-184.606"/>
</g>
<!-- Node116 -->
<g id="node47" class="node">
<title>Node116</title>
<g id="a_node47"><a xlink:href="_post_processing_8cpp.html" target="_top" xlink:title="PostProcessing.cpp">
<polygon fill="#ffffff" stroke="#000000" points="4392,-123.5 4392,-142.5 4496,-142.5 4496,-123.5 4392,-123.5"/>
<text text-anchor="middle" x="4444" y="-130.5" font-family="Helvetica,sans-Serif" font-size="10.00" fill="#000000">PostProcessing.cpp</text>
</a>
</g>
</g>
<!-- Node33&#45;&gt;Node116 -->
<g id="edge54" class="edge">
<title>Node33&#45;&gt;Node116</title>
<path fill="none" stroke="#191970" d="M3223.8007,-188.0764C3410.0743,-183.9467 4151.1485,-166.3494 4383,-143 4385.883,-142.7097 4388.8363,-142.3693 4391.8132,-141.9928"/>
<polygon fill="#191970" stroke="#191970" points="3223.5079,-184.5819 3213.5875,-188.3016 3223.6623,-191.5802 3223.5079,-184.5819"/>
</g>
<!-- Node117 -->
<g id="node48" class="node">
<title>Node117</title>
<g id="a_node48"><a xlink:href="_line_sampler_8cpp.html" target="_top" xlink:title="LineSampler.cpp">
<polygon fill="#ffffff" stroke="#000000" points="4514.5,-123.5 4514.5,-142.5 4603.5,-142.5 4603.5,-123.5 4514.5,-123.5"/>
<text text-anchor="middle" x="4559" y="-130.5" font-family="Helvetica,sans-Serif" font-size="10.00" fill="#000000">LineSampler.cpp</text>
</a>
</g>
</g>
<!-- Node33&#45;&gt;Node117 -->
<g id="edge55" class="edge">
<title>Node33&#45;&gt;Node117</title>
<path fill="none" stroke="#191970" d="M3223.9113,-188.3666C3421.859,-185.3131 4248.0807,-171.0948 4505,-143 4508.0329,-142.6683 4511.1514,-142.2633 4514.2866,-141.8085"/>
<polygon fill="#191970" stroke="#191970" points="3223.5761,-184.8712 3213.6308,-188.5238 3223.6832,-191.8704 3223.5761,-184.8712"/>
</g>
<!-- Node118 -->
<g id="node49" class="node">
<title>Node118</title>
<g id="a_node49"><a xlink:href="_probe_sampler_8cpp.html" target="_top" xlink:title="ProbeSampler.cpp">
<polygon fill="#ffffff" stroke="#000000" points="4621.5,-123.5 4621.5,-142.5 4718.5,-142.5 4718.5,-123.5 4621.5,-123.5"/>
<text text-anchor="middle" x="4670" y="-130.5" font-family="Helvetica,sans-Serif" font-size="10.00" fill="#000000">ProbeSampler.cpp</text>
</a>
</g>
</g>
<!-- Node33&#45;&gt;Node118 -->
<g id="edge56" class="edge">
<title>Node33&#45;&gt;Node118</title>
<path fill="none" stroke="#191970" d="M3223.6779,-188.4449C3430.8773,-185.6251 4333.3253,-171.8781 4613,-143 4615.6983,-142.7214 4618.4615,-142.3903 4621.2459,-142.0209"/>
<polygon fill="#191970" stroke="#191970" points="3223.4595,-184.9474 3213.5077,-188.5821 3223.554,-191.9468 3223.4595,-184.9474"/>
</g>
<!-- Node119 -->
<g id="node50" class="node">
<title>Node119</title>
<g id="a_node50"><a xlink:href="_sampling_8_h.html" target="_top" xlink:title="Sampling.H">
<polygon fill="#ffffff" stroke="#ff0000" points="4737,-123.5 4737,-142.5 4805,-142.5 4805,-123.5 4737,-123.5"/>
<text text-anchor="middle" x="4771" y="-130.5" font-family="Helvetica,sans-Serif" font-size="10.00" fill="#000000">Sampling.H</text>
</a>
</g>
</g>
<!-- Node33&#45;&gt;Node119 -->
<g id="edge57" class="edge">
<title>Node33&#45;&gt;Node119</title>
<path fill="none" stroke="#191970" d="M3223.616,-188.8774C3440.7147,-188.0787 4425.1993,-182.3137 4728,-143 4730.8883,-142.625 4733.8665,-142.141 4736.8444,-141.5886"/>
<polygon fill="#191970" stroke="#191970" points="3223.561,-185.3775 3213.5734,-188.9128 3223.5857,-192.3775 3223.561,-185.3775"/>
</g>
<!-- Node35 -->
<g id="node3" class="node">
<title>Node35</title>
<g id="a_node3"><a xlink:href="incflo__set__velocity__bcs_8cpp.html" target="_top" xlink:title="incflo_set_velocity\l_bcs.cpp">
<polygon fill="#ffffff" stroke="#000000" points="787,-56.5 787,-86.5 885,-86.5 885,-56.5 787,-56.5"/>
<text text-anchor="start" x="795" y="-74.5" font-family="Helvetica,sans-Serif" font-size="10.00" fill="#000000">incflo_set_velocity</text>
<text text-anchor="middle" x="836" y="-63.5" font-family="Helvetica,sans-Serif" font-size="10.00" fill="#000000">_bcs.cpp</text>
</a>
</g>
</g>
<!-- Node34&#45;&gt;Node35 -->
<g id="edge2" class="edge">
<title>Node34&#45;&gt;Node35</title>
<path fill="none" stroke="#191970" d="M870.9534,-115.3701C863.6929,-106.2574 854.9248,-95.2525 847.9867,-86.5446"/>
<polygon fill="#191970" stroke="#191970" points="868.3749,-117.7505 877.3438,-123.3906 873.8497,-113.3885 868.3749,-117.7505"/>
</g>
<!-- Node36 -->
<g id="node4" class="node">
<title>Node36</title>
<g id="a_node4"><a xlink:href="derive_8cpp.html" target="_top" xlink:title="derive.cpp">
<polygon fill="#ffffff" stroke="#000000" points="903,-62 903,-81 965,-81 965,-62 903,-62"/>
<text text-anchor="middle" x="934" y="-69" font-family="Helvetica,sans-Serif" font-size="10.00" fill="#000000">derive.cpp</text>
</a>
</g>
</g>
<!-- Node34&#45;&gt;Node36 -->
<g id="edge3" class="edge">
<title>Node34&#45;&gt;Node36</title>
<path fill="none" stroke="#191970" d="M899.1451,-115.2465C907.9642,-104.1775 918.9771,-90.3552 926.2358,-81.2449"/>
<polygon fill="#191970" stroke="#191970" points="896.1503,-113.3885 892.6563,-123.3906 901.6251,-117.7505 896.1503,-113.3885"/>
</g>
<!-- Node37 -->
<g id="node5" class="node">
<title>Node37</title>
<g id="a_node5"><a xlink:href="incflo__diffusion_8cpp.html" target="_top" xlink:title="incflo_diffusion.cpp">
<polygon fill="#ffffff" stroke="#000000" points="983.5,-62 983.5,-81 1084.5,-81 1084.5,-62 983.5,-62"/>
<text text-anchor="middle" x="1034" y="-69" font-family="Helvetica,sans-Serif" font-size="10.00" fill="#000000">incflo_diffusion.cpp</text>
</a>
</g>
</g>
<!-- Node34&#45;&gt;Node37 -->
<g id="edge4" class="edge">
<title>Node34&#45;&gt;Node37</title>
<path fill="none" stroke="#191970" d="M917.7181,-119.4955C945.9132,-107.858 985.9078,-91.3501 1010.8822,-81.0419"/>
<polygon fill="#191970" stroke="#191970" points="916.1894,-116.34 908.2813,-123.3906 918.8602,-122.8105 916.1894,-116.34"/>
</g>
<!-- Node38 -->
<g id="node6" class="node">
<title>Node38</title>
<g id="a_node6"><a xlink:href="incflo_8cpp.html" target="_top" xlink:title="incflo.cpp">
<polygon fill="#ffffff" stroke="#000000" points="1102.5,-62 1102.5,-81 1161.5,-81 1161.5,-62 1102.5,-62"/>
<text text-anchor="middle" x="1132" y="-69" font-family="Helvetica,sans-Serif" font-size="10.00" fill="#000000">incflo.cpp</text>
</a>
</g>
</g>
<!-- Node34&#45;&gt;Node38 -->
<g id="edge5" class="edge">
<title>Node34&#45;&gt;Node38</title>
<path fill="none" stroke="#191970" d="M920.2586,-126.991C961.9934,-119.4693 1033.3568,-105.3174 1093,-87 1098.4326,-85.3316 1104.1753,-83.2409 1109.5347,-81.1402"/>
<polygon fill="#191970" stroke="#191970" points="919.5448,-123.5629 910.3116,-128.7589 920.7698,-130.4549 919.5448,-123.5629"/>
</g>
<!-- Node39 -->
<g id="node7" class="node">
<title>Node39</title>
<g id="a_node7"><a xlink:href="incflo__advance_8cpp.html" target="_top" xlink:title="incflo_advance.cpp">
<polygon fill="#ffffff" stroke="#000000" points="1179.5,-62 1179.5,-81 1280.5,-81 1280.5,-62 1179.5,-62"/>
<text text-anchor="middle" x="1230" y="-69" font-family="Helvetica,sans-Serif" font-size="10.00" fill="#000000">incflo_advance.cpp</text>
</a>
</g>
</g>
<!-- Node34&#45;&gt;Node39 -->
<g id="edge6" class="edge">
<title>Node34&#45;&gt;Node39</title>
<path fill="none" stroke="#191970" d="M920.4052,-128.3625C974.4823,-121.037 1080.7802,-105.6824 1170,-87 1178.2136,-85.2801 1186.9921,-83.1693 1195.2288,-81.0655"/>
<polygon fill="#191970" stroke="#191970" points="919.7515,-124.9188 910.3066,-129.7191 920.6836,-131.8564 919.7515,-124.9188"/>
</g>
<!-- Node40 -->
<g id="node8" class="node">
<title>Node40</title>
<g id="a_node8"><a xlink:href="incflo__compute__dt_8cpp.html" target="_top" xlink:title="incflo_compute_dt.cpp">
<polygon fill="#ffffff" stroke="#000000" points="1298.5,-62 1298.5,-81 1413.5,-81 1413.5,-62 1298.5,-62"/>
<text text-anchor="middle" x="1356" y="-69" font-family="Helvetica,sans-Serif" font-size="10.00" fill="#000000">incflo_compute_dt.cpp</text>
</a>
</g>
</g>
<!-- Node34&#45;&gt;Node40 -->
<g id="edge7" class="edge">
<title>Node34&#45;&gt;Node40</title>
<path fill="none" stroke="#191970" d="M920.3012,-130.3427C990.7548,-124.7395 1153.6758,-110.2793 1289,-87 1298.5307,-85.3605 1308.7379,-83.2067 1318.2392,-81.0283"/>
<polygon fill="#191970" stroke="#191970" points="919.8938,-126.8638 910.1983,-131.1356 920.4415,-133.8423 919.8938,-126.8638"/>
</g>
<!-- Node41 -->
<g id="node9" class="node">
<title>Node41</title>
<g id="a_node9"><a xlink:href="incflo__regrid_8cpp.html" target="_top" xlink:title="incflo_regrid.cpp">
<polygon fill="#ffffff" stroke="#000000" points="1432,-62 1432,-81 1520,-81 1520,-62 1432,-62"/>
<text text-anchor="middle" x="1476" y="-69" font-family="Helvetica,sans-Serif" font-size="10.00" fill="#000000">incflo_regrid.cpp</text>
</a>
</g>
</g>
<!-- Node34&#45;&gt;Node41 -->
<g id="edge8" class="edge">
<title>Node34&#45;&gt;Node41</title>
<path fill="none" stroke="#191970" d="M920.1545,-132.3425C1006.3792,-130.2213 1234.9557,-121.5172 1422,-87 1430.0569,-85.5132 1438.6405,-83.3332 1446.5376,-81.0752"/>
<polygon fill="#191970" stroke="#191970" points="920.038,-128.8441 910.1217,-132.5749 920.2002,-135.8423 920.038,-128.8441"/>
</g>
<!-- Node42 -->
<g id="node10" class="node">
<title>Node42</title>
<g id="a_node10"><a xlink:href="incflo__tagging_8cpp.html" target="_top" xlink:title="incflo_tagging.cpp">
<polygon fill="#ffffff" stroke="#000000" points="1538.5,-62 1538.5,-81 1633.5,-81 1633.5,-62 1538.5,-62"/>
<text text-anchor="middle" x="1586" y="-69" font-family="Helvetica,sans-Serif" font-size="10.00" fill="#000000">incflo_tagging.cpp</text>
</a>
</g>
</g>
<!-- Node34&#45;&gt;Node42 -->
<g id="edge9" class="edge">
<title>Node34&#45;&gt;Node42</title>
<path fill="none" stroke="#191970" d="M920.4588,-131.3766C1037.4259,-125.8791 1410.3211,-107.1777 1529,-87 1537.5936,-85.5389 1546.7644,-83.3393 1555.1818,-81.0527"/>
<polygon fill="#191970" stroke="#191970" points="920.0937,-127.8898 910.2679,-131.8526 920.4204,-134.8822 920.0937,-127.8898"/>
</g>
<!-- Node43 -->
<g id="node11" class="node">
<title>Node43</title>
<g id="a_node11"><a xlink:href="main_8cpp.html" target="_top" xlink:title="main.cpp">
<polygon fill="#ffffff" stroke="#000000" points="0,-62 0,-81 56,-81 56,-62 0,-62"/>
<text text-anchor="middle" x="28" y="-69" font-family="Helvetica,sans-Serif" font-size="10.00" fill="#000000">main.cpp</text>
</a>
</g>
</g>
<!-- Node34&#45;&gt;Node43 -->
<g id="edge10" class="edge">
<title>Node34&#45;&gt;Node43</title>
<path fill="none" stroke="#191970" d="M849.6034,-132.6105C712.6658,-130.857 217.7012,-122.1704 65,-87 59.1634,-85.6557 53.0726,-83.4654 47.5572,-81.1491"/>
<polygon fill="#191970" stroke="#191970" points="849.8846,-136.1141 859.9271,-132.7381 849.9711,-129.1146 849.8846,-136.1141"/>
</g>
<!-- Node44 -->
<g id="node12" class="node">
<title>Node44</title>
<g id="a_node12"><a xlink:href="prob__bc_8cpp.html" target="_top" xlink:title="prob_bc.cpp">
<polygon fill="#ffffff" stroke="#000000" points="74,-62 74,-81 144,-81 144,-62 74,-62"/>
<text text-anchor="middle" x="109" y="-69" font-family="Helvetica,sans-Serif" font-size="10.00" fill="#000000">prob_bc.cpp</text>
</a>
</g>
</g>
<!-- Node34&#45;&gt;Node44 -->
<g id="edge11" class="edge">
<title>Node34&#45;&gt;Node44</title>
<path fill="none" stroke="#191970" d="M849.3669,-132.0609C721.8532,-128.4979 288.6413,-114.5987 153,-87 146.1747,-85.6113 138.9696,-83.4064 132.4101,-81.0903"/>
<polygon fill="#191970" stroke="#191970" points="849.6297,-135.5693 859.7223,-132.3461 849.8225,-128.572 849.6297,-135.5693"/>
</g>
<!-- Node45 -->
<g id="node13" class="node">
<title>Node45</title>
<g id="a_node13"><a xlink:href="prob__init__fluid_8cpp.html" target="_top" xlink:title="prob_init_fluid.cpp">
<polygon fill="#ffffff" stroke="#000000" points="162.5,-62 162.5,-81 257.5,-81 257.5,-62 162.5,-62"/>
<text text-anchor="middle" x="210" y="-69" font-family="Helvetica,sans-Serif" font-size="10.00" fill="#000000">prob_init_fluid.cpp</text>
</a>
</g>
</g>
<!-- Node34&#45;&gt;Node45 -->
<g id="edge12" class="edge">
<title>Node34&#45;&gt;Node45</title>
<path fill="none" stroke="#191970" d="M849.4191,-131.2745C735.3334,-125.5975 379.5227,-106.7326 266,-87 257.5521,-85.5316 248.5404,-83.3295 240.2707,-81.0428"/>
<polygon fill="#191970" stroke="#191970" points="849.5281,-134.7841 859.6888,-131.7823 849.8739,-127.7926 849.5281,-134.7841"/>
</g>
<!-- Node46 -->
<g id="node14" class="node">
<title>Node46</title>
<g id="a_node14"><a xlink:href="incflo__apply__nodal__projection_8cpp.html" target="_top" xlink:title="incflo_apply_nodal\l_projection.cpp">
<polygon fill="#ffffff" stroke="#000000" points="275.5,-56.5 275.5,-86.5 372.5,-86.5 372.5,-56.5 275.5,-56.5"/>
<text text-anchor="start" x="283.5" y="-74.5" font-family="Helvetica,sans-Serif" font-size="10.00" fill="#000000">incflo_apply_nodal</text>
<text text-anchor="middle" x="324" y="-63.5" font-family="Helvetica,sans-Serif" font-size="10.00" fill="#000000">_projection.cpp</text>
</a>
</g>
</g>
<!-- Node34&#45;&gt;Node46 -->
<g id="edge13" class="edge">
<title>Node34&#45;&gt;Node46</title>
<path fill="none" stroke="#191970" d="M849.8716,-131.8401C767.5333,-128.6759 555.894,-117.9555 382,-87 378.9216,-86.452 375.7681,-85.8196 372.5995,-85.13"/>
<polygon fill="#191970" stroke="#191970" points="849.8167,-135.3403 859.9396,-132.2136 850.0763,-128.3451 849.8167,-135.3403"/>
</g>
<!-- Node47 -->
<g id="node15" class="node">
<title>Node47</title>
<g id="a_node15"><a xlink:href="init_8cpp.html" target="_top" xlink:title="init.cpp">
<polygon fill="#ffffff" stroke="#000000" points="391,-62 391,-81 439,-81 439,-62 391,-62"/>
<text text-anchor="middle" x="415" y="-69" font-family="Helvetica,sans-Serif" font-size="10.00" fill="#000000">init.cpp</text>
</a>
</g>
</g>
<!-- Node34&#45;&gt;Node47 -->
<g id="edge14" class="edge">
<title>Node34&#45;&gt;Node47</title>
<path fill="none" stroke="#191970" d="M849.6924,-130.8065C759.7065,-124.9729 523.5551,-108.0728 448,-87 442.8785,-85.5716 437.5651,-83.4118 432.737,-81.1543"/>
<polygon fill="#191970" stroke="#191970" points="849.7175,-134.3152 859.9211,-131.4626 850.1657,-127.3296 849.7175,-134.3152"/>
</g>
<!-- Node48 -->
<g id="node16" class="node">
<title>Node48</title>
<g id="a_node16"><a xlink:href="set__background__pressure_8cpp.html" target="_top" xlink:title="set_background_pressure.cpp">
<polygon fill="#ffffff" stroke="#000000" points="457.5,-62 457.5,-81 604.5,-81 604.5,-62 457.5,-62"/>
<text text-anchor="middle" x="531" y="-69" font-family="Helvetica,sans-Serif" font-size="10.00" fill="#000000">set_background_pressure.cpp</text>
</a>
</g>
</g>
<!-- Node34&#45;&gt;Node48 -->
<g id="edge15" class="edge">
<title>Node34&#45;&gt;Node48</title>
<path fill="none" stroke="#191970" d="M849.8327,-127.2751C797.9598,-118.7802 697.9012,-102.2019 613,-87 602.5892,-85.1359 591.448,-83.0746 580.8396,-81.08"/>
<polygon fill="#191970" stroke="#191970" points="849.4132,-130.7529 859.8469,-128.9126 850.5429,-123.8446 849.4132,-130.7529"/>
</g>
<!-- Node49 -->
<g id="node17" class="node">
<title>Node49</title>
<g id="a_node17"><a xlink:href="diagnostics_8cpp.html" target="_top" xlink:title="diagnostics.cpp">
<polygon fill="#ffffff" stroke="#000000" points="622.5,-62 622.5,-81 707.5,-81 707.5,-62 622.5,-62"/>
<text text-anchor="middle" x="665" y="-69" font-family="Helvetica,sans-Serif" font-size="10.00" fill="#000000">diagnostics.cpp</text>
</a>
</g>
</g>
<!-- Node34&#45;&gt;Node49 -->
<g id="edge16" class="edge">
<title>Node34&#45;&gt;Node49</title>
<path fill="none" stroke="#191970" d="M849.7568,-123.7292C815.511,-114.645 762.0765,-100.2695 716,-87 709.5084,-85.1305 702.572,-83.0668 695.9723,-81.0717"/>
<polygon fill="#191970" stroke="#191970" points="849.1766,-127.1962 859.7393,-126.3716 850.9678,-120.4292 849.1766,-127.1962"/>
</g>
<!-- Node50 -->
<g id="node18" class="node">
<title>Node50</title>
<g id="a_node18"><a xlink:href="_field_plane_averaging_8cpp.html" target="_top" xlink:title="FieldPlaneAveraging.cpp">
<polygon fill="#ffffff" stroke="#000000" points="1651.5,-62 1651.5,-81 1776.5,-81 1776.5,-62 1651.5,-62"/>
<text text-anchor="middle" x="1714" y="-69" font-family="Helvetica,sans-Serif" font-size="10.00" fill="#000000">FieldPlaneAveraging.cpp</text>
</a>
</g>
</g>
<!-- Node34&#45;&gt;Node50 -->
<g id="edge17" class="edge">
<title>Node34&#45;&gt;Node50</title>
<path fill="none" stroke="#191970" d="M920.3514,-132.7484C1028.7495,-131.5716 1365.8501,-124.8928 1642,-87 1652.7675,-85.5225 1664.3224,-83.3174 1674.9546,-81.0307"/>
<polygon fill="#191970" stroke="#191970" points="920.2587,-129.2491 910.2941,-132.8486 920.3285,-136.2487 920.2587,-129.2491"/>
</g>
<!-- Node51 -->
<g id="node19" class="node">
<title>Node51</title>
<g id="a_node19"><a xlink:href="io_8cpp.html" target="_top" xlink:title="io.cpp">
<polygon fill="#ffffff" stroke="#000000" points="725.5,-62 725.5,-81 768.5,-81 768.5,-62 725.5,-62"/>
<text text-anchor="middle" x="747" y="-69" font-family="Helvetica,sans-Serif" font-size="10.00" fill="#000000">io.cpp</text>
</a>
</g>
</g>
<!-- Node34&#45;&gt;Node51 -->
<g id="edge18" class="edge">
<title>Node34&#45;&gt;Node51</title>
<path fill="none" stroke="#191970" d="M852.1988,-119.4753C830.9125,-110.557 802.6497,-98.4494 778,-87 773.9616,-85.1242 769.6677,-83.0378 765.6033,-81.0191"/>
<polygon fill="#191970" stroke="#191970" points="850.8734,-122.7147 861.4501,-123.3347 853.5685,-116.2543 850.8734,-122.7147"/>
</g>
<!-- Node55&#45;&gt;Node68 -->
<g id="edge21" class="edge">
<title>Node55&#45;&gt;Node68</title>
<path fill="none" stroke="#191970" d="M2196.8551,-114.253C2191.5417,-103.3606 2185.0657,-90.0846 2180.7536,-81.2449"/>
<polygon fill="#191970" stroke="#191970" points="2193.7825,-115.9374 2201.3125,-123.3906 2200.0739,-112.8684 2193.7825,-115.9374"/>
</g>
<!-- Node80&#45;&gt;Node83 -->
<g id="edge25" class="edge">
<title>Node80&#45;&gt;Node83</title>
<path fill="none" stroke="#191970" d="M1914.381,-55.6491C1899.5164,-44.222 1879.943,-29.1749 1867.4122,-19.5419"/>
<polygon fill="#191970" stroke="#191970" points="1912.4387,-58.5707 1922.5,-61.8906 1916.7051,-53.021 1912.4387,-58.5707"/>
</g>
<!-- Node80&#45;&gt;Node85 -->
<g id="edge26" class="edge">
<title>Node80&#45;&gt;Node85</title>
<path fill="none" stroke="#191970" d="M1950.292,-54.4007C1960.285,-43.2268 1972.9763,-29.0356 1981.2851,-19.7449"/>
<polygon fill="#191970" stroke="#191970" points="1947.6511,-52.1034 1943.5938,-61.8906 1952.8689,-56.7698 1947.6511,-52.1034"/>
</g>
<!-- Node86&#45;&gt;Node50 -->
<g id="edge30" class="edge">
<title>Node86&#45;&gt;Node50</title>
<path fill="none" stroke="#191970" d="M1853.8756,-120.1009C1820.3053,-108.4366 1771.6479,-91.5302 1741.462,-81.0419"/>
<polygon fill="#191970" stroke="#191970" points="1852.7489,-123.4146 1863.3438,-123.3906 1855.0465,-116.8023 1852.7489,-123.4146"/>
</g>
<!-- Node86&#45;&gt;Node80 -->
<g id="edge28" class="edge">
<title>Node86&#45;&gt;Node80</title>
<path fill="none" stroke="#191970" d="M1903.7017,-115.2465C1911.621,-104.1775 1921.5101,-90.3552 1928.0281,-81.2449"/>
<polygon fill="#191970" stroke="#191970" points="1900.8472,-113.2212 1897.875,-123.3906 1906.5402,-117.2943 1900.8472,-113.2212"/>
</g>
<!-- Node86&#45;&gt;Node83 -->
<g id="edge29" class="edge">
<title>Node86&#45;&gt;Node83</title>
<path fill="none" stroke="#191970" d="M1883.375,-113.8462C1880.2548,-105.6494 1876.7416,-95.9273 1874,-87 1866.6433,-63.0446 1860.1437,-34.2325 1857.0008,-19.5772"/>
<polygon fill="#191970" stroke="#191970" points="1880.1415,-115.1883 1887.0295,-123.2386 1886.6651,-112.65 1880.1415,-115.1883"/>
</g>
<!-- Node98&#45;&gt;Node99 -->
<g id="edge40" class="edge">
<title>Node98&#45;&gt;Node99</title>
<path fill="none" stroke="#191970" d="M3262.9332,-113.9189C3258.3552,-103.0901 3252.8188,-89.9944 3249.1198,-81.2449"/>
<polygon fill="#191970" stroke="#191970" points="3259.8197,-115.5428 3266.9375,-123.3906 3266.2672,-112.817 3259.8197,-115.5428"/>
</g>
<!-- Node102&#45;&gt;Node103 -->
<g id="edge46" class="edge">
<title>Node102&#45;&gt;Node103</title>
<path fill="none" stroke="#191970" d="M3630.4323,-115.2465C3621.9731,-104.1775 3611.4097,-90.3552 3604.4473,-81.2449"/>
<polygon fill="#191970" stroke="#191970" points="3627.8032,-117.5704 3636.6563,-123.3906 3633.365,-113.3199 3627.8032,-117.5704"/>
</g>
</g>
</svg>
