<?xml version="1.0" encoding="UTF-8" standalone="no"?>
<!DOCTYPE svg PUBLIC "-//W3C//DTD SVG 1.1//EN"
 "http://www.w3.org/Graphics/SVG/1.1/DTD/svg11.dtd">
<!-- Generated by graphviz version 2.40.1 (20161225.0304)
 -->
<!-- Title: CFDSim.cpp Pages: 1 -->
<!--zoomable 274 -->
<svg id="main" version="1.1" xmlns="http://www.w3.org/2000/svg" xmlns:xlink="http://www.w3.org/1999/xlink" xml:space="preserve" onload="init(evt)">
<style type="text/css"><![CDATA[
.edge:hover path { stroke: red; }
.edge:hover polygon { stroke: red; fill: red; }
]]></style>
<script type="text/javascript"><![CDATA[
var edges = document.getElementsByTagName('g');
if (edges && edges.length) {
  for (var i=0;i<edges.length;i++) {
    if (edges[i].id.substr(0,4)=='edge') {
      edges[i].setAttribute('class','edge');
    }
  }
}
]]></script>
        <defs>
                <circle id="rim" cx="0" cy="0" r="7"/>
                <circle id="rim2" cx="0" cy="0" r="3.5"/>
                <g id="zoomPlus">
                        <use xlink:href="#rim" fill="#404040">
                                <set attributeName="fill" to="#808080" begin="zoomplus.mouseover" end="zoomplus.mouseout"/>
                        </use>
                        <path d="M-4,0h8M0,-4v8" fill="none" stroke="white" stroke-width="1.5" pointer-events="none"/>
                </g>
                <g id="zoomMin">
                        <use xlink:href="#rim" fill="#404040">
                                <set attributeName="fill" to="#808080" begin="zoomminus.mouseover" end="zoomminus.mouseout"/>
                        </use>
                        <path d="M-4,0h8" fill="none" stroke="white" stroke-width="1.5" pointer-events="none"/>
                </g>
                <g id="dirArrow">
                        <path fill="none" stroke="white" stroke-width="1.5" d="M0,-3.0v7 M-2.5,-0.5L0,-3.0L2.5,-0.5"/>
                </g>
               <g id="resetDef">
                       <use xlink:href="#rim2" fill="#404040">
                               <set attributeName="fill" to="#808080" begin="reset.mouseover" end="reset.mouseout"/>
                       </use>
               </g>
        </defs>

<script type="text/javascript">
var viewWidth = 2284;
var viewHeight = 274;
var sectionId = 'dynsection-0';
</script>
<script xlink:href="svgpan.js"/>
<svg id="graph" class="graph">
<g id="viewport">
<title>CFDSim.cpp</title>
<polygon fill="#ffffff" stroke="transparent" points="-4,4 -4,-270 2280,-270 2280,4 -4,4"/>
<!-- Node0 -->
<g id="node1" class="node">
<title>Node0</title>
<polygon fill="#bfbfbf" stroke="#000000" points="1916,-246.5 1916,-265.5 1990,-265.5 1990,-246.5 1916,-246.5"/>
<text text-anchor="middle" x="1953" y="-253.5" font-family="Helvetica,sans-Serif" font-size="10.00" fill="#000000">CFDSim.cpp</text>
</g>
<!-- Node1 -->
<g id="node2" class="node">
<title>Node1</title>
<g id="a_node2"><a xlink:href="_c_f_d_sim_8_h.html" target="_top" xlink:title="amr&#45;wind/CFDSim.H">
<polygon fill="#ffffff" stroke="#000000" points="1147,-190.5 1147,-209.5 1255,-209.5 1255,-190.5 1147,-190.5"/>
<text text-anchor="middle" x="1201" y="-197.5" font-family="Helvetica,sans-Serif" font-size="10.00" fill="#000000">amr&#45;wind/CFDSim.H</text>
</a>
</g>
</g>
<!-- Node0&#45;&gt;Node1 -->
<g id="edge1" class="edge">
<title>Node0&#45;&gt;Node1</title>
<path fill="none" stroke="#191970" d="M1915.9647,-253.2421C1796.0368,-244.3112 1417.2984,-216.1073 1265.1732,-204.7789"/>
<polygon fill="#191970" stroke="#191970" points="1265.2842,-201.2775 1255.0519,-204.0251 1264.7643,-208.2582 1265.2842,-201.2775"/>
</g>
<!-- Node33 -->
<g id="node34" class="node">
<title>Node33</title>
<g id="a_node34"><a xlink:href="_turbulence_model_8_h.html" target="_top" xlink:title="amr&#45;wind/turbulence\l/TurbulenceModel.H">
<polygon fill="#ffffff" stroke="#000000" points="1821,-123.5 1821,-153.5 1925,-153.5 1925,-123.5 1821,-123.5"/>
<text text-anchor="start" x="1829" y="-141.5" font-family="Helvetica,sans-Serif" font-size="10.00" fill="#000000">amr&#45;wind/turbulence</text>
<text text-anchor="middle" x="1873" y="-130.5" font-family="Helvetica,sans-Serif" font-size="10.00" fill="#000000">/TurbulenceModel.H</text>
</a>
</g>
</g>
<!-- Node0&#45;&gt;Node33 -->
<g id="edge57" class="edge">
<title>Node0&#45;&gt;Node33</title>
<path fill="none" stroke="#191970" d="M1946.4533,-246.3845C1934.0354,-228.1458 1906.7315,-188.0432 1889.1369,-162.201"/>
<polygon fill="#191970" stroke="#191970" points="1891.8797,-160.0105 1883.3587,-153.7143 1886.0935,-163.9501 1891.8797,-160.0105"/>
</g>
<!-- Node34 -->
<g id="node35" class="node">
<title>Node34</title>
<g id="a_node35"><a xlink:href="_i_o_manager_8_h.html" target="_top" xlink:title="amr&#45;wind/utilities\l/IOManager.H">
<polygon fill="#ffffff" stroke="#000000" points="1908,-56.5 1908,-86.5 1998,-86.5 1998,-56.5 1908,-56.5"/>
<text text-anchor="start" x="1916" y="-74.5" font-family="Helvetica,sans-Serif" font-size="10.00" fill="#000000">amr&#45;wind/utilities</text>
<text text-anchor="middle" x="1953" y="-63.5" font-family="Helvetica,sans-Serif" font-size="10.00" fill="#000000">/IOManager.H</text>
</a>
</g>
</g>
<!-- Node0&#45;&gt;Node34 -->
<g id="edge60" class="edge">
<title>Node0&#45;&gt;Node34</title>
<path fill="none" stroke="#191970" d="M1953,-246.3402C1953,-218.6387 1953,-138.2663 1953,-96.8429"/>
<polygon fill="#191970" stroke="#191970" points="1956.5001,-96.7363 1953,-86.7363 1949.5001,-96.7364 1956.5001,-96.7363"/>
</g>
<!-- Node36 -->
<g id="node37" class="node">
<title>Node36</title>
<g id="a_node37"><a xlink:href="_post_processing_8_h.html" target="_top" xlink:title="amr&#45;wind/utilities\l/PostProcessing.H">
<polygon fill="#ffffff" stroke="#000000" points="2029.5,-123.5 2029.5,-153.5 2128.5,-153.5 2128.5,-123.5 2029.5,-123.5"/>
<text text-anchor="start" x="2037.5" y="-141.5" font-family="Helvetica,sans-Serif" font-size="10.00" fill="#000000">amr&#45;wind/utilities</text>
<text text-anchor="middle" x="2079" y="-130.5" font-family="Helvetica,sans-Serif" font-size="10.00" fill="#000000">/PostProcessing.H</text>
</a>
</g>
</g>
<!-- Node0&#45;&gt;Node36 -->
<g id="edge65" class="edge">
<title>Node0&#45;&gt;Node36</title>
<path fill="none" stroke="#191970" d="M1960.1575,-246.4674C1970.4247,-233.1 1990.278,-208.3659 2010,-190 2021.7323,-179.0744 2035.7448,-168.2643 2048.0677,-159.3904"/>
<polygon fill="#191970" stroke="#191970" points="2050.1392,-162.2123 2056.2802,-153.5787 2046.0955,-156.4983 2050.1392,-162.2123"/>
</g>
<!-- Node37 -->
<g id="node38" class="node">
<title>Node37</title>
<polygon fill="#ffffff" stroke="#bfbfbf" points="2019,-190.5 2019,-209.5 2135,-209.5 2135,-190.5 2019,-190.5"/>
<text text-anchor="middle" x="2077" y="-197.5" font-family="Helvetica,sans-Serif" font-size="10.00" fill="#000000">AMReX_ParmParse.H</text>
</g>
<!-- Node0&#45;&gt;Node37 -->
<g id="edge68" class="edge">
<title>Node0&#45;&gt;Node37</title>
<path fill="none" stroke="#191970" d="M1974.3164,-246.3733C1994.2216,-237.3838 2024.1436,-223.8706 2046.56,-213.7471"/>
<polygon fill="#191970" stroke="#191970" points="2048.2887,-216.8068 2055.9618,-209.5011 2045.4075,-210.4272 2048.2887,-216.8068"/>
</g>
<!-- Node2 -->
<g id="node3" class="node">
<title>Node2</title>
<polygon fill="#ffffff" stroke="#bfbfbf" points="384,-62 384,-81 490,-81 490,-62 384,-62"/>
<text text-anchor="middle" x="437" y="-69" font-family="Helvetica,sans-Serif" font-size="10.00" fill="#000000">AMReX_AmrCore.H</text>
</g>
<!-- Node1&#45;&gt;Node2 -->
<g id="edge2" class="edge">
<title>Node1&#45;&gt;Node2</title>
<path fill="none" stroke="#191970" d="M1146.8999,-191.6225C1088.8068,-182.572 993.8143,-167.6154 912,-154 764.1781,-129.3997 590.79,-98.8567 499.8981,-82.7156"/>
<polygon fill="#191970" stroke="#191970" points="500.4878,-79.2657 490.0297,-80.9622 499.2631,-86.1577 500.4878,-79.2657"/>
</g>
<!-- Node3 -->
<g id="node4" class="node">
<title>Node3</title>
<g id="a_node4"><a xlink:href="_sim_time_8_h.html" target="_top" xlink:title="amr&#45;wind/core/SimTime.H">
<polygon fill="#ffffff" stroke="#000000" points="193.5,-129 193.5,-148 324.5,-148 324.5,-129 193.5,-129"/>
<text text-anchor="middle" x="259" y="-136" font-family="Helvetica,sans-Serif" font-size="10.00" fill="#000000">amr&#45;wind/core/SimTime.H</text>
</a>
</g>
</g>
<!-- Node1&#45;&gt;Node3 -->
<g id="edge3" class="edge">
<title>Node1&#45;&gt;Node3</title>
<path fill="none" stroke="#191970" d="M1146.9706,-196.4726C987.6437,-186.0707 519.3475,-155.4972 334.9015,-143.4554"/>
<polygon fill="#191970" stroke="#191970" points="334.9556,-139.9515 324.7488,-142.7925 334.4995,-146.9367 334.9556,-139.9515"/>
</g>
<!-- Node7 -->
<g id="node8" class="node">
<title>Node7</title>
<g id="a_node8"><a xlink:href="_field_repo_8_h.html" target="_top" xlink:title="amr&#45;wind/core/FieldRepo.H">
<polygon fill="#ffffff" stroke="#000000" points="921,-129 921,-148 1057,-148 1057,-129 921,-129"/>
<text text-anchor="middle" x="989" y="-136" font-family="Helvetica,sans-Serif" font-size="10.00" fill="#000000">amr&#45;wind/core/FieldRepo.H</text>
</a>
</g>
</g>
<!-- Node1&#45;&gt;Node7 -->
<g id="edge7" class="edge">
<title>Node1&#45;&gt;Node7</title>
<path fill="none" stroke="#191970" d="M1167.875,-190.3906C1131.1589,-179.7395 1071.8336,-162.5296 1031.6662,-150.8772"/>
<polygon fill="#191970" stroke="#191970" points="1032.4716,-147.4666 1021.8924,-148.0419 1030.5213,-154.1895 1032.4716,-147.4666"/>
</g>
<!-- Node22 -->
<g id="node23" class="node">
<title>Node22</title>
<g id="a_node23"><a xlink:href="_p_d_e_base_8_h.html" target="_top" xlink:title="amr&#45;wind/equation_systems\l/PDEBase.H">
<polygon fill="#ffffff" stroke="#000000" points="1342.5,-123.5 1342.5,-153.5 1481.5,-153.5 1481.5,-123.5 1342.5,-123.5"/>
<text text-anchor="start" x="1350.5" y="-141.5" font-family="Helvetica,sans-Serif" font-size="10.00" fill="#000000">amr&#45;wind/equation_systems</text>
<text text-anchor="middle" x="1412" y="-130.5" font-family="Helvetica,sans-Serif" font-size="10.00" fill="#000000">/PDEBase.H</text>
</a>
</g>
</g>
<!-- Node1&#45;&gt;Node22 -->
<g id="edge35" class="edge">
<title>Node1&#45;&gt;Node22</title>
<path fill="none" stroke="#191970" d="M1233.9688,-190.3906C1265.0369,-181.3352 1312.3702,-167.539 1350.4228,-156.4479"/>
<polygon fill="#191970" stroke="#191970" points="1351.7625,-159.7031 1360.3836,-153.5446 1349.8037,-152.9827 1351.7625,-159.7031"/>
</g>
<!-- Node31 -->
<g id="node32" class="node">
<title>Node31</title>
<g id="a_node32"><a xlink:href="_physics_8_h.html" target="_top" xlink:title="amr&#45;wind/core/Physics.H">
<polygon fill="#ffffff" stroke="#000000" points="1635.5,-129 1635.5,-148 1762.5,-148 1762.5,-129 1635.5,-129"/>
<text text-anchor="middle" x="1699" y="-136" font-family="Helvetica,sans-Serif" font-size="10.00" fill="#000000">amr&#45;wind/core/Physics.H</text>
</a>
</g>
</g>
<!-- Node1&#45;&gt;Node31 -->
<g id="edge52" class="edge">
<title>Node1&#45;&gt;Node31</title>
<path fill="none" stroke="#191970" d="M1255.2427,-193.3013C1344.932,-182.2253 1524.2489,-160.0807 1625.3237,-147.5986"/>
<polygon fill="#191970" stroke="#191970" points="1625.9582,-151.0469 1635.4538,-146.3476 1625.1002,-144.0997 1625.9582,-151.0469"/>
</g>
<!-- Node4 -->
<g id="node5" class="node">
<title>Node4</title>
<polygon fill="#ffffff" stroke="#bfbfbf" points="272.5,-62 272.5,-81 365.5,-81 365.5,-62 272.5,-62"/>
<text text-anchor="middle" x="319" y="-69" font-family="Helvetica,sans-Serif" font-size="10.00" fill="#000000">AMReX_REAL.H</text>
</g>
<!-- Node3&#45;&gt;Node4 -->
<g id="edge4" class="edge">
<title>Node3&#45;&gt;Node4</title>
<path fill="none" stroke="#191970" d="M267.5965,-128.9005C276.953,-118.4525 292.1052,-101.5325 303.5401,-88.7635"/>
<polygon fill="#191970" stroke="#191970" points="306.3555,-90.8661 310.4194,-81.0817 301.1408,-86.1963 306.3555,-90.8661"/>
</g>
<!-- Node5 -->
<g id="node6" class="node">
<title>Node5</title>
<polygon fill="#ffffff" stroke="#bfbfbf" points="0,-62 0,-81 126,-81 126,-62 0,-62"/>
<text text-anchor="middle" x="63" y="-69" font-family="Helvetica,sans-Serif" font-size="10.00" fill="#000000">AMReX_GpuQualifiers.H</text>
</g>
<!-- Node3&#45;&gt;Node5 -->
<g id="edge5" class="edge">
<title>Node3&#45;&gt;Node5</title>
<path fill="none" stroke="#191970" d="M230.918,-128.9005C196.7149,-117.2086 138.8028,-97.4122 100.7303,-84.3976"/>
<polygon fill="#191970" stroke="#191970" points="101.6245,-81.0045 91.0299,-81.0817 99.3602,-87.6282 101.6245,-81.0045"/>
</g>
<!-- Node6 -->
<g id="node7" class="node">
<title>Node6</title>
<polygon fill="#ffffff" stroke="#bfbfbf" points="144,-62 144,-81 254,-81 254,-62 144,-62"/>
<text text-anchor="middle" x="199" y="-69" font-family="Helvetica,sans-Serif" font-size="10.00" fill="#000000">AMReX_Extension.H</text>
</g>
<!-- Node3&#45;&gt;Node6 -->
<g id="edge6" class="edge">
<title>Node3&#45;&gt;Node6</title>
<path fill="none" stroke="#191970" d="M250.4035,-128.9005C241.047,-118.4525 225.8948,-101.5325 214.4599,-88.7635"/>
<polygon fill="#191970" stroke="#191970" points="216.8592,-86.1963 207.5806,-81.0817 211.6445,-90.8661 216.8592,-86.1963"/>
</g>
<!-- Node7&#45;&gt;Node2 -->
<g id="edge32" class="edge">
<title>Node7&#45;&gt;Node2</title>
<path fill="none" stroke="#191970" d="M920.7718,-133.8834C826.5759,-126.9128 651.5913,-111.8137 504,-87 497.7414,-85.9478 491.1932,-84.6643 484.7455,-83.2908"/>
<polygon fill="#191970" stroke="#191970" points="485.2723,-79.8228 474.7522,-81.0789 483.7595,-86.6574 485.2723,-79.8228"/>
</g>
<!-- Node8 -->
<g id="node9" class="node">
<title>Node8</title>
<polygon fill="#ffffff" stroke="#bfbfbf" points="1316.5,-.5 1316.5,-19.5 1357.5,-19.5 1357.5,-.5 1316.5,-.5"/>
<text text-anchor="middle" x="1337" y="-7.5" font-family="Helvetica,sans-Serif" font-size="10.00" fill="#000000">string</text>
</g>
<!-- Node7&#45;&gt;Node8 -->
<g id="edge8" class="edge">
<title>Node7&#45;&gt;Node8</title>
<path fill="none" stroke="#191970" d="M1057.3269,-136.3807C1142.0626,-132.3304 1279.8922,-120.6255 1317,-87 1332.859,-72.6293 1336.847,-47.4448 1337.5244,-29.8024"/>
<polygon fill="#191970" stroke="#191970" points="1341.0247,-29.7441 1337.5891,-19.7218 1334.0249,-29.6991 1341.0247,-29.7441"/>
</g>
<!-- Node9 -->
<g id="node10" class="node">
<title>Node9</title>
<polygon fill="#ffffff" stroke="#bfbfbf" points="1657.5,-.5 1657.5,-19.5 1740.5,-19.5 1740.5,-.5 1657.5,-.5"/>
<text text-anchor="middle" x="1699" y="-7.5" font-family="Helvetica,sans-Serif" font-size="10.00" fill="#000000">unordered_map</text>
</g>
<!-- Node7&#45;&gt;Node9 -->
<g id="edge9" class="edge">
<title>Node7&#45;&gt;Node9</title>
<path fill="none" stroke="#191970" d="M1057.2489,-134.8676C1204.0761,-126.7325 1540.6095,-106.2501 1589,-87 1609.5739,-78.8155 1610.0209,-68.9238 1628,-56 1643.1636,-45.1 1660.7791,-33.68 1674.6703,-24.9454"/>
<polygon fill="#191970" stroke="#191970" points="1676.5658,-27.8882 1683.1978,-19.6258 1672.8608,-21.9491 1676.5658,-27.8882"/>
</g>
<!-- Node10 -->
<g id="node11" class="node">
<title>Node10</title>
<g id="a_node11"><a xlink:href="_field_desc_types_8_h.html" target="_top" xlink:title="amr&#45;wind/core/FieldDescTypes.H">
<polygon fill="#ffffff" stroke="#000000" points="915.5,-.5 915.5,-19.5 1078.5,-19.5 1078.5,-.5 915.5,-.5"/>
<text text-anchor="middle" x="997" y="-7.5" font-family="Helvetica,sans-Serif" font-size="10.00" fill="#000000">amr&#45;wind/core/FieldDescTypes.H</text>
</a>
</g>
</g>
<!-- Node7&#45;&gt;Node10 -->
<g id="edge10" class="edge">
<title>Node7&#45;&gt;Node10</title>
<path fill="none" stroke="#191970" d="M1017.6436,-128.876C1036.4914,-120.8759 1059.6947,-107.4503 1071,-87 1077.6658,-74.9421 1077.6937,-68.0425 1071,-56 1063.0422,-41.6832 1048.5771,-31.2479 1034.5334,-23.972"/>
<polygon fill="#191970" stroke="#191970" points="1035.9712,-20.7801 1025.4381,-19.6379 1032.9599,-27.0993 1035.9712,-20.7801"/>
</g>
<!-- Node11 -->
<g id="node12" class="node">
<title>Node11</title>
<g id="a_node12"><a xlink:href="_field_utils_8_h.html" target="_top" xlink:title="amr&#45;wind/core/FieldUtils.H">
<polygon fill="#ffffff" stroke="#000000" points="584.5,-62 584.5,-81 717.5,-81 717.5,-62 584.5,-62"/>
<text text-anchor="middle" x="651" y="-69" font-family="Helvetica,sans-Serif" font-size="10.00" fill="#000000">amr&#45;wind/core/FieldUtils.H</text>
</a>
</g>
</g>
<!-- Node7&#45;&gt;Node11 -->
<g id="edge11" class="edge">
<title>Node7&#45;&gt;Node11</title>
<path fill="none" stroke="#191970" d="M939.7251,-128.9225C887.0488,-118.6585 801.0902,-101.8368 727,-87 720.7612,-85.7506 714.2363,-84.4345 707.7435,-83.1187"/>
<polygon fill="#191970" stroke="#191970" points="708.1093,-79.6216 697.6127,-81.061 706.7159,-86.4815 708.1093,-79.6216"/>
</g>
<!-- Node12 -->
<g id="node13" class="node">
<title>Node12</title>
<polygon fill="#ffffff" stroke="#bfbfbf" points="793,-.5 793,-19.5 897,-19.5 897,-.5 793,-.5"/>
<text text-anchor="middle" x="845" y="-7.5" font-family="Helvetica,sans-Serif" font-size="10.00" fill="#000000">AMReX_MultiFab.H</text>
</g>
<!-- Node7&#45;&gt;Node12 -->
<g id="edge33" class="edge">
<title>Node7&#45;&gt;Node12</title>
<path fill="none" stroke="#191970" d="M920.9301,-134.8647C809.5483,-128.2136 598.4193,-112.3885 576,-87 566.8803,-76.6725 567.1166,-66.5315 576,-56 589.2022,-40.3485 707.2355,-24.8595 782.5013,-16.4504"/>
<polygon fill="#191970" stroke="#191970" points="783.2666,-19.8873 792.8224,-15.3115 782.4988,-12.9295 783.2666,-19.8873"/>
</g>
<!-- Node14 -->
<g id="node15" class="node">
<title>Node14</title>
<g id="a_node15"><a xlink:href="_field_8_h.html" target="_top" xlink:title="amr&#45;wind/core/Field.H">
<polygon fill="#ffffff" stroke="#000000" points="1194.5,-62 1194.5,-81 1307.5,-81 1307.5,-62 1194.5,-62"/>
<text text-anchor="middle" x="1251" y="-69" font-family="Helvetica,sans-Serif" font-size="10.00" fill="#000000">amr&#45;wind/core/Field.H</text>
</a>
</g>
</g>
<!-- Node7&#45;&gt;Node14 -->
<g id="edge15" class="edge">
<title>Node7&#45;&gt;Node14</title>
<path fill="none" stroke="#191970" d="M1026.26,-128.9717C1072.8812,-117.0495 1152.7664,-96.6208 1203.6688,-83.6038"/>
<polygon fill="#191970" stroke="#191970" points="1204.6233,-86.9724 1213.4444,-81.1039 1202.889,-80.1906 1204.6233,-86.9724"/>
</g>
<!-- Node19 -->
<g id="node20" class="node">
<title>Node19</title>
<g id="a_node20"><a xlink:href="_int_field_8_h.html" target="_top" xlink:title="amr&#45;wind/core/IntField.H">
<polygon fill="#ffffff" stroke="#000000" points="736,-62 736,-81 860,-81 860,-62 736,-62"/>
<text text-anchor="middle" x="798" y="-69" font-family="Helvetica,sans-Serif" font-size="10.00" fill="#000000">amr&#45;wind/core/IntField.H</text>
</a>
</g>
</g>
<!-- Node7&#45;&gt;Node19 -->
<g id="edge24" class="edge">
<title>Node7&#45;&gt;Node19</title>
<path fill="none" stroke="#191970" d="M961.6344,-128.9005C928.3038,-117.2086 871.8691,-97.4122 834.7677,-84.3976"/>
<polygon fill="#191970" stroke="#191970" points="835.9097,-81.0891 825.3149,-81.0817 833.5926,-87.6945 835.9097,-81.0891"/>
</g>
<!-- Node20 -->
<g id="node21" class="node">
<title>Node20</title>
<polygon fill="#ffffff" stroke="#bfbfbf" points="466.5,-.5 466.5,-19.5 573.5,-19.5 573.5,-.5 466.5,-.5"/>
<text text-anchor="middle" x="520" y="-7.5" font-family="Helvetica,sans-Serif" font-size="10.00" fill="#000000">AMReX_iMultiFab.H</text>
</g>
<!-- Node7&#45;&gt;Node20 -->
<g id="edge34" class="edge">
<title>Node7&#45;&gt;Node20</title>
<path fill="none" stroke="#191970" d="M920.8618,-133.5462C808.5673,-124.8924 594.0866,-106.1146 565,-87 544.5565,-73.5653 532.207,-47.3853 525.7475,-29.3087"/>
<polygon fill="#191970" stroke="#191970" points="529.0563,-28.1662 522.6082,-19.7595 522.4064,-30.3524 529.0563,-28.1662"/>
</g>
<!-- Node21 -->
<g id="node22" class="node">
<title>Node21</title>
<g id="a_node22"><a xlink:href="_scratch_field_8_h.html" target="_top" xlink:title="amr&#45;wind/core/ScratchField.H">
<polygon fill="#ffffff" stroke="#000000" points="916,-62 916,-81 1062,-81 1062,-62 916,-62"/>
<text text-anchor="middle" x="989" y="-69" font-family="Helvetica,sans-Serif" font-size="10.00" fill="#000000">amr&#45;wind/core/ScratchField.H</text>
</a>
</g>
</g>
<!-- Node7&#45;&gt;Node21 -->
<g id="edge28" class="edge">
<title>Node7&#45;&gt;Node21</title>
<path fill="none" stroke="#191970" d="M989,-128.9005C989,-119.149 989,-103.7597 989,-91.3695"/>
<polygon fill="#191970" stroke="#191970" points="992.5001,-91.0816 989,-81.0817 985.5001,-91.0817 992.5001,-91.0816"/>
</g>
<!-- Node11&#45;&gt;Node10 -->
<g id="edge12" class="edge">
<title>Node11&#45;&gt;Node10</title>
<path fill="none" stroke="#191970" d="M696.365,-61.9972C706.4391,-59.957 717.0727,-57.8575 727,-56 795.2011,-43.239 873.3745,-30.0804 927.9942,-21.1233"/>
<polygon fill="#191970" stroke="#191970" points="928.6074,-24.5696 937.911,-19.5008 927.4771,-17.6615 928.6074,-24.5696"/>
</g>
<!-- Node11&#45;&gt;Node12 -->
<g id="edge13" class="edge">
<title>Node11&#45;&gt;Node12</title>
<path fill="none" stroke="#191970" d="M681.3125,-61.8906C714.6265,-51.3298 768.2808,-34.3208 805.0181,-22.6747"/>
<polygon fill="#191970" stroke="#191970" points="806.4256,-25.9002 814.9004,-19.5419 804.3102,-19.2275 806.4256,-25.9002"/>
</g>
<!-- Node13 -->
<g id="node14" class="node">
<title>Node13</title>
<polygon fill="#ffffff" stroke="#bfbfbf" points="593,-.5 593,-19.5 709,-19.5 709,-.5 593,-.5"/>
<text text-anchor="middle" x="651" y="-7.5" font-family="Helvetica,sans-Serif" font-size="10.00" fill="#000000">AMReX_Interpolater.H</text>
</g>
<!-- Node11&#45;&gt;Node13 -->
<g id="edge14" class="edge">
<title>Node11&#45;&gt;Node13</title>
<path fill="none" stroke="#191970" d="M651,-61.8906C651,-53.3657 651,-40.6392 651,-29.9235"/>
<polygon fill="#191970" stroke="#191970" points="654.5001,-29.7448 651,-19.7449 647.5001,-29.7449 654.5001,-29.7448"/>
</g>
<!-- Node14&#45;&gt;Node8 -->
<g id="edge16" class="edge">
<title>Node14&#45;&gt;Node8</title>
<path fill="none" stroke="#191970" d="M1264.4375,-61.8906C1278.0695,-52.1421 1299.3846,-36.8994 1315.3922,-25.4521"/>
<polygon fill="#191970" stroke="#191970" points="1317.5586,-28.2057 1323.6569,-19.5419 1313.4868,-22.5118 1317.5586,-28.2057"/>
</g>
<!-- Node14&#45;&gt;Node9 -->
<g id="edge18" class="edge">
<title>Node14&#45;&gt;Node9</title>
<path fill="none" stroke="#191970" d="M1307.7395,-63.711C1395.4365,-51.6722 1562.5997,-28.7246 1647.2002,-17.1109"/>
<polygon fill="#191970" stroke="#191970" points="1647.9123,-20.5461 1657.3433,-15.7185 1646.9602,-13.6111 1647.9123,-20.5461"/>
</g>
<!-- Node14&#45;&gt;Node10 -->
<g id="edge23" class="edge">
<title>Node14&#45;&gt;Node10</title>
<path fill="none" stroke="#191970" d="M1211.5912,-61.9581C1167.1003,-51.1857 1094.6469,-33.6428 1046.4085,-21.9631"/>
<polygon fill="#191970" stroke="#191970" points="1047.0441,-18.5159 1036.5013,-19.5643 1045.3968,-25.3193 1047.0441,-18.5159"/>
</g>
<!-- Node14&#45;&gt;Node12 -->
<g id="edge19" class="edge">
<title>Node14&#45;&gt;Node12</title>
<path fill="none" stroke="#191970" d="M1194.3596,-63.2208C1126.1555,-53.2051 1008.1419,-35.727 907,-20 906.899,-19.9843 906.7979,-19.9686 906.6967,-19.9528"/>
<polygon fill="#191970" stroke="#191970" points="907.5101,-16.5377 897.0884,-18.4452 906.425,-23.4531 907.5101,-16.5377"/>
</g>
<!-- Node15 -->
<g id="node16" class="node">
<title>Node15</title>
<polygon fill="#ffffff" stroke="#bfbfbf" points="1966,-.5 1966,-19.5 2018,-19.5 2018,-.5 1966,-.5"/>
<text text-anchor="middle" x="1992" y="-7.5" font-family="Helvetica,sans-Serif" font-size="10.00" fill="#000000">memory</text>
</g>
<!-- Node14&#45;&gt;Node15 -->
<g id="edge17" class="edge">
<title>Node14&#45;&gt;Node15</title>
<path fill="none" stroke="#191970" d="M1307.6393,-66.4013C1343.3122,-63.2516 1390.335,-59.2123 1432,-56 1661.8872,-38.2762 1724.851,-59.7237 1955.7117,-19.8897"/>
<polygon fill="#191970" stroke="#191970" points="1956.5153,-23.3024 1965.7645,-18.135 1955.3116,-16.4067 1956.5153,-23.3024"/>
</g>
<!-- Node16 -->
<g id="node17" class="node">
<title>Node16</title>
<polygon fill="#ffffff" stroke="#bfbfbf" points="1199.5,-.5 1199.5,-19.5 1298.5,-19.5 1298.5,-.5 1199.5,-.5"/>
<text text-anchor="middle" x="1249" y="-7.5" font-family="Helvetica,sans-Serif" font-size="10.00" fill="#000000">AMReX_BCRec.H</text>
</g>
<!-- Node14&#45;&gt;Node16 -->
<g id="edge20" class="edge">
<title>Node14&#45;&gt;Node16</title>
<path fill="none" stroke="#191970" d="M1250.6875,-61.8906C1250.4103,-53.3657 1249.9964,-40.6392 1249.6479,-29.9235"/>
<polygon fill="#191970" stroke="#191970" points="1253.1402,-29.6258 1249.3169,-19.7449 1246.1439,-29.8534 1253.1402,-29.6258"/>
</g>
<!-- Node17 -->
<g id="node18" class="node">
<title>Node17</title>
<polygon fill="#ffffff" stroke="#bfbfbf" points="1096.5,-.5 1096.5,-19.5 1181.5,-19.5 1181.5,-.5 1096.5,-.5"/>
<text text-anchor="middle" x="1139" y="-7.5" font-family="Helvetica,sans-Serif" font-size="10.00" fill="#000000">AMReX_Gpu.H</text>
</g>
<!-- Node14&#45;&gt;Node17 -->
<g id="edge21" class="edge">
<title>Node14&#45;&gt;Node17</title>
<path fill="none" stroke="#191970" d="M1233.5,-61.8906C1215.2535,-51.8713 1186.4376,-36.0483 1165.4194,-24.5071"/>
<polygon fill="#191970" stroke="#191970" points="1166.8272,-21.2872 1156.3771,-19.5419 1163.458,-27.423 1166.8272,-21.2872"/>
</g>
<!-- Node18 -->
<g id="node19" class="node">
<title>Node18</title>
<g id="a_node19"><a xlink:href="incflo__enums_8_h.html" target="_top" xlink:title="amr&#45;wind/incflo_enums.H">
<polygon fill="#ffffff" stroke="#000000" points="1376,-.5 1376,-19.5 1504,-19.5 1504,-.5 1376,-.5"/>
<text text-anchor="middle" x="1440" y="-7.5" font-family="Helvetica,sans-Serif" font-size="10.00" fill="#000000">amr&#45;wind/incflo_enums.H</text>
</a>
</g>
</g>
<!-- Node14&#45;&gt;Node18 -->
<g id="edge22" class="edge">
<title>Node14&#45;&gt;Node18</title>
<path fill="none" stroke="#191970" d="M1280.5313,-61.8906C1312.9866,-51.3298 1365.2581,-34.3208 1401.0486,-22.6747"/>
<polygon fill="#191970" stroke="#191970" points="1402.2499,-25.9645 1410.6761,-19.5419 1400.0839,-19.308 1402.2499,-25.9645"/>
</g>
<!-- Node19&#45;&gt;Node8 -->
<g id="edge25" class="edge">
<title>Node19&#45;&gt;Node8</title>
<path fill="none" stroke="#191970" d="M860.181,-62.0915C875.4699,-59.9345 891.8105,-57.7606 907,-56 1081.5376,-35.7693 1131.2354,-56.6586 1306.4615,-19.9133"/>
<polygon fill="#191970" stroke="#191970" points="1307.2108,-23.3323 1316.2624,-17.8259 1305.7527,-16.4858 1307.2108,-23.3323"/>
</g>
<!-- Node19&#45;&gt;Node10 -->
<g id="edge26" class="edge">
<title>Node19&#45;&gt;Node10</title>
<path fill="none" stroke="#191970" d="M829.0938,-61.8906C863.4124,-51.2846 918.7743,-34.1753 956.4698,-22.5257"/>
<polygon fill="#191970" stroke="#191970" points="957.6039,-25.8386 966.1246,-19.5419 955.537,-19.1507 957.6039,-25.8386"/>
</g>
<!-- Node19&#45;&gt;Node20 -->
<g id="edge27" class="edge">
<title>Node19&#45;&gt;Node20</title>
<path fill="none" stroke="#191970" d="M754.8675,-61.9581C705.8672,-51.1181 625.8767,-33.4224 573.0861,-21.7439"/>
<polygon fill="#191970" stroke="#191970" points="573.7536,-18.307 563.2337,-19.5643 572.2416,-25.1417 573.7536,-18.307"/>
</g>
<!-- Node21&#45;&gt;Node8 -->
<g id="edge29" class="edge">
<title>Node21&#45;&gt;Node8</title>
<path fill="none" stroke="#191970" d="M1062.2574,-63.3115C1125.0341,-55.4665 1217.886,-41.8984 1306.2978,-20.1278"/>
<polygon fill="#191970" stroke="#191970" points="1307.3691,-23.4678 1316.2203,-17.6448 1305.6697,-16.6771 1307.3691,-23.4678"/>
</g>
<!-- Node21&#45;&gt;Node10 -->
<g id="edge30" class="edge">
<title>Node21&#45;&gt;Node10</title>
<path fill="none" stroke="#191970" d="M990.25,-61.8906C991.3589,-53.3657 993.0144,-40.6392 994.4083,-29.9235"/>
<polygon fill="#191970" stroke="#191970" points="997.9131,-30.1128 995.7324,-19.7449 990.9716,-29.2098 997.9131,-30.1128"/>
</g>
<!-- Node21&#45;&gt;Node12 -->
<g id="edge31" class="edge">
<title>Node21&#45;&gt;Node12</title>
<path fill="none" stroke="#191970" d="M966.5,-61.8906C942.4062,-51.6005 903.9787,-35.1888 876.7992,-23.5809"/>
<polygon fill="#191970" stroke="#191970" points="877.9131,-20.2508 867.342,-19.5419 875.1637,-26.6883 877.9131,-20.2508"/>
</g>
<!-- Node22&#45;&gt;Node8 -->
<g id="edge36" class="edge">
<title>Node22&#45;&gt;Node8</title>
<path fill="none" stroke="#191970" d="M1403.102,-123.2548C1389.2705,-99.5568 1362.6579,-53.9605 1347.7652,-28.4444"/>
<polygon fill="#191970" stroke="#191970" points="1350.746,-26.6081 1342.6824,-19.7358 1344.7004,-30.1367 1350.746,-26.6081"/>
</g>
<!-- Node22&#45;&gt;Node10 -->
<g id="edge50" class="edge">
<title>Node22&#45;&gt;Node10</title>
<path fill="none" stroke="#191970" d="M1342.2652,-129.8216C1289.1489,-121.9899 1214.7238,-108.3657 1152,-87 1139.0044,-82.5733 1065.5636,-45.2217 1024.6074,-24.2129"/>
<polygon fill="#191970" stroke="#191970" points="1026.1664,-21.0789 1015.6719,-19.6242 1022.9686,-27.3059 1026.1664,-21.0789"/>
</g>
<!-- Node22&#45;&gt;Node18 -->
<g id="edge51" class="edge">
<title>Node22&#45;&gt;Node18</title>
<path fill="none" stroke="#191970" d="M1415.3219,-123.2548C1420.3947,-99.9744 1430.0724,-55.5607 1435.683,-29.8117"/>
<polygon fill="#191970" stroke="#191970" points="1439.1692,-30.2517 1437.8786,-19.7358 1432.3297,-28.7613 1439.1692,-30.2517"/>
</g>
<!-- Node23 -->
<g id="node24" class="node">
<title>Node23</title>
<g id="a_node24"><a xlink:href="_factory_8_h.html" target="_top" xlink:title="amr&#45;wind/core/Factory.H">
<polygon fill="#ffffff" stroke="#000000" points="2016.5,-62 2016.5,-81 2141.5,-81 2141.5,-62 2016.5,-62"/>
<text text-anchor="middle" x="2079" y="-69" font-family="Helvetica,sans-Serif" font-size="10.00" fill="#000000">amr&#45;wind/core/Factory.H</text>
</a>
</g>
</g>
<!-- Node22&#45;&gt;Node23 -->
<g id="edge37" class="edge">
<title>Node22&#45;&gt;Node23</title>
<path fill="none" stroke="#191970" d="M1481.5132,-133.5877C1616.0056,-123.901 1907.3507,-101.978 2007,-87 2014.2152,-85.9155 2021.7911,-84.5444 2029.2085,-83.0683"/>
<polygon fill="#191970" stroke="#191970" points="2030.0919,-86.4597 2039.1761,-81.0074 2028.6745,-79.6047 2030.0919,-86.4597"/>
</g>
<!-- Node27 -->
<g id="node28" class="node">
<title>Node27</title>
<g id="a_node28"><a xlink:href="_coll_mgr_8_h.html" target="_top" xlink:title="amr&#45;wind/core/CollMgr.H">
<polygon fill="#ffffff" stroke="#000000" points="1636.5,-62 1636.5,-81 1761.5,-81 1761.5,-62 1636.5,-62"/>
<text text-anchor="middle" x="1699" y="-69" font-family="Helvetica,sans-Serif" font-size="10.00" fill="#000000">amr&#45;wind/core/CollMgr.H</text>
</a>
</g>
</g>
<!-- Node22&#45;&gt;Node27 -->
<g id="edge43" class="edge">
<title>Node22&#45;&gt;Node27</title>
<path fill="none" stroke="#191970" d="M1476.4084,-123.4639C1528.4052,-111.3253 1600.5498,-94.4831 1648.4467,-83.3016"/>
<polygon fill="#191970" stroke="#191970" points="1649.3409,-86.6871 1658.2833,-81.0053 1647.7495,-79.8704 1649.3409,-86.6871"/>
</g>
<!-- Node29 -->
<g id="node30" class="node">
<title>Node29</title>
<g id="a_node30"><a xlink:href="_p_d_e_fields_8_h.html" target="_top" xlink:title="amr&#45;wind/equation_systems\l/PDEFields.H">
<polygon fill="#ffffff" stroke="#000000" points="1440.5,-56.5 1440.5,-86.5 1579.5,-86.5 1579.5,-56.5 1440.5,-56.5"/>
<text text-anchor="start" x="1448.5" y="-74.5" font-family="Helvetica,sans-Serif" font-size="10.00" fill="#000000">amr&#45;wind/equation_systems</text>
<text text-anchor="middle" x="1510" y="-63.5" font-family="Helvetica,sans-Serif" font-size="10.00" fill="#000000">/PDEFields.H</text>
</a>
</g>
</g>
<!-- Node22&#45;&gt;Node29 -->
<g id="edge48" class="edge">
<title>Node22&#45;&gt;Node29</title>
<path fill="none" stroke="#191970" d="M1434.2377,-123.2967C1447.6447,-114.1306 1464.9076,-102.3285 1479.568,-92.3055"/>
<polygon fill="#191970" stroke="#191970" points="1481.5705,-95.1763 1487.8503,-86.6432 1477.6198,-89.3977 1481.5705,-95.1763"/>
</g>
<!-- Node23&#45;&gt;Node9 -->
<g id="edge39" class="edge">
<title>Node23&#45;&gt;Node9</title>
<path fill="none" stroke="#191970" d="M2036.8298,-61.9507C2027.0593,-59.8692 2016.6862,-57.7641 2007,-56 1917.4989,-39.6998 1812.5894,-24.9542 1751.1939,-16.7617"/>
<polygon fill="#191970" stroke="#191970" points="1751.3605,-13.2532 1740.9868,-15.4066 1750.4392,-20.1923 1751.3605,-13.2532"/>
</g>
<!-- Node23&#45;&gt;Node15 -->
<g id="edge38" class="edge">
<title>Node23&#45;&gt;Node15</title>
<path fill="none" stroke="#191970" d="M2065.4063,-61.8906C2051.6157,-52.1421 2030.0528,-36.8994 2013.859,-25.4521"/>
<polygon fill="#191970" stroke="#191970" points="2015.6844,-22.4563 2005.4983,-19.5419 2011.6437,-28.1723 2015.6844,-22.4563"/>
</g>
<!-- Node24 -->
<g id="node25" class="node">
<title>Node24</title>
<polygon fill="#ffffff" stroke="#bfbfbf" points="2036,-.5 2036,-19.5 2090,-19.5 2090,-.5 2036,-.5"/>
<text text-anchor="middle" x="2063" y="-7.5" font-family="Helvetica,sans-Serif" font-size="10.00" fill="#000000">iostream</text>
</g>
<!-- Node23&#45;&gt;Node24 -->
<g id="edge40" class="edge">
<title>Node23&#45;&gt;Node24</title>
<path fill="none" stroke="#191970" d="M2076.5,-61.8906C2074.2588,-53.276 2070.9014,-40.3708 2068.0955,-29.5858"/>
<polygon fill="#191970" stroke="#191970" points="2071.4404,-28.5414 2065.5352,-19.7449 2064.6659,-30.304 2071.4404,-28.5414"/>
</g>
<!-- Node25 -->
<g id="node26" class="node">
<title>Node25</title>
<polygon fill="#ffffff" stroke="#bfbfbf" points="2108.5,-.5 2108.5,-19.5 2195.5,-19.5 2195.5,-.5 2108.5,-.5"/>
<text text-anchor="middle" x="2152" y="-7.5" font-family="Helvetica,sans-Serif" font-size="10.00" fill="#000000">AMReX_Print.H</text>
</g>
<!-- Node23&#45;&gt;Node25 -->
<g id="edge41" class="edge">
<title>Node23&#45;&gt;Node25</title>
<path fill="none" stroke="#191970" d="M2090.4063,-61.8906C2101.6969,-52.3786 2119.1967,-37.6357 2132.6619,-26.2917"/>
<polygon fill="#191970" stroke="#191970" points="2135.0402,-28.8646 2140.4329,-19.7449 2130.5301,-23.5111 2135.0402,-28.8646"/>
</g>
<!-- Node26 -->
<g id="node27" class="node">
<title>Node26</title>
<polygon fill="#ffffff" stroke="#bfbfbf" points="2214,-.5 2214,-19.5 2276,-19.5 2276,-.5 2214,-.5"/>
<text text-anchor="middle" x="2245" y="-7.5" font-family="Helvetica,sans-Serif" font-size="10.00" fill="#000000">AMReX.H</text>
</g>
<!-- Node23&#45;&gt;Node26 -->
<g id="edge42" class="edge">
<title>Node23&#45;&gt;Node26</title>
<path fill="none" stroke="#191970" d="M2104.9375,-61.8906C2133.0778,-51.4652 2178.1793,-34.7559 2209.5726,-23.1252"/>
<polygon fill="#191970" stroke="#191970" points="2211.0834,-26.298 2219.2446,-19.5419 2208.6515,-19.734 2211.0834,-26.298"/>
</g>
<!-- Node27&#45;&gt;Node8 -->
<g id="edge44" class="edge">
<title>Node27&#45;&gt;Node8</title>
<path fill="none" stroke="#191970" d="M1636.4458,-62.3761C1554.3355,-50.3181 1415.8375,-29.6723 1367.5473,-19.6091"/>
<polygon fill="#191970" stroke="#191970" points="1368.0497,-16.1345 1357.5244,-17.3464 1366.5082,-22.9626 1368.0497,-16.1345"/>
</g>
<!-- Node27&#45;&gt;Node9 -->
<g id="edge46" class="edge">
<title>Node27&#45;&gt;Node9</title>
<path fill="none" stroke="#191970" d="M1699,-61.8906C1699,-53.3657 1699,-40.6392 1699,-29.9235"/>
<polygon fill="#191970" stroke="#191970" points="1702.5001,-29.7448 1699,-19.7449 1695.5001,-29.7449 1702.5001,-29.7448"/>
</g>
<!-- Node27&#45;&gt;Node15 -->
<g id="edge45" class="edge">
<title>Node27&#45;&gt;Node15</title>
<path fill="none" stroke="#191970" d="M1742.7558,-61.9277C1752.0709,-59.9327 1761.855,-57.8691 1771,-56 1850.434,-39.7645 1873.4205,-39.5752 1955.8854,-20.1197"/>
<polygon fill="#191970" stroke="#191970" points="1956.7756,-23.5057 1965.6916,-17.7825 1955.1526,-16.6964 1956.7756,-23.5057"/>
</g>
<!-- Node28 -->
<g id="node29" class="node">
<title>Node28</title>
<polygon fill="#ffffff" stroke="#bfbfbf" points="1789.5,-.5 1789.5,-19.5 1884.5,-19.5 1884.5,-.5 1789.5,-.5"/>
<text text-anchor="middle" x="1837" y="-7.5" font-family="Helvetica,sans-Serif" font-size="10.00" fill="#000000">AMReX_Vector.H</text>
</g>
<!-- Node27&#45;&gt;Node28 -->
<g id="edge47" class="edge">
<title>Node27&#45;&gt;Node28</title>
<path fill="none" stroke="#191970" d="M1720.5625,-61.8906C1743.5512,-51.6457 1780.156,-35.3326 1806.1824,-23.7339"/>
<polygon fill="#191970" stroke="#191970" points="1807.8796,-26.8095 1815.5889,-19.5419 1805.0302,-20.4156 1807.8796,-26.8095"/>
</g>
<!-- Node30 -->
<g id="node31" class="node">
<title>Node30</title>
<polygon fill="#ffffff" stroke="#bfbfbf" points="1522.5,-.5 1522.5,-19.5 1567.5,-19.5 1567.5,-.5 1522.5,-.5"/>
<text text-anchor="middle" x="1545" y="-7.5" font-family="Helvetica,sans-Serif" font-size="10.00" fill="#000000">iosfwd</text>
</g>
<!-- Node29&#45;&gt;Node30 -->
<g id="edge49" class="edge">
<title>Node29&#45;&gt;Node30</title>
<path fill="none" stroke="#191970" d="M1518.6517,-56.2977C1523.4088,-47.9388 1529.3498,-37.4997 1534.3857,-28.6509"/>
<polygon fill="#191970" stroke="#191970" points="1537.4917,-30.2692 1539.3961,-19.8469 1531.4079,-26.8069 1537.4917,-30.2692"/>
</g>
<!-- Node31&#45;&gt;Node12 -->
<g id="edge55" class="edge">
<title>Node31&#45;&gt;Node12</title>
<path fill="none" stroke="#191970" d="M1635.2913,-133.54C1594.131,-130.3881 1539.411,-126.2958 1491,-123 1426.1381,-118.5843 964.7483,-116.8614 907,-87 882.4467,-74.3036 864.2482,-47.1063 854.1267,-28.6789"/>
<polygon fill="#191970" stroke="#191970" points="857.1875,-26.9788 849.4621,-19.7283 850.9799,-30.2139 857.1875,-26.9788"/>
</g>
<!-- Node31&#45;&gt;Node23 -->
<g id="edge53" class="edge">
<title>Node31&#45;&gt;Node23</title>
<path fill="none" stroke="#191970" d="M1761.0939,-128.9838C1823.4055,-119.2306 1922.0653,-103.2341 2007,-87 2013.2638,-85.8028 2019.8198,-84.4837 2026.3164,-83.1357"/>
<polygon fill="#191970" stroke="#191970" points="2027.3616,-86.4925 2036.4258,-81.007 2025.9192,-79.6427 2027.3616,-86.4925"/>
</g>
<!-- Node31&#45;&gt;Node27 -->
<g id="edge54" class="edge">
<title>Node31&#45;&gt;Node27</title>
<path fill="none" stroke="#191970" d="M1699,-128.9005C1699,-119.149 1699,-103.7597 1699,-91.3695"/>
<polygon fill="#191970" stroke="#191970" points="1702.5001,-91.0816 1699,-81.0817 1695.5001,-91.0817 1702.5001,-91.0816"/>
</g>
<!-- Node32 -->
<g id="node33" class="node">
<title>Node32</title>
<polygon fill="#ffffff" stroke="#bfbfbf" points="1780,-62 1780,-81 1890,-81 1890,-62 1780,-62"/>
<text text-anchor="middle" x="1835" y="-69" font-family="Helvetica,sans-Serif" font-size="10.00" fill="#000000">AMReX_Geometry.H</text>
</g>
<!-- Node31&#45;&gt;Node32 -->
<g id="edge56" class="edge">
<title>Node31&#45;&gt;Node32</title>
<path fill="none" stroke="#191970" d="M1718.4855,-128.9005C1741.5113,-117.5569 1780.0228,-98.5844 1806.4232,-85.5783"/>
<polygon fill="#191970" stroke="#191970" points="1808.1269,-88.6407 1815.5507,-81.0817 1805.0334,-82.3613 1808.1269,-88.6407"/>
</g>
<!-- Node33&#45;&gt;Node10 -->
<g id="edge59" class="edge">
<title>Node33&#45;&gt;Node10</title>
<path fill="none" stroke="#191970" d="M1820.9576,-129.5878C1805.2622,-127.1502 1787.9632,-124.7117 1772,-123 1642.2759,-109.0903 1310.6609,-125.49 1186,-87 1160.2912,-79.0622 1158.4484,-67.2351 1134,-56 1104.1529,-42.2839 1069.0027,-30.566 1041.7799,-22.3898"/>
<polygon fill="#191970" stroke="#191970" points="1042.7155,-19.0168 1032.1336,-19.5407 1040.7326,-25.73 1042.7155,-19.0168"/>
</g>
<!-- Node33&#45;&gt;Node23 -->
<g id="edge58" class="edge">
<title>Node33&#45;&gt;Node23</title>
<path fill="none" stroke="#191970" d="M1919.2304,-123.4639C1955.6152,-111.63 2005.7445,-95.3258 2040.0927,-84.1543"/>
<polygon fill="#191970" stroke="#191970" points="2041.3477,-87.4267 2049.7748,-81.0053 2039.1826,-80.7699 2041.3477,-87.4267"/>
</g>
<!-- Node34&#45;&gt;Node8 -->
<g id="edge61" class="edge">
<title>Node34&#45;&gt;Node8</title>
<path fill="none" stroke="#191970" d="M1907.7895,-57.77C1904.8303,-57.105 1901.8821,-56.5053 1899,-56 1668.7659,-15.6382 1601.3472,-64.4695 1367.6146,-19.605"/>
<polygon fill="#191970" stroke="#191970" points="1368.2842,-16.1698 1357.7983,-17.6849 1366.9404,-23.0396 1368.2842,-16.1698"/>
</g>
<!-- Node34&#45;&gt;Node9 -->
<g id="edge62" class="edge">
<title>Node34&#45;&gt;Node9</title>
<path fill="none" stroke="#191970" d="M1907.968,-58.3793C1904.9378,-57.5566 1901.9275,-56.7562 1899,-56 1848.7538,-43.0203 1790.9395,-29.9193 1750.435,-21.0369"/>
<polygon fill="#191970" stroke="#191970" points="1751.042,-17.587 1740.5254,-18.8722 1749.5481,-24.4258 1751.042,-17.587"/>
</g>
<!-- Node34&#45;&gt;Node28 -->
<g id="edge64" class="edge">
<title>Node34&#45;&gt;Node28</title>
<path fill="none" stroke="#191970" d="M1924.6232,-56.4554C1906.1172,-46.644 1882.1112,-33.9167 1863.9069,-24.2653"/>
<polygon fill="#191970" stroke="#191970" points="1865.4505,-21.1222 1854.9759,-19.5303 1862.1715,-27.3068 1865.4505,-21.1222"/>
</g>
<!-- Node35 -->
<g id="node36" class="node">
<title>Node35</title>
<polygon fill="#ffffff" stroke="#bfbfbf" points="1918,-.5 1918,-19.5 1948,-19.5 1948,-.5 1918,-.5"/>
<text text-anchor="middle" x="1933" y="-7.5" font-family="Helvetica,sans-Serif" font-size="10.00" fill="#000000">set</text>
</g>
<!-- Node34&#45;&gt;Node35 -->
<g id="edge63" class="edge">
<title>Node34&#45;&gt;Node35</title>
<path fill="none" stroke="#191970" d="M1948.0562,-56.2977C1945.4246,-48.2055 1942.159,-38.1639 1939.3424,-29.5029"/>
<polygon fill="#191970" stroke="#191970" points="1942.6234,-28.2743 1936.2023,-19.8469 1935.9665,-30.4391 1942.6234,-28.2743"/>
</g>
<!-- Node36&#45;&gt;Node15 -->
<g id="edge66" class="edge">
<title>Node36&#45;&gt;Node15</title>
<path fill="none" stroke="#191970" d="M2108.2261,-123.4054C2135.5482,-107.2792 2169.562,-80.6934 2151,-56 2150.7612,-55.6823 2074.8338,-33.8111 2028.002,-20.3447"/>
<polygon fill="#191970" stroke="#191970" points="2028.7823,-16.9273 2018.2045,-17.528 2026.8481,-23.6548 2028.7823,-16.9273"/>
</g>
<!-- Node36&#45;&gt;Node23 -->
<g id="edge67" class="edge">
<title>Node36&#45;&gt;Node23</title>
<path fill="none" stroke="#191970" d="M2079,-123.2967C2079,-113.7699 2079,-101.3954 2079,-91.1306"/>
<polygon fill="#191970" stroke="#191970" points="2082.5001,-91.0549 2079,-81.055 2075.5001,-91.055 2082.5001,-91.0549"/>
</g>
</g>
</svg>
        <g id="navigator" transform="translate(0 0)" fill="#404254">
                <rect fill="#f2f5e9" fill-opacity="0.5" stroke="#606060" stroke-width=".5" x="0" y="0" width="60" height="60"/>
                <use id="zoomplus" xlink:href="#zoomPlus" x="17" y="9" onmousedown="handleZoom(evt,'in')"/>
                <use id="zoomminus" xlink:href="#zoomMin" x="42" y="9" onmousedown="handleZoom(evt,'out')"/>
                <use id="reset" xlink:href="#resetDef" x="30" y="36" onmousedown="handleReset()"/>
                <g id="arrowUp" xlink:href="#dirArrow" transform="translate(30 24)" onmousedown="handlePan(0,-1)">
                  <use xlink:href="#rim" fill="#404040">
                        <set attributeName="fill" to="#808080" begin="arrowUp.mouseover" end="arrowUp.mouseout"/>
                  </use>
                  <path fill="none" stroke="white" stroke-width="1.5" d="M0,-3.0v7 M-2.5,-0.5L0,-3.0L2.5,-0.5"/>
                </g>
                <g id="arrowRight" xlink:href="#dirArrow" transform="rotate(90) translate(36 -43)" onmousedown="handlePan(1,0)">
                  <use xlink:href="#rim" fill="#404040">
                        <set attributeName="fill" to="#808080" begin="arrowRight.mouseover" end="arrowRight.mouseout"/>
                  </use>
                  <path fill="none" stroke="white" stroke-width="1.5" d="M0,-3.0v7 M-2.5,-0.5L0,-3.0L2.5,-0.5"/>
                </g>
                <g id="arrowDown" xlink:href="#dirArrow" transform="rotate(180) translate(-30 -48)" onmousedown="handlePan(0,1)">
                  <use xlink:href="#rim" fill="#404040">
                        <set attributeName="fill" to="#808080" begin="arrowDown.mouseover" end="arrowDown.mouseout"/>
                  </use>
                  <path fill="none" stroke="white" stroke-width="1.5" d="M0,-3.0v7 M-2.5,-0.5L0,-3.0L2.5,-0.5"/>
                </g>
                <g id="arrowLeft" xlink:href="#dirArrow" transform="rotate(270) translate(-36 17)" onmousedown="handlePan(-1,0)">
                  <use xlink:href="#rim" fill="#404040">
                        <set attributeName="fill" to="#808080" begin="arrowLeft.mouseover" end="arrowLeft.mouseout"/>
                  </use>
                  <path fill="none" stroke="white" stroke-width="1.5" d="M0,-3.0v7 M-2.5,-0.5L0,-3.0L2.5,-0.5"/>
                </g>
        </g>
        <svg viewBox="0 0 15 15" width="100%" height="30px" preserveAspectRatio="xMaxYMin meet">
         <g id="arrow_out" transform="scale(0.3 0.3)">
          <a xlink:href="_c_f_d_sim_8cpp__incl_org.svg" target="_base">
           <rect id="button" ry="5" rx="5" y="6" x="6" height="38" width="38"
                fill="#f2f5e9" fill-opacity="0.5" stroke="#606060" stroke-width="1.0"/>
           <path id="arrow"
             d="M 11.500037,31.436501 C 11.940474,20.09759 22.043105,11.32322 32.158766,21.979434 L 37.068811,17.246167 C 37.068811,17.246167 37.088388,32 37.088388,32 L 22.160133,31.978069 C 22.160133,31.978069 26.997745,27.140456 26.997745,27.140456 C 18.528582,18.264221 13.291696,25.230495 11.500037,31.436501 z"
             style="fill:#404040;"/>
          </a>
         </g>
        </svg>
</svg>
