<?xml version="1.0" encoding="UTF-8" standalone="no"?>
<!DOCTYPE svg PUBLIC "-//W3C//DTD SVG 1.1//EN"
 "http://www.w3.org/Graphics/SVG/1.1/DTD/svg11.dtd">
<!-- Generated by graphviz version 2.40.1 (20161225.0304)
 -->
<!-- Title: CFDSim.H Pages: 1 -->
<!--zoomable 207 -->
<svg id="main" version="1.1" xmlns="http://www.w3.org/2000/svg" xmlns:xlink="http://www.w3.org/1999/xlink" xml:space="preserve" onload="init(evt)">
<style type="text/css"><![CDATA[
.edge:hover path { stroke: red; }
.edge:hover polygon { stroke: red; fill: red; }
]]></style>
<script type="text/javascript"><![CDATA[
var edges = document.getElementsByTagName('g');
if (edges && edges.length) {
  for (var i=0;i<edges.length;i++) {
    if (edges[i].id.substr(0,4)=='edge') {
      edges[i].setAttribute('class','edge');
    }
  }
}
]]></script>
        <defs>
                <circle id="rim" cx="0" cy="0" r="7"/>
                <circle id="rim2" cx="0" cy="0" r="3.5"/>
                <g id="zoomPlus">
                        <use xlink:href="#rim" fill="#404040">
                                <set attributeName="fill" to="#808080" begin="zoomplus.mouseover" end="zoomplus.mouseout"/>
                        </use>
                        <path d="M-4,0h8M0,-4v8" fill="none" stroke="white" stroke-width="1.5" pointer-events="none"/>
                </g>
                <g id="zoomMin">
                        <use xlink:href="#rim" fill="#404040">
                                <set attributeName="fill" to="#808080" begin="zoomminus.mouseover" end="zoomminus.mouseout"/>
                        </use>
                        <path d="M-4,0h8" fill="none" stroke="white" stroke-width="1.5" pointer-events="none"/>
                </g>
                <g id="dirArrow">
                        <path fill="none" stroke="white" stroke-width="1.5" d="M0,-3.0v7 M-2.5,-0.5L0,-3.0L2.5,-0.5"/>
                </g>
               <g id="resetDef">
                       <use xlink:href="#rim2" fill="#404040">
                               <set attributeName="fill" to="#808080" begin="reset.mouseover" end="reset.mouseout"/>
                       </use>
               </g>
        </defs>

<script type="text/javascript">
var viewWidth = 4777;
var viewHeight = 207;
var sectionId = 'dynsection-1';
</script>
<script xlink:href="svgpan.js"/>
<svg id="graph" class="graph">
<g id="viewport">
<title>CFDSim.H</title>
<polygon fill="#ffffff" stroke="transparent" points="-4,4 -4,-203 4773,-203 4773,4 -4,4"/>
<!-- Node33 -->
<g id="node1" class="node">
<title>Node33</title>
<polygon fill="#bfbfbf" stroke="#000000" points="3023.5,-179.5 3023.5,-198.5 3088.5,-198.5 3088.5,-179.5 3023.5,-179.5"/>
<text text-anchor="middle" x="3056" y="-186.5" font-family="Helvetica,sans-Serif" font-size="10.00" fill="#000000">CFDSim.H</text>
</g>
<!-- Node34 -->
<g id="node2" class="node">
<title>Node34</title>
<g id="a_node2"><a xlink:href="incflo_8_h.html" target="_top" xlink:title="incflo.H">
<polygon fill="#ffffff" stroke="#ff0000" points="799,-123.5 799,-142.5 849,-142.5 849,-123.5 799,-123.5"/>
<text text-anchor="middle" x="824" y="-130.5" font-family="Helvetica,sans-Serif" font-size="10.00" fill="#000000">incflo.H</text>
</a>
</g>
</g>
<!-- Node33&#45;&gt;Node34 -->
<g id="edge1" class="edge">
<title>Node33&#45;&gt;Node34</title>
<path fill="none" stroke="#191970" d="M3013.0893,-187.9234C2724.6457,-180.6865 1072.9217,-139.2453 849.1027,-133.6298"/>
<polygon fill="#191970" stroke="#191970" points="3013.0684,-191.4239 3023.1531,-188.1759 3013.244,-184.4261 3013.0684,-191.4239"/>
</g>
<!-- Node54 -->
<g id="node18" class="node">
<title>Node54</title>
<g id="a_node18"><a xlink:href="_a_b_l_wall_function_8_h.html" target="_top" xlink:title="ABLWallFunction.H">
<polygon fill="#ffffff" stroke="#ff0000" points="1629.5,-62 1629.5,-81 1732.5,-81 1732.5,-62 1629.5,-62"/>
<text text-anchor="middle" x="1681" y="-69" font-family="Helvetica,sans-Serif" font-size="10.00" fill="#000000">ABLWallFunction.H</text>
</a>
</g>
</g>
<!-- Node33&#45;&gt;Node54 -->
<g id="edge17" class="edge">
<title>Node33&#45;&gt;Node54</title>
<path fill="none" stroke="#191970" d="M3013.3756,-188.4055C2781.5732,-185.0743 1682.167,-167.9753 1658,-143 1641.3157,-125.7577 1660.4969,-96.3642 1672.6061,-81.1942"/>
<polygon fill="#191970" stroke="#191970" points="3013.3927,-191.9061 3023.4417,-188.5494 3013.4928,-184.9068 3013.3927,-191.9061"/>
</g>
<!-- Node58 -->
<g id="node19" class="node">
<title>Node58</title>
<g id="a_node19"><a xlink:href="_a_b_l_stats_8_h.html" target="_top" xlink:title="ABLStats.H">
<polygon fill="#ffffff" stroke="#ff0000" points="1726.5,-.5 1726.5,-19.5 1795.5,-19.5 1795.5,-.5 1726.5,-.5"/>
<text text-anchor="middle" x="1761" y="-7.5" font-family="Helvetica,sans-Serif" font-size="10.00" fill="#000000">ABLStats.H</text>
</a>
</g>
</g>
<!-- Node33&#45;&gt;Node58 -->
<g id="edge25" class="edge">
<title>Node33&#45;&gt;Node58</title>
<path fill="none" stroke="#191970" d="M3013.4255,-188.5992C2802.8742,-186.4662 1880.9761,-175.3059 1830,-143 1784.5181,-114.176 1767.4751,-45.0073 1762.6171,-19.5846"/>
<polygon fill="#191970" stroke="#191970" points="3013.4386,-192.0994 3023.4731,-188.6995 3013.5086,-185.0997 3013.4386,-192.0994"/>
</g>
<!-- Node60 -->
<g id="node20" class="node">
<title>Node60</title>
<g id="a_node20"><a xlink:href="_boussinesq_bubble_8cpp.html" target="_top" xlink:title="BoussinesqBubble.cpp">
<polygon fill="#ffffff" stroke="#000000" points="1568,-.5 1568,-19.5 1684,-19.5 1684,-.5 1568,-.5"/>
<text text-anchor="middle" x="1626" y="-7.5" font-family="Helvetica,sans-Serif" font-size="10.00" fill="#000000">BoussinesqBubble.cpp</text>
</a>
</g>
</g>
<!-- Node33&#45;&gt;Node60 -->
<g id="edge43" class="edge">
<title>Node33&#45;&gt;Node60</title>
<path fill="none" stroke="#191970" d="M3013.1497,-188.8281C2783.5241,-187.7532 1706.8472,-180.7112 1648,-143 1607.0134,-116.7344 1618.1066,-45.3496 1623.7075,-19.5037"/>
<polygon fill="#191970" stroke="#191970" points="3013.4207,-192.3293 3023.4366,-188.8749 3013.4526,-185.3294 3013.4207,-192.3293"/>
</g>
<!-- Node61 -->
<g id="node21" class="node">
<title>Node61</title>
<g id="a_node21"><a xlink:href="_field_plane_averaging_8_h.html" target="_top" xlink:title="FieldPlaneAveraging.H">
<polygon fill="#ffffff" stroke="#ff0000" points="1667,-123.5 1667,-142.5 1783,-142.5 1783,-123.5 1667,-123.5"/>
<text text-anchor="middle" x="1725" y="-130.5" font-family="Helvetica,sans-Serif" font-size="10.00" fill="#000000">FieldPlaneAveraging.H</text>
</a>
</g>
</g>
<!-- Node33&#45;&gt;Node61 -->
<g id="edge20" class="edge">
<title>Node33&#45;&gt;Node61</title>
<path fill="none" stroke="#191970" d="M3013.0648,-188.0177C2821.1797,-183.5377 2040.9194,-164.3394 1797,-143 1792.4741,-142.604 1787.7973,-142.1217 1783.1015,-141.5851"/>
<polygon fill="#191970" stroke="#191970" points="3013.2307,-191.5225 3023.3094,-188.256 3013.3935,-184.5243 3013.2307,-191.5225"/>
</g>
<!-- Node66 -->
<g id="node22" class="node">
<title>Node66</title>
<g id="a_node22"><a xlink:href="_a_b_l_boundary_plane_8_h.html" target="_top" xlink:title="ABLBoundaryPlane.H">
<polygon fill="#ffffff" stroke="#ff0000" points="1839,-123.5 1839,-142.5 1951,-142.5 1951,-123.5 1839,-123.5"/>
<text text-anchor="middle" x="1895" y="-130.5" font-family="Helvetica,sans-Serif" font-size="10.00" fill="#000000">ABLBoundaryPlane.H</text>
</a>
</g>
</g>
<!-- Node33&#45;&gt;Node66 -->
<g id="edge23" class="edge">
<title>Node33&#45;&gt;Node66</title>
<path fill="none" stroke="#191970" d="M3012.9831,-188.7266C2866.1841,-187.4655 2371.5491,-180.5156 1965,-143 1960.477,-142.5826 1955.7992,-142.077 1951.1059,-141.5174"/>
<polygon fill="#191970" stroke="#191970" points="3013.3155,-192.2293 3023.3437,-188.811 3013.3725,-185.2296 3013.3155,-192.2293"/>
</g>
<!-- Node67 -->
<g id="node23" class="node">
<title>Node67</title>
<g id="a_node23"><a xlink:href="_a_b_l_boundary_plane_8cpp.html" target="_top" xlink:title="ABLBoundaryPlane.cpp">
<polygon fill="#ffffff" stroke="#000000" points="1879,-62 1879,-81 1999,-81 1999,-62 1879,-62"/>
<text text-anchor="middle" x="1939" y="-69" font-family="Helvetica,sans-Serif" font-size="10.00" fill="#000000">ABLBoundaryPlane.cpp</text>
</a>
</g>
</g>
<!-- Node33&#45;&gt;Node67 -->
<g id="edge57" class="edge">
<title>Node33&#45;&gt;Node67</title>
<path fill="none" stroke="#191970" d="M3013.3412,-188.1132C2821.2763,-183.9973 2044.1295,-165.9797 1998,-143 1970.9181,-129.509 1951.7937,-97.2725 1943.5446,-81.0987"/>
<polygon fill="#191970" stroke="#191970" points="3013.2678,-191.6123 3023.3401,-188.3262 3013.4169,-184.6139 3013.2678,-191.6123"/>
</g>
<!-- Node70 -->
<g id="node24" class="node">
<title>Node70</title>
<g id="a_node24"><a xlink:href="_c_f_d_sim_8cpp.html" target="_top" xlink:title="CFDSim.cpp">
<polygon fill="#ffffff" stroke="#000000" points="2007,-123.5 2007,-142.5 2081,-142.5 2081,-123.5 2007,-123.5"/>
<text text-anchor="middle" x="2044" y="-130.5" font-family="Helvetica,sans-Serif" font-size="10.00" fill="#000000">CFDSim.cpp</text>
</a>
</g>
</g>
<!-- Node33&#45;&gt;Node70 -->
<g id="edge26" class="edge">
<title>Node33&#45;&gt;Node70</title>
<path fill="none" stroke="#191970" d="M3013.1368,-187.909C2850.6232,-183.625 2272.4338,-167.0034 2090,-143 2087.083,-142.6162 2084.0767,-142.1426 2081.064,-141.612"/>
<polygon fill="#191970" stroke="#191970" points="3013.1433,-191.4103 3023.2315,-188.1733 3013.3266,-184.4127 3013.1433,-191.4103"/>
</g>
<!-- Node71 -->
<g id="node25" class="node">
<title>Node71</title>
<g id="a_node25"><a xlink:href="_p_d_e_ops_8_h.html" target="_top" xlink:title="PDEOps.H">
<polygon fill="#ffffff" stroke="#ff0000" points="2099,-123.5 2099,-142.5 2165,-142.5 2165,-123.5 2099,-123.5"/>
<text text-anchor="middle" x="2132" y="-130.5" font-family="Helvetica,sans-Serif" font-size="10.00" fill="#000000">PDEOps.H</text>
</a>
</g>
</g>
<!-- Node33&#45;&gt;Node71 -->
<g id="edge27" class="edge">
<title>Node33&#45;&gt;Node71</title>
<path fill="none" stroke="#191970" d="M3012.6459,-187.6301C2859.3093,-182.6438 2343.039,-164.6165 2179,-143 2174.451,-142.4006 2169.6873,-141.5971 2165.011,-140.705"/>
<polygon fill="#191970" stroke="#191970" points="3012.9412,-191.1414 3023.0491,-187.9665 3013.1674,-184.145 3012.9412,-191.1414"/>
</g>
<!-- Node84 -->
<g id="node26" class="node">
<title>Node84</title>
<g id="a_node26"><a xlink:href="_p_d_e_8_h.html" target="_top" xlink:title="PDE.H">
<polygon fill="#ffffff" stroke="#ff0000" points="2139,-62 2139,-81 2187,-81 2187,-62 2139,-62"/>
<text text-anchor="middle" x="2163" y="-69" font-family="Helvetica,sans-Serif" font-size="10.00" fill="#000000">PDE.H</text>
</a>
</g>
</g>
<!-- Node33&#45;&gt;Node84 -->
<g id="edge29" class="edge">
<title>Node33&#45;&gt;Node84</title>
<path fill="none" stroke="#191970" d="M3013.0882,-187.7119C2846.1115,-182.5647 2247.2022,-162.7935 2212,-143 2187.3399,-129.1341 2172.4733,-97.0733 2166.3153,-81.0194"/>
<polygon fill="#191970" stroke="#191970" points="3013.3489,-191.2214 3023.4515,-188.0296 3013.5634,-184.2247 3013.3489,-191.2214"/>
</g>
<!-- Node56 -->
<g id="node27" class="node">
<title>Node56</title>
<g id="a_node27"><a xlink:href="_a_b_l_forcing_8cpp.html" target="_top" xlink:title="ABLForcing.cpp">
<polygon fill="#ffffff" stroke="#000000" points="2221,-123.5 2221,-142.5 2307,-142.5 2307,-123.5 2221,-123.5"/>
<text text-anchor="middle" x="2264" y="-130.5" font-family="Helvetica,sans-Serif" font-size="10.00" fill="#000000">ABLForcing.cpp</text>
</a>
</g>
</g>
<!-- Node33&#45;&gt;Node56 -->
<g id="edge30" class="edge">
<title>Node33&#45;&gt;Node56</title>
<path fill="none" stroke="#191970" d="M3013.3613,-188.255C2899.6327,-185.8567 2579.7649,-176.4208 2316,-143 2313.0815,-142.6302 2310.0801,-142.1966 2307.0622,-141.7209"/>
<polygon fill="#191970" stroke="#191970" points="3013.3326,-191.7551 3023.4019,-188.4596 3013.4753,-184.7565 3013.3326,-191.7551"/>
</g>
<!-- Node95 -->
<g id="node28" class="node">
<title>Node95</title>
<g id="a_node28"><a xlink:href="_body_force_8cpp.html" target="_top" xlink:title="BodyForce.cpp">
<polygon fill="#ffffff" stroke="#000000" points="2325.5,-123.5 2325.5,-142.5 2408.5,-142.5 2408.5,-123.5 2325.5,-123.5"/>
<text text-anchor="middle" x="2367" y="-130.5" font-family="Helvetica,sans-Serif" font-size="10.00" fill="#000000">BodyForce.cpp</text>
</a>
</g>
</g>
<!-- Node33&#45;&gt;Node95 -->
<g id="edge31" class="edge">
<title>Node33&#45;&gt;Node95</title>
<path fill="none" stroke="#191970" d="M3013.3254,-187.7163C2910.4821,-184.2329 2640.9475,-172.7825 2418,-143 2414.9593,-142.5938 2411.8266,-142.1191 2408.6801,-141.6013"/>
<polygon fill="#191970" stroke="#191970" points="3013.2126,-191.2143 3023.323,-188.0474 3013.4443,-184.2182 3013.2126,-191.2143"/>
</g>
<!-- Node96 -->
<g id="node29" class="node">
<title>Node96</title>
<g id="a_node29"><a xlink:href="_boussinesq_buoyancy_8cpp.html" target="_top" xlink:title="BoussinesqBuoyancy.cpp">
<polygon fill="#ffffff" stroke="#000000" points="2427,-123.5 2427,-142.5 2557,-142.5 2557,-123.5 2427,-123.5"/>
<text text-anchor="middle" x="2492" y="-130.5" font-family="Helvetica,sans-Serif" font-size="10.00" fill="#000000">BoussinesqBuoyancy.cpp</text>
</a>
</g>
</g>
<!-- Node33&#45;&gt;Node96 -->
<g id="edge32" class="edge">
<title>Node33&#45;&gt;Node96</title>
<path fill="none" stroke="#191970" d="M3013.1946,-185.5716C2927.9608,-178.6146 2731.018,-161.8877 2566,-143 2563.1664,-142.6757 2560.2734,-142.3332 2557.352,-141.9782"/>
<polygon fill="#191970" stroke="#191970" points="3013.0155,-189.0685 3023.2663,-186.3906 3013.5829,-182.0915 3013.0155,-189.0685"/>
</g>
<!-- Node97 -->
<g id="node30" class="node">
<title>Node97</title>
<g id="a_node30"><a xlink:href="_coriolis_forcing_8cpp.html" target="_top" xlink:title="CoriolisForcing.cpp">
<polygon fill="#ffffff" stroke="#000000" points="2575.5,-123.5 2575.5,-142.5 2676.5,-142.5 2676.5,-123.5 2575.5,-123.5"/>
<text text-anchor="middle" x="2626" y="-130.5" font-family="Helvetica,sans-Serif" font-size="10.00" fill="#000000">CoriolisForcing.cpp</text>
</a>
</g>
</g>
<!-- Node33&#45;&gt;Node97 -->
<g id="edge33" class="edge">
<title>Node33&#45;&gt;Node97</title>
<path fill="none" stroke="#191970" d="M3013.1016,-184.3094C2943.9251,-176.6044 2803.496,-160.3793 2685,-143 2682.2246,-142.5929 2679.3784,-142.1605 2676.5071,-141.7126"/>
<polygon fill="#191970" stroke="#191970" points="3012.8541,-187.8034 3023.1791,-185.4277 3013.6262,-180.8461 3012.8541,-187.8034"/>
</g>
<!-- Node98 -->
<g id="node31" class="node">
<title>Node98</title>
<g id="a_node31"><a xlink:href="_density_buoyancy_8cpp.html" target="_top" xlink:title="DensityBuoyancy.cpp">
<polygon fill="#ffffff" stroke="#000000" points="2694.5,-123.5 2694.5,-142.5 2807.5,-142.5 2807.5,-123.5 2694.5,-123.5"/>
<text text-anchor="middle" x="2751" y="-130.5" font-family="Helvetica,sans-Serif" font-size="10.00" fill="#000000">DensityBuoyancy.cpp</text>
</a>
</g>
</g>
<!-- Node33&#45;&gt;Node98 -->
<g id="edge34" class="edge">
<title>Node33&#45;&gt;Node98</title>
<path fill="none" stroke="#191970" d="M3013.2228,-181.1458C2958.0641,-171.0183 2862.2042,-153.4178 2802.9281,-142.5343"/>
<polygon fill="#191970" stroke="#191970" points="3012.892,-184.6435 3023.3597,-183.007 3014.1562,-177.7586 3012.892,-184.6435"/>
</g>
<!-- Node99 -->
<g id="node32" class="node">
<title>Node99</title>
<g id="a_node32"><a xlink:href="_geostrophic_forcing_8cpp.html" target="_top" xlink:title="GeostrophicForcing.cpp">
<polygon fill="#ffffff" stroke="#000000" points="2826,-123.5 2826,-142.5 2946,-142.5 2946,-123.5 2826,-123.5"/>
<text text-anchor="middle" x="2886" y="-130.5" font-family="Helvetica,sans-Serif" font-size="10.00" fill="#000000">GeostrophicForcing.cpp</text>
</a>
</g>
</g>
<!-- Node33&#45;&gt;Node99 -->
<g id="edge35" class="edge">
<title>Node33&#45;&gt;Node99</title>
<path fill="none" stroke="#191970" d="M3017.114,-176.1905C2985.9688,-165.9309 2942.9777,-151.7691 2914.8427,-142.5011"/>
<polygon fill="#191970" stroke="#191970" points="3016.1829,-179.5687 3026.776,-179.3733 3018.3731,-172.9202 3016.1829,-179.5687"/>
</g>
<!-- Node100 -->
<g id="node33" class="node">
<title>Node100</title>
<g id="a_node33"><a xlink:href="_p_d_e_base_8cpp.html" target="_top" xlink:title="PDEBase.cpp">
<polygon fill="#ffffff" stroke="#000000" points="2964.5,-123.5 2964.5,-142.5 3043.5,-142.5 3043.5,-123.5 2964.5,-123.5"/>
<text text-anchor="middle" x="3004" y="-130.5" font-family="Helvetica,sans-Serif" font-size="10.00" fill="#000000">PDEBase.cpp</text>
</a>
</g>
</g>
<!-- Node33&#45;&gt;Node100 -->
<g id="edge36" class="edge">
<title>Node33&#45;&gt;Node100</title>
<path fill="none" stroke="#191970" d="M3040.0178,-171.7884C3031.1222,-162.2085 3020.3796,-150.6396 3012.9539,-142.6427"/>
<polygon fill="#191970" stroke="#191970" points="3037.573,-174.2992 3046.9423,-179.2455 3042.7025,-169.536 3037.573,-174.2992"/>
</g>
<!-- Node101 -->
<g id="node34" class="node">
<title>Node101</title>
<g id="a_node34"><a xlink:href="_ksgs_m84_src_8cpp.html" target="_top" xlink:title="KsgsM84Src.cpp">
<polygon fill="#ffffff" stroke="#000000" points="3062,-123.5 3062,-142.5 3154,-142.5 3154,-123.5 3062,-123.5"/>
<text text-anchor="middle" x="3108" y="-130.5" font-family="Helvetica,sans-Serif" font-size="10.00" fill="#000000">KsgsM84Src.cpp</text>
</a>
</g>
</g>
<!-- Node33&#45;&gt;Node101 -->
<g id="edge37" class="edge">
<title>Node33&#45;&gt;Node101</title>
<path fill="none" stroke="#191970" d="M3071.9822,-171.7884C3080.8778,-162.2085 3091.6204,-150.6396 3099.0461,-142.6427"/>
<polygon fill="#191970" stroke="#191970" points="3069.2975,-169.536 3065.0577,-179.2455 3074.427,-174.2992 3069.2975,-169.536"/>
</g>
<!-- Node102 -->
<g id="node35" class="node">
<title>Node102</title>
<g id="a_node35"><a xlink:href="_m_m_s_8_h.html" target="_top" xlink:title="MMS.H">
<polygon fill="#ffffff" stroke="#000000" points="3172,-123.5 3172,-142.5 3222,-142.5 3222,-123.5 3172,-123.5"/>
<text text-anchor="middle" x="3197" y="-130.5" font-family="Helvetica,sans-Serif" font-size="10.00" fill="#000000">MMS.H</text>
</a>
</g>
</g>
<!-- Node33&#45;&gt;Node102 -->
<g id="edge38" class="edge">
<title>Node33&#45;&gt;Node102</title>
<path fill="none" stroke="#191970" d="M3089.6032,-175.6541C3115.3159,-165.4419 3150.1461,-151.6086 3173.0775,-142.5011"/>
<polygon fill="#191970" stroke="#191970" points="3088.2407,-172.4292 3080.2388,-179.3733 3090.8245,-178.9349 3088.2407,-172.4292"/>
</g>
<!-- Node103 -->
<g id="node36" class="node">
<title>Node103</title>
<g id="a_node36"><a xlink:href="_m_m_s_8cpp.html" target="_top" xlink:title="MMS.cpp">
<polygon fill="#ffffff" stroke="#000000" points="3194.5,-62 3194.5,-81 3253.5,-81 3253.5,-62 3194.5,-62"/>
<text text-anchor="middle" x="3224" y="-69" font-family="Helvetica,sans-Serif" font-size="10.00" fill="#000000">MMS.cpp</text>
</a>
</g>
</g>
<!-- Node33&#45;&gt;Node103 -->
<g id="edge40" class="edge">
<title>Node33&#45;&gt;Node103</title>
<path fill="none" stroke="#191970" d="M3098.6528,-183.7596C3145.1043,-177.0731 3214.9493,-163.8149 3231,-143 3244.8617,-125.0238 3235.4758,-96.4691 3228.8913,-81.463"/>
<polygon fill="#191970" stroke="#191970" points="3097.9709,-180.3206 3088.5482,-185.1644 3098.9349,-187.254 3097.9709,-180.3206"/>
</g>
<!-- Node104 -->
<g id="node37" class="node">
<title>Node104</title>
<g id="a_node37"><a xlink:href="_m_m_s_forcing_8cpp.html" target="_top" xlink:title="MMSForcing.cpp">
<polygon fill="#ffffff" stroke="#000000" points="3278.5,-123.5 3278.5,-142.5 3369.5,-142.5 3369.5,-123.5 3278.5,-123.5"/>
<text text-anchor="middle" x="3324" y="-130.5" font-family="Helvetica,sans-Serif" font-size="10.00" fill="#000000">MMSForcing.cpp</text>
</a>
</g>
</g>
<!-- Node33&#45;&gt;Node104 -->
<g id="edge41" class="edge">
<title>Node33&#45;&gt;Node104</title>
<path fill="none" stroke="#191970" d="M3098.5609,-180.1067C3147.592,-169.8614 3227.8513,-153.0908 3278.2075,-142.5686"/>
<polygon fill="#191970" stroke="#191970" points="3097.6668,-176.7178 3088.5941,-182.1893 3099.0986,-183.5698 3097.6668,-176.7178"/>
</g>
<!-- Node105 -->
<g id="node38" class="node">
<title>Node105</title>
<g id="a_node38"><a xlink:href="_tioga_interface_8cpp.html" target="_top" xlink:title="TiogaInterface.cpp">
<polygon fill="#ffffff" stroke="#000000" points="3388,-123.5 3388,-142.5 3486,-142.5 3486,-123.5 3388,-123.5"/>
<text text-anchor="middle" x="3437" y="-130.5" font-family="Helvetica,sans-Serif" font-size="10.00" fill="#000000">TiogaInterface.cpp</text>
</a>
</g>
</g>
<!-- Node33&#45;&gt;Node105 -->
<g id="edge42" class="edge">
<title>Node33&#45;&gt;Node105</title>
<path fill="none" stroke="#191970" d="M3099.1114,-183.2039C3160.9344,-174.8098 3278.3157,-158.5654 3378,-143 3381.1821,-142.5031 3384.4586,-141.98 3387.7602,-141.4441"/>
<polygon fill="#191970" stroke="#191970" points="3098.3932,-179.7692 3088.9537,-184.5803 3099.3332,-186.7058 3098.3932,-179.7692"/>
</g>
<!-- Node106 -->
<g id="node39" class="node">
<title>Node106</title>
<g id="a_node39"><a xlink:href="_convecting_taylor_vortex_8_h.html" target="_top" xlink:title="ConvectingTaylorVortex.H">
<polygon fill="#ffffff" stroke="#000000" points="3504,-123.5 3504,-142.5 3636,-142.5 3636,-123.5 3504,-123.5"/>
<text text-anchor="middle" x="3570" y="-130.5" font-family="Helvetica,sans-Serif" font-size="10.00" fill="#000000">ConvectingTaylorVortex.H</text>
</a>
</g>
</g>
<!-- Node33&#45;&gt;Node106 -->
<g id="edge44" class="edge">
<title>Node33&#45;&gt;Node106</title>
<path fill="none" stroke="#191970" d="M3098.5121,-184.9468C3176.9523,-177.3788 3349.7129,-160.2942 3495,-143 3497.8697,-142.6584 3500.8,-142.3017 3503.7594,-141.9349"/>
<polygon fill="#191970" stroke="#191970" points="3098.1467,-181.4657 3088.5281,-185.9077 3098.8174,-188.4335 3098.1467,-181.4657"/>
</g>
<!-- Node107 -->
<g id="node40" class="node">
<title>Node107</title>
<g id="a_node40"><a xlink:href="_convecting_taylor_vortex_8cpp.html" target="_top" xlink:title="ConvectingTaylorVortex.cpp">
<polygon fill="#ffffff" stroke="#000000" points="3547,-62 3547,-81 3687,-81 3687,-62 3547,-62"/>
<text text-anchor="middle" x="3617" y="-69" font-family="Helvetica,sans-Serif" font-size="10.00" fill="#000000">ConvectingTaylorVortex.cpp</text>
</a>
</g>
</g>
<!-- Node33&#45;&gt;Node107 -->
<g id="edge46" class="edge">
<title>Node33&#45;&gt;Node107</title>
<path fill="none" stroke="#191970" d="M3098.7344,-187.238C3231.0862,-181.5764 3626.4583,-163.0462 3645,-143 3661.6558,-124.9927 3639.9041,-95.9339 3626.3512,-81.0127"/>
<polygon fill="#191970" stroke="#191970" points="3098.4156,-183.7483 3088.5731,-187.6694 3098.7126,-190.742 3098.4156,-183.7483"/>
</g>
<!-- Node108 -->
<g id="node41" class="node">
<title>Node108</title>
<g id="a_node41"><a xlink:href="_free_stream_8cpp.html" target="_top" xlink:title="FreeStream.cpp">
<polygon fill="#ffffff" stroke="#000000" points="3692,-123.5 3692,-142.5 3778,-142.5 3778,-123.5 3692,-123.5"/>
<text text-anchor="middle" x="3735" y="-130.5" font-family="Helvetica,sans-Serif" font-size="10.00" fill="#000000">FreeStream.cpp</text>
</a>
</g>
</g>
<!-- Node33&#45;&gt;Node108 -->
<g id="edge47" class="edge">
<title>Node33&#45;&gt;Node108</title>
<path fill="none" stroke="#191970" d="M3098.956,-187.3023C3200.1582,-182.9804 3461.3586,-169.9462 3678,-143 3682.4866,-142.442 3687.1571,-141.7711 3691.8082,-141.0444"/>
<polygon fill="#191970" stroke="#191970" points="3098.6658,-183.8113 3088.8218,-187.7286 3098.9601,-190.8051 3098.6658,-183.8113"/>
</g>
<!-- Node109 -->
<g id="node42" class="node">
<title>Node109</title>
<g id="a_node42"><a xlink:href="_rayleigh_taylor_8cpp.html" target="_top" xlink:title="RayleighTaylor.cpp">
<polygon fill="#ffffff" stroke="#000000" points="3796.5,-123.5 3796.5,-142.5 3897.5,-142.5 3897.5,-123.5 3796.5,-123.5"/>
<text text-anchor="middle" x="3847" y="-130.5" font-family="Helvetica,sans-Serif" font-size="10.00" fill="#000000">RayleighTaylor.cpp</text>
</a>
</g>
</g>
<!-- Node33&#45;&gt;Node109 -->
<g id="edge48" class="edge">
<title>Node33&#45;&gt;Node109</title>
<path fill="none" stroke="#191970" d="M3098.8132,-187.8362C3211.6906,-184.4369 3526.6208,-172.8116 3787,-143 3790.0426,-142.6516 3793.1659,-142.2539 3796.3124,-141.8224"/>
<polygon fill="#191970" stroke="#191970" points="3098.4213,-184.3461 3088.5289,-188.1398 3098.6279,-191.3431 3098.4213,-184.3461"/>
</g>
<!-- Node110 -->
<g id="node43" class="node">
<title>Node110</title>
<g id="a_node43"><a xlink:href="_taylor_green_vortex_8cpp.html" target="_top" xlink:title="TaylorGreenVortex.cpp">
<polygon fill="#ffffff" stroke="#000000" points="3915.5,-123.5 3915.5,-142.5 4032.5,-142.5 4032.5,-123.5 3915.5,-123.5"/>
<text text-anchor="middle" x="3974" y="-130.5" font-family="Helvetica,sans-Serif" font-size="10.00" fill="#000000">TaylorGreenVortex.cpp</text>
</a>
</g>
</g>
<!-- Node33&#45;&gt;Node110 -->
<g id="edge49" class="edge">
<title>Node33&#45;&gt;Node110</title>
<path fill="none" stroke="#191970" d="M3098.8217,-188.1102C3223.6768,-185.2096 3598.0451,-174.3362 3907,-143 3909.6912,-142.727 3912.4396,-142.4224 3915.2133,-142.094"/>
<polygon fill="#191970" stroke="#191970" points="3098.4662,-184.6173 3088.5484,-188.3438 3098.6254,-191.6155 3098.4662,-184.6173"/>
</g>
<!-- Node111 -->
<g id="node44" class="node">
<title>Node111</title>
<g id="a_node44"><a xlink:href="_turb_model_8_h.html" target="_top" xlink:title="TurbModel.H">
<polygon fill="#ffffff" stroke="#ff0000" points="4050.5,-123.5 4050.5,-142.5 4123.5,-142.5 4123.5,-123.5 4050.5,-123.5"/>
<text text-anchor="middle" x="4087" y="-130.5" font-family="Helvetica,sans-Serif" font-size="10.00" fill="#000000">TurbModel.H</text>
</a>
</g>
</g>
<!-- Node33&#45;&gt;Node111 -->
<g id="edge50" class="edge">
<title>Node33&#45;&gt;Node111</title>
<path fill="none" stroke="#191970" d="M3099.2001,-187.9745C3264.3263,-183.901 3855.6348,-167.8663 4042,-143 4044.6971,-142.6401 4047.4716,-142.1995 4050.2553,-141.7058"/>
<polygon fill="#191970" stroke="#191970" points="3098.86,-184.4817 3088.9487,-188.2255 3099.0314,-191.4796 3098.86,-184.4817"/>
</g>
<!-- Node114 -->
<g id="node45" class="node">
<title>Node114</title>
<g id="a_node45"><a xlink:href="turbulence__utils_8_h.html" target="_top" xlink:title="turbulence_utils.H">
<polygon fill="#ffffff" stroke="#000000" points="4141.5,-123.5 4141.5,-142.5 4236.5,-142.5 4236.5,-123.5 4141.5,-123.5"/>
<text text-anchor="middle" x="4189" y="-130.5" font-family="Helvetica,sans-Serif" font-size="10.00" fill="#000000">turbulence_utils.H</text>
</a>
</g>
</g>
<!-- Node33&#45;&gt;Node114 -->
<g id="edge51" class="edge">
<title>Node33&#45;&gt;Node114</title>
<path fill="none" stroke="#191970" d="M3098.5283,-187.9464C3272.0652,-183.5293 3927.1142,-165.6761 4133,-143 4135.7487,-142.6973 4138.566,-142.3411 4141.404,-141.9469"/>
<polygon fill="#191970" stroke="#191970" points="3098.4119,-184.4481 3088.5038,-188.2002 3098.5892,-191.4459 3098.4119,-184.4481"/>
</g>
<!-- Node119 -->
<g id="node46" class="node">
<title>Node119</title>
<g id="a_node46"><a xlink:href="_i_o_manager_8cpp.html" target="_top" xlink:title="IOManager.cpp">
<polygon fill="#ffffff" stroke="#000000" points="4254.5,-123.5 4254.5,-142.5 4337.5,-142.5 4337.5,-123.5 4254.5,-123.5"/>
<text text-anchor="middle" x="4296" y="-130.5" font-family="Helvetica,sans-Serif" font-size="10.00" fill="#000000">IOManager.cpp</text>
</a>
</g>
</g>
<!-- Node33&#45;&gt;Node119 -->
<g id="edge52" class="edge">
<title>Node33&#45;&gt;Node119</title>
<path fill="none" stroke="#191970" d="M3098.6998,-188.2591C3283.7067,-184.9087 4017.0293,-170.1483 4246,-143 4248.7252,-142.6769 4251.5235,-142.2854 4254.3374,-141.8468"/>
<polygon fill="#191970" stroke="#191970" points="3098.4885,-184.7622 3088.5529,-188.4413 3098.6142,-191.7611 3098.4885,-184.7622"/>
</g>
<!-- Node120 -->
<g id="node47" class="node">
<title>Node120</title>
<g id="a_node47"><a xlink:href="_post_processing_8cpp.html" target="_top" xlink:title="PostProcessing.cpp">
<polygon fill="#ffffff" stroke="#000000" points="4356,-123.5 4356,-142.5 4460,-142.5 4460,-123.5 4356,-123.5"/>
<text text-anchor="middle" x="4408" y="-130.5" font-family="Helvetica,sans-Serif" font-size="10.00" fill="#000000">PostProcessing.cpp</text>
</a>
</g>
</g>
<!-- Node33&#45;&gt;Node120 -->
<g id="edge53" class="edge">
<title>Node33&#45;&gt;Node120</title>
<path fill="none" stroke="#191970" d="M3098.7833,-188.2064C3293.4286,-184.4838 4096.6293,-167.8813 4347,-143 4349.8833,-142.7135 4352.837,-142.3761 4355.8141,-142.0019"/>
<polygon fill="#191970" stroke="#191970" points="3098.5964,-184.7093 3088.6648,-188.3988 3098.7296,-191.708 3098.5964,-184.7093"/>
</g>
<!-- Node121 -->
<g id="node48" class="node">
<title>Node121</title>
<g id="a_node48"><a xlink:href="_line_sampler_8cpp.html" target="_top" xlink:title="LineSampler.cpp">
<polygon fill="#ffffff" stroke="#000000" points="4478.5,-123.5 4478.5,-142.5 4567.5,-142.5 4567.5,-123.5 4478.5,-123.5"/>
<text text-anchor="middle" x="4523" y="-130.5" font-family="Helvetica,sans-Serif" font-size="10.00" fill="#000000">LineSampler.cpp</text>
</a>
</g>
</g>
<!-- Node33&#45;&gt;Node121 -->
<g id="edge54" class="edge">
<title>Node33&#45;&gt;Node121</title>
<path fill="none" stroke="#191970" d="M3098.7866,-188.4764C3304.53,-185.8258 4193.476,-172.8246 4469,-143 4472.0333,-142.6717 4475.152,-142.2691 4478.2874,-141.8161"/>
<polygon fill="#191970" stroke="#191970" points="3098.6358,-184.978 3088.6813,-188.6053 3098.7251,-191.9774 3098.6358,-184.978"/>
</g>
<!-- Node122 -->
<g id="node49" class="node">
<title>Node122</title>
<g id="a_node49"><a xlink:href="_probe_sampler_8cpp.html" target="_top" xlink:title="ProbeSampler.cpp">
<polygon fill="#ffffff" stroke="#000000" points="4585.5,-123.5 4585.5,-142.5 4682.5,-142.5 4682.5,-123.5 4585.5,-123.5"/>
<text text-anchor="middle" x="4634" y="-130.5" font-family="Helvetica,sans-Serif" font-size="10.00" fill="#000000">ProbeSampler.cpp</text>
</a>
</g>
</g>
<!-- Node33&#45;&gt;Node122 -->
<g id="edge55" class="edge">
<title>Node33&#45;&gt;Node122</title>
<path fill="none" stroke="#191970" d="M3098.8794,-188.5351C3314.1887,-186.0736 4278.8152,-173.5065 4577,-143 4579.6986,-142.7239 4582.462,-142.3948 4585.2465,-142.027"/>
<polygon fill="#191970" stroke="#191970" points="3098.5821,-185.0381 3088.6224,-188.6511 3098.6614,-192.0377 3098.5821,-185.0381"/>
</g>
<!-- Node123 -->
<g id="node50" class="node">
<title>Node123</title>
<g id="a_node50"><a xlink:href="_sampling_8_h.html" target="_top" xlink:title="Sampling.H">
<polygon fill="#ffffff" stroke="#ff0000" points="4701,-123.5 4701,-142.5 4769,-142.5 4769,-123.5 4701,-123.5"/>
<text text-anchor="middle" x="4735" y="-130.5" font-family="Helvetica,sans-Serif" font-size="10.00" fill="#000000">Sampling.H</text>
</a>
</g>
</g>
<!-- Node33&#45;&gt;Node123 -->
<g id="edge56" class="edge">
<title>Node33&#45;&gt;Node123</title>
<path fill="none" stroke="#191970" d="M3098.708,-188.3112C3340.2504,-184.3473 4530.0799,-163.8896 4692,-143 4694.8886,-142.6273 4697.867,-142.145 4700.8451,-141.5937"/>
<polygon fill="#191970" stroke="#191970" points="3098.5121,-184.8138 3088.5707,-188.477 3098.6266,-191.8129 3098.5121,-184.8138"/>
</g>
<!-- Node35 -->
<g id="node3" class="node">
<title>Node35</title>
<g id="a_node3"><a xlink:href="incflo__set__velocity__bcs_8cpp.html" target="_top" xlink:title="incflo_set_velocity\l_bcs.cpp">
<polygon fill="#ffffff" stroke="#000000" points="726,-56.5 726,-86.5 824,-86.5 824,-56.5 726,-56.5"/>
<text text-anchor="start" x="734" y="-74.5" font-family="Helvetica,sans-Serif" font-size="10.00" fill="#000000">incflo_set_velocity</text>
<text text-anchor="middle" x="775" y="-63.5" font-family="Helvetica,sans-Serif" font-size="10.00" fill="#000000">_bcs.cpp</text>
</a>
</g>
</g>
<!-- Node34&#45;&gt;Node35 -->
<g id="edge2" class="edge">
<title>Node34&#45;&gt;Node35</title>
<path fill="none" stroke="#191970" d="M809.9534,-115.3701C802.6929,-106.2574 793.9248,-95.2525 786.9867,-86.5446"/>
<polygon fill="#191970" stroke="#191970" points="807.3749,-117.7505 816.3438,-123.3906 812.8497,-113.3885 807.3749,-117.7505"/>
</g>
<!-- Node36 -->
<g id="node4" class="node">
<title>Node36</title>
<g id="a_node4"><a xlink:href="derive_8cpp.html" target="_top" xlink:title="derive.cpp">
<polygon fill="#ffffff" stroke="#000000" points="842,-62 842,-81 904,-81 904,-62 842,-62"/>
<text text-anchor="middle" x="873" y="-69" font-family="Helvetica,sans-Serif" font-size="10.00" fill="#000000">derive.cpp</text>
</a>
</g>
</g>
<!-- Node34&#45;&gt;Node36 -->
<g id="edge3" class="edge">
<title>Node34&#45;&gt;Node36</title>
<path fill="none" stroke="#191970" d="M838.1451,-115.2465C846.9642,-104.1775 857.9771,-90.3552 865.2358,-81.2449"/>
<polygon fill="#191970" stroke="#191970" points="835.1503,-113.3885 831.6563,-123.3906 840.6251,-117.7505 835.1503,-113.3885"/>
</g>
<!-- Node37 -->
<g id="node5" class="node">
<title>Node37</title>
<g id="a_node5"><a xlink:href="incflo__diffusion_8cpp.html" target="_top" xlink:title="incflo_diffusion.cpp">
<polygon fill="#ffffff" stroke="#000000" points="922.5,-62 922.5,-81 1023.5,-81 1023.5,-62 922.5,-62"/>
<text text-anchor="middle" x="973" y="-69" font-family="Helvetica,sans-Serif" font-size="10.00" fill="#000000">incflo_diffusion.cpp</text>
</a>
</g>
</g>
<!-- Node34&#45;&gt;Node37 -->
<g id="edge4" class="edge">
<title>Node34&#45;&gt;Node37</title>
<path fill="none" stroke="#191970" d="M856.7181,-119.4955C884.9132,-107.858 924.9078,-91.3501 949.8822,-81.0419"/>
<polygon fill="#191970" stroke="#191970" points="855.1894,-116.34 847.2813,-123.3906 857.8602,-122.8105 855.1894,-116.34"/>
</g>
<!-- Node38 -->
<g id="node6" class="node">
<title>Node38</title>
<g id="a_node6"><a xlink:href="incflo_8cpp.html" target="_top" xlink:title="incflo.cpp">
<polygon fill="#ffffff" stroke="#000000" points="1041.5,-62 1041.5,-81 1100.5,-81 1100.5,-62 1041.5,-62"/>
<text text-anchor="middle" x="1071" y="-69" font-family="Helvetica,sans-Serif" font-size="10.00" fill="#000000">incflo.cpp</text>
</a>
</g>
</g>
<!-- Node34&#45;&gt;Node38 -->
<g id="edge5" class="edge">
<title>Node34&#45;&gt;Node38</title>
<path fill="none" stroke="#191970" d="M859.2586,-126.991C900.9934,-119.4693 972.3568,-105.3174 1032,-87 1037.4326,-85.3316 1043.1753,-83.2409 1048.5347,-81.1402"/>
<polygon fill="#191970" stroke="#191970" points="858.5448,-123.5629 849.3116,-128.7589 859.7698,-130.4549 858.5448,-123.5629"/>
</g>
<!-- Node39 -->
<g id="node7" class="node">
<title>Node39</title>
<g id="a_node7"><a xlink:href="incflo__advance_8cpp.html" target="_top" xlink:title="incflo_advance.cpp">
<polygon fill="#ffffff" stroke="#000000" points="1118.5,-62 1118.5,-81 1219.5,-81 1219.5,-62 1118.5,-62"/>
<text text-anchor="middle" x="1169" y="-69" font-family="Helvetica,sans-Serif" font-size="10.00" fill="#000000">incflo_advance.cpp</text>
</a>
</g>
</g>
<!-- Node34&#45;&gt;Node39 -->
<g id="edge6" class="edge">
<title>Node34&#45;&gt;Node39</title>
<path fill="none" stroke="#191970" d="M859.4052,-128.3625C913.4823,-121.037 1019.7802,-105.6824 1109,-87 1117.2136,-85.2801 1125.9921,-83.1693 1134.2288,-81.0655"/>
<polygon fill="#191970" stroke="#191970" points="858.7515,-124.9188 849.3066,-129.7191 859.6836,-131.8564 858.7515,-124.9188"/>
</g>
<!-- Node40 -->
<g id="node8" class="node">
<title>Node40</title>
<g id="a_node8"><a xlink:href="incflo__compute__dt_8cpp.html" target="_top" xlink:title="incflo_compute_dt.cpp">
<polygon fill="#ffffff" stroke="#000000" points="1237.5,-62 1237.5,-81 1352.5,-81 1352.5,-62 1237.5,-62"/>
<text text-anchor="middle" x="1295" y="-69" font-family="Helvetica,sans-Serif" font-size="10.00" fill="#000000">incflo_compute_dt.cpp</text>
</a>
</g>
</g>
<!-- Node34&#45;&gt;Node40 -->
<g id="edge7" class="edge">
<title>Node34&#45;&gt;Node40</title>
<path fill="none" stroke="#191970" d="M859.3012,-130.3427C929.7548,-124.7395 1092.6758,-110.2793 1228,-87 1237.5307,-85.3605 1247.7379,-83.2067 1257.2392,-81.0283"/>
<polygon fill="#191970" stroke="#191970" points="858.8938,-126.8638 849.1983,-131.1356 859.4415,-133.8423 858.8938,-126.8638"/>
</g>
<!-- Node41 -->
<g id="node9" class="node">
<title>Node41</title>
<g id="a_node9"><a xlink:href="incflo__regrid_8cpp.html" target="_top" xlink:title="incflo_regrid.cpp">
<polygon fill="#ffffff" stroke="#000000" points="1371,-62 1371,-81 1459,-81 1459,-62 1371,-62"/>
<text text-anchor="middle" x="1415" y="-69" font-family="Helvetica,sans-Serif" font-size="10.00" fill="#000000">incflo_regrid.cpp</text>
</a>
</g>
</g>
<!-- Node34&#45;&gt;Node41 -->
<g id="edge8" class="edge">
<title>Node34&#45;&gt;Node41</title>
<path fill="none" stroke="#191970" d="M859.1545,-132.3425C945.3792,-130.2213 1173.9557,-121.5172 1361,-87 1369.0569,-85.5132 1377.6405,-83.3332 1385.5376,-81.0752"/>
<polygon fill="#191970" stroke="#191970" points="859.038,-128.8441 849.1217,-132.5749 859.2002,-135.8423 859.038,-128.8441"/>
</g>
<!-- Node42 -->
<g id="node10" class="node">
<title>Node42</title>
<g id="a_node10"><a xlink:href="incflo__tagging_8cpp.html" target="_top" xlink:title="incflo_tagging.cpp">
<polygon fill="#ffffff" stroke="#000000" points="1477.5,-62 1477.5,-81 1572.5,-81 1572.5,-62 1477.5,-62"/>
<text text-anchor="middle" x="1525" y="-69" font-family="Helvetica,sans-Serif" font-size="10.00" fill="#000000">incflo_tagging.cpp</text>
</a>
</g>
</g>
<!-- Node34&#45;&gt;Node42 -->
<g id="edge9" class="edge">
<title>Node34&#45;&gt;Node42</title>
<path fill="none" stroke="#191970" d="M859.4588,-131.3766C976.4259,-125.8791 1349.3211,-107.1777 1468,-87 1476.5936,-85.5389 1485.7644,-83.3393 1494.1818,-81.0527"/>
<polygon fill="#191970" stroke="#191970" points="859.0937,-127.8898 849.2679,-131.8526 859.4204,-134.8822 859.0937,-127.8898"/>
</g>
<!-- Node43 -->
<g id="node11" class="node">
<title>Node43</title>
<g id="a_node11"><a xlink:href="main_8cpp.html" target="_top" xlink:title="main.cpp">
<polygon fill="#ffffff" stroke="#000000" points="0,-62 0,-81 56,-81 56,-62 0,-62"/>
<text text-anchor="middle" x="28" y="-69" font-family="Helvetica,sans-Serif" font-size="10.00" fill="#000000">main.cpp</text>
</a>
</g>
</g>
<!-- Node34&#45;&gt;Node43 -->
<g id="edge10" class="edge">
<title>Node34&#45;&gt;Node43</title>
<path fill="none" stroke="#191970" d="M788.7072,-132.4276C658.5011,-130.0733 205.3819,-119.6653 65,-87 59.1664,-85.6426 53.0766,-83.4479 47.5612,-81.1318"/>
<polygon fill="#191970" stroke="#191970" points="788.8485,-135.9306 798.9087,-132.6074 788.9719,-128.9317 788.8485,-135.9306"/>
</g>
<!-- Node44 -->
<g id="node12" class="node">
<title>Node44</title>
<g id="a_node12"><a xlink:href="prob__bc_8cpp.html" target="_top" xlink:title="prob_bc.cpp">
<polygon fill="#ffffff" stroke="#000000" points="74,-62 74,-81 144,-81 144,-62 74,-62"/>
<text text-anchor="middle" x="109" y="-69" font-family="Helvetica,sans-Serif" font-size="10.00" fill="#000000">prob_bc.cpp</text>
</a>
</g>
</g>
<!-- Node34&#45;&gt;Node44 -->
<g id="edge11" class="edge">
<title>Node34&#45;&gt;Node44</title>
<path fill="none" stroke="#191970" d="M788.5839,-131.8341C668.3396,-127.6785 276.3544,-112.4643 153,-87 146.1787,-85.5919 138.9749,-83.3806 132.4153,-81.0647"/>
<polygon fill="#191970" stroke="#191970" points="788.6001,-135.3366 798.7138,-132.1801 788.8391,-128.3407 788.6001,-135.3366"/>
</g>
<!-- Node45 -->
<g id="node13" class="node">
<title>Node45</title>
<g id="a_node13"><a xlink:href="prob__init__fluid_8cpp.html" target="_top" xlink:title="prob_init_fluid.cpp">
<polygon fill="#ffffff" stroke="#000000" points="162.5,-62 162.5,-81 257.5,-81 257.5,-62 162.5,-62"/>
<text text-anchor="middle" x="210" y="-69" font-family="Helvetica,sans-Serif" font-size="10.00" fill="#000000">prob_init_fluid.cpp</text>
</a>
</g>
</g>
<!-- Node34&#45;&gt;Node45 -->
<g id="edge12" class="edge">
<title>Node34&#45;&gt;Node45</title>
<path fill="none" stroke="#191970" d="M788.7091,-132.3842C700.1122,-130.3432 461.4179,-121.7811 266,-87 257.6574,-85.5152 248.7603,-83.3359 240.5709,-81.0779"/>
<polygon fill="#191970" stroke="#191970" points="788.6829,-135.8843 798.7565,-132.6021 788.8347,-128.886 788.6829,-135.8843"/>
</g>
<!-- Node46 -->
<g id="node14" class="node">
<title>Node46</title>
<g id="a_node14"><a xlink:href="incflo__apply__nodal__projection_8cpp.html" target="_top" xlink:title="incflo_apply_nodal\l_projection.cpp">
<polygon fill="#ffffff" stroke="#000000" points="275.5,-56.5 275.5,-86.5 372.5,-86.5 372.5,-56.5 275.5,-56.5"/>
<text text-anchor="start" x="283.5" y="-74.5" font-family="Helvetica,sans-Serif" font-size="10.00" fill="#000000">incflo_apply_nodal</text>
<text text-anchor="middle" x="324" y="-63.5" font-family="Helvetica,sans-Serif" font-size="10.00" fill="#000000">_projection.cpp</text>
</a>
</g>
</g>
<!-- Node34&#45;&gt;Node46 -->
<g id="edge13" class="edge">
<title>Node34&#45;&gt;Node46</title>
<path fill="none" stroke="#191970" d="M788.5477,-131.2088C713.1829,-126.9863 531.69,-114.6133 382,-87 378.925,-86.4328 375.7743,-85.7856 372.6077,-85.0851"/>
<polygon fill="#191970" stroke="#191970" points="788.7045,-134.7225 798.8806,-131.7735 789.0865,-127.733 788.7045,-134.7225"/>
</g>
<!-- Node47 -->
<g id="node15" class="node">
<title>Node47</title>
<g id="a_node15"><a xlink:href="init_8cpp.html" target="_top" xlink:title="init.cpp">
<polygon fill="#ffffff" stroke="#000000" points="391,-62 391,-81 439,-81 439,-62 391,-62"/>
<text text-anchor="middle" x="415" y="-69" font-family="Helvetica,sans-Serif" font-size="10.00" fill="#000000">init.cpp</text>
</a>
</g>
</g>
<!-- Node34&#45;&gt;Node47 -->
<g id="edge14" class="edge">
<title>Node34&#45;&gt;Node47</title>
<path fill="none" stroke="#191970" d="M788.7351,-130.122C707.9692,-123.2987 511.6554,-105.3336 448,-87 442.8908,-85.5285 437.5815,-83.3538 432.7535,-81.0959"/>
<polygon fill="#191970" stroke="#191970" points="788.6353,-133.6258 798.8925,-130.9726 789.2196,-126.6502 788.6353,-133.6258"/>
</g>
<!-- Node48 -->
<g id="node16" class="node">
<title>Node48</title>
<g id="a_node16"><a xlink:href="set__background__pressure_8cpp.html" target="_top" xlink:title="set_background_pressure.cpp">
<polygon fill="#ffffff" stroke="#000000" points="457.5,-62 457.5,-81 604.5,-81 604.5,-62 457.5,-62"/>
<text text-anchor="middle" x="531" y="-69" font-family="Helvetica,sans-Serif" font-size="10.00" fill="#000000">set_background_pressure.cpp</text>
</a>
</g>
</g>
<!-- Node34&#45;&gt;Node48 -->
<g id="edge15" class="edge">
<title>Node34&#45;&gt;Node48</title>
<path fill="none" stroke="#191970" d="M788.7996,-125.6115C735.6676,-114.4592 634.9833,-93.3258 576.3999,-81.0293"/>
<polygon fill="#191970" stroke="#191970" points="788.2597,-129.0744 798.7654,-127.7033 789.6977,-122.2237 788.2597,-129.0744"/>
</g>
<!-- Node49 -->
<g id="node17" class="node">
<title>Node49</title>
<g id="a_node17"><a xlink:href="diagnostics_8cpp.html" target="_top" xlink:title="diagnostics.cpp">
<polygon fill="#ffffff" stroke="#000000" points="622.5,-62 622.5,-81 707.5,-81 707.5,-62 622.5,-62"/>
<text text-anchor="middle" x="665" y="-69" font-family="Helvetica,sans-Serif" font-size="10.00" fill="#000000">diagnostics.cpp</text>
</a>
</g>
</g>
<!-- Node34&#45;&gt;Node49 -->
<g id="edge16" class="edge">
<title>Node34&#45;&gt;Node49</title>
<path fill="none" stroke="#191970" d="M789.4795,-119.6477C759.3718,-108.0023 716.4363,-91.3952 689.6693,-81.0419"/>
<polygon fill="#191970" stroke="#191970" points="788.567,-123.0474 799.1563,-123.3906 791.0922,-116.5188 788.567,-123.0474"/>
</g>
<!-- Node54&#45;&gt;Node58 -->
<g id="edge18" class="edge">
<title>Node54&#45;&gt;Node58</title>
<path fill="none" stroke="#191970" d="M1701.619,-55.6491C1716.4836,-44.222 1736.057,-29.1749 1748.5878,-19.5419"/>
<polygon fill="#191970" stroke="#191970" points="1699.2949,-53.021 1693.5,-61.8906 1703.5613,-58.5707 1699.2949,-53.021"/>
</g>
<!-- Node54&#45;&gt;Node60 -->
<g id="edge19" class="edge">
<title>Node54&#45;&gt;Node60</title>
<path fill="none" stroke="#191970" d="M1665.708,-54.4007C1655.715,-43.2268 1643.0237,-29.0356 1634.7149,-19.7449"/>
<polygon fill="#191970" stroke="#191970" points="1663.1311,-56.7698 1672.4063,-61.8906 1668.3489,-52.1034 1663.1311,-56.7698"/>
</g>
<!-- Node61&#45;&gt;Node54 -->
<g id="edge21" class="edge">
<title>Node61&#45;&gt;Node54</title>
<path fill="none" stroke="#191970" d="M1712.2983,-115.2465C1704.379,-104.1775 1694.4899,-90.3552 1687.9719,-81.2449"/>
<polygon fill="#191970" stroke="#191970" points="1709.4598,-117.2943 1718.125,-123.3906 1715.1528,-113.2212 1709.4598,-117.2943"/>
</g>
<!-- Node61&#45;&gt;Node58 -->
<g id="edge22" class="edge">
<title>Node61&#45;&gt;Node58</title>
<path fill="none" stroke="#191970" d="M1732.0676,-113.7954C1734.9862,-105.5901 1738.3086,-95.8754 1741,-87 1748.2947,-62.9445 1755.3259,-34.1747 1758.7813,-19.5521"/>
<polygon fill="#191970" stroke="#191970" points="1728.7743,-112.6105 1728.6646,-123.2048 1735.3571,-114.9912 1728.7743,-112.6105"/>
</g>
<!-- Node66&#45;&gt;Node67 -->
<g id="edge24" class="edge">
<title>Node66&#45;&gt;Node67</title>
<path fill="none" stroke="#191970" d="M1907.7017,-115.2465C1915.621,-104.1775 1925.5101,-90.3552 1932.0281,-81.2449"/>
<polygon fill="#191970" stroke="#191970" points="1904.8472,-113.2212 1901.875,-123.3906 1910.5402,-117.2943 1904.8472,-113.2212"/>
</g>
<!-- Node71&#45;&gt;Node84 -->
<g id="edge28" class="edge">
<title>Node71&#45;&gt;Node84</title>
<path fill="none" stroke="#191970" d="M2141.4497,-114.253C2146.9402,-103.3606 2153.6321,-90.0846 2158.088,-81.2449"/>
<polygon fill="#191970" stroke="#191970" points="2138.2196,-112.8855 2136.8438,-123.3906 2144.4704,-116.0363 2138.2196,-112.8855"/>
</g>
<!-- Node102&#45;&gt;Node103 -->
<g id="edge39" class="edge">
<title>Node102&#45;&gt;Node103</title>
<path fill="none" stroke="#191970" d="M3205.3771,-113.9189C3210.1312,-103.0901 3215.8805,-89.9944 3219.7218,-81.2449"/>
<polygon fill="#191970" stroke="#191970" points="3202.034,-112.8272 3201.2188,-123.3906 3208.4435,-115.6412 3202.034,-112.8272"/>
</g>
<!-- Node106&#45;&gt;Node107 -->
<g id="edge45" class="edge">
<title>Node106&#45;&gt;Node107</title>
<path fill="none" stroke="#191970" d="M3583.5677,-115.2465C3592.0269,-104.1775 3602.5903,-90.3552 3609.5527,-81.2449"/>
<polygon fill="#191970" stroke="#191970" points="3580.635,-113.3199 3577.3438,-123.3906 3586.1968,-117.5704 3580.635,-113.3199"/>
</g>
</g>
</svg>
        <g id="navigator" transform="translate(0 0)" fill="#404254">
                <rect fill="#f2f5e9" fill-opacity="0.5" stroke="#606060" stroke-width=".5" x="0" y="0" width="60" height="60"/>
                <use id="zoomplus" xlink:href="#zoomPlus" x="17" y="9" onmousedown="handleZoom(evt,'in')"/>
                <use id="zoomminus" xlink:href="#zoomMin" x="42" y="9" onmousedown="handleZoom(evt,'out')"/>
                <use id="reset" xlink:href="#resetDef" x="30" y="36" onmousedown="handleReset()"/>
                <g id="arrowUp" xlink:href="#dirArrow" transform="translate(30 24)" onmousedown="handlePan(0,-1)">
                  <use xlink:href="#rim" fill="#404040">
                        <set attributeName="fill" to="#808080" begin="arrowUp.mouseover" end="arrowUp.mouseout"/>
                  </use>
                  <path fill="none" stroke="white" stroke-width="1.5" d="M0,-3.0v7 M-2.5,-0.5L0,-3.0L2.5,-0.5"/>
                </g>
                <g id="arrowRight" xlink:href="#dirArrow" transform="rotate(90) translate(36 -43)" onmousedown="handlePan(1,0)">
                  <use xlink:href="#rim" fill="#404040">
                        <set attributeName="fill" to="#808080" begin="arrowRight.mouseover" end="arrowRight.mouseout"/>
                  </use>
                  <path fill="none" stroke="white" stroke-width="1.5" d="M0,-3.0v7 M-2.5,-0.5L0,-3.0L2.5,-0.5"/>
                </g>
                <g id="arrowDown" xlink:href="#dirArrow" transform="rotate(180) translate(-30 -48)" onmousedown="handlePan(0,1)">
                  <use xlink:href="#rim" fill="#404040">
                        <set attributeName="fill" to="#808080" begin="arrowDown.mouseover" end="arrowDown.mouseout"/>
                  </use>
                  <path fill="none" stroke="white" stroke-width="1.5" d="M0,-3.0v7 M-2.5,-0.5L0,-3.0L2.5,-0.5"/>
                </g>
                <g id="arrowLeft" xlink:href="#dirArrow" transform="rotate(270) translate(-36 17)" onmousedown="handlePan(-1,0)">
                  <use xlink:href="#rim" fill="#404040">
                        <set attributeName="fill" to="#808080" begin="arrowLeft.mouseover" end="arrowLeft.mouseout"/>
                  </use>
                  <path fill="none" stroke="white" stroke-width="1.5" d="M0,-3.0v7 M-2.5,-0.5L0,-3.0L2.5,-0.5"/>
                </g>
        </g>
        <svg viewBox="0 0 15 15" width="100%" height="30px" preserveAspectRatio="xMaxYMin meet">
         <g id="arrow_out" transform="scale(0.3 0.3)">
          <a xlink:href="_c_f_d_sim_8_h__dep__incl_org.svg" target="_base">
           <rect id="button" ry="5" rx="5" y="6" x="6" height="38" width="38"
                fill="#f2f5e9" fill-opacity="0.5" stroke="#606060" stroke-width="1.0"/>
           <path id="arrow"
             d="M 11.500037,31.436501 C 11.940474,20.09759 22.043105,11.32322 32.158766,21.979434 L 37.068811,17.246167 C 37.068811,17.246167 37.088388,32 37.088388,32 L 22.160133,31.978069 C 22.160133,31.978069 26.997745,27.140456 26.997745,27.140456 C 18.528582,18.264221 13.291696,25.230495 11.500037,31.436501 z"
             style="fill:#404040;"/>
          </a>
         </g>
        </svg>
</svg>
