<?xml version="1.0" encoding="UTF-8" standalone="no"?>
<!DOCTYPE svg PUBLIC "-//W3C//DTD SVG 1.1//EN"
 "http://www.w3.org/Graphics/SVG/1.1/DTD/svg11.dtd">
<!-- Generated by graphviz version 2.40.1 (20161225.0304)
 -->
<!-- Title: CFDSim.H Pages: 1 -->
<!--zoomable 207 -->
<svg id="main" version="1.1" xmlns="http://www.w3.org/2000/svg" xmlns:xlink="http://www.w3.org/1999/xlink" xml:space="preserve" onload="init(evt)">
<style type="text/css"><![CDATA[
.edge:hover path { stroke: red; }
.edge:hover polygon { stroke: red; fill: red; }
]]></style>
<script type="text/javascript"><![CDATA[
var edges = document.getElementsByTagName('g');
if (edges && edges.length) {
  for (var i=0;i<edges.length;i++) {
    if (edges[i].id.substr(0,4)=='edge') {
      edges[i].setAttribute('class','edge');
    }
  }
}
]]></script>
        <defs>
                <circle id="rim" cx="0" cy="0" r="7"/>
                <circle id="rim2" cx="0" cy="0" r="3.5"/>
                <g id="zoomPlus">
                        <use xlink:href="#rim" fill="#404040">
                                <set attributeName="fill" to="#808080" begin="zoomplus.mouseover" end="zoomplus.mouseout"/>
                        </use>
                        <path d="M-4,0h8M0,-4v8" fill="none" stroke="white" stroke-width="1.5" pointer-events="none"/>
                </g>
                <g id="zoomMin">
                        <use xlink:href="#rim" fill="#404040">
                                <set attributeName="fill" to="#808080" begin="zoomminus.mouseover" end="zoomminus.mouseout"/>
                        </use>
                        <path d="M-4,0h8" fill="none" stroke="white" stroke-width="1.5" pointer-events="none"/>
                </g>
                <g id="dirArrow">
                        <path fill="none" stroke="white" stroke-width="1.5" d="M0,-3.0v7 M-2.5,-0.5L0,-3.0L2.5,-0.5"/>
                </g>
               <g id="resetDef">
                       <use xlink:href="#rim2" fill="#404040">
                               <set attributeName="fill" to="#808080" begin="reset.mouseover" end="reset.mouseout"/>
                       </use>
               </g>
        </defs>

<script type="text/javascript">
var viewWidth = 4729;
var viewHeight = 207;
var sectionId = 'dynsection-1';
</script>
<script xlink:href="svgpan.js"/>
<svg id="graph" class="graph">
<g id="viewport">
<title>CFDSim.H</title>
<polygon fill="#ffffff" stroke="transparent" points="-4,4 -4,-203 4725,-203 4725,4 -4,4"/>
<!-- Node33 -->
<g id="node1" class="node">
<title>Node33</title>
<polygon fill="#bfbfbf" stroke="#000000" points="2685.5,-179.5 2685.5,-198.5 2750.5,-198.5 2750.5,-179.5 2685.5,-179.5"/>
<text text-anchor="middle" x="2718" y="-186.5" font-family="Helvetica,sans-Serif" font-size="10.00" fill="#000000">CFDSim.H</text>
</g>
<!-- Node34 -->
<g id="node2" class="node">
<title>Node34</title>
<g id="a_node2"><a xlink:href="incflo_8_h.html" target="_top" xlink:title="incflo.H">
<polygon fill="#ffffff" stroke="#ff0000" points="481,-123.5 481,-142.5 531,-142.5 531,-123.5 481,-123.5"/>
<text text-anchor="middle" x="506" y="-130.5" font-family="Helvetica,sans-Serif" font-size="10.00" fill="#000000">incflo.H</text>
</a>
</g>
</g>
<!-- Node33&#45;&gt;Node34 -->
<g id="edge1" class="edge">
<title>Node33&#45;&gt;Node34</title>
<path fill="none" stroke="#191970" d="M2675.0547,-187.9128C2388.1711,-180.6499 754.3172,-139.2865 531.2317,-133.6388"/>
<polygon fill="#191970" stroke="#191970" points="2675.362,-191.4216 2685.4474,-188.1759 2675.5392,-184.4238 2675.362,-191.4216"/>
</g>
<!-- Node54 -->
<g id="node12" class="node">
<title>Node54</title>
<g id="a_node12"><a xlink:href="_a_b_l_wall_function_8_h.html" target="_top" xlink:title="ABLWallFunction.H">
<polygon fill="#ffffff" stroke="#ff0000" points="1027.5,-62 1027.5,-81 1130.5,-81 1130.5,-62 1027.5,-62"/>
<text text-anchor="middle" x="1079" y="-69" font-family="Helvetica,sans-Serif" font-size="10.00" fill="#000000">ABLWallFunction.H</text>
</a>
</g>
</g>
<!-- Node33&#45;&gt;Node54 -->
<g id="edge11" class="edge">
<title>Node33&#45;&gt;Node54</title>
<path fill="none" stroke="#191970" d="M2675.0863,-188.6822C2430.0695,-186.7505 1216.5092,-175.5628 1145,-143 1116.0964,-129.8383 1094.0507,-97.4474 1084.3783,-81.1684"/>
<polygon fill="#191970" stroke="#191970" points="2675.3376,-192.1842 2685.3646,-188.7623 2675.3922,-185.1844 2675.3376,-192.1842"/>
</g>
<!-- Node59 -->
<g id="node13" class="node">
<title>Node59</title>
<g id="a_node13"><a xlink:href="_a_b_l_stats_8_h.html" target="_top" xlink:title="ABLStats.H">
<polygon fill="#ffffff" stroke="#ff0000" points="964.5,-.5 964.5,-19.5 1033.5,-19.5 1033.5,-.5 964.5,-.5"/>
<text text-anchor="middle" x="999" y="-7.5" font-family="Helvetica,sans-Serif" font-size="10.00" fill="#000000">ABLStats.H</text>
</a>
</g>
</g>
<!-- Node33&#45;&gt;Node59 -->
<g id="edge19" class="edge">
<title>Node33&#45;&gt;Node59</title>
<path fill="none" stroke="#191970" d="M2675.2158,-188.6927C2409.8267,-186.6881 998.7364,-174.5549 968,-143 934.0864,-108.1833 974.3663,-43.8414 991.7613,-19.587"/>
<polygon fill="#191970" stroke="#191970" points="2675.2069,-192.1927 2685.2329,-188.7677 2675.2594,-185.1929 2675.2069,-192.1927"/>
</g>
<!-- Node61 -->
<g id="node14" class="node">
<title>Node61</title>
<g id="a_node14"><a xlink:href="_boussinesq_bubble_8cpp.html" target="_top" xlink:title="BoussinesqBubble.cpp">
<polygon fill="#ffffff" stroke="#000000" points="1076,-.5 1076,-19.5 1192,-19.5 1192,-.5 1076,-.5"/>
<text text-anchor="middle" x="1134" y="-7.5" font-family="Helvetica,sans-Serif" font-size="10.00" fill="#000000">BoussinesqBubble.cpp</text>
</a>
</g>
</g>
<!-- Node33&#45;&gt;Node61 -->
<g id="edge38" class="edge">
<title>Node33&#45;&gt;Node61</title>
<path fill="none" stroke="#191970" d="M2675.177,-188.3935C2429.4836,-184.8318 1208.8546,-166.0006 1178,-143 1157.5257,-127.7374 1141.0339,-48.0176 1135.7682,-19.8611"/>
<polygon fill="#191970" stroke="#191970" points="2675.4316,-191.8974 2685.4811,-188.5422 2675.5327,-184.8982 2675.4316,-191.8974"/>
</g>
<!-- Node62 -->
<g id="node15" class="node">
<title>Node62</title>
<g id="a_node15"><a xlink:href="_field_plane_averaging_8_h.html" target="_top" xlink:title="FieldPlaneAveraging.H">
<polygon fill="#ffffff" stroke="#ff0000" points="977,-123.5 977,-142.5 1093,-142.5 1093,-123.5 977,-123.5"/>
<text text-anchor="middle" x="1035" y="-130.5" font-family="Helvetica,sans-Serif" font-size="10.00" fill="#000000">FieldPlaneAveraging.H</text>
</a>
</g>
</g>
<!-- Node33&#45;&gt;Node62 -->
<g id="edge14" class="edge">
<title>Node33&#45;&gt;Node62</title>
<path fill="none" stroke="#191970" d="M2675.1338,-188.4122C2452.3212,-185.2599 1424.5473,-169.5054 1107,-143 1102.4725,-142.6221 1097.7946,-142.1527 1093.0981,-141.6251"/>
<polygon fill="#191970" stroke="#191970" points="2675.3784,-191.9159 2685.4266,-188.5569 2675.4768,-184.9166 2675.3784,-191.9159"/>
</g>
<!-- Node68 -->
<g id="node16" class="node">
<title>Node68</title>
<g id="a_node16"><a xlink:href="_a_b_l_boundary_plane_8_h.html" target="_top" xlink:title="ABLBoundaryPlane.H">
<polygon fill="#ffffff" stroke="#ff0000" points="1187,-123.5 1187,-142.5 1299,-142.5 1299,-123.5 1187,-123.5"/>
<text text-anchor="middle" x="1243" y="-130.5" font-family="Helvetica,sans-Serif" font-size="10.00" fill="#000000">ABLBoundaryPlane.H</text>
</a>
</g>
</g>
<!-- Node33&#45;&gt;Node68 -->
<g id="edge17" class="edge">
<title>Node33&#45;&gt;Node68</title>
<path fill="none" stroke="#191970" d="M2675.1443,-188.2287C2470.0462,-184.4407 1587.367,-167.0168 1313,-143 1308.4751,-142.6039 1303.796,-142.1134 1299.1017,-141.5641"/>
<polygon fill="#191970" stroke="#191970" points="2675.1585,-191.7294 2685.2212,-188.4139 2675.2872,-184.7306 2675.1585,-191.7294"/>
</g>
<!-- Node69 -->
<g id="node17" class="node">
<title>Node69</title>
<g id="a_node17"><a xlink:href="_a_b_l_boundary_plane_8cpp.html" target="_top" xlink:title="ABLBoundaryPlane.cpp">
<polygon fill="#ffffff" stroke="#000000" points="1227,-62 1227,-81 1347,-81 1347,-62 1227,-62"/>
<text text-anchor="middle" x="1287" y="-69" font-family="Helvetica,sans-Serif" font-size="10.00" fill="#000000">ABLBoundaryPlane.cpp</text>
</a>
</g>
</g>
<!-- Node33&#45;&gt;Node69 -->
<g id="edge58" class="edge">
<title>Node33&#45;&gt;Node69</title>
<path fill="none" stroke="#191970" d="M2675.2877,-188.5538C2449.9215,-186.0757 1407.0145,-173.0174 1346,-143 1318.8514,-129.6437 1299.7582,-97.344 1291.5305,-81.1272"/>
<polygon fill="#191970" stroke="#191970" points="2675.3567,-192.0547 2685.3943,-188.6639 2675.433,-185.0551 2675.3567,-192.0547"/>
</g>
<!-- Node72 -->
<g id="node18" class="node">
<title>Node72</title>
<g id="a_node18"><a xlink:href="_c_f_d_sim_8cpp.html" target="_top" xlink:title="CFDSim.cpp">
<polygon fill="#ffffff" stroke="#000000" points="1355,-123.5 1355,-142.5 1429,-142.5 1429,-123.5 1355,-123.5"/>
<text text-anchor="middle" x="1392" y="-130.5" font-family="Helvetica,sans-Serif" font-size="10.00" fill="#000000">CFDSim.cpp</text>
</a>
</g>
</g>
<!-- Node33&#45;&gt;Node72 -->
<g id="edge20" class="edge">
<title>Node33&#45;&gt;Node72</title>
<path fill="none" stroke="#191970" d="M2675.2308,-188.4871C2481.5447,-186.0073 1685.3814,-174.0826 1438,-143 1435.0808,-142.6332 1432.073,-142.1718 1429.0591,-141.6497"/>
<polygon fill="#191970" stroke="#191970" points="2675.259,-191.9877 2685.3025,-188.6145 2675.3476,-184.9882 2675.259,-191.9877"/>
</g>
<!-- Node73 -->
<g id="node19" class="node">
<title>Node73</title>
<g id="a_node19"><a xlink:href="_p_d_e_ops_8_h.html" target="_top" xlink:title="PDEOps.H">
<polygon fill="#ffffff" stroke="#ff0000" points="1447,-123.5 1447,-142.5 1513,-142.5 1513,-123.5 1447,-123.5"/>
<text text-anchor="middle" x="1480" y="-130.5" font-family="Helvetica,sans-Serif" font-size="10.00" fill="#000000">PDEOps.H</text>
</a>
</g>
</g>
<!-- Node33&#45;&gt;Node73 -->
<g id="edge21" class="edge">
<title>Node33&#45;&gt;Node73</title>
<path fill="none" stroke="#191970" d="M2675.2559,-188.3297C2490.0581,-185.2747 1755.9927,-171.5699 1527,-143 1522.447,-142.432 1517.6809,-141.6464 1513.0035,-140.763"/>
<polygon fill="#191970" stroke="#191970" points="2675.3573,-191.8318 2685.4132,-188.4956 2675.4717,-184.8327 2675.3573,-191.8318"/>
</g>
<!-- Node87 -->
<g id="node20" class="node">
<title>Node87</title>
<g id="a_node20"><a xlink:href="_p_d_e_8_h.html" target="_top" xlink:title="PDE.H">
<polygon fill="#ffffff" stroke="#ff0000" points="1487,-62 1487,-81 1535,-81 1535,-62 1487,-62"/>
<text text-anchor="middle" x="1511" y="-69" font-family="Helvetica,sans-Serif" font-size="10.00" fill="#000000">PDE.H</text>
</a>
</g>
</g>
<!-- Node33&#45;&gt;Node87 -->
<g id="edge23" class="edge">
<title>Node33&#45;&gt;Node87</title>
<path fill="none" stroke="#191970" d="M2675.2631,-188.3732C2471.8684,-185.2546 1609.6824,-170.4552 1560,-143 1535.2383,-129.3163 1520.4193,-97.1701 1514.2938,-81.0579"/>
<polygon fill="#191970" stroke="#191970" points="2675.215,-191.8728 2685.2671,-188.5253 2675.3215,-184.8736 2675.215,-191.8728"/>
</g>
<!-- Node56 -->
<g id="node21" class="node">
<title>Node56</title>
<g id="a_node21"><a xlink:href="_a_b_l_forcing_8cpp.html" target="_top" xlink:title="ABLForcing.cpp">
<polygon fill="#ffffff" stroke="#000000" points="1569,-123.5 1569,-142.5 1655,-142.5 1655,-123.5 1569,-123.5"/>
<text text-anchor="middle" x="1612" y="-130.5" font-family="Helvetica,sans-Serif" font-size="10.00" fill="#000000">ABLForcing.cpp</text>
</a>
</g>
</g>
<!-- Node33&#45;&gt;Node56 -->
<g id="edge24" class="edge">
<title>Node33&#45;&gt;Node56</title>
<path fill="none" stroke="#191970" d="M2675.2653,-187.971C2503.7424,-183.7117 1864.8999,-166.5728 1664,-143 1661.0782,-142.6572 1658.0744,-142.2438 1655.0547,-141.7829"/>
<polygon fill="#191970" stroke="#191970" points="2675.3327,-191.4737 2685.4161,-188.2216 2675.5055,-184.4758 2675.3327,-191.4737"/>
</g>
<!-- Node57 -->
<g id="node22" class="node">
<title>Node57</title>
<g id="a_node22"><a xlink:href="_a_b_l_mean_boussinesq_8cpp.html" target="_top" xlink:title="ABLMeanBoussinesq.cpp">
<polygon fill="#ffffff" stroke="#000000" points="1673.5,-123.5 1673.5,-142.5 1802.5,-142.5 1802.5,-123.5 1673.5,-123.5"/>
<text text-anchor="middle" x="1738" y="-130.5" font-family="Helvetica,sans-Serif" font-size="10.00" fill="#000000">ABLMeanBoussinesq.cpp</text>
</a>
</g>
</g>
<!-- Node33&#45;&gt;Node57 -->
<g id="edge25" class="edge">
<title>Node33&#45;&gt;Node57</title>
<path fill="none" stroke="#191970" d="M2675.0546,-188.1249C2544.7837,-185.1907 2142.7145,-174.0746 1811,-143 1808.3254,-142.7494 1805.5984,-142.4727 1802.8455,-142.1758"/>
<polygon fill="#191970" stroke="#191970" points="2675.3144,-191.6314 2685.3893,-188.3532 2675.4691,-184.6331 2675.3144,-191.6314"/>
</g>
<!-- Node100 -->
<g id="node23" class="node">
<title>Node100</title>
<g id="a_node23"><a xlink:href="_body_force_8cpp.html" target="_top" xlink:title="BodyForce.cpp">
<polygon fill="#ffffff" stroke="#000000" points="1820.5,-123.5 1820.5,-142.5 1903.5,-142.5 1903.5,-123.5 1820.5,-123.5"/>
<text text-anchor="middle" x="1862" y="-130.5" font-family="Helvetica,sans-Serif" font-size="10.00" fill="#000000">BodyForce.cpp</text>
</a>
</g>
</g>
<!-- Node33&#45;&gt;Node100 -->
<g id="edge26" class="edge">
<title>Node33&#45;&gt;Node100</title>
<path fill="none" stroke="#191970" d="M2674.9783,-188.6046C2554.3045,-187.0517 2202.5209,-179.4831 1913,-143 1909.9563,-142.6165 1906.8215,-142.1584 1903.6735,-141.6524"/>
<polygon fill="#191970" stroke="#191970" points="2675.2231,-192.1077 2685.2649,-188.7294 2675.3081,-185.1082 2675.2231,-192.1077"/>
</g>
<!-- Node101 -->
<g id="node24" class="node">
<title>Node101</title>
<g id="a_node24"><a xlink:href="_boussinesq_buoyancy_8cpp.html" target="_top" xlink:title="BoussinesqBuoyancy.cpp">
<polygon fill="#ffffff" stroke="#000000" points="1922,-123.5 1922,-142.5 2052,-142.5 2052,-123.5 1922,-123.5"/>
<text text-anchor="middle" x="1987" y="-130.5" font-family="Helvetica,sans-Serif" font-size="10.00" fill="#000000">BoussinesqBuoyancy.cpp</text>
</a>
</g>
</g>
<!-- Node33&#45;&gt;Node101 -->
<g id="edge27" class="edge">
<title>Node33&#45;&gt;Node101</title>
<path fill="none" stroke="#191970" d="M2675.2874,-186.9645C2570.4667,-181.7615 2292.2107,-166.6916 2061,-143 2058.1628,-142.7093 2055.2667,-142.3947 2052.3428,-142.0624"/>
<polygon fill="#191970" stroke="#191970" points="2675.3045,-190.4695 2685.4645,-187.4656 2675.6488,-183.478 2675.3045,-190.4695"/>
</g>
<!-- Node102 -->
<g id="node25" class="node">
<title>Node102</title>
<g id="a_node25"><a xlink:href="_coriolis_forcing_8cpp.html" target="_top" xlink:title="CoriolisForcing.cpp">
<polygon fill="#ffffff" stroke="#000000" points="2070.5,-123.5 2070.5,-142.5 2171.5,-142.5 2171.5,-123.5 2070.5,-123.5"/>
<text text-anchor="middle" x="2121" y="-130.5" font-family="Helvetica,sans-Serif" font-size="10.00" fill="#000000">CoriolisForcing.cpp</text>
</a>
</g>
</g>
<!-- Node33&#45;&gt;Node102 -->
<g id="edge28" class="edge">
<title>Node33&#45;&gt;Node102</title>
<path fill="none" stroke="#191970" d="M2675.2369,-186.5479C2584.0006,-181.0521 2363.5995,-166.3678 2180,-143 2177.3204,-142.659 2174.5766,-142.284 2171.8091,-141.8856"/>
<polygon fill="#191970" stroke="#191970" points="2675.2656,-190.0558 2685.4563,-187.1575 2675.6825,-183.0682 2675.2656,-190.0558"/>
</g>
<!-- Node103 -->
<g id="node26" class="node">
<title>Node103</title>
<g id="a_node26"><a xlink:href="_density_buoyancy_8cpp.html" target="_top" xlink:title="DensityBuoyancy.cpp">
<polygon fill="#ffffff" stroke="#000000" points="2189.5,-123.5 2189.5,-142.5 2302.5,-142.5 2302.5,-123.5 2189.5,-123.5"/>
<text text-anchor="middle" x="2246" y="-130.5" font-family="Helvetica,sans-Serif" font-size="10.00" fill="#000000">DensityBuoyancy.cpp</text>
</a>
</g>
</g>
<!-- Node33&#45;&gt;Node103 -->
<g id="edge29" class="edge">
<title>Node33&#45;&gt;Node103</title>
<path fill="none" stroke="#191970" d="M2674.9874,-184.663C2600.803,-177.0631 2444.0438,-160.4774 2312,-143 2308.898,-142.5894 2305.7162,-142.1542 2302.5058,-141.7041"/>
<polygon fill="#191970" stroke="#191970" points="2675.0168,-188.1842 2685.3207,-185.7182 2675.728,-181.2204 2675.0168,-188.1842"/>
</g>
<!-- Node104 -->
<g id="node27" class="node">
<title>Node104</title>
<g id="a_node27"><a xlink:href="_geostrophic_forcing_8cpp.html" target="_top" xlink:title="GeostrophicForcing.cpp">
<polygon fill="#ffffff" stroke="#000000" points="2321,-123.5 2321,-142.5 2441,-142.5 2441,-123.5 2321,-123.5"/>
<text text-anchor="middle" x="2381" y="-130.5" font-family="Helvetica,sans-Serif" font-size="10.00" fill="#000000">GeostrophicForcing.cpp</text>
</a>
</g>
</g>
<!-- Node33&#45;&gt;Node104 -->
<g id="edge30" class="edge">
<title>Node33&#45;&gt;Node104</title>
<path fill="none" stroke="#191970" d="M2675.4679,-181.9323C2615.3643,-171.9448 2505.4274,-153.6764 2438.2166,-142.5078"/>
<polygon fill="#191970" stroke="#191970" points="2674.9423,-185.3929 2685.3808,-183.5796 2676.0899,-178.4876 2674.9423,-185.3929"/>
</g>
<!-- Node105 -->
<g id="node28" class="node">
<title>Node105</title>
<g id="a_node28"><a xlink:href="_p_d_e_base_8cpp.html" target="_top" xlink:title="PDEBase.cpp">
<polygon fill="#ffffff" stroke="#000000" points="2459.5,-123.5 2459.5,-142.5 2538.5,-142.5 2538.5,-123.5 2459.5,-123.5"/>
<text text-anchor="middle" x="2499" y="-130.5" font-family="Helvetica,sans-Serif" font-size="10.00" fill="#000000">PDEBase.cpp</text>
</a>
</g>
</g>
<!-- Node33&#45;&gt;Node105 -->
<g id="edge31" class="edge">
<title>Node33&#45;&gt;Node105</title>
<path fill="none" stroke="#191970" d="M2675.3988,-178.1066C2635.0291,-167.7837 2574.9902,-152.4313 2536.42,-142.5686"/>
<polygon fill="#191970" stroke="#191970" points="2674.6581,-181.5297 2685.2135,-180.6162 2676.3923,-174.7479 2674.6581,-181.5297"/>
</g>
<!-- Node106 -->
<g id="node29" class="node">
<title>Node106</title>
<g id="a_node29"><a xlink:href="_ksgs_m84_src_8cpp.html" target="_top" xlink:title="KsgsM84Src.cpp">
<polygon fill="#ffffff" stroke="#000000" points="2557,-123.5 2557,-142.5 2649,-142.5 2649,-123.5 2557,-123.5"/>
<text text-anchor="middle" x="2603" y="-130.5" font-family="Helvetica,sans-Serif" font-size="10.00" fill="#000000">KsgsM84Src.cpp</text>
</a>
</g>
</g>
<!-- Node33&#45;&gt;Node106 -->
<g id="edge32" class="edge">
<title>Node33&#45;&gt;Node106</title>
<path fill="none" stroke="#191970" d="M2689.1967,-174.9741C2668.375,-164.8348 2640.8022,-151.408 2622.5112,-142.5011"/>
<polygon fill="#191970" stroke="#191970" points="2687.7078,-178.1419 2698.2308,-179.3733 2690.7724,-171.8484 2687.7078,-178.1419"/>
</g>
<!-- Node107 -->
<g id="node30" class="node">
<title>Node107</title>
<g id="a_node30"><a xlink:href="_m_m_s_8_h.html" target="_top" xlink:title="MMS.H">
<polygon fill="#ffffff" stroke="#000000" points="2667,-123.5 2667,-142.5 2717,-142.5 2717,-123.5 2667,-123.5"/>
<text text-anchor="middle" x="2692" y="-130.5" font-family="Helvetica,sans-Serif" font-size="10.00" fill="#000000">MMS.H</text>
</a>
</g>
</g>
<!-- Node33&#45;&gt;Node107 -->
<g id="edge33" class="edge">
<title>Node33&#45;&gt;Node107</title>
<path fill="none" stroke="#191970" d="M2709.1989,-170.0437C2704.9225,-160.8331 2699.967,-150.1598 2696.477,-142.6427"/>
<polygon fill="#191970" stroke="#191970" points="2706.0854,-171.6494 2713.4711,-179.2455 2712.4345,-168.7015 2706.0854,-171.6494"/>
</g>
<!-- Node108 -->
<g id="node31" class="node">
<title>Node108</title>
<g id="a_node31"><a xlink:href="_m_m_s_8cpp.html" target="_top" xlink:title="MMS.cpp">
<polygon fill="#ffffff" stroke="#000000" points="2688.5,-62 2688.5,-81 2747.5,-81 2747.5,-62 2688.5,-62"/>
<text text-anchor="middle" x="2718" y="-69" font-family="Helvetica,sans-Serif" font-size="10.00" fill="#000000">MMS.cpp</text>
</a>
</g>
</g>
<!-- Node33&#45;&gt;Node108 -->
<g id="edge35" class="edge">
<title>Node33&#45;&gt;Node108</title>
<path fill="none" stroke="#191970" d="M2722.207,-169.2292C2723.7271,-161.1393 2725.2524,-151.6615 2726,-143 2727.9118,-120.849 2723.2973,-94.9344 2720.3079,-81.199"/>
<polygon fill="#191970" stroke="#191970" points="2718.7433,-168.7009 2720.2107,-179.1936 2725.6069,-170.076 2718.7433,-168.7009"/>
</g>
<!-- Node109 -->
<g id="node32" class="node">
<title>Node109</title>
<g id="a_node32"><a xlink:href="_m_m_s_forcing_8cpp.html" target="_top" xlink:title="MMSForcing.cpp">
<polygon fill="#ffffff" stroke="#000000" points="2773.5,-123.5 2773.5,-142.5 2864.5,-142.5 2864.5,-123.5 2773.5,-123.5"/>
<text text-anchor="middle" x="2819" y="-130.5" font-family="Helvetica,sans-Serif" font-size="10.00" fill="#000000">MMSForcing.cpp</text>
</a>
</g>
</g>
<!-- Node33&#45;&gt;Node109 -->
<g id="edge36" class="edge">
<title>Node33&#45;&gt;Node109</title>
<path fill="none" stroke="#191970" d="M2744.4719,-174.3225C2762.5125,-164.3198 2785.8877,-151.3593 2801.6087,-142.6427"/>
<polygon fill="#191970" stroke="#191970" points="2742.6413,-171.3354 2735.5929,-179.2455 2746.0357,-177.4574 2742.6413,-171.3354"/>
</g>
<!-- Node110 -->
<g id="node33" class="node">
<title>Node110</title>
<g id="a_node33"><a xlink:href="_tioga_interface_8cpp.html" target="_top" xlink:title="TiogaInterface.cpp">
<polygon fill="#ffffff" stroke="#000000" points="2883,-123.5 2883,-142.5 2981,-142.5 2981,-123.5 2883,-123.5"/>
<text text-anchor="middle" x="2932" y="-130.5" font-family="Helvetica,sans-Serif" font-size="10.00" fill="#000000">TiogaInterface.cpp</text>
</a>
</g>
</g>
<!-- Node33&#45;&gt;Node110 -->
<g id="edge37" class="edge">
<title>Node33&#45;&gt;Node110</title>
<path fill="none" stroke="#191970" d="M2760.3634,-177.9142C2799.8614,-167.5783 2858.153,-152.3244 2895.6031,-142.5244"/>
<polygon fill="#191970" stroke="#191970" points="2759.2902,-174.5772 2750.502,-180.4948 2761.0623,-181.3491 2759.2902,-174.5772"/>
</g>
<!-- Node111 -->
<g id="node34" class="node">
<title>Node111</title>
<g id="a_node34"><a xlink:href="_convecting_taylor_vortex_8_h.html" target="_top" xlink:title="ConvectingTaylorVortex.H">
<polygon fill="#ffffff" stroke="#000000" points="2999,-123.5 2999,-142.5 3131,-142.5 3131,-123.5 2999,-123.5"/>
<text text-anchor="middle" x="3065" y="-130.5" font-family="Helvetica,sans-Serif" font-size="10.00" fill="#000000">ConvectingTaylorVortex.H</text>
</a>
</g>
</g>
<!-- Node33&#45;&gt;Node111 -->
<g id="edge39" class="edge">
<title>Node33&#45;&gt;Node111</title>
<path fill="none" stroke="#191970" d="M2760.7989,-182.093C2822.4421,-172.1448 2936.4382,-153.7477 3006.0218,-142.5181"/>
<polygon fill="#191970" stroke="#191970" points="2759.9595,-178.6831 2750.6449,-183.7317 2761.0748,-185.5936 2759.9595,-178.6831"/>
</g>
<!-- Node112 -->
<g id="node35" class="node">
<title>Node112</title>
<g id="a_node35"><a xlink:href="_convecting_taylor_vortex_8cpp.html" target="_top" xlink:title="ConvectingTaylorVortex.cpp">
<polygon fill="#ffffff" stroke="#000000" points="3010,-62 3010,-81 3150,-81 3150,-62 3010,-62"/>
<text text-anchor="middle" x="3080" y="-69" font-family="Helvetica,sans-Serif" font-size="10.00" fill="#000000">ConvectingTaylorVortex.cpp</text>
</a>
</g>
</g>
<!-- Node33&#45;&gt;Node112 -->
<g id="edge41" class="edge">
<title>Node33&#45;&gt;Node112</title>
<path fill="none" stroke="#191970" d="M2761.1002,-187.4998C2863.5519,-183.4914 3114.9895,-170.8849 3140,-143 3159.3676,-121.4066 3122.3164,-95.0534 3098.2756,-81.1538"/>
<polygon fill="#191970" stroke="#191970" points="2760.6586,-184.014 2750.7996,-187.8933 2760.9259,-191.0089 2760.6586,-184.014"/>
</g>
<!-- Node113 -->
<g id="node36" class="node">
<title>Node113</title>
<g id="a_node36"><a xlink:href="_ekman_spiral_8_h.html" target="_top" xlink:title="EkmanSpiral.H">
<polygon fill="#ffffff" stroke="#000000" points="3187.5,-123.5 3187.5,-142.5 3270.5,-142.5 3270.5,-123.5 3187.5,-123.5"/>
<text text-anchor="middle" x="3229" y="-130.5" font-family="Helvetica,sans-Serif" font-size="10.00" fill="#000000">EkmanSpiral.H</text>
</a>
</g>
</g>
<!-- Node33&#45;&gt;Node113 -->
<g id="edge42" class="edge">
<title>Node33&#45;&gt;Node113</title>
<path fill="none" stroke="#191970" d="M2760.9315,-185.7537C2841.7915,-179.3969 3022.1155,-164.068 3173,-143 3177.6949,-142.3444 3182.598,-141.5832 3187.4662,-140.7788"/>
<polygon fill="#191970" stroke="#191970" points="2760.3508,-182.2882 2750.6533,-186.5553 2760.8952,-189.267 2760.3508,-182.2882"/>
</g>
<!-- Node114 -->
<g id="node37" class="node">
<title>Node114</title>
<g id="a_node37"><a xlink:href="_ekman_spiral_8cpp.html" target="_top" xlink:title="EkmanSpiral.cpp">
<polygon fill="#ffffff" stroke="#000000" points="3218.5,-62 3218.5,-81 3309.5,-81 3309.5,-62 3218.5,-62"/>
<text text-anchor="middle" x="3264" y="-69" font-family="Helvetica,sans-Serif" font-size="10.00" fill="#000000">EkmanSpiral.cpp</text>
</a>
</g>
</g>
<!-- Node33&#45;&gt;Node114 -->
<g id="edge44" class="edge">
<title>Node33&#45;&gt;Node114</title>
<path fill="none" stroke="#191970" d="M2760.9116,-187.0639C2889.2619,-181.0677 3262.437,-162.0592 3280,-143 3295.8605,-125.7882 3280.6559,-96.3814 3270.8487,-81.2015"/>
<polygon fill="#191970" stroke="#191970" points="2760.5077,-183.5787 2750.6807,-187.5384 2760.8321,-190.5712 2760.5077,-183.5787"/>
</g>
<!-- Node115 -->
<g id="node38" class="node">
<title>Node115</title>
<g id="a_node38"><a xlink:href="_free_stream_8cpp.html" target="_top" xlink:title="FreeStream.cpp">
<polygon fill="#ffffff" stroke="#000000" points="3327,-123.5 3327,-142.5 3413,-142.5 3413,-123.5 3327,-123.5"/>
<text text-anchor="middle" x="3370" y="-130.5" font-family="Helvetica,sans-Serif" font-size="10.00" fill="#000000">FreeStream.cpp</text>
</a>
</g>
</g>
<!-- Node33&#45;&gt;Node115 -->
<g id="edge45" class="edge">
<title>Node33&#45;&gt;Node115</title>
<path fill="none" stroke="#191970" d="M2760.789,-187.1115C2858.792,-182.4761 3106.955,-168.9773 3313,-143 3317.4856,-142.4345 3322.1555,-141.7588 3326.8063,-141.0291"/>
<polygon fill="#191970" stroke="#191970" points="2760.5094,-183.6206 2750.6835,-187.583 2760.8358,-190.613 2760.5094,-183.6206"/>
</g>
<!-- Node116 -->
<g id="node39" class="node">
<title>Node116</title>
<g id="a_node39"><a xlink:href="_multi_phase_8cpp.html" target="_top" xlink:title="MultiPhase.cpp">
<polygon fill="#ffffff" stroke="#000000" points="3431,-123.5 3431,-142.5 3515,-142.5 3515,-123.5 3431,-123.5"/>
<text text-anchor="middle" x="3473" y="-130.5" font-family="Helvetica,sans-Serif" font-size="10.00" fill="#000000">MultiPhase.cpp</text>
</a>
</g>
</g>
<!-- Node33&#45;&gt;Node116 -->
<g id="edge46" class="edge">
<title>Node33&#45;&gt;Node116</title>
<path fill="none" stroke="#191970" d="M2760.8289,-188.1145C2870.9619,-185.4235 3172.8492,-175.4302 3422,-143 3424.8631,-142.6273 3427.8074,-142.1916 3430.7677,-141.7143"/>
<polygon fill="#191970" stroke="#191970" points="2760.6919,-184.6166 2750.7776,-188.3526 2760.8578,-191.6147 2760.6919,-184.6166"/>
</g>
<!-- Node117 -->
<g id="node40" class="node">
<title>Node117</title>
<g id="a_node40"><a xlink:href="_vortex_patch_8cpp.html" target="_top" xlink:title="VortexPatch.cpp">
<polygon fill="#ffffff" stroke="#000000" points="3532.5,-123.5 3532.5,-142.5 3621.5,-142.5 3621.5,-123.5 3532.5,-123.5"/>
<text text-anchor="middle" x="3577" y="-130.5" font-family="Helvetica,sans-Serif" font-size="10.00" fill="#000000">VortexPatch.cpp</text>
</a>
</g>
</g>
<!-- Node33&#45;&gt;Node117 -->
<g id="edge47" class="edge">
<title>Node33&#45;&gt;Node117</title>
<path fill="none" stroke="#191970" d="M2761.0618,-188.5012C2881.8511,-186.6805 3233.9909,-178.4837 3524,-143 3526.6954,-142.6702 3529.4602,-142.2868 3532.2442,-141.8662"/>
<polygon fill="#191970" stroke="#191970" points="2760.7141,-185.0057 2750.7655,-188.6492 2760.8148,-192.005 2760.7141,-185.0057"/>
</g>
<!-- Node118 -->
<g id="node41" class="node">
<title>Node118</title>
<g id="a_node41"><a xlink:href="_zalesak_disk_8cpp.html" target="_top" xlink:title="ZalesakDisk.cpp">
<polygon fill="#ffffff" stroke="#000000" points="3640,-123.5 3640,-142.5 3730,-142.5 3730,-123.5 3640,-123.5"/>
<text text-anchor="middle" x="3685" y="-130.5" font-family="Helvetica,sans-Serif" font-size="10.00" fill="#000000">ZalesakDisk.cpp</text>
</a>
</g>
</g>
<!-- Node33&#45;&gt;Node118 -->
<g id="edge48" class="edge">
<title>Node33&#45;&gt;Node118</title>
<path fill="none" stroke="#191970" d="M2761.04,-187.5913C2917.9663,-182.3368 3459.1924,-163.146 3631,-143 3633.9356,-142.6558 3636.952,-142.2483 3639.9867,-141.7979"/>
<polygon fill="#191970" stroke="#191970" points="2760.7185,-184.1 2750.8407,-187.9313 2760.9518,-191.0961 2760.7185,-184.1"/>
</g>
<!-- Node119 -->
<g id="node42" class="node">
<title>Node119</title>
<g id="a_node42"><a xlink:href="_rayleigh_taylor_8cpp.html" target="_top" xlink:title="RayleighTaylor.cpp">
<polygon fill="#ffffff" stroke="#000000" points="3748.5,-123.5 3748.5,-142.5 3849.5,-142.5 3849.5,-123.5 3748.5,-123.5"/>
<text text-anchor="middle" x="3799" y="-130.5" font-family="Helvetica,sans-Serif" font-size="10.00" fill="#000000">RayleighTaylor.cpp</text>
</a>
</g>
</g>
<!-- Node33&#45;&gt;Node119 -->
<g id="edge49" class="edge">
<title>Node33&#45;&gt;Node119</title>
<path fill="none" stroke="#191970" d="M2760.7443,-187.7602C2928.832,-182.7785 3544.6529,-163.4987 3739,-143 3742.0456,-142.6788 3745.1712,-142.302 3748.3194,-141.8864"/>
<polygon fill="#191970" stroke="#191970" points="2760.4484,-184.2673 2750.5561,-188.0609 2760.655,-191.2643 2760.4484,-184.2673"/>
</g>
<!-- Node120 -->
<g id="node43" class="node">
<title>Node120</title>
<g id="a_node43"><a xlink:href="_taylor_green_vortex_8cpp.html" target="_top" xlink:title="TaylorGreenVortex.cpp">
<polygon fill="#ffffff" stroke="#000000" points="3867.5,-123.5 3867.5,-142.5 3984.5,-142.5 3984.5,-123.5 3867.5,-123.5"/>
<text text-anchor="middle" x="3926" y="-130.5" font-family="Helvetica,sans-Serif" font-size="10.00" fill="#000000">TaylorGreenVortex.cpp</text>
</a>
</g>
</g>
<!-- Node33&#45;&gt;Node120 -->
<g id="edge50" class="edge">
<title>Node33&#45;&gt;Node120</title>
<path fill="none" stroke="#191970" d="M2760.6555,-187.8977C2940.7391,-183.1485 3639.6003,-163.7347 3859,-143 3861.693,-142.7455 3864.4429,-142.456 3867.2177,-142.1399"/>
<polygon fill="#191970" stroke="#191970" points="2760.4236,-184.4024 2750.519,-188.1639 2760.6075,-191.4 2760.4236,-184.4024"/>
</g>
<!-- Node121 -->
<g id="node44" class="node">
<title>Node121</title>
<g id="a_node44"><a xlink:href="_turb_model_8_h.html" target="_top" xlink:title="TurbModel.H">
<polygon fill="#ffffff" stroke="#ff0000" points="4002.5,-123.5 4002.5,-142.5 4075.5,-142.5 4075.5,-123.5 4002.5,-123.5"/>
<text text-anchor="middle" x="4039" y="-130.5" font-family="Helvetica,sans-Serif" font-size="10.00" fill="#000000">TurbModel.H</text>
</a>
</g>
</g>
<!-- Node33&#45;&gt;Node121 -->
<g id="edge51" class="edge">
<title>Node33&#45;&gt;Node121</title>
<path fill="none" stroke="#191970" d="M2760.6389,-188.5095C2953.7345,-186.1276 3747.4645,-174.5676 3994,-143 3996.699,-142.6544 3999.4749,-142.2242 4002.2595,-141.738"/>
<polygon fill="#191970" stroke="#191970" points="2760.5545,-185.0102 2750.5979,-188.6317 2760.6398,-192.0096 2760.5545,-185.0102"/>
</g>
<!-- Node124 -->
<g id="node45" class="node">
<title>Node124</title>
<g id="a_node45"><a xlink:href="turbulence__utils_8_h.html" target="_top" xlink:title="turbulence_utils.H">
<polygon fill="#ffffff" stroke="#000000" points="4093.5,-123.5 4093.5,-142.5 4188.5,-142.5 4188.5,-123.5 4093.5,-123.5"/>
<text text-anchor="middle" x="4141" y="-130.5" font-family="Helvetica,sans-Serif" font-size="10.00" fill="#000000">turbulence_utils.H</text>
</a>
</g>
</g>
<!-- Node33&#45;&gt;Node124 -->
<g id="edge52" class="edge">
<title>Node33&#45;&gt;Node124</title>
<path fill="none" stroke="#191970" d="M2760.9997,-188.3824C2963.0103,-185.3539 3819.0728,-171.072 4085,-143 4087.75,-142.7097 4090.5684,-142.3633 4093.4072,-141.9765"/>
<polygon fill="#191970" stroke="#191970" points="2760.7383,-184.8858 2750.7915,-188.5342 2760.8424,-191.885 2760.7383,-184.8858"/>
</g>
<!-- Node129 -->
<g id="node46" class="node">
<title>Node129</title>
<g id="a_node46"><a xlink:href="_i_o_manager_8cpp.html" target="_top" xlink:title="IOManager.cpp">
<polygon fill="#ffffff" stroke="#000000" points="4206.5,-123.5 4206.5,-142.5 4289.5,-142.5 4289.5,-123.5 4206.5,-123.5"/>
<text text-anchor="middle" x="4248" y="-130.5" font-family="Helvetica,sans-Serif" font-size="10.00" fill="#000000">IOManager.cpp</text>
</a>
</g>
</g>
<!-- Node33&#45;&gt;Node129 -->
<g id="edge53" class="edge">
<title>Node33&#45;&gt;Node129</title>
<path fill="none" stroke="#191970" d="M2760.7657,-188.6316C2972.3651,-186.6619 3908.703,-176.1919 4198,-143 4200.7264,-142.6872 4203.5256,-142.3035 4206.3402,-141.8707"/>
<polygon fill="#191970" stroke="#191970" points="2760.6429,-185.1324 2750.6754,-188.7241 2760.7071,-192.1322 2760.6429,-185.1324"/>
</g>
<!-- Node130 -->
<g id="node47" class="node">
<title>Node130</title>
<g id="a_node47"><a xlink:href="_post_processing_8cpp.html" target="_top" xlink:title="PostProcessing.cpp">
<polygon fill="#ffffff" stroke="#000000" points="4308,-123.5 4308,-142.5 4412,-142.5 4412,-123.5 4308,-123.5"/>
<text text-anchor="middle" x="4360" y="-130.5" font-family="Helvetica,sans-Serif" font-size="10.00" fill="#000000">PostProcessing.cpp</text>
</a>
</g>
</g>
<!-- Node33&#45;&gt;Node130 -->
<g id="edge54" class="edge">
<title>Node33&#45;&gt;Node130</title>
<path fill="none" stroke="#191970" d="M2760.7919,-188.5281C2980.9856,-185.9823 3988.0472,-172.877 4299,-143 4301.8843,-142.7229 4304.8387,-142.393 4307.8163,-142.0245"/>
<polygon fill="#191970" stroke="#191970" points="2760.5723,-185.0303 2750.6131,-188.6448 2760.6525,-192.0299 2760.5723,-185.0303"/>
</g>
<!-- Node131 -->
<g id="node48" class="node">
<title>Node131</title>
<g id="a_node48"><a xlink:href="_line_sampler_8cpp.html" target="_top" xlink:title="LineSampler.cpp">
<polygon fill="#ffffff" stroke="#000000" points="4430.5,-123.5 4430.5,-142.5 4519.5,-142.5 4519.5,-123.5 4430.5,-123.5"/>
<text text-anchor="middle" x="4475" y="-130.5" font-family="Helvetica,sans-Serif" font-size="10.00" fill="#000000">LineSampler.cpp</text>
</a>
</g>
</g>
<!-- Node33&#45;&gt;Node131 -->
<g id="edge55" class="edge">
<title>Node33&#45;&gt;Node131</title>
<path fill="none" stroke="#191970" d="M2761.1054,-188.7483C2992.0474,-187.2609 4084.9515,-178.4349 4421,-143 4424.0342,-142.6801 4427.1536,-142.2839 4430.2895,-141.8354"/>
<polygon fill="#191970" stroke="#191970" points="2760.7438,-185.2504 2750.7662,-188.8136 2760.7881,-192.2502 2760.7438,-185.2504"/>
</g>
<!-- Node132 -->
<g id="node49" class="node">
<title>Node132</title>
<g id="a_node49"><a xlink:href="_probe_sampler_8cpp.html" target="_top" xlink:title="ProbeSampler.cpp">
<polygon fill="#ffffff" stroke="#000000" points="4537.5,-123.5 4537.5,-142.5 4634.5,-142.5 4634.5,-123.5 4537.5,-123.5"/>
<text text-anchor="middle" x="4586" y="-130.5" font-family="Helvetica,sans-Serif" font-size="10.00" fill="#000000">ProbeSampler.cpp</text>
</a>
</g>
</g>
<!-- Node33&#45;&gt;Node132 -->
<g id="edge56" class="edge">
<title>Node33&#45;&gt;Node132</title>
<path fill="none" stroke="#191970" d="M2760.7685,-188.7755C2999.5496,-187.3914 4169.9414,-178.8567 4529,-143 4531.6993,-142.7304 4534.4632,-142.4065 4537.2481,-142.0427"/>
<polygon fill="#191970" stroke="#191970" points="2760.7224,-185.2756 2750.7425,-188.8326 2760.7623,-192.2755 2760.7224,-185.2756"/>
</g>
<!-- Node133 -->
<g id="node50" class="node">
<title>Node133</title>
<g id="a_node50"><a xlink:href="_sampling_8_h.html" target="_top" xlink:title="Sampling.H">
<polygon fill="#ffffff" stroke="#ff0000" points="4653,-123.5 4653,-142.5 4721,-142.5 4721,-123.5 4653,-123.5"/>
<text text-anchor="middle" x="4687" y="-130.5" font-family="Helvetica,sans-Serif" font-size="10.00" fill="#000000">Sampling.H</text>
</a>
</g>
</g>
<!-- Node33&#45;&gt;Node133 -->
<g id="edge57" class="edge">
<title>Node33&#45;&gt;Node133</title>
<path fill="none" stroke="#191970" d="M2760.8725,-188.5027C3027.3186,-185.3419 4451.6311,-167.4043 4644,-143 4646.8893,-142.6335 4649.8684,-142.1554 4652.8468,-141.607"/>
<polygon fill="#191970" stroke="#191970" points="2760.7772,-185.0034 2750.8193,-188.6214 2760.86,-192.0029 2760.7772,-185.0034"/>
</g>
<!-- Node35 -->
<g id="node3" class="node">
<title>Node35</title>
<g id="a_node3"><a xlink:href="incflo__set__velocity__bcs_8cpp.html" target="_top" xlink:title="incflo_set_velocity\l_bcs.cpp">
<polygon fill="#ffffff" stroke="#000000" points="0,-56.5 0,-86.5 98,-86.5 98,-56.5 0,-56.5"/>
<text text-anchor="start" x="8" y="-74.5" font-family="Helvetica,sans-Serif" font-size="10.00" fill="#000000">incflo_set_velocity</text>
<text text-anchor="middle" x="49" y="-63.5" font-family="Helvetica,sans-Serif" font-size="10.00" fill="#000000">_bcs.cpp</text>
</a>
</g>
</g>
<!-- Node34&#45;&gt;Node35 -->
<g id="edge2" class="edge">
<title>Node34&#45;&gt;Node35</title>
<path fill="none" stroke="#191970" d="M470.5529,-130.6634C400.5724,-125.6658 239.9198,-112.2821 107,-87 104.133,-86.4547 101.1993,-85.8432 98.2478,-85.1866"/>
<polygon fill="#191970" stroke="#191970" points="470.3771,-134.1596 480.5973,-131.3672 470.8665,-127.1767 470.3771,-134.1596"/>
</g>
<!-- Node36 -->
<g id="node4" class="node">
<title>Node36</title>
<g id="a_node4"><a xlink:href="derive_8cpp.html" target="_top" xlink:title="derive.cpp">
<polygon fill="#ffffff" stroke="#000000" points="116,-62 116,-81 178,-81 178,-62 116,-62"/>
<text text-anchor="middle" x="147" y="-69" font-family="Helvetica,sans-Serif" font-size="10.00" fill="#000000">derive.cpp</text>
</a>
</g>
</g>
<!-- Node34&#45;&gt;Node36 -->
<g id="edge3" class="edge">
<title>Node34&#45;&gt;Node36</title>
<path fill="none" stroke="#191970" d="M470.8233,-130.5441C411.49,-125.8236 288.0972,-113.51 187,-87 181.0927,-85.451 174.8658,-83.304 169.13,-81.101"/>
<polygon fill="#191970" stroke="#191970" points="470.5596,-134.0341 480.7992,-131.3137 471.0981,-127.0548 470.5596,-134.0341"/>
</g>
<!-- Node37 -->
<g id="node5" class="node">
<title>Node37</title>
<g id="a_node5"><a xlink:href="incflo__diffusion_8cpp.html" target="_top" xlink:title="incflo_diffusion.cpp">
<polygon fill="#ffffff" stroke="#000000" points="196.5,-62 196.5,-81 297.5,-81 297.5,-62 196.5,-62"/>
<text text-anchor="middle" x="247" y="-69" font-family="Helvetica,sans-Serif" font-size="10.00" fill="#000000">incflo_diffusion.cpp</text>
</a>
</g>
</g>
<!-- Node34&#45;&gt;Node37 -->
<g id="edge4" class="edge">
<title>Node34&#45;&gt;Node37</title>
<path fill="none" stroke="#191970" d="M471.2127,-125.3404C431.2535,-116.463 363.7618,-101.2264 306,-87 298.3903,-85.1258 290.2501,-83.04 282.522,-81.0215"/>
<polygon fill="#191970" stroke="#191970" points="470.4769,-128.7622 480.9974,-127.5093 471.9919,-121.9281 470.4769,-128.7622"/>
</g>
<!-- Node38 -->
<g id="node6" class="node">
<title>Node38</title>
<g id="a_node6"><a xlink:href="incflo_8cpp.html" target="_top" xlink:title="incflo.cpp">
<polygon fill="#ffffff" stroke="#000000" points="315.5,-62 315.5,-81 374.5,-81 374.5,-62 315.5,-62"/>
<text text-anchor="middle" x="345" y="-69" font-family="Helvetica,sans-Serif" font-size="10.00" fill="#000000">incflo.cpp</text>
</a>
</g>
</g>
<!-- Node34&#45;&gt;Node38 -->
<g id="edge5" class="edge">
<title>Node34&#45;&gt;Node38</title>
<path fill="none" stroke="#191970" d="M471.3001,-120.3323C446.6037,-111.2411 412.6743,-98.5979 383,-87 378.222,-85.1326 373.1258,-83.0895 368.2683,-81.1173"/>
<polygon fill="#191970" stroke="#191970" points="470.3533,-123.7131 480.9469,-123.8757 472.7669,-117.1424 470.3533,-123.7131"/>
</g>
<!-- Node39 -->
<g id="node7" class="node">
<title>Node39</title>
<g id="a_node7"><a xlink:href="incflo__advance_8cpp.html" target="_top" xlink:title="incflo_advance.cpp">
<polygon fill="#ffffff" stroke="#000000" points="392.5,-62 392.5,-81 493.5,-81 493.5,-62 392.5,-62"/>
<text text-anchor="middle" x="443" y="-69" font-family="Helvetica,sans-Serif" font-size="10.00" fill="#000000">incflo_advance.cpp</text>
</a>
</g>
</g>
<!-- Node34&#45;&gt;Node39 -->
<g id="edge6" class="edge">
<title>Node34&#45;&gt;Node39</title>
<path fill="none" stroke="#191970" d="M488.8162,-116.2253C477.32,-105.0028 462.5923,-90.6258 452.9825,-81.2449"/>
<polygon fill="#191970" stroke="#191970" points="486.5556,-118.9097 496.1563,-123.3906 491.4454,-113.9007 486.5556,-118.9097"/>
</g>
<!-- Node40 -->
<g id="node8" class="node">
<title>Node40</title>
<g id="a_node8"><a xlink:href="incflo__compute__dt_8cpp.html" target="_top" xlink:title="incflo_compute_dt.cpp">
<polygon fill="#ffffff" stroke="#000000" points="511.5,-62 511.5,-81 626.5,-81 626.5,-62 511.5,-62"/>
<text text-anchor="middle" x="569" y="-69" font-family="Helvetica,sans-Serif" font-size="10.00" fill="#000000">incflo_compute_dt.cpp</text>
</a>
</g>
</g>
<!-- Node34&#45;&gt;Node40 -->
<g id="edge7" class="edge">
<title>Node34&#45;&gt;Node40</title>
<path fill="none" stroke="#191970" d="M523.1838,-116.2253C534.68,-105.0028 549.4077,-90.6258 559.0175,-81.2449"/>
<polygon fill="#191970" stroke="#191970" points="520.5546,-113.9007 515.8438,-123.3906 525.4444,-118.9097 520.5546,-113.9007"/>
</g>
<!-- Node41 -->
<g id="node9" class="node">
<title>Node41</title>
<g id="a_node9"><a xlink:href="incflo__regrid_8cpp.html" target="_top" xlink:title="incflo_regrid.cpp">
<polygon fill="#ffffff" stroke="#000000" points="645,-62 645,-81 733,-81 733,-62 645,-62"/>
<text text-anchor="middle" x="689" y="-69" font-family="Helvetica,sans-Serif" font-size="10.00" fill="#000000">incflo_regrid.cpp</text>
</a>
</g>
</g>
<!-- Node34&#45;&gt;Node41 -->
<g id="edge8" class="edge">
<title>Node34&#45;&gt;Node41</title>
<path fill="none" stroke="#191970" d="M540.7916,-121.3077C575.5524,-109.6258 628.3397,-91.8858 660.6399,-81.0308"/>
<polygon fill="#191970" stroke="#191970" points="539.4257,-118.0743 531.0617,-124.5776 541.6557,-124.7097 539.4257,-118.0743"/>
</g>
<!-- Node42 -->
<g id="node10" class="node">
<title>Node42</title>
<g id="a_node10"><a xlink:href="incflo__tagging_8cpp.html" target="_top" xlink:title="incflo_tagging.cpp">
<polygon fill="#ffffff" stroke="#000000" points="751.5,-62 751.5,-81 846.5,-81 846.5,-62 751.5,-62"/>
<text text-anchor="middle" x="799" y="-69" font-family="Helvetica,sans-Serif" font-size="10.00" fill="#000000">incflo_tagging.cpp</text>
</a>
</g>
</g>
<!-- Node34&#45;&gt;Node42 -->
<g id="edge9" class="edge">
<title>Node34&#45;&gt;Node42</title>
<path fill="none" stroke="#191970" d="M541.3959,-126.9328C587.7058,-118.805 671.2832,-103.4837 742,-87 749.6903,-85.2074 757.9112,-83.0909 765.6477,-81.0075"/>
<polygon fill="#191970" stroke="#191970" points="540.5257,-123.5317 531.2761,-128.6984 541.7288,-130.4276 540.5257,-123.5317"/>
</g>
<!-- Node43 -->
<g id="node11" class="node">
<title>Node43</title>
<g id="a_node11"><a xlink:href="main_8cpp.html" target="_top" xlink:title="main.cpp">
<polygon fill="#ffffff" stroke="#000000" points="865,-62 865,-81 921,-81 921,-62 865,-62"/>
<text text-anchor="middle" x="893" y="-69" font-family="Helvetica,sans-Serif" font-size="10.00" fill="#000000">main.cpp</text>
</a>
</g>
</g>
<!-- Node34&#45;&gt;Node43 -->
<g id="edge10" class="edge">
<title>Node34&#45;&gt;Node43</title>
<path fill="none" stroke="#191970" d="M541.7179,-131.311C605.5572,-127.6294 743.0354,-116.6857 855,-87 860.7851,-85.4662 866.865,-83.2701 872.4234,-81.0115"/>
<polygon fill="#191970" stroke="#191970" points="541.1894,-127.8347 531.3969,-131.8792 541.5743,-134.8241 541.1894,-127.8347"/>
</g>
<!-- Node54&#45;&gt;Node59 -->
<g id="edge12" class="edge">
<title>Node54&#45;&gt;Node59</title>
<path fill="none" stroke="#191970" d="M1058.381,-55.6491C1043.5164,-44.222 1023.943,-29.1749 1011.4122,-19.5419"/>
<polygon fill="#191970" stroke="#191970" points="1056.4387,-58.5707 1066.5,-61.8906 1060.7051,-53.021 1056.4387,-58.5707"/>
</g>
<!-- Node54&#45;&gt;Node61 -->
<g id="edge13" class="edge">
<title>Node54&#45;&gt;Node61</title>
<path fill="none" stroke="#191970" d="M1094.292,-54.4007C1104.285,-43.2268 1116.9763,-29.0356 1125.2851,-19.7449"/>
<polygon fill="#191970" stroke="#191970" points="1091.6511,-52.1034 1087.5938,-61.8906 1096.8689,-56.7698 1091.6511,-52.1034"/>
</g>
<!-- Node62&#45;&gt;Node54 -->
<g id="edge15" class="edge">
<title>Node62&#45;&gt;Node54</title>
<path fill="none" stroke="#191970" d="M1047.7017,-115.2465C1055.621,-104.1775 1065.5101,-90.3552 1072.0281,-81.2449"/>
<polygon fill="#191970" stroke="#191970" points="1044.8472,-113.2212 1041.875,-123.3906 1050.5402,-117.2943 1044.8472,-113.2212"/>
</g>
<!-- Node62&#45;&gt;Node59 -->
<g id="edge16" class="edge">
<title>Node62&#45;&gt;Node59</title>
<path fill="none" stroke="#191970" d="M1027.375,-113.8462C1024.2548,-105.6494 1020.7416,-95.9273 1018,-87 1010.6433,-63.0446 1004.1437,-34.2325 1001.0008,-19.5772"/>
<polygon fill="#191970" stroke="#191970" points="1024.1415,-115.1883 1031.0295,-123.2386 1030.6651,-112.65 1024.1415,-115.1883"/>
</g>
<!-- Node68&#45;&gt;Node69 -->
<g id="edge18" class="edge">
<title>Node68&#45;&gt;Node69</title>
<path fill="none" stroke="#191970" d="M1255.7017,-115.2465C1263.621,-104.1775 1273.5101,-90.3552 1280.0281,-81.2449"/>
<polygon fill="#191970" stroke="#191970" points="1252.8472,-113.2212 1249.875,-123.3906 1258.5402,-117.2943 1252.8472,-113.2212"/>
</g>
<!-- Node73&#45;&gt;Node87 -->
<g id="edge22" class="edge">
<title>Node73&#45;&gt;Node87</title>
<path fill="none" stroke="#191970" d="M1489.4497,-114.253C1494.9402,-103.3606 1501.6321,-90.0846 1506.088,-81.2449"/>
<polygon fill="#191970" stroke="#191970" points="1486.2196,-112.8855 1484.8438,-123.3906 1492.4704,-116.0363 1486.2196,-112.8855"/>
</g>
<!-- Node107&#45;&gt;Node108 -->
<g id="edge34" class="edge">
<title>Node107&#45;&gt;Node108</title>
<path fill="none" stroke="#191970" d="M2700.0668,-113.9189C2704.6448,-103.0901 2710.1812,-89.9944 2713.8802,-81.2449"/>
<polygon fill="#191970" stroke="#191970" points="2696.7328,-112.817 2696.0625,-123.3906 2703.1803,-115.5428 2696.7328,-112.817"/>
</g>
<!-- Node111&#45;&gt;Node112 -->
<g id="edge40" class="edge">
<title>Node111&#45;&gt;Node112</title>
<path fill="none" stroke="#191970" d="M3069.7358,-113.5832C3072.3608,-102.8205 3075.5112,-89.9042 3077.6232,-81.2449"/>
<polygon fill="#191970" stroke="#191970" points="3066.3131,-112.846 3067.3438,-123.3906 3073.1137,-114.5048 3066.3131,-112.846"/>
</g>
<!-- Node113&#45;&gt;Node114 -->
<g id="edge43" class="edge">
<title>Node113&#45;&gt;Node114</title>
<path fill="none" stroke="#191970" d="M3239.4797,-114.5857C3245.7135,-103.632 3253.3721,-90.1748 3258.4541,-81.2449"/>
<polygon fill="#191970" stroke="#191970" points="3236.3731,-112.9683 3234.4688,-123.3906 3242.4569,-116.4307 3236.3731,-112.9683"/>
</g>
</g>
</svg>
        <g id="navigator" transform="translate(0 0)" fill="#404254">
                <rect fill="#f2f5e9" fill-opacity="0.5" stroke="#606060" stroke-width=".5" x="0" y="0" width="60" height="60"/>
                <use id="zoomplus" xlink:href="#zoomPlus" x="17" y="9" onmousedown="handleZoom(evt,'in')"/>
                <use id="zoomminus" xlink:href="#zoomMin" x="42" y="9" onmousedown="handleZoom(evt,'out')"/>
                <use id="reset" xlink:href="#resetDef" x="30" y="36" onmousedown="handleReset()"/>
                <g id="arrowUp" xlink:href="#dirArrow" transform="translate(30 24)" onmousedown="handlePan(0,-1)">
                  <use xlink:href="#rim" fill="#404040">
                        <set attributeName="fill" to="#808080" begin="arrowUp.mouseover" end="arrowUp.mouseout"/>
                  </use>
                  <path fill="none" stroke="white" stroke-width="1.5" d="M0,-3.0v7 M-2.5,-0.5L0,-3.0L2.5,-0.5"/>
                </g>
                <g id="arrowRight" xlink:href="#dirArrow" transform="rotate(90) translate(36 -43)" onmousedown="handlePan(1,0)">
                  <use xlink:href="#rim" fill="#404040">
                        <set attributeName="fill" to="#808080" begin="arrowRight.mouseover" end="arrowRight.mouseout"/>
                  </use>
                  <path fill="none" stroke="white" stroke-width="1.5" d="M0,-3.0v7 M-2.5,-0.5L0,-3.0L2.5,-0.5"/>
                </g>
                <g id="arrowDown" xlink:href="#dirArrow" transform="rotate(180) translate(-30 -48)" onmousedown="handlePan(0,1)">
                  <use xlink:href="#rim" fill="#404040">
                        <set attributeName="fill" to="#808080" begin="arrowDown.mouseover" end="arrowDown.mouseout"/>
                  </use>
                  <path fill="none" stroke="white" stroke-width="1.5" d="M0,-3.0v7 M-2.5,-0.5L0,-3.0L2.5,-0.5"/>
                </g>
                <g id="arrowLeft" xlink:href="#dirArrow" transform="rotate(270) translate(-36 17)" onmousedown="handlePan(-1,0)">
                  <use xlink:href="#rim" fill="#404040">
                        <set attributeName="fill" to="#808080" begin="arrowLeft.mouseover" end="arrowLeft.mouseout"/>
                  </use>
                  <path fill="none" stroke="white" stroke-width="1.5" d="M0,-3.0v7 M-2.5,-0.5L0,-3.0L2.5,-0.5"/>
                </g>
        </g>
        <svg viewBox="0 0 15 15" width="100%" height="30px" preserveAspectRatio="xMaxYMin meet">
         <g id="arrow_out" transform="scale(0.3 0.3)">
          <a xlink:href="_c_f_d_sim_8_h__dep__incl_org.svg" target="_base">
           <rect id="button" ry="5" rx="5" y="6" x="6" height="38" width="38"
                fill="#f2f5e9" fill-opacity="0.5" stroke="#606060" stroke-width="1.0"/>
           <path id="arrow"
             d="M 11.500037,31.436501 C 11.940474,20.09759 22.043105,11.32322 32.158766,21.979434 L 37.068811,17.246167 C 37.068811,17.246167 37.088388,32 37.088388,32 L 22.160133,31.978069 C 22.160133,31.978069 26.997745,27.140456 26.997745,27.140456 C 18.528582,18.264221 13.291696,25.230495 11.500037,31.436501 z"
             style="fill:#404040;"/>
          </a>
         </g>
        </svg>
</svg>
