<?xml version="1.0" encoding="UTF-8" standalone="no"?>
<!DOCTYPE svg PUBLIC "-//W3C//DTD SVG 1.1//EN"
 "http://www.w3.org/Graphics/SVG/1.1/DTD/svg11.dtd">
<!-- Generated by graphviz version 2.40.1 (20161225.0304)
 -->
<!-- Title: CollMgr.H Pages: 1 -->
<svg width="334pt" height="84pt"
 viewBox="0.00 0.00 334.00 84.00" xmlns="http://www.w3.org/2000/svg" xmlns:xlink="http://www.w3.org/1999/xlink">
<g id="graph0" class="graph" transform="scale(1 1) rotate(0) translate(4 80)">
<title>CollMgr.H</title>
<polygon fill="#ffffff" stroke="transparent" points="-4,4 -4,-80 330,-80 330,4 -4,4"/>
<!-- Node0 -->
<g id="node1" class="node">
<title>Node0</title>
<polygon fill="#bfbfbf" stroke="#000000" points="98,-56.5 98,-75.5 159,-75.5 159,-56.5 98,-56.5"/>
<text text-anchor="middle" x="128.5" y="-63.5" font-family="Helvetica,sans-Serif" font-size="10.00" fill="#000000">CollMgr.H</text>
</g>
<!-- Node1 -->
<g id="node2" class="node">
<title>Node1</title>
<polygon fill="#ffffff" stroke="#bfbfbf" points="0,-.5 0,-19.5 41,-19.5 41,-.5 0,-.5"/>
<text text-anchor="middle" x="20.5" y="-7.5" font-family="Helvetica,sans-Serif" font-size="10.00" fill="#000000">string</text>
</g>
<!-- Node0&#45;&gt;Node1 -->
<g id="edge1" class="edge">
<title>Node0&#45;&gt;Node1</title>
<path fill="none" stroke="#191970" d="M109.6878,-56.2455C92.6527,-47.4125 67.3425,-34.2887 48.0319,-24.2758"/>
<polygon fill="#191970" stroke="#191970" points="49.5853,-21.1388 39.0966,-19.6427 46.363,-27.353 49.5853,-21.1388"/>
</g>
<!-- Node2 -->
<g id="node3" class="node">
<title>Node2</title>
<polygon fill="#ffffff" stroke="#bfbfbf" points="59.5,-.5 59.5,-19.5 111.5,-19.5 111.5,-.5 59.5,-.5"/>
<text text-anchor="middle" x="85.5" y="-7.5" font-family="Helvetica,sans-Serif" font-size="10.00" fill="#000000">memory</text>
</g>
<!-- Node0&#45;&gt;Node2 -->
<g id="edge2" class="edge">
<title>Node0&#45;&gt;Node2</title>
<path fill="none" stroke="#191970" d="M121.01,-56.2455C114.9674,-48.3761 106.3097,-37.101 99.0559,-27.6542"/>
<polygon fill="#191970" stroke="#191970" points="101.7705,-25.4426 92.9042,-19.6427 96.2185,-29.7058 101.7705,-25.4426"/>
</g>
<!-- Node3 -->
<g id="node4" class="node">
<title>Node3</title>
<polygon fill="#ffffff" stroke="#bfbfbf" points="130,-.5 130,-19.5 213,-19.5 213,-.5 130,-.5"/>
<text text-anchor="middle" x="171.5" y="-7.5" font-family="Helvetica,sans-Serif" font-size="10.00" fill="#000000">unordered_map</text>
</g>
<!-- Node0&#45;&gt;Node3 -->
<g id="edge3" class="edge">
<title>Node0&#45;&gt;Node3</title>
<path fill="none" stroke="#191970" d="M135.99,-56.2455C142.0326,-48.3761 150.6903,-37.101 157.9441,-27.6542"/>
<polygon fill="#191970" stroke="#191970" points="160.7815,-29.7058 164.0958,-19.6427 155.2295,-25.4426 160.7815,-29.7058"/>
</g>
<!-- Node4 -->
<g id="node5" class="node">
<title>Node4</title>
<polygon fill="#ffffff" stroke="#bfbfbf" points="231,-.5 231,-19.5 326,-19.5 326,-.5 231,-.5"/>
<text text-anchor="middle" x="278.5" y="-7.5" font-family="Helvetica,sans-Serif" font-size="10.00" fill="#000000">AMReX_Vector.H</text>
</g>
<!-- Node0&#45;&gt;Node4 -->
<g id="edge4" class="edge">
<title>Node0&#45;&gt;Node4</title>
<path fill="none" stroke="#191970" d="M154.2859,-56.3733C178.9047,-47.1822 216.19,-33.2624 243.4875,-23.0713"/>
<polygon fill="#191970" stroke="#191970" points="244.9063,-26.2777 253.0506,-19.5011 242.458,-19.7198 244.9063,-26.2777"/>
</g>
</g>
</svg>
