<?xml version="1.0" encoding="UTF-8" standalone="no"?>
<!DOCTYPE svg PUBLIC "-//W3C//DTD SVG 1.1//EN"
 "http://www.w3.org/Graphics/SVG/1.1/DTD/svg11.dtd">
<!-- Generated by graphviz version 2.40.1 (20161225.0304)
 -->
<!-- Title: ConstTransport.H Pages: 1 -->
<!--zoomable 263 -->
<svg id="main" version="1.1" xmlns="http://www.w3.org/2000/svg" xmlns:xlink="http://www.w3.org/1999/xlink" xml:space="preserve" onload="init(evt)">
<style type="text/css"><![CDATA[
.edge:hover path { stroke: red; }
.edge:hover polygon { stroke: red; fill: red; }
]]></style>
<script type="text/javascript"><![CDATA[
var edges = document.getElementsByTagName('g');
if (edges && edges.length) {
  for (var i=0;i<edges.length;i++) {
    if (edges[i].id.substr(0,4)=='edge') {
      edges[i].setAttribute('class','edge');
    }
  }
}
]]></script>
        <defs>
                <circle id="rim" cx="0" cy="0" r="7"/>
                <circle id="rim2" cx="0" cy="0" r="3.5"/>
                <g id="zoomPlus">
                        <use xlink:href="#rim" fill="#404040">
                                <set attributeName="fill" to="#808080" begin="zoomplus.mouseover" end="zoomplus.mouseout"/>
                        </use>
                        <path d="M-4,0h8M0,-4v8" fill="none" stroke="white" stroke-width="1.5" pointer-events="none"/>
                </g>
                <g id="zoomMin">
                        <use xlink:href="#rim" fill="#404040">
                                <set attributeName="fill" to="#808080" begin="zoomminus.mouseover" end="zoomminus.mouseout"/>
                        </use>
                        <path d="M-4,0h8" fill="none" stroke="white" stroke-width="1.5" pointer-events="none"/>
                </g>
                <g id="dirArrow">
                        <path fill="none" stroke="white" stroke-width="1.5" d="M0,-3.0v7 M-2.5,-0.5L0,-3.0L2.5,-0.5"/>
                </g>
               <g id="resetDef">
                       <use xlink:href="#rim2" fill="#404040">
                               <set attributeName="fill" to="#808080" begin="reset.mouseover" end="reset.mouseout"/>
                       </use>
               </g>
        </defs>

<script type="text/javascript">
var viewWidth = 1668;
var viewHeight = 263;
var sectionId = 'dynsection-0';
</script>
<script xlink:href="svgpan.js"/>
<svg id="graph" class="graph">
<g id="viewport">
<title>ConstTransport.H</title>
<polygon fill="#ffffff" stroke="transparent" points="-4,4 -4,-259 1664,-259 1664,4 -4,4"/>
<!-- Node0 -->
<g id="node1" class="node">
<title>Node0</title>
<polygon fill="#bfbfbf" stroke="#000000" points="644.5,-235.5 644.5,-254.5 739.5,-254.5 739.5,-235.5 644.5,-235.5"/>
<text text-anchor="middle" x="692" y="-242.5" font-family="Helvetica,sans-Serif" font-size="10.00" fill="#000000">ConstTransport.H</text>
</g>
<!-- Node1 -->
<g id="node2" class="node">
<title>Node1</title>
<g id="a_node2"><a xlink:href="_transport_model_8_h.html" target="_top" xlink:title="amr&#45;wind/transport\l_models/TransportModel.H">
<polygon fill="#ffffff" stroke="#000000" points="554,-168.5 554,-198.5 688,-198.5 688,-168.5 554,-168.5"/>
<text text-anchor="start" x="562" y="-186.5" font-family="Helvetica,sans-Serif" font-size="10.00" fill="#000000">amr&#45;wind/transport</text>
<text text-anchor="middle" x="621" y="-175.5" font-family="Helvetica,sans-Serif" font-size="10.00" fill="#000000">_models/TransportModel.H</text>
</a>
</g>
</g>
<!-- Node0&#45;&gt;Node1 -->
<g id="edge1" class="edge">
<title>Node0&#45;&gt;Node1</title>
<path fill="none" stroke="#191970" d="M680.9063,-235.3906C671.6532,-227.3756 658.1124,-215.6466 646.2444,-205.3666"/>
<polygon fill="#191970" stroke="#191970" points="648.2188,-202.4464 638.3686,-198.5446 643.6357,-207.7374 648.2188,-202.4464"/>
</g>
<!-- Node24 -->
<g id="node25" class="node">
<title>Node24</title>
<polygon fill="#ffffff" stroke="#bfbfbf" points="706,-174 706,-193 822,-193 822,-174 706,-174"/>
<text text-anchor="middle" x="764" y="-181" font-family="Helvetica,sans-Serif" font-size="10.00" fill="#000000">AMReX_ParmParse.H</text>
</g>
<!-- Node0&#45;&gt;Node24 -->
<g id="edge38" class="edge">
<title>Node0&#45;&gt;Node24</title>
<path fill="none" stroke="#191970" d="M703.25,-235.3906C714.386,-225.8786 731.646,-211.1357 744.9268,-199.7917"/>
<polygon fill="#191970" stroke="#191970" points="747.2608,-202.4011 752.5914,-193.2449 742.7144,-197.0784 747.2608,-202.4011"/>
</g>
<!-- Node2 -->
<g id="node3" class="node">
<title>Node2</title>
<g id="a_node3"><a xlink:href="_factory_8_h.html" target="_top" xlink:title="amr&#45;wind/core/Factory.H">
<polygon fill="#ffffff" stroke="#000000" points="177.5,-56.5 177.5,-75.5 302.5,-75.5 302.5,-56.5 177.5,-56.5"/>
<text text-anchor="middle" x="240" y="-63.5" font-family="Helvetica,sans-Serif" font-size="10.00" fill="#000000">amr&#45;wind/core/Factory.H</text>
</a>
</g>
</g>
<!-- Node1&#45;&gt;Node2 -->
<g id="edge2" class="edge">
<title>Node1&#45;&gt;Node2</title>
<path fill="none" stroke="#191970" d="M572.3591,-168.4992C496.641,-145.1478 351.9424,-100.5229 281.1139,-78.6795"/>
<polygon fill="#191970" stroke="#191970" points="281.8041,-75.2297 271.2167,-75.6272 279.7412,-81.9189 281.8041,-75.2297"/>
</g>
<!-- Node8 -->
<g id="node9" class="node">
<title>Node8</title>
<g id="a_node9"><a xlink:href="_field_repo_8_h.html" target="_top" xlink:title="amr&#45;wind/core/FieldRepo.H">
<polygon fill="#ffffff" stroke="#000000" points="890,-112.5 890,-131.5 1026,-131.5 1026,-112.5 890,-112.5"/>
<text text-anchor="middle" x="958" y="-119.5" font-family="Helvetica,sans-Serif" font-size="10.00" fill="#000000">amr&#45;wind/core/FieldRepo.H</text>
</a>
</g>
</g>
<!-- Node1&#45;&gt;Node8 -->
<g id="edge8" class="edge">
<title>Node1&#45;&gt;Node8</title>
<path fill="none" stroke="#191970" d="M688.1175,-169.7103C691.1181,-169.1257 694.0896,-168.5532 697,-168 763.0329,-155.4497 838.6939,-142.2437 891.492,-133.2172"/>
<polygon fill="#191970" stroke="#191970" points="892.138,-136.6576 901.4067,-131.5253 890.9605,-129.7574 892.138,-136.6576"/>
</g>
<!-- Node3 -->
<g id="node4" class="node">
<title>Node3</title>
<polygon fill="#ffffff" stroke="#bfbfbf" points="258,-.5 258,-19.5 310,-19.5 310,-.5 258,-.5"/>
<text text-anchor="middle" x="284" y="-7.5" font-family="Helvetica,sans-Serif" font-size="10.00" fill="#000000">memory</text>
</g>
<!-- Node2&#45;&gt;Node3 -->
<g id="edge3" class="edge">
<title>Node2&#45;&gt;Node3</title>
<path fill="none" stroke="#191970" d="M247.6642,-56.2455C253.8473,-48.3761 262.7063,-37.101 270.1289,-27.6542"/>
<polygon fill="#191970" stroke="#191970" points="272.9975,-29.6683 276.4236,-19.6427 267.4932,-25.3435 272.9975,-29.6683"/>
</g>
<!-- Node4 -->
<g id="node5" class="node">
<title>Node4</title>
<polygon fill="#ffffff" stroke="#bfbfbf" points="328.5,-.5 328.5,-19.5 411.5,-19.5 411.5,-.5 328.5,-.5"/>
<text text-anchor="middle" x="370" y="-7.5" font-family="Helvetica,sans-Serif" font-size="10.00" fill="#000000">unordered_map</text>
</g>
<!-- Node2&#45;&gt;Node4 -->
<g id="edge4" class="edge">
<title>Node2&#45;&gt;Node4</title>
<path fill="none" stroke="#191970" d="M262.3478,-56.3733C283.4033,-47.3032 315.1495,-33.6279 338.7175,-23.4755"/>
<polygon fill="#191970" stroke="#191970" points="340.1444,-26.6719 347.9438,-19.5011 337.375,-20.243 340.1444,-26.6719"/>
</g>
<!-- Node5 -->
<g id="node6" class="node">
<title>Node5</title>
<polygon fill="#ffffff" stroke="#bfbfbf" points="80,-.5 80,-19.5 134,-19.5 134,-.5 80,-.5"/>
<text text-anchor="middle" x="107" y="-7.5" font-family="Helvetica,sans-Serif" font-size="10.00" fill="#000000">iostream</text>
</g>
<!-- Node2&#45;&gt;Node5 -->
<g id="edge5" class="edge">
<title>Node2&#45;&gt;Node5</title>
<path fill="none" stroke="#191970" d="M217.1365,-56.3733C195.595,-47.3032 163.1162,-33.6279 139.0044,-23.4755"/>
<polygon fill="#191970" stroke="#191970" points="140.1397,-20.156 129.5652,-19.5011 137.4233,-26.6075 140.1397,-20.156"/>
</g>
<!-- Node6 -->
<g id="node7" class="node">
<title>Node6</title>
<polygon fill="#ffffff" stroke="#bfbfbf" points="152.5,-.5 152.5,-19.5 239.5,-19.5 239.5,-.5 152.5,-.5"/>
<text text-anchor="middle" x="196" y="-7.5" font-family="Helvetica,sans-Serif" font-size="10.00" fill="#000000">AMReX_Print.H</text>
</g>
<!-- Node2&#45;&gt;Node6 -->
<g id="edge6" class="edge">
<title>Node2&#45;&gt;Node6</title>
<path fill="none" stroke="#191970" d="M232.3358,-56.2455C226.1527,-48.3761 217.2937,-37.101 209.8711,-27.6542"/>
<polygon fill="#191970" stroke="#191970" points="212.5068,-25.3435 203.5764,-19.6427 207.0025,-29.6683 212.5068,-25.3435"/>
</g>
<!-- Node7 -->
<g id="node8" class="node">
<title>Node7</title>
<polygon fill="#ffffff" stroke="#bfbfbf" points="0,-.5 0,-19.5 62,-19.5 62,-.5 0,-.5"/>
<text text-anchor="middle" x="31" y="-7.5" font-family="Helvetica,sans-Serif" font-size="10.00" fill="#000000">AMReX.H</text>
</g>
<!-- Node2&#45;&gt;Node7 -->
<g id="edge7" class="edge">
<title>Node2&#45;&gt;Node7</title>
<path fill="none" stroke="#191970" d="M204.0716,-56.3733C167.3235,-46.5269 110.3201,-31.2532 71.8717,-20.9513"/>
<polygon fill="#191970" stroke="#191970" points="72.6016,-17.5234 62.0364,-18.316 70.7899,-24.2849 72.6016,-17.5234"/>
</g>
<!-- Node8&#45;&gt;Node4 -->
<g id="edge10" class="edge">
<title>Node8&#45;&gt;Node4</title>
<path fill="none" stroke="#191970" d="M889.794,-114.8085C822.606,-107.1876 717.2198,-93.7942 627,-76 550.4692,-60.9057 462.7373,-36.9029 412.1071,-22.3812"/>
<polygon fill="#191970" stroke="#191970" points="412.7651,-18.9284 402.1869,-19.5208 410.8257,-25.6544 412.7651,-18.9284"/>
</g>
<!-- Node9 -->
<g id="node10" class="node">
<title>Node9</title>
<polygon fill="#ffffff" stroke="#bfbfbf" points="796.5,-.5 796.5,-19.5 837.5,-19.5 837.5,-.5 796.5,-.5"/>
<text text-anchor="middle" x="817" y="-7.5" font-family="Helvetica,sans-Serif" font-size="10.00" fill="#000000">string</text>
</g>
<!-- Node8&#45;&gt;Node9 -->
<g id="edge9" class="edge">
<title>Node8&#45;&gt;Node9</title>
<path fill="none" stroke="#191970" d="M897.6211,-112.4792C857.267,-104.7415 809.3853,-92.4196 797,-76 786.4723,-62.0431 794.4605,-42.5359 803.2677,-28.3506"/>
<polygon fill="#191970" stroke="#191970" points="806.2755,-30.151 808.9871,-19.909 800.4803,-26.2246 806.2755,-30.151"/>
</g>
<!-- Node10 -->
<g id="node11" class="node">
<title>Node10</title>
<g id="a_node11"><a xlink:href="_field_desc_types_8_h.html" target="_top" xlink:title="amr&#45;wind/core/FieldDescTypes.H">
<polygon fill="#ffffff" stroke="#000000" points="980.5,-.5 980.5,-19.5 1143.5,-19.5 1143.5,-.5 980.5,-.5"/>
<text text-anchor="middle" x="1062" y="-7.5" font-family="Helvetica,sans-Serif" font-size="10.00" fill="#000000">amr&#45;wind/core/FieldDescTypes.H</text>
</a>
</g>
</g>
<!-- Node8&#45;&gt;Node10 -->
<g id="edge11" class="edge">
<title>Node8&#45;&gt;Node10</title>
<path fill="none" stroke="#191970" d="M1007.9315,-112.4252C1044.5442,-104.2713 1089.7488,-91.4382 1101,-76 1112.7068,-59.9366 1097.482,-40.1537 1082.7639,-26.4578"/>
<polygon fill="#191970" stroke="#191970" points="1084.6543,-23.4631 1074.8136,-19.5374 1080.0584,-28.743 1084.6543,-23.4631"/>
</g>
<!-- Node11 -->
<g id="node12" class="node">
<title>Node11</title>
<g id="a_node12"><a xlink:href="_field_utils_8_h.html" target="_top" xlink:title="amr&#45;wind/core/FieldUtils.H">
<polygon fill="#ffffff" stroke="#000000" points="1312.5,-56.5 1312.5,-75.5 1445.5,-75.5 1445.5,-56.5 1312.5,-56.5"/>
<text text-anchor="middle" x="1379" y="-63.5" font-family="Helvetica,sans-Serif" font-size="10.00" fill="#000000">amr&#45;wind/core/FieldUtils.H</text>
</a>
</g>
</g>
<!-- Node8&#45;&gt;Node11 -->
<g id="edge12" class="edge">
<title>Node8&#45;&gt;Node11</title>
<path fill="none" stroke="#191970" d="M1026.1088,-112.9404C1101.6107,-102.8974 1223.122,-86.7344 1302.0182,-76.2399"/>
<polygon fill="#191970" stroke="#191970" points="1302.9282,-79.6497 1312.3794,-74.8617 1302.0051,-72.7108 1302.9282,-79.6497"/>
</g>
<!-- Node12 -->
<g id="node13" class="node">
<title>Node12</title>
<polygon fill="#ffffff" stroke="#bfbfbf" points="1422,-.5 1422,-19.5 1526,-19.5 1526,-.5 1422,-.5"/>
<text text-anchor="middle" x="1474" y="-7.5" font-family="Helvetica,sans-Serif" font-size="10.00" fill="#000000">AMReX_MultiFab.H</text>
</g>
<!-- Node8&#45;&gt;Node12 -->
<g id="edge36" class="edge">
<title>Node8&#45;&gt;Node12</title>
<path fill="none" stroke="#191970" d="M1026.1336,-119.9103C1154.5931,-115.3641 1422.6659,-102.7624 1455,-76 1468.3218,-64.9737 1472.6474,-45.2579 1473.8943,-30.2371"/>
<polygon fill="#191970" stroke="#191970" points="1477.4065,-30.0306 1474.3457,-19.8876 1470.4132,-29.7255 1477.4065,-30.0306"/>
</g>
<!-- Node14 -->
<g id="node15" class="node">
<title>Node14</title>
<g id="a_node15"><a xlink:href="_field_8_h.html" target="_top" xlink:title="amr&#45;wind/core/Field.H">
<polygon fill="#ffffff" stroke="#000000" points="636.5,-56.5 636.5,-75.5 749.5,-75.5 749.5,-56.5 636.5,-56.5"/>
<text text-anchor="middle" x="693" y="-63.5" font-family="Helvetica,sans-Serif" font-size="10.00" fill="#000000">amr&#45;wind/core/Field.H</text>
</a>
</g>
</g>
<!-- Node8&#45;&gt;Node14 -->
<g id="edge16" class="edge">
<title>Node8&#45;&gt;Node14</title>
<path fill="none" stroke="#191970" d="M912.746,-112.4369C867.2027,-102.8127 796.9035,-87.957 748.1314,-77.6504"/>
<polygon fill="#191970" stroke="#191970" points="748.575,-74.1669 738.0674,-75.5237 747.1276,-81.0157 748.575,-74.1669"/>
</g>
<!-- Node18 -->
<g id="node19" class="node">
<title>Node18</title>
<g id="a_node19"><a xlink:href="_int_field_8_h.html" target="_top" xlink:title="amr&#45;wind/core/IntField.H">
<polygon fill="#ffffff" stroke="#000000" points="806,-56.5 806,-75.5 930,-75.5 930,-56.5 806,-56.5"/>
<text text-anchor="middle" x="868" y="-63.5" font-family="Helvetica,sans-Serif" font-size="10.00" fill="#000000">amr&#45;wind/core/IntField.H</text>
</a>
</g>
</g>
<!-- Node8&#45;&gt;Node18 -->
<g id="edge25" class="edge">
<title>Node8&#45;&gt;Node18</title>
<path fill="none" stroke="#191970" d="M942.3232,-112.2455C928.5144,-103.6534 908.1807,-91.0014 892.2708,-81.1018"/>
<polygon fill="#191970" stroke="#191970" points="893.8368,-77.954 883.4972,-75.6427 890.1387,-83.8974 893.8368,-77.954"/>
</g>
<!-- Node19 -->
<g id="node20" class="node">
<title>Node19</title>
<polygon fill="#ffffff" stroke="#bfbfbf" points="855.5,-.5 855.5,-19.5 962.5,-19.5 962.5,-.5 855.5,-.5"/>
<text text-anchor="middle" x="909" y="-7.5" font-family="Helvetica,sans-Serif" font-size="10.00" fill="#000000">AMReX_iMultiFab.H</text>
</g>
<!-- Node8&#45;&gt;Node19 -->
<g id="edge37" class="edge">
<title>Node8&#45;&gt;Node19</title>
<path fill="none" stroke="#191970" d="M956.1512,-112.2831C953.4374,-99.1223 947.7312,-75.0831 939,-56 934.5615,-46.2991 928.2719,-36.2907 922.5973,-28.0968"/>
<polygon fill="#191970" stroke="#191970" points="925.2617,-25.8069 916.5831,-19.7297 919.5777,-29.8925 925.2617,-25.8069"/>
</g>
<!-- Node20 -->
<g id="node21" class="node">
<title>Node20</title>
<g id="a_node21"><a xlink:href="_scratch_field_8_h.html" target="_top" xlink:title="amr&#45;wind/core/ScratchField.H">
<polygon fill="#ffffff" stroke="#000000" points="1148,-56.5 1148,-75.5 1294,-75.5 1294,-56.5 1148,-56.5"/>
<text text-anchor="middle" x="1221" y="-63.5" font-family="Helvetica,sans-Serif" font-size="10.00" fill="#000000">amr&#45;wind/core/ScratchField.H</text>
</a>
</g>
</g>
<!-- Node8&#45;&gt;Node20 -->
<g id="edge29" class="edge">
<title>Node8&#45;&gt;Node20</title>
<path fill="none" stroke="#191970" d="M1002.9125,-112.4369C1048.112,-102.8127 1117.8807,-87.957 1166.2847,-77.6504"/>
<polygon fill="#191970" stroke="#191970" points="1167.221,-81.0296 1176.2728,-75.5237 1165.7631,-74.1831 1167.221,-81.0296"/>
</g>
<!-- Node23 -->
<g id="node24" class="node">
<title>Node23</title>
<polygon fill="#ffffff" stroke="#bfbfbf" points="986,-56.5 986,-75.5 1092,-75.5 1092,-56.5 986,-56.5"/>
<text text-anchor="middle" x="1039" y="-63.5" font-family="Helvetica,sans-Serif" font-size="10.00" fill="#000000">AMReX_AmrCore.H</text>
</g>
<!-- Node8&#45;&gt;Node23 -->
<g id="edge35" class="edge">
<title>Node8&#45;&gt;Node23</title>
<path fill="none" stroke="#191970" d="M972.1091,-112.2455C984.4209,-103.7337 1002.4958,-91.2375 1016.7538,-81.3801"/>
<polygon fill="#191970" stroke="#191970" points="1018.8174,-84.2085 1025.0526,-75.6427 1014.8366,-78.4506 1018.8174,-84.2085"/>
</g>
<!-- Node11&#45;&gt;Node10 -->
<g id="edge13" class="edge">
<title>Node11&#45;&gt;Node10</title>
<path fill="none" stroke="#191970" d="M1324.8659,-56.4369C1269.702,-46.6918 1184.1763,-31.5832 1125.7649,-21.2645"/>
<polygon fill="#191970" stroke="#191970" points="1126.3672,-17.8167 1115.9108,-19.5237 1125.1494,-24.71 1126.3672,-17.8167"/>
</g>
<!-- Node11&#45;&gt;Node12 -->
<g id="edge14" class="edge">
<title>Node11&#45;&gt;Node12</title>
<path fill="none" stroke="#191970" d="M1395.5477,-56.2455C1410.2599,-47.5731 1431.9888,-34.7645 1448.8505,-24.825"/>
<polygon fill="#191970" stroke="#191970" points="1450.8046,-27.736 1457.6419,-19.6427 1447.2498,-21.7057 1450.8046,-27.736"/>
</g>
<!-- Node13 -->
<g id="node14" class="node">
<title>Node13</title>
<polygon fill="#ffffff" stroke="#bfbfbf" points="1544,-.5 1544,-19.5 1660,-19.5 1660,-.5 1544,-.5"/>
<text text-anchor="middle" x="1602" y="-7.5" font-family="Helvetica,sans-Serif" font-size="10.00" fill="#000000">AMReX_Interpolater.H</text>
</g>
<!-- Node11&#45;&gt;Node13 -->
<g id="edge15" class="edge">
<title>Node11&#45;&gt;Node13</title>
<path fill="none" stroke="#191970" d="M1417.0817,-56.4369C1455.0059,-46.9133 1513.3289,-32.2672 1554.3126,-21.9753"/>
<polygon fill="#191970" stroke="#191970" points="1555.229,-25.3539 1564.0754,-19.5237 1553.524,-18.5647 1555.229,-25.3539"/>
</g>
<!-- Node14&#45;&gt;Node3 -->
<g id="edge18" class="edge">
<title>Node14&#45;&gt;Node3</title>
<path fill="none" stroke="#191970" d="M636.4839,-61.8109C564.8747,-55.8914 437.5939,-43.3314 320.1454,-19.9751"/>
<polygon fill="#191970" stroke="#191970" points="320.7598,-16.5286 310.2648,-17.9796 319.374,-23.39 320.7598,-16.5286"/>
</g>
<!-- Node14&#45;&gt;Node4 -->
<g id="edge19" class="edge">
<title>Node14&#45;&gt;Node4</title>
<path fill="none" stroke="#191970" d="M636.402,-56.8699C583.5897,-48.2506 502.3257,-34.7339 422.0272,-20.1513"/>
<polygon fill="#191970" stroke="#191970" points="422.1973,-16.6247 411.7317,-18.2747 420.942,-23.5113 422.1973,-16.6247"/>
</g>
<!-- Node14&#45;&gt;Node9 -->
<g id="edge17" class="edge">
<title>Node14&#45;&gt;Node9</title>
<path fill="none" stroke="#191970" d="M714.3164,-56.3733C734.3422,-47.3293 764.5066,-33.7067 786.9667,-23.5634"/>
<polygon fill="#191970" stroke="#191970" points="788.7007,-26.6208 796.3738,-19.315 785.8195,-20.2412 788.7007,-26.6208"/>
</g>
<!-- Node14&#45;&gt;Node10 -->
<g id="edge24" class="edge">
<title>Node14&#45;&gt;Node10</title>
<path fill="none" stroke="#191970" d="M749.8476,-57.3727C814.1086,-47.6204 918.8933,-31.7181 989.1162,-21.061"/>
<polygon fill="#191970" stroke="#191970" points="989.8556,-24.4889 999.2172,-19.528 988.8053,-17.5681 989.8556,-24.4889"/>
</g>
<!-- Node14&#45;&gt;Node12 -->
<g id="edge20" class="edge">
<title>Node14&#45;&gt;Node12</title>
<path fill="none" stroke="#191970" d="M749.641,-60.1652C764.9983,-58.6893 781.6278,-57.1878 797,-56 1067.0921,-35.1299 1138.6864,-49.8546 1411.5951,-20.0487"/>
<polygon fill="#191970" stroke="#191970" points="1412.2496,-23.4979 1421.8058,-18.9232 1411.4825,-16.54 1412.2496,-23.4979"/>
</g>
<!-- Node15 -->
<g id="node16" class="node">
<title>Node15</title>
<polygon fill="#ffffff" stroke="#bfbfbf" points="576.5,-.5 576.5,-19.5 675.5,-19.5 675.5,-.5 576.5,-.5"/>
<text text-anchor="middle" x="626" y="-7.5" font-family="Helvetica,sans-Serif" font-size="10.00" fill="#000000">AMReX_BCRec.H</text>
</g>
<!-- Node14&#45;&gt;Node15 -->
<g id="edge21" class="edge">
<title>Node14&#45;&gt;Node15</title>
<path fill="none" stroke="#191970" d="M681.3295,-56.2455C671.4339,-47.9746 657.0373,-35.9416 645.4099,-26.2232"/>
<polygon fill="#191970" stroke="#191970" points="647.4542,-23.3703 637.5368,-19.6427 642.965,-28.7413 647.4542,-23.3703"/>
</g>
<!-- Node16 -->
<g id="node17" class="node">
<title>Node16</title>
<polygon fill="#ffffff" stroke="#bfbfbf" points="693.5,-.5 693.5,-19.5 778.5,-19.5 778.5,-.5 693.5,-.5"/>
<text text-anchor="middle" x="736" y="-7.5" font-family="Helvetica,sans-Serif" font-size="10.00" fill="#000000">AMReX_Gpu.H</text>
</g>
<!-- Node14&#45;&gt;Node16 -->
<g id="edge22" class="edge">
<title>Node14&#45;&gt;Node16</title>
<path fill="none" stroke="#191970" d="M700.49,-56.2455C706.5326,-48.3761 715.1903,-37.101 722.4441,-27.6542"/>
<polygon fill="#191970" stroke="#191970" points="725.2815,-29.7058 728.5958,-19.6427 719.7295,-25.4426 725.2815,-29.7058"/>
</g>
<!-- Node17 -->
<g id="node18" class="node">
<title>Node17</title>
<g id="a_node18"><a xlink:href="incflo__enums_8_h.html" target="_top" xlink:title="amr&#45;wind/incflo_enums.H">
<polygon fill="#ffffff" stroke="#000000" points="430,-.5 430,-19.5 558,-19.5 558,-.5 430,-.5"/>
<text text-anchor="middle" x="494" y="-7.5" font-family="Helvetica,sans-Serif" font-size="10.00" fill="#000000">amr&#45;wind/incflo_enums.H</text>
</a>
</g>
</g>
<!-- Node14&#45;&gt;Node17 -->
<g id="edge23" class="edge">
<title>Node14&#45;&gt;Node17</title>
<path fill="none" stroke="#191970" d="M658.7907,-56.3733C625.2703,-46.9404 574.0495,-32.5265 537.619,-22.2747"/>
<polygon fill="#191970" stroke="#191970" points="538.3372,-18.8409 527.7629,-19.5011 536.4409,-25.5792 538.3372,-18.8409"/>
</g>
<!-- Node18&#45;&gt;Node9 -->
<g id="edge26" class="edge">
<title>Node18&#45;&gt;Node9</title>
<path fill="none" stroke="#191970" d="M859.1165,-56.2455C851.8034,-48.2155 841.2609,-36.6394 832.5533,-27.0781"/>
<polygon fill="#191970" stroke="#191970" points="835.1028,-24.6795 825.7817,-19.6427 829.9273,-29.3928 835.1028,-24.6795"/>
</g>
<!-- Node18&#45;&gt;Node10 -->
<g id="edge27" class="edge">
<title>Node18&#45;&gt;Node10</title>
<path fill="none" stroke="#191970" d="M901.3498,-56.3733C934.028,-46.9404 983.9618,-32.5265 1019.477,-22.2747"/>
<polygon fill="#191970" stroke="#191970" points="1020.4484,-25.6373 1029.0854,-19.5011 1018.507,-18.9119 1020.4484,-25.6373"/>
</g>
<!-- Node18&#45;&gt;Node19 -->
<g id="edge28" class="edge">
<title>Node18&#45;&gt;Node19</title>
<path fill="none" stroke="#191970" d="M875.1417,-56.2455C880.8444,-48.4564 888.99,-37.3308 895.8625,-27.9439"/>
<polygon fill="#191970" stroke="#191970" points="898.8568,-29.7789 901.9402,-19.6427 893.2087,-25.6437 898.8568,-29.7789"/>
</g>
<!-- Node20&#45;&gt;Node9 -->
<g id="edge30" class="edge">
<title>Node20&#45;&gt;Node9</title>
<path fill="none" stroke="#191970" d="M1147.735,-58.8589C1059.8137,-49.9838 916.5364,-34.4743 847.7441,-19.9674"/>
<polygon fill="#191970" stroke="#191970" points="848.2781,-16.5006 837.7562,-17.7422 846.7558,-23.3331 848.2781,-16.5006"/>
</g>
<!-- Node20&#45;&gt;Node10 -->
<g id="edge31" class="edge">
<title>Node20&#45;&gt;Node10</title>
<path fill="none" stroke="#191970" d="M1193.6669,-56.3733C1167.4566,-47.1419 1127.7016,-33.1402 1098.7332,-22.9375"/>
<polygon fill="#191970" stroke="#191970" points="1099.5712,-19.5219 1088.9764,-19.5011 1097.2458,-26.1244 1099.5712,-19.5219"/>
</g>
<!-- Node20&#45;&gt;Node12 -->
<g id="edge32" class="edge">
<title>Node20&#45;&gt;Node12</title>
<path fill="none" stroke="#191970" d="M1264.2048,-56.4369C1307.5947,-46.8328 1374.5209,-32.0191 1421.0726,-21.7152"/>
<polygon fill="#191970" stroke="#191970" points="1421.9662,-25.1022 1430.9734,-19.5237 1420.4533,-18.2676 1421.9662,-25.1022"/>
</g>
<!-- Node21 -->
<g id="node22" class="node">
<title>Node21</title>
<polygon fill="#ffffff" stroke="#bfbfbf" points="1308.5,-.5 1308.5,-19.5 1403.5,-19.5 1403.5,-.5 1308.5,-.5"/>
<text text-anchor="middle" x="1356" y="-7.5" font-family="Helvetica,sans-Serif" font-size="10.00" fill="#000000">AMReX_Vector.H</text>
</g>
<!-- Node20&#45;&gt;Node21 -->
<g id="edge33" class="edge">
<title>Node20&#45;&gt;Node21</title>
<path fill="none" stroke="#191970" d="M1244.2073,-56.3733C1266.1699,-47.2629 1299.3332,-33.5062 1323.8401,-23.3404"/>
<polygon fill="#191970" stroke="#191970" points="1325.1997,-26.5657 1333.0955,-19.5011 1322.5176,-20.0999 1325.1997,-26.5657"/>
</g>
<!-- Node22 -->
<g id="node23" class="node">
<title>Node22</title>
<polygon fill="#ffffff" stroke="#bfbfbf" points="1162,-.5 1162,-19.5 1290,-19.5 1290,-.5 1162,-.5"/>
<text text-anchor="middle" x="1226" y="-7.5" font-family="Helvetica,sans-Serif" font-size="10.00" fill="#000000">AMReX_PhysBCFunct.H</text>
</g>
<!-- Node20&#45;&gt;Node22 -->
<g id="edge34" class="edge">
<title>Node20&#45;&gt;Node22</title>
<path fill="none" stroke="#191970" d="M1221.8709,-56.2455C1222.5234,-48.9382 1223.438,-38.6944 1224.2407,-29.7046"/>
<polygon fill="#191970" stroke="#191970" points="1227.7358,-29.9143 1225.139,-19.6427 1220.7635,-29.2918 1227.7358,-29.9143"/>
</g>
</g>
</svg>
        <g id="navigator" transform="translate(0 0)" fill="#404254">
                <rect fill="#f2f5e9" fill-opacity="0.5" stroke="#606060" stroke-width=".5" x="0" y="0" width="60" height="60"/>
                <use id="zoomplus" xlink:href="#zoomPlus" x="17" y="9" onmousedown="handleZoom(evt,'in')"/>
                <use id="zoomminus" xlink:href="#zoomMin" x="42" y="9" onmousedown="handleZoom(evt,'out')"/>
                <use id="reset" xlink:href="#resetDef" x="30" y="36" onmousedown="handleReset()"/>
                <g id="arrowUp" xlink:href="#dirArrow" transform="translate(30 24)" onmousedown="handlePan(0,-1)">
                  <use xlink:href="#rim" fill="#404040">
                        <set attributeName="fill" to="#808080" begin="arrowUp.mouseover" end="arrowUp.mouseout"/>
                  </use>
                  <path fill="none" stroke="white" stroke-width="1.5" d="M0,-3.0v7 M-2.5,-0.5L0,-3.0L2.5,-0.5"/>
                </g>
                <g id="arrowRight" xlink:href="#dirArrow" transform="rotate(90) translate(36 -43)" onmousedown="handlePan(1,0)">
                  <use xlink:href="#rim" fill="#404040">
                        <set attributeName="fill" to="#808080" begin="arrowRight.mouseover" end="arrowRight.mouseout"/>
                  </use>
                  <path fill="none" stroke="white" stroke-width="1.5" d="M0,-3.0v7 M-2.5,-0.5L0,-3.0L2.5,-0.5"/>
                </g>
                <g id="arrowDown" xlink:href="#dirArrow" transform="rotate(180) translate(-30 -48)" onmousedown="handlePan(0,1)">
                  <use xlink:href="#rim" fill="#404040">
                        <set attributeName="fill" to="#808080" begin="arrowDown.mouseover" end="arrowDown.mouseout"/>
                  </use>
                  <path fill="none" stroke="white" stroke-width="1.5" d="M0,-3.0v7 M-2.5,-0.5L0,-3.0L2.5,-0.5"/>
                </g>
                <g id="arrowLeft" xlink:href="#dirArrow" transform="rotate(270) translate(-36 17)" onmousedown="handlePan(-1,0)">
                  <use xlink:href="#rim" fill="#404040">
                        <set attributeName="fill" to="#808080" begin="arrowLeft.mouseover" end="arrowLeft.mouseout"/>
                  </use>
                  <path fill="none" stroke="white" stroke-width="1.5" d="M0,-3.0v7 M-2.5,-0.5L0,-3.0L2.5,-0.5"/>
                </g>
        </g>
        <svg viewBox="0 0 15 15" width="100%" height="30px" preserveAspectRatio="xMaxYMin meet">
         <g id="arrow_out" transform="scale(0.3 0.3)">
          <a xlink:href="_const_transport_8_h__incl_org.svg" target="_base">
           <rect id="button" ry="5" rx="5" y="6" x="6" height="38" width="38"
                fill="#f2f5e9" fill-opacity="0.5" stroke="#606060" stroke-width="1.0"/>
           <path id="arrow"
             d="M 11.500037,31.436501 C 11.940474,20.09759 22.043105,11.32322 32.158766,21.979434 L 37.068811,17.246167 C 37.068811,17.246167 37.088388,32 37.088388,32 L 22.160133,31.978069 C 22.160133,31.978069 26.997745,27.140456 26.997745,27.140456 C 18.528582,18.264221 13.291696,25.230495 11.500037,31.436501 z"
             style="fill:#404040;"/>
          </a>
         </g>
        </svg>
</svg>
