<?xml version="1.0" encoding="UTF-8" standalone="no"?>
<!DOCTYPE svg PUBLIC "-//W3C//DTD SVG 1.1//EN"
 "http://www.w3.org/Graphics/SVG/1.1/DTD/svg11.dtd">
<!-- Generated by graphviz version 2.40.1 (20161225.0304)
 -->
<!-- Title: ConvectingTaylorVortex.cpp Pages: 1 -->
<!--zoomable 341 -->
<svg id="main" version="1.1" xmlns="http://www.w3.org/2000/svg" xmlns:xlink="http://www.w3.org/1999/xlink" xml:space="preserve" onload="init(evt)">
<style type="text/css"><![CDATA[
.edge:hover path { stroke: red; }
.edge:hover polygon { stroke: red; fill: red; }
]]></style>
<script type="text/javascript"><![CDATA[
var edges = document.getElementsByTagName('g');
if (edges && edges.length) {
  for (var i=0;i<edges.length;i++) {
    if (edges[i].id.substr(0,4)=='edge') {
      edges[i].setAttribute('class','edge');
    }
  }
}
]]></script>
        <defs>
                <circle id="rim" cx="0" cy="0" r="7"/>
                <circle id="rim2" cx="0" cy="0" r="3.5"/>
                <g id="zoomPlus">
                        <use xlink:href="#rim" fill="#404040">
                                <set attributeName="fill" to="#808080" begin="zoomplus.mouseover" end="zoomplus.mouseout"/>
                        </use>
                        <path d="M-4,0h8M0,-4v8" fill="none" stroke="white" stroke-width="1.5" pointer-events="none"/>
                </g>
                <g id="zoomMin">
                        <use xlink:href="#rim" fill="#404040">
                                <set attributeName="fill" to="#808080" begin="zoomminus.mouseover" end="zoomminus.mouseout"/>
                        </use>
                        <path d="M-4,0h8" fill="none" stroke="white" stroke-width="1.5" pointer-events="none"/>
                </g>
                <g id="dirArrow">
                        <path fill="none" stroke="white" stroke-width="1.5" d="M0,-3.0v7 M-2.5,-0.5L0,-3.0L2.5,-0.5"/>
                </g>
               <g id="resetDef">
                       <use xlink:href="#rim2" fill="#404040">
                               <set attributeName="fill" to="#808080" begin="reset.mouseover" end="reset.mouseout"/>
                       </use>
               </g>
        </defs>

<script type="text/javascript">
var viewWidth = 2402;
var viewHeight = 341;
var sectionId = 'dynsection-0';
</script>
<script xlink:href="svgpan.js"/>
<svg id="graph" class="graph">
<g id="viewport">
<title>ConvectingTaylorVortex.cpp</title>
<polygon fill="#ffffff" stroke="transparent" points="-4,4 -4,-337 2398,-337 2398,4 -4,4"/>
<!-- Node0 -->
<g id="node1" class="node">
<title>Node0</title>
<polygon fill="#bfbfbf" stroke="#000000" points="2005,-313.5 2005,-332.5 2145,-332.5 2145,-313.5 2005,-313.5"/>
<text text-anchor="middle" x="2075" y="-320.5" font-family="Helvetica,sans-Serif" font-size="10.00" fill="#000000">ConvectingTaylorVortex.cpp</text>
</g>
<!-- Node1 -->
<g id="node2" class="node">
<title>Node1</title>
<g id="a_node2"><a xlink:href="_convecting_taylor_vortex_8_h.html" target="_top" xlink:title="amr&#45;wind/physics/Convecting\lTaylorVortex.H">
<polygon fill="#ffffff" stroke="#000000" points="1030,-246.5 1030,-276.5 1176,-276.5 1176,-246.5 1030,-246.5"/>
<text text-anchor="start" x="1038" y="-264.5" font-family="Helvetica,sans-Serif" font-size="10.00" fill="#000000">amr&#45;wind/physics/Convecting</text>
<text text-anchor="middle" x="1103" y="-253.5" font-family="Helvetica,sans-Serif" font-size="10.00" fill="#000000">TaylorVortex.H</text>
</a>
</g>
</g>
<!-- Node0&#45;&gt;Node1 -->
<g id="edge1" class="edge">
<title>Node0&#45;&gt;Node1</title>
<path fill="none" stroke="#191970" d="M2004.7051,-318.5523C1829.5706,-307.4713 1374.387,-278.6711 1186.2495,-266.7673"/>
<polygon fill="#191970" stroke="#191970" points="1186.3407,-263.2662 1176.1396,-266.1277 1185.8986,-270.2522 1186.3407,-263.2662"/>
</g>
<!-- Node19 -->
<g id="node20" class="node">
<title>Node19</title>
<g id="a_node20"><a xlink:href="_c_f_d_sim_8_h.html" target="_top" xlink:title="amr&#45;wind/CFDSim.H">
<polygon fill="#ffffff" stroke="#000000" points="1168,-190.5 1168,-209.5 1276,-209.5 1276,-190.5 1168,-190.5"/>
<text text-anchor="middle" x="1222" y="-197.5" font-family="Helvetica,sans-Serif" font-size="10.00" fill="#000000">amr&#45;wind/CFDSim.H</text>
</a>
</g>
</g>
<!-- Node0&#45;&gt;Node19 -->
<g id="edge62" class="edge">
<title>Node0&#45;&gt;Node19</title>
<path fill="none" stroke="#191970" d="M2008.7763,-313.4507C1848.9579,-290.4054 1443.718,-231.9711 1286.0993,-209.2429"/>
<polygon fill="#191970" stroke="#191970" points="1286.4777,-205.7614 1276.0806,-207.7983 1285.4786,-212.6897 1286.4777,-205.7614"/>
</g>
<!-- Node29 -->
<g id="node30" class="node">
<title>Node29</title>
<polygon fill="#ffffff" stroke="#bfbfbf" points="1616.5,-.5 1616.5,-19.5 1723.5,-19.5 1723.5,-.5 1616.5,-.5"/>
<text text-anchor="middle" x="1670" y="-7.5" font-family="Helvetica,sans-Serif" font-size="10.00" fill="#000000">AMReX_iMultiFab.H</text>
</g>
<!-- Node0&#45;&gt;Node29 -->
<g id="edge63" class="edge">
<title>Node0&#45;&gt;Node29</title>
<path fill="none" stroke="#191970" d="M2079.99,-313.4118C2090.0894,-293.0868 2112,-243.9298 2112,-200 2112,-200 2112,-200 2112,-138.5 2112,-100.8735 2121.1289,-80.9903 2093,-56 2066.6923,-32.6277 1845.1881,-18.5633 1733.6484,-12.8996"/>
<polygon fill="#191970" stroke="#191970" points="1733.6953,-9.3977 1723.5329,-12.3937 1733.3456,-16.3889 1733.6953,-9.3977"/>
</g>
<!-- Node35 -->
<g id="node36" class="node">
<title>Node35</title>
<polygon fill="#ffffff" stroke="#bfbfbf" points="2140.5,-252 2140.5,-271 2259.5,-271 2259.5,-252 2140.5,-252"/>
<text text-anchor="middle" x="2200" y="-259" font-family="Helvetica,sans-Serif" font-size="10.00" fill="#000000">AMReX_MultiFabUtil.H</text>
</g>
<!-- Node0&#45;&gt;Node35 -->
<g id="edge64" class="edge">
<title>Node0&#45;&gt;Node35</title>
<path fill="none" stroke="#191970" d="M2094.5313,-313.3906C2115.1708,-303.2359 2147.9276,-287.1196 2171.4602,-275.5416"/>
<polygon fill="#191970" stroke="#191970" points="2173.1782,-278.5971 2180.6059,-271.0419 2170.088,-272.3161 2173.1782,-278.5971"/>
</g>
<!-- Node36 -->
<g id="node37" class="node">
<title>Node36</title>
<polygon fill="#ffffff" stroke="#bfbfbf" points="2278,-252 2278,-271 2394,-271 2394,-252 2278,-252"/>
<text text-anchor="middle" x="2336" y="-259" font-family="Helvetica,sans-Serif" font-size="10.00" fill="#000000">AMReX_ParmParse.H</text>
</g>
<!-- Node0&#45;&gt;Node36 -->
<g id="edge65" class="edge">
<title>Node0&#45;&gt;Node36</title>
<path fill="none" stroke="#191970" d="M2115.4949,-313.4581C2161.3075,-302.6632 2235.9737,-285.0694 2285.5406,-273.3899"/>
<polygon fill="#191970" stroke="#191970" points="2286.4794,-276.7646 2295.4101,-271.0643 2284.8739,-269.9512 2286.4794,-276.7646"/>
</g>
<!-- Node37 -->
<g id="node38" class="node">
<title>Node37</title>
<g id="a_node38"><a xlink:href="trig__ops_8_h.html" target="_top" xlink:title="Trigonometric utilities. ">
<polygon fill="#ffffff" stroke="#000000" points="1994,-246.5 1994,-276.5 2084,-276.5 2084,-246.5 1994,-246.5"/>
<text text-anchor="start" x="2002" y="-264.5" font-family="Helvetica,sans-Serif" font-size="10.00" fill="#000000">amr&#45;wind/utilities</text>
<text text-anchor="middle" x="2039" y="-253.5" font-family="Helvetica,sans-Serif" font-size="10.00" fill="#000000">/trig_ops.H</text>
</a>
</g>
</g>
<!-- Node0&#45;&gt;Node37 -->
<g id="edge66" class="edge">
<title>Node0&#45;&gt;Node37</title>
<path fill="none" stroke="#191970" d="M2069.375,-313.3906C2064.9991,-305.9151 2058.7319,-295.2087 2053.0257,-285.4605"/>
<polygon fill="#191970" stroke="#191970" points="2055.879,-283.4066 2047.8066,-276.5446 2049.8379,-286.9429 2055.879,-283.4066"/>
</g>
<!-- Node2 -->
<g id="node3" class="node">
<title>Node2</title>
<g id="a_node3"><a xlink:href="_physics_8_h.html" target="_top" xlink:title="amr&#45;wind/core/Physics.H">
<polygon fill="#ffffff" stroke="#000000" points="517.5,-129 517.5,-148 644.5,-148 644.5,-129 517.5,-129"/>
<text text-anchor="middle" x="581" y="-136" font-family="Helvetica,sans-Serif" font-size="10.00" fill="#000000">amr&#45;wind/core/Physics.H</text>
</a>
</g>
</g>
<!-- Node1&#45;&gt;Node2 -->
<g id="edge2" class="edge">
<title>Node1&#45;&gt;Node2</title>
<path fill="none" stroke="#191970" d="M1039.2537,-246.4793C934.2879,-221.746 727.1898,-172.947 631.5714,-150.4162"/>
<polygon fill="#191970" stroke="#191970" points="632.1097,-146.9473 621.5735,-148.0604 630.5042,-153.7607 632.1097,-146.9473"/>
</g>
<!-- Node14 -->
<g id="node15" class="node">
<title>Node14</title>
<g id="a_node15"><a xlink:href="_field_8_h.html" target="_top" xlink:title="amr&#45;wind/core/Field.H">
<polygon fill="#ffffff" stroke="#000000" points="738.5,-62 738.5,-81 851.5,-81 851.5,-62 738.5,-62"/>
<text text-anchor="middle" x="795" y="-69" font-family="Helvetica,sans-Serif" font-size="10.00" fill="#000000">amr&#45;wind/core/Field.H</text>
</a>
</g>
</g>
<!-- Node1&#45;&gt;Node14 -->
<g id="edge16" class="edge">
<title>Node1&#45;&gt;Node14</title>
<path fill="none" stroke="#191970" d="M1078.5743,-246.4322C1020.8888,-210.847 876.7496,-121.93 819.2451,-86.4564"/>
<polygon fill="#191970" stroke="#191970" points="820.8251,-83.3187 810.4766,-81.0472 817.1499,-89.2763 820.8251,-83.3187"/>
</g>
<!-- Node1&#45;&gt;Node19 -->
<g id="edge25" class="edge">
<title>Node1&#45;&gt;Node19</title>
<path fill="none" stroke="#191970" d="M1132.1107,-246.4554C1151.1824,-236.599 1175.9482,-223.7999 1194.6539,-214.1327"/>
<polygon fill="#191970" stroke="#191970" points="1196.2824,-217.2309 1203.5592,-209.5303 1193.0685,-211.0122 1196.2824,-217.2309"/>
</g>
<!-- Node3 -->
<g id="node4" class="node">
<title>Node3</title>
<g id="a_node4"><a xlink:href="_factory_8_h.html" target="_top" xlink:title="amr&#45;wind/core/Factory.H">
<polygon fill="#ffffff" stroke="#000000" points="218.5,-62 218.5,-81 343.5,-81 343.5,-62 218.5,-62"/>
<text text-anchor="middle" x="281" y="-69" font-family="Helvetica,sans-Serif" font-size="10.00" fill="#000000">amr&#45;wind/core/Factory.H</text>
</a>
</g>
</g>
<!-- Node2&#45;&gt;Node3 -->
<g id="edge3" class="edge">
<title>Node2&#45;&gt;Node3</title>
<path fill="none" stroke="#191970" d="M538.3359,-128.9717C484.6192,-116.975 392.3364,-96.3651 334.1071,-83.3606"/>
<polygon fill="#191970" stroke="#191970" points="334.5251,-79.8678 324.0026,-81.1039 332.9993,-86.6995 334.5251,-79.8678"/>
</g>
<!-- Node9 -->
<g id="node10" class="node">
<title>Node9</title>
<g id="a_node10"><a xlink:href="_coll_mgr_8_h.html" target="_top" xlink:title="amr&#45;wind/core/CollMgr.H">
<polygon fill="#ffffff" stroke="#000000" points="518.5,-62 518.5,-81 643.5,-81 643.5,-62 518.5,-62"/>
<text text-anchor="middle" x="581" y="-69" font-family="Helvetica,sans-Serif" font-size="10.00" fill="#000000">amr&#45;wind/core/CollMgr.H</text>
</a>
</g>
</g>
<!-- Node2&#45;&gt;Node9 -->
<g id="edge9" class="edge">
<title>Node2&#45;&gt;Node9</title>
<path fill="none" stroke="#191970" d="M581,-128.9005C581,-119.149 581,-103.7597 581,-91.3695"/>
<polygon fill="#191970" stroke="#191970" points="584.5001,-91.0816 581,-81.0817 577.5001,-91.0817 584.5001,-91.0816"/>
</g>
<!-- Node12 -->
<g id="node13" class="node">
<title>Node12</title>
<polygon fill="#ffffff" stroke="#bfbfbf" points="1178,-.5 1178,-19.5 1282,-19.5 1282,-.5 1178,-.5"/>
<text text-anchor="middle" x="1230" y="-7.5" font-family="Helvetica,sans-Serif" font-size="10.00" fill="#000000">AMReX_MultiFab.H</text>
</g>
<!-- Node2&#45;&gt;Node12 -->
<g id="edge14" class="edge">
<title>Node2&#45;&gt;Node12</title>
<path fill="none" stroke="#191970" d="M620.8174,-128.9484C631.2406,-126.7177 642.5004,-124.5451 653,-123 850.6245,-93.9172 910.7175,-147.7767 1101,-87 1143.0434,-73.5713 1185.8691,-44.2516 1210.0727,-25.9166"/>
<polygon fill="#191970" stroke="#191970" points="1212.3362,-28.5909 1218.1114,-19.7084 1208.0575,-23.0507 1212.3362,-28.5909"/>
</g>
<!-- Node13 -->
<g id="node14" class="node">
<title>Node13</title>
<polygon fill="#ffffff" stroke="#bfbfbf" points="90,-62 90,-81 200,-81 200,-62 90,-62"/>
<text text-anchor="middle" x="145" y="-69" font-family="Helvetica,sans-Serif" font-size="10.00" fill="#000000">AMReX_Geometry.H</text>
</g>
<!-- Node2&#45;&gt;Node13 -->
<g id="edge15" class="edge">
<title>Node2&#45;&gt;Node13</title>
<path fill="none" stroke="#191970" d="M517.4974,-131.6687C443.1911,-123.2229 316.6132,-107.4273 209,-87 203.3157,-85.921 197.3776,-84.6628 191.5082,-83.3385"/>
<polygon fill="#191970" stroke="#191970" points="192.2854,-79.9259 181.7523,-81.0673 190.6982,-86.7436 192.2854,-79.9259"/>
</g>
<!-- Node4 -->
<g id="node5" class="node">
<title>Node4</title>
<polygon fill="#ffffff" stroke="#bfbfbf" points="321,-.5 321,-19.5 373,-19.5 373,-.5 321,-.5"/>
<text text-anchor="middle" x="347" y="-7.5" font-family="Helvetica,sans-Serif" font-size="10.00" fill="#000000">memory</text>
</g>
<!-- Node3&#45;&gt;Node4 -->
<g id="edge4" class="edge">
<title>Node3&#45;&gt;Node4</title>
<path fill="none" stroke="#191970" d="M291.3125,-61.8906C301.4242,-52.4683 317.0442,-37.9134 329.1707,-26.6137"/>
<polygon fill="#191970" stroke="#191970" points="331.612,-29.1228 336.5421,-19.7449 326.8399,-24.0015 331.612,-29.1228"/>
</g>
<!-- Node5 -->
<g id="node6" class="node">
<title>Node5</title>
<polygon fill="#ffffff" stroke="#bfbfbf" points="391.5,-.5 391.5,-19.5 474.5,-19.5 474.5,-.5 391.5,-.5"/>
<text text-anchor="middle" x="433" y="-7.5" font-family="Helvetica,sans-Serif" font-size="10.00" fill="#000000">unordered_map</text>
</g>
<!-- Node3&#45;&gt;Node5 -->
<g id="edge5" class="edge">
<title>Node3&#45;&gt;Node5</title>
<path fill="none" stroke="#191970" d="M304.75,-61.8906C330.2939,-51.5554 371.1009,-35.0447 399.811,-23.4284"/>
<polygon fill="#191970" stroke="#191970" points="401.4596,-26.5371 409.4168,-19.5419 398.834,-20.0481 401.4596,-26.5371"/>
</g>
<!-- Node6 -->
<g id="node7" class="node">
<title>Node6</title>
<polygon fill="#ffffff" stroke="#bfbfbf" points="80,-.5 80,-19.5 134,-19.5 134,-.5 80,-.5"/>
<text text-anchor="middle" x="107" y="-7.5" font-family="Helvetica,sans-Serif" font-size="10.00" fill="#000000">iostream</text>
</g>
<!-- Node3&#45;&gt;Node6 -->
<g id="edge6" class="edge">
<title>Node3&#45;&gt;Node6</title>
<path fill="none" stroke="#191970" d="M253.8125,-61.8906C224.1883,-51.42 176.6313,-34.6111 143.7082,-22.9745"/>
<polygon fill="#191970" stroke="#191970" points="144.5914,-19.5745 133.9966,-19.5419 142.2586,-26.1744 144.5914,-19.5745"/>
</g>
<!-- Node7 -->
<g id="node8" class="node">
<title>Node7</title>
<polygon fill="#ffffff" stroke="#bfbfbf" points="152.5,-.5 152.5,-19.5 239.5,-19.5 239.5,-.5 152.5,-.5"/>
<text text-anchor="middle" x="196" y="-7.5" font-family="Helvetica,sans-Serif" font-size="10.00" fill="#000000">AMReX_Print.H</text>
</g>
<!-- Node3&#45;&gt;Node7 -->
<g id="edge7" class="edge">
<title>Node3&#45;&gt;Node7</title>
<path fill="none" stroke="#191970" d="M267.7188,-61.8906C254.2452,-52.1421 233.178,-36.8994 217.3565,-25.4521"/>
<polygon fill="#191970" stroke="#191970" points="219.3414,-22.5682 209.188,-19.5419 215.2381,-28.2394 219.3414,-22.5682"/>
</g>
<!-- Node8 -->
<g id="node9" class="node">
<title>Node8</title>
<polygon fill="#ffffff" stroke="#bfbfbf" points="0,-.5 0,-19.5 62,-19.5 62,-.5 0,-.5"/>
<text text-anchor="middle" x="31" y="-7.5" font-family="Helvetica,sans-Serif" font-size="10.00" fill="#000000">AMReX.H</text>
</g>
<!-- Node3&#45;&gt;Node8 -->
<g id="edge8" class="edge">
<title>Node3&#45;&gt;Node8</title>
<path fill="none" stroke="#191970" d="M241.8962,-61.9658C201.7724,-52.1705 137.2638,-36.3883 72.0509,-20.2529"/>
<polygon fill="#191970" stroke="#191970" points="72.5535,-16.7717 62.0055,-17.7659 70.8713,-23.5666 72.5535,-16.7717"/>
</g>
<!-- Node9&#45;&gt;Node4 -->
<g id="edge11" class="edge">
<title>Node9&#45;&gt;Node4</title>
<path fill="none" stroke="#191970" d="M542.7752,-61.9103C504.6928,-52.2891 444.3076,-36.8528 383.169,-20.2757"/>
<polygon fill="#191970" stroke="#191970" points="383.9216,-16.8533 373.3535,-17.6061 382.0844,-23.6079 383.9216,-16.8533"/>
</g>
<!-- Node9&#45;&gt;Node5 -->
<g id="edge12" class="edge">
<title>Node9&#45;&gt;Node5</title>
<path fill="none" stroke="#191970" d="M557.875,-61.8906C533.0033,-51.5554 493.2702,-35.0447 465.3156,-23.4284"/>
<polygon fill="#191970" stroke="#191970" points="466.5402,-20.1472 455.9626,-19.5419 463.854,-26.6113 466.5402,-20.1472"/>
</g>
<!-- Node10 -->
<g id="node11" class="node">
<title>Node10</title>
<polygon fill="#ffffff" stroke="#bfbfbf" points="972.5,-.5 972.5,-19.5 1013.5,-19.5 1013.5,-.5 972.5,-.5"/>
<text text-anchor="middle" x="993" y="-7.5" font-family="Helvetica,sans-Serif" font-size="10.00" fill="#000000">string</text>
</g>
<!-- Node9&#45;&gt;Node10 -->
<g id="edge10" class="edge">
<title>Node9&#45;&gt;Node10</title>
<path fill="none" stroke="#191970" d="M643.8133,-64.4833C731.9454,-54.4018 888.8473,-35.5329 962.6432,-19.6254"/>
<polygon fill="#191970" stroke="#191970" points="963.5056,-23.0189 972.4887,-17.4017 961.9633,-16.1909 963.5056,-23.0189"/>
</g>
<!-- Node11 -->
<g id="node12" class="node">
<title>Node11</title>
<polygon fill="#ffffff" stroke="#bfbfbf" points="492.5,-.5 492.5,-19.5 587.5,-19.5 587.5,-.5 492.5,-.5"/>
<text text-anchor="middle" x="540" y="-7.5" font-family="Helvetica,sans-Serif" font-size="10.00" fill="#000000">AMReX_Vector.H</text>
</g>
<!-- Node9&#45;&gt;Node11 -->
<g id="edge13" class="edge">
<title>Node9&#45;&gt;Node11</title>
<path fill="none" stroke="#191970" d="M574.5938,-61.8906C568.6114,-52.917 559.5253,-39.2879 552.1661,-28.2491"/>
<polygon fill="#191970" stroke="#191970" points="554.9558,-26.1239 546.4966,-19.7449 549.1314,-30.0068 554.9558,-26.1239"/>
</g>
<!-- Node14&#45;&gt;Node4 -->
<g id="edge18" class="edge">
<title>Node14&#45;&gt;Node4</title>
<path fill="none" stroke="#191970" d="M738.4807,-64.944C640.1102,-53.4654 442.8953,-30.1306 383.2834,-19.8495"/>
<polygon fill="#191970" stroke="#191970" points="383.739,-16.3741 373.2658,-17.9747 382.4513,-23.2547 383.739,-16.3741"/>
</g>
<!-- Node14&#45;&gt;Node5 -->
<g id="edge19" class="edge">
<title>Node14&#45;&gt;Node5</title>
<path fill="none" stroke="#191970" d="M738.2524,-62.7236C677.7899,-53.2399 579.0169,-37.3679 484.7148,-20.2732"/>
<polygon fill="#191970" stroke="#191970" points="485.1869,-16.8017 474.7217,-18.454 483.9331,-23.6885 485.1869,-16.8017"/>
</g>
<!-- Node14&#45;&gt;Node10 -->
<g id="edge17" class="edge">
<title>Node14&#45;&gt;Node10</title>
<path fill="none" stroke="#191970" d="M826.9662,-61.9529C858.9011,-52.3596 909.6253,-36.9724 962.7696,-20.021"/>
<polygon fill="#191970" stroke="#191970" points="963.9066,-23.332 972.3648,-16.9516 961.7738,-16.6648 963.9066,-23.332"/>
</g>
<!-- Node14&#45;&gt;Node12 -->
<g id="edge20" class="edge">
<title>Node14&#45;&gt;Node12</title>
<path fill="none" stroke="#191970" d="M851.7735,-64.143C923.112,-54.7958 1049.5625,-37.8882 1167.8179,-20.1504"/>
<polygon fill="#191970" stroke="#191970" points="1168.4027,-23.6019 1177.7705,-18.6526 1167.3609,-16.6798 1168.4027,-23.6019"/>
</g>
<!-- Node15 -->
<g id="node16" class="node">
<title>Node15</title>
<polygon fill="#ffffff" stroke="#bfbfbf" points="855.5,-.5 855.5,-19.5 954.5,-19.5 954.5,-.5 855.5,-.5"/>
<text text-anchor="middle" x="905" y="-7.5" font-family="Helvetica,sans-Serif" font-size="10.00" fill="#000000">AMReX_BCRec.H</text>
</g>
<!-- Node14&#45;&gt;Node15 -->
<g id="edge21" class="edge">
<title>Node14&#45;&gt;Node15</title>
<path fill="none" stroke="#191970" d="M812.1875,-61.8906C830.1082,-51.8713 858.4095,-36.0483 879.0523,-24.5071"/>
<polygon fill="#191970" stroke="#191970" points="880.9128,-27.4769 887.9332,-19.5419 877.4967,-21.367 880.9128,-27.4769"/>
</g>
<!-- Node16 -->
<g id="node17" class="node">
<title>Node16</title>
<polygon fill="#ffffff" stroke="#bfbfbf" points="752.5,-.5 752.5,-19.5 837.5,-19.5 837.5,-.5 752.5,-.5"/>
<text text-anchor="middle" x="795" y="-7.5" font-family="Helvetica,sans-Serif" font-size="10.00" fill="#000000">AMReX_Gpu.H</text>
</g>
<!-- Node14&#45;&gt;Node16 -->
<g id="edge22" class="edge">
<title>Node14&#45;&gt;Node16</title>
<path fill="none" stroke="#191970" d="M795,-61.8906C795,-53.3657 795,-40.6392 795,-29.9235"/>
<polygon fill="#191970" stroke="#191970" points="798.5001,-29.7448 795,-19.7449 791.5001,-29.7449 798.5001,-29.7448"/>
</g>
<!-- Node17 -->
<g id="node18" class="node">
<title>Node17</title>
<g id="a_node18"><a xlink:href="incflo__enums_8_h.html" target="_top" xlink:title="amr&#45;wind/incflo_enums.H">
<polygon fill="#ffffff" stroke="#000000" points="606,-.5 606,-19.5 734,-19.5 734,-.5 606,-.5"/>
<text text-anchor="middle" x="670" y="-7.5" font-family="Helvetica,sans-Serif" font-size="10.00" fill="#000000">amr&#45;wind/incflo_enums.H</text>
</a>
</g>
</g>
<!-- Node14&#45;&gt;Node17 -->
<g id="edge23" class="edge">
<title>Node14&#45;&gt;Node17</title>
<path fill="none" stroke="#191970" d="M775.4688,-61.8906C754.8292,-51.7359 722.0724,-35.6196 698.5398,-24.0416"/>
<polygon fill="#191970" stroke="#191970" points="699.912,-20.8161 689.3941,-19.5419 696.8218,-27.0971 699.912,-20.8161"/>
</g>
<!-- Node18 -->
<g id="node19" class="node">
<title>Node18</title>
<g id="a_node19"><a xlink:href="_field_desc_types_8_h.html" target="_top" xlink:title="amr&#45;wind/core/FieldDescTypes.H">
<polygon fill="#ffffff" stroke="#000000" points="1300.5,-.5 1300.5,-19.5 1463.5,-19.5 1463.5,-.5 1300.5,-.5"/>
<text text-anchor="middle" x="1382" y="-7.5" font-family="Helvetica,sans-Serif" font-size="10.00" fill="#000000">amr&#45;wind/core/FieldDescTypes.H</text>
</a>
</g>
</g>
<!-- Node14&#45;&gt;Node18 -->
<g id="edge24" class="edge">
<title>Node14&#45;&gt;Node18</title>
<path fill="none" stroke="#191970" d="M851.6506,-65.2195C877.6505,-62.3619 908.8847,-58.964 937,-56 1091.0479,-39.7597 1132.0648,-36.7573 1290.0703,-20.0911"/>
<polygon fill="#191970" stroke="#191970" points="1290.574,-23.5575 1300.1509,-19.0261 1289.8384,-16.5962 1290.574,-23.5575"/>
</g>
<!-- Node19&#45;&gt;Node2 -->
<g id="edge61" class="edge">
<title>Node19&#45;&gt;Node2</title>
<path fill="none" stroke="#191970" d="M1167.9949,-197.9989C1066.5998,-193.7187 841.006,-181.7138 653,-154 645.7818,-152.936 638.2042,-151.5762 630.786,-150.1053"/>
<polygon fill="#191970" stroke="#191970" points="631.3189,-146.6416 620.8179,-148.0482 629.904,-153.4972 631.3189,-146.6416"/>
</g>
<!-- Node20 -->
<g id="node21" class="node">
<title>Node20</title>
<polygon fill="#ffffff" stroke="#bfbfbf" points="1594,-62 1594,-81 1700,-81 1700,-62 1594,-62"/>
<text text-anchor="middle" x="1647" y="-69" font-family="Helvetica,sans-Serif" font-size="10.00" fill="#000000">AMReX_AmrCore.H</text>
</g>
<!-- Node19&#45;&gt;Node20 -->
<g id="edge26" class="edge">
<title>Node19&#45;&gt;Node20</title>
<path fill="none" stroke="#191970" d="M1253.5969,-190.4466C1329.2962,-167.5587 1521.0148,-109.592 1605.7018,-83.9866"/>
<polygon fill="#191970" stroke="#191970" points="1606.9249,-87.2734 1615.4839,-81.029 1604.8989,-80.573 1606.9249,-87.2734"/>
</g>
<!-- Node21 -->
<g id="node22" class="node">
<title>Node21</title>
<g id="a_node22"><a xlink:href="_sim_time_8_h.html" target="_top" xlink:title="amr&#45;wind/core/SimTime.H">
<polygon fill="#ffffff" stroke="#000000" points="1775.5,-129 1775.5,-148 1906.5,-148 1906.5,-129 1775.5,-129"/>
<text text-anchor="middle" x="1841" y="-136" font-family="Helvetica,sans-Serif" font-size="10.00" fill="#000000">amr&#45;wind/core/SimTime.H</text>
</a>
</g>
</g>
<!-- Node19&#45;&gt;Node21 -->
<g id="edge27" class="edge">
<title>Node19&#45;&gt;Node21</title>
<path fill="none" stroke="#191970" d="M1276.1192,-194.6231C1386.6845,-183.638 1638.7121,-158.5981 1765.3784,-146.0133"/>
<polygon fill="#191970" stroke="#191970" points="1765.7832,-149.4904 1775.3882,-145.0188 1765.0911,-142.5247 1765.7832,-149.4904"/>
</g>
<!-- Node25 -->
<g id="node26" class="node">
<title>Node25</title>
<g id="a_node26"><a xlink:href="_field_repo_8_h.html" target="_top" xlink:title="amr&#45;wind/core/FieldRepo.H">
<polygon fill="#ffffff" stroke="#000000" points="1154,-129 1154,-148 1290,-148 1290,-129 1154,-129"/>
<text text-anchor="middle" x="1222" y="-136" font-family="Helvetica,sans-Serif" font-size="10.00" fill="#000000">amr&#45;wind/core/FieldRepo.H</text>
</a>
</g>
</g>
<!-- Node19&#45;&gt;Node25 -->
<g id="edge31" class="edge">
<title>Node19&#45;&gt;Node25</title>
<path fill="none" stroke="#191970" d="M1222,-190.3906C1222,-181.8657 1222,-169.1392 1222,-158.4235"/>
<polygon fill="#191970" stroke="#191970" points="1225.5001,-158.2448 1222,-148.2449 1218.5001,-158.2449 1225.5001,-158.2448"/>
</g>
<!-- Node32 -->
<g id="node33" class="node">
<title>Node32</title>
<g id="a_node33"><a xlink:href="_p_d_e_base_8_h.html" target="_top" xlink:title="amr&#45;wind/equation_systems\l/PDEBase.H">
<polygon fill="#ffffff" stroke="#000000" points="662.5,-123.5 662.5,-153.5 801.5,-153.5 801.5,-123.5 662.5,-123.5"/>
<text text-anchor="start" x="670.5" y="-141.5" font-family="Helvetica,sans-Serif" font-size="10.00" fill="#000000">amr&#45;wind/equation_systems</text>
<text text-anchor="middle" x="732" y="-130.5" font-family="Helvetica,sans-Serif" font-size="10.00" fill="#000000">/PDEBase.H</text>
</a>
</g>
</g>
<!-- Node19&#45;&gt;Node32 -->
<g id="edge53" class="edge">
<title>Node19&#45;&gt;Node32</title>
<path fill="none" stroke="#191970" d="M1167.6892,-193.1834C1081.2056,-182.3289 911.76,-161.0617 811.5731,-148.4872"/>
<polygon fill="#191970" stroke="#191970" points="811.8601,-144.9959 801.5021,-147.2232 810.9883,-151.9414 811.8601,-144.9959"/>
</g>
<!-- Node22 -->
<g id="node23" class="node">
<title>Node22</title>
<polygon fill="#ffffff" stroke="#bfbfbf" points="1990.5,-62 1990.5,-81 2083.5,-81 2083.5,-62 1990.5,-62"/>
<text text-anchor="middle" x="2037" y="-69" font-family="Helvetica,sans-Serif" font-size="10.00" fill="#000000">AMReX_REAL.H</text>
</g>
<!-- Node21&#45;&gt;Node22 -->
<g id="edge28" class="edge">
<title>Node21&#45;&gt;Node22</title>
<path fill="none" stroke="#191970" d="M1869.082,-128.9005C1903.2851,-117.2086 1961.1972,-97.4122 1999.2697,-84.3976"/>
<polygon fill="#191970" stroke="#191970" points="2000.6398,-87.6282 2008.9701,-81.0817 1998.3755,-81.0045 2000.6398,-87.6282"/>
</g>
<!-- Node23 -->
<g id="node24" class="node">
<title>Node23</title>
<polygon fill="#ffffff" stroke="#bfbfbf" points="1846,-62 1846,-81 1972,-81 1972,-62 1846,-62"/>
<text text-anchor="middle" x="1909" y="-69" font-family="Helvetica,sans-Serif" font-size="10.00" fill="#000000">AMReX_GpuQualifiers.H</text>
</g>
<!-- Node21&#45;&gt;Node23 -->
<g id="edge29" class="edge">
<title>Node21&#45;&gt;Node23</title>
<path fill="none" stroke="#191970" d="M1850.7427,-128.9005C1861.4477,-118.353 1878.847,-101.2096 1891.8479,-88.3998"/>
<polygon fill="#191970" stroke="#191970" points="1894.6085,-90.5933 1899.2753,-81.0817 1889.6956,-85.607 1894.6085,-90.5933"/>
</g>
<!-- Node24 -->
<g id="node25" class="node">
<title>Node24</title>
<polygon fill="#ffffff" stroke="#bfbfbf" points="1718,-62 1718,-81 1828,-81 1828,-62 1718,-62"/>
<text text-anchor="middle" x="1773" y="-69" font-family="Helvetica,sans-Serif" font-size="10.00" fill="#000000">AMReX_Extension.H</text>
</g>
<!-- Node21&#45;&gt;Node24 -->
<g id="edge30" class="edge">
<title>Node21&#45;&gt;Node24</title>
<path fill="none" stroke="#191970" d="M1831.2573,-128.9005C1820.5523,-118.353 1803.153,-101.2096 1790.1521,-88.3998"/>
<polygon fill="#191970" stroke="#191970" points="1792.3044,-85.607 1782.7247,-81.0817 1787.3915,-90.5933 1792.3044,-85.607"/>
</g>
<!-- Node25&#45;&gt;Node5 -->
<g id="edge33" class="edge">
<title>Node25&#45;&gt;Node5</title>
<path fill="none" stroke="#191970" d="M1153.6681,-133.724C1037.8051,-125.231 807.7168,-106.5484 729,-87 693.196,-78.1085 687.2991,-66.722 652,-56 636.1428,-51.1834 544.1336,-32.3521 484.5304,-20.328"/>
<polygon fill="#191970" stroke="#191970" points="485.0268,-16.8578 474.5325,-18.3136 483.6441,-23.7199 485.0268,-16.8578"/>
</g>
<!-- Node25&#45;&gt;Node10 -->
<g id="edge32" class="edge">
<title>Node25&#45;&gt;Node10</title>
<path fill="none" stroke="#191970" d="M1153.7221,-135.9171C1078.3567,-131.4623 964.0799,-119.4118 937,-87 928.1662,-76.4269 931.112,-68.4563 937,-56 943.0246,-43.2547 954.5032,-32.8542 965.5074,-25.1874"/>
<polygon fill="#191970" stroke="#191970" points="967.6121,-27.9948 974.1176,-19.6324 963.8172,-22.1127 967.6121,-27.9948"/>
</g>
<!-- Node25&#45;&gt;Node12 -->
<g id="edge51" class="edge">
<title>Node25&#45;&gt;Node12</title>
<path fill="none" stroke="#191970" d="M1219.6652,-128.7918C1216.2811,-113.3127 1210.8487,-82.121 1215,-56 1216.4301,-47.0016 1219.3412,-37.3703 1222.2216,-29.2579"/>
<polygon fill="#191970" stroke="#191970" points="1225.592,-30.2407 1225.8632,-19.6493 1219.0463,-27.7599 1225.592,-30.2407"/>
</g>
<!-- Node25&#45;&gt;Node14 -->
<g id="edge39" class="edge">
<title>Node25&#45;&gt;Node14</title>
<path fill="none" stroke="#191970" d="M1161.2748,-128.9717C1082.0358,-116.5384 943.8367,-94.8538 861.7389,-81.9719"/>
<polygon fill="#191970" stroke="#191970" points="862.1891,-78.4998 851.7674,-80.4073 861.1039,-85.4152 862.1891,-78.4998"/>
</g>
<!-- Node25&#45;&gt;Node18 -->
<g id="edge34" class="edge">
<title>Node25&#45;&gt;Node18</title>
<path fill="none" stroke="#191970" d="M1290.0756,-136.0283C1365.956,-131.6735 1481.635,-119.7126 1509,-87 1534.663,-56.322 1482.5978,-34.5508 1437.5779,-22.1561"/>
<polygon fill="#191970" stroke="#191970" points="1438.3773,-18.7473 1427.8151,-19.5793 1436.5908,-25.5155 1438.3773,-18.7473"/>
</g>
<!-- Node25&#45;&gt;Node20 -->
<g id="edge50" class="edge">
<title>Node25&#45;&gt;Node20</title>
<path fill="none" stroke="#191970" d="M1290.2465,-130.4243C1362.4898,-121.4693 1479.7052,-105.7805 1580,-87 1585.8639,-85.902 1591.9913,-84.642 1598.056,-83.3253"/>
<polygon fill="#191970" stroke="#191970" points="1599.1476,-86.6678 1608.1454,-81.0741 1597.6232,-79.8358 1599.1476,-86.6678"/>
</g>
<!-- Node26 -->
<g id="node27" class="node">
<title>Node26</title>
<g id="a_node27"><a xlink:href="_field_utils_8_h.html" target="_top" xlink:title="amr&#45;wind/core/FieldUtils.H">
<polygon fill="#ffffff" stroke="#000000" points="1366.5,-62 1366.5,-81 1499.5,-81 1499.5,-62 1366.5,-62"/>
<text text-anchor="middle" x="1433" y="-69" font-family="Helvetica,sans-Serif" font-size="10.00" fill="#000000">amr&#45;wind/core/FieldUtils.H</text>
</a>
</g>
</g>
<!-- Node25&#45;&gt;Node26 -->
<g id="edge35" class="edge">
<title>Node25&#45;&gt;Node26</title>
<path fill="none" stroke="#191970" d="M1252.2312,-128.9005C1289.2869,-117.134 1352.1929,-97.1591 1393.1644,-84.1492"/>
<polygon fill="#191970" stroke="#191970" points="1394.3532,-87.444 1402.8249,-81.0817 1392.2346,-80.7723 1394.3532,-87.444"/>
</g>
<!-- Node28 -->
<g id="node29" class="node">
<title>Node28</title>
<g id="a_node29"><a xlink:href="_int_field_8_h.html" target="_top" xlink:title="amr&#45;wind/core/IntField.H">
<polygon fill="#ffffff" stroke="#000000" points="1224,-62 1224,-81 1348,-81 1348,-62 1224,-62"/>
<text text-anchor="middle" x="1286" y="-69" font-family="Helvetica,sans-Serif" font-size="10.00" fill="#000000">amr&#45;wind/core/IntField.H</text>
</a>
</g>
</g>
<!-- Node25&#45;&gt;Node28 -->
<g id="edge40" class="edge">
<title>Node25&#45;&gt;Node28</title>
<path fill="none" stroke="#191970" d="M1231.1696,-128.9005C1241.2449,-118.353 1257.6207,-101.2096 1269.8569,-88.3998"/>
<polygon fill="#191970" stroke="#191970" points="1272.4709,-90.7304 1276.8474,-81.0817 1267.4091,-85.8952 1272.4709,-90.7304"/>
</g>
<!-- Node25&#45;&gt;Node29 -->
<g id="edge52" class="edge">
<title>Node25&#45;&gt;Node29</title>
<path fill="none" stroke="#191970" d="M1290.2617,-133.2802C1352.913,-127.0162 1447.617,-113.7979 1526,-87 1529.0953,-85.9418 1602.6182,-46.3634 1643.3786,-24.3743"/>
<polygon fill="#191970" stroke="#191970" points="1645.1202,-27.4116 1652.2585,-19.5825 1641.7959,-21.2513 1645.1202,-27.4116"/>
</g>
<!-- Node30 -->
<g id="node31" class="node">
<title>Node30</title>
<g id="a_node31"><a xlink:href="_scratch_field_8_h.html" target="_top" xlink:title="amr&#45;wind/core/ScratchField.H">
<polygon fill="#ffffff" stroke="#000000" points="946,-62 946,-81 1092,-81 1092,-62 946,-62"/>
<text text-anchor="middle" x="1019" y="-69" font-family="Helvetica,sans-Serif" font-size="10.00" fill="#000000">amr&#45;wind/core/ScratchField.H</text>
</a>
</g>
</g>
<!-- Node25&#45;&gt;Node30 -->
<g id="edge44" class="edge">
<title>Node25&#45;&gt;Node30</title>
<path fill="none" stroke="#191970" d="M1192.915,-128.9005C1157.3396,-117.1589 1096.9992,-97.2436 1057.5755,-84.2318"/>
<polygon fill="#191970" stroke="#191970" points="1058.6241,-80.8923 1048.031,-81.0817 1056.4302,-87.5396 1058.6241,-80.8923"/>
</g>
<!-- Node26&#45;&gt;Node12 -->
<g id="edge37" class="edge">
<title>Node26&#45;&gt;Node12</title>
<path fill="none" stroke="#191970" d="M1401.2813,-61.8906C1366.2728,-51.2846 1309.7981,-34.1753 1271.3449,-22.5257"/>
<polygon fill="#191970" stroke="#191970" points="1272.0813,-19.0917 1261.496,-19.5419 1270.0516,-25.791 1272.0813,-19.0917"/>
</g>
<!-- Node26&#45;&gt;Node18 -->
<g id="edge36" class="edge">
<title>Node26&#45;&gt;Node18</title>
<path fill="none" stroke="#191970" d="M1425.0313,-61.8906C1417.4409,-52.7376 1405.8339,-38.7409 1396.5868,-27.59"/>
<polygon fill="#191970" stroke="#191970" points="1399.1587,-25.2083 1390.0811,-19.7449 1393.7703,-29.6766 1399.1587,-25.2083"/>
</g>
<!-- Node27 -->
<g id="node28" class="node">
<title>Node27</title>
<polygon fill="#ffffff" stroke="#bfbfbf" points="1482,-.5 1482,-19.5 1598,-19.5 1598,-.5 1482,-.5"/>
<text text-anchor="middle" x="1540" y="-7.5" font-family="Helvetica,sans-Serif" font-size="10.00" fill="#000000">AMReX_Interpolater.H</text>
</g>
<!-- Node26&#45;&gt;Node27 -->
<g id="edge38" class="edge">
<title>Node26&#45;&gt;Node27</title>
<path fill="none" stroke="#191970" d="M1449.7188,-61.8906C1467.0722,-51.9165 1494.4323,-36.1908 1514.4882,-24.6633"/>
<polygon fill="#191970" stroke="#191970" points="1516.4728,-27.5596 1523.3987,-19.5419 1512.9846,-21.4907 1516.4728,-27.5596"/>
</g>
<!-- Node28&#45;&gt;Node10 -->
<g id="edge41" class="edge">
<title>Node28&#45;&gt;Node10</title>
<path fill="none" stroke="#191970" d="M1225.703,-61.9598C1174.3763,-53.3257 1098.581,-39.3672 1023.6388,-19.8934"/>
<polygon fill="#191970" stroke="#191970" points="1024.1137,-16.3992 1013.552,-17.2371 1022.331,-23.1684 1024.1137,-16.3992"/>
</g>
<!-- Node28&#45;&gt;Node18 -->
<g id="edge42" class="edge">
<title>Node28&#45;&gt;Node18</title>
<path fill="none" stroke="#191970" d="M1301,-61.8906C1316.3581,-52.0519 1340.4521,-36.6167 1358.3745,-25.1351"/>
<polygon fill="#191970" stroke="#191970" points="1360.573,-27.8833 1367.1053,-19.5419 1356.797,-21.9891 1360.573,-27.8833"/>
</g>
<!-- Node28&#45;&gt;Node29 -->
<g id="edge43" class="edge">
<title>Node28&#45;&gt;Node29</title>
<path fill="none" stroke="#191970" d="M1327.7838,-61.9985C1337.6654,-59.8921 1348.1839,-57.7641 1358,-56 1464.9375,-36.7822 1494.773,-36.7506 1606.4173,-20.0634"/>
<polygon fill="#191970" stroke="#191970" points="1607.0245,-23.5115 1616.3916,-18.5609 1605.9818,-16.5896 1607.0245,-23.5115"/>
</g>
<!-- Node30&#45;&gt;Node10 -->
<g id="edge45" class="edge">
<title>Node30&#45;&gt;Node10</title>
<path fill="none" stroke="#191970" d="M1014.9375,-61.8906C1011.2576,-53.1862 1005.7258,-40.1015 1001.138,-29.2494"/>
<polygon fill="#191970" stroke="#191970" points="1004.2375,-27.5927 997.1198,-19.7449 997.79,-30.3185 1004.2375,-27.5927"/>
</g>
<!-- Node30&#45;&gt;Node11 -->
<g id="edge48" class="edge">
<title>Node30&#45;&gt;Node11</title>
<path fill="none" stroke="#191970" d="M945.6567,-63.7251C863.4954,-54.7498 726.1146,-38.9493 597.5821,-20.0202"/>
<polygon fill="#191970" stroke="#191970" points="597.9606,-16.5381 587.5556,-18.5344 596.9345,-23.4625 597.9606,-16.5381"/>
</g>
<!-- Node30&#45;&gt;Node12 -->
<g id="edge47" class="edge">
<title>Node30&#45;&gt;Node12</title>
<path fill="none" stroke="#191970" d="M1051.9688,-61.8906C1088.5117,-51.2395 1147.5571,-34.0296 1187.535,-22.3772"/>
<polygon fill="#191970" stroke="#191970" points="1188.6417,-25.7004 1197.2628,-19.5419 1186.6828,-18.98 1188.6417,-25.7004"/>
</g>
<!-- Node30&#45;&gt;Node18 -->
<g id="edge46" class="edge">
<title>Node30&#45;&gt;Node18</title>
<path fill="none" stroke="#191970" d="M1075.3205,-61.9581C1140.329,-50.9443 1247.1112,-32.8531 1315.9711,-21.1867"/>
<polygon fill="#191970" stroke="#191970" points="1316.5713,-24.635 1325.8461,-19.5137 1315.4019,-17.7333 1316.5713,-24.635"/>
</g>
<!-- Node31 -->
<g id="node32" class="node">
<title>Node31</title>
<polygon fill="#ffffff" stroke="#bfbfbf" points="1032,-.5 1032,-19.5 1160,-19.5 1160,-.5 1032,-.5"/>
<text text-anchor="middle" x="1096" y="-7.5" font-family="Helvetica,sans-Serif" font-size="10.00" fill="#000000">AMReX_PhysBCFunct.H</text>
</g>
<!-- Node30&#45;&gt;Node31 -->
<g id="edge49" class="edge">
<title>Node30&#45;&gt;Node31</title>
<path fill="none" stroke="#191970" d="M1031.0313,-61.8906C1043.0107,-52.3227 1061.6166,-37.4621 1075.8525,-26.0919"/>
<polygon fill="#191970" stroke="#191970" points="1078.4239,-28.5175 1084.0532,-19.5419 1074.0553,-23.0479 1078.4239,-28.5175"/>
</g>
<!-- Node32&#45;&gt;Node3 -->
<g id="edge55" class="edge">
<title>Node32&#45;&gt;Node3</title>
<path fill="none" stroke="#191970" d="M662.2633,-124.5242C659.1361,-123.99 656.0374,-123.4789 653,-123 519.913,-102.0153 484.8571,-109.3939 352,-87 345.3129,-85.8728 338.3038,-84.5357 331.4029,-83.1265"/>
<polygon fill="#191970" stroke="#191970" points="331.9261,-79.66 321.4197,-81.0262 330.4849,-86.51 331.9261,-79.66"/>
</g>
<!-- Node32&#45;&gt;Node9 -->
<g id="edge56" class="edge">
<title>Node32&#45;&gt;Node9</title>
<path fill="none" stroke="#191970" d="M698.1127,-123.4639C672.3203,-112.0196 637.1055,-96.3945 612.0429,-85.274"/>
<polygon fill="#191970" stroke="#191970" points="613.2048,-81.9605 602.6447,-81.1039 610.3657,-88.359 613.2048,-81.9605"/>
</g>
<!-- Node32&#45;&gt;Node10 -->
<g id="edge54" class="edge">
<title>Node32&#45;&gt;Node10</title>
<path fill="none" stroke="#191970" d="M773.5766,-123.4914C798.9385,-113.9154 831.795,-100.7521 860,-87 899.4729,-67.7539 943.1672,-41.4261 969.3375,-25.0787"/>
<polygon fill="#191970" stroke="#191970" points="971.2249,-28.0264 977.8278,-19.7407 967.4991,-22.1004 971.2249,-28.0264"/>
</g>
<!-- Node32&#45;&gt;Node17 -->
<g id="edge60" class="edge">
<title>Node32&#45;&gt;Node17</title>
<path fill="none" stroke="#191970" d="M724.6443,-123.2548C713.2607,-99.6612 691.4042,-54.3619 679.0625,-28.7828"/>
<polygon fill="#191970" stroke="#191970" points="682.1953,-27.2213 674.6974,-19.7358 675.8907,-30.2632 682.1953,-27.2213"/>
</g>
<!-- Node32&#45;&gt;Node18 -->
<g id="edge59" class="edge">
<title>Node32&#45;&gt;Node18</title>
<path fill="none" stroke="#191970" d="M801.5644,-136.3039C885.0459,-132.2072 1028.5849,-120.4874 1147,-87 1178.9612,-77.9615 1183.7793,-67.3349 1215,-56 1252.9138,-42.2351 1296.9408,-30.2669 1330.2679,-21.9911"/>
<polygon fill="#191970" stroke="#191970" points="1331.3702,-25.3246 1340.2487,-19.5434 1329.7029,-18.526 1331.3702,-25.3246"/>
</g>
<!-- Node33 -->
<g id="node34" class="node">
<title>Node33</title>
<g id="a_node34"><a xlink:href="_p_d_e_fields_8_h.html" target="_top" xlink:title="amr&#45;wind/equation_systems\l/PDEFields.H">
<polygon fill="#ffffff" stroke="#000000" points="361.5,-56.5 361.5,-86.5 500.5,-86.5 500.5,-56.5 361.5,-56.5"/>
<text text-anchor="start" x="369.5" y="-74.5" font-family="Helvetica,sans-Serif" font-size="10.00" fill="#000000">amr&#45;wind/equation_systems</text>
<text text-anchor="middle" x="431" y="-63.5" font-family="Helvetica,sans-Serif" font-size="10.00" fill="#000000">/PDEFields.H</text>
</a>
</g>
</g>
<!-- Node32&#45;&gt;Node33 -->
<g id="edge57" class="edge">
<title>Node32&#45;&gt;Node33</title>
<path fill="none" stroke="#191970" d="M664.4497,-123.4639C618.1536,-113.1588 556.6281,-99.4637 508.3622,-88.7202"/>
<polygon fill="#191970" stroke="#191970" points="509.1063,-85.3002 498.5847,-86.5438 507.5853,-92.133 509.1063,-85.3002"/>
</g>
<!-- Node34 -->
<g id="node35" class="node">
<title>Node34</title>
<polygon fill="#ffffff" stroke="#bfbfbf" points="257.5,-.5 257.5,-19.5 302.5,-19.5 302.5,-.5 257.5,-.5"/>
<text text-anchor="middle" x="280" y="-7.5" font-family="Helvetica,sans-Serif" font-size="10.00" fill="#000000">iosfwd</text>
</g>
<!-- Node33&#45;&gt;Node34 -->
<g id="edge58" class="edge">
<title>Node33&#45;&gt;Node34</title>
<path fill="none" stroke="#191970" d="M394.0612,-56.4554C368.8911,-46.204 335.9048,-32.7692 311.8837,-22.9857"/>
<polygon fill="#191970" stroke="#191970" points="313.0909,-19.6983 302.5094,-19.1677 310.4505,-26.1812 313.0909,-19.6983"/>
</g>
<!-- Node37&#45;&gt;Node22 -->
<g id="edge68" class="edge">
<title>Node37&#45;&gt;Node22</title>
<path fill="none" stroke="#191970" d="M2035.9989,-246.2484C2034.1459,-236.0369 2031.9473,-222.269 2031,-210 2027.7416,-167.7965 2031.7922,-118.2117 2034.647,-91.3071"/>
<polygon fill="#191970" stroke="#191970" points="2038.1382,-91.58 2035.7725,-81.2527 2031.1817,-90.8013 2038.1382,-91.58"/>
</g>
<!-- Node38 -->
<g id="node39" class="node">
<title>Node38</title>
<polygon fill="#ffffff" stroke="#bfbfbf" points="2040,-190.5 2040,-209.5 2084,-209.5 2084,-190.5 2040,-190.5"/>
<text text-anchor="middle" x="2062" y="-197.5" font-family="Helvetica,sans-Serif" font-size="10.00" fill="#000000">cmath</text>
</g>
<!-- Node37&#45;&gt;Node38 -->
<g id="edge67" class="edge">
<title>Node37&#45;&gt;Node38</title>
<path fill="none" stroke="#191970" d="M2044.6854,-246.2977C2047.745,-238.1166 2051.5498,-227.943 2054.8128,-219.2179"/>
<polygon fill="#191970" stroke="#191970" points="2058.0927,-220.4394 2058.3174,-209.8469 2051.5362,-217.9873 2058.0927,-220.4394"/>
</g>
</g>
</svg>
        <g id="navigator" transform="translate(0 0)" fill="#404254">
                <rect fill="#f2f5e9" fill-opacity="0.5" stroke="#606060" stroke-width=".5" x="0" y="0" width="60" height="60"/>
                <use id="zoomplus" xlink:href="#zoomPlus" x="17" y="9" onmousedown="handleZoom(evt,'in')"/>
                <use id="zoomminus" xlink:href="#zoomMin" x="42" y="9" onmousedown="handleZoom(evt,'out')"/>
                <use id="reset" xlink:href="#resetDef" x="30" y="36" onmousedown="handleReset()"/>
                <g id="arrowUp" xlink:href="#dirArrow" transform="translate(30 24)" onmousedown="handlePan(0,-1)">
                  <use xlink:href="#rim" fill="#404040">
                        <set attributeName="fill" to="#808080" begin="arrowUp.mouseover" end="arrowUp.mouseout"/>
                  </use>
                  <path fill="none" stroke="white" stroke-width="1.5" d="M0,-3.0v7 M-2.5,-0.5L0,-3.0L2.5,-0.5"/>
                </g>
                <g id="arrowRight" xlink:href="#dirArrow" transform="rotate(90) translate(36 -43)" onmousedown="handlePan(1,0)">
                  <use xlink:href="#rim" fill="#404040">
                        <set attributeName="fill" to="#808080" begin="arrowRight.mouseover" end="arrowRight.mouseout"/>
                  </use>
                  <path fill="none" stroke="white" stroke-width="1.5" d="M0,-3.0v7 M-2.5,-0.5L0,-3.0L2.5,-0.5"/>
                </g>
                <g id="arrowDown" xlink:href="#dirArrow" transform="rotate(180) translate(-30 -48)" onmousedown="handlePan(0,1)">
                  <use xlink:href="#rim" fill="#404040">
                        <set attributeName="fill" to="#808080" begin="arrowDown.mouseover" end="arrowDown.mouseout"/>
                  </use>
                  <path fill="none" stroke="white" stroke-width="1.5" d="M0,-3.0v7 M-2.5,-0.5L0,-3.0L2.5,-0.5"/>
                </g>
                <g id="arrowLeft" xlink:href="#dirArrow" transform="rotate(270) translate(-36 17)" onmousedown="handlePan(-1,0)">
                  <use xlink:href="#rim" fill="#404040">
                        <set attributeName="fill" to="#808080" begin="arrowLeft.mouseover" end="arrowLeft.mouseout"/>
                  </use>
                  <path fill="none" stroke="white" stroke-width="1.5" d="M0,-3.0v7 M-2.5,-0.5L0,-3.0L2.5,-0.5"/>
                </g>
        </g>
        <svg viewBox="0 0 15 15" width="100%" height="30px" preserveAspectRatio="xMaxYMin meet">
         <g id="arrow_out" transform="scale(0.3 0.3)">
          <a xlink:href="_convecting_taylor_vortex_8cpp__incl_org.svg" target="_base">
           <rect id="button" ry="5" rx="5" y="6" x="6" height="38" width="38"
                fill="#f2f5e9" fill-opacity="0.5" stroke="#606060" stroke-width="1.0"/>
           <path id="arrow"
             d="M 11.500037,31.436501 C 11.940474,20.09759 22.043105,11.32322 32.158766,21.979434 L 37.068811,17.246167 C 37.068811,17.246167 37.088388,32 37.088388,32 L 22.160133,31.978069 C 22.160133,31.978069 26.997745,27.140456 26.997745,27.140456 C 18.528582,18.264221 13.291696,25.230495 11.500037,31.436501 z"
             style="fill:#404040;"/>
          </a>
         </g>
        </svg>
</svg>
