<?xml version="1.0" encoding="UTF-8" standalone="no"?>
<!DOCTYPE svg PUBLIC "-//W3C//DTD SVG 1.1//EN"
 "http://www.w3.org/Graphics/SVG/1.1/DTD/svg11.dtd">
<!-- Generated by graphviz version 2.40.1 (20161225.0304)
 -->
<!-- Title: DensitySource.H Pages: 1 -->
<svg width="128pt" height="196pt"
 viewBox="0.00 0.00 128.00 196.00" xmlns="http://www.w3.org/2000/svg" xmlns:xlink="http://www.w3.org/1999/xlink">
<g id="graph0" class="graph" transform="scale(1 1) rotate(0) translate(4 192)">
<title>DensitySource.H</title>
<polygon fill="#ffffff" stroke="transparent" points="-4,4 -4,-192 124,-192 124,4 -4,4"/>
<!-- Node23 -->
<g id="node1" class="node">
<title>Node23</title>
<polygon fill="#bfbfbf" stroke="#000000" points="0,-168.5 0,-187.5 92,-187.5 92,-168.5 0,-168.5"/>
<text text-anchor="middle" x="46" y="-175.5" font-family="Helvetica,sans-Serif" font-size="10.00" fill="#000000">DensitySource.H</text>
</g>
<!-- Node24 -->
<g id="node2" class="node">
<title>Node24</title>
<g id="a_node2"><a xlink:href="density_8_h.html" target="_top" xlink:title="density.H">
<polygon fill="#ffffff" stroke="#000000" points="16.5,-112.5 16.5,-131.5 75.5,-131.5 75.5,-112.5 16.5,-112.5"/>
<text text-anchor="middle" x="46" y="-119.5" font-family="Helvetica,sans-Serif" font-size="10.00" fill="#000000">density.H</text>
</a>
</g>
</g>
<!-- Node23&#45;&gt;Node24 -->
<g id="edge1" class="edge">
<title>Node23&#45;&gt;Node24</title>
<path fill="none" stroke="#191970" d="M46,-158.1575C46,-149.155 46,-138.9199 46,-131.6427"/>
<polygon fill="#191970" stroke="#191970" points="42.5001,-158.2455 46,-168.2455 49.5001,-158.2456 42.5001,-158.2455"/>
</g>
<!-- Node25 -->
<g id="node3" class="node">
<title>Node25</title>
<g id="a_node3"><a xlink:href="density_8cpp.html" target="_top" xlink:title="density.cpp">
<polygon fill="#ffffff" stroke="#000000" points="12.5,-.5 12.5,-19.5 79.5,-19.5 79.5,-.5 12.5,-.5"/>
<text text-anchor="middle" x="46" y="-7.5" font-family="Helvetica,sans-Serif" font-size="10.00" fill="#000000">density.cpp</text>
</a>
</g>
</g>
<!-- Node24&#45;&gt;Node25 -->
<g id="edge2" class="edge">
<title>Node24&#45;&gt;Node25</title>
<path fill="none" stroke="#191970" d="M37.6824,-102.866C32.9663,-89.7598 28.4678,-71.9332 31,-56 33.0567,-43.0584 38.1769,-28.8079 41.8632,-19.6493"/>
<polygon fill="#191970" stroke="#191970" points="34.4546,-104.2215 41.3812,-112.2385 40.9659,-101.6518 34.4546,-104.2215"/>
</g>
<!-- Node26 -->
<g id="node4" class="node">
<title>Node26</title>
<g id="a_node4"><a xlink:href="density__ops_8_h.html" target="_top" xlink:title="density_ops.H">
<polygon fill="#ffffff" stroke="#000000" points="40,-56.5 40,-75.5 120,-75.5 120,-56.5 40,-56.5"/>
<text text-anchor="middle" x="80" y="-63.5" font-family="Helvetica,sans-Serif" font-size="10.00" fill="#000000">density_ops.H</text>
</a>
</g>
</g>
<!-- Node24&#45;&gt;Node26 -->
<g id="edge3" class="edge">
<title>Node24&#45;&gt;Node26</title>
<path fill="none" stroke="#191970" d="M57.1535,-103.6296C62.8247,-94.2887 69.4845,-83.3197 74.1455,-75.6427"/>
<polygon fill="#191970" stroke="#191970" points="54.1204,-101.8812 51.9223,-112.2455 60.1039,-105.5141 54.1204,-101.8812"/>
</g>
<!-- Node26&#45;&gt;Node25 -->
<g id="edge4" class="edge">
<title>Node26&#45;&gt;Node25</title>
<path fill="none" stroke="#191970" d="M68.8465,-47.6296C63.1753,-38.2887 56.5155,-27.3197 51.8545,-19.6427"/>
<polygon fill="#191970" stroke="#191970" points="65.8961,-49.5141 74.0777,-56.2455 71.8796,-45.8812 65.8961,-49.5141"/>
</g>
</g>
</svg>
