<?xml version="1.0" encoding="UTF-8" standalone="no"?>
<!DOCTYPE svg PUBLIC "-//W3C//DTD SVG 1.1//EN"
 "http://www.w3.org/Graphics/SVG/1.1/DTD/svg11.dtd">
<!-- Generated by graphviz version 2.40.1 (20161225.0304)
 -->
<!-- Title: DiffusionOps.H Pages: 1 -->
<svg width="728pt" height="252pt"
 viewBox="0.00 0.00 727.50 252.00" xmlns="http://www.w3.org/2000/svg" xmlns:xlink="http://www.w3.org/1999/xlink">
<g id="graph0" class="graph" transform="scale(1 1) rotate(0) translate(4 248)">
<title>DiffusionOps.H</title>
<polygon fill="#ffffff" stroke="transparent" points="-4,4 -4,-248 723.5,-248 723.5,4 -4,4"/>
<!-- Node52 -->
<g id="node1" class="node">
<title>Node52</title>
<polygon fill="#bfbfbf" stroke="#000000" points="538.5,-224.5 538.5,-243.5 622.5,-243.5 622.5,-224.5 538.5,-224.5"/>
<text text-anchor="middle" x="580.5" y="-231.5" font-family="Helvetica,sans-Serif" font-size="10.00" fill="#000000">DiffusionOps.H</text>
</g>
<!-- Node53 -->
<g id="node2" class="node">
<title>Node53</title>
<g id="a_node2"><a xlink:href="_p_d_e_8_h.html" target="_top" xlink:title="PDE.H">
<polygon fill="#ffffff" stroke="#000000" points="270.5,-168.5 270.5,-187.5 318.5,-187.5 318.5,-168.5 270.5,-168.5"/>
<text text-anchor="middle" x="294.5" y="-175.5" font-family="Helvetica,sans-Serif" font-size="10.00" fill="#000000">PDE.H</text>
</a>
</g>
</g>
<!-- Node52&#45;&gt;Node53 -->
<g id="edge1" class="edge">
<title>Node52&#45;&gt;Node53</title>
<path fill="none" stroke="#191970" d="M528.2924,-223.7775C466.0995,-211.5999 364.8346,-191.7718 318.7339,-182.7451"/>
<polygon fill="#191970" stroke="#191970" points="527.8135,-227.2502 538.2997,-225.737 529.1586,-220.3806 527.8135,-227.2502"/>
</g>
<!-- Node59 -->
<g id="node8" class="node">
<title>Node59</title>
<g id="a_node8"><a xlink:href="icns__ops_8_h.html" target="_top" xlink:title="icns_ops.H">
<polygon fill="#ffffff" stroke="#000000" points="623.5,-56.5 623.5,-75.5 689.5,-75.5 689.5,-56.5 623.5,-56.5"/>
<text text-anchor="middle" x="656.5" y="-63.5" font-family="Helvetica,sans-Serif" font-size="10.00" fill="#000000">icns_ops.H</text>
</a>
</g>
</g>
<!-- Node52&#45;&gt;Node59 -->
<g id="edge22" class="edge">
<title>Node52&#45;&gt;Node59</title>
<path fill="none" stroke="#191970" d="M589.0099,-215.1887C605.1655,-179.4762 639.7625,-102.9988 652.0541,-75.8279"/>
<polygon fill="#191970" stroke="#191970" points="585.7367,-213.9325 584.8038,-224.4862 592.1145,-216.8178 585.7367,-213.9325"/>
</g>
<!-- Node61 -->
<g id="node10" class="node">
<title>Node61</title>
<g id="a_node10"><a xlink:href="icns__diffusion_8_h.html" target="_top" xlink:title="icns_diffusion.H">
<polygon fill="#ffffff" stroke="#000000" points="518,-56.5 518,-75.5 605,-75.5 605,-56.5 518,-56.5"/>
<text text-anchor="middle" x="561.5" y="-63.5" font-family="Helvetica,sans-Serif" font-size="10.00" fill="#000000">icns_diffusion.H</text>
</a>
</g>
</g>
<!-- Node52&#45;&gt;Node61 -->
<g id="edge23" class="edge">
<title>Node52&#45;&gt;Node61</title>
<path fill="none" stroke="#191970" d="M578.2675,-214.2601C574.1855,-178.1669 565.658,-102.7656 562.6115,-75.8279"/>
<polygon fill="#191970" stroke="#191970" points="574.8223,-214.9429 579.424,-224.4862 581.778,-214.1562 574.8223,-214.9429"/>
</g>
<!-- Node69 -->
<g id="node18" class="node">
<title>Node69</title>
<g id="a_node18"><a xlink:href="_diffusion_ops_8cpp.html" target="_top" xlink:title="DiffusionOps.cpp">
<polygon fill="#ffffff" stroke="#000000" points="627.5,-168.5 627.5,-187.5 719.5,-187.5 719.5,-168.5 627.5,-168.5"/>
<text text-anchor="middle" x="673.5" y="-175.5" font-family="Helvetica,sans-Serif" font-size="10.00" fill="#000000">DiffusionOps.cpp</text>
</a>
</g>
</g>
<!-- Node52&#45;&gt;Node69 -->
<g id="edge21" class="edge">
<title>Node52&#45;&gt;Node69</title>
<path fill="none" stroke="#191970" d="M605.3335,-219.0465C621.8811,-209.0824 643.1432,-196.2794 657.4863,-187.6427"/>
<polygon fill="#191970" stroke="#191970" points="603.4607,-216.0886 596.6994,-224.2455 607.0717,-222.0854 603.4607,-216.0886"/>
</g>
<!-- Node54 -->
<g id="node3" class="node">
<title>Node54</title>
<g id="a_node3"><a xlink:href="density_8_h.html" target="_top" xlink:title="density.H">
<polygon fill="#ffffff" stroke="#000000" points="229,-112.5 229,-131.5 288,-131.5 288,-112.5 229,-112.5"/>
<text text-anchor="middle" x="258.5" y="-119.5" font-family="Helvetica,sans-Serif" font-size="10.00" fill="#000000">density.H</text>
</a>
</g>
</g>
<!-- Node53&#45;&gt;Node54 -->
<g id="edge2" class="edge">
<title>Node53&#45;&gt;Node54</title>
<path fill="none" stroke="#191970" d="M282.6904,-159.6296C276.6856,-150.2887 269.6341,-139.3197 264.6989,-131.6427"/>
<polygon fill="#191970" stroke="#191970" points="279.8775,-161.7264 288.2293,-168.2455 285.7658,-157.9411 279.8775,-161.7264"/>
</g>
<!-- Node57 -->
<g id="node6" class="node">
<title>Node57</title>
<g id="a_node6"><a xlink:href="icns_8_h.html" target="_top" xlink:title="icns.H">
<polygon fill="#ffffff" stroke="#000000" points="467,-112.5 467,-131.5 512,-131.5 512,-112.5 467,-112.5"/>
<text text-anchor="middle" x="489.5" y="-119.5" font-family="Helvetica,sans-Serif" font-size="10.00" fill="#000000">icns.H</text>
</a>
</g>
</g>
<!-- Node53&#45;&gt;Node57 -->
<g id="edge6" class="edge">
<title>Node53&#45;&gt;Node57</title>
<path fill="none" stroke="#191970" d="M328.5621,-168.2181C368.2278,-156.8269 432.6479,-138.3268 466.7105,-128.5447"/>
<polygon fill="#191970" stroke="#191970" points="327.448,-164.8965 318.8026,-171.0208 329.3802,-171.6245 327.448,-164.8965"/>
</g>
<!-- Node63 -->
<g id="node12" class="node">
<title>Node63</title>
<g id="a_node12"><a xlink:href="_s_d_r_8_h.html" target="_top" xlink:title="SDR.H">
<polygon fill="#ffffff" stroke="#000000" points="34,-112.5 34,-131.5 83,-131.5 83,-112.5 34,-112.5"/>
<text text-anchor="middle" x="58.5" y="-119.5" font-family="Helvetica,sans-Serif" font-size="10.00" fill="#000000">SDR.H</text>
</a>
</g>
</g>
<!-- Node53&#45;&gt;Node63 -->
<g id="edge15" class="edge">
<title>Node53&#45;&gt;Node63</title>
<path fill="none" stroke="#191970" d="M260.2725,-170.49C220.5504,-161.6814 153.1231,-146.4417 95.5,-132 91.4982,-130.9971 87.2646,-129.8934 83.1461,-128.7966"/>
<polygon fill="#191970" stroke="#191970" points="259.7111,-173.9504 270.231,-172.6923 261.2226,-167.1155 259.7111,-173.9504"/>
</g>
<!-- Node65 -->
<g id="node14" class="node">
<title>Node65</title>
<g id="a_node14"><a xlink:href="temperature_8_h.html" target="_top" xlink:title="temperature.H">
<polygon fill="#ffffff" stroke="#000000" points="105,-112.5 105,-131.5 184,-131.5 184,-112.5 105,-112.5"/>
<text text-anchor="middle" x="144.5" y="-119.5" font-family="Helvetica,sans-Serif" font-size="10.00" fill="#000000">temperature.H</text>
</a>
</g>
</g>
<!-- Node53&#45;&gt;Node65 -->
<g id="edge17" class="edge">
<title>Node53&#45;&gt;Node65</title>
<path fill="none" stroke="#191970" d="M260.8025,-165.4196C233.3104,-155.1559 195.0587,-140.8752 170.0464,-131.5373"/>
<polygon fill="#191970" stroke="#191970" points="259.8073,-168.784 270.3999,-169.0026 262.2556,-162.2261 259.8073,-168.784"/>
</g>
<!-- Node67 -->
<g id="node16" class="node">
<title>Node67</title>
<g id="a_node16"><a xlink:href="_t_k_e_8_h.html" target="_top" xlink:title="TKE.H">
<polygon fill="#ffffff" stroke="#000000" points="314,-112.5 314,-131.5 361,-131.5 361,-112.5 314,-112.5"/>
<text text-anchor="middle" x="337.5" y="-119.5" font-family="Helvetica,sans-Serif" font-size="10.00" fill="#000000">TKE.H</text>
</a>
</g>
</g>
<!-- Node53&#45;&gt;Node67 -->
<g id="edge19" class="edge">
<title>Node53&#45;&gt;Node67</title>
<path fill="none" stroke="#191970" d="M308.1592,-160.2112C315.4263,-150.7472 324.0781,-139.4797 330.0958,-131.6427"/>
<polygon fill="#191970" stroke="#191970" points="305.3043,-158.1824 301.99,-168.2455 310.8564,-162.4456 305.3043,-158.1824"/>
</g>
<!-- Node55 -->
<g id="node4" class="node">
<title>Node55</title>
<g id="a_node4"><a xlink:href="density_8cpp.html" target="_top" xlink:title="density.cpp">
<polygon fill="#ffffff" stroke="#000000" points="191,-.5 191,-19.5 258,-19.5 258,-.5 191,-.5"/>
<text text-anchor="middle" x="224.5" y="-7.5" font-family="Helvetica,sans-Serif" font-size="10.00" fill="#000000">density.cpp</text>
</a>
</g>
</g>
<!-- Node54&#45;&gt;Node55 -->
<g id="edge3" class="edge">
<title>Node54&#45;&gt;Node55</title>
<path fill="none" stroke="#191970" d="M234.5955,-106.2861C224.8842,-98.4665 214.7337,-88.0919 209.5,-76 201.2852,-57.0206 211.4556,-32.9426 218.6143,-19.7472"/>
<polygon fill="#191970" stroke="#191970" points="232.7766,-109.2962 242.882,-112.4791 236.9671,-103.6891 232.7766,-109.2962"/>
</g>
<!-- Node56 -->
<g id="node5" class="node">
<title>Node56</title>
<g id="a_node5"><a xlink:href="density__ops_8_h.html" target="_top" xlink:title="density_ops.H">
<polygon fill="#ffffff" stroke="#000000" points="218.5,-56.5 218.5,-75.5 298.5,-75.5 298.5,-56.5 218.5,-56.5"/>
<text text-anchor="middle" x="258.5" y="-63.5" font-family="Helvetica,sans-Serif" font-size="10.00" fill="#000000">density_ops.H</text>
</a>
</g>
</g>
<!-- Node54&#45;&gt;Node56 -->
<g id="edge4" class="edge">
<title>Node54&#45;&gt;Node56</title>
<path fill="none" stroke="#191970" d="M258.5,-102.1575C258.5,-93.155 258.5,-82.9199 258.5,-75.6427"/>
<polygon fill="#191970" stroke="#191970" points="255.0001,-102.2455 258.5,-112.2455 262.0001,-102.2456 255.0001,-102.2455"/>
</g>
<!-- Node56&#45;&gt;Node55 -->
<g id="edge5" class="edge">
<title>Node56&#45;&gt;Node55</title>
<path fill="none" stroke="#191970" d="M247.3465,-47.6296C241.6753,-38.2887 235.0155,-27.3197 230.3545,-19.6427"/>
<polygon fill="#191970" stroke="#191970" points="244.3961,-49.5141 252.5777,-56.2455 250.3796,-45.8812 244.3961,-49.5141"/>
</g>
<!-- Node58 -->
<g id="node7" class="node">
<title>Node58</title>
<g id="a_node7"><a xlink:href="icns_8cpp.html" target="_top" xlink:title="icns.cpp">
<polygon fill="#ffffff" stroke="#000000" points="499,-.5 499,-19.5 552,-19.5 552,-.5 499,-.5"/>
<text text-anchor="middle" x="525.5" y="-7.5" font-family="Helvetica,sans-Serif" font-size="10.00" fill="#000000">icns.cpp</text>
</a>
</g>
</g>
<!-- Node57&#45;&gt;Node58 -->
<g id="edge7" class="edge">
<title>Node57&#45;&gt;Node58</title>
<path fill="none" stroke="#191970" d="M495.2489,-102.2787C499.1384,-89.1275 504.4655,-71.4774 509.5,-56 513.5802,-43.4565 518.629,-29.1188 521.9509,-19.8315"/>
<polygon fill="#191970" stroke="#191970" points="491.8181,-101.54 492.3579,-112.1211 498.5344,-103.5128 491.8181,-101.54"/>
</g>
<!-- Node57&#45;&gt;Node59 -->
<g id="edge8" class="edge">
<title>Node57&#45;&gt;Node59</title>
<path fill="none" stroke="#191970" d="M521.8333,-111.1577C552.6021,-100.84 598.4553,-85.4641 627.9177,-75.5845"/>
<polygon fill="#191970" stroke="#191970" points="520.3907,-107.9498 512.0224,-114.4476 522.6163,-114.5866 520.3907,-107.9498"/>
</g>
<!-- Node57&#45;&gt;Node61 -->
<g id="edge11" class="edge">
<title>Node57&#45;&gt;Node61</title>
<path fill="none" stroke="#191970" d="M510.164,-105.928C522.7489,-96.1397 538.4092,-83.9595 549.1023,-75.6427"/>
<polygon fill="#191970" stroke="#191970" points="507.7862,-103.3434 502.0414,-112.2455 512.0838,-108.8688 507.7862,-103.3434"/>
</g>
<!-- Node62 -->
<g id="node11" class="node">
<title>Node62</title>
<g id="a_node11"><a xlink:href="icns__bcop_8_h.html" target="_top" xlink:title="icns_bcop.H">
<polygon fill="#ffffff" stroke="#000000" points="390,-56.5 390,-75.5 461,-75.5 461,-56.5 390,-56.5"/>
<text text-anchor="middle" x="425.5" y="-63.5" font-family="Helvetica,sans-Serif" font-size="10.00" fill="#000000">icns_bcop.H</text>
</a>
</g>
</g>
<!-- Node57&#45;&gt;Node62 -->
<g id="edge13" class="edge">
<title>Node57&#45;&gt;Node62</title>
<path fill="none" stroke="#191970" d="M470.8086,-105.645C459.6781,-95.9058 445.9337,-83.8795 436.5202,-75.6427"/>
<polygon fill="#191970" stroke="#191970" points="468.5215,-108.2945 478.3521,-112.2455 473.131,-103.0264 468.5215,-108.2945"/>
</g>
<!-- Node59&#45;&gt;Node58 -->
<g id="edge9" class="edge">
<title>Node59&#45;&gt;Node58</title>
<path fill="none" stroke="#191970" d="M624.6466,-52.3833C600.8215,-42.1985 568.8432,-28.5284 547.7258,-19.5011"/>
<polygon fill="#191970" stroke="#191970" points="623.4094,-55.6608 633.9803,-56.3733 626.161,-49.2242 623.4094,-55.6608"/>
</g>
<!-- Node60 -->
<g id="node9" class="node">
<title>Node60</title>
<g id="a_node9"><a xlink:href="icns__ops_8cpp.html" target="_top" xlink:title="icns_ops.cpp">
<polygon fill="#ffffff" stroke="#000000" points="619.5,-.5 619.5,-19.5 693.5,-19.5 693.5,-.5 619.5,-.5"/>
<text text-anchor="middle" x="656.5" y="-7.5" font-family="Helvetica,sans-Serif" font-size="10.00" fill="#000000">icns_ops.cpp</text>
</a>
</g>
</g>
<!-- Node59&#45;&gt;Node60 -->
<g id="edge10" class="edge">
<title>Node59&#45;&gt;Node60</title>
<path fill="none" stroke="#191970" d="M656.5,-46.1575C656.5,-37.155 656.5,-26.9199 656.5,-19.6427"/>
<polygon fill="#191970" stroke="#191970" points="653.0001,-46.2455 656.5,-56.2455 660.0001,-46.2456 653.0001,-46.2455"/>
</g>
<!-- Node61&#45;&gt;Node58 -->
<g id="edge12" class="edge">
<title>Node61&#45;&gt;Node58</title>
<path fill="none" stroke="#191970" d="M549.6904,-47.6296C543.6856,-38.2887 536.6341,-27.3197 531.6989,-19.6427"/>
<polygon fill="#191970" stroke="#191970" points="546.8775,-49.7264 555.2293,-56.2455 552.7658,-45.9411 546.8775,-49.7264"/>
</g>
<!-- Node62&#45;&gt;Node58 -->
<g id="edge14" class="edge">
<title>Node62&#45;&gt;Node58</title>
<path fill="none" stroke="#191970" d="M451.7098,-51.3225C469.5717,-41.3198 492.7155,-28.3593 508.2809,-19.6427"/>
<polygon fill="#191970" stroke="#191970" points="449.9336,-48.3057 442.9187,-56.2455 453.3539,-54.4132 449.9336,-48.3057"/>
</g>
<!-- Node64 -->
<g id="node13" class="node">
<title>Node64</title>
<g id="a_node13"><a xlink:href="_s_d_r_8cpp.html" target="_top" xlink:title="SDR.cpp">
<polygon fill="#ffffff" stroke="#000000" points="0,-56.5 0,-75.5 57,-75.5 57,-56.5 0,-56.5"/>
<text text-anchor="middle" x="28.5" y="-63.5" font-family="Helvetica,sans-Serif" font-size="10.00" fill="#000000">SDR.cpp</text>
</a>
</g>
</g>
<!-- Node63&#45;&gt;Node64 -->
<g id="edge16" class="edge">
<title>Node63&#45;&gt;Node64</title>
<path fill="none" stroke="#191970" d="M48.502,-103.3372C43.5324,-94.0605 37.7356,-83.2398 33.6657,-75.6427"/>
<polygon fill="#191970" stroke="#191970" points="45.4669,-105.0835 53.2744,-112.2455 51.6373,-101.7779 45.4669,-105.0835"/>
</g>
<!-- Node66 -->
<g id="node15" class="node">
<title>Node66</title>
<g id="a_node15"><a xlink:href="temperature_8cpp.html" target="_top" xlink:title="temperature.cpp">
<polygon fill="#ffffff" stroke="#000000" points="75,-56.5 75,-75.5 162,-75.5 162,-56.5 75,-56.5"/>
<text text-anchor="middle" x="118.5" y="-63.5" font-family="Helvetica,sans-Serif" font-size="10.00" fill="#000000">temperature.cpp</text>
</a>
</g>
</g>
<!-- Node65&#45;&gt;Node66 -->
<g id="edge18" class="edge">
<title>Node65&#45;&gt;Node66</title>
<path fill="none" stroke="#191970" d="M135.6989,-103.0437C131.4225,-93.8331 126.467,-83.1598 122.977,-75.6427"/>
<polygon fill="#191970" stroke="#191970" points="132.5854,-104.6494 139.9711,-112.2455 138.9345,-101.7015 132.5854,-104.6494"/>
</g>
<!-- Node68 -->
<g id="node17" class="node">
<title>Node68</title>
<g id="a_node17"><a xlink:href="_t_k_e_8cpp.html" target="_top" xlink:title="TKE.cpp">
<polygon fill="#ffffff" stroke="#000000" points="317,-56.5 317,-75.5 372,-75.5 372,-56.5 317,-56.5"/>
<text text-anchor="middle" x="344.5" y="-63.5" font-family="Helvetica,sans-Serif" font-size="10.00" fill="#000000">TKE.cpp</text>
</a>
</g>
</g>
<!-- Node67&#45;&gt;Node68 -->
<g id="edge20" class="edge">
<title>Node67&#45;&gt;Node68</title>
<path fill="none" stroke="#191970" d="M339.9803,-102.1575C341.1056,-93.155 342.385,-82.9199 343.2947,-75.6427"/>
<polygon fill="#191970" stroke="#191970" points="336.4868,-101.8886 338.7193,-112.2455 343.4327,-102.7569 336.4868,-101.8886"/>
</g>
</g>
</svg>
