<?xml version="1.0" encoding="UTF-8" standalone="no"?>
<!DOCTYPE svg PUBLIC "-//W3C//DTD SVG 1.1//EN"
 "http://www.w3.org/Graphics/SVG/1.1/DTD/svg11.dtd">
<!-- Generated by graphviz version 2.40.1 (20161225.0304)
 -->
<!-- Title: DirectionSelector.H Pages: 1 -->
<!--zoomable 319 -->
<svg id="main" version="1.1" xmlns="http://www.w3.org/2000/svg" xmlns:xlink="http://www.w3.org/1999/xlink" xml:space="preserve" onload="init(evt)">
<style type="text/css"><![CDATA[
.edge:hover path { stroke: red; }
.edge:hover polygon { stroke: red; fill: red; }
]]></style>
<script type="text/javascript"><![CDATA[
var edges = document.getElementsByTagName('g');
if (edges && edges.length) {
  for (var i=0;i<edges.length;i++) {
    if (edges[i].id.substr(0,4)=='edge') {
      edges[i].setAttribute('class','edge');
    }
  }
}
]]></script>
        <defs>
                <circle id="rim" cx="0" cy="0" r="7"/>
                <circle id="rim2" cx="0" cy="0" r="3.5"/>
                <g id="zoomPlus">
                        <use xlink:href="#rim" fill="#404040">
                                <set attributeName="fill" to="#808080" begin="zoomplus.mouseover" end="zoomplus.mouseout"/>
                        </use>
                        <path d="M-4,0h8M0,-4v8" fill="none" stroke="white" stroke-width="1.5" pointer-events="none"/>
                </g>
                <g id="zoomMin">
                        <use xlink:href="#rim" fill="#404040">
                                <set attributeName="fill" to="#808080" begin="zoomminus.mouseover" end="zoomminus.mouseout"/>
                        </use>
                        <path d="M-4,0h8" fill="none" stroke="white" stroke-width="1.5" pointer-events="none"/>
                </g>
                <g id="dirArrow">
                        <path fill="none" stroke="white" stroke-width="1.5" d="M0,-3.0v7 M-2.5,-0.5L0,-3.0L2.5,-0.5"/>
                </g>
               <g id="resetDef">
                       <use xlink:href="#rim2" fill="#404040">
                               <set attributeName="fill" to="#808080" begin="reset.mouseover" end="reset.mouseout"/>
                       </use>
               </g>
        </defs>

<script type="text/javascript">
var viewWidth = 1168;
var viewHeight = 319;
var sectionId = 'dynsection-1';
</script>
<script xlink:href="svgpan.js"/>
<svg id="graph" class="graph">
<g id="viewport">
<title>DirectionSelector.H</title>
<polygon fill="#ffffff" stroke="transparent" points="-4,4 -4,-315 1163.5,-315 1163.5,4 -4,4"/>
<!-- Node2 -->
<g id="node1" class="node">
<title>Node2</title>
<polygon fill="#bfbfbf" stroke="#000000" points="755.5,-291.5 755.5,-310.5 857.5,-310.5 857.5,-291.5 755.5,-291.5"/>
<text text-anchor="middle" x="806.5" y="-298.5" font-family="Helvetica,sans-Serif" font-size="10.00" fill="#000000">DirectionSelector.H</text>
</g>
<!-- Node3 -->
<g id="node2" class="node">
<title>Node3</title>
<g id="a_node2"><a xlink:href="_field_plane_averaging_8_h.html" target="_top" xlink:title="FieldPlaneAveraging.H">
<polygon fill="#ffffff" stroke="#000000" points="416.5,-235.5 416.5,-254.5 532.5,-254.5 532.5,-235.5 416.5,-235.5"/>
<text text-anchor="middle" x="474.5" y="-242.5" font-family="Helvetica,sans-Serif" font-size="10.00" fill="#000000">FieldPlaneAveraging.H</text>
</a>
</g>
</g>
<!-- Node2&#45;&gt;Node3 -->
<g id="edge1" class="edge">
<title>Node2&#45;&gt;Node3</title>
<path fill="none" stroke="#191970" d="M745.4324,-290.6994C684.1662,-280.3654 590.5784,-264.5795 530.9875,-254.528"/>
<polygon fill="#191970" stroke="#191970" points="744.9097,-294.1606 755.3526,-292.3727 746.074,-287.2581 744.9097,-294.1606"/>
</g>
<!-- Node14 -->
<g id="node13" class="node">
<title>Node14</title>
<g id="a_node13"><a xlink:href="_a_b_l_stats_8cpp.html" target="_top" xlink:title="ABLStats.cpp">
<polygon fill="#ffffff" stroke="#000000" points="741,-67.5 741,-86.5 818,-86.5 818,-67.5 741,-67.5"/>
<text text-anchor="middle" x="779.5" y="-74.5" font-family="Helvetica,sans-Serif" font-size="10.00" fill="#000000">ABLStats.cpp</text>
</a>
</g>
</g>
<!-- Node2&#45;&gt;Node14 -->
<g id="edge38" class="edge">
<title>Node2&#45;&gt;Node14</title>
<path fill="none" stroke="#191970" d="M832.633,-286.1158C883.0528,-255.5149 984.9386,-183.3428 939.5,-123 924.8956,-103.6052 860.5532,-89.8555 818.0436,-82.6944"/>
<polygon fill="#191970" stroke="#191970" points="830.6683,-283.2121 823.8646,-291.3336 834.248,-289.2275 830.6683,-283.2121"/>
</g>
<!-- Node16 -->
<g id="node15" class="node">
<title>Node16</title>
<g id="a_node15"><a xlink:href="_second_moment_averaging_8_h.html" target="_top" xlink:title="SecondMomentAveraging.H">
<polygon fill="#ffffff" stroke="#000000" points="737,-179.5 737,-198.5 876,-198.5 876,-179.5 737,-179.5"/>
<text text-anchor="middle" x="806.5" y="-186.5" font-family="Helvetica,sans-Serif" font-size="10.00" fill="#000000">SecondMomentAveraging.H</text>
</a>
</g>
</g>
<!-- Node2&#45;&gt;Node16 -->
<g id="edge31" class="edge">
<title>Node2&#45;&gt;Node16</title>
<path fill="none" stroke="#191970" d="M806.5,-281.2702C806.5,-256.9985 806.5,-216.7725 806.5,-198.5249"/>
<polygon fill="#191970" stroke="#191970" points="803.0001,-281.4509 806.5,-291.4509 810.0001,-281.451 803.0001,-281.4509"/>
</g>
<!-- Node18 -->
<g id="node17" class="node">
<title>Node18</title>
<g id="a_node17"><a xlink:href="_third_moment_averaging_8_h.html" target="_top" xlink:title="ThirdMomentAveraging.H">
<polygon fill="#ffffff" stroke="#000000" points="540.5,-179.5 540.5,-198.5 668.5,-198.5 668.5,-179.5 540.5,-179.5"/>
<text text-anchor="middle" x="604.5" y="-186.5" font-family="Helvetica,sans-Serif" font-size="10.00" fill="#000000">ThirdMomentAveraging.H</text>
</a>
</g>
</g>
<!-- Node2&#45;&gt;Node18 -->
<g id="edge32" class="edge">
<title>Node2&#45;&gt;Node18</title>
<path fill="none" stroke="#191970" d="M780.4762,-286.5709C738.5363,-263.3171 657.1213,-218.1761 621.6788,-198.5249"/>
<polygon fill="#191970" stroke="#191970" points="778.8347,-289.6628 789.2776,-291.4509 782.2291,-283.5408 778.8347,-289.6628"/>
</g>
<!-- Node22 -->
<g id="node21" class="node">
<title>Node22</title>
<g id="a_node21"><a xlink:href="_plane_averaging_8_h.html" target="_top" xlink:title="PlaneAveraging.H">
<polygon fill="#ffffff" stroke="#000000" points="987,-67.5 987,-86.5 1082,-86.5 1082,-67.5 987,-67.5"/>
<text text-anchor="middle" x="1034.5" y="-74.5" font-family="Helvetica,sans-Serif" font-size="10.00" fill="#000000">PlaneAveraging.H</text>
</a>
</g>
</g>
<!-- Node2&#45;&gt;Node22 -->
<g id="edge33" class="edge">
<title>Node2&#45;&gt;Node22</title>
<path fill="none" stroke="#191970" d="M843.5488,-287.5373C862.4958,-279.6671 885.3279,-268.5973 903.5,-255 968.6296,-206.2669 1015.7269,-116.1772 1029.9926,-86.6485"/>
<polygon fill="#191970" stroke="#191970" points="842.0144,-284.3818 834.0402,-291.3577 844.6241,-290.8772 842.0144,-284.3818"/>
</g>
<!-- Node4 -->
<g id="node3" class="node">
<title>Node4</title>
<g id="a_node3"><a xlink:href="_a_b_l_wall_function_8_h.html" target="_top" xlink:title="ABLWallFunction.H">
<polygon fill="#ffffff" stroke="#000000" points="267,-179.5 267,-198.5 370,-198.5 370,-179.5 267,-179.5"/>
<text text-anchor="middle" x="318.5" y="-186.5" font-family="Helvetica,sans-Serif" font-size="10.00" fill="#000000">ABLWallFunction.H</text>
</a>
</g>
</g>
<!-- Node3&#45;&gt;Node4 -->
<g id="edge2" class="edge">
<title>Node3&#45;&gt;Node4</title>
<path fill="none" stroke="#191970" d="M438.0716,-231.9231C409.5539,-221.686 370.5619,-207.6889 344.9674,-198.5011"/>
<polygon fill="#191970" stroke="#191970" points="437.0881,-235.2887 447.6826,-235.3733 439.4532,-228.7004 437.0881,-235.2887"/>
</g>
<!-- Node5 -->
<g id="node4" class="node">
<title>Node5</title>
<g id="a_node4"><a xlink:href="_a_b_l_8_h.html" target="_top" xlink:title="ABL.H">
<polygon fill="#ffffff" stroke="#000000" points="324.5,-67.5 324.5,-86.5 370.5,-86.5 370.5,-67.5 324.5,-67.5"/>
<text text-anchor="middle" x="347.5" y="-74.5" font-family="Helvetica,sans-Serif" font-size="10.00" fill="#000000">ABL.H</text>
</a>
</g>
</g>
<!-- Node3&#45;&gt;Node5 -->
<g id="edge16" class="edge">
<title>Node3&#45;&gt;Node5</title>
<path fill="none" stroke="#191970" d="M460.9679,-227.0993C434.2779,-191.7928 375.6456,-114.232 354.9294,-86.8279"/>
<polygon fill="#191970" stroke="#191970" points="458.4857,-229.6197 467.308,-235.4862 464.0697,-225.3984 458.4857,-229.6197"/>
</g>
<!-- Node11 -->
<g id="node10" class="node">
<title>Node11</title>
<g id="a_node10"><a xlink:href="_a_b_l_8cpp.html" target="_top" xlink:title="ABL.cpp">
<polygon fill="#ffffff" stroke="#000000" points="641.5,-6 641.5,-25 695.5,-25 695.5,-6 641.5,-6"/>
<text text-anchor="middle" x="668.5" y="-13" font-family="Helvetica,sans-Serif" font-size="10.00" fill="#000000">ABL.cpp</text>
</a>
</g>
</g>
<!-- Node3&#45;&gt;Node11 -->
<g id="edge30" class="edge">
<title>Node3&#45;&gt;Node11</title>
<path fill="none" stroke="#191970" d="M472.9657,-225.5015C471.9295,-199.8088 473.594,-154.2281 494.5,-123 514.0561,-93.7883 607.4491,-45.4563 648.764,-25.0554"/>
<polygon fill="#191970" stroke="#191970" points="469.4719,-225.7114 473.5495,-235.4901 476.4599,-225.3029 469.4719,-225.7114"/>
</g>
<!-- Node13 -->
<g id="node12" class="node">
<title>Node13</title>
<g id="a_node12"><a xlink:href="_a_b_l_stats_8_h.html" target="_top" xlink:title="ABLStats.H">
<polygon fill="#ffffff" stroke="#000000" points="503,-123.5 503,-142.5 572,-142.5 572,-123.5 503,-123.5"/>
<text text-anchor="middle" x="537.5" y="-130.5" font-family="Helvetica,sans-Serif" font-size="10.00" fill="#000000">ABLStats.H</text>
</a>
</g>
</g>
<!-- Node3&#45;&gt;Node13 -->
<g id="edge17" class="edge">
<title>Node3&#45;&gt;Node13</title>
<path fill="none" stroke="#191970" d="M484.8656,-226.5723C498.4277,-202.4618 521.6922,-161.1028 532.1423,-142.5249"/>
<polygon fill="#191970" stroke="#191970" points="481.7235,-225.0192 479.8713,-235.4509 487.8245,-228.4511 481.7235,-225.0192"/>
</g>
<!-- Node3&#45;&gt;Node16 -->
<g id="edge18" class="edge">
<title>Node3&#45;&gt;Node16</title>
<path fill="none" stroke="#191970" d="M541.1508,-233.7577C602.4118,-223.4245 692.2308,-208.2743 750.0382,-198.5237"/>
<polygon fill="#191970" stroke="#191970" points="540.4741,-230.3223 531.1956,-235.4369 541.6385,-237.2248 540.4741,-230.3223"/>
</g>
<!-- Node3&#45;&gt;Node18 -->
<g id="edge22" class="edge">
<title>Node3&#45;&gt;Node18</title>
<path fill="none" stroke="#191970" d="M506.1102,-231.3833C529.7535,-221.1985 561.4876,-207.5284 582.4438,-198.5011"/>
<polygon fill="#191970" stroke="#191970" points="504.6472,-228.2025 496.8478,-235.3733 507.4166,-234.6314 504.6472,-228.2025"/>
</g>
<!-- Node20 -->
<g id="node19" class="node">
<title>Node20</title>
<g id="a_node19"><a xlink:href="_a_b_l_mean_boussinesq_8_h.html" target="_top" xlink:title="ABLMeanBoussinesq.H">
<polygon fill="#ffffff" stroke="#000000" points="389,-67.5 389,-86.5 510,-86.5 510,-67.5 389,-67.5"/>
<text text-anchor="middle" x="449.5" y="-74.5" font-family="Helvetica,sans-Serif" font-size="10.00" fill="#000000">ABLMeanBoussinesq.H</text>
</a>
</g>
</g>
<!-- Node3&#45;&gt;Node20 -->
<g id="edge26" class="edge">
<title>Node3&#45;&gt;Node20</title>
<path fill="none" stroke="#191970" d="M467.6378,-225.6313C465.0118,-217.5015 462.2339,-207.8872 460.5,-199 452.4368,-157.6716 450.2661,-107.292 449.6964,-86.5851"/>
<polygon fill="#191970" stroke="#191970" points="464.3812,-226.9268 470.9018,-235.2774 471.0119,-224.6832 464.3812,-226.9268"/>
</g>
<!-- Node21 -->
<g id="node20" class="node">
<title>Node21</title>
<g id="a_node20"><a xlink:href="_field_plane_averaging_8cpp.html" target="_top" xlink:title="FieldPlaneAveraging.cpp">
<polygon fill="#ffffff" stroke="#000000" points="124,-179.5 124,-198.5 249,-198.5 249,-179.5 124,-179.5"/>
<text text-anchor="middle" x="186.5" y="-186.5" font-family="Helvetica,sans-Serif" font-size="10.00" fill="#000000">FieldPlaneAveraging.cpp</text>
</a>
</g>
</g>
<!-- Node3&#45;&gt;Node21 -->
<g id="edge29" class="edge">
<title>Node3&#45;&gt;Node21</title>
<path fill="none" stroke="#191970" d="M415.3625,-233.501C362.2571,-223.175 285.2115,-208.1939 235.4789,-198.5237"/>
<polygon fill="#191970" stroke="#191970" points="414.834,-236.9638 425.3183,-235.4369 416.1702,-230.0925 414.834,-236.9638"/>
</g>
<!-- Node4&#45;&gt;Node5 -->
<g id="edge3" class="edge">
<title>Node4&#45;&gt;Node5</title>
<path fill="none" stroke="#191970" d="M323.5235,-169.5987C329.7989,-145.363 340.2875,-104.8551 345.0337,-86.5249"/>
<polygon fill="#191970" stroke="#191970" points="320.091,-168.8929 320.9725,-179.4509 326.8675,-170.6475 320.091,-168.8929"/>
</g>
<!-- Node12 -->
<g id="node11" class="node">
<title>Node12</title>
<g id="a_node11"><a xlink:href="_a_b_l_wall_function_8cpp.html" target="_top" xlink:title="ABLWallFunction.cpp">
<polygon fill="#ffffff" stroke="#000000" points="0,-6 0,-25 111,-25 111,-6 0,-6"/>
<text text-anchor="middle" x="55.5" y="-13" font-family="Helvetica,sans-Serif" font-size="10.00" fill="#000000">ABLWallFunction.cpp</text>
</a>
</g>
</g>
<!-- Node4&#45;&gt;Node12 -->
<g id="edge15" class="edge">
<title>Node4&#45;&gt;Node12</title>
<path fill="none" stroke="#191970" d="M272.1483,-176.5086C247.9738,-168.855 218.5189,-157.6849 194.5,-143 137.7849,-108.325 83.6133,-48.4705 63.6138,-25.1732"/>
<polygon fill="#191970" stroke="#191970" points="271.2249,-179.8863 281.8116,-179.4718 273.2772,-173.1938 271.2249,-179.8863"/>
</g>
<!-- Node4&#45;&gt;Node13 -->
<g id="edge11" class="edge">
<title>Node4&#45;&gt;Node13</title>
<path fill="none" stroke="#191970" d="M365.9666,-176.8624C407.1955,-166.3199 465.9337,-151.3001 502.8677,-141.8557"/>
<polygon fill="#191970" stroke="#191970" points="364.9686,-173.5049 356.1474,-179.3733 366.7028,-180.2867 364.9686,-173.5049"/>
</g>
<!-- Node15 -->
<g id="node14" class="node">
<title>Node15</title>
<g id="a_node14"><a xlink:href="_boussinesq_bubble_8cpp.html" target="_top" xlink:title="BoussinesqBubble.cpp">
<polygon fill="#ffffff" stroke="#000000" points="203.5,-123.5 203.5,-142.5 319.5,-142.5 319.5,-123.5 203.5,-123.5"/>
<text text-anchor="middle" x="261.5" y="-130.5" font-family="Helvetica,sans-Serif" font-size="10.00" fill="#000000">BoussinesqBubble.cpp</text>
</a>
</g>
</g>
<!-- Node4&#45;&gt;Node15 -->
<g id="edge14" class="edge">
<title>Node4&#45;&gt;Node15</title>
<path fill="none" stroke="#191970" d="M301.2729,-172.0751C291.4659,-162.4402 279.536,-150.7196 271.3149,-142.6427"/>
<polygon fill="#191970" stroke="#191970" points="298.9851,-174.734 308.5714,-179.2455 303.8909,-169.7406 298.9851,-174.734"/>
</g>
<!-- Node6 -->
<g id="node5" class="node">
<title>Node6</title>
<g id="a_node5"><a xlink:href="incflo__set__velocity__bcs_8cpp.html" target="_top" xlink:title="incflo_set_velocity\l_bcs.cpp">
<polygon fill="#ffffff" stroke="#000000" points="129.5,-.5 129.5,-30.5 227.5,-30.5 227.5,-.5 129.5,-.5"/>
<text text-anchor="start" x="137.5" y="-18.5" font-family="Helvetica,sans-Serif" font-size="10.00" fill="#000000">incflo_set_velocity</text>
<text text-anchor="middle" x="178.5" y="-7.5" font-family="Helvetica,sans-Serif" font-size="10.00" fill="#000000">_bcs.cpp</text>
</a>
</g>
</g>
<!-- Node5&#45;&gt;Node6 -->
<g id="edge4" class="edge">
<title>Node5&#45;&gt;Node6</title>
<path fill="none" stroke="#191970" d="M314.9414,-65.1518C287.8538,-55.2944 249.1323,-41.2035 219.8547,-30.5492"/>
<polygon fill="#191970" stroke="#191970" points="313.7616,-68.4469 324.3556,-68.5776 316.1554,-61.8689 313.7616,-68.4469"/>
</g>
<!-- Node7 -->
<g id="node6" class="node">
<title>Node7</title>
<g id="a_node6"><a xlink:href="_a_b_l_forcing_8cpp.html" target="_top" xlink:title="ABLForcing.cpp">
<polygon fill="#ffffff" stroke="#000000" points="537.5,-6 537.5,-25 623.5,-25 623.5,-6 537.5,-6"/>
<text text-anchor="middle" x="580.5" y="-13" font-family="Helvetica,sans-Serif" font-size="10.00" fill="#000000">ABLForcing.cpp</text>
</a>
</g>
</g>
<!-- Node5&#45;&gt;Node7 -->
<g id="edge5" class="edge">
<title>Node5&#45;&gt;Node7</title>
<path fill="none" stroke="#191970" d="M380.1963,-67.083C380.2977,-67.0553 380.3989,-67.0276 380.5,-67 445.8074,-49.177 463.1523,-48.6746 528.5,-31 535.3202,-29.1553 542.6073,-27.0612 549.5025,-25.022"/>
<polygon fill="#191970" stroke="#191970" points="379.1866,-63.7314 370.5317,-69.8423 381.1084,-70.4624 379.1866,-63.7314"/>
</g>
<!-- Node8 -->
<g id="node7" class="node">
<title>Node8</title>
<g id="a_node7"><a xlink:href="_a_b_l_mean_boussinesq_8cpp.html" target="_top" xlink:title="ABLMeanBoussinesq.cpp">
<polygon fill="#ffffff" stroke="#000000" points="390,-6 390,-25 519,-25 519,-6 390,-6"/>
<text text-anchor="middle" x="454.5" y="-13" font-family="Helvetica,sans-Serif" font-size="10.00" fill="#000000">ABLMeanBoussinesq.cpp</text>
</a>
</g>
</g>
<!-- Node5&#45;&gt;Node8 -->
<g id="edge6" class="edge">
<title>Node5&#45;&gt;Node8</title>
<path fill="none" stroke="#191970" d="M373.1478,-62.2585C393.2366,-50.7122 420.5905,-34.99 437.8987,-25.0419"/>
<polygon fill="#191970" stroke="#191970" points="371.1446,-59.3729 364.2188,-67.3906 374.6328,-65.4419 371.1446,-59.3729"/>
</g>
<!-- Node9 -->
<g id="node8" class="node">
<title>Node9</title>
<g id="a_node8"><a xlink:href="incflo_8cpp.html" target="_top" xlink:title="incflo.cpp">
<polygon fill="#ffffff" stroke="#000000" points="246,-6 246,-25 305,-25 305,-6 246,-6"/>
<text text-anchor="middle" x="275.5" y="-13" font-family="Helvetica,sans-Serif" font-size="10.00" fill="#000000">incflo.cpp</text>
</a>
</g>
</g>
<!-- Node5&#45;&gt;Node9 -->
<g id="edge7" class="edge">
<title>Node5&#45;&gt;Node9</title>
<path fill="none" stroke="#191970" d="M328.6152,-60.8692C315.3723,-49.5576 298.1024,-34.8062 286.9086,-25.2449"/>
<polygon fill="#191970" stroke="#191970" points="326.373,-63.557 336.25,-67.3906 330.9195,-58.2344 326.373,-63.557"/>
</g>
<!-- Node10 -->
<g id="node9" class="node">
<title>Node10</title>
<g id="a_node9"><a xlink:href="init_8cpp.html" target="_top" xlink:title="init.cpp">
<polygon fill="#ffffff" stroke="#000000" points="323.5,-6 323.5,-25 371.5,-25 371.5,-6 323.5,-6"/>
<text text-anchor="middle" x="347.5" y="-13" font-family="Helvetica,sans-Serif" font-size="10.00" fill="#000000">init.cpp</text>
</a>
</g>
</g>
<!-- Node5&#45;&gt;Node10 -->
<g id="edge8" class="edge">
<title>Node5&#45;&gt;Node10</title>
<path fill="none" stroke="#191970" d="M347.5,-57.2462C347.5,-46.5519 347.5,-33.814 347.5,-25.2449"/>
<polygon fill="#191970" stroke="#191970" points="344.0001,-57.3906 347.5,-67.3906 351.0001,-57.3907 344.0001,-57.3906"/>
</g>
<!-- Node5&#45;&gt;Node11 -->
<g id="edge9" class="edge">
<title>Node5&#45;&gt;Node11</title>
<path fill="none" stroke="#191970" d="M380.8195,-67.2741C492.8673,-43.5665 526.6748,-60.7707 632.5,-31 637.8713,-29.4889 643.4953,-27.3556 648.6589,-25.1537"/>
<polygon fill="#191970" stroke="#191970" points="379.8447,-63.9043 370.8193,-69.4534 381.3353,-70.7438 379.8447,-63.9043"/>
</g>
<!-- Node5&#45;&gt;Node12 -->
<g id="edge10" class="edge">
<title>Node5&#45;&gt;Node12</title>
<path fill="none" stroke="#191970" d="M314.3222,-70.6452C270.0377,-62.0788 189.2076,-46.149 120.5,-31 112.1165,-29.1516 103.1485,-27.0766 94.6344,-25.0606"/>
<polygon fill="#191970" stroke="#191970" points="313.7612,-74.1014 324.2432,-72.5593 315.0873,-67.2281 313.7612,-74.1014"/>
</g>
<!-- Node13&#45;&gt;Node5 -->
<g id="edge12" class="edge">
<title>Node13&#45;&gt;Node5</title>
<path fill="none" stroke="#191970" d="M494.9016,-120.634C463.304,-111.4335 419.1846,-98.5282 380.5,-87 377.2872,-86.0426 373.9009,-85.0255 370.5708,-84.0207"/>
<polygon fill="#191970" stroke="#191970" points="494.1181,-124.0512 504.6978,-123.4846 496.0739,-117.3299 494.1181,-124.0512"/>
</g>
<!-- Node13&#45;&gt;Node14 -->
<g id="edge13" class="edge">
<title>Node13&#45;&gt;Node14</title>
<path fill="none" stroke="#191970" d="M582.0652,-122.6874C627.6139,-112.1472 697.6319,-95.9447 740.891,-85.9343"/>
<polygon fill="#191970" stroke="#191970" points="581.1262,-119.3121 572.1727,-124.9766 582.7043,-126.1319 581.1262,-119.3121"/>
</g>
<!-- Node16&#45;&gt;Node11 -->
<g id="edge21" class="edge">
<title>Node16&#45;&gt;Node11</title>
<path fill="none" stroke="#191970" d="M885.9598,-177.0627C923.5668,-167.5815 956.854,-151.0793 939.5,-123 912.5575,-79.406 758.6726,-37.5157 695.5303,-21.9108"/>
<polygon fill="#191970" stroke="#191970" points="884.7463,-173.7521 875.8075,-179.4396 886.3421,-180.5678 884.7463,-173.7521"/>
</g>
<!-- Node16&#45;&gt;Node13 -->
<g id="edge19" class="edge">
<title>Node16&#45;&gt;Node13</title>
<path fill="none" stroke="#191970" d="M750.5066,-177.3434C696.753,-166.153 617.2591,-149.6041 572.1271,-140.2086"/>
<polygon fill="#191970" stroke="#191970" points="750.0594,-180.8253 760.5629,-179.4369 751.4861,-173.9722 750.0594,-180.8253"/>
</g>
<!-- Node17 -->
<g id="node16" class="node">
<title>Node17</title>
<g id="a_node16"><a xlink:href="_second_moment_averaging_8cpp.html" target="_top" xlink:title="SecondMomentAveraging.cpp">
<polygon fill="#ffffff" stroke="#000000" points="783,-123.5 783,-142.5 930,-142.5 930,-123.5 783,-123.5"/>
<text text-anchor="middle" x="856.5" y="-130.5" font-family="Helvetica,sans-Serif" font-size="10.00" fill="#000000">SecondMomentAveraging.cpp</text>
</a>
</g>
</g>
<!-- Node16&#45;&gt;Node17 -->
<g id="edge20" class="edge">
<title>Node16&#45;&gt;Node17</title>
<path fill="none" stroke="#191970" d="M822.1247,-171.5004C830.6273,-161.9775 840.8218,-150.5596 847.8905,-142.6427"/>
<polygon fill="#191970" stroke="#191970" points="819.2587,-169.4551 815.2093,-179.2455 824.4803,-174.1172 819.2587,-169.4551"/>
</g>
<!-- Node18&#45;&gt;Node11 -->
<g id="edge25" class="edge">
<title>Node18&#45;&gt;Node11</title>
<path fill="none" stroke="#191970" d="M607.8446,-169.5072C610.3884,-156.2122 614.3321,-138.3082 619.5,-123 632.1616,-85.4942 653.5822,-43.4398 663.3584,-25.0126"/>
<polygon fill="#191970" stroke="#191970" points="604.3853,-168.9683 606.041,-179.433 611.2725,-170.2198 604.3853,-168.9683"/>
</g>
<!-- Node18&#45;&gt;Node13 -->
<g id="edge23" class="edge">
<title>Node18&#45;&gt;Node13</title>
<path fill="none" stroke="#191970" d="M584.9324,-172.645C573.2802,-162.9058 558.8916,-150.8795 549.0368,-142.6427"/>
<polygon fill="#191970" stroke="#191970" points="582.9121,-175.5179 592.8295,-179.2455 587.4012,-170.1469 582.9121,-175.5179"/>
</g>
<!-- Node19 -->
<g id="node18" class="node">
<title>Node19</title>
<g id="a_node18"><a xlink:href="_third_moment_averaging_8cpp.html" target="_top" xlink:title="ThirdMomentAveraging.cpp">
<polygon fill="#ffffff" stroke="#000000" points="628.5,-123.5 628.5,-142.5 764.5,-142.5 764.5,-123.5 628.5,-123.5"/>
<text text-anchor="middle" x="696.5" y="-130.5" font-family="Helvetica,sans-Serif" font-size="10.00" fill="#000000">ThirdMomentAveraging.cpp</text>
</a>
</g>
</g>
<!-- Node18&#45;&gt;Node19 -->
<g id="edge24" class="edge">
<title>Node18&#45;&gt;Node19</title>
<path fill="none" stroke="#191970" d="M629.5224,-173.769C645.825,-163.8456 666.601,-151.1994 680.6585,-142.6427"/>
<polygon fill="#191970" stroke="#191970" points="627.2473,-171.0563 620.5252,-179.2455 630.887,-177.0357 627.2473,-171.0563"/>
</g>
<!-- Node20&#45;&gt;Node8 -->
<g id="edge27" class="edge">
<title>Node20&#45;&gt;Node8</title>
<path fill="none" stroke="#191970" d="M451.106,-57.2462C451.9755,-46.5519 453.0111,-33.814 453.7077,-25.2449"/>
<polygon fill="#191970" stroke="#191970" points="447.6032,-57.1399 450.2813,-67.3906 454.5802,-57.7072 447.6032,-57.1399"/>
</g>
<!-- Node20&#45;&gt;Node11 -->
<g id="edge28" class="edge">
<title>Node20&#45;&gt;Node11</title>
<path fill="none" stroke="#191970" d="M505.9419,-65.2735C542.4659,-57.0847 590.8066,-45.1142 632.5,-31 637.5274,-29.2981 642.8333,-27.1944 647.7812,-25.0916"/>
<polygon fill="#191970" stroke="#191970" points="504.9759,-61.9025 495.9689,-67.4815 506.4891,-68.737 504.9759,-61.9025"/>
</g>
<!-- Node22&#45;&gt;Node7 -->
<g id="edge34" class="edge">
<title>Node22&#45;&gt;Node7</title>
<path fill="none" stroke="#191970" d="M976.5538,-73.5781C897.9723,-68.2103 753.5256,-55.7615 632.5,-31 624.8398,-29.4328 616.6807,-27.2524 609.1513,-25.0213"/>
<polygon fill="#191970" stroke="#191970" points="976.5206,-77.0836 986.7319,-74.2587 976.9877,-70.0992 976.5206,-77.0836"/>
</g>
<!-- Node22&#45;&gt;Node11 -->
<g id="edge37" class="edge">
<title>Node22&#45;&gt;Node11</title>
<path fill="none" stroke="#191970" d="M976.7316,-67.293C896.7028,-53.8456 755.2666,-30.0796 695.9206,-20.1076"/>
<polygon fill="#191970" stroke="#191970" points="976.2101,-70.7544 986.6519,-68.9599 977.3702,-63.8512 976.2101,-70.7544"/>
</g>
<!-- Node23 -->
<g id="node22" class="node">
<title>Node23</title>
<g id="a_node22"><a xlink:href="_geostrophic_forcing_8cpp.html" target="_top" xlink:title="GeostrophicForcing.cpp">
<polygon fill="#ffffff" stroke="#000000" points="1039.5,-6 1039.5,-25 1159.5,-25 1159.5,-6 1039.5,-6"/>
<text text-anchor="middle" x="1099.5" y="-13" font-family="Helvetica,sans-Serif" font-size="10.00" fill="#000000">GeostrophicForcing.cpp</text>
</a>
</g>
</g>
<!-- Node22&#45;&gt;Node23 -->
<g id="edge35" class="edge">
<title>Node22&#45;&gt;Node23</title>
<path fill="none" stroke="#191970" d="M1052.2293,-60.2253C1064.0905,-49.0028 1079.2857,-34.6258 1089.2006,-25.2449"/>
<polygon fill="#191970" stroke="#191970" points="1049.5147,-57.9754 1044.6563,-67.3906 1054.3257,-63.0602 1049.5147,-57.9754"/>
</g>
<!-- Node24 -->
<g id="node23" class="node">
<title>Node24</title>
<g id="a_node23"><a xlink:href="_plane_averaging_8cpp.html" target="_top" xlink:title="PlaneAveraging.cpp">
<polygon fill="#ffffff" stroke="#000000" points="917.5,-6 917.5,-25 1021.5,-25 1021.5,-6 917.5,-6"/>
<text text-anchor="middle" x="969.5" y="-13" font-family="Helvetica,sans-Serif" font-size="10.00" fill="#000000">PlaneAveraging.cpp</text>
</a>
</g>
</g>
<!-- Node22&#45;&gt;Node24 -->
<g id="edge36" class="edge">
<title>Node22&#45;&gt;Node24</title>
<path fill="none" stroke="#191970" d="M1016.7707,-60.2253C1004.9095,-49.0028 989.7143,-34.6258 979.7994,-25.2449"/>
<polygon fill="#191970" stroke="#191970" points="1014.6743,-63.0602 1024.3438,-67.3906 1019.4853,-57.9754 1014.6743,-63.0602"/>
</g>
</g>
</svg>
        <g id="navigator" transform="translate(0 0)" fill="#404254">
                <rect fill="#f2f5e9" fill-opacity="0.5" stroke="#606060" stroke-width=".5" x="0" y="0" width="60" height="60"/>
                <use id="zoomplus" xlink:href="#zoomPlus" x="17" y="9" onmousedown="handleZoom(evt,'in')"/>
                <use id="zoomminus" xlink:href="#zoomMin" x="42" y="9" onmousedown="handleZoom(evt,'out')"/>
                <use id="reset" xlink:href="#resetDef" x="30" y="36" onmousedown="handleReset()"/>
                <g id="arrowUp" xlink:href="#dirArrow" transform="translate(30 24)" onmousedown="handlePan(0,-1)">
                  <use xlink:href="#rim" fill="#404040">
                        <set attributeName="fill" to="#808080" begin="arrowUp.mouseover" end="arrowUp.mouseout"/>
                  </use>
                  <path fill="none" stroke="white" stroke-width="1.5" d="M0,-3.0v7 M-2.5,-0.5L0,-3.0L2.5,-0.5"/>
                </g>
                <g id="arrowRight" xlink:href="#dirArrow" transform="rotate(90) translate(36 -43)" onmousedown="handlePan(1,0)">
                  <use xlink:href="#rim" fill="#404040">
                        <set attributeName="fill" to="#808080" begin="arrowRight.mouseover" end="arrowRight.mouseout"/>
                  </use>
                  <path fill="none" stroke="white" stroke-width="1.5" d="M0,-3.0v7 M-2.5,-0.5L0,-3.0L2.5,-0.5"/>
                </g>
                <g id="arrowDown" xlink:href="#dirArrow" transform="rotate(180) translate(-30 -48)" onmousedown="handlePan(0,1)">
                  <use xlink:href="#rim" fill="#404040">
                        <set attributeName="fill" to="#808080" begin="arrowDown.mouseover" end="arrowDown.mouseout"/>
                  </use>
                  <path fill="none" stroke="white" stroke-width="1.5" d="M0,-3.0v7 M-2.5,-0.5L0,-3.0L2.5,-0.5"/>
                </g>
                <g id="arrowLeft" xlink:href="#dirArrow" transform="rotate(270) translate(-36 17)" onmousedown="handlePan(-1,0)">
                  <use xlink:href="#rim" fill="#404040">
                        <set attributeName="fill" to="#808080" begin="arrowLeft.mouseover" end="arrowLeft.mouseout"/>
                  </use>
                  <path fill="none" stroke="white" stroke-width="1.5" d="M0,-3.0v7 M-2.5,-0.5L0,-3.0L2.5,-0.5"/>
                </g>
        </g>
        <svg viewBox="0 0 15 15" width="100%" height="30px" preserveAspectRatio="xMaxYMin meet">
         <g id="arrow_out" transform="scale(0.3 0.3)">
          <a xlink:href="_direction_selector_8_h__dep__incl_org.svg" target="_base">
           <rect id="button" ry="5" rx="5" y="6" x="6" height="38" width="38"
                fill="#f2f5e9" fill-opacity="0.5" stroke="#606060" stroke-width="1.0"/>
           <path id="arrow"
             d="M 11.500037,31.436501 C 11.940474,20.09759 22.043105,11.32322 32.158766,21.979434 L 37.068811,17.246167 C 37.068811,17.246167 37.088388,32 37.088388,32 L 22.160133,31.978069 C 22.160133,31.978069 26.997745,27.140456 26.997745,27.140456 C 18.528582,18.264221 13.291696,25.230495 11.500037,31.436501 z"
             style="fill:#404040;"/>
          </a>
         </g>
        </svg>
</svg>
