<?xml version="1.0" encoding="UTF-8" standalone="no"?>
<!DOCTYPE svg PUBLIC "-//W3C//DTD SVG 1.1//EN"
 "http://www.w3.org/Graphics/SVG/1.1/DTD/svg11.dtd">
<!-- Generated by graphviz version 2.40.1 (20161225.0304)
 -->
<!-- Title: Factory.H Pages: 1 -->
<svg width="420pt" height="84pt"
 viewBox="0.00 0.00 420.00 84.00" xmlns="http://www.w3.org/2000/svg" xmlns:xlink="http://www.w3.org/1999/xlink">
<g id="graph0" class="graph" transform="scale(1 1) rotate(0) translate(4 80)">
<title>Factory.H</title>
<polygon fill="#ffffff" stroke="transparent" points="-4,4 -4,-80 416,-80 416,4 -4,4"/>
<!-- Node0 -->
<g id="node1" class="node">
<title>Node0</title>
<polygon fill="#bfbfbf" stroke="#000000" points="169,-56.5 169,-75.5 229,-75.5 229,-56.5 169,-56.5"/>
<text text-anchor="middle" x="199" y="-63.5" font-family="Helvetica,sans-Serif" font-size="10.00" fill="#000000">Factory.H</text>
</g>
<!-- Node1 -->
<g id="node2" class="node">
<title>Node1</title>
<polygon fill="#ffffff" stroke="#bfbfbf" points="0,-.5 0,-19.5 52,-19.5 52,-.5 0,-.5"/>
<text text-anchor="middle" x="26" y="-7.5" font-family="Helvetica,sans-Serif" font-size="10.00" fill="#000000">memory</text>
</g>
<!-- Node0&#45;&gt;Node1 -->
<g id="edge1" class="edge">
<title>Node0&#45;&gt;Node1</title>
<path fill="none" stroke="#191970" d="M169.2602,-56.3733C139.5341,-46.7509 93.7958,-31.9455 62.0275,-21.6621"/>
<polygon fill="#191970" stroke="#191970" points="62.8338,-18.2443 52.2419,-18.4945 60.678,-24.9041 62.8338,-18.2443"/>
</g>
<!-- Node2 -->
<g id="node3" class="node">
<title>Node2</title>
<polygon fill="#ffffff" stroke="#bfbfbf" points="70.5,-.5 70.5,-19.5 153.5,-19.5 153.5,-.5 70.5,-.5"/>
<text text-anchor="middle" x="112" y="-7.5" font-family="Helvetica,sans-Serif" font-size="10.00" fill="#000000">unordered_map</text>
</g>
<!-- Node0&#45;&gt;Node2 -->
<g id="edge2" class="edge">
<title>Node0&#45;&gt;Node2</title>
<path fill="none" stroke="#191970" d="M183.8458,-56.2455C170.4973,-47.6534 150.8414,-35.0014 135.4617,-25.1018"/>
<polygon fill="#191970" stroke="#191970" points="137.2836,-22.1121 126.9806,-19.6427 133.4949,-27.9982 137.2836,-22.1121"/>
</g>
<!-- Node3 -->
<g id="node4" class="node">
<title>Node3</title>
<polygon fill="#ffffff" stroke="#bfbfbf" points="172,-.5 172,-19.5 226,-19.5 226,-.5 172,-.5"/>
<text text-anchor="middle" x="199" y="-7.5" font-family="Helvetica,sans-Serif" font-size="10.00" fill="#000000">iostream</text>
</g>
<!-- Node0&#45;&gt;Node3 -->
<g id="edge3" class="edge">
<title>Node0&#45;&gt;Node3</title>
<path fill="none" stroke="#191970" d="M199,-56.2455C199,-48.9382 199,-38.6944 199,-29.7046"/>
<polygon fill="#191970" stroke="#191970" points="202.5001,-29.6426 199,-19.6427 195.5001,-29.6427 202.5001,-29.6426"/>
</g>
<!-- Node4 -->
<g id="node5" class="node">
<title>Node4</title>
<polygon fill="#ffffff" stroke="#bfbfbf" points="244.5,-.5 244.5,-19.5 331.5,-19.5 331.5,-.5 244.5,-.5"/>
<text text-anchor="middle" x="288" y="-7.5" font-family="Helvetica,sans-Serif" font-size="10.00" fill="#000000">AMReX_Print.H</text>
</g>
<!-- Node0&#45;&gt;Node4 -->
<g id="edge4" class="edge">
<title>Node0&#45;&gt;Node4</title>
<path fill="none" stroke="#191970" d="M214.5026,-56.2455C228.158,-47.6534 248.2657,-35.0014 263.9989,-25.1018"/>
<polygon fill="#191970" stroke="#191970" points="266.0751,-27.9307 272.675,-19.6427 262.3471,-22.006 266.0751,-27.9307"/>
</g>
<!-- Node5 -->
<g id="node6" class="node">
<title>Node5</title>
<polygon fill="#ffffff" stroke="#bfbfbf" points="350,-.5 350,-19.5 412,-19.5 412,-.5 350,-.5"/>
<text text-anchor="middle" x="381" y="-7.5" font-family="Helvetica,sans-Serif" font-size="10.00" fill="#000000">AMReX.H</text>
</g>
<!-- Node0&#45;&gt;Node5 -->
<g id="edge5" class="edge">
<title>Node0&#45;&gt;Node5</title>
<path fill="none" stroke="#191970" d="M229.0536,-56.7527C259.4699,-47.3939 306.6986,-32.862 340.4241,-22.4849"/>
<polygon fill="#191970" stroke="#191970" points="341.4592,-25.8284 349.9876,-19.5423 339.4005,-19.138 341.4592,-25.8284"/>
</g>
</g>
</svg>
