<?xml version="1.0" encoding="UTF-8" standalone="no"?>
<!DOCTYPE svg PUBLIC "-//W3C//DTD SVG 1.1//EN"
 "http://www.w3.org/Graphics/SVG/1.1/DTD/svg11.dtd">
<!-- Generated by graphviz version 2.40.1 (20161225.0304)
 -->
<!-- Title: FieldPlaneAveraging.cpp Pages: 1 -->
<svg width="2349pt" height="352pt"
 viewBox="0.00 0.00 2349.00 352.00" xmlns="http://www.w3.org/2000/svg" xmlns:xlink="http://www.w3.org/1999/xlink">
<g id="graph0" class="graph" transform="scale(1 1) rotate(0) translate(4 348)">
<title>FieldPlaneAveraging.cpp</title>
<polygon fill="#ffffff" stroke="transparent" points="-4,4 -4,-348 2345,-348 2345,4 -4,4"/>
<!-- Node0 -->
<g id="node1" class="node">
<title>Node0</title>
<polygon fill="#bfbfbf" stroke="#000000" points="1514.5,-324.5 1514.5,-343.5 1639.5,-343.5 1639.5,-324.5 1514.5,-324.5"/>
<text text-anchor="middle" x="1577" y="-331.5" font-family="Helvetica,sans-Serif" font-size="10.00" fill="#000000">FieldPlaneAveraging.cpp</text>
</g>
<!-- Node1 -->
<g id="node2" class="node">
<title>Node1</title>
<g id="a_node2"><a xlink:href="_field_plane_averaging_8_h.html" target="_top" xlink:title="amr&#45;wind/utilities\l/FieldPlaneAveraging.H">
<polygon fill="#ffffff" stroke="#000000" points="960.5,-257.5 960.5,-287.5 1079.5,-287.5 1079.5,-257.5 960.5,-257.5"/>
<text text-anchor="start" x="968.5" y="-275.5" font-family="Helvetica,sans-Serif" font-size="10.00" fill="#000000">amr&#45;wind/utilities</text>
<text text-anchor="middle" x="1020" y="-264.5" font-family="Helvetica,sans-Serif" font-size="10.00" fill="#000000">/FieldPlaneAveraging.H</text>
</a>
</g>
</g>
<!-- Node0&#45;&gt;Node1 -->
<g id="edge1" class="edge">
<title>Node0&#45;&gt;Node1</title>
<path fill="none" stroke="#191970" d="M1514.4573,-327.0945C1409.5941,-315.5162 1199.0725,-292.2719 1089.643,-280.1895"/>
<polygon fill="#191970" stroke="#191970" points="1090.02,-276.7099 1079.6962,-279.0912 1089.2517,-283.6676 1090.02,-276.7099"/>
</g>
<!-- Node35 -->
<g id="node36" class="node">
<title>Node35</title>
<polygon fill="#ffffff" stroke="#bfbfbf" points="1642,-263 1642,-282 1698,-282 1698,-263 1642,-263"/>
<text text-anchor="middle" x="1670" y="-270" font-family="Helvetica,sans-Serif" font-size="10.00" fill="#000000">algorithm</text>
</g>
<!-- Node0&#45;&gt;Node35 -->
<g id="edge61" class="edge">
<title>Node0&#45;&gt;Node35</title>
<path fill="none" stroke="#191970" d="M1591.5313,-324.3906C1606.4094,-314.5519 1629.7504,-299.1167 1647.1128,-287.6351"/>
<polygon fill="#191970" stroke="#191970" points="1649.1602,-290.4773 1655.5708,-282.0419 1645.299,-284.6385 1649.1602,-290.4773"/>
</g>
<!-- Node36 -->
<g id="node37" class="node">
<title>Node36</title>
<g id="a_node37"><a xlink:href="incflo_8_h.html" target="_top" xlink:title="amr&#45;wind/incflo.H">
<polygon fill="#ffffff" stroke="#000000" points="1530.5,-263 1530.5,-282 1623.5,-282 1623.5,-263 1530.5,-263"/>
<text text-anchor="middle" x="1577" y="-270" font-family="Helvetica,sans-Serif" font-size="10.00" fill="#000000">amr&#45;wind/incflo.H</text>
</a>
</g>
</g>
<!-- Node0&#45;&gt;Node36 -->
<g id="edge62" class="edge">
<title>Node0&#45;&gt;Node36</title>
<path fill="none" stroke="#191970" d="M1577,-324.3906C1577,-315.8657 1577,-303.1392 1577,-292.4235"/>
<polygon fill="#191970" stroke="#191970" points="1580.5001,-292.2448 1577,-282.2449 1573.5001,-292.2449 1580.5001,-292.2448"/>
</g>
<!-- Node2 -->
<g id="node3" class="node">
<title>Node2</title>
<g id="a_node3"><a xlink:href="_direction_selector_8_h.html" target="_top" xlink:title="amr&#45;wind/utilities\l/DirectionSelector.H">
<polygon fill="#ffffff" stroke="#000000" points="848.5,-190.5 848.5,-220.5 953.5,-220.5 953.5,-190.5 848.5,-190.5"/>
<text text-anchor="start" x="856.5" y="-208.5" font-family="Helvetica,sans-Serif" font-size="10.00" fill="#000000">amr&#45;wind/utilities</text>
<text text-anchor="middle" x="901" y="-197.5" font-family="Helvetica,sans-Serif" font-size="10.00" fill="#000000">/DirectionSelector.H</text>
</a>
</g>
</g>
<!-- Node1&#45;&gt;Node2 -->
<g id="edge2" class="edge">
<title>Node1&#45;&gt;Node2</title>
<path fill="none" stroke="#191970" d="M993.2941,-257.4639C976.7216,-248.1332 955.2129,-236.0232 937.1289,-225.8415"/>
<polygon fill="#191970" stroke="#191970" points="938.4595,-222.574 928.0285,-220.7177 935.0252,-228.6737 938.4595,-222.574"/>
</g>
<!-- Node3 -->
<g id="node4" class="node">
<title>Node3</title>
<g id="a_node4"><a xlink:href="_c_f_d_sim_8_h.html" target="_top" xlink:title="amr&#45;wind/CFDSim.H">
<polygon fill="#ffffff" stroke="#000000" points="1086,-196 1086,-215 1194,-215 1194,-196 1086,-196"/>
<text text-anchor="middle" x="1140" y="-203" font-family="Helvetica,sans-Serif" font-size="10.00" fill="#000000">amr&#45;wind/CFDSim.H</text>
</a>
</g>
</g>
<!-- Node1&#45;&gt;Node3 -->
<g id="edge3" class="edge">
<title>Node1&#45;&gt;Node3</title>
<path fill="none" stroke="#191970" d="M1046.9303,-257.4639C1066.9741,-246.2728 1094.1783,-231.0838 1113.9965,-220.0186"/>
<polygon fill="#191970" stroke="#191970" points="1115.7739,-223.0349 1122.7989,-215.1039 1112.3614,-216.923 1115.7739,-223.0349"/>
</g>
<!-- Node5 -->
<g id="node6" class="node">
<title>Node5</title>
<g id="a_node6"><a xlink:href="_sim_time_8_h.html" target="_top" xlink:title="amr&#45;wind/core/SimTime.H">
<polygon fill="#ffffff" stroke="#000000" points="391.5,-129 391.5,-148 522.5,-148 522.5,-129 391.5,-129"/>
<text text-anchor="middle" x="457" y="-136" font-family="Helvetica,sans-Serif" font-size="10.00" fill="#000000">amr&#45;wind/core/SimTime.H</text>
</a>
</g>
</g>
<!-- Node1&#45;&gt;Node5 -->
<g id="edge60" class="edge">
<title>Node1&#45;&gt;Node5</title>
<path fill="none" stroke="#191970" d="M1014.0511,-257.2681C1005.635,-237.9763 988.2875,-205.3964 962,-190 925.823,-168.8113 664.3964,-150.6672 532.5791,-142.749"/>
<polygon fill="#191970" stroke="#191970" points="532.7374,-139.2523 522.5469,-142.1511 532.3209,-146.2399 532.7374,-139.2523"/>
</g>
<!-- Node16 -->
<g id="node17" class="node">
<title>Node16</title>
<g id="a_node17"><a xlink:href="_field_8_h.html" target="_top" xlink:title="amr&#45;wind/core/Field.H">
<polygon fill="#ffffff" stroke="#000000" points="1069.5,-62 1069.5,-81 1182.5,-81 1182.5,-62 1069.5,-62"/>
<text text-anchor="middle" x="1126" y="-69" font-family="Helvetica,sans-Serif" font-size="10.00" fill="#000000">amr&#45;wind/core/Field.H</text>
</a>
</g>
</g>
<!-- Node1&#45;&gt;Node16 -->
<g id="edge59" class="edge">
<title>Node1&#45;&gt;Node16</title>
<path fill="none" stroke="#191970" d="M1027.9672,-257.3923C1047.0532,-221.201 1095.3494,-129.6205 1116.1841,-90.1131"/>
<polygon fill="#191970" stroke="#191970" points="1119.286,-91.7342 1120.8549,-81.2562 1113.0943,-88.4689 1119.286,-91.7342"/>
</g>
<!-- Node4 -->
<g id="node5" class="node">
<title>Node4</title>
<polygon fill="#ffffff" stroke="#bfbfbf" points="1925,-62 1925,-81 2031,-81 2031,-62 1925,-62"/>
<text text-anchor="middle" x="1978" y="-69" font-family="Helvetica,sans-Serif" font-size="10.00" fill="#000000">AMReX_AmrCore.H</text>
</g>
<!-- Node3&#45;&gt;Node4 -->
<g id="edge4" class="edge">
<title>Node3&#45;&gt;Node4</title>
<path fill="none" stroke="#191970" d="M1194.3215,-200.2918C1275.4703,-192.2046 1433.0448,-175.3156 1566,-154 1696.2833,-133.1128 1848.1416,-100.5556 1926.0463,-83.2469"/>
<polygon fill="#191970" stroke="#191970" points="1927.0845,-86.6015 1936.0838,-81.0102 1925.5619,-79.7691 1927.0845,-86.6015"/>
</g>
<!-- Node3&#45;&gt;Node5 -->
<g id="edge5" class="edge">
<title>Node3&#45;&gt;Node5</title>
<path fill="none" stroke="#191970" d="M1102.4152,-195.9412C1092.5707,-193.7106 1081.9313,-191.5399 1072,-190 970.0613,-174.1941 673.5287,-153.0289 532.812,-143.509"/>
<polygon fill="#191970" stroke="#191970" points="532.7589,-139.9976 522.5459,-142.8165 532.2877,-146.9817 532.7589,-139.9976"/>
</g>
<!-- Node9 -->
<g id="node10" class="node">
<title>Node9</title>
<g id="a_node10"><a xlink:href="_field_repo_8_h.html" target="_top" xlink:title="amr&#45;wind/core/FieldRepo.H">
<polygon fill="#ffffff" stroke="#000000" points="1421,-129 1421,-148 1557,-148 1557,-129 1421,-129"/>
<text text-anchor="middle" x="1489" y="-136" font-family="Helvetica,sans-Serif" font-size="10.00" fill="#000000">amr&#45;wind/core/FieldRepo.H</text>
</a>
</g>
</g>
<!-- Node3&#45;&gt;Node9 -->
<g id="edge9" class="edge">
<title>Node3&#45;&gt;Node9</title>
<path fill="none" stroke="#191970" d="M1189.6326,-195.9717C1252.73,-183.8584 1361.5686,-162.9639 1429.1815,-149.9838"/>
<polygon fill="#191970" stroke="#191970" points="1430.0957,-153.3723 1439.2564,-148.0496 1428.7759,-146.4978 1430.0957,-153.3723"/>
</g>
<!-- Node24 -->
<g id="node25" class="node">
<title>Node24</title>
<g id="a_node25"><a xlink:href="_p_d_e_base_8_h.html" target="_top" xlink:title="amr&#45;wind/equation_systems\l/PDEBase.H">
<polygon fill="#ffffff" stroke="#000000" points="707.5,-123.5 707.5,-153.5 846.5,-153.5 846.5,-123.5 707.5,-123.5"/>
<text text-anchor="start" x="715.5" y="-141.5" font-family="Helvetica,sans-Serif" font-size="10.00" fill="#000000">amr&#45;wind/equation_systems</text>
<text text-anchor="middle" x="777" y="-130.5" font-family="Helvetica,sans-Serif" font-size="10.00" fill="#000000">/PDEBase.H</text>
</a>
</g>
</g>
<!-- Node3&#45;&gt;Node24 -->
<g id="edge37" class="edge">
<title>Node3&#45;&gt;Node24</title>
<path fill="none" stroke="#191970" d="M1099.8129,-195.9218C1090.6906,-193.8641 1081.0293,-191.7764 1072,-190 979.1674,-171.7363 952.8567,-171.5237 856.5763,-154.2521"/>
<polygon fill="#191970" stroke="#191970" points="857.1836,-150.8052 846.7202,-152.4686 855.9372,-157.6934 857.1836,-150.8052"/>
</g>
<!-- Node33 -->
<g id="node34" class="node">
<title>Node33</title>
<g id="a_node34"><a xlink:href="_physics_8_h.html" target="_top" xlink:title="amr&#45;wind/core/Physics.H">
<polygon fill="#ffffff" stroke="#000000" points="864.5,-129 864.5,-148 991.5,-148 991.5,-129 864.5,-129"/>
<text text-anchor="middle" x="928" y="-136" font-family="Helvetica,sans-Serif" font-size="10.00" fill="#000000">amr&#45;wind/core/Physics.H</text>
</a>
</g>
</g>
<!-- Node3&#45;&gt;Node33 -->
<g id="edge54" class="edge">
<title>Node3&#45;&gt;Node33</title>
<path fill="none" stroke="#191970" d="M1109.6256,-195.9005C1072.3942,-184.134 1009.1901,-164.1591 968.0243,-151.1492"/>
<polygon fill="#191970" stroke="#191970" points="968.908,-147.7579 958.3181,-148.0817 966.7985,-154.4325 968.908,-147.7579"/>
</g>
<!-- Node6 -->
<g id="node7" class="node">
<title>Node6</title>
<polygon fill="#ffffff" stroke="#bfbfbf" points="272.5,-62 272.5,-81 365.5,-81 365.5,-62 272.5,-62"/>
<text text-anchor="middle" x="319" y="-69" font-family="Helvetica,sans-Serif" font-size="10.00" fill="#000000">AMReX_REAL.H</text>
</g>
<!-- Node5&#45;&gt;Node6 -->
<g id="edge6" class="edge">
<title>Node5&#45;&gt;Node6</title>
<path fill="none" stroke="#191970" d="M437.228,-128.9005C413.8635,-117.5569 374.7857,-98.5844 347.997,-85.5783"/>
<polygon fill="#191970" stroke="#191970" points="349.2598,-82.3007 338.7354,-81.0817 346.2025,-88.5978 349.2598,-82.3007"/>
</g>
<!-- Node7 -->
<g id="node8" class="node">
<title>Node7</title>
<polygon fill="#ffffff" stroke="#bfbfbf" points="0,-62 0,-81 126,-81 126,-62 0,-62"/>
<text text-anchor="middle" x="63" y="-69" font-family="Helvetica,sans-Serif" font-size="10.00" fill="#000000">AMReX_GpuQualifiers.H</text>
</g>
<!-- Node5&#45;&gt;Node7 -->
<g id="edge7" class="edge">
<title>Node5&#45;&gt;Node7</title>
<path fill="none" stroke="#191970" d="M391.4513,-129.0654C326.2605,-119.4357 223.4738,-103.5861 135,-87 128.732,-85.8249 122.1734,-84.5194 115.6755,-83.1789"/>
<polygon fill="#191970" stroke="#191970" points="116.0703,-79.6856 105.5647,-81.0572 114.6327,-86.5364 116.0703,-79.6856"/>
</g>
<!-- Node8 -->
<g id="node9" class="node">
<title>Node8</title>
<polygon fill="#ffffff" stroke="#bfbfbf" points="144,-62 144,-81 254,-81 254,-62 144,-62"/>
<text text-anchor="middle" x="199" y="-69" font-family="Helvetica,sans-Serif" font-size="10.00" fill="#000000">AMReX_Extension.H</text>
</g>
<!-- Node5&#45;&gt;Node8 -->
<g id="edge8" class="edge">
<title>Node5&#45;&gt;Node8</title>
<path fill="none" stroke="#191970" d="M420.3089,-128.9717C374.4951,-117.0743 296.0615,-96.7059 245.9223,-83.6852"/>
<polygon fill="#191970" stroke="#191970" points="246.541,-80.2299 235.9823,-81.1039 244.7815,-87.0052 246.541,-80.2299"/>
</g>
<!-- Node9&#45;&gt;Node4 -->
<g id="edge34" class="edge">
<title>Node9&#45;&gt;Node4</title>
<path fill="none" stroke="#191970" d="M1557.3014,-132.4101C1641.0272,-124.429 1787.067,-108.8345 1911,-87 1917.173,-85.9124 1923.6319,-84.6191 1929.9999,-83.25"/>
<polygon fill="#191970" stroke="#191970" points="1930.8749,-86.641 1939.8776,-81.0551 1929.3565,-79.8077 1930.8749,-86.641"/>
</g>
<!-- Node10 -->
<g id="node11" class="node">
<title>Node10</title>
<polygon fill="#ffffff" stroke="#bfbfbf" points="1279.5,-.5 1279.5,-19.5 1320.5,-19.5 1320.5,-.5 1279.5,-.5"/>
<text text-anchor="middle" x="1300" y="-7.5" font-family="Helvetica,sans-Serif" font-size="10.00" fill="#000000">string</text>
</g>
<!-- Node9&#45;&gt;Node10 -->
<g id="edge10" class="edge">
<title>Node9&#45;&gt;Node10</title>
<path fill="none" stroke="#191970" d="M1427.9898,-128.9925C1381.0312,-120.3365 1321.5969,-106.009 1306,-87 1292.9531,-71.0989 1293.3876,-46.6068 1295.8316,-29.5287"/>
<polygon fill="#191970" stroke="#191970" points="1299.3027,-29.9996 1297.6064,-19.5414 1292.4107,-28.7748 1299.3027,-29.9996"/>
</g>
<!-- Node11 -->
<g id="node12" class="node">
<title>Node11</title>
<polygon fill="#ffffff" stroke="#bfbfbf" points="811.5,-.5 811.5,-19.5 894.5,-19.5 894.5,-.5 811.5,-.5"/>
<text text-anchor="middle" x="853" y="-7.5" font-family="Helvetica,sans-Serif" font-size="10.00" fill="#000000">unordered_map</text>
</g>
<!-- Node9&#45;&gt;Node11 -->
<g id="edge11" class="edge">
<title>Node9&#45;&gt;Node11</title>
<path fill="none" stroke="#191970" d="M1420.8744,-136.2376C1273.9673,-130.8412 937.1172,-115.4916 894,-87 874.025,-73.8006 863.0853,-47.5403 857.6391,-29.3833"/>
<polygon fill="#191970" stroke="#191970" points="860.97,-28.2928 854.9832,-19.5517 854.2123,-30.1184 860.97,-28.2928"/>
</g>
<!-- Node12 -->
<g id="node13" class="node">
<title>Node12</title>
<g id="a_node13"><a xlink:href="_field_desc_types_8_h.html" target="_top" xlink:title="amr&#45;wind/core/FieldDescTypes.H">
<polygon fill="#ffffff" stroke="#000000" points="1461.5,-.5 1461.5,-19.5 1624.5,-19.5 1624.5,-.5 1461.5,-.5"/>
<text text-anchor="middle" x="1543" y="-7.5" font-family="Helvetica,sans-Serif" font-size="10.00" fill="#000000">amr&#45;wind/core/FieldDescTypes.H</text>
</a>
</g>
</g>
<!-- Node9&#45;&gt;Node12 -->
<g id="edge12" class="edge">
<title>Node9&#45;&gt;Node12</title>
<path fill="none" stroke="#191970" d="M1503.9783,-128.6843C1516.4404,-119.559 1533.3353,-104.727 1541,-87 1548.8151,-68.925 1548.3011,-46.1663 1546.4543,-30.093"/>
<polygon fill="#191970" stroke="#191970" points="1549.8534,-29.1376 1544.974,-19.7333 1542.9238,-30.1278 1549.8534,-29.1376"/>
</g>
<!-- Node13 -->
<g id="node14" class="node">
<title>Node13</title>
<g id="a_node14"><a xlink:href="_field_utils_8_h.html" target="_top" xlink:title="amr&#45;wind/core/FieldUtils.H">
<polygon fill="#ffffff" stroke="#000000" points="1593.5,-62 1593.5,-81 1726.5,-81 1726.5,-62 1593.5,-62"/>
<text text-anchor="middle" x="1660" y="-69" font-family="Helvetica,sans-Serif" font-size="10.00" fill="#000000">amr&#45;wind/core/FieldUtils.H</text>
</a>
</g>
</g>
<!-- Node9&#45;&gt;Node13 -->
<g id="edge13" class="edge">
<title>Node9&#45;&gt;Node13</title>
<path fill="none" stroke="#191970" d="M1513.5001,-128.9005C1543.0867,-117.3082 1593.0074,-97.7486 1626.2305,-84.7313"/>
<polygon fill="#191970" stroke="#191970" points="1627.5113,-87.9886 1635.5453,-81.0817 1624.9576,-81.471 1627.5113,-87.9886"/>
</g>
<!-- Node14 -->
<g id="node15" class="node">
<title>Node14</title>
<polygon fill="#ffffff" stroke="#bfbfbf" points="1339,-.5 1339,-19.5 1443,-19.5 1443,-.5 1339,-.5"/>
<text text-anchor="middle" x="1391" y="-7.5" font-family="Helvetica,sans-Serif" font-size="10.00" fill="#000000">AMReX_MultiFab.H</text>
</g>
<!-- Node9&#45;&gt;Node14 -->
<g id="edge35" class="edge">
<title>Node9&#45;&gt;Node14</title>
<path fill="none" stroke="#191970" d="M1489.1595,-128.8386C1488.9536,-112.3114 1486.3892,-78.2468 1470,-56 1459.4761,-41.7147 1443.0776,-31.1336 1427.9425,-23.7458"/>
<polygon fill="#191970" stroke="#191970" points="1429.2969,-20.5167 1418.7459,-19.5539 1426.3936,-26.8863 1429.2969,-20.5167"/>
</g>
<!-- Node9&#45;&gt;Node16 -->
<g id="edge17" class="edge">
<title>Node9&#45;&gt;Node16</title>
<path fill="none" stroke="#191970" d="M1437.3765,-128.9717C1371.6131,-116.8335 1258.0782,-95.8781 1187.7855,-82.9039"/>
<polygon fill="#191970" stroke="#191970" points="1188.2082,-79.4229 1177.739,-81.0496 1186.9376,-86.3066 1188.2082,-79.4229"/>
</g>
<!-- Node21 -->
<g id="node22" class="node">
<title>Node21</title>
<g id="a_node22"><a xlink:href="_int_field_8_h.html" target="_top" xlink:title="amr&#45;wind/core/IntField.H">
<polygon fill="#ffffff" stroke="#000000" points="1745,-62 1745,-81 1869,-81 1869,-62 1745,-62"/>
<text text-anchor="middle" x="1807" y="-69" font-family="Helvetica,sans-Serif" font-size="10.00" fill="#000000">amr&#45;wind/core/IntField.H</text>
</a>
</g>
</g>
<!-- Node9&#45;&gt;Node21 -->
<g id="edge26" class="edge">
<title>Node9&#45;&gt;Node21</title>
<path fill="none" stroke="#191970" d="M1535.4617,-128.9481C1585.1288,-118.7055 1666.1716,-101.9015 1736,-87 1741.6913,-85.7855 1747.6366,-84.5054 1753.5597,-83.2229"/>
<polygon fill="#191970" stroke="#191970" points="1754.4286,-86.6159 1763.458,-81.0732 1752.9429,-79.7753 1754.4286,-86.6159"/>
</g>
<!-- Node22 -->
<g id="node23" class="node">
<title>Node22</title>
<polygon fill="#ffffff" stroke="#bfbfbf" points="1843.5,-.5 1843.5,-19.5 1950.5,-19.5 1950.5,-.5 1843.5,-.5"/>
<text text-anchor="middle" x="1897" y="-7.5" font-family="Helvetica,sans-Serif" font-size="10.00" fill="#000000">AMReX_iMultiFab.H</text>
</g>
<!-- Node9&#45;&gt;Node22 -->
<g id="edge36" class="edge">
<title>Node9&#45;&gt;Node22</title>
<path fill="none" stroke="#191970" d="M1557.2648,-131.4701C1665.6585,-120.0247 1866.1841,-97.5796 1878,-87 1893.8951,-72.768 1897.5091,-47.5543 1897.8856,-29.8672"/>
<polygon fill="#191970" stroke="#191970" points="1901.3843,-29.7176 1897.7725,-19.7574 1894.3847,-29.796 1901.3843,-29.7176"/>
</g>
<!-- Node23 -->
<g id="node24" class="node">
<title>Node23</title>
<g id="a_node24"><a xlink:href="_scratch_field_8_h.html" target="_top" xlink:title="amr&#45;wind/core/ScratchField.H">
<polygon fill="#ffffff" stroke="#000000" points="1315,-62 1315,-81 1461,-81 1461,-62 1315,-62"/>
<text text-anchor="middle" x="1388" y="-69" font-family="Helvetica,sans-Serif" font-size="10.00" fill="#000000">amr&#45;wind/core/ScratchField.H</text>
</a>
</g>
</g>
<!-- Node9&#45;&gt;Node23 -->
<g id="edge30" class="edge">
<title>Node9&#45;&gt;Node23</title>
<path fill="none" stroke="#191970" d="M1474.5292,-128.9005C1457.8791,-117.8554 1430.326,-99.5776 1410.7886,-86.6172"/>
<polygon fill="#191970" stroke="#191970" points="1412.712,-83.693 1402.444,-81.0817 1408.8424,-89.5263 1412.712,-83.693"/>
</g>
<!-- Node13&#45;&gt;Node12 -->
<g id="edge14" class="edge">
<title>Node13&#45;&gt;Node12</title>
<path fill="none" stroke="#191970" d="M1641.7188,-61.8906C1622.4859,-51.7811 1592.0121,-35.7628 1570.0075,-24.1962"/>
<polygon fill="#191970" stroke="#191970" points="1571.633,-21.0967 1561.1529,-19.5419 1568.376,-27.2928 1571.633,-21.0967"/>
</g>
<!-- Node13&#45;&gt;Node14 -->
<g id="edge15" class="edge">
<title>Node13&#45;&gt;Node14</title>
<path fill="none" stroke="#191970" d="M1618.2639,-61.9581C1570.9485,-51.1406 1493.7708,-33.4959 1442.6864,-21.8168"/>
<polygon fill="#191970" stroke="#191970" points="1443.3626,-18.3811 1432.834,-19.5643 1441.8024,-25.2051 1443.3626,-18.3811"/>
</g>
<!-- Node15 -->
<g id="node16" class="node">
<title>Node15</title>
<polygon fill="#ffffff" stroke="#bfbfbf" points="1643,-.5 1643,-19.5 1759,-19.5 1759,-.5 1643,-.5"/>
<text text-anchor="middle" x="1701" y="-7.5" font-family="Helvetica,sans-Serif" font-size="10.00" fill="#000000">AMReX_Interpolater.H</text>
</g>
<!-- Node13&#45;&gt;Node15 -->
<g id="edge16" class="edge">
<title>Node13&#45;&gt;Node15</title>
<path fill="none" stroke="#191970" d="M1666.4063,-61.8906C1672.3886,-52.917 1681.4747,-39.2879 1688.8339,-28.2491"/>
<polygon fill="#191970" stroke="#191970" points="1691.8686,-30.0068 1694.5034,-19.7449 1686.0442,-26.1239 1691.8686,-30.0068"/>
</g>
<!-- Node16&#45;&gt;Node10 -->
<g id="edge18" class="edge">
<title>Node16&#45;&gt;Node10</title>
<path fill="none" stroke="#191970" d="M1153.1875,-61.8906C1184.8039,-50.7159 1236.8464,-32.3215 1269.7257,-20.7004"/>
<polygon fill="#191970" stroke="#191970" points="1271.0085,-23.9592 1279.2706,-17.3268 1268.6758,-17.3594 1271.0085,-23.9592"/>
</g>
<!-- Node16&#45;&gt;Node11 -->
<g id="edge20" class="edge">
<title>Node16&#45;&gt;Node11</title>
<path fill="none" stroke="#191970" d="M1083.6433,-61.9581C1035.3435,-51.0774 956.3818,-33.2893 904.5482,-21.6125"/>
<polygon fill="#191970" stroke="#191970" points="905.085,-18.1458 894.5602,-19.3625 903.5466,-24.9747 905.085,-18.1458"/>
</g>
<!-- Node16&#45;&gt;Node12 -->
<g id="edge25" class="edge">
<title>Node16&#45;&gt;Node12</title>
<path fill="none" stroke="#191970" d="M1182.6725,-63.1418C1256.7439,-52.2176 1386.6523,-33.0585 1468.585,-20.9749"/>
<polygon fill="#191970" stroke="#191970" points="1469.1968,-24.4226 1478.5791,-19.5009 1468.1754,-17.4975 1469.1968,-24.4226"/>
</g>
<!-- Node16&#45;&gt;Node14 -->
<g id="edge21" class="edge">
<title>Node16&#45;&gt;Node14</title>
<path fill="none" stroke="#191970" d="M1167.1155,-61.9581C1213.6302,-51.1632 1289.4408,-33.5694 1339.7673,-21.8899"/>
<polygon fill="#191970" stroke="#191970" points="1340.8382,-25.2344 1349.7881,-19.5643 1339.2557,-18.4156 1340.8382,-25.2344"/>
</g>
<!-- Node17 -->
<g id="node18" class="node">
<title>Node17</title>
<polygon fill="#ffffff" stroke="#bfbfbf" points="628,-.5 628,-19.5 680,-19.5 680,-.5 628,-.5"/>
<text text-anchor="middle" x="654" y="-7.5" font-family="Helvetica,sans-Serif" font-size="10.00" fill="#000000">memory</text>
</g>
<!-- Node16&#45;&gt;Node17 -->
<g id="edge19" class="edge">
<title>Node16&#45;&gt;Node17</title>
<path fill="none" stroke="#191970" d="M1069.383,-62.6392C1054.0257,-60.3512 1037.3902,-57.9779 1022,-56 877.5242,-37.4319 836.8353,-48.0704 690.0786,-19.9321"/>
<polygon fill="#191970" stroke="#191970" points="690.7407,-16.4953 680.2564,-18.0218 689.4043,-23.3666 690.7407,-16.4953"/>
</g>
<!-- Node18 -->
<g id="node19" class="node">
<title>Node18</title>
<polygon fill="#ffffff" stroke="#bfbfbf" points="1059.5,-.5 1059.5,-19.5 1158.5,-19.5 1158.5,-.5 1059.5,-.5"/>
<text text-anchor="middle" x="1109" y="-7.5" font-family="Helvetica,sans-Serif" font-size="10.00" fill="#000000">AMReX_BCRec.H</text>
</g>
<!-- Node16&#45;&gt;Node18 -->
<g id="edge22" class="edge">
<title>Node16&#45;&gt;Node18</title>
<path fill="none" stroke="#191970" d="M1123.3438,-61.8906C1120.9625,-53.276 1117.3952,-40.3708 1114.414,-29.5858"/>
<polygon fill="#191970" stroke="#191970" points="1117.7316,-28.4509 1111.6937,-19.7449 1110.9846,-30.3159 1117.7316,-28.4509"/>
</g>
<!-- Node19 -->
<g id="node20" class="node">
<title>Node19</title>
<polygon fill="#ffffff" stroke="#bfbfbf" points="1176.5,-.5 1176.5,-19.5 1261.5,-19.5 1261.5,-.5 1176.5,-.5"/>
<text text-anchor="middle" x="1219" y="-7.5" font-family="Helvetica,sans-Serif" font-size="10.00" fill="#000000">AMReX_Gpu.H</text>
</g>
<!-- Node16&#45;&gt;Node19 -->
<g id="edge23" class="edge">
<title>Node16&#45;&gt;Node19</title>
<path fill="none" stroke="#191970" d="M1140.5313,-61.8906C1155.4094,-52.0519 1178.7504,-36.6167 1196.1128,-25.1351"/>
<polygon fill="#191970" stroke="#191970" points="1198.1602,-27.9773 1204.5708,-19.5419 1194.299,-22.1385 1198.1602,-27.9773"/>
</g>
<!-- Node20 -->
<g id="node21" class="node">
<title>Node20</title>
<g id="a_node21"><a xlink:href="incflo__enums_8_h.html" target="_top" xlink:title="amr&#45;wind/incflo_enums.H">
<polygon fill="#ffffff" stroke="#000000" points="913,-.5 913,-19.5 1041,-19.5 1041,-.5 913,-.5"/>
<text text-anchor="middle" x="977" y="-7.5" font-family="Helvetica,sans-Serif" font-size="10.00" fill="#000000">amr&#45;wind/incflo_enums.H</text>
</a>
</g>
</g>
<!-- Node16&#45;&gt;Node20 -->
<g id="edge24" class="edge">
<title>Node16&#45;&gt;Node20</title>
<path fill="none" stroke="#191970" d="M1102.7188,-61.8906C1077.679,-51.5554 1037.6775,-35.0447 1009.534,-23.4284"/>
<polygon fill="#191970" stroke="#191970" points="1010.6967,-20.122 1000.1178,-19.5419 1008.026,-26.5925 1010.6967,-20.122"/>
</g>
<!-- Node21&#45;&gt;Node10 -->
<g id="edge27" class="edge">
<title>Node21&#45;&gt;Node10</title>
<path fill="none" stroke="#191970" d="M1767.7327,-61.9994C1757.4542,-59.768 1746.3516,-57.5824 1736,-56 1560.1629,-29.1211 1509.1892,-55.8903 1330.788,-19.6901"/>
<polygon fill="#191970" stroke="#191970" points="1331.3115,-16.2244 1320.8099,-17.6273 1329.8943,-23.0794 1331.3115,-16.2244"/>
</g>
<!-- Node21&#45;&gt;Node12 -->
<g id="edge28" class="edge">
<title>Node21&#45;&gt;Node12</title>
<path fill="none" stroke="#191970" d="M1766.0397,-61.9581C1719.7005,-51.1632 1644.176,-33.5694 1594.0394,-21.8899"/>
<polygon fill="#191970" stroke="#191970" points="1594.5898,-18.4244 1584.0564,-19.5643 1593.0016,-25.2419 1594.5898,-18.4244"/>
</g>
<!-- Node21&#45;&gt;Node22 -->
<g id="edge29" class="edge">
<title>Node21&#45;&gt;Node22</title>
<path fill="none" stroke="#191970" d="M1821.0625,-61.8906C1835.3286,-52.1421 1857.635,-36.8994 1874.3872,-25.4521"/>
<polygon fill="#191970" stroke="#191970" points="1876.7545,-28.0736 1883.0362,-19.5419 1872.8051,-22.2941 1876.7545,-28.0736"/>
</g>
<!-- Node23&#45;&gt;Node10 -->
<g id="edge31" class="edge">
<title>Node23&#45;&gt;Node10</title>
<path fill="none" stroke="#191970" d="M1374.25,-61.8906C1360.3009,-52.1421 1338.4902,-36.8994 1322.1103,-25.4521"/>
<polygon fill="#191970" stroke="#191970" points="1323.8551,-22.4015 1313.6534,-19.5419 1319.8452,-28.1392 1323.8551,-22.4015"/>
</g>
<!-- Node23&#45;&gt;Node12 -->
<g id="edge32" class="edge">
<title>Node23&#45;&gt;Node12</title>
<path fill="none" stroke="#191970" d="M1412.2188,-61.8906C1438.3806,-51.5103 1480.2429,-34.9004 1509.5388,-23.2766"/>
<polygon fill="#191970" stroke="#191970" points="1510.9471,-26.4833 1518.9513,-19.5419 1508.3654,-19.9767 1510.9471,-26.4833"/>
</g>
<!-- Node23&#45;&gt;Node14 -->
<g id="edge33" class="edge">
<title>Node23&#45;&gt;Node14</title>
<path fill="none" stroke="#191970" d="M1388.4688,-61.8906C1388.8846,-53.3657 1389.5054,-40.6392 1390.0281,-29.9235"/>
<polygon fill="#191970" stroke="#191970" points="1393.5332,-29.9035 1390.5246,-19.7449 1386.5415,-29.5624 1393.5332,-29.9035"/>
</g>
<!-- Node24&#45;&gt;Node10 -->
<g id="edge38" class="edge">
<title>Node24&#45;&gt;Node10</title>
<path fill="none" stroke="#191970" d="M846.6867,-124.3312C849.4911,-123.8627 852.2703,-123.4166 855,-123 1003.4689,-100.341 1054.0497,-148.6527 1191,-87 1209.6469,-78.6055 1208.6556,-68.2895 1225,-56 1240.3228,-44.4786 1258.6481,-33.1978 1273.3489,-24.6909"/>
<polygon fill="#191970" stroke="#191970" points="1275.4601,-27.5164 1282.418,-19.5265 1271.9962,-21.4335 1275.4601,-27.5164"/>
</g>
<!-- Node24&#45;&gt;Node12 -->
<g id="edge52" class="edge">
<title>Node24&#45;&gt;Node12</title>
<path fill="none" stroke="#191970" d="M846.6631,-124.1629C849.474,-123.741 852.2611,-123.3506 855,-123 990.7926,-105.6174 1345.8642,-144.7241 1470,-87 1497.2921,-74.3089 1519.4837,-46.4503 1531.9676,-27.9559"/>
<polygon fill="#191970" stroke="#191970" points="1534.9441,-29.7985 1537.4415,-19.5022 1529.0684,-25.9938 1534.9441,-29.7985"/>
</g>
<!-- Node24&#45;&gt;Node20 -->
<g id="edge53" class="edge">
<title>Node24&#45;&gt;Node20</title>
<path fill="none" stroke="#191970" d="M797.2541,-123.2072C820.228,-106.1014 859.0462,-77.92 894,-56 911.9679,-44.7321 932.8535,-33.1644 949.1788,-24.4479"/>
<polygon fill="#191970" stroke="#191970" points="951.0065,-27.4406 958.2074,-19.6689 947.7318,-21.2538 951.0065,-27.4406"/>
</g>
<!-- Node25 -->
<g id="node26" class="node">
<title>Node25</title>
<g id="a_node26"><a xlink:href="_factory_8_h.html" target="_top" xlink:title="amr&#45;wind/core/Factory.H">
<polygon fill="#ffffff" stroke="#000000" points="540.5,-62 540.5,-81 665.5,-81 665.5,-62 540.5,-62"/>
<text text-anchor="middle" x="603" y="-69" font-family="Helvetica,sans-Serif" font-size="10.00" fill="#000000">amr&#45;wind/core/Factory.H</text>
</a>
</g>
</g>
<!-- Node24&#45;&gt;Node25 -->
<g id="edge39" class="edge">
<title>Node24&#45;&gt;Node25</title>
<path fill="none" stroke="#191970" d="M737.951,-123.4639C707.7458,-111.8332 666.3264,-95.8843 637.3693,-84.7342"/>
<polygon fill="#191970" stroke="#191970" points="638.2752,-81.3325 627.6854,-81.0053 635.7597,-87.865 638.2752,-81.3325"/>
</g>
<!-- Node29 -->
<g id="node30" class="node">
<title>Node29</title>
<g id="a_node30"><a xlink:href="_coll_mgr_8_h.html" target="_top" xlink:title="amr&#45;wind/core/CollMgr.H">
<polygon fill="#ffffff" stroke="#000000" points="683.5,-62 683.5,-81 808.5,-81 808.5,-62 683.5,-62"/>
<text text-anchor="middle" x="746" y="-69" font-family="Helvetica,sans-Serif" font-size="10.00" fill="#000000">amr&#45;wind/core/CollMgr.H</text>
</a>
</g>
</g>
<!-- Node24&#45;&gt;Node29 -->
<g id="edge45" class="edge">
<title>Node24&#45;&gt;Node29</title>
<path fill="none" stroke="#191970" d="M769.9656,-123.2967C765.417,-113.4658 759.4654,-100.6026 754.6312,-90.1545"/>
<polygon fill="#191970" stroke="#191970" points="757.7967,-88.6609 750.421,-81.055 751.4437,-91.6003 757.7967,-88.6609"/>
</g>
<!-- Node31 -->
<g id="node32" class="node">
<title>Node31</title>
<g id="a_node32"><a xlink:href="_p_d_e_fields_8_h.html" target="_top" xlink:title="amr&#45;wind/equation_systems\l/PDEFields.H">
<polygon fill="#ffffff" stroke="#000000" points="383.5,-56.5 383.5,-86.5 522.5,-86.5 522.5,-56.5 383.5,-56.5"/>
<text text-anchor="start" x="391.5" y="-74.5" font-family="Helvetica,sans-Serif" font-size="10.00" fill="#000000">amr&#45;wind/equation_systems</text>
<text text-anchor="middle" x="453" y="-63.5" font-family="Helvetica,sans-Serif" font-size="10.00" fill="#000000">/PDEFields.H</text>
</a>
</g>
</g>
<!-- Node24&#45;&gt;Node31 -->
<g id="edge50" class="edge">
<title>Node24&#45;&gt;Node31</title>
<path fill="none" stroke="#191970" d="M707.4939,-124.1268C656.1178,-113.5028 586.0771,-99.019 532.4786,-87.9354"/>
<polygon fill="#191970" stroke="#191970" points="533.1717,-84.5047 522.6701,-85.9071 531.7541,-91.3597 533.1717,-84.5047"/>
</g>
<!-- Node25&#45;&gt;Node11 -->
<g id="edge41" class="edge">
<title>Node25&#45;&gt;Node11</title>
<path fill="none" stroke="#191970" d="M641.7882,-61.9581C685.5784,-51.1857 756.8909,-33.6428 804.3696,-21.9631"/>
<polygon fill="#191970" stroke="#191970" points="805.2464,-25.3518 814.1208,-19.5643 803.5742,-18.5545 805.2464,-25.3518"/>
</g>
<!-- Node25&#45;&gt;Node17 -->
<g id="edge40" class="edge">
<title>Node25&#45;&gt;Node17</title>
<path fill="none" stroke="#191970" d="M610.9688,-61.8906C618.5591,-52.7376 630.1661,-38.7409 639.4132,-27.59"/>
<polygon fill="#191970" stroke="#191970" points="642.2297,-29.6766 645.9189,-19.7449 636.8413,-25.2083 642.2297,-29.6766"/>
</g>
<!-- Node26 -->
<g id="node27" class="node">
<title>Node26</title>
<polygon fill="#ffffff" stroke="#bfbfbf" points="450,-.5 450,-19.5 504,-19.5 504,-.5 450,-.5"/>
<text text-anchor="middle" x="477" y="-7.5" font-family="Helvetica,sans-Serif" font-size="10.00" fill="#000000">iostream</text>
</g>
<!-- Node25&#45;&gt;Node26 -->
<g id="edge42" class="edge">
<title>Node25&#45;&gt;Node26</title>
<path fill="none" stroke="#191970" d="M583.3125,-61.8906C562.5078,-51.7359 529.489,-35.6196 505.7681,-24.0416"/>
<polygon fill="#191970" stroke="#191970" points="507.0712,-20.783 496.5493,-19.5419 504.0007,-27.0736 507.0712,-20.783"/>
</g>
<!-- Node27 -->
<g id="node28" class="node">
<title>Node27</title>
<polygon fill="#ffffff" stroke="#bfbfbf" points="522.5,-.5 522.5,-19.5 609.5,-19.5 609.5,-.5 522.5,-.5"/>
<text text-anchor="middle" x="566" y="-7.5" font-family="Helvetica,sans-Serif" font-size="10.00" fill="#000000">AMReX_Print.H</text>
</g>
<!-- Node25&#45;&gt;Node27 -->
<g id="edge43" class="edge">
<title>Node25&#45;&gt;Node27</title>
<path fill="none" stroke="#191970" d="M597.2188,-61.8906C591.874,-53.0068 583.7841,-39.5601 577.1789,-28.5811"/>
<polygon fill="#191970" stroke="#191970" points="580.0171,-26.5093 571.8628,-19.7449 574.0189,-30.118 580.0171,-26.5093"/>
</g>
<!-- Node28 -->
<g id="node29" class="node">
<title>Node28</title>
<polygon fill="#ffffff" stroke="#bfbfbf" points="370,-.5 370,-19.5 432,-19.5 432,-.5 370,-.5"/>
<text text-anchor="middle" x="401" y="-7.5" font-family="Helvetica,sans-Serif" font-size="10.00" fill="#000000">AMReX.H</text>
</g>
<!-- Node25&#45;&gt;Node28 -->
<g id="edge44" class="edge">
<title>Node25&#45;&gt;Node28</title>
<path fill="none" stroke="#191970" d="M571.4375,-61.8906C536.4997,-51.2536 480.0762,-34.0752 441.806,-22.4236"/>
<polygon fill="#191970" stroke="#191970" points="442.5954,-19.0054 432.0095,-19.441 440.5565,-25.7019 442.5954,-19.0054"/>
</g>
<!-- Node29&#45;&gt;Node10 -->
<g id="edge46" class="edge">
<title>Node29&#45;&gt;Node10</title>
<path fill="none" stroke="#191970" d="M808.639,-64.8153C834.9902,-62.0354 865.9803,-58.8086 894,-56 1057.7758,-39.5839 1103.9702,-54.1722 1269.17,-19.7256"/>
<polygon fill="#191970" stroke="#191970" points="1270.1263,-23.1008 1279.186,-17.608 1268.6783,-16.2522 1270.1263,-23.1008"/>
</g>
<!-- Node29&#45;&gt;Node11 -->
<g id="edge48" class="edge">
<title>Node29&#45;&gt;Node11</title>
<path fill="none" stroke="#191970" d="M762.7188,-61.8906C780.0722,-51.9165 807.4323,-36.1908 827.4882,-24.6633"/>
<polygon fill="#191970" stroke="#191970" points="829.4728,-27.5596 836.3987,-19.5419 825.9846,-21.4907 829.4728,-27.5596"/>
</g>
<!-- Node29&#45;&gt;Node17 -->
<g id="edge47" class="edge">
<title>Node29&#45;&gt;Node17</title>
<path fill="none" stroke="#191970" d="M731.625,-61.8906C716.9069,-52.0519 693.8168,-36.6167 676.6411,-25.1351"/>
<polygon fill="#191970" stroke="#191970" points="678.5327,-22.1896 668.2741,-19.5419 674.6425,-28.0091 678.5327,-22.1896"/>
</g>
<!-- Node30 -->
<g id="node31" class="node">
<title>Node30</title>
<polygon fill="#ffffff" stroke="#bfbfbf" points="698.5,-.5 698.5,-19.5 793.5,-19.5 793.5,-.5 698.5,-.5"/>
<text text-anchor="middle" x="746" y="-7.5" font-family="Helvetica,sans-Serif" font-size="10.00" fill="#000000">AMReX_Vector.H</text>
</g>
<!-- Node29&#45;&gt;Node30 -->
<g id="edge49" class="edge">
<title>Node29&#45;&gt;Node30</title>
<path fill="none" stroke="#191970" d="M746,-61.8906C746,-53.3657 746,-40.6392 746,-29.9235"/>
<polygon fill="#191970" stroke="#191970" points="749.5001,-29.7448 746,-19.7449 742.5001,-29.7449 749.5001,-29.7448"/>
</g>
<!-- Node32 -->
<g id="node33" class="node">
<title>Node32</title>
<polygon fill="#ffffff" stroke="#bfbfbf" points="306.5,-.5 306.5,-19.5 351.5,-19.5 351.5,-.5 306.5,-.5"/>
<text text-anchor="middle" x="329" y="-7.5" font-family="Helvetica,sans-Serif" font-size="10.00" fill="#000000">iosfwd</text>
</g>
<!-- Node31&#45;&gt;Node32 -->
<g id="edge51" class="edge">
<title>Node31&#45;&gt;Node32</title>
<path fill="none" stroke="#191970" d="M422.6662,-56.4554C402.7024,-46.554 376.751,-33.683 357.2285,-24.0004"/>
<polygon fill="#191970" stroke="#191970" points="358.7294,-20.838 348.2156,-19.5303 355.6191,-27.1091 358.7294,-20.838"/>
</g>
<!-- Node33&#45;&gt;Node14 -->
<g id="edge57" class="edge">
<title>Node33&#45;&gt;Node14</title>
<path fill="none" stroke="#191970" d="M991.714,-132.3505C1052.6426,-125.3315 1146.5818,-111.516 1225,-87 1276.6606,-70.8493 1333.0839,-42.0907 1365.0487,-24.6596"/>
<polygon fill="#191970" stroke="#191970" points="1367.0845,-27.5339 1374.1512,-19.6401 1363.7042,-21.4041 1367.0845,-27.5339"/>
</g>
<!-- Node33&#45;&gt;Node25 -->
<g id="edge55" class="edge">
<title>Node33&#45;&gt;Node25</title>
<path fill="none" stroke="#191970" d="M883.6245,-128.9823C874.1808,-126.9836 864.2642,-124.9047 855,-123 774.6603,-106.4819 754.2921,-103.7476 674,-87 668.224,-85.7952 662.189,-84.5134 656.1823,-83.2228"/>
<polygon fill="#191970" stroke="#191970" points="656.6646,-79.7463 646.1509,-81.0547 655.1858,-86.5883 656.6646,-79.7463"/>
</g>
<!-- Node33&#45;&gt;Node29 -->
<g id="edge56" class="edge">
<title>Node33&#45;&gt;Node29</title>
<path fill="none" stroke="#191970" d="M901.9238,-128.9005C870.2989,-117.2584 816.8456,-97.5805 781.4876,-84.5641"/>
<polygon fill="#191970" stroke="#191970" points="782.6213,-81.2519 772.0278,-81.0817 780.203,-87.8209 782.6213,-81.2519"/>
</g>
<!-- Node34 -->
<g id="node35" class="node">
<title>Node34</title>
<polygon fill="#ffffff" stroke="#bfbfbf" points="903,-62 903,-81 1013,-81 1013,-62 903,-62"/>
<text text-anchor="middle" x="958" y="-69" font-family="Helvetica,sans-Serif" font-size="10.00" fill="#000000">AMReX_Geometry.H</text>
</g>
<!-- Node33&#45;&gt;Node34 -->
<g id="edge58" class="edge">
<title>Node33&#45;&gt;Node34</title>
<path fill="none" stroke="#191970" d="M932.2983,-128.9005C936.7983,-118.8505 943.9796,-102.8122 949.6088,-90.2403"/>
<polygon fill="#191970" stroke="#191970" points="952.8174,-91.6389 953.7097,-81.0817 946.4286,-88.7782 952.8174,-91.6389"/>
</g>
<!-- Node36&#45;&gt;Node3 -->
<g id="edge69" class="edge">
<title>Node36&#45;&gt;Node3</title>
<path fill="none" stroke="#191970" d="M1530.4855,-267.3012C1460.3128,-259.1667 1323.3152,-242.1497 1208,-221 1201.8256,-219.8676 1195.3631,-218.5581 1188.9826,-217.1898"/>
<polygon fill="#191970" stroke="#191970" points="1189.5953,-213.7409 1179.0765,-215.0081 1188.0896,-220.5771 1189.5953,-213.7409"/>
</g>
<!-- Node36&#45;&gt;Node4 -->
<g id="edge63" class="edge">
<title>Node36&#45;&gt;Node4</title>
<path fill="none" stroke="#191970" d="M1610.7148,-262.9929C1618.0501,-260.9735 1625.7766,-258.8837 1633,-257 1698.0872,-240.0266 1719.2419,-249.8601 1780,-221 1854.6042,-185.563 1928.5329,-119.3374 1960.9425,-88.3274"/>
<polygon fill="#191970" stroke="#191970" points="1963.5113,-90.712 1968.2628,-81.2424 1958.643,-85.6821 1963.5113,-90.712"/>
</g>
<!-- Node36&#45;&gt;Node5 -->
<g id="edge70" class="edge">
<title>Node36&#45;&gt;Node5</title>
<path fill="none" stroke="#191970" d="M1530.188,-271.5194C1440.9304,-268.8082 1240.7063,-258.6711 1077,-221 1037.8124,-211.9824 1031.2175,-198.8868 992,-190 906.693,-170.6691 659.4002,-152.0311 533.1317,-143.4388"/>
<polygon fill="#191970" stroke="#191970" points="532.9893,-139.9213 522.7758,-142.7382 532.5167,-146.9053 532.9893,-139.9213"/>
</g>
<!-- Node36&#45;&gt;Node9 -->
<g id="edge71" class="edge">
<title>Node36&#45;&gt;Node9</title>
<path fill="none" stroke="#191970" d="M1557.9429,-262.8789C1542.4307,-254.0663 1521.1778,-239.5783 1509,-221 1496.5473,-202.0023 1491.8397,-175.9755 1490.0649,-158.2699"/>
<polygon fill="#191970" stroke="#191970" points="1493.5486,-157.9241 1489.2828,-148.226 1486.5697,-158.4675 1493.5486,-157.9241"/>
</g>
<!-- Node36&#45;&gt;Node20 -->
<g id="edge68" class="edge">
<title>Node36&#45;&gt;Node20</title>
<path fill="none" stroke="#191970" d="M1532.5009,-262.9513C1439.5911,-241.6832 1220.3218,-184.4589 1060,-87 1045.6173,-78.2568 1013.3306,-46.7493 993.5329,-26.8496"/>
<polygon fill="#191970" stroke="#191970" points="995.9011,-24.2668 986.3801,-19.6189 990.9246,-29.1896 995.9011,-24.2668"/>
</g>
<!-- Node36&#45;&gt;Node22 -->
<g id="edge66" class="edge">
<title>Node36&#45;&gt;Node22</title>
<path fill="none" stroke="#191970" d="M1609.7576,-262.9673C1617.3588,-260.8851 1625.438,-258.7754 1633,-257 1823.8449,-212.1931 1943.8106,-257.8129 2040,-87 2046.7604,-74.9948 2048.1147,-67.1346 2040,-56 2029.7597,-41.9488 1991.3928,-30.0556 1956.977,-21.8843"/>
<polygon fill="#191970" stroke="#191970" points="1957.4615,-18.4045 1946.9315,-19.5748 1955.893,-25.2265 1957.4615,-18.4045"/>
</g>
<!-- Node37 -->
<g id="node38" class="node">
<title>Node37</title>
<polygon fill="#ffffff" stroke="#bfbfbf" points="1517.5,-196 1517.5,-215 1636.5,-215 1636.5,-196 1517.5,-196"/>
<text text-anchor="middle" x="1577" y="-203" font-family="Helvetica,sans-Serif" font-size="10.00" fill="#000000">AMReX_MultiFabUtil.H</text>
</g>
<!-- Node36&#45;&gt;Node37 -->
<g id="edge64" class="edge">
<title>Node36&#45;&gt;Node37</title>
<path fill="none" stroke="#191970" d="M1577,-262.9005C1577,-253.149 1577,-237.7597 1577,-225.3695"/>
<polygon fill="#191970" stroke="#191970" points="1580.5001,-225.0816 1577,-215.0817 1573.5001,-225.0817 1580.5001,-225.0816"/>
</g>
<!-- Node38 -->
<g id="node39" class="node">
<title>Node38</title>
<polygon fill="#ffffff" stroke="#bfbfbf" points="1655,-196 1655,-215 1771,-215 1771,-196 1655,-196"/>
<text text-anchor="middle" x="1713" y="-203" font-family="Helvetica,sans-Serif" font-size="10.00" fill="#000000">AMReX_ParmParse.H</text>
</g>
<!-- Node36&#45;&gt;Node38 -->
<g id="edge65" class="edge">
<title>Node36&#45;&gt;Node38</title>
<path fill="none" stroke="#191970" d="M1596.4855,-262.9005C1619.5113,-251.5569 1658.0228,-232.5844 1684.4232,-219.5783"/>
<polygon fill="#191970" stroke="#191970" points="1686.1269,-222.6407 1693.5507,-215.0817 1683.0334,-216.3613 1686.1269,-222.6407"/>
</g>
<!-- Node39 -->
<g id="node40" class="node">
<title>Node39</title>
<polygon fill="#ffffff" stroke="#bfbfbf" points="2087.5,-196 2087.5,-215 2218.5,-215 2218.5,-196 2087.5,-196"/>
<text text-anchor="middle" x="2153" y="-203" font-family="Helvetica,sans-Serif" font-size="10.00" fill="#000000">AMReX_NodalProjector.H</text>
</g>
<!-- Node36&#45;&gt;Node39 -->
<g id="edge67" class="edge">
<title>Node36&#45;&gt;Node39</title>
<path fill="none" stroke="#191970" d="M1607.2781,-262.9994C1615.5478,-260.7126 1624.5576,-258.4999 1633,-257 1826.1838,-222.6779 1878.6163,-247.7009 2073,-221 2081.2604,-219.8653 2089.9576,-218.4316 2098.4526,-216.8966"/>
<polygon fill="#191970" stroke="#191970" points="2099.1057,-220.3352 2108.2939,-215.06 2097.8215,-213.454 2099.1057,-220.3352"/>
</g>
<!-- Node40 -->
<g id="node41" class="node">
<title>Node40</title>
<g id="a_node41"><a xlink:href="incflo__prob___i_8_h.html" target="_top" xlink:title="amr&#45;wind/prob/incflo\l_prob_I.H">
<polygon fill="#ffffff" stroke="#000000" points="2237,-190.5 2237,-220.5 2341,-220.5 2341,-190.5 2237,-190.5"/>
<text text-anchor="start" x="2245" y="-208.5" font-family="Helvetica,sans-Serif" font-size="10.00" fill="#000000">amr&#45;wind/prob/incflo</text>
<text text-anchor="middle" x="2289" y="-197.5" font-family="Helvetica,sans-Serif" font-size="10.00" fill="#000000">_prob_I.H</text>
</a>
</g>
</g>
<!-- Node36&#45;&gt;Node40 -->
<g id="edge72" class="edge">
<title>Node36&#45;&gt;Node40</title>
<path fill="none" stroke="#191970" d="M1606.9659,-262.9602C1615.315,-260.6444 1624.4427,-258.4269 1633,-257 1891.0024,-213.9785 1964.3765,-260.5896 2226.6773,-220.9987"/>
<polygon fill="#191970" stroke="#191970" points="2227.5383,-224.4075 2236.8902,-219.4283 2226.4744,-217.4889 2227.5383,-224.4075"/>
</g>
</g>
</svg>
