<?xml version="1.0" encoding="UTF-8" standalone="no"?>
<!DOCTYPE svg PUBLIC "-//W3C//DTD SVG 1.1//EN"
 "http://www.w3.org/Graphics/SVG/1.1/DTD/svg11.dtd">
<!-- Generated by graphviz version 2.40.1 (20161225.0304)
 -->
<!-- Title: FieldFillPatchOps.H Pages: 1 -->
<svg width="1026pt" height="420pt"
 viewBox="0.00 0.00 1025.50 420.00" xmlns="http://www.w3.org/2000/svg" xmlns:xlink="http://www.w3.org/1999/xlink">
<g id="graph0" class="graph" transform="scale(1 1) rotate(0) translate(4 416)">
<title>FieldFillPatchOps.H</title>
<polygon fill="#ffffff" stroke="transparent" points="-4,4 -4,-416 1021.5,-416 1021.5,4 -4,4"/>
<!-- Node19 -->
<g id="node1" class="node">
<title>Node19</title>
<polygon fill="#bfbfbf" stroke="#000000" points="490,-392.5 490,-411.5 594,-411.5 594,-392.5 490,-392.5"/>
<text text-anchor="middle" x="542" y="-399.5" font-family="Helvetica,sans-Serif" font-size="10.00" fill="#000000">FieldFillPatchOps.H</text>
</g>
<!-- Node20 -->
<g id="node2" class="node">
<title>Node20</title>
<g id="a_node2"><a xlink:href="_field_8cpp.html" target="_top" xlink:title="Field.cpp">
<polygon fill="#ffffff" stroke="#000000" points="471,-336.5 471,-355.5 527,-355.5 527,-336.5 471,-336.5"/>
<text text-anchor="middle" x="499" y="-343.5" font-family="Helvetica,sans-Serif" font-size="10.00" fill="#000000">Field.cpp</text>
</a>
</g>
</g>
<!-- Node19&#45;&gt;Node20 -->
<g id="edge1" class="edge">
<title>Node19&#45;&gt;Node20</title>
<path fill="none" stroke="#191970" d="M528.3408,-384.2112C521.0737,-374.7472 512.4219,-363.4797 506.4042,-355.6427"/>
<polygon fill="#191970" stroke="#191970" points="525.6436,-386.4456 534.51,-392.2455 531.1957,-382.1824 525.6436,-386.4456"/>
</g>
<!-- Node21 -->
<g id="node3" class="node">
<title>Node21</title>
<g id="a_node3"><a xlink:href="_p_d_e_helpers_8_h.html" target="_top" xlink:title="PDEHelpers.H">
<polygon fill="#ffffff" stroke="#000000" points="545,-336.5 545,-355.5 627,-355.5 627,-336.5 545,-336.5"/>
<text text-anchor="middle" x="586" y="-343.5" font-family="Helvetica,sans-Serif" font-size="10.00" fill="#000000">PDEHelpers.H</text>
</a>
</g>
</g>
<!-- Node19&#45;&gt;Node21 -->
<g id="edge2" class="edge">
<title>Node19&#45;&gt;Node21</title>
<path fill="none" stroke="#191970" d="M555.9769,-384.2112C563.4129,-374.7472 572.266,-363.4797 578.4236,-355.6427"/>
<polygon fill="#191970" stroke="#191970" points="553.0903,-382.22 549.6642,-392.2455 558.5946,-386.5447 553.0903,-382.22"/>
</g>
<!-- Node22 -->
<g id="node4" class="node">
<title>Node22</title>
<g id="a_node4"><a xlink:href="_p_d_e_ops_8_h.html" target="_top" xlink:title="PDEOps.H">
<polygon fill="#ffffff" stroke="#000000" points="501,-280.5 501,-299.5 567,-299.5 567,-280.5 501,-280.5"/>
<text text-anchor="middle" x="534" y="-287.5" font-family="Helvetica,sans-Serif" font-size="10.00" fill="#000000">PDEOps.H</text>
</a>
</g>
</g>
<!-- Node21&#45;&gt;Node22 -->
<g id="edge3" class="edge">
<title>Node21&#45;&gt;Node22</title>
<path fill="none" stroke="#191970" d="M570.0178,-328.7884C561.1222,-319.2085 550.3796,-307.6396 542.9539,-299.6427"/>
<polygon fill="#191970" stroke="#191970" points="567.573,-331.2992 576.9423,-336.2455 572.7025,-326.536 567.573,-331.2992"/>
</g>
<!-- Node25 -->
<g id="node7" class="node">
<title>Node25</title>
<g id="a_node7"><a xlink:href="icns__ops_8_h.html" target="_top" xlink:title="icns_ops.H">
<polygon fill="#ffffff" stroke="#000000" points="576,-56.5 576,-75.5 642,-75.5 642,-56.5 576,-56.5"/>
<text text-anchor="middle" x="609" y="-63.5" font-family="Helvetica,sans-Serif" font-size="10.00" fill="#000000">icns_ops.H</text>
</a>
</g>
</g>
<!-- Node21&#45;&gt;Node25 -->
<g id="edge54" class="edge">
<title>Node21&#45;&gt;Node25</title>
<path fill="none" stroke="#191970" d="M616.4678,-331.8871C649.4279,-315.1975 701.4787,-284.4908 733,-244 749.3286,-223.0251 749.2572,-214.1548 754,-188 755.586,-179.2537 758.0089,-175.9335 754,-168 744.5387,-149.2762 695.1768,-124.0439 678,-112 659.6106,-99.1058 638.0109,-84.8448 623.9422,-75.671"/>
<polygon fill="#191970" stroke="#191970" points="614.7179,-328.8477 607.3032,-336.4157 617.8189,-335.1234 614.7179,-328.8477"/>
</g>
<!-- Node36 -->
<g id="node18" class="node">
<title>Node36</title>
<g id="a_node18"><a xlink:href="density_8_h.html" target="_top" xlink:title="density.H">
<polygon fill="#ffffff" stroke="#000000" points="2.5,-112.5 2.5,-131.5 61.5,-131.5 61.5,-112.5 2.5,-112.5"/>
<text text-anchor="middle" x="32" y="-119.5" font-family="Helvetica,sans-Serif" font-size="10.00" fill="#000000">density.H</text>
</a>
</g>
</g>
<!-- Node21&#45;&gt;Node36 -->
<g id="edge51" class="edge">
<title>Node21&#45;&gt;Node36</title>
<path fill="none" stroke="#191970" d="M534.8187,-335.8878C436.98,-319.3338 406.3211,-333.6824 317,-300 200.7346,-256.157 80.6434,-162.0464 43.5806,-131.668"/>
<polygon fill="#191970" stroke="#191970" points="534.3656,-339.3618 544.8208,-337.6473 535.5784,-332.4677 534.3656,-339.3618"/>
</g>
<!-- Node38 -->
<g id="node20" class="node">
<title>Node38</title>
<g id="a_node20"><a xlink:href="icns_8_h.html" target="_top" xlink:title="icns.H">
<polygon fill="#ffffff" stroke="#000000" points="720.5,-112.5 720.5,-131.5 765.5,-131.5 765.5,-112.5 720.5,-112.5"/>
<text text-anchor="middle" x="743" y="-119.5" font-family="Helvetica,sans-Serif" font-size="10.00" fill="#000000">icns.H</text>
</a>
</g>
</g>
<!-- Node21&#45;&gt;Node38 -->
<g id="edge53" class="edge">
<title>Node21&#45;&gt;Node38</title>
<path fill="none" stroke="#191970" d="M637.211,-344.5378C705.7086,-341.3787 821.6235,-331.411 848,-300 885.7266,-255.0725 880.0989,-217.1064 848,-168 829.8153,-140.1801 790.6729,-129.0811 765.6547,-124.7262"/>
<polygon fill="#191970" stroke="#191970" points="636.8966,-341.0479 627.0554,-344.9724 637.196,-348.0415 636.8966,-341.0479"/>
</g>
<!-- Node39 -->
<g id="node21" class="node">
<title>Node39</title>
<g id="a_node21"><a xlink:href="icns__diffusion_8_h.html" target="_top" xlink:title="icns_diffusion.H">
<polygon fill="#ffffff" stroke="#000000" points="788.5,-56.5 788.5,-75.5 875.5,-75.5 875.5,-56.5 788.5,-56.5"/>
<text text-anchor="middle" x="832" y="-63.5" font-family="Helvetica,sans-Serif" font-size="10.00" fill="#000000">icns_diffusion.H</text>
</a>
</g>
</g>
<!-- Node21&#45;&gt;Node39 -->
<g id="edge55" class="edge">
<title>Node21&#45;&gt;Node39</title>
<path fill="none" stroke="#191970" d="M637.19,-342.6466C707.9006,-337.1831 830.9445,-324.4305 868,-300 897.028,-280.862 910,-268.7691 910,-234 910,-234 910,-234 910,-178 910,-132.9791 867.0343,-93.0918 844.8801,-75.5173"/>
<polygon fill="#191970" stroke="#191970" points="636.8632,-339.1611 627.1534,-343.4003 637.3875,-346.1415 636.8632,-339.1611"/>
</g>
<!-- Node40 -->
<g id="node22" class="node">
<title>Node40</title>
<g id="a_node22"><a xlink:href="_s_d_r_8_h.html" target="_top" xlink:title="SDR.H">
<polygon fill="#ffffff" stroke="#000000" points="277.5,-112.5 277.5,-131.5 326.5,-131.5 326.5,-112.5 277.5,-112.5"/>
<text text-anchor="middle" x="302" y="-119.5" font-family="Helvetica,sans-Serif" font-size="10.00" fill="#000000">SDR.H</text>
</a>
</g>
</g>
<!-- Node21&#45;&gt;Node40 -->
<g id="edge57" class="edge">
<title>Node21&#45;&gt;Node40</title>
<path fill="none" stroke="#191970" d="M534.8769,-334.9229C482.9301,-323.4597 408.3834,-306.3582 396,-300 362.0784,-282.5831 350.8173,-276.5776 331,-244 308.3712,-206.8006 303.3997,-153.2624 302.3075,-131.6194"/>
<polygon fill="#191970" stroke="#191970" points="534.4215,-338.4063 544.9398,-337.1356 535.9248,-331.5696 534.4215,-338.4063"/>
</g>
<!-- Node41 -->
<g id="node23" class="node">
<title>Node41</title>
<g id="a_node23"><a xlink:href="temperature_8_h.html" target="_top" xlink:title="temperature.H">
<polygon fill="#ffffff" stroke="#000000" points="79.5,-112.5 79.5,-131.5 158.5,-131.5 158.5,-112.5 79.5,-112.5"/>
<text text-anchor="middle" x="119" y="-119.5" font-family="Helvetica,sans-Serif" font-size="10.00" fill="#000000">temperature.H</text>
</a>
</g>
</g>
<!-- Node21&#45;&gt;Node41 -->
<g id="edge58" class="edge">
<title>Node21&#45;&gt;Node41</title>
<path fill="none" stroke="#191970" d="M534.9022,-335.7713C467.5687,-322.2877 357.5138,-300.2296 357,-300 256.6583,-255.1666 158.5298,-161.7137 128.3957,-131.5842"/>
<polygon fill="#191970" stroke="#191970" points="534.4209,-339.2444 544.9135,-337.776 535.7953,-332.3806 534.4209,-339.2444"/>
</g>
<!-- Node42 -->
<g id="node24" class="node">
<title>Node42</title>
<g id="a_node24"><a xlink:href="_t_k_e_8_h.html" target="_top" xlink:title="TKE.H">
<polygon fill="#ffffff" stroke="#000000" points="344.5,-112.5 344.5,-131.5 391.5,-131.5 391.5,-112.5 344.5,-112.5"/>
<text text-anchor="middle" x="368" y="-119.5" font-family="Helvetica,sans-Serif" font-size="10.00" fill="#000000">TKE.H</text>
</a>
</g>
</g>
<!-- Node21&#45;&gt;Node42 -->
<g id="edge59" class="edge">
<title>Node21&#45;&gt;Node42</title>
<path fill="none" stroke="#191970" d="M534.7791,-335.467C482.7462,-322.3218 402.9132,-295.0709 353,-244 328.3334,-218.7613 318.0574,-201.2085 330,-168 335.2581,-153.3788 347.4007,-140.099 356.5547,-131.6084"/>
<polygon fill="#191970" stroke="#191970" points="534.2532,-338.9413 544.7978,-337.9109 535.9121,-332.1407 534.2532,-338.9413"/>
</g>
<!-- Node43 -->
<g id="node25" class="node">
<title>Node43</title>
<g id="a_node25"><a xlink:href="_diffusion_ops_8_h.html" target="_top" xlink:title="DiffusionOps.H">
<polygon fill="#ffffff" stroke="#000000" points="640,-224.5 640,-243.5 724,-243.5 724,-224.5 640,-224.5"/>
<text text-anchor="middle" x="682" y="-231.5" font-family="Helvetica,sans-Serif" font-size="10.00" fill="#000000">DiffusionOps.H</text>
</a>
</g>
</g>
<!-- Node21&#45;&gt;Node43 -->
<g id="edge52" class="edge">
<title>Node21&#45;&gt;Node43</title>
<path fill="none" stroke="#191970" d="M600.7072,-328.8416C621.1947,-304.9396 657.6288,-262.433 673.8358,-243.5249"/>
<polygon fill="#191970" stroke="#191970" points="598.0354,-326.5806 594.1849,-336.4509 603.3503,-331.1361 598.0354,-326.5806"/>
</g>
<!-- Node45 -->
<g id="node27" class="node">
<title>Node45</title>
<g id="a_node27"><a xlink:href="_p_d_e_base_8cpp.html" target="_top" xlink:title="PDEBase.cpp">
<polygon fill="#ffffff" stroke="#000000" points="938.5,-280.5 938.5,-299.5 1017.5,-299.5 1017.5,-280.5 938.5,-280.5"/>
<text text-anchor="middle" x="978" y="-287.5" font-family="Helvetica,sans-Serif" font-size="10.00" fill="#000000">PDEBase.cpp</text>
</a>
</g>
</g>
<!-- Node21&#45;&gt;Node45 -->
<g id="edge56" class="edge">
<title>Node21&#45;&gt;Node45</title>
<path fill="none" stroke="#191970" d="M637.3828,-339.7838C703.7283,-331.5793 822.7063,-316.2623 924,-300 928.6128,-299.2594 933.4381,-298.436 938.2256,-297.5886"/>
<polygon fill="#191970" stroke="#191970" points="636.6944,-336.342 627.1974,-341.0385 637.5504,-343.2895 636.6944,-336.342"/>
</g>
<!-- Node23 -->
<g id="node5" class="node">
<title>Node23</title>
<g id="a_node5"><a xlink:href="_adv_op___godunov_8_h.html" target="_top" xlink:title="AdvOp_Godunov.H">
<polygon fill="#ffffff" stroke="#000000" points="409.5,-112.5 409.5,-131.5 510.5,-131.5 510.5,-112.5 409.5,-112.5"/>
<text text-anchor="middle" x="460" y="-119.5" font-family="Helvetica,sans-Serif" font-size="10.00" fill="#000000">AdvOp_Godunov.H</text>
</a>
</g>
</g>
<!-- Node22&#45;&gt;Node23 -->
<g id="edge4" class="edge">
<title>Node22&#45;&gt;Node23</title>
<path fill="none" stroke="#191970" d="M525.7141,-271.1887C509.9836,-235.4762 476.2971,-158.9988 464.3289,-131.8279"/>
<polygon fill="#191970" stroke="#191970" points="522.5753,-272.7456 529.8094,-280.4862 528.9814,-269.9238 522.5753,-272.7456"/>
</g>
<!-- Node22&#45;&gt;Node25 -->
<g id="edge49" class="edge">
<title>Node22&#45;&gt;Node25</title>
<path fill="none" stroke="#191970" d="M542.9931,-271.0858C546.8267,-262.8266 551.2667,-252.9922 555,-244 575.3847,-194.9007 582.8551,-183.2464 597,-132 602.4537,-112.2416 606.0804,-88.4557 607.8146,-75.519"/>
<polygon fill="#191970" stroke="#191970" points="539.788,-269.677 538.7058,-280.2165 546.1242,-272.6522 539.788,-269.677"/>
</g>
<!-- Node31 -->
<g id="node13" class="node">
<title>Node31</title>
<g id="a_node13"><a xlink:href="_adv_op___m_o_l_8_h.html" target="_top" xlink:title="AdvOp_MOL.H">
<polygon fill="#ffffff" stroke="#000000" points="176.5,-112.5 176.5,-131.5 259.5,-131.5 259.5,-112.5 176.5,-112.5"/>
<text text-anchor="middle" x="218" y="-119.5" font-family="Helvetica,sans-Serif" font-size="10.00" fill="#000000">AdvOp_MOL.H</text>
</a>
</g>
</g>
<!-- Node22&#45;&gt;Node31 -->
<g id="edge12" class="edge">
<title>Node22&#45;&gt;Node31</title>
<path fill="none" stroke="#191970" d="M490.6488,-284.9904C452.5797,-279.2283 396.6253,-267.3739 353,-244 296.4743,-213.7142 244.7069,-154.7463 225.6948,-131.628"/>
<polygon fill="#191970" stroke="#191970" points="490.4913,-288.5035 500.8869,-286.4585 491.485,-281.5744 490.4913,-288.5035"/>
</g>
<!-- Node32 -->
<g id="node14" class="node">
<title>Node32</title>
<g id="a_node14"><a xlink:href="_b_c_ops_8_h.html" target="_top" xlink:title="BCOps.H">
<polygon fill="#ffffff" stroke="#000000" points="528.5,-112.5 528.5,-131.5 587.5,-131.5 587.5,-112.5 528.5,-112.5"/>
<text text-anchor="middle" x="558" y="-119.5" font-family="Helvetica,sans-Serif" font-size="10.00" fill="#000000">BCOps.H</text>
</a>
</g>
</g>
<!-- Node22&#45;&gt;Node32 -->
<g id="edge18" class="edge">
<title>Node22&#45;&gt;Node32</title>
<path fill="none" stroke="#191970" d="M536.82,-270.2601C541.9762,-234.1669 552.7478,-158.7656 556.596,-131.8279"/>
<polygon fill="#191970" stroke="#191970" points="533.3086,-270.0917 535.3591,-280.4862 540.2382,-271.0817 533.3086,-270.0917"/>
</g>
<!-- Node34 -->
<g id="node16" class="node">
<title>Node34</title>
<g id="a_node16"><a xlink:href="_comp_r_h_s_ops_8_h.html" target="_top" xlink:title="CompRHSOps.H">
<polygon fill="#ffffff" stroke="#000000" points="374.5,-224.5 374.5,-243.5 467.5,-243.5 467.5,-224.5 374.5,-224.5"/>
<text text-anchor="middle" x="421" y="-231.5" font-family="Helvetica,sans-Serif" font-size="10.00" fill="#000000">CompRHSOps.H</text>
</a>
</g>
</g>
<!-- Node22&#45;&gt;Node34 -->
<g id="edge25" class="edge">
<title>Node22&#45;&gt;Node34</title>
<path fill="none" stroke="#191970" d="M505.4208,-275.8368C484.9942,-265.7139 458.0638,-252.3679 440.1719,-243.5011"/>
<polygon fill="#191970" stroke="#191970" points="504.0604,-279.0688 514.5746,-280.3733 507.1687,-272.7968 504.0604,-279.0688"/>
</g>
<!-- Node35 -->
<g id="node17" class="node">
<title>Node35</title>
<g id="a_node17"><a xlink:href="_p_d_e_8_h.html" target="_top" xlink:title="PDE.H">
<polygon fill="#ffffff" stroke="#000000" points="339,-168.5 339,-187.5 387,-187.5 387,-168.5 339,-168.5"/>
<text text-anchor="middle" x="363" y="-175.5" font-family="Helvetica,sans-Serif" font-size="10.00" fill="#000000">PDE.H</text>
</a>
</g>
</g>
<!-- Node22&#45;&gt;Node35 -->
<g id="edge43" class="edge">
<title>Node22&#45;&gt;Node35</title>
<path fill="none" stroke="#191970" d="M490.6727,-283.9785C446.2422,-276.8328 381.5052,-263.3919 366,-244 353.1066,-227.8746 356.8614,-201.7961 360.2271,-187.7333"/>
<polygon fill="#191970" stroke="#191970" points="490.2333,-287.4521 500.6529,-285.5335 491.311,-280.5356 490.2333,-287.4521"/>
</g>
<!-- Node22&#45;&gt;Node39 -->
<g id="edge50" class="edge">
<title>Node22&#45;&gt;Node39</title>
<path fill="none" stroke="#191970" d="M549.2869,-272.5406C556.6021,-264.0425 565.4013,-253.6084 573,-244 599.0261,-211.0905 594.1073,-191.3001 629,-168 684.5798,-130.8859 718.0271,-166.9379 775,-132 798.4898,-117.5952 817.3897,-90.3137 826.3534,-75.7452"/>
<polygon fill="#191970" stroke="#191970" points="546.4731,-270.443 542.5657,-280.291 551.7616,-275.0291 546.4731,-270.443"/>
</g>
<!-- Node22&#45;&gt;Node43 -->
<g id="edge44" class="edge">
<title>Node22&#45;&gt;Node43</title>
<path fill="none" stroke="#191970" d="M568.9153,-276.7888C595.9383,-266.5639 632.714,-252.6488 656.8899,-243.5011"/>
<polygon fill="#191970" stroke="#191970" points="567.5563,-273.5608 559.4421,-280.3733 570.0336,-280.1078 567.5563,-273.5608"/>
</g>
<!-- Node24 -->
<g id="node6" class="node">
<title>Node24</title>
<g id="a_node6"><a xlink:href="density_8cpp.html" target="_top" xlink:title="density.cpp">
<polygon fill="#ffffff" stroke="#000000" points="134.5,-.5 134.5,-19.5 201.5,-19.5 201.5,-.5 134.5,-.5"/>
<text text-anchor="middle" x="168" y="-7.5" font-family="Helvetica,sans-Serif" font-size="10.00" fill="#000000">density.cpp</text>
</a>
</g>
</g>
<!-- Node23&#45;&gt;Node24 -->
<g id="edge5" class="edge">
<title>Node23&#45;&gt;Node24</title>
<path fill="none" stroke="#191970" d="M459.6572,-102.0387C458.2827,-87.1664 453.9012,-67.5156 441,-56 406.1288,-24.8739 266.6579,-14.4917 201.659,-11.2997"/>
<polygon fill="#191970" stroke="#191970" points="456.1754,-102.4712 460.2134,-112.2664 463.1651,-102.091 456.1754,-102.4712"/>
</g>
<!-- Node23&#45;&gt;Node25 -->
<g id="edge6" class="edge">
<title>Node23&#45;&gt;Node25</title>
<path fill="none" stroke="#191970" d="M495.1512,-108.7888C522.3568,-98.5639 559.3809,-84.6488 583.7202,-75.5011"/>
<polygon fill="#191970" stroke="#191970" points="493.7434,-105.5788 485.614,-112.3733 496.2061,-112.1313 493.7434,-105.5788"/>
</g>
<!-- Node28 -->
<g id="node10" class="node">
<title>Node28</title>
<g id="a_node10"><a xlink:href="_s_d_r_8cpp.html" target="_top" xlink:title="SDR.cpp">
<polygon fill="#ffffff" stroke="#000000" points="301.5,-56.5 301.5,-75.5 358.5,-75.5 358.5,-56.5 301.5,-56.5"/>
<text text-anchor="middle" x="330" y="-63.5" font-family="Helvetica,sans-Serif" font-size="10.00" fill="#000000">SDR.cpp</text>
</a>
</g>
</g>
<!-- Node23&#45;&gt;Node28 -->
<g id="edge9" class="edge">
<title>Node23&#45;&gt;Node28</title>
<path fill="none" stroke="#191970" d="M428.3898,-108.3833C404.7465,-98.1985 373.0124,-84.5284 352.0562,-75.5011"/>
<polygon fill="#191970" stroke="#191970" points="427.0834,-111.6314 437.6522,-112.3733 429.8528,-105.2025 427.0834,-111.6314"/>
</g>
<!-- Node29 -->
<g id="node11" class="node">
<title>Node29</title>
<g id="a_node11"><a xlink:href="temperature_8cpp.html" target="_top" xlink:title="temperature.cpp">
<polygon fill="#ffffff" stroke="#000000" points="196.5,-56.5 196.5,-75.5 283.5,-75.5 283.5,-56.5 196.5,-56.5"/>
<text text-anchor="middle" x="240" y="-63.5" font-family="Helvetica,sans-Serif" font-size="10.00" fill="#000000">temperature.cpp</text>
</a>
</g>
</g>
<!-- Node23&#45;&gt;Node29 -->
<g id="edge10" class="edge">
<title>Node23&#45;&gt;Node29</title>
<path fill="none" stroke="#191970" d="M412.2722,-109.8511C371.7888,-99.5462 314.524,-84.9697 277.3258,-75.5011"/>
<polygon fill="#191970" stroke="#191970" points="411.6263,-113.2982 422.1807,-112.3733 413.3531,-106.5145 411.6263,-113.2982"/>
</g>
<!-- Node30 -->
<g id="node12" class="node">
<title>Node30</title>
<g id="a_node12"><a xlink:href="_t_k_e_8cpp.html" target="_top" xlink:title="TKE.cpp">
<polygon fill="#ffffff" stroke="#000000" points="376.5,-56.5 376.5,-75.5 431.5,-75.5 431.5,-56.5 376.5,-56.5"/>
<text text-anchor="middle" x="404" y="-63.5" font-family="Helvetica,sans-Serif" font-size="10.00" fill="#000000">TKE.cpp</text>
</a>
</g>
</g>
<!-- Node23&#45;&gt;Node30 -->
<g id="edge11" class="edge">
<title>Node23&#45;&gt;Node30</title>
<path fill="none" stroke="#191970" d="M443.0751,-105.0751C433.4402,-95.4402 421.7196,-83.7196 413.6427,-75.6427"/>
<polygon fill="#191970" stroke="#191970" points="440.6996,-107.6493 450.2455,-112.2455 445.6493,-102.6996 440.6996,-107.6493"/>
</g>
<!-- Node26 -->
<g id="node8" class="node">
<title>Node26</title>
<g id="a_node8"><a xlink:href="icns_8cpp.html" target="_top" xlink:title="icns.cpp">
<polygon fill="#ffffff" stroke="#000000" points="701.5,-.5 701.5,-19.5 754.5,-19.5 754.5,-.5 701.5,-.5"/>
<text text-anchor="middle" x="728" y="-7.5" font-family="Helvetica,sans-Serif" font-size="10.00" fill="#000000">icns.cpp</text>
</a>
</g>
</g>
<!-- Node25&#45;&gt;Node26 -->
<g id="edge7" class="edge">
<title>Node25&#45;&gt;Node26</title>
<path fill="none" stroke="#191970" d="M638.5144,-52.1109C660.0938,-41.9559 688.7976,-28.4482 707.8101,-19.5011"/>
<polygon fill="#191970" stroke="#191970" points="637.0147,-48.9484 629.4568,-56.3733 639.9953,-55.2821 637.0147,-48.9484"/>
</g>
<!-- Node27 -->
<g id="node9" class="node">
<title>Node27</title>
<g id="a_node9"><a xlink:href="icns__ops_8cpp.html" target="_top" xlink:title="icns_ops.cpp">
<polygon fill="#ffffff" stroke="#000000" points="572,-.5 572,-19.5 646,-19.5 646,-.5 572,-.5"/>
<text text-anchor="middle" x="609" y="-7.5" font-family="Helvetica,sans-Serif" font-size="10.00" fill="#000000">icns_ops.cpp</text>
</a>
</g>
</g>
<!-- Node25&#45;&gt;Node27 -->
<g id="edge8" class="edge">
<title>Node25&#45;&gt;Node27</title>
<path fill="none" stroke="#191970" d="M609,-46.1575C609,-37.155 609,-26.9199 609,-19.6427"/>
<polygon fill="#191970" stroke="#191970" points="605.5001,-46.2455 609,-56.2455 612.5001,-46.2456 605.5001,-46.2455"/>
</g>
<!-- Node31&#45;&gt;Node24 -->
<g id="edge13" class="edge">
<title>Node31&#45;&gt;Node24</title>
<path fill="none" stroke="#191970" d="M204.1106,-104.2269C198.1925,-95.9962 191.606,-85.8694 187,-76 178.125,-56.9833 172.4727,-32.9193 169.8066,-19.7363"/>
<polygon fill="#191970" stroke="#191970" points="201.3586,-106.3913 210.1448,-112.3119 206.9685,-102.2044 201.3586,-106.3913"/>
</g>
<!-- Node31&#45;&gt;Node25 -->
<g id="edge14" class="edge">
<title>Node31&#45;&gt;Node25</title>
<path fill="none" stroke="#191970" d="M269.6834,-111.9686C388.2015,-92.577 516.2289,-76.848 575.6023,-69.8536"/>
<polygon fill="#191970" stroke="#191970" points="269.0095,-108.5324 259.7121,-113.6126 270.1483,-115.4391 269.0095,-108.5324"/>
</g>
<!-- Node31&#45;&gt;Node28 -->
<g id="edge15" class="edge">
<title>Node31&#45;&gt;Node28</title>
<path fill="none" stroke="#191970" d="M246.3263,-107.8368C266.5721,-97.7139 293.2642,-84.3679 310.9978,-75.5011"/>
<polygon fill="#191970" stroke="#191970" points="244.6325,-104.7706 237.2535,-112.3733 247.763,-111.0316 244.6325,-104.7706"/>
</g>
<!-- Node31&#45;&gt;Node29 -->
<g id="edge16" class="edge">
<title>Node31&#45;&gt;Node29</title>
<path fill="none" stroke="#191970" d="M225.5628,-102.7493C229.1546,-93.6064 233.2901,-83.0798 236.2118,-75.6427"/>
<polygon fill="#191970" stroke="#191970" points="222.2311,-101.6582 221.8321,-112.2455 228.7463,-104.2178 222.2311,-101.6582"/>
</g>
<!-- Node31&#45;&gt;Node30 -->
<g id="edge17" class="edge">
<title>Node31&#45;&gt;Node30</title>
<path fill="none" stroke="#191970" d="M259.6051,-109.4737C295.2294,-98.7482 345.5207,-83.6067 376.379,-74.316"/>
<polygon fill="#191970" stroke="#191970" points="258.5409,-106.1389 249.9745,-112.3733 260.559,-112.8417 258.5409,-106.1389"/>
</g>
<!-- Node32&#45;&gt;Node24 -->
<g id="edge19" class="edge">
<title>Node32&#45;&gt;Node24</title>
<path fill="none" stroke="#191970" d="M539.6398,-105.7951C521.126,-90.3992 491.0592,-67.8874 461,-56 414.1946,-37.49 268.0011,-20.4242 201.5159,-13.3917"/>
<polygon fill="#191970" stroke="#191970" points="537.407,-108.4908 547.2916,-112.3045 541.9427,-103.159 537.407,-108.4908"/>
</g>
<!-- Node32&#45;&gt;Node28 -->
<g id="edge22" class="edge">
<title>Node32&#45;&gt;Node28</title>
<path fill="none" stroke="#191970" d="M518.315,-111.6192C450.9928,-94.9261 432.3267,-92.079 368,-76 364.9556,-75.239 361.7784,-74.4287 358.6143,-73.6112"/>
<polygon fill="#191970" stroke="#191970" points="517.5976,-115.0474 528.1472,-114.0694 519.2903,-108.2551 517.5976,-115.0474"/>
</g>
<!-- Node32&#45;&gt;Node29 -->
<g id="edge23" class="edge">
<title>Node32&#45;&gt;Node29</title>
<path fill="none" stroke="#191970" d="M518.2913,-111.7836C418.3153,-91.112 390.4993,-92.9256 293,-76 289.9555,-75.4715 286.8152,-74.9131 283.6544,-74.3412"/>
<polygon fill="#191970" stroke="#191970" points="517.6916,-115.2338 528.1964,-113.8556 519.1249,-108.3821 517.6916,-115.2338"/>
</g>
<!-- Node32&#45;&gt;Node30 -->
<g id="edge24" class="edge">
<title>Node32&#45;&gt;Node30</title>
<path fill="none" stroke="#191970" d="M522.0386,-108.9231C493.8866,-98.686 455.3945,-84.6889 430.1281,-75.5011"/>
<polygon fill="#191970" stroke="#191970" points="520.9324,-112.245 531.5265,-112.3733 523.3246,-105.6665 520.9324,-112.245"/>
</g>
<!-- Node33 -->
<g id="node15" class="node">
<title>Node33</title>
<g id="a_node15"><a xlink:href="icns__bcop_8_h.html" target="_top" xlink:title="icns_bcop.H">
<polygon fill="#ffffff" stroke="#000000" points="660.5,-56.5 660.5,-75.5 731.5,-75.5 731.5,-56.5 660.5,-56.5"/>
<text text-anchor="middle" x="696" y="-63.5" font-family="Helvetica,sans-Serif" font-size="10.00" fill="#000000">icns_bcop.H</text>
</a>
</g>
</g>
<!-- Node32&#45;&gt;Node33 -->
<g id="edge20" class="edge">
<title>Node32&#45;&gt;Node33</title>
<path fill="none" stroke="#191970" d="M591.2213,-108.5189C616.354,-98.3201 650.2418,-84.5685 672.5865,-75.5011"/>
<polygon fill="#191970" stroke="#191970" points="589.6731,-105.3699 581.723,-112.3733 592.3053,-111.8562 589.6731,-105.3699"/>
</g>
<!-- Node33&#45;&gt;Node26 -->
<g id="edge21" class="edge">
<title>Node33&#45;&gt;Node26</title>
<path fill="none" stroke="#191970" d="M706.6645,-47.3372C711.9654,-38.0605 718.1487,-27.2398 722.4899,-19.6427"/>
<polygon fill="#191970" stroke="#191970" points="703.4966,-45.8266 701.574,-56.2455 709.5743,-49.2996 703.4966,-45.8266"/>
</g>
<!-- Node34&#45;&gt;Node35 -->
<g id="edge26" class="edge">
<title>Node34&#45;&gt;Node35</title>
<path fill="none" stroke="#191970" d="M403.4707,-217.0751C393.4917,-207.4402 381.3524,-195.7196 372.9871,-187.6427"/>
<polygon fill="#191970" stroke="#191970" points="401.272,-219.8175 410.8972,-224.2455 406.1342,-214.7817 401.272,-219.8175"/>
</g>
<!-- Node35&#45;&gt;Node36 -->
<g id="edge27" class="edge">
<title>Node35&#45;&gt;Node36</title>
<path fill="none" stroke="#191970" d="M328.7079,-173.7662C273.7885,-166.7283 162.8406,-151.4512 70,-132 67.3293,-131.4404 64.5654,-130.8116 61.8027,-130.1488"/>
<polygon fill="#191970" stroke="#191970" points="328.5616,-177.2757 338.9227,-175.0628 329.4431,-170.3314 328.5616,-177.2757"/>
</g>
<!-- Node35&#45;&gt;Node38 -->
<g id="edge31" class="edge">
<title>Node35&#45;&gt;Node38</title>
<path fill="none" stroke="#191970" d="M397.0908,-172.9761C473.3587,-161.7366 656.0854,-134.8085 720.2539,-125.3521"/>
<polygon fill="#191970" stroke="#191970" points="396.4418,-169.5338 387.059,-174.4545 397.4624,-176.459 396.4418,-169.5338"/>
</g>
<!-- Node35&#45;&gt;Node40 -->
<g id="edge37" class="edge">
<title>Node35&#45;&gt;Node40</title>
<path fill="none" stroke="#191970" d="M344.8751,-161.3607C334.322,-151.6727 321.3888,-139.7995 312.5036,-131.6427"/>
<polygon fill="#191970" stroke="#191970" points="342.6411,-164.0611 352.3746,-168.2455 347.375,-158.9045 342.6411,-164.0611"/>
</g>
<!-- Node35&#45;&gt;Node41 -->
<g id="edge39" class="edge">
<title>Node35&#45;&gt;Node41</title>
<path fill="none" stroke="#191970" d="M328.9215,-170.1787C284.2847,-159.9342 206.1546,-142.0027 158.8352,-131.1425"/>
<polygon fill="#191970" stroke="#191970" points="328.1827,-173.6001 338.7123,-172.4258 329.7486,-166.7775 328.1827,-173.6001"/>
</g>
<!-- Node35&#45;&gt;Node42 -->
<g id="edge41" class="edge">
<title>Node35&#45;&gt;Node42</title>
<path fill="none" stroke="#191970" d="M364.7717,-158.1575C365.5754,-149.155 366.4893,-138.9199 367.139,-131.6427"/>
<polygon fill="#191970" stroke="#191970" points="361.2742,-157.9739 363.8709,-168.2455 368.2465,-158.5965 361.2742,-157.9739"/>
</g>
<!-- Node36&#45;&gt;Node24 -->
<g id="edge28" class="edge">
<title>Node36&#45;&gt;Node24</title>
<path fill="none" stroke="#191970" d="M52.356,-105.7104C63.2605,-96.9495 76.9027,-85.9334 89,-76 113.1711,-56.1524 141.2125,-32.5983 156.5376,-19.6801"/>
<polygon fill="#191970" stroke="#191970" points="49.8898,-103.2017 44.2795,-112.1892 54.27,-108.662 49.8898,-103.2017"/>
</g>
<!-- Node37 -->
<g id="node19" class="node">
<title>Node37</title>
<g id="a_node19"><a xlink:href="density__ops_8_h.html" target="_top" xlink:title="density_ops.H">
<polygon fill="#ffffff" stroke="#000000" points="0,-56.5 0,-75.5 80,-75.5 80,-56.5 0,-56.5"/>
<text text-anchor="middle" x="40" y="-63.5" font-family="Helvetica,sans-Serif" font-size="10.00" fill="#000000">density_ops.H</text>
</a>
</g>
</g>
<!-- Node36&#45;&gt;Node37 -->
<g id="edge29" class="edge">
<title>Node36&#45;&gt;Node37</title>
<path fill="none" stroke="#191970" d="M34.8346,-102.1575C36.1207,-93.155 37.5829,-82.9199 38.6225,-75.6427"/>
<polygon fill="#191970" stroke="#191970" points="31.343,-101.851 33.3935,-112.2455 38.2726,-102.8411 31.343,-101.851"/>
</g>
<!-- Node37&#45;&gt;Node24 -->
<g id="edge30" class="edge">
<title>Node37&#45;&gt;Node24</title>
<path fill="none" stroke="#191970" d="M71.4348,-52.2473C94.6809,-42.0771 125.7411,-28.4883 146.2831,-19.5011"/>
<polygon fill="#191970" stroke="#191970" points="69.7627,-49.1585 62.004,-56.3733 72.5685,-55.5716 69.7627,-49.1585"/>
</g>
<!-- Node38&#45;&gt;Node25 -->
<g id="edge33" class="edge">
<title>Node38&#45;&gt;Node25</title>
<path fill="none" stroke="#191970" d="M710.7323,-108.515C686.3695,-98.3335 653.5381,-84.6129 631.8428,-75.5462"/>
<polygon fill="#191970" stroke="#191970" points="709.6924,-111.8737 720.2687,-112.5004 712.3916,-105.415 709.6924,-111.8737"/>
</g>
<!-- Node38&#45;&gt;Node26 -->
<g id="edge32" class="edge">
<title>Node38&#45;&gt;Node26</title>
<path fill="none" stroke="#191970" d="M743.6624,-101.8321C743.7811,-88.7035 743.3491,-71.2476 741,-56 739.0287,-43.2047 734.6326,-28.9221 731.4988,-19.7163"/>
<polygon fill="#191970" stroke="#191970" points="740.1578,-102.0211 743.4507,-112.0912 747.1564,-102.1656 740.1578,-102.0211"/>
</g>
<!-- Node38&#45;&gt;Node33 -->
<g id="edge36" class="edge">
<title>Node38&#45;&gt;Node33</title>
<path fill="none" stroke="#191970" d="M728.3128,-104.5004C720.3204,-94.9775 710.7375,-83.5596 704.093,-75.6427"/>
<polygon fill="#191970" stroke="#191970" points="725.7036,-106.8358 734.8132,-112.2455 731.0654,-102.3357 725.7036,-106.8358"/>
</g>
<!-- Node38&#45;&gt;Node39 -->
<g id="edge34" class="edge">
<title>Node38&#45;&gt;Node39</title>
<path fill="none" stroke="#191970" d="M767.2064,-106.769C782.9775,-96.8456 803.076,-84.1994 816.675,-75.6427"/>
<polygon fill="#191970" stroke="#191970" points="765.1026,-103.9575 758.5026,-112.2455 768.8305,-109.8823 765.1026,-103.9575"/>
</g>
<!-- Node39&#45;&gt;Node26 -->
<g id="edge35" class="edge">
<title>Node39&#45;&gt;Node26</title>
<path fill="none" stroke="#191970" d="M804.9971,-51.46C786.3864,-41.4388 762.1701,-28.3993 745.9078,-19.6427"/>
<polygon fill="#191970" stroke="#191970" points="803.4205,-54.5861 813.8846,-56.2455 806.7392,-48.4228 803.4205,-54.5861"/>
</g>
<!-- Node40&#45;&gt;Node28 -->
<g id="edge38" class="edge">
<title>Node40&#45;&gt;Node28</title>
<path fill="none" stroke="#191970" d="M311.4781,-103.0437C316.0835,-93.8331 321.4201,-83.1598 325.1787,-75.6427"/>
<polygon fill="#191970" stroke="#191970" points="308.2189,-101.736 306.8772,-112.2455 314.4799,-104.8665 308.2189,-101.736"/>
</g>
<!-- Node41&#45;&gt;Node29 -->
<g id="edge40" class="edge">
<title>Node41&#45;&gt;Node29</title>
<path fill="none" stroke="#191970" d="M149.0104,-108.1109C170.9525,-97.9559 200.1388,-84.4482 219.4708,-75.5011"/>
<polygon fill="#191970" stroke="#191970" points="147.4058,-104.9968 139.8006,-112.3733 150.3459,-111.3494 147.4058,-104.9968"/>
</g>
<!-- Node42&#45;&gt;Node30 -->
<g id="edge42" class="edge">
<title>Node42&#45;&gt;Node30</title>
<path fill="none" stroke="#191970" d="M379.8096,-103.6296C385.8144,-94.2887 392.8659,-83.3197 397.8011,-75.6427"/>
<polygon fill="#191970" stroke="#191970" points="376.7342,-101.9411 374.2707,-112.2455 382.6225,-105.7264 376.7342,-101.9411"/>
</g>
<!-- Node43&#45;&gt;Node25 -->
<g id="edge47" class="edge">
<title>Node43&#45;&gt;Node25</title>
<path fill="none" stroke="#191970" d="M709.6928,-219.1347C729.2424,-206.5515 750.1325,-187.4966 739,-168 723.3903,-140.6623 703.0959,-151.0055 678,-132 654.4774,-114.1859 630.3072,-89.2362 617.7622,-75.6863"/>
<polygon fill="#191970" stroke="#191970" points="707.6692,-216.2682 700.9247,-224.4391 711.2925,-222.2575 707.6692,-216.2682"/>
</g>
<!-- Node43&#45;&gt;Node35 -->
<g id="edge45" class="edge">
<title>Node43&#45;&gt;Node35</title>
<path fill="none" stroke="#191970" d="M630.0488,-224.88C560.1841,-212.6154 438.7787,-191.3028 387.2469,-182.2565"/>
<polygon fill="#191970" stroke="#191970" points="629.5137,-228.3396 639.9683,-226.6214 630.7241,-221.445 629.5137,-228.3396"/>
</g>
<!-- Node43&#45;&gt;Node39 -->
<g id="edge48" class="edge">
<title>Node43&#45;&gt;Node39</title>
<path fill="none" stroke="#191970" d="M709.5332,-219.19C738.5999,-202.0891 783.5269,-171.2096 808,-132 819.4912,-113.5894 826.6054,-88.8727 829.8739,-75.5201"/>
<polygon fill="#191970" stroke="#191970" points="707.6362,-216.2431 700.6994,-224.2512 711.1161,-222.3169 707.6362,-216.2431"/>
</g>
<!-- Node44 -->
<g id="node26" class="node">
<title>Node44</title>
<g id="a_node26"><a xlink:href="_diffusion_ops_8cpp.html" target="_top" xlink:title="DiffusionOps.cpp">
<polygon fill="#ffffff" stroke="#000000" points="638,-168.5 638,-187.5 730,-187.5 730,-168.5 638,-168.5"/>
<text text-anchor="middle" x="684" y="-175.5" font-family="Helvetica,sans-Serif" font-size="10.00" fill="#000000">DiffusionOps.cpp</text>
</a>
</g>
</g>
<!-- Node43&#45;&gt;Node44 -->
<g id="edge46" class="edge">
<title>Node43&#45;&gt;Node44</title>
<path fill="none" stroke="#191970" d="M682.7087,-214.1575C683.0302,-205.155 683.3957,-194.9199 683.6556,-187.6427"/>
<polygon fill="#191970" stroke="#191970" points="679.2076,-214.127 682.3484,-224.2455 686.2032,-214.3769 679.2076,-214.127"/>
</g>
</g>
</svg>
