<?xml version="1.0" encoding="UTF-8" standalone="no"?>
<!DOCTYPE svg PUBLIC "-//W3C//DTD SVG 1.1//EN"
 "http://www.w3.org/Graphics/SVG/1.1/DTD/svg11.dtd">
<!-- Generated by graphviz version 2.40.1 (20161225.0304)
 -->
<!-- Title: FieldFillPatchOps.H Pages: 1 -->
<!--zoomable 140 -->
<svg id="main" version="1.1" xmlns="http://www.w3.org/2000/svg" xmlns:xlink="http://www.w3.org/1999/xlink" xml:space="preserve" onload="init(evt)">
<style type="text/css"><![CDATA[
.edge:hover path { stroke: red; }
.edge:hover polygon { stroke: red; fill: red; }
]]></style>
<script type="text/javascript"><![CDATA[
var edges = document.getElementsByTagName('g');
if (edges && edges.length) {
  for (var i=0;i<edges.length;i++) {
    if (edges[i].id.substr(0,4)=='edge') {
      edges[i].setAttribute('class','edge');
    }
  }
}
]]></script>
        <defs>
                <circle id="rim" cx="0" cy="0" r="7"/>
                <circle id="rim2" cx="0" cy="0" r="3.5"/>
                <g id="zoomPlus">
                        <use xlink:href="#rim" fill="#404040">
                                <set attributeName="fill" to="#808080" begin="zoomplus.mouseover" end="zoomplus.mouseout"/>
                        </use>
                        <path d="M-4,0h8M0,-4v8" fill="none" stroke="white" stroke-width="1.5" pointer-events="none"/>
                </g>
                <g id="zoomMin">
                        <use xlink:href="#rim" fill="#404040">
                                <set attributeName="fill" to="#808080" begin="zoomminus.mouseover" end="zoomminus.mouseout"/>
                        </use>
                        <path d="M-4,0h8" fill="none" stroke="white" stroke-width="1.5" pointer-events="none"/>
                </g>
                <g id="dirArrow">
                        <path fill="none" stroke="white" stroke-width="1.5" d="M0,-3.0v7 M-2.5,-0.5L0,-3.0L2.5,-0.5"/>
                </g>
               <g id="resetDef">
                       <use xlink:href="#rim2" fill="#404040">
                               <set attributeName="fill" to="#808080" begin="reset.mouseover" end="reset.mouseout"/>
                       </use>
               </g>
        </defs>

<script type="text/javascript">
var viewWidth = 1559;
var viewHeight = 140;
var sectionId = 'dynsection-0';
</script>
<script xlink:href="svgpan.js"/>
<svg id="graph" class="graph">
<g id="viewport">
<title>FieldFillPatchOps.H</title>
<polygon fill="#ffffff" stroke="transparent" points="-4,4 -4,-136 1554.5,-136 1554.5,4 -4,4"/>
<!-- Node0 -->
<g id="node1" class="node">
<title>Node0</title>
<polygon fill="#bfbfbf" stroke="#000000" points="930.5,-112.5 930.5,-131.5 1034.5,-131.5 1034.5,-112.5 930.5,-112.5"/>
<text text-anchor="middle" x="982.5" y="-119.5" font-family="Helvetica,sans-Serif" font-size="10.00" fill="#000000">FieldFillPatchOps.H</text>
</g>
<!-- Node1 -->
<g id="node2" class="node">
<title>Node1</title>
<g id="a_node2"><a xlink:href="_field_8_h.html" target="_top" xlink:title="amr&#45;wind/core/Field.H">
<polygon fill="#ffffff" stroke="#000000" points="365,-56.5 365,-75.5 478,-75.5 478,-56.5 365,-56.5"/>
<text text-anchor="middle" x="421.5" y="-63.5" font-family="Helvetica,sans-Serif" font-size="10.00" fill="#000000">amr&#45;wind/core/Field.H</text>
</a>
</g>
</g>
<!-- Node0&#45;&gt;Node1 -->
<g id="edge1" class="edge">
<title>Node0&#45;&gt;Node1</title>
<path fill="none" stroke="#191970" d="M930.4774,-116.807C828.2754,-106.605 601.4182,-83.9598 488.3095,-72.669"/>
<polygon fill="#191970" stroke="#191970" points="488.3543,-69.1562 478.056,-71.6455 487.6589,-76.1216 488.3543,-69.1562"/>
</g>
<!-- Node5 -->
<g id="node6" class="node">
<title>Node5</title>
<polygon fill="#ffffff" stroke="#bfbfbf" points="598.5,-.5 598.5,-19.5 702.5,-19.5 702.5,-.5 598.5,-.5"/>
<text text-anchor="middle" x="650.5" y="-7.5" font-family="Helvetica,sans-Serif" font-size="10.00" fill="#000000">AMReX_MultiFab.H</text>
</g>
<!-- Node0&#45;&gt;Node5 -->
<g id="edge20" class="edge">
<title>Node0&#45;&gt;Node5</title>
<path fill="none" stroke="#191970" d="M930.2362,-115.3786C867.8986,-106.9561 767.8079,-91.6197 733.5,-76 707.5319,-64.1772 682.5853,-42.4794 666.9412,-27.1967"/>
<polygon fill="#191970" stroke="#191970" points="669.1881,-24.4928 659.6521,-19.8758 664.2276,-29.4318 669.1881,-24.4928"/>
</g>
<!-- Node9 -->
<g id="node10" class="node">
<title>Node9</title>
<g id="a_node10"><a xlink:href="_field_desc_types_8_h.html" target="_top" xlink:title="amr&#45;wind/core/FieldDescTypes.H">
<polygon fill="#ffffff" stroke="#000000" points="721,-.5 721,-19.5 884,-19.5 884,-.5 721,-.5"/>
<text text-anchor="middle" x="802.5" y="-7.5" font-family="Helvetica,sans-Serif" font-size="10.00" fill="#000000">amr&#45;wind/core/FieldDescTypes.H</text>
</a>
</g>
</g>
<!-- Node0&#45;&gt;Node9 -->
<g id="edge14" class="edge">
<title>Node0&#45;&gt;Node9</title>
<path fill="none" stroke="#191970" d="M969.0945,-112.4626C950.4288,-99.3009 915.4155,-75.0381 884.5,-56 866.4909,-44.9098 845.7058,-33.262 829.5681,-24.462"/>
<polygon fill="#191970" stroke="#191970" points="831.1194,-21.3218 820.6597,-19.6355 827.7848,-27.4765 831.1194,-21.3218"/>
</g>
<!-- Node10 -->
<g id="node11" class="node">
<title>Node10</title>
<g id="a_node11"><a xlink:href="_sim_time_8_h.html" target="_top" xlink:title="amr&#45;wind/core/SimTime.H">
<polygon fill="#ffffff" stroke="#000000" points="1011,-56.5 1011,-75.5 1142,-75.5 1142,-56.5 1011,-56.5"/>
<text text-anchor="middle" x="1076.5" y="-63.5" font-family="Helvetica,sans-Serif" font-size="10.00" fill="#000000">amr&#45;wind/core/SimTime.H</text>
</a>
</g>
</g>
<!-- Node0&#45;&gt;Node10 -->
<g id="edge10" class="edge">
<title>Node0&#45;&gt;Node10</title>
<path fill="none" stroke="#191970" d="M998.8736,-112.2455C1013.4308,-103.5731 1034.931,-90.7645 1051.6152,-80.825"/>
<polygon fill="#191970" stroke="#191970" points="1053.5144,-83.7676 1060.3141,-75.6427 1049.9317,-77.7539 1053.5144,-83.7676"/>
</g>
<!-- Node11 -->
<g id="node12" class="node">
<title>Node11</title>
<polygon fill="#ffffff" stroke="#bfbfbf" points="1037,-.5 1037,-19.5 1130,-19.5 1130,-.5 1037,-.5"/>
<text text-anchor="middle" x="1083.5" y="-7.5" font-family="Helvetica,sans-Serif" font-size="10.00" fill="#000000">AMReX_REAL.H</text>
</g>
<!-- Node0&#45;&gt;Node11 -->
<g id="edge21" class="edge">
<title>Node0&#45;&gt;Node11</title>
<path fill="none" stroke="#191970" d="M983.0057,-112.4514C984.1939,-98.6185 988.1731,-72.8238 1001.5,-56 1012.8313,-41.6955 1029.9041,-31.1119 1045.5427,-23.7275"/>
<polygon fill="#191970" stroke="#191970" points="1047.2962,-26.7793 1055.0305,-19.5383 1044.4688,-20.3757 1047.2962,-26.7793"/>
</g>
<!-- Node14 -->
<g id="node15" class="node">
<title>Node14</title>
<g id="a_node15"><a xlink:href="_field_utils_8_h.html" target="_top" xlink:title="amr&#45;wind/core/FieldUtils.H">
<polygon fill="#ffffff" stroke="#000000" points="743,-56.5 743,-75.5 876,-75.5 876,-56.5 743,-56.5"/>
<text text-anchor="middle" x="809.5" y="-63.5" font-family="Helvetica,sans-Serif" font-size="10.00" fill="#000000">amr&#45;wind/core/FieldUtils.H</text>
</a>
</g>
</g>
<!-- Node0&#45;&gt;Node14 -->
<g id="edge15" class="edge">
<title>Node0&#45;&gt;Node14</title>
<path fill="none" stroke="#191970" d="M952.7602,-112.3733C923.993,-103.0613 880.23,-88.8953 848.6444,-78.671"/>
<polygon fill="#191970" stroke="#191970" points="849.4436,-75.251 838.8517,-75.5011 847.2878,-81.9107 849.4436,-75.251"/>
</g>
<!-- Node16 -->
<g id="node17" class="node">
<title>Node16</title>
<polygon fill="#ffffff" stroke="#bfbfbf" points="1160.5,-56.5 1160.5,-75.5 1266.5,-75.5 1266.5,-56.5 1160.5,-56.5"/>
<text text-anchor="middle" x="1213.5" y="-63.5" font-family="Helvetica,sans-Serif" font-size="10.00" fill="#000000">AMReX_AmrCore.H</text>
</g>
<!-- Node0&#45;&gt;Node16 -->
<g id="edge19" class="edge">
<title>Node0&#45;&gt;Node16</title>
<path fill="none" stroke="#191970" d="M1021.9478,-112.4369C1061.3156,-102.8932 1121.9034,-88.2052 1164.3708,-77.9101"/>
<polygon fill="#191970" stroke="#191970" points="1165.321,-81.2812 1174.2149,-75.5237 1163.6717,-74.4783 1165.321,-81.2812"/>
</g>
<!-- Node17 -->
<g id="node18" class="node">
<title>Node17</title>
<polygon fill="#ffffff" stroke="#bfbfbf" points="1284.5,-56.5 1284.5,-75.5 1412.5,-75.5 1412.5,-56.5 1284.5,-56.5"/>
<text text-anchor="middle" x="1348.5" y="-63.5" font-family="Helvetica,sans-Serif" font-size="10.00" fill="#000000">AMReX_PhysBCFunct.H</text>
</g>
<!-- Node0&#45;&gt;Node17 -->
<g id="edge22" class="edge">
<title>Node0&#45;&gt;Node17</title>
<path fill="none" stroke="#191970" d="M1034.5502,-114.036C1097.7533,-104.3656 1204.7192,-87.9993 1275.9743,-77.0968"/>
<polygon fill="#191970" stroke="#191970" points="1276.8632,-80.5016 1286.2187,-75.5294 1275.8044,-73.5822 1276.8632,-80.5016"/>
</g>
<!-- Node18 -->
<g id="node19" class="node">
<title>Node18</title>
<polygon fill="#ffffff" stroke="#bfbfbf" points="1430.5,-56.5 1430.5,-75.5 1550.5,-75.5 1550.5,-56.5 1430.5,-56.5"/>
<text text-anchor="middle" x="1490.5" y="-63.5" font-family="Helvetica,sans-Serif" font-size="10.00" fill="#000000">AMReX_FillPatchUtil.H</text>
</g>
<!-- Node0&#45;&gt;Node18 -->
<g id="edge23" class="edge">
<title>Node0&#45;&gt;Node18</title>
<path fill="none" stroke="#191970" d="M1034.6112,-117.2118C1115.059,-109.672 1274.589,-94.1335 1420.288,-76.1124"/>
<polygon fill="#191970" stroke="#191970" points="1420.8165,-79.5738 1430.3081,-74.8664 1419.9526,-72.6273 1420.8165,-79.5738"/>
</g>
<!-- Node2 -->
<g id="node3" class="node">
<title>Node2</title>
<polygon fill="#ffffff" stroke="#bfbfbf" points="250,-.5 250,-19.5 291,-19.5 291,-.5 250,-.5"/>
<text text-anchor="middle" x="270.5" y="-7.5" font-family="Helvetica,sans-Serif" font-size="10.00" fill="#000000">string</text>
</g>
<!-- Node1&#45;&gt;Node2 -->
<g id="edge2" class="edge">
<title>Node1&#45;&gt;Node2</title>
<path fill="none" stroke="#191970" d="M395.5422,-56.3733C369.2573,-46.6252 328.629,-31.5578 300.8656,-21.2614"/>
<polygon fill="#191970" stroke="#191970" points="301.8624,-17.8982 291.2694,-17.7026 299.4283,-24.4614 301.8624,-17.8982"/>
</g>
<!-- Node3 -->
<g id="node4" class="node">
<title>Node3</title>
<polygon fill="#ffffff" stroke="#bfbfbf" points="309.5,-.5 309.5,-19.5 361.5,-19.5 361.5,-.5 309.5,-.5"/>
<text text-anchor="middle" x="335.5" y="-7.5" font-family="Helvetica,sans-Serif" font-size="10.00" fill="#000000">memory</text>
</g>
<!-- Node1&#45;&gt;Node3 -->
<g id="edge3" class="edge">
<title>Node1&#45;&gt;Node3</title>
<path fill="none" stroke="#191970" d="M406.5199,-56.2455C393.3249,-47.6534 373.8949,-35.0014 358.6921,-25.1018"/>
<polygon fill="#191970" stroke="#191970" points="360.5983,-22.1665 350.3084,-19.6427 356.7785,-28.0325 360.5983,-22.1665"/>
</g>
<!-- Node4 -->
<g id="node5" class="node">
<title>Node4</title>
<polygon fill="#ffffff" stroke="#bfbfbf" points="380,-.5 380,-19.5 463,-19.5 463,-.5 380,-.5"/>
<text text-anchor="middle" x="421.5" y="-7.5" font-family="Helvetica,sans-Serif" font-size="10.00" fill="#000000">unordered_map</text>
</g>
<!-- Node1&#45;&gt;Node4 -->
<g id="edge4" class="edge">
<title>Node1&#45;&gt;Node4</title>
<path fill="none" stroke="#191970" d="M421.5,-56.2455C421.5,-48.9382 421.5,-38.6944 421.5,-29.7046"/>
<polygon fill="#191970" stroke="#191970" points="425.0001,-29.6426 421.5,-19.6427 418.0001,-29.6427 425.0001,-29.6426"/>
</g>
<!-- Node1&#45;&gt;Node5 -->
<g id="edge5" class="edge">
<title>Node1&#45;&gt;Node5</title>
<path fill="none" stroke="#191970" d="M460.6063,-56.4369C499.6332,-46.8932 559.6965,-32.2052 601.7962,-21.9101"/>
<polygon fill="#191970" stroke="#191970" points="602.6726,-25.299 611.555,-19.5237 601.0098,-18.4993 602.6726,-25.299"/>
</g>
<!-- Node6 -->
<g id="node7" class="node">
<title>Node6</title>
<polygon fill="#ffffff" stroke="#bfbfbf" points="481,-.5 481,-19.5 580,-19.5 580,-.5 481,-.5"/>
<text text-anchor="middle" x="530.5" y="-7.5" font-family="Helvetica,sans-Serif" font-size="10.00" fill="#000000">AMReX_BCRec.H</text>
</g>
<!-- Node1&#45;&gt;Node6 -->
<g id="edge6" class="edge">
<title>Node1&#45;&gt;Node6</title>
<path fill="none" stroke="#191970" d="M440.4864,-56.2455C457.6792,-47.4125 483.2238,-34.2887 502.7132,-24.2758"/>
<polygon fill="#191970" stroke="#191970" points="504.4359,-27.3257 511.7312,-19.6427 501.237,-21.0993 504.4359,-27.3257"/>
</g>
<!-- Node7 -->
<g id="node8" class="node">
<title>Node7</title>
<polygon fill="#ffffff" stroke="#bfbfbf" points="0,-.5 0,-19.5 85,-19.5 85,-.5 0,-.5"/>
<text text-anchor="middle" x="42.5" y="-7.5" font-family="Helvetica,sans-Serif" font-size="10.00" fill="#000000">AMReX_Gpu.H</text>
</g>
<!-- Node1&#45;&gt;Node7 -->
<g id="edge7" class="edge">
<title>Node1&#45;&gt;Node7</title>
<path fill="none" stroke="#191970" d="M364.9497,-58.9217C301.7574,-50.8154 196.1634,-36.6848 95.1138,-20.0322"/>
<polygon fill="#191970" stroke="#191970" points="95.4739,-16.5441 85.0359,-18.3603 94.3282,-23.4498 95.4739,-16.5441"/>
</g>
<!-- Node8 -->
<g id="node9" class="node">
<title>Node8</title>
<g id="a_node9"><a xlink:href="incflo__enums_8_h.html" target="_top" xlink:title="amr&#45;wind/incflo_enums.H">
<polygon fill="#ffffff" stroke="#000000" points="103.5,-.5 103.5,-19.5 231.5,-19.5 231.5,-.5 103.5,-.5"/>
<text text-anchor="middle" x="167.5" y="-7.5" font-family="Helvetica,sans-Serif" font-size="10.00" fill="#000000">amr&#45;wind/incflo_enums.H</text>
</a>
</g>
</g>
<!-- Node1&#45;&gt;Node8 -->
<g id="edge8" class="edge">
<title>Node1&#45;&gt;Node8</title>
<path fill="none" stroke="#191970" d="M378.1244,-56.4369C334.563,-46.8328 267.3723,-32.0191 220.6366,-21.7152"/>
<polygon fill="#191970" stroke="#191970" points="221.2157,-18.2588 210.6966,-19.5237 219.7085,-25.0947 221.2157,-18.2588"/>
</g>
<!-- Node1&#45;&gt;Node9 -->
<g id="edge9" class="edge">
<title>Node1&#45;&gt;Node9</title>
<path fill="none" stroke="#191970" d="M478.1281,-57.6767C544.3533,-47.9428 654.2244,-31.7938 727.4896,-21.0251"/>
<polygon fill="#191970" stroke="#191970" points="728.1917,-24.4597 737.5764,-19.5426 727.1737,-17.5341 728.1917,-24.4597"/>
</g>
<!-- Node10&#45;&gt;Node11 -->
<g id="edge11" class="edge">
<title>Node10&#45;&gt;Node11</title>
<path fill="none" stroke="#191970" d="M1077.7193,-56.2455C1078.6327,-48.9382 1079.9132,-38.6944 1081.0369,-29.7046"/>
<polygon fill="#191970" stroke="#191970" points="1084.5272,-29.9996 1082.2947,-19.6427 1077.5813,-29.1313 1084.5272,-29.9996"/>
</g>
<!-- Node12 -->
<g id="node13" class="node">
<title>Node12</title>
<polygon fill="#ffffff" stroke="#bfbfbf" points="1148.5,-.5 1148.5,-19.5 1274.5,-19.5 1274.5,-.5 1148.5,-.5"/>
<text text-anchor="middle" x="1211.5" y="-7.5" font-family="Helvetica,sans-Serif" font-size="10.00" fill="#000000">AMReX_GpuQualifiers.H</text>
</g>
<!-- Node10&#45;&gt;Node12 -->
<g id="edge12" class="edge">
<title>Node10&#45;&gt;Node12</title>
<path fill="none" stroke="#191970" d="M1099.7073,-56.3733C1121.6699,-47.2629 1154.8332,-33.5062 1179.3401,-23.3404"/>
<polygon fill="#191970" stroke="#191970" points="1180.6997,-26.5657 1188.5955,-19.5011 1178.0176,-20.0999 1180.6997,-26.5657"/>
</g>
<!-- Node13 -->
<g id="node14" class="node">
<title>Node13</title>
<polygon fill="#ffffff" stroke="#bfbfbf" points="1292.5,-.5 1292.5,-19.5 1402.5,-19.5 1402.5,-.5 1292.5,-.5"/>
<text text-anchor="middle" x="1347.5" y="-7.5" font-family="Helvetica,sans-Serif" font-size="10.00" fill="#000000">AMReX_Extension.H</text>
</g>
<!-- Node10&#45;&gt;Node13 -->
<g id="edge13" class="edge">
<title>Node10&#45;&gt;Node13</title>
<path fill="none" stroke="#191970" d="M1122.7786,-56.4369C1169.4505,-46.7925 1241.5449,-31.8948 1291.4331,-21.5858"/>
<polygon fill="#191970" stroke="#191970" points="1292.3274,-24.975 1301.4122,-19.5237 1290.9108,-18.1198 1292.3274,-24.975"/>
</g>
<!-- Node14&#45;&gt;Node5 -->
<g id="edge17" class="edge">
<title>Node14&#45;&gt;Node5</title>
<path fill="none" stroke="#191970" d="M782.1669,-56.3733C755.9566,-47.1419 716.2016,-33.1402 687.2332,-22.9375"/>
<polygon fill="#191970" stroke="#191970" points="688.0712,-19.5219 677.4764,-19.5011 685.7458,-26.1244 688.0712,-19.5219"/>
</g>
<!-- Node14&#45;&gt;Node9 -->
<g id="edge16" class="edge">
<title>Node14&#45;&gt;Node9</title>
<path fill="none" stroke="#191970" d="M808.2807,-56.2455C807.3673,-48.9382 806.0868,-38.6944 804.9631,-29.7046"/>
<polygon fill="#191970" stroke="#191970" points="808.4187,-29.1313 803.7053,-19.6427 801.4728,-29.9996 808.4187,-29.1313"/>
</g>
<!-- Node15 -->
<g id="node16" class="node">
<title>Node15</title>
<polygon fill="#ffffff" stroke="#bfbfbf" points="902.5,-.5 902.5,-19.5 1018.5,-19.5 1018.5,-.5 902.5,-.5"/>
<text text-anchor="middle" x="960.5" y="-7.5" font-family="Helvetica,sans-Serif" font-size="10.00" fill="#000000">AMReX_Interpolater.H</text>
</g>
<!-- Node14&#45;&gt;Node15 -->
<g id="edge18" class="edge">
<title>Node14&#45;&gt;Node15</title>
<path fill="none" stroke="#191970" d="M835.4578,-56.3733C860.2407,-47.1822 897.7746,-33.2624 925.254,-23.0713"/>
<polygon fill="#191970" stroke="#191970" points="926.7219,-26.26 934.8809,-19.5011 924.2879,-19.6968 926.7219,-26.26"/>
</g>
</g>
</svg>
        <g id="navigator" transform="translate(0 0)" fill="#404254">
                <rect fill="#f2f5e9" fill-opacity="0.5" stroke="#606060" stroke-width=".5" x="0" y="0" width="60" height="60"/>
                <use id="zoomplus" xlink:href="#zoomPlus" x="17" y="9" onmousedown="handleZoom(evt,'in')"/>
                <use id="zoomminus" xlink:href="#zoomMin" x="42" y="9" onmousedown="handleZoom(evt,'out')"/>
                <use id="reset" xlink:href="#resetDef" x="30" y="36" onmousedown="handleReset()"/>
                <g id="arrowUp" xlink:href="#dirArrow" transform="translate(30 24)" onmousedown="handlePan(0,-1)">
                  <use xlink:href="#rim" fill="#404040">
                        <set attributeName="fill" to="#808080" begin="arrowUp.mouseover" end="arrowUp.mouseout"/>
                  </use>
                  <path fill="none" stroke="white" stroke-width="1.5" d="M0,-3.0v7 M-2.5,-0.5L0,-3.0L2.5,-0.5"/>
                </g>
                <g id="arrowRight" xlink:href="#dirArrow" transform="rotate(90) translate(36 -43)" onmousedown="handlePan(1,0)">
                  <use xlink:href="#rim" fill="#404040">
                        <set attributeName="fill" to="#808080" begin="arrowRight.mouseover" end="arrowRight.mouseout"/>
                  </use>
                  <path fill="none" stroke="white" stroke-width="1.5" d="M0,-3.0v7 M-2.5,-0.5L0,-3.0L2.5,-0.5"/>
                </g>
                <g id="arrowDown" xlink:href="#dirArrow" transform="rotate(180) translate(-30 -48)" onmousedown="handlePan(0,1)">
                  <use xlink:href="#rim" fill="#404040">
                        <set attributeName="fill" to="#808080" begin="arrowDown.mouseover" end="arrowDown.mouseout"/>
                  </use>
                  <path fill="none" stroke="white" stroke-width="1.5" d="M0,-3.0v7 M-2.5,-0.5L0,-3.0L2.5,-0.5"/>
                </g>
                <g id="arrowLeft" xlink:href="#dirArrow" transform="rotate(270) translate(-36 17)" onmousedown="handlePan(-1,0)">
                  <use xlink:href="#rim" fill="#404040">
                        <set attributeName="fill" to="#808080" begin="arrowLeft.mouseover" end="arrowLeft.mouseout"/>
                  </use>
                  <path fill="none" stroke="white" stroke-width="1.5" d="M0,-3.0v7 M-2.5,-0.5L0,-3.0L2.5,-0.5"/>
                </g>
        </g>
        <svg viewBox="0 0 15 15" width="100%" height="30px" preserveAspectRatio="xMaxYMin meet">
         <g id="arrow_out" transform="scale(0.3 0.3)">
          <a xlink:href="_field_fill_patch_ops_8_h__incl_org.svg" target="_base">
           <rect id="button" ry="5" rx="5" y="6" x="6" height="38" width="38"
                fill="#f2f5e9" fill-opacity="0.5" stroke="#606060" stroke-width="1.0"/>
           <path id="arrow"
             d="M 11.500037,31.436501 C 11.940474,20.09759 22.043105,11.32322 32.158766,21.979434 L 37.068811,17.246167 C 37.068811,17.246167 37.088388,32 37.088388,32 L 22.160133,31.978069 C 22.160133,31.978069 26.997745,27.140456 26.997745,27.140456 C 18.528582,18.264221 13.291696,25.230495 11.500037,31.436501 z"
             style="fill:#404040;"/>
          </a>
         </g>
        </svg>
</svg>
