<?xml version="1.0" encoding="UTF-8" standalone="no"?>
<!DOCTYPE svg PUBLIC "-//W3C//DTD SVG 1.1//EN"
 "http://www.w3.org/Graphics/SVG/1.1/DTD/svg11.dtd">
<!-- Generated by graphviz version 2.40.1 (20161225.0304)
 -->
<!-- Title: FieldPlaneAveraging.H Pages: 1 -->
<!--zoomable 285 -->
<svg id="main" version="1.1" xmlns="http://www.w3.org/2000/svg" xmlns:xlink="http://www.w3.org/1999/xlink" xml:space="preserve" onload="init(evt)">
<style type="text/css"><![CDATA[
.edge:hover path { stroke: red; }
.edge:hover polygon { stroke: red; fill: red; }
]]></style>
<script type="text/javascript"><![CDATA[
var edges = document.getElementsByTagName('g');
if (edges && edges.length) {
  for (var i=0;i<edges.length;i++) {
    if (edges[i].id.substr(0,4)=='edge') {
      edges[i].setAttribute('class','edge');
    }
  }
}
]]></script>
        <defs>
                <circle id="rim" cx="0" cy="0" r="7"/>
                <circle id="rim2" cx="0" cy="0" r="3.5"/>
                <g id="zoomPlus">
                        <use xlink:href="#rim" fill="#404040">
                                <set attributeName="fill" to="#808080" begin="zoomplus.mouseover" end="zoomplus.mouseout"/>
                        </use>
                        <path d="M-4,0h8M0,-4v8" fill="none" stroke="white" stroke-width="1.5" pointer-events="none"/>
                </g>
                <g id="zoomMin">
                        <use xlink:href="#rim" fill="#404040">
                                <set attributeName="fill" to="#808080" begin="zoomminus.mouseover" end="zoomminus.mouseout"/>
                        </use>
                        <path d="M-4,0h8" fill="none" stroke="white" stroke-width="1.5" pointer-events="none"/>
                </g>
                <g id="dirArrow">
                        <path fill="none" stroke="white" stroke-width="1.5" d="M0,-3.0v7 M-2.5,-0.5L0,-3.0L2.5,-0.5"/>
                </g>
               <g id="resetDef">
                       <use xlink:href="#rim2" fill="#404040">
                               <set attributeName="fill" to="#808080" begin="reset.mouseover" end="reset.mouseout"/>
                       </use>
               </g>
        </defs>

<script type="text/javascript">
var viewWidth = 2074;
var viewHeight = 285;
var sectionId = 'dynsection-0';
</script>
<script xlink:href="svgpan.js"/>
<svg id="graph" class="graph">
<g id="viewport">
<title>FieldPlaneAveraging.H</title>
<polygon fill="#ffffff" stroke="transparent" points="-4,4 -4,-281 2069.5,-281 2069.5,4 -4,4"/>
<!-- Node0 -->
<g id="node1" class="node">
<title>Node0</title>
<polygon fill="#bfbfbf" stroke="#000000" points="823,-257.5 823,-276.5 939,-276.5 939,-257.5 823,-257.5"/>
<text text-anchor="middle" x="881" y="-264.5" font-family="Helvetica,sans-Serif" font-size="10.00" fill="#000000">FieldPlaneAveraging.H</text>
</g>
<!-- Node1 -->
<g id="node2" class="node">
<title>Node1</title>
<g id="a_node2"><a xlink:href="_direction_selector_8_h.html" target="_top" xlink:title="amr&#45;wind/utilities\l/DirectionSelector.H">
<polygon fill="#ffffff" stroke="#000000" points="706.5,-190.5 706.5,-220.5 811.5,-220.5 811.5,-190.5 706.5,-190.5"/>
<text text-anchor="start" x="714.5" y="-208.5" font-family="Helvetica,sans-Serif" font-size="10.00" fill="#000000">amr&#45;wind/utilities</text>
<text text-anchor="middle" x="759" y="-197.5" font-family="Helvetica,sans-Serif" font-size="10.00" fill="#000000">/DirectionSelector.H</text>
</a>
</g>
</g>
<!-- Node0&#45;&gt;Node1 -->
<g id="edge1" class="edge">
<title>Node0&#45;&gt;Node1</title>
<path fill="none" stroke="#191970" d="M861.9375,-257.3906C844.8912,-248.7976 819.3764,-235.9356 798.0144,-225.1671"/>
<polygon fill="#191970" stroke="#191970" points="799.3497,-221.9207 788.8446,-220.5446 796.1986,-228.1714 799.3497,-221.9207"/>
</g>
<!-- Node2 -->
<g id="node3" class="node">
<title>Node2</title>
<g id="a_node3"><a xlink:href="_c_f_d_sim_8_h.html" target="_top" xlink:title="amr&#45;wind/CFDSim.H">
<polygon fill="#ffffff" stroke="#000000" points="868,-196 868,-215 976,-215 976,-196 868,-196"/>
<text text-anchor="middle" x="922" y="-203" font-family="Helvetica,sans-Serif" font-size="10.00" fill="#000000">amr&#45;wind/CFDSim.H</text>
</a>
</g>
</g>
<!-- Node0&#45;&gt;Node2 -->
<g id="edge2" class="edge">
<title>Node0&#45;&gt;Node2</title>
<path fill="none" stroke="#191970" d="M887.4063,-257.3906C893.3886,-248.417 902.4747,-234.7879 909.8339,-223.7491"/>
<polygon fill="#191970" stroke="#191970" points="912.8686,-225.5068 915.5034,-215.2449 907.0442,-221.6239 912.8686,-225.5068"/>
</g>
<!-- Node4 -->
<g id="node5" class="node">
<title>Node4</title>
<g id="a_node5"><a xlink:href="_sim_time_8_h.html" target="_top" xlink:title="amr&#45;wind/core/SimTime.H">
<polygon fill="#ffffff" stroke="#000000" points="237.5,-129 237.5,-148 368.5,-148 368.5,-129 237.5,-129"/>
<text text-anchor="middle" x="303" y="-136" font-family="Helvetica,sans-Serif" font-size="10.00" fill="#000000">amr&#45;wind/core/SimTime.H</text>
</a>
</g>
</g>
<!-- Node0&#45;&gt;Node4 -->
<g id="edge61" class="edge">
<title>Node0&#45;&gt;Node4</title>
<path fill="none" stroke="#191970" d="M876.5973,-257.3831C868.2637,-240.426 848.4361,-205.5367 820,-190 782.2222,-169.3592 513.2923,-150.8642 378.9624,-142.7927"/>
<polygon fill="#191970" stroke="#191970" points="378.9349,-139.285 368.7442,-142.1833 378.518,-146.2726 378.9349,-139.285"/>
</g>
<!-- Node15 -->
<g id="node16" class="node">
<title>Node15</title>
<g id="a_node16"><a xlink:href="_field_8_h.html" target="_top" xlink:title="amr&#45;wind/core/Field.H">
<polygon fill="#ffffff" stroke="#000000" points="1033.5,-62 1033.5,-81 1146.5,-81 1146.5,-62 1033.5,-62"/>
<text text-anchor="middle" x="1090" y="-69" font-family="Helvetica,sans-Serif" font-size="10.00" fill="#000000">amr&#45;wind/core/Field.H</text>
</a>
</g>
</g>
<!-- Node0&#45;&gt;Node15 -->
<g id="edge60" class="edge">
<title>Node0&#45;&gt;Node15</title>
<path fill="none" stroke="#191970" d="M914.4525,-257.3851C936.194,-249.9563 964.2486,-238.0388 985,-221 1030.5875,-183.5685 1065.3538,-121.6227 1080.9622,-90.5353"/>
<polygon fill="#191970" stroke="#191970" points="1084.252,-91.7756 1085.509,-81.2556 1077.966,-88.6956 1084.252,-91.7756"/>
</g>
<!-- Node3 -->
<g id="node4" class="node">
<title>Node3</title>
<polygon fill="#ffffff" stroke="#bfbfbf" points="1241,-62 1241,-81 1347,-81 1347,-62 1241,-62"/>
<text text-anchor="middle" x="1294" y="-69" font-family="Helvetica,sans-Serif" font-size="10.00" fill="#000000">AMReX_AmrCore.H</text>
</g>
<!-- Node2&#45;&gt;Node3 -->
<g id="edge3" class="edge">
<title>Node2&#45;&gt;Node3</title>
<path fill="none" stroke="#191970" d="M948.4551,-195.9705C1013.9043,-172.3947 1183.4799,-111.311 1257.9881,-84.472"/>
<polygon fill="#191970" stroke="#191970" points="1259.2088,-87.7525 1267.4309,-81.0706 1256.8365,-81.1668 1259.2088,-87.7525"/>
</g>
<!-- Node2&#45;&gt;Node4 -->
<g id="edge4" class="edge">
<title>Node2&#45;&gt;Node4</title>
<path fill="none" stroke="#191970" d="M884.0487,-195.9262C874.3043,-193.7227 863.8042,-191.5687 854,-190 685.3537,-163.0168 485.2373,-148.6751 378.6753,-142.4294"/>
<polygon fill="#191970" stroke="#191970" points="378.8445,-138.9334 368.6591,-141.8501 378.4403,-145.9217 378.8445,-138.9334"/>
</g>
<!-- Node8 -->
<g id="node9" class="node">
<title>Node8</title>
<g id="a_node9"><a xlink:href="_field_repo_8_h.html" target="_top" xlink:title="amr&#45;wind/core/FieldRepo.H">
<polygon fill="#ffffff" stroke="#000000" points="1408,-129 1408,-148 1544,-148 1544,-129 1408,-129"/>
<text text-anchor="middle" x="1476" y="-136" font-family="Helvetica,sans-Serif" font-size="10.00" fill="#000000">amr&#45;wind/core/FieldRepo.H</text>
</a>
</g>
</g>
<!-- Node2&#45;&gt;Node8 -->
<g id="edge8" class="edge">
<title>Node2&#45;&gt;Node8</title>
<path fill="none" stroke="#191970" d="M976.1285,-198.9538C1074.7089,-187.0316 1283.8448,-161.739 1397.8732,-147.9485"/>
<polygon fill="#191970" stroke="#191970" points="1398.4247,-151.4074 1407.9322,-146.732 1397.5842,-144.4581 1398.4247,-151.4074"/>
</g>
<!-- Node25 -->
<g id="node26" class="node">
<title>Node25</title>
<g id="a_node26"><a xlink:href="_p_d_e_base_8_h.html" target="_top" xlink:title="amr&#45;wind/equation_systems\l/PDEBase.H">
<polygon fill="#ffffff" stroke="#000000" points="701.5,-123.5 701.5,-153.5 840.5,-153.5 840.5,-123.5 701.5,-123.5"/>
<text text-anchor="start" x="709.5" y="-141.5" font-family="Helvetica,sans-Serif" font-size="10.00" fill="#000000">amr&#45;wind/equation_systems</text>
<text text-anchor="middle" x="771" y="-130.5" font-family="Helvetica,sans-Serif" font-size="10.00" fill="#000000">/PDEBase.H</text>
</a>
</g>
</g>
<!-- Node2&#45;&gt;Node25 -->
<g id="edge38" class="edge">
<title>Node2&#45;&gt;Node25</title>
<path fill="none" stroke="#191970" d="M900.3654,-195.9005C877.9459,-185.9528 842.304,-170.1382 814.1035,-157.6254"/>
<polygon fill="#191970" stroke="#191970" points="815.4152,-154.3784 804.855,-153.5218 812.5761,-160.7768 815.4152,-154.3784"/>
</g>
<!-- Node33 -->
<g id="node34" class="node">
<title>Node33</title>
<g id="a_node34"><a xlink:href="_physics_8_h.html" target="_top" xlink:title="amr&#45;wind/core/Physics.H">
<polygon fill="#ffffff" stroke="#000000" points="858.5,-129 858.5,-148 985.5,-148 985.5,-129 858.5,-129"/>
<text text-anchor="middle" x="922" y="-136" font-family="Helvetica,sans-Serif" font-size="10.00" fill="#000000">amr&#45;wind/core/Physics.H</text>
</a>
</g>
</g>
<!-- Node2&#45;&gt;Node33 -->
<g id="edge55" class="edge">
<title>Node2&#45;&gt;Node33</title>
<path fill="none" stroke="#191970" d="M922,-195.9005C922,-186.149 922,-170.7597 922,-158.3695"/>
<polygon fill="#191970" stroke="#191970" points="925.5001,-158.0816 922,-148.0817 918.5001,-158.0817 925.5001,-158.0816"/>
</g>
<!-- Node5 -->
<g id="node6" class="node">
<title>Node5</title>
<polygon fill="#ffffff" stroke="#bfbfbf" points="128.5,-62 128.5,-81 221.5,-81 221.5,-62 128.5,-62"/>
<text text-anchor="middle" x="175" y="-69" font-family="Helvetica,sans-Serif" font-size="10.00" fill="#000000">AMReX_REAL.H</text>
</g>
<!-- Node4&#45;&gt;Node5 -->
<g id="edge5" class="edge">
<title>Node4&#45;&gt;Node5</title>
<path fill="none" stroke="#191970" d="M284.6607,-128.9005C263.0844,-117.6067 227.0609,-98.7506 202.2234,-85.7497"/>
<polygon fill="#191970" stroke="#191970" points="203.7881,-82.6183 193.3053,-81.0817 200.5418,-88.8201 203.7881,-82.6183"/>
</g>
<!-- Node6 -->
<g id="node7" class="node">
<title>Node6</title>
<polygon fill="#ffffff" stroke="#bfbfbf" points="240,-62 240,-81 366,-81 366,-62 240,-62"/>
<text text-anchor="middle" x="303" y="-69" font-family="Helvetica,sans-Serif" font-size="10.00" fill="#000000">AMReX_GpuQualifiers.H</text>
</g>
<!-- Node4&#45;&gt;Node6 -->
<g id="edge6" class="edge">
<title>Node4&#45;&gt;Node6</title>
<path fill="none" stroke="#191970" d="M303,-128.9005C303,-119.149 303,-103.7597 303,-91.3695"/>
<polygon fill="#191970" stroke="#191970" points="306.5001,-91.0816 303,-81.0817 299.5001,-91.0817 306.5001,-91.0816"/>
</g>
<!-- Node7 -->
<g id="node8" class="node">
<title>Node7</title>
<polygon fill="#ffffff" stroke="#bfbfbf" points="0,-62 0,-81 110,-81 110,-62 0,-62"/>
<text text-anchor="middle" x="55" y="-69" font-family="Helvetica,sans-Serif" font-size="10.00" fill="#000000">AMReX_Extension.H</text>
</g>
<!-- Node4&#45;&gt;Node7 -->
<g id="edge7" class="edge">
<title>Node4&#45;&gt;Node7</title>
<path fill="none" stroke="#191970" d="M267.731,-128.9717C223.7849,-117.0991 148.6141,-96.7909 100.4058,-83.7669"/>
<polygon fill="#191970" stroke="#191970" points="101.1156,-80.3332 90.5488,-81.1039 99.2899,-87.091 101.1156,-80.3332"/>
</g>
<!-- Node8&#45;&gt;Node3 -->
<g id="edge35" class="edge">
<title>Node8&#45;&gt;Node3</title>
<path fill="none" stroke="#191970" d="M1449.9238,-128.9005C1418.2989,-117.2584 1364.8456,-97.5805 1329.4876,-84.5641"/>
<polygon fill="#191970" stroke="#191970" points="1330.6213,-81.2519 1320.0278,-81.0817 1328.203,-87.8209 1330.6213,-81.2519"/>
</g>
<!-- Node9 -->
<g id="node10" class="node">
<title>Node9</title>
<polygon fill="#ffffff" stroke="#bfbfbf" points="1314.5,-.5 1314.5,-19.5 1355.5,-19.5 1355.5,-.5 1314.5,-.5"/>
<text text-anchor="middle" x="1335" y="-7.5" font-family="Helvetica,sans-Serif" font-size="10.00" fill="#000000">string</text>
</g>
<!-- Node8&#45;&gt;Node9 -->
<g id="edge9" class="edge">
<title>Node8&#45;&gt;Node9</title>
<path fill="none" stroke="#191970" d="M1456.7748,-128.9711C1439.2593,-119.7264 1413.2618,-104.5485 1394,-87 1374.8514,-69.5547 1357.4141,-45.2759 1346.5443,-28.6729"/>
<polygon fill="#191970" stroke="#191970" points="1349.271,-26.4396 1340.9399,-19.894 1343.3708,-30.2062 1349.271,-26.4396"/>
</g>
<!-- Node10 -->
<g id="node11" class="node">
<title>Node10</title>
<polygon fill="#ffffff" stroke="#bfbfbf" points="733.5,-.5 733.5,-19.5 816.5,-19.5 816.5,-.5 733.5,-.5"/>
<text text-anchor="middle" x="775" y="-7.5" font-family="Helvetica,sans-Serif" font-size="10.00" fill="#000000">unordered_map</text>
</g>
<!-- Node8&#45;&gt;Node10 -->
<g id="edge10" class="edge">
<title>Node8&#45;&gt;Node10</title>
<path fill="none" stroke="#191970" d="M1407.592,-135.2974C1298.9965,-129.4451 1092.5313,-114.9687 1025,-87 1004.543,-78.5276 1006.0035,-65.4938 986,-56 978.7557,-52.5618 886.9388,-33.1708 826.8362,-20.6875"/>
<polygon fill="#191970" stroke="#191970" points="827.2485,-17.1986 816.7461,-18.5947 825.8269,-24.0527 827.2485,-17.1986"/>
</g>
<!-- Node11 -->
<g id="node12" class="node">
<title>Node11</title>
<g id="a_node12"><a xlink:href="_field_desc_types_8_h.html" target="_top" xlink:title="amr&#45;wind/core/FieldDescTypes.H">
<polygon fill="#ffffff" stroke="#000000" points="1642.5,-.5 1642.5,-19.5 1805.5,-19.5 1805.5,-.5 1642.5,-.5"/>
<text text-anchor="middle" x="1724" y="-7.5" font-family="Helvetica,sans-Serif" font-size="10.00" fill="#000000">amr&#45;wind/core/FieldDescTypes.H</text>
</a>
</g>
</g>
<!-- Node8&#45;&gt;Node11 -->
<g id="edge11" class="edge">
<title>Node8&#45;&gt;Node11</title>
<path fill="none" stroke="#191970" d="M1544.2361,-135.6448C1664.2651,-129.9168 1902.9206,-115.0992 1928,-87 1937.1744,-76.721 1936.6044,-66.7606 1928,-56 1919.3775,-45.2167 1848.9736,-31.0067 1793.2545,-21.2497"/>
<polygon fill="#191970" stroke="#191970" points="1793.8441,-17.7998 1783.3935,-19.5421 1792.6497,-24.6971 1793.8441,-17.7998"/>
</g>
<!-- Node12 -->
<g id="node13" class="node">
<title>Node12</title>
<g id="a_node13"><a xlink:href="_field_utils_8_h.html" target="_top" xlink:title="amr&#45;wind/core/FieldUtils.H">
<polygon fill="#ffffff" stroke="#000000" points="1785.5,-62 1785.5,-81 1918.5,-81 1918.5,-62 1785.5,-62"/>
<text text-anchor="middle" x="1852" y="-69" font-family="Helvetica,sans-Serif" font-size="10.00" fill="#000000">amr&#45;wind/core/FieldUtils.H</text>
</a>
</g>
</g>
<!-- Node8&#45;&gt;Node12 -->
<g id="edge12" class="edge">
<title>Node8&#45;&gt;Node12</title>
<path fill="none" stroke="#191970" d="M1534.7315,-128.9737C1595.2817,-119.0221 1692.3804,-102.7004 1776,-87 1782.5802,-85.7645 1789.4711,-84.4243 1796.3038,-83.0666"/>
<polygon fill="#191970" stroke="#191970" points="1797.1139,-86.4739 1806.23,-81.0751 1795.7368,-79.6107 1797.1139,-86.4739"/>
</g>
<!-- Node13 -->
<g id="node14" class="node">
<title>Node13</title>
<polygon fill="#ffffff" stroke="#bfbfbf" points="1374,-.5 1374,-19.5 1478,-19.5 1478,-.5 1374,-.5"/>
<text text-anchor="middle" x="1426" y="-7.5" font-family="Helvetica,sans-Serif" font-size="10.00" fill="#000000">AMReX_MultiFab.H</text>
</g>
<!-- Node8&#45;&gt;Node13 -->
<g id="edge36" class="edge">
<title>Node8&#45;&gt;Node13</title>
<path fill="none" stroke="#191970" d="M1504.6436,-128.876C1523.4914,-120.8759 1546.6947,-107.4503 1558,-87 1564.6658,-74.9421 1565.98,-67.2315 1558,-56 1548.4782,-42.5983 1512.063,-30.4978 1479.8872,-22.0748"/>
<polygon fill="#191970" stroke="#191970" points="1480.6262,-18.6515 1470.0722,-19.5815 1478.9026,-25.436 1480.6262,-18.6515"/>
</g>
<!-- Node8&#45;&gt;Node15 -->
<g id="edge16" class="edge">
<title>Node8&#45;&gt;Node15</title>
<path fill="none" stroke="#191970" d="M1421.1055,-128.9717C1351.032,-116.8087 1229.9518,-95.7921 1155.2413,-82.8243"/>
<polygon fill="#191970" stroke="#191970" points="1155.4685,-79.3114 1145.0172,-81.0496 1154.2713,-86.2083 1155.4685,-79.3114"/>
</g>
<!-- Node20 -->
<g id="node21" class="node">
<title>Node20</title>
<g id="a_node21"><a xlink:href="_int_field_8_h.html" target="_top" xlink:title="amr&#45;wind/core/IntField.H">
<polygon fill="#ffffff" stroke="#000000" points="1643,-62 1643,-81 1767,-81 1767,-62 1643,-62"/>
<text text-anchor="middle" x="1705" y="-69" font-family="Helvetica,sans-Serif" font-size="10.00" fill="#000000">amr&#45;wind/core/IntField.H</text>
</a>
</g>
</g>
<!-- Node8&#45;&gt;Node20 -->
<g id="edge25" class="edge">
<title>Node8&#45;&gt;Node20</title>
<path fill="none" stroke="#191970" d="M1508.8101,-128.9005C1549.2821,-117.0594 1618.1665,-96.9054 1662.6094,-83.9025"/>
<polygon fill="#191970" stroke="#191970" points="1663.6359,-87.249 1672.2507,-81.0817 1661.6703,-80.5306 1663.6359,-87.249"/>
</g>
<!-- Node21 -->
<g id="node22" class="node">
<title>Node21</title>
<polygon fill="#ffffff" stroke="#bfbfbf" points="1958.5,-.5 1958.5,-19.5 2065.5,-19.5 2065.5,-.5 1958.5,-.5"/>
<text text-anchor="middle" x="2012" y="-7.5" font-family="Helvetica,sans-Serif" font-size="10.00" fill="#000000">AMReX_iMultiFab.H</text>
</g>
<!-- Node8&#45;&gt;Node21 -->
<g id="edge37" class="edge">
<title>Node8&#45;&gt;Node21</title>
<path fill="none" stroke="#191970" d="M1544.153,-137.0583C1656.9954,-133.679 1876.9574,-122.6012 1945,-87 1970.4037,-73.7083 1990.4591,-46.4603 2001.7793,-28.2067"/>
<polygon fill="#191970" stroke="#191970" points="2004.7917,-29.9886 2006.8848,-19.6026 1998.7717,-26.4164 2004.7917,-29.9886"/>
</g>
<!-- Node22 -->
<g id="node23" class="node">
<title>Node22</title>
<g id="a_node23"><a xlink:href="_scratch_field_8_h.html" target="_top" xlink:title="amr&#45;wind/core/ScratchField.H">
<polygon fill="#ffffff" stroke="#000000" points="1403,-62 1403,-81 1549,-81 1549,-62 1403,-62"/>
<text text-anchor="middle" x="1476" y="-69" font-family="Helvetica,sans-Serif" font-size="10.00" fill="#000000">amr&#45;wind/core/ScratchField.H</text>
</a>
</g>
</g>
<!-- Node8&#45;&gt;Node22 -->
<g id="edge29" class="edge">
<title>Node8&#45;&gt;Node22</title>
<path fill="none" stroke="#191970" d="M1476,-128.9005C1476,-119.149 1476,-103.7597 1476,-91.3695"/>
<polygon fill="#191970" stroke="#191970" points="1479.5001,-91.0816 1476,-81.0817 1472.5001,-91.0817 1479.5001,-91.0816"/>
</g>
<!-- Node12&#45;&gt;Node11 -->
<g id="edge13" class="edge">
<title>Node12&#45;&gt;Node11</title>
<path fill="none" stroke="#191970" d="M1832,-61.8906C1810.7711,-51.6908 1777.0238,-35.4763 1752.904,-23.8875"/>
<polygon fill="#191970" stroke="#191970" points="1754.3889,-20.7179 1743.8596,-19.5419 1751.3574,-27.0275 1754.3889,-20.7179"/>
</g>
<!-- Node12&#45;&gt;Node13 -->
<g id="edge14" class="edge">
<title>Node12&#45;&gt;Node13</title>
<path fill="none" stroke="#191970" d="M1808.301,-61.9864C1797.7542,-59.8569 1786.4979,-57.7217 1776,-56 1651.5125,-35.5833 1616.8568,-38.3152 1488.4527,-20.1593"/>
<polygon fill="#191970" stroke="#191970" points="1488.6177,-16.6474 1478.223,-18.697 1487.627,-23.577 1488.6177,-16.6474"/>
</g>
<!-- Node14 -->
<g id="node15" class="node">
<title>Node14</title>
<polygon fill="#ffffff" stroke="#bfbfbf" points="1824,-.5 1824,-19.5 1940,-19.5 1940,-.5 1824,-.5"/>
<text text-anchor="middle" x="1882" y="-7.5" font-family="Helvetica,sans-Serif" font-size="10.00" fill="#000000">AMReX_Interpolater.H</text>
</g>
<!-- Node12&#45;&gt;Node14 -->
<g id="edge15" class="edge">
<title>Node12&#45;&gt;Node14</title>
<path fill="none" stroke="#191970" d="M1856.6875,-61.8906C1860.9773,-53.0965 1867.4482,-39.8312 1872.7734,-28.9145"/>
<polygon fill="#191970" stroke="#191970" points="1876.0078,-30.2671 1877.2464,-19.7449 1869.7164,-27.1981 1876.0078,-30.2671"/>
</g>
<!-- Node15&#45;&gt;Node9 -->
<g id="edge17" class="edge">
<title>Node15&#45;&gt;Node9</title>
<path fill="none" stroke="#191970" d="M1132.3749,-61.9166C1181.6332,-50.6925 1260.8939,-32.3535 1304.6732,-20.1599"/>
<polygon fill="#191970" stroke="#191970" points="1305.8332,-23.4685 1314.4846,-17.3526 1303.9076,-16.7386 1305.8332,-23.4685"/>
</g>
<!-- Node15&#45;&gt;Node10 -->
<g id="edge19" class="edge">
<title>Node15&#45;&gt;Node10</title>
<path fill="none" stroke="#191970" d="M1047.2433,-61.9446C1037.9439,-59.9282 1028.1509,-57.8519 1019,-56 936.5666,-39.318 913.3599,-36.5806 826.7559,-20.127"/>
<polygon fill="#191970" stroke="#191970" points="827.2211,-16.6527 816.7425,-18.2173 825.9097,-23.5288 827.2211,-16.6527"/>
</g>
<!-- Node15&#45;&gt;Node11 -->
<g id="edge24" class="edge">
<title>Node15&#45;&gt;Node11</title>
<path fill="none" stroke="#191970" d="M1146.6349,-65.0662C1172.6317,-62.1776 1203.8677,-58.7979 1232,-56 1406.8436,-38.6108 1453.2806,-37.7982 1632.1467,-20.0677"/>
<polygon fill="#191970" stroke="#191970" points="1632.5513,-23.5448 1642.1556,-19.0717 1631.8581,-16.5792 1632.5513,-23.5448"/>
</g>
<!-- Node15&#45;&gt;Node13 -->
<g id="edge20" class="edge">
<title>Node15&#45;&gt;Node13</title>
<path fill="none" stroke="#191970" d="M1142.1313,-61.9581C1202.0579,-50.9894 1300.3347,-33.0012 1364.0969,-21.3305"/>
<polygon fill="#191970" stroke="#191970" points="1364.8164,-24.757 1374.0228,-19.5137 1363.5561,-17.8714 1364.8164,-24.757"/>
</g>
<!-- Node16 -->
<g id="node17" class="node">
<title>Node16</title>
<polygon fill="#ffffff" stroke="#bfbfbf" points="663,-.5 663,-19.5 715,-19.5 715,-.5 663,-.5"/>
<text text-anchor="middle" x="689" y="-7.5" font-family="Helvetica,sans-Serif" font-size="10.00" fill="#000000">memory</text>
</g>
<!-- Node15&#45;&gt;Node16 -->
<g id="edge18" class="edge">
<title>Node15&#45;&gt;Node16</title>
<path fill="none" stroke="#191970" d="M1033.3427,-62.9362C1017.9855,-60.6476 1001.36,-58.1998 986,-56 872.8301,-39.7922 840.7582,-43.9557 725.2191,-20.0248"/>
<polygon fill="#191970" stroke="#191970" points="725.7788,-16.5661 715.2733,-17.9389 724.3419,-23.4171 725.7788,-16.5661"/>
</g>
<!-- Node17 -->
<g id="node18" class="node">
<title>Node17</title>
<polygon fill="#ffffff" stroke="#bfbfbf" points="981.5,-.5 981.5,-19.5 1080.5,-19.5 1080.5,-.5 981.5,-.5"/>
<text text-anchor="middle" x="1031" y="-7.5" font-family="Helvetica,sans-Serif" font-size="10.00" fill="#000000">AMReX_BCRec.H</text>
</g>
<!-- Node15&#45;&gt;Node17 -->
<g id="edge21" class="edge">
<title>Node15&#45;&gt;Node17</title>
<path fill="none" stroke="#191970" d="M1080.7813,-61.8906C1071.9142,-52.6478 1058.3088,-38.466 1047.5611,-27.2628"/>
<polygon fill="#191970" stroke="#191970" points="1049.7973,-24.5381 1040.3487,-19.7449 1044.7459,-29.3841 1049.7973,-24.5381"/>
</g>
<!-- Node18 -->
<g id="node19" class="node">
<title>Node18</title>
<polygon fill="#ffffff" stroke="#bfbfbf" points="1098.5,-.5 1098.5,-19.5 1183.5,-19.5 1183.5,-.5 1098.5,-.5"/>
<text text-anchor="middle" x="1141" y="-7.5" font-family="Helvetica,sans-Serif" font-size="10.00" fill="#000000">AMReX_Gpu.H</text>
</g>
<!-- Node15&#45;&gt;Node18 -->
<g id="edge22" class="edge">
<title>Node15&#45;&gt;Node18</title>
<path fill="none" stroke="#191970" d="M1097.9688,-61.8906C1105.5591,-52.7376 1117.1661,-38.7409 1126.4132,-27.59"/>
<polygon fill="#191970" stroke="#191970" points="1129.2297,-29.6766 1132.9189,-19.7449 1123.8413,-25.2083 1129.2297,-29.6766"/>
</g>
<!-- Node19 -->
<g id="node20" class="node">
<title>Node19</title>
<g id="a_node20"><a xlink:href="incflo__enums_8_h.html" target="_top" xlink:title="amr&#45;wind/incflo_enums.H">
<polygon fill="#ffffff" stroke="#000000" points="835,-.5 835,-19.5 963,-19.5 963,-.5 835,-.5"/>
<text text-anchor="middle" x="899" y="-7.5" font-family="Helvetica,sans-Serif" font-size="10.00" fill="#000000">amr&#45;wind/incflo_enums.H</text>
</a>
</g>
</g>
<!-- Node15&#45;&gt;Node19 -->
<g id="edge23" class="edge">
<title>Node15&#45;&gt;Node19</title>
<path fill="none" stroke="#191970" d="M1060.1563,-61.8906C1027.3575,-51.3298 974.5328,-34.3208 938.3636,-22.6747"/>
<polygon fill="#191970" stroke="#191970" points="939.2257,-19.2753 928.6342,-19.5419 937.0802,-25.9385 939.2257,-19.2753"/>
</g>
<!-- Node20&#45;&gt;Node9 -->
<g id="edge26" class="edge">
<title>Node20&#45;&gt;Node9</title>
<path fill="none" stroke="#191970" d="M1642.9639,-65.3365C1576.478,-58.0078 1467.8289,-43.9501 1365.4122,-19.7319"/>
<polygon fill="#191970" stroke="#191970" points="1366.0629,-16.2887 1355.522,-17.3563 1364.428,-23.0951 1366.0629,-16.2887"/>
</g>
<!-- Node20&#45;&gt;Node11 -->
<g id="edge27" class="edge">
<title>Node20&#45;&gt;Node11</title>
<path fill="none" stroke="#191970" d="M1707.9688,-61.8906C1710.6302,-53.276 1714.6171,-40.3708 1717.9491,-29.5858"/>
<polygon fill="#191970" stroke="#191970" points="1721.3816,-30.3324 1720.9894,-19.7449 1714.6935,-28.2661 1721.3816,-30.3324"/>
</g>
<!-- Node20&#45;&gt;Node21 -->
<g id="edge28" class="edge">
<title>Node20&#45;&gt;Node21</title>
<path fill="none" stroke="#191970" d="M1748.7588,-61.9425C1758.0737,-59.9465 1767.857,-57.8788 1777,-56 1836.3734,-43.7992 1904.3438,-30.5749 1951.8593,-21.4505"/>
<polygon fill="#191970" stroke="#191970" points="1952.8151,-24.8311 1961.9769,-19.5102 1951.4966,-17.9563 1952.8151,-24.8311"/>
</g>
<!-- Node22&#45;&gt;Node9 -->
<g id="edge30" class="edge">
<title>Node22&#45;&gt;Node9</title>
<path fill="none" stroke="#191970" d="M1453.9688,-61.8906C1429.963,-51.42 1391.4254,-34.6111 1364.7463,-22.9745"/>
<polygon fill="#191970" stroke="#191970" points="1366.068,-19.7325 1355.5026,-18.9426 1363.2694,-26.1488 1366.068,-19.7325"/>
</g>
<!-- Node22&#45;&gt;Node11 -->
<g id="edge31" class="edge">
<title>Node22&#45;&gt;Node11</title>
<path fill="none" stroke="#191970" d="M1514.4779,-61.9581C1557.8269,-51.2082 1628.3639,-33.7162 1675.4627,-22.0365"/>
<polygon fill="#191970" stroke="#191970" points="1676.5683,-25.3684 1685.4318,-19.5643 1674.8834,-18.5742 1676.5683,-25.3684"/>
</g>
<!-- Node22&#45;&gt;Node13 -->
<g id="edge32" class="edge">
<title>Node22&#45;&gt;Node13</title>
<path fill="none" stroke="#191970" d="M1468.1875,-61.8906C1460.746,-52.7376 1449.3666,-38.7409 1440.3008,-27.59"/>
<polygon fill="#191970" stroke="#191970" points="1442.9467,-25.2962 1433.9226,-19.7449 1437.5153,-29.712 1442.9467,-25.2962"/>
</g>
<!-- Node23 -->
<g id="node24" class="node">
<title>Node23</title>
<polygon fill="#ffffff" stroke="#bfbfbf" points="1201.5,-.5 1201.5,-19.5 1296.5,-19.5 1296.5,-.5 1201.5,-.5"/>
<text text-anchor="middle" x="1249" y="-7.5" font-family="Helvetica,sans-Serif" font-size="10.00" fill="#000000">AMReX_Vector.H</text>
</g>
<!-- Node22&#45;&gt;Node23 -->
<g id="edge33" class="edge">
<title>Node22&#45;&gt;Node23</title>
<path fill="none" stroke="#191970" d="M1440.5313,-61.8906C1401.0507,-51.1944 1337.1557,-33.8836 1294.1395,-22.2294"/>
<polygon fill="#191970" stroke="#191970" points="1294.787,-18.7787 1284.2197,-19.5419 1292.9565,-25.5352 1294.787,-18.7787"/>
</g>
<!-- Node24 -->
<g id="node25" class="node">
<title>Node24</title>
<polygon fill="#ffffff" stroke="#bfbfbf" points="1496,-.5 1496,-19.5 1624,-19.5 1624,-.5 1496,-.5"/>
<text text-anchor="middle" x="1560" y="-7.5" font-family="Helvetica,sans-Serif" font-size="10.00" fill="#000000">AMReX_PhysBCFunct.H</text>
</g>
<!-- Node22&#45;&gt;Node24 -->
<g id="edge34" class="edge">
<title>Node22&#45;&gt;Node24</title>
<path fill="none" stroke="#191970" d="M1489.125,-61.8906C1502.44,-52.1421 1523.2594,-36.8994 1538.8947,-25.4521"/>
<polygon fill="#191970" stroke="#191970" points="1540.9661,-28.2734 1546.9672,-19.5419 1536.8309,-22.6253 1540.9661,-28.2734"/>
</g>
<!-- Node25&#45;&gt;Node9 -->
<g id="edge39" class="edge">
<title>Node25&#45;&gt;Node9</title>
<path fill="none" stroke="#191970" d="M840.6921,-124.3659C843.495,-123.8878 846.2724,-123.4302 849,-123 984.7016,-101.595 1031.4405,-144.9485 1156,-87 1174.2452,-78.5118 1171.6004,-66.1091 1189,-56 1233.3779,-30.2166 1252.1179,-36.0552 1304.6021,-20.2749"/>
<polygon fill="#191970" stroke="#191970" points="1305.9418,-23.5228 1314.4336,-17.1872 1303.8443,-16.8444 1305.9418,-23.5228"/>
</g>
<!-- Node25&#45;&gt;Node11 -->
<g id="edge53" class="edge">
<title>Node25&#45;&gt;Node11</title>
<path fill="none" stroke="#191970" d="M840.6597,-124.1359C843.4715,-123.7215 846.2597,-123.34 849,-123 1162.116,-84.1491 1251.7166,-162.7726 1558,-87 1585.7902,-80.1249 1656.7259,-44.7665 1696.2836,-24.4375"/>
<polygon fill="#191970" stroke="#191970" points="1698.3381,-27.3158 1705.6193,-19.6193 1695.1277,-21.0954 1698.3381,-27.3158"/>
</g>
<!-- Node25&#45;&gt;Node19 -->
<g id="edge54" class="edge">
<title>Node25&#45;&gt;Node19</title>
<path fill="none" stroke="#191970" d="M747.8066,-123.216C725.101,-106.3606 696.308,-78.6298 714,-56 721.8113,-46.0085 786.5924,-31.4906 837.3209,-21.4487"/>
<polygon fill="#191970" stroke="#191970" points="838.1173,-24.8593 847.2582,-19.5027 836.772,-17.9898 838.1173,-24.8593"/>
</g>
<!-- Node26 -->
<g id="node27" class="node">
<title>Node26</title>
<g id="a_node27"><a xlink:href="_factory_8_h.html" target="_top" xlink:title="amr&#45;wind/core/Factory.H">
<polygon fill="#ffffff" stroke="#000000" points="541.5,-62 541.5,-81 666.5,-81 666.5,-62 541.5,-62"/>
<text text-anchor="middle" x="604" y="-69" font-family="Helvetica,sans-Serif" font-size="10.00" fill="#000000">amr&#45;wind/core/Factory.H</text>
</a>
</g>
</g>
<!-- Node25&#45;&gt;Node26 -->
<g id="edge40" class="edge">
<title>Node25&#45;&gt;Node26</title>
<path fill="none" stroke="#191970" d="M733.5219,-123.4639C704.618,-111.8677 665.0146,-95.9789 637.2343,-84.8335"/>
<polygon fill="#191970" stroke="#191970" points="638.5223,-81.5791 627.9381,-81.1039 635.9158,-88.0758 638.5223,-81.5791"/>
</g>
<!-- Node30 -->
<g id="node31" class="node">
<title>Node30</title>
<g id="a_node31"><a xlink:href="_coll_mgr_8_h.html" target="_top" xlink:title="amr&#45;wind/core/CollMgr.H">
<polygon fill="#ffffff" stroke="#000000" points="723.5,-62 723.5,-81 848.5,-81 848.5,-62 723.5,-62"/>
<text text-anchor="middle" x="786" y="-69" font-family="Helvetica,sans-Serif" font-size="10.00" fill="#000000">amr&#45;wind/core/CollMgr.H</text>
</a>
</g>
</g>
<!-- Node25&#45;&gt;Node30 -->
<g id="edge46" class="edge">
<title>Node25&#45;&gt;Node30</title>
<path fill="none" stroke="#191970" d="M774.4037,-123.2967C776.5366,-113.7699 779.307,-101.3954 781.6051,-91.1306"/>
<polygon fill="#191970" stroke="#191970" points="785.0915,-91.5781 783.8608,-81.055 778.2606,-90.0487 785.0915,-91.5781"/>
</g>
<!-- Node31 -->
<g id="node32" class="node">
<title>Node31</title>
<g id="a_node32"><a xlink:href="_p_d_e_fields_8_h.html" target="_top" xlink:title="amr&#45;wind/equation_systems\l/PDEFields.H">
<polygon fill="#ffffff" stroke="#000000" points="384.5,-56.5 384.5,-86.5 523.5,-86.5 523.5,-56.5 384.5,-56.5"/>
<text text-anchor="start" x="392.5" y="-74.5" font-family="Helvetica,sans-Serif" font-size="10.00" fill="#000000">amr&#45;wind/equation_systems</text>
<text text-anchor="middle" x="454" y="-63.5" font-family="Helvetica,sans-Serif" font-size="10.00" fill="#000000">/PDEFields.H</text>
</a>
</g>
</g>
<!-- Node25&#45;&gt;Node31 -->
<g id="edge51" class="edge">
<title>Node25&#45;&gt;Node31</title>
<path fill="none" stroke="#191970" d="M701.433,-123.7966C651.865,-113.3201 585.1399,-99.2173 533.4717,-88.2969"/>
<polygon fill="#191970" stroke="#191970" points="534.1857,-84.8705 523.6781,-86.2269 532.7381,-91.7192 534.1857,-84.8705"/>
</g>
<!-- Node26&#45;&gt;Node10 -->
<g id="edge42" class="edge">
<title>Node26&#45;&gt;Node10</title>
<path fill="none" stroke="#191970" d="M630.7188,-61.8906C659.8321,-51.42 706.5692,-34.6111 738.9247,-22.9745"/>
<polygon fill="#191970" stroke="#191970" points="740.2435,-26.2197 748.4689,-19.5419 737.8744,-19.6328 740.2435,-26.2197"/>
</g>
<!-- Node26&#45;&gt;Node16 -->
<g id="edge41" class="edge">
<title>Node26&#45;&gt;Node16</title>
<path fill="none" stroke="#191970" d="M617.2813,-61.8906C630.7548,-52.1421 651.822,-36.8994 667.6435,-25.4521"/>
<polygon fill="#191970" stroke="#191970" points="669.7619,-28.2394 675.812,-19.5419 665.6586,-22.5682 669.7619,-28.2394"/>
</g>
<!-- Node27 -->
<g id="node28" class="node">
<title>Node27</title>
<polygon fill="#ffffff" stroke="#bfbfbf" points="405,-.5 405,-19.5 459,-19.5 459,-.5 405,-.5"/>
<text text-anchor="middle" x="432" y="-7.5" font-family="Helvetica,sans-Serif" font-size="10.00" fill="#000000">iostream</text>
</g>
<!-- Node26&#45;&gt;Node27 -->
<g id="edge43" class="edge">
<title>Node26&#45;&gt;Node27</title>
<path fill="none" stroke="#191970" d="M577.125,-61.8906C547.8414,-51.42 500.831,-34.6111 468.2863,-22.9745"/>
<polygon fill="#191970" stroke="#191970" points="469.2809,-19.6131 458.6863,-19.5419 466.9241,-26.2045 469.2809,-19.6131"/>
</g>
<!-- Node28 -->
<g id="node29" class="node">
<title>Node28</title>
<polygon fill="#ffffff" stroke="#bfbfbf" points="477.5,-.5 477.5,-19.5 564.5,-19.5 564.5,-.5 477.5,-.5"/>
<text text-anchor="middle" x="521" y="-7.5" font-family="Helvetica,sans-Serif" font-size="10.00" fill="#000000">AMReX_Print.H</text>
</g>
<!-- Node26&#45;&gt;Node28 -->
<g id="edge44" class="edge">
<title>Node26&#45;&gt;Node28</title>
<path fill="none" stroke="#191970" d="M591.0313,-61.8906C577.9966,-52.2324 557.6836,-37.1812 542.2845,-25.771"/>
<polygon fill="#191970" stroke="#191970" points="543.9961,-22.6832 533.8777,-19.5419 539.8287,-28.3075 543.9961,-22.6832"/>
</g>
<!-- Node29 -->
<g id="node30" class="node">
<title>Node29</title>
<polygon fill="#ffffff" stroke="#bfbfbf" points="583,-.5 583,-19.5 645,-19.5 645,-.5 583,-.5"/>
<text text-anchor="middle" x="614" y="-7.5" font-family="Helvetica,sans-Serif" font-size="10.00" fill="#000000">AMReX.H</text>
</g>
<!-- Node26&#45;&gt;Node29 -->
<g id="edge45" class="edge">
<title>Node26&#45;&gt;Node29</title>
<path fill="none" stroke="#191970" d="M605.5625,-61.8906C606.9487,-53.3657 609.018,-40.6392 610.7604,-29.9235"/>
<polygon fill="#191970" stroke="#191970" points="614.2651,-30.177 612.4155,-19.7449 607.3558,-29.0535 614.2651,-30.177"/>
</g>
<!-- Node30&#45;&gt;Node9 -->
<g id="edge47" class="edge">
<title>Node30&#45;&gt;Node9</title>
<path fill="none" stroke="#191970" d="M825.8174,-61.9484C836.2406,-59.7177 847.5004,-57.5451 858,-56 1052.3436,-27.4 1108.6149,-59.7722 1304.2395,-19.9303"/>
<polygon fill="#191970" stroke="#191970" points="1305.1869,-23.3083 1314.2675,-17.8501 1303.765,-16.4543 1305.1869,-23.3083"/>
</g>
<!-- Node30&#45;&gt;Node10 -->
<g id="edge49" class="edge">
<title>Node30&#45;&gt;Node10</title>
<path fill="none" stroke="#191970" d="M784.2813,-61.8906C782.7565,-53.3657 780.4802,-40.6392 778.5636,-29.9235"/>
<polygon fill="#191970" stroke="#191970" points="781.9491,-28.9724 776.743,-19.7449 775.0584,-30.2049 781.9491,-28.9724"/>
</g>
<!-- Node30&#45;&gt;Node16 -->
<g id="edge48" class="edge">
<title>Node30&#45;&gt;Node16</title>
<path fill="none" stroke="#191970" d="M770.8438,-61.8906C755.3257,-52.0519 730.9807,-36.6167 712.8716,-25.1351"/>
<polygon fill="#191970" stroke="#191970" points="714.3696,-21.9407 704.0498,-19.5419 710.6213,-27.8526 714.3696,-21.9407"/>
</g>
<!-- Node30&#45;&gt;Node23 -->
<g id="edge50" class="edge">
<title>Node30&#45;&gt;Node23</title>
<path fill="none" stroke="#191970" d="M826.602,-61.98C836.8118,-59.8013 847.7746,-57.6454 858,-56 1002.6679,-32.7208 1043.0362,-40.8047 1191.4436,-20.1401"/>
<polygon fill="#191970" stroke="#191970" points="1191.9654,-23.6013 1201.3775,-18.7368 1190.9862,-16.6701 1191.9654,-23.6013"/>
</g>
<!-- Node32 -->
<g id="node33" class="node">
<title>Node32</title>
<polygon fill="#ffffff" stroke="#bfbfbf" points="341.5,-.5 341.5,-19.5 386.5,-19.5 386.5,-.5 341.5,-.5"/>
<text text-anchor="middle" x="364" y="-7.5" font-family="Helvetica,sans-Serif" font-size="10.00" fill="#000000">iosfwd</text>
</g>
<!-- Node31&#45;&gt;Node32 -->
<g id="edge52" class="edge">
<title>Node31&#45;&gt;Node32</title>
<path fill="none" stroke="#191970" d="M431.7528,-56.2977C418.0033,-46.9022 400.4079,-34.8787 386.5943,-25.4395"/>
<polygon fill="#191970" stroke="#191970" points="388.3725,-22.4155 378.1414,-19.6633 384.4232,-28.195 388.3725,-22.4155"/>
</g>
<!-- Node33&#45;&gt;Node13 -->
<g id="edge58" class="edge">
<title>Node33&#45;&gt;Node13</title>
<path fill="none" stroke="#191970" d="M985.5015,-134.0188C1041.0766,-128.3089 1123.013,-115.4911 1189,-87 1210.6297,-77.661 1210.5725,-65.7941 1232,-56 1255.6598,-45.1856 1318.4152,-31.2125 1366.2004,-21.518"/>
<polygon fill="#191970" stroke="#191970" points="1367.0369,-24.92 1376.1505,-19.517 1365.6567,-18.0574 1367.0369,-24.92"/>
</g>
<!-- Node33&#45;&gt;Node26 -->
<g id="edge56" class="edge">
<title>Node33&#45;&gt;Node26</title>
<path fill="none" stroke="#191970" d="M877.2201,-128.9769C867.8944,-126.9979 858.127,-124.9282 849,-123 783.952,-109.2576 709.1686,-93.5513 659.5069,-83.1342"/>
<polygon fill="#191970" stroke="#191970" points="660.1174,-79.6862 649.6119,-81.0589 658.6805,-86.5371 660.1174,-79.6862"/>
</g>
<!-- Node33&#45;&gt;Node30 -->
<g id="edge57" class="edge">
<title>Node33&#45;&gt;Node30</title>
<path fill="none" stroke="#191970" d="M902.5145,-128.9005C879.4887,-117.5569 840.9772,-98.5844 814.5768,-85.5783"/>
<polygon fill="#191970" stroke="#191970" points="815.9666,-82.3613 805.4493,-81.0817 812.8731,-88.6407 815.9666,-82.3613"/>
</g>
<!-- Node34 -->
<g id="node35" class="node">
<title>Node34</title>
<polygon fill="#ffffff" stroke="#bfbfbf" points="867,-62 867,-81 977,-81 977,-62 867,-62"/>
<text text-anchor="middle" x="922" y="-69" font-family="Helvetica,sans-Serif" font-size="10.00" fill="#000000">AMReX_Geometry.H</text>
</g>
<!-- Node33&#45;&gt;Node34 -->
<g id="edge59" class="edge">
<title>Node33&#45;&gt;Node34</title>
<path fill="none" stroke="#191970" d="M922,-128.9005C922,-119.149 922,-103.7597 922,-91.3695"/>
<polygon fill="#191970" stroke="#191970" points="925.5001,-91.0816 922,-81.0817 918.5001,-91.0817 925.5001,-91.0816"/>
</g>
</g>
</svg>
        <g id="navigator" transform="translate(0 0)" fill="#404254">
                <rect fill="#f2f5e9" fill-opacity="0.5" stroke="#606060" stroke-width=".5" x="0" y="0" width="60" height="60"/>
                <use id="zoomplus" xlink:href="#zoomPlus" x="17" y="9" onmousedown="handleZoom(evt,'in')"/>
                <use id="zoomminus" xlink:href="#zoomMin" x="42" y="9" onmousedown="handleZoom(evt,'out')"/>
                <use id="reset" xlink:href="#resetDef" x="30" y="36" onmousedown="handleReset()"/>
                <g id="arrowUp" xlink:href="#dirArrow" transform="translate(30 24)" onmousedown="handlePan(0,-1)">
                  <use xlink:href="#rim" fill="#404040">
                        <set attributeName="fill" to="#808080" begin="arrowUp.mouseover" end="arrowUp.mouseout"/>
                  </use>
                  <path fill="none" stroke="white" stroke-width="1.5" d="M0,-3.0v7 M-2.5,-0.5L0,-3.0L2.5,-0.5"/>
                </g>
                <g id="arrowRight" xlink:href="#dirArrow" transform="rotate(90) translate(36 -43)" onmousedown="handlePan(1,0)">
                  <use xlink:href="#rim" fill="#404040">
                        <set attributeName="fill" to="#808080" begin="arrowRight.mouseover" end="arrowRight.mouseout"/>
                  </use>
                  <path fill="none" stroke="white" stroke-width="1.5" d="M0,-3.0v7 M-2.5,-0.5L0,-3.0L2.5,-0.5"/>
                </g>
                <g id="arrowDown" xlink:href="#dirArrow" transform="rotate(180) translate(-30 -48)" onmousedown="handlePan(0,1)">
                  <use xlink:href="#rim" fill="#404040">
                        <set attributeName="fill" to="#808080" begin="arrowDown.mouseover" end="arrowDown.mouseout"/>
                  </use>
                  <path fill="none" stroke="white" stroke-width="1.5" d="M0,-3.0v7 M-2.5,-0.5L0,-3.0L2.5,-0.5"/>
                </g>
                <g id="arrowLeft" xlink:href="#dirArrow" transform="rotate(270) translate(-36 17)" onmousedown="handlePan(-1,0)">
                  <use xlink:href="#rim" fill="#404040">
                        <set attributeName="fill" to="#808080" begin="arrowLeft.mouseover" end="arrowLeft.mouseout"/>
                  </use>
                  <path fill="none" stroke="white" stroke-width="1.5" d="M0,-3.0v7 M-2.5,-0.5L0,-3.0L2.5,-0.5"/>
                </g>
        </g>
        <svg viewBox="0 0 15 15" width="100%" height="30px" preserveAspectRatio="xMaxYMin meet">
         <g id="arrow_out" transform="scale(0.3 0.3)">
          <a xlink:href="_field_plane_averaging_8_h__incl_org.svg" target="_base">
           <rect id="button" ry="5" rx="5" y="6" x="6" height="38" width="38"
                fill="#f2f5e9" fill-opacity="0.5" stroke="#606060" stroke-width="1.0"/>
           <path id="arrow"
             d="M 11.500037,31.436501 C 11.940474,20.09759 22.043105,11.32322 32.158766,21.979434 L 37.068811,17.246167 C 37.068811,17.246167 37.088388,32 37.088388,32 L 22.160133,31.978069 C 22.160133,31.978069 26.997745,27.140456 26.997745,27.140456 C 18.528582,18.264221 13.291696,25.230495 11.500037,31.436501 z"
             style="fill:#404040;"/>
          </a>
         </g>
        </svg>
</svg>
