<?xml version="1.0" encoding="UTF-8" standalone="no"?>
<!DOCTYPE svg PUBLIC "-//W3C//DTD SVG 1.1//EN"
 "http://www.w3.org/Graphics/SVG/1.1/DTD/svg11.dtd">
<!-- Generated by graphviz version 2.40.1 (20161225.0304)
 -->
<!-- Title: FieldFillPatchOps.H Pages: 1 -->
<!--zoomable 420 -->
<svg id="main" version="1.1" xmlns="http://www.w3.org/2000/svg" xmlns:xlink="http://www.w3.org/1999/xlink" xml:space="preserve" onload="init(evt)">
<style type="text/css"><![CDATA[
.edge:hover path { stroke: red; }
.edge:hover polygon { stroke: red; fill: red; }
]]></style>
<script type="text/javascript"><![CDATA[
var edges = document.getElementsByTagName('g');
if (edges && edges.length) {
  for (var i=0;i<edges.length;i++) {
    if (edges[i].id.substr(0,4)=='edge') {
      edges[i].setAttribute('class','edge');
    }
  }
}
]]></script>
        <defs>
                <circle id="rim" cx="0" cy="0" r="7"/>
                <circle id="rim2" cx="0" cy="0" r="3.5"/>
                <g id="zoomPlus">
                        <use xlink:href="#rim" fill="#404040">
                                <set attributeName="fill" to="#808080" begin="zoomplus.mouseover" end="zoomplus.mouseout"/>
                        </use>
                        <path d="M-4,0h8M0,-4v8" fill="none" stroke="white" stroke-width="1.5" pointer-events="none"/>
                </g>
                <g id="zoomMin">
                        <use xlink:href="#rim" fill="#404040">
                                <set attributeName="fill" to="#808080" begin="zoomminus.mouseover" end="zoomminus.mouseout"/>
                        </use>
                        <path d="M-4,0h8" fill="none" stroke="white" stroke-width="1.5" pointer-events="none"/>
                </g>
                <g id="dirArrow">
                        <path fill="none" stroke="white" stroke-width="1.5" d="M0,-3.0v7 M-2.5,-0.5L0,-3.0L2.5,-0.5"/>
                </g>
               <g id="resetDef">
                       <use xlink:href="#rim2" fill="#404040">
                               <set attributeName="fill" to="#808080" begin="reset.mouseover" end="reset.mouseout"/>
                       </use>
               </g>
        </defs>

<script type="text/javascript">
var viewWidth = 1150;
var viewHeight = 420;
var sectionId = 'dynsection-1';
</script>
<script xlink:href="svgpan.js"/>
<svg id="graph" class="graph">
<g id="viewport">
<title>FieldFillPatchOps.H</title>
<polygon fill="#ffffff" stroke="transparent" points="-4,4 -4,-416 1146,-416 1146,4 -4,4"/>
<!-- Node19 -->
<g id="node1" class="node">
<title>Node19</title>
<polygon fill="#bfbfbf" stroke="#000000" points="618.5,-392.5 618.5,-411.5 722.5,-411.5 722.5,-392.5 618.5,-392.5"/>
<text text-anchor="middle" x="670.5" y="-399.5" font-family="Helvetica,sans-Serif" font-size="10.00" fill="#000000">FieldFillPatchOps.H</text>
</g>
<!-- Node20 -->
<g id="node2" class="node">
<title>Node20</title>
<g id="a_node2"><a xlink:href="_field_8cpp.html" target="_top" xlink:title="Field.cpp">
<polygon fill="#ffffff" stroke="#000000" points="555.5,-336.5 555.5,-355.5 611.5,-355.5 611.5,-336.5 555.5,-336.5"/>
<text text-anchor="middle" x="583.5" y="-343.5" font-family="Helvetica,sans-Serif" font-size="10.00" fill="#000000">Field.cpp</text>
</a>
</g>
</g>
<!-- Node19&#45;&gt;Node20 -->
<g id="edge1" class="edge">
<title>Node19&#45;&gt;Node20</title>
<path fill="none" stroke="#191970" d="M646.8375,-386.769C631.4209,-376.8456 611.774,-364.1994 598.4806,-355.6427"/>
<polygon fill="#191970" stroke="#191970" points="645.0427,-389.7761 655.3458,-392.2455 648.8315,-383.89 645.0427,-389.7761"/>
</g>
<!-- Node21 -->
<g id="node3" class="node">
<title>Node21</title>
<g id="a_node3"><a xlink:href="_p_d_e_helpers_8_h.html" target="_top" xlink:title="PDEHelpers.H">
<polygon fill="#ffffff" stroke="#000000" points="629.5,-336.5 629.5,-355.5 711.5,-355.5 711.5,-336.5 629.5,-336.5"/>
<text text-anchor="middle" x="670.5" y="-343.5" font-family="Helvetica,sans-Serif" font-size="10.00" fill="#000000">PDEHelpers.H</text>
</a>
</g>
</g>
<!-- Node19&#45;&gt;Node21 -->
<g id="edge2" class="edge">
<title>Node19&#45;&gt;Node21</title>
<path fill="none" stroke="#191970" d="M670.5,-382.1575C670.5,-373.155 670.5,-362.9199 670.5,-355.6427"/>
<polygon fill="#191970" stroke="#191970" points="667.0001,-382.2455 670.5,-392.2455 674.0001,-382.2456 667.0001,-382.2455"/>
</g>
<!-- Node47 -->
<g id="node29" class="node">
<title>Node47</title>
<g id="a_node29"><a xlink:href="_a_b_l_fill_inflow_8_h.html" target="_top" xlink:title="ABLFillInflow.H">
<polygon fill="#ffffff" stroke="#000000" points="928,-336.5 928,-355.5 1013,-355.5 1013,-336.5 928,-336.5"/>
<text text-anchor="middle" x="970.5" y="-343.5" font-family="Helvetica,sans-Serif" font-size="10.00" fill="#000000">ABLFillInflow.H</text>
</a>
</g>
</g>
<!-- Node19&#45;&gt;Node47 -->
<g id="edge61" class="edge">
<title>Node19&#45;&gt;Node47</title>
<path fill="none" stroke="#191970" d="M731.5649,-390.6012C789.9241,-379.7075 876.3951,-363.5662 927.7371,-353.9824"/>
<polygon fill="#191970" stroke="#191970" points="730.9189,-387.1613 721.731,-392.4369 732.2034,-394.0424 730.9189,-387.1613"/>
</g>
<!-- Node22 -->
<g id="node4" class="node">
<title>Node22</title>
<g id="a_node4"><a xlink:href="_p_d_e_ops_8_h.html" target="_top" xlink:title="PDEOps.H">
<polygon fill="#ffffff" stroke="#000000" points="379.5,-280.5 379.5,-299.5 445.5,-299.5 445.5,-280.5 379.5,-280.5"/>
<text text-anchor="middle" x="412.5" y="-287.5" font-family="Helvetica,sans-Serif" font-size="10.00" fill="#000000">PDEOps.H</text>
</a>
</g>
</g>
<!-- Node21&#45;&gt;Node22 -->
<g id="edge3" class="edge">
<title>Node21&#45;&gt;Node22</title>
<path fill="none" stroke="#191970" d="M619.3945,-334.9073C567.839,-323.717 489.749,-306.7672 445.7265,-297.212"/>
<polygon fill="#191970" stroke="#191970" points="618.819,-338.3638 629.3338,-337.0647 620.3038,-331.5231 618.819,-338.3638"/>
</g>
<!-- Node25 -->
<g id="node7" class="node">
<title>Node25</title>
<g id="a_node7"><a xlink:href="icns__ops_8_h.html" target="_top" xlink:title="icns_ops.H">
<polygon fill="#ffffff" stroke="#000000" points="233.5,-56.5 233.5,-75.5 299.5,-75.5 299.5,-56.5 233.5,-56.5"/>
<text text-anchor="middle" x="266.5" y="-63.5" font-family="Helvetica,sans-Serif" font-size="10.00" fill="#000000">icns_ops.H</text>
</a>
</g>
</g>
<!-- Node21&#45;&gt;Node25 -->
<g id="edge55" class="edge">
<title>Node21&#45;&gt;Node25</title>
<path fill="none" stroke="#191970" d="M619.3722,-335.9597C507.5949,-318.8278 467.8141,-349.2746 370.5,-300 291.7348,-260.1175 277.4634,-219.3299 264.5,-132 261.5712,-112.2695 263.5477,-88.8698 265.1144,-75.9037"/>
<polygon fill="#191970" stroke="#191970" points="618.8997,-339.4288 629.3323,-337.5821 620.0251,-332.5199 618.8997,-339.4288"/>
</g>
<!-- Node36 -->
<g id="node18" class="node">
<title>Node36</title>
<g id="a_node18"><a xlink:href="density_8_h.html" target="_top" xlink:title="density.H">
<polygon fill="#ffffff" stroke="#000000" points="837,-112.5 837,-131.5 896,-131.5 896,-112.5 837,-112.5"/>
<text text-anchor="middle" x="866.5" y="-119.5" font-family="Helvetica,sans-Serif" font-size="10.00" fill="#000000">density.H</text>
</a>
</g>
</g>
<!-- Node21&#45;&gt;Node36 -->
<g id="edge52" class="edge">
<title>Node21&#45;&gt;Node36</title>
<path fill="none" stroke="#191970" d="M721.5931,-338.798C766.629,-331.3546 827.5019,-318.2512 843.5,-300 887.0435,-250.3241 874.2413,-160.8531 868.5542,-131.5649"/>
<polygon fill="#191970" stroke="#191970" points="720.9922,-335.3496 711.6729,-340.3895 722.1011,-342.2612 720.9922,-335.3496"/>
</g>
<!-- Node38 -->
<g id="node20" class="node">
<title>Node38</title>
<g id="a_node20"><a xlink:href="icns_8_h.html" target="_top" xlink:title="icns.H">
<polygon fill="#ffffff" stroke="#000000" points="117,-112.5 117,-131.5 162,-131.5 162,-112.5 117,-112.5"/>
<text text-anchor="middle" x="139.5" y="-119.5" font-family="Helvetica,sans-Serif" font-size="10.00" fill="#000000">icns.H</text>
</a>
</g>
</g>
<!-- Node21&#45;&gt;Node38 -->
<g id="edge54" class="edge">
<title>Node21&#45;&gt;Node38</title>
<path fill="none" stroke="#191970" d="M619.3285,-336.3243C533.5022,-329.559 173.4279,-337.6339 138.5,-300 93.9325,-251.9797 123.8657,-161.4222 135.4718,-131.7117"/>
<polygon fill="#191970" stroke="#191970" points="619.0613,-339.8152 629.3671,-337.3571 619.7778,-332.8519 619.0613,-339.8152"/>
</g>
<!-- Node39 -->
<g id="node21" class="node">
<title>Node39</title>
<g id="a_node21"><a xlink:href="icns__diffusion_8_h.html" target="_top" xlink:title="icns_diffusion.H">
<polygon fill="#ffffff" stroke="#000000" points="0,-56.5 0,-75.5 87,-75.5 87,-56.5 0,-56.5"/>
<text text-anchor="middle" x="43.5" y="-63.5" font-family="Helvetica,sans-Serif" font-size="10.00" fill="#000000">icns_diffusion.H</text>
</a>
</g>
</g>
<!-- Node21&#45;&gt;Node39 -->
<g id="edge56" class="edge">
<title>Node21&#45;&gt;Node39</title>
<path fill="none" stroke="#191970" d="M619.3992,-336.0361C398.1725,-307.9066 330.2709,-366.4698 121.5,-300 67.536,-282.8186 12.5,-290.6331 12.5,-234 12.5,-234 12.5,-234 12.5,-178 12.5,-138.8595 30.3027,-94.722 38.9258,-75.6387"/>
<polygon fill="#191970" stroke="#191970" points="618.9968,-339.5132 629.3682,-337.3488 619.9107,-332.5731 618.9968,-339.5132"/>
</g>
<!-- Node40 -->
<g id="node22" class="node">
<title>Node40</title>
<g id="a_node22"><a xlink:href="_s_d_r_8_h.html" target="_top" xlink:title="SDR.H">
<polygon fill="#ffffff" stroke="#000000" points="689,-112.5 689,-131.5 738,-131.5 738,-112.5 689,-112.5"/>
<text text-anchor="middle" x="713.5" y="-119.5" font-family="Helvetica,sans-Serif" font-size="10.00" fill="#000000">SDR.H</text>
</a>
</g>
</g>
<!-- Node21&#45;&gt;Node40 -->
<g id="edge58" class="edge">
<title>Node21&#45;&gt;Node40</title>
<path fill="none" stroke="#191970" d="M674.2602,-326.4119C683.1397,-280.1557 705.1507,-165.494 711.6592,-131.5891"/>
<polygon fill="#191970" stroke="#191970" points="670.7957,-325.8945 672.3477,-336.375 677.6702,-327.2142 670.7957,-325.8945"/>
</g>
<!-- Node41 -->
<g id="node23" class="node">
<title>Node41</title>
<g id="a_node23"><a xlink:href="temperature_8_h.html" target="_top" xlink:title="temperature.H">
<polygon fill="#ffffff" stroke="#000000" points="592,-112.5 592,-131.5 671,-131.5 671,-112.5 592,-112.5"/>
<text text-anchor="middle" x="631.5" y="-119.5" font-family="Helvetica,sans-Serif" font-size="10.00" fill="#000000">temperature.H</text>
</a>
</g>
</g>
<!-- Node21&#45;&gt;Node41 -->
<g id="edge59" class="edge">
<title>Node21&#45;&gt;Node41</title>
<path fill="none" stroke="#191970" d="M667.4073,-326.2369C662.2066,-293.3442 651.2235,-225.3148 640.5,-168 638.1354,-155.362 635.2614,-140.8017 633.4074,-131.506"/>
<polygon fill="#191970" stroke="#191970" points="663.9837,-326.9966 668.9958,-336.3309 670.8986,-325.9083 663.9837,-326.9966"/>
</g>
<!-- Node42 -->
<g id="node24" class="node">
<title>Node42</title>
<g id="a_node24"><a xlink:href="_t_k_e_8_h.html" target="_top" xlink:title="TKE.H">
<polygon fill="#ffffff" stroke="#000000" points="756,-112.5 756,-131.5 803,-131.5 803,-112.5 756,-112.5"/>
<text text-anchor="middle" x="779.5" y="-119.5" font-family="Helvetica,sans-Serif" font-size="10.00" fill="#000000">TKE.H</text>
</a>
</g>
</g>
<!-- Node21&#45;&gt;Node42 -->
<g id="edge60" class="edge">
<title>Node21&#45;&gt;Node42</title>
<path fill="none" stroke="#191970" d="M721.5692,-337.4727C761.4069,-329.6573 812.014,-316.7607 824.5,-300 864.6795,-246.0647 808.0555,-160.1165 786.9071,-131.5668"/>
<polygon fill="#191970" stroke="#191970" points="720.8726,-334.0424 711.7028,-339.3495 722.1807,-340.9191 720.8726,-334.0424"/>
</g>
<!-- Node44 -->
<g id="node26" class="node">
<title>Node44</title>
<g id="a_node26"><a xlink:href="_diffusion_ops_8_h.html" target="_top" xlink:title="DiffusionOps.H">
<polygon fill="#ffffff" stroke="#000000" points="370.5,-224.5 370.5,-243.5 454.5,-243.5 454.5,-224.5 370.5,-224.5"/>
<text text-anchor="middle" x="412.5" y="-231.5" font-family="Helvetica,sans-Serif" font-size="10.00" fill="#000000">DiffusionOps.H</text>
</a>
</g>
</g>
<!-- Node21&#45;&gt;Node44 -->
<g id="edge53" class="edge">
<title>Node21&#45;&gt;Node44</title>
<path fill="none" stroke="#191970" d="M639.263,-332.4398C586.3257,-309.4592 480.2799,-263.4238 434.4413,-243.5249"/>
<polygon fill="#191970" stroke="#191970" points="637.9364,-335.6794 648.5031,-336.4509 640.7238,-329.2583 637.9364,-335.6794"/>
</g>
<!-- Node46 -->
<g id="node28" class="node">
<title>Node46</title>
<g id="a_node28"><a xlink:href="_p_d_e_base_8cpp.html" target="_top" xlink:title="PDEBase.cpp">
<polygon fill="#ffffff" stroke="#000000" points="737,-280.5 737,-299.5 816,-299.5 816,-280.5 737,-280.5"/>
<text text-anchor="middle" x="776.5" y="-287.5" font-family="Helvetica,sans-Serif" font-size="10.00" fill="#000000">PDEBase.cpp</text>
</a>
</g>
</g>
<!-- Node21&#45;&gt;Node46 -->
<g id="edge57" class="edge">
<title>Node21&#45;&gt;Node46</title>
<path fill="none" stroke="#191970" d="M698.0222,-331.46C716.9908,-321.4388 741.6727,-308.3993 758.2478,-299.6427"/>
<polygon fill="#191970" stroke="#191970" points="696.1708,-328.4796 688.9638,-336.2455 699.4407,-334.669 696.1708,-328.4796"/>
</g>
<!-- Node23 -->
<g id="node5" class="node">
<title>Node23</title>
<g id="a_node5"><a xlink:href="_adv_op___godunov_8_h.html" target="_top" xlink:title="AdvOp_Godunov.H">
<polygon fill="#ffffff" stroke="#000000" points="372,-112.5 372,-131.5 473,-131.5 473,-112.5 372,-112.5"/>
<text text-anchor="middle" x="422.5" y="-119.5" font-family="Helvetica,sans-Serif" font-size="10.00" fill="#000000">AdvOp_Godunov.H</text>
</a>
</g>
</g>
<!-- Node22&#45;&gt;Node23 -->
<g id="edge4" class="edge">
<title>Node22&#45;&gt;Node23</title>
<path fill="none" stroke="#191970" d="M387.5289,-274.3964C377.4599,-266.6245 366.9508,-256.2568 361.5,-244 347.7746,-213.1366 346.4337,-198.2315 361.5,-168 369.7828,-151.3801 387.2497,-139.1809 401.3784,-131.5378"/>
<polygon fill="#191970" stroke="#191970" points="385.596,-277.3172 395.7627,-280.2988 389.6744,-271.6279 385.596,-277.3172"/>
</g>
<!-- Node22&#45;&gt;Node25 -->
<g id="edge50" class="edge">
<title>Node22&#45;&gt;Node25</title>
<path fill="none" stroke="#191970" d="M381.9392,-275.7439C367.2788,-267.8528 350.1901,-257.0024 337.5,-244 297.3014,-202.8119 289.9615,-186.8406 272.5,-132 266.3563,-112.7047 265.8242,-88.7451 266.0917,-75.6547"/>
<polygon fill="#191970" stroke="#191970" points="380.6599,-279.0221 391.1519,-280.495 383.8685,-272.8007 380.6599,-279.0221"/>
</g>
<!-- Node31 -->
<g id="node13" class="node">
<title>Node31</title>
<g id="a_node13"><a xlink:href="_adv_op___m_o_l_8_h.html" target="_top" xlink:title="AdvOp_MOL.H">
<polygon fill="#ffffff" stroke="#000000" points="491,-112.5 491,-131.5 574,-131.5 574,-112.5 491,-112.5"/>
<text text-anchor="middle" x="532.5" y="-119.5" font-family="Helvetica,sans-Serif" font-size="10.00" fill="#000000">AdvOp_MOL.H</text>
</a>
</g>
</g>
<!-- Node22&#45;&gt;Node31 -->
<g id="edge12" class="edge">
<title>Node22&#45;&gt;Node31</title>
<path fill="none" stroke="#191970" d="M433.1217,-274.0373C443.029,-265.7434 454.6429,-255.0472 463.5,-244 493.9426,-206.0301 518.9329,-152.9253 528.4094,-131.5088"/>
<polygon fill="#191970" stroke="#191970" points="430.8525,-271.3714 425.299,-280.3941 435.267,-276.8039 430.8525,-271.3714"/>
</g>
<!-- Node32 -->
<g id="node14" class="node">
<title>Node32</title>
<g id="a_node14"><a xlink:href="_b_c_ops_8_h.html" target="_top" xlink:title="BCOps.H">
<polygon fill="#ffffff" stroke="#000000" points="295,-112.5 295,-131.5 354,-131.5 354,-112.5 295,-112.5"/>
<text text-anchor="middle" x="324.5" y="-119.5" font-family="Helvetica,sans-Serif" font-size="10.00" fill="#000000">BCOps.H</text>
</a>
</g>
</g>
<!-- Node22&#45;&gt;Node32 -->
<g id="edge18" class="edge">
<title>Node22&#45;&gt;Node32</title>
<path fill="none" stroke="#191970" d="M384.0446,-275.0964C371.9485,-267.3728 358.7576,-256.8483 350.5,-244 327.0826,-207.5639 324.3857,-153.5963 324.3264,-131.729"/>
<polygon fill="#191970" stroke="#191970" points="382.604,-278.3133 392.9813,-280.4489 386.2007,-272.308 382.604,-278.3133"/>
</g>
<!-- Node34 -->
<g id="node16" class="node">
<title>Node34</title>
<g id="a_node16"><a xlink:href="_comp_r_h_s_ops_8_h.html" target="_top" xlink:title="CompRHSOps.H">
<polygon fill="#ffffff" stroke="#000000" points="549,-224.5 549,-243.5 642,-243.5 642,-224.5 549,-224.5"/>
<text text-anchor="middle" x="595.5" y="-231.5" font-family="Helvetica,sans-Serif" font-size="10.00" fill="#000000">CompRHSOps.H</text>
</a>
</g>
</g>
<!-- Node22&#45;&gt;Node34 -->
<g id="edge25" class="edge">
<title>Node22&#45;&gt;Node34</title>
<path fill="none" stroke="#191970" d="M453.925,-277.3235C487.4856,-267.0536 534.034,-252.8093 564.4517,-243.5011"/>
<polygon fill="#191970" stroke="#191970" points="452.4969,-274.1002 443.9588,-280.3733 454.5453,-280.7938 452.4969,-274.1002"/>
</g>
<!-- Node35 -->
<g id="node17" class="node">
<title>Node35</title>
<g id="a_node17"><a xlink:href="_p_d_e_8_h.html" target="_top" xlink:title="PDE.H">
<polygon fill="#ffffff" stroke="#000000" points="583.5,-168.5 583.5,-187.5 631.5,-187.5 631.5,-168.5 583.5,-168.5"/>
<text text-anchor="middle" x="607.5" y="-175.5" font-family="Helvetica,sans-Serif" font-size="10.00" fill="#000000">PDE.H</text>
</a>
</g>
</g>
<!-- Node22&#45;&gt;Node35 -->
<g id="edge44" class="edge">
<title>Node22&#45;&gt;Node35</title>
<path fill="none" stroke="#191970" d="M439.4023,-275.5817C455.9518,-266.6344 477.5491,-254.8185 496.5,-244 530.7685,-224.4372 570.3827,-200.5779 591.795,-187.5763"/>
<polygon fill="#191970" stroke="#191970" points="437.4411,-272.6627 430.2997,-280.489 440.763,-278.8244 437.4411,-272.6627"/>
</g>
<!-- Node22&#45;&gt;Node39 -->
<g id="edge51" class="edge">
<title>Node22&#45;&gt;Node39</title>
<path fill="none" stroke="#191970" d="M369.5864,-279.8292C300.3662,-261.4119 163.4565,-216.3894 80.5,-132 63.9243,-115.138 52.3659,-89.3588 46.9641,-75.5385"/>
<polygon fill="#191970" stroke="#191970" points="368.7345,-283.224 379.2936,-282.355 370.4972,-276.4496 368.7345,-283.224"/>
</g>
<!-- Node22&#45;&gt;Node44 -->
<g id="edge45" class="edge">
<title>Node22&#45;&gt;Node44</title>
<path fill="none" stroke="#191970" d="M412.5,-270.1575C412.5,-261.155 412.5,-250.9199 412.5,-243.6427"/>
<polygon fill="#191970" stroke="#191970" points="409.0001,-270.2455 412.5,-280.2455 416.0001,-270.2456 409.0001,-270.2455"/>
</g>
<!-- Node24 -->
<g id="node6" class="node">
<title>Node24</title>
<g id="a_node6"><a xlink:href="density_8cpp.html" target="_top" xlink:title="density.cpp">
<polygon fill="#ffffff" stroke="#000000" points="624,-.5 624,-19.5 691,-19.5 691,-.5 624,-.5"/>
<text text-anchor="middle" x="657.5" y="-7.5" font-family="Helvetica,sans-Serif" font-size="10.00" fill="#000000">density.cpp</text>
</a>
</g>
</g>
<!-- Node23&#45;&gt;Node24 -->
<g id="edge5" class="edge">
<title>Node23&#45;&gt;Node24</title>
<path fill="none" stroke="#191970" d="M402.2312,-105.6536C387.2653,-91.6231 371.5594,-71.3035 384.5,-56 399.8428,-37.8557 554.3801,-20.2949 623.9124,-13.2428"/>
<polygon fill="#191970" stroke="#191970" points="400.0188,-108.3691 409.8343,-112.3575 404.6484,-103.1186 400.0188,-108.3691"/>
</g>
<!-- Node23&#45;&gt;Node25 -->
<g id="edge6" class="edge">
<title>Node23&#45;&gt;Node25</title>
<path fill="none" stroke="#191970" d="M386.0716,-108.9231C357.5539,-98.686 318.5619,-84.6889 292.9674,-75.5011"/>
<polygon fill="#191970" stroke="#191970" points="385.0881,-112.2887 395.6826,-112.3733 387.4532,-105.7004 385.0881,-112.2887"/>
</g>
<!-- Node28 -->
<g id="node10" class="node">
<title>Node28</title>
<g id="a_node10"><a xlink:href="_s_d_r_8cpp.html" target="_top" xlink:title="SDR.cpp">
<polygon fill="#ffffff" stroke="#000000" points="499,-56.5 499,-75.5 556,-75.5 556,-56.5 499,-56.5"/>
<text text-anchor="middle" x="527.5" y="-63.5" font-family="Helvetica,sans-Serif" font-size="10.00" fill="#000000">SDR.cpp</text>
</a>
</g>
</g>
<!-- Node23&#45;&gt;Node28 -->
<g id="edge9" class="edge">
<title>Node23&#45;&gt;Node28</title>
<path fill="none" stroke="#191970" d="M449.7625,-107.46C468.5522,-97.4388 493.0013,-84.3993 509.42,-75.6427"/>
<polygon fill="#191970" stroke="#191970" points="447.9661,-104.4514 440.7896,-112.2455 451.2602,-110.6278 447.9661,-104.4514"/>
</g>
<!-- Node29 -->
<g id="node11" class="node">
<title>Node29</title>
<g id="a_node11"><a xlink:href="temperature_8cpp.html" target="_top" xlink:title="temperature.cpp">
<polygon fill="#ffffff" stroke="#000000" points="394,-56.5 394,-75.5 481,-75.5 481,-56.5 394,-56.5"/>
<text text-anchor="middle" x="437.5" y="-63.5" font-family="Helvetica,sans-Serif" font-size="10.00" fill="#000000">temperature.cpp</text>
</a>
</g>
</g>
<!-- Node23&#45;&gt;Node29 -->
<g id="edge10" class="edge">
<title>Node23&#45;&gt;Node29</title>
<path fill="none" stroke="#191970" d="M427.7356,-102.4538C430.166,-93.3803 432.9465,-82.9998 434.9171,-75.6427"/>
<polygon fill="#191970" stroke="#191970" points="424.3194,-101.6805 425.1128,-112.2455 431.0811,-103.4917 424.3194,-101.6805"/>
</g>
<!-- Node30 -->
<g id="node12" class="node">
<title>Node30</title>
<g id="a_node12"><a xlink:href="_t_k_e_8cpp.html" target="_top" xlink:title="TKE.cpp">
<polygon fill="#ffffff" stroke="#000000" points="574,-56.5 574,-75.5 629,-75.5 629,-56.5 574,-56.5"/>
<text text-anchor="middle" x="601.5" y="-63.5" font-family="Helvetica,sans-Serif" font-size="10.00" fill="#000000">TKE.cpp</text>
</a>
</g>
</g>
<!-- Node23&#45;&gt;Node30 -->
<g id="edge11" class="edge">
<title>Node23&#45;&gt;Node30</title>
<path fill="none" stroke="#191970" d="M462.8614,-109.373C496.6869,-98.7907 544.0833,-83.9628 573.7728,-74.6744"/>
<polygon fill="#191970" stroke="#191970" points="461.77,-106.0471 453.2712,-112.3733 463.8601,-112.7278 461.77,-106.0471"/>
</g>
<!-- Node26 -->
<g id="node8" class="node">
<title>Node26</title>
<g id="a_node8"><a xlink:href="icns_8cpp.html" target="_top" xlink:title="icns.cpp">
<polygon fill="#ffffff" stroke="#000000" points="121,-.5 121,-19.5 174,-19.5 174,-.5 121,-.5"/>
<text text-anchor="middle" x="147.5" y="-7.5" font-family="Helvetica,sans-Serif" font-size="10.00" fill="#000000">icns.cpp</text>
</a>
</g>
</g>
<!-- Node25&#45;&gt;Node26 -->
<g id="edge7" class="edge">
<title>Node25&#45;&gt;Node26</title>
<path fill="none" stroke="#191970" d="M236.9856,-52.1109C215.4062,-41.9559 186.7024,-28.4482 167.6899,-19.5011"/>
<polygon fill="#191970" stroke="#191970" points="235.5047,-55.2821 246.0432,-56.3733 238.4853,-48.9484 235.5047,-55.2821"/>
</g>
<!-- Node27 -->
<g id="node9" class="node">
<title>Node27</title>
<g id="a_node9"><a xlink:href="icns__ops_8cpp.html" target="_top" xlink:title="icns_ops.cpp">
<polygon fill="#ffffff" stroke="#000000" points="229.5,-.5 229.5,-19.5 303.5,-19.5 303.5,-.5 229.5,-.5"/>
<text text-anchor="middle" x="266.5" y="-7.5" font-family="Helvetica,sans-Serif" font-size="10.00" fill="#000000">icns_ops.cpp</text>
</a>
</g>
</g>
<!-- Node25&#45;&gt;Node27 -->
<g id="edge8" class="edge">
<title>Node25&#45;&gt;Node27</title>
<path fill="none" stroke="#191970" d="M266.5,-46.1575C266.5,-37.155 266.5,-26.9199 266.5,-19.6427"/>
<polygon fill="#191970" stroke="#191970" points="263.0001,-46.2455 266.5,-56.2455 270.0001,-46.2456 263.0001,-46.2455"/>
</g>
<!-- Node31&#45;&gt;Node24 -->
<g id="edge13" class="edge">
<title>Node31&#45;&gt;Node24</title>
<path fill="none" stroke="#191970" d="M583.7025,-109.4769C602.8896,-102.4744 623.427,-91.8507 637.5,-76 651.8084,-59.8841 655.8833,-33.8018 657.0417,-19.7358"/>
<polygon fill="#191970" stroke="#191970" points="582.4765,-106.1968 574.1309,-112.7237 584.7252,-112.8258 582.4765,-106.1968"/>
</g>
<!-- Node31&#45;&gt;Node25 -->
<g id="edge14" class="edge">
<title>Node31&#45;&gt;Node25</title>
<path fill="none" stroke="#191970" d="M480.9646,-111.1504C427.4497,-99.8841 345.314,-82.5924 299.7854,-73.0075"/>
<polygon fill="#191970" stroke="#191970" points="480.4309,-114.6147 490.9375,-113.25 481.8731,-107.7649 480.4309,-114.6147"/>
</g>
<!-- Node31&#45;&gt;Node28 -->
<g id="edge15" class="edge">
<title>Node31&#45;&gt;Node28</title>
<path fill="none" stroke="#191970" d="M530.7283,-102.1575C529.9246,-93.155 529.0107,-82.9199 528.361,-75.6427"/>
<polygon fill="#191970" stroke="#191970" points="527.2535,-102.5965 531.6291,-112.2455 534.2258,-101.9739 527.2535,-102.5965"/>
</g>
<!-- Node31&#45;&gt;Node29 -->
<g id="edge16" class="edge">
<title>Node31&#45;&gt;Node29</title>
<path fill="none" stroke="#191970" d="M507.1324,-107.0465C490.229,-97.0824 468.5096,-84.2794 453.8581,-75.6427"/>
<polygon fill="#191970" stroke="#191970" points="505.5602,-110.1825 515.9523,-112.2455 509.1149,-104.1522 505.5602,-110.1825"/>
</g>
<!-- Node31&#45;&gt;Node30 -->
<g id="edge17" class="edge">
<title>Node31&#45;&gt;Node30</title>
<path fill="none" stroke="#191970" d="M552.303,-105.928C564.3636,-96.1397 579.3714,-83.9595 589.6188,-75.6427"/>
<polygon fill="#191970" stroke="#191970" points="550.0779,-103.2262 544.5189,-112.2455 554.4891,-108.6614 550.0779,-103.2262"/>
</g>
<!-- Node32&#45;&gt;Node24 -->
<g id="edge19" class="edge">
<title>Node32&#45;&gt;Node24</title>
<path fill="none" stroke="#191970" d="M334.294,-102.9262C343.1763,-87.6704 357.741,-67.0638 376.5,-56 417.9091,-31.5775 558.6013,-17.7125 623.8097,-12.4603"/>
<polygon fill="#191970" stroke="#191970" points="331.0424,-101.5758 329.2906,-112.0248 337.1761,-104.9488 331.0424,-101.5758"/>
</g>
<!-- Node32&#45;&gt;Node28 -->
<g id="edge22" class="edge">
<title>Node32&#45;&gt;Node28</title>
<path fill="none" stroke="#191970" d="M363.8699,-111.1393C403.4981,-100.2074 463.6612,-83.6107 498.9303,-73.8813"/>
<polygon fill="#191970" stroke="#191970" points="362.7271,-107.8238 354.0179,-113.8571 364.5886,-114.5717 362.7271,-107.8238"/>
</g>
<!-- Node32&#45;&gt;Node29 -->
<g id="edge23" class="edge">
<title>Node32&#45;&gt;Node29</title>
<path fill="none" stroke="#191970" d="M353.0792,-107.8368C373.5058,-97.7139 400.4362,-84.3679 418.3281,-75.5011"/>
<polygon fill="#191970" stroke="#191970" points="351.3313,-104.7968 343.9254,-112.3733 354.4396,-111.0688 351.3313,-104.7968"/>
</g>
<!-- Node32&#45;&gt;Node30 -->
<g id="edge24" class="edge">
<title>Node32&#45;&gt;Node30</title>
<path fill="none" stroke="#191970" d="M364.3055,-111.7301C453.3213,-92.5996 478.6375,-95.2154 564.5,-76 567.487,-75.3315 570.5952,-74.5804 573.6846,-73.7979"/>
<polygon fill="#191970" stroke="#191970" points="363.3393,-108.3585 354.3153,-113.91 364.8316,-115.1976 363.3393,-108.3585"/>
</g>
<!-- Node33 -->
<g id="node15" class="node">
<title>Node33</title>
<g id="a_node15"><a xlink:href="icns__bcop_8_h.html" target="_top" xlink:title="icns_bcop.H">
<polygon fill="#ffffff" stroke="#000000" points="144,-56.5 144,-75.5 215,-75.5 215,-56.5 144,-56.5"/>
<text text-anchor="middle" x="179.5" y="-63.5" font-family="Helvetica,sans-Serif" font-size="10.00" fill="#000000">icns_bcop.H</text>
</a>
</g>
</g>
<!-- Node32&#45;&gt;Node33 -->
<g id="edge20" class="edge">
<title>Node32&#45;&gt;Node33</title>
<path fill="none" stroke="#191970" d="M289.9435,-108.6541C263.5014,-98.4419 227.6831,-84.6086 204.1011,-75.5011"/>
<polygon fill="#191970" stroke="#191970" points="288.9842,-112.0354 299.5736,-112.3733 291.5061,-105.5055 288.9842,-112.0354"/>
</g>
<!-- Node33&#45;&gt;Node26 -->
<g id="edge21" class="edge">
<title>Node33&#45;&gt;Node26</title>
<path fill="none" stroke="#191970" d="M168.8355,-47.3372C163.5346,-38.0605 157.3513,-27.2398 153.0101,-19.6427"/>
<polygon fill="#191970" stroke="#191970" points="165.9257,-49.2996 173.926,-56.2455 172.0034,-45.8266 165.9257,-49.2996"/>
</g>
<!-- Node34&#45;&gt;Node35 -->
<g id="edge26" class="edge">
<title>Node34&#45;&gt;Node35</title>
<path fill="none" stroke="#191970" d="M599.6885,-214.4538C601.6328,-205.3803 603.8572,-194.9998 605.4337,-187.6427"/>
<polygon fill="#191970" stroke="#191970" points="596.2633,-213.7341 597.5902,-224.2455 603.1079,-215.2009 596.2633,-213.7341"/>
</g>
<!-- Node35&#45;&gt;Node36 -->
<g id="edge27" class="edge">
<title>Node35&#45;&gt;Node36</title>
<path fill="none" stroke="#191970" d="M641.7862,-170.5868C692.9852,-159.5167 788.558,-138.8523 836.889,-128.4024"/>
<polygon fill="#191970" stroke="#191970" points="640.9005,-167.1973 631.8661,-172.7317 642.3799,-174.0392 640.9005,-167.1973"/>
</g>
<!-- Node35&#45;&gt;Node38 -->
<g id="edge31" class="edge">
<title>Node35&#45;&gt;Node38</title>
<path fill="none" stroke="#191970" d="M573.2988,-173.9076C482.6314,-163.0585 237.8858,-133.7727 162.1498,-124.7102"/>
<polygon fill="#191970" stroke="#191970" points="572.9787,-177.3941 583.3238,-175.1071 573.8105,-170.4437 572.9787,-177.3941"/>
</g>
<!-- Node35&#45;&gt;Node40 -->
<g id="edge37" class="edge">
<title>Node35&#45;&gt;Node40</title>
<path fill="none" stroke="#191970" d="M635.0222,-163.46C653.9908,-153.4388 678.6727,-140.3993 695.2478,-131.6427"/>
<polygon fill="#191970" stroke="#191970" points="633.1708,-160.4796 625.9638,-168.2455 636.4407,-166.669 633.1708,-160.4796"/>
</g>
<!-- Node35&#45;&gt;Node41 -->
<g id="edge39" class="edge">
<title>Node35&#45;&gt;Node41</title>
<path fill="none" stroke="#191970" d="M615.6241,-159.0437C619.5715,-149.8331 624.1458,-139.1598 627.3674,-131.6427"/>
<polygon fill="#191970" stroke="#191970" points="612.4027,-157.6753 611.6805,-168.2455 618.8367,-160.4328 612.4027,-157.6753"/>
</g>
<!-- Node35&#45;&gt;Node42 -->
<g id="edge41" class="edge">
<title>Node35&#45;&gt;Node42</title>
<path fill="none" stroke="#191970" d="M641.6822,-166.8709C675.493,-155.8627 726.342,-139.3072 755.897,-129.6847"/>
<polygon fill="#191970" stroke="#191970" points="640.2037,-163.6714 631.7786,-170.0953 642.3709,-170.3275 640.2037,-163.6714"/>
</g>
<!-- Node36&#45;&gt;Node24 -->
<g id="edge28" class="edge">
<title>Node36&#45;&gt;Node24</title>
<path fill="none" stroke="#191970" d="M877.9794,-103.3324C885.2087,-88.9275 891.3207,-69.2806 880.5,-56 857.0286,-27.1928 747.7655,-15.8881 691.3755,-11.915"/>
<polygon fill="#191970" stroke="#191970" points="874.7812,-101.8825 872.9903,-112.3249 880.9023,-105.2785 874.7812,-101.8825"/>
</g>
<!-- Node37 -->
<g id="node19" class="node">
<title>Node37</title>
<g id="a_node19"><a xlink:href="density__ops_8_h.html" target="_top" xlink:title="density_ops.H">
<polygon fill="#ffffff" stroke="#000000" points="791.5,-56.5 791.5,-75.5 871.5,-75.5 871.5,-56.5 791.5,-56.5"/>
<text text-anchor="middle" x="831.5" y="-63.5" font-family="Helvetica,sans-Serif" font-size="10.00" fill="#000000">density_ops.H</text>
</a>
</g>
</g>
<!-- Node36&#45;&gt;Node37 -->
<g id="edge29" class="edge">
<title>Node36&#45;&gt;Node37</title>
<path fill="none" stroke="#191970" d="M855.0185,-103.6296C849.1804,-94.2887 842.3248,-83.3197 837.5267,-75.6427"/>
<polygon fill="#191970" stroke="#191970" points="852.1354,-105.6206 860.4035,-112.2455 858.0714,-101.9105 852.1354,-105.6206"/>
</g>
<!-- Node37&#45;&gt;Node24 -->
<g id="edge30" class="edge">
<title>Node37&#45;&gt;Node24</title>
<path fill="none" stroke="#191970" d="M791.699,-53.1905C759.821,-42.9309 715.8184,-28.7691 687.0213,-19.5011"/>
<polygon fill="#191970" stroke="#191970" points="790.9969,-56.6413 801.5883,-56.3733 793.1415,-49.9779 790.9969,-56.6413"/>
</g>
<!-- Node38&#45;&gt;Node25 -->
<g id="edge33" class="edge">
<title>Node38&#45;&gt;Node25</title>
<path fill="none" stroke="#191970" d="M170.6892,-108.2473C193.7537,-98.0771 224.5712,-84.4883 244.9528,-75.5011"/>
<polygon fill="#191970" stroke="#191970" points="169.0699,-105.1361 161.3321,-112.3733 171.8942,-111.5411 169.0699,-105.1361"/>
</g>
<!-- Node38&#45;&gt;Node26 -->
<g id="edge32" class="edge">
<title>Node38&#45;&gt;Node26</title>
<path fill="none" stroke="#191970" d="M135.7598,-101.8798C133.8679,-88.7705 132.377,-71.3182 134.5,-56 136.2772,-43.1763 140.7159,-28.8999 143.9124,-19.7033"/>
<polygon fill="#191970" stroke="#191970" points="132.3674,-102.8204 137.4448,-112.1193 139.2745,-101.6837 132.3674,-102.8204"/>
</g>
<!-- Node38&#45;&gt;Node33 -->
<g id="edge36" class="edge">
<title>Node38&#45;&gt;Node33</title>
<path fill="none" stroke="#191970" d="M152.4136,-103.9209C159.1303,-94.5176 167.0717,-83.3997 172.6124,-75.6427"/>
<polygon fill="#191970" stroke="#191970" points="149.4318,-102.0738 146.4675,-112.2455 155.128,-106.1425 149.4318,-102.0738"/>
</g>
<!-- Node38&#45;&gt;Node39 -->
<g id="edge34" class="edge">
<title>Node38&#45;&gt;Node39</title>
<path fill="none" stroke="#191970" d="M113.8654,-107.0465C96.7841,-97.0824 74.836,-84.2794 60.0303,-75.6427"/>
<polygon fill="#191970" stroke="#191970" points="112.3767,-110.23 122.7781,-112.2455 115.9038,-104.1836 112.3767,-110.23"/>
</g>
<!-- Node39&#45;&gt;Node26 -->
<g id="edge35" class="edge">
<title>Node39&#45;&gt;Node26</title>
<path fill="none" stroke="#191970" d="M70.5029,-51.46C89.1136,-41.4388 113.3299,-28.3993 129.5922,-19.6427"/>
<polygon fill="#191970" stroke="#191970" points="68.7608,-48.4228 61.6154,-56.2455 72.0795,-54.5861 68.7608,-48.4228"/>
</g>
<!-- Node40&#45;&gt;Node28 -->
<g id="edge38" class="edge">
<title>Node40&#45;&gt;Node28</title>
<path fill="none" stroke="#191970" d="M678.9283,-111.5913C643.5939,-100.953 589.3457,-84.6202 556.2749,-74.6634"/>
<polygon fill="#191970" stroke="#191970" points="678.2162,-115.032 688.8006,-114.5636 680.2343,-108.3292 678.2162,-115.032"/>
</g>
<!-- Node41&#45;&gt;Node29 -->
<g id="edge40" class="edge">
<title>Node41&#45;&gt;Node29</title>
<path fill="none" stroke="#191970" d="M588.502,-109.5882C552.8592,-99.2996 502.9386,-84.8895 470.4146,-75.5011"/>
<polygon fill="#191970" stroke="#191970" points="587.5718,-112.9625 598.1502,-112.3733 589.5132,-106.2371 587.5718,-112.9625"/>
</g>
<!-- Node42&#45;&gt;Node30 -->
<g id="edge42" class="edge">
<title>Node42&#45;&gt;Node30</title>
<path fill="none" stroke="#191970" d="M745.9789,-111.454C712.1554,-100.8129 660.5498,-84.5775 629.0372,-74.6634"/>
<polygon fill="#191970" stroke="#191970" points="745.2735,-114.9012 755.863,-114.5636 747.3743,-108.2238 745.2735,-114.9012"/>
</g>
<!-- Node43 -->
<g id="node25" class="node">
<title>Node43</title>
<g id="a_node25"><a xlink:href="_one_eq_ksgs_8cpp.html" target="_top" xlink:title="OneEqKsgs.cpp">
<polygon fill="#ffffff" stroke="#000000" points="685.5,-56.5 685.5,-75.5 773.5,-75.5 773.5,-56.5 685.5,-56.5"/>
<text text-anchor="middle" x="729.5" y="-63.5" font-family="Helvetica,sans-Serif" font-size="10.00" fill="#000000">OneEqKsgs.cpp</text>
</a>
</g>
</g>
<!-- Node42&#45;&gt;Node43 -->
<g id="edge43" class="edge">
<title>Node42&#45;&gt;Node43</title>
<path fill="none" stroke="#191970" d="M763.8753,-104.5004C755.3727,-94.9775 745.1782,-83.5596 738.1095,-75.6427"/>
<polygon fill="#191970" stroke="#191970" points="761.5197,-107.1172 770.7907,-112.2455 766.7413,-102.4551 761.5197,-107.1172"/>
</g>
<!-- Node44&#45;&gt;Node25 -->
<g id="edge48" class="edge">
<title>Node44&#45;&gt;Node25</title>
<path fill="none" stroke="#191970" d="M385.6341,-219.2627C356.7087,-202.0377 311.3727,-170.875 285.5,-132 273.7408,-114.3312 269.1485,-89.3248 267.4417,-75.7267"/>
<polygon fill="#191970" stroke="#191970" points="383.9985,-222.3603 394.4034,-224.3577 387.5151,-216.3077 383.9985,-222.3603"/>
</g>
<!-- Node44&#45;&gt;Node35 -->
<g id="edge46" class="edge">
<title>Node44&#45;&gt;Node35</title>
<path fill="none" stroke="#191970" d="M455.8582,-221.5484C495.1234,-210.2722 551.5424,-194.0699 583.3316,-184.9407"/>
<polygon fill="#191970" stroke="#191970" points="454.6671,-218.2489 446.0217,-224.3733 456.5993,-224.977 454.6671,-218.2489"/>
</g>
<!-- Node44&#45;&gt;Node39 -->
<g id="edge49" class="edge">
<title>Node44&#45;&gt;Node39</title>
<path fill="none" stroke="#191970" d="M360.1305,-224.4379C296.6172,-211.1195 188.0708,-182.7113 107.5,-132 83.1856,-116.6965 61.4227,-90.2841 50.6439,-75.9506"/>
<polygon fill="#191970" stroke="#191970" points="359.8075,-227.9444 370.3066,-226.5232 361.2128,-221.0869 359.8075,-227.9444"/>
</g>
<!-- Node45 -->
<g id="node27" class="node">
<title>Node45</title>
<g id="a_node27"><a xlink:href="_diffusion_ops_8cpp.html" target="_top" xlink:title="DiffusionOps.cpp">
<polygon fill="#ffffff" stroke="#000000" points="370.5,-168.5 370.5,-187.5 462.5,-187.5 462.5,-168.5 370.5,-168.5"/>
<text text-anchor="middle" x="416.5" y="-175.5" font-family="Helvetica,sans-Serif" font-size="10.00" fill="#000000">DiffusionOps.cpp</text>
</a>
</g>
</g>
<!-- Node44&#45;&gt;Node45 -->
<g id="edge47" class="edge">
<title>Node44&#45;&gt;Node45</title>
<path fill="none" stroke="#191970" d="M413.9173,-214.1575C414.5604,-205.155 415.2914,-194.9199 415.8112,-187.6427"/>
<polygon fill="#191970" stroke="#191970" points="410.4182,-214.0216 413.1967,-224.2455 417.4004,-214.5204 410.4182,-214.0216"/>
</g>
<!-- Node48 -->
<g id="node30" class="node">
<title>Node48</title>
<g id="a_node30"><a xlink:href="_a_b_l_boundary_plane_8cpp.html" target="_top" xlink:title="ABLBoundaryPlane.cpp">
<polygon fill="#ffffff" stroke="#000000" points="910.5,-280.5 910.5,-299.5 1030.5,-299.5 1030.5,-280.5 910.5,-280.5"/>
<text text-anchor="middle" x="970.5" y="-287.5" font-family="Helvetica,sans-Serif" font-size="10.00" fill="#000000">ABLBoundaryPlane.cpp</text>
</a>
</g>
</g>
<!-- Node47&#45;&gt;Node48 -->
<g id="edge62" class="edge">
<title>Node47&#45;&gt;Node48</title>
<path fill="none" stroke="#191970" d="M970.5,-326.1575C970.5,-317.155 970.5,-306.9199 970.5,-299.6427"/>
<polygon fill="#191970" stroke="#191970" points="967.0001,-326.2455 970.5,-336.2455 974.0001,-326.2456 967.0001,-326.2455"/>
</g>
<!-- Node49 -->
<g id="node31" class="node">
<title>Node49</title>
<g id="a_node31"><a xlink:href="_a_b_l_fill_inflow_8cpp.html" target="_top" xlink:title="ABLFillInflow.cpp">
<polygon fill="#ffffff" stroke="#000000" points="1049,-280.5 1049,-299.5 1142,-299.5 1142,-280.5 1049,-280.5"/>
<text text-anchor="middle" x="1095.5" y="-287.5" font-family="Helvetica,sans-Serif" font-size="10.00" fill="#000000">ABLFillInflow.cpp</text>
</a>
</g>
</g>
<!-- Node47&#45;&gt;Node49 -->
<g id="edge63" class="edge">
<title>Node47&#45;&gt;Node49</title>
<path fill="none" stroke="#191970" d="M1001.198,-332.2473C1023.8993,-322.0771 1054.2315,-308.4883 1074.2921,-299.5011"/>
<polygon fill="#191970" stroke="#191970" points="999.6833,-329.0906 991.9883,-336.3733 1002.5453,-335.4789 999.6833,-329.0906"/>
</g>
</g>
</svg>
        <g id="navigator" transform="translate(0 0)" fill="#404254">
                <rect fill="#f2f5e9" fill-opacity="0.5" stroke="#606060" stroke-width=".5" x="0" y="0" width="60" height="60"/>
                <use id="zoomplus" xlink:href="#zoomPlus" x="17" y="9" onmousedown="handleZoom(evt,'in')"/>
                <use id="zoomminus" xlink:href="#zoomMin" x="42" y="9" onmousedown="handleZoom(evt,'out')"/>
                <use id="reset" xlink:href="#resetDef" x="30" y="36" onmousedown="handleReset()"/>
                <g id="arrowUp" xlink:href="#dirArrow" transform="translate(30 24)" onmousedown="handlePan(0,-1)">
                  <use xlink:href="#rim" fill="#404040">
                        <set attributeName="fill" to="#808080" begin="arrowUp.mouseover" end="arrowUp.mouseout"/>
                  </use>
                  <path fill="none" stroke="white" stroke-width="1.5" d="M0,-3.0v7 M-2.5,-0.5L0,-3.0L2.5,-0.5"/>
                </g>
                <g id="arrowRight" xlink:href="#dirArrow" transform="rotate(90) translate(36 -43)" onmousedown="handlePan(1,0)">
                  <use xlink:href="#rim" fill="#404040">
                        <set attributeName="fill" to="#808080" begin="arrowRight.mouseover" end="arrowRight.mouseout"/>
                  </use>
                  <path fill="none" stroke="white" stroke-width="1.5" d="M0,-3.0v7 M-2.5,-0.5L0,-3.0L2.5,-0.5"/>
                </g>
                <g id="arrowDown" xlink:href="#dirArrow" transform="rotate(180) translate(-30 -48)" onmousedown="handlePan(0,1)">
                  <use xlink:href="#rim" fill="#404040">
                        <set attributeName="fill" to="#808080" begin="arrowDown.mouseover" end="arrowDown.mouseout"/>
                  </use>
                  <path fill="none" stroke="white" stroke-width="1.5" d="M0,-3.0v7 M-2.5,-0.5L0,-3.0L2.5,-0.5"/>
                </g>
                <g id="arrowLeft" xlink:href="#dirArrow" transform="rotate(270) translate(-36 17)" onmousedown="handlePan(-1,0)">
                  <use xlink:href="#rim" fill="#404040">
                        <set attributeName="fill" to="#808080" begin="arrowLeft.mouseover" end="arrowLeft.mouseout"/>
                  </use>
                  <path fill="none" stroke="white" stroke-width="1.5" d="M0,-3.0v7 M-2.5,-0.5L0,-3.0L2.5,-0.5"/>
                </g>
        </g>
        <svg viewBox="0 0 15 15" width="100%" height="30px" preserveAspectRatio="xMaxYMin meet">
         <g id="arrow_out" transform="scale(0.3 0.3)">
          <a xlink:href="_field_fill_patch_ops_8_h__dep__incl_org.svg" target="_base">
           <rect id="button" ry="5" rx="5" y="6" x="6" height="38" width="38"
                fill="#f2f5e9" fill-opacity="0.5" stroke="#606060" stroke-width="1.0"/>
           <path id="arrow"
             d="M 11.500037,31.436501 C 11.940474,20.09759 22.043105,11.32322 32.158766,21.979434 L 37.068811,17.246167 C 37.068811,17.246167 37.088388,32 37.088388,32 L 22.160133,31.978069 C 22.160133,31.978069 26.997745,27.140456 26.997745,27.140456 C 18.528582,18.264221 13.291696,25.230495 11.500037,31.436501 z"
             style="fill:#404040;"/>
          </a>
         </g>
        </svg>
</svg>
