<?xml version="1.0" encoding="UTF-8" standalone="no"?>
<!DOCTYPE svg PUBLIC "-//W3C//DTD SVG 1.1//EN"
 "http://www.w3.org/Graphics/SVG/1.1/DTD/svg11.dtd">
<!-- Generated by graphviz version 2.40.1 (20161225.0304)
 -->
<!-- Title: FieldPlaneAveraging.H Pages: 1 -->
<!--zoomable 263 -->
<svg id="main" version="1.1" xmlns="http://www.w3.org/2000/svg" xmlns:xlink="http://www.w3.org/1999/xlink" xml:space="preserve" onload="init(evt)">
<style type="text/css"><![CDATA[
.edge:hover path { stroke: red; }
.edge:hover polygon { stroke: red; fill: red; }
]]></style>
<script type="text/javascript"><![CDATA[
var edges = document.getElementsByTagName('g');
if (edges && edges.length) {
  for (var i=0;i<edges.length;i++) {
    if (edges[i].id.substr(0,4)=='edge') {
      edges[i].setAttribute('class','edge');
    }
  }
}
]]></script>
        <defs>
                <circle id="rim" cx="0" cy="0" r="7"/>
                <circle id="rim2" cx="0" cy="0" r="3.5"/>
                <g id="zoomPlus">
                        <use xlink:href="#rim" fill="#404040">
                                <set attributeName="fill" to="#808080" begin="zoomplus.mouseover" end="zoomplus.mouseout"/>
                        </use>
                        <path d="M-4,0h8M0,-4v8" fill="none" stroke="white" stroke-width="1.5" pointer-events="none"/>
                </g>
                <g id="zoomMin">
                        <use xlink:href="#rim" fill="#404040">
                                <set attributeName="fill" to="#808080" begin="zoomminus.mouseover" end="zoomminus.mouseout"/>
                        </use>
                        <path d="M-4,0h8" fill="none" stroke="white" stroke-width="1.5" pointer-events="none"/>
                </g>
                <g id="dirArrow">
                        <path fill="none" stroke="white" stroke-width="1.5" d="M0,-3.0v7 M-2.5,-0.5L0,-3.0L2.5,-0.5"/>
                </g>
               <g id="resetDef">
                       <use xlink:href="#rim2" fill="#404040">
                               <set attributeName="fill" to="#808080" begin="reset.mouseover" end="reset.mouseout"/>
                       </use>
               </g>
        </defs>

<script type="text/javascript">
var viewWidth = 1054;
var viewHeight = 263;
var sectionId = 'dynsection-1';
</script>
<script xlink:href="svgpan.js"/>
<svg id="graph" class="graph">
<g id="viewport">
<title>FieldPlaneAveraging.H</title>
<polygon fill="#ffffff" stroke="transparent" points="-4,4 -4,-259 1050,-259 1050,4 -4,4"/>
<!-- Node35 -->
<g id="node1" class="node">
<title>Node35</title>
<polygon fill="#bfbfbf" stroke="#000000" points="446.5,-235.5 446.5,-254.5 562.5,-254.5 562.5,-235.5 446.5,-235.5"/>
<text text-anchor="middle" x="504.5" y="-242.5" font-family="Helvetica,sans-Serif" font-size="10.00" fill="#000000">FieldPlaneAveraging.H</text>
</g>
<!-- Node36 -->
<g id="node2" class="node">
<title>Node36</title>
<g id="a_node2"><a xlink:href="_a_b_l_wall_function_8_h.html" target="_top" xlink:title="ABLWallFunction.H">
<polygon fill="#ffffff" stroke="#000000" points="281,-179.5 281,-198.5 384,-198.5 384,-179.5 281,-179.5"/>
<text text-anchor="middle" x="332.5" y="-186.5" font-family="Helvetica,sans-Serif" font-size="10.00" fill="#000000">ABLWallFunction.H</text>
</a>
</g>
</g>
<!-- Node35&#45;&gt;Node36 -->
<g id="edge1" class="edge">
<title>Node35&#45;&gt;Node36</title>
<path fill="none" stroke="#191970" d="M465.1565,-232.1905C433.6449,-221.9309 390.1481,-207.7691 361.682,-198.5011"/>
<polygon fill="#191970" stroke="#191970" points="464.3399,-235.6054 474.9321,-235.3733 466.507,-228.9493 464.3399,-235.6054"/>
</g>
<!-- Node37 -->
<g id="node3" class="node">
<title>Node37</title>
<g id="a_node3"><a xlink:href="_a_b_l_8_h.html" target="_top" xlink:title="ABL.H">
<polygon fill="#ffffff" stroke="#000000" points="309.5,-67.5 309.5,-86.5 355.5,-86.5 355.5,-67.5 309.5,-67.5"/>
<text text-anchor="middle" x="332.5" y="-74.5" font-family="Helvetica,sans-Serif" font-size="10.00" fill="#000000">ABL.H</text>
</a>
</g>
</g>
<!-- Node35&#45;&gt;Node37 -->
<g id="edge15" class="edge">
<title>Node35&#45;&gt;Node37</title>
<path fill="none" stroke="#191970" d="M436.1114,-237.7618C388.961,-231.2616 325.4874,-219.4829 272.5,-199 227.497,-181.6036 203.2387,-185.0045 179.5,-143 151.1048,-92.7562 259.8837,-80.74 309.2824,-77.8834"/>
<polygon fill="#191970" stroke="#191970" points="435.8413,-241.2566 446.2162,-239.1087 436.7663,-234.318 435.8413,-241.2566"/>
</g>
<!-- Node43 -->
<g id="node9" class="node">
<title>Node43</title>
<g id="a_node9"><a xlink:href="_a_b_l_8cpp.html" target="_top" xlink:title="ABL.cpp">
<polygon fill="#ffffff" stroke="#000000" points="641.5,-6 641.5,-25 695.5,-25 695.5,-6 641.5,-6"/>
<text text-anchor="middle" x="668.5" y="-13" font-family="Helvetica,sans-Serif" font-size="10.00" fill="#000000">ABL.cpp</text>
</a>
</g>
</g>
<!-- Node35&#45;&gt;Node43 -->
<g id="edge29" class="edge">
<title>Node35&#45;&gt;Node43</title>
<path fill="none" stroke="#191970" d="M572.665,-240.9435C629.9029,-235.8428 713.0638,-224.4223 781.5,-199 826.3721,-182.3312 850.0482,-184.7297 873.5,-143 915.3892,-68.4631 760.3405,-31.7556 695.6236,-19.9186"/>
<polygon fill="#191970" stroke="#191970" points="572.3117,-237.4608 562.6442,-241.7956 572.9049,-244.4357 572.3117,-237.4608"/>
</g>
<!-- Node45 -->
<g id="node11" class="node">
<title>Node45</title>
<g id="a_node11"><a xlink:href="_a_b_l_stats_8_h.html" target="_top" xlink:title="ABLStats.H">
<polygon fill="#ffffff" stroke="#000000" points="361,-123.5 361,-142.5 430,-142.5 430,-123.5 361,-123.5"/>
<text text-anchor="middle" x="395.5" y="-130.5" font-family="Helvetica,sans-Serif" font-size="10.00" fill="#000000">ABLStats.H</text>
</a>
</g>
</g>
<!-- Node35&#45;&gt;Node45 -->
<g id="edge16" class="edge">
<title>Node35&#45;&gt;Node45</title>
<path fill="none" stroke="#191970" d="M481.3743,-229.5823C469.6859,-221.2348 455.6548,-210.3285 444.5,-199 426.6771,-180.8996 409.9496,-156.0617 401.4109,-142.6065"/>
<polygon fill="#191970" stroke="#191970" points="479.5637,-232.5865 489.7694,-235.4316 483.5654,-226.8431 479.5637,-232.5865"/>
</g>
<!-- Node48 -->
<g id="node14" class="node">
<title>Node48</title>
<g id="a_node14"><a xlink:href="_second_moment_averaging_8_h.html" target="_top" xlink:title="SecondMomentAveraging.H">
<polygon fill="#ffffff" stroke="#000000" points="633,-179.5 633,-198.5 772,-198.5 772,-179.5 633,-179.5"/>
<text text-anchor="middle" x="702.5" y="-186.5" font-family="Helvetica,sans-Serif" font-size="10.00" fill="#000000">SecondMomentAveraging.H</text>
</a>
</g>
</g>
<!-- Node35&#45;&gt;Node48 -->
<g id="edge17" class="edge">
<title>Node35&#45;&gt;Node48</title>
<path fill="none" stroke="#191970" d="M548.3845,-232.5882C584.7623,-222.2996 635.7121,-207.8895 668.9067,-198.5011"/>
<polygon fill="#191970" stroke="#191970" points="547.2074,-229.2838 538.5374,-235.3733 549.1125,-236.0195 547.2074,-229.2838"/>
</g>
<!-- Node50 -->
<g id="node16" class="node">
<title>Node50</title>
<g id="a_node16"><a xlink:href="_third_moment_averaging_8_h.html" target="_top" xlink:title="ThirdMomentAveraging.H">
<polygon fill="#ffffff" stroke="#000000" points="486.5,-179.5 486.5,-198.5 614.5,-198.5 614.5,-179.5 486.5,-179.5"/>
<text text-anchor="middle" x="550.5" y="-186.5" font-family="Helvetica,sans-Serif" font-size="10.00" fill="#000000">ThirdMomentAveraging.H</text>
</a>
</g>
</g>
<!-- Node35&#45;&gt;Node50 -->
<g id="edge21" class="edge">
<title>Node35&#45;&gt;Node50</title>
<path fill="none" stroke="#191970" d="M518.8747,-227.5004C526.6971,-217.9775 536.076,-206.5596 542.5792,-198.6427"/>
<polygon fill="#191970" stroke="#191970" points="516.1555,-225.2967 512.5126,-235.2455 521.5646,-229.7399 516.1555,-225.2967"/>
</g>
<!-- Node52 -->
<g id="node18" class="node">
<title>Node52</title>
<g id="a_node18"><a xlink:href="_a_b_l_mean_boussinesq_8_h.html" target="_top" xlink:title="ABLMeanBoussinesq.H">
<polygon fill="#ffffff" stroke="#000000" points="498,-67.5 498,-86.5 619,-86.5 619,-67.5 498,-67.5"/>
<text text-anchor="middle" x="558.5" y="-74.5" font-family="Helvetica,sans-Serif" font-size="10.00" fill="#000000">ABLMeanBoussinesq.H</text>
</a>
</g>
</g>
<!-- Node35&#45;&gt;Node52 -->
<g id="edge25" class="edge">
<title>Node35&#45;&gt;Node52</title>
<path fill="none" stroke="#191970" d="M491.0484,-227.1861C485.7175,-219.0444 480.2176,-208.9985 477.5,-199 468.6407,-166.4047 460.5071,-152.1921 477.5,-123 487.9138,-105.1101 508.1638,-93.6101 525.8103,-86.5826"/>
<polygon fill="#191970" stroke="#191970" points="488.239,-229.2761 496.8381,-235.4654 493.9755,-225.2646 488.239,-229.2761"/>
</g>
<!-- Node53 -->
<g id="node19" class="node">
<title>Node53</title>
<g id="a_node19"><a xlink:href="_field_plane_averaging_8cpp.html" target="_top" xlink:title="FieldPlaneAveraging.cpp">
<polygon fill="#ffffff" stroke="#000000" points="921,-179.5 921,-198.5 1046,-198.5 1046,-179.5 921,-179.5"/>
<text text-anchor="middle" x="983.5" y="-186.5" font-family="Helvetica,sans-Serif" font-size="10.00" fill="#000000">FieldPlaneAveraging.cpp</text>
</a>
</g>
</g>
<!-- Node35&#45;&gt;Node53 -->
<g id="edge28" class="edge">
<title>Node35&#45;&gt;Node53</title>
<path fill="none" stroke="#191970" d="M572.7329,-237.5123C652.7354,-228.6588 789.3122,-213.3135 906.5,-199 911.1833,-198.428 916.0253,-197.8254 920.8951,-197.2114"/>
<polygon fill="#191970" stroke="#191970" points="572.339,-234.0344 562.7842,-238.612 573.1082,-240.992 572.339,-234.0344"/>
</g>
<!-- Node36&#45;&gt;Node37 -->
<g id="edge2" class="edge">
<title>Node36&#45;&gt;Node37</title>
<path fill="none" stroke="#191970" d="M332.5,-169.2702C332.5,-144.9985 332.5,-104.7725 332.5,-86.5249"/>
<polygon fill="#191970" stroke="#191970" points="329.0001,-169.4509 332.5,-179.4509 336.0001,-169.451 329.0001,-169.4509"/>
</g>
<!-- Node44 -->
<g id="node10" class="node">
<title>Node44</title>
<g id="a_node10"><a xlink:href="_a_b_l_wall_function_8cpp.html" target="_top" xlink:title="ABLWallFunction.cpp">
<polygon fill="#ffffff" stroke="#000000" points="0,-6 0,-25 111,-25 111,-6 0,-6"/>
<text text-anchor="middle" x="55.5" y="-13" font-family="Helvetica,sans-Serif" font-size="10.00" fill="#000000">ABLWallFunction.cpp</text>
</a>
</g>
</g>
<!-- Node36&#45;&gt;Node44 -->
<g id="edge14" class="edge">
<title>Node36&#45;&gt;Node44</title>
<path fill="none" stroke="#191970" d="M270.8339,-177.9722C241.6893,-170.9334 207.2829,-159.8693 179.5,-143 125.6578,-110.3079 78.8854,-48.7551 62.1056,-25.0981"/>
<polygon fill="#191970" stroke="#191970" points="270.3728,-181.4577 280.9038,-180.2969 271.9474,-174.6371 270.3728,-181.4577"/>
</g>
<!-- Node36&#45;&gt;Node45 -->
<g id="edge10" class="edge">
<title>Node36&#45;&gt;Node45</title>
<path fill="none" stroke="#191970" d="M351.2192,-172.3607C362.1182,-162.6727 375.4755,-150.7995 384.652,-142.6427"/>
<polygon fill="#191970" stroke="#191970" points="348.6226,-169.9859 343.4738,-179.2455 353.2732,-175.2178 348.6226,-169.9859"/>
</g>
<!-- Node47 -->
<g id="node13" class="node">
<title>Node47</title>
<g id="a_node13"><a xlink:href="_boussinesq_bubble_8cpp.html" target="_top" xlink:title="BoussinesqBubble.cpp">
<polygon fill="#ffffff" stroke="#000000" points="188.5,-123.5 188.5,-142.5 304.5,-142.5 304.5,-123.5 188.5,-123.5"/>
<text text-anchor="middle" x="246.5" y="-130.5" font-family="Helvetica,sans-Serif" font-size="10.00" fill="#000000">BoussinesqBubble.cpp</text>
</a>
</g>
</g>
<!-- Node36&#45;&gt;Node47 -->
<g id="edge13" class="edge">
<title>Node36&#45;&gt;Node47</title>
<path fill="none" stroke="#191970" d="M309.1095,-173.769C293.8701,-163.8456 274.4491,-151.1994 261.3084,-142.6427"/>
<polygon fill="#191970" stroke="#191970" points="307.2301,-176.7218 317.5199,-179.2455 311.0498,-170.8558 307.2301,-176.7218"/>
</g>
<!-- Node38 -->
<g id="node4" class="node">
<title>Node38</title>
<g id="a_node4"><a xlink:href="incflo__set__velocity__bcs_8cpp.html" target="_top" xlink:title="incflo_set_velocity\l_bcs.cpp">
<polygon fill="#ffffff" stroke="#000000" points="377.5,-.5 377.5,-30.5 475.5,-30.5 475.5,-.5 377.5,-.5"/>
<text text-anchor="start" x="385.5" y="-18.5" font-family="Helvetica,sans-Serif" font-size="10.00" fill="#000000">incflo_set_velocity</text>
<text text-anchor="middle" x="426.5" y="-7.5" font-family="Helvetica,sans-Serif" font-size="10.00" fill="#000000">_bcs.cpp</text>
</a>
</g>
</g>
<!-- Node37&#45;&gt;Node38 -->
<g id="edge3" class="edge">
<title>Node37&#45;&gt;Node38</title>
<path fill="none" stroke="#191970" d="M355.6493,-61.8545C370.2234,-52.3193 388.9604,-40.0605 403.505,-30.5446"/>
<polygon fill="#191970" stroke="#191970" points="353.6394,-58.9868 347.1875,-67.3906 357.4719,-64.8445 353.6394,-58.9868"/>
</g>
<!-- Node39 -->
<g id="node5" class="node">
<title>Node39</title>
<g id="a_node5"><a xlink:href="_a_b_l_forcing_8cpp.html" target="_top" xlink:title="ABLForcing.cpp">
<polygon fill="#ffffff" stroke="#000000" points="129.5,-6 129.5,-25 215.5,-25 215.5,-6 129.5,-6"/>
<text text-anchor="middle" x="172.5" y="-13" font-family="Helvetica,sans-Serif" font-size="10.00" fill="#000000">ABLForcing.cpp</text>
</a>
</g>
</g>
<!-- Node37&#45;&gt;Node39 -->
<g id="edge4" class="edge">
<title>Node37&#45;&gt;Node39</title>
<path fill="none" stroke="#191970" d="M299.5247,-64.3251C269.1795,-52.6612 224.8396,-35.618 197.3738,-25.0609"/>
<polygon fill="#191970" stroke="#191970" points="298.6446,-67.7364 309.2346,-68.0574 301.1562,-61.2025 298.6446,-67.7364"/>
</g>
<!-- Node40 -->
<g id="node6" class="node">
<title>Node40</title>
<g id="a_node6"><a xlink:href="_a_b_l_mean_boussinesq_8cpp.html" target="_top" xlink:title="ABLMeanBoussinesq.cpp">
<polygon fill="#ffffff" stroke="#000000" points="494,-6 494,-25 623,-25 623,-6 494,-6"/>
<text text-anchor="middle" x="558.5" y="-13" font-family="Helvetica,sans-Serif" font-size="10.00" fill="#000000">ABLMeanBoussinesq.cpp</text>
</a>
</g>
</g>
<!-- Node37&#45;&gt;Node40 -->
<g id="edge5" class="edge">
<title>Node37&#45;&gt;Node40</title>
<path fill="none" stroke="#191970" d="M365.1972,-67.0863C365.2983,-67.0575 365.3992,-67.0287 365.5,-67 419.5313,-51.6093 482.4664,-35.0742 521.3995,-25.0063"/>
<polygon fill="#191970" stroke="#191970" points="364.1654,-63.7414 355.55,-69.9078 366.1304,-70.46 364.1654,-63.7414"/>
</g>
<!-- Node41 -->
<g id="node7" class="node">
<title>Node41</title>
<g id="a_node7"><a xlink:href="incflo_8cpp.html" target="_top" xlink:title="incflo.cpp">
<polygon fill="#ffffff" stroke="#000000" points="234,-6 234,-25 293,-25 293,-6 234,-6"/>
<text text-anchor="middle" x="263.5" y="-13" font-family="Helvetica,sans-Serif" font-size="10.00" fill="#000000">incflo.cpp</text>
</a>
</g>
</g>
<!-- Node37&#45;&gt;Node41 -->
<g id="edge6" class="edge">
<title>Node37&#45;&gt;Node41</title>
<path fill="none" stroke="#191970" d="M314.0419,-60.5482C301.3992,-49.2798 285.0594,-34.716 274.4333,-25.2449"/>
<polygon fill="#191970" stroke="#191970" points="311.9248,-63.3497 321.7188,-67.3906 316.5824,-58.1241 311.9248,-63.3497"/>
</g>
<!-- Node42 -->
<g id="node8" class="node">
<title>Node42</title>
<g id="a_node8"><a xlink:href="init_8cpp.html" target="_top" xlink:title="init.cpp">
<polygon fill="#ffffff" stroke="#000000" points="311.5,-6 311.5,-25 359.5,-25 359.5,-6 311.5,-6"/>
<text text-anchor="middle" x="335.5" y="-13" font-family="Helvetica,sans-Serif" font-size="10.00" fill="#000000">init.cpp</text>
</a>
</g>
</g>
<!-- Node37&#45;&gt;Node42 -->
<g id="edge7" class="edge">
<title>Node37&#45;&gt;Node42</title>
<path fill="none" stroke="#191970" d="M333.4636,-57.2462C333.9853,-46.5519 334.6066,-33.814 335.0246,-25.2449"/>
<polygon fill="#191970" stroke="#191970" points="329.9602,-57.2319 332.9688,-67.3906 336.9519,-57.5731 329.9602,-57.2319"/>
</g>
<!-- Node37&#45;&gt;Node43 -->
<g id="edge8" class="edge">
<title>Node37&#45;&gt;Node43</title>
<path fill="none" stroke="#191970" d="M365.6468,-67.3262C484.3867,-42.6479 520.1496,-62.1296 632.5,-31 638.0084,-29.4738 643.7779,-27.2803 649.0441,-25.0218"/>
<polygon fill="#191970" stroke="#191970" points="364.8604,-63.9152 355.8142,-69.4302 366.3252,-70.7602 364.8604,-63.9152"/>
</g>
<!-- Node37&#45;&gt;Node44 -->
<g id="edge9" class="edge">
<title>Node37&#45;&gt;Node44</title>
<path fill="none" stroke="#191970" d="M299.3534,-70.0267C257.5898,-61.1902 183.6362,-45.3759 120.5,-31 112.2425,-29.1198 103.409,-27.0515 94.9993,-25.0553"/>
<polygon fill="#191970" stroke="#191970" points="298.7441,-73.4751 309.2516,-72.1178 300.191,-66.6263 298.7441,-73.4751"/>
</g>
<!-- Node45&#45;&gt;Node37 -->
<g id="edge11" class="edge">
<title>Node45&#45;&gt;Node37</title>
<path fill="none" stroke="#191970" d="M376.7808,-116.3607C365.8818,-106.6727 352.5245,-94.7995 343.348,-86.6427"/>
<polygon fill="#191970" stroke="#191970" points="374.7268,-119.2178 384.5262,-123.2455 379.3774,-113.9859 374.7268,-119.2178"/>
</g>
<!-- Node46 -->
<g id="node12" class="node">
<title>Node46</title>
<g id="a_node12"><a xlink:href="_a_b_l_stats_8cpp.html" target="_top" xlink:title="ABLStats.cpp">
<polygon fill="#ffffff" stroke="#000000" points="374,-67.5 374,-86.5 451,-86.5 451,-67.5 374,-67.5"/>
<text text-anchor="middle" x="412.5" y="-74.5" font-family="Helvetica,sans-Serif" font-size="10.00" fill="#000000">ABLStats.cpp</text>
</a>
</g>
</g>
<!-- Node45&#45;&gt;Node46 -->
<g id="edge12" class="edge">
<title>Node45&#45;&gt;Node46</title>
<path fill="none" stroke="#191970" d="M401.4337,-113.4538C404.1881,-104.3803 407.3393,-93.9998 409.5728,-86.6427"/>
<polygon fill="#191970" stroke="#191970" points="398.017,-112.66 398.4612,-123.2455 404.7151,-114.6934 398.017,-112.66"/>
</g>
<!-- Node48&#45;&gt;Node43 -->
<g id="edge20" class="edge">
<title>Node48&#45;&gt;Node43</title>
<path fill="none" stroke="#191970" d="M698.6498,-169.3528C691.3701,-132.2047 675.8323,-52.9161 670.4125,-25.2595"/>
<polygon fill="#191970" stroke="#191970" points="695.2658,-170.2845 700.6236,-179.4248 702.1351,-168.9383 695.2658,-170.2845"/>
</g>
<!-- Node48&#45;&gt;Node45 -->
<g id="edge18" class="edge">
<title>Node48&#45;&gt;Node45</title>
<path fill="none" stroke="#191970" d="M640.1957,-177.6351C576.8351,-166.0774 480.9529,-148.5875 430.066,-139.3052"/>
<polygon fill="#191970" stroke="#191970" points="639.6079,-181.0855 650.0736,-179.4369 640.8641,-174.1991 639.6079,-181.0855"/>
</g>
<!-- Node49 -->
<g id="node15" class="node">
<title>Node49</title>
<g id="a_node15"><a xlink:href="_second_moment_averaging_8cpp.html" target="_top" xlink:title="SecondMomentAveraging.cpp">
<polygon fill="#ffffff" stroke="#000000" points="717,-123.5 717,-142.5 864,-142.5 864,-123.5 717,-123.5"/>
<text text-anchor="middle" x="790.5" y="-130.5" font-family="Helvetica,sans-Serif" font-size="10.00" fill="#000000">SecondMomentAveraging.cpp</text>
</a>
</g>
</g>
<!-- Node48&#45;&gt;Node49 -->
<g id="edge19" class="edge">
<title>Node48&#45;&gt;Node49</title>
<path fill="none" stroke="#191970" d="M726.4345,-173.769C742.0283,-163.8456 761.901,-151.1994 775.3472,-142.6427"/>
<polygon fill="#191970" stroke="#191970" points="724.386,-170.9239 717.8284,-179.2455 728.1441,-176.8296 724.386,-170.9239"/>
</g>
<!-- Node50&#45;&gt;Node43 -->
<g id="edge24" class="edge">
<title>Node50&#45;&gt;Node43</title>
<path fill="none" stroke="#191970" d="M587.9838,-175.163C603.4297,-167.7585 620.2958,-157.1895 631.5,-143 660.3527,-106.4597 666.7092,-48.2006 668.107,-25.2483"/>
<polygon fill="#191970" stroke="#191970" points="586.3035,-172.0808 578.6133,-179.3686 589.1697,-178.4671 586.3035,-172.0808"/>
</g>
<!-- Node50&#45;&gt;Node45 -->
<g id="edge22" class="edge">
<title>Node50&#45;&gt;Node45</title>
<path fill="none" stroke="#191970" d="M514.3051,-175.9231C485.9703,-165.686 447.2282,-151.6889 421.7978,-142.5011"/>
<polygon fill="#191970" stroke="#191970" points="513.2602,-179.267 523.8546,-179.3733 515.6388,-172.6835 513.2602,-179.267"/>
</g>
<!-- Node51 -->
<g id="node17" class="node">
<title>Node51</title>
<g id="a_node17"><a xlink:href="_third_moment_averaging_8cpp.html" target="_top" xlink:title="ThirdMomentAveraging.cpp">
<polygon fill="#ffffff" stroke="#000000" points="486.5,-123.5 486.5,-142.5 622.5,-142.5 622.5,-123.5 486.5,-123.5"/>
<text text-anchor="middle" x="554.5" y="-130.5" font-family="Helvetica,sans-Serif" font-size="10.00" fill="#000000">ThirdMomentAveraging.cpp</text>
</a>
</g>
</g>
<!-- Node50&#45;&gt;Node51 -->
<g id="edge23" class="edge">
<title>Node50&#45;&gt;Node51</title>
<path fill="none" stroke="#191970" d="M551.9173,-169.1575C552.5604,-160.155 553.2914,-149.9199 553.8112,-142.6427"/>
<polygon fill="#191970" stroke="#191970" points="548.4182,-169.0216 551.1967,-179.2455 555.4004,-169.5204 548.4182,-169.0216"/>
</g>
<!-- Node52&#45;&gt;Node40 -->
<g id="edge26" class="edge">
<title>Node52&#45;&gt;Node40</title>
<path fill="none" stroke="#191970" d="M558.5,-57.2462C558.5,-46.5519 558.5,-33.814 558.5,-25.2449"/>
<polygon fill="#191970" stroke="#191970" points="555.0001,-57.3906 558.5,-67.3906 562.0001,-57.3907 555.0001,-57.3906"/>
</g>
<!-- Node52&#45;&gt;Node43 -->
<g id="edge27" class="edge">
<title>Node52&#45;&gt;Node43</title>
<path fill="none" stroke="#191970" d="M584.587,-62.415C605.2642,-50.8546 633.5593,-35.035 651.4332,-25.0419"/>
<polygon fill="#191970" stroke="#191970" points="582.7079,-59.4556 575.6875,-67.3906 586.124,-65.5655 582.7079,-59.4556"/>
</g>
</g>
</svg>
        <g id="navigator" transform="translate(0 0)" fill="#404254">
                <rect fill="#f2f5e9" fill-opacity="0.5" stroke="#606060" stroke-width=".5" x="0" y="0" width="60" height="60"/>
                <use id="zoomplus" xlink:href="#zoomPlus" x="17" y="9" onmousedown="handleZoom(evt,'in')"/>
                <use id="zoomminus" xlink:href="#zoomMin" x="42" y="9" onmousedown="handleZoom(evt,'out')"/>
                <use id="reset" xlink:href="#resetDef" x="30" y="36" onmousedown="handleReset()"/>
                <g id="arrowUp" xlink:href="#dirArrow" transform="translate(30 24)" onmousedown="handlePan(0,-1)">
                  <use xlink:href="#rim" fill="#404040">
                        <set attributeName="fill" to="#808080" begin="arrowUp.mouseover" end="arrowUp.mouseout"/>
                  </use>
                  <path fill="none" stroke="white" stroke-width="1.5" d="M0,-3.0v7 M-2.5,-0.5L0,-3.0L2.5,-0.5"/>
                </g>
                <g id="arrowRight" xlink:href="#dirArrow" transform="rotate(90) translate(36 -43)" onmousedown="handlePan(1,0)">
                  <use xlink:href="#rim" fill="#404040">
                        <set attributeName="fill" to="#808080" begin="arrowRight.mouseover" end="arrowRight.mouseout"/>
                  </use>
                  <path fill="none" stroke="white" stroke-width="1.5" d="M0,-3.0v7 M-2.5,-0.5L0,-3.0L2.5,-0.5"/>
                </g>
                <g id="arrowDown" xlink:href="#dirArrow" transform="rotate(180) translate(-30 -48)" onmousedown="handlePan(0,1)">
                  <use xlink:href="#rim" fill="#404040">
                        <set attributeName="fill" to="#808080" begin="arrowDown.mouseover" end="arrowDown.mouseout"/>
                  </use>
                  <path fill="none" stroke="white" stroke-width="1.5" d="M0,-3.0v7 M-2.5,-0.5L0,-3.0L2.5,-0.5"/>
                </g>
                <g id="arrowLeft" xlink:href="#dirArrow" transform="rotate(270) translate(-36 17)" onmousedown="handlePan(-1,0)">
                  <use xlink:href="#rim" fill="#404040">
                        <set attributeName="fill" to="#808080" begin="arrowLeft.mouseover" end="arrowLeft.mouseout"/>
                  </use>
                  <path fill="none" stroke="white" stroke-width="1.5" d="M0,-3.0v7 M-2.5,-0.5L0,-3.0L2.5,-0.5"/>
                </g>
        </g>
        <svg viewBox="0 0 15 15" width="100%" height="30px" preserveAspectRatio="xMaxYMin meet">
         <g id="arrow_out" transform="scale(0.3 0.3)">
          <a xlink:href="_field_plane_averaging_8_h__dep__incl_org.svg" target="_base">
           <rect id="button" ry="5" rx="5" y="6" x="6" height="38" width="38"
                fill="#f2f5e9" fill-opacity="0.5" stroke="#606060" stroke-width="1.0"/>
           <path id="arrow"
             d="M 11.500037,31.436501 C 11.940474,20.09759 22.043105,11.32322 32.158766,21.979434 L 37.068811,17.246167 C 37.068811,17.246167 37.088388,32 37.088388,32 L 22.160133,31.978069 C 22.160133,31.978069 26.997745,27.140456 26.997745,27.140456 C 18.528582,18.264221 13.291696,25.230495 11.500037,31.436501 z"
             style="fill:#404040;"/>
          </a>
         </g>
        </svg>
</svg>
