<?xml version="1.0" encoding="UTF-8" standalone="no"?>
<!DOCTYPE svg PUBLIC "-//W3C//DTD SVG 1.1//EN"
 "http://www.w3.org/Graphics/SVG/1.1/DTD/svg11.dtd">
<!-- Generated by graphviz version 2.40.1 (20161225.0304)
 -->
<!-- Title: FieldUtils.H Pages: 1 -->
<svg width="428pt" height="84pt"
 viewBox="0.00 0.00 427.50 84.00" xmlns="http://www.w3.org/2000/svg" xmlns:xlink="http://www.w3.org/1999/xlink">
<g id="graph0" class="graph" transform="scale(1 1) rotate(0) translate(4 80)">
<title>FieldUtils.H</title>
<polygon fill="#ffffff" stroke="transparent" points="-4,4 -4,-80 423.5,-80 423.5,4 -4,4"/>
<!-- Node0 -->
<g id="node1" class="node">
<title>Node0</title>
<polygon fill="#bfbfbf" stroke="#000000" points="199.5,-56.5 199.5,-75.5 267.5,-75.5 267.5,-56.5 199.5,-56.5"/>
<text text-anchor="middle" x="233.5" y="-63.5" font-family="Helvetica,sans-Serif" font-size="10.00" fill="#000000">FieldUtils.H</text>
</g>
<!-- Node1 -->
<g id="node2" class="node">
<title>Node1</title>
<g id="a_node2"><a xlink:href="_field_desc_types_8_h.html" target="_top" xlink:title="amr&#45;wind/core/FieldDescTypes.H">
<polygon fill="#ffffff" stroke="#000000" points="0,-.5 0,-19.5 163,-19.5 163,-.5 0,-.5"/>
<text text-anchor="middle" x="81.5" y="-7.5" font-family="Helvetica,sans-Serif" font-size="10.00" fill="#000000">amr&#45;wind/core/FieldDescTypes.H</text>
</a>
</g>
</g>
<!-- Node0&#45;&gt;Node1 -->
<g id="edge1" class="edge">
<title>Node0&#45;&gt;Node1</title>
<path fill="none" stroke="#191970" d="M207.3703,-56.3733C182.4232,-47.1822 144.6408,-33.2624 116.9794,-23.0713"/>
<polygon fill="#191970" stroke="#191970" points="117.8822,-19.674 107.2888,-19.5011 115.4622,-26.2424 117.8822,-19.674"/>
</g>
<!-- Node2 -->
<g id="node3" class="node">
<title>Node2</title>
<polygon fill="#ffffff" stroke="#bfbfbf" points="181.5,-.5 181.5,-19.5 285.5,-19.5 285.5,-.5 181.5,-.5"/>
<text text-anchor="middle" x="233.5" y="-7.5" font-family="Helvetica,sans-Serif" font-size="10.00" fill="#000000">AMReX_MultiFab.H</text>
</g>
<!-- Node0&#45;&gt;Node2 -->
<g id="edge2" class="edge">
<title>Node0&#45;&gt;Node2</title>
<path fill="none" stroke="#191970" d="M233.5,-56.2455C233.5,-48.9382 233.5,-38.6944 233.5,-29.7046"/>
<polygon fill="#191970" stroke="#191970" points="237.0001,-29.6426 233.5,-19.6427 230.0001,-29.6427 237.0001,-29.6426"/>
</g>
<!-- Node3 -->
<g id="node4" class="node">
<title>Node3</title>
<polygon fill="#ffffff" stroke="#bfbfbf" points="303.5,-.5 303.5,-19.5 419.5,-19.5 419.5,-.5 303.5,-.5"/>
<text text-anchor="middle" x="361.5" y="-7.5" font-family="Helvetica,sans-Serif" font-size="10.00" fill="#000000">AMReX_Interpolater.H</text>
</g>
<!-- Node0&#45;&gt;Node3 -->
<g id="edge3" class="edge">
<title>Node0&#45;&gt;Node3</title>
<path fill="none" stroke="#191970" d="M255.504,-56.3733C276.1435,-47.3435 307.2158,-33.7494 330.3889,-23.6111"/>
<polygon fill="#191970" stroke="#191970" points="332.0245,-26.7159 339.7831,-19.5011 329.2187,-20.3028 332.0245,-26.7159"/>
</g>
</g>
</svg>
