<?xml version="1.0" encoding="UTF-8" standalone="no"?>
<!DOCTYPE svg PUBLIC "-//W3C//DTD SVG 1.1//EN"
 "http://www.w3.org/Graphics/SVG/1.1/DTD/svg11.dtd">
<!-- Generated by graphviz version 2.40.1 (20161225.0304)
 -->
<!-- Title: FieldBCOps.H Pages: 1 -->
<svg width="680pt" height="84pt"
 viewBox="0.00 0.00 679.50 84.00" xmlns="http://www.w3.org/2000/svg" xmlns:xlink="http://www.w3.org/1999/xlink">
<g id="graph0" class="graph" transform="scale(1 1) rotate(0) translate(4 80)">
<title>FieldBCOps.H</title>
<polygon fill="#ffffff" stroke="transparent" points="-4,4 -4,-80 675.5,-80 675.5,4 -4,4"/>
<!-- Node0 -->
<g id="node1" class="node">
<title>Node0</title>
<polygon fill="#bfbfbf" stroke="#000000" points="300.5,-56.5 300.5,-75.5 380.5,-75.5 380.5,-56.5 300.5,-56.5"/>
<text text-anchor="middle" x="340.5" y="-63.5" font-family="Helvetica,sans-Serif" font-size="10.00" fill="#000000">FieldBCOps.H</text>
</g>
<!-- Node1 -->
<g id="node2" class="node">
<title>Node1</title>
<g id="a_node2"><a xlink:href="_field_desc_types_8_h.html" target="_top" xlink:title="amr&#45;wind/core/FieldDescTypes.H">
<polygon fill="#ffffff" stroke="#000000" points="0,-.5 0,-19.5 163,-19.5 163,-.5 0,-.5"/>
<text text-anchor="middle" x="81.5" y="-7.5" font-family="Helvetica,sans-Serif" font-size="10.00" fill="#000000">amr&#45;wind/core/FieldDescTypes.H</text>
</a>
</g>
</g>
<!-- Node0&#45;&gt;Node1 -->
<g id="edge1" class="edge">
<title>Node0&#45;&gt;Node1</title>
<path fill="none" stroke="#191970" d="M300.3154,-57.3114C256.0502,-47.7406 184.6397,-32.3005 135.5067,-21.6771"/>
<polygon fill="#191970" stroke="#191970" points="136.199,-18.246 125.6852,-19.5536 134.7197,-25.0879 136.199,-18.246"/>
</g>
<!-- Node2 -->
<g id="node3" class="node">
<title>Node2</title>
<polygon fill="#ffffff" stroke="#bfbfbf" points="181,-.5 181,-19.5 266,-19.5 266,-.5 181,-.5"/>
<text text-anchor="middle" x="223.5" y="-7.5" font-family="Helvetica,sans-Serif" font-size="10.00" fill="#000000">AMReX_Gpu.H</text>
</g>
<!-- Node0&#45;&gt;Node2 -->
<g id="edge2" class="edge">
<title>Node0&#45;&gt;Node2</title>
<path fill="none" stroke="#191970" d="M320.387,-56.3733C301.6897,-47.4241 273.6256,-33.9917 252.5066,-23.8835"/>
<polygon fill="#191970" stroke="#191970" points="253.8817,-20.6614 243.3506,-19.5011 250.8595,-26.9755 253.8817,-20.6614"/>
</g>
<!-- Node3 -->
<g id="node4" class="node">
<title>Node3</title>
<polygon fill="#ffffff" stroke="#bfbfbf" points="284,-.5 284,-19.5 397,-19.5 397,-.5 284,-.5"/>
<text text-anchor="middle" x="340.5" y="-7.5" font-family="Helvetica,sans-Serif" font-size="10.00" fill="#000000">AMReX_FArrayBox.H</text>
</g>
<!-- Node0&#45;&gt;Node3 -->
<g id="edge3" class="edge">
<title>Node0&#45;&gt;Node3</title>
<path fill="none" stroke="#191970" d="M340.5,-56.2455C340.5,-48.9382 340.5,-38.6944 340.5,-29.7046"/>
<polygon fill="#191970" stroke="#191970" points="344.0001,-29.6426 340.5,-19.6427 337.0001,-29.6427 344.0001,-29.6426"/>
</g>
<!-- Node4 -->
<g id="node5" class="node">
<title>Node4</title>
<polygon fill="#ffffff" stroke="#bfbfbf" points="415.5,-.5 415.5,-19.5 525.5,-19.5 525.5,-.5 415.5,-.5"/>
<text text-anchor="middle" x="470.5" y="-7.5" font-family="Helvetica,sans-Serif" font-size="10.00" fill="#000000">AMReX_Geometry.H</text>
</g>
<!-- Node0&#45;&gt;Node4 -->
<g id="edge4" class="edge">
<title>Node0&#45;&gt;Node4</title>
<path fill="none" stroke="#191970" d="M362.8478,-56.3733C383.9033,-47.3032 415.6495,-33.6279 439.2175,-23.4755"/>
<polygon fill="#191970" stroke="#191970" points="440.6444,-26.6719 448.4438,-19.5011 437.875,-20.243 440.6444,-26.6719"/>
</g>
<!-- Node5 -->
<g id="node6" class="node">
<title>Node5</title>
<polygon fill="#ffffff" stroke="#bfbfbf" points="543.5,-.5 543.5,-19.5 671.5,-19.5 671.5,-.5 543.5,-.5"/>
<text text-anchor="middle" x="607.5" y="-7.5" font-family="Helvetica,sans-Serif" font-size="10.00" fill="#000000">AMReX_PhysBCFunct.H</text>
</g>
<!-- Node0&#45;&gt;Node5 -->
<g id="edge5" class="edge">
<title>Node0&#45;&gt;Node5</title>
<path fill="none" stroke="#191970" d="M380.7617,-57.5556C426.3782,-47.9881 501.0039,-32.3363 552.0949,-21.6205"/>
<polygon fill="#191970" stroke="#191970" points="552.9151,-25.0247 561.9837,-19.5465 551.4782,-18.1738 552.9151,-25.0247"/>
</g>
</g>
</svg>
