<?xml version="1.0" encoding="UTF-8" standalone="no"?>
<!DOCTYPE svg PUBLIC "-//W3C//DTD SVG 1.1//EN"
 "http://www.w3.org/Graphics/SVG/1.1/DTD/svg11.dtd">
<!-- Generated by graphviz version 2.40.1 (20161225.0304)
 -->
<!-- Title: FieldRepo.H Pages: 1 -->
<svg width="3988pt" height="252pt"
 viewBox="0.00 0.00 3988.00 252.00" xmlns="http://www.w3.org/2000/svg" xmlns:xlink="http://www.w3.org/1999/xlink">
<g id="graph0" class="graph" transform="scale(1 1) rotate(0) translate(4 248)">
<title>FieldRepo.H</title>
<polygon fill="#ffffff" stroke="transparent" points="-4,4 -4,-248 3984,-248 3984,4 -4,4"/>
<!-- Node18 -->
<g id="node1" class="node">
<title>Node18</title>
<polygon fill="#bfbfbf" stroke="#000000" points="2188.5,-224.5 2188.5,-243.5 2259.5,-243.5 2259.5,-224.5 2188.5,-224.5"/>
<text text-anchor="middle" x="2224" y="-231.5" font-family="Helvetica,sans-Serif" font-size="10.00" fill="#000000">FieldRepo.H</text>
</g>
<!-- Node19 -->
<g id="node2" class="node">
<title>Node19</title>
<g id="a_node2"><a xlink:href="_b_c_interface_8cpp.html" target="_top" xlink:title="BCInterface.cpp">
<polygon fill="#ffffff" stroke="#000000" points="0,-112.5 0,-131.5 88,-131.5 88,-112.5 0,-112.5"/>
<text text-anchor="middle" x="44" y="-119.5" font-family="Helvetica,sans-Serif" font-size="10.00" fill="#000000">BCInterface.cpp</text>
</a>
</g>
</g>
<!-- Node18&#45;&gt;Node19 -->
<g id="edge1" class="edge">
<title>Node18&#45;&gt;Node19</title>
<path fill="none" stroke="#191970" d="M2178.257,-233.5217C1873.6723,-230.2745 149.6464,-210.9048 101,-188 75.7963,-176.133 57.3766,-147.2291 49.0092,-131.9094"/>
<polygon fill="#191970" stroke="#191970" points="2178.4515,-237.0238 2188.4881,-233.6303 2178.5259,-230.0242 2178.4515,-237.0238"/>
</g>
<!-- Node20 -->
<g id="node3" class="node">
<title>Node20</title>
<g id="a_node3"><a xlink:href="_fixed_gradient_b_c_8_h.html" target="_top" xlink:title="FixedGradientBC.H">
<polygon fill="#ffffff" stroke="#000000" points="110,-168.5 110,-187.5 212,-187.5 212,-168.5 110,-168.5"/>
<text text-anchor="middle" x="161" y="-175.5" font-family="Helvetica,sans-Serif" font-size="10.00" fill="#000000">FixedGradientBC.H</text>
</a>
</g>
</g>
<!-- Node18&#45;&gt;Node20 -->
<g id="edge2" class="edge">
<title>Node18&#45;&gt;Node20</title>
<path fill="none" stroke="#191970" d="M2178.1739,-233.363C1921.1562,-229.7237 656.4204,-210.917 267,-188 249.101,-186.9467 229.5477,-185.2559 212.1635,-183.5619"/>
<polygon fill="#191970" stroke="#191970" points="2178.2274,-236.864 2188.2759,-233.5056 2178.3263,-229.8647 2178.2274,-236.864"/>
</g>
<!-- Node22 -->
<g id="node5" class="node">
<title>Node22</title>
<g id="a_node5"><a xlink:href="_c_f_d_sim_8_h.html" target="_top" xlink:title="CFDSim.H">
<polygon fill="#ffffff" stroke="#ff0000" points="925.5,-168.5 925.5,-187.5 990.5,-187.5 990.5,-168.5 925.5,-168.5"/>
<text text-anchor="middle" x="958" y="-175.5" font-family="Helvetica,sans-Serif" font-size="10.00" fill="#000000">CFDSim.H</text>
</a>
</g>
</g>
<!-- Node18&#45;&gt;Node22 -->
<g id="edge5" class="edge">
<title>Node18&#45;&gt;Node22</title>
<path fill="none" stroke="#191970" d="M2178.214,-231.9747C1975.8247,-223.0223 1163.8726,-187.1065 990.6242,-179.4431"/>
<polygon fill="#191970" stroke="#191970" points="2178.3403,-235.4836 2188.4852,-232.429 2178.6497,-228.4905 2178.3403,-235.4836"/>
</g>
<!-- Node23 -->
<g id="node6" class="node">
<title>Node23</title>
<g id="a_node6"><a xlink:href="incflo_8_h.html" target="_top" xlink:title="incflo.H">
<polygon fill="#ffffff" stroke="#ff0000" points="234,-112.5 234,-131.5 284,-131.5 284,-112.5 234,-112.5"/>
<text text-anchor="middle" x="259" y="-119.5" font-family="Helvetica,sans-Serif" font-size="10.00" fill="#000000">incflo.H</text>
</a>
</g>
</g>
<!-- Node18&#45;&gt;Node23 -->
<g id="edge30" class="edge">
<title>Node18&#45;&gt;Node23</title>
<path fill="none" stroke="#191970" d="M2178.1464,-233.5782C1900.151,-230.9319 449.4026,-215.826 360,-188 322.7995,-176.4216 286.3388,-146.8271 269.1807,-131.5083"/>
<polygon fill="#191970" stroke="#191970" points="2178.2504,-237.0792 2188.2831,-233.6741 2178.3167,-230.0795 2178.2504,-237.0792"/>
</g>
<!-- Node85 -->
<g id="node19" class="node">
<title>Node85</title>
<g id="a_node19"><a xlink:href="_p_d_e_base_8cpp.html" target="_top" xlink:title="PDEBase.cpp">
<polygon fill="#ffffff" stroke="#000000" points="302.5,-112.5 302.5,-131.5 381.5,-131.5 381.5,-112.5 302.5,-112.5"/>
<text text-anchor="middle" x="342" y="-119.5" font-family="Helvetica,sans-Serif" font-size="10.00" fill="#000000">PDEBase.cpp</text>
</a>
</g>
</g>
<!-- Node18&#45;&gt;Node85 -->
<g id="edge61" class="edge">
<title>Node18&#45;&gt;Node85</title>
<path fill="none" stroke="#191970" d="M2178.2776,-233.4547C1898.0303,-230.0399 423.171,-210.9979 383,-188 361.4599,-175.6683 349.7031,-146.9677 344.7937,-131.7991"/>
<polygon fill="#191970" stroke="#191970" points="2178.4484,-236.9569 2188.4901,-233.5787 2178.5334,-229.9575 2178.4484,-236.9569"/>
</g>
<!-- Node90 -->
<g id="node24" class="node">
<title>Node90</title>
<g id="a_node24"><a xlink:href="_tioga_interface_8cpp.html" target="_top" xlink:title="TiogaInterface.cpp">
<polygon fill="#ffffff" stroke="#000000" points="1536,-112.5 1536,-131.5 1634,-131.5 1634,-112.5 1536,-112.5"/>
<text text-anchor="middle" x="1585" y="-119.5" font-family="Helvetica,sans-Serif" font-size="10.00" fill="#000000">TiogaInterface.cpp</text>
</a>
</g>
</g>
<!-- Node18&#45;&gt;Node90 -->
<g id="edge66" class="edge">
<title>Node18&#45;&gt;Node90</title>
<path fill="none" stroke="#191970" d="M2178.3305,-231.8586C2053.0419,-225.7592 1710.1039,-207.4744 1663,-188 1632.8366,-175.5294 1605.7382,-146.8896 1592.8813,-131.7661"/>
<polygon fill="#191970" stroke="#191970" points="2178.2122,-235.3569 2188.3696,-232.3439 2178.5502,-228.365 2178.2122,-235.3569"/>
</g>
<!-- Node110 -->
<g id="node25" class="node">
<title>Node110</title>
<g id="a_node25"><a xlink:href="_godunov_8_h.html" target="_top" xlink:title="Godunov.H">
<polygon fill="#ffffff" stroke="#ff0000" points="1891,-168.5 1891,-187.5 1957,-187.5 1957,-168.5 1891,-168.5"/>
<text text-anchor="middle" x="1924" y="-175.5" font-family="Helvetica,sans-Serif" font-size="10.00" fill="#000000">Godunov.H</text>
</a>
</g>
</g>
<!-- Node18&#45;&gt;Node110 -->
<g id="edge31" class="edge">
<title>Node18&#45;&gt;Node110</title>
<path fill="none" stroke="#191970" d="M2177.9886,-226.4974C2126.4583,-217.9247 2040.5197,-203.118 1967,-188 1963.8469,-187.3516 1960.571,-186.6468 1957.2974,-185.9216"/>
<polygon fill="#191970" stroke="#191970" points="2177.696,-229.9966 2188.1336,-228.1785 2178.8404,-223.0907 2177.696,-229.9966"/>
</g>
<!-- Node115 -->
<g id="node26" class="node">
<title>Node115</title>
<g id="a_node26"><a xlink:href="mac__projection_8_h.html" target="_top" xlink:title="mac_projection.H">
<polygon fill="#ffffff" stroke="#ff0000" points="1975.5,-168.5 1975.5,-187.5 2068.5,-187.5 2068.5,-168.5 1975.5,-168.5"/>
<text text-anchor="middle" x="2022" y="-175.5" font-family="Helvetica,sans-Serif" font-size="10.00" fill="#000000">mac_projection.H</text>
</a>
</g>
</g>
<!-- Node18&#45;&gt;Node115 -->
<g id="edge32" class="edge">
<title>Node18&#45;&gt;Node115</title>
<path fill="none" stroke="#191970" d="M2179.2289,-221.5882C2142.1162,-211.2996 2090.1371,-196.8895 2056.2719,-187.5011"/>
<polygon fill="#191970" stroke="#191970" points="2178.7034,-225.0745 2189.275,-224.3733 2180.5735,-218.3289 2178.7034,-225.0745"/>
</g>
<!-- Node117 -->
<g id="node27" class="node">
<title>Node117</title>
<g id="a_node27"><a xlink:href="_m_o_l_8_h.html" target="_top" xlink:title="MOL.H">
<polygon fill="#ffffff" stroke="#ff0000" points="2087,-168.5 2087,-187.5 2135,-187.5 2135,-168.5 2087,-168.5"/>
<text text-anchor="middle" x="2111" y="-175.5" font-family="Helvetica,sans-Serif" font-size="10.00" fill="#000000">MOL.H</text>
</a>
</g>
</g>
<!-- Node18&#45;&gt;Node117 -->
<g id="edge33" class="edge">
<title>Node18&#45;&gt;Node117</title>
<path fill="none" stroke="#191970" d="M2195.4208,-219.8368C2174.9942,-209.7139 2148.0638,-196.3679 2130.1719,-187.5011"/>
<polygon fill="#191970" stroke="#191970" points="2194.0604,-223.0688 2204.5746,-224.3733 2197.1687,-216.7968 2194.0604,-223.0688"/>
</g>
<!-- Node120 -->
<g id="node28" class="node">
<title>Node120</title>
<g id="a_node28"><a xlink:href="_field_8cpp.html" target="_top" xlink:title="Field.cpp">
<polygon fill="#ffffff" stroke="#000000" points="2153,-168.5 2153,-187.5 2209,-187.5 2209,-168.5 2153,-168.5"/>
<text text-anchor="middle" x="2181" y="-175.5" font-family="Helvetica,sans-Serif" font-size="10.00" fill="#000000">Field.cpp</text>
</a>
</g>
</g>
<!-- Node18&#45;&gt;Node120 -->
<g id="edge34" class="edge">
<title>Node18&#45;&gt;Node120</title>
<path fill="none" stroke="#191970" d="M2210.3408,-216.2112C2203.0737,-206.7472 2194.4219,-195.4797 2188.4042,-187.6427"/>
<polygon fill="#191970" stroke="#191970" points="2207.6436,-218.4456 2216.51,-224.2455 2213.1957,-214.1824 2207.6436,-218.4456"/>
</g>
<!-- Node121 -->
<g id="node29" class="node">
<title>Node121</title>
<g id="a_node29"><a xlink:href="_field_repo_8cpp.html" target="_top" xlink:title="FieldRepo.cpp">
<polygon fill="#ffffff" stroke="#000000" points="2227,-168.5 2227,-187.5 2307,-187.5 2307,-168.5 2227,-168.5"/>
<text text-anchor="middle" x="2267" y="-175.5" font-family="Helvetica,sans-Serif" font-size="10.00" fill="#000000">FieldRepo.cpp</text>
</a>
</g>
</g>
<!-- Node18&#45;&gt;Node121 -->
<g id="edge35" class="edge">
<title>Node18&#45;&gt;Node121</title>
<path fill="none" stroke="#191970" d="M2237.6592,-216.2112C2244.9263,-206.7472 2253.5781,-195.4797 2259.5958,-187.6427"/>
<polygon fill="#191970" stroke="#191970" points="2234.8043,-214.1824 2231.49,-224.2455 2240.3564,-218.4456 2234.8043,-214.1824"/>
</g>
<!-- Node122 -->
<g id="node30" class="node">
<title>Node122</title>
<g id="a_node30"><a xlink:href="_int_field_8cpp.html" target="_top" xlink:title="IntField.cpp">
<polygon fill="#ffffff" stroke="#000000" points="2325,-168.5 2325,-187.5 2393,-187.5 2393,-168.5 2325,-168.5"/>
<text text-anchor="middle" x="2359" y="-175.5" font-family="Helvetica,sans-Serif" font-size="10.00" fill="#000000">IntField.cpp</text>
</a>
</g>
</g>
<!-- Node18&#45;&gt;Node122 -->
<g id="edge36" class="edge">
<title>Node18&#45;&gt;Node122</title>
<path fill="none" stroke="#191970" d="M2256.4991,-220.5189C2281.0854,-210.3201 2314.2366,-196.5685 2336.0955,-187.5011"/>
<polygon fill="#191970" stroke="#191970" points="2255.1031,-217.3087 2247.2073,-224.3733 2257.7852,-223.7745 2255.1031,-217.3087"/>
</g>
<!-- Node123 -->
<g id="node31" class="node">
<title>Node123</title>
<g id="a_node31"><a xlink:href="_scratch_field_8cpp.html" target="_top" xlink:title="ScratchField.cpp">
<polygon fill="#ffffff" stroke="#000000" points="2411,-168.5 2411,-187.5 2501,-187.5 2501,-168.5 2411,-168.5"/>
<text text-anchor="middle" x="2456" y="-175.5" font-family="Helvetica,sans-Serif" font-size="10.00" fill="#000000">ScratchField.cpp</text>
</a>
</g>
</g>
<!-- Node18&#45;&gt;Node123 -->
<g id="edge37" class="edge">
<title>Node18&#45;&gt;Node123</title>
<path fill="none" stroke="#191970" d="M2269.6056,-222.9917C2312.356,-212.6727 2375.6192,-197.4023 2416.3289,-187.5758"/>
<polygon fill="#191970" stroke="#191970" points="2268.6411,-219.624 2259.7416,-225.3727 2270.2837,-226.4285 2268.6411,-219.624"/>
</g>
<!-- Node124 -->
<g id="node32" class="node">
<title>Node124</title>
<g id="a_node32"><a xlink:href="compute__curvature_8cpp.html" target="_top" xlink:title="compute_curvature.cpp">
<polygon fill="#ffffff" stroke="#000000" points="2519.5,-168.5 2519.5,-187.5 2638.5,-187.5 2638.5,-168.5 2519.5,-168.5"/>
<text text-anchor="middle" x="2579" y="-175.5" font-family="Helvetica,sans-Serif" font-size="10.00" fill="#000000">compute_curvature.cpp</text>
</a>
</g>
</g>
<!-- Node18&#45;&gt;Node124 -->
<g id="edge38" class="edge">
<title>Node18&#45;&gt;Node124</title>
<path fill="none" stroke="#191970" d="M2269.8026,-226.7748C2333.4859,-216.729 2448.8651,-198.5283 2519.2479,-187.4257"/>
<polygon fill="#191970" stroke="#191970" points="2268.9966,-223.3586 2259.6641,-228.3741 2270.0874,-230.2731 2268.9966,-223.3586"/>
</g>
<!-- Node125 -->
<g id="node33" class="node">
<title>Node125</title>
<g id="a_node33"><a xlink:href="compute__gradient_8cpp.html" target="_top" xlink:title="compute_gradient.cpp">
<polygon fill="#ffffff" stroke="#000000" points="2656.5,-168.5 2656.5,-187.5 2769.5,-187.5 2769.5,-168.5 2656.5,-168.5"/>
<text text-anchor="middle" x="2713" y="-175.5" font-family="Helvetica,sans-Serif" font-size="10.00" fill="#000000">compute_gradient.cpp</text>
</a>
</g>
</g>
<!-- Node18&#45;&gt;Node125 -->
<g id="edge39" class="edge">
<title>Node18&#45;&gt;Node125</title>
<path fill="none" stroke="#191970" d="M2269.9368,-229.6935C2347.8303,-222.2396 2510.7462,-205.9943 2648,-188 2650.7169,-187.6438 2653.4958,-187.2665 2656.3009,-186.8752"/>
<polygon fill="#191970" stroke="#191970" points="2269.1442,-226.2531 2259.5215,-230.6862 2269.8085,-233.2215 2269.1442,-226.2531"/>
</g>
<!-- Node126 -->
<g id="node34" class="node">
<title>Node126</title>
<g id="a_node34"><a xlink:href="compute__laplacian_8cpp.html" target="_top" xlink:title="compute_laplacian.cpp">
<polygon fill="#ffffff" stroke="#000000" points="2788,-168.5 2788,-187.5 2904,-187.5 2904,-168.5 2788,-168.5"/>
<text text-anchor="middle" x="2846" y="-175.5" font-family="Helvetica,sans-Serif" font-size="10.00" fill="#000000">compute_laplacian.cpp</text>
</a>
</g>
</g>
<!-- Node18&#45;&gt;Node126 -->
<g id="edge40" class="edge">
<title>Node18&#45;&gt;Node126</title>
<path fill="none" stroke="#191970" d="M2269.9351,-231.2141C2365.0934,-225.2179 2590.6181,-209.8414 2779,-188 2781.9206,-187.6614 2784.9098,-187.2935 2787.9262,-186.9054"/>
<polygon fill="#191970" stroke="#191970" points="2269.5538,-227.731 2259.7919,-231.8487 2269.991,-234.7173 2269.5538,-227.731"/>
</g>
<!-- Node127 -->
<g id="node35" class="node">
<title>Node127</title>
<g id="a_node35"><a xlink:href="compute__strainrate_8cpp.html" target="_top" xlink:title="compute_strainrate.cpp">
<polygon fill="#ffffff" stroke="#000000" points="2922.5,-168.5 2922.5,-187.5 3041.5,-187.5 3041.5,-168.5 2922.5,-168.5"/>
<text text-anchor="middle" x="2982" y="-175.5" font-family="Helvetica,sans-Serif" font-size="10.00" fill="#000000">compute_strainrate.cpp</text>
</a>
</g>
</g>
<!-- Node18&#45;&gt;Node127 -->
<g id="edge41" class="edge">
<title>Node18&#45;&gt;Node127</title>
<path fill="none" stroke="#191970" d="M2269.7199,-232.1704C2380.3767,-227.4759 2671.3272,-213.5414 2913,-188 2916.0093,-187.682 2919.0889,-187.3307 2922.1964,-186.9557"/>
<polygon fill="#191970" stroke="#191970" points="2269.4261,-228.6795 2259.5817,-232.5959 2269.7197,-235.6734 2269.4261,-228.6795"/>
</g>
<!-- Node128 -->
<g id="node36" class="node">
<title>Node128</title>
<g id="a_node36"><a xlink:href="field__algebra_8cpp.html" target="_top" xlink:title="field_algebra.cpp">
<polygon fill="#ffffff" stroke="#000000" points="3060,-168.5 3060,-187.5 3150,-187.5 3150,-168.5 3060,-168.5"/>
<text text-anchor="middle" x="3105" y="-175.5" font-family="Helvetica,sans-Serif" font-size="10.00" fill="#000000">field_algebra.cpp</text>
</a>
</g>
</g>
<!-- Node18&#45;&gt;Node128 -->
<g id="edge42" class="edge">
<title>Node18&#45;&gt;Node128</title>
<path fill="none" stroke="#191970" d="M2269.608,-233.5018C2394.8564,-231.6943 2754.5092,-223.5516 3051,-188 3053.9346,-187.6481 3056.9504,-187.2348 3059.9846,-186.7801"/>
<polygon fill="#191970" stroke="#191970" points="2269.558,-230.0021 2259.6072,-233.6397 2269.6545,-237.0014 2269.558,-230.0021"/>
</g>
<!-- Node129 -->
<g id="node37" class="node">
<title>Node129</title>
<g id="a_node37"><a xlink:href="diffusion_8_h.html" target="_top" xlink:title="diffusion.H">
<polygon fill="#ffffff" stroke="#ff0000" points="3168,-168.5 3168,-187.5 3232,-187.5 3232,-168.5 3168,-168.5"/>
<text text-anchor="middle" x="3200" y="-175.5" font-family="Helvetica,sans-Serif" font-size="10.00" fill="#000000">diffusion.H</text>
</a>
</g>
</g>
<!-- Node18&#45;&gt;Node129 -->
<g id="edge43" class="edge">
<title>Node18&#45;&gt;Node129</title>
<path fill="none" stroke="#191970" d="M2269.818,-232.8998C2432.8429,-228.8052 2984.3076,-213.3658 3159,-188 3161.9003,-187.5789 3164.8952,-187.0452 3167.8844,-186.4445"/>
<polygon fill="#191970" stroke="#191970" points="2269.5595,-229.4051 2259.6497,-233.1531 2269.7338,-236.4029 2269.5595,-229.4051"/>
</g>
<!-- Node130 -->
<g id="node38" class="node">
<title>Node130</title>
<g id="a_node38"><a xlink:href="_source_term_8_h.html" target="_top" xlink:title="SourceTerm.H">
<polygon fill="#ffffff" stroke="#ff0000" points="3250,-168.5 3250,-187.5 3330,-187.5 3330,-168.5 3250,-168.5"/>
<text text-anchor="middle" x="3290" y="-175.5" font-family="Helvetica,sans-Serif" font-size="10.00" fill="#000000">SourceTerm.H</text>
</a>
</g>
</g>
<!-- Node18&#45;&gt;Node130 -->
<g id="edge44" class="edge">
<title>Node18&#45;&gt;Node130</title>
<path fill="none" stroke="#191970" d="M2269.7524,-232.8812C2441.6766,-228.5293 3049.0079,-211.7853 3241,-188 3243.9296,-187.6371 3246.9453,-187.1941 3249.9726,-186.6989"/>
<polygon fill="#191970" stroke="#191970" points="2269.4428,-229.3878 2259.534,-233.1382 2269.6189,-236.3856 2269.4428,-229.3878"/>
</g>
<!-- Node132 -->
<g id="node39" class="node">
<title>Node132</title>
<g id="a_node39"><a xlink:href="_p_d_e_helpers_8_h.html" target="_top" xlink:title="PDEHelpers.H">
<polygon fill="#ffffff" stroke="#ff0000" points="392,-168.5 392,-187.5 474,-187.5 474,-168.5 392,-168.5"/>
<text text-anchor="middle" x="433" y="-175.5" font-family="Helvetica,sans-Serif" font-size="10.00" fill="#000000">PDEHelpers.H</text>
</a>
</g>
</g>
<!-- Node18&#45;&gt;Node132 -->
<g id="edge45" class="edge">
<title>Node18&#45;&gt;Node132</title>
<path fill="none" stroke="#191970" d="M2177.9533,-232.5602C1925.6846,-224.6724 713.8448,-186.7813 474.2179,-179.2888"/>
<polygon fill="#191970" stroke="#191970" points="2178.1196,-236.0671 2188.2241,-232.8814 2178.3384,-229.0705 2178.1196,-236.0671"/>
</g>
<!-- Node133 -->
<g id="node40" class="node">
<title>Node133</title>
<g id="a_node40"><a xlink:href="_density_source_8_h.html" target="_top" xlink:title="DensitySource.H">
<polygon fill="#ffffff" stroke="#ff0000" points="3348,-168.5 3348,-187.5 3440,-187.5 3440,-168.5 3348,-168.5"/>
<text text-anchor="middle" x="3394" y="-175.5" font-family="Helvetica,sans-Serif" font-size="10.00" fill="#000000">DensitySource.H</text>
</a>
</g>
</g>
<!-- Node18&#45;&gt;Node133 -->
<g id="edge48" class="edge">
<title>Node18&#45;&gt;Node133</title>
<path fill="none" stroke="#191970" d="M2269.596,-232.9635C2451.6016,-228.6954 3126.4969,-211.5869 3339,-188 3341.8938,-187.6788 3344.8646,-187.2956 3347.8548,-186.8692"/>
<polygon fill="#191970" stroke="#191970" points="2269.4762,-229.4653 2259.5606,-233.1975 2269.6395,-236.4634 2269.4762,-229.4653"/>
</g>
<!-- Node134 -->
<g id="node41" class="node">
<title>Node134</title>
<g id="a_node41"><a xlink:href="_momentum_source_8_h.html" target="_top" xlink:title="MomentumSource.H">
<polygon fill="#ffffff" stroke="#ff0000" points="1689.5,-168.5 1689.5,-187.5 1796.5,-187.5 1796.5,-168.5 1689.5,-168.5"/>
<text text-anchor="middle" x="1743" y="-175.5" font-family="Helvetica,sans-Serif" font-size="10.00" fill="#000000">MomentumSource.H</text>
</a>
</g>
</g>
<!-- Node18&#45;&gt;Node134 -->
<g id="edge49" class="edge">
<title>Node18&#45;&gt;Node134</title>
<path fill="none" stroke="#191970" d="M2178.1024,-229.4192C2101.8023,-221.685 1944.0845,-205.1917 1811,-188 1806.3847,-187.4038 1801.5974,-186.7572 1796.7976,-186.0893"/>
<polygon fill="#191970" stroke="#191970" points="2178.016,-232.9282 2188.3173,-230.4516 2178.7199,-225.9637 2178.016,-232.9282"/>
</g>
<!-- Node137 -->
<g id="node42" class="node">
<title>Node137</title>
<g id="a_node42"><a xlink:href="_boussinesq_buoyancy_8_h.html" target="_top" xlink:title="BoussinesqBuoyancy.H">
<polygon fill="#ffffff" stroke="#000000" points="1986,-112.5 1986,-131.5 2108,-131.5 2108,-112.5 1986,-112.5"/>
<text text-anchor="middle" x="2047" y="-119.5" font-family="Helvetica,sans-Serif" font-size="10.00" fill="#000000">BoussinesqBuoyancy.H</text>
</a>
</g>
</g>
<!-- Node18&#45;&gt;Node137 -->
<g id="edge58" class="edge">
<title>Node18&#45;&gt;Node137</title>
<path fill="none" stroke="#191970" d="M2178.3129,-231.1567C2089.6504,-225.1716 1901.2288,-209.9883 1882,-188 1876.1485,-181.3088 1876.6244,-175.0792 1882,-168 1894.7688,-151.1844 1944.1392,-138.8704 1985.5775,-131.2379"/>
<polygon fill="#191970" stroke="#191970" points="2178.1484,-234.6534 2188.3585,-231.8242 2178.6126,-227.6688 2178.1484,-234.6534"/>
</g>
<!-- Node138 -->
<g id="node43" class="node">
<title>Node138</title>
<g id="a_node43"><a xlink:href="_coriolis_forcing_8_h.html" target="_top" xlink:title="CoriolisForcing.H">
<polygon fill="#ffffff" stroke="#000000" points="1652,-112.5 1652,-131.5 1744,-131.5 1744,-112.5 1652,-112.5"/>
<text text-anchor="middle" x="1698" y="-119.5" font-family="Helvetica,sans-Serif" font-size="10.00" fill="#000000">CoriolisForcing.H</text>
</a>
</g>
</g>
<!-- Node18&#45;&gt;Node138 -->
<g id="edge59" class="edge">
<title>Node18&#45;&gt;Node138</title>
<path fill="none" stroke="#191970" d="M2178.2329,-233.6543C2052.0066,-232.2283 1706.0025,-224.9539 1672,-188 1656.9901,-171.6872 1675.9418,-145.6849 1688.5174,-131.6837"/>
<polygon fill="#191970" stroke="#191970" points="2178.3092,-237.1552 2188.3456,-233.7612 2178.3832,-230.1556 2178.3092,-237.1552"/>
</g>
<!-- Node139 -->
<g id="node44" class="node">
<title>Node139</title>
<g id="a_node44"><a xlink:href="_density_buoyancy_8_h.html" target="_top" xlink:title="DensityBuoyancy.H">
<polygon fill="#ffffff" stroke="#000000" points="1762,-112.5 1762,-131.5 1866,-131.5 1866,-112.5 1762,-112.5"/>
<text text-anchor="middle" x="1814" y="-119.5" font-family="Helvetica,sans-Serif" font-size="10.00" fill="#000000">DensityBuoyancy.H</text>
</a>
</g>
</g>
<!-- Node18&#45;&gt;Node139 -->
<g id="edge60" class="edge">
<title>Node18&#45;&gt;Node139</title>
<path fill="none" stroke="#191970" d="M2178.459,-233.5968C2053.6989,-232.0223 1713.452,-224.4 1680,-188 1673.9852,-181.4552 1674.8348,-175.2342 1680,-168 1690.648,-153.0868 1734.2949,-139.9505 1768.9209,-131.5747"/>
<polygon fill="#191970" stroke="#191970" points="2178.4175,-237.0965 2188.4584,-233.7158 2178.5008,-230.097 2178.4175,-237.0965"/>
</g>
<!-- Node141 -->
<g id="node45" class="node">
<title>Node141</title>
<g id="a_node45"><a xlink:href="_m_m_s_forcing_8_h.html" target="_top" xlink:title="MMSForcing.H">
<polygon fill="#ffffff" stroke="#000000" points="1884.5,-112.5 1884.5,-131.5 1967.5,-131.5 1967.5,-112.5 1884.5,-112.5"/>
<text text-anchor="middle" x="1926" y="-119.5" font-family="Helvetica,sans-Serif" font-size="10.00" fill="#000000">MMSForcing.H</text>
</a>
</g>
</g>
<!-- Node18&#45;&gt;Node141 -->
<g id="edge65" class="edge">
<title>Node18&#45;&gt;Node141</title>
<path fill="none" stroke="#191970" d="M2178.1211,-231.312C2087.5617,-225.5366 1892.8373,-210.6067 1873,-188 1855.9409,-168.5593 1887.3888,-144.6543 1908.7097,-131.6121"/>
<polygon fill="#191970" stroke="#191970" points="2178.1712,-234.8219 2188.3707,-231.9549 2178.6094,-227.8357 2178.1712,-234.8219"/>
</g>
<!-- Node142 -->
<g id="node46" class="node">
<title>Node142</title>
<g id="a_node46"><a xlink:href="_s_d_r_source_8_h.html" target="_top" xlink:title="SDRSource.H">
<polygon fill="#ffffff" stroke="#ff0000" points="3458,-168.5 3458,-187.5 3538,-187.5 3538,-168.5 3458,-168.5"/>
<text text-anchor="middle" x="3498" y="-175.5" font-family="Helvetica,sans-Serif" font-size="10.00" fill="#000000">SDRSource.H</text>
</a>
</g>
</g>
<!-- Node18&#45;&gt;Node142 -->
<g id="edge62" class="edge">
<title>Node18&#45;&gt;Node142</title>
<path fill="none" stroke="#191970" d="M2269.6041,-233.2882C2462.7255,-230.1199 3214.0175,-216.197 3449,-188 3451.931,-187.6483 3454.9477,-187.2136 3457.9757,-186.7242"/>
<polygon fill="#191970" stroke="#191970" points="2269.4598,-229.79 2259.518,-233.4522 2269.5736,-236.7891 2269.4598,-229.79"/>
</g>
<!-- Node143 -->
<g id="node47" class="node">
<title>Node143</title>
<g id="a_node47"><a xlink:href="_temperature_source_8_h.html" target="_top" xlink:title="TemperatureSource.H">
<polygon fill="#ffffff" stroke="#ff0000" points="3556.5,-168.5 3556.5,-187.5 3669.5,-187.5 3669.5,-168.5 3556.5,-168.5"/>
<text text-anchor="middle" x="3613" y="-175.5" font-family="Helvetica,sans-Serif" font-size="10.00" fill="#000000">TemperatureSource.H</text>
</a>
</g>
</g>
<!-- Node18&#45;&gt;Node143 -->
<g id="edge63" class="edge">
<title>Node18&#45;&gt;Node143</title>
<path fill="none" stroke="#191970" d="M2269.8523,-233.1186C2472.7575,-229.1085 3291.127,-211.7524 3547,-188 3550.0003,-187.7215 3553.0719,-187.3964 3556.1694,-187.0371"/>
<polygon fill="#191970" stroke="#191970" points="2269.4879,-229.625 2259.5586,-233.321 2269.6255,-236.6236 2269.4879,-229.625"/>
</g>
<!-- Node144 -->
<g id="node48" class="node">
<title>Node144</title>
<g id="a_node48"><a xlink:href="_t_k_e_source_8_h.html" target="_top" xlink:title="TKESource.H">
<polygon fill="#ffffff" stroke="#ff0000" points="3687.5,-168.5 3687.5,-187.5 3764.5,-187.5 3764.5,-168.5 3687.5,-168.5"/>
<text text-anchor="middle" x="3726" y="-175.5" font-family="Helvetica,sans-Serif" font-size="10.00" fill="#000000">TKESource.H</text>
</a>
</g>
</g>
<!-- Node18&#45;&gt;Node144 -->
<g id="edge64" class="edge">
<title>Node18&#45;&gt;Node144</title>
<path fill="none" stroke="#191970" d="M2269.853,-233.6496C2485.0842,-231.8366 3396.4955,-222.2426 3679,-188 3681.733,-187.6687 3684.5424,-187.2567 3687.363,-186.7902"/>
<polygon fill="#191970" stroke="#191970" points="2269.5248,-230.1521 2259.5542,-233.7349 2269.5828,-237.1519 2269.5248,-230.1521"/>
</g>
<!-- Node147 -->
<g id="node49" class="node">
<title>Node147</title>
<g id="a_node49"><a xlink:href="_transport_model_8_h.html" target="_top" xlink:title="TransportModel.H">
<polygon fill="#ffffff" stroke="#ff0000" points="3782.5,-168.5 3782.5,-187.5 3877.5,-187.5 3877.5,-168.5 3782.5,-168.5"/>
<text text-anchor="middle" x="3830" y="-175.5" font-family="Helvetica,sans-Serif" font-size="10.00" fill="#000000">TransportModel.H</text>
</a>
</g>
</g>
<!-- Node18&#45;&gt;Node147 -->
<g id="edge67" class="edge">
<title>Node18&#45;&gt;Node147</title>
<path fill="none" stroke="#191970" d="M2269.5615,-233.5527C2492.6264,-231.2245 3471.0253,-219.375 3774,-188 3776.7506,-187.7152 3779.5694,-187.373 3782.4086,-186.9895"/>
<polygon fill="#191970" stroke="#191970" points="2269.4793,-230.0533 2259.516,-233.6564 2269.5516,-237.0529 2269.4793,-230.0533"/>
</g>
<!-- Node102 -->
<g id="node50" class="node">
<title>Node102</title>
<g id="a_node50"><a xlink:href="_smagorinsky_8_h.html" target="_top" xlink:title="Smagorinsky.H">
<polygon fill="#ffffff" stroke="#ff0000" points="3896,-168.5 3896,-187.5 3980,-187.5 3980,-168.5 3896,-168.5"/>
<text text-anchor="middle" x="3938" y="-175.5" font-family="Helvetica,sans-Serif" font-size="10.00" fill="#000000">Smagorinsky.H</text>
</a>
</g>
</g>
<!-- Node18&#45;&gt;Node102 -->
<g id="edge68" class="edge">
<title>Node18&#45;&gt;Node102</title>
<path fill="none" stroke="#191970" d="M2269.8484,-233.761C2503.2228,-232.3874 3560.818,-224.2361 3887,-188 3889.8696,-187.6812 3892.8187,-187.2859 3895.7826,-186.8381"/>
<polygon fill="#191970" stroke="#191970" points="2269.6573,-230.2619 2259.6777,-233.8196 2269.6977,-237.2618 2269.6573,-230.2619"/>
</g>
<!-- Node20&#45;&gt;Node19 -->
<g id="edge3" class="edge">
<title>Node20&#45;&gt;Node19</title>
<path fill="none" stroke="#191970" d="M131.6958,-163.9741C110.512,-153.8348 82.4597,-140.408 63.8506,-131.5011"/>
<polygon fill="#191970" stroke="#191970" points="130.3559,-167.2129 140.887,-168.3733 133.378,-160.8989 130.3559,-167.2129"/>
</g>
<!-- Node21 -->
<g id="node4" class="node">
<title>Node21</title>
<g id="a_node4"><a xlink:href="_fixed_gradient_b_c_8cpp.html" target="_top" xlink:title="FixedGradientBC.cpp">
<polygon fill="#ffffff" stroke="#000000" points="106,-112.5 106,-131.5 216,-131.5 216,-112.5 106,-112.5"/>
<text text-anchor="middle" x="161" y="-119.5" font-family="Helvetica,sans-Serif" font-size="10.00" fill="#000000">FixedGradientBC.cpp</text>
</a>
</g>
</g>
<!-- Node20&#45;&gt;Node21 -->
<g id="edge4" class="edge">
<title>Node20&#45;&gt;Node21</title>
<path fill="none" stroke="#191970" d="M161,-158.1575C161,-149.155 161,-138.9199 161,-131.6427"/>
<polygon fill="#191970" stroke="#191970" points="157.5001,-158.2455 161,-168.2455 164.5001,-158.2456 157.5001,-158.2455"/>
</g>
<!-- Node22&#45;&gt;Node23 -->
<g id="edge6" class="edge">
<title>Node22&#45;&gt;Node23</title>
<path fill="none" stroke="#191970" d="M915.2805,-176.2583C788.1045,-170.8815 413.3491,-153.5963 293,-132 290.0931,-131.4784 287.081,-130.8008 284.1053,-130.0441"/>
<polygon fill="#191970" stroke="#191970" points="915.27,-179.7609 925.408,-176.6834 915.5636,-172.767 915.27,-179.7609"/>
</g>
<!-- Node43 -->
<g id="node7" class="node">
<title>Node43</title>
<g id="a_node7"><a xlink:href="_c_f_d_sim_8cpp.html" target="_top" xlink:title="CFDSim.cpp">
<polygon fill="#ffffff" stroke="#000000" points="1330,-112.5 1330,-131.5 1404,-131.5 1404,-112.5 1330,-112.5"/>
<text text-anchor="middle" x="1367" y="-119.5" font-family="Helvetica,sans-Serif" font-size="10.00" fill="#000000">CFDSim.cpp</text>
</a>
</g>
</g>
<!-- Node22&#45;&gt;Node43 -->
<g id="edge7" class="edge">
<title>Node22&#45;&gt;Node43</title>
<path fill="none" stroke="#191970" d="M1001.015,-173.788C1069.1599,-166.8371 1206.0046,-151.7463 1321,-132 1323.8997,-131.5021 1326.8935,-130.9464 1329.8977,-130.3592"/>
<polygon fill="#191970" stroke="#191970" points="1000.2789,-170.3445 990.6819,-174.8331 1000.9834,-177.309 1000.2789,-170.3445"/>
</g>
<!-- Node44 -->
<g id="node8" class="node">
<title>Node44</title>
<g id="a_node8"><a xlink:href="_p_d_e_ops_8_h.html" target="_top" xlink:title="PDEOps.H">
<polygon fill="#ffffff" stroke="#ff0000" points="400,-112.5 400,-131.5 466,-131.5 466,-112.5 400,-112.5"/>
<text text-anchor="middle" x="433" y="-119.5" font-family="Helvetica,sans-Serif" font-size="10.00" fill="#000000">PDEOps.H</text>
</a>
</g>
</g>
<!-- Node22&#45;&gt;Node44 -->
<g id="edge8" class="edge">
<title>Node22&#45;&gt;Node44</title>
<path fill="none" stroke="#191970" d="M915.2282,-175.521C831.3698,-170.2997 639.6177,-156.5794 480,-132 475.4651,-131.3017 470.7094,-130.4418 466.0371,-129.5221"/>
<polygon fill="#191970" stroke="#191970" points="915.1893,-179.0251 925.385,-176.1445 915.6183,-172.0383 915.1893,-179.0251"/>
</g>
<!-- Node57 -->
<g id="node9" class="node">
<title>Node57</title>
<g id="a_node9"><a xlink:href="_p_d_e_8_h.html" target="_top" xlink:title="PDE.H">
<polygon fill="#ffffff" stroke="#ff0000" points="556,-56.5 556,-75.5 604,-75.5 604,-56.5 556,-56.5"/>
<text text-anchor="middle" x="580" y="-63.5" font-family="Helvetica,sans-Serif" font-size="10.00" fill="#000000">PDE.H</text>
</a>
</g>
</g>
<!-- Node22&#45;&gt;Node57 -->
<g id="edge10" class="edge">
<title>Node22&#45;&gt;Node57</title>
<path fill="none" stroke="#191970" d="M915.37,-174.5089C843.2199,-168.1091 700.448,-153.1832 655,-132 626.0737,-118.5175 599.9838,-90.3204 587.5964,-75.526"/>
<polygon fill="#191970" stroke="#191970" points="915.2164,-178.0087 925.4827,-175.391 915.8247,-171.0352 915.2164,-178.0087"/>
</g>
<!-- Node68 -->
<g id="node10" class="node">
<title>Node68</title>
<g id="a_node10"><a xlink:href="_a_b_l_forcing_8cpp.html" target="_top" xlink:title="ABLForcing.cpp">
<polygon fill="#ffffff" stroke="#000000" points="522,-112.5 522,-131.5 608,-131.5 608,-112.5 522,-112.5"/>
<text text-anchor="middle" x="565" y="-119.5" font-family="Helvetica,sans-Serif" font-size="10.00" fill="#000000">ABLForcing.cpp</text>
</a>
</g>
</g>
<!-- Node22&#45;&gt;Node68 -->
<g id="edge11" class="edge">
<title>Node22&#45;&gt;Node68</title>
<path fill="none" stroke="#191970" d="M914.9134,-172.6281C850.9091,-164.529 726.9753,-148.3882 622,-132 617.533,-131.3026 612.8751,-130.5414 608.2316,-129.7604"/>
<polygon fill="#191970" stroke="#191970" points="914.6725,-176.1254 925.032,-173.9046 915.5488,-169.1804 914.6725,-176.1254"/>
</g>
<!-- Node69 -->
<g id="node11" class="node">
<title>Node69</title>
<g id="a_node11"><a xlink:href="_a_b_l_wall_function_8_h.html" target="_top" xlink:title="ABLWallFunction.H">
<polygon fill="#ffffff" stroke="#ff0000" points="682.5,-56.5 682.5,-75.5 785.5,-75.5 785.5,-56.5 682.5,-56.5"/>
<text text-anchor="middle" x="734" y="-63.5" font-family="Helvetica,sans-Serif" font-size="10.00" fill="#000000">ABLWallFunction.H</text>
</a>
</g>
</g>
<!-- Node22&#45;&gt;Node69 -->
<g id="edge12" class="edge">
<title>Node22&#45;&gt;Node69</title>
<path fill="none" stroke="#191970" d="M927.1734,-164.3761C907.2917,-155.4529 880.9546,-143.3765 858,-132 819.324,-112.8318 774.8524,-88.6188 751.0882,-75.5002"/>
<polygon fill="#191970" stroke="#191970" points="925.8139,-167.6021 936.3718,-168.4864 928.6698,-161.2112 925.8139,-167.6021"/>
</g>
<!-- Node72 -->
<g id="node12" class="node">
<title>Node72</title>
<g id="a_node12"><a xlink:href="_a_b_l_stats_8_h.html" target="_top" xlink:title="ABLStats.H">
<polygon fill="#ffffff" stroke="#ff0000" points="619.5,-.5 619.5,-19.5 688.5,-19.5 688.5,-.5 619.5,-.5"/>
<text text-anchor="middle" x="654" y="-7.5" font-family="Helvetica,sans-Serif" font-size="10.00" fill="#000000">ABLStats.H</text>
</a>
</g>
</g>
<!-- Node22&#45;&gt;Node72 -->
<g id="edge17" class="edge">
<title>Node22&#45;&gt;Node72</title>
<path fill="none" stroke="#191970" d="M915.1125,-176.766C808.7846,-173.2661 539.6506,-161.5475 513,-132 490.7933,-107.3795 524.2047,-75.8154 547,-56 567.7543,-37.9587 596.6554,-26.1039 619.1899,-18.9541"/>
<polygon fill="#191970" stroke="#191970" points="915.0709,-180.2664 925.178,-177.0886 915.2953,-173.2699 915.0709,-180.2664"/>
</g>
<!-- Node75 -->
<g id="node13" class="node">
<title>Node75</title>
<g id="a_node13"><a xlink:href="_field_plane_averaging_8_h.html" target="_top" xlink:title="FieldPlaneAveraging.H">
<polygon fill="#ffffff" stroke="#ff0000" points="664,-112.5 664,-131.5 780,-131.5 780,-112.5 664,-112.5"/>
<text text-anchor="middle" x="722" y="-119.5" font-family="Helvetica,sans-Serif" font-size="10.00" fill="#000000">FieldPlaneAveraging.H</text>
</a>
</g>
</g>
<!-- Node22&#45;&gt;Node75 -->
<g id="edge14" class="edge">
<title>Node22&#45;&gt;Node75</title>
<path fill="none" stroke="#191970" d="M915.2114,-167.8468C871.7703,-157.5387 805.0106,-141.6974 762.4357,-131.5949"/>
<polygon fill="#191970" stroke="#191970" points="914.6473,-171.31 925.1852,-170.2134 916.2635,-164.4992 914.6473,-171.31"/>
</g>
<!-- Node80 -->
<g id="node14" class="node">
<title>Node80</title>
<g id="a_node14"><a xlink:href="_body_force_8cpp.html" target="_top" xlink:title="BodyForce.cpp">
<polygon fill="#ffffff" stroke="#000000" points="874.5,-112.5 874.5,-131.5 957.5,-131.5 957.5,-112.5 874.5,-112.5"/>
<text text-anchor="middle" x="916" y="-119.5" font-family="Helvetica,sans-Serif" font-size="10.00" fill="#000000">BodyForce.cpp</text>
</a>
</g>
</g>
<!-- Node22&#45;&gt;Node80 -->
<g id="edge18" class="edge">
<title>Node22&#45;&gt;Node80</title>
<path fill="none" stroke="#191970" d="M944.6584,-160.2112C937.5604,-150.7472 929.1097,-139.4797 923.232,-131.6427"/>
<polygon fill="#191970" stroke="#191970" points="941.8841,-162.3455 950.6842,-168.2455 947.4841,-158.1455 941.8841,-162.3455"/>
</g>
<!-- Node81 -->
<g id="node15" class="node">
<title>Node81</title>
<g id="a_node15"><a xlink:href="_boussinesq_buoyancy_8cpp.html" target="_top" xlink:title="BoussinesqBuoyancy.cpp">
<polygon fill="#ffffff" stroke="#000000" points="1936,-56.5 1936,-75.5 2066,-75.5 2066,-56.5 1936,-56.5"/>
<text text-anchor="middle" x="2001" y="-63.5" font-family="Helvetica,sans-Serif" font-size="10.00" fill="#000000">BoussinesqBuoyancy.cpp</text>
</a>
</g>
</g>
<!-- Node22&#45;&gt;Node81 -->
<g id="edge19" class="edge">
<title>Node22&#45;&gt;Node81</title>
<path fill="none" stroke="#191970" d="M1001.0465,-176.0518C1109.4137,-170.8544 1391.2979,-155.4398 1482,-132 1503.1902,-126.5239 1505.8352,-117.5733 1527,-112 1602.4553,-92.1304 1824.3186,-76.5543 1935.6763,-69.7419"/>
<polygon fill="#191970" stroke="#191970" points="1000.6345,-172.5673 990.8114,-176.5369 1000.966,-179.5594 1000.6345,-172.5673"/>
</g>
<!-- Node82 -->
<g id="node16" class="node">
<title>Node82</title>
<g id="a_node16"><a xlink:href="_coriolis_forcing_8cpp.html" target="_top" xlink:title="CoriolisForcing.cpp">
<polygon fill="#ffffff" stroke="#000000" points="1129.5,-56.5 1129.5,-75.5 1230.5,-75.5 1230.5,-56.5 1129.5,-56.5"/>
<text text-anchor="middle" x="1180" y="-63.5" font-family="Helvetica,sans-Serif" font-size="10.00" fill="#000000">CoriolisForcing.cpp</text>
</a>
</g>
</g>
<!-- Node22&#45;&gt;Node82 -->
<g id="edge20" class="edge">
<title>Node22&#45;&gt;Node82</title>
<path fill="none" stroke="#191970" d="M982.0332,-163.1244C1004.9974,-149.1716 1040.7867,-128.1014 1073,-112 1100.6727,-98.1681 1133.4875,-84.4388 1155.4135,-75.6301"/>
<polygon fill="#191970" stroke="#191970" points="980.0209,-160.2523 973.3146,-168.4546 983.6722,-166.2247 980.0209,-160.2523"/>
</g>
<!-- Node83 -->
<g id="node17" class="node">
<title>Node83</title>
<g id="a_node17"><a xlink:href="_density_buoyancy_8cpp.html" target="_top" xlink:title="DensityBuoyancy.cpp">
<polygon fill="#ffffff" stroke="#000000" points="1421.5,-56.5 1421.5,-75.5 1534.5,-75.5 1534.5,-56.5 1421.5,-56.5"/>
<text text-anchor="middle" x="1478" y="-63.5" font-family="Helvetica,sans-Serif" font-size="10.00" fill="#000000">DensityBuoyancy.cpp</text>
</a>
</g>
</g>
<!-- Node22&#45;&gt;Node83 -->
<g id="edge21" class="edge">
<title>Node22&#45;&gt;Node83</title>
<path fill="none" stroke="#191970" d="M1001.0521,-177.3383C1100.0311,-175.231 1340.8099,-166.5957 1413,-132 1439.6853,-119.2116 1461.5896,-90.7108 1471.7999,-75.6907"/>
<polygon fill="#191970" stroke="#191970" points="1000.7402,-173.8438 990.8124,-177.5436 1000.8805,-180.8423 1000.7402,-173.8438"/>
</g>
<!-- Node84 -->
<g id="node18" class="node">
<title>Node84</title>
<g id="a_node18"><a xlink:href="_geostrophic_forcing_8cpp.html" target="_top" xlink:title="GeostrophicForcing.cpp">
<polygon fill="#ffffff" stroke="#000000" points="1082,-112.5 1082,-131.5 1202,-131.5 1202,-112.5 1082,-112.5"/>
<text text-anchor="middle" x="1142" y="-119.5" font-family="Helvetica,sans-Serif" font-size="10.00" fill="#000000">GeostrophicForcing.cpp</text>
</a>
</g>
</g>
<!-- Node22&#45;&gt;Node84 -->
<g id="edge22" class="edge">
<title>Node22&#45;&gt;Node84</title>
<path fill="none" stroke="#191970" d="M999.2157,-165.4561C1032.9916,-155.1765 1080.0663,-140.8494 1110.782,-131.5011"/>
<polygon fill="#191970" stroke="#191970" points="998.1784,-162.1132 989.6307,-168.3733 1000.2166,-168.8099 998.1784,-162.1132"/>
</g>
<!-- Node22&#45;&gt;Node85 -->
<g id="edge23" class="edge">
<title>Node22&#45;&gt;Node85</title>
<path fill="none" stroke="#191970" d="M915.1836,-176.2882C820.3572,-172.1119 585.6178,-159.6511 391,-132 387.9055,-131.5603 384.7123,-131.0466 381.5093,-130.4882"/>
<polygon fill="#191970" stroke="#191970" points="915.1068,-179.788 925.2486,-176.7233 915.4091,-172.7946 915.1068,-179.788"/>
</g>
<!-- Node86 -->
<g id="node20" class="node">
<title>Node86</title>
<g id="a_node20"><a xlink:href="_ksgs_m84_src_8cpp.html" target="_top" xlink:title="KsgsM84Src.cpp">
<polygon fill="#ffffff" stroke="#000000" points="1220,-112.5 1220,-131.5 1312,-131.5 1312,-112.5 1220,-112.5"/>
<text text-anchor="middle" x="1266" y="-119.5" font-family="Helvetica,sans-Serif" font-size="10.00" fill="#000000">KsgsM84Src.cpp</text>
</a>
</g>
</g>
<!-- Node22&#45;&gt;Node86 -->
<g id="edge24" class="edge">
<title>Node22&#45;&gt;Node86</title>
<path fill="none" stroke="#191970" d="M1000.5449,-170.2646C1058.1661,-159.788 1160.6178,-141.1604 1219.98,-130.3673"/>
<polygon fill="#191970" stroke="#191970" points="999.8824,-166.8276 990.6698,-172.06 1001.1346,-173.7146 999.8824,-166.8276"/>
</g>
<!-- Node87 -->
<g id="node21" class="node">
<title>Node87</title>
<g id="a_node21"><a xlink:href="_m_m_s_8_h.html" target="_top" xlink:title="MMS.H">
<polygon fill="#ffffff" stroke="#000000" points="976,-112.5 976,-131.5 1026,-131.5 1026,-112.5 976,-112.5"/>
<text text-anchor="middle" x="1001" y="-119.5" font-family="Helvetica,sans-Serif" font-size="10.00" fill="#000000">MMS.H</text>
</a>
</g>
</g>
<!-- Node22&#45;&gt;Node87 -->
<g id="edge25" class="edge">
<title>Node22&#45;&gt;Node87</title>
<path fill="none" stroke="#191970" d="M971.6592,-160.2112C978.9263,-150.7472 987.5781,-139.4797 993.5958,-131.6427"/>
<polygon fill="#191970" stroke="#191970" points="968.8043,-158.1824 965.49,-168.2455 974.3564,-162.4456 968.8043,-158.1824"/>
</g>
<!-- Node88 -->
<g id="node22" class="node">
<title>Node88</title>
<g id="a_node22"><a xlink:href="_m_m_s_8cpp.html" target="_top" xlink:title="MMS.cpp">
<polygon fill="#ffffff" stroke="#000000" points="893.5,-56.5 893.5,-75.5 952.5,-75.5 952.5,-56.5 893.5,-56.5"/>
<text text-anchor="middle" x="923" y="-63.5" font-family="Helvetica,sans-Serif" font-size="10.00" fill="#000000">MMS.cpp</text>
</a>
</g>
</g>
<!-- Node22&#45;&gt;Node88 -->
<g id="edge27" class="edge">
<title>Node22&#45;&gt;Node88</title>
<path fill="none" stroke="#191970" d="M915.6035,-167.9673C896.6794,-161.1487 876.1675,-149.9826 865,-132 851.2388,-109.8408 881.7403,-87.8369 903.5123,-75.6678"/>
<polygon fill="#191970" stroke="#191970" points="914.7041,-171.3557 925.2969,-171.1497 916.8876,-164.705 914.7041,-171.3557"/>
</g>
<!-- Node89 -->
<g id="node23" class="node">
<title>Node89</title>
<g id="a_node23"><a xlink:href="_m_m_s_forcing_8cpp.html" target="_top" xlink:title="MMSForcing.cpp">
<polygon fill="#ffffff" stroke="#000000" points="1735.5,-56.5 1735.5,-75.5 1826.5,-75.5 1826.5,-56.5 1735.5,-56.5"/>
<text text-anchor="middle" x="1781" y="-63.5" font-family="Helvetica,sans-Serif" font-size="10.00" fill="#000000">MMSForcing.cpp</text>
</a>
</g>
</g>
<!-- Node22&#45;&gt;Node89 -->
<g id="edge28" class="edge">
<title>Node22&#45;&gt;Node89</title>
<path fill="none" stroke="#191970" d="M1001.0936,-175.3682C1103.2503,-168.892 1357.7864,-151.2992 1441,-132 1465.5259,-126.3119 1469.6685,-118.4696 1494,-112 1577.7587,-89.729 1678.3103,-76.6363 1735.422,-70.4308"/>
<polygon fill="#191970" stroke="#191970" points="1000.5952,-171.8926 990.8348,-176.0136 1001.0348,-178.8787 1000.5952,-171.8926"/>
</g>
<!-- Node22&#45;&gt;Node90 -->
<g id="edge29" class="edge">
<title>Node22&#45;&gt;Node90</title>
<path fill="none" stroke="#191970" d="M1000.5069,-175.6407C1094.6658,-170.1719 1327.8531,-155.2916 1522,-132 1526.5082,-131.4592 1531.1883,-130.8351 1535.8696,-130.1682"/>
<polygon fill="#191970" stroke="#191970" points="1000.2954,-172.147 990.5131,-176.216 1000.6977,-179.1354 1000.2954,-172.147"/>
</g>
<!-- Node44&#45;&gt;Node57 -->
<g id="edge9" class="edge">
<title>Node44&#45;&gt;Node57</title>
<path fill="none" stroke="#191970" d="M467.7393,-108.766C494.7569,-98.4735 531.5623,-84.4525 555.548,-75.315"/>
<polygon fill="#191970" stroke="#191970" points="466.3691,-105.5425 458.2702,-112.3733 468.8611,-112.0839 466.3691,-105.5425"/>
</g>
<!-- Node69&#45;&gt;Node72 -->
<g id="edge13" class="edge">
<title>Node69&#45;&gt;Node72</title>
<path fill="none" stroke="#191970" d="M711.8429,-50.49C697.728,-40.6096 679.8849,-28.1194 667.7752,-19.6427"/>
<polygon fill="#191970" stroke="#191970" points="709.8656,-53.3782 720.0651,-56.2455 713.8799,-47.6436 709.8656,-53.3782"/>
</g>
<!-- Node75&#45;&gt;Node69 -->
<g id="edge15" class="edge">
<title>Node75&#45;&gt;Node69</title>
<path fill="none" stroke="#191970" d="M726.1885,-102.4538C728.1328,-93.3803 730.3572,-82.9998 731.9337,-75.6427"/>
<polygon fill="#191970" stroke="#191970" points="722.7633,-101.7341 724.0902,-112.2455 729.6079,-103.2009 722.7633,-101.7341"/>
</g>
<!-- Node75&#45;&gt;Node72 -->
<g id="edge16" class="edge">
<title>Node75&#45;&gt;Node72</title>
<path fill="none" stroke="#191970" d="M700.0167,-105.8162C690.4989,-97.798 679.9657,-87.3962 673,-76 661.9311,-57.8907 657.0692,-33.0563 655.134,-19.604"/>
<polygon fill="#191970" stroke="#191970" points="698.0111,-108.6941 708.0041,-112.214 702.3872,-103.2306 698.0111,-108.6941"/>
</g>
<!-- Node87&#45;&gt;Node88 -->
<g id="edge26" class="edge">
<title>Node87&#45;&gt;Node88</title>
<path fill="none" stroke="#191970" d="M979.0064,-106.2097C965.3071,-96.3743 948.1264,-84.0394 936.4309,-75.6427"/>
<polygon fill="#191970" stroke="#191970" points="977.2489,-109.2566 987.4134,-112.2455 981.3314,-103.5703 977.2489,-109.2566"/>
</g>
<!-- Node132&#45;&gt;Node44 -->
<g id="edge46" class="edge">
<title>Node132&#45;&gt;Node44</title>
<path fill="none" stroke="#191970" d="M433,-158.1575C433,-149.155 433,-138.9199 433,-131.6427"/>
<polygon fill="#191970" stroke="#191970" points="429.5001,-158.2455 433,-168.2455 436.5001,-158.2456 429.5001,-158.2455"/>
</g>
<!-- Node132&#45;&gt;Node85 -->
<g id="edge47" class="edge">
<title>Node132&#45;&gt;Node85</title>
<path fill="none" stroke="#191970" d="M408.2496,-162.769C392.1242,-152.8456 371.574,-140.1994 357.6693,-131.6427"/>
<polygon fill="#191970" stroke="#191970" points="406.7981,-165.9853 417.149,-168.2455 410.4668,-160.0237 406.7981,-165.9853"/>
</g>
<!-- Node134&#45;&gt;Node137 -->
<g id="edge50" class="edge">
<title>Node134&#45;&gt;Node137</title>
<path fill="none" stroke="#191970" d="M1805.0736,-166.5654C1861.1404,-156.2373 1942.6954,-141.214 1995.3001,-131.5237"/>
<polygon fill="#191970" stroke="#191970" points="1804.1145,-163.1831 1794.914,-168.4369 1805.3827,-170.0673 1804.1145,-163.1831"/>
</g>
<!-- Node134&#45;&gt;Node138 -->
<g id="edge52" class="edge">
<title>Node134&#45;&gt;Node138</title>
<path fill="none" stroke="#191970" d="M1728.7054,-160.2112C1721.1004,-150.7472 1712.0462,-139.4797 1705.7486,-131.6427"/>
<polygon fill="#191970" stroke="#191970" points="1726.1694,-162.6428 1735.1616,-168.2455 1731.6259,-158.2581 1726.1694,-162.6428"/>
</g>
<!-- Node134&#45;&gt;Node139 -->
<g id="edge54" class="edge">
<title>Node134&#45;&gt;Node139</title>
<path fill="none" stroke="#191970" d="M1763.377,-161.928C1775.7871,-152.1397 1791.23,-139.9595 1801.7745,-131.6427"/>
<polygon fill="#191970" stroke="#191970" points="1761.0514,-159.3046 1755.3673,-168.2455 1765.3864,-164.8007 1761.0514,-159.3046"/>
</g>
<!-- Node134&#45;&gt;Node141 -->
<g id="edge56" class="edge">
<title>Node134&#45;&gt;Node141</title>
<path fill="none" stroke="#191970" d="M1784.425,-165.3235C1817.9856,-155.0536 1864.534,-140.8093 1894.9517,-131.5011"/>
<polygon fill="#191970" stroke="#191970" points="1782.9969,-162.1002 1774.4588,-168.3733 1785.0453,-168.7938 1782.9969,-162.1002"/>
</g>
<!-- Node137&#45;&gt;Node81 -->
<g id="edge51" class="edge">
<title>Node137&#45;&gt;Node81</title>
<path fill="none" stroke="#191970" d="M2032.6253,-104.5004C2024.8029,-94.9775 2015.424,-83.5596 2008.9208,-75.6427"/>
<polygon fill="#191970" stroke="#191970" points="2029.9354,-106.7399 2038.9874,-112.2455 2035.3445,-102.2967 2029.9354,-106.7399"/>
</g>
<!-- Node138&#45;&gt;Node82 -->
<g id="edge53" class="edge">
<title>Node138&#45;&gt;Node82</title>
<path fill="none" stroke="#191970" d="M1641.6065,-111.8994C1486.0137,-90.3987 1313.9571,-76.0376 1230.5157,-69.6743"/>
<polygon fill="#191970" stroke="#191970" points="1641.4425,-115.4104 1651.8302,-113.326 1642.4099,-108.4775 1641.4425,-115.4104"/>
</g>
<!-- Node139&#45;&gt;Node83 -->
<g id="edge55" class="edge">
<title>Node139&#45;&gt;Node83</title>
<path fill="none" stroke="#191970" d="M1751.8027,-111.6338C1689.6478,-101.2746 1594.9111,-85.4852 1534.7499,-75.4583"/>
<polygon fill="#191970" stroke="#191970" points="1751.4293,-115.1198 1761.8687,-113.3114 1752.5801,-108.215 1751.4293,-115.1198"/>
</g>
<!-- Node141&#45;&gt;Node89 -->
<g id="edge57" class="edge">
<title>Node141&#45;&gt;Node89</title>
<path fill="none" stroke="#191970" d="M1891.4435,-108.6541C1865.0014,-98.4419 1829.1831,-84.6086 1805.6011,-75.5011"/>
<polygon fill="#191970" stroke="#191970" points="1890.4842,-112.0354 1901.0736,-112.3733 1893.0061,-105.5055 1890.4842,-112.0354"/>
</g>
</g>
</svg>
