<?xml version="1.0" encoding="UTF-8" standalone="no"?>
<!DOCTYPE svg PUBLIC "-//W3C//DTD SVG 1.1//EN"
 "http://www.w3.org/Graphics/SVG/1.1/DTD/svg11.dtd">
<!-- Generated by graphviz version 2.40.1 (20161225.0304)
 -->
<!-- Title: FieldRepo.H Pages: 1 -->
<svg width="3758pt" height="252pt"
 viewBox="0.00 0.00 3758.00 252.00" xmlns="http://www.w3.org/2000/svg" xmlns:xlink="http://www.w3.org/1999/xlink">
<g id="graph0" class="graph" transform="scale(1 1) rotate(0) translate(4 248)">
<title>FieldRepo.H</title>
<polygon fill="#ffffff" stroke="transparent" points="-4,4 -4,-248 3754,-248 3754,4 -4,4"/>
<!-- Node18 -->
<g id="node1" class="node">
<title>Node18</title>
<polygon fill="#bfbfbf" stroke="#000000" points="2301.5,-224.5 2301.5,-243.5 2372.5,-243.5 2372.5,-224.5 2301.5,-224.5"/>
<text text-anchor="middle" x="2337" y="-231.5" font-family="Helvetica,sans-Serif" font-size="10.00" fill="#000000">FieldRepo.H</text>
</g>
<!-- Node19 -->
<g id="node2" class="node">
<title>Node19</title>
<g id="a_node2"><a xlink:href="_b_c_interface_8cpp.html" target="_top" xlink:title="BCInterface.cpp">
<polygon fill="#ffffff" stroke="#000000" points="0,-112.5 0,-131.5 88,-131.5 88,-112.5 0,-112.5"/>
<text text-anchor="middle" x="44" y="-119.5" font-family="Helvetica,sans-Serif" font-size="10.00" fill="#000000">BCInterface.cpp</text>
</a>
</g>
</g>
<!-- Node18&#45;&gt;Node19 -->
<g id="edge1" class="edge">
<title>Node18&#45;&gt;Node19</title>
<path fill="none" stroke="#191970" d="M2291.3062,-233.5733C1977.5277,-230.5812 152.3816,-212.1583 101,-188 75.7898,-176.1468 57.373,-147.2369 49.0077,-131.9126"/>
<polygon fill="#191970" stroke="#191970" points="2291.3754,-237.074 2301.4082,-233.6693 2291.4419,-230.0743 2291.3754,-237.074"/>
</g>
<!-- Node20 -->
<g id="node3" class="node">
<title>Node20</title>
<g id="a_node3"><a xlink:href="_fixed_gradient_b_c_8_h.html" target="_top" xlink:title="FixedGradientBC.H">
<polygon fill="#ffffff" stroke="#000000" points="110,-168.5 110,-187.5 212,-187.5 212,-168.5 110,-168.5"/>
<text text-anchor="middle" x="161" y="-175.5" font-family="Helvetica,sans-Serif" font-size="10.00" fill="#000000">FixedGradientBC.H</text>
</a>
</g>
</g>
<!-- Node18&#45;&gt;Node20 -->
<g id="edge2" class="edge">
<title>Node18&#45;&gt;Node20</title>
<path fill="none" stroke="#191970" d="M2291.0904,-233.4294C2025.1922,-230.0566 680.22,-212.0517 267,-188 249.1003,-186.9581 229.5469,-185.2701 212.1627,-183.5752"/>
<polygon fill="#191970" stroke="#191970" points="2291.1213,-236.93 2301.1648,-233.5567 2291.2098,-229.9305 2291.1213,-236.93"/>
</g>
<!-- Node22 -->
<g id="node5" class="node">
<title>Node22</title>
<g id="a_node5"><a xlink:href="_c_f_d_sim_8_h.html" target="_top" xlink:title="CFDSim.H">
<polygon fill="#ffffff" stroke="#ff0000" points="1133.5,-168.5 1133.5,-187.5 1198.5,-187.5 1198.5,-168.5 1133.5,-168.5"/>
<text text-anchor="middle" x="1166" y="-175.5" font-family="Helvetica,sans-Serif" font-size="10.00" fill="#000000">CFDSim.H</text>
</a>
</g>
</g>
<!-- Node18&#45;&gt;Node22 -->
<g id="edge5" class="edge">
<title>Node18&#45;&gt;Node22</title>
<path fill="none" stroke="#191970" d="M2291.295,-231.8143C2099.6087,-222.6474 1362.86,-187.4143 1198.5955,-179.5588"/>
<polygon fill="#191970" stroke="#191970" points="2291.1591,-235.3117 2301.3149,-232.2935 2291.4935,-228.3197 2291.1591,-235.3117"/>
</g>
<!-- Node23 -->
<g id="node6" class="node">
<title>Node23</title>
<g id="a_node6"><a xlink:href="incflo_8_h.html" target="_top" xlink:title="incflo.H">
<polygon fill="#ffffff" stroke="#ff0000" points="234,-112.5 234,-131.5 284,-131.5 284,-112.5 234,-112.5"/>
<text text-anchor="middle" x="259" y="-119.5" font-family="Helvetica,sans-Serif" font-size="10.00" fill="#000000">incflo.H</text>
</a>
</g>
</g>
<!-- Node18&#45;&gt;Node23 -->
<g id="edge35" class="edge">
<title>Node18&#45;&gt;Node23</title>
<path fill="none" stroke="#191970" d="M2291.1271,-233.6453C2003.2686,-231.3302 455.1399,-217.5382 360,-188 322.7914,-176.4478 286.3343,-146.8414 269.1789,-131.5142"/>
<polygon fill="#191970" stroke="#191970" points="2291.1888,-237.1458 2301.2165,-233.7258 2291.2448,-230.146 2291.1888,-237.1458"/>
</g>
<!-- Node85 -->
<g id="node20" class="node">
<title>Node85</title>
<g id="a_node20"><a xlink:href="_p_d_e_base_8cpp.html" target="_top" xlink:title="PDEBase.cpp">
<polygon fill="#ffffff" stroke="#000000" points="302.5,-112.5 302.5,-131.5 381.5,-131.5 381.5,-112.5 302.5,-112.5"/>
<text text-anchor="middle" x="342" y="-119.5" font-family="Helvetica,sans-Serif" font-size="10.00" fill="#000000">PDEBase.cpp</text>
</a>
</g>
</g>
<!-- Node18&#45;&gt;Node85 -->
<g id="edge62" class="edge">
<title>Node18&#45;&gt;Node85</title>
<path fill="none" stroke="#191970" d="M2291.253,-233.522C2000.9328,-230.4156 425.7876,-212.4549 383,-188 361.451,-175.6839 349.6981,-146.9765 344.7915,-131.8028"/>
<polygon fill="#191970" stroke="#191970" points="2291.3855,-237.0235 2301.4223,-233.6303 2291.4602,-230.0239 2291.3855,-237.0235"/>
</g>
<!-- Node90 -->
<g id="node25" class="node">
<title>Node90</title>
<g id="a_node25"><a xlink:href="_tioga_interface_8cpp.html" target="_top" xlink:title="TiogaInterface.cpp">
<polygon fill="#ffffff" stroke="#000000" points="1762,-112.5 1762,-131.5 1860,-131.5 1860,-112.5 1762,-112.5"/>
<text text-anchor="middle" x="1811" y="-119.5" font-family="Helvetica,sans-Serif" font-size="10.00" fill="#000000">TiogaInterface.cpp</text>
</a>
</g>
</g>
<!-- Node18&#45;&gt;Node90 -->
<g id="edge68" class="edge">
<title>Node18&#45;&gt;Node90</title>
<path fill="none" stroke="#191970" d="M2291.4514,-232.7685C2192.2497,-229.5355 1959.8083,-218.8148 1888,-188 1858.2289,-175.2245 1831.4755,-146.7181 1818.7816,-131.6938"/>
<polygon fill="#191970" stroke="#191970" points="2291.3645,-236.2674 2301.4698,-233.0842 2291.585,-229.2709 2291.3645,-236.2674"/>
</g>
<!-- Node110 -->
<g id="node28" class="node">
<title>Node110</title>
<g id="a_node28"><a xlink:href="_godunov_8_h.html" target="_top" xlink:title="Godunov.H">
<polygon fill="#ffffff" stroke="#ff0000" points="2117,-168.5 2117,-187.5 2183,-187.5 2183,-168.5 2117,-168.5"/>
<text text-anchor="middle" x="2150" y="-175.5" font-family="Helvetica,sans-Serif" font-size="10.00" fill="#000000">Godunov.H</text>
</a>
</g>
</g>
<!-- Node18&#45;&gt;Node110 -->
<g id="edge36" class="edge">
<title>Node18&#45;&gt;Node110</title>
<path fill="none" stroke="#191970" d="M2295.1123,-221.4561C2260.7857,-211.1765 2212.9435,-196.8494 2181.727,-187.5011"/>
<polygon fill="#191970" stroke="#191970" points="2294.2698,-224.8573 2304.8536,-224.3733 2296.278,-218.1515 2294.2698,-224.8573"/>
</g>
<!-- Node115 -->
<g id="node29" class="node">
<title>Node115</title>
<g id="a_node29"><a xlink:href="mac__projection_8_h.html" target="_top" xlink:title="mac_projection.H">
<polygon fill="#ffffff" stroke="#ff0000" points="2201.5,-168.5 2201.5,-187.5 2294.5,-187.5 2294.5,-168.5 2201.5,-168.5"/>
<text text-anchor="middle" x="2248" y="-175.5" font-family="Helvetica,sans-Serif" font-size="10.00" fill="#000000">mac_projection.H</text>
</a>
</g>
</g>
<!-- Node18&#45;&gt;Node115 -->
<g id="edge37" class="edge">
<title>Node18&#45;&gt;Node115</title>
<path fill="none" stroke="#191970" d="M2312.7936,-218.769C2297.0225,-208.8456 2276.924,-196.1994 2263.325,-187.6427"/>
<polygon fill="#191970" stroke="#191970" points="2311.1695,-221.8823 2321.4974,-224.2455 2314.8974,-215.9575 2311.1695,-221.8823"/>
</g>
<!-- Node117 -->
<g id="node30" class="node">
<title>Node117</title>
<g id="a_node30"><a xlink:href="_m_o_l_8_h.html" target="_top" xlink:title="MOL.H">
<polygon fill="#ffffff" stroke="#ff0000" points="2313,-168.5 2313,-187.5 2361,-187.5 2361,-168.5 2313,-168.5"/>
<text text-anchor="middle" x="2337" y="-175.5" font-family="Helvetica,sans-Serif" font-size="10.00" fill="#000000">MOL.H</text>
</a>
</g>
</g>
<!-- Node18&#45;&gt;Node117 -->
<g id="edge38" class="edge">
<title>Node18&#45;&gt;Node117</title>
<path fill="none" stroke="#191970" d="M2337,-214.1575C2337,-205.155 2337,-194.9199 2337,-187.6427"/>
<polygon fill="#191970" stroke="#191970" points="2333.5001,-214.2455 2337,-224.2455 2340.5001,-214.2456 2333.5001,-214.2455"/>
</g>
<!-- Node120 -->
<g id="node31" class="node">
<title>Node120</title>
<g id="a_node31"><a xlink:href="_field_8cpp.html" target="_top" xlink:title="Field.cpp">
<polygon fill="#ffffff" stroke="#000000" points="2379,-168.5 2379,-187.5 2435,-187.5 2435,-168.5 2379,-168.5"/>
<text text-anchor="middle" x="2407" y="-175.5" font-family="Helvetica,sans-Serif" font-size="10.00" fill="#000000">Field.cpp</text>
</a>
</g>
</g>
<!-- Node18&#45;&gt;Node120 -->
<g id="edge39" class="edge">
<title>Node18&#45;&gt;Node120</title>
<path fill="none" stroke="#191970" d="M2357.09,-217.928C2369.3253,-208.1397 2384.5507,-195.9595 2394.9467,-187.6427"/>
<polygon fill="#191970" stroke="#191970" points="2354.8153,-215.2655 2349.1931,-224.2455 2359.1882,-220.7316 2354.8153,-215.2655"/>
</g>
<!-- Node121 -->
<g id="node32" class="node">
<title>Node121</title>
<g id="a_node32"><a xlink:href="_field_repo_8cpp.html" target="_top" xlink:title="FieldRepo.cpp">
<polygon fill="#ffffff" stroke="#000000" points="2453,-168.5 2453,-187.5 2533,-187.5 2533,-168.5 2453,-168.5"/>
<text text-anchor="middle" x="2493" y="-175.5" font-family="Helvetica,sans-Serif" font-size="10.00" fill="#000000">FieldRepo.cpp</text>
</a>
</g>
</g>
<!-- Node18&#45;&gt;Node121 -->
<g id="edge40" class="edge">
<title>Node18&#45;&gt;Node121</title>
<path fill="none" stroke="#191970" d="M2373.4284,-220.9231C2401.9461,-210.686 2440.9381,-196.6889 2466.5326,-187.5011"/>
<polygon fill="#191970" stroke="#191970" points="2372.0468,-217.7004 2363.8174,-224.3733 2374.4119,-224.2887 2372.0468,-217.7004"/>
</g>
<!-- Node122 -->
<g id="node33" class="node">
<title>Node122</title>
<g id="a_node33"><a xlink:href="_int_field_8cpp.html" target="_top" xlink:title="IntField.cpp">
<polygon fill="#ffffff" stroke="#000000" points="2551,-168.5 2551,-187.5 2619,-187.5 2619,-168.5 2551,-168.5"/>
<text text-anchor="middle" x="2585" y="-175.5" font-family="Helvetica,sans-Serif" font-size="10.00" fill="#000000">IntField.cpp</text>
</a>
</g>
</g>
<!-- Node18&#45;&gt;Node122 -->
<g id="edge41" class="edge">
<title>Node18&#45;&gt;Node122</title>
<path fill="none" stroke="#191970" d="M2382.3929,-223.9203C2423.9488,-214.6674 2487.1398,-200.5339 2542,-188 2544.8393,-187.3513 2547.7832,-186.6748 2550.738,-185.9932"/>
<polygon fill="#191970" stroke="#191970" points="2381.5727,-220.5171 2372.5718,-226.1059 2383.0933,-227.35 2381.5727,-220.5171"/>
</g>
<!-- Node123 -->
<g id="node34" class="node">
<title>Node123</title>
<g id="a_node34"><a xlink:href="_scratch_field_8cpp.html" target="_top" xlink:title="ScratchField.cpp">
<polygon fill="#ffffff" stroke="#000000" points="2637,-168.5 2637,-187.5 2727,-187.5 2727,-168.5 2637,-168.5"/>
<text text-anchor="middle" x="2682" y="-175.5" font-family="Helvetica,sans-Serif" font-size="10.00" fill="#000000">ScratchField.cpp</text>
</a>
</g>
</g>
<!-- Node18&#45;&gt;Node123 -->
<g id="edge42" class="edge">
<title>Node18&#45;&gt;Node123</title>
<path fill="none" stroke="#191970" d="M2383.091,-227.0974C2440.5201,-218.4086 2541.6273,-202.8215 2628,-188 2630.9131,-187.5001 2633.9125,-186.9747 2636.9346,-186.4372"/>
<polygon fill="#191970" stroke="#191970" points="2382.2548,-223.6839 2372.8894,-228.6378 2383.2999,-230.6055 2382.2548,-223.6839"/>
</g>
<!-- Node124 -->
<g id="node35" class="node">
<title>Node124</title>
<g id="a_node35"><a xlink:href="field__algebra_8cpp.html" target="_top" xlink:title="field_algebra.cpp">
<polygon fill="#ffffff" stroke="#000000" points="2745,-168.5 2745,-187.5 2835,-187.5 2835,-168.5 2745,-168.5"/>
<text text-anchor="middle" x="2790" y="-175.5" font-family="Helvetica,sans-Serif" font-size="10.00" fill="#000000">field_algebra.cpp</text>
</a>
</g>
</g>
<!-- Node18&#45;&gt;Node124 -->
<g id="edge43" class="edge">
<title>Node18&#45;&gt;Node124</title>
<path fill="none" stroke="#191970" d="M2383.0112,-229.7267C2457.411,-222.5855 2608.6574,-207.1087 2736,-188 2738.9229,-187.5614 2741.9298,-187.0824 2744.9574,-186.5792"/>
<polygon fill="#191970" stroke="#191970" points="2382.2262,-226.2856 2372.6037,-230.7193 2382.8909,-233.254 2382.2262,-226.2856"/>
</g>
<!-- Node125 -->
<g id="node36" class="node">
<title>Node125</title>
<g id="a_node36"><a xlink:href="diffusion_8_h.html" target="_top" xlink:title="diffusion.H">
<polygon fill="#ffffff" stroke="#ff0000" points="2853,-168.5 2853,-187.5 2917,-187.5 2917,-168.5 2853,-168.5"/>
<text text-anchor="middle" x="2885" y="-175.5" font-family="Helvetica,sans-Serif" font-size="10.00" fill="#000000">diffusion.H</text>
</a>
</g>
</g>
<!-- Node18&#45;&gt;Node125 -->
<g id="edge44" class="edge">
<title>Node18&#45;&gt;Node125</title>
<path fill="none" stroke="#191970" d="M2382.6191,-232.1374C2471.7863,-227.9956 2675.2245,-216.0786 2844,-188 2846.891,-187.519 2849.8795,-186.9442 2852.8645,-186.3167"/>
<polygon fill="#191970" stroke="#191970" points="2382.4053,-228.6435 2372.5743,-232.5934 2382.7228,-235.6363 2382.4053,-228.6435"/>
</g>
<!-- Node126 -->
<g id="node37" class="node">
<title>Node126</title>
<g id="a_node37"><a xlink:href="_source_term_8_h.html" target="_top" xlink:title="SourceTerm.H">
<polygon fill="#ffffff" stroke="#ff0000" points="2935,-168.5 2935,-187.5 3015,-187.5 3015,-168.5 2935,-168.5"/>
<text text-anchor="middle" x="2975" y="-175.5" font-family="Helvetica,sans-Serif" font-size="10.00" fill="#000000">SourceTerm.H</text>
</a>
</g>
</g>
<!-- Node18&#45;&gt;Node126 -->
<g id="edge45" class="edge">
<title>Node18&#45;&gt;Node126</title>
<path fill="none" stroke="#191970" d="M2382.6793,-232.353C2481.9551,-228.3534 2724.6529,-216.298 2926,-188 2928.9232,-187.5892 2931.9343,-187.1111 2934.9583,-186.5908"/>
<polygon fill="#191970" stroke="#191970" points="2382.5405,-228.8557 2372.6864,-232.7478 2382.8168,-235.8502 2382.5405,-228.8557"/>
</g>
<!-- Node128 -->
<g id="node38" class="node">
<title>Node128</title>
<g id="a_node38"><a xlink:href="_p_d_e_helpers_8_h.html" target="_top" xlink:title="PDEHelpers.H">
<polygon fill="#ffffff" stroke="#ff0000" points="392,-168.5 392,-187.5 474,-187.5 474,-168.5 392,-168.5"/>
<text text-anchor="middle" x="433" y="-175.5" font-family="Helvetica,sans-Serif" font-size="10.00" fill="#000000">PDEHelpers.H</text>
</a>
</g>
</g>
<!-- Node18&#45;&gt;Node128 -->
<g id="edge46" class="edge">
<title>Node18&#45;&gt;Node128</title>
<path fill="none" stroke="#191970" d="M2290.752,-232.6398C2027.718,-224.9035 723.2186,-186.5358 474.1365,-179.2099"/>
<polygon fill="#191970" stroke="#191970" points="2290.9855,-236.1481 2301.0841,-232.9437 2291.1914,-229.1511 2290.9855,-236.1481"/>
</g>
<!-- Node129 -->
<g id="node39" class="node">
<title>Node129</title>
<g id="a_node39"><a xlink:href="_density_source_8_h.html" target="_top" xlink:title="DensitySource.H">
<polygon fill="#ffffff" stroke="#ff0000" points="3033,-168.5 3033,-187.5 3125,-187.5 3125,-168.5 3033,-168.5"/>
<text text-anchor="middle" x="3079" y="-175.5" font-family="Helvetica,sans-Serif" font-size="10.00" fill="#000000">DensitySource.H</text>
</a>
</g>
</g>
<!-- Node18&#45;&gt;Node129 -->
<g id="edge49" class="edge">
<title>Node18&#45;&gt;Node129</title>
<path fill="none" stroke="#191970" d="M2382.6516,-232.7259C2493.1294,-229.2552 2783.5249,-217.8154 3024,-188 3026.8894,-187.6418 3029.8569,-187.2301 3032.8446,-186.7826"/>
<polygon fill="#191970" stroke="#191970" points="2382.4173,-229.2314 2372.5296,-233.0373 2382.6325,-236.2281 2382.4173,-229.2314"/>
</g>
<!-- Node130 -->
<g id="node40" class="node">
<title>Node130</title>
<g id="a_node40"><a xlink:href="_momentum_source_8_h.html" target="_top" xlink:title="MomentumSource.H">
<polygon fill="#ffffff" stroke="#ff0000" points="1915.5,-168.5 1915.5,-187.5 2022.5,-187.5 2022.5,-168.5 1915.5,-168.5"/>
<text text-anchor="middle" x="1969" y="-175.5" font-family="Helvetica,sans-Serif" font-size="10.00" fill="#000000">MomentumSource.H</text>
</a>
</g>
</g>
<!-- Node18&#45;&gt;Node130 -->
<g id="edge50" class="edge">
<title>Node18&#45;&gt;Node130</title>
<path fill="none" stroke="#191970" d="M2291.3762,-227.0572C2223.2381,-216.6884 2095.1607,-197.1984 2022.6376,-186.1622"/>
<polygon fill="#191970" stroke="#191970" points="2290.9675,-230.5353 2301.3802,-228.5796 2292.0206,-223.6149 2290.9675,-230.5353"/>
</g>
<!-- Node133 -->
<g id="node41" class="node">
<title>Node133</title>
<g id="a_node41"><a xlink:href="_boussinesq_buoyancy_8_h.html" target="_top" xlink:title="BoussinesqBuoyancy.H">
<polygon fill="#ffffff" stroke="#000000" points="2102,-112.5 2102,-131.5 2224,-131.5 2224,-112.5 2102,-112.5"/>
<text text-anchor="middle" x="2163" y="-119.5" font-family="Helvetica,sans-Serif" font-size="10.00" fill="#000000">BoussinesqBuoyancy.H</text>
</a>
</g>
</g>
<!-- Node18&#45;&gt;Node133 -->
<g id="edge59" class="edge">
<title>Node18&#45;&gt;Node133</title>
<path fill="none" stroke="#191970" d="M2291.0201,-231.8495C2228.8181,-227.8666 2122.8652,-216.9195 2099,-188 2081.4251,-166.703 2116.8313,-144.0493 2141.6375,-131.5985"/>
<polygon fill="#191970" stroke="#191970" points="2291.1591,-235.3642 2301.3518,-232.473 2291.5808,-228.3769 2291.1591,-235.3642"/>
</g>
<!-- Node134 -->
<g id="node42" class="node">
<title>Node134</title>
<g id="a_node42"><a xlink:href="_coriolis_forcing_8_h.html" target="_top" xlink:title="CoriolisForcing.H">
<polygon fill="#ffffff" stroke="#000000" points="2242,-112.5 2242,-131.5 2334,-131.5 2334,-112.5 2242,-112.5"/>
<text text-anchor="middle" x="2288" y="-119.5" font-family="Helvetica,sans-Serif" font-size="10.00" fill="#000000">CoriolisForcing.H</text>
</a>
</g>
</g>
<!-- Node18&#45;&gt;Node134 -->
<g id="edge60" class="edge">
<title>Node18&#45;&gt;Node134</title>
<path fill="none" stroke="#191970" d="M2291.3025,-231.4767C2231.2492,-227.0959 2130.7117,-215.7275 2108,-188 2102.3674,-181.1235 2102.548,-175.0205 2108,-168 2116.309,-157.3006 2191.2319,-140.8336 2241.7597,-130.7768"/>
<polygon fill="#191970" stroke="#191970" points="2291.0776,-234.9694 2301.2956,-232.1687 2291.5613,-227.9862 2291.0776,-234.9694"/>
</g>
<!-- Node135 -->
<g id="node43" class="node">
<title>Node135</title>
<g id="a_node43"><a xlink:href="_density_buoyancy_8_h.html" target="_top" xlink:title="DensityBuoyancy.H">
<polygon fill="#ffffff" stroke="#000000" points="1878,-112.5 1878,-131.5 1982,-131.5 1982,-112.5 1878,-112.5"/>
<text text-anchor="middle" x="1930" y="-119.5" font-family="Helvetica,sans-Serif" font-size="10.00" fill="#000000">DensityBuoyancy.H</text>
</a>
</g>
</g>
<!-- Node18&#45;&gt;Node135 -->
<g id="edge61" class="edge">
<title>Node18&#45;&gt;Node135</title>
<path fill="none" stroke="#191970" d="M2291.2909,-232.6034C2184.1743,-228.8604 1923.9955,-216.8617 1898,-188 1882.8303,-171.1578 1904.2267,-145.8284 1918.6734,-131.9569"/>
<polygon fill="#191970" stroke="#191970" points="2291.3549,-236.1075 2301.4683,-232.9501 2291.5933,-229.1115 2291.3549,-236.1075"/>
</g>
<!-- Node137 -->
<g id="node44" class="node">
<title>Node137</title>
<g id="a_node44"><a xlink:href="_m_m_s_forcing_8_h.html" target="_top" xlink:title="MMSForcing.H">
<polygon fill="#ffffff" stroke="#000000" points="2000.5,-112.5 2000.5,-131.5 2083.5,-131.5 2083.5,-112.5 2000.5,-112.5"/>
<text text-anchor="middle" x="2042" y="-119.5" font-family="Helvetica,sans-Serif" font-size="10.00" fill="#000000">MMSForcing.H</text>
</a>
</g>
</g>
<!-- Node18&#45;&gt;Node137 -->
<g id="edge67" class="edge">
<title>Node18&#45;&gt;Node137</title>
<path fill="none" stroke="#191970" d="M2291.471,-232.5029C2186.0819,-228.5695 1932.377,-216.2366 1907,-188 1901.0583,-181.3888 1901.8266,-175.2283 1907,-168 1918.1325,-152.4457 1964.9989,-138.9113 2000.4125,-130.6241"/>
<polygon fill="#191970" stroke="#191970" points="2291.3711,-236.0015 2301.4919,-232.8682 2291.6261,-229.0061 2291.3711,-236.0015"/>
</g>
<!-- Node138 -->
<g id="node45" class="node">
<title>Node138</title>
<g id="a_node45"><a xlink:href="_s_d_r_source_8_h.html" target="_top" xlink:title="SDRSource.H">
<polygon fill="#ffffff" stroke="#ff0000" points="3143,-168.5 3143,-187.5 3223,-187.5 3223,-168.5 3143,-168.5"/>
<text text-anchor="middle" x="3183" y="-175.5" font-family="Helvetica,sans-Serif" font-size="10.00" fill="#000000">SDRSource.H</text>
</a>
</g>
</g>
<!-- Node18&#45;&gt;Node138 -->
<g id="edge63" class="edge">
<title>Node18&#45;&gt;Node138</title>
<path fill="none" stroke="#191970" d="M2382.638,-233.6553C2504.9119,-232.2381 2849.8814,-224.996 3134,-188 3136.9273,-187.6188 3139.9413,-187.1625 3142.9674,-186.6577"/>
<polygon fill="#191970" stroke="#191970" points="2382.4827,-230.1567 2372.5212,-233.765 2382.5586,-237.1563 2382.4827,-230.1567"/>
</g>
<!-- Node139 -->
<g id="node46" class="node">
<title>Node139</title>
<g id="a_node46"><a xlink:href="_temperature_source_8_h.html" target="_top" xlink:title="TemperatureSource.H">
<polygon fill="#ffffff" stroke="#ff0000" points="3241.5,-168.5 3241.5,-187.5 3354.5,-187.5 3354.5,-168.5 3241.5,-168.5"/>
<text text-anchor="middle" x="3298" y="-175.5" font-family="Helvetica,sans-Serif" font-size="10.00" fill="#000000">TemperatureSource.H</text>
</a>
</g>
</g>
<!-- Node18&#45;&gt;Node139 -->
<g id="edge64" class="edge">
<title>Node18&#45;&gt;Node139</title>
<path fill="none" stroke="#191970" d="M2383.0806,-233.2407C2515.4299,-230.7139 2907.9632,-220.7941 3232,-188 3234.9979,-187.6966 3238.0676,-187.3517 3241.1636,-186.9768"/>
<polygon fill="#191970" stroke="#191970" points="2382.8402,-229.7445 2372.9071,-233.4301 2382.9705,-236.7433 2382.8402,-229.7445"/>
</g>
<!-- Node140 -->
<g id="node47" class="node">
<title>Node140</title>
<g id="a_node47"><a xlink:href="_t_k_e_source_8_h.html" target="_top" xlink:title="TKESource.H">
<polygon fill="#ffffff" stroke="#ff0000" points="3372.5,-168.5 3372.5,-187.5 3449.5,-187.5 3449.5,-168.5 3372.5,-168.5"/>
<text text-anchor="middle" x="3411" y="-175.5" font-family="Helvetica,sans-Serif" font-size="10.00" fill="#000000">TKESource.H</text>
</a>
</g>
</g>
<!-- Node18&#45;&gt;Node140 -->
<g id="edge65" class="edge">
<title>Node18&#45;&gt;Node140</title>
<path fill="none" stroke="#191970" d="M2382.6589,-232.9571C2555.5475,-228.8522 3170.0151,-212.8089 3364,-188 3366.7307,-187.6508 3369.5385,-187.2254 3372.3579,-186.7493"/>
<polygon fill="#191970" stroke="#191970" points="2382.5383,-229.4588 2372.6236,-233.1936 2382.7033,-236.4569 2382.5383,-229.4588"/>
</g>
<!-- Node143 -->
<g id="node48" class="node">
<title>Node143</title>
<g id="a_node48"><a xlink:href="fvm__utils_8_h.html" target="_top" xlink:title="fvm_utils.H">
<polygon fill="#ffffff" stroke="#ff0000" points="3467.5,-168.5 3467.5,-187.5 3534.5,-187.5 3534.5,-168.5 3467.5,-168.5"/>
<text text-anchor="middle" x="3501" y="-175.5" font-family="Helvetica,sans-Serif" font-size="10.00" fill="#000000">fvm_utils.H</text>
</a>
</g>
</g>
<!-- Node18&#45;&gt;Node143 -->
<g id="edge66" class="edge">
<title>Node18&#45;&gt;Node143</title>
<path fill="none" stroke="#191970" d="M2382.618,-233.3032C2565.4724,-230.3286 3245.7599,-217.4761 3459,-188 3461.673,-187.6305 3464.4247,-187.1672 3467.1803,-186.6437"/>
<polygon fill="#191970" stroke="#191970" points="2382.4807,-229.8049 2372.5383,-233.4653 2382.5934,-236.8039 2382.4807,-229.8049"/>
</g>
<!-- Node150 -->
<g id="node49" class="node">
<title>Node150</title>
<g id="a_node49"><a xlink:href="_transport_model_8_h.html" target="_top" xlink:title="TransportModel.H">
<polygon fill="#ffffff" stroke="#ff0000" points="3552.5,-168.5 3552.5,-187.5 3647.5,-187.5 3647.5,-168.5 3552.5,-168.5"/>
<text text-anchor="middle" x="3600" y="-175.5" font-family="Helvetica,sans-Serif" font-size="10.00" fill="#000000">TransportModel.H</text>
</a>
</g>
</g>
<!-- Node18&#45;&gt;Node150 -->
<g id="edge69" class="edge">
<title>Node18&#45;&gt;Node150</title>
<path fill="none" stroke="#191970" d="M2382.8349,-233.1044C2574.5006,-229.228 3312.5192,-212.9572 3544,-188 3546.7494,-187.7036 3549.5672,-187.3524 3552.4057,-186.9619"/>
<polygon fill="#191970" stroke="#191970" points="2382.4848,-229.6106 2372.5572,-233.311 2382.6255,-236.6092 2382.4848,-229.6106"/>
</g>
<!-- Node102 -->
<g id="node50" class="node">
<title>Node102</title>
<g id="a_node50"><a xlink:href="_smagorinsky_8_h.html" target="_top" xlink:title="Smagorinsky.H">
<polygon fill="#ffffff" stroke="#ff0000" points="3666,-168.5 3666,-187.5 3750,-187.5 3750,-168.5 3666,-168.5"/>
<text text-anchor="middle" x="3708" y="-175.5" font-family="Helvetica,sans-Serif" font-size="10.00" fill="#000000">Smagorinsky.H</text>
</a>
</g>
</g>
<!-- Node18&#45;&gt;Node102 -->
<g id="edge70" class="edge">
<title>Node18&#45;&gt;Node102</title>
<path fill="none" stroke="#191970" d="M2382.8076,-233.3806C2585.4238,-230.4909 3402.2931,-217.2219 3657,-188 3659.8685,-187.6709 3662.8167,-187.2678 3665.7799,-186.8144"/>
<polygon fill="#191970" stroke="#191970" points="2382.7518,-229.881 2372.8023,-233.522 2382.8507,-236.8803 2382.7518,-229.881"/>
</g>
<!-- Node20&#45;&gt;Node19 -->
<g id="edge3" class="edge">
<title>Node20&#45;&gt;Node19</title>
<path fill="none" stroke="#191970" d="M131.6958,-163.9741C110.512,-153.8348 82.4597,-140.408 63.8506,-131.5011"/>
<polygon fill="#191970" stroke="#191970" points="130.3559,-167.2129 140.887,-168.3733 133.378,-160.8989 130.3559,-167.2129"/>
</g>
<!-- Node21 -->
<g id="node4" class="node">
<title>Node21</title>
<g id="a_node4"><a xlink:href="_fixed_gradient_b_c_8cpp.html" target="_top" xlink:title="FixedGradientBC.cpp">
<polygon fill="#ffffff" stroke="#000000" points="106,-112.5 106,-131.5 216,-131.5 216,-112.5 106,-112.5"/>
<text text-anchor="middle" x="161" y="-119.5" font-family="Helvetica,sans-Serif" font-size="10.00" fill="#000000">FixedGradientBC.cpp</text>
</a>
</g>
</g>
<!-- Node20&#45;&gt;Node21 -->
<g id="edge4" class="edge">
<title>Node20&#45;&gt;Node21</title>
<path fill="none" stroke="#191970" d="M161,-158.1575C161,-149.155 161,-138.9199 161,-131.6427"/>
<polygon fill="#191970" stroke="#191970" points="157.5001,-158.2455 161,-168.2455 164.5001,-158.2456 157.5001,-158.2455"/>
</g>
<!-- Node22&#45;&gt;Node23 -->
<g id="edge6" class="edge">
<title>Node22&#45;&gt;Node23</title>
<path fill="none" stroke="#191970" d="M1122.7782,-177.0569C969.9196,-173.5134 455.3485,-159.7591 293,-132 290.0889,-131.5022 287.0742,-130.8396 284.097,-130.0914"/>
<polygon fill="#191970" stroke="#191970" points="1123.0715,-180.5644 1133.1491,-177.2944 1123.2319,-173.5663 1123.0715,-180.5644"/>
</g>
<!-- Node43 -->
<g id="node7" class="node">
<title>Node43</title>
<g id="a_node7"><a xlink:href="_c_f_d_sim_8cpp.html" target="_top" xlink:title="CFDSim.cpp">
<polygon fill="#ffffff" stroke="#000000" points="1064,-112.5 1064,-131.5 1138,-131.5 1138,-112.5 1064,-112.5"/>
<text text-anchor="middle" x="1101" y="-119.5" font-family="Helvetica,sans-Serif" font-size="10.00" fill="#000000">CFDSim.cpp</text>
</a>
</g>
</g>
<!-- Node22&#45;&gt;Node43 -->
<g id="edge7" class="edge">
<title>Node22&#45;&gt;Node43</title>
<path fill="none" stroke="#191970" d="M1147.0165,-161.645C1135.7121,-151.9058 1121.753,-139.8795 1112.1924,-131.6427"/>
<polygon fill="#191970" stroke="#191970" points="1144.8173,-164.3701 1154.6779,-168.2455 1149.3862,-159.0668 1144.8173,-164.3701"/>
</g>
<!-- Node44 -->
<g id="node8" class="node">
<title>Node44</title>
<g id="a_node8"><a xlink:href="_p_d_e_ops_8_h.html" target="_top" xlink:title="PDEOps.H">
<polygon fill="#ffffff" stroke="#ff0000" points="400,-112.5 400,-131.5 466,-131.5 466,-112.5 400,-112.5"/>
<text text-anchor="middle" x="433" y="-119.5" font-family="Helvetica,sans-Serif" font-size="10.00" fill="#000000">PDEOps.H</text>
</a>
</g>
</g>
<!-- Node22&#45;&gt;Node44 -->
<g id="edge8" class="edge">
<title>Node22&#45;&gt;Node44</title>
<path fill="none" stroke="#191970" d="M1123.1441,-177.2477C1014.8634,-174.8879 721.7017,-165.6415 480,-132 475.4555,-131.3675 470.6943,-130.5452 466.0193,-129.6438"/>
<polygon fill="#191970" stroke="#191970" points="1123.2663,-180.7509 1133.3374,-177.4612 1123.413,-173.7525 1123.2663,-180.7509"/>
</g>
<!-- Node57 -->
<g id="node9" class="node">
<title>Node57</title>
<g id="a_node9"><a xlink:href="_p_d_e_8_h.html" target="_top" xlink:title="PDE.H">
<polygon fill="#ffffff" stroke="#ff0000" points="446,-56.5 446,-75.5 494,-75.5 494,-56.5 446,-56.5"/>
<text text-anchor="middle" x="470" y="-63.5" font-family="Helvetica,sans-Serif" font-size="10.00" fill="#000000">PDE.H</text>
</a>
</g>
</g>
<!-- Node22&#45;&gt;Node57 -->
<g id="edge10" class="edge">
<title>Node22&#45;&gt;Node57</title>
<path fill="none" stroke="#191970" d="M1122.9558,-176.5035C990.2306,-171.6586 593.0453,-155.3504 540,-132 511.8715,-119.6179 488.0156,-90.9394 476.8217,-75.7871"/>
<polygon fill="#191970" stroke="#191970" points="1123.025,-180.0082 1133.145,-176.8719 1123.2779,-173.0128 1123.025,-180.0082"/>
</g>
<!-- Node68 -->
<g id="node10" class="node">
<title>Node68</title>
<g id="a_node10"><a xlink:href="_a_b_l_forcing_8cpp.html" target="_top" xlink:title="ABLForcing.cpp">
<polygon fill="#ffffff" stroke="#000000" points="1194,-112.5 1194,-131.5 1280,-131.5 1280,-112.5 1194,-112.5"/>
<text text-anchor="middle" x="1237" y="-119.5" font-family="Helvetica,sans-Serif" font-size="10.00" fill="#000000">ABLForcing.cpp</text>
</a>
</g>
</g>
<!-- Node22&#45;&gt;Node68 -->
<g id="edge11" class="edge">
<title>Node22&#45;&gt;Node68</title>
<path fill="none" stroke="#191970" d="M1186.377,-161.928C1198.7871,-152.1397 1214.23,-139.9595 1224.7745,-131.6427"/>
<polygon fill="#191970" stroke="#191970" points="1184.0514,-159.3046 1178.3673,-168.2455 1188.3864,-164.8007 1184.0514,-159.3046"/>
</g>
<!-- Node69 -->
<g id="node11" class="node">
<title>Node69</title>
<g id="a_node11"><a xlink:href="_a_b_l_wall_function_8_h.html" target="_top" xlink:title="ABLWallFunction.H">
<polygon fill="#ffffff" stroke="#ff0000" points="1436.5,-56.5 1436.5,-75.5 1539.5,-75.5 1539.5,-56.5 1436.5,-56.5"/>
<text text-anchor="middle" x="1488" y="-63.5" font-family="Helvetica,sans-Serif" font-size="10.00" fill="#000000">ABLWallFunction.H</text>
</a>
</g>
</g>
<!-- Node22&#45;&gt;Node69 -->
<g id="edge12" class="edge">
<title>Node22&#45;&gt;Node69</title>
<path fill="none" stroke="#191970" d="M1208.9347,-176.1921C1306.7912,-171.6317 1539.733,-158.1185 1563,-132 1582.7861,-109.7889 1542.4023,-87.7167 1513.5869,-75.5655"/>
<polygon fill="#191970" stroke="#191970" points="1208.6226,-172.7026 1198.7926,-176.6551 1208.9419,-179.6954 1208.6226,-172.7026"/>
</g>
<!-- Node72 -->
<g id="node12" class="node">
<title>Node72</title>
<g id="a_node12"><a xlink:href="_a_b_l_stats_8_h.html" target="_top" xlink:title="ABLStats.H">
<polygon fill="#ffffff" stroke="#ff0000" points="1321.5,-.5 1321.5,-19.5 1390.5,-19.5 1390.5,-.5 1321.5,-.5"/>
<text text-anchor="middle" x="1356" y="-7.5" font-family="Helvetica,sans-Serif" font-size="10.00" fill="#000000">ABLStats.H</text>
</a>
</g>
</g>
<!-- Node22&#45;&gt;Node72 -->
<g id="edge18" class="edge">
<title>Node22&#45;&gt;Node72</title>
<path fill="none" stroke="#191970" d="M1167.7973,-158.38C1169.9466,-144.259 1174.6618,-125.4137 1185,-112 1222.1394,-63.812 1289.0364,-33.6716 1327.2201,-19.5396"/>
<polygon fill="#191970" stroke="#191970" points="1164.2997,-158.1481 1166.5652,-168.4979 1171.2484,-158.9943 1164.2997,-158.1481"/>
</g>
<!-- Node74 -->
<g id="node13" class="node">
<title>Node74</title>
<g id="a_node13"><a xlink:href="_boussinesq_bubble_8cpp.html" target="_top" xlink:title="BoussinesqBubble.cpp">
<polygon fill="#ffffff" stroke="#000000" points="1485,-.5 1485,-19.5 1601,-19.5 1601,-.5 1485,-.5"/>
<text text-anchor="middle" x="1543" y="-7.5" font-family="Helvetica,sans-Serif" font-size="10.00" fill="#000000">BoussinesqBubble.cpp</text>
</a>
</g>
</g>
<!-- Node22&#45;&gt;Node74 -->
<g id="edge31" class="edge">
<title>Node22&#45;&gt;Node74</title>
<path fill="none" stroke="#191970" d="M1208.9013,-176.3989C1309.6262,-172.1998 1554.6067,-159.2611 1579,-132 1608.746,-98.757 1569.1348,-42.016 1551.1003,-19.5575"/>
<polygon fill="#191970" stroke="#191970" points="1208.6148,-172.9076 1198.7657,-176.8121 1208.9,-179.9017 1208.6148,-172.9076"/>
</g>
<!-- Node75 -->
<g id="node14" class="node">
<title>Node75</title>
<g id="a_node14"><a xlink:href="_field_plane_averaging_8_h.html" target="_top" xlink:title="FieldPlaneAveraging.H">
<polygon fill="#ffffff" stroke="#ff0000" points="1298,-112.5 1298,-131.5 1414,-131.5 1414,-112.5 1298,-112.5"/>
<text text-anchor="middle" x="1356" y="-119.5" font-family="Helvetica,sans-Serif" font-size="10.00" fill="#000000">FieldPlaneAveraging.H</text>
</a>
</g>
</g>
<!-- Node22&#45;&gt;Node75 -->
<g id="edge15" class="edge">
<title>Node22&#45;&gt;Node75</title>
<path fill="none" stroke="#191970" d="M1208.5597,-165.4561C1243.4369,-155.1765 1292.0468,-140.8494 1323.764,-131.5011"/>
<polygon fill="#191970" stroke="#191970" points="1207.2647,-162.1888 1198.6622,-168.3733 1209.2437,-168.9033 1207.2647,-162.1888"/>
</g>
<!-- Node80 -->
<g id="node15" class="node">
<title>Node80</title>
<g id="a_node15"><a xlink:href="_body_force_8cpp.html" target="_top" xlink:title="BodyForce.cpp">
<polygon fill="#ffffff" stroke="#000000" points="1470.5,-112.5 1470.5,-131.5 1553.5,-131.5 1553.5,-112.5 1470.5,-112.5"/>
<text text-anchor="middle" x="1512" y="-119.5" font-family="Helvetica,sans-Serif" font-size="10.00" fill="#000000">BodyForce.cpp</text>
</a>
</g>
</g>
<!-- Node22&#45;&gt;Node80 -->
<g id="edge19" class="edge">
<title>Node22&#45;&gt;Node80</title>
<path fill="none" stroke="#191970" d="M1208.664,-171.4976C1265.251,-162.8125 1368.2176,-146.7983 1456,-132 1460.6745,-131.212 1465.5649,-130.3679 1470.4257,-129.5165"/>
<polygon fill="#191970" stroke="#191970" points="1208.0061,-168.0574 1198.6518,-173.032 1209.0666,-174.9767 1208.0061,-168.0574"/>
</g>
<!-- Node81 -->
<g id="node16" class="node">
<title>Node81</title>
<g id="a_node16"><a xlink:href="_boussinesq_buoyancy_8cpp.html" target="_top" xlink:title="BoussinesqBuoyancy.cpp">
<polygon fill="#ffffff" stroke="#000000" points="2064,-56.5 2064,-75.5 2194,-75.5 2194,-56.5 2064,-56.5"/>
<text text-anchor="middle" x="2129" y="-63.5" font-family="Helvetica,sans-Serif" font-size="10.00" fill="#000000">BoussinesqBuoyancy.cpp</text>
</a>
</g>
</g>
<!-- Node22&#45;&gt;Node81 -->
<g id="edge20" class="edge">
<title>Node22&#45;&gt;Node81</title>
<path fill="none" stroke="#191970" d="M1208.9739,-175.7739C1314.5814,-170.0335 1584.5628,-153.6501 1672,-132 1694.4336,-126.4453 1697.6269,-117.7938 1720,-112 1736.3853,-107.7568 1952.623,-84.59 2063.8596,-72.8404"/>
<polygon fill="#191970" stroke="#191970" points="1208.4863,-172.2949 1198.6888,-176.3274 1208.8625,-179.2848 1208.4863,-172.2949"/>
</g>
<!-- Node82 -->
<g id="node17" class="node">
<title>Node82</title>
<g id="a_node17"><a xlink:href="_coriolis_forcing_8cpp.html" target="_top" xlink:title="CoriolisForcing.cpp">
<polygon fill="#ffffff" stroke="#000000" points="2224.5,-56.5 2224.5,-75.5 2325.5,-75.5 2325.5,-56.5 2224.5,-56.5"/>
<text text-anchor="middle" x="2275" y="-63.5" font-family="Helvetica,sans-Serif" font-size="10.00" fill="#000000">CoriolisForcing.cpp</text>
</a>
</g>
</g>
<!-- Node22&#45;&gt;Node82 -->
<g id="edge21" class="edge">
<title>Node22&#45;&gt;Node82</title>
<path fill="none" stroke="#191970" d="M1208.7956,-176.3153C1319.9093,-171.6328 1615.4952,-157.1257 1710,-132 1730.3695,-126.5844 1732.6182,-117.3695 1753,-112 1947.0192,-60.8867 2003.5499,-97.81 2203,-76 2209.8999,-75.2455 2217.1583,-74.3536 2224.3028,-73.4182"/>
<polygon fill="#191970" stroke="#191970" points="1208.4774,-172.8254 1198.6315,-176.7378 1208.7682,-179.8193 1208.4774,-172.8254"/>
</g>
<!-- Node83 -->
<g id="node18" class="node">
<title>Node83</title>
<g id="a_node18"><a xlink:href="_density_buoyancy_8cpp.html" target="_top" xlink:title="DensityBuoyancy.cpp">
<polygon fill="#ffffff" stroke="#000000" points="1748.5,-56.5 1748.5,-75.5 1861.5,-75.5 1861.5,-56.5 1748.5,-56.5"/>
<text text-anchor="middle" x="1805" y="-63.5" font-family="Helvetica,sans-Serif" font-size="10.00" fill="#000000">DensityBuoyancy.cpp</text>
</a>
</g>
</g>
<!-- Node22&#45;&gt;Node83 -->
<g id="edge22" class="edge">
<title>Node22&#45;&gt;Node83</title>
<path fill="none" stroke="#191970" d="M1208.9866,-174.2372C1260.8229,-168.8115 1350.0747,-156.6112 1423,-132 1441.4569,-125.7711 1443.4111,-117.8233 1462,-112 1559.755,-81.3766 1679.4441,-71.14 1748.4886,-67.7182"/>
<polygon fill="#191970" stroke="#191970" points="1208.4208,-170.7764 1198.8233,-175.264 1209.1245,-177.741 1208.4208,-170.7764"/>
</g>
<!-- Node84 -->
<g id="node19" class="node">
<title>Node84</title>
<g id="a_node19"><a xlink:href="_geostrophic_forcing_8cpp.html" target="_top" xlink:title="GeostrophicForcing.cpp">
<polygon fill="#ffffff" stroke="#000000" points="560,-112.5 560,-131.5 680,-131.5 680,-112.5 560,-112.5"/>
<text text-anchor="middle" x="620" y="-119.5" font-family="Helvetica,sans-Serif" font-size="10.00" fill="#000000">GeostrophicForcing.cpp</text>
</a>
</g>
</g>
<!-- Node22&#45;&gt;Node84 -->
<g id="edge23" class="edge">
<title>Node22&#45;&gt;Node84</title>
<path fill="none" stroke="#191970" d="M1123.1353,-174.5577C1039.5128,-167.6893 848.8067,-151.2746 689,-132 686.1159,-131.6521 683.1661,-131.2816 680.1882,-130.8957"/>
<polygon fill="#191970" stroke="#191970" points="1123.0145,-178.0594 1133.2665,-175.3861 1123.585,-171.0827 1123.0145,-178.0594"/>
</g>
<!-- Node22&#45;&gt;Node85 -->
<g id="edge24" class="edge">
<title>Node22&#45;&gt;Node85</title>
<path fill="none" stroke="#191970" d="M1123.3412,-177.5907C1005.9869,-176.0076 668.6168,-168.3799 391,-132 387.987,-131.6052 384.8819,-131.1314 381.7663,-130.6076"/>
<polygon fill="#191970" stroke="#191970" points="1123.3142,-181.0905 1133.3579,-177.7181 1123.4033,-174.0911 1123.3142,-181.0905"/>
</g>
<!-- Node86 -->
<g id="node21" class="node">
<title>Node86</title>
<g id="a_node21"><a xlink:href="_ksgs_m84_src_8cpp.html" target="_top" xlink:title="KsgsM84Src.cpp">
<polygon fill="#ffffff" stroke="#000000" points="698,-112.5 698,-131.5 790,-131.5 790,-112.5 698,-112.5"/>
<text text-anchor="middle" x="744" y="-119.5" font-family="Helvetica,sans-Serif" font-size="10.00" fill="#000000">KsgsM84Src.cpp</text>
</a>
</g>
</g>
<!-- Node22&#45;&gt;Node86 -->
<g id="edge25" class="edge">
<title>Node22&#45;&gt;Node86</title>
<path fill="none" stroke="#191970" d="M1123.2763,-173.4192C1054.721,-165.8949 915.9701,-149.9502 799,-132 796.1221,-131.5584 793.1635,-131.0829 790.1825,-130.5876"/>
<polygon fill="#191970" stroke="#191970" points="1122.9457,-176.9039 1133.2667,-174.5106 1123.7059,-169.9453 1122.9457,-176.9039"/>
</g>
<!-- Node87 -->
<g id="node22" class="node">
<title>Node87</title>
<g id="a_node22"><a xlink:href="_m_m_s_8_h.html" target="_top" xlink:title="MMS.H">
<polygon fill="#ffffff" stroke="#000000" points="808,-112.5 808,-131.5 858,-131.5 858,-112.5 808,-112.5"/>
<text text-anchor="middle" x="833" y="-119.5" font-family="Helvetica,sans-Serif" font-size="10.00" fill="#000000">MMS.H</text>
</a>
</g>
</g>
<!-- Node22&#45;&gt;Node87 -->
<g id="edge26" class="edge">
<title>Node22&#45;&gt;Node87</title>
<path fill="none" stroke="#191970" d="M1123.0216,-172.5889C1065.5444,-165.0533 960.6027,-150.2471 872,-132 867.4815,-131.0694 862.7006,-129.954 858.093,-128.8109"/>
<polygon fill="#191970" stroke="#191970" points="1122.819,-176.0919 1133.1868,-173.9105 1123.7215,-169.1504 1122.819,-176.0919"/>
</g>
<!-- Node88 -->
<g id="node23" class="node">
<title>Node88</title>
<g id="a_node23"><a xlink:href="_m_m_s_8cpp.html" target="_top" xlink:title="MMS.cpp">
<polygon fill="#ffffff" stroke="#000000" points="525.5,-56.5 525.5,-75.5 584.5,-75.5 584.5,-56.5 525.5,-56.5"/>
<text text-anchor="middle" x="555" y="-63.5" font-family="Helvetica,sans-Serif" font-size="10.00" fill="#000000">MMS.cpp</text>
</a>
</g>
</g>
<!-- Node22&#45;&gt;Node88 -->
<g id="edge28" class="edge">
<title>Node22&#45;&gt;Node88</title>
<path fill="none" stroke="#191970" d="M1123.204,-176.3815C986.8642,-171.0207 570.4756,-152.9868 551,-132 536.7884,-116.6858 544.8057,-89.7879 550.6281,-75.5172"/>
<polygon fill="#191970" stroke="#191970" points="1123.1487,-179.882 1133.2776,-176.7745 1123.4217,-172.8873 1123.1487,-179.882"/>
</g>
<!-- Node89 -->
<g id="node24" class="node">
<title>Node89</title>
<g id="a_node24"><a xlink:href="_m_m_s_forcing_8cpp.html" target="_top" xlink:title="MMSForcing.cpp">
<polygon fill="#ffffff" stroke="#000000" points="1929.5,-56.5 1929.5,-75.5 2020.5,-75.5 2020.5,-56.5 1929.5,-56.5"/>
<text text-anchor="middle" x="1975" y="-63.5" font-family="Helvetica,sans-Serif" font-size="10.00" fill="#000000">MMSForcing.cpp</text>
</a>
</g>
</g>
<!-- Node22&#45;&gt;Node89 -->
<g id="edge29" class="edge">
<title>Node22&#45;&gt;Node89</title>
<path fill="none" stroke="#191970" d="M1208.5091,-175.4393C1308.0534,-169.1821 1553.8979,-152.1451 1634,-132 1656.4132,-126.3632 1659.7589,-118.2815 1682,-112 1767.6024,-87.8235 1871.0959,-75.3292 1929.3544,-69.7598"/>
<polygon fill="#191970" stroke="#191970" points="1208.2671,-171.9475 1198.5041,-176.0628 1208.7025,-178.934 1208.2671,-171.9475"/>
</g>
<!-- Node22&#45;&gt;Node90 -->
<g id="edge30" class="edge">
<title>Node22&#45;&gt;Node90</title>
<path fill="none" stroke="#191970" d="M1208.812,-175.7707C1305.2836,-170.4949 1546.9396,-155.8655 1748,-132 1752.5089,-131.4648 1757.1894,-130.8445 1761.8711,-130.1802"/>
<polygon fill="#191970" stroke="#191970" points="1208.3805,-172.2889 1198.5844,-176.3246 1208.7591,-179.2786 1208.3805,-172.2889"/>
</g>
<!-- Node91 -->
<g id="node26" class="node">
<title>Node91</title>
<g id="a_node26"><a xlink:href="_convecting_taylor_vortex_8_h.html" target="_top" xlink:title="ConvectingTaylorVortex.H">
<polygon fill="#ffffff" stroke="#000000" points="914,-112.5 914,-131.5 1046,-131.5 1046,-112.5 914,-112.5"/>
<text text-anchor="middle" x="980" y="-119.5" font-family="Helvetica,sans-Serif" font-size="10.00" fill="#000000">ConvectingTaylorVortex.H</text>
</a>
</g>
</g>
<!-- Node22&#45;&gt;Node91 -->
<g id="edge32" class="edge">
<title>Node22&#45;&gt;Node91</title>
<path fill="none" stroke="#191970" d="M1124.3363,-165.4561C1090.1933,-155.1765 1042.6069,-140.8494 1011.5573,-131.5011"/>
<polygon fill="#191970" stroke="#191970" points="1123.441,-168.8417 1134.0255,-168.3733 1125.4591,-162.1389 1123.441,-168.8417"/>
</g>
<!-- Node92 -->
<g id="node27" class="node">
<title>Node92</title>
<g id="a_node27"><a xlink:href="_convecting_taylor_vortex_8cpp.html" target="_top" xlink:title="ConvectingTaylorVortex.cpp">
<polygon fill="#ffffff" stroke="#000000" points="863,-56.5 863,-75.5 1003,-75.5 1003,-56.5 863,-56.5"/>
<text text-anchor="middle" x="933" y="-63.5" font-family="Helvetica,sans-Serif" font-size="10.00" fill="#000000">ConvectingTaylorVortex.cpp</text>
</a>
</g>
</g>
<!-- Node22&#45;&gt;Node92 -->
<g id="edge34" class="edge">
<title>Node22&#45;&gt;Node92</title>
<path fill="none" stroke="#191970" d="M1122.8124,-176.8539C1055.9725,-174.0677 932.3026,-164.5354 905,-132 890.7581,-115.0286 909.8582,-89.7497 922.8195,-75.9209"/>
<polygon fill="#191970" stroke="#191970" points="1122.9016,-180.3598 1133.0284,-177.2457 1123.1699,-173.365 1122.9016,-180.3598"/>
</g>
<!-- Node44&#45;&gt;Node57 -->
<g id="edge9" class="edge">
<title>Node44&#45;&gt;Node57</title>
<path fill="none" stroke="#191970" d="M445.1376,-103.6296C451.3093,-94.2887 458.5566,-83.3197 463.6289,-75.6427"/>
<polygon fill="#191970" stroke="#191970" points="442.0373,-101.9728 439.4449,-112.2455 447.8777,-105.8316 442.0373,-101.9728"/>
</g>
<!-- Node69&#45;&gt;Node72 -->
<g id="edge13" class="edge">
<title>Node69&#45;&gt;Node72</title>
<path fill="none" stroke="#191970" d="M1455.9035,-52.3833C1431.8965,-42.1985 1399.6741,-28.5284 1378.3955,-19.5011"/>
<polygon fill="#191970" stroke="#191970" points="1454.7356,-55.6897 1465.3084,-56.3733 1457.4695,-49.2457 1454.7356,-55.6897"/>
</g>
<!-- Node69&#45;&gt;Node74 -->
<g id="edge14" class="edge">
<title>Node69&#45;&gt;Node74</title>
<path fill="none" stroke="#191970" d="M1504.6226,-49.0751C1514.0855,-39.4402 1525.5969,-27.7196 1533.5295,-19.6427"/>
<polygon fill="#191970" stroke="#191970" points="1502.0903,-46.6585 1497.5803,-56.2455 1507.0845,-51.5635 1502.0903,-46.6585"/>
</g>
<!-- Node75&#45;&gt;Node69 -->
<g id="edge16" class="edge">
<title>Node75&#45;&gt;Node69</title>
<path fill="none" stroke="#191970" d="M1388.0965,-108.3833C1412.1035,-98.1985 1444.3259,-84.5284 1465.6045,-75.5011"/>
<polygon fill="#191970" stroke="#191970" points="1386.5305,-105.2457 1378.6916,-112.3733 1389.2644,-111.6897 1386.5305,-105.2457"/>
</g>
<!-- Node75&#45;&gt;Node72 -->
<g id="edge17" class="edge">
<title>Node75&#45;&gt;Node72</title>
<path fill="none" stroke="#191970" d="M1356,-102.2702C1356,-77.9985 1356,-37.7725 1356,-19.5249"/>
<polygon fill="#191970" stroke="#191970" points="1352.5001,-102.4509 1356,-112.4509 1359.5001,-102.451 1352.5001,-102.4509"/>
</g>
<!-- Node87&#45;&gt;Node88 -->
<g id="edge27" class="edge">
<title>Node87&#45;&gt;Node88</title>
<path fill="none" stroke="#191970" d="M798.053,-111.9489C715.614,-92.4188 629.3164,-77.7692 584.8758,-70.6457"/>
<polygon fill="#191970" stroke="#191970" points="797.2839,-115.3636 807.8243,-114.2915 798.9159,-108.5565 797.2839,-115.3636"/>
</g>
<!-- Node91&#45;&gt;Node92 -->
<g id="edge33" class="edge">
<title>Node91&#45;&gt;Node92</title>
<path fill="none" stroke="#191970" d="M965.3128,-104.5004C957.3204,-94.9775 947.7375,-83.5596 941.093,-75.6427"/>
<polygon fill="#191970" stroke="#191970" points="962.7036,-106.8358 971.8132,-112.2455 968.0654,-102.3357 962.7036,-106.8358"/>
</g>
<!-- Node128&#45;&gt;Node44 -->
<g id="edge47" class="edge">
<title>Node128&#45;&gt;Node44</title>
<path fill="none" stroke="#191970" d="M433,-158.1575C433,-149.155 433,-138.9199 433,-131.6427"/>
<polygon fill="#191970" stroke="#191970" points="429.5001,-158.2455 433,-168.2455 436.5001,-158.2456 429.5001,-158.2455"/>
</g>
<!-- Node128&#45;&gt;Node85 -->
<g id="edge48" class="edge">
<title>Node128&#45;&gt;Node85</title>
<path fill="none" stroke="#191970" d="M408.2496,-162.769C392.1242,-152.8456 371.574,-140.1994 357.6693,-131.6427"/>
<polygon fill="#191970" stroke="#191970" points="406.7981,-165.9853 417.149,-168.2455 410.4668,-160.0237 406.7981,-165.9853"/>
</g>
<!-- Node130&#45;&gt;Node133 -->
<g id="edge51" class="edge">
<title>Node130&#45;&gt;Node133</title>
<path fill="none" stroke="#191970" d="M2011.998,-165.5882C2047.6408,-155.2996 2097.5614,-140.8895 2130.0854,-131.5011"/>
<polygon fill="#191970" stroke="#191970" points="2010.9868,-162.2371 2002.3498,-168.3733 2012.9282,-168.9625 2010.9868,-162.2371"/>
</g>
<!-- Node130&#45;&gt;Node134 -->
<g id="edge53" class="edge">
<title>Node130&#45;&gt;Node134</title>
<path fill="none" stroke="#191970" d="M2032.6378,-167.0464C2086.1248,-157.8076 2164.5816,-144.1804 2233,-132 2235.8665,-131.4897 2238.8164,-130.9617 2241.7909,-130.4271"/>
<polygon fill="#191970" stroke="#191970" points="2031.8755,-163.6261 2022.6167,-168.7764 2033.0664,-170.5241 2031.8755,-163.6261"/>
</g>
<!-- Node130&#45;&gt;Node135 -->
<g id="edge55" class="edge">
<title>Node130&#45;&gt;Node135</title>
<path fill="none" stroke="#191970" d="M1956.4092,-159.9209C1949.8605,-150.5176 1942.1176,-139.3997 1936.7154,-131.6427"/>
<polygon fill="#191970" stroke="#191970" points="1953.6196,-162.0397 1962.2067,-168.2455 1959.3639,-158.0392 1953.6196,-162.0397"/>
</g>
<!-- Node130&#45;&gt;Node137 -->
<g id="edge57" class="edge">
<title>Node130&#45;&gt;Node137</title>
<path fill="none" stroke="#191970" d="M1989.951,-161.928C2002.7107,-152.1397 2018.5885,-139.9595 2029.4301,-131.6427"/>
<polygon fill="#191970" stroke="#191970" points="1987.5196,-159.3819 1981.7156,-168.2455 1991.7803,-164.9359 1987.5196,-159.3819"/>
</g>
<!-- Node133&#45;&gt;Node81 -->
<g id="edge52" class="edge">
<title>Node133&#45;&gt;Node81</title>
<path fill="none" stroke="#191970" d="M2151.8465,-103.6296C2146.1753,-94.2887 2139.5155,-83.3197 2134.8545,-75.6427"/>
<polygon fill="#191970" stroke="#191970" points="2148.8961,-105.5141 2157.0777,-112.2455 2154.8796,-101.8812 2148.8961,-105.5141"/>
</g>
<!-- Node134&#45;&gt;Node82 -->
<g id="edge54" class="edge">
<title>Node134&#45;&gt;Node82</title>
<path fill="none" stroke="#191970" d="M2283.4625,-102.4538C2281.3561,-93.3803 2278.9464,-82.9998 2277.2385,-75.6427"/>
<polygon fill="#191970" stroke="#191970" points="2280.0649,-103.2961 2285.7356,-112.2455 2286.8835,-101.7131 2280.0649,-103.2961"/>
</g>
<!-- Node135&#45;&gt;Node83 -->
<g id="edge56" class="edge">
<title>Node135&#45;&gt;Node83</title>
<path fill="none" stroke="#191970" d="M1899.302,-108.2473C1876.6007,-98.0771 1846.2685,-84.4883 1826.2079,-75.5011"/>
<polygon fill="#191970" stroke="#191970" points="1897.9547,-111.4789 1908.5117,-112.3733 1900.8167,-105.0906 1897.9547,-111.4789"/>
</g>
<!-- Node137&#45;&gt;Node89 -->
<g id="edge58" class="edge">
<title>Node137&#45;&gt;Node89</title>
<path fill="none" stroke="#191970" d="M2022.4324,-105.645C2010.7802,-95.9058 1996.3916,-83.8795 1986.5368,-75.6427"/>
<polygon fill="#191970" stroke="#191970" points="2020.4121,-108.5179 2030.3295,-112.2455 2024.9012,-103.1469 2020.4121,-108.5179"/>
</g>
</g>
</svg>
