<?xml version="1.0" encoding="UTF-8" standalone="no"?>
<!DOCTYPE svg PUBLIC "-//W3C//DTD SVG 1.1//EN"
 "http://www.w3.org/Graphics/SVG/1.1/DTD/svg11.dtd">
<!-- Generated by graphviz version 2.40.1 (20161225.0304)
 -->
<!-- Title: FixedGradientBC.cpp Pages: 1 -->
<!--zoomable 263 -->
<svg id="main" version="1.1" xmlns="http://www.w3.org/2000/svg" xmlns:xlink="http://www.w3.org/1999/xlink" xml:space="preserve" onload="init(evt)">
<style type="text/css"><![CDATA[
.edge:hover path { stroke: red; }
.edge:hover polygon { stroke: red; fill: red; }
]]></style>
<script type="text/javascript"><![CDATA[
var edges = document.getElementsByTagName('g');
if (edges && edges.length) {
  for (var i=0;i<edges.length;i++) {
    if (edges[i].id.substr(0,4)=='edge') {
      edges[i].setAttribute('class','edge');
    }
  }
}
]]></script>
        <defs>
                <circle id="rim" cx="0" cy="0" r="7"/>
                <circle id="rim2" cx="0" cy="0" r="3.5"/>
                <g id="zoomPlus">
                        <use xlink:href="#rim" fill="#404040">
                                <set attributeName="fill" to="#808080" begin="zoomplus.mouseover" end="zoomplus.mouseout"/>
                        </use>
                        <path d="M-4,0h8M0,-4v8" fill="none" stroke="white" stroke-width="1.5" pointer-events="none"/>
                </g>
                <g id="zoomMin">
                        <use xlink:href="#rim" fill="#404040">
                                <set attributeName="fill" to="#808080" begin="zoomminus.mouseover" end="zoomminus.mouseout"/>
                        </use>
                        <path d="M-4,0h8" fill="none" stroke="white" stroke-width="1.5" pointer-events="none"/>
                </g>
                <g id="dirArrow">
                        <path fill="none" stroke="white" stroke-width="1.5" d="M0,-3.0v7 M-2.5,-0.5L0,-3.0L2.5,-0.5"/>
                </g>
               <g id="resetDef">
                       <use xlink:href="#rim2" fill="#404040">
                               <set attributeName="fill" to="#808080" begin="reset.mouseover" end="reset.mouseout"/>
                       </use>
               </g>
        </defs>

<script type="text/javascript">
var viewWidth = 1600;
var viewHeight = 263;
var sectionId = 'dynsection-0';
</script>
<script xlink:href="svgpan.js"/>
<svg id="graph" class="graph">
<g id="viewport">
<title>FixedGradientBC.cpp</title>
<polygon fill="#ffffff" stroke="transparent" points="-4,4 -4,-259 1595.5,-259 1595.5,4 -4,4"/>
<!-- Node0 -->
<g id="node1" class="node">
<title>Node0</title>
<polygon fill="#bfbfbf" stroke="#000000" points="807.5,-235.5 807.5,-254.5 917.5,-254.5 917.5,-235.5 807.5,-235.5"/>
<text text-anchor="middle" x="862.5" y="-242.5" font-family="Helvetica,sans-Serif" font-size="10.00" fill="#000000">FixedGradientBC.cpp</text>
</g>
<!-- Node1 -->
<g id="node2" class="node">
<title>Node1</title>
<g id="a_node2"><a xlink:href="_fixed_gradient_b_c_8_h.html" target="_top" xlink:title="amr&#45;wind/boundary_conditions\l/FixedGradientBC.H">
<polygon fill="#ffffff" stroke="#000000" points="788,-168.5 788,-198.5 937,-198.5 937,-168.5 788,-168.5"/>
<text text-anchor="start" x="796" y="-186.5" font-family="Helvetica,sans-Serif" font-size="10.00" fill="#000000">amr&#45;wind/boundary_conditions</text>
<text text-anchor="middle" x="862.5" y="-175.5" font-family="Helvetica,sans-Serif" font-size="10.00" fill="#000000">/FixedGradientBC.H</text>
</a>
</g>
</g>
<!-- Node0&#45;&gt;Node1 -->
<g id="edge1" class="edge">
<title>Node0&#45;&gt;Node1</title>
<path fill="none" stroke="#191970" d="M862.5,-235.3906C862.5,-228.2234 862.5,-218.0862 862.5,-208.671"/>
<polygon fill="#191970" stroke="#191970" points="866.0001,-208.5446 862.5,-198.5446 859.0001,-208.5446 866.0001,-208.5446"/>
</g>
<!-- Node2 -->
<g id="node3" class="node">
<title>Node2</title>
<g id="a_node3"><a xlink:href="_field_b_c_ops_8_h.html" target="_top" xlink:title="amr&#45;wind/core/FieldBCOps.H">
<polygon fill="#ffffff" stroke="#000000" points="1129,-56.5 1129,-75.5 1274,-75.5 1274,-56.5 1129,-56.5"/>
<text text-anchor="middle" x="1201.5" y="-63.5" font-family="Helvetica,sans-Serif" font-size="10.00" fill="#000000">amr&#45;wind/core/FieldBCOps.H</text>
</a>
</g>
</g>
<!-- Node1&#45;&gt;Node2 -->
<g id="edge2" class="edge">
<title>Node1&#45;&gt;Node2</title>
<path fill="none" stroke="#191970" d="M861.9865,-168.456C862.3091,-152.0265 865.5684,-126.1693 881.5,-112 899.0161,-96.4215 1029.9479,-81.5857 1118.8093,-73.1576"/>
<polygon fill="#191970" stroke="#191970" points="1119.2577,-76.631 1128.8869,-72.2121 1118.6037,-69.6616 1119.2577,-76.631"/>
</g>
<!-- Node8 -->
<g id="node9" class="node">
<title>Node8</title>
<g id="a_node9"><a xlink:href="_field_repo_8_h.html" target="_top" xlink:title="amr&#45;wind/core/FieldRepo.H">
<polygon fill="#ffffff" stroke="#000000" points="418.5,-112.5 418.5,-131.5 554.5,-131.5 554.5,-112.5 418.5,-112.5"/>
<text text-anchor="middle" x="486.5" y="-119.5" font-family="Helvetica,sans-Serif" font-size="10.00" fill="#000000">amr&#45;wind/core/FieldRepo.H</text>
</a>
</g>
</g>
<!-- Node1&#45;&gt;Node8 -->
<g id="edge8" class="edge">
<title>Node1&#45;&gt;Node8</title>
<path fill="none" stroke="#191970" d="M787.7649,-171.276C719.9676,-160.1869 620.8388,-143.973 555.0401,-133.2107"/>
<polygon fill="#191970" stroke="#191970" points="555.2098,-129.692 544.7759,-131.5318 554.0798,-136.6002 555.2098,-129.692"/>
</g>
<!-- Node22 -->
<g id="node23" class="node">
<title>Node22</title>
<polygon fill="#ffffff" stroke="#bfbfbf" points="890.5,-112.5 890.5,-131.5 1004.5,-131.5 1004.5,-112.5 890.5,-112.5"/>
<text text-anchor="middle" x="947.5" y="-119.5" font-family="Helvetica,sans-Serif" font-size="10.00" fill="#000000">AMReX_Orientation.H</text>
</g>
<!-- Node1&#45;&gt;Node22 -->
<g id="edge36" class="edge">
<title>Node1&#45;&gt;Node22</title>
<path fill="none" stroke="#191970" d="M883.5112,-168.2977C896.2934,-159.0495 912.5946,-147.2551 925.5448,-137.8853"/>
<polygon fill="#191970" stroke="#191970" points="927.8403,-140.5445 933.8904,-131.8469 923.737,-134.8732 927.8403,-140.5445"/>
</g>
<!-- Node3 -->
<g id="node4" class="node">
<title>Node3</title>
<g id="a_node4"><a xlink:href="_field_desc_types_8_h.html" target="_top" xlink:title="amr&#45;wind/core/FieldDescTypes.H">
<polygon fill="#ffffff" stroke="#000000" points="228,-.5 228,-19.5 391,-19.5 391,-.5 228,-.5"/>
<text text-anchor="middle" x="309.5" y="-7.5" font-family="Helvetica,sans-Serif" font-size="10.00" fill="#000000">amr&#45;wind/core/FieldDescTypes.H</text>
</a>
</g>
</g>
<!-- Node2&#45;&gt;Node3 -->
<g id="edge3" class="edge">
<title>Node2&#45;&gt;Node3</title>
<path fill="none" stroke="#191970" d="M1128.7923,-63.0943C989.756,-57.2599 676.3446,-42.7708 401.5043,-20.0424"/>
<polygon fill="#191970" stroke="#191970" points="401.5889,-16.5375 391.333,-19.196 401.0083,-23.5134 401.5889,-16.5375"/>
</g>
<!-- Node4 -->
<g id="node5" class="node">
<title>Node4</title>
<polygon fill="#ffffff" stroke="#bfbfbf" points="1101,-.5 1101,-19.5 1186,-19.5 1186,-.5 1101,-.5"/>
<text text-anchor="middle" x="1143.5" y="-7.5" font-family="Helvetica,sans-Serif" font-size="10.00" fill="#000000">AMReX_Gpu.H</text>
</g>
<!-- Node2&#45;&gt;Node4 -->
<g id="edge4" class="edge">
<title>Node2&#45;&gt;Node4</title>
<path fill="none" stroke="#191970" d="M1191.3972,-56.2455C1182.9972,-48.1352 1170.8506,-36.4075 1160.8916,-26.7919"/>
<polygon fill="#191970" stroke="#191970" points="1163.1122,-24.0707 1153.4871,-19.6427 1158.25,-29.1066 1163.1122,-24.0707"/>
</g>
<!-- Node5 -->
<g id="node6" class="node">
<title>Node5</title>
<polygon fill="#ffffff" stroke="#bfbfbf" points="1204,-.5 1204,-19.5 1317,-19.5 1317,-.5 1204,-.5"/>
<text text-anchor="middle" x="1260.5" y="-7.5" font-family="Helvetica,sans-Serif" font-size="10.00" fill="#000000">AMReX_FArrayBox.H</text>
</g>
<!-- Node2&#45;&gt;Node5 -->
<g id="edge5" class="edge">
<title>Node2&#45;&gt;Node5</title>
<path fill="none" stroke="#191970" d="M1211.777,-56.2455C1220.3218,-48.1352 1232.6778,-36.4075 1242.8085,-26.7919"/>
<polygon fill="#191970" stroke="#191970" points="1245.4972,-29.0655 1250.3408,-19.6427 1240.6782,-23.9884 1245.4972,-29.0655"/>
</g>
<!-- Node6 -->
<g id="node7" class="node">
<title>Node6</title>
<polygon fill="#ffffff" stroke="#bfbfbf" points="1335.5,-.5 1335.5,-19.5 1445.5,-19.5 1445.5,-.5 1335.5,-.5"/>
<text text-anchor="middle" x="1390.5" y="-7.5" font-family="Helvetica,sans-Serif" font-size="10.00" fill="#000000">AMReX_Geometry.H</text>
</g>
<!-- Node2&#45;&gt;Node6 -->
<g id="edge6" class="edge">
<title>Node2&#45;&gt;Node6</title>
<path fill="none" stroke="#191970" d="M1233.9903,-56.3733C1265.6902,-46.9807 1314.0576,-32.6496 1348.6286,-22.4064"/>
<polygon fill="#191970" stroke="#191970" points="1349.8401,-25.6979 1358.4337,-19.5011 1347.8514,-18.9863 1349.8401,-25.6979"/>
</g>
<!-- Node7 -->
<g id="node8" class="node">
<title>Node7</title>
<polygon fill="#ffffff" stroke="#bfbfbf" points="1463.5,-.5 1463.5,-19.5 1591.5,-19.5 1591.5,-.5 1463.5,-.5"/>
<text text-anchor="middle" x="1527.5" y="-7.5" font-family="Helvetica,sans-Serif" font-size="10.00" fill="#000000">AMReX_PhysBCFunct.H</text>
</g>
<!-- Node2&#45;&gt;Node7 -->
<g id="edge7" class="edge">
<title>Node2&#45;&gt;Node7</title>
<path fill="none" stroke="#191970" d="M1257.171,-56.4369C1313.9011,-46.6918 1401.855,-31.5832 1461.9247,-21.2645"/>
<polygon fill="#191970" stroke="#191970" points="1462.7956,-24.6662 1472.0586,-19.5237 1461.6104,-17.7673 1462.7956,-24.6662"/>
</g>
<!-- Node8&#45;&gt;Node3 -->
<g id="edge11" class="edge">
<title>Node8&#45;&gt;Node3</title>
<path fill="none" stroke="#191970" d="M470.6292,-112.4183C455.4015,-103.1889 431.7899,-88.784 411.5,-76 384.1409,-58.7619 352.9686,-38.4997 332.3628,-25.018"/>
<polygon fill="#191970" stroke="#191970" points="334.2385,-22.0626 323.9557,-19.51 330.4024,-27.9179 334.2385,-22.0626"/>
</g>
<!-- Node9 -->
<g id="node10" class="node">
<title>Node9</title>
<polygon fill="#ffffff" stroke="#bfbfbf" points="169,-.5 169,-19.5 210,-19.5 210,-.5 169,-.5"/>
<text text-anchor="middle" x="189.5" y="-7.5" font-family="Helvetica,sans-Serif" font-size="10.00" fill="#000000">string</text>
</g>
<!-- Node8&#45;&gt;Node9 -->
<g id="edge9" class="edge">
<title>Node8&#45;&gt;Node9</title>
<path fill="none" stroke="#191970" d="M418.174,-118.9083C346.0686,-114.2533 238.7401,-102.9124 208.5,-76 195.5819,-64.5034 191.2026,-44.8501 189.8333,-29.972"/>
<polygon fill="#191970" stroke="#191970" points="193.315,-29.5365 189.2813,-19.7396 186.3251,-29.9137 193.315,-29.5365"/>
</g>
<!-- Node10 -->
<g id="node11" class="node">
<title>Node10</title>
<polygon fill="#ffffff" stroke="#bfbfbf" points="1000,-.5 1000,-19.5 1083,-19.5 1083,-.5 1000,-.5"/>
<text text-anchor="middle" x="1041.5" y="-7.5" font-family="Helvetica,sans-Serif" font-size="10.00" fill="#000000">unordered_map</text>
</g>
<!-- Node8&#45;&gt;Node10 -->
<g id="edge10" class="edge">
<title>Node8&#45;&gt;Node10</title>
<path fill="none" stroke="#191970" d="M554.8091,-118.0014C629.6667,-112.5829 752.9,-100.6056 856.5,-76 911.9977,-62.819 973.9549,-38.6847 1010.2356,-23.5388"/>
<polygon fill="#191970" stroke="#191970" points="1011.9069,-26.6325 1019.761,-19.5218 1009.1868,-20.1826 1011.9069,-26.6325"/>
</g>
<!-- Node11 -->
<g id="node12" class="node">
<title>Node11</title>
<g id="a_node12"><a xlink:href="_field_utils_8_h.html" target="_top" xlink:title="amr&#45;wind/core/FieldUtils.H">
<polygon fill="#ffffff" stroke="#000000" points="420,-56.5 420,-75.5 553,-75.5 553,-56.5 420,-56.5"/>
<text text-anchor="middle" x="486.5" y="-63.5" font-family="Helvetica,sans-Serif" font-size="10.00" fill="#000000">amr&#45;wind/core/FieldUtils.H</text>
</a>
</g>
</g>
<!-- Node8&#45;&gt;Node11 -->
<g id="edge12" class="edge">
<title>Node8&#45;&gt;Node11</title>
<path fill="none" stroke="#191970" d="M486.5,-112.2455C486.5,-104.9382 486.5,-94.6944 486.5,-85.7046"/>
<polygon fill="#191970" stroke="#191970" points="490.0001,-85.6426 486.5,-75.6427 483.0001,-85.6427 490.0001,-85.6426"/>
</g>
<!-- Node12 -->
<g id="node13" class="node">
<title>Node12</title>
<polygon fill="#ffffff" stroke="#bfbfbf" points="543.5,-.5 543.5,-19.5 647.5,-19.5 647.5,-.5 543.5,-.5"/>
<text text-anchor="middle" x="595.5" y="-7.5" font-family="Helvetica,sans-Serif" font-size="10.00" fill="#000000">AMReX_MultiFab.H</text>
</g>
<!-- Node8&#45;&gt;Node12 -->
<g id="edge34" class="edge">
<title>Node8&#45;&gt;Node12</title>
<path fill="none" stroke="#191970" d="M554.7455,-115.3268C606.0159,-108.7374 670.1064,-96.5921 686.5,-76 704.6763,-53.1686 670.5714,-34.4912 639.0595,-22.9047"/>
<polygon fill="#191970" stroke="#191970" points="640.0188,-19.5325 629.4239,-19.5398 637.7109,-26.1411 640.0188,-19.5325"/>
</g>
<!-- Node14 -->
<g id="node15" class="node">
<title>Node14</title>
<g id="a_node15"><a xlink:href="_field_8_h.html" target="_top" xlink:title="amr&#45;wind/core/Field.H">
<polygon fill="#ffffff" stroke="#000000" points="734,-56.5 734,-75.5 847,-75.5 847,-56.5 734,-56.5"/>
<text text-anchor="middle" x="790.5" y="-63.5" font-family="Helvetica,sans-Serif" font-size="10.00" fill="#000000">amr&#45;wind/core/Field.H</text>
</a>
</g>
</g>
<!-- Node8&#45;&gt;Node14 -->
<g id="edge16" class="edge">
<title>Node8&#45;&gt;Node14</title>
<path fill="none" stroke="#191970" d="M538.414,-112.4369C591.0971,-102.7321 672.6568,-87.708 728.6543,-77.3926"/>
<polygon fill="#191970" stroke="#191970" points="729.5996,-80.7775 738.8001,-75.5237 728.3314,-73.8933 729.5996,-80.7775"/>
</g>
<!-- Node18 -->
<g id="node19" class="node">
<title>Node18</title>
<g id="a_node19"><a xlink:href="_int_field_8_h.html" target="_top" xlink:title="amr&#45;wind/core/IntField.H">
<polygon fill="#ffffff" stroke="#000000" points="37.5,-56.5 37.5,-75.5 161.5,-75.5 161.5,-56.5 37.5,-56.5"/>
<text text-anchor="middle" x="99.5" y="-63.5" font-family="Helvetica,sans-Serif" font-size="10.00" fill="#000000">amr&#45;wind/core/IntField.H</text>
</a>
</g>
</g>
<!-- Node8&#45;&gt;Node18 -->
<g id="edge25" class="edge">
<title>Node8&#45;&gt;Node18</title>
<path fill="none" stroke="#191970" d="M420.4121,-112.4369C351.3786,-102.4475 243.397,-86.8223 172.0461,-76.4976"/>
<polygon fill="#191970" stroke="#191970" points="172.1918,-72.9823 161.7936,-75.0141 171.1893,-79.9102 172.1918,-72.9823"/>
</g>
<!-- Node19 -->
<g id="node20" class="node">
<title>Node19</title>
<polygon fill="#ffffff" stroke="#bfbfbf" points="0,-.5 0,-19.5 107,-19.5 107,-.5 0,-.5"/>
<text text-anchor="middle" x="53.5" y="-7.5" font-family="Helvetica,sans-Serif" font-size="10.00" fill="#000000">AMReX_iMultiFab.H</text>
</g>
<!-- Node8&#45;&gt;Node19 -->
<g id="edge35" class="edge">
<title>Node8&#45;&gt;Node19</title>
<path fill="none" stroke="#191970" d="M418.3414,-120.0985C297.0825,-116.0071 54.1322,-104.3356 28.5,-76 16.1319,-62.3274 26.9397,-41.9263 37.9522,-27.4298"/>
<polygon fill="#191970" stroke="#191970" points="40.6727,-29.6319 44.2861,-19.6723 35.2505,-25.2047 40.6727,-29.6319"/>
</g>
<!-- Node20 -->
<g id="node21" class="node">
<title>Node20</title>
<g id="a_node21"><a xlink:href="_scratch_field_8_h.html" target="_top" xlink:title="amr&#45;wind/core/ScratchField.H">
<polygon fill="#ffffff" stroke="#000000" points="217.5,-56.5 217.5,-75.5 363.5,-75.5 363.5,-56.5 217.5,-56.5"/>
<text text-anchor="middle" x="290.5" y="-63.5" font-family="Helvetica,sans-Serif" font-size="10.00" fill="#000000">amr&#45;wind/core/ScratchField.H</text>
</a>
</g>
</g>
<!-- Node8&#45;&gt;Node20 -->
<g id="edge29" class="edge">
<title>Node8&#45;&gt;Node20</title>
<path fill="none" stroke="#191970" d="M452.8064,-112.3733C419.7913,-102.9404 369.3427,-88.5265 333.4614,-78.2747"/>
<polygon fill="#191970" stroke="#191970" points="334.3307,-74.8831 323.7539,-75.5011 332.4076,-81.6137 334.3307,-74.8831"/>
</g>
<!-- Node21 -->
<g id="node22" class="node">
<title>Node21</title>
<polygon fill="#ffffff" stroke="#bfbfbf" points="571.5,-56.5 571.5,-75.5 677.5,-75.5 677.5,-56.5 571.5,-56.5"/>
<text text-anchor="middle" x="624.5" y="-63.5" font-family="Helvetica,sans-Serif" font-size="10.00" fill="#000000">AMReX_AmrCore.H</text>
</g>
<!-- Node8&#45;&gt;Node21 -->
<g id="edge33" class="edge">
<title>Node8&#45;&gt;Node21</title>
<path fill="none" stroke="#191970" d="M510.223,-112.3733C532.6737,-103.2629 566.5739,-89.5062 591.6255,-79.3404"/>
<polygon fill="#191970" stroke="#191970" points="593.1365,-82.5045 601.0865,-75.5011 590.5043,-76.0182 593.1365,-82.5045"/>
</g>
<!-- Node11&#45;&gt;Node3 -->
<g id="edge13" class="edge">
<title>Node11&#45;&gt;Node3</title>
<path fill="none" stroke="#191970" d="M456.0726,-56.3733C426.5128,-47.021 381.4774,-32.7725 349.1305,-22.5385"/>
<polygon fill="#191970" stroke="#191970" points="350.1203,-19.1807 339.5303,-19.5011 348.0087,-25.8546 350.1203,-19.1807"/>
</g>
<!-- Node11&#45;&gt;Node12 -->
<g id="edge14" class="edge">
<title>Node11&#45;&gt;Node12</title>
<path fill="none" stroke="#191970" d="M505.4864,-56.2455C522.6792,-47.4125 548.2238,-34.2887 567.7132,-24.2758"/>
<polygon fill="#191970" stroke="#191970" points="569.4359,-27.3257 576.7312,-19.6427 566.237,-21.0993 569.4359,-27.3257"/>
</g>
<!-- Node13 -->
<g id="node14" class="node">
<title>Node13</title>
<polygon fill="#ffffff" stroke="#bfbfbf" points="409.5,-.5 409.5,-19.5 525.5,-19.5 525.5,-.5 409.5,-.5"/>
<text text-anchor="middle" x="467.5" y="-7.5" font-family="Helvetica,sans-Serif" font-size="10.00" fill="#000000">AMReX_Interpolater.H</text>
</g>
<!-- Node11&#45;&gt;Node13 -->
<g id="edge15" class="edge">
<title>Node11&#45;&gt;Node13</title>
<path fill="none" stroke="#191970" d="M483.1905,-56.2455C480.6567,-48.7776 477.0823,-38.2427 473.985,-29.1137"/>
<polygon fill="#191970" stroke="#191970" points="477.2991,-27.9879 470.7716,-19.6427 470.6702,-30.237 477.2991,-27.9879"/>
</g>
<!-- Node14&#45;&gt;Node3 -->
<g id="edge24" class="edge">
<title>Node14&#45;&gt;Node3</title>
<path fill="none" stroke="#191970" d="M733.9088,-59.4114C652.0004,-49.8753 499.4979,-32.1203 401.3449,-20.693"/>
<polygon fill="#191970" stroke="#191970" points="401.4716,-17.1842 391.1339,-19.5042 400.662,-24.1372 401.4716,-17.1842"/>
</g>
<!-- Node14&#45;&gt;Node4 -->
<g id="edge22" class="edge">
<title>Node14&#45;&gt;Node4</title>
<path fill="none" stroke="#191970" d="M847.1115,-58.1093C905.7467,-49.7716 1000.2674,-35.872 1091.0424,-20.2033"/>
<polygon fill="#191970" stroke="#191970" points="1091.6943,-23.6426 1100.9483,-18.4837 1090.497,-16.7457 1091.6943,-23.6426"/>
</g>
<!-- Node14&#45;&gt;Node9 -->
<g id="edge17" class="edge">
<title>Node14&#45;&gt;Node9</title>
<path fill="none" stroke="#191970" d="M733.8433,-60.3561C718.4861,-58.8798 701.8605,-57.3304 686.5,-56 482.3457,-38.3176 425.3221,-60.5087 220.185,-19.6526"/>
<polygon fill="#191970" stroke="#191970" points="220.7981,-16.2059 210.3034,-17.659 219.4137,-23.0676 220.7981,-16.2059"/>
</g>
<!-- Node14&#45;&gt;Node10 -->
<g id="edge19" class="edge">
<title>Node14&#45;&gt;Node10</title>
<path fill="none" stroke="#191970" d="M833.3632,-56.4369C876.6711,-46.7746 943.6129,-31.8393 989.8285,-21.5283"/>
<polygon fill="#191970" stroke="#191970" points="990.6515,-24.9308 999.6494,-19.3372 989.1272,-18.0988 990.6515,-24.9308"/>
</g>
<!-- Node14&#45;&gt;Node12 -->
<g id="edge20" class="edge">
<title>Node14&#45;&gt;Node12</title>
<path fill="none" stroke="#191970" d="M756.9783,-56.3733C724.1317,-46.9404 673.9405,-32.5265 638.2422,-22.2747"/>
<polygon fill="#191970" stroke="#191970" points="639.1619,-18.8974 628.5843,-19.5011 637.2297,-25.6255 639.1619,-18.8974"/>
</g>
<!-- Node15 -->
<g id="node16" class="node">
<title>Node15</title>
<polygon fill="#ffffff" stroke="#bfbfbf" points="665.5,-.5 665.5,-19.5 717.5,-19.5 717.5,-.5 665.5,-.5"/>
<text text-anchor="middle" x="691.5" y="-7.5" font-family="Helvetica,sans-Serif" font-size="10.00" fill="#000000">memory</text>
</g>
<!-- Node14&#45;&gt;Node15 -->
<g id="edge18" class="edge">
<title>Node14&#45;&gt;Node15</title>
<path fill="none" stroke="#191970" d="M773.2555,-56.2455C757.9239,-47.5731 735.2801,-34.7645 717.7084,-24.825"/>
<polygon fill="#191970" stroke="#191970" points="718.9741,-21.5198 708.5469,-19.6427 715.5276,-27.6126 718.9741,-21.5198"/>
</g>
<!-- Node16 -->
<g id="node17" class="node">
<title>Node16</title>
<polygon fill="#ffffff" stroke="#bfbfbf" points="736,-.5 736,-19.5 835,-19.5 835,-.5 736,-.5"/>
<text text-anchor="middle" x="785.5" y="-7.5" font-family="Helvetica,sans-Serif" font-size="10.00" fill="#000000">AMReX_BCRec.H</text>
</g>
<!-- Node14&#45;&gt;Node16 -->
<g id="edge21" class="edge">
<title>Node14&#45;&gt;Node16</title>
<path fill="none" stroke="#191970" d="M789.6291,-56.2455C788.9766,-48.9382 788.062,-38.6944 787.2593,-29.7046"/>
<polygon fill="#191970" stroke="#191970" points="790.7365,-29.2918 786.361,-19.6427 783.7642,-29.9143 790.7365,-29.2918"/>
</g>
<!-- Node17 -->
<g id="node18" class="node">
<title>Node17</title>
<g id="a_node18"><a xlink:href="incflo__enums_8_h.html" target="_top" xlink:title="amr&#45;wind/incflo_enums.H">
<polygon fill="#ffffff" stroke="#000000" points="853.5,-.5 853.5,-19.5 981.5,-19.5 981.5,-.5 853.5,-.5"/>
<text text-anchor="middle" x="917.5" y="-7.5" font-family="Helvetica,sans-Serif" font-size="10.00" fill="#000000">amr&#45;wind/incflo_enums.H</text>
</a>
</g>
</g>
<!-- Node14&#45;&gt;Node17 -->
<g id="edge23" class="edge">
<title>Node14&#45;&gt;Node17</title>
<path fill="none" stroke="#191970" d="M812.3321,-56.3733C832.8103,-47.3435 863.6399,-33.7494 886.6319,-23.6111"/>
<polygon fill="#191970" stroke="#191970" points="888.215,-26.7383 895.9528,-19.5011 885.3907,-20.3333 888.215,-26.7383"/>
</g>
<!-- Node18&#45;&gt;Node3 -->
<g id="edge27" class="edge">
<title>Node18&#45;&gt;Node3</title>
<path fill="none" stroke="#191970" d="M135.6003,-56.3733C171.1248,-46.9001 225.488,-32.4032 263.9619,-22.1435"/>
<polygon fill="#191970" stroke="#191970" points="265.1103,-25.4596 273.8708,-19.5011 263.3066,-18.696 265.1103,-25.4596"/>
</g>
<!-- Node18&#45;&gt;Node9 -->
<g id="edge26" class="edge">
<title>Node18&#45;&gt;Node9</title>
<path fill="none" stroke="#191970" d="M115.1768,-56.2455C128.9856,-47.6534 149.3193,-35.0014 165.2292,-25.1018"/>
<polygon fill="#191970" stroke="#191970" points="167.3613,-27.8974 174.0028,-19.6427 163.6632,-21.954 167.3613,-27.8974"/>
</g>
<!-- Node18&#45;&gt;Node19 -->
<g id="edge28" class="edge">
<title>Node18&#45;&gt;Node19</title>
<path fill="none" stroke="#191970" d="M91.4874,-56.2455C85.0232,-48.3761 75.7615,-37.101 68.0017,-27.6542"/>
<polygon fill="#191970" stroke="#191970" points="70.4727,-25.1484 61.4208,-19.6427 65.0636,-29.5916 70.4727,-25.1484"/>
</g>
<!-- Node20&#45;&gt;Node3 -->
<g id="edge31" class="edge">
<title>Node20&#45;&gt;Node3</title>
<path fill="none" stroke="#191970" d="M293.8095,-56.2455C296.3433,-48.7776 299.9177,-38.2427 303.015,-29.1137"/>
<polygon fill="#191970" stroke="#191970" points="306.3298,-30.237 306.2284,-19.6427 299.7009,-27.9879 306.3298,-30.237"/>
</g>
<!-- Node20&#45;&gt;Node9 -->
<g id="edge30" class="edge">
<title>Node20&#45;&gt;Node9</title>
<path fill="none" stroke="#191970" d="M272.9071,-56.2455C257.121,-47.4928 233.7361,-34.527 215.7413,-24.5496"/>
<polygon fill="#191970" stroke="#191970" points="217.3341,-21.4308 206.8913,-19.6427 213.9397,-27.5528 217.3341,-21.4308"/>
</g>
<!-- Node20&#45;&gt;Node12 -->
<g id="edge32" class="edge">
<title>Node20&#45;&gt;Node12</title>
<path fill="none" stroke="#191970" d="M342.5848,-56.4369C395.4412,-46.7321 477.2691,-31.708 533.4509,-21.3926"/>
<polygon fill="#191970" stroke="#191970" points="534.4265,-24.7721 543.63,-19.5237 533.1623,-17.8872 534.4265,-24.7721"/>
</g>
</g>
</svg>
        <g id="navigator" transform="translate(0 0)" fill="#404254">
                <rect fill="#f2f5e9" fill-opacity="0.5" stroke="#606060" stroke-width=".5" x="0" y="0" width="60" height="60"/>
                <use id="zoomplus" xlink:href="#zoomPlus" x="17" y="9" onmousedown="handleZoom(evt,'in')"/>
                <use id="zoomminus" xlink:href="#zoomMin" x="42" y="9" onmousedown="handleZoom(evt,'out')"/>
                <use id="reset" xlink:href="#resetDef" x="30" y="36" onmousedown="handleReset()"/>
                <g id="arrowUp" xlink:href="#dirArrow" transform="translate(30 24)" onmousedown="handlePan(0,-1)">
                  <use xlink:href="#rim" fill="#404040">
                        <set attributeName="fill" to="#808080" begin="arrowUp.mouseover" end="arrowUp.mouseout"/>
                  </use>
                  <path fill="none" stroke="white" stroke-width="1.5" d="M0,-3.0v7 M-2.5,-0.5L0,-3.0L2.5,-0.5"/>
                </g>
                <g id="arrowRight" xlink:href="#dirArrow" transform="rotate(90) translate(36 -43)" onmousedown="handlePan(1,0)">
                  <use xlink:href="#rim" fill="#404040">
                        <set attributeName="fill" to="#808080" begin="arrowRight.mouseover" end="arrowRight.mouseout"/>
                  </use>
                  <path fill="none" stroke="white" stroke-width="1.5" d="M0,-3.0v7 M-2.5,-0.5L0,-3.0L2.5,-0.5"/>
                </g>
                <g id="arrowDown" xlink:href="#dirArrow" transform="rotate(180) translate(-30 -48)" onmousedown="handlePan(0,1)">
                  <use xlink:href="#rim" fill="#404040">
                        <set attributeName="fill" to="#808080" begin="arrowDown.mouseover" end="arrowDown.mouseout"/>
                  </use>
                  <path fill="none" stroke="white" stroke-width="1.5" d="M0,-3.0v7 M-2.5,-0.5L0,-3.0L2.5,-0.5"/>
                </g>
                <g id="arrowLeft" xlink:href="#dirArrow" transform="rotate(270) translate(-36 17)" onmousedown="handlePan(-1,0)">
                  <use xlink:href="#rim" fill="#404040">
                        <set attributeName="fill" to="#808080" begin="arrowLeft.mouseover" end="arrowLeft.mouseout"/>
                  </use>
                  <path fill="none" stroke="white" stroke-width="1.5" d="M0,-3.0v7 M-2.5,-0.5L0,-3.0L2.5,-0.5"/>
                </g>
        </g>
        <svg viewBox="0 0 15 15" width="100%" height="30px" preserveAspectRatio="xMaxYMin meet">
         <g id="arrow_out" transform="scale(0.3 0.3)">
          <a xlink:href="_fixed_gradient_b_c_8cpp__incl_org.svg" target="_base">
           <rect id="button" ry="5" rx="5" y="6" x="6" height="38" width="38"
                fill="#f2f5e9" fill-opacity="0.5" stroke="#606060" stroke-width="1.0"/>
           <path id="arrow"
             d="M 11.500037,31.436501 C 11.940474,20.09759 22.043105,11.32322 32.158766,21.979434 L 37.068811,17.246167 C 37.068811,17.246167 37.088388,32 37.088388,32 L 22.160133,31.978069 C 22.160133,31.978069 26.997745,27.140456 26.997745,27.140456 C 18.528582,18.264221 13.291696,25.230495 11.500037,31.436501 z"
             style="fill:#404040;"/>
          </a>
         </g>
        </svg>
</svg>
