<?xml version="1.0" encoding="UTF-8" standalone="no"?>
<!DOCTYPE svg PUBLIC "-//W3C//DTD SVG 1.1//EN"
 "http://www.w3.org/Graphics/SVG/1.1/DTD/svg11.dtd">
<!-- Generated by graphviz version 2.40.1 (20161225.0304)
 -->
<!-- Title: FreeStream.H Pages: 1 -->
<!--zoomable 196 -->
<svg id="main" version="1.1" xmlns="http://www.w3.org/2000/svg" xmlns:xlink="http://www.w3.org/1999/xlink" xml:space="preserve" onload="init(evt)">
<style type="text/css"><![CDATA[
.edge:hover path { stroke: red; }
.edge:hover polygon { stroke: red; fill: red; }
]]></style>
<script type="text/javascript"><![CDATA[
var edges = document.getElementsByTagName('g');
if (edges && edges.length) {
  for (var i=0;i<edges.length;i++) {
    if (edges[i].id.substr(0,4)=='edge') {
      edges[i].setAttribute('class','edge');
    }
  }
}
]]></script>
        <defs>
                <circle id="rim" cx="0" cy="0" r="7"/>
                <circle id="rim2" cx="0" cy="0" r="3.5"/>
                <g id="zoomPlus">
                        <use xlink:href="#rim" fill="#404040">
                                <set attributeName="fill" to="#808080" begin="zoomplus.mouseover" end="zoomplus.mouseout"/>
                        </use>
                        <path d="M-4,0h8M0,-4v8" fill="none" stroke="white" stroke-width="1.5" pointer-events="none"/>
                </g>
                <g id="zoomMin">
                        <use xlink:href="#rim" fill="#404040">
                                <set attributeName="fill" to="#808080" begin="zoomminus.mouseover" end="zoomminus.mouseout"/>
                        </use>
                        <path d="M-4,0h8" fill="none" stroke="white" stroke-width="1.5" pointer-events="none"/>
                </g>
                <g id="dirArrow">
                        <path fill="none" stroke="white" stroke-width="1.5" d="M0,-3.0v7 M-2.5,-0.5L0,-3.0L2.5,-0.5"/>
                </g>
               <g id="resetDef">
                       <use xlink:href="#rim2" fill="#404040">
                               <set attributeName="fill" to="#808080" begin="reset.mouseover" end="reset.mouseout"/>
                       </use>
               </g>
        </defs>

<script type="text/javascript">
var viewWidth = 1262;
var viewHeight = 196;
var sectionId = 'dynsection-0';
</script>
<script xlink:href="svgpan.js"/>
<svg id="graph" class="graph">
<g id="viewport">
<title>FreeStream.H</title>
<polygon fill="#ffffff" stroke="transparent" points="-4,4 -4,-192 1258,-192 1258,4 -4,4"/>
<!-- Node0 -->
<g id="node1" class="node">
<title>Node0</title>
<polygon fill="#bfbfbf" stroke="#000000" points="584.5,-168.5 584.5,-187.5 662.5,-187.5 662.5,-168.5 584.5,-168.5"/>
<text text-anchor="middle" x="623.5" y="-175.5" font-family="Helvetica,sans-Serif" font-size="10.00" fill="#000000">FreeStream.H</text>
</g>
<!-- Node1 -->
<g id="node2" class="node">
<title>Node1</title>
<g id="a_node2"><a xlink:href="_physics_8_h.html" target="_top" xlink:title="amr&#45;wind/core/Physics.H">
<polygon fill="#ffffff" stroke="#000000" points="666,-112.5 666,-131.5 793,-131.5 793,-112.5 666,-112.5"/>
<text text-anchor="middle" x="729.5" y="-119.5" font-family="Helvetica,sans-Serif" font-size="10.00" fill="#000000">amr&#45;wind/core/Physics.H</text>
</a>
</g>
</g>
<!-- Node0&#45;&gt;Node1 -->
<g id="edge1" class="edge">
<title>Node0&#45;&gt;Node1</title>
<path fill="none" stroke="#191970" d="M641.9638,-168.2455C658.6074,-159.4527 683.2993,-146.4079 702.2192,-136.4125"/>
<polygon fill="#191970" stroke="#191970" points="704.0408,-139.4086 711.2478,-131.6427 700.7709,-133.2193 704.0408,-139.4086"/>
</g>
<!-- Node13 -->
<g id="node14" class="node">
<title>Node13</title>
<g id="a_node14"><a xlink:href="_field_8_h.html" target="_top" xlink:title="amr&#45;wind/core/Field.H">
<polygon fill="#ffffff" stroke="#000000" points="460,-56.5 460,-75.5 573,-75.5 573,-56.5 460,-56.5"/>
<text text-anchor="middle" x="516.5" y="-63.5" font-family="Helvetica,sans-Serif" font-size="10.00" fill="#000000">amr&#45;wind/core/Field.H</text>
</a>
</g>
</g>
<!-- Node0&#45;&gt;Node13 -->
<g id="edge15" class="edge">
<title>Node0&#45;&gt;Node13</title>
<path fill="none" stroke="#191970" d="M614.3772,-168.4509C596.2151,-149.4401 555.328,-106.6423 532.5653,-82.816"/>
<polygon fill="#191970" stroke="#191970" points="535.0383,-80.3378 525.5997,-75.5249 529.9768,-85.1733 535.0383,-80.3378"/>
</g>
<!-- Node2 -->
<g id="node3" class="node">
<title>Node2</title>
<g id="a_node3"><a xlink:href="_factory_8_h.html" target="_top" xlink:title="amr&#45;wind/core/Factory.H">
<polygon fill="#ffffff" stroke="#000000" points="945,-56.5 945,-75.5 1070,-75.5 1070,-56.5 945,-56.5"/>
<text text-anchor="middle" x="1007.5" y="-63.5" font-family="Helvetica,sans-Serif" font-size="10.00" fill="#000000">amr&#45;wind/core/Factory.H</text>
</a>
</g>
</g>
<!-- Node1&#45;&gt;Node2 -->
<g id="edge2" class="edge">
<title>Node1&#45;&gt;Node2</title>
<path fill="none" stroke="#191970" d="M776.974,-112.4369C824.9514,-102.7724 899.117,-87.8326 950.3051,-77.5213"/>
<polygon fill="#191970" stroke="#191970" points="951.1099,-80.9296 960.2218,-75.5237 949.7275,-74.0674 951.1099,-80.9296"/>
</g>
<!-- Node8 -->
<g id="node9" class="node">
<title>Node8</title>
<g id="a_node9"><a xlink:href="_coll_mgr_8_h.html" target="_top" xlink:title="amr&#45;wind/core/CollMgr.H">
<polygon fill="#ffffff" stroke="#000000" points="758,-56.5 758,-75.5 883,-75.5 883,-56.5 758,-56.5"/>
<text text-anchor="middle" x="820.5" y="-63.5" font-family="Helvetica,sans-Serif" font-size="10.00" fill="#000000">amr&#45;wind/core/CollMgr.H</text>
</a>
</g>
</g>
<!-- Node1&#45;&gt;Node8 -->
<g id="edge8" class="edge">
<title>Node1&#45;&gt;Node8</title>
<path fill="none" stroke="#191970" d="M745.351,-112.2455C759.3132,-103.6534 779.8728,-91.0014 795.9596,-81.1018"/>
<polygon fill="#191970" stroke="#191970" points="798.1484,-83.8645 804.8307,-75.6427 794.4797,-77.9029 798.1484,-83.8645"/>
</g>
<!-- Node11 -->
<g id="node12" class="node">
<title>Node11</title>
<polygon fill="#ffffff" stroke="#bfbfbf" points="548.5,-.5 548.5,-19.5 652.5,-19.5 652.5,-.5 548.5,-.5"/>
<text text-anchor="middle" x="600.5" y="-7.5" font-family="Helvetica,sans-Serif" font-size="10.00" fill="#000000">AMReX_MultiFab.H</text>
</g>
<!-- Node1&#45;&gt;Node11 -->
<g id="edge13" class="edge">
<title>Node1&#45;&gt;Node11</title>
<path fill="none" stroke="#191970" d="M729.2444,-112.2412C728.3678,-98.1466 724.7729,-72.029 710.5,-56 696.4277,-40.1962 676.0532,-29.6789 656.654,-22.7461"/>
<polygon fill="#191970" stroke="#191970" points="657.5334,-19.3505 646.9401,-19.531 655.3338,-25.9959 657.5334,-19.3505"/>
</g>
<!-- Node12 -->
<g id="node13" class="node">
<title>Node12</title>
<polygon fill="#ffffff" stroke="#bfbfbf" points="591.5,-56.5 591.5,-75.5 701.5,-75.5 701.5,-56.5 591.5,-56.5"/>
<text text-anchor="middle" x="646.5" y="-63.5" font-family="Helvetica,sans-Serif" font-size="10.00" fill="#000000">AMReX_Geometry.H</text>
</g>
<!-- Node1&#45;&gt;Node12 -->
<g id="edge14" class="edge">
<title>Node1&#45;&gt;Node12</title>
<path fill="none" stroke="#191970" d="M715.0425,-112.2455C702.4268,-103.7337 683.9056,-91.2375 669.2955,-81.3801"/>
<polygon fill="#191970" stroke="#191970" points="671.0391,-78.3343 660.7918,-75.6427 667.1239,-84.1371 671.0391,-78.3343"/>
</g>
<!-- Node3 -->
<g id="node4" class="node">
<title>Node3</title>
<polygon fill="#ffffff" stroke="#bfbfbf" points="944.5,-.5 944.5,-19.5 996.5,-19.5 996.5,-.5 944.5,-.5"/>
<text text-anchor="middle" x="970.5" y="-7.5" font-family="Helvetica,sans-Serif" font-size="10.00" fill="#000000">memory</text>
</g>
<!-- Node2&#45;&gt;Node3 -->
<g id="edge3" class="edge">
<title>Node2&#45;&gt;Node3</title>
<path fill="none" stroke="#191970" d="M1001.0551,-56.2455C995.9618,-48.5367 988.7092,-37.5598 982.548,-28.2348"/>
<polygon fill="#191970" stroke="#191970" points="985.3038,-26.0566 976.8711,-19.6427 979.4635,-29.9155 985.3038,-26.0566"/>
</g>
<!-- Node4 -->
<g id="node5" class="node">
<title>Node4</title>
<polygon fill="#ffffff" stroke="#bfbfbf" points="843,-.5 843,-19.5 926,-19.5 926,-.5 843,-.5"/>
<text text-anchor="middle" x="884.5" y="-7.5" font-family="Helvetica,sans-Serif" font-size="10.00" fill="#000000">unordered_map</text>
</g>
<!-- Node2&#45;&gt;Node4 -->
<g id="edge4" class="edge">
<title>Node2&#45;&gt;Node4</title>
<path fill="none" stroke="#191970" d="M986.3555,-56.3733C966.6108,-47.3838 936.9302,-33.8706 914.6945,-23.7471"/>
<polygon fill="#191970" stroke="#191970" points="915.92,-20.4594 905.3685,-19.5011 913.0194,-26.8302 915.92,-20.4594"/>
</g>
<!-- Node5 -->
<g id="node6" class="node">
<title>Node5</title>
<polygon fill="#ffffff" stroke="#bfbfbf" points="1094.5,-.5 1094.5,-19.5 1148.5,-19.5 1148.5,-.5 1094.5,-.5"/>
<text text-anchor="middle" x="1121.5" y="-7.5" font-family="Helvetica,sans-Serif" font-size="10.00" fill="#000000">iostream</text>
</g>
<!-- Node2&#45;&gt;Node5 -->
<g id="edge5" class="edge">
<title>Node2&#45;&gt;Node5</title>
<path fill="none" stroke="#191970" d="M1027.0973,-56.3733C1045.2331,-47.4644 1072.4135,-34.1127 1092.9587,-24.0203"/>
<polygon fill="#191970" stroke="#191970" points="1094.7261,-27.0517 1102.1584,-19.5011 1091.6397,-20.7688 1094.7261,-27.0517"/>
</g>
<!-- Node6 -->
<g id="node7" class="node">
<title>Node6</title>
<polygon fill="#ffffff" stroke="#bfbfbf" points="1167,-.5 1167,-19.5 1254,-19.5 1254,-.5 1167,-.5"/>
<text text-anchor="middle" x="1210.5" y="-7.5" font-family="Helvetica,sans-Serif" font-size="10.00" fill="#000000">AMReX_Print.H</text>
</g>
<!-- Node2&#45;&gt;Node6 -->
<g id="edge6" class="edge">
<title>Node2&#45;&gt;Node6</title>
<path fill="none" stroke="#191970" d="M1042.3969,-56.3733C1076.5911,-46.9404 1128.8415,-32.5265 1166.0042,-22.2747"/>
<polygon fill="#191970" stroke="#191970" points="1167.3493,-25.5345 1176.0584,-19.5011 1165.4877,-18.7865 1167.3493,-25.5345"/>
</g>
<!-- Node7 -->
<g id="node8" class="node">
<title>Node7</title>
<polygon fill="#ffffff" stroke="#bfbfbf" points="1014.5,-.5 1014.5,-19.5 1076.5,-19.5 1076.5,-.5 1014.5,-.5"/>
<text text-anchor="middle" x="1045.5" y="-7.5" font-family="Helvetica,sans-Serif" font-size="10.00" fill="#000000">AMReX.H</text>
</g>
<!-- Node2&#45;&gt;Node7 -->
<g id="edge7" class="edge">
<title>Node2&#45;&gt;Node7</title>
<path fill="none" stroke="#191970" d="M1014.1191,-56.2455C1019.4046,-48.4564 1026.9541,-37.3308 1033.3238,-27.9439"/>
<polygon fill="#191970" stroke="#191970" points="1036.2379,-29.8827 1038.9568,-19.6427 1030.4455,-25.9522 1036.2379,-29.8827"/>
</g>
<!-- Node8&#45;&gt;Node3 -->
<g id="edge10" class="edge">
<title>Node8&#45;&gt;Node3</title>
<path fill="none" stroke="#191970" d="M846.2859,-56.3733C870.9047,-47.1822 908.19,-33.2624 935.4875,-23.0713"/>
<polygon fill="#191970" stroke="#191970" points="936.9063,-26.2777 945.0506,-19.5011 934.458,-19.7198 936.9063,-26.2777"/>
</g>
<!-- Node8&#45;&gt;Node4 -->
<g id="edge11" class="edge">
<title>Node8&#45;&gt;Node4</title>
<path fill="none" stroke="#191970" d="M831.6479,-56.2455C841.0087,-48.0549 854.5858,-36.1749 865.6349,-26.5069"/>
<polygon fill="#191970" stroke="#191970" points="868.2588,-28.8618 873.4798,-19.6427 863.6492,-23.5937 868.2588,-28.8618"/>
</g>
<!-- Node9 -->
<g id="node10" class="node">
<title>Node9</title>
<polygon fill="#ffffff" stroke="#bfbfbf" points="671,-.5 671,-19.5 712,-19.5 712,-.5 671,-.5"/>
<text text-anchor="middle" x="691.5" y="-7.5" font-family="Helvetica,sans-Serif" font-size="10.00" fill="#000000">string</text>
</g>
<!-- Node8&#45;&gt;Node9 -->
<g id="edge9" class="edge">
<title>Node8&#45;&gt;Node9</title>
<path fill="none" stroke="#191970" d="M798.3241,-56.3733C777.1452,-47.1793 745.0661,-33.2535 721.5883,-23.0616"/>
<polygon fill="#191970" stroke="#191970" points="722.6766,-19.7185 712.1099,-18.9469 719.8891,-26.1396 722.6766,-19.7185"/>
</g>
<!-- Node10 -->
<g id="node11" class="node">
<title>Node10</title>
<polygon fill="#ffffff" stroke="#bfbfbf" points="730,-.5 730,-19.5 825,-19.5 825,-.5 730,-.5"/>
<text text-anchor="middle" x="777.5" y="-7.5" font-family="Helvetica,sans-Serif" font-size="10.00" fill="#000000">AMReX_Vector.H</text>
</g>
<!-- Node8&#45;&gt;Node10 -->
<g id="edge12" class="edge">
<title>Node8&#45;&gt;Node10</title>
<path fill="none" stroke="#191970" d="M813.01,-56.2455C806.9674,-48.3761 798.3097,-37.101 791.0559,-27.6542"/>
<polygon fill="#191970" stroke="#191970" points="793.7705,-25.4426 784.9042,-19.6427 788.2185,-29.7058 793.7705,-25.4426"/>
</g>
<!-- Node13&#45;&gt;Node3 -->
<g id="edge17" class="edge">
<title>Node13&#45;&gt;Node3</title>
<path fill="none" stroke="#191970" d="M573.0004,-57.2542C576.2121,-56.8147 579.3957,-56.3932 582.5,-56 735.7439,-36.5882 778.8764,-49.2346 934.3327,-19.9355"/>
<polygon fill="#191970" stroke="#191970" points="935.0825,-23.3556 944.247,-18.0393 933.7675,-16.4802 935.0825,-23.3556"/>
</g>
<!-- Node13&#45;&gt;Node4 -->
<g id="edge18" class="edge">
<title>Node13&#45;&gt;Node4</title>
<path fill="none" stroke="#191970" d="M573.0209,-57.404C576.2274,-56.9264 579.4043,-56.4556 582.5,-56 691.2613,-39.9921 721.3028,-39.1383 832.8273,-20.2227"/>
<polygon fill="#191970" stroke="#191970" points="833.5219,-23.6548 842.7903,-18.5219 832.3439,-16.7546 833.5219,-23.6548"/>
</g>
<!-- Node13&#45;&gt;Node9 -->
<g id="edge16" class="edge">
<title>Node13&#45;&gt;Node9</title>
<path fill="none" stroke="#191970" d="M547.0923,-56.4368C574.516,-47.8329 616.0846,-34.7145 661.183,-20.0717"/>
<polygon fill="#191970" stroke="#191970" points="662.4294,-23.3469 670.8562,-16.9251 660.264,-16.6902 662.4294,-23.3469"/>
</g>
<!-- Node13&#45;&gt;Node11 -->
<g id="edge19" class="edge">
<title>Node13&#45;&gt;Node11</title>
<path fill="none" stroke="#191970" d="M531.1317,-56.2455C543.8994,-47.7337 562.6438,-35.2375 577.4299,-25.3801"/>
<polygon fill="#191970" stroke="#191970" points="579.6569,-28.1019 586.036,-19.6427 575.774,-22.2775 579.6569,-28.1019"/>
</g>
<!-- Node14 -->
<g id="node15" class="node">
<title>Node14</title>
<polygon fill="#ffffff" stroke="#bfbfbf" points="0,-.5 0,-19.5 99,-19.5 99,-.5 0,-.5"/>
<text text-anchor="middle" x="49.5" y="-7.5" font-family="Helvetica,sans-Serif" font-size="10.00" fill="#000000">AMReX_BCRec.H</text>
</g>
<!-- Node13&#45;&gt;Node14 -->
<g id="edge20" class="edge">
<title>Node13&#45;&gt;Node14</title>
<path fill="none" stroke="#191970" d="M459.7987,-60.6853C382.7242,-53.2253 240.3524,-38.6113 109.3574,-20.203"/>
<polygon fill="#191970" stroke="#191970" points="109.5358,-16.6934 99.1438,-18.7566 108.5543,-23.6243 109.5358,-16.6934"/>
</g>
<!-- Node15 -->
<g id="node16" class="node">
<title>Node15</title>
<polygon fill="#ffffff" stroke="#bfbfbf" points="117,-.5 117,-19.5 202,-19.5 202,-.5 117,-.5"/>
<text text-anchor="middle" x="159.5" y="-7.5" font-family="Helvetica,sans-Serif" font-size="10.00" fill="#000000">AMReX_Gpu.H</text>
</g>
<!-- Node13&#45;&gt;Node15 -->
<g id="edge21" class="edge">
<title>Node13&#45;&gt;Node15</title>
<path fill="none" stroke="#191970" d="M459.8963,-58.1591C400.7346,-49.8071 304.9553,-35.8463 212.1704,-20.0586"/>
<polygon fill="#191970" stroke="#191970" points="212.4888,-16.5623 202.0417,-18.3258 211.3082,-23.4621 212.4888,-16.5623"/>
</g>
<!-- Node16 -->
<g id="node17" class="node">
<title>Node16</title>
<g id="a_node17"><a xlink:href="incflo__enums_8_h.html" target="_top" xlink:title="amr&#45;wind/incflo_enums.H">
<polygon fill="#ffffff" stroke="#000000" points="220.5,-.5 220.5,-19.5 348.5,-19.5 348.5,-.5 220.5,-.5"/>
<text text-anchor="middle" x="284.5" y="-7.5" font-family="Helvetica,sans-Serif" font-size="10.00" fill="#000000">amr&#45;wind/incflo_enums.H</text>
</a>
</g>
</g>
<!-- Node13&#45;&gt;Node16 -->
<g id="edge22" class="edge">
<title>Node13&#45;&gt;Node16</title>
<path fill="none" stroke="#191970" d="M476.8814,-56.4369C437.3432,-46.8932 376.4931,-32.2052 333.8418,-21.9101"/>
<polygon fill="#191970" stroke="#191970" points="334.4973,-18.4679 323.9552,-19.5237 332.8548,-25.2724 334.4973,-18.4679"/>
</g>
<!-- Node17 -->
<g id="node18" class="node">
<title>Node17</title>
<g id="a_node18"><a xlink:href="_field_desc_types_8_h.html" target="_top" xlink:title="amr&#45;wind/core/FieldDescTypes.H">
<polygon fill="#ffffff" stroke="#000000" points="367,-.5 367,-19.5 530,-19.5 530,-.5 367,-.5"/>
<text text-anchor="middle" x="448.5" y="-7.5" font-family="Helvetica,sans-Serif" font-size="10.00" fill="#000000">amr&#45;wind/core/FieldDescTypes.H</text>
</a>
</g>
</g>
<!-- Node13&#45;&gt;Node17 -->
<g id="edge23" class="edge">
<title>Node13&#45;&gt;Node17</title>
<path fill="none" stroke="#191970" d="M504.6553,-56.2455C494.612,-47.9746 480.0005,-35.9416 468.1996,-26.2232"/>
<polygon fill="#191970" stroke="#191970" points="470.1533,-23.298 460.209,-19.6427 465.7033,-28.7015 470.1533,-23.298"/>
</g>
</g>
</svg>
        <g id="navigator" transform="translate(0 0)" fill="#404254">
                <rect fill="#f2f5e9" fill-opacity="0.5" stroke="#606060" stroke-width=".5" x="0" y="0" width="60" height="60"/>
                <use id="zoomplus" xlink:href="#zoomPlus" x="17" y="9" onmousedown="handleZoom(evt,'in')"/>
                <use id="zoomminus" xlink:href="#zoomMin" x="42" y="9" onmousedown="handleZoom(evt,'out')"/>
                <use id="reset" xlink:href="#resetDef" x="30" y="36" onmousedown="handleReset()"/>
                <g id="arrowUp" xlink:href="#dirArrow" transform="translate(30 24)" onmousedown="handlePan(0,-1)">
                  <use xlink:href="#rim" fill="#404040">
                        <set attributeName="fill" to="#808080" begin="arrowUp.mouseover" end="arrowUp.mouseout"/>
                  </use>
                  <path fill="none" stroke="white" stroke-width="1.5" d="M0,-3.0v7 M-2.5,-0.5L0,-3.0L2.5,-0.5"/>
                </g>
                <g id="arrowRight" xlink:href="#dirArrow" transform="rotate(90) translate(36 -43)" onmousedown="handlePan(1,0)">
                  <use xlink:href="#rim" fill="#404040">
                        <set attributeName="fill" to="#808080" begin="arrowRight.mouseover" end="arrowRight.mouseout"/>
                  </use>
                  <path fill="none" stroke="white" stroke-width="1.5" d="M0,-3.0v7 M-2.5,-0.5L0,-3.0L2.5,-0.5"/>
                </g>
                <g id="arrowDown" xlink:href="#dirArrow" transform="rotate(180) translate(-30 -48)" onmousedown="handlePan(0,1)">
                  <use xlink:href="#rim" fill="#404040">
                        <set attributeName="fill" to="#808080" begin="arrowDown.mouseover" end="arrowDown.mouseout"/>
                  </use>
                  <path fill="none" stroke="white" stroke-width="1.5" d="M0,-3.0v7 M-2.5,-0.5L0,-3.0L2.5,-0.5"/>
                </g>
                <g id="arrowLeft" xlink:href="#dirArrow" transform="rotate(270) translate(-36 17)" onmousedown="handlePan(-1,0)">
                  <use xlink:href="#rim" fill="#404040">
                        <set attributeName="fill" to="#808080" begin="arrowLeft.mouseover" end="arrowLeft.mouseout"/>
                  </use>
                  <path fill="none" stroke="white" stroke-width="1.5" d="M0,-3.0v7 M-2.5,-0.5L0,-3.0L2.5,-0.5"/>
                </g>
        </g>
        <svg viewBox="0 0 15 15" width="100%" height="30px" preserveAspectRatio="xMaxYMin meet">
         <g id="arrow_out" transform="scale(0.3 0.3)">
          <a xlink:href="_free_stream_8_h__incl_org.svg" target="_base">
           <rect id="button" ry="5" rx="5" y="6" x="6" height="38" width="38"
                fill="#f2f5e9" fill-opacity="0.5" stroke="#606060" stroke-width="1.0"/>
           <path id="arrow"
             d="M 11.500037,31.436501 C 11.940474,20.09759 22.043105,11.32322 32.158766,21.979434 L 37.068811,17.246167 C 37.068811,17.246167 37.088388,32 37.088388,32 L 22.160133,31.978069 C 22.160133,31.978069 26.997745,27.140456 26.997745,27.140456 C 18.528582,18.264221 13.291696,25.230495 11.500037,31.436501 z"
             style="fill:#404040;"/>
          </a>
         </g>
        </svg>
</svg>
