<?xml version="1.0" encoding="UTF-8" standalone="no"?>
<!DOCTYPE svg PUBLIC "-//W3C//DTD SVG 1.1//EN"
 "http://www.w3.org/Graphics/SVG/1.1/DTD/svg11.dtd">
<!-- Generated by graphviz version 2.40.1 (20161225.0304)
 -->
<!-- Title: Godunov.H Pages: 1 -->
<!--zoomable 196 -->
<svg id="main" version="1.1" xmlns="http://www.w3.org/2000/svg" xmlns:xlink="http://www.w3.org/1999/xlink" xml:space="preserve" onload="init(evt)">
<style type="text/css"><![CDATA[
.edge:hover path { stroke: red; }
.edge:hover polygon { stroke: red; fill: red; }
]]></style>
<script type="text/javascript"><![CDATA[
var edges = document.getElementsByTagName('g');
if (edges && edges.length) {
  for (var i=0;i<edges.length;i++) {
    if (edges[i].id.substr(0,4)=='edge') {
      edges[i].setAttribute('class','edge');
    }
  }
}
]]></script>
        <defs>
                <circle id="rim" cx="0" cy="0" r="7"/>
                <circle id="rim2" cx="0" cy="0" r="3.5"/>
                <g id="zoomPlus">
                        <use xlink:href="#rim" fill="#404040">
                                <set attributeName="fill" to="#808080" begin="zoomplus.mouseover" end="zoomplus.mouseout"/>
                        </use>
                        <path d="M-4,0h8M0,-4v8" fill="none" stroke="white" stroke-width="1.5" pointer-events="none"/>
                </g>
                <g id="zoomMin">
                        <use xlink:href="#rim" fill="#404040">
                                <set attributeName="fill" to="#808080" begin="zoomminus.mouseover" end="zoomminus.mouseout"/>
                        </use>
                        <path d="M-4,0h8" fill="none" stroke="white" stroke-width="1.5" pointer-events="none"/>
                </g>
                <g id="dirArrow">
                        <path fill="none" stroke="white" stroke-width="1.5" d="M0,-3.0v7 M-2.5,-0.5L0,-3.0L2.5,-0.5"/>
                </g>
               <g id="resetDef">
                       <use xlink:href="#rim2" fill="#404040">
                               <set attributeName="fill" to="#808080" begin="reset.mouseover" end="reset.mouseout"/>
                       </use>
               </g>
        </defs>

<script type="text/javascript">
var viewWidth = 1411;
var viewHeight = 196;
var sectionId = 'dynsection-0';
</script>
<script xlink:href="svgpan.js"/>
<svg id="graph" class="graph">
<g id="viewport">
<title>Godunov.H</title>
<polygon fill="#ffffff" stroke="transparent" points="-4,4 -4,-192 1406.5,-192 1406.5,4 -4,4"/>
<!-- Node0 -->
<g id="node1" class="node">
<title>Node0</title>
<polygon fill="#bfbfbf" stroke="#000000" points="542.5,-168.5 542.5,-187.5 608.5,-187.5 608.5,-168.5 542.5,-168.5"/>
<text text-anchor="middle" x="575.5" y="-175.5" font-family="Helvetica,sans-Serif" font-size="10.00" fill="#000000">Godunov.H</text>
</g>
<!-- Node1 -->
<g id="node2" class="node">
<title>Node1</title>
<g id="a_node2"><a xlink:href="_field_repo_8_h.html" target="_top" xlink:title="amr&#45;wind/core/FieldRepo.H">
<polygon fill="#ffffff" stroke="#000000" points="507.5,-112.5 507.5,-131.5 643.5,-131.5 643.5,-112.5 507.5,-112.5"/>
<text text-anchor="middle" x="575.5" y="-119.5" font-family="Helvetica,sans-Serif" font-size="10.00" fill="#000000">amr&#45;wind/core/FieldRepo.H</text>
</a>
</g>
</g>
<!-- Node0&#45;&gt;Node1 -->
<g id="edge1" class="edge">
<title>Node0&#45;&gt;Node1</title>
<path fill="none" stroke="#191970" d="M575.5,-168.2455C575.5,-160.9382 575.5,-150.6944 575.5,-141.7046"/>
<polygon fill="#191970" stroke="#191970" points="579.0001,-141.6426 575.5,-131.6427 572.0001,-141.6427 579.0001,-141.6426"/>
</g>
<!-- Node2 -->
<g id="node3" class="node">
<title>Node2</title>
<polygon fill="#ffffff" stroke="#bfbfbf" points="125,-.5 125,-19.5 166,-19.5 166,-.5 125,-.5"/>
<text text-anchor="middle" x="145.5" y="-7.5" font-family="Helvetica,sans-Serif" font-size="10.00" fill="#000000">string</text>
</g>
<!-- Node1&#45;&gt;Node2 -->
<g id="edge2" class="edge">
<title>Node1&#45;&gt;Node2</title>
<path fill="none" stroke="#191970" d="M507.3951,-112.8613C456.273,-105.2101 384.8292,-92.829 323.5,-76 270.4167,-61.4338 210.8355,-37.7824 175.8282,-23.0999"/>
<polygon fill="#191970" stroke="#191970" points="176.783,-19.7035 166.2095,-19.0314 174.056,-26.1505 176.783,-19.7035"/>
</g>
<!-- Node3 -->
<g id="node4" class="node">
<title>Node3</title>
<polygon fill="#ffffff" stroke="#bfbfbf" points="882,-.5 882,-19.5 965,-19.5 965,-.5 882,-.5"/>
<text text-anchor="middle" x="923.5" y="-7.5" font-family="Helvetica,sans-Serif" font-size="10.00" fill="#000000">unordered_map</text>
</g>
<!-- Node1&#45;&gt;Node3 -->
<g id="edge3" class="edge">
<title>Node1&#45;&gt;Node3</title>
<path fill="none" stroke="#191970" d="M620.3488,-112.4957C657.6911,-104.1618 712.0662,-91.0475 758.5,-76 806.2439,-60.5279 859.9351,-38.0694 892.7372,-23.7507"/>
<polygon fill="#191970" stroke="#191970" points="894.4699,-26.8124 902.2169,-19.585 891.6537,-20.4038 894.4699,-26.8124"/>
</g>
<!-- Node4 -->
<g id="node5" class="node">
<title>Node4</title>
<g id="a_node5"><a xlink:href="_field_desc_types_8_h.html" target="_top" xlink:title="amr&#45;wind/core/FieldDescTypes.H">
<polygon fill="#ffffff" stroke="#000000" points="444,-.5 444,-19.5 607,-19.5 607,-.5 444,-.5"/>
<text text-anchor="middle" x="525.5" y="-7.5" font-family="Helvetica,sans-Serif" font-size="10.00" fill="#000000">amr&#45;wind/core/FieldDescTypes.H</text>
</a>
</g>
</g>
<!-- Node1&#45;&gt;Node4 -->
<g id="edge4" class="edge">
<title>Node1&#45;&gt;Node4</title>
<path fill="none" stroke="#191970" d="M571.237,-112.4509C562.9714,-93.936 544.6335,-52.8591 533.8566,-28.7187"/>
<polygon fill="#191970" stroke="#191970" points="537.0247,-27.2295 529.7522,-19.5249 530.6328,-30.0831 537.0247,-27.2295"/>
</g>
<!-- Node5 -->
<g id="node6" class="node">
<title>Node5</title>
<g id="a_node6"><a xlink:href="_field_utils_8_h.html" target="_top" xlink:title="amr&#45;wind/core/FieldUtils.H">
<polygon fill="#ffffff" stroke="#000000" points="588,-56.5 588,-75.5 721,-75.5 721,-56.5 588,-56.5"/>
<text text-anchor="middle" x="654.5" y="-63.5" font-family="Helvetica,sans-Serif" font-size="10.00" fill="#000000">amr&#45;wind/core/FieldUtils.H</text>
</a>
</g>
</g>
<!-- Node1&#45;&gt;Node5 -->
<g id="edge5" class="edge">
<title>Node1&#45;&gt;Node5</title>
<path fill="none" stroke="#191970" d="M589.2607,-112.2455C601.1552,-103.814 618.565,-91.4729 632.4085,-81.6598"/>
<polygon fill="#191970" stroke="#191970" points="634.7628,-84.2811 640.8969,-75.6427 630.7146,-78.5704 634.7628,-84.2811"/>
</g>
<!-- Node6 -->
<g id="node7" class="node">
<title>Node6</title>
<polygon fill="#ffffff" stroke="#bfbfbf" points="759.5,-.5 759.5,-19.5 863.5,-19.5 863.5,-.5 759.5,-.5"/>
<text text-anchor="middle" x="811.5" y="-7.5" font-family="Helvetica,sans-Serif" font-size="10.00" fill="#000000">AMReX_MultiFab.H</text>
</g>
<!-- Node1&#45;&gt;Node6 -->
<g id="edge29" class="edge">
<title>Node1&#45;&gt;Node6</title>
<path fill="none" stroke="#191970" d="M625.6015,-112.4259C656.9447,-105.1759 697.4918,-93.4412 730.5,-76 755.0838,-63.0101 779.2674,-41.9143 794.7165,-27.0764"/>
<polygon fill="#191970" stroke="#191970" points="797.2754,-29.4689 801.9551,-19.9636 792.3692,-24.476 797.2754,-29.4689"/>
</g>
<!-- Node8 -->
<g id="node9" class="node">
<title>Node8</title>
<g id="a_node9"><a xlink:href="_field_8_h.html" target="_top" xlink:title="amr&#45;wind/core/Field.H">
<polygon fill="#ffffff" stroke="#000000" points="863,-56.5 863,-75.5 976,-75.5 976,-56.5 863,-56.5"/>
<text text-anchor="middle" x="919.5" y="-63.5" font-family="Helvetica,sans-Serif" font-size="10.00" fill="#000000">amr&#45;wind/core/Field.H</text>
</a>
</g>
</g>
<!-- Node1&#45;&gt;Node8 -->
<g id="edge9" class="edge">
<title>Node1&#45;&gt;Node8</title>
<path fill="none" stroke="#191970" d="M634.2448,-112.4369C694.9921,-102.5478 789.6686,-87.1353 853.0955,-76.81"/>
<polygon fill="#191970" stroke="#191970" points="853.6891,-80.2596 862.9968,-75.1982 852.5643,-73.3505 853.6891,-80.2596"/>
</g>
<!-- Node13 -->
<g id="node14" class="node">
<title>Node13</title>
<g id="a_node14"><a xlink:href="_int_field_8_h.html" target="_top" xlink:title="amr&#45;wind/core/IntField.H">
<polygon fill="#ffffff" stroke="#000000" points="94.5,-56.5 94.5,-75.5 218.5,-75.5 218.5,-56.5 94.5,-56.5"/>
<text text-anchor="middle" x="156.5" y="-63.5" font-family="Helvetica,sans-Serif" font-size="10.00" fill="#000000">amr&#45;wind/core/IntField.H</text>
</a>
</g>
</g>
<!-- Node1&#45;&gt;Node13 -->
<g id="edge18" class="edge">
<title>Node1&#45;&gt;Node13</title>
<path fill="none" stroke="#191970" d="M507.2479,-112.878C430.6828,-102.645 307.0043,-86.1151 228.8175,-75.6653"/>
<polygon fill="#191970" stroke="#191970" points="228.9453,-72.1514 218.5697,-74.2957 228.0179,-79.0897 228.9453,-72.1514"/>
</g>
<!-- Node14 -->
<g id="node15" class="node">
<title>Node14</title>
<polygon fill="#ffffff" stroke="#bfbfbf" points="0,-.5 0,-19.5 107,-19.5 107,-.5 0,-.5"/>
<text text-anchor="middle" x="53.5" y="-7.5" font-family="Helvetica,sans-Serif" font-size="10.00" fill="#000000">AMReX_iMultiFab.H</text>
</g>
<!-- Node1&#45;&gt;Node14 -->
<g id="edge30" class="edge">
<title>Node1&#45;&gt;Node14</title>
<path fill="none" stroke="#191970" d="M507.234,-119.2829C380.6761,-113.7106 119.3743,-99.498 85.5,-76 70.008,-65.2535 61.7318,-44.8601 57.5069,-29.5737"/>
<polygon fill="#191970" stroke="#191970" points="60.8397,-28.4625 55.1013,-19.5563 54.0332,-30.0971 60.8397,-28.4625"/>
</g>
<!-- Node15 -->
<g id="node16" class="node">
<title>Node15</title>
<g id="a_node16"><a xlink:href="_scratch_field_8_h.html" target="_top" xlink:title="amr&#45;wind/core/ScratchField.H">
<polygon fill="#ffffff" stroke="#000000" points="332.5,-56.5 332.5,-75.5 478.5,-75.5 478.5,-56.5 332.5,-56.5"/>
<text text-anchor="middle" x="405.5" y="-63.5" font-family="Helvetica,sans-Serif" font-size="10.00" fill="#000000">amr&#45;wind/core/ScratchField.H</text>
</a>
</g>
</g>
<!-- Node1&#45;&gt;Node15 -->
<g id="edge22" class="edge">
<title>Node1&#45;&gt;Node15</title>
<path fill="none" stroke="#191970" d="M546.276,-112.3733C518.0075,-103.0613 475.0035,-88.8953 443.9656,-78.671"/>
<polygon fill="#191970" stroke="#191970" points="444.9357,-75.3056 434.3427,-75.5011 442.7456,-81.9542 444.9357,-75.3056"/>
</g>
<!-- Node18 -->
<g id="node19" class="node">
<title>Node18</title>
<polygon fill="#ffffff" stroke="#bfbfbf" points="994.5,-56.5 994.5,-75.5 1100.5,-75.5 1100.5,-56.5 994.5,-56.5"/>
<text text-anchor="middle" x="1047.5" y="-63.5" font-family="Helvetica,sans-Serif" font-size="10.00" fill="#000000">AMReX_AmrCore.H</text>
</g>
<!-- Node1&#45;&gt;Node18 -->
<g id="edge28" class="edge">
<title>Node1&#45;&gt;Node18</title>
<path fill="none" stroke="#191970" d="M643.8172,-115.3519C723.1525,-107.4028 858.209,-93.1663 984.2097,-76.1236"/>
<polygon fill="#191970" stroke="#191970" points="984.9888,-79.5499 994.4252,-74.7329 984.0445,-72.6139 984.9888,-79.5499"/>
</g>
<!-- Node5&#45;&gt;Node4 -->
<g id="edge6" class="edge">
<title>Node5&#45;&gt;Node4</title>
<path fill="none" stroke="#191970" d="M632.3241,-56.3733C611.5234,-47.3435 580.2083,-33.7494 556.8542,-23.6111"/>
<polygon fill="#191970" stroke="#191970" points="557.9532,-20.2727 547.3865,-19.5011 555.1657,-26.6938 557.9532,-20.2727"/>
</g>
<!-- Node5&#45;&gt;Node6 -->
<g id="edge7" class="edge">
<title>Node5&#45;&gt;Node6</title>
<path fill="none" stroke="#191970" d="M681.4893,-56.3733C707.3699,-47.1419 746.6248,-33.1402 775.2289,-22.9375"/>
<polygon fill="#191970" stroke="#191970" points="776.62,-26.1573 784.8629,-19.5011 774.2683,-19.5642 776.62,-26.1573"/>
</g>
<!-- Node7 -->
<g id="node8" class="node">
<title>Node7</title>
<polygon fill="#ffffff" stroke="#bfbfbf" points="625.5,-.5 625.5,-19.5 741.5,-19.5 741.5,-.5 625.5,-.5"/>
<text text-anchor="middle" x="683.5" y="-7.5" font-family="Helvetica,sans-Serif" font-size="10.00" fill="#000000">AMReX_Interpolater.H</text>
</g>
<!-- Node5&#45;&gt;Node7 -->
<g id="edge8" class="edge">
<title>Node5&#45;&gt;Node7</title>
<path fill="none" stroke="#191970" d="M659.5514,-56.2455C663.5019,-48.617 669.1097,-37.7881 673.9058,-28.5267"/>
<polygon fill="#191970" stroke="#191970" points="677.0159,-30.1321 678.5065,-19.6427 670.7999,-26.9131 677.0159,-30.1321"/>
</g>
<!-- Node8&#45;&gt;Node2 -->
<g id="edge10" class="edge">
<title>Node8&#45;&gt;Node2</title>
<path fill="none" stroke="#191970" d="M862.9176,-62.9044C703.6922,-54.1428 258.5345,-29.2822 176.3952,-19.2126"/>
<polygon fill="#191970" stroke="#191970" points="176.7031,-15.7198 166.2951,-17.701 175.6669,-22.6427 176.7031,-15.7198"/>
</g>
<!-- Node8&#45;&gt;Node3 -->
<g id="edge12" class="edge">
<title>Node8&#45;&gt;Node3</title>
<path fill="none" stroke="#191970" d="M920.1967,-56.2455C920.7187,-48.9382 921.4504,-38.6944 922.0925,-29.7046"/>
<polygon fill="#191970" stroke="#191970" points="925.5898,-29.8667 922.8112,-19.6427 918.6076,-29.3679 925.5898,-29.8667"/>
</g>
<!-- Node8&#45;&gt;Node4 -->
<g id="edge17" class="edge">
<title>Node8&#45;&gt;Node4</title>
<path fill="none" stroke="#191970" d="M862.6298,-57.9169C794.2046,-48.1915 679.0156,-31.8195 602.6255,-20.962"/>
<polygon fill="#191970" stroke="#191970" points="602.9717,-17.4761 592.5787,-19.534 601.9866,-24.4065 602.9717,-17.4761"/>
</g>
<!-- Node8&#45;&gt;Node6 -->
<g id="edge13" class="edge">
<title>Node8&#45;&gt;Node6</title>
<path fill="none" stroke="#191970" d="M900.6878,-56.2455C883.6527,-47.4125 858.3425,-34.2887 839.0319,-24.2758"/>
<polygon fill="#191970" stroke="#191970" points="840.5853,-21.1388 830.0966,-19.6427 837.363,-27.353 840.5853,-21.1388"/>
</g>
<!-- Node9 -->
<g id="node10" class="node">
<title>Node9</title>
<polygon fill="#ffffff" stroke="#bfbfbf" points="983.5,-.5 983.5,-19.5 1035.5,-19.5 1035.5,-.5 983.5,-.5"/>
<text text-anchor="middle" x="1009.5" y="-7.5" font-family="Helvetica,sans-Serif" font-size="10.00" fill="#000000">memory</text>
</g>
<!-- Node8&#45;&gt;Node9 -->
<g id="edge11" class="edge">
<title>Node8&#45;&gt;Node9</title>
<path fill="none" stroke="#191970" d="M935.1768,-56.2455C948.9856,-47.6534 969.3193,-35.0014 985.2292,-25.1018"/>
<polygon fill="#191970" stroke="#191970" points="987.3613,-27.8974 994.0028,-19.6427 983.6632,-21.954 987.3613,-27.8974"/>
</g>
<!-- Node10 -->
<g id="node11" class="node">
<title>Node10</title>
<polygon fill="#ffffff" stroke="#bfbfbf" points="1054,-.5 1054,-19.5 1153,-19.5 1153,-.5 1054,-.5"/>
<text text-anchor="middle" x="1103.5" y="-7.5" font-family="Helvetica,sans-Serif" font-size="10.00" fill="#000000">AMReX_BCRec.H</text>
</g>
<!-- Node8&#45;&gt;Node10 -->
<g id="edge14" class="edge">
<title>Node8&#45;&gt;Node10</title>
<path fill="none" stroke="#191970" d="M951.1307,-56.3733C981.8596,-47.021 1028.676,-32.7725 1062.3022,-22.5385"/>
<polygon fill="#191970" stroke="#191970" points="1063.7344,-25.7612 1072.282,-19.5011 1061.6962,-19.0644 1063.7344,-25.7612"/>
</g>
<!-- Node11 -->
<g id="node12" class="node">
<title>Node11</title>
<polygon fill="#ffffff" stroke="#bfbfbf" points="1171,-.5 1171,-19.5 1256,-19.5 1256,-.5 1171,-.5"/>
<text text-anchor="middle" x="1213.5" y="-7.5" font-family="Helvetica,sans-Serif" font-size="10.00" fill="#000000">AMReX_Gpu.H</text>
</g>
<!-- Node8&#45;&gt;Node11 -->
<g id="edge15" class="edge">
<title>Node8&#45;&gt;Node11</title>
<path fill="none" stroke="#191970" d="M970.2485,-56.4932C1017.2125,-47.6728 1089.2629,-34.084 1160.8342,-20.313"/>
<polygon fill="#191970" stroke="#191970" points="1161.7697,-23.6973 1170.9273,-18.3692 1160.4458,-16.8236 1161.7697,-23.6973"/>
</g>
<!-- Node12 -->
<g id="node13" class="node">
<title>Node12</title>
<g id="a_node13"><a xlink:href="incflo__enums_8_h.html" target="_top" xlink:title="amr&#45;wind/incflo_enums.H">
<polygon fill="#ffffff" stroke="#000000" points="1274.5,-.5 1274.5,-19.5 1402.5,-19.5 1402.5,-.5 1274.5,-.5"/>
<text text-anchor="middle" x="1338.5" y="-7.5" font-family="Helvetica,sans-Serif" font-size="10.00" fill="#000000">amr&#45;wind/incflo_enums.H</text>
</a>
</g>
</g>
<!-- Node8&#45;&gt;Node12 -->
<g id="edge16" class="edge">
<title>Node8&#45;&gt;Node12</title>
<path fill="none" stroke="#191970" d="M976.0135,-57.3519C979.2218,-56.8875 982.4012,-56.4339 985.5,-56 1106.6016,-39.0427 1139.4701,-36.6302 1264.4512,-20.1288"/>
<polygon fill="#191970" stroke="#191970" points="1264.956,-23.5926 1274.41,-18.81 1264.037,-16.6532 1264.956,-23.5926"/>
</g>
<!-- Node13&#45;&gt;Node2 -->
<g id="edge19" class="edge">
<title>Node13&#45;&gt;Node2</title>
<path fill="none" stroke="#191970" d="M154.5839,-56.2455C153.1486,-48.9382 151.1364,-38.6944 149.3705,-29.7046"/>
<polygon fill="#191970" stroke="#191970" points="152.756,-28.7805 147.3941,-19.6427 145.8873,-30.1298 152.756,-28.7805"/>
</g>
<!-- Node13&#45;&gt;Node4 -->
<g id="edge20" class="edge">
<title>Node13&#45;&gt;Node4</title>
<path fill="none" stroke="#191970" d="M218.6786,-56.5637C283.247,-46.7647 384.1931,-31.445 452.5047,-21.0779"/>
<polygon fill="#191970" stroke="#191970" points="453.396,-24.4828 462.7577,-19.5219 452.3457,-17.562 453.396,-24.4828"/>
</g>
<!-- Node13&#45;&gt;Node14 -->
<g id="edge21" class="edge">
<title>Node13&#45;&gt;Node14</title>
<path fill="none" stroke="#191970" d="M138.5588,-56.2455C122.46,-47.4928 98.6121,-34.527 80.2609,-24.5496"/>
<polygon fill="#191970" stroke="#191970" points="81.6929,-21.3444 71.2356,-19.6427 78.3493,-27.4942 81.6929,-21.3444"/>
</g>
<!-- Node15&#45;&gt;Node2 -->
<g id="edge23" class="edge">
<title>Node15&#45;&gt;Node2</title>
<path fill="none" stroke="#191970" d="M347.383,-56.4396C302.8885,-48.6509 239.8735,-36.6115 175.9106,-19.8454"/>
<polygon fill="#191970" stroke="#191970" points="176.6185,-16.4121 166.055,-17.2259 174.8204,-23.1772 176.6185,-16.4121"/>
</g>
<!-- Node15&#45;&gt;Node4 -->
<g id="edge24" class="edge">
<title>Node15&#45;&gt;Node4</title>
<path fill="none" stroke="#191970" d="M426.1287,-56.3733C445.3919,-47.3838 474.3486,-33.8706 496.0419,-23.7471"/>
<polygon fill="#191970" stroke="#191970" points="497.5587,-26.9017 505.1405,-19.5011 494.5985,-20.5584 497.5587,-26.9017"/>
</g>
<!-- Node15&#45;&gt;Node6 -->
<g id="edge25" class="edge">
<title>Node15&#45;&gt;Node6</title>
<path fill="none" stroke="#191970" d="M478.6132,-56.8965C546.2557,-48.3267 649.8706,-34.8267 749.35,-20.1385"/>
<polygon fill="#191970" stroke="#191970" points="749.8941,-23.5962 759.2727,-18.6674 748.8675,-16.6719 749.8941,-23.5962"/>
</g>
<!-- Node16 -->
<g id="node17" class="node">
<title>Node16</title>
<polygon fill="#ffffff" stroke="#bfbfbf" points="184,-.5 184,-19.5 279,-19.5 279,-.5 184,-.5"/>
<text text-anchor="middle" x="231.5" y="-7.5" font-family="Helvetica,sans-Serif" font-size="10.00" fill="#000000">AMReX_Vector.H</text>
</g>
<!-- Node15&#45;&gt;Node16 -->
<g id="edge26" class="edge">
<title>Node15&#45;&gt;Node16</title>
<path fill="none" stroke="#191970" d="M375.5883,-56.3733C346.6548,-47.0613 302.6389,-32.8953 270.8707,-22.671"/>
<polygon fill="#191970" stroke="#191970" points="271.6128,-19.2331 261.0213,-19.5011 269.4682,-25.8965 271.6128,-19.2331"/>
</g>
<!-- Node17 -->
<g id="node18" class="node">
<title>Node17</title>
<polygon fill="#ffffff" stroke="#bfbfbf" points="297.5,-.5 297.5,-19.5 425.5,-19.5 425.5,-.5 297.5,-.5"/>
<text text-anchor="middle" x="361.5" y="-7.5" font-family="Helvetica,sans-Serif" font-size="10.00" fill="#000000">AMReX_PhysBCFunct.H</text>
</g>
<!-- Node15&#45;&gt;Node17 -->
<g id="edge27" class="edge">
<title>Node15&#45;&gt;Node17</title>
<path fill="none" stroke="#191970" d="M397.8358,-56.2455C391.6527,-48.3761 382.7937,-37.101 375.3711,-27.6542"/>
<polygon fill="#191970" stroke="#191970" points="378.0068,-25.3435 369.0764,-19.6427 372.5025,-29.6683 378.0068,-25.3435"/>
</g>
</g>
</svg>
        <g id="navigator" transform="translate(0 0)" fill="#404254">
                <rect fill="#f2f5e9" fill-opacity="0.5" stroke="#606060" stroke-width=".5" x="0" y="0" width="60" height="60"/>
                <use id="zoomplus" xlink:href="#zoomPlus" x="17" y="9" onmousedown="handleZoom(evt,'in')"/>
                <use id="zoomminus" xlink:href="#zoomMin" x="42" y="9" onmousedown="handleZoom(evt,'out')"/>
                <use id="reset" xlink:href="#resetDef" x="30" y="36" onmousedown="handleReset()"/>
                <g id="arrowUp" xlink:href="#dirArrow" transform="translate(30 24)" onmousedown="handlePan(0,-1)">
                  <use xlink:href="#rim" fill="#404040">
                        <set attributeName="fill" to="#808080" begin="arrowUp.mouseover" end="arrowUp.mouseout"/>
                  </use>
                  <path fill="none" stroke="white" stroke-width="1.5" d="M0,-3.0v7 M-2.5,-0.5L0,-3.0L2.5,-0.5"/>
                </g>
                <g id="arrowRight" xlink:href="#dirArrow" transform="rotate(90) translate(36 -43)" onmousedown="handlePan(1,0)">
                  <use xlink:href="#rim" fill="#404040">
                        <set attributeName="fill" to="#808080" begin="arrowRight.mouseover" end="arrowRight.mouseout"/>
                  </use>
                  <path fill="none" stroke="white" stroke-width="1.5" d="M0,-3.0v7 M-2.5,-0.5L0,-3.0L2.5,-0.5"/>
                </g>
                <g id="arrowDown" xlink:href="#dirArrow" transform="rotate(180) translate(-30 -48)" onmousedown="handlePan(0,1)">
                  <use xlink:href="#rim" fill="#404040">
                        <set attributeName="fill" to="#808080" begin="arrowDown.mouseover" end="arrowDown.mouseout"/>
                  </use>
                  <path fill="none" stroke="white" stroke-width="1.5" d="M0,-3.0v7 M-2.5,-0.5L0,-3.0L2.5,-0.5"/>
                </g>
                <g id="arrowLeft" xlink:href="#dirArrow" transform="rotate(270) translate(-36 17)" onmousedown="handlePan(-1,0)">
                  <use xlink:href="#rim" fill="#404040">
                        <set attributeName="fill" to="#808080" begin="arrowLeft.mouseover" end="arrowLeft.mouseout"/>
                  </use>
                  <path fill="none" stroke="white" stroke-width="1.5" d="M0,-3.0v7 M-2.5,-0.5L0,-3.0L2.5,-0.5"/>
                </g>
        </g>
        <svg viewBox="0 0 15 15" width="100%" height="30px" preserveAspectRatio="xMaxYMin meet">
         <g id="arrow_out" transform="scale(0.3 0.3)">
          <a xlink:href="_godunov_8_h__incl_org.svg" target="_base">
           <rect id="button" ry="5" rx="5" y="6" x="6" height="38" width="38"
                fill="#f2f5e9" fill-opacity="0.5" stroke="#606060" stroke-width="1.0"/>
           <path id="arrow"
             d="M 11.500037,31.436501 C 11.940474,20.09759 22.043105,11.32322 32.158766,21.979434 L 37.068811,17.246167 C 37.068811,17.246167 37.088388,32 37.088388,32 L 22.160133,31.978069 C 22.160133,31.978069 26.997745,27.140456 26.997745,27.140456 C 18.528582,18.264221 13.291696,25.230495 11.500037,31.436501 z"
             style="fill:#404040;"/>
          </a>
         </g>
        </svg>
</svg>
