<?xml version="1.0" encoding="UTF-8" standalone="no"?>
<!DOCTYPE svg PUBLIC "-//W3C//DTD SVG 1.1//EN"
 "http://www.w3.org/Graphics/SVG/1.1/DTD/svg11.dtd">
<!-- Generated by graphviz version 2.40.1 (20161225.0304)
 -->
<!-- Title: IOManager.H Pages: 1 -->
<svg width="1292pt" height="364pt"
 viewBox="0.00 0.00 1292.31 364.00" xmlns="http://www.w3.org/2000/svg" xmlns:xlink="http://www.w3.org/1999/xlink">
<g id="graph0" class="graph" transform="scale(1 1) rotate(0) translate(4 360)">
<title>IOManager.H</title>
<polygon fill="#ffffff" stroke="transparent" points="-4,4 -4,-360 1288.3105,-360 1288.3105,4 -4,4"/>
<!-- Node5 -->
<g id="node1" class="node">
<title>Node5</title>
<polygon fill="#bfbfbf" stroke="#000000" points="976.3105,-336.5 976.3105,-355.5 1051.3105,-355.5 1051.3105,-336.5 976.3105,-336.5"/>
<text text-anchor="middle" x="1013.8105" y="-343.5" font-family="Helvetica,sans-Serif" font-size="10.00" fill="#000000">IOManager.H</text>
</g>
<!-- Node6 -->
<g id="node2" class="node">
<title>Node6</title>
<g id="a_node2"><a xlink:href="_c_f_d_sim_8cpp.html" target="_top" xlink:title="CFDSim.cpp">
<polygon fill="#ffffff" stroke="#000000" points="627.8105,-280.5 627.8105,-299.5 701.8105,-299.5 701.8105,-280.5 627.8105,-280.5"/>
<text text-anchor="middle" x="664.8105" y="-287.5" font-family="Helvetica,sans-Serif" font-size="10.00" fill="#000000">CFDSim.cpp</text>
</a>
</g>
</g>
<!-- Node5&#45;&gt;Node6 -->
<g id="edge1" class="edge">
<title>Node5&#45;&gt;Node6</title>
<path fill="none" stroke="#191970" d="M965.9754,-339.6927C906.1271,-331.5822 800.5861,-316.5557 710.8105,-300 707.9172,-299.4664 704.9279,-298.8852 701.9269,-298.2802"/>
<polygon fill="#191970" stroke="#191970" points="965.5136,-343.162 975.8916,-341.0299 966.4491,-336.2248 965.5136,-343.162"/>
</g>
<!-- Node7 -->
<g id="node3" class="node">
<title>Node7</title>
<g id="a_node3"><a xlink:href="_p_d_e_ops_8_h.html" target="_top" xlink:title="PDEOps.H">
<polygon fill="#ffffff" stroke="#000000" points="719.8105,-280.5 719.8105,-299.5 785.8105,-299.5 785.8105,-280.5 719.8105,-280.5"/>
<text text-anchor="middle" x="752.8105" y="-287.5" font-family="Helvetica,sans-Serif" font-size="10.00" fill="#000000">PDEOps.H</text>
</a>
</g>
</g>
<!-- Node5&#45;&gt;Node7 -->
<g id="edge2" class="edge">
<title>Node5&#45;&gt;Node7</title>
<path fill="none" stroke="#191970" d="M966.1141,-335.7663C913.8877,-324.5606 831.5152,-306.8868 785.9253,-297.1051"/>
<polygon fill="#191970" stroke="#191970" points="965.6259,-339.2411 976.1376,-337.9169 967.0944,-332.3969 965.6259,-339.2411"/>
</g>
<!-- Node34 -->
<g id="node30" class="node">
<title>Node34</title>
<g id="a_node30"><a xlink:href="incflo_8cpp.html" target="_top" xlink:title="incflo.cpp">
<polygon fill="#ffffff" stroke="#000000" points="1032.3105,-280.5 1032.3105,-299.5 1091.3105,-299.5 1091.3105,-280.5 1032.3105,-280.5"/>
<text text-anchor="middle" x="1061.8105" y="-287.5" font-family="Helvetica,sans-Serif" font-size="10.00" fill="#000000">incflo.cpp</text>
</a>
</g>
</g>
<!-- Node5&#45;&gt;Node34 -->
<g id="edge58" class="edge">
<title>Node5&#45;&gt;Node34</title>
<path fill="none" stroke="#191970" d="M1028.8102,-328.5004C1036.9727,-318.9775 1046.7594,-307.5596 1053.5454,-299.6427"/>
<polygon fill="#191970" stroke="#191970" points="1026.022,-326.3752 1022.1715,-336.2455 1031.3368,-330.9307 1026.022,-326.3752"/>
</g>
<!-- Node35 -->
<g id="node31" class="node">
<title>Node35</title>
<g id="a_node31"><a xlink:href="_turb_model_base_8_h.html" target="_top" xlink:title="TurbModelBase.H">
<polygon fill="#ffffff" stroke="#000000" points="919.3105,-280.5 919.3105,-299.5 1014.3105,-299.5 1014.3105,-280.5 919.3105,-280.5"/>
<text text-anchor="middle" x="966.8105" y="-287.5" font-family="Helvetica,sans-Serif" font-size="10.00" fill="#000000">TurbModelBase.H</text>
</a>
</g>
</g>
<!-- Node5&#45;&gt;Node35 -->
<g id="edge59" class="edge">
<title>Node5&#45;&gt;Node35</title>
<path fill="none" stroke="#191970" d="M999.1233,-328.5004C991.1309,-318.9775 981.5481,-307.5596 974.9035,-299.6427"/>
<polygon fill="#191970" stroke="#191970" points="996.5141,-330.8358 1005.6237,-336.2455 1001.8759,-326.3357 996.5141,-330.8358"/>
</g>
<!-- Node40 -->
<g id="node36" class="node">
<title>Node40</title>
<g id="a_node36"><a xlink:href="io_8cpp.html" target="_top" xlink:title="io.cpp">
<polygon fill="#ffffff" stroke="#000000" points="1109.3105,-280.5 1109.3105,-299.5 1152.3105,-299.5 1152.3105,-280.5 1109.3105,-280.5"/>
<text text-anchor="middle" x="1130.8105" y="-287.5" font-family="Helvetica,sans-Serif" font-size="10.00" fill="#000000">io.cpp</text>
</a>
</g>
</g>
<!-- Node5&#45;&gt;Node40 -->
<g id="edge65" class="edge">
<title>Node5&#45;&gt;Node40</title>
<path fill="none" stroke="#191970" d="M1043.1147,-331.9741C1064.2985,-321.8348 1092.3509,-308.408 1110.96,-299.5011"/>
<polygon fill="#191970" stroke="#191970" points="1041.4325,-328.8989 1033.9235,-336.3733 1044.4547,-335.2129 1041.4325,-328.8989"/>
</g>
<!-- Node41 -->
<g id="node37" class="node">
<title>Node41</title>
<g id="a_node37"><a xlink:href="_i_o_manager_8cpp.html" target="_top" xlink:title="IOManager.cpp">
<polygon fill="#ffffff" stroke="#000000" points="1170.3105,-280.5 1170.3105,-299.5 1253.3105,-299.5 1253.3105,-280.5 1170.3105,-280.5"/>
<text text-anchor="middle" x="1211.8105" y="-287.5" font-family="Helvetica,sans-Serif" font-size="10.00" fill="#000000">IOManager.cpp</text>
</a>
</g>
</g>
<!-- Node5&#45;&gt;Node41 -->
<g id="edge66" class="edge">
<title>Node5&#45;&gt;Node41</title>
<path fill="none" stroke="#191970" d="M1057.695,-333.5882C1094.0728,-323.2996 1145.0227,-308.8895 1178.2173,-299.5011"/>
<polygon fill="#191970" stroke="#191970" points="1056.5179,-330.2838 1047.8479,-336.3733 1058.423,-337.0195 1056.5179,-330.2838"/>
</g>
<!-- Node8 -->
<g id="node4" class="node">
<title>Node8</title>
<g id="a_node4"><a xlink:href="_adv_op___godunov_8_h.html" target="_top" xlink:title="AdvOp_Godunov.H">
<polygon fill="#ffffff" stroke="#000000" points="606.3105,-112.5 606.3105,-131.5 707.3105,-131.5 707.3105,-112.5 606.3105,-112.5"/>
<text text-anchor="middle" x="656.8105" y="-119.5" font-family="Helvetica,sans-Serif" font-size="10.00" fill="#000000">AdvOp_Godunov.H</text>
</a>
</g>
</g>
<!-- Node7&#45;&gt;Node8 -->
<g id="edge3" class="edge">
<title>Node7&#45;&gt;Node8</title>
<path fill="none" stroke="#191970" d="M744.7724,-271.2853C733.9753,-246.8299 713.6097,-203.0004 691.8105,-168 683.6405,-154.8824 672.6343,-140.9005 665.1608,-131.8412"/>
<polygon fill="#191970" stroke="#191970" points="741.5843,-272.7307 748.7901,-280.4978 748.0007,-269.9324 741.5843,-272.7307"/>
</g>
<!-- Node10 -->
<g id="node6" class="node">
<title>Node10</title>
<g id="a_node6"><a xlink:href="icns__ops_8_h.html" target="_top" xlink:title="icns_ops.H">
<polygon fill="#ffffff" stroke="#000000" points="860.8105,-56.5 860.8105,-75.5 926.8105,-75.5 926.8105,-56.5 860.8105,-56.5"/>
<text text-anchor="middle" x="893.8105" y="-63.5" font-family="Helvetica,sans-Serif" font-size="10.00" fill="#000000">icns_ops.H</text>
</a>
</g>
</g>
<!-- Node7&#45;&gt;Node10 -->
<g id="edge56" class="edge">
<title>Node7&#45;&gt;Node10</title>
<path fill="none" stroke="#191970" d="M791.814,-276.4902C808.65,-269.06 827.4941,-258.38 840.8105,-244 887.2552,-193.8454 893.1228,-104.6886 893.7678,-75.5225"/>
<polygon fill="#191970" stroke="#191970" points="790.0794,-273.4209 782.1902,-280.4928 792.7676,-279.8842 790.0794,-273.4209"/>
</g>
<!-- Node17 -->
<g id="node13" class="node">
<title>Node17</title>
<g id="a_node13"><a xlink:href="_adv_op___m_o_l_8_h.html" target="_top" xlink:title="AdvOp_MOL.H">
<polygon fill="#ffffff" stroke="#000000" points="361.3105,-112.5 361.3105,-131.5 444.3105,-131.5 444.3105,-112.5 361.3105,-112.5"/>
<text text-anchor="middle" x="402.8105" y="-119.5" font-family="Helvetica,sans-Serif" font-size="10.00" fill="#000000">AdvOp_MOL.H</text>
</a>
</g>
</g>
<!-- Node7&#45;&gt;Node17 -->
<g id="edge12" class="edge">
<title>Node7&#45;&gt;Node17</title>
<path fill="none" stroke="#191970" d="M709.2931,-279.8212C628.8657,-263.953 600.3704,-280.1605 530.8105,-244 475.5162,-215.2554 427.4289,-155.3844 409.8878,-131.8261"/>
<polygon fill="#191970" stroke="#191970" points="708.8611,-283.3063 719.365,-281.921 710.2898,-276.4537 708.8611,-283.3063"/>
</g>
<!-- Node18 -->
<g id="node14" class="node">
<title>Node18</title>
<g id="a_node14"><a xlink:href="_b_c_ops_8_h.html" target="_top" xlink:title="BCOps.H">
<polygon fill="#ffffff" stroke="#000000" points="529.3105,-112.5 529.3105,-131.5 588.3105,-131.5 588.3105,-112.5 529.3105,-112.5"/>
<text text-anchor="middle" x="558.8105" y="-119.5" font-family="Helvetica,sans-Serif" font-size="10.00" fill="#000000">BCOps.H</text>
</a>
</g>
</g>
<!-- Node7&#45;&gt;Node18 -->
<g id="edge19" class="edge">
<title>Node7&#45;&gt;Node18</title>
<path fill="none" stroke="#191970" d="M734.1784,-273.865C694.4346,-239.4477 602.3433,-159.6985 570.1594,-131.8279"/>
<polygon fill="#191970" stroke="#191970" points="731.9737,-276.5857 741.8244,-280.4862 736.5561,-271.294 731.9737,-276.5857"/>
</g>
<!-- Node20 -->
<g id="node16" class="node">
<title>Node20</title>
<g id="a_node16"><a xlink:href="_comp_r_h_s_ops_8_h.html" target="_top" xlink:title="CompRHSOps.H">
<polygon fill="#ffffff" stroke="#000000" points="556.3105,-224.5 556.3105,-243.5 649.3105,-243.5 649.3105,-224.5 556.3105,-224.5"/>
<text text-anchor="middle" x="602.8105" y="-231.5" font-family="Helvetica,sans-Serif" font-size="10.00" fill="#000000">CompRHSOps.H</text>
</a>
</g>
</g>
<!-- Node7&#45;&gt;Node20 -->
<g id="edge27" class="edge">
<title>Node7&#45;&gt;Node20</title>
<path fill="none" stroke="#191970" d="M717.4234,-276.7888C690.0352,-266.5639 652.7626,-252.6488 628.26,-243.5011"/>
<polygon fill="#191970" stroke="#191970" points="716.432,-280.1546 727.0246,-280.3733 718.8803,-273.5967 716.432,-280.1546"/>
</g>
<!-- Node21 -->
<g id="node17" class="node">
<title>Node21</title>
<g id="a_node17"><a xlink:href="_p_d_e_8_h.html" target="_top" xlink:title="PDE.H">
<polygon fill="#ffffff" stroke="#000000" points="503.8105,-168.5 503.8105,-187.5 551.8105,-187.5 551.8105,-168.5 503.8105,-168.5"/>
<text text-anchor="middle" x="527.8105" y="-175.5" font-family="Helvetica,sans-Serif" font-size="10.00" fill="#000000">PDE.H</text>
</a>
</g>
</g>
<!-- Node7&#45;&gt;Node21 -->
<g id="edge50" class="edge">
<title>Node7&#45;&gt;Node21</title>
<path fill="none" stroke="#191970" d="M709.9726,-280.0252C635.0156,-265.8174 599.012,-292.9525 546.8105,-244 530.9808,-229.1555 528.0558,-202.0595 527.6874,-187.635"/>
<polygon fill="#191970" stroke="#191970" points="709.3033,-283.4609 719.8084,-282.0842 710.7377,-276.6094 709.3033,-283.4609"/>
</g>
<!-- Node25 -->
<g id="node21" class="node">
<title>Node25</title>
<g id="a_node21"><a xlink:href="icns__diffusion_8_h.html" target="_top" xlink:title="icns_diffusion.H">
<polygon fill="#ffffff" stroke="#000000" points="1051.3105,-56.5 1051.3105,-75.5 1138.3105,-75.5 1138.3105,-56.5 1051.3105,-56.5"/>
<text text-anchor="middle" x="1094.8105" y="-63.5" font-family="Helvetica,sans-Serif" font-size="10.00" fill="#000000">icns_diffusion.H</text>
</a>
</g>
</g>
<!-- Node7&#45;&gt;Node25 -->
<g id="edge57" class="edge">
<title>Node7&#45;&gt;Node25</title>
<path fill="none" stroke="#191970" d="M790.0828,-276.9636C811.6753,-268.7585 839.0106,-257.2322 861.8105,-244 954.7081,-190.0857 1052.7552,-104.1238 1084.3545,-75.5688"/>
<polygon fill="#191970" stroke="#191970" points="788.7527,-273.724 780.6029,-280.494 791.1957,-280.2839 788.7527,-273.724"/>
</g>
<!-- Node32 -->
<g id="node28" class="node">
<title>Node32</title>
<g id="a_node28"><a xlink:href="_diffusion_ops_8_h.html" target="_top" xlink:title="DiffusionOps.H">
<polygon fill="#ffffff" stroke="#000000" points="747.8105,-224.5 747.8105,-243.5 831.8105,-243.5 831.8105,-224.5 747.8105,-224.5"/>
<text text-anchor="middle" x="789.8105" y="-231.5" font-family="Helvetica,sans-Serif" font-size="10.00" fill="#000000">DiffusionOps.H</text>
</a>
</g>
</g>
<!-- Node7&#45;&gt;Node32 -->
<g id="edge51" class="edge">
<title>Node7&#45;&gt;Node32</title>
<path fill="none" stroke="#191970" d="M764.9481,-271.6296C771.1198,-262.2887 778.3671,-251.3197 783.4395,-243.6427"/>
<polygon fill="#191970" stroke="#191970" points="761.8479,-269.9728 759.2554,-280.2455 767.6882,-273.8316 761.8479,-269.9728"/>
</g>
<!-- Node9 -->
<g id="node5" class="node">
<title>Node9</title>
<g id="a_node5"><a xlink:href="density_8cpp.html" target="_top" xlink:title="density.cpp">
<polygon fill="#ffffff" stroke="#000000" points="288.3105,-.5 288.3105,-19.5 355.3105,-19.5 355.3105,-.5 288.3105,-.5"/>
<text text-anchor="middle" x="321.8105" y="-7.5" font-family="Helvetica,sans-Serif" font-size="10.00" fill="#000000">density.cpp</text>
</a>
</g>
</g>
<!-- Node8&#45;&gt;Node9 -->
<g id="edge4" class="edge">
<title>Node8&#45;&gt;Node9</title>
<path fill="none" stroke="#191970" d="M672.1607,-104.2138C682.7045,-89.7753 692.8173,-69.6434 680.8105,-56 659.4576,-31.7365 440.5313,-16.7609 355.4084,-11.8167"/>
<polygon fill="#191970" stroke="#191970" points="669.1804,-102.3406 665.7338,-112.3592 674.6758,-106.6766 669.1804,-102.3406"/>
</g>
<!-- Node8&#45;&gt;Node10 -->
<g id="edge5" class="edge">
<title>Node8&#45;&gt;Node10</title>
<path fill="none" stroke="#191970" d="M707.1244,-110.1115C753.4674,-99.1612 820.8999,-83.2278 860.7666,-73.8078"/>
<polygon fill="#191970" stroke="#191970" points="706.2101,-106.7311 697.283,-112.4369 707.8199,-113.5435 706.2101,-106.7311"/>
</g>
<!-- Node13 -->
<g id="node9" class="node">
<title>Node13</title>
<g id="a_node9"><a xlink:href="levelset_8cpp.html" target="_top" xlink:title="levelset.cpp">
<polygon fill="#ffffff" stroke="#000000" points="201.3105,-.5 201.3105,-19.5 270.3105,-19.5 270.3105,-.5 201.3105,-.5"/>
<text text-anchor="middle" x="235.8105" y="-7.5" font-family="Helvetica,sans-Serif" font-size="10.00" fill="#000000">levelset.cpp</text>
</a>
</g>
</g>
<!-- Node8&#45;&gt;Node13 -->
<g id="edge8" class="edge">
<title>Node8&#45;&gt;Node13</title>
<path fill="none" stroke="#191970" d="M659.6767,-102.0675C660.5923,-87.2107 659.0054,-67.5667 646.8105,-56 587.1938,.546 359.8894,-33.3347 278.8105,-20 276.0879,-19.5522 273.2806,-19.0326 270.4664,-18.4703"/>
<polygon fill="#191970" stroke="#191970" points="656.1676,-101.9761 658.623,-112.2824 663.1307,-102.6944 656.1676,-101.9761"/>
</g>
<!-- Node14 -->
<g id="node10" class="node">
<title>Node14</title>
<g id="a_node10"><a xlink:href="_s_d_r_8cpp.html" target="_top" xlink:title="SDR.cpp">
<polygon fill="#ffffff" stroke="#000000" points="431.3105,-56.5 431.3105,-75.5 488.3105,-75.5 488.3105,-56.5 431.3105,-56.5"/>
<text text-anchor="middle" x="459.8105" y="-63.5" font-family="Helvetica,sans-Serif" font-size="10.00" fill="#000000">SDR.cpp</text>
</a>
</g>
</g>
<!-- Node8&#45;&gt;Node14 -->
<g id="edge9" class="edge">
<title>Node8&#45;&gt;Node14</title>
<path fill="none" stroke="#191970" d="M613.1687,-109.5942C575.1737,-98.7936 521.1896,-83.4479 488.442,-74.1389"/>
<polygon fill="#191970" stroke="#191970" points="612.3691,-113.0055 622.945,-112.3733 614.2831,-106.2723 612.3691,-113.0055"/>
</g>
<!-- Node15 -->
<g id="node11" class="node">
<title>Node15</title>
<g id="a_node11"><a xlink:href="temperature_8cpp.html" target="_top" xlink:title="temperature.cpp">
<polygon fill="#ffffff" stroke="#000000" points="326.3105,-56.5 326.3105,-75.5 413.3105,-75.5 413.3105,-56.5 326.3105,-56.5"/>
<text text-anchor="middle" x="369.8105" y="-63.5" font-family="Helvetica,sans-Serif" font-size="10.00" fill="#000000">temperature.cpp</text>
</a>
</g>
</g>
<!-- Node8&#45;&gt;Node15 -->
<g id="edge10" class="edge">
<title>Node8&#45;&gt;Node15</title>
<path fill="none" stroke="#191970" d="M597.8784,-110.501C543.0796,-99.8086 462.7008,-84.1249 413.449,-74.5148"/>
<polygon fill="#191970" stroke="#191970" points="597.3143,-113.9569 607.7996,-112.4369 598.655,-107.0865 597.3143,-113.9569"/>
</g>
<!-- Node16 -->
<g id="node12" class="node">
<title>Node16</title>
<g id="a_node12"><a xlink:href="_t_k_e_8cpp.html" target="_top" xlink:title="TKE.cpp">
<polygon fill="#ffffff" stroke="#000000" points="583.3105,-56.5 583.3105,-75.5 638.3105,-75.5 638.3105,-56.5 583.3105,-56.5"/>
<text text-anchor="middle" x="610.8105" y="-63.5" font-family="Helvetica,sans-Serif" font-size="10.00" fill="#000000">TKE.cpp</text>
</a>
</g>
</g>
<!-- Node8&#45;&gt;Node16 -->
<g id="edge11" class="edge">
<title>Node8&#45;&gt;Node16</title>
<path fill="none" stroke="#191970" d="M642.4358,-104.5004C634.6134,-94.9775 625.2345,-83.5596 618.7313,-75.6427"/>
<polygon fill="#191970" stroke="#191970" points="639.746,-106.7399 648.7979,-112.2455 645.1551,-102.2967 639.746,-106.7399"/>
</g>
<!-- Node11 -->
<g id="node7" class="node">
<title>Node11</title>
<g id="a_node7"><a xlink:href="icns_8cpp.html" target="_top" xlink:title="icns.cpp">
<polygon fill="#ffffff" stroke="#000000" points="806.3105,-.5 806.3105,-19.5 859.3105,-19.5 859.3105,-.5 806.3105,-.5"/>
<text text-anchor="middle" x="832.8105" y="-7.5" font-family="Helvetica,sans-Serif" font-size="10.00" fill="#000000">icns.cpp</text>
</a>
</g>
</g>
<!-- Node10&#45;&gt;Node11 -->
<g id="edge6" class="edge">
<title>Node10&#45;&gt;Node11</title>
<path fill="none" stroke="#191970" d="M875.6856,-49.3607C865.1325,-39.6727 852.1993,-27.7995 843.3141,-19.6427"/>
<polygon fill="#191970" stroke="#191970" points="873.4516,-52.0611 883.1851,-56.2455 878.1855,-46.9045 873.4516,-52.0611"/>
</g>
<!-- Node12 -->
<g id="node8" class="node">
<title>Node12</title>
<g id="a_node8"><a xlink:href="icns__ops_8cpp.html" target="_top" xlink:title="icns_ops.cpp">
<polygon fill="#ffffff" stroke="#000000" points="877.8105,-.5 877.8105,-19.5 951.8105,-19.5 951.8105,-.5 877.8105,-.5"/>
<text text-anchor="middle" x="914.8105" y="-7.5" font-family="Helvetica,sans-Serif" font-size="10.00" fill="#000000">icns_ops.cpp</text>
</a>
</g>
</g>
<!-- Node10&#45;&gt;Node12 -->
<g id="edge7" class="edge">
<title>Node10&#45;&gt;Node12</title>
<path fill="none" stroke="#191970" d="M901.0296,-46.7493C904.4581,-37.6064 908.4056,-27.0798 911.1945,-19.6427"/>
<polygon fill="#191970" stroke="#191970" points="897.7026,-45.6533 897.4684,-56.2455 904.2569,-48.1112 897.7026,-45.6533"/>
</g>
<!-- Node17&#45;&gt;Node9 -->
<g id="edge13" class="edge">
<title>Node17&#45;&gt;Node9</title>
<path fill="none" stroke="#191970" d="M357.2118,-108.4841C341.604,-101.4323 325.8193,-91.0351 316.8105,-76 306.2975,-58.4543 312.8214,-33.3997 317.7729,-19.761"/>
<polygon fill="#191970" stroke="#191970" points="356.2656,-111.8797 366.8449,-112.454 358.9328,-105.4077 356.2656,-111.8797"/>
</g>
<!-- Node17&#45;&gt;Node10 -->
<g id="edge14" class="edge">
<title>Node17&#45;&gt;Node10</title>
<path fill="none" stroke="#191970" d="M454.6637,-111.8339C614.0226,-88.39 656.8643,-93.6319 813.8105,-76 829.25,-74.2655 846.3409,-72.1551 860.7484,-70.3208"/>
<polygon fill="#191970" stroke="#191970" points="453.8756,-108.4125 444.4988,-113.3447 454.9047,-115.3365 453.8756,-108.4125"/>
</g>
<!-- Node17&#45;&gt;Node13 -->
<g id="edge15" class="edge">
<title>Node17&#45;&gt;Node13</title>
<path fill="none" stroke="#191970" d="M368.9895,-108.5004C350.2368,-100.321 326.9179,-88.9725 307.8105,-76 282.8384,-59.0458 257.7841,-33.7602 244.8348,-19.9257"/>
<polygon fill="#191970" stroke="#191970" points="367.7615,-111.7815 378.3332,-112.4806 370.5048,-105.3415 367.7615,-111.7815"/>
</g>
<!-- Node17&#45;&gt;Node14 -->
<g id="edge16" class="edge">
<title>Node17&#45;&gt;Node14</title>
<path fill="none" stroke="#191970" d="M420.0376,-105.0751C429.8446,-95.4402 441.7745,-83.7196 449.9957,-75.6427"/>
<polygon fill="#191970" stroke="#191970" points="417.4197,-102.7406 412.7392,-112.2455 422.3254,-107.734 417.4197,-102.7406"/>
</g>
<!-- Node17&#45;&gt;Node15 -->
<g id="edge17" class="edge">
<title>Node17&#45;&gt;Node15</title>
<path fill="none" stroke="#191970" d="M391.9851,-103.6296C386.4806,-94.2887 380.0168,-83.3197 375.4928,-75.6427"/>
<polygon fill="#191970" stroke="#191970" points="388.97,-105.4071 397.0624,-112.2455 395.0008,-101.8532 388.97,-105.4071"/>
</g>
<!-- Node17&#45;&gt;Node16 -->
<g id="edge18" class="edge">
<title>Node17&#45;&gt;Node16</title>
<path fill="none" stroke="#191970" d="M448.3536,-109.7384C489.5065,-98.6588 548.7456,-82.7098 583.157,-73.4452"/>
<polygon fill="#191970" stroke="#191970" points="447.3132,-106.3938 438.567,-112.3733 449.1331,-113.1531 447.3132,-106.3938"/>
</g>
<!-- Node18&#45;&gt;Node9 -->
<g id="edge20" class="edge">
<title>Node18&#45;&gt;Node9</title>
<path fill="none" stroke="#191970" d="M555.416,-102.049C551.8362,-87.1821 544.6972,-67.5338 530.8105,-56 504.4448,-34.1015 407.5255,-19.8746 355.4437,-13.6358"/>
<polygon fill="#191970" stroke="#191970" points="552.0749,-103.1791 557.5126,-112.2721 558.9322,-101.7728 552.0749,-103.1791"/>
</g>
<!-- Node18&#45;&gt;Node13 -->
<g id="edge23" class="edge">
<title>Node18&#45;&gt;Node13</title>
<path fill="none" stroke="#191970" d="M546.8962,-103.7848C535.8307,-88.4468 517.9127,-67.2597 496.8105,-56 410.1714,-9.7711 375.1299,-39.132 278.8105,-20 276.1042,-19.4624 273.3086,-18.8783 270.5025,-18.2713"/>
<polygon fill="#191970" stroke="#191970" points="544.025,-105.7864 552.5918,-112.0203 549.7823,-101.8048 544.025,-105.7864"/>
</g>
<!-- Node18&#45;&gt;Node14 -->
<g id="edge24" class="edge">
<title>Node18&#45;&gt;Node14</title>
<path fill="none" stroke="#191970" d="M532.3748,-107.0465C514.7597,-97.0824 492.1258,-84.2794 476.8574,-75.6427"/>
<polygon fill="#191970" stroke="#191970" points="531.1388,-110.3684 541.566,-112.2455 534.5853,-104.2756 531.1388,-110.3684"/>
</g>
<!-- Node18&#45;&gt;Node15 -->
<g id="edge25" class="edge">
<title>Node18&#45;&gt;Node15</title>
<path fill="none" stroke="#191970" d="M519.4483,-110.3371C484.627,-100.0197 434.4444,-85.1508 401.9788,-75.5314"/>
<polygon fill="#191970" stroke="#191970" points="518.697,-113.7648 529.2793,-113.25 520.6856,-107.0533 518.697,-113.7648"/>
</g>
<!-- Node18&#45;&gt;Node16 -->
<g id="edge26" class="edge">
<title>Node18&#45;&gt;Node16</title>
<path fill="none" stroke="#191970" d="M574.7928,-104.7884C583.6883,-95.2085 594.4309,-83.6396 601.8566,-75.6427"/>
<polygon fill="#191970" stroke="#191970" points="572.108,-102.536 567.8682,-112.2455 577.2376,-107.2992 572.108,-102.536"/>
</g>
<!-- Node19 -->
<g id="node15" class="node">
<title>Node19</title>
<g id="a_node15"><a xlink:href="icns__bcop_8_h.html" target="_top" xlink:title="icns_bcop.H">
<polygon fill="#ffffff" stroke="#000000" points="733.3105,-56.5 733.3105,-75.5 804.3105,-75.5 804.3105,-56.5 733.3105,-56.5"/>
<text text-anchor="middle" x="768.8105" y="-63.5" font-family="Helvetica,sans-Serif" font-size="10.00" fill="#000000">icns_bcop.H</text>
</a>
</g>
</g>
<!-- Node18&#45;&gt;Node19 -->
<g id="edge21" class="edge">
<title>Node18&#45;&gt;Node19</title>
<path fill="none" stroke="#191970" d="M598.3339,-111.4604C637.0682,-101.1313 695.5861,-85.5265 732.9935,-75.5512"/>
<polygon fill="#191970" stroke="#191970" points="597.2135,-108.1368 588.453,-114.0953 599.0172,-114.9005 597.2135,-108.1368"/>
</g>
<!-- Node19&#45;&gt;Node11 -->
<g id="edge22" class="edge">
<title>Node19&#45;&gt;Node11</title>
<path fill="none" stroke="#191970" d="M787.5019,-49.645C798.6324,-39.9058 812.3768,-27.8795 821.7903,-19.6427"/>
<polygon fill="#191970" stroke="#191970" points="785.1795,-47.0264 779.9585,-56.2455 789.789,-52.2945 785.1795,-47.0264"/>
</g>
<!-- Node20&#45;&gt;Node21 -->
<g id="edge28" class="edge">
<title>Node20&#45;&gt;Node21</title>
<path fill="none" stroke="#191970" d="M581.6628,-218.2097C568.4904,-208.3743 551.9705,-196.0394 540.7248,-187.6427"/>
<polygon fill="#191970" stroke="#191970" points="579.6397,-221.0671 589.7465,-224.2455 583.8277,-215.4581 579.6397,-221.0671"/>
</g>
<!-- Node22 -->
<g id="node18" class="node">
<title>Node22</title>
<g id="a_node18"><a xlink:href="density_8_h.html" target="_top" xlink:title="density.H">
<polygon fill="#ffffff" stroke="#000000" points="187.3105,-112.5 187.3105,-131.5 246.3105,-131.5 246.3105,-112.5 187.3105,-112.5"/>
<text text-anchor="middle" x="216.8105" y="-119.5" font-family="Helvetica,sans-Serif" font-size="10.00" fill="#000000">density.H</text>
</a>
</g>
</g>
<!-- Node21&#45;&gt;Node22 -->
<g id="edge29" class="edge">
<title>Node21&#45;&gt;Node22</title>
<path fill="none" stroke="#191970" d="M493.5701,-173.2462C441.668,-165.8116 340.0894,-150.3663 254.8105,-132 252.143,-131.4255 249.3813,-130.7864 246.62,-130.1169"/>
<polygon fill="#191970" stroke="#191970" points="493.1753,-176.7251 503.5683,-174.667 494.1602,-169.7948 493.1753,-176.7251"/>
</g>
<!-- Node24 -->
<g id="node20" class="node">
<title>Node24</title>
<g id="a_node20"><a xlink:href="icns_8_h.html" target="_top" xlink:title="icns.H">
<polygon fill="#ffffff" stroke="#000000" points="790.3105,-112.5 790.3105,-131.5 835.3105,-131.5 835.3105,-112.5 790.3105,-112.5"/>
<text text-anchor="middle" x="812.8105" y="-119.5" font-family="Helvetica,sans-Serif" font-size="10.00" fill="#000000">icns.H</text>
</a>
</g>
</g>
<!-- Node21&#45;&gt;Node24 -->
<g id="edge33" class="edge">
<title>Node21&#45;&gt;Node24</title>
<path fill="none" stroke="#191970" d="M562.1322,-173.1313C611.0507,-165.8823 703.4709,-151.0386 780.8105,-132 783.8625,-131.2487 787.0507,-130.3694 790.182,-129.4496"/>
<polygon fill="#191970" stroke="#191970" points="561.4766,-169.6899 552.0898,-174.6029 562.4916,-176.6159 561.4766,-169.6899"/>
</g>
<!-- Node26 -->
<g id="node22" class="node">
<title>Node26</title>
<g id="a_node22"><a xlink:href="levelset_8_h.html" target="_top" xlink:title="levelset.H">
<polygon fill="#ffffff" stroke="#000000" points="24.3105,-112.5 24.3105,-131.5 85.3105,-131.5 85.3105,-112.5 24.3105,-112.5"/>
<text text-anchor="middle" x="54.8105" y="-119.5" font-family="Helvetica,sans-Serif" font-size="10.00" fill="#000000">levelset.H</text>
</a>
</g>
</g>
<!-- Node21&#45;&gt;Node26 -->
<g id="edge39" class="edge">
<title>Node21&#45;&gt;Node26</title>
<path fill="none" stroke="#191970" d="M493.6694,-173.9579C405.2437,-163.4889 169.7931,-135.6132 85.4241,-125.6244"/>
<polygon fill="#191970" stroke="#191970" points="493.3619,-177.4459 503.7041,-175.146 494.185,-170.4944 493.3619,-177.4459"/>
</g>
<!-- Node28 -->
<g id="node24" class="node">
<title>Node28</title>
<g id="a_node24"><a xlink:href="_s_d_r_8_h.html" target="_top" xlink:title="SDR.H">
<polygon fill="#ffffff" stroke="#000000" points="462.3105,-112.5 462.3105,-131.5 511.3105,-131.5 511.3105,-112.5 462.3105,-112.5"/>
<text text-anchor="middle" x="486.8105" y="-119.5" font-family="Helvetica,sans-Serif" font-size="10.00" fill="#000000">SDR.H</text>
</a>
</g>
</g>
<!-- Node21&#45;&gt;Node28 -->
<g id="edge43" class="edge">
<title>Node21&#45;&gt;Node28</title>
<path fill="none" stroke="#191970" d="M514.5741,-159.9209C507.6895,-150.5176 499.5496,-139.3997 493.8703,-131.6427"/>
<polygon fill="#191970" stroke="#191970" points="511.9374,-162.2445 520.6689,-168.2455 517.5855,-158.1093 511.9374,-162.2445"/>
</g>
<!-- Node29 -->
<g id="node25" class="node">
<title>Node29</title>
<g id="a_node25"><a xlink:href="temperature_8_h.html" target="_top" xlink:title="temperature.H">
<polygon fill="#ffffff" stroke="#000000" points="264.3105,-112.5 264.3105,-131.5 343.3105,-131.5 343.3105,-112.5 264.3105,-112.5"/>
<text text-anchor="middle" x="303.8105" y="-119.5" font-family="Helvetica,sans-Serif" font-size="10.00" fill="#000000">temperature.H</text>
</a>
</g>
</g>
<!-- Node21&#45;&gt;Node29 -->
<g id="edge45" class="edge">
<title>Node21&#45;&gt;Node29</title>
<path fill="none" stroke="#191970" d="M493.6428,-169.4581C452.7718,-159.2403 384.5492,-142.1847 341.9826,-131.543"/>
<polygon fill="#191970" stroke="#191970" points="492.8619,-172.8705 503.4122,-171.9004 494.5597,-166.0795 492.8619,-172.8705"/>
</g>
<!-- Node30 -->
<g id="node26" class="node">
<title>Node30</title>
<g id="a_node26"><a xlink:href="_t_k_e_8_h.html" target="_top" xlink:title="TKE.H">
<polygon fill="#ffffff" stroke="#000000" points="725.3105,-112.5 725.3105,-131.5 772.3105,-131.5 772.3105,-112.5 725.3105,-112.5"/>
<text text-anchor="middle" x="748.8105" y="-119.5" font-family="Helvetica,sans-Serif" font-size="10.00" fill="#000000">TKE.H</text>
</a>
</g>
</g>
<!-- Node21&#45;&gt;Node30 -->
<g id="edge47" class="edge">
<title>Node21&#45;&gt;Node30</title>
<path fill="none" stroke="#191970" d="M561.9243,-170.2402C599.7017,-161.5106 662.3375,-146.6323 715.8105,-132 718.8131,-131.1784 721.9574,-130.2779 725.0621,-129.3646"/>
<polygon fill="#191970" stroke="#191970" points="560.9169,-166.8804 551.9566,-172.534 562.4868,-173.7021 560.9169,-166.8804"/>
</g>
<!-- Node22&#45;&gt;Node9 -->
<g id="edge30" class="edge">
<title>Node22&#45;&gt;Node9</title>
<path fill="none" stroke="#191970" d="M232.604,-105.1536C254.9562,-81.3113 295.0771,-38.5156 312.8809,-19.5249"/>
<polygon fill="#191970" stroke="#191970" points="230.0488,-102.7617 225.7628,-112.4509 235.1556,-107.5493 230.0488,-102.7617"/>
</g>
<!-- Node23 -->
<g id="node19" class="node">
<title>Node23</title>
<g id="a_node19"><a xlink:href="density__ops_8_h.html" target="_top" xlink:title="density_ops.H">
<polygon fill="#ffffff" stroke="#000000" points="113.8105,-56.5 113.8105,-75.5 193.8105,-75.5 193.8105,-56.5 113.8105,-56.5"/>
<text text-anchor="middle" x="153.8105" y="-63.5" font-family="Helvetica,sans-Serif" font-size="10.00" fill="#000000">density_ops.H</text>
</a>
</g>
</g>
<!-- Node22&#45;&gt;Node23 -->
<g id="edge31" class="edge">
<title>Node22&#45;&gt;Node23</title>
<path fill="none" stroke="#191970" d="M198.0913,-105.3607C187.1923,-95.6727 173.835,-83.7995 164.6585,-75.6427"/>
<polygon fill="#191970" stroke="#191970" points="196.0374,-108.2178 205.8368,-112.2455 200.6879,-102.9859 196.0374,-108.2178"/>
</g>
<!-- Node23&#45;&gt;Node9 -->
<g id="edge32" class="edge">
<title>Node23&#45;&gt;Node9</title>
<path fill="none" stroke="#191970" d="M192.2391,-53.1905C223.0179,-42.9309 265.5031,-28.7691 293.3072,-19.5011"/>
<polygon fill="#191970" stroke="#191970" points="191.0708,-49.8905 182.6907,-56.3733 193.2844,-56.5313 191.0708,-49.8905"/>
</g>
<!-- Node24&#45;&gt;Node10 -->
<g id="edge35" class="edge">
<title>Node24&#45;&gt;Node10</title>
<path fill="none" stroke="#191970" d="M835.2446,-106.49C849.5359,-96.6096 867.6021,-84.1194 879.8631,-75.6427"/>
<polygon fill="#191970" stroke="#191970" points="833.1548,-103.6797 826.9196,-112.2455 837.1356,-109.4376 833.1548,-103.6797"/>
</g>
<!-- Node24&#45;&gt;Node11 -->
<g id="edge34" class="edge">
<title>Node24&#45;&gt;Node11</title>
<path fill="none" stroke="#191970" d="M816.275,-102.5987C820.6028,-78.363 827.8364,-37.8551 831.1096,-19.5249"/>
<polygon fill="#191970" stroke="#191970" points="812.8282,-101.9914 814.5157,-112.4509 819.7192,-103.222 812.8282,-101.9914"/>
</g>
<!-- Node24&#45;&gt;Node19 -->
<g id="edge38" class="edge">
<title>Node24&#45;&gt;Node19</title>
<path fill="none" stroke="#191970" d="M798.8336,-104.2112C791.3976,-94.7472 782.5445,-83.4797 776.3869,-75.6427"/>
<polygon fill="#191970" stroke="#191970" points="796.2159,-106.5447 805.1463,-112.2455 801.7202,-102.22 796.2159,-106.5447"/>
</g>
<!-- Node24&#45;&gt;Node25 -->
<g id="edge36" class="edge">
<title>Node24&#45;&gt;Node25</title>
<path fill="none" stroke="#191970" d="M845.5128,-115.5059C896.3599,-105.4086 994.4207,-85.9356 1051.2239,-74.6555"/>
<polygon fill="#191970" stroke="#191970" points="844.5378,-112.1311 835.4111,-117.5119 845.9013,-118.9971 844.5378,-112.1311"/>
</g>
<!-- Node25&#45;&gt;Node11 -->
<g id="edge37" class="edge">
<title>Node25&#45;&gt;Node11</title>
<path fill="none" stroke="#191970" d="M1040.8768,-55.4756C984.788,-44.4495 900.7883,-27.6857 868.8105,-20 865.7831,-19.2724 862.6254,-18.4661 859.4926,-17.6361"/>
<polygon fill="#191970" stroke="#191970" points="1040.5192,-58.9722 1051.0062,-57.4642 1041.8677,-52.1033 1040.5192,-58.9722"/>
</g>
<!-- Node26&#45;&gt;Node13 -->
<g id="edge40" class="edge">
<title>Node26&#45;&gt;Node13</title>
<path fill="none" stroke="#191970" d="M30.128,-106.7027C11.3432,-93.1576 -9.1063,-72.9614 4.8105,-56 29.2571,-26.2053 142.9456,-15.3477 201.199,-11.6934"/>
<polygon fill="#191970" stroke="#191970" points="28.279,-109.6782 38.5122,-112.4226 32.2239,-103.8957 28.279,-109.6782"/>
</g>
<!-- Node27 -->
<g id="node23" class="node">
<title>Node27</title>
<g id="a_node23"><a xlink:href="levelset__ops_8_h.html" target="_top" xlink:title="levelset_ops.H">
<polygon fill="#ffffff" stroke="#000000" points="13.8105,-56.5 13.8105,-75.5 95.8105,-75.5 95.8105,-56.5 13.8105,-56.5"/>
<text text-anchor="middle" x="54.8105" y="-63.5" font-family="Helvetica,sans-Serif" font-size="10.00" fill="#000000">levelset_ops.H</text>
</a>
</g>
</g>
<!-- Node26&#45;&gt;Node27 -->
<g id="edge41" class="edge">
<title>Node26&#45;&gt;Node27</title>
<path fill="none" stroke="#191970" d="M54.8105,-102.1575C54.8105,-93.155 54.8105,-82.9199 54.8105,-75.6427"/>
<polygon fill="#191970" stroke="#191970" points="51.3106,-102.2455 54.8105,-112.2455 58.3106,-102.2456 51.3106,-102.2455"/>
</g>
<!-- Node27&#45;&gt;Node13 -->
<g id="edge42" class="edge">
<title>Node27&#45;&gt;Node13</title>
<path fill="none" stroke="#191970" d="M95.7828,-53.3235C128.9766,-43.0536 175.0163,-28.8093 205.1015,-19.5011"/>
<polygon fill="#191970" stroke="#191970" points="94.4442,-50.0739 85.9255,-56.3733 96.5133,-56.7611 94.4442,-50.0739"/>
</g>
<!-- Node28&#45;&gt;Node14 -->
<g id="edge44" class="edge">
<title>Node28&#45;&gt;Node14</title>
<path fill="none" stroke="#191970" d="M477.6709,-103.0437C473.23,-93.8331 468.084,-83.1598 464.4597,-75.6427"/>
<polygon fill="#191970" stroke="#191970" points="474.6117,-104.7579 482.1075,-112.2455 480.9171,-101.7178 474.6117,-104.7579"/>
</g>
<!-- Node29&#45;&gt;Node15 -->
<g id="edge46" class="edge">
<title>Node29&#45;&gt;Node15</title>
<path fill="none" stroke="#191970" d="M323.086,-105.645C334.5643,-95.9058 348.7382,-83.8795 358.4459,-75.6427"/>
<polygon fill="#191970" stroke="#191970" points="320.6675,-103.1069 315.3068,-112.2455 325.1964,-108.4445 320.6675,-103.1069"/>
</g>
<!-- Node30&#45;&gt;Node16 -->
<g id="edge48" class="edge">
<title>Node30&#45;&gt;Node16</title>
<path fill="none" stroke="#191970" d="M715.5892,-108.5189C690.4565,-98.3201 656.5687,-84.5685 634.224,-75.5011"/>
<polygon fill="#191970" stroke="#191970" points="714.5053,-111.8562 725.0875,-112.3733 717.1374,-105.3699 714.5053,-111.8562"/>
</g>
<!-- Node31 -->
<g id="node27" class="node">
<title>Node31</title>
<g id="a_node27"><a xlink:href="_one_eq_ksgs_8cpp.html" target="_top" xlink:title="OneEqKsgs.cpp">
<polygon fill="#ffffff" stroke="#000000" points="944.8105,-56.5 944.8105,-75.5 1032.8105,-75.5 1032.8105,-56.5 944.8105,-56.5"/>
<text text-anchor="middle" x="988.8105" y="-63.5" font-family="Helvetica,sans-Serif" font-size="10.00" fill="#000000">OneEqKsgs.cpp</text>
</a>
</g>
</g>
<!-- Node30&#45;&gt;Node31 -->
<g id="edge49" class="edge">
<title>Node30&#45;&gt;Node31</title>
<path fill="none" stroke="#191970" d="M782.3283,-111.7392C843.5137,-95.6583 904.5861,-82.7088 944.723,-74.6134"/>
<polygon fill="#191970" stroke="#191970" points="781.2771,-108.397 772.5106,-114.3467 783.074,-115.1625 781.2771,-108.397"/>
</g>
<!-- Node32&#45;&gt;Node10 -->
<g id="edge54" class="edge">
<title>Node32&#45;&gt;Node10</title>
<path fill="none" stroke="#191970" d="M813.3379,-218.4201C824.0745,-210.366 836.2685,-199.7626 844.8105,-188 871.6348,-151.0623 886.4534,-97.3769 891.6529,-75.657"/>
<polygon fill="#191970" stroke="#191970" points="811.2205,-215.6316 805.1375,-224.3061 815.3024,-221.3183 811.2205,-215.6316"/>
</g>
<!-- Node32&#45;&gt;Node21 -->
<g id="edge52" class="edge">
<title>Node32&#45;&gt;Node21</title>
<path fill="none" stroke="#191970" d="M737.9317,-222.9114C681.6516,-210.8821 594.2169,-192.1937 552.1045,-183.1926"/>
<polygon fill="#191970" stroke="#191970" points="737.205,-226.3351 747.7157,-225.0026 738.6682,-219.4897 737.205,-226.3351"/>
</g>
<!-- Node32&#45;&gt;Node25 -->
<g id="edge55" class="edge">
<title>Node32&#45;&gt;Node25</title>
<path fill="none" stroke="#191970" d="M815.5226,-219.1347C830.2001,-210.4261 848.8079,-199.0054 864.8105,-188 910.5154,-156.5675 915.0303,-138.409 963.8105,-112 993.9107,-95.7041 1030.9244,-83.3333 1057.9207,-75.547"/>
<polygon fill="#191970" stroke="#191970" points="813.3572,-216.3478 806.5118,-224.4343 816.9059,-222.3816 813.3572,-216.3478"/>
</g>
<!-- Node33 -->
<g id="node29" class="node">
<title>Node33</title>
<g id="a_node29"><a xlink:href="_diffusion_ops_8cpp.html" target="_top" xlink:title="DiffusionOps.cpp">
<polygon fill="#ffffff" stroke="#000000" points="743.8105,-168.5 743.8105,-187.5 835.8105,-187.5 835.8105,-168.5 743.8105,-168.5"/>
<text text-anchor="middle" x="789.8105" y="-175.5" font-family="Helvetica,sans-Serif" font-size="10.00" fill="#000000">DiffusionOps.cpp</text>
</a>
</g>
</g>
<!-- Node32&#45;&gt;Node33 -->
<g id="edge53" class="edge">
<title>Node32&#45;&gt;Node33</title>
<path fill="none" stroke="#191970" d="M789.8105,-214.1575C789.8105,-205.155 789.8105,-194.9199 789.8105,-187.6427"/>
<polygon fill="#191970" stroke="#191970" points="786.3106,-214.2455 789.8105,-224.2455 793.3106,-214.2456 786.3106,-214.2455"/>
</g>
<!-- Node36 -->
<g id="node32" class="node">
<title>Node36</title>
<g id="a_node32"><a xlink:href="_one_eq_ksgs_8_h.html" target="_top" xlink:title="OneEqKsgs.H">
<polygon fill="#ffffff" stroke="#000000" points="1005.8105,-224.5 1005.8105,-243.5 1085.8105,-243.5 1085.8105,-224.5 1005.8105,-224.5"/>
<text text-anchor="middle" x="1045.8105" y="-231.5" font-family="Helvetica,sans-Serif" font-size="10.00" fill="#000000">OneEqKsgs.H</text>
</a>
</g>
</g>
<!-- Node35&#45;&gt;Node36 -->
<g id="edge60" class="edge">
<title>Node35&#45;&gt;Node36</title>
<path fill="none" stroke="#191970" d="M989.0861,-274.2097C1002.961,-264.3743 1020.362,-252.0394 1032.2075,-243.6427"/>
<polygon fill="#191970" stroke="#191970" points="986.7054,-271.6071 980.5713,-280.2455 990.7536,-277.3178 986.7054,-271.6071"/>
</g>
<!-- Node37 -->
<g id="node33" class="node">
<title>Node37</title>
<g id="a_node33"><a xlink:href="_smagorinsky_8_h.html" target="_top" xlink:title="Smagorinsky.H">
<polygon fill="#ffffff" stroke="#000000" points="1103.8105,-224.5 1103.8105,-243.5 1187.8105,-243.5 1187.8105,-224.5 1103.8105,-224.5"/>
<text text-anchor="middle" x="1145.8105" y="-231.5" font-family="Helvetica,sans-Serif" font-size="10.00" fill="#000000">Smagorinsky.H</text>
</a>
</g>
</g>
<!-- Node35&#45;&gt;Node37 -->
<g id="edge62" class="edge">
<title>Node35&#45;&gt;Node37</title>
<path fill="none" stroke="#191970" d="M1007.33,-277.3235C1040.1571,-267.0536 1085.6881,-252.8093 1115.4409,-243.5011"/>
<polygon fill="#191970" stroke="#191970" points="1006.0805,-274.0471 997.5817,-280.3733 1008.1706,-280.7278 1006.0805,-274.0471"/>
</g>
<!-- Node36&#45;&gt;Node31 -->
<g id="edge61" class="edge">
<title>Node36&#45;&gt;Node31</title>
<path fill="none" stroke="#191970" d="M1039.2714,-214.7267C1027.089,-178.8207 1001.3241,-102.8822 992.145,-75.8279"/>
<polygon fill="#191970" stroke="#191970" points="1036.0552,-216.141 1042.5826,-224.4862 1042.684,-213.8919 1036.0552,-216.141"/>
</g>
<!-- Node38 -->
<g id="node34" class="node">
<title>Node38</title>
<g id="a_node34"><a xlink:href="_smagorinsky_8cpp.html" target="_top" xlink:title="Smagorinsky.cpp">
<polygon fill="#ffffff" stroke="#000000" points="1078.8105,-168.5 1078.8105,-187.5 1170.8105,-187.5 1170.8105,-168.5 1078.8105,-168.5"/>
<text text-anchor="middle" x="1124.8105" y="-175.5" font-family="Helvetica,sans-Serif" font-size="10.00" fill="#000000">Smagorinsky.cpp</text>
</a>
</g>
</g>
<!-- Node37&#45;&gt;Node38 -->
<g id="edge63" class="edge">
<title>Node37&#45;&gt;Node38</title>
<path fill="none" stroke="#191970" d="M1138.5915,-214.7493C1135.1629,-205.6064 1131.2155,-195.0798 1128.4265,-187.6427"/>
<polygon fill="#191970" stroke="#191970" points="1135.3641,-216.1112 1142.1526,-224.2455 1141.9185,-213.6533 1135.3641,-216.1112"/>
</g>
<!-- Node39 -->
<g id="node35" class="node">
<title>Node39</title>
<g id="a_node35"><a xlink:href="turbulence__utils_8_h.html" target="_top" xlink:title="turbulence_utils.H">
<polygon fill="#ffffff" stroke="#000000" points="1189.3105,-168.5 1189.3105,-187.5 1284.3105,-187.5 1284.3105,-168.5 1189.3105,-168.5"/>
<text text-anchor="middle" x="1236.8105" y="-175.5" font-family="Helvetica,sans-Serif" font-size="10.00" fill="#000000">turbulence_utils.H</text>
</a>
</g>
</g>
<!-- Node37&#45;&gt;Node39 -->
<g id="edge64" class="edge">
<title>Node37&#45;&gt;Node39</title>
<path fill="none" stroke="#191970" d="M1170.5609,-218.769C1186.6864,-208.8456 1207.2365,-196.1994 1221.1412,-187.6427"/>
<polygon fill="#191970" stroke="#191970" points="1168.3438,-216.0237 1161.6615,-224.2455 1172.0125,-221.9853 1168.3438,-216.0237"/>
</g>
</g>
</svg>
