<?xml version="1.0" encoding="UTF-8" standalone="no"?>
<!DOCTYPE svg PUBLIC "-//W3C//DTD SVG 1.1//EN"
 "http://www.w3.org/Graphics/SVG/1.1/DTD/svg11.dtd">
<!-- Generated by graphviz version 2.40.1 (20161225.0304)
 -->
<!-- Title: IntField.H Pages: 1 -->
<svg width="3756pt" height="308pt"
 viewBox="0.00 0.00 3755.50 308.00" xmlns="http://www.w3.org/2000/svg" xmlns:xlink="http://www.w3.org/1999/xlink">
<g id="graph0" class="graph" transform="scale(1 1) rotate(0) translate(4 304)">
<title>IntField.H</title>
<polygon fill="#ffffff" stroke="transparent" points="-4,4 -4,-304 3751.5,-304 3751.5,4 -4,4"/>
<!-- Node4 -->
<g id="node1" class="node">
<title>Node4</title>
<polygon fill="#bfbfbf" stroke="#000000" points="2267,-280.5 2267,-299.5 2326,-299.5 2326,-280.5 2267,-280.5"/>
<text text-anchor="middle" x="2296.5" y="-287.5" font-family="Helvetica,sans-Serif" font-size="10.00" fill="#000000">IntField.H</text>
</g>
<!-- Node5 -->
<g id="node2" class="node">
<title>Node5</title>
<g id="a_node2"><a xlink:href="_field_repo_8_h.html" target="_top" xlink:title="FieldRepo.H">
<polygon fill="#ffffff" stroke="#000000" points="2229,-224.5 2229,-243.5 2300,-243.5 2300,-224.5 2229,-224.5"/>
<text text-anchor="middle" x="2264.5" y="-231.5" font-family="Helvetica,sans-Serif" font-size="10.00" fill="#000000">FieldRepo.H</text>
</a>
</g>
</g>
<!-- Node4&#45;&gt;Node5 -->
<g id="edge1" class="edge">
<title>Node4&#45;&gt;Node5</title>
<path fill="none" stroke="#191970" d="M2285.8355,-271.3372C2280.5346,-262.0605 2274.3513,-251.2398 2270.0101,-243.6427"/>
<polygon fill="#191970" stroke="#191970" points="2282.9257,-273.2996 2290.926,-280.2455 2289.0034,-269.8266 2282.9257,-273.2996"/>
</g>
<!-- Node106 -->
<g id="node31" class="node">
<title>Node106</title>
<g id="a_node31"><a xlink:href="_int_field_8cpp.html" target="_top" xlink:title="IntField.cpp">
<polygon fill="#ffffff" stroke="#000000" points="3679.5,-168.5 3679.5,-187.5 3747.5,-187.5 3747.5,-168.5 3679.5,-168.5"/>
<text text-anchor="middle" x="3713.5" y="-175.5" font-family="Helvetica,sans-Serif" font-size="10.00" fill="#000000">IntField.cpp</text>
</a>
</g>
</g>
<!-- Node4&#45;&gt;Node106 -->
<g id="edge70" class="edge">
<title>Node4&#45;&gt;Node106</title>
<path fill="none" stroke="#191970" d="M2336.2369,-288.2831C2499.4472,-280.963 3134.097,-249.8695 3652.5,-188 3661.2379,-186.9572 3670.6367,-185.5564 3679.3765,-184.134"/>
<polygon fill="#191970" stroke="#191970" points="2336.009,-284.7897 2326.1745,-288.7309 2336.3203,-291.7827 2336.009,-284.7897"/>
</g>
<!-- Node6 -->
<g id="node3" class="node">
<title>Node6</title>
<g id="a_node3"><a xlink:href="_b_c_interface_8cpp.html" target="_top" xlink:title="BCInterface.cpp">
<polygon fill="#ffffff" stroke="#000000" points="3607.5,-112.5 3607.5,-131.5 3695.5,-131.5 3695.5,-112.5 3607.5,-112.5"/>
<text text-anchor="middle" x="3651.5" y="-119.5" font-family="Helvetica,sans-Serif" font-size="10.00" fill="#000000">BCInterface.cpp</text>
</a>
</g>
</g>
<!-- Node5&#45;&gt;Node6 -->
<g id="edge2" class="edge">
<title>Node5&#45;&gt;Node6</title>
<path fill="none" stroke="#191970" d="M2310.5881,-233.1891C2546.1732,-228.9534 3605.8495,-208.7715 3632.5,-188 3649.8044,-174.5129 3652.0492,-146.3178 3651.943,-131.5249"/>
<polygon fill="#191970" stroke="#191970" points="2310.2522,-229.6944 2300.3165,-233.373 2310.3776,-236.6933 2310.2522,-229.6944"/>
</g>
<!-- Node7 -->
<g id="node4" class="node">
<title>Node7</title>
<g id="a_node4"><a xlink:href="_fixed_gradient_b_c_8_h.html" target="_top" xlink:title="FixedGradientBC.H">
<polygon fill="#ffffff" stroke="#000000" points="3521.5,-168.5 3521.5,-187.5 3623.5,-187.5 3623.5,-168.5 3521.5,-168.5"/>
<text text-anchor="middle" x="3572.5" y="-175.5" font-family="Helvetica,sans-Serif" font-size="10.00" fill="#000000">FixedGradientBC.H</text>
</a>
</g>
</g>
<!-- Node5&#45;&gt;Node7 -->
<g id="edge3" class="edge">
<title>Node5&#45;&gt;Node7</title>
<path fill="none" stroke="#191970" d="M2310.4181,-233.0133C2505.7277,-228.7065 3268.3059,-210.7486 3507.5,-188 3512.0465,-187.5676 3516.7591,-187.0262 3521.4749,-186.4204"/>
<polygon fill="#191970" stroke="#191970" points="2310.1414,-229.5184 2300.2206,-233.2371 2310.295,-236.5167 2310.1414,-229.5184"/>
</g>
<!-- Node9 -->
<g id="node6" class="node">
<title>Node9</title>
<g id="a_node6"><a xlink:href="_c_f_d_sim_8_h.html" target="_top" xlink:title="CFDSim.H">
<polygon fill="#ffffff" stroke="#ff0000" points="824,-168.5 824,-187.5 889,-187.5 889,-168.5 824,-168.5"/>
<text text-anchor="middle" x="856.5" y="-175.5" font-family="Helvetica,sans-Serif" font-size="10.00" fill="#000000">CFDSim.H</text>
</a>
</g>
</g>
<!-- Node5&#45;&gt;Node9 -->
<g id="edge6" class="edge">
<title>Node5&#45;&gt;Node9</title>
<path fill="none" stroke="#191970" d="M2218.8979,-232.1863C2001.7164,-223.5484 1075.0851,-186.6937 889.0889,-179.2961"/>
<polygon fill="#191970" stroke="#191970" points="2218.8599,-235.6874 2228.9911,-232.5877 2219.1381,-228.693 2218.8599,-235.6874"/>
</g>
<!-- Node10 -->
<g id="node7" class="node">
<title>Node10</title>
<g id="a_node7"><a xlink:href="incflo_8_h.html" target="_top" xlink:title="incflo.H">
<polygon fill="#ffffff" stroke="#ff0000" points="1277.5,-112.5 1277.5,-131.5 1327.5,-131.5 1327.5,-112.5 1277.5,-112.5"/>
<text text-anchor="middle" x="1302.5" y="-119.5" font-family="Helvetica,sans-Serif" font-size="10.00" fill="#000000">incflo.H</text>
</a>
</g>
</g>
<!-- Node5&#45;&gt;Node10 -->
<g id="edge32" class="edge">
<title>Node5&#45;&gt;Node10</title>
<path fill="none" stroke="#191970" d="M2218.8052,-233.3469C2048.6633,-230.6804 1457.6435,-219.2367 1379.5,-188 1349.4179,-175.9751 1322.8005,-147.1403 1310.2078,-131.8719"/>
<polygon fill="#191970" stroke="#191970" points="2218.8773,-236.8483 2228.9301,-233.503 2218.9852,-229.8492 2218.8773,-236.8483"/>
</g>
<!-- Node71 -->
<g id="node21" class="node">
<title>Node71</title>
<g id="a_node21"><a xlink:href="_p_d_e_base_8cpp.html" target="_top" xlink:title="PDEBase.cpp">
<polygon fill="#ffffff" stroke="#000000" points="0,-112.5 0,-131.5 79,-131.5 79,-112.5 0,-112.5"/>
<text text-anchor="middle" x="39.5" y="-119.5" font-family="Helvetica,sans-Serif" font-size="10.00" fill="#000000">PDEBase.cpp</text>
</a>
</g>
</g>
<!-- Node5&#45;&gt;Node71 -->
<g id="edge62" class="edge">
<title>Node5&#45;&gt;Node71</title>
<path fill="none" stroke="#191970" d="M2218.3873,-233.6349C1907.5158,-231.1007 128.6078,-215.4166 80.5,-188 58.9358,-175.7106 47.1895,-146.9915 42.2879,-131.8091"/>
<polygon fill="#191970" stroke="#191970" points="2218.7933,-237.1383 2228.8214,-233.7195 2218.8501,-230.1385 2218.7933,-237.1383"/>
</g>
<!-- Node75 -->
<g id="node25" class="node">
<title>Node75</title>
<g id="a_node25"><a xlink:href="_tioga_interface_8cpp.html" target="_top" xlink:title="TiogaInterface.cpp">
<polygon fill="#ffffff" stroke="#000000" points="1161.5,-112.5 1161.5,-131.5 1259.5,-131.5 1259.5,-112.5 1161.5,-112.5"/>
<text text-anchor="middle" x="1210.5" y="-119.5" font-family="Helvetica,sans-Serif" font-size="10.00" fill="#000000">TiogaInterface.cpp</text>
</a>
</g>
</g>
<!-- Node5&#45;&gt;Node75 -->
<g id="edge67" class="edge">
<title>Node5&#45;&gt;Node75</title>
<path fill="none" stroke="#191970" d="M2218.8924,-232.8152C2044.9212,-228.1462 1428.5114,-210.1848 1343.5,-188 1297.3578,-175.9586 1248.4487,-146.8535 1224.8686,-131.6354"/>
<polygon fill="#191970" stroke="#191970" points="2218.9023,-236.3166 2228.9921,-233.0846 2219.089,-229.3191 2218.9023,-236.3166"/>
</g>
<!-- Node94 -->
<g id="node26" class="node">
<title>Node94</title>
<g id="a_node26"><a xlink:href="_godunov_8_h.html" target="_top" xlink:title="Godunov.H">
<polygon fill="#ffffff" stroke="#ff0000" points="1570.5,-168.5 1570.5,-187.5 1636.5,-187.5 1636.5,-168.5 1570.5,-168.5"/>
<text text-anchor="middle" x="1603.5" y="-175.5" font-family="Helvetica,sans-Serif" font-size="10.00" fill="#000000">Godunov.H</text>
</a>
</g>
</g>
<!-- Node5&#45;&gt;Node94 -->
<g id="edge33" class="edge">
<title>Node5&#45;&gt;Node94</title>
<path fill="none" stroke="#191970" d="M2218.6213,-233.0903C2115.5642,-230.5021 1858.0943,-220.9921 1645.5,-188 1642.6854,-187.5632 1639.781,-187.0358 1636.8754,-186.4542"/>
<polygon fill="#191970" stroke="#191970" points="2218.6033,-236.5908 2228.6849,-233.3332 2218.7723,-229.5929 2218.6033,-236.5908"/>
</g>
<!-- Node99 -->
<g id="node27" class="node">
<title>Node99</title>
<g id="a_node27"><a xlink:href="mac__projection_8_h.html" target="_top" xlink:title="mac_projection.H">
<polygon fill="#ffffff" stroke="#ff0000" points="1655,-168.5 1655,-187.5 1748,-187.5 1748,-168.5 1655,-168.5"/>
<text text-anchor="middle" x="1701.5" y="-175.5" font-family="Helvetica,sans-Serif" font-size="10.00" fill="#000000">mac_projection.H</text>
</a>
</g>
</g>
<!-- Node5&#45;&gt;Node99 -->
<g id="edge34" class="edge">
<title>Node5&#45;&gt;Node99</title>
<path fill="none" stroke="#191970" d="M2218.6908,-231.1727C2129.597,-225.3802 1926.86,-210.7613 1757.5,-188 1754.4657,-187.5922 1751.3451,-187.1365 1748.2036,-186.6506"/>
<polygon fill="#191970" stroke="#191970" points="2218.5256,-234.6692 2228.7299,-231.8192 2218.9755,-227.6837 2218.5256,-234.6692"/>
</g>
<!-- Node101 -->
<g id="node28" class="node">
<title>Node101</title>
<g id="a_node28"><a xlink:href="_m_o_l_8_h.html" target="_top" xlink:title="MOL.H">
<polygon fill="#ffffff" stroke="#ff0000" points="1766.5,-168.5 1766.5,-187.5 1814.5,-187.5 1814.5,-168.5 1766.5,-168.5"/>
<text text-anchor="middle" x="1790.5" y="-175.5" font-family="Helvetica,sans-Serif" font-size="10.00" fill="#000000">MOL.H</text>
</a>
</g>
</g>
<!-- Node5&#45;&gt;Node101 -->
<g id="edge35" class="edge">
<title>Node5&#45;&gt;Node101</title>
<path fill="none" stroke="#191970" d="M2218.7077,-232.0951C2138.1094,-228.1066 1965.9443,-216.739 1823.5,-188 1820.5659,-187.408 1817.5191,-186.6658 1814.5155,-185.8547"/>
<polygon fill="#191970" stroke="#191970" points="2218.8429,-235.6055 2228.9991,-232.5886 2219.1782,-228.6135 2218.8429,-235.6055"/>
</g>
<!-- Node104 -->
<g id="node29" class="node">
<title>Node104</title>
<g id="a_node29"><a xlink:href="_field_8cpp.html" target="_top" xlink:title="Field.cpp">
<polygon fill="#ffffff" stroke="#000000" points="1832.5,-168.5 1832.5,-187.5 1888.5,-187.5 1888.5,-168.5 1832.5,-168.5"/>
<text text-anchor="middle" x="1860.5" y="-175.5" font-family="Helvetica,sans-Serif" font-size="10.00" fill="#000000">Field.cpp</text>
</a>
</g>
</g>
<!-- Node5&#45;&gt;Node104 -->
<g id="edge36" class="edge">
<title>Node5&#45;&gt;Node104</title>
<path fill="none" stroke="#191970" d="M2218.6011,-230.3158C2148.7955,-224.2479 2011.9639,-210.5277 1897.5,-188 1894.6273,-187.4346 1891.6491,-186.7682 1888.6865,-186.0521"/>
<polygon fill="#191970" stroke="#191970" points="2218.5473,-233.8239 2228.8095,-231.1899 2219.1446,-226.8494 2218.5473,-233.8239"/>
</g>
<!-- Node105 -->
<g id="node30" class="node">
<title>Node105</title>
<g id="a_node30"><a xlink:href="_field_repo_8cpp.html" target="_top" xlink:title="FieldRepo.cpp">
<polygon fill="#ffffff" stroke="#000000" points="1906.5,-168.5 1906.5,-187.5 1986.5,-187.5 1986.5,-168.5 1906.5,-168.5"/>
<text text-anchor="middle" x="1946.5" y="-175.5" font-family="Helvetica,sans-Serif" font-size="10.00" fill="#000000">FieldRepo.cpp</text>
</a>
</g>
</g>
<!-- Node5&#45;&gt;Node105 -->
<g id="edge37" class="edge">
<title>Node5&#45;&gt;Node105</title>
<path fill="none" stroke="#191970" d="M2218.8829,-226.6554C2165.3109,-217.9244 2073.8095,-202.6825 1995.5,-188 1992.5986,-187.456 1989.6035,-186.8801 1986.5909,-186.2904"/>
<polygon fill="#191970" stroke="#191970" points="2218.3225,-230.1101 2228.7546,-228.2605 2219.446,-223.2009 2218.3225,-230.1101"/>
</g>
<!-- Node5&#45;&gt;Node106 -->
<g id="edge38" class="edge">
<title>Node5&#45;&gt;Node106</title>
<path fill="none" stroke="#191970" d="M2310.3604,-233.5588C2520.6655,-231.3725 3394.1625,-220.4723 3665.5,-188 3669.9795,-187.4639 3674.6616,-186.7212 3679.2704,-185.8803"/>
<polygon fill="#191970" stroke="#191970" points="2310.246,-230.0597 2300.2825,-233.6622 2310.3179,-237.0594 2310.246,-230.0597"/>
</g>
<!-- Node107 -->
<g id="node32" class="node">
<title>Node107</title>
<g id="a_node32"><a xlink:href="compute__curvature_8cpp.html" target="_top" xlink:title="compute_curvature.cpp">
<polygon fill="#ffffff" stroke="#000000" points="2005,-168.5 2005,-187.5 2124,-187.5 2124,-168.5 2005,-168.5"/>
<text text-anchor="middle" x="2064.5" y="-175.5" font-family="Helvetica,sans-Serif" font-size="10.00" fill="#000000">compute_curvature.cpp</text>
</a>
</g>
</g>
<!-- Node5&#45;&gt;Node107 -->
<g id="edge39" class="edge">
<title>Node5&#45;&gt;Node107</title>
<path fill="none" stroke="#191970" d="M2220.1722,-221.5882C2183.427,-211.2996 2131.9625,-196.8895 2098.4326,-187.5011"/>
<polygon fill="#191970" stroke="#191970" points="2219.5454,-225.0473 2230.1188,-224.3733 2221.4329,-218.3065 2219.5454,-225.0473"/>
</g>
<!-- Node108 -->
<g id="node33" class="node">
<title>Node108</title>
<g id="a_node33"><a xlink:href="compute__gradient_8cpp.html" target="_top" xlink:title="compute_gradient.cpp">
<polygon fill="#ffffff" stroke="#000000" points="2142,-168.5 2142,-187.5 2255,-187.5 2255,-168.5 2142,-168.5"/>
<text text-anchor="middle" x="2198.5" y="-175.5" font-family="Helvetica,sans-Serif" font-size="10.00" fill="#000000">compute_gradient.cpp</text>
</a>
</g>
</g>
<!-- Node5&#45;&gt;Node108 -->
<g id="edge40" class="edge">
<title>Node5&#45;&gt;Node108</title>
<path fill="none" stroke="#191970" d="M2245.2245,-217.645C2233.7462,-207.9058 2219.5723,-195.8795 2209.8646,-187.6427"/>
<polygon fill="#191970" stroke="#191970" points="2243.1141,-220.4445 2253.0037,-224.2455 2247.643,-215.1069 2243.1141,-220.4445"/>
</g>
<!-- Node109 -->
<g id="node34" class="node">
<title>Node109</title>
<g id="a_node34"><a xlink:href="compute__laplacian_8cpp.html" target="_top" xlink:title="compute_laplacian.cpp">
<polygon fill="#ffffff" stroke="#000000" points="2273.5,-168.5 2273.5,-187.5 2389.5,-187.5 2389.5,-168.5 2273.5,-168.5"/>
<text text-anchor="middle" x="2331.5" y="-175.5" font-family="Helvetica,sans-Serif" font-size="10.00" fill="#000000">compute_laplacian.cpp</text>
</a>
</g>
</g>
<!-- Node5&#45;&gt;Node109 -->
<g id="edge41" class="edge">
<title>Node5&#45;&gt;Node109</title>
<path fill="none" stroke="#191970" d="M2284.0676,-217.645C2295.7198,-207.9058 2310.1084,-195.8795 2319.9632,-187.6427"/>
<polygon fill="#191970" stroke="#191970" points="2281.5988,-215.1469 2276.1705,-224.2455 2286.0879,-220.5179 2281.5988,-215.1469"/>
</g>
<!-- Node110 -->
<g id="node35" class="node">
<title>Node110</title>
<g id="a_node35"><a xlink:href="compute__strainrate_8cpp.html" target="_top" xlink:title="compute_strainrate.cpp">
<polygon fill="#ffffff" stroke="#000000" points="2408,-168.5 2408,-187.5 2527,-187.5 2527,-168.5 2408,-168.5"/>
<text text-anchor="middle" x="2467.5" y="-175.5" font-family="Helvetica,sans-Serif" font-size="10.00" fill="#000000">compute_strainrate.cpp</text>
</a>
</g>
</g>
<!-- Node5&#45;&gt;Node110 -->
<g id="edge42" class="edge">
<title>Node5&#45;&gt;Node110</title>
<path fill="none" stroke="#191970" d="M2309.4927,-221.5882C2346.7891,-211.2996 2399.0256,-196.8895 2433.0584,-187.5011"/>
<polygon fill="#191970" stroke="#191970" points="2308.1061,-218.3399 2299.3969,-224.3733 2309.9676,-225.0879 2308.1061,-218.3399"/>
</g>
<!-- Node111 -->
<g id="node36" class="node">
<title>Node111</title>
<g id="a_node36"><a xlink:href="field__algebra_8cpp.html" target="_top" xlink:title="field_algebra.cpp">
<polygon fill="#ffffff" stroke="#000000" points="2545.5,-168.5 2545.5,-187.5 2635.5,-187.5 2635.5,-168.5 2545.5,-168.5"/>
<text text-anchor="middle" x="2590.5" y="-175.5" font-family="Helvetica,sans-Serif" font-size="10.00" fill="#000000">field_algebra.cpp</text>
</a>
</g>
</g>
<!-- Node5&#45;&gt;Node111 -->
<g id="edge43" class="edge">
<title>Node5&#45;&gt;Node111</title>
<path fill="none" stroke="#191970" d="M2309.9536,-226.4517C2363.8114,-217.469 2456.2413,-201.9316 2535.5,-188 2538.7499,-187.4287 2542.1068,-186.8328 2545.4847,-186.2289"/>
<polygon fill="#191970" stroke="#191970" points="2309.3235,-223.0083 2300.0349,-228.1046 2310.4742,-229.9131 2309.3235,-223.0083"/>
</g>
<!-- Node112 -->
<g id="node37" class="node">
<title>Node112</title>
<g id="a_node37"><a xlink:href="diffusion_8_h.html" target="_top" xlink:title="diffusion.H">
<polygon fill="#ffffff" stroke="#ff0000" points="2653.5,-168.5 2653.5,-187.5 2717.5,-187.5 2717.5,-168.5 2653.5,-168.5"/>
<text text-anchor="middle" x="2685.5" y="-175.5" font-family="Helvetica,sans-Serif" font-size="10.00" fill="#000000">diffusion.H</text>
</a>
</g>
</g>
<!-- Node5&#45;&gt;Node112 -->
<g id="edge44" class="edge">
<title>Node5&#45;&gt;Node112</title>
<path fill="none" stroke="#191970" d="M2310.1086,-230.2431C2381.7102,-223.9494 2524.6952,-209.7821 2644.5,-188 2647.3834,-187.4758 2650.3667,-186.8712 2653.3484,-186.2242"/>
<polygon fill="#191970" stroke="#191970" points="2309.7333,-226.7625 2300.0737,-231.1146 2310.339,-233.7362 2309.7333,-226.7625"/>
</g>
<!-- Node113 -->
<g id="node38" class="node">
<title>Node113</title>
<g id="a_node38"><a xlink:href="_source_term_8_h.html" target="_top" xlink:title="SourceTerm.H">
<polygon fill="#ffffff" stroke="#ff0000" points="2735.5,-168.5 2735.5,-187.5 2815.5,-187.5 2815.5,-168.5 2735.5,-168.5"/>
<text text-anchor="middle" x="2775.5" y="-175.5" font-family="Helvetica,sans-Serif" font-size="10.00" fill="#000000">SourceTerm.H</text>
</a>
</g>
</g>
<!-- Node5&#45;&gt;Node113 -->
<g id="edge45" class="edge">
<title>Node5&#45;&gt;Node113</title>
<path fill="none" stroke="#191970" d="M2310.1253,-231.0088C2393.2497,-225.2149 2574.7911,-210.9718 2726.5,-188 2729.4187,-187.558 2732.4265,-187.0571 2735.4481,-186.5206"/>
<polygon fill="#191970" stroke="#191970" points="2309.7454,-227.5266 2300.0097,-231.7059 2310.2267,-234.5101 2309.7454,-227.5266"/>
</g>
<!-- Node115 -->
<g id="node39" class="node">
<title>Node115</title>
<g id="a_node39"><a xlink:href="_p_d_e_helpers_8_h.html" target="_top" xlink:title="PDEHelpers.H">
<polygon fill="#ffffff" stroke="#ff0000" points="89.5,-168.5 89.5,-187.5 171.5,-187.5 171.5,-168.5 89.5,-168.5"/>
<text text-anchor="middle" x="130.5" y="-175.5" font-family="Helvetica,sans-Serif" font-size="10.00" fill="#000000">PDEHelpers.H</text>
</a>
</g>
</g>
<!-- Node5&#45;&gt;Node115 -->
<g id="edge46" class="edge">
<title>Node5&#45;&gt;Node115</title>
<path fill="none" stroke="#191970" d="M2218.5126,-232.7932C1936.0995,-225.3822 439.8907,-186.119 171.6824,-179.0807"/>
<polygon fill="#191970" stroke="#191970" points="2218.7112,-236.2995 2228.7997,-233.0632 2218.8949,-229.3019 2218.7112,-236.2995"/>
</g>
<!-- Node116 -->
<g id="node40" class="node">
<title>Node116</title>
<g id="a_node40"><a xlink:href="_density_source_8_h.html" target="_top" xlink:title="DensitySource.H">
<polygon fill="#ffffff" stroke="#ff0000" points="2833.5,-168.5 2833.5,-187.5 2925.5,-187.5 2925.5,-168.5 2833.5,-168.5"/>
<text text-anchor="middle" x="2879.5" y="-175.5" font-family="Helvetica,sans-Serif" font-size="10.00" fill="#000000">DensitySource.H</text>
</a>
</g>
</g>
<!-- Node5&#45;&gt;Node116 -->
<g id="edge49" class="edge">
<title>Node5&#45;&gt;Node116</title>
<path fill="none" stroke="#191970" d="M2310.2043,-231.7651C2405.9206,-226.751 2634.3303,-213.0376 2824.5,-188 2827.3866,-187.6199 2830.352,-187.1916 2833.3381,-186.7316"/>
<polygon fill="#191970" stroke="#191970" points="2309.8141,-228.2806 2300.0083,-232.2925 2310.1758,-235.2712 2309.8141,-228.2806"/>
</g>
<!-- Node117 -->
<g id="node41" class="node">
<title>Node117</title>
<g id="a_node41"><a xlink:href="_momentum_source_8_h.html" target="_top" xlink:title="MomentumSource.H">
<polygon fill="#ffffff" stroke="#ff0000" points="1407,-168.5 1407,-187.5 1514,-187.5 1514,-168.5 1407,-168.5"/>
<text text-anchor="middle" x="1460.5" y="-175.5" font-family="Helvetica,sans-Serif" font-size="10.00" fill="#000000">MomentumSource.H</text>
</a>
</g>
</g>
<!-- Node5&#45;&gt;Node117 -->
<g id="edge50" class="edge">
<title>Node5&#45;&gt;Node117</title>
<path fill="none" stroke="#191970" d="M2218.5195,-232.4629C2102.5297,-228.2953 1788.7292,-215.2185 1528.5,-188 1523.8716,-187.5159 1519.0752,-186.9472 1514.2694,-186.3309"/>
<polygon fill="#191970" stroke="#191970" points="2218.6788,-235.9707 2228.7966,-232.8273 2218.9269,-228.9751 2218.6788,-235.9707"/>
</g>
<!-- Node120 -->
<g id="node42" class="node">
<title>Node120</title>
<g id="a_node42"><a xlink:href="_boussinesq_buoyancy_8_h.html" target="_top" xlink:title="BoussinesqBuoyancy.H">
<polygon fill="#ffffff" stroke="#000000" points="1345.5,-112.5 1345.5,-131.5 1467.5,-131.5 1467.5,-112.5 1345.5,-112.5"/>
<text text-anchor="middle" x="1406.5" y="-119.5" font-family="Helvetica,sans-Serif" font-size="10.00" fill="#000000">BoussinesqBuoyancy.H</text>
</a>
</g>
</g>
<!-- Node5&#45;&gt;Node120 -->
<g id="edge59" class="edge">
<title>Node5&#45;&gt;Node120</title>
<path fill="none" stroke="#191970" d="M2218.5904,-233.318C2042.4473,-230.4807 1418.262,-218.3138 1389.5,-188 1374.8405,-172.5496 1389.2005,-146.197 1399.0187,-131.9118"/>
<polygon fill="#191970" stroke="#191970" points="2218.7613,-236.821 2228.8156,-233.4802 2218.8724,-229.8219 2218.7613,-236.821"/>
</g>
<!-- Node121 -->
<g id="node43" class="node">
<title>Node121</title>
<g id="a_node43"><a xlink:href="_coriolis_forcing_8_h.html" target="_top" xlink:title="CoriolisForcing.H">
<polygon fill="#ffffff" stroke="#000000" points="1485.5,-112.5 1485.5,-131.5 1577.5,-131.5 1577.5,-112.5 1485.5,-112.5"/>
<text text-anchor="middle" x="1531.5" y="-119.5" font-family="Helvetica,sans-Serif" font-size="10.00" fill="#000000">CoriolisForcing.H</text>
</a>
</g>
</g>
<!-- Node5&#45;&gt;Node121 -->
<g id="edge60" class="edge">
<title>Node5&#45;&gt;Node121</title>
<path fill="none" stroke="#191970" d="M2218.7175,-233.2969C2043.7864,-230.3906 1425.9766,-218.0276 1397.5,-188 1391.3834,-181.5502 1392.3348,-175.2342 1397.5,-168 1408.148,-153.0868 1451.7949,-139.9505 1486.4209,-131.5747"/>
<polygon fill="#191970" stroke="#191970" points="2218.8189,-236.7989 2228.8749,-233.4633 2218.9336,-229.7999 2218.8189,-236.7989"/>
</g>
<!-- Node122 -->
<g id="node44" class="node">
<title>Node122</title>
<g id="a_node44"><a xlink:href="_density_buoyancy_8_h.html" target="_top" xlink:title="DensityBuoyancy.H">
<polygon fill="#ffffff" stroke="#000000" points="1595.5,-112.5 1595.5,-131.5 1699.5,-131.5 1699.5,-112.5 1595.5,-112.5"/>
<text text-anchor="middle" x="1647.5" y="-119.5" font-family="Helvetica,sans-Serif" font-size="10.00" fill="#000000">DensityBuoyancy.H</text>
</a>
</g>
</g>
<!-- Node5&#45;&gt;Node122 -->
<g id="edge61" class="edge">
<title>Node5&#45;&gt;Node122</title>
<path fill="none" stroke="#191970" d="M2218.0971,-232.6898C2064.9432,-228.143 1583.9807,-211.9997 1561.5,-188 1539.6915,-164.7179 1584.4637,-143.3327 1617.2097,-131.5391"/>
<polygon fill="#191970" stroke="#191970" points="2218.4482,-236.2016 2228.5468,-232.9971 2218.654,-229.2046 2218.4482,-236.2016"/>
</g>
<!-- Node124 -->
<g id="node45" class="node">
<title>Node124</title>
<g id="a_node45"><a xlink:href="_m_m_s_forcing_8_h.html" target="_top" xlink:title="MMSForcing.H">
<polygon fill="#ffffff" stroke="#000000" points="1718,-112.5 1718,-131.5 1801,-131.5 1801,-112.5 1718,-112.5"/>
<text text-anchor="middle" x="1759.5" y="-119.5" font-family="Helvetica,sans-Serif" font-size="10.00" fill="#000000">MMSForcing.H</text>
</a>
</g>
</g>
<!-- Node5&#45;&gt;Node124 -->
<g id="edge66" class="edge">
<title>Node5&#45;&gt;Node124</title>
<path fill="none" stroke="#191970" d="M2310.1795,-233.123C2528.2743,-228.83 3453.9241,-209.373 3474.5,-188 3480.6648,-181.5963 3480.7006,-174.3691 3474.5,-168 3444.3735,-137.0546 2060.3405,-124.4184 1801.0991,-122.3211"/>
<polygon fill="#191970" stroke="#191970" points="2309.9701,-229.6263 2300.0406,-233.3216 2310.1073,-236.625 2309.9701,-229.6263"/>
</g>
<!-- Node125 -->
<g id="node46" class="node">
<title>Node125</title>
<g id="a_node46"><a xlink:href="_s_d_r_source_8_h.html" target="_top" xlink:title="SDRSource.H">
<polygon fill="#ffffff" stroke="#ff0000" points="2943.5,-168.5 2943.5,-187.5 3023.5,-187.5 3023.5,-168.5 2943.5,-168.5"/>
<text text-anchor="middle" x="2983.5" y="-175.5" font-family="Helvetica,sans-Serif" font-size="10.00" fill="#000000">SDRSource.H</text>
</a>
</g>
</g>
<!-- Node5&#45;&gt;Node125 -->
<g id="edge63" class="edge">
<title>Node5&#45;&gt;Node125</title>
<path fill="none" stroke="#191970" d="M2310.5599,-232.9428C2419.5012,-229.9843 2701.3757,-219.6485 2934.5,-188 2937.4251,-187.6029 2940.4376,-187.1349 2943.4626,-186.6218"/>
<polygon fill="#191970" stroke="#191970" points="2310.1644,-229.4519 2300.2602,-233.2143 2310.349,-236.4494 2310.1644,-229.4519"/>
</g>
<!-- Node126 -->
<g id="node47" class="node">
<title>Node126</title>
<g id="a_node47"><a xlink:href="_temperature_source_8_h.html" target="_top" xlink:title="TemperatureSource.H">
<polygon fill="#ffffff" stroke="#ff0000" points="3042,-168.5 3042,-187.5 3155,-187.5 3155,-168.5 3042,-168.5"/>
<text text-anchor="middle" x="3098.5" y="-175.5" font-family="Helvetica,sans-Serif" font-size="10.00" fill="#000000">TemperatureSource.H</text>
</a>
</g>
</g>
<!-- Node5&#45;&gt;Node126 -->
<g id="edge64" class="edge">
<title>Node5&#45;&gt;Node126</title>
<path fill="none" stroke="#191970" d="M2310.4179,-232.7002C2429.7677,-229.0078 2759.4619,-216.8019 3032.5,-188 3035.4965,-187.6839 3038.5652,-187.3289 3041.6604,-186.9461"/>
<polygon fill="#191970" stroke="#191970" points="2310.0826,-229.2087 2300.1938,-233.0115 2310.2957,-236.2055 2310.0826,-229.2087"/>
</g>
<!-- Node127 -->
<g id="node48" class="node">
<title>Node127</title>
<g id="a_node48"><a xlink:href="_t_k_e_source_8_h.html" target="_top" xlink:title="TKESource.H">
<polygon fill="#ffffff" stroke="#ff0000" points="3173,-168.5 3173,-187.5 3250,-187.5 3250,-168.5 3173,-168.5"/>
<text text-anchor="middle" x="3211.5" y="-175.5" font-family="Helvetica,sans-Serif" font-size="10.00" fill="#000000">TKESource.H</text>
</a>
</g>
</g>
<!-- Node5&#45;&gt;Node127 -->
<g id="edge65" class="edge">
<title>Node5&#45;&gt;Node127</title>
<path fill="none" stroke="#191970" d="M2310.6041,-232.5827C2469.8138,-227.541 2995.886,-209.6167 3163.5,-188 3166.5392,-187.608 3169.6729,-187.1286 3172.8144,-186.5939"/>
<polygon fill="#191970" stroke="#191970" points="2310.1043,-229.0966 2300.2194,-232.9097 2310.3247,-236.0931 2310.1043,-229.0966"/>
</g>
<!-- Node128 -->
<g id="node49" class="node">
<title>Node128</title>
<g id="a_node49"><a xlink:href="_transport_model_8_h.html" target="_top" xlink:title="TransportModel.H">
<polygon fill="#ffffff" stroke="#ff0000" points="3268,-168.5 3268,-187.5 3363,-187.5 3363,-168.5 3268,-168.5"/>
<text text-anchor="middle" x="3315.5" y="-175.5" font-family="Helvetica,sans-Serif" font-size="10.00" fill="#000000">TransportModel.H</text>
</a>
</g>
</g>
<!-- Node5&#45;&gt;Node128 -->
<g id="edge68" class="edge">
<title>Node5&#45;&gt;Node128</title>
<path fill="none" stroke="#191970" d="M2310.0957,-232.684C2479.3817,-227.6749 3071.7065,-209.0173 3259.5,-188 3262.2481,-187.6924 3265.065,-187.3325 3267.9028,-186.9354"/>
<polygon fill="#191970" stroke="#191970" points="2309.9191,-229.1876 2300.0265,-232.9806 2310.1252,-236.1846 2309.9191,-229.1876"/>
</g>
<!-- Node86 -->
<g id="node50" class="node">
<title>Node86</title>
<g id="a_node50"><a xlink:href="_smagorinsky_8_h.html" target="_top" xlink:title="Smagorinsky.H">
<polygon fill="#ffffff" stroke="#ff0000" points="3381.5,-168.5 3381.5,-187.5 3465.5,-187.5 3465.5,-168.5 3381.5,-168.5"/>
<text text-anchor="middle" x="3423.5" y="-175.5" font-family="Helvetica,sans-Serif" font-size="10.00" fill="#000000">Smagorinsky.H</text>
</a>
</g>
</g>
<!-- Node5&#45;&gt;Node86 -->
<g id="edge69" class="edge">
<title>Node5&#45;&gt;Node86</title>
<path fill="none" stroke="#191970" d="M2310.1212,-233.0328C2491.464,-229.0449 3161.6156,-212.9058 3372.5,-188 3375.3674,-187.6614 3378.3148,-187.2511 3381.2774,-186.7925"/>
<polygon fill="#191970" stroke="#191970" points="2310.0409,-229.5337 2300.1197,-233.2513 2310.1938,-236.532 2310.0409,-229.5337"/>
</g>
<!-- Node7&#45;&gt;Node6 -->
<g id="edge4" class="edge">
<title>Node7&#45;&gt;Node6</title>
<path fill="none" stroke="#191970" d="M3594.7756,-162.2097C3608.6505,-152.3743 3626.0515,-140.0394 3637.8969,-131.6427"/>
<polygon fill="#191970" stroke="#191970" points="3592.3949,-159.6071 3586.2607,-168.2455 3596.4431,-165.3178 3592.3949,-159.6071"/>
</g>
<!-- Node8 -->
<g id="node5" class="node">
<title>Node8</title>
<g id="a_node5"><a xlink:href="_fixed_gradient_b_c_8cpp.html" target="_top" xlink:title="FixedGradientBC.cpp">
<polygon fill="#ffffff" stroke="#000000" points="3479.5,-112.5 3479.5,-131.5 3589.5,-131.5 3589.5,-112.5 3479.5,-112.5"/>
<text text-anchor="middle" x="3534.5" y="-119.5" font-family="Helvetica,sans-Serif" font-size="10.00" fill="#000000">FixedGradientBC.cpp</text>
</a>
</g>
</g>
<!-- Node7&#45;&gt;Node8 -->
<g id="edge5" class="edge">
<title>Node7&#45;&gt;Node8</title>
<path fill="none" stroke="#191970" d="M3560.2321,-159.9209C3553.8512,-150.5176 3546.3069,-139.3997 3541.0432,-131.6427"/>
<polygon fill="#191970" stroke="#191970" points="3557.3697,-161.936 3565.8809,-168.2455 3563.162,-158.0055 3557.3697,-161.936"/>
</g>
<!-- Node9&#45;&gt;Node10 -->
<g id="edge7" class="edge">
<title>Node9&#45;&gt;Node10</title>
<path fill="none" stroke="#191970" d="M899.1466,-175.7025C974.3607,-171.1048 1135.2409,-158.8217 1268.5,-132 1271.3953,-131.4173 1274.4001,-130.7015 1277.3717,-129.923"/>
<polygon fill="#191970" stroke="#191970" points="898.8877,-172.2116 889.1139,-176.3009 899.3046,-179.1992 898.8877,-172.2116"/>
</g>
<!-- Node30 -->
<g id="node8" class="node">
<title>Node30</title>
<g id="a_node8"><a xlink:href="_c_f_d_sim_8cpp.html" target="_top" xlink:title="CFDSim.cpp">
<polygon fill="#ffffff" stroke="#000000" points="319.5,-112.5 319.5,-131.5 393.5,-131.5 393.5,-112.5 319.5,-112.5"/>
<text text-anchor="middle" x="356.5" y="-119.5" font-family="Helvetica,sans-Serif" font-size="10.00" fill="#000000">CFDSim.cpp</text>
</a>
</g>
</g>
<!-- Node9&#45;&gt;Node30 -->
<g id="edge8" class="edge">
<title>Node9&#45;&gt;Node30</title>
<path fill="none" stroke="#191970" d="M813.5842,-175.2765C732.7711,-169.7887 552.6348,-155.8466 402.5,-132 399.5943,-131.5385 396.5961,-131.009 393.589,-130.4398"/>
<polygon fill="#191970" stroke="#191970" points="813.6453,-178.7884 823.8569,-175.9647 814.1132,-171.804 813.6453,-178.7884"/>
</g>
<!-- Node31 -->
<g id="node9" class="node">
<title>Node31</title>
<g id="a_node9"><a xlink:href="_p_d_e_ops_8_h.html" target="_top" xlink:title="PDEOps.H">
<polygon fill="#ffffff" stroke="#ff0000" points="97.5,-112.5 97.5,-131.5 163.5,-131.5 163.5,-112.5 97.5,-112.5"/>
<text text-anchor="middle" x="130.5" y="-119.5" font-family="Helvetica,sans-Serif" font-size="10.00" fill="#000000">PDEOps.H</text>
</a>
</g>
</g>
<!-- Node9&#45;&gt;Node31 -->
<g id="edge9" class="edge">
<title>Node9&#45;&gt;Node31</title>
<path fill="none" stroke="#191970" d="M813.7176,-177.5918C705.634,-176.0269 413.0749,-168.4693 172.5,-132 169.6839,-131.5731 166.7784,-131.0526 163.8721,-130.4757"/>
<polygon fill="#191970" stroke="#191970" points="813.8464,-181.0938 823.8927,-177.7291 813.9408,-174.0944 813.8464,-181.0938"/>
</g>
<!-- Node44 -->
<g id="node10" class="node">
<title>Node44</title>
<g id="a_node10"><a xlink:href="_p_d_e_8_h.html" target="_top" xlink:title="PDE.H">
<polygon fill="#ffffff" stroke="#ff0000" points="348.5,-56.5 348.5,-75.5 396.5,-75.5 396.5,-56.5 348.5,-56.5"/>
<text text-anchor="middle" x="372.5" y="-63.5" font-family="Helvetica,sans-Serif" font-size="10.00" fill="#000000">PDE.H</text>
</a>
</g>
</g>
<!-- Node9&#45;&gt;Node44 -->
<g id="edge11" class="edge">
<title>Node9&#45;&gt;Node44</title>
<path fill="none" stroke="#191970" d="M814.1101,-171.1228C772.1639,-163.7065 706.4489,-150.4342 651.5,-132 631.1345,-125.1678 627.9573,-118.5522 607.5,-112 532.4737,-87.97 439.754,-74.3101 396.6458,-68.8349"/>
<polygon fill="#191970" stroke="#191970" points="813.5302,-174.5744 823.9816,-172.8374 814.7281,-167.6776 813.5302,-174.5744"/>
</g>
<!-- Node54 -->
<g id="node11" class="node">
<title>Node54</title>
<g id="a_node11"><a xlink:href="_a_b_l_forcing_8cpp.html" target="_top" xlink:title="ABLForcing.cpp">
<polygon fill="#ffffff" stroke="#000000" points="411.5,-112.5 411.5,-131.5 497.5,-131.5 497.5,-112.5 411.5,-112.5"/>
<text text-anchor="middle" x="454.5" y="-119.5" font-family="Helvetica,sans-Serif" font-size="10.00" fill="#000000">ABLForcing.cpp</text>
</a>
</g>
</g>
<!-- Node9&#45;&gt;Node54 -->
<g id="edge12" class="edge">
<title>Node9&#45;&gt;Node54</title>
<path fill="none" stroke="#191970" d="M813.5464,-173.1863C747.4174,-165.588 616.762,-149.8318 506.5,-132 503.5959,-131.5303 500.6053,-131.0219 497.5953,-130.4916"/>
<polygon fill="#191970" stroke="#191970" points="813.2598,-176.6763 823.5926,-174.3348 814.0549,-169.7216 813.2598,-176.6763"/>
</g>
<!-- Node55 -->
<g id="node12" class="node">
<title>Node55</title>
<g id="a_node12"><a xlink:href="_a_b_l_wall_function_8_h.html" target="_top" xlink:title="ABLWallFunction.H">
<polygon fill="#ffffff" stroke="#ff0000" points="744,-56.5 744,-75.5 847,-75.5 847,-56.5 744,-56.5"/>
<text text-anchor="middle" x="795.5" y="-63.5" font-family="Helvetica,sans-Serif" font-size="10.00" fill="#000000">ABLWallFunction.H</text>
</a>
</g>
</g>
<!-- Node9&#45;&gt;Node55 -->
<g id="edge13" class="edge">
<title>Node9&#45;&gt;Node55</title>
<path fill="none" stroke="#191970" d="M846.4635,-159.5723C833.3319,-135.4618 810.806,-94.1028 800.6877,-75.5249"/>
<polygon fill="#191970" stroke="#191970" points="843.4424,-161.3431 851.2992,-168.4509 849.5898,-157.9949 843.4424,-161.3431"/>
</g>
<!-- Node58 -->
<g id="node13" class="node">
<title>Node58</title>
<g id="a_node13"><a xlink:href="_a_b_l_stats_8_h.html" target="_top" xlink:title="ABLStats.H">
<polygon fill="#ffffff" stroke="#ff0000" points="681,-.5 681,-19.5 750,-19.5 750,-.5 681,-.5"/>
<text text-anchor="middle" x="715.5" y="-7.5" font-family="Helvetica,sans-Serif" font-size="10.00" fill="#000000">ABLStats.H</text>
</a>
</g>
</g>
<!-- Node9&#45;&gt;Node58 -->
<g id="edge19" class="edge">
<title>Node9&#45;&gt;Node58</title>
<path fill="none" stroke="#191970" d="M813.8059,-172.538C768.144,-165.7169 700.162,-152.4012 684.5,-132 657.7514,-97.1576 692.117,-41.8193 708.1182,-19.6493"/>
<polygon fill="#191970" stroke="#191970" points="813.3532,-176.0089 823.7509,-173.9745 814.354,-169.0808 813.3532,-176.0089"/>
</g>
<!-- Node60 -->
<g id="node14" class="node">
<title>Node60</title>
<g id="a_node14"><a xlink:href="_boussinesq_bubble_8cpp.html" target="_top" xlink:title="BoussinesqBubble.cpp">
<polygon fill="#ffffff" stroke="#000000" points="792.5,-.5 792.5,-19.5 908.5,-19.5 908.5,-.5 792.5,-.5"/>
<text text-anchor="middle" x="850.5" y="-7.5" font-family="Helvetica,sans-Serif" font-size="10.00" fill="#000000">BoussinesqBubble.cpp</text>
</a>
</g>
</g>
<!-- Node9&#45;&gt;Node60 -->
<g id="edge31" class="edge">
<title>Node9&#45;&gt;Node60</title>
<path fill="none" stroke="#191970" d="M856.9457,-158.1829C857.3486,-134.0286 857.5976,-91.9802 855.5,-56 854.7706,-43.4895 853.0735,-29.1447 851.8589,-19.8467"/>
<polygon fill="#191970" stroke="#191970" points="853.4403,-158.4318 856.7451,-168.4979 860.4389,-158.5679 853.4403,-158.4318"/>
</g>
<!-- Node61 -->
<g id="node15" class="node">
<title>Node61</title>
<g id="a_node15"><a xlink:href="_field_plane_averaging_8_h.html" target="_top" xlink:title="FieldPlaneAveraging.H">
<polygon fill="#ffffff" stroke="#ff0000" points="693.5,-112.5 693.5,-131.5 809.5,-131.5 809.5,-112.5 693.5,-112.5"/>
<text text-anchor="middle" x="751.5" y="-119.5" font-family="Helvetica,sans-Serif" font-size="10.00" fill="#000000">FieldPlaneAveraging.H</text>
</a>
</g>
</g>
<!-- Node9&#45;&gt;Node61 -->
<g id="edge16" class="edge">
<title>Node9&#45;&gt;Node61</title>
<path fill="none" stroke="#191970" d="M829.2375,-163.46C810.4478,-153.4388 785.9987,-140.3993 769.58,-131.6427"/>
<polygon fill="#191970" stroke="#191970" points="827.7398,-166.6278 838.2104,-168.2455 831.0339,-160.4514 827.7398,-166.6278"/>
</g>
<!-- Node66 -->
<g id="node16" class="node">
<title>Node66</title>
<g id="a_node16"><a xlink:href="_body_force_8cpp.html" target="_top" xlink:title="BodyForce.cpp">
<polygon fill="#ffffff" stroke="#000000" points="516,-112.5 516,-131.5 599,-131.5 599,-112.5 516,-112.5"/>
<text text-anchor="middle" x="557.5" y="-119.5" font-family="Helvetica,sans-Serif" font-size="10.00" fill="#000000">BodyForce.cpp</text>
</a>
</g>
</g>
<!-- Node9&#45;&gt;Node66 -->
<g id="edge20" class="edge">
<title>Node9&#45;&gt;Node66</title>
<path fill="none" stroke="#191970" d="M813.7785,-169.9987C756.5688,-159.2838 655.7261,-140.3969 599.0955,-129.7905"/>
<polygon fill="#191970" stroke="#191970" points="813.4591,-173.4996 823.9326,-171.9004 814.7478,-166.6193 813.4591,-173.4996"/>
</g>
<!-- Node67 -->
<g id="node17" class="node">
<title>Node67</title>
<g id="a_node17"><a xlink:href="_boussinesq_buoyancy_8cpp.html" target="_top" xlink:title="BoussinesqBuoyancy.cpp">
<polygon fill="#ffffff" stroke="#000000" points="1156.5,-56.5 1156.5,-75.5 1286.5,-75.5 1286.5,-56.5 1156.5,-56.5"/>
<text text-anchor="middle" x="1221.5" y="-63.5" font-family="Helvetica,sans-Serif" font-size="10.00" fill="#000000">BoussinesqBuoyancy.cpp</text>
</a>
</g>
</g>
<!-- Node9&#45;&gt;Node67 -->
<g id="edge21" class="edge">
<title>Node9&#45;&gt;Node67</title>
<path fill="none" stroke="#191970" d="M899.0113,-165.9578C927.9459,-157.3882 966.9319,-145.1078 1000.5,-132 1020.1334,-124.3335 1023.6586,-119.1108 1043.5,-112 1087.218,-96.3322 1138.7407,-83.6148 1175.074,-75.5552"/>
<polygon fill="#191970" stroke="#191970" points="897.8319,-162.6562 889.2214,-168.8294 899.8022,-169.3732 897.8319,-162.6562"/>
</g>
<!-- Node68 -->
<g id="node18" class="node">
<title>Node68</title>
<g id="a_node18"><a xlink:href="_coriolis_forcing_8cpp.html" target="_top" xlink:title="CoriolisForcing.cpp">
<polygon fill="#ffffff" stroke="#000000" points="1384,-56.5 1384,-75.5 1485,-75.5 1485,-56.5 1384,-56.5"/>
<text text-anchor="middle" x="1434.5" y="-63.5" font-family="Helvetica,sans-Serif" font-size="10.00" fill="#000000">CoriolisForcing.cpp</text>
</a>
</g>
</g>
<!-- Node9&#45;&gt;Node68 -->
<g id="edge22" class="edge">
<title>Node9&#45;&gt;Node68</title>
<path fill="none" stroke="#191970" d="M899.0803,-169.2399C935.9336,-161.1578 990.4063,-148.0055 1036.5,-132 1057.1754,-124.8207 1060.4295,-117.9201 1081.5,-112 1137.206,-96.3486 1300.2795,-78.9829 1383.8502,-70.7845"/>
<polygon fill="#191970" stroke="#191970" points="898.2082,-165.8475 889.1746,-171.3832 899.6886,-172.6892 898.2082,-165.8475"/>
</g>
<!-- Node69 -->
<g id="node19" class="node">
<title>Node69</title>
<g id="a_node19"><a xlink:href="_density_buoyancy_8cpp.html" target="_top" xlink:title="DensityBuoyancy.cpp">
<polygon fill="#ffffff" stroke="#000000" points="1543,-56.5 1543,-75.5 1656,-75.5 1656,-56.5 1543,-56.5"/>
<text text-anchor="middle" x="1599.5" y="-63.5" font-family="Helvetica,sans-Serif" font-size="10.00" fill="#000000">DensityBuoyancy.cpp</text>
</a>
</g>
</g>
<!-- Node9&#45;&gt;Node69 -->
<g id="edge23" class="edge">
<title>Node9&#45;&gt;Node69</title>
<path fill="none" stroke="#191970" d="M899.1209,-171.5739C943.3592,-164.3013 1014.2425,-150.9497 1073.5,-132 1094.7339,-125.2097 1097.9155,-117.5766 1119.5,-112 1122.0456,-111.3423 1416.4996,-83.3598 1542.9053,-71.3664"/>
<polygon fill="#191970" stroke="#191970" points="898.329,-168.1564 889.0147,-173.2056 899.4448,-175.0669 898.329,-168.1564"/>
</g>
<!-- Node70 -->
<g id="node20" class="node">
<title>Node70</title>
<g id="a_node20"><a xlink:href="_geostrophic_forcing_8cpp.html" target="_top" xlink:title="GeostrophicForcing.cpp">
<polygon fill="#ffffff" stroke="#000000" points="181.5,-112.5 181.5,-131.5 301.5,-131.5 301.5,-112.5 181.5,-112.5"/>
<text text-anchor="middle" x="241.5" y="-119.5" font-family="Helvetica,sans-Serif" font-size="10.00" fill="#000000">GeostrophicForcing.cpp</text>
</a>
</g>
</g>
<!-- Node9&#45;&gt;Node70 -->
<g id="edge24" class="edge">
<title>Node9&#45;&gt;Node70</title>
<path fill="none" stroke="#191970" d="M813.7607,-175.2738C721.6282,-169.2048 497.511,-153.4098 310.5,-132 307.6138,-131.6696 304.6623,-131.3132 301.6832,-130.9387"/>
<polygon fill="#191970" stroke="#191970" points="813.6079,-178.7712 823.8152,-175.9319 814.0651,-171.7861 813.6079,-178.7712"/>
</g>
<!-- Node9&#45;&gt;Node71 -->
<g id="edge25" class="edge">
<title>Node9&#45;&gt;Node71</title>
<path fill="none" stroke="#191970" d="M813.4652,-177.5528C696.4791,-175.8781 363.0106,-168.0481 88.5,-132 85.4871,-131.6043 82.3821,-131.13 79.2665,-130.6058"/>
<polygon fill="#191970" stroke="#191970" points="813.7338,-181.0567 823.7802,-177.6923 813.8285,-174.0573 813.7338,-181.0567"/>
</g>
<!-- Node72 -->
<g id="node22" class="node">
<title>Node72</title>
<g id="a_node22"><a xlink:href="_m_m_s_8_h.html" target="_top" xlink:title="MMS.H">
<polygon fill="#ffffff" stroke="#000000" points="941.5,-112.5 941.5,-131.5 991.5,-131.5 991.5,-112.5 941.5,-112.5"/>
<text text-anchor="middle" x="966.5" y="-119.5" font-family="Helvetica,sans-Serif" font-size="10.00" fill="#000000">MMS.H</text>
</a>
</g>
</g>
<!-- Node9&#45;&gt;Node72 -->
<g id="edge26" class="edge">
<title>Node9&#45;&gt;Node72</title>
<path fill="none" stroke="#191970" d="M884.7914,-163.5971C904.5111,-153.558 930.28,-140.4393 947.559,-131.6427"/>
<polygon fill="#191970" stroke="#191970" points="882.9843,-160.5896 875.6605,-168.2455 886.1601,-166.8277 882.9843,-160.5896"/>
</g>
<!-- Node73 -->
<g id="node23" class="node">
<title>Node73</title>
<g id="a_node23"><a xlink:href="_m_m_s_8cpp.html" target="_top" xlink:title="MMS.cpp">
<polygon fill="#ffffff" stroke="#000000" points="920,-56.5 920,-75.5 979,-75.5 979,-56.5 920,-56.5"/>
<text text-anchor="middle" x="949.5" y="-63.5" font-family="Helvetica,sans-Serif" font-size="10.00" fill="#000000">MMS.cpp</text>
</a>
</g>
</g>
<!-- Node9&#45;&gt;Node73 -->
<g id="edge28" class="edge">
<title>Node9&#45;&gt;Node73</title>
<path fill="none" stroke="#191970" d="M871.0085,-160.5274C890.9027,-136.5688 925.959,-94.3505 941.5909,-75.5249"/>
<polygon fill="#191970" stroke="#191970" points="868.1248,-158.5215 864.4291,-168.4509 873.5102,-162.9934 868.1248,-158.5215"/>
</g>
<!-- Node74 -->
<g id="node24" class="node">
<title>Node74</title>
<g id="a_node24"><a xlink:href="_m_m_s_forcing_8cpp.html" target="_top" xlink:title="MMSForcing.cpp">
<polygon fill="#ffffff" stroke="#000000" points="1694,-56.5 1694,-75.5 1785,-75.5 1785,-56.5 1694,-56.5"/>
<text text-anchor="middle" x="1739.5" y="-63.5" font-family="Helvetica,sans-Serif" font-size="10.00" fill="#000000">MMSForcing.cpp</text>
</a>
</g>
</g>
<!-- Node9&#45;&gt;Node74 -->
<g id="edge29" class="edge">
<title>Node9&#45;&gt;Node74</title>
<path fill="none" stroke="#191970" d="M899.288,-173.7575C950.4636,-167.8882 1038.2725,-155.2791 1110.5,-132 1130.1782,-125.6577 1132.5056,-117.2613 1152.5,-112 1373.1074,-53.9491 1437.5538,-99.0856 1664.5,-76 1674.0401,-75.0296 1684.2379,-73.7994 1693.9426,-72.5366"/>
<polygon fill="#191970" stroke="#191970" points="898.8006,-170.2901 889.2497,-174.8759 899.5758,-177.247 898.8006,-170.2901"/>
</g>
<!-- Node9&#45;&gt;Node75 -->
<g id="edge30" class="edge">
<title>Node9&#45;&gt;Node75</title>
<path fill="none" stroke="#191970" d="M899.2701,-171.2478C956.0072,-162.2887 1059.2795,-145.9744 1147.5,-132 1151.9846,-131.2896 1156.6487,-130.5503 1161.3197,-129.8095"/>
<polygon fill="#191970" stroke="#191970" points="898.5634,-167.816 889.2317,-172.8329 899.6552,-174.7303 898.5634,-167.816"/>
</g>
<!-- Node31&#45;&gt;Node44 -->
<g id="edge10" class="edge">
<title>Node31&#45;&gt;Node44</title>
<path fill="none" stroke="#191970" d="M173.2878,-111.8278C242.641,-95.6207 312.5942,-79.6357 348.4731,-71.4636"/>
<polygon fill="#191970" stroke="#191970" points="172.4492,-108.4294 163.5094,-114.1154 174.0438,-115.2454 172.4492,-108.4294"/>
</g>
<!-- Node55&#45;&gt;Node58 -->
<g id="edge14" class="edge">
<title>Node55&#45;&gt;Node58</title>
<path fill="none" stroke="#191970" d="M773.3429,-50.49C759.228,-40.6096 741.3849,-28.1194 729.2752,-19.6427"/>
<polygon fill="#191970" stroke="#191970" points="771.3656,-53.3782 781.5651,-56.2455 775.3799,-47.6436 771.3656,-53.3782"/>
</g>
<!-- Node55&#45;&gt;Node60 -->
<g id="edge15" class="edge">
<title>Node55&#45;&gt;Node60</title>
<path fill="none" stroke="#191970" d="M812.1226,-49.0751C821.5855,-39.4402 833.0969,-27.7196 841.0295,-19.6427"/>
<polygon fill="#191970" stroke="#191970" points="809.5903,-46.6585 805.0803,-56.2455 814.5845,-51.5635 809.5903,-46.6585"/>
</g>
<!-- Node61&#45;&gt;Node55 -->
<g id="edge17" class="edge">
<title>Node61&#45;&gt;Node55</title>
<path fill="none" stroke="#191970" d="M765.4769,-104.2112C772.9129,-94.7472 781.766,-83.4797 787.9236,-75.6427"/>
<polygon fill="#191970" stroke="#191970" points="762.5903,-102.22 759.1642,-112.2455 768.0946,-106.5447 762.5903,-102.22"/>
</g>
<!-- Node61&#45;&gt;Node58 -->
<g id="edge18" class="edge">
<title>Node61&#45;&gt;Node58</title>
<path fill="none" stroke="#191970" d="M744.0423,-102.7931C740.95,-94.5874 737.4124,-84.8731 734.5,-76 728.0298,-56.2875 721.5775,-32.8813 718.1078,-19.9092"/>
<polygon fill="#191970" stroke="#191970" points="740.7998,-104.1129 747.6407,-112.2032 747.3381,-101.6127 740.7998,-104.1129"/>
</g>
<!-- Node72&#45;&gt;Node73 -->
<g id="edge27" class="edge">
<title>Node72&#45;&gt;Node73</title>
<path fill="none" stroke="#191970" d="M960.5663,-102.4538C957.8119,-93.3803 954.6607,-82.9998 952.4272,-75.6427"/>
<polygon fill="#191970" stroke="#191970" points="957.2849,-103.6934 963.5388,-112.2455 963.983,-101.66 957.2849,-103.6934"/>
</g>
<!-- Node115&#45;&gt;Node31 -->
<g id="edge47" class="edge">
<title>Node115&#45;&gt;Node31</title>
<path fill="none" stroke="#191970" d="M130.5,-158.1575C130.5,-149.155 130.5,-138.9199 130.5,-131.6427"/>
<polygon fill="#191970" stroke="#191970" points="127.0001,-158.2455 130.5,-168.2455 134.0001,-158.2456 127.0001,-158.2455"/>
</g>
<!-- Node115&#45;&gt;Node71 -->
<g id="edge48" class="edge">
<title>Node115&#45;&gt;Node71</title>
<path fill="none" stroke="#191970" d="M105.7496,-162.769C89.6242,-152.8456 69.074,-140.1994 55.1693,-131.6427"/>
<polygon fill="#191970" stroke="#191970" points="104.2981,-165.9853 114.649,-168.2455 107.9668,-160.0237 104.2981,-165.9853"/>
</g>
<!-- Node117&#45;&gt;Node120 -->
<g id="edge51" class="edge">
<title>Node117&#45;&gt;Node120</title>
<path fill="none" stroke="#191970" d="M1443.9031,-160.7884C1434.6653,-151.2085 1423.5096,-139.6396 1415.7983,-131.6427"/>
<polygon fill="#191970" stroke="#191970" points="1441.6331,-163.4766 1451.0939,-168.2455 1446.672,-158.6176 1441.6331,-163.4766"/>
</g>
<!-- Node117&#45;&gt;Node121 -->
<g id="edge53" class="edge">
<title>Node117&#45;&gt;Node121</title>
<path fill="none" stroke="#191970" d="M1480.877,-161.928C1493.2871,-152.1397 1508.73,-139.9595 1519.2745,-131.6427"/>
<polygon fill="#191970" stroke="#191970" points="1478.5514,-159.3046 1472.8673,-168.2455 1482.8864,-164.8007 1478.5514,-159.3046"/>
</g>
<!-- Node117&#45;&gt;Node122 -->
<g id="edge55" class="edge">
<title>Node117&#45;&gt;Node122</title>
<path fill="none" stroke="#191970" d="M1502.3877,-165.4561C1536.7143,-155.1765 1584.5565,-140.8494 1615.773,-131.5011"/>
<polygon fill="#191970" stroke="#191970" points="1501.222,-162.1515 1492.6464,-168.3733 1503.2302,-168.8573 1501.222,-162.1515"/>
</g>
<!-- Node117&#45;&gt;Node124 -->
<g id="edge57" class="edge">
<title>Node117&#45;&gt;Node124</title>
<path fill="none" stroke="#191970" d="M1522.8262,-166.6217C1573,-157.4181 1645.3204,-144.0531 1708.5,-132 1711.5134,-131.4251 1714.626,-130.8265 1717.7582,-130.2207"/>
<polygon fill="#191970" stroke="#191970" points="1521.9868,-163.2172 1512.7818,-168.4629 1523.249,-170.1025 1521.9868,-163.2172"/>
</g>
<!-- Node120&#45;&gt;Node67 -->
<g id="edge52" class="edge">
<title>Node120&#45;&gt;Node67</title>
<path fill="none" stroke="#191970" d="M1365.0603,-109.4561C1331.1009,-99.1765 1283.7703,-84.8494 1252.8876,-75.5011"/>
<polygon fill="#191970" stroke="#191970" points="1364.1122,-112.8259 1374.6974,-112.3733 1366.1403,-106.1261 1364.1122,-112.8259"/>
</g>
<!-- Node121&#45;&gt;Node68 -->
<g id="edge54" class="edge">
<title>Node121&#45;&gt;Node68</title>
<path fill="none" stroke="#191970" d="M1505.5984,-107.0465C1488.3391,-97.0824 1466.1624,-84.2794 1451.2025,-75.6427"/>
<polygon fill="#191970" stroke="#191970" points="1504.1936,-110.2768 1514.6039,-112.2455 1507.6935,-104.2146 1504.1936,-110.2768"/>
</g>
<!-- Node122&#45;&gt;Node69 -->
<g id="edge56" class="edge">
<title>Node122&#45;&gt;Node69</title>
<path fill="none" stroke="#191970" d="M1632.5003,-104.5004C1624.3378,-94.9775 1614.5511,-83.5596 1607.7651,-75.6427"/>
<polygon fill="#191970" stroke="#191970" points="1629.9737,-106.9307 1639.139,-112.2455 1635.2885,-102.3752 1629.9737,-106.9307"/>
</g>
<!-- Node124&#45;&gt;Node74 -->
<g id="edge58" class="edge">
<title>Node124&#45;&gt;Node74</title>
<path fill="none" stroke="#191970" d="M1752.6247,-102.7493C1749.3594,-93.6064 1745.5999,-83.0798 1742.9438,-75.6427"/>
<polygon fill="#191970" stroke="#191970" points="1749.3567,-104.0053 1756.0163,-112.2455 1755.9489,-101.6509 1749.3567,-104.0053"/>
</g>
</g>
</svg>
