<?xml version="1.0" encoding="UTF-8" standalone="no"?>
<!DOCTYPE svg PUBLIC "-//W3C//DTD SVG 1.1//EN"
 "http://www.w3.org/Graphics/SVG/1.1/DTD/svg11.dtd">
<!-- Generated by graphviz version 2.40.1 (20161225.0304)
 -->
<!-- Title: IntField.cpp Pages: 1 -->
<!--zoomable 196 -->
<svg id="main" version="1.1" xmlns="http://www.w3.org/2000/svg" xmlns:xlink="http://www.w3.org/1999/xlink" xml:space="preserve" onload="init(evt)">
<style type="text/css"><![CDATA[
.edge:hover path { stroke: red; }
.edge:hover polygon { stroke: red; fill: red; }
]]></style>
<script type="text/javascript"><![CDATA[
var edges = document.getElementsByTagName('g');
if (edges && edges.length) {
  for (var i=0;i<edges.length;i++) {
    if (edges[i].id.substr(0,4)=='edge') {
      edges[i].setAttribute('class','edge');
    }
  }
}
]]></script>
        <defs>
                <circle id="rim" cx="0" cy="0" r="7"/>
                <circle id="rim2" cx="0" cy="0" r="3.5"/>
                <g id="zoomPlus">
                        <use xlink:href="#rim" fill="#404040">
                                <set attributeName="fill" to="#808080" begin="zoomplus.mouseover" end="zoomplus.mouseout"/>
                        </use>
                        <path d="M-4,0h8M0,-4v8" fill="none" stroke="white" stroke-width="1.5" pointer-events="none"/>
                </g>
                <g id="zoomMin">
                        <use xlink:href="#rim" fill="#404040">
                                <set attributeName="fill" to="#808080" begin="zoomminus.mouseover" end="zoomminus.mouseout"/>
                        </use>
                        <path d="M-4,0h8" fill="none" stroke="white" stroke-width="1.5" pointer-events="none"/>
                </g>
                <g id="dirArrow">
                        <path fill="none" stroke="white" stroke-width="1.5" d="M0,-3.0v7 M-2.5,-0.5L0,-3.0L2.5,-0.5"/>
                </g>
               <g id="resetDef">
                       <use xlink:href="#rim2" fill="#404040">
                               <set attributeName="fill" to="#808080" begin="reset.mouseover" end="reset.mouseout"/>
                       </use>
               </g>
        </defs>

<script type="text/javascript">
var viewWidth = 1411;
var viewHeight = 196;
var sectionId = 'dynsection-0';
</script>
<script xlink:href="svgpan.js"/>
<svg id="graph" class="graph">
<g id="viewport">
<title>IntField.cpp</title>
<polygon fill="#ffffff" stroke="transparent" points="-4,4 -4,-192 1406.5,-192 1406.5,4 -4,4"/>
<!-- Node0 -->
<g id="node1" class="node">
<title>Node0</title>
<polygon fill="#bfbfbf" stroke="#000000" points="325.5,-168.5 325.5,-187.5 393.5,-187.5 393.5,-168.5 325.5,-168.5"/>
<text text-anchor="middle" x="359.5" y="-175.5" font-family="Helvetica,sans-Serif" font-size="10.00" fill="#000000">IntField.cpp</text>
</g>
<!-- Node1 -->
<g id="node2" class="node">
<title>Node1</title>
<g id="a_node2"><a xlink:href="_int_field_8_h.html" target="_top" xlink:title="amr&#45;wind/core/IntField.H">
<polygon fill="#ffffff" stroke="#000000" points="151.5,-56.5 151.5,-75.5 275.5,-75.5 275.5,-56.5 151.5,-56.5"/>
<text text-anchor="middle" x="213.5" y="-63.5" font-family="Helvetica,sans-Serif" font-size="10.00" fill="#000000">amr&#45;wind/core/IntField.H</text>
</a>
</g>
</g>
<!-- Node0&#45;&gt;Node1 -->
<g id="edge1" class="edge">
<title>Node0&#45;&gt;Node1</title>
<path fill="none" stroke="#191970" d="M347.0521,-168.4509C321.9468,-149.1921 265.0195,-105.5218 234.2183,-81.8935"/>
<polygon fill="#191970" stroke="#191970" points="235.981,-78.8345 225.9164,-75.5249 231.7204,-84.3885 235.981,-78.8345"/>
</g>
<!-- Node5 -->
<g id="node6" class="node">
<title>Node5</title>
<g id="a_node6"><a xlink:href="_field_repo_8_h.html" target="_top" xlink:title="amr&#45;wind/core/FieldRepo.H">
<polygon fill="#ffffff" stroke="#000000" points="437.5,-112.5 437.5,-131.5 573.5,-131.5 573.5,-112.5 437.5,-112.5"/>
<text text-anchor="middle" x="505.5" y="-119.5" font-family="Helvetica,sans-Serif" font-size="10.00" fill="#000000">amr&#45;wind/core/FieldRepo.H</text>
</a>
</g>
</g>
<!-- Node0&#45;&gt;Node5 -->
<g id="edge5" class="edge">
<title>Node0&#45;&gt;Node5</title>
<path fill="none" stroke="#191970" d="M384.5983,-168.3733C408.4555,-159.2226 444.5335,-145.3844 471.071,-135.2057"/>
<polygon fill="#191970" stroke="#191970" points="472.6459,-138.3503 480.7292,-131.5011 470.139,-131.8145 472.6459,-138.3503"/>
</g>
<!-- Node2 -->
<g id="node3" class="node">
<title>Node2</title>
<polygon fill="#ffffff" stroke="#bfbfbf" points="125,-.5 125,-19.5 166,-19.5 166,-.5 125,-.5"/>
<text text-anchor="middle" x="145.5" y="-7.5" font-family="Helvetica,sans-Serif" font-size="10.00" fill="#000000">string</text>
</g>
<!-- Node1&#45;&gt;Node2 -->
<g id="edge2" class="edge">
<title>Node1&#45;&gt;Node2</title>
<path fill="none" stroke="#191970" d="M201.6553,-56.2455C191.612,-47.9746 177.0005,-35.9416 165.1996,-26.2232"/>
<polygon fill="#191970" stroke="#191970" points="167.1533,-23.298 157.209,-19.6427 162.7033,-28.7015 167.1533,-23.298"/>
</g>
<!-- Node3 -->
<g id="node4" class="node">
<title>Node3</title>
<g id="a_node4"><a xlink:href="_field_desc_types_8_h.html" target="_top" xlink:title="amr&#45;wind/core/FieldDescTypes.H">
<polygon fill="#ffffff" stroke="#000000" points="444,-.5 444,-19.5 607,-19.5 607,-.5 444,-.5"/>
<text text-anchor="middle" x="525.5" y="-7.5" font-family="Helvetica,sans-Serif" font-size="10.00" fill="#000000">amr&#45;wind/core/FieldDescTypes.H</text>
</a>
</g>
</g>
<!-- Node1&#45;&gt;Node3 -->
<g id="edge3" class="edge">
<title>Node1&#45;&gt;Node3</title>
<path fill="none" stroke="#191970" d="M266.7802,-56.4369C320.9618,-46.712 404.9031,-31.6456 462.3841,-21.3285"/>
<polygon fill="#191970" stroke="#191970" points="463.2152,-24.7353 472.4395,-19.5237 461.9785,-17.8454 463.2152,-24.7353"/>
</g>
<!-- Node4 -->
<g id="node5" class="node">
<title>Node4</title>
<polygon fill="#ffffff" stroke="#bfbfbf" points="0,-.5 0,-19.5 107,-19.5 107,-.5 0,-.5"/>
<text text-anchor="middle" x="53.5" y="-7.5" font-family="Helvetica,sans-Serif" font-size="10.00" fill="#000000">AMReX_iMultiFab.H</text>
</g>
<!-- Node1&#45;&gt;Node4 -->
<g id="edge4" class="edge">
<title>Node1&#45;&gt;Node4</title>
<path fill="none" stroke="#191970" d="M185.995,-56.3733C159.6198,-47.1419 119.6149,-33.1402 90.4642,-22.9375"/>
<polygon fill="#191970" stroke="#191970" points="91.2409,-19.5012 80.6461,-19.5011 88.9284,-26.1082 91.2409,-19.5012"/>
</g>
<!-- Node5&#45;&gt;Node1 -->
<g id="edge22" class="edge">
<title>Node5&#45;&gt;Node1</title>
<path fill="none" stroke="#191970" d="M455.6352,-112.4369C405.1367,-102.7522 327.0165,-87.7703 273.2395,-77.4569"/>
<polygon fill="#191970" stroke="#191970" points="273.6394,-73.9699 263.1591,-75.5237 272.3209,-80.8446 273.6394,-73.9699"/>
</g>
<!-- Node5&#45;&gt;Node2 -->
<g id="edge6" class="edge">
<title>Node5&#45;&gt;Node2</title>
<path fill="none" stroke="#191970" d="M454.009,-112.483C416.7748,-104.7821 365.6415,-92.5037 322.5,-76 304.6745,-69.1809 302.0758,-63.4389 284.5,-56 239.9035,-37.1248 225.0012,-36.4044 175.7019,-20.3299"/>
<polygon fill="#191970" stroke="#191970" points="176.6748,-16.9651 166.0814,-17.1419 174.4729,-23.6098 176.6748,-16.9651"/>
</g>
<!-- Node5&#45;&gt;Node3 -->
<g id="edge8" class="edge">
<title>Node5&#45;&gt;Node3</title>
<path fill="none" stroke="#191970" d="M507.2052,-112.4509C510.4819,-94.1013 517.7159,-53.5908 522.0412,-29.3693"/>
<polygon fill="#191970" stroke="#191970" points="525.4866,-29.9845 523.7991,-19.5249 518.5956,-28.7539 525.4866,-29.9845"/>
</g>
<!-- Node5&#45;&gt;Node4 -->
<g id="edge31" class="edge">
<title>Node5&#45;&gt;Node4</title>
<path fill="none" stroke="#191970" d="M437.2703,-117.4939C347.3588,-110.8478 194.5184,-96.9017 142.5,-76 114.2757,-64.6591 86.9627,-42.1477 70.2035,-26.592"/>
<polygon fill="#191970" stroke="#191970" points="72.5183,-23.9631 62.8663,-19.5938 67.6869,-29.0285 72.5183,-23.9631"/>
</g>
<!-- Node6 -->
<g id="node7" class="node">
<title>Node6</title>
<polygon fill="#ffffff" stroke="#bfbfbf" points="882,-.5 882,-19.5 965,-19.5 965,-.5 882,-.5"/>
<text text-anchor="middle" x="923.5" y="-7.5" font-family="Helvetica,sans-Serif" font-size="10.00" fill="#000000">unordered_map</text>
</g>
<!-- Node5&#45;&gt;Node6 -->
<g id="edge7" class="edge">
<title>Node5&#45;&gt;Node6</title>
<path fill="none" stroke="#191970" d="M562.6814,-112.4922C604.0827,-104.7956 661.0471,-92.5188 709.5,-76 729.4497,-69.1987 732.694,-63.2089 752.5,-56 791.8086,-41.6927 837.6401,-29.5991 871.9553,-21.4079"/>
<polygon fill="#191970" stroke="#191970" points="872.8321,-24.7972 881.7633,-19.0978 871.2273,-17.9836 872.8321,-24.7972"/>
</g>
<!-- Node7 -->
<g id="node8" class="node">
<title>Node7</title>
<g id="a_node8"><a xlink:href="_field_utils_8_h.html" target="_top" xlink:title="amr&#45;wind/core/FieldUtils.H">
<polygon fill="#ffffff" stroke="#000000" points="534,-56.5 534,-75.5 667,-75.5 667,-56.5 534,-56.5"/>
<text text-anchor="middle" x="600.5" y="-63.5" font-family="Helvetica,sans-Serif" font-size="10.00" fill="#000000">amr&#45;wind/core/FieldUtils.H</text>
</a>
</g>
</g>
<!-- Node5&#45;&gt;Node7 -->
<g id="edge9" class="edge">
<title>Node5&#45;&gt;Node7</title>
<path fill="none" stroke="#191970" d="M522.0477,-112.2455C536.7599,-103.5731 558.4888,-90.7645 575.3505,-80.825"/>
<polygon fill="#191970" stroke="#191970" points="577.3046,-83.736 584.1419,-75.6427 573.7498,-77.7057 577.3046,-83.736"/>
</g>
<!-- Node8 -->
<g id="node9" class="node">
<title>Node8</title>
<polygon fill="#ffffff" stroke="#bfbfbf" points="759.5,-.5 759.5,-19.5 863.5,-19.5 863.5,-.5 759.5,-.5"/>
<text text-anchor="middle" x="811.5" y="-7.5" font-family="Helvetica,sans-Serif" font-size="10.00" fill="#000000">AMReX_MultiFab.H</text>
</g>
<!-- Node5&#45;&gt;Node8 -->
<g id="edge30" class="edge">
<title>Node5&#45;&gt;Node8</title>
<path fill="none" stroke="#191970" d="M550.1649,-112.4657C585.1045,-104.4176 634.6168,-91.7053 676.5,-76 687.2354,-71.9745 746.8843,-42.3562 783.2084,-24.1916"/>
<polygon fill="#191970" stroke="#191970" points="784.9603,-27.2287 792.336,-19.6228 781.827,-20.9691 784.9603,-27.2287"/>
</g>
<!-- Node10 -->
<g id="node11" class="node">
<title>Node10</title>
<g id="a_node11"><a xlink:href="_field_8_h.html" target="_top" xlink:title="amr&#45;wind/core/Field.H">
<polygon fill="#ffffff" stroke="#000000" points="886,-56.5 886,-75.5 999,-75.5 999,-56.5 886,-56.5"/>
<text text-anchor="middle" x="942.5" y="-63.5" font-family="Helvetica,sans-Serif" font-size="10.00" fill="#000000">amr&#45;wind/core/Field.H</text>
</a>
</g>
</g>
<!-- Node5&#45;&gt;Node10 -->
<g id="edge13" class="edge">
<title>Node5&#45;&gt;Node10</title>
<path fill="none" stroke="#191970" d="M573.6103,-114.1141C645.897,-105.6181 763.7391,-91.4077 875.8546,-76.0577"/>
<polygon fill="#191970" stroke="#191970" points="876.5586,-79.494 885.9889,-74.6649 875.6054,-72.5592 876.5586,-79.494"/>
</g>
<!-- Node15 -->
<g id="node16" class="node">
<title>Node15</title>
<g id="a_node16"><a xlink:href="_scratch_field_8_h.html" target="_top" xlink:title="amr&#45;wind/core/ScratchField.H">
<polygon fill="#ffffff" stroke="#000000" points="331.5,-56.5 331.5,-75.5 477.5,-75.5 477.5,-56.5 331.5,-56.5"/>
<text text-anchor="middle" x="404.5" y="-63.5" font-family="Helvetica,sans-Serif" font-size="10.00" fill="#000000">amr&#45;wind/core/ScratchField.H</text>
</a>
</g>
</g>
<!-- Node5&#45;&gt;Node15 -->
<g id="edge23" class="edge">
<title>Node5&#45;&gt;Node15</title>
<path fill="none" stroke="#191970" d="M487.9071,-112.2455C472.121,-103.4928 448.7361,-90.527 430.7413,-80.5496"/>
<polygon fill="#191970" stroke="#191970" points="432.3341,-77.4308 421.8913,-75.6427 428.9397,-83.5528 432.3341,-77.4308"/>
</g>
<!-- Node18 -->
<g id="node19" class="node">
<title>Node18</title>
<polygon fill="#ffffff" stroke="#bfbfbf" points="761.5,-56.5 761.5,-75.5 867.5,-75.5 867.5,-56.5 761.5,-56.5"/>
<text text-anchor="middle" x="814.5" y="-63.5" font-family="Helvetica,sans-Serif" font-size="10.00" fill="#000000">AMReX_AmrCore.H</text>
</g>
<!-- Node5&#45;&gt;Node18 -->
<g id="edge29" class="edge">
<title>Node5&#45;&gt;Node18</title>
<path fill="none" stroke="#191970" d="M558.2679,-112.4369C611.9285,-102.712 695.0627,-87.6456 751.991,-77.3285"/>
<polygon fill="#191970" stroke="#191970" points="752.7342,-80.7509 761.9497,-75.5237 751.4859,-73.8631 752.7342,-80.7509"/>
</g>
<!-- Node7&#45;&gt;Node3 -->
<g id="edge10" class="edge">
<title>Node7&#45;&gt;Node3</title>
<path fill="none" stroke="#191970" d="M587.436,-56.2455C576.1438,-47.814 559.6155,-35.4729 546.4729,-25.6598"/>
<polygon fill="#191970" stroke="#191970" points="548.5211,-22.8211 538.4143,-19.6427 544.3331,-28.4301 548.5211,-22.8211"/>
</g>
<!-- Node7&#45;&gt;Node8 -->
<g id="edge11" class="edge">
<title>Node7&#45;&gt;Node8</title>
<path fill="none" stroke="#191970" d="M636.7722,-56.3733C672.4658,-46.9001 727.0879,-32.4032 765.7451,-22.1435"/>
<polygon fill="#191970" stroke="#191970" points="766.9336,-25.4493 775.7011,-19.5011 765.1379,-18.6835 766.9336,-25.4493"/>
</g>
<!-- Node9 -->
<g id="node10" class="node">
<title>Node9</title>
<polygon fill="#ffffff" stroke="#bfbfbf" points="625.5,-.5 625.5,-19.5 741.5,-19.5 741.5,-.5 625.5,-.5"/>
<text text-anchor="middle" x="683.5" y="-7.5" font-family="Helvetica,sans-Serif" font-size="10.00" fill="#000000">AMReX_Interpolater.H</text>
</g>
<!-- Node7&#45;&gt;Node9 -->
<g id="edge12" class="edge">
<title>Node7&#45;&gt;Node9</title>
<path fill="none" stroke="#191970" d="M614.9575,-56.2455C627.5732,-47.7337 646.0944,-35.2375 660.7045,-25.3801"/>
<polygon fill="#191970" stroke="#191970" points="662.8761,-28.1371 669.2082,-19.6427 658.9609,-22.3343 662.8761,-28.1371"/>
</g>
<!-- Node10&#45;&gt;Node2 -->
<g id="edge14" class="edge">
<title>Node10&#45;&gt;Node2</title>
<path fill="none" stroke="#191970" d="M885.6636,-57.0228C882.5676,-56.648 879.4979,-56.3032 876.5,-56 569.0149,-24.8988 483.0315,-78.3365 176.2887,-19.8694"/>
<polygon fill="#191970" stroke="#191970" points="176.6996,-16.3842 166.2174,-17.9249 175.3726,-23.2573 176.6996,-16.3842"/>
</g>
<!-- Node10&#45;&gt;Node3 -->
<g id="edge21" class="edge">
<title>Node10&#45;&gt;Node3</title>
<path fill="none" stroke="#191970" d="M885.9853,-57.361C882.7772,-56.8943 879.5983,-56.4377 876.5,-56 786.3072,-43.2585 682.8996,-29.8519 611.8096,-20.8212"/>
<polygon fill="#191970" stroke="#191970" points="611.9218,-17.3074 601.5608,-19.5211 611.0409,-24.2518 611.9218,-17.3074"/>
</g>
<!-- Node10&#45;&gt;Node6 -->
<g id="edge16" class="edge">
<title>Node10&#45;&gt;Node6</title>
<path fill="none" stroke="#191970" d="M939.1905,-56.2455C936.6567,-48.7776 933.0823,-38.2427 929.985,-29.1137"/>
<polygon fill="#191970" stroke="#191970" points="933.2991,-27.9879 926.7716,-19.6427 926.6702,-30.237 933.2991,-27.9879"/>
</g>
<!-- Node10&#45;&gt;Node8 -->
<g id="edge17" class="edge">
<title>Node10&#45;&gt;Node8</title>
<path fill="none" stroke="#191970" d="M919.9803,-56.3733C898.7628,-47.3032 866.7724,-33.6279 843.0231,-23.4755"/>
<polygon fill="#191970" stroke="#191970" points="844.2967,-20.2136 833.7258,-19.5011 841.5452,-26.6502 844.2967,-20.2136"/>
</g>
<!-- Node11 -->
<g id="node12" class="node">
<title>Node11</title>
<polygon fill="#ffffff" stroke="#bfbfbf" points="983.5,-.5 983.5,-19.5 1035.5,-19.5 1035.5,-.5 983.5,-.5"/>
<text text-anchor="middle" x="1009.5" y="-7.5" font-family="Helvetica,sans-Serif" font-size="10.00" fill="#000000">memory</text>
</g>
<!-- Node10&#45;&gt;Node11 -->
<g id="edge15" class="edge">
<title>Node10&#45;&gt;Node11</title>
<path fill="none" stroke="#191970" d="M954.1705,-56.2455C964.0661,-47.9746 978.4627,-35.9416 990.0901,-26.2232"/>
<polygon fill="#191970" stroke="#191970" points="992.535,-28.7413 997.9632,-19.6427 988.0458,-23.3703 992.535,-28.7413"/>
</g>
<!-- Node12 -->
<g id="node13" class="node">
<title>Node12</title>
<polygon fill="#ffffff" stroke="#bfbfbf" points="1054,-.5 1054,-19.5 1153,-19.5 1153,-.5 1054,-.5"/>
<text text-anchor="middle" x="1103.5" y="-7.5" font-family="Helvetica,sans-Serif" font-size="10.00" fill="#000000">AMReX_BCRec.H</text>
</g>
<!-- Node10&#45;&gt;Node12 -->
<g id="edge18" class="edge">
<title>Node10&#45;&gt;Node12</title>
<path fill="none" stroke="#191970" d="M970.1769,-56.3733C996.8328,-47.1016 1037.3238,-33.0178 1066.6884,-22.804"/>
<polygon fill="#191970" stroke="#191970" points="1067.8891,-26.0921 1076.1843,-19.5011 1065.5895,-19.4807 1067.8891,-26.0921"/>
</g>
<!-- Node13 -->
<g id="node14" class="node">
<title>Node13</title>
<polygon fill="#ffffff" stroke="#bfbfbf" points="1171,-.5 1171,-19.5 1256,-19.5 1256,-.5 1171,-.5"/>
<text text-anchor="middle" x="1213.5" y="-7.5" font-family="Helvetica,sans-Serif" font-size="10.00" fill="#000000">AMReX_Gpu.H</text>
</g>
<!-- Node10&#45;&gt;Node13 -->
<g id="edge19" class="edge">
<title>Node10&#45;&gt;Node13</title>
<path fill="none" stroke="#191970" d="M988.7786,-56.4369C1036.5819,-46.5587 1111.0553,-31.1694 1161.0215,-20.8443"/>
<polygon fill="#191970" stroke="#191970" points="1161.898,-24.2372 1170.9828,-18.7858 1160.4814,-17.382 1161.898,-24.2372"/>
</g>
<!-- Node14 -->
<g id="node15" class="node">
<title>Node14</title>
<g id="a_node15"><a xlink:href="incflo__enums_8_h.html" target="_top" xlink:title="amr&#45;wind/incflo_enums.H">
<polygon fill="#ffffff" stroke="#000000" points="1274.5,-.5 1274.5,-19.5 1402.5,-19.5 1402.5,-.5 1274.5,-.5"/>
<text text-anchor="middle" x="1338.5" y="-7.5" font-family="Helvetica,sans-Serif" font-size="10.00" fill="#000000">amr&#45;wind/incflo_enums.H</text>
</a>
</g>
</g>
<!-- Node10&#45;&gt;Node14 -->
<g id="edge20" class="edge">
<title>Node10&#45;&gt;Node14</title>
<path fill="none" stroke="#191970" d="M999.2371,-57.9766C1068.9283,-48.1213 1187.3382,-31.3764 1264.2205,-20.5042"/>
<polygon fill="#191970" stroke="#191970" points="1264.9054,-23.9422 1274.3168,-19.0764 1263.9252,-17.0112 1264.9054,-23.9422"/>
</g>
<!-- Node15&#45;&gt;Node2 -->
<g id="edge24" class="edge">
<title>Node15&#45;&gt;Node2</title>
<path fill="none" stroke="#191970" d="M345.3815,-56.4358C300.9962,-48.7416 238.6088,-36.841 176.3011,-20.2522"/>
<polygon fill="#191970" stroke="#191970" points="176.8715,-16.7808 166.3046,-17.5495 175.0445,-23.5382 176.8715,-16.7808"/>
</g>
<!-- Node15&#45;&gt;Node3 -->
<g id="edge25" class="edge">
<title>Node15&#45;&gt;Node3</title>
<path fill="none" stroke="#191970" d="M425.3006,-56.3733C444.7243,-47.3838 473.9224,-33.8706 495.7964,-23.7471"/>
<polygon fill="#191970" stroke="#191970" points="497.3656,-26.8776 504.9708,-19.5011 494.4255,-20.5249 497.3656,-26.8776"/>
</g>
<!-- Node15&#45;&gt;Node8 -->
<g id="edge26" class="edge">
<title>Node15&#45;&gt;Node8</title>
<path fill="none" stroke="#191970" d="M477.8261,-56.9064C545.6653,-48.3434 649.581,-34.8482 749.324,-20.1417"/>
<polygon fill="#191970" stroke="#191970" points="749.8934,-23.5957 759.2729,-18.6687 748.868,-16.6712 749.8934,-23.5957"/>
</g>
<!-- Node16 -->
<g id="node17" class="node">
<title>Node16</title>
<polygon fill="#ffffff" stroke="#bfbfbf" points="184,-.5 184,-19.5 279,-19.5 279,-.5 184,-.5"/>
<text text-anchor="middle" x="231.5" y="-7.5" font-family="Helvetica,sans-Serif" font-size="10.00" fill="#000000">AMReX_Vector.H</text>
</g>
<!-- Node15&#45;&gt;Node16 -->
<g id="edge27" class="edge">
<title>Node15&#45;&gt;Node16</title>
<path fill="none" stroke="#191970" d="M374.7602,-56.3733C345.993,-47.0613 302.23,-32.8953 270.6444,-22.671"/>
<polygon fill="#191970" stroke="#191970" points="271.4436,-19.251 260.8517,-19.5011 269.2878,-25.9107 271.4436,-19.251"/>
</g>
<!-- Node17 -->
<g id="node18" class="node">
<title>Node17</title>
<polygon fill="#ffffff" stroke="#bfbfbf" points="297.5,-.5 297.5,-19.5 425.5,-19.5 425.5,-.5 297.5,-.5"/>
<text text-anchor="middle" x="361.5" y="-7.5" font-family="Helvetica,sans-Serif" font-size="10.00" fill="#000000">AMReX_PhysBCFunct.H</text>
</g>
<!-- Node15&#45;&gt;Node17 -->
<g id="edge28" class="edge">
<title>Node15&#45;&gt;Node17</title>
<path fill="none" stroke="#191970" d="M397.01,-56.2455C390.9674,-48.3761 382.3097,-37.101 375.0559,-27.6542"/>
<polygon fill="#191970" stroke="#191970" points="377.7705,-25.4426 368.9042,-19.6427 372.2185,-29.7058 377.7705,-25.4426"/>
</g>
</g>
</svg>
        <g id="navigator" transform="translate(0 0)" fill="#404254">
                <rect fill="#f2f5e9" fill-opacity="0.5" stroke="#606060" stroke-width=".5" x="0" y="0" width="60" height="60"/>
                <use id="zoomplus" xlink:href="#zoomPlus" x="17" y="9" onmousedown="handleZoom(evt,'in')"/>
                <use id="zoomminus" xlink:href="#zoomMin" x="42" y="9" onmousedown="handleZoom(evt,'out')"/>
                <use id="reset" xlink:href="#resetDef" x="30" y="36" onmousedown="handleReset()"/>
                <g id="arrowUp" xlink:href="#dirArrow" transform="translate(30 24)" onmousedown="handlePan(0,-1)">
                  <use xlink:href="#rim" fill="#404040">
                        <set attributeName="fill" to="#808080" begin="arrowUp.mouseover" end="arrowUp.mouseout"/>
                  </use>
                  <path fill="none" stroke="white" stroke-width="1.5" d="M0,-3.0v7 M-2.5,-0.5L0,-3.0L2.5,-0.5"/>
                </g>
                <g id="arrowRight" xlink:href="#dirArrow" transform="rotate(90) translate(36 -43)" onmousedown="handlePan(1,0)">
                  <use xlink:href="#rim" fill="#404040">
                        <set attributeName="fill" to="#808080" begin="arrowRight.mouseover" end="arrowRight.mouseout"/>
                  </use>
                  <path fill="none" stroke="white" stroke-width="1.5" d="M0,-3.0v7 M-2.5,-0.5L0,-3.0L2.5,-0.5"/>
                </g>
                <g id="arrowDown" xlink:href="#dirArrow" transform="rotate(180) translate(-30 -48)" onmousedown="handlePan(0,1)">
                  <use xlink:href="#rim" fill="#404040">
                        <set attributeName="fill" to="#808080" begin="arrowDown.mouseover" end="arrowDown.mouseout"/>
                  </use>
                  <path fill="none" stroke="white" stroke-width="1.5" d="M0,-3.0v7 M-2.5,-0.5L0,-3.0L2.5,-0.5"/>
                </g>
                <g id="arrowLeft" xlink:href="#dirArrow" transform="rotate(270) translate(-36 17)" onmousedown="handlePan(-1,0)">
                  <use xlink:href="#rim" fill="#404040">
                        <set attributeName="fill" to="#808080" begin="arrowLeft.mouseover" end="arrowLeft.mouseout"/>
                  </use>
                  <path fill="none" stroke="white" stroke-width="1.5" d="M0,-3.0v7 M-2.5,-0.5L0,-3.0L2.5,-0.5"/>
                </g>
        </g>
        <svg viewBox="0 0 15 15" width="100%" height="30px" preserveAspectRatio="xMaxYMin meet">
         <g id="arrow_out" transform="scale(0.3 0.3)">
          <a xlink:href="_int_field_8cpp__incl_org.svg" target="_base">
           <rect id="button" ry="5" rx="5" y="6" x="6" height="38" width="38"
                fill="#f2f5e9" fill-opacity="0.5" stroke="#606060" stroke-width="1.0"/>
           <path id="arrow"
             d="M 11.500037,31.436501 C 11.940474,20.09759 22.043105,11.32322 32.158766,21.979434 L 37.068811,17.246167 C 37.068811,17.246167 37.088388,32 37.088388,32 L 22.160133,31.978069 C 22.160133,31.978069 26.997745,27.140456 26.997745,27.140456 C 18.528582,18.264221 13.291696,25.230495 11.500037,31.436501 z"
             style="fill:#404040;"/>
          </a>
         </g>
        </svg>
</svg>
