<?xml version="1.0" encoding="UTF-8" standalone="no"?>
<!DOCTYPE svg PUBLIC "-//W3C//DTD SVG 1.1//EN"
 "http://www.w3.org/Graphics/SVG/1.1/DTD/svg11.dtd">
<!-- Generated by graphviz version 2.40.1 (20161225.0304)
 -->
<!-- Title: KsgsS94Src.H Pages: 1 -->
<!--zoomable 263 -->
<svg id="main" version="1.1" xmlns="http://www.w3.org/2000/svg" xmlns:xlink="http://www.w3.org/1999/xlink" xml:space="preserve" onload="init(evt)">
<style type="text/css"><![CDATA[
.edge:hover path { stroke: red; }
.edge:hover polygon { stroke: red; fill: red; }
]]></style>
<script type="text/javascript"><![CDATA[
var edges = document.getElementsByTagName('g');
if (edges && edges.length) {
  for (var i=0;i<edges.length;i++) {
    if (edges[i].id.substr(0,4)=='edge') {
      edges[i].setAttribute('class','edge');
    }
  }
}
]]></script>
        <defs>
                <circle id="rim" cx="0" cy="0" r="7"/>
                <circle id="rim2" cx="0" cy="0" r="3.5"/>
                <g id="zoomPlus">
                        <use xlink:href="#rim" fill="#404040">
                                <set attributeName="fill" to="#808080" begin="zoomplus.mouseover" end="zoomplus.mouseout"/>
                        </use>
                        <path d="M-4,0h8M0,-4v8" fill="none" stroke="white" stroke-width="1.5" pointer-events="none"/>
                </g>
                <g id="zoomMin">
                        <use xlink:href="#rim" fill="#404040">
                                <set attributeName="fill" to="#808080" begin="zoomminus.mouseover" end="zoomminus.mouseout"/>
                        </use>
                        <path d="M-4,0h8" fill="none" stroke="white" stroke-width="1.5" pointer-events="none"/>
                </g>
                <g id="dirArrow">
                        <path fill="none" stroke="white" stroke-width="1.5" d="M0,-3.0v7 M-2.5,-0.5L0,-3.0L2.5,-0.5"/>
                </g>
               <g id="resetDef">
                       <use xlink:href="#rim2" fill="#404040">
                               <set attributeName="fill" to="#808080" begin="reset.mouseover" end="reset.mouseout"/>
                       </use>
               </g>
        </defs>

<script type="text/javascript">
var viewWidth = 1668;
var viewHeight = 263;
var sectionId = 'dynsection-0';
</script>
<script xlink:href="svgpan.js"/>
<svg id="graph" class="graph">
<g id="viewport">
<title>KsgsS94Src.H</title>
<polygon fill="#ffffff" stroke="transparent" points="-4,4 -4,-259 1663.5,-259 1663.5,4 -4,4"/>
<!-- Node0 -->
<g id="node1" class="node">
<title>Node0</title>
<polygon fill="#bfbfbf" stroke="#000000" points="620.5,-235.5 620.5,-254.5 702.5,-254.5 702.5,-235.5 620.5,-235.5"/>
<text text-anchor="middle" x="661.5" y="-242.5" font-family="Helvetica,sans-Serif" font-size="10.00" fill="#000000">KsgsS94Src.H</text>
</g>
<!-- Node1 -->
<g id="node2" class="node">
<title>Node1</title>
<g id="a_node2"><a xlink:href="_t_k_e_source_8_h.html" target="_top" xlink:title="amr&#45;wind/equation_systems\l/tke/TKESource.H">
<polygon fill="#ffffff" stroke="#000000" points="592,-168.5 592,-198.5 731,-198.5 731,-168.5 592,-168.5"/>
<text text-anchor="start" x="600" y="-186.5" font-family="Helvetica,sans-Serif" font-size="10.00" fill="#000000">amr&#45;wind/equation_systems</text>
<text text-anchor="middle" x="661.5" y="-175.5" font-family="Helvetica,sans-Serif" font-size="10.00" fill="#000000">/tke/TKESource.H</text>
</a>
</g>
</g>
<!-- Node0&#45;&gt;Node1 -->
<g id="edge1" class="edge">
<title>Node0&#45;&gt;Node1</title>
<path fill="none" stroke="#191970" d="M661.5,-235.3906C661.5,-228.2234 661.5,-218.0862 661.5,-208.671"/>
<polygon fill="#191970" stroke="#191970" points="665.0001,-208.5446 661.5,-198.5446 658.0001,-208.5446 665.0001,-208.5446"/>
</g>
<!-- Node2 -->
<g id="node3" class="node">
<title>Node2</title>
<g id="a_node3"><a xlink:href="_factory_8_h.html" target="_top" xlink:title="amr&#45;wind/core/Factory.H">
<polygon fill="#ffffff" stroke="#000000" points="201,-56.5 201,-75.5 326,-75.5 326,-56.5 201,-56.5"/>
<text text-anchor="middle" x="263.5" y="-63.5" font-family="Helvetica,sans-Serif" font-size="10.00" fill="#000000">amr&#45;wind/core/Factory.H</text>
</a>
</g>
</g>
<!-- Node1&#45;&gt;Node2 -->
<g id="edge2" class="edge">
<title>Node1&#45;&gt;Node2</title>
<path fill="none" stroke="#191970" d="M610.6888,-168.4992C531.33,-145.0704 379.4344,-100.2269 305.7152,-78.463"/>
<polygon fill="#191970" stroke="#191970" points="306.4294,-75.0246 295.8476,-75.5499 304.4474,-81.7381 306.4294,-75.0246"/>
</g>
<!-- Node8 -->
<g id="node9" class="node">
<title>Node8</title>
<g id="a_node9"><a xlink:href="_field_desc_types_8_h.html" target="_top" xlink:title="amr&#45;wind/core/FieldDescTypes.H">
<polygon fill="#ffffff" stroke="#000000" points="564,-.5 564,-19.5 727,-19.5 727,-.5 564,-.5"/>
<text text-anchor="middle" x="645.5" y="-7.5" font-family="Helvetica,sans-Serif" font-size="10.00" fill="#000000">amr&#45;wind/core/FieldDescTypes.H</text>
</a>
</g>
</g>
<!-- Node1&#45;&gt;Node8 -->
<g id="edge8" class="edge">
<title>Node1&#45;&gt;Node8</title>
<path fill="none" stroke="#191970" d="M646.1677,-168.4748C627.6212,-149.1145 597.4064,-113.4664 585.5,-76 582.8079,-67.5286 581.5669,-63.9714 585.5,-56 591.9793,-42.8681 604.2062,-32.4457 615.9407,-24.8651"/>
<polygon fill="#191970" stroke="#191970" points="617.9244,-27.7572 624.7148,-19.6244 614.3348,-21.7475 617.9244,-27.7572"/>
</g>
<!-- Node9 -->
<g id="node10" class="node">
<title>Node9</title>
<g id="a_node10"><a xlink:href="_field_utils_8_h.html" target="_top" xlink:title="amr&#45;wind/core/FieldUtils.H">
<polygon fill="#ffffff" stroke="#000000" points="595,-56.5 595,-75.5 728,-75.5 728,-56.5 595,-56.5"/>
<text text-anchor="middle" x="661.5" y="-63.5" font-family="Helvetica,sans-Serif" font-size="10.00" fill="#000000">amr&#45;wind/core/FieldUtils.H</text>
</a>
</g>
</g>
<!-- Node1&#45;&gt;Node9 -->
<g id="edge9" class="edge">
<title>Node1&#45;&gt;Node9</title>
<path fill="none" stroke="#191970" d="M661.5,-168.1389C661.5,-146.9692 661.5,-108.8174 661.5,-85.6112"/>
<polygon fill="#191970" stroke="#191970" points="665.0001,-85.5594 661.5,-75.5595 658.0001,-85.5595 665.0001,-85.5594"/>
</g>
<!-- Node10 -->
<g id="node11" class="node">
<title>Node10</title>
<polygon fill="#ffffff" stroke="#bfbfbf" points="1111.5,-.5 1111.5,-19.5 1215.5,-19.5 1215.5,-.5 1111.5,-.5"/>
<text text-anchor="middle" x="1163.5" y="-7.5" font-family="Helvetica,sans-Serif" font-size="10.00" fill="#000000">AMReX_MultiFab.H</text>
</g>
<!-- Node1&#45;&gt;Node10 -->
<g id="edge40" class="edge">
<title>Node1&#45;&gt;Node10</title>
<path fill="none" stroke="#191970" d="M731.1307,-176.634C816.3022,-167.609 955.1226,-150.6933 1003.5,-132 1064.2954,-108.5083 1121.4634,-54.4532 1147.9969,-26.8649"/>
<polygon fill="#191970" stroke="#191970" points="1150.6094,-29.1961 1154.9329,-19.5235 1145.5212,-24.3888 1150.6094,-29.1961"/>
</g>
<!-- Node12 -->
<g id="node13" class="node">
<title>Node12</title>
<g id="a_node13"><a xlink:href="_field_repo_8_h.html" target="_top" xlink:title="amr&#45;wind/core/FieldRepo.H">
<polygon fill="#ffffff" stroke="#000000" points="858.5,-112.5 858.5,-131.5 994.5,-131.5 994.5,-112.5 858.5,-112.5"/>
<text text-anchor="middle" x="926.5" y="-119.5" font-family="Helvetica,sans-Serif" font-size="10.00" fill="#000000">amr&#45;wind/core/FieldRepo.H</text>
</a>
</g>
</g>
<!-- Node1&#45;&gt;Node12 -->
<g id="edge13" class="edge">
<title>Node1&#45;&gt;Node12</title>
<path fill="none" stroke="#191970" d="M726.3263,-168.4554C772.2876,-157.7889 833.0991,-143.6761 875.5864,-133.8158"/>
<polygon fill="#191970" stroke="#191970" points="876.4845,-137.2005 885.4344,-131.5303 874.902,-130.3817 876.4845,-137.2005"/>
</g>
<!-- Node3 -->
<g id="node4" class="node">
<title>Node3</title>
<polygon fill="#ffffff" stroke="#bfbfbf" points="359.5,-.5 359.5,-19.5 411.5,-19.5 411.5,-.5 359.5,-.5"/>
<text text-anchor="middle" x="385.5" y="-7.5" font-family="Helvetica,sans-Serif" font-size="10.00" fill="#000000">memory</text>
</g>
<!-- Node2&#45;&gt;Node3 -->
<g id="edge3" class="edge">
<title>Node2&#45;&gt;Node3</title>
<path fill="none" stroke="#191970" d="M284.4725,-56.3733C304.0567,-47.3838 333.4961,-33.8706 355.551,-23.7471"/>
<polygon fill="#191970" stroke="#191970" points="357.1729,-26.8538 364.8011,-19.5011 354.2527,-20.4919 357.1729,-26.8538"/>
</g>
<!-- Node4 -->
<g id="node5" class="node">
<title>Node4</title>
<polygon fill="#ffffff" stroke="#bfbfbf" points="0,-.5 0,-19.5 83,-19.5 83,-.5 0,-.5"/>
<text text-anchor="middle" x="41.5" y="-7.5" font-family="Helvetica,sans-Serif" font-size="10.00" fill="#000000">unordered_map</text>
</g>
<!-- Node2&#45;&gt;Node4 -->
<g id="edge4" class="edge">
<title>Node2&#45;&gt;Node4</title>
<path fill="none" stroke="#191970" d="M225.5891,-56.4369C187.835,-46.9133 129.7735,-32.2672 88.9736,-21.9753"/>
<polygon fill="#191970" stroke="#191970" points="89.8069,-18.576 79.2546,-19.5237 88.0947,-25.3633 89.8069,-18.576"/>
</g>
<!-- Node5 -->
<g id="node6" class="node">
<title>Node5</title>
<polygon fill="#ffffff" stroke="#bfbfbf" points="101.5,-.5 101.5,-19.5 155.5,-19.5 155.5,-.5 101.5,-.5"/>
<text text-anchor="middle" x="128.5" y="-7.5" font-family="Helvetica,sans-Serif" font-size="10.00" fill="#000000">iostream</text>
</g>
<!-- Node2&#45;&gt;Node5 -->
<g id="edge5" class="edge">
<title>Node2&#45;&gt;Node5</title>
<path fill="none" stroke="#191970" d="M240.2927,-56.3733C218.3301,-47.2629 185.1668,-33.5062 160.6599,-23.3404"/>
<polygon fill="#191970" stroke="#191970" points="161.9824,-20.0999 151.4045,-19.5011 159.3003,-26.5657 161.9824,-20.0999"/>
</g>
<!-- Node6 -->
<g id="node7" class="node">
<title>Node6</title>
<polygon fill="#ffffff" stroke="#bfbfbf" points="174,-.5 174,-19.5 261,-19.5 261,-.5 174,-.5"/>
<text text-anchor="middle" x="217.5" y="-7.5" font-family="Helvetica,sans-Serif" font-size="10.00" fill="#000000">AMReX_Print.H</text>
</g>
<!-- Node2&#45;&gt;Node6 -->
<g id="edge6" class="edge">
<title>Node2&#45;&gt;Node6</title>
<path fill="none" stroke="#191970" d="M255.4874,-56.2455C249.0232,-48.3761 239.7615,-37.101 232.0017,-27.6542"/>
<polygon fill="#191970" stroke="#191970" points="234.4727,-25.1484 225.4208,-19.6427 229.0636,-29.5916 234.4727,-25.1484"/>
</g>
<!-- Node7 -->
<g id="node8" class="node">
<title>Node7</title>
<polygon fill="#ffffff" stroke="#bfbfbf" points="279.5,-.5 279.5,-19.5 341.5,-19.5 341.5,-.5 279.5,-.5"/>
<text text-anchor="middle" x="310.5" y="-7.5" font-family="Helvetica,sans-Serif" font-size="10.00" fill="#000000">AMReX.H</text>
</g>
<!-- Node2&#45;&gt;Node7 -->
<g id="edge7" class="edge">
<title>Node2&#45;&gt;Node7</title>
<path fill="none" stroke="#191970" d="M271.6868,-56.2455C278.3589,-48.2958 287.9479,-36.8706 295.9253,-27.3656"/>
<polygon fill="#191970" stroke="#191970" points="298.6592,-29.5525 302.407,-19.6427 293.2974,-25.0524 298.6592,-29.5525"/>
</g>
<!-- Node9&#45;&gt;Node8 -->
<g id="edge10" class="edge">
<title>Node9&#45;&gt;Node8</title>
<path fill="none" stroke="#191970" d="M658.713,-56.2455C656.6023,-48.8579 653.634,-38.4689 651.0453,-29.4087"/>
<polygon fill="#191970" stroke="#191970" points="654.3677,-28.2964 648.255,-19.6427 647.637,-30.2195 654.3677,-28.2964"/>
</g>
<!-- Node9&#45;&gt;Node10 -->
<g id="edge11" class="edge">
<title>Node9&#45;&gt;Node10</title>
<path fill="none" stroke="#191970" d="M728.1378,-60.2739C812.5925,-52.7427 962.8751,-38.4296 1101.3387,-20.0931"/>
<polygon fill="#191970" stroke="#191970" points="1101.8373,-23.5576 1111.2866,-18.7659 1100.9116,-16.6191 1101.8373,-23.5576"/>
</g>
<!-- Node11 -->
<g id="node12" class="node">
<title>Node11</title>
<polygon fill="#ffffff" stroke="#bfbfbf" points="429.5,-.5 429.5,-19.5 545.5,-19.5 545.5,-.5 429.5,-.5"/>
<text text-anchor="middle" x="487.5" y="-7.5" font-family="Helvetica,sans-Serif" font-size="10.00" fill="#000000">AMReX_Interpolater.H</text>
</g>
<!-- Node9&#45;&gt;Node11 -->
<g id="edge12" class="edge">
<title>Node9&#45;&gt;Node11</title>
<path fill="none" stroke="#191970" d="M631.5883,-56.3733C602.6548,-47.0613 558.6389,-32.8953 526.8707,-22.671"/>
<polygon fill="#191970" stroke="#191970" points="527.6128,-19.2331 517.0213,-19.5011 525.4682,-25.8965 527.6128,-19.2331"/>
</g>
<!-- Node12&#45;&gt;Node4 -->
<g id="edge15" class="edge">
<title>Node12&#45;&gt;Node4</title>
<path fill="none" stroke="#191970" d="M858.3518,-120.7833C701.1082,-117.4836 316.8216,-106.4698 191.5,-76 145.5499,-64.828 96.036,-40.3414 66.9558,-24.539"/>
<polygon fill="#191970" stroke="#191970" points="68.3577,-21.315 57.9118,-19.5446 64.9737,-27.4427 68.3577,-21.315"/>
</g>
<!-- Node12&#45;&gt;Node8 -->
<g id="edge16" class="edge">
<title>Node12&#45;&gt;Node8</title>
<path fill="none" stroke="#191970" d="M888.6238,-112.4754C857.6879,-104.2197 813.0934,-91.2239 775.5,-76 757.4447,-68.6883 753.8591,-64.8384 736.5,-56 715.6026,-45.3601 691.966,-33.4145 674.0204,-24.3635"/>
<polygon fill="#191970" stroke="#191970" points="675.1948,-21.036 664.6898,-19.6597 672.0437,-27.2866 675.1948,-21.036"/>
</g>
<!-- Node12&#45;&gt;Node9 -->
<g id="edge17" class="edge">
<title>Node12&#45;&gt;Node9</title>
<path fill="none" stroke="#191970" d="M881.246,-112.4369C835.7027,-102.8127 765.4035,-87.957 716.6314,-77.6504"/>
<polygon fill="#191970" stroke="#191970" points="717.075,-74.1669 706.5674,-75.5237 715.6276,-81.0157 717.075,-74.1669"/>
</g>
<!-- Node12&#45;&gt;Node10 -->
<g id="edge38" class="edge">
<title>Node12&#45;&gt;Node10</title>
<path fill="none" stroke="#191970" d="M926.3618,-112.3488C926.7105,-97.9032 929.6101,-70.78 945.5,-56 951.3101,-50.5957 1039.2623,-33.2158 1101.6513,-21.4357"/>
<polygon fill="#191970" stroke="#191970" points="1102.6343,-24.8123 1111.8146,-19.5235 1101.3398,-17.933 1102.6343,-24.8123"/>
</g>
<!-- Node13 -->
<g id="node14" class="node">
<title>Node13</title>
<polygon fill="#ffffff" stroke="#bfbfbf" points="1234,-.5 1234,-19.5 1275,-19.5 1275,-.5 1234,-.5"/>
<text text-anchor="middle" x="1254.5" y="-7.5" font-family="Helvetica,sans-Serif" font-size="10.00" fill="#000000">string</text>
</g>
<!-- Node12&#45;&gt;Node13 -->
<g id="edge14" class="edge">
<title>Node12&#45;&gt;Node13</title>
<path fill="none" stroke="#191970" d="M994.7572,-118.153C1094.4978,-111.8251 1270.3635,-97.7145 1289.5,-76 1302.4512,-61.304 1287.9388,-40.9763 1273.8602,-26.7771"/>
<polygon fill="#191970" stroke="#191970" points="1275.9321,-23.9194 1266.2605,-19.5938 1271.1236,-29.0066 1275.9321,-23.9194"/>
</g>
<!-- Node14 -->
<g id="node15" class="node">
<title>Node14</title>
<g id="a_node15"><a xlink:href="_field_8_h.html" target="_top" xlink:title="amr&#45;wind/core/Field.H">
<polygon fill="#ffffff" stroke="#000000" points="785,-56.5 785,-75.5 898,-75.5 898,-56.5 785,-56.5"/>
<text text-anchor="middle" x="841.5" y="-63.5" font-family="Helvetica,sans-Serif" font-size="10.00" fill="#000000">amr&#45;wind/core/Field.H</text>
</a>
</g>
</g>
<!-- Node12&#45;&gt;Node14 -->
<g id="edge18" class="edge">
<title>Node12&#45;&gt;Node14</title>
<path fill="none" stroke="#191970" d="M911.6941,-112.2455C898.7744,-103.7337 879.8069,-91.2375 864.8448,-81.3801"/>
<polygon fill="#191970" stroke="#191970" points="866.4124,-78.2216 856.1362,-75.6427 862.5613,-84.067 866.4124,-78.2216"/>
</g>
<!-- Node18 -->
<g id="node19" class="node">
<title>Node18</title>
<g id="a_node19"><a xlink:href="_int_field_8_h.html" target="_top" xlink:title="amr&#45;wind/core/IntField.H">
<polygon fill="#ffffff" stroke="#000000" points="954.5,-56.5 954.5,-75.5 1078.5,-75.5 1078.5,-56.5 954.5,-56.5"/>
<text text-anchor="middle" x="1016.5" y="-63.5" font-family="Helvetica,sans-Serif" font-size="10.00" fill="#000000">amr&#45;wind/core/IntField.H</text>
</a>
</g>
</g>
<!-- Node12&#45;&gt;Node18 -->
<g id="edge27" class="edge">
<title>Node12&#45;&gt;Node18</title>
<path fill="none" stroke="#191970" d="M942.1768,-112.2455C955.9856,-103.6534 976.3193,-91.0014 992.2292,-81.1018"/>
<polygon fill="#191970" stroke="#191970" points="994.3613,-83.8974 1001.0028,-75.6427 990.6632,-77.954 994.3613,-83.8974"/>
</g>
<!-- Node19 -->
<g id="node20" class="node">
<title>Node19</title>
<polygon fill="#ffffff" stroke="#bfbfbf" points="1293,-.5 1293,-19.5 1400,-19.5 1400,-.5 1293,-.5"/>
<text text-anchor="middle" x="1346.5" y="-7.5" font-family="Helvetica,sans-Serif" font-size="10.00" fill="#000000">AMReX_iMultiFab.H</text>
</g>
<!-- Node12&#45;&gt;Node19 -->
<g id="edge39" class="edge">
<title>Node12&#45;&gt;Node19</title>
<path fill="none" stroke="#191970" d="M994.5071,-116.9996C1096.7494,-108.9991 1280.8868,-92.5331 1306.5,-76 1323.3292,-65.1369 1334.1439,-44.4531 1340.2295,-29.1235"/>
<polygon fill="#191970" stroke="#191970" points="1343.5814,-30.1468 1343.7029,-19.5527 1337.0013,-27.7588 1343.5814,-30.1468"/>
</g>
<!-- Node20 -->
<g id="node21" class="node">
<title>Node20</title>
<g id="a_node21"><a xlink:href="_scratch_field_8_h.html" target="_top" xlink:title="amr&#45;wind/core/ScratchField.H">
<polygon fill="#ffffff" stroke="#000000" points="1134.5,-56.5 1134.5,-75.5 1280.5,-75.5 1280.5,-56.5 1134.5,-56.5"/>
<text text-anchor="middle" x="1207.5" y="-63.5" font-family="Helvetica,sans-Serif" font-size="10.00" fill="#000000">amr&#45;wind/core/ScratchField.H</text>
</a>
</g>
</g>
<!-- Node12&#45;&gt;Node20 -->
<g id="edge31" class="edge">
<title>Node12&#45;&gt;Node20</title>
<path fill="none" stroke="#191970" d="M974.4863,-112.4369C1022.9814,-102.7724 1097.9473,-87.8326 1149.6879,-77.5213"/>
<polygon fill="#191970" stroke="#191970" points="1150.5885,-80.9107 1159.7116,-75.5237 1149.2203,-74.0457 1150.5885,-80.9107"/>
</g>
<!-- Node23 -->
<g id="node24" class="node">
<title>Node23</title>
<polygon fill="#ffffff" stroke="#bfbfbf" points="1374.5,-56.5 1374.5,-75.5 1480.5,-75.5 1480.5,-56.5 1374.5,-56.5"/>
<text text-anchor="middle" x="1427.5" y="-63.5" font-family="Helvetica,sans-Serif" font-size="10.00" fill="#000000">AMReX_AmrCore.H</text>
</g>
<!-- Node12&#45;&gt;Node23 -->
<g id="edge37" class="edge">
<title>Node12&#45;&gt;Node23</title>
<path fill="none" stroke="#191970" d="M994.634,-115.6833C1080.1886,-107.5434 1231.4123,-92.4669 1360.5,-76 1361.7796,-75.8368 1363.0726,-75.6692 1364.3755,-75.4979"/>
<polygon fill="#191970" stroke="#191970" points="1365.0605,-78.9371 1374.4986,-74.1234 1364.1186,-72.0007 1365.0605,-78.9371"/>
</g>
<!-- Node14&#45;&gt;Node3 -->
<g id="edge20" class="edge">
<title>Node14&#45;&gt;Node3</title>
<path fill="none" stroke="#191970" d="M784.7133,-60.3367C684.7351,-50.2913 482.7837,-29.6422 421.9667,-19.8301"/>
<polygon fill="#191970" stroke="#191970" points="422.2148,-16.3195 411.7571,-18.0186 420.9918,-23.2119 422.2148,-16.3195"/>
</g>
<!-- Node14&#45;&gt;Node4 -->
<g id="edge21" class="edge">
<title>Node14&#45;&gt;Node4</title>
<path fill="none" stroke="#191970" d="M784.862,-60.1967C769.2056,-58.704 752.2033,-57.1862 736.5,-56 453.9952,-34.6595 378.6985,-55.1719 93.4108,-19.9339"/>
<polygon fill="#191970" stroke="#191970" points="93.5294,-16.4216 83.173,-18.6566 92.6628,-23.3678 93.5294,-16.4216"/>
</g>
<!-- Node14&#45;&gt;Node8 -->
<g id="edge26" class="edge">
<title>Node14&#45;&gt;Node8</title>
<path fill="none" stroke="#191970" d="M807.8064,-56.3733C774.7913,-46.9404 724.3427,-32.5265 688.4614,-22.2747"/>
<polygon fill="#191970" stroke="#191970" points="689.3307,-18.8831 678.7539,-19.5011 687.4076,-25.6137 689.3307,-18.8831"/>
</g>
<!-- Node14&#45;&gt;Node10 -->
<g id="edge22" class="edge">
<title>Node14&#45;&gt;Node10</title>
<path fill="none" stroke="#191970" d="M896.4879,-56.4369C953.3709,-46.5442 1042.0363,-31.1241 1101.4071,-20.7988"/>
<polygon fill="#191970" stroke="#191970" points="1102.1528,-24.2217 1111.4052,-19.06 1100.9533,-17.3252 1102.1528,-24.2217"/>
</g>
<!-- Node14&#45;&gt;Node13 -->
<g id="edge19" class="edge">
<title>Node14&#45;&gt;Node13</title>
<path fill="none" stroke="#191970" d="M898.1165,-60.6204C984.9954,-52.1365 1148.205,-35.2391 1223.913,-19.6343"/>
<polygon fill="#191970" stroke="#191970" points="1224.9697,-22.9865 1233.9979,-17.442 1223.4826,-16.1462 1224.9697,-22.9865"/>
</g>
<!-- Node15 -->
<g id="node16" class="node">
<title>Node15</title>
<polygon fill="#ffffff" stroke="#bfbfbf" points="745,-.5 745,-19.5 844,-19.5 844,-.5 745,-.5"/>
<text text-anchor="middle" x="794.5" y="-7.5" font-family="Helvetica,sans-Serif" font-size="10.00" fill="#000000">AMReX_BCRec.H</text>
</g>
<!-- Node14&#45;&gt;Node15 -->
<g id="edge23" class="edge">
<title>Node14&#45;&gt;Node15</title>
<path fill="none" stroke="#191970" d="M833.3132,-56.2455C826.6411,-48.2958 817.0521,-36.8706 809.0747,-27.3656"/>
<polygon fill="#191970" stroke="#191970" points="811.7026,-25.0524 802.593,-19.6427 806.3408,-29.5525 811.7026,-25.0524"/>
</g>
<!-- Node16 -->
<g id="node17" class="node">
<title>Node16</title>
<polygon fill="#ffffff" stroke="#bfbfbf" points="862,-.5 862,-19.5 947,-19.5 947,-.5 862,-.5"/>
<text text-anchor="middle" x="904.5" y="-7.5" font-family="Helvetica,sans-Serif" font-size="10.00" fill="#000000">AMReX_Gpu.H</text>
</g>
<!-- Node14&#45;&gt;Node16 -->
<g id="edge24" class="edge">
<title>Node14&#45;&gt;Node16</title>
<path fill="none" stroke="#191970" d="M852.4738,-56.2455C861.6882,-48.0549 875.0532,-36.1749 885.9297,-26.5069"/>
<polygon fill="#191970" stroke="#191970" points="888.5032,-28.9023 893.652,-19.6427 883.8526,-23.6704 888.5032,-28.9023"/>
</g>
<!-- Node17 -->
<g id="node18" class="node">
<title>Node17</title>
<g id="a_node18"><a xlink:href="incflo__enums_8_h.html" target="_top" xlink:title="amr&#45;wind/incflo_enums.H">
<polygon fill="#ffffff" stroke="#000000" points="965.5,-.5 965.5,-19.5 1093.5,-19.5 1093.5,-.5 965.5,-.5"/>
<text text-anchor="middle" x="1029.5" y="-7.5" font-family="Helvetica,sans-Serif" font-size="10.00" fill="#000000">amr&#45;wind/incflo_enums.H</text>
</a>
</g>
</g>
<!-- Node14&#45;&gt;Node17 -->
<g id="edge25" class="edge">
<title>Node14&#45;&gt;Node17</title>
<path fill="none" stroke="#191970" d="M873.8184,-56.3733C905.3506,-46.9807 953.4621,-32.6496 987.8501,-22.4064"/>
<polygon fill="#191970" stroke="#191970" points="989.0187,-25.7103 997.6034,-19.5011 987.0203,-19.0016 989.0187,-25.7103"/>
</g>
<!-- Node18&#45;&gt;Node8 -->
<g id="edge29" class="edge">
<title>Node18&#45;&gt;Node8</title>
<path fill="none" stroke="#191970" d="M954.4029,-56.6269C889.4236,-46.8187 787.4716,-31.4297 718.6385,-21.0398"/>
<polygon fill="#191970" stroke="#191970" points="719.1419,-17.5762 708.7315,-19.5444 718.0971,-24.4978 719.1419,-17.5762"/>
</g>
<!-- Node18&#45;&gt;Node13 -->
<g id="edge28" class="edge">
<title>Node18&#45;&gt;Node13</title>
<path fill="none" stroke="#191970" d="M1066.4495,-56.4738C1106.5752,-48.4785 1164.5228,-36.1654 1223.9874,-19.9198"/>
<polygon fill="#191970" stroke="#191970" points="1225.2246,-23.2091 1233.9299,-17.1701 1223.3587,-16.4623 1225.2246,-23.2091"/>
</g>
<!-- Node18&#45;&gt;Node19 -->
<g id="edge30" class="edge">
<title>Node18&#45;&gt;Node19</title>
<path fill="none" stroke="#191970" d="M1072.8541,-56.4369C1131.1836,-46.5385 1222.1222,-31.1065 1282.9685,-20.7811"/>
<polygon fill="#191970" stroke="#191970" points="1283.5664,-24.2298 1292.8399,-19.106 1282.3952,-17.3284 1283.5664,-24.2298"/>
</g>
<!-- Node20&#45;&gt;Node8 -->
<g id="edge33" class="edge">
<title>Node20&#45;&gt;Node8</title>
<path fill="none" stroke="#191970" d="M1134.2928,-59.1744C1043.5635,-50.6455 883.9256,-35.4125 737.484,-20.1974"/>
<polygon fill="#191970" stroke="#191970" points="737.7202,-16.7032 727.4115,-19.1488 736.9952,-23.6656 737.7202,-16.7032"/>
</g>
<!-- Node20&#45;&gt;Node10 -->
<g id="edge34" class="edge">
<title>Node20&#45;&gt;Node10</title>
<path fill="none" stroke="#191970" d="M1199.8358,-56.2455C1193.6527,-48.3761 1184.7937,-37.101 1177.3711,-27.6542"/>
<polygon fill="#191970" stroke="#191970" points="1180.0068,-25.3435 1171.0764,-19.6427 1174.5025,-29.6683 1180.0068,-25.3435"/>
</g>
<!-- Node20&#45;&gt;Node13 -->
<g id="edge32" class="edge">
<title>Node20&#45;&gt;Node13</title>
<path fill="none" stroke="#191970" d="M1215.6868,-56.2455C1222.3589,-48.2958 1231.9479,-36.8706 1239.9253,-27.3656"/>
<polygon fill="#191970" stroke="#191970" points="1242.6592,-29.5525 1246.407,-19.6427 1237.2974,-25.0524 1242.6592,-29.5525"/>
</g>
<!-- Node21 -->
<g id="node22" class="node">
<title>Node21</title>
<polygon fill="#ffffff" stroke="#bfbfbf" points="1418,-.5 1418,-19.5 1513,-19.5 1513,-.5 1418,-.5"/>
<text text-anchor="middle" x="1465.5" y="-7.5" font-family="Helvetica,sans-Serif" font-size="10.00" fill="#000000">AMReX_Vector.H</text>
</g>
<!-- Node20&#45;&gt;Node21 -->
<g id="edge35" class="edge">
<title>Node20&#45;&gt;Node21</title>
<path fill="none" stroke="#191970" d="M1251.5586,-56.4369C1295.8989,-46.8127 1364.3411,-31.957 1411.8249,-21.6504"/>
<polygon fill="#191970" stroke="#191970" points="1412.5931,-25.0653 1421.6231,-19.5237 1411.1082,-18.2245 1412.5931,-25.0653"/>
</g>
<!-- Node22 -->
<g id="node23" class="node">
<title>Node22</title>
<polygon fill="#ffffff" stroke="#bfbfbf" points="1531.5,-.5 1531.5,-19.5 1659.5,-19.5 1659.5,-.5 1531.5,-.5"/>
<text text-anchor="middle" x="1595.5" y="-7.5" font-family="Helvetica,sans-Serif" font-size="10.00" fill="#000000">AMReX_PhysBCFunct.H</text>
</g>
<!-- Node20&#45;&gt;Node22 -->
<g id="edge36" class="edge">
<title>Node20&#45;&gt;Node22</title>
<path fill="none" stroke="#191970" d="M1273.7587,-56.4369C1342.4548,-46.522 1449.6199,-31.0549 1521.1613,-20.7293"/>
<polygon fill="#191970" stroke="#191970" points="1522.0518,-24.1371 1531.4492,-19.2444 1521.0518,-17.2089 1522.0518,-24.1371"/>
</g>
</g>
</svg>
        <g id="navigator" transform="translate(0 0)" fill="#404254">
                <rect fill="#f2f5e9" fill-opacity="0.5" stroke="#606060" stroke-width=".5" x="0" y="0" width="60" height="60"/>
                <use id="zoomplus" xlink:href="#zoomPlus" x="17" y="9" onmousedown="handleZoom(evt,'in')"/>
                <use id="zoomminus" xlink:href="#zoomMin" x="42" y="9" onmousedown="handleZoom(evt,'out')"/>
                <use id="reset" xlink:href="#resetDef" x="30" y="36" onmousedown="handleReset()"/>
                <g id="arrowUp" xlink:href="#dirArrow" transform="translate(30 24)" onmousedown="handlePan(0,-1)">
                  <use xlink:href="#rim" fill="#404040">
                        <set attributeName="fill" to="#808080" begin="arrowUp.mouseover" end="arrowUp.mouseout"/>
                  </use>
                  <path fill="none" stroke="white" stroke-width="1.5" d="M0,-3.0v7 M-2.5,-0.5L0,-3.0L2.5,-0.5"/>
                </g>
                <g id="arrowRight" xlink:href="#dirArrow" transform="rotate(90) translate(36 -43)" onmousedown="handlePan(1,0)">
                  <use xlink:href="#rim" fill="#404040">
                        <set attributeName="fill" to="#808080" begin="arrowRight.mouseover" end="arrowRight.mouseout"/>
                  </use>
                  <path fill="none" stroke="white" stroke-width="1.5" d="M0,-3.0v7 M-2.5,-0.5L0,-3.0L2.5,-0.5"/>
                </g>
                <g id="arrowDown" xlink:href="#dirArrow" transform="rotate(180) translate(-30 -48)" onmousedown="handlePan(0,1)">
                  <use xlink:href="#rim" fill="#404040">
                        <set attributeName="fill" to="#808080" begin="arrowDown.mouseover" end="arrowDown.mouseout"/>
                  </use>
                  <path fill="none" stroke="white" stroke-width="1.5" d="M0,-3.0v7 M-2.5,-0.5L0,-3.0L2.5,-0.5"/>
                </g>
                <g id="arrowLeft" xlink:href="#dirArrow" transform="rotate(270) translate(-36 17)" onmousedown="handlePan(-1,0)">
                  <use xlink:href="#rim" fill="#404040">
                        <set attributeName="fill" to="#808080" begin="arrowLeft.mouseover" end="arrowLeft.mouseout"/>
                  </use>
                  <path fill="none" stroke="white" stroke-width="1.5" d="M0,-3.0v7 M-2.5,-0.5L0,-3.0L2.5,-0.5"/>
                </g>
        </g>
        <svg viewBox="0 0 15 15" width="100%" height="30px" preserveAspectRatio="xMaxYMin meet">
         <g id="arrow_out" transform="scale(0.3 0.3)">
          <a xlink:href="_ksgs_s94_src_8_h__incl_org.svg" target="_base">
           <rect id="button" ry="5" rx="5" y="6" x="6" height="38" width="38"
                fill="#f2f5e9" fill-opacity="0.5" stroke="#606060" stroke-width="1.0"/>
           <path id="arrow"
             d="M 11.500037,31.436501 C 11.940474,20.09759 22.043105,11.32322 32.158766,21.979434 L 37.068811,17.246167 C 37.068811,17.246167 37.088388,32 37.088388,32 L 22.160133,31.978069 C 22.160133,31.978069 26.997745,27.140456 26.997745,27.140456 C 18.528582,18.264221 13.291696,25.230495 11.500037,31.436501 z"
             style="fill:#404040;"/>
          </a>
         </g>
        </svg>
</svg>
