<?xml version="1.0" encoding="UTF-8" standalone="no"?>
<!DOCTYPE svg PUBLIC "-//W3C//DTD SVG 1.1//EN"
 "http://www.w3.org/Graphics/SVG/1.1/DTD/svg11.dtd">
<!-- Generated by graphviz version 2.40.1 (20161225.0304)
 -->
<!-- Title: LaminarModel.cpp Pages: 1 -->
<svg width="2089pt" height="419pt"
 viewBox="0.00 0.00 2089.49 419.00" xmlns="http://www.w3.org/2000/svg" xmlns:xlink="http://www.w3.org/1999/xlink">
<g id="graph0" class="graph" transform="scale(1 1) rotate(0) translate(4 415)">
<title>LaminarModel.cpp</title>
<polygon fill="#ffffff" stroke="transparent" points="-4,4 -4,-415 2085.4877,-415 2085.4877,4 -4,4"/>
<!-- Node0 -->
<g id="node1" class="node">
<title>Node0</title>
<polygon fill="#bfbfbf" stroke="#000000" points="1054,-391.5 1054,-410.5 1150,-410.5 1150,-391.5 1054,-391.5"/>
<text text-anchor="middle" x="1102" y="-398.5" font-family="Helvetica,sans-Serif" font-size="10.00" fill="#000000">LaminarModel.cpp</text>
</g>
<!-- Node1 -->
<g id="node2" class="node">
<title>Node1</title>
<g id="a_node2"><a xlink:href="_laminar_model_8_h.html" target="_top" xlink:title="amr&#45;wind/turbulence\l/LaminarModel.H">
<polygon fill="#ffffff" stroke="#000000" points="1050,-324.5 1050,-354.5 1154,-354.5 1154,-324.5 1050,-324.5"/>
<text text-anchor="start" x="1058" y="-342.5" font-family="Helvetica,sans-Serif" font-size="10.00" fill="#000000">amr&#45;wind/turbulence</text>
<text text-anchor="middle" x="1102" y="-331.5" font-family="Helvetica,sans-Serif" font-size="10.00" fill="#000000">/LaminarModel.H</text>
</a>
</g>
</g>
<!-- Node0&#45;&gt;Node1 -->
<g id="edge1" class="edge">
<title>Node0&#45;&gt;Node1</title>
<path fill="none" stroke="#191970" d="M1102,-391.3906C1102,-384.2234 1102,-374.0862 1102,-364.671"/>
<polygon fill="#191970" stroke="#191970" points="1105.5001,-364.5446 1102,-354.5446 1098.5001,-364.5446 1105.5001,-364.5446"/>
</g>
<!-- Node36 -->
<g id="node37" class="node">
<title>Node36</title>
<g id="a_node37"><a xlink:href="_turb_model_defs_8_h.html" target="_top" xlink:title="amr&#45;wind/turbulence\l/TurbModelDefs.H">
<polygon fill="#ffffff" stroke="#000000" points="928,-324.5 928,-354.5 1032,-354.5 1032,-324.5 928,-324.5"/>
<text text-anchor="start" x="936" y="-342.5" font-family="Helvetica,sans-Serif" font-size="10.00" fill="#000000">amr&#45;wind/turbulence</text>
<text text-anchor="middle" x="980" y="-331.5" font-family="Helvetica,sans-Serif" font-size="10.00" fill="#000000">/TurbModelDefs.H</text>
</a>
</g>
</g>
<!-- Node0&#45;&gt;Node36 -->
<g id="edge63" class="edge">
<title>Node0&#45;&gt;Node36</title>
<path fill="none" stroke="#191970" d="M1082.9375,-391.3906C1065.8912,-382.7976 1040.3764,-369.9356 1019.0144,-359.1671"/>
<polygon fill="#191970" stroke="#191970" points="1020.3497,-355.9207 1009.8446,-354.5446 1017.1986,-362.1714 1020.3497,-355.9207"/>
</g>
<!-- Node40 -->
<g id="node41" class="node">
<title>Node40</title>
<g id="a_node41"><a xlink:href="field__ops_8_h.html" target="_top" xlink:title="amr&#45;wind/core/field\l_ops.H">
<polygon fill="#ffffff" stroke="#000000" points="1452.5,-123.5 1452.5,-153.5 1551.5,-153.5 1551.5,-123.5 1452.5,-123.5"/>
<text text-anchor="start" x="1460.5" y="-141.5" font-family="Helvetica,sans-Serif" font-size="10.00" fill="#000000">amr&#45;wind/core/field</text>
<text text-anchor="middle" x="1502" y="-130.5" font-family="Helvetica,sans-Serif" font-size="10.00" fill="#000000">_ops.H</text>
</a>
</g>
</g>
<!-- Node0&#45;&gt;Node40 -->
<g id="edge70" class="edge">
<title>Node0&#45;&gt;Node40</title>
<path fill="none" stroke="#191970" d="M1116.7106,-391.3462C1174.7298,-353.2711 1388.4993,-212.9848 1470.0778,-159.449"/>
<polygon fill="#191970" stroke="#191970" points="1472.4641,-162.0694 1478.9043,-153.6566 1468.6235,-156.217 1472.4641,-162.0694"/>
</g>
<!-- Node2 -->
<g id="node3" class="node">
<title>Node2</title>
<g id="a_node3"><a xlink:href="_turb_model_8_h.html" target="_top" xlink:title="amr&#45;wind/turbulence\l/TurbModel.H">
<polygon fill="#ffffff" stroke="#000000" points="918,-257.5 918,-287.5 1022,-287.5 1022,-257.5 918,-257.5"/>
<text text-anchor="start" x="926" y="-275.5" font-family="Helvetica,sans-Serif" font-size="10.00" fill="#000000">amr&#45;wind/turbulence</text>
<text text-anchor="middle" x="970" y="-264.5" font-family="Helvetica,sans-Serif" font-size="10.00" fill="#000000">/TurbModel.H</text>
</a>
</g>
</g>
<!-- Node1&#45;&gt;Node2 -->
<g id="edge2" class="edge">
<title>Node1&#45;&gt;Node2</title>
<path fill="none" stroke="#191970" d="M1072.3766,-324.4639C1053.6564,-314.9619 1029.2579,-302.5779 1008.9754,-292.283"/>
<polygon fill="#191970" stroke="#191970" points="1010.4825,-289.1229 999.9812,-287.7177 1007.3142,-295.3649 1010.4825,-289.1229"/>
</g>
<!-- Node3 -->
<g id="node4" class="node">
<title>Node3</title>
<g id="a_node4"><a xlink:href="_turbulence_model_8_h.html" target="_top" xlink:title="amr&#45;wind/turbulence\l/TurbulenceModel.H">
<polygon fill="#ffffff" stroke="#000000" points="723,-123.5 723,-153.5 827,-153.5 827,-123.5 723,-123.5"/>
<text text-anchor="start" x="731" y="-141.5" font-family="Helvetica,sans-Serif" font-size="10.00" fill="#000000">amr&#45;wind/turbulence</text>
<text text-anchor="middle" x="775" y="-130.5" font-family="Helvetica,sans-Serif" font-size="10.00" fill="#000000">/TurbulenceModel.H</text>
</a>
</g>
</g>
<!-- Node2&#45;&gt;Node3 -->
<g id="edge3" class="edge">
<title>Node2&#45;&gt;Node3</title>
<path fill="none" stroke="#191970" d="M948.0101,-257.389C913.0995,-233.3991 844.9101,-186.5408 805.3639,-159.3655"/>
<polygon fill="#191970" stroke="#191970" points="807.1335,-156.3348 796.9096,-153.5558 803.169,-162.1039 807.1335,-156.3348"/>
</g>
<!-- Node11 -->
<g id="node12" class="node">
<title>Node11</title>
<g id="a_node12"><a xlink:href="_c_f_d_sim_8_h.html" target="_top" xlink:title="amr&#45;wind/CFDSim.H">
<polygon fill="#ffffff" stroke="#000000" points="916,-196 916,-215 1024,-215 1024,-196 916,-196"/>
<text text-anchor="middle" x="970" y="-203" font-family="Helvetica,sans-Serif" font-size="10.00" fill="#000000">amr&#45;wind/CFDSim.H</text>
</a>
</g>
</g>
<!-- Node2&#45;&gt;Node11 -->
<g id="edge12" class="edge">
<title>Node2&#45;&gt;Node11</title>
<path fill="none" stroke="#191970" d="M970,-257.2967C970,-247.7699 970,-235.3954 970,-225.1306"/>
<polygon fill="#191970" stroke="#191970" points="973.5001,-225.0549 970,-215.055 966.5001,-225.055 973.5001,-225.0549"/>
</g>
<!-- Node4 -->
<g id="node5" class="node">
<title>Node4</title>
<polygon fill="#ffffff" stroke="#bfbfbf" points="675.5,-.5 675.5,-19.5 758.5,-19.5 758.5,-.5 675.5,-.5"/>
<text text-anchor="middle" x="717" y="-7.5" font-family="Helvetica,sans-Serif" font-size="10.00" fill="#000000">unordered_map</text>
</g>
<!-- Node3&#45;&gt;Node4 -->
<g id="edge4" class="edge">
<title>Node3&#45;&gt;Node4</title>
<path fill="none" stroke="#191970" d="M751.0934,-123.4361C739.1275,-114.4594 725.7771,-101.9106 719,-87 710.7277,-68.7998 711.4351,-45.5969 713.4554,-29.4413"/>
<polygon fill="#191970" stroke="#191970" points="716.919,-29.9446 714.9696,-19.5307 709.9993,-28.8873 716.919,-29.9446"/>
</g>
<!-- Node5 -->
<g id="node6" class="node">
<title>Node5</title>
<g id="a_node6"><a xlink:href="_factory_8_h.html" target="_top" xlink:title="amr&#45;wind/core/Factory.H">
<polygon fill="#ffffff" stroke="#000000" points="541.5,-62 541.5,-81 666.5,-81 666.5,-62 541.5,-62"/>
<text text-anchor="middle" x="604" y="-69" font-family="Helvetica,sans-Serif" font-size="10.00" fill="#000000">amr&#45;wind/core/Factory.H</text>
</a>
</g>
</g>
<!-- Node3&#45;&gt;Node5 -->
<g id="edge5" class="edge">
<title>Node3&#45;&gt;Node5</title>
<path fill="none" stroke="#191970" d="M736.6243,-123.4639C707.028,-111.8677 666.476,-95.9789 638.0304,-84.8335"/>
<polygon fill="#191970" stroke="#191970" points="639.0992,-81.4933 628.5115,-81.1039 636.5455,-88.0109 639.0992,-81.4933"/>
</g>
<!-- Node10 -->
<g id="node11" class="node">
<title>Node10</title>
<g id="a_node11"><a xlink:href="_field_desc_types_8_h.html" target="_top" xlink:title="amr&#45;wind/core/FieldDescTypes.H">
<polygon fill="#ffffff" stroke="#000000" points="1106.5,-.5 1106.5,-19.5 1269.5,-19.5 1269.5,-.5 1106.5,-.5"/>
<text text-anchor="middle" x="1188" y="-7.5" font-family="Helvetica,sans-Serif" font-size="10.00" fill="#000000">amr&#45;wind/core/FieldDescTypes.H</text>
</a>
</g>
</g>
<!-- Node3&#45;&gt;Node10 -->
<g id="edge11" class="edge">
<title>Node3&#45;&gt;Node10</title>
<path fill="none" stroke="#191970" d="M810.1851,-123.4126C834.1048,-113.1526 866.4655,-99.2659 895,-87 927.0081,-73.241 933.7773,-66.4918 967,-56 1015.712,-40.6166 1072.1134,-28.9731 1115.7451,-21.2492"/>
<polygon fill="#191970" stroke="#191970" points="1116.4479,-24.6796 1125.6991,-19.5157 1115.2468,-17.7834 1116.4479,-24.6796"/>
</g>
<!-- Node5&#45;&gt;Node4 -->
<g id="edge7" class="edge">
<title>Node5&#45;&gt;Node4</title>
<path fill="none" stroke="#191970" d="M621.6563,-61.8906C640.1486,-51.8262 669.401,-35.9057 690.6308,-24.3514"/>
<polygon fill="#191970" stroke="#191970" points="692.3575,-27.3965 699.4677,-19.5419 689.0112,-21.2481 692.3575,-27.3965"/>
</g>
<!-- Node6 -->
<g id="node7" class="node">
<title>Node6</title>
<polygon fill="#ffffff" stroke="#bfbfbf" points="890,-.5 890,-19.5 942,-19.5 942,-.5 890,-.5"/>
<text text-anchor="middle" x="916" y="-7.5" font-family="Helvetica,sans-Serif" font-size="10.00" fill="#000000">memory</text>
</g>
<!-- Node5&#45;&gt;Node6 -->
<g id="edge6" class="edge">
<title>Node5&#45;&gt;Node6</title>
<path fill="none" stroke="#191970" d="M663.2616,-61.9674C719.3613,-52.584 805.804,-37.1934 880,-20 880.0987,-19.9771 880.1976,-19.9541 880.2966,-19.9311"/>
<polygon fill="#191970" stroke="#191970" points="880.8644,-23.3967 889.7212,-17.5823 879.1715,-16.6045 880.8644,-23.3967"/>
</g>
<!-- Node7 -->
<g id="node8" class="node">
<title>Node7</title>
<polygon fill="#ffffff" stroke="#bfbfbf" points="417,-.5 417,-19.5 471,-19.5 471,-.5 417,-.5"/>
<text text-anchor="middle" x="444" y="-7.5" font-family="Helvetica,sans-Serif" font-size="10.00" fill="#000000">iostream</text>
</g>
<!-- Node5&#45;&gt;Node7 -->
<g id="edge8" class="edge">
<title>Node5&#45;&gt;Node7</title>
<path fill="none" stroke="#191970" d="M579,-61.8906C551.9942,-51.5103 508.7815,-34.9004 478.5406,-23.2766"/>
<polygon fill="#191970" stroke="#191970" points="479.4144,-19.8628 468.8244,-19.5419 476.9029,-26.3968 479.4144,-19.8628"/>
</g>
<!-- Node8 -->
<g id="node9" class="node">
<title>Node8</title>
<polygon fill="#ffffff" stroke="#bfbfbf" points="489.5,-.5 489.5,-19.5 576.5,-19.5 576.5,-.5 489.5,-.5"/>
<text text-anchor="middle" x="533" y="-7.5" font-family="Helvetica,sans-Serif" font-size="10.00" fill="#000000">AMReX_Print.H</text>
</g>
<!-- Node5&#45;&gt;Node8 -->
<g id="edge9" class="edge">
<title>Node5&#45;&gt;Node8</title>
<path fill="none" stroke="#191970" d="M592.9063,-61.8906C582.0285,-52.4683 565.2252,-37.9134 552.18,-26.6137"/>
<polygon fill="#191970" stroke="#191970" points="554.1004,-23.6466 544.2502,-19.7449 549.5173,-28.9377 554.1004,-23.6466"/>
</g>
<!-- Node9 -->
<g id="node10" class="node">
<title>Node9</title>
<polygon fill="#ffffff" stroke="#bfbfbf" points="595,-.5 595,-19.5 657,-19.5 657,-.5 595,-.5"/>
<text text-anchor="middle" x="626" y="-7.5" font-family="Helvetica,sans-Serif" font-size="10.00" fill="#000000">AMReX.H</text>
</g>
<!-- Node5&#45;&gt;Node9 -->
<g id="edge10" class="edge">
<title>Node5&#45;&gt;Node9</title>
<path fill="none" stroke="#191970" d="M607.4375,-61.8906C610.5513,-53.1862 615.232,-40.1015 619.114,-29.2494"/>
<polygon fill="#191970" stroke="#191970" points="622.4412,-30.3394 622.514,-19.7449 615.8503,-27.9817 622.4412,-30.3394"/>
</g>
<!-- Node12 -->
<g id="node13" class="node">
<title>Node12</title>
<polygon fill="#ffffff" stroke="#bfbfbf" points="1147,-62 1147,-81 1253,-81 1253,-62 1147,-62"/>
<text text-anchor="middle" x="1200" y="-69" font-family="Helvetica,sans-Serif" font-size="10.00" fill="#000000">AMReX_AmrCore.H</text>
</g>
<!-- Node11&#45;&gt;Node12 -->
<g id="edge13" class="edge">
<title>Node11&#45;&gt;Node12</title>
<path fill="none" stroke="#191970" d="M1005.5737,-195.9439C1051.8006,-183.3299 1127.9453,-161.8082 1139,-154 1162.4328,-137.4489 1180.5248,-109.0703 1190.7215,-90.2967"/>
<polygon fill="#191970" stroke="#191970" points="1193.9283,-91.7163 1195.4394,-81.2297 1187.7186,-88.4851 1193.9283,-91.7163"/>
</g>
<!-- Node13 -->
<g id="node14" class="node">
<title>Node13</title>
<g id="a_node14"><a xlink:href="_sim_time_8_h.html" target="_top" xlink:title="amr&#45;wind/core/SimTime.H">
<polygon fill="#ffffff" stroke="#000000" points="173.5,-129 173.5,-148 304.5,-148 304.5,-129 173.5,-129"/>
<text text-anchor="middle" x="239" y="-136" font-family="Helvetica,sans-Serif" font-size="10.00" fill="#000000">amr&#45;wind/core/SimTime.H</text>
</a>
</g>
</g>
<!-- Node11&#45;&gt;Node13 -->
<g id="edge14" class="edge">
<title>Node11&#45;&gt;Node13</title>
<path fill="none" stroke="#191970" d="M915.951,-200.5461C787.4112,-188.7648 463.1845,-159.0477 315.0055,-145.4663"/>
<polygon fill="#191970" stroke="#191970" points="314.9237,-141.9442 304.646,-144.5168 314.2848,-148.915 314.9237,-141.9442"/>
</g>
<!-- Node17 -->
<g id="node18" class="node">
<title>Node17</title>
<g id="a_node18"><a xlink:href="_field_repo_8_h.html" target="_top" xlink:title="amr&#45;wind/core/FieldRepo.H">
<polygon fill="#ffffff" stroke="#000000" points="1298,-129 1298,-148 1434,-148 1434,-129 1298,-129"/>
<text text-anchor="middle" x="1366" y="-136" font-family="Helvetica,sans-Serif" font-size="10.00" fill="#000000">amr&#45;wind/core/FieldRepo.H</text>
</a>
</g>
</g>
<!-- Node11&#45;&gt;Node17 -->
<g id="edge18" class="edge">
<title>Node11&#45;&gt;Node17</title>
<path fill="none" stroke="#191970" d="M1006.523,-195.9383C1015.171,-193.8343 1024.3849,-191.7225 1033,-190 1119.6194,-172.6811 1219.9096,-157.8756 1287.6079,-148.6439"/>
<polygon fill="#191970" stroke="#191970" points="1288.3305,-152.0781 1297.7698,-147.2667 1287.3903,-145.1415 1288.3305,-152.0781"/>
</g>
<!-- Node29 -->
<g id="node30" class="node">
<title>Node29</title>
<g id="a_node30"><a xlink:href="_p_d_e_base_8_h.html" target="_top" xlink:title="amr&#45;wind/equation_systems\l/PDEBase.H">
<polygon fill="#ffffff" stroke="#000000" points="845.5,-123.5 845.5,-153.5 984.5,-153.5 984.5,-123.5 845.5,-123.5"/>
<text text-anchor="start" x="853.5" y="-141.5" font-family="Helvetica,sans-Serif" font-size="10.00" fill="#000000">amr&#45;wind/equation_systems</text>
<text text-anchor="middle" x="915" y="-130.5" font-family="Helvetica,sans-Serif" font-size="10.00" fill="#000000">/PDEBase.H</text>
</a>
</g>
</g>
<!-- Node11&#45;&gt;Node29 -->
<g id="edge46" class="edge">
<title>Node11&#45;&gt;Node29</title>
<path fill="none" stroke="#191970" d="M962.1198,-195.9005C954.7349,-186.9043 943.4111,-173.1099 933.7153,-161.2986"/>
<polygon fill="#191970" stroke="#191970" points="936.3815,-159.0303 927.3313,-153.5218 930.971,-163.4718 936.3815,-159.0303"/>
</g>
<!-- Node34 -->
<g id="node35" class="node">
<title>Node34</title>
<g id="a_node35"><a xlink:href="_physics_8_h.html" target="_top" xlink:title="amr&#45;wind/core/Physics.H">
<polygon fill="#ffffff" stroke="#000000" points="1002.5,-129 1002.5,-148 1129.5,-148 1129.5,-129 1002.5,-129"/>
<text text-anchor="middle" x="1066" y="-136" font-family="Helvetica,sans-Serif" font-size="10.00" fill="#000000">amr&#45;wind/core/Physics.H</text>
</a>
</g>
</g>
<!-- Node11&#45;&gt;Node34 -->
<g id="edge58" class="edge">
<title>Node11&#45;&gt;Node34</title>
<path fill="none" stroke="#191970" d="M983.7545,-195.9005C999.4377,-184.9549 1025.2983,-166.9064 1043.8358,-153.9688"/>
<polygon fill="#191970" stroke="#191970" points="1046.0738,-156.675 1052.2711,-148.0817 1042.0676,-150.9347 1046.0738,-156.675"/>
</g>
<!-- Node14 -->
<g id="node15" class="node">
<title>Node14</title>
<polygon fill="#ffffff" stroke="#bfbfbf" points="128.5,-62 128.5,-81 221.5,-81 221.5,-62 128.5,-62"/>
<text text-anchor="middle" x="175" y="-69" font-family="Helvetica,sans-Serif" font-size="10.00" fill="#000000">AMReX_REAL.H</text>
</g>
<!-- Node13&#45;&gt;Node14 -->
<g id="edge15" class="edge">
<title>Node13&#45;&gt;Node14</title>
<path fill="none" stroke="#191970" d="M229.8304,-128.9005C219.7551,-118.353 203.3793,-101.2096 191.1431,-88.3998"/>
<polygon fill="#191970" stroke="#191970" points="193.5909,-85.8952 184.1526,-81.0817 188.5291,-90.7304 193.5909,-85.8952"/>
</g>
<!-- Node15 -->
<g id="node16" class="node">
<title>Node15</title>
<polygon fill="#ffffff" stroke="#bfbfbf" points="240,-62 240,-81 366,-81 366,-62 240,-62"/>
<text text-anchor="middle" x="303" y="-69" font-family="Helvetica,sans-Serif" font-size="10.00" fill="#000000">AMReX_GpuQualifiers.H</text>
</g>
<!-- Node13&#45;&gt;Node15 -->
<g id="edge16" class="edge">
<title>Node13&#45;&gt;Node15</title>
<path fill="none" stroke="#191970" d="M248.1696,-128.9005C258.2449,-118.353 274.6207,-101.2096 286.8569,-88.3998"/>
<polygon fill="#191970" stroke="#191970" points="289.4709,-90.7304 293.8474,-81.0817 284.4091,-85.8952 289.4709,-90.7304"/>
</g>
<!-- Node16 -->
<g id="node17" class="node">
<title>Node16</title>
<polygon fill="#ffffff" stroke="#bfbfbf" points="0,-62 0,-81 110,-81 110,-62 0,-62"/>
<text text-anchor="middle" x="55" y="-69" font-family="Helvetica,sans-Serif" font-size="10.00" fill="#000000">AMReX_Extension.H</text>
</g>
<!-- Node13&#45;&gt;Node16 -->
<g id="edge17" class="edge">
<title>Node13&#45;&gt;Node16</title>
<path fill="none" stroke="#191970" d="M212.6373,-128.9005C180.6649,-117.2584 126.6241,-97.5805 90.8775,-84.5641"/>
<polygon fill="#191970" stroke="#191970" points="91.9078,-81.2145 81.3138,-81.0817 89.5127,-87.792 91.9078,-81.2145"/>
</g>
<!-- Node17&#45;&gt;Node4 -->
<g id="edge20" class="edge">
<title>Node17&#45;&gt;Node4</title>
<path fill="none" stroke="#191970" d="M1297.9181,-133.6935C1140.3425,-122.4495 763.0595,-94.7945 752,-87 733.1143,-73.6898 724.2221,-47.6534 720.1733,-29.5626"/>
<polygon fill="#191970" stroke="#191970" points="723.5647,-28.6651 718.2321,-19.5101 716.6917,-29.9923 723.5647,-28.6651"/>
</g>
<!-- Node17&#45;&gt;Node10 -->
<g id="edge21" class="edge">
<title>Node17&#45;&gt;Node10</title>
<path fill="none" stroke="#191970" d="M1353.5345,-128.6329C1340.4463,-118.2708 1319.2699,-101.4988 1301,-87 1283.6558,-73.2359 1280.0993,-68.7549 1262,-56 1246.2779,-44.9204 1227.9187,-33.4992 1213.4203,-24.8089"/>
<polygon fill="#191970" stroke="#191970" points="1214.9024,-21.6185 1204.5168,-19.5235 1211.3292,-27.6378 1214.9024,-21.6185"/>
</g>
<!-- Node17&#45;&gt;Node12 -->
<g id="edge43" class="edge">
<title>Node17&#45;&gt;Node12</title>
<path fill="none" stroke="#191970" d="M1342.2162,-128.9005C1313.6181,-117.3579 1265.4494,-97.9163 1233.1983,-84.8993"/>
<polygon fill="#191970" stroke="#191970" points="1234.3228,-81.5789 1223.7396,-81.0817 1231.7028,-88.0701 1234.3228,-81.5789"/>
</g>
<!-- Node18 -->
<g id="node19" class="node">
<title>Node18</title>
<polygon fill="#ffffff" stroke="#bfbfbf" points="1767.5,-.5 1767.5,-19.5 1808.5,-19.5 1808.5,-.5 1767.5,-.5"/>
<text text-anchor="middle" x="1788" y="-7.5" font-family="Helvetica,sans-Serif" font-size="10.00" fill="#000000">string</text>
</g>
<!-- Node17&#45;&gt;Node18 -->
<g id="edge19" class="edge">
<title>Node17&#45;&gt;Node18</title>
<path fill="none" stroke="#191970" d="M1408.7493,-128.9874C1420.1548,-126.7288 1432.5044,-124.533 1444,-123 1501.5177,-115.3296 1925.4082,-129.4219 1965,-87 2010.1736,-38.5973 1880.1976,-19.0429 1818.5126,-12.6382"/>
<polygon fill="#191970" stroke="#191970" points="1818.8348,-9.1531 1808.5398,-11.6556 1818.1484,-16.1193 1818.8348,-9.1531"/>
</g>
<!-- Node19 -->
<g id="node20" class="node">
<title>Node19</title>
<g id="a_node20"><a xlink:href="_field_utils_8_h.html" target="_top" xlink:title="amr&#45;wind/core/FieldUtils.H">
<polygon fill="#ffffff" stroke="#000000" points="1440.5,-62 1440.5,-81 1573.5,-81 1573.5,-62 1440.5,-62"/>
<text text-anchor="middle" x="1507" y="-69" font-family="Helvetica,sans-Serif" font-size="10.00" fill="#000000">amr&#45;wind/core/FieldUtils.H</text>
</a>
</g>
</g>
<!-- Node17&#45;&gt;Node19 -->
<g id="edge22" class="edge">
<title>Node17&#45;&gt;Node19</title>
<path fill="none" stroke="#191970" d="M1386.2019,-128.9005C1410.179,-117.5072 1450.3521,-98.4178 1477.7321,-85.4075"/>
<polygon fill="#191970" stroke="#191970" points="1479.3056,-88.5348 1486.8356,-81.0817 1476.3013,-82.2123 1479.3056,-88.5348"/>
</g>
<!-- Node20 -->
<g id="node21" class="node">
<title>Node20</title>
<polygon fill="#ffffff" stroke="#bfbfbf" points="1900,-.5 1900,-19.5 2004,-19.5 2004,-.5 1900,-.5"/>
<text text-anchor="middle" x="1952" y="-7.5" font-family="Helvetica,sans-Serif" font-size="10.00" fill="#000000">AMReX_MultiFab.H</text>
</g>
<!-- Node17&#45;&gt;Node20 -->
<g id="edge44" class="edge">
<title>Node17&#45;&gt;Node20</title>
<path fill="none" stroke="#191970" d="M1408.7409,-128.9232C1420.1464,-126.6651 1432.4981,-124.4856 1444,-123 1509.3564,-114.5585 1990.8385,-134.9912 2036,-87 2045.4421,-76.9663 2043.0232,-67.8534 2036,-56 2027.1564,-41.0742 2011.5668,-30.6736 1996.1998,-23.589"/>
<polygon fill="#191970" stroke="#191970" points="1997.2971,-20.2534 1986.7227,-19.5956 1994.5789,-26.7041 1997.2971,-20.2534"/>
</g>
<!-- Node22 -->
<g id="node23" class="node">
<title>Node22</title>
<g id="a_node23"><a xlink:href="_field_8_h.html" target="_top" xlink:title="amr&#45;wind/core/Field.H">
<polygon fill="#ffffff" stroke="#000000" points="1309.5,-62 1309.5,-81 1422.5,-81 1422.5,-62 1309.5,-62"/>
<text text-anchor="middle" x="1366" y="-69" font-family="Helvetica,sans-Serif" font-size="10.00" fill="#000000">amr&#45;wind/core/Field.H</text>
</a>
</g>
</g>
<!-- Node17&#45;&gt;Node22 -->
<g id="edge26" class="edge">
<title>Node17&#45;&gt;Node22</title>
<path fill="none" stroke="#191970" d="M1366,-128.9005C1366,-119.149 1366,-103.7597 1366,-91.3695"/>
<polygon fill="#191970" stroke="#191970" points="1369.5001,-91.0816 1366,-81.0817 1362.5001,-91.0817 1369.5001,-91.0816"/>
</g>
<!-- Node26 -->
<g id="node27" class="node">
<title>Node26</title>
<g id="a_node27"><a xlink:href="_int_field_8_h.html" target="_top" xlink:title="amr&#45;wind/core/IntField.H">
<polygon fill="#ffffff" stroke="#000000" points="1630,-62 1630,-81 1754,-81 1754,-62 1630,-62"/>
<text text-anchor="middle" x="1692" y="-69" font-family="Helvetica,sans-Serif" font-size="10.00" fill="#000000">amr&#45;wind/core/IntField.H</text>
</a>
</g>
</g>
<!-- Node17&#45;&gt;Node26 -->
<g id="edge35" class="edge">
<title>Node17&#45;&gt;Node26</title>
<path fill="none" stroke="#191970" d="M1412.3616,-128.9717C1471.1798,-116.8833 1572.5493,-96.0497 1635.7341,-83.0638"/>
<polygon fill="#191970" stroke="#191970" points="1636.444,-86.4912 1645.5347,-81.0496 1635.0348,-79.6345 1636.444,-86.4912"/>
</g>
<!-- Node27 -->
<g id="node28" class="node">
<title>Node27</title>
<polygon fill="#ffffff" stroke="#bfbfbf" points="1642.5,-.5 1642.5,-19.5 1749.5,-19.5 1749.5,-.5 1642.5,-.5"/>
<text text-anchor="middle" x="1696" y="-7.5" font-family="Helvetica,sans-Serif" font-size="10.00" fill="#000000">AMReX_iMultiFab.H</text>
</g>
<!-- Node17&#45;&gt;Node27 -->
<g id="edge45" class="edge">
<title>Node17&#45;&gt;Node27</title>
<path fill="none" stroke="#191970" d="M1410.8516,-128.981C1469.783,-116.301 1567.6372,-94.5858 1583,-87 1602.5433,-77.35 1603.2258,-68.615 1621,-56 1636.7359,-44.8317 1655.2048,-33.4842 1669.8776,-24.8541"/>
<polygon fill="#191970" stroke="#191970" points="1672.0196,-27.6573 1678.9046,-19.6044 1668.5006,-21.6061 1672.0196,-27.6573"/>
</g>
<!-- Node28 -->
<g id="node29" class="node">
<title>Node28</title>
<g id="a_node29"><a xlink:href="_scratch_field_8_h.html" target="_top" xlink:title="amr&#45;wind/core/ScratchField.H">
<polygon fill="#ffffff" stroke="#000000" points="1810,-62 1810,-81 1956,-81 1956,-62 1810,-62"/>
<text text-anchor="middle" x="1883" y="-69" font-family="Helvetica,sans-Serif" font-size="10.00" fill="#000000">amr&#45;wind/core/ScratchField.H</text>
</a>
</g>
</g>
<!-- Node17&#45;&gt;Node28 -->
<g id="edge39" class="edge">
<title>Node17&#45;&gt;Node28</title>
<path fill="none" stroke="#191970" d="M1410.4211,-128.9206C1421.3641,-126.7688 1433.0773,-124.6401 1444,-123 1599.5171,-99.6485 1640.2588,-108.8067 1796,-87 1804.721,-85.7789 1813.9049,-84.3262 1822.9057,-82.807"/>
<polygon fill="#191970" stroke="#191970" points="1823.6966,-86.2224 1832.9556,-81.0725 1822.506,-79.3244 1823.6966,-86.2224"/>
</g>
<!-- Node19&#45;&gt;Node10 -->
<g id="edge23" class="edge">
<title>Node19&#45;&gt;Node10</title>
<path fill="none" stroke="#191970" d="M1461.4149,-61.9464C1451.712,-59.9501 1441.522,-57.8814 1432,-56 1370.0822,-43.7663 1299.177,-30.4796 1249.8178,-21.3459"/>
<polygon fill="#191970" stroke="#191970" points="1250.4026,-17.8948 1239.933,-19.519 1249.1304,-24.7783 1250.4026,-17.8948"/>
</g>
<!-- Node19&#45;&gt;Node20 -->
<g id="edge24" class="edge">
<title>Node19&#45;&gt;Node20</title>
<path fill="none" stroke="#191970" d="M1573.621,-62.2928C1659.1578,-50.4715 1806.4614,-30.1138 1889.8027,-18.5958"/>
<polygon fill="#191970" stroke="#191970" points="1890.4614,-22.0381 1899.8881,-17.202 1889.503,-15.104 1890.4614,-22.0381"/>
</g>
<!-- Node21 -->
<g id="node22" class="node">
<title>Node21</title>
<polygon fill="#ffffff" stroke="#bfbfbf" points="1508,-.5 1508,-19.5 1624,-19.5 1624,-.5 1508,-.5"/>
<text text-anchor="middle" x="1566" y="-7.5" font-family="Helvetica,sans-Serif" font-size="10.00" fill="#000000">AMReX_Interpolater.H</text>
</g>
<!-- Node19&#45;&gt;Node21 -->
<g id="edge25" class="edge">
<title>Node19&#45;&gt;Node21</title>
<path fill="none" stroke="#191970" d="M1516.2188,-61.8906C1525.0858,-52.6478 1538.6912,-38.466 1549.4389,-27.2628"/>
<polygon fill="#191970" stroke="#191970" points="1552.2541,-29.3841 1556.6513,-19.7449 1547.2027,-24.5381 1552.2541,-29.3841"/>
</g>
<!-- Node22&#45;&gt;Node4 -->
<g id="edge29" class="edge">
<title>Node22&#45;&gt;Node4</title>
<path fill="none" stroke="#191970" d="M1309.4263,-62.2774C1294.0689,-59.9901 1277.4225,-57.7076 1262,-56 1046.0774,-32.0923 987.3424,-49.1534 768.8642,-20.1117"/>
<polygon fill="#191970" stroke="#191970" points="769.0539,-16.6058 758.6762,-18.7397 768.1196,-23.5431 769.0539,-16.6058"/>
</g>
<!-- Node22&#45;&gt;Node6 -->
<g id="edge28" class="edge">
<title>Node22&#45;&gt;Node6</title>
<path fill="none" stroke="#191970" d="M1309.3729,-62.717C1294.0156,-60.4288 1277.3826,-58.0361 1262,-56 1127.2909,-38.1698 1089.2313,-46.7751 952.2938,-19.9906"/>
<polygon fill="#191970" stroke="#191970" points="952.7507,-16.5131 942.2607,-18.0001 951.3884,-23.3793 952.7507,-16.5131"/>
</g>
<!-- Node22&#45;&gt;Node10 -->
<g id="edge34" class="edge">
<title>Node22&#45;&gt;Node10</title>
<path fill="none" stroke="#191970" d="M1338.1875,-61.8906C1307.7517,-51.3749 1258.8123,-34.466 1225.1174,-22.8243"/>
<polygon fill="#191970" stroke="#191970" points="1226.212,-19.4995 1215.6172,-19.5419 1223.926,-26.1157 1226.212,-19.4995"/>
</g>
<!-- Node22&#45;&gt;Node18 -->
<g id="edge27" class="edge">
<title>Node22&#45;&gt;Node18</title>
<path fill="none" stroke="#191970" d="M1403.1866,-61.9366C1412.5464,-59.759 1422.6039,-57.6144 1432,-56 1572.8632,-31.7968 1614.4799,-51.1187 1757.2473,-20.0002"/>
<polygon fill="#191970" stroke="#191970" points="1758.25,-23.3627 1767.251,-17.7741 1756.7295,-16.5299 1758.25,-23.3627"/>
</g>
<!-- Node22&#45;&gt;Node20 -->
<g id="edge30" class="edge">
<title>Node22&#45;&gt;Node20</title>
<path fill="none" stroke="#191970" d="M1402.471,-61.9565C1412.0261,-59.7257 1422.3548,-57.5511 1432,-56 1476.1596,-48.8985 1761.4126,-25.397 1889.6824,-15.0105"/>
<polygon fill="#191970" stroke="#191970" points="1890.065,-18.4911 1899.7502,-14.1961 1889.5006,-11.5139 1890.065,-18.4911"/>
</g>
<!-- Node23 -->
<g id="node24" class="node">
<title>Node23</title>
<polygon fill="#ffffff" stroke="#bfbfbf" points="1390.5,-.5 1390.5,-19.5 1489.5,-19.5 1489.5,-.5 1390.5,-.5"/>
<text text-anchor="middle" x="1440" y="-7.5" font-family="Helvetica,sans-Serif" font-size="10.00" fill="#000000">AMReX_BCRec.H</text>
</g>
<!-- Node22&#45;&gt;Node23 -->
<g id="edge31" class="edge">
<title>Node22&#45;&gt;Node23</title>
<path fill="none" stroke="#191970" d="M1377.5625,-61.8906C1389.0079,-52.3786 1406.7473,-37.6357 1420.397,-26.2917"/>
<polygon fill="#191970" stroke="#191970" points="1422.8208,-28.8283 1428.2745,-19.7449 1418.3467,-23.4447 1422.8208,-28.8283"/>
</g>
<!-- Node24 -->
<g id="node25" class="node">
<title>Node24</title>
<polygon fill="#ffffff" stroke="#bfbfbf" points="1287.5,-.5 1287.5,-19.5 1372.5,-19.5 1372.5,-.5 1287.5,-.5"/>
<text text-anchor="middle" x="1330" y="-7.5" font-family="Helvetica,sans-Serif" font-size="10.00" fill="#000000">AMReX_Gpu.H</text>
</g>
<!-- Node22&#45;&gt;Node24 -->
<g id="edge32" class="edge">
<title>Node22&#45;&gt;Node24</title>
<path fill="none" stroke="#191970" d="M1360.375,-61.8906C1355.1747,-53.0068 1347.3034,-39.5601 1340.8767,-28.5811"/>
<polygon fill="#191970" stroke="#191970" points="1343.7767,-26.6069 1335.7043,-19.7449 1337.7356,-30.1432 1343.7767,-26.6069"/>
</g>
<!-- Node25 -->
<g id="node26" class="node">
<title>Node25</title>
<g id="a_node26"><a xlink:href="incflo__enums_8_h.html" target="_top" xlink:title="amr&#45;wind/incflo_enums.H">
<polygon fill="#ffffff" stroke="#000000" points="960,-.5 960,-19.5 1088,-19.5 1088,-.5 960,-.5"/>
<text text-anchor="middle" x="1024" y="-7.5" font-family="Helvetica,sans-Serif" font-size="10.00" fill="#000000">amr&#45;wind/incflo_enums.H</text>
</a>
</g>
</g>
<!-- Node22&#45;&gt;Node25 -->
<g id="edge33" class="edge">
<title>Node22&#45;&gt;Node25</title>
<path fill="none" stroke="#191970" d="M1312.9377,-61.9581C1251.9411,-50.9894 1151.9093,-33.0012 1087.0085,-21.3305"/>
<polygon fill="#191970" stroke="#191970" points="1087.367,-17.8389 1076.9053,-19.5137 1086.128,-24.7284 1087.367,-17.8389"/>
</g>
<!-- Node26&#45;&gt;Node10 -->
<g id="edge37" class="edge">
<title>Node26&#45;&gt;Node10</title>
<path fill="none" stroke="#191970" d="M1629.7842,-62.3755C1614.4963,-60.21 1598.1649,-57.9609 1583,-56 1526.2939,-48.6675 1377.6054,-31.5661 1279.7035,-20.407"/>
<polygon fill="#191970" stroke="#191970" points="1279.8386,-16.8998 1269.5066,-19.2453 1279.0462,-23.8548 1279.8386,-16.8998"/>
</g>
<!-- Node26&#45;&gt;Node18 -->
<g id="edge36" class="edge">
<title>Node26&#45;&gt;Node18</title>
<path fill="none" stroke="#191970" d="M1707,-61.8906C1722.3581,-52.0519 1746.4521,-36.6167 1764.3745,-25.1351"/>
<polygon fill="#191970" stroke="#191970" points="1766.573,-27.8833 1773.1053,-19.5419 1762.797,-21.9891 1766.573,-27.8833"/>
</g>
<!-- Node26&#45;&gt;Node27 -->
<g id="edge38" class="edge">
<title>Node26&#45;&gt;Node27</title>
<path fill="none" stroke="#191970" d="M1692.625,-61.8906C1693.1795,-53.3657 1694.0072,-40.6392 1694.7042,-29.9235"/>
<polygon fill="#191970" stroke="#191970" points="1698.2097,-29.951 1695.3662,-19.7449 1691.2244,-29.4966 1698.2097,-29.951"/>
</g>
<!-- Node28&#45;&gt;Node10 -->
<g id="edge41" class="edge">
<title>Node28&#45;&gt;Node10</title>
<path fill="none" stroke="#191970" d="M1814.2232,-61.9655C1797.4824,-59.8247 1779.6144,-57.6896 1763,-56 1551.6499,-34.5061 1495.4859,-39.6206 1279.8934,-20.0508"/>
<polygon fill="#191970" stroke="#191970" points="1280.1161,-16.5566 1269.8388,-19.1308 1279.4782,-23.5275 1280.1161,-16.5566"/>
</g>
<!-- Node28&#45;&gt;Node18 -->
<g id="edge40" class="edge">
<title>Node28&#45;&gt;Node18</title>
<path fill="none" stroke="#191970" d="M1868.1563,-61.8906C1852.9582,-52.0519 1829.1152,-36.6167 1811.3794,-25.1351"/>
<polygon fill="#191970" stroke="#191970" points="1813.0361,-22.0382 1802.7395,-19.5419 1809.232,-27.9144 1813.0361,-22.0382"/>
</g>
<!-- Node28&#45;&gt;Node20 -->
<g id="edge42" class="edge">
<title>Node28&#45;&gt;Node20</title>
<path fill="none" stroke="#191970" d="M1893.7813,-61.8906C1904.3526,-52.4683 1920.6825,-37.9134 1933.3603,-26.6137"/>
<polygon fill="#191970" stroke="#191970" points="1935.9304,-29.0114 1941.0667,-19.7449 1931.2728,-23.7858 1935.9304,-29.0114"/>
</g>
<!-- Node29&#45;&gt;Node5 -->
<g id="edge48" class="edge">
<title>Node29&#45;&gt;Node5</title>
<path fill="none" stroke="#191970" d="M845.2055,-123.4639C788.6249,-111.2745 710.0284,-94.3421 658.1307,-83.1616"/>
<polygon fill="#191970" stroke="#191970" points="658.6344,-79.6899 648.1216,-81.0053 657.1601,-86.5329 658.6344,-79.6899"/>
</g>
<!-- Node29&#45;&gt;Node10 -->
<g id="edge56" class="edge">
<title>Node29&#45;&gt;Node10</title>
<path fill="none" stroke="#191970" d="M930.546,-123.4226C952.7012,-102.2184 992.5983,-65.148 1010,-56 1041.4922,-39.4447 1079.3073,-28.5852 1111.9682,-21.6001"/>
<polygon fill="#191970" stroke="#191970" points="1112.835,-24.9952 1121.9262,-19.5547 1111.4265,-18.1384 1112.835,-24.9952"/>
</g>
<!-- Node29&#45;&gt;Node18 -->
<g id="edge47" class="edge">
<title>Node29&#45;&gt;Node18</title>
<path fill="none" stroke="#191970" d="M984.6983,-124.2484C987.8359,-123.7889 990.9473,-123.3689 994,-123 1078.9202,-112.7379 1694.9988,-138.8902 1763,-87 1780.4882,-73.6551 1785.9371,-47.8457 1787.5311,-29.8014"/>
<polygon fill="#191970" stroke="#191970" points="1791.0292,-29.932 1788.0986,-19.7506 1784.0404,-29.5374 1791.0292,-29.932"/>
</g>
<!-- Node29&#45;&gt;Node25 -->
<g id="edge57" class="edge">
<title>Node29&#45;&gt;Node25</title>
<path fill="none" stroke="#191970" d="M925.3267,-123.3681C937.1368,-106.4064 957.3819,-78.3539 977,-56 985.9703,-45.7788 996.7678,-35.1109 1005.7503,-26.6246"/>
<polygon fill="#191970" stroke="#191970" points="1008.1519,-29.1708 1013.0853,-19.7947 1003.3816,-24.0478 1008.1519,-29.1708"/>
</g>
<!-- Node30 -->
<g id="node31" class="node">
<title>Node30</title>
<g id="a_node31"><a xlink:href="_coll_mgr_8_h.html" target="_top" xlink:title="amr&#45;wind/core/CollMgr.H">
<polygon fill="#ffffff" stroke="#000000" points="761.5,-62 761.5,-81 886.5,-81 886.5,-62 761.5,-62"/>
<text text-anchor="middle" x="824" y="-69" font-family="Helvetica,sans-Serif" font-size="10.00" fill="#000000">amr&#45;wind/core/CollMgr.H</text>
</a>
</g>
</g>
<!-- Node29&#45;&gt;Node30 -->
<g id="edge49" class="edge">
<title>Node29&#45;&gt;Node30</title>
<path fill="none" stroke="#191970" d="M894.3507,-123.2967C879.6219,-112.4524 859.8814,-97.9182 845.0604,-87.006"/>
<polygon fill="#191970" stroke="#191970" points="847.1056,-84.1655 836.9776,-81.055 842.9553,-89.8025 847.1056,-84.1655"/>
</g>
<!-- Node32 -->
<g id="node33" class="node">
<title>Node32</title>
<g id="a_node33"><a xlink:href="_p_d_e_fields_8_h.html" target="_top" xlink:title="amr&#45;wind/equation_systems\l/PDEFields.H">
<polygon fill="#ffffff" stroke="#000000" points="384.5,-56.5 384.5,-86.5 523.5,-86.5 523.5,-56.5 384.5,-56.5"/>
<text text-anchor="start" x="392.5" y="-74.5" font-family="Helvetica,sans-Serif" font-size="10.00" fill="#000000">amr&#45;wind/equation_systems</text>
<text text-anchor="middle" x="454" y="-63.5" font-family="Helvetica,sans-Serif" font-size="10.00" fill="#000000">/PDEFields.H</text>
</a>
</g>
</g>
<!-- Node29&#45;&gt;Node32 -->
<g id="edge54" class="edge">
<title>Node29&#45;&gt;Node32</title>
<path fill="none" stroke="#191970" d="M845.264,-124.5197C842.1366,-123.9868 839.0376,-123.4772 836,-123 704.8743,-102.4028 668.1599,-107.9798 533.9544,-87.2376"/>
<polygon fill="#191970" stroke="#191970" points="534.1139,-83.72 523.6927,-85.6301 533.0305,-90.6356 534.1139,-83.72"/>
</g>
<!-- Node30&#45;&gt;Node4 -->
<g id="edge52" class="edge">
<title>Node30&#45;&gt;Node4</title>
<path fill="none" stroke="#191970" d="M807.2813,-61.8906C789.9278,-51.9165 762.5677,-36.1908 742.5118,-24.6633"/>
<polygon fill="#191970" stroke="#191970" points="744.0154,-21.4907 733.6013,-19.5419 740.5272,-27.5596 744.0154,-21.4907"/>
</g>
<!-- Node30&#45;&gt;Node6 -->
<g id="edge51" class="edge">
<title>Node30&#45;&gt;Node6</title>
<path fill="none" stroke="#191970" d="M838.375,-61.8906C853.0931,-52.0519 876.1832,-36.6167 893.3589,-25.1351"/>
<polygon fill="#191970" stroke="#191970" points="895.3575,-28.0091 901.7259,-19.5419 891.4673,-22.1896 895.3575,-28.0091"/>
</g>
<!-- Node30&#45;&gt;Node18 -->
<g id="edge50" class="edge">
<title>Node30&#45;&gt;Node18</title>
<path fill="none" stroke="#191970" d="M886.8087,-65.7137C922.8388,-62.5328 968.9359,-58.697 1010,-56 1339.1467,-34.3822 1429.8728,-81.9625 1757.0391,-19.8977"/>
<polygon fill="#191970" stroke="#191970" points="1758.1223,-23.2539 1767.2842,-17.9332 1756.804,-16.3791 1758.1223,-23.2539"/>
</g>
<!-- Node31 -->
<g id="node32" class="node">
<title>Node31</title>
<polygon fill="#ffffff" stroke="#bfbfbf" points="776.5,-.5 776.5,-19.5 871.5,-19.5 871.5,-.5 776.5,-.5"/>
<text text-anchor="middle" x="824" y="-7.5" font-family="Helvetica,sans-Serif" font-size="10.00" fill="#000000">AMReX_Vector.H</text>
</g>
<!-- Node30&#45;&gt;Node31 -->
<g id="edge53" class="edge">
<title>Node30&#45;&gt;Node31</title>
<path fill="none" stroke="#191970" d="M824,-61.8906C824,-53.3657 824,-40.6392 824,-29.9235"/>
<polygon fill="#191970" stroke="#191970" points="827.5001,-29.7448 824,-19.7449 820.5001,-29.7449 827.5001,-29.7448"/>
</g>
<!-- Node33 -->
<g id="node34" class="node">
<title>Node33</title>
<polygon fill="#ffffff" stroke="#bfbfbf" points="353.5,-.5 353.5,-19.5 398.5,-19.5 398.5,-.5 353.5,-.5"/>
<text text-anchor="middle" x="376" y="-7.5" font-family="Helvetica,sans-Serif" font-size="10.00" fill="#000000">iosfwd</text>
</g>
<!-- Node32&#45;&gt;Node33 -->
<g id="edge55" class="edge">
<title>Node32&#45;&gt;Node33</title>
<path fill="none" stroke="#191970" d="M434.7191,-56.2977C423.1024,-47.1384 408.3182,-35.4816 396.4908,-26.1562"/>
<polygon fill="#191970" stroke="#191970" points="398.5086,-23.2901 388.4888,-19.8469 394.1744,-28.787 398.5086,-23.2901"/>
</g>
<!-- Node34&#45;&gt;Node5 -->
<g id="edge59" class="edge">
<title>Node34&#45;&gt;Node5</title>
<path fill="none" stroke="#191970" d="M1024.6128,-128.9838C1014.6207,-126.8544 1003.9537,-124.72 994,-123 872.535,-102.0115 841.1916,-103.2326 719,-87 705.3406,-85.1854 690.7709,-83.234 676.7524,-81.3484"/>
<polygon fill="#191970" stroke="#191970" points="677.0407,-77.8557 666.6631,-79.9899 676.1066,-84.7931 677.0407,-77.8557"/>
</g>
<!-- Node34&#45;&gt;Node20 -->
<g id="edge61" class="edge">
<title>Node34&#45;&gt;Node20</title>
<path fill="none" stroke="#191970" d="M1129.9048,-133.7825C1174.4802,-130.5595 1235.3509,-126.2928 1289,-123 1326.5381,-120.696 1939.1233,-114.2914 1965,-87 1979.5816,-71.6212 1971.5082,-46.3132 1963.0102,-28.9363"/>
<polygon fill="#191970" stroke="#191970" points="1965.913,-26.9406 1958.1258,-19.7566 1959.7333,-30.2288 1965.913,-26.9406"/>
</g>
<!-- Node34&#45;&gt;Node30 -->
<g id="edge60" class="edge">
<title>Node34&#45;&gt;Node30</title>
<path fill="none" stroke="#191970" d="M1031.5843,-128.9717C988.7911,-117.124 915.656,-96.8758 868.6028,-83.8487"/>
<polygon fill="#191970" stroke="#191970" points="869.2602,-80.3991 858.6888,-81.1039 867.3923,-87.1453 869.2602,-80.3991"/>
</g>
<!-- Node35 -->
<g id="node36" class="node">
<title>Node35</title>
<polygon fill="#ffffff" stroke="#bfbfbf" points="1019,-62 1019,-81 1129,-81 1129,-62 1019,-62"/>
<text text-anchor="middle" x="1074" y="-69" font-family="Helvetica,sans-Serif" font-size="10.00" fill="#000000">AMReX_Geometry.H</text>
</g>
<!-- Node34&#45;&gt;Node35 -->
<g id="edge62" class="edge">
<title>Node34&#45;&gt;Node35</title>
<path fill="none" stroke="#191970" d="M1067.1462,-128.9005C1068.3106,-119.149 1070.1481,-103.7597 1071.6275,-91.3695"/>
<polygon fill="#191970" stroke="#191970" points="1075.1455,-91.4261 1072.8559,-81.0817 1068.1949,-90.5961 1075.1455,-91.4261"/>
</g>
<!-- Node36&#45;&gt;Node3 -->
<g id="edge64" class="edge">
<title>Node36&#45;&gt;Node3</title>
<path fill="none" stroke="#191970" d="M956.6704,-324.4312C942.3378,-314.7325 923.9276,-301.4609 909,-288 863.8085,-247.2488 817.9338,-192.5491 793.3259,-161.879"/>
<polygon fill="#191970" stroke="#191970" points="795.9358,-159.538 786.9674,-153.8973 790.4608,-163.8996 795.9358,-159.538"/>
</g>
<!-- Node37 -->
<g id="node38" class="node">
<title>Node37</title>
<g id="a_node38"><a xlink:href="_const_transport_8_h.html" target="_top" xlink:title="amr&#45;wind/transport\l_models/ConstTransport.H">
<polygon fill="#ffffff" stroke="#000000" points="1042,-257.5 1042,-287.5 1176,-287.5 1176,-257.5 1042,-257.5"/>
<text text-anchor="start" x="1050" y="-275.5" font-family="Helvetica,sans-Serif" font-size="10.00" fill="#000000">amr&#45;wind/transport</text>
<text text-anchor="middle" x="1109" y="-264.5" font-family="Helvetica,sans-Serif" font-size="10.00" fill="#000000">_models/ConstTransport.H</text>
</a>
</g>
</g>
<!-- Node36&#45;&gt;Node37 -->
<g id="edge65" class="edge">
<title>Node36&#45;&gt;Node37</title>
<path fill="none" stroke="#191970" d="M1008.9501,-324.4639C1027.1625,-315.0047 1050.8741,-302.6894 1070.6423,-292.4222"/>
<polygon fill="#191970" stroke="#191970" points="1072.439,-295.433 1079.7002,-287.7177 1069.2125,-289.2209 1072.439,-295.433"/>
</g>
<!-- Node38 -->
<g id="node39" class="node">
<title>Node38</title>
<g id="a_node39"><a xlink:href="_transport_model_8_h.html" target="_top" xlink:title="amr&#45;wind/transport\l_models/TransportModel.H">
<polygon fill="#ffffff" stroke="#000000" points="1042,-190.5 1042,-220.5 1176,-220.5 1176,-190.5 1042,-190.5"/>
<text text-anchor="start" x="1050" y="-208.5" font-family="Helvetica,sans-Serif" font-size="10.00" fill="#000000">amr&#45;wind/transport</text>
<text text-anchor="middle" x="1109" y="-197.5" font-family="Helvetica,sans-Serif" font-size="10.00" fill="#000000">_models/TransportModel.H</text>
</a>
</g>
</g>
<!-- Node37&#45;&gt;Node38 -->
<g id="edge66" class="edge">
<title>Node37&#45;&gt;Node38</title>
<path fill="none" stroke="#191970" d="M1109,-257.2967C1109,-249.5013 1109,-239.7991 1109,-230.9064"/>
<polygon fill="#191970" stroke="#191970" points="1112.5001,-230.6431 1109,-220.6432 1105.5001,-230.6432 1112.5001,-230.6431"/>
</g>
<!-- Node39 -->
<g id="node40" class="node">
<title>Node39</title>
<polygon fill="#ffffff" stroke="#bfbfbf" points="1194,-196 1194,-215 1310,-215 1310,-196 1194,-196"/>
<text text-anchor="middle" x="1252" y="-203" font-family="Helvetica,sans-Serif" font-size="10.00" fill="#000000">AMReX_ParmParse.H</text>
</g>
<!-- Node37&#45;&gt;Node39 -->
<g id="edge69" class="edge">
<title>Node37&#45;&gt;Node39</title>
<path fill="none" stroke="#191970" d="M1141.092,-257.4639C1165.4098,-246.0702 1198.5721,-230.5327 1222.2862,-219.4219"/>
<polygon fill="#191970" stroke="#191970" points="1223.9317,-222.5161 1231.5021,-215.1039 1220.9618,-216.1773 1223.9317,-222.5161"/>
</g>
<!-- Node38&#45;&gt;Node5 -->
<g id="edge67" class="edge">
<title>Node38&#45;&gt;Node5</title>
<path fill="none" stroke="#191970" d="M1041.922,-191.4832C1038.9107,-190.9601 1035.9262,-190.4626 1033,-190 892.0722,-167.7221 846.6086,-206.6489 714,-154 676.3933,-139.0692 640.3633,-107.743 620.3085,-88.2779"/>
<polygon fill="#191970" stroke="#191970" points="622.7623,-85.7821 613.2002,-81.2195 617.83,-90.7492 622.7623,-85.7821"/>
</g>
<!-- Node38&#45;&gt;Node17 -->
<g id="edge68" class="edge">
<title>Node38&#45;&gt;Node17</title>
<path fill="none" stroke="#191970" d="M1166.6758,-190.4639C1212.8477,-178.4269 1276.7608,-161.7647 1319.6497,-150.5835"/>
<polygon fill="#191970" stroke="#191970" points="1320.7458,-153.9148 1329.5394,-148.0053 1318.9799,-147.1412 1320.7458,-153.9148"/>
</g>
<!-- Node40&#45;&gt;Node20 -->
<g id="edge72" class="edge">
<title>Node40&#45;&gt;Node20</title>
<path fill="none" stroke="#191970" d="M1551.5754,-137.7748C1684.128,-135.3252 2039.0625,-125.2244 2074,-87 2100.7064,-57.7811 2047.9374,-35.2917 2003.6456,-22.3593"/>
<polygon fill="#191970" stroke="#191970" points="2004.3534,-18.9228 1993.7797,-19.5903 2002.4618,-25.6624 2004.3534,-18.9228"/>
</g>
<!-- Node40&#45;&gt;Node22 -->
<g id="edge71" class="edge">
<title>Node40&#45;&gt;Node22</title>
<path fill="none" stroke="#191970" d="M1471.4789,-123.4639C1448.4543,-112.1209 1417.0928,-96.6707 1394.5606,-85.5703"/>
<polygon fill="#191970" stroke="#191970" points="1396.0118,-82.3836 1385.4945,-81.1039 1392.9183,-88.6629 1396.0118,-82.3836"/>
</g>
</g>
</svg>
