<?xml version="1.0" encoding="UTF-8" standalone="no"?>
<!DOCTYPE svg PUBLIC "-//W3C//DTD SVG 1.1//EN"
 "http://www.w3.org/Graphics/SVG/1.1/DTD/svg11.dtd">
<!-- Generated by graphviz version 2.40.1 (20161225.0304)
 -->
<!-- Title: MLMGOptions.H Pages: 1 -->
<!--zoomable 319 -->
<svg id="main" version="1.1" xmlns="http://www.w3.org/2000/svg" xmlns:xlink="http://www.w3.org/1999/xlink" xml:space="preserve" onload="init(evt)">
<style type="text/css"><![CDATA[
.edge:hover path { stroke: red; }
.edge:hover polygon { stroke: red; fill: red; }
]]></style>
<script type="text/javascript"><![CDATA[
var edges = document.getElementsByTagName('g');
if (edges && edges.length) {
  for (var i=0;i<edges.length;i++) {
    if (edges[i].id.substr(0,4)=='edge') {
      edges[i].setAttribute('class','edge');
    }
  }
}
]]></script>
        <defs>
                <circle id="rim" cx="0" cy="0" r="7"/>
                <circle id="rim2" cx="0" cy="0" r="3.5"/>
                <g id="zoomPlus">
                        <use xlink:href="#rim" fill="#404040">
                                <set attributeName="fill" to="#808080" begin="zoomplus.mouseover" end="zoomplus.mouseout"/>
                        </use>
                        <path d="M-4,0h8M0,-4v8" fill="none" stroke="white" stroke-width="1.5" pointer-events="none"/>
                </g>
                <g id="zoomMin">
                        <use xlink:href="#rim" fill="#404040">
                                <set attributeName="fill" to="#808080" begin="zoomminus.mouseover" end="zoomminus.mouseout"/>
                        </use>
                        <path d="M-4,0h8" fill="none" stroke="white" stroke-width="1.5" pointer-events="none"/>
                </g>
                <g id="dirArrow">
                        <path fill="none" stroke="white" stroke-width="1.5" d="M0,-3.0v7 M-2.5,-0.5L0,-3.0L2.5,-0.5"/>
                </g>
               <g id="resetDef">
                       <use xlink:href="#rim2" fill="#404040">
                               <set attributeName="fill" to="#808080" begin="reset.mouseover" end="reset.mouseout"/>
                       </use>
               </g>
        </defs>

<script type="text/javascript">
var viewWidth = 1096;
var viewHeight = 319;
var sectionId = 'dynsection-1';
</script>
<script xlink:href="svgpan.js"/>
<svg id="graph" class="graph">
<g id="viewport">
<title>MLMGOptions.H</title>
<polygon fill="#ffffff" stroke="transparent" points="-4,4 -4,-315 1092,-315 1092,4 -4,4"/>
<!-- Node5 -->
<g id="node1" class="node">
<title>Node5</title>
<polygon fill="#bfbfbf" stroke="#000000" points="808.5,-291.5 808.5,-310.5 898.5,-310.5 898.5,-291.5 808.5,-291.5"/>
<text text-anchor="middle" x="853.5" y="-298.5" font-family="Helvetica,sans-Serif" font-size="10.00" fill="#000000">MLMGOptions.H</text>
</g>
<!-- Node6 -->
<g id="node2" class="node">
<title>Node6</title>
<g id="a_node2"><a xlink:href="incflo___m_a_c__projection_8cpp.html" target="_top" xlink:title="incflo_MAC_projection.cpp">
<polygon fill="#ffffff" stroke="#000000" points="543.5,-230 543.5,-249 677.5,-249 677.5,-230 543.5,-230"/>
<text text-anchor="middle" x="610.5" y="-237" font-family="Helvetica,sans-Serif" font-size="10.00" fill="#000000">incflo_MAC_projection.cpp</text>
</a>
</g>
</g>
<!-- Node5&#45;&gt;Node6 -->
<g id="edge1" class="edge">
<title>Node5&#45;&gt;Node6</title>
<path fill="none" stroke="#191970" d="M806.0373,-288.9878C759.92,-277.3162 690.8026,-259.8235 648.2906,-249.0643"/>
<polygon fill="#191970" stroke="#191970" points="805.2448,-292.3975 815.7979,-291.4581 806.9623,-285.6115 805.2448,-292.3975"/>
</g>
<!-- Node7 -->
<g id="node3" class="node">
<title>Node7</title>
<g id="a_node3"><a xlink:href="_m_l_m_g_options_8cpp.html" target="_top" xlink:title="MLMGOptions.cpp">
<polygon fill="#ffffff" stroke="#000000" points="695.5,-230 695.5,-249 793.5,-249 793.5,-230 695.5,-230"/>
<text text-anchor="middle" x="744.5" y="-237" font-family="Helvetica,sans-Serif" font-size="10.00" fill="#000000">MLMGOptions.cpp</text>
</a>
</g>
</g>
<!-- Node5&#45;&gt;Node7 -->
<g id="edge2" class="edge">
<title>Node5&#45;&gt;Node7</title>
<path fill="none" stroke="#191970" d="M827.6502,-286.415C807.1609,-274.8546 779.1231,-259.035 761.4117,-249.0419"/>
<polygon fill="#191970" stroke="#191970" points="826.0395,-289.5249 836.4688,-291.3906 829.4793,-283.4283 826.0395,-289.5249"/>
</g>
<!-- Node8 -->
<g id="node4" class="node">
<title>Node8</title>
<g id="a_node4"><a xlink:href="_diffusion_ops_8_h.html" target="_top" xlink:title="DiffusionOps.H">
<polygon fill="#ffffff" stroke="#000000" points="811.5,-230 811.5,-249 895.5,-249 895.5,-230 811.5,-230"/>
<text text-anchor="middle" x="853.5" y="-237" font-family="Helvetica,sans-Serif" font-size="10.00" fill="#000000">DiffusionOps.H</text>
</a>
</g>
</g>
<!-- Node5&#45;&gt;Node8 -->
<g id="edge3" class="edge">
<title>Node5&#45;&gt;Node8</title>
<path fill="none" stroke="#191970" d="M853.5,-281.2462C853.5,-270.5519 853.5,-257.814 853.5,-249.2449"/>
<polygon fill="#191970" stroke="#191970" points="850.0001,-281.3906 853.5,-291.3906 857.0001,-281.3907 850.0001,-281.3906"/>
</g>
<!-- Node16 -->
<g id="node12" class="node">
<title>Node16</title>
<g id="a_node12"><a xlink:href="icns__ops_8cpp.html" target="_top" xlink:title="icns_ops.cpp">
<polygon fill="#ffffff" stroke="#000000" points="894.5,-.5 894.5,-19.5 968.5,-19.5 968.5,-.5 894.5,-.5"/>
<text text-anchor="middle" x="931.5" y="-7.5" font-family="Helvetica,sans-Serif" font-size="10.00" fill="#000000">icns_ops.cpp</text>
</a>
</g>
</g>
<!-- Node5&#45;&gt;Node16 -->
<g id="edge32" class="edge">
<title>Node5&#45;&gt;Node16</title>
<path fill="none" stroke="#191970" d="M880.4832,-286.1374C912.7623,-266.1478 962.5,-227.3412 962.5,-178 962.5,-178 962.5,-178 962.5,-122 962.5,-82.8595 944.6973,-38.722 936.0742,-19.6387"/>
<polygon fill="#191970" stroke="#191970" points="878.2925,-283.3688 871.4991,-291.499 881.8799,-289.3797 878.2925,-283.3688"/>
</g>
<!-- Node30 -->
<g id="node26" class="node">
<title>Node30</title>
<g id="a_node26"><a xlink:href="incflo__apply__nodal__projection_8cpp.html" target="_top" xlink:title="incflo_apply_nodal\l_projection.cpp">
<polygon fill="#ffffff" stroke="#000000" points="991,-224.5 991,-254.5 1088,-254.5 1088,-224.5 991,-224.5"/>
<text text-anchor="start" x="999" y="-242.5" font-family="Helvetica,sans-Serif" font-size="10.00" fill="#000000">incflo_apply_nodal</text>
<text text-anchor="middle" x="1039.5" y="-231.5" font-family="Helvetica,sans-Serif" font-size="10.00" fill="#000000">_projection.cpp</text>
</a>
</g>
</g>
<!-- Node5&#45;&gt;Node30 -->
<g id="edge33" class="edge">
<title>Node5&#45;&gt;Node30</title>
<path fill="none" stroke="#191970" d="M892.1487,-288.221C921.7885,-278.4207 962.776,-264.8684 993.9993,-254.5446"/>
<polygon fill="#191970" stroke="#191970" points="890.9582,-284.9282 882.5625,-291.3906 893.1557,-291.5743 890.9582,-284.9282"/>
</g>
<!-- Node9 -->
<g id="node5" class="node">
<title>Node9</title>
<g id="a_node5"><a xlink:href="_p_d_e_8_h.html" target="_top" xlink:title="PDE.H">
<polygon fill="#ffffff" stroke="#000000" points="517.5,-168.5 517.5,-187.5 565.5,-187.5 565.5,-168.5 517.5,-168.5"/>
<text text-anchor="middle" x="541.5" y="-175.5" font-family="Helvetica,sans-Serif" font-size="10.00" fill="#000000">PDE.H</text>
</a>
</g>
</g>
<!-- Node8&#45;&gt;Node9 -->
<g id="edge4" class="edge">
<title>Node8&#45;&gt;Node9</title>
<path fill="none" stroke="#191970" d="M814.4274,-227.103C810.4169,-225.9875 806.3884,-224.93 802.5,-224 716.3584,-203.3982 612.1875,-187.7696 565.8091,-181.284"/>
<polygon fill="#191970" stroke="#191970" points="813.6905,-230.5334 824.2696,-229.9559 815.6394,-223.8102 813.6905,-230.5334"/>
</g>
<!-- Node15 -->
<g id="node11" class="node">
<title>Node15</title>
<g id="a_node11"><a xlink:href="icns__ops_8_h.html" target="_top" xlink:title="icns_ops.H">
<polygon fill="#ffffff" stroke="#000000" points="868.5,-56.5 868.5,-75.5 934.5,-75.5 934.5,-56.5 868.5,-56.5"/>
<text text-anchor="middle" x="901.5" y="-63.5" font-family="Helvetica,sans-Serif" font-size="10.00" fill="#000000">icns_ops.H</text>
</a>
</g>
</g>
<!-- Node8&#45;&gt;Node15 -->
<g id="edge30" class="edge">
<title>Node8&#45;&gt;Node15</title>
<path fill="none" stroke="#191970" d="M858.9355,-219.8528C869.2128,-182.7047 891.1486,-103.4161 898.8,-75.7595"/>
<polygon fill="#191970" stroke="#191970" points="855.4423,-219.3535 856.1491,-229.9248 862.1888,-221.2201 855.4423,-219.3535"/>
</g>
<!-- Node17 -->
<g id="node13" class="node">
<title>Node17</title>
<g id="a_node13"><a xlink:href="icns__diffusion_8_h.html" target="_top" xlink:title="icns_diffusion.H">
<polygon fill="#ffffff" stroke="#000000" points="763,-56.5 763,-75.5 850,-75.5 850,-56.5 763,-56.5"/>
<text text-anchor="middle" x="806.5" y="-63.5" font-family="Helvetica,sans-Serif" font-size="10.00" fill="#000000">icns_diffusion.H</text>
</a>
</g>
</g>
<!-- Node8&#45;&gt;Node17 -->
<g id="edge31" class="edge">
<title>Node8&#45;&gt;Node17</title>
<path fill="none" stroke="#191970" d="M848.1777,-219.8528C838.1145,-182.7047 816.6358,-103.4161 809.1438,-75.7595"/>
<polygon fill="#191970" stroke="#191970" points="844.9131,-221.1878 850.9061,-229.9248 851.6696,-219.3575 844.9131,-221.1878"/>
</g>
<!-- Node29 -->
<g id="node25" class="node">
<title>Node29</title>
<g id="a_node25"><a xlink:href="_diffusion_ops_8cpp.html" target="_top" xlink:title="DiffusionOps.cpp">
<polygon fill="#ffffff" stroke="#000000" points="407.5,-168.5 407.5,-187.5 499.5,-187.5 499.5,-168.5 407.5,-168.5"/>
<text text-anchor="middle" x="453.5" y="-175.5" font-family="Helvetica,sans-Serif" font-size="10.00" fill="#000000">DiffusionOps.cpp</text>
</a>
</g>
</g>
<!-- Node8&#45;&gt;Node29 -->
<g id="edge29" class="edge">
<title>Node8&#45;&gt;Node29</title>
<path fill="none" stroke="#191970" d="M815.2906,-227.1093C811.0029,-225.9515 806.676,-224.8833 802.5,-224 673.707,-196.7578 638.6477,-207.7828 508.5,-188 505.6215,-187.5625 502.6624,-187.0901 499.681,-186.5972"/>
<polygon fill="#191970" stroke="#191970" points="814.5577,-230.54 825.1349,-229.9285 816.4849,-223.8105 814.5577,-230.54"/>
</g>
<!-- Node10 -->
<g id="node6" class="node">
<title>Node10</title>
<g id="a_node6"><a xlink:href="density_8_h.html" target="_top" xlink:title="density.H">
<polygon fill="#ffffff" stroke="#000000" points="154,-112.5 154,-131.5 213,-131.5 213,-112.5 154,-112.5"/>
<text text-anchor="middle" x="183.5" y="-119.5" font-family="Helvetica,sans-Serif" font-size="10.00" fill="#000000">density.H</text>
</a>
</g>
</g>
<!-- Node9&#45;&gt;Node10 -->
<g id="edge5" class="edge">
<title>Node9&#45;&gt;Node10</title>
<path fill="none" stroke="#191970" d="M507.5454,-168.0714C393.7908,-143.4839 269.29,-130.0221 213.3485,-124.676"/>
<polygon fill="#191970" stroke="#191970" points="506.9444,-171.5227 517.4624,-170.2497 508.4462,-164.6857 506.9444,-171.5227"/>
</g>
<!-- Node13 -->
<g id="node9" class="node">
<title>Node13</title>
<g id="a_node9"><a xlink:href="icns_8_h.html" target="_top" xlink:title="icns.H">
<polygon fill="#ffffff" stroke="#000000" points="712,-112.5 712,-131.5 757,-131.5 757,-112.5 712,-112.5"/>
<text text-anchor="middle" x="734.5" y="-119.5" font-family="Helvetica,sans-Serif" font-size="10.00" fill="#000000">icns.H</text>
</a>
</g>
</g>
<!-- Node9&#45;&gt;Node13 -->
<g id="edge9" class="edge">
<title>Node9&#45;&gt;Node13</title>
<path fill="none" stroke="#191970" d="M575.2127,-168.2181C614.4716,-156.8269 678.231,-138.3268 711.9442,-128.5447"/>
<polygon fill="#191970" stroke="#191970" points="574.1819,-164.8727 565.5534,-171.0208 576.1326,-171.5955 574.1819,-164.8727"/>
</g>
<!-- Node19 -->
<g id="node15" class="node">
<title>Node19</title>
<g id="a_node15"><a xlink:href="levelset_8_h.html" target="_top" xlink:title="levelset.H">
<polygon fill="#ffffff" stroke="#000000" points="470,-112.5 470,-131.5 531,-131.5 531,-112.5 470,-112.5"/>
<text text-anchor="middle" x="500.5" y="-119.5" font-family="Helvetica,sans-Serif" font-size="10.00" fill="#000000">levelset.H</text>
</a>
</g>
</g>
<!-- Node9&#45;&gt;Node19 -->
<g id="edge18" class="edge">
<title>Node9&#45;&gt;Node19</title>
<path fill="none" stroke="#191970" d="M528.2636,-159.9209C521.3789,-150.5176 513.2391,-139.3997 507.5598,-131.6427"/>
<polygon fill="#191970" stroke="#191970" points="525.6269,-162.2445 534.3583,-168.2455 531.2749,-158.1093 525.6269,-162.2445"/>
</g>
<!-- Node22 -->
<g id="node18" class="node">
<title>Node22</title>
<g id="a_node18"><a xlink:href="_s_d_r_8_h.html" target="_top" xlink:title="SDR.H">
<polygon fill="#ffffff" stroke="#000000" points="557,-112.5 557,-131.5 606,-131.5 606,-112.5 557,-112.5"/>
<text text-anchor="middle" x="581.5" y="-119.5" font-family="Helvetica,sans-Serif" font-size="10.00" fill="#000000">SDR.H</text>
</a>
</g>
</g>
<!-- Node9&#45;&gt;Node22 -->
<g id="edge22" class="edge">
<title>Node9&#45;&gt;Node22</title>
<path fill="none" stroke="#191970" d="M554.4136,-159.9209C561.1303,-150.5176 569.0717,-139.3997 574.6124,-131.6427"/>
<polygon fill="#191970" stroke="#191970" points="551.4318,-158.0738 548.4675,-168.2455 557.128,-162.1425 551.4318,-158.0738"/>
</g>
<!-- Node24 -->
<g id="node20" class="node">
<title>Node24</title>
<g id="a_node20"><a xlink:href="temperature_8_h.html" target="_top" xlink:title="temperature.H">
<polygon fill="#ffffff" stroke="#000000" points="31,-112.5 31,-131.5 110,-131.5 110,-112.5 31,-112.5"/>
<text text-anchor="middle" x="70.5" y="-119.5" font-family="Helvetica,sans-Serif" font-size="10.00" fill="#000000">temperature.H</text>
</a>
</g>
</g>
<!-- Node9&#45;&gt;Node24 -->
<g id="edge24" class="edge">
<title>Node9&#45;&gt;Node24</title>
<path fill="none" stroke="#191970" d="M507.2812,-168.1077C347.2412,-136.8608 302.6547,-150.501 144.5,-132 133.2977,-130.6896 121.1629,-129.1149 110.0233,-127.6069"/>
<polygon fill="#191970" stroke="#191970" points="506.9979,-171.6195 517.4875,-170.1301 508.3586,-164.753 506.9979,-171.6195"/>
</g>
<!-- Node26 -->
<g id="node22" class="node">
<title>Node26</title>
<g id="a_node22"><a xlink:href="_t_k_e_8_h.html" target="_top" xlink:title="TKE.H">
<polygon fill="#ffffff" stroke="#000000" points="352,-112.5 352,-131.5 399,-131.5 399,-112.5 352,-112.5"/>
<text text-anchor="middle" x="375.5" y="-119.5" font-family="Helvetica,sans-Serif" font-size="10.00" fill="#000000">TKE.H</text>
</a>
</g>
</g>
<!-- Node9&#45;&gt;Node26 -->
<g id="edge26" class="edge">
<title>Node9&#45;&gt;Node26</title>
<path fill="none" stroke="#191970" d="M507.8785,-166.6578C475.5722,-155.7593 427.5839,-139.5705 399.1295,-129.9714"/>
<polygon fill="#191970" stroke="#191970" points="506.768,-169.9769 517.3622,-169.8571 509.0056,-163.3442 506.768,-169.9769"/>
</g>
<!-- Node11 -->
<g id="node7" class="node">
<title>Node11</title>
<g id="a_node7"><a xlink:href="density_8cpp.html" target="_top" xlink:title="density.cpp">
<polygon fill="#ffffff" stroke="#000000" points="116,-.5 116,-19.5 183,-19.5 183,-.5 116,-.5"/>
<text text-anchor="middle" x="149.5" y="-7.5" font-family="Helvetica,sans-Serif" font-size="10.00" fill="#000000">density.cpp</text>
</a>
</g>
</g>
<!-- Node10&#45;&gt;Node11 -->
<g id="edge6" class="edge">
<title>Node10&#45;&gt;Node11</title>
<path fill="none" stroke="#191970" d="M159.5955,-106.2861C149.8842,-98.4665 139.7337,-88.0919 134.5,-76 126.2852,-57.0206 136.4556,-32.9426 143.6143,-19.7472"/>
<polygon fill="#191970" stroke="#191970" points="157.7766,-109.2962 167.882,-112.4791 161.9671,-103.6891 157.7766,-109.2962"/>
</g>
<!-- Node12 -->
<g id="node8" class="node">
<title>Node12</title>
<g id="a_node8"><a xlink:href="density__ops_8_h.html" target="_top" xlink:title="density_ops.H">
<polygon fill="#ffffff" stroke="#000000" points="143.5,-56.5 143.5,-75.5 223.5,-75.5 223.5,-56.5 143.5,-56.5"/>
<text text-anchor="middle" x="183.5" y="-63.5" font-family="Helvetica,sans-Serif" font-size="10.00" fill="#000000">density_ops.H</text>
</a>
</g>
</g>
<!-- Node10&#45;&gt;Node12 -->
<g id="edge7" class="edge">
<title>Node10&#45;&gt;Node12</title>
<path fill="none" stroke="#191970" d="M183.5,-102.1575C183.5,-93.155 183.5,-82.9199 183.5,-75.6427"/>
<polygon fill="#191970" stroke="#191970" points="180.0001,-102.2455 183.5,-112.2455 187.0001,-102.2456 180.0001,-102.2455"/>
</g>
<!-- Node12&#45;&gt;Node11 -->
<g id="edge8" class="edge">
<title>Node12&#45;&gt;Node11</title>
<path fill="none" stroke="#191970" d="M172.3465,-47.6296C166.6753,-38.2887 160.0155,-27.3197 155.3545,-19.6427"/>
<polygon fill="#191970" stroke="#191970" points="169.3961,-49.5141 177.5777,-56.2455 175.3796,-45.8812 169.3961,-49.5141"/>
</g>
<!-- Node14 -->
<g id="node10" class="node">
<title>Node14</title>
<g id="a_node10"><a xlink:href="icns_8cpp.html" target="_top" xlink:title="icns.cpp">
<polygon fill="#ffffff" stroke="#000000" points="744,-.5 744,-19.5 797,-19.5 797,-.5 744,-.5"/>
<text text-anchor="middle" x="770.5" y="-7.5" font-family="Helvetica,sans-Serif" font-size="10.00" fill="#000000">icns.cpp</text>
</a>
</g>
</g>
<!-- Node13&#45;&gt;Node14 -->
<g id="edge10" class="edge">
<title>Node13&#45;&gt;Node14</title>
<path fill="none" stroke="#191970" d="M740.2489,-102.2787C744.1384,-89.1275 749.4655,-71.4774 754.5,-56 758.5802,-43.4565 763.629,-29.1188 766.9509,-19.8315"/>
<polygon fill="#191970" stroke="#191970" points="736.8181,-101.54 737.3579,-112.1211 743.5344,-103.5128 736.8181,-101.54"/>
</g>
<!-- Node13&#45;&gt;Node15 -->
<g id="edge11" class="edge">
<title>Node13&#45;&gt;Node15</title>
<path fill="none" stroke="#191970" d="M766.8333,-111.1577C797.6021,-100.84 843.4553,-85.4641 872.9177,-75.5845"/>
<polygon fill="#191970" stroke="#191970" points="765.3907,-107.9498 757.0224,-114.4476 767.6163,-114.5866 765.3907,-107.9498"/>
</g>
<!-- Node13&#45;&gt;Node17 -->
<g id="edge14" class="edge">
<title>Node13&#45;&gt;Node17</title>
<path fill="none" stroke="#191970" d="M755.164,-105.928C767.7489,-96.1397 783.4092,-83.9595 794.1023,-75.6427"/>
<polygon fill="#191970" stroke="#191970" points="752.7862,-103.3434 747.0414,-112.2455 757.0838,-108.8688 752.7862,-103.3434"/>
</g>
<!-- Node18 -->
<g id="node14" class="node">
<title>Node18</title>
<g id="a_node14"><a xlink:href="icns__bcop_8_h.html" target="_top" xlink:title="icns_bcop.H">
<polygon fill="#ffffff" stroke="#000000" points="635,-56.5 635,-75.5 706,-75.5 706,-56.5 635,-56.5"/>
<text text-anchor="middle" x="670.5" y="-63.5" font-family="Helvetica,sans-Serif" font-size="10.00" fill="#000000">icns_bcop.H</text>
</a>
</g>
</g>
<!-- Node13&#45;&gt;Node18 -->
<g id="edge16" class="edge">
<title>Node13&#45;&gt;Node18</title>
<path fill="none" stroke="#191970" d="M715.8086,-105.645C704.6781,-95.9058 690.9337,-83.8795 681.5202,-75.6427"/>
<polygon fill="#191970" stroke="#191970" points="713.5215,-108.2945 723.3521,-112.2455 718.131,-103.0264 713.5215,-108.2945"/>
</g>
<!-- Node15&#45;&gt;Node14 -->
<g id="edge12" class="edge">
<title>Node15&#45;&gt;Node14</title>
<path fill="none" stroke="#191970" d="M869.6466,-52.3833C845.8215,-42.1985 813.8432,-28.5284 792.7258,-19.5011"/>
<polygon fill="#191970" stroke="#191970" points="868.4094,-55.6608 878.9803,-56.3733 871.161,-49.2242 868.4094,-55.6608"/>
</g>
<!-- Node15&#45;&gt;Node16 -->
<g id="edge13" class="edge">
<title>Node15&#45;&gt;Node16</title>
<path fill="none" stroke="#191970" d="M911.498,-47.3372C916.4676,-38.0605 922.2644,-27.2398 926.3343,-19.6427"/>
<polygon fill="#191970" stroke="#191970" points="908.3627,-45.7779 906.7256,-56.2455 914.5331,-49.0835 908.3627,-45.7779"/>
</g>
<!-- Node17&#45;&gt;Node14 -->
<g id="edge15" class="edge">
<title>Node17&#45;&gt;Node14</title>
<path fill="none" stroke="#191970" d="M794.6904,-47.6296C788.6856,-38.2887 781.6341,-27.3197 776.6989,-19.6427"/>
<polygon fill="#191970" stroke="#191970" points="791.8775,-49.7264 800.2293,-56.2455 797.7658,-45.9411 791.8775,-49.7264"/>
</g>
<!-- Node18&#45;&gt;Node14 -->
<g id="edge17" class="edge">
<title>Node18&#45;&gt;Node14</title>
<path fill="none" stroke="#191970" d="M696.7098,-51.3225C714.5717,-41.3198 737.7155,-28.3593 753.2809,-19.6427"/>
<polygon fill="#191970" stroke="#191970" points="694.9336,-48.3057 687.9187,-56.2455 698.3539,-54.4132 694.9336,-48.3057"/>
</g>
<!-- Node20 -->
<g id="node16" class="node">
<title>Node20</title>
<g id="a_node16"><a xlink:href="levelset_8cpp.html" target="_top" xlink:title="levelset.cpp">
<polygon fill="#ffffff" stroke="#000000" points="431,-.5 431,-19.5 500,-19.5 500,-.5 431,-.5"/>
<text text-anchor="middle" x="465.5" y="-7.5" font-family="Helvetica,sans-Serif" font-size="10.00" fill="#000000">levelset.cpp</text>
</a>
</g>
</g>
<!-- Node19&#45;&gt;Node20 -->
<g id="edge19" class="edge">
<title>Node19&#45;&gt;Node20</title>
<path fill="none" stroke="#191970" d="M476.0076,-106.2969C466.1339,-98.5062 455.8323,-88.1513 450.5,-76 442.1897,-57.0622 452.3959,-32.9686 459.5863,-19.7594"/>
<polygon fill="#191970" stroke="#191970" points="473.9491,-109.1277 484.0823,-112.2212 478.09,-103.4838 473.9491,-109.1277"/>
</g>
<!-- Node21 -->
<g id="node17" class="node">
<title>Node21</title>
<g id="a_node17"><a xlink:href="levelset__ops_8_h.html" target="_top" xlink:title="levelset_ops.H">
<polygon fill="#ffffff" stroke="#000000" points="459.5,-56.5 459.5,-75.5 541.5,-75.5 541.5,-56.5 459.5,-56.5"/>
<text text-anchor="middle" x="500.5" y="-63.5" font-family="Helvetica,sans-Serif" font-size="10.00" fill="#000000">levelset_ops.H</text>
</a>
</g>
</g>
<!-- Node19&#45;&gt;Node21 -->
<g id="edge20" class="edge">
<title>Node19&#45;&gt;Node21</title>
<path fill="none" stroke="#191970" d="M500.5,-102.1575C500.5,-93.155 500.5,-82.9199 500.5,-75.6427"/>
<polygon fill="#191970" stroke="#191970" points="497.0001,-102.2455 500.5,-112.2455 504.0001,-102.2456 497.0001,-102.2455"/>
</g>
<!-- Node21&#45;&gt;Node20 -->
<g id="edge21" class="edge">
<title>Node21&#45;&gt;Node20</title>
<path fill="none" stroke="#191970" d="M489.0185,-47.6296C483.1804,-38.2887 476.3248,-27.3197 471.5267,-19.6427"/>
<polygon fill="#191970" stroke="#191970" points="486.1354,-49.6206 494.4035,-56.2455 492.0714,-45.9105 486.1354,-49.6206"/>
</g>
<!-- Node23 -->
<g id="node19" class="node">
<title>Node23</title>
<g id="a_node19"><a xlink:href="_s_d_r_8cpp.html" target="_top" xlink:title="SDR.cpp">
<polygon fill="#ffffff" stroke="#000000" points="560,-56.5 560,-75.5 617,-75.5 617,-56.5 560,-56.5"/>
<text text-anchor="middle" x="588.5" y="-63.5" font-family="Helvetica,sans-Serif" font-size="10.00" fill="#000000">SDR.cpp</text>
</a>
</g>
</g>
<!-- Node22&#45;&gt;Node23 -->
<g id="edge23" class="edge">
<title>Node22&#45;&gt;Node23</title>
<path fill="none" stroke="#191970" d="M583.9803,-102.1575C585.1056,-93.155 586.385,-82.9199 587.2947,-75.6427"/>
<polygon fill="#191970" stroke="#191970" points="580.4868,-101.8886 582.7193,-112.2455 587.4327,-102.7569 580.4868,-101.8886"/>
</g>
<!-- Node25 -->
<g id="node21" class="node">
<title>Node25</title>
<g id="a_node21"><a xlink:href="temperature_8cpp.html" target="_top" xlink:title="temperature.cpp">
<polygon fill="#ffffff" stroke="#000000" points="0,-56.5 0,-75.5 87,-75.5 87,-56.5 0,-56.5"/>
<text text-anchor="middle" x="43.5" y="-63.5" font-family="Helvetica,sans-Serif" font-size="10.00" fill="#000000">temperature.cpp</text>
</a>
</g>
</g>
<!-- Node24&#45;&gt;Node25 -->
<g id="edge25" class="edge">
<title>Node24&#45;&gt;Node25</title>
<path fill="none" stroke="#191970" d="M61.3604,-103.0437C56.9195,-93.8331 51.7735,-83.1598 48.1491,-75.6427"/>
<polygon fill="#191970" stroke="#191970" points="58.3012,-104.7579 65.797,-112.2455 64.6066,-101.7178 58.3012,-104.7579"/>
</g>
<!-- Node27 -->
<g id="node23" class="node">
<title>Node27</title>
<g id="a_node23"><a xlink:href="_t_k_e_8cpp.html" target="_top" xlink:title="TKE.cpp">
<polygon fill="#ffffff" stroke="#000000" points="348,-56.5 348,-75.5 403,-75.5 403,-56.5 348,-56.5"/>
<text text-anchor="middle" x="375.5" y="-63.5" font-family="Helvetica,sans-Serif" font-size="10.00" fill="#000000">TKE.cpp</text>
</a>
</g>
</g>
<!-- Node26&#45;&gt;Node27 -->
<g id="edge27" class="edge">
<title>Node26&#45;&gt;Node27</title>
<path fill="none" stroke="#191970" d="M375.5,-102.1575C375.5,-93.155 375.5,-82.9199 375.5,-75.6427"/>
<polygon fill="#191970" stroke="#191970" points="372.0001,-102.2455 375.5,-112.2455 379.0001,-102.2456 372.0001,-102.2455"/>
</g>
<!-- Node28 -->
<g id="node24" class="node">
<title>Node28</title>
<g id="a_node24"><a xlink:href="_one_eq_ksgs_8cpp.html" target="_top" xlink:title="OneEqKsgs.cpp">
<polygon fill="#ffffff" stroke="#000000" points="241.5,-56.5 241.5,-75.5 329.5,-75.5 329.5,-56.5 241.5,-56.5"/>
<text text-anchor="middle" x="285.5" y="-63.5" font-family="Helvetica,sans-Serif" font-size="10.00" fill="#000000">OneEqKsgs.cpp</text>
</a>
</g>
</g>
<!-- Node26&#45;&gt;Node28 -->
<g id="edge28" class="edge">
<title>Node26&#45;&gt;Node28</title>
<path fill="none" stroke="#191970" d="M351.0216,-106.769C335.0734,-96.8456 314.749,-84.1994 300.9972,-75.6427"/>
<polygon fill="#191970" stroke="#191970" points="349.4835,-109.9342 359.8232,-112.2455 353.1817,-103.9908 349.4835,-109.9342"/>
</g>
</g>
</svg>
        <g id="navigator" transform="translate(0 0)" fill="#404254">
                <rect fill="#f2f5e9" fill-opacity="0.5" stroke="#606060" stroke-width=".5" x="0" y="0" width="60" height="60"/>
                <use id="zoomplus" xlink:href="#zoomPlus" x="17" y="9" onmousedown="handleZoom(evt,'in')"/>
                <use id="zoomminus" xlink:href="#zoomMin" x="42" y="9" onmousedown="handleZoom(evt,'out')"/>
                <use id="reset" xlink:href="#resetDef" x="30" y="36" onmousedown="handleReset()"/>
                <g id="arrowUp" xlink:href="#dirArrow" transform="translate(30 24)" onmousedown="handlePan(0,-1)">
                  <use xlink:href="#rim" fill="#404040">
                        <set attributeName="fill" to="#808080" begin="arrowUp.mouseover" end="arrowUp.mouseout"/>
                  </use>
                  <path fill="none" stroke="white" stroke-width="1.5" d="M0,-3.0v7 M-2.5,-0.5L0,-3.0L2.5,-0.5"/>
                </g>
                <g id="arrowRight" xlink:href="#dirArrow" transform="rotate(90) translate(36 -43)" onmousedown="handlePan(1,0)">
                  <use xlink:href="#rim" fill="#404040">
                        <set attributeName="fill" to="#808080" begin="arrowRight.mouseover" end="arrowRight.mouseout"/>
                  </use>
                  <path fill="none" stroke="white" stroke-width="1.5" d="M0,-3.0v7 M-2.5,-0.5L0,-3.0L2.5,-0.5"/>
                </g>
                <g id="arrowDown" xlink:href="#dirArrow" transform="rotate(180) translate(-30 -48)" onmousedown="handlePan(0,1)">
                  <use xlink:href="#rim" fill="#404040">
                        <set attributeName="fill" to="#808080" begin="arrowDown.mouseover" end="arrowDown.mouseout"/>
                  </use>
                  <path fill="none" stroke="white" stroke-width="1.5" d="M0,-3.0v7 M-2.5,-0.5L0,-3.0L2.5,-0.5"/>
                </g>
                <g id="arrowLeft" xlink:href="#dirArrow" transform="rotate(270) translate(-36 17)" onmousedown="handlePan(-1,0)">
                  <use xlink:href="#rim" fill="#404040">
                        <set attributeName="fill" to="#808080" begin="arrowLeft.mouseover" end="arrowLeft.mouseout"/>
                  </use>
                  <path fill="none" stroke="white" stroke-width="1.5" d="M0,-3.0v7 M-2.5,-0.5L0,-3.0L2.5,-0.5"/>
                </g>
        </g>
        <svg viewBox="0 0 15 15" width="100%" height="30px" preserveAspectRatio="xMaxYMin meet">
         <g id="arrow_out" transform="scale(0.3 0.3)">
          <a xlink:href="_m_l_m_g_options_8_h__dep__incl_org.svg" target="_base">
           <rect id="button" ry="5" rx="5" y="6" x="6" height="38" width="38"
                fill="#f2f5e9" fill-opacity="0.5" stroke="#606060" stroke-width="1.0"/>
           <path id="arrow"
             d="M 11.500037,31.436501 C 11.940474,20.09759 22.043105,11.32322 32.158766,21.979434 L 37.068811,17.246167 C 37.068811,17.246167 37.088388,32 37.088388,32 L 22.160133,31.978069 C 22.160133,31.978069 26.997745,27.140456 26.997745,27.140456 C 18.528582,18.264221 13.291696,25.230495 11.500037,31.436501 z"
             style="fill:#404040;"/>
          </a>
         </g>
        </svg>
</svg>
