<?xml version="1.0" encoding="UTF-8" standalone="no"?>
<!DOCTYPE svg PUBLIC "-//W3C//DTD SVG 1.1//EN"
 "http://www.w3.org/Graphics/SVG/1.1/DTD/svg11.dtd">
<!-- Generated by graphviz version 2.40.1 (20161225.0304)
 -->
<!-- Title: MLMGOptions.H Pages: 1 -->
<!--zoomable 319 -->
<svg id="main" version="1.1" xmlns="http://www.w3.org/2000/svg" xmlns:xlink="http://www.w3.org/1999/xlink" xml:space="preserve" onload="init(evt)">
<style type="text/css"><![CDATA[
.edge:hover path { stroke: red; }
.edge:hover polygon { stroke: red; fill: red; }
]]></style>
<script type="text/javascript"><![CDATA[
var edges = document.getElementsByTagName('g');
if (edges && edges.length) {
  for (var i=0;i<edges.length;i++) {
    if (edges[i].id.substr(0,4)=='edge') {
      edges[i].setAttribute('class','edge');
    }
  }
}
]]></script>
        <defs>
                <circle id="rim" cx="0" cy="0" r="7"/>
                <circle id="rim2" cx="0" cy="0" r="3.5"/>
                <g id="zoomPlus">
                        <use xlink:href="#rim" fill="#404040">
                                <set attributeName="fill" to="#808080" begin="zoomplus.mouseover" end="zoomplus.mouseout"/>
                        </use>
                        <path d="M-4,0h8M0,-4v8" fill="none" stroke="white" stroke-width="1.5" pointer-events="none"/>
                </g>
                <g id="zoomMin">
                        <use xlink:href="#rim" fill="#404040">
                                <set attributeName="fill" to="#808080" begin="zoomminus.mouseover" end="zoomminus.mouseout"/>
                        </use>
                        <path d="M-4,0h8" fill="none" stroke="white" stroke-width="1.5" pointer-events="none"/>
                </g>
                <g id="dirArrow">
                        <path fill="none" stroke="white" stroke-width="1.5" d="M0,-3.0v7 M-2.5,-0.5L0,-3.0L2.5,-0.5"/>
                </g>
               <g id="resetDef">
                       <use xlink:href="#rim2" fill="#404040">
                               <set attributeName="fill" to="#808080" begin="reset.mouseover" end="reset.mouseout"/>
                       </use>
               </g>
        </defs>

<script type="text/javascript">
var viewWidth = 851;
var viewHeight = 319;
var sectionId = 'dynsection-1';
</script>
<script xlink:href="svgpan.js"/>
<svg id="graph" class="graph">
<g id="viewport">
<title>MLMGOptions.H</title>
<polygon fill="#ffffff" stroke="transparent" points="-4,4 -4,-315 847,-315 847,4 -4,4"/>
<!-- Node4 -->
<g id="node1" class="node">
<title>Node4</title>
<polygon fill="#bfbfbf" stroke="#000000" points="641.5,-291.5 641.5,-310.5 731.5,-310.5 731.5,-291.5 641.5,-291.5"/>
<text text-anchor="middle" x="686.5" y="-298.5" font-family="Helvetica,sans-Serif" font-size="10.00" fill="#000000">MLMGOptions.H</text>
</g>
<!-- Node5 -->
<g id="node2" class="node">
<title>Node5</title>
<g id="a_node2"><a xlink:href="incflo___m_a_c__projection_8cpp.html" target="_top" xlink:title="incflo_MAC_projection.cpp">
<polygon fill="#ffffff" stroke="#000000" points="414.5,-230 414.5,-249 548.5,-249 548.5,-230 414.5,-230"/>
<text text-anchor="middle" x="481.5" y="-237" font-family="Helvetica,sans-Serif" font-size="10.00" fill="#000000">incflo_MAC_projection.cpp</text>
</a>
</g>
</g>
<!-- Node4&#45;&gt;Node5 -->
<g id="edge1" class="edge">
<title>Node4&#45;&gt;Node5</title>
<path fill="none" stroke="#191970" d="M644.5002,-288.4001C605.591,-276.7273 548.5674,-259.6202 513.3063,-249.0419"/>
<polygon fill="#191970" stroke="#191970" points="643.8847,-291.8695 654.4688,-291.3906 645.8962,-285.1647 643.8847,-291.8695"/>
</g>
<!-- Node6 -->
<g id="node3" class="node">
<title>Node6</title>
<g id="a_node3"><a xlink:href="_diffusion_ops_8_h.html" target="_top" xlink:title="DiffusionOps.H">
<polygon fill="#ffffff" stroke="#000000" points="566.5,-230 566.5,-249 650.5,-249 650.5,-230 566.5,-230"/>
<text text-anchor="middle" x="608.5" y="-237" font-family="Helvetica,sans-Serif" font-size="10.00" fill="#000000">DiffusionOps.H</text>
</a>
</g>
</g>
<!-- Node4&#45;&gt;Node6 -->
<g id="edge2" class="edge">
<title>Node4&#45;&gt;Node6</title>
<path fill="none" stroke="#191970" d="M666.3964,-285.1491C651.9035,-273.722 632.8194,-258.6749 620.6019,-249.0419"/>
<polygon fill="#191970" stroke="#191970" points="664.2927,-287.9475 674.3125,-291.3906 668.6268,-282.4506 664.2927,-287.9475"/>
</g>
<!-- Node14 -->
<g id="node11" class="node">
<title>Node14</title>
<g id="a_node11"><a xlink:href="icns__ops_8cpp.html" target="_top" xlink:title="icns_ops.cpp">
<polygon fill="#ffffff" stroke="#000000" points="649.5,-.5 649.5,-19.5 723.5,-19.5 723.5,-.5 649.5,-.5"/>
<text text-anchor="middle" x="686.5" y="-7.5" font-family="Helvetica,sans-Serif" font-size="10.00" fill="#000000">icns_ops.cpp</text>
</a>
</g>
</g>
<!-- Node4&#45;&gt;Node14 -->
<g id="edge26" class="edge">
<title>Node4&#45;&gt;Node14</title>
<path fill="none" stroke="#191970" d="M694.3859,-282.0322C703.5702,-258.1865 717.5,-215.7909 717.5,-178 717.5,-178 717.5,-178 717.5,-122 717.5,-82.8595 699.6973,-38.722 691.0742,-19.6387"/>
<polygon fill="#191970" stroke="#191970" points="691.1334,-280.7395 690.6808,-291.3247 697.6356,-283.3321 691.1334,-280.7395"/>
</g>
<!-- Node24 -->
<g id="node21" class="node">
<title>Node24</title>
<g id="a_node21"><a xlink:href="incflo__apply__nodal__projection_8cpp.html" target="_top" xlink:title="incflo_apply_nodal\l_projection.cpp">
<polygon fill="#ffffff" stroke="#000000" points="746,-224.5 746,-254.5 843,-254.5 843,-224.5 746,-224.5"/>
<text text-anchor="start" x="754" y="-242.5" font-family="Helvetica,sans-Serif" font-size="10.00" fill="#000000">incflo_apply_nodal</text>
<text text-anchor="middle" x="794.5" y="-231.5" font-family="Helvetica,sans-Serif" font-size="10.00" fill="#000000">_projection.cpp</text>
</a>
</g>
</g>
<!-- Node4&#45;&gt;Node24 -->
<g id="edge27" class="edge">
<title>Node4&#45;&gt;Node24</title>
<path fill="none" stroke="#191970" d="M712.1544,-286.3912C729.0277,-276.7829 751.0541,-264.24 768.0802,-254.5446"/>
<polygon fill="#191970" stroke="#191970" points="710.3329,-283.4007 703.375,-291.3906 713.7968,-289.4836 710.3329,-283.4007"/>
</g>
<!-- Node7 -->
<g id="node4" class="node">
<title>Node7</title>
<g id="a_node4"><a xlink:href="_p_d_e_8_h.html" target="_top" xlink:title="PDE.H">
<polygon fill="#ffffff" stroke="#000000" points="324.5,-168.5 324.5,-187.5 372.5,-187.5 372.5,-168.5 324.5,-168.5"/>
<text text-anchor="middle" x="348.5" y="-175.5" font-family="Helvetica,sans-Serif" font-size="10.00" fill="#000000">PDE.H</text>
</a>
</g>
</g>
<!-- Node6&#45;&gt;Node7 -->
<g id="edge3" class="edge">
<title>Node6&#45;&gt;Node7</title>
<path fill="none" stroke="#191970" d="M568.5989,-227.0474C564.8578,-225.9784 561.1147,-224.9455 557.5,-224 491.1836,-206.6531 411.8988,-190.4171 372.7839,-182.701"/>
<polygon fill="#191970" stroke="#191970" points="567.8264,-230.4683 578.4074,-229.9269 569.7982,-223.7517 567.8264,-230.4683"/>
</g>
<!-- Node13 -->
<g id="node10" class="node">
<title>Node13</title>
<g id="a_node10"><a xlink:href="icns__ops_8_h.html" target="_top" xlink:title="icns_ops.H">
<polygon fill="#ffffff" stroke="#000000" points="623.5,-56.5 623.5,-75.5 689.5,-75.5 689.5,-56.5 623.5,-56.5"/>
<text text-anchor="middle" x="656.5" y="-63.5" font-family="Helvetica,sans-Serif" font-size="10.00" fill="#000000">icns_ops.H</text>
</a>
</g>
</g>
<!-- Node6&#45;&gt;Node13 -->
<g id="edge24" class="edge">
<title>Node6&#45;&gt;Node13</title>
<path fill="none" stroke="#191970" d="M613.9355,-219.8528C624.2128,-182.7047 646.1486,-103.4161 653.8,-75.7595"/>
<polygon fill="#191970" stroke="#191970" points="610.4423,-219.3535 611.1491,-229.9248 617.1888,-221.2201 610.4423,-219.3535"/>
</g>
<!-- Node15 -->
<g id="node12" class="node">
<title>Node15</title>
<g id="a_node12"><a xlink:href="icns__diffusion_8_h.html" target="_top" xlink:title="icns_diffusion.H">
<polygon fill="#ffffff" stroke="#000000" points="518,-56.5 518,-75.5 605,-75.5 605,-56.5 518,-56.5"/>
<text text-anchor="middle" x="561.5" y="-63.5" font-family="Helvetica,sans-Serif" font-size="10.00" fill="#000000">icns_diffusion.H</text>
</a>
</g>
</g>
<!-- Node6&#45;&gt;Node15 -->
<g id="edge25" class="edge">
<title>Node6&#45;&gt;Node15</title>
<path fill="none" stroke="#191970" d="M603.1777,-219.8528C593.1145,-182.7047 571.6358,-103.4161 564.1438,-75.7595"/>
<polygon fill="#191970" stroke="#191970" points="599.9131,-221.1878 605.9061,-229.9248 606.6696,-219.3575 599.9131,-221.1878"/>
</g>
<!-- Node23 -->
<g id="node20" class="node">
<title>Node23</title>
<g id="a_node20"><a xlink:href="_diffusion_ops_8cpp.html" target="_top" xlink:title="DiffusionOps.cpp">
<polygon fill="#ffffff" stroke="#000000" points="214.5,-168.5 214.5,-187.5 306.5,-187.5 306.5,-168.5 214.5,-168.5"/>
<text text-anchor="middle" x="260.5" y="-175.5" font-family="Helvetica,sans-Serif" font-size="10.00" fill="#000000">DiffusionOps.cpp</text>
</a>
</g>
</g>
<!-- Node6&#45;&gt;Node23 -->
<g id="edge23" class="edge">
<title>Node6&#45;&gt;Node23</title>
<path fill="none" stroke="#191970" d="M570.1101,-227.1748C565.8783,-226.013 561.6135,-224.9258 557.5,-224 451.4142,-200.1252 422.7842,-205.7282 315.5,-188 312.6274,-187.5253 309.6728,-187.0246 306.6948,-186.5104"/>
<polygon fill="#191970" stroke="#191970" points="569.2599,-230.5722 579.8382,-229.9805 571.1998,-223.8464 569.2599,-230.5722"/>
</g>
<!-- Node8 -->
<g id="node5" class="node">
<title>Node8</title>
<g id="a_node5"><a xlink:href="density_8_h.html" target="_top" xlink:title="density.H">
<polygon fill="#ffffff" stroke="#000000" points="151,-112.5 151,-131.5 210,-131.5 210,-112.5 151,-112.5"/>
<text text-anchor="middle" x="180.5" y="-119.5" font-family="Helvetica,sans-Serif" font-size="10.00" fill="#000000">density.H</text>
</a>
</g>
</g>
<!-- Node7&#45;&gt;Node8 -->
<g id="edge4" class="edge">
<title>Node7&#45;&gt;Node8</title>
<path fill="none" stroke="#191970" d="M314.9089,-166.803C283.8894,-156.4631 238.3156,-141.2719 209.0227,-131.5076"/>
<polygon fill="#191970" stroke="#191970" points="313.836,-170.1346 324.4297,-169.9766 316.0497,-163.4938 313.836,-170.1346"/>
</g>
<!-- Node11 -->
<g id="node8" class="node">
<title>Node11</title>
<g id="a_node8"><a xlink:href="icns_8_h.html" target="_top" xlink:title="icns.H">
<polygon fill="#ffffff" stroke="#000000" points="442,-112.5 442,-131.5 487,-131.5 487,-112.5 442,-112.5"/>
<text text-anchor="middle" x="464.5" y="-119.5" font-family="Helvetica,sans-Serif" font-size="10.00" fill="#000000">icns.H</text>
</a>
</g>
</g>
<!-- Node7&#45;&gt;Node11 -->
<g id="edge8" class="edge">
<title>Node7&#45;&gt;Node11</title>
<path fill="none" stroke="#191970" d="M377.5537,-163.9741C398.5565,-153.8348 426.3691,-140.408 444.8191,-131.5011"/>
<polygon fill="#191970" stroke="#191970" points="375.925,-160.8738 368.4411,-168.3733 378.9683,-167.1776 375.925,-160.8738"/>
</g>
<!-- Node17 -->
<g id="node14" class="node">
<title>Node17</title>
<g id="a_node14"><a xlink:href="_s_d_r_8_h.html" target="_top" xlink:title="SDR.H">
<polygon fill="#ffffff" stroke="#000000" points="43,-112.5 43,-131.5 92,-131.5 92,-112.5 43,-112.5"/>
<text text-anchor="middle" x="67.5" y="-119.5" font-family="Helvetica,sans-Serif" font-size="10.00" fill="#000000">SDR.H</text>
</a>
</g>
</g>
<!-- Node7&#45;&gt;Node17 -->
<g id="edge17" class="edge">
<title>Node7&#45;&gt;Node17</title>
<path fill="none" stroke="#191970" d="M314.6757,-168.005C227.6867,-147.1881 135.5868,-132.2658 92.3326,-125.6714"/>
<polygon fill="#191970" stroke="#191970" points="313.8912,-171.4161 324.4343,-170.3708 315.5405,-164.6132 313.8912,-171.4161"/>
</g>
<!-- Node19 -->
<g id="node16" class="node">
<title>Node19</title>
<g id="a_node16"><a xlink:href="temperature_8_h.html" target="_top" xlink:title="temperature.H">
<polygon fill="#ffffff" stroke="#000000" points="228,-112.5 228,-131.5 307,-131.5 307,-112.5 228,-112.5"/>
<text text-anchor="middle" x="267.5" y="-119.5" font-family="Helvetica,sans-Serif" font-size="10.00" fill="#000000">temperature.H</text>
</a>
</g>
</g>
<!-- Node7&#45;&gt;Node19 -->
<g id="edge19" class="edge">
<title>Node7&#45;&gt;Node19</title>
<path fill="none" stroke="#191970" d="M326.066,-162.49C311.7746,-152.6096 293.7084,-140.1194 281.4474,-131.6427"/>
<polygon fill="#191970" stroke="#191970" points="324.1749,-165.4376 334.3909,-168.2455 328.1557,-159.6797 324.1749,-165.4376"/>
</g>
<!-- Node21 -->
<g id="node18" class="node">
<title>Node21</title>
<g id="a_node18"><a xlink:href="_t_k_e_8_h.html" target="_top" xlink:title="TKE.H">
<polygon fill="#ffffff" stroke="#000000" points="325,-112.5 325,-131.5 372,-131.5 372,-112.5 325,-112.5"/>
<text text-anchor="middle" x="348.5" y="-119.5" font-family="Helvetica,sans-Serif" font-size="10.00" fill="#000000">TKE.H</text>
</a>
</g>
</g>
<!-- Node7&#45;&gt;Node21 -->
<g id="edge21" class="edge">
<title>Node7&#45;&gt;Node21</title>
<path fill="none" stroke="#191970" d="M348.5,-158.1575C348.5,-149.155 348.5,-138.9199 348.5,-131.6427"/>
<polygon fill="#191970" stroke="#191970" points="345.0001,-158.2455 348.5,-168.2455 352.0001,-158.2456 345.0001,-158.2455"/>
</g>
<!-- Node9 -->
<g id="node6" class="node">
<title>Node9</title>
<g id="a_node6"><a xlink:href="density_8cpp.html" target="_top" xlink:title="density.cpp">
<polygon fill="#ffffff" stroke="#000000" points="116,-.5 116,-19.5 183,-19.5 183,-.5 116,-.5"/>
<text text-anchor="middle" x="149.5" y="-7.5" font-family="Helvetica,sans-Serif" font-size="10.00" fill="#000000">density.cpp</text>
</a>
</g>
</g>
<!-- Node8&#45;&gt;Node9 -->
<g id="edge5" class="edge">
<title>Node8&#45;&gt;Node9</title>
<path fill="none" stroke="#191970" d="M176.1306,-102.2398C173.1158,-89.0722 168.8757,-71.4185 164.5,-56 160.9224,-43.3939 156.135,-29.0699 152.9406,-19.8029"/>
<polygon fill="#191970" stroke="#191970" points="172.7391,-103.1113 178.3508,-112.0979 179.568,-101.5732 172.7391,-103.1113"/>
</g>
<!-- Node10 -->
<g id="node7" class="node">
<title>Node10</title>
<g id="a_node7"><a xlink:href="density__ops_8_h.html" target="_top" xlink:title="density_ops.H">
<polygon fill="#ffffff" stroke="#000000" points="75.5,-56.5 75.5,-75.5 155.5,-75.5 155.5,-56.5 75.5,-56.5"/>
<text text-anchor="middle" x="115.5" y="-63.5" font-family="Helvetica,sans-Serif" font-size="10.00" fill="#000000">density_ops.H</text>
</a>
</g>
</g>
<!-- Node8&#45;&gt;Node10 -->
<g id="edge6" class="edge">
<title>Node8&#45;&gt;Node10</title>
<path fill="none" stroke="#191970" d="M161.5165,-105.645C150.2121,-95.9058 136.253,-83.8795 126.6924,-75.6427"/>
<polygon fill="#191970" stroke="#191970" points="159.3173,-108.3701 169.1779,-112.2455 163.8862,-103.0668 159.3173,-108.3701"/>
</g>
<!-- Node10&#45;&gt;Node9 -->
<g id="edge7" class="edge">
<title>Node10&#45;&gt;Node9</title>
<path fill="none" stroke="#191970" d="M126.6535,-47.6296C132.3247,-38.2887 138.9845,-27.3197 143.6455,-19.6427"/>
<polygon fill="#191970" stroke="#191970" points="123.6204,-45.8812 121.4223,-56.2455 129.6039,-49.5141 123.6204,-45.8812"/>
</g>
<!-- Node12 -->
<g id="node9" class="node">
<title>Node12</title>
<g id="a_node9"><a xlink:href="icns_8cpp.html" target="_top" xlink:title="icns.cpp">
<polygon fill="#ffffff" stroke="#000000" points="486,-.5 486,-19.5 539,-19.5 539,-.5 486,-.5"/>
<text text-anchor="middle" x="512.5" y="-7.5" font-family="Helvetica,sans-Serif" font-size="10.00" fill="#000000">icns.cpp</text>
</a>
</g>
</g>
<!-- Node11&#45;&gt;Node12 -->
<g id="edge9" class="edge">
<title>Node11&#45;&gt;Node12</title>
<path fill="none" stroke="#191970" d="M441.9479,-105.9746C426.2032,-92.7325 409.7724,-73.3576 420.5,-56 434.6762,-33.0624 464.1372,-21.1799 485.9195,-15.2912"/>
<polygon fill="#191970" stroke="#191970" points="439.9506,-108.8568 449.9713,-112.2972 444.2832,-103.3587 439.9506,-108.8568"/>
</g>
<!-- Node11&#45;&gt;Node13 -->
<g id="edge10" class="edge">
<title>Node11&#45;&gt;Node13</title>
<path fill="none" stroke="#191970" d="M497.0939,-112.4934C532.417,-102.1909 588.4577,-85.8457 623.816,-75.5328"/>
<polygon fill="#191970" stroke="#191970" points="495.8989,-109.1961 487.2789,-115.3562 497.8589,-115.9161 495.8989,-109.1961"/>
</g>
<!-- Node11&#45;&gt;Node15 -->
<g id="edge13" class="edge">
<title>Node11&#45;&gt;Node15</title>
<path fill="none" stroke="#191970" d="M490.4016,-107.0465C507.6609,-97.0824 529.8376,-84.2794 544.7975,-75.6427"/>
<polygon fill="#191970" stroke="#191970" points="488.3065,-104.2146 481.3961,-112.2455 491.8064,-110.2768 488.3065,-104.2146"/>
</g>
<!-- Node16 -->
<g id="node13" class="node">
<title>Node16</title>
<g id="a_node13"><a xlink:href="icns__bcop_8_h.html" target="_top" xlink:title="icns_bcop.H">
<polygon fill="#ffffff" stroke="#000000" points="429,-56.5 429,-75.5 500,-75.5 500,-56.5 429,-56.5"/>
<text text-anchor="middle" x="464.5" y="-63.5" font-family="Helvetica,sans-Serif" font-size="10.00" fill="#000000">icns_bcop.H</text>
</a>
</g>
</g>
<!-- Node11&#45;&gt;Node16 -->
<g id="edge15" class="edge">
<title>Node11&#45;&gt;Node16</title>
<path fill="none" stroke="#191970" d="M464.5,-102.1575C464.5,-93.155 464.5,-82.9199 464.5,-75.6427"/>
<polygon fill="#191970" stroke="#191970" points="461.0001,-102.2455 464.5,-112.2455 468.0001,-102.2456 461.0001,-102.2455"/>
</g>
<!-- Node13&#45;&gt;Node12 -->
<g id="edge11" class="edge">
<title>Node13&#45;&gt;Node12</title>
<path fill="none" stroke="#191970" d="M622.1818,-52.6541C595.922,-42.4419 560.3508,-28.6086 536.9315,-19.5011"/>
<polygon fill="#191970" stroke="#191970" points="621.1569,-56.0108 631.7455,-56.3733 623.694,-49.4867 621.1569,-56.0108"/>
</g>
<!-- Node13&#45;&gt;Node14 -->
<g id="edge12" class="edge">
<title>Node13&#45;&gt;Node14</title>
<path fill="none" stroke="#191970" d="M666.498,-47.3372C671.4676,-38.0605 677.2644,-27.2398 681.3343,-19.6427"/>
<polygon fill="#191970" stroke="#191970" points="663.3627,-45.7779 661.7256,-56.2455 669.5331,-49.0835 663.3627,-45.7779"/>
</g>
<!-- Node15&#45;&gt;Node12 -->
<g id="edge14" class="edge">
<title>Node15&#45;&gt;Node12</title>
<path fill="none" stroke="#191970" d="M546.1878,-48.5004C537.8553,-38.9775 527.8647,-27.5596 520.9373,-19.6427"/>
<polygon fill="#191970" stroke="#191970" points="543.7457,-51.0245 552.9649,-56.2455 549.0138,-46.415 543.7457,-51.0245"/>
</g>
<!-- Node16&#45;&gt;Node12 -->
<g id="edge16" class="edge">
<title>Node16&#45;&gt;Node12</title>
<path fill="none" stroke="#191970" d="M479.4997,-48.5004C487.6622,-38.9775 497.4489,-27.5596 504.2349,-19.6427"/>
<polygon fill="#191970" stroke="#191970" points="476.7115,-46.3752 472.861,-56.2455 482.0263,-50.9307 476.7115,-46.3752"/>
</g>
<!-- Node18 -->
<g id="node15" class="node">
<title>Node18</title>
<g id="a_node15"><a xlink:href="_s_d_r_8cpp.html" target="_top" xlink:title="SDR.cpp">
<polygon fill="#ffffff" stroke="#000000" points="0,-56.5 0,-75.5 57,-75.5 57,-56.5 0,-56.5"/>
<text text-anchor="middle" x="28.5" y="-63.5" font-family="Helvetica,sans-Serif" font-size="10.00" fill="#000000">SDR.cpp</text>
</a>
</g>
</g>
<!-- Node17&#45;&gt;Node18 -->
<g id="edge18" class="edge">
<title>Node17&#45;&gt;Node18</title>
<path fill="none" stroke="#191970" d="M54.9092,-103.9209C48.3605,-94.5176 40.6176,-83.3997 35.2154,-75.6427"/>
<polygon fill="#191970" stroke="#191970" points="52.1196,-106.0397 60.7067,-112.2455 57.8639,-102.0392 52.1196,-106.0397"/>
</g>
<!-- Node20 -->
<g id="node17" class="node">
<title>Node20</title>
<g id="a_node17"><a xlink:href="temperature_8cpp.html" target="_top" xlink:title="temperature.cpp">
<polygon fill="#ffffff" stroke="#000000" points="212,-56.5 212,-75.5 299,-75.5 299,-56.5 212,-56.5"/>
<text text-anchor="middle" x="255.5" y="-63.5" font-family="Helvetica,sans-Serif" font-size="10.00" fill="#000000">temperature.cpp</text>
</a>
</g>
</g>
<!-- Node19&#45;&gt;Node20 -->
<g id="edge20" class="edge">
<title>Node19&#45;&gt;Node20</title>
<path fill="none" stroke="#191970" d="M263.3115,-102.4538C261.3672,-93.3803 259.1428,-82.9998 257.5663,-75.6427"/>
<polygon fill="#191970" stroke="#191970" points="259.8921,-103.2009 265.4098,-112.2455 266.7367,-101.7341 259.8921,-103.2009"/>
</g>
<!-- Node22 -->
<g id="node19" class="node">
<title>Node22</title>
<g id="a_node19"><a xlink:href="_t_k_e_8cpp.html" target="_top" xlink:title="TKE.cpp">
<polygon fill="#ffffff" stroke="#000000" points="317,-56.5 317,-75.5 372,-75.5 372,-56.5 317,-56.5"/>
<text text-anchor="middle" x="344.5" y="-63.5" font-family="Helvetica,sans-Serif" font-size="10.00" fill="#000000">TKE.cpp</text>
</a>
</g>
</g>
<!-- Node21&#45;&gt;Node22 -->
<g id="edge22" class="edge">
<title>Node21&#45;&gt;Node22</title>
<path fill="none" stroke="#191970" d="M347.0827,-102.1575C346.4396,-93.155 345.7086,-82.9199 345.1888,-75.6427"/>
<polygon fill="#191970" stroke="#191970" points="343.5996,-102.5204 347.8033,-112.2455 350.5818,-102.0216 343.5996,-102.5204"/>
</g>
</g>
</svg>
        <g id="navigator" transform="translate(0 0)" fill="#404254">
                <rect fill="#f2f5e9" fill-opacity="0.5" stroke="#606060" stroke-width=".5" x="0" y="0" width="60" height="60"/>
                <use id="zoomplus" xlink:href="#zoomPlus" x="17" y="9" onmousedown="handleZoom(evt,'in')"/>
                <use id="zoomminus" xlink:href="#zoomMin" x="42" y="9" onmousedown="handleZoom(evt,'out')"/>
                <use id="reset" xlink:href="#resetDef" x="30" y="36" onmousedown="handleReset()"/>
                <g id="arrowUp" xlink:href="#dirArrow" transform="translate(30 24)" onmousedown="handlePan(0,-1)">
                  <use xlink:href="#rim" fill="#404040">
                        <set attributeName="fill" to="#808080" begin="arrowUp.mouseover" end="arrowUp.mouseout"/>
                  </use>
                  <path fill="none" stroke="white" stroke-width="1.5" d="M0,-3.0v7 M-2.5,-0.5L0,-3.0L2.5,-0.5"/>
                </g>
                <g id="arrowRight" xlink:href="#dirArrow" transform="rotate(90) translate(36 -43)" onmousedown="handlePan(1,0)">
                  <use xlink:href="#rim" fill="#404040">
                        <set attributeName="fill" to="#808080" begin="arrowRight.mouseover" end="arrowRight.mouseout"/>
                  </use>
                  <path fill="none" stroke="white" stroke-width="1.5" d="M0,-3.0v7 M-2.5,-0.5L0,-3.0L2.5,-0.5"/>
                </g>
                <g id="arrowDown" xlink:href="#dirArrow" transform="rotate(180) translate(-30 -48)" onmousedown="handlePan(0,1)">
                  <use xlink:href="#rim" fill="#404040">
                        <set attributeName="fill" to="#808080" begin="arrowDown.mouseover" end="arrowDown.mouseout"/>
                  </use>
                  <path fill="none" stroke="white" stroke-width="1.5" d="M0,-3.0v7 M-2.5,-0.5L0,-3.0L2.5,-0.5"/>
                </g>
                <g id="arrowLeft" xlink:href="#dirArrow" transform="rotate(270) translate(-36 17)" onmousedown="handlePan(-1,0)">
                  <use xlink:href="#rim" fill="#404040">
                        <set attributeName="fill" to="#808080" begin="arrowLeft.mouseover" end="arrowLeft.mouseout"/>
                  </use>
                  <path fill="none" stroke="white" stroke-width="1.5" d="M0,-3.0v7 M-2.5,-0.5L0,-3.0L2.5,-0.5"/>
                </g>
        </g>
        <svg viewBox="0 0 15 15" width="100%" height="30px" preserveAspectRatio="xMaxYMin meet">
         <g id="arrow_out" transform="scale(0.3 0.3)">
          <a xlink:href="_m_l_m_g_options_8_h__dep__incl_org.svg" target="_base">
           <rect id="button" ry="5" rx="5" y="6" x="6" height="38" width="38"
                fill="#f2f5e9" fill-opacity="0.5" stroke="#606060" stroke-width="1.0"/>
           <path id="arrow"
             d="M 11.500037,31.436501 C 11.940474,20.09759 22.043105,11.32322 32.158766,21.979434 L 37.068811,17.246167 C 37.068811,17.246167 37.088388,32 37.088388,32 L 22.160133,31.978069 C 22.160133,31.978069 26.997745,27.140456 26.997745,27.140456 C 18.528582,18.264221 13.291696,25.230495 11.500037,31.436501 z"
             style="fill:#404040;"/>
          </a>
         </g>
        </svg>
</svg>
