<?xml version="1.0" encoding="UTF-8" standalone="no"?>
<!DOCTYPE svg PUBLIC "-//W3C//DTD SVG 1.1//EN"
 "http://www.w3.org/Graphics/SVG/1.1/DTD/svg11.dtd">
<!-- Generated by graphviz version 2.40.1 (20161225.0304)
 -->
<!-- Title: MOL.H Pages: 1 -->
<svg width="558pt" height="196pt"
 viewBox="0.00 0.00 558.00 196.00" xmlns="http://www.w3.org/2000/svg" xmlns:xlink="http://www.w3.org/1999/xlink">
<g id="graph0" class="graph" transform="scale(1 1) rotate(0) translate(4 192)">
<title>MOL.H</title>
<polygon fill="#ffffff" stroke="transparent" points="-4,4 -4,-192 554,-192 554,4 -4,4"/>
<!-- Node19 -->
<g id="node1" class="node">
<title>Node19</title>
<polygon fill="#bfbfbf" stroke="#000000" points="220.5,-168.5 220.5,-187.5 268.5,-187.5 268.5,-168.5 220.5,-168.5"/>
<text text-anchor="middle" x="244.5" y="-175.5" font-family="Helvetica,sans-Serif" font-size="10.00" fill="#000000">MOL.H</text>
</g>
<!-- Node20 -->
<g id="node2" class="node">
<title>Node20</title>
<g id="a_node2"><a xlink:href="incflo__mol__fluxes_8cpp.html" target="_top" xlink:title="incflo_mol_fluxes.cpp">
<polygon fill="#ffffff" stroke="#000000" points="0,-112.5 0,-131.5 111,-131.5 111,-112.5 0,-112.5"/>
<text text-anchor="middle" x="55.5" y="-119.5" font-family="Helvetica,sans-Serif" font-size="10.00" fill="#000000">incflo_mol_fluxes.cpp</text>
</a>
</g>
</g>
<!-- Node19&#45;&gt;Node20 -->
<g id="edge1" class="edge">
<title>Node19&#45;&gt;Node20</title>
<path fill="none" stroke="#191970" d="M210.4416,-167.9086C175.5687,-157.5759 121.774,-141.6368 87.6223,-131.5177"/>
<polygon fill="#191970" stroke="#191970" points="209.5962,-171.3085 220.1785,-170.7936 211.5848,-164.5969 209.5962,-171.3085"/>
</g>
<!-- Node21 -->
<g id="node3" class="node">
<title>Node21</title>
<g id="a_node3"><a xlink:href="incflo__mol__predict_8cpp.html" target="_top" xlink:title="incflo_mol_predict.cpp">
<polygon fill="#ffffff" stroke="#000000" points="129.5,-112.5 129.5,-131.5 243.5,-131.5 243.5,-112.5 129.5,-112.5"/>
<text text-anchor="middle" x="186.5" y="-119.5" font-family="Helvetica,sans-Serif" font-size="10.00" fill="#000000">incflo_mol_predict.cpp</text>
</a>
</g>
</g>
<!-- Node19&#45;&gt;Node21 -->
<g id="edge2" class="edge">
<title>Node19&#45;&gt;Node21</title>
<path fill="none" stroke="#191970" d="M226.9707,-161.0751C216.9917,-151.4402 204.8524,-139.7196 196.4871,-131.6427"/>
<polygon fill="#191970" stroke="#191970" points="224.772,-163.8175 234.3972,-168.2455 229.6342,-158.7817 224.772,-163.8175"/>
</g>
<!-- Node22 -->
<g id="node4" class="node">
<title>Node22</title>
<g id="a_node4"><a xlink:href="_adv_op___m_o_l_8_h.html" target="_top" xlink:title="AdvOp_MOL.H">
<polygon fill="#ffffff" stroke="#000000" points="262,-112.5 262,-131.5 345,-131.5 345,-112.5 262,-112.5"/>
<text text-anchor="middle" x="303.5" y="-119.5" font-family="Helvetica,sans-Serif" font-size="10.00" fill="#000000">AdvOp_MOL.H</text>
</a>
</g>
</g>
<!-- Node19&#45;&gt;Node22 -->
<g id="edge3" class="edge">
<title>Node19&#45;&gt;Node22</title>
<path fill="none" stroke="#191970" d="M262.0307,-161.3607C272.2377,-151.6727 284.7469,-139.7995 293.3408,-131.6427"/>
<polygon fill="#191970" stroke="#191970" points="259.6206,-158.8227 254.777,-168.2455 264.4396,-163.8998 259.6206,-158.8227"/>
</g>
<!-- Node31 -->
<g id="node13" class="node">
<title>Node31</title>
<g id="a_node13"><a xlink:href="incflo__advance_8cpp.html" target="_top" xlink:title="incflo_advance.cpp">
<polygon fill="#ffffff" stroke="#000000" points="363,-112.5 363,-131.5 464,-131.5 464,-112.5 363,-112.5"/>
<text text-anchor="middle" x="413.5" y="-119.5" font-family="Helvetica,sans-Serif" font-size="10.00" fill="#000000">incflo_advance.cpp</text>
</a>
</g>
</g>
<!-- Node19&#45;&gt;Node31 -->
<g id="edge12" class="edge">
<title>Node19&#45;&gt;Node31</title>
<path fill="none" stroke="#191970" d="M278.291,-166.803C309.4952,-156.4631 355.3403,-141.2719 384.8075,-131.5076"/>
<polygon fill="#191970" stroke="#191970" points="277.1051,-163.5087 268.7136,-169.9766 279.3069,-170.1534 277.1051,-163.5087"/>
</g>
<!-- Node23 -->
<g id="node5" class="node">
<title>Node23</title>
<g id="a_node5"><a xlink:href="density_8cpp.html" target="_top" xlink:title="density.cpp">
<polygon fill="#ffffff" stroke="#000000" points="58,-56.5 58,-75.5 125,-75.5 125,-56.5 58,-56.5"/>
<text text-anchor="middle" x="91.5" y="-63.5" font-family="Helvetica,sans-Serif" font-size="10.00" fill="#000000">density.cpp</text>
</a>
</g>
</g>
<!-- Node22&#45;&gt;Node23 -->
<g id="edge4" class="edge">
<title>Node22&#45;&gt;Node23</title>
<path fill="none" stroke="#191970" d="M257.2973,-109.7955C217.3992,-99.2564 160.7032,-84.2801 125.0253,-74.8557"/>
<polygon fill="#191970" stroke="#191970" points="256.4936,-113.2032 267.0559,-112.3733 258.2814,-106.4353 256.4936,-113.2032"/>
</g>
<!-- Node24 -->
<g id="node6" class="node">
<title>Node24</title>
<g id="a_node6"><a xlink:href="icns__ops_8_h.html" target="_top" xlink:title="icns_ops.H">
<polygon fill="#ffffff" stroke="#000000" points="143.5,-56.5 143.5,-75.5 209.5,-75.5 209.5,-56.5 143.5,-56.5"/>
<text text-anchor="middle" x="176.5" y="-63.5" font-family="Helvetica,sans-Serif" font-size="10.00" fill="#000000">icns_ops.H</text>
</a>
</g>
</g>
<!-- Node22&#45;&gt;Node24 -->
<g id="edge5" class="edge">
<title>Node22&#45;&gt;Node24</title>
<path fill="none" stroke="#191970" d="M272.3108,-108.2473C249.2463,-98.0771 218.4288,-84.4883 198.0472,-75.5011"/>
<polygon fill="#191970" stroke="#191970" points="271.1058,-111.5411 281.6679,-112.3733 273.9301,-105.1361 271.1058,-111.5411"/>
</g>
<!-- Node27 -->
<g id="node9" class="node">
<title>Node27</title>
<g id="a_node9"><a xlink:href="levelset_8cpp.html" target="_top" xlink:title="levelset.cpp">
<polygon fill="#ffffff" stroke="#000000" points="228,-56.5 228,-75.5 297,-75.5 297,-56.5 228,-56.5"/>
<text text-anchor="middle" x="262.5" y="-63.5" font-family="Helvetica,sans-Serif" font-size="10.00" fill="#000000">levelset.cpp</text>
</a>
</g>
</g>
<!-- Node22&#45;&gt;Node27 -->
<g id="edge8" class="edge">
<title>Node22&#45;&gt;Node27</title>
<path fill="none" stroke="#191970" d="M290.2636,-103.9209C283.3789,-94.5176 275.2391,-83.3997 269.5598,-75.6427"/>
<polygon fill="#191970" stroke="#191970" points="287.6269,-106.2445 296.3583,-112.2455 293.2749,-102.1093 287.6269,-106.2445"/>
</g>
<!-- Node28 -->
<g id="node10" class="node">
<title>Node28</title>
<g id="a_node10"><a xlink:href="_s_d_r_8cpp.html" target="_top" xlink:title="SDR.cpp">
<polygon fill="#ffffff" stroke="#000000" points="315,-56.5 315,-75.5 372,-75.5 372,-56.5 315,-56.5"/>
<text text-anchor="middle" x="343.5" y="-63.5" font-family="Helvetica,sans-Serif" font-size="10.00" fill="#000000">SDR.cpp</text>
</a>
</g>
</g>
<!-- Node22&#45;&gt;Node28 -->
<g id="edge9" class="edge">
<title>Node22&#45;&gt;Node28</title>
<path fill="none" stroke="#191970" d="M316.4136,-103.9209C323.1303,-94.5176 331.0717,-83.3997 336.6124,-75.6427"/>
<polygon fill="#191970" stroke="#191970" points="313.4318,-102.0738 310.4675,-112.2455 319.128,-106.1425 313.4318,-102.0738"/>
</g>
<!-- Node29 -->
<g id="node11" class="node">
<title>Node29</title>
<g id="a_node11"><a xlink:href="temperature_8cpp.html" target="_top" xlink:title="temperature.cpp">
<polygon fill="#ffffff" stroke="#000000" points="390,-56.5 390,-75.5 477,-75.5 477,-56.5 390,-56.5"/>
<text text-anchor="middle" x="433.5" y="-63.5" font-family="Helvetica,sans-Serif" font-size="10.00" fill="#000000">temperature.cpp</text>
</a>
</g>
</g>
<!-- Node22&#45;&gt;Node29 -->
<g id="edge10" class="edge">
<title>Node22&#45;&gt;Node29</title>
<path fill="none" stroke="#191970" d="M335.1102,-108.3833C358.7535,-98.1985 390.4876,-84.5284 411.4438,-75.5011"/>
<polygon fill="#191970" stroke="#191970" points="333.6472,-105.2025 325.8478,-112.3733 336.4166,-111.6314 333.6472,-105.2025"/>
</g>
<!-- Node30 -->
<g id="node12" class="node">
<title>Node30</title>
<g id="a_node12"><a xlink:href="_t_k_e_8cpp.html" target="_top" xlink:title="TKE.cpp">
<polygon fill="#ffffff" stroke="#000000" points="495,-56.5 495,-75.5 550,-75.5 550,-56.5 495,-56.5"/>
<text text-anchor="middle" x="522.5" y="-63.5" font-family="Helvetica,sans-Serif" font-size="10.00" fill="#000000">TKE.cpp</text>
</a>
</g>
</g>
<!-- Node22&#45;&gt;Node30 -->
<g id="edge11" class="edge">
<title>Node22&#45;&gt;Node30</title>
<path fill="none" stroke="#191970" d="M352.4787,-110.0367C389.3816,-100.9385 441.196,-87.9842 486.5,-76 489.1338,-75.3033 491.8724,-74.566 494.6105,-73.8202"/>
<polygon fill="#191970" stroke="#191970" points="351.3573,-106.7081 342.4835,-112.4965 353.0302,-113.5053 351.3573,-106.7081"/>
</g>
<!-- Node25 -->
<g id="node7" class="node">
<title>Node25</title>
<g id="a_node7"><a xlink:href="icns_8cpp.html" target="_top" xlink:title="icns.cpp">
<polygon fill="#ffffff" stroke="#000000" points="109,-.5 109,-19.5 162,-19.5 162,-.5 109,-.5"/>
<text text-anchor="middle" x="135.5" y="-7.5" font-family="Helvetica,sans-Serif" font-size="10.00" fill="#000000">icns.cpp</text>
</a>
</g>
</g>
<!-- Node24&#45;&gt;Node25 -->
<g id="edge6" class="edge">
<title>Node24&#45;&gt;Node25</title>
<path fill="none" stroke="#191970" d="M163.2636,-47.9209C156.3789,-38.5176 148.2391,-27.3997 142.5598,-19.6427"/>
<polygon fill="#191970" stroke="#191970" points="160.6269,-50.2445 169.3583,-56.2455 166.2749,-46.1093 160.6269,-50.2445"/>
</g>
<!-- Node26 -->
<g id="node8" class="node">
<title>Node26</title>
<g id="a_node8"><a xlink:href="icns__ops_8cpp.html" target="_top" xlink:title="icns_ops.cpp">
<polygon fill="#ffffff" stroke="#000000" points="180.5,-.5 180.5,-19.5 254.5,-19.5 254.5,-.5 180.5,-.5"/>
<text text-anchor="middle" x="217.5" y="-7.5" font-family="Helvetica,sans-Serif" font-size="10.00" fill="#000000">icns_ops.cpp</text>
</a>
</g>
</g>
<!-- Node24&#45;&gt;Node26 -->
<g id="edge7" class="edge">
<title>Node24&#45;&gt;Node26</title>
<path fill="none" stroke="#191970" d="M189.7364,-47.9209C196.6211,-38.5176 204.7609,-27.3997 210.4402,-19.6427"/>
<polygon fill="#191970" stroke="#191970" points="186.7251,-46.1093 183.6417,-56.2455 192.3731,-50.2445 186.7251,-46.1093"/>
</g>
</g>
</svg>
