<?xml version="1.0" encoding="UTF-8" standalone="no"?>
<!DOCTYPE svg PUBLIC "-//W3C//DTD SVG 1.1//EN"
 "http://www.w3.org/Graphics/SVG/1.1/DTD/svg11.dtd">
<!-- Generated by graphviz version 2.40.1 (20161225.0304)
 -->
<!-- Title: MultiPhase.cpp Pages: 1 -->
<!--zoomable 285 -->
<svg id="main" version="1.1" xmlns="http://www.w3.org/2000/svg" xmlns:xlink="http://www.w3.org/1999/xlink" xml:space="preserve" onload="init(evt)">
<style type="text/css"><![CDATA[
.edge:hover path { stroke: red; }
.edge:hover polygon { stroke: red; fill: red; }
]]></style>
<script type="text/javascript"><![CDATA[
var edges = document.getElementsByTagName('g');
if (edges && edges.length) {
  for (var i=0;i<edges.length;i++) {
    if (edges[i].id.substr(0,4)=='edge') {
      edges[i].setAttribute('class','edge');
    }
  }
}
]]></script>
        <defs>
                <circle id="rim" cx="0" cy="0" r="7"/>
                <circle id="rim2" cx="0" cy="0" r="3.5"/>
                <g id="zoomPlus">
                        <use xlink:href="#rim" fill="#404040">
                                <set attributeName="fill" to="#808080" begin="zoomplus.mouseover" end="zoomplus.mouseout"/>
                        </use>
                        <path d="M-4,0h8M0,-4v8" fill="none" stroke="white" stroke-width="1.5" pointer-events="none"/>
                </g>
                <g id="zoomMin">
                        <use xlink:href="#rim" fill="#404040">
                                <set attributeName="fill" to="#808080" begin="zoomminus.mouseover" end="zoomminus.mouseout"/>
                        </use>
                        <path d="M-4,0h8" fill="none" stroke="white" stroke-width="1.5" pointer-events="none"/>
                </g>
                <g id="dirArrow">
                        <path fill="none" stroke="white" stroke-width="1.5" d="M0,-3.0v7 M-2.5,-0.5L0,-3.0L2.5,-0.5"/>
                </g>
               <g id="resetDef">
                       <use xlink:href="#rim2" fill="#404040">
                               <set attributeName="fill" to="#808080" begin="reset.mouseover" end="reset.mouseout"/>
                       </use>
               </g>
        </defs>

<script type="text/javascript">
var viewWidth = 2223;
var viewHeight = 285;
var sectionId = 'dynsection-0';
</script>
<script xlink:href="svgpan.js"/>
<svg id="graph" class="graph">
<g id="viewport">
<title>MultiPhase.cpp</title>
<polygon fill="#ffffff" stroke="transparent" points="-4,4 -4,-281 2219,-281 2219,4 -4,4"/>
<!-- Node0 -->
<g id="node1" class="node">
<title>Node0</title>
<polygon fill="#bfbfbf" stroke="#000000" points="973,-257.5 973,-276.5 1057,-276.5 1057,-257.5 973,-257.5"/>
<text text-anchor="middle" x="1015" y="-264.5" font-family="Helvetica,sans-Serif" font-size="10.00" fill="#000000">MultiPhase.cpp</text>
</g>
<!-- Node1 -->
<g id="node2" class="node">
<title>Node1</title>
<g id="a_node2"><a xlink:href="_multi_phase_8_h.html" target="_top" xlink:title="amr&#45;wind/multiphase\l_physics/MultiPhase.H">
<polygon fill="#ffffff" stroke="#000000" points="671,-190.5 671,-220.5 789,-220.5 789,-190.5 671,-190.5"/>
<text text-anchor="start" x="679" y="-208.5" font-family="Helvetica,sans-Serif" font-size="10.00" fill="#000000">amr&#45;wind/multiphase</text>
<text text-anchor="middle" x="730" y="-197.5" font-family="Helvetica,sans-Serif" font-size="10.00" fill="#000000">_physics/MultiPhase.H</text>
</a>
</g>
</g>
<!-- Node0&#45;&gt;Node1 -->
<g id="edge1" class="edge">
<title>Node0&#45;&gt;Node1</title>
<path fill="none" stroke="#191970" d="M972.9473,-257.9255C927.1766,-248.0486 853.2756,-232.1016 798.9829,-220.3858"/>
<polygon fill="#191970" stroke="#191970" points="799.5979,-216.938 789.0846,-218.2498 798.1213,-223.7805 799.5979,-216.938"/>
</g>
<!-- Node19 -->
<g id="node20" class="node">
<title>Node19</title>
<g id="a_node20"><a xlink:href="_c_f_d_sim_8_h.html" target="_top" xlink:title="amr&#45;wind/CFDSim.H">
<polygon fill="#ffffff" stroke="#000000" points="961,-196 961,-215 1069,-215 1069,-196 961,-196"/>
<text text-anchor="middle" x="1015" y="-203" font-family="Helvetica,sans-Serif" font-size="10.00" fill="#000000">amr&#45;wind/CFDSim.H</text>
</a>
</g>
</g>
<!-- Node0&#45;&gt;Node19 -->
<g id="edge25" class="edge">
<title>Node0&#45;&gt;Node19</title>
<path fill="none" stroke="#191970" d="M1015,-257.3906C1015,-248.8657 1015,-236.1392 1015,-225.4235"/>
<polygon fill="#191970" stroke="#191970" points="1018.5001,-225.2448 1015,-215.2449 1011.5001,-225.2449 1018.5001,-225.2448"/>
</g>
<!-- Node35 -->
<g id="node36" class="node">
<title>Node35</title>
<polygon fill="#ffffff" stroke="#bfbfbf" points="1087,-196 1087,-215 1203,-215 1203,-196 1087,-196"/>
<text text-anchor="middle" x="1145" y="-203" font-family="Helvetica,sans-Serif" font-size="10.00" fill="#000000">AMReX_ParmParse.H</text>
</g>
<!-- Node0&#45;&gt;Node35 -->
<g id="edge62" class="edge">
<title>Node0&#45;&gt;Node35</title>
<path fill="none" stroke="#191970" d="M1035.3125,-257.3906C1056.8731,-247.1908 1091.1478,-230.9763 1115.6444,-219.3875"/>
<polygon fill="#191970" stroke="#191970" points="1117.2874,-222.4822 1124.8301,-215.0419 1114.2939,-216.1545 1117.2874,-222.4822"/>
</g>
<!-- Node2 -->
<g id="node3" class="node">
<title>Node2</title>
<g id="a_node3"><a xlink:href="_physics_8_h.html" target="_top" xlink:title="amr&#45;wind/core/Physics.H">
<polygon fill="#ffffff" stroke="#000000" points="552.5,-129 552.5,-148 679.5,-148 679.5,-129 552.5,-129"/>
<text text-anchor="middle" x="616" y="-136" font-family="Helvetica,sans-Serif" font-size="10.00" fill="#000000">amr&#45;wind/core/Physics.H</text>
</a>
</g>
</g>
<!-- Node1&#45;&gt;Node2 -->
<g id="edge2" class="edge">
<title>Node1&#45;&gt;Node2</title>
<path fill="none" stroke="#191970" d="M704.4162,-190.4639C685.5469,-179.3741 659.9979,-164.3584 641.2161,-153.32"/>
<polygon fill="#191970" stroke="#191970" points="642.7357,-150.1534 632.341,-148.1039 639.1889,-156.1883 642.7357,-150.1534"/>
</g>
<!-- Node14 -->
<g id="node15" class="node">
<title>Node14</title>
<g id="a_node15"><a xlink:href="_field_8_h.html" target="_top" xlink:title="amr&#45;wind/core/Field.H">
<polygon fill="#ffffff" stroke="#000000" points="673.5,-62 673.5,-81 786.5,-81 786.5,-62 673.5,-62"/>
<text text-anchor="middle" x="730" y="-69" font-family="Helvetica,sans-Serif" font-size="10.00" fill="#000000">amr&#45;wind/core/Field.H</text>
</a>
</g>
</g>
<!-- Node1&#45;&gt;Node14 -->
<g id="edge16" class="edge">
<title>Node1&#45;&gt;Node14</title>
<path fill="none" stroke="#191970" d="M730,-190.389C730,-166.0735 730,-118.2644 730,-91.2698"/>
<polygon fill="#191970" stroke="#191970" points="733.5001,-91.1041 730,-81.1042 726.5001,-91.1042 733.5001,-91.1041"/>
</g>
<!-- Node3 -->
<g id="node4" class="node">
<title>Node3</title>
<g id="a_node4"><a xlink:href="_factory_8_h.html" target="_top" xlink:title="amr&#45;wind/core/Factory.H">
<polygon fill="#ffffff" stroke="#000000" points="264.5,-62 264.5,-81 389.5,-81 389.5,-62 264.5,-62"/>
<text text-anchor="middle" x="327" y="-69" font-family="Helvetica,sans-Serif" font-size="10.00" fill="#000000">amr&#45;wind/core/Factory.H</text>
</a>
</g>
</g>
<!-- Node2&#45;&gt;Node3 -->
<g id="edge3" class="edge">
<title>Node2&#45;&gt;Node3</title>
<path fill="none" stroke="#191970" d="M574.9003,-128.9717C523.2603,-116.9998 434.622,-96.4504 378.5087,-83.4415"/>
<polygon fill="#191970" stroke="#191970" points="378.958,-79.9529 368.4259,-81.1039 377.377,-86.772 378.958,-79.9529"/>
</g>
<!-- Node9 -->
<g id="node10" class="node">
<title>Node9</title>
<g id="a_node10"><a xlink:href="_coll_mgr_8_h.html" target="_top" xlink:title="amr&#45;wind/core/CollMgr.H">
<polygon fill="#ffffff" stroke="#000000" points="530.5,-62 530.5,-81 655.5,-81 655.5,-62 530.5,-62"/>
<text text-anchor="middle" x="593" y="-69" font-family="Helvetica,sans-Serif" font-size="10.00" fill="#000000">amr&#45;wind/core/CollMgr.H</text>
</a>
</g>
</g>
<!-- Node2&#45;&gt;Node9 -->
<g id="edge9" class="edge">
<title>Node2&#45;&gt;Node9</title>
<path fill="none" stroke="#191970" d="M612.7047,-128.9005C609.2888,-118.95 603.8578,-103.1292 599.5618,-90.6147"/>
<polygon fill="#191970" stroke="#191970" points="602.8465,-89.4035 596.2892,-81.0817 596.2258,-91.6763 602.8465,-89.4035"/>
</g>
<!-- Node12 -->
<g id="node13" class="node">
<title>Node12</title>
<polygon fill="#ffffff" stroke="#bfbfbf" points="1116,-.5 1116,-19.5 1220,-19.5 1220,-.5 1116,-.5"/>
<text text-anchor="middle" x="1168" y="-7.5" font-family="Helvetica,sans-Serif" font-size="10.00" fill="#000000">AMReX_MultiFab.H</text>
</g>
<!-- Node2&#45;&gt;Node12 -->
<g id="edge14" class="edge">
<title>Node2&#45;&gt;Node12</title>
<path fill="none" stroke="#191970" d="M679.6365,-131.8683C803.3731,-118.9026 1065.1371,-91.0977 1074,-87 1092.2654,-78.5552 1091.6108,-68.9658 1107,-56 1119.4481,-45.5121 1133.9793,-34.5088 1145.7358,-25.8943"/>
<polygon fill="#191970" stroke="#191970" points="1148.0674,-28.5268 1154.1049,-19.8204 1143.9558,-22.8615 1148.0674,-28.5268"/>
</g>
<!-- Node13 -->
<g id="node14" class="node">
<title>Node13</title>
<polygon fill="#ffffff" stroke="#bfbfbf" points="136,-62 136,-81 246,-81 246,-62 136,-62"/>
<text text-anchor="middle" x="191" y="-69" font-family="Helvetica,sans-Serif" font-size="10.00" fill="#000000">AMReX_Geometry.H</text>
</g>
<!-- Node2&#45;&gt;Node13 -->
<g id="edge15" class="edge">
<title>Node2&#45;&gt;Node13</title>
<path fill="none" stroke="#191970" d="M552.4387,-131.3039C480.0876,-122.6797 358.518,-106.8718 255,-87 249.3179,-85.9092 243.3812,-84.644 237.5125,-83.3158"/>
<polygon fill="#191970" stroke="#191970" points="238.2909,-79.9035 227.7573,-81.041 236.7011,-86.7206 238.2909,-79.9035"/>
</g>
<!-- Node4 -->
<g id="node5" class="node">
<title>Node4</title>
<polygon fill="#ffffff" stroke="#bfbfbf" points="360,-.5 360,-19.5 412,-19.5 412,-.5 360,-.5"/>
<text text-anchor="middle" x="386" y="-7.5" font-family="Helvetica,sans-Serif" font-size="10.00" fill="#000000">memory</text>
</g>
<!-- Node3&#45;&gt;Node4 -->
<g id="edge4" class="edge">
<title>Node3&#45;&gt;Node4</title>
<path fill="none" stroke="#191970" d="M336.2188,-61.8906C345.0858,-52.6478 358.6912,-38.466 369.4389,-27.2628"/>
<polygon fill="#191970" stroke="#191970" points="372.2541,-29.3841 376.6513,-19.7449 367.2027,-24.5381 372.2541,-29.3841"/>
</g>
<!-- Node5 -->
<g id="node6" class="node">
<title>Node5</title>
<polygon fill="#ffffff" stroke="#bfbfbf" points="258.5,-.5 258.5,-19.5 341.5,-19.5 341.5,-.5 258.5,-.5"/>
<text text-anchor="middle" x="300" y="-7.5" font-family="Helvetica,sans-Serif" font-size="10.00" fill="#000000">unordered_map</text>
</g>
<!-- Node3&#45;&gt;Node5 -->
<g id="edge5" class="edge">
<title>Node3&#45;&gt;Node5</title>
<path fill="none" stroke="#191970" d="M322.7813,-61.8906C318.9204,-53.0965 313.0966,-39.8312 308.3039,-28.9145"/>
<polygon fill="#191970" stroke="#191970" points="311.5029,-27.4943 304.2782,-19.7449 305.0934,-30.3083 311.5029,-27.4943"/>
</g>
<!-- Node6 -->
<g id="node7" class="node">
<title>Node6</title>
<polygon fill="#ffffff" stroke="#bfbfbf" points="0,-.5 0,-19.5 54,-19.5 54,-.5 0,-.5"/>
<text text-anchor="middle" x="27" y="-7.5" font-family="Helvetica,sans-Serif" font-size="10.00" fill="#000000">iostream</text>
</g>
<!-- Node3&#45;&gt;Node6 -->
<g id="edge6" class="edge">
<title>Node3&#45;&gt;Node6</title>
<path fill="none" stroke="#191970" d="M283.6351,-61.9686C274.2051,-59.9508 264.2758,-57.8677 255,-56 172.9632,-39.4818 149.2654,-39.6039 63.9267,-20.067"/>
<polygon fill="#191970" stroke="#191970" points="64.5947,-16.6292 54.0631,-17.785 63.0169,-23.449 64.5947,-16.6292"/>
</g>
<!-- Node7 -->
<g id="node8" class="node">
<title>Node7</title>
<polygon fill="#ffffff" stroke="#bfbfbf" points="72.5,-.5 72.5,-19.5 159.5,-19.5 159.5,-.5 72.5,-.5"/>
<text text-anchor="middle" x="116" y="-7.5" font-family="Helvetica,sans-Serif" font-size="10.00" fill="#000000">AMReX_Print.H</text>
</g>
<!-- Node3&#45;&gt;Node7 -->
<g id="edge7" class="edge">
<title>Node3&#45;&gt;Node7</title>
<path fill="none" stroke="#191970" d="M294.0313,-61.8906C257.4883,-51.2395 198.4429,-34.0296 158.465,-22.3772"/>
<polygon fill="#191970" stroke="#191970" points="159.3172,-18.98 148.7372,-19.5419 157.3583,-25.7004 159.3172,-18.98"/>
</g>
<!-- Node8 -->
<g id="node9" class="node">
<title>Node8</title>
<polygon fill="#ffffff" stroke="#bfbfbf" points="178,-.5 178,-19.5 240,-19.5 240,-.5 178,-.5"/>
<text text-anchor="middle" x="209" y="-7.5" font-family="Helvetica,sans-Serif" font-size="10.00" fill="#000000">AMReX.H</text>
</g>
<!-- Node3&#45;&gt;Node8 -->
<g id="edge8" class="edge">
<title>Node3&#45;&gt;Node8</title>
<path fill="none" stroke="#191970" d="M308.5625,-61.8906C289.1653,-51.7811 258.431,-35.7628 236.2383,-24.1962"/>
<polygon fill="#191970" stroke="#191970" points="237.7936,-21.06 227.308,-19.5419 234.5582,-27.2675 237.7936,-21.06"/>
</g>
<!-- Node9&#45;&gt;Node4 -->
<g id="edge11" class="edge">
<title>Node9&#45;&gt;Node4</title>
<path fill="none" stroke="#191970" d="M560.6563,-61.8906C522.9992,-50.7027 460.9848,-32.2781 421.8775,-20.6593"/>
<polygon fill="#191970" stroke="#191970" points="422.7994,-17.282 412.2167,-17.789 420.8058,-23.9921 422.7994,-17.282"/>
</g>
<!-- Node9&#45;&gt;Node5 -->
<g id="edge12" class="edge">
<title>Node9&#45;&gt;Node5</title>
<path fill="none" stroke="#191970" d="M547.5402,-61.9581C494.5781,-50.8415 407.2653,-32.5147 351.7478,-20.8617"/>
<polygon fill="#191970" stroke="#191970" points="352.2727,-17.3957 341.767,-18.7668 350.8347,-24.2464 352.2727,-17.3957"/>
</g>
<!-- Node10 -->
<g id="node11" class="node">
<title>Node10</title>
<polygon fill="#ffffff" stroke="#bfbfbf" points="910.5,-.5 910.5,-19.5 951.5,-19.5 951.5,-.5 910.5,-.5"/>
<text text-anchor="middle" x="931" y="-7.5" font-family="Helvetica,sans-Serif" font-size="10.00" fill="#000000">string</text>
</g>
<!-- Node9&#45;&gt;Node10 -->
<g id="edge10" class="edge">
<title>Node9&#45;&gt;Node10</title>
<path fill="none" stroke="#191970" d="M634.5826,-61.9541C644.2175,-59.8725 654.4471,-57.7664 664,-56 765.594,-37.2145 795.6133,-44.4591 900.4372,-19.7632"/>
<polygon fill="#191970" stroke="#191970" points="901.5698,-23.0909 910.4777,-17.3552 899.9372,-16.284 901.5698,-23.0909"/>
</g>
<!-- Node11 -->
<g id="node12" class="node">
<title>Node11</title>
<polygon fill="#ffffff" stroke="#bfbfbf" points="547.5,-.5 547.5,-19.5 642.5,-19.5 642.5,-.5 547.5,-.5"/>
<text text-anchor="middle" x="595" y="-7.5" font-family="Helvetica,sans-Serif" font-size="10.00" fill="#000000">AMReX_Vector.H</text>
</g>
<!-- Node9&#45;&gt;Node11 -->
<g id="edge13" class="edge">
<title>Node9&#45;&gt;Node11</title>
<path fill="none" stroke="#191970" d="M593.3125,-61.8906C593.5897,-53.3657 594.0036,-40.6392 594.3521,-29.9235"/>
<polygon fill="#191970" stroke="#191970" points="597.8561,-29.8534 594.6831,-19.7449 590.8598,-29.6258 597.8561,-29.8534"/>
</g>
<!-- Node14&#45;&gt;Node4 -->
<g id="edge18" class="edge">
<title>Node14&#45;&gt;Node4</title>
<path fill="none" stroke="#191970" d="M691.7262,-61.94C682.6669,-59.8359 673.0174,-57.7237 664,-56 559.9046,-36.102 529.4875,-42.6284 422.2074,-20.0354"/>
<polygon fill="#191970" stroke="#191970" points="422.791,-16.5811 412.2797,-17.9086 421.3247,-23.4258 422.791,-16.5811"/>
</g>
<!-- Node14&#45;&gt;Node5 -->
<g id="edge19" class="edge">
<title>Node14&#45;&gt;Node5</title>
<path fill="none" stroke="#191970" d="M692.8079,-61.9686C683.4482,-59.7902 673.3921,-57.6373 664,-56 529.2853,-32.5159 491.1447,-41.06 351.904,-20.0223"/>
<polygon fill="#191970" stroke="#191970" points="352.1166,-16.514 341.7012,-18.4556 351.0541,-23.4329 352.1166,-16.514"/>
</g>
<!-- Node14&#45;&gt;Node10 -->
<g id="edge17" class="edge">
<title>Node14&#45;&gt;Node10</title>
<path fill="none" stroke="#191970" d="M762.8695,-61.9107C795.4094,-52.3492 846.8747,-37.0441 900.6596,-20.0445"/>
<polygon fill="#191970" stroke="#191970" points="901.8951,-23.3245 910.369,-16.965 899.7788,-16.6521 901.8951,-23.3245"/>
</g>
<!-- Node14&#45;&gt;Node12 -->
<g id="edge20" class="edge">
<title>Node14&#45;&gt;Node12</title>
<path fill="none" stroke="#191970" d="M786.5926,-64.2485C858.3821,-54.9429 986.2616,-38.0111 1105.7178,-20.1635"/>
<polygon fill="#191970" stroke="#191970" points="1106.4005,-23.6004 1115.771,-18.6563 1105.3626,-16.6778 1106.4005,-23.6004"/>
</g>
<!-- Node15 -->
<g id="node16" class="node">
<title>Node15</title>
<polygon fill="#ffffff" stroke="#bfbfbf" points="430.5,-.5 430.5,-19.5 529.5,-19.5 529.5,-.5 430.5,-.5"/>
<text text-anchor="middle" x="480" y="-7.5" font-family="Helvetica,sans-Serif" font-size="10.00" fill="#000000">AMReX_BCRec.H</text>
</g>
<!-- Node14&#45;&gt;Node15 -->
<g id="edge21" class="edge">
<title>Node14&#45;&gt;Node15</title>
<path fill="none" stroke="#191970" d="M691.2118,-61.9581C647.4216,-51.1857 576.1091,-33.6428 528.6304,-21.9631"/>
<polygon fill="#191970" stroke="#191970" points="529.4258,-18.5545 518.8792,-19.5643 527.7536,-25.3518 529.4258,-18.5545"/>
</g>
<!-- Node16 -->
<g id="node17" class="node">
<title>Node16</title>
<polygon fill="#ffffff" stroke="#bfbfbf" points="660.5,-.5 660.5,-19.5 745.5,-19.5 745.5,-.5 660.5,-.5"/>
<text text-anchor="middle" x="703" y="-7.5" font-family="Helvetica,sans-Serif" font-size="10.00" fill="#000000">AMReX_Gpu.H</text>
</g>
<!-- Node14&#45;&gt;Node16 -->
<g id="edge22" class="edge">
<title>Node14&#45;&gt;Node16</title>
<path fill="none" stroke="#191970" d="M725.7813,-61.8906C721.9204,-53.0965 716.0966,-39.8312 711.3039,-28.9145"/>
<polygon fill="#191970" stroke="#191970" points="714.5029,-27.4943 707.2782,-19.7449 708.0934,-30.3083 714.5029,-27.4943"/>
</g>
<!-- Node17 -->
<g id="node18" class="node">
<title>Node17</title>
<g id="a_node18"><a xlink:href="incflo__enums_8_h.html" target="_top" xlink:title="amr&#45;wind/incflo_enums.H">
<polygon fill="#ffffff" stroke="#000000" points="764,-.5 764,-19.5 892,-19.5 892,-.5 764,-.5"/>
<text text-anchor="middle" x="828" y="-7.5" font-family="Helvetica,sans-Serif" font-size="10.00" fill="#000000">amr&#45;wind/incflo_enums.H</text>
</a>
</g>
</g>
<!-- Node14&#45;&gt;Node17 -->
<g id="edge23" class="edge">
<title>Node14&#45;&gt;Node17</title>
<path fill="none" stroke="#191970" d="M745.3125,-61.8906C761.0624,-52.0067 785.8123,-36.4749 804.1337,-24.9773"/>
<polygon fill="#191970" stroke="#191970" points="806.1852,-27.8221 812.795,-19.5419 802.4643,-21.8929 806.1852,-27.8221"/>
</g>
<!-- Node18 -->
<g id="node19" class="node">
<title>Node18</title>
<g id="a_node19"><a xlink:href="_field_desc_types_8_h.html" target="_top" xlink:title="amr&#45;wind/core/FieldDescTypes.H">
<polygon fill="#ffffff" stroke="#000000" points="1238.5,-.5 1238.5,-19.5 1401.5,-19.5 1401.5,-.5 1238.5,-.5"/>
<text text-anchor="middle" x="1320" y="-7.5" font-family="Helvetica,sans-Serif" font-size="10.00" fill="#000000">amr&#45;wind/core/FieldDescTypes.H</text>
</a>
</g>
</g>
<!-- Node14&#45;&gt;Node18 -->
<g id="edge24" class="edge">
<title>Node14&#45;&gt;Node18</title>
<path fill="none" stroke="#191970" d="M786.5123,-65.7904C877.2193,-56.5989 1061.2029,-37.8443 1228.1919,-20.0806"/>
<polygon fill="#191970" stroke="#191970" points="1228.5771,-23.5595 1238.1503,-19.0203 1227.8359,-16.5988 1228.5771,-23.5595"/>
</g>
<!-- Node19&#45;&gt;Node2 -->
<g id="edge61" class="edge">
<title>Node19&#45;&gt;Node2</title>
<path fill="none" stroke="#191970" d="M960.7738,-196.3944C888.5866,-184.2727 760.9746,-162.8441 682.8934,-149.7327"/>
<polygon fill="#191970" stroke="#191970" points="683.127,-146.223 672.6854,-148.0186 681.9677,-153.1264 683.127,-146.223"/>
</g>
<!-- Node20 -->
<g id="node21" class="node">
<title>Node20</title>
<polygon fill="#ffffff" stroke="#bfbfbf" points="1725,-62 1725,-81 1831,-81 1831,-62 1725,-62"/>
<text text-anchor="middle" x="1778" y="-69" font-family="Helvetica,sans-Serif" font-size="10.00" fill="#000000">AMReX_AmrCore.H</text>
</g>
<!-- Node19&#45;&gt;Node20 -->
<g id="edge26" class="edge">
<title>Node19&#45;&gt;Node20</title>
<path fill="none" stroke="#191970" d="M1051.8714,-195.9336C1060.4219,-193.853 1069.5059,-191.7524 1078,-190 1349.8532,-133.9133 1420.6163,-135.0753 1694,-87 1701.4134,-85.6963 1709.1892,-84.3003 1716.8924,-82.8998"/>
<polygon fill="#191970" stroke="#191970" points="1717.7327,-86.3042 1726.9405,-81.0634 1716.4742,-79.4183 1717.7327,-86.3042"/>
</g>
<!-- Node21 -->
<g id="node22" class="node">
<title>Node21</title>
<g id="a_node22"><a xlink:href="_sim_time_8_h.html" target="_top" xlink:title="amr&#45;wind/core/SimTime.H">
<polygon fill="#ffffff" stroke="#000000" points="1894.5,-129 1894.5,-148 2025.5,-148 2025.5,-129 1894.5,-129"/>
<text text-anchor="middle" x="1960" y="-136" font-family="Helvetica,sans-Serif" font-size="10.00" fill="#000000">amr&#45;wind/core/SimTime.H</text>
</a>
</g>
</g>
<!-- Node19&#45;&gt;Node21 -->
<g id="edge27" class="edge">
<title>Node19&#45;&gt;Node21</title>
<path fill="none" stroke="#191970" d="M1048.776,-195.9847C1058.169,-193.669 1068.4217,-191.4455 1078,-190 1232.5294,-166.6796 1699.8827,-147.8545 1884.1436,-141.144"/>
<polygon fill="#191970" stroke="#191970" points="1884.42,-144.6364 1894.2866,-140.7765 1884.1664,-137.641 1884.42,-144.6364"/>
</g>
<!-- Node25 -->
<g id="node26" class="node">
<title>Node25</title>
<g id="a_node26"><a xlink:href="_field_repo_8_h.html" target="_top" xlink:title="amr&#45;wind/core/FieldRepo.H">
<polygon fill="#ffffff" stroke="#000000" points="1101,-129 1101,-148 1237,-148 1237,-129 1101,-129"/>
<text text-anchor="middle" x="1169" y="-136" font-family="Helvetica,sans-Serif" font-size="10.00" fill="#000000">amr&#45;wind/core/FieldRepo.H</text>
</a>
</g>
</g>
<!-- Node19&#45;&gt;Node25 -->
<g id="edge31" class="edge">
<title>Node19&#45;&gt;Node25</title>
<path fill="none" stroke="#191970" d="M1037.0644,-195.9005C1063.3665,-184.4574 1107.5128,-165.2509 1137.4245,-152.2374"/>
<polygon fill="#191970" stroke="#191970" points="1139.203,-155.2806 1146.9765,-148.0817 1136.4104,-148.8617 1139.203,-155.2806"/>
</g>
<!-- Node32 -->
<g id="node33" class="node">
<title>Node32</title>
<g id="a_node33"><a xlink:href="_p_d_e_base_8_h.html" target="_top" xlink:title="amr&#45;wind/equation_systems\l/PDEBase.H">
<polygon fill="#ffffff" stroke="#000000" points="783.5,-123.5 783.5,-153.5 922.5,-153.5 922.5,-123.5 783.5,-123.5"/>
<text text-anchor="start" x="791.5" y="-141.5" font-family="Helvetica,sans-Serif" font-size="10.00" fill="#000000">amr&#45;wind/equation_systems</text>
<text text-anchor="middle" x="853" y="-130.5" font-family="Helvetica,sans-Serif" font-size="10.00" fill="#000000">/PDEBase.H</text>
</a>
</g>
</g>
<!-- Node19&#45;&gt;Node32 -->
<g id="edge53" class="edge">
<title>Node19&#45;&gt;Node32</title>
<path fill="none" stroke="#191970" d="M991.7893,-195.9005C967.6321,-185.9096 929.1656,-170.0006 898.8494,-157.4624"/>
<polygon fill="#191970" stroke="#191970" points="899.8998,-154.1094 889.3213,-153.5218 897.2245,-160.578 899.8998,-154.1094"/>
</g>
<!-- Node22 -->
<g id="node23" class="node">
<title>Node22</title>
<polygon fill="#ffffff" stroke="#bfbfbf" points="1849.5,-62 1849.5,-81 1942.5,-81 1942.5,-62 1849.5,-62"/>
<text text-anchor="middle" x="1896" y="-69" font-family="Helvetica,sans-Serif" font-size="10.00" fill="#000000">AMReX_REAL.H</text>
</g>
<!-- Node21&#45;&gt;Node22 -->
<g id="edge28" class="edge">
<title>Node21&#45;&gt;Node22</title>
<path fill="none" stroke="#191970" d="M1950.8304,-128.9005C1940.7551,-118.353 1924.3793,-101.2096 1912.1431,-88.3998"/>
<polygon fill="#191970" stroke="#191970" points="1914.5909,-85.8952 1905.1526,-81.0817 1909.5291,-90.7304 1914.5909,-85.8952"/>
</g>
<!-- Node23 -->
<g id="node24" class="node">
<title>Node23</title>
<polygon fill="#ffffff" stroke="#bfbfbf" points="1961,-62 1961,-81 2087,-81 2087,-62 1961,-62"/>
<text text-anchor="middle" x="2024" y="-69" font-family="Helvetica,sans-Serif" font-size="10.00" fill="#000000">AMReX_GpuQualifiers.H</text>
</g>
<!-- Node21&#45;&gt;Node23 -->
<g id="edge29" class="edge">
<title>Node21&#45;&gt;Node23</title>
<path fill="none" stroke="#191970" d="M1969.1696,-128.9005C1979.2449,-118.353 1995.6207,-101.2096 2007.8569,-88.3998"/>
<polygon fill="#191970" stroke="#191970" points="2010.4709,-90.7304 2014.8474,-81.0817 2005.4091,-85.8952 2010.4709,-90.7304"/>
</g>
<!-- Node24 -->
<g id="node25" class="node">
<title>Node24</title>
<polygon fill="#ffffff" stroke="#bfbfbf" points="2105,-62 2105,-81 2215,-81 2215,-62 2105,-62"/>
<text text-anchor="middle" x="2160" y="-69" font-family="Helvetica,sans-Serif" font-size="10.00" fill="#000000">AMReX_Extension.H</text>
</g>
<!-- Node21&#45;&gt;Node24 -->
<g id="edge30" class="edge">
<title>Node21&#45;&gt;Node24</title>
<path fill="none" stroke="#191970" d="M1988.6551,-128.9005C2023.5563,-117.2086 2082.6502,-97.4122 2121.4997,-84.3976"/>
<polygon fill="#191970" stroke="#191970" points="2123.0277,-87.577 2131.398,-81.0817 2120.8041,-80.9395 2123.0277,-87.577"/>
</g>
<!-- Node25&#45;&gt;Node5 -->
<g id="edge33" class="edge">
<title>Node25&#45;&gt;Node5</title>
<path fill="none" stroke="#191970" d="M1100.9623,-134.0823C946.1504,-123.8881 576.6336,-98.7001 521,-87 451.062,-72.2916 372.8968,-41.443 330.8287,-23.5782"/>
<polygon fill="#191970" stroke="#191970" points="331.9999,-20.2722 321.4299,-19.547 329.2405,-26.7055 331.9999,-20.2722"/>
</g>
<!-- Node25&#45;&gt;Node10 -->
<g id="edge32" class="edge">
<title>Node25&#45;&gt;Node10</title>
<path fill="none" stroke="#191970" d="M1100.9913,-134.5091C1032.5266,-128.9031 933.7409,-115.9264 910,-87 896.2041,-70.1908 907.2151,-45.0532 917.8026,-28.1156"/>
<polygon fill="#191970" stroke="#191970" points="920.8146,-29.9083 923.4807,-19.6544 915.0021,-26.0076 920.8146,-29.9083"/>
</g>
<!-- Node25&#45;&gt;Node12 -->
<g id="edge51" class="edge">
<title>Node25&#45;&gt;Node12</title>
<path fill="none" stroke="#191970" d="M1168.9248,-128.8416C1168.762,-107.9114 1168.3736,-58.004 1168.1555,-29.9762"/>
<polygon fill="#191970" stroke="#191970" points="1171.6538,-29.7429 1168.076,-19.7705 1164.6541,-29.7974 1171.6538,-29.7429"/>
</g>
<!-- Node25&#45;&gt;Node14 -->
<g id="edge39" class="edge">
<title>Node25&#45;&gt;Node14</title>
<path fill="none" stroke="#191970" d="M1106.5682,-128.9717C1024.4508,-116.439 880.7428,-94.5063 796.6004,-81.6645"/>
<polygon fill="#191970" stroke="#191970" points="797.0562,-78.1936 786.6425,-80.1448 796,-85.1135 797.0562,-78.1936"/>
</g>
<!-- Node25&#45;&gt;Node18 -->
<g id="edge34" class="edge">
<title>Node25&#45;&gt;Node18</title>
<path fill="none" stroke="#191970" d="M1225.5398,-128.9228C1269.8051,-120.1369 1326.1293,-105.6636 1340,-87 1352.6721,-69.9493 1342.8967,-45.591 1333.0735,-28.8616"/>
<polygon fill="#191970" stroke="#191970" points="1335.767,-26.5739 1327.4535,-20.006 1329.8567,-30.3247 1335.767,-26.5739"/>
</g>
<!-- Node25&#45;&gt;Node20 -->
<g id="edge50" class="edge">
<title>Node25&#45;&gt;Node20</title>
<path fill="none" stroke="#191970" d="M1237.3928,-134.9178C1340.5556,-128.8577 1541.8973,-114.47 1711,-87 1717.3416,-85.9698 1723.9776,-84.6879 1730.5041,-83.3055"/>
<polygon fill="#191970" stroke="#191970" points="1731.6022,-86.6473 1740.6116,-81.0723 1730.092,-79.8122 1731.6022,-86.6473"/>
</g>
<!-- Node26 -->
<g id="node27" class="node">
<title>Node26</title>
<g id="a_node27"><a xlink:href="_field_utils_8_h.html" target="_top" xlink:title="amr&#45;wind/core/FieldUtils.H">
<polygon fill="#ffffff" stroke="#000000" points="1197.5,-62 1197.5,-81 1330.5,-81 1330.5,-62 1197.5,-62"/>
<text text-anchor="middle" x="1264" y="-69" font-family="Helvetica,sans-Serif" font-size="10.00" fill="#000000">amr&#45;wind/core/FieldUtils.H</text>
</a>
</g>
</g>
<!-- Node25&#45;&gt;Node26 -->
<g id="edge35" class="edge">
<title>Node25&#45;&gt;Node26</title>
<path fill="none" stroke="#191970" d="M1182.6112,-128.9005C1198.1311,-117.9549 1223.7223,-99.9064 1242.0667,-86.9688"/>
<polygon fill="#191970" stroke="#191970" points="1244.2592,-89.7054 1250.4141,-81.0817 1240.2248,-83.9849 1244.2592,-89.7054"/>
</g>
<!-- Node28 -->
<g id="node29" class="node">
<title>Node28</title>
<g id="a_node29"><a xlink:href="_int_field_8_h.html" target="_top" xlink:title="amr&#45;wind/core/IntField.H">
<polygon fill="#ffffff" stroke="#000000" points="1387,-62 1387,-81 1511,-81 1511,-62 1387,-62"/>
<text text-anchor="middle" x="1449" y="-69" font-family="Helvetica,sans-Serif" font-size="10.00" fill="#000000">amr&#45;wind/core/IntField.H</text>
</a>
</g>
</g>
<!-- Node25&#45;&gt;Node28 -->
<g id="edge40" class="edge">
<title>Node25&#45;&gt;Node28</title>
<path fill="none" stroke="#191970" d="M1208.8198,-128.9717C1258.8516,-116.9998 1344.7296,-96.4504 1399.0954,-83.4415"/>
<polygon fill="#191970" stroke="#191970" points="1399.9533,-86.8351 1408.8642,-81.1039 1398.3242,-80.0272 1399.9533,-86.8351"/>
</g>
<!-- Node29 -->
<g id="node30" class="node">
<title>Node29</title>
<polygon fill="#ffffff" stroke="#bfbfbf" points="1554.5,-.5 1554.5,-19.5 1661.5,-19.5 1661.5,-.5 1554.5,-.5"/>
<text text-anchor="middle" x="1608" y="-7.5" font-family="Helvetica,sans-Serif" font-size="10.00" fill="#000000">AMReX_iMultiFab.H</text>
</g>
<!-- Node25&#45;&gt;Node29 -->
<g id="edge52" class="edge">
<title>Node25&#45;&gt;Node29</title>
<path fill="none" stroke="#191970" d="M1237.2353,-136.5842C1369.1922,-132.1722 1648.9832,-119.1008 1678,-87 1687.239,-76.779 1684.5413,-68.1259 1678,-56 1670.427,-41.9617 1656.4927,-31.5084 1643.0386,-24.1453"/>
<polygon fill="#191970" stroke="#191970" points="1644.3906,-20.9074 1633.885,-19.5353 1641.242,-27.1593 1644.3906,-20.9074"/>
</g>
<!-- Node30 -->
<g id="node31" class="node">
<title>Node30</title>
<g id="a_node31"><a xlink:href="_scratch_field_8_h.html" target="_top" xlink:title="amr&#45;wind/core/ScratchField.H">
<polygon fill="#ffffff" stroke="#000000" points="919,-62 919,-81 1065,-81 1065,-62 919,-62"/>
<text text-anchor="middle" x="992" y="-69" font-family="Helvetica,sans-Serif" font-size="10.00" fill="#000000">amr&#45;wind/core/ScratchField.H</text>
</a>
</g>
</g>
<!-- Node25&#45;&gt;Node30 -->
<g id="edge44" class="edge">
<title>Node25&#45;&gt;Node30</title>
<path fill="none" stroke="#191970" d="M1143.6402,-128.9005C1113.0156,-117.3082 1061.3432,-97.7486 1026.9544,-84.7313"/>
<polygon fill="#191970" stroke="#191970" points="1027.9042,-81.3486 1017.3127,-81.0817 1025.4261,-87.8952 1027.9042,-81.3486"/>
</g>
<!-- Node26&#45;&gt;Node12 -->
<g id="edge37" class="edge">
<title>Node26&#45;&gt;Node12</title>
<path fill="none" stroke="#191970" d="M1249,-61.8906C1233.6419,-52.0519 1209.5479,-36.6167 1191.6255,-25.1351"/>
<polygon fill="#191970" stroke="#191970" points="1193.203,-21.9891 1182.8947,-19.5419 1189.427,-27.8833 1193.203,-21.9891"/>
</g>
<!-- Node26&#45;&gt;Node18 -->
<g id="edge36" class="edge">
<title>Node26&#45;&gt;Node18</title>
<path fill="none" stroke="#191970" d="M1272.75,-61.8906C1281.1662,-52.6478 1294.0797,-38.466 1304.281,-27.2628"/>
<polygon fill="#191970" stroke="#191970" points="1306.9818,-29.4953 1311.1266,-19.7449 1301.806,-24.7824 1306.9818,-29.4953"/>
</g>
<!-- Node27 -->
<g id="node28" class="node">
<title>Node27</title>
<polygon fill="#ffffff" stroke="#bfbfbf" points="1420,-.5 1420,-19.5 1536,-19.5 1536,-.5 1420,-.5"/>
<text text-anchor="middle" x="1478" y="-7.5" font-family="Helvetica,sans-Serif" font-size="10.00" fill="#000000">AMReX_Interpolater.H</text>
</g>
<!-- Node26&#45;&gt;Node27 -->
<g id="edge38" class="edge">
<title>Node26&#45;&gt;Node27</title>
<path fill="none" stroke="#191970" d="M1297.4375,-61.8906C1334.5,-51.2395 1394.3849,-34.0296 1434.9312,-22.3772"/>
<polygon fill="#191970" stroke="#191970" points="1436.153,-25.6679 1444.7973,-19.5419 1434.2196,-18.9402 1436.153,-25.6679"/>
</g>
<!-- Node28&#45;&gt;Node10 -->
<g id="edge41" class="edge">
<title>Node28&#45;&gt;Node10</title>
<path fill="none" stroke="#191970" d="M1386.8125,-62.1471C1371.5238,-59.9885 1355.1849,-57.7999 1340,-56 1175.2553,-36.4729 1128.3689,-54.2552 961.9058,-19.7359"/>
<polygon fill="#191970" stroke="#191970" points="962.3203,-16.2465 951.8136,-17.6101 960.8774,-23.0962 962.3203,-16.2465"/>
</g>
<!-- Node28&#45;&gt;Node18 -->
<g id="edge42" class="edge">
<title>Node28&#45;&gt;Node18</title>
<path fill="none" stroke="#191970" d="M1428.8438,-61.8906C1407.449,-51.6908 1373.438,-35.4763 1349.1298,-23.8875"/>
<polygon fill="#191970" stroke="#191970" points="1350.5476,-20.686 1340.0147,-19.5419 1347.5352,-27.0047 1350.5476,-20.686"/>
</g>
<!-- Node28&#45;&gt;Node29 -->
<g id="edge43" class="edge">
<title>Node28&#45;&gt;Node29</title>
<path fill="none" stroke="#191970" d="M1473.8438,-61.8906C1500.6807,-51.5103 1543.6233,-34.9004 1573.6753,-23.2766"/>
<polygon fill="#191970" stroke="#191970" points="1575.2667,-26.4138 1583.3307,-19.5419 1572.7414,-19.8851 1575.2667,-26.4138"/>
</g>
<!-- Node30&#45;&gt;Node10 -->
<g id="edge45" class="edge">
<title>Node30&#45;&gt;Node10</title>
<path fill="none" stroke="#191970" d="M982.4688,-61.8906C973.2121,-52.5581 958.961,-38.1902 947.7997,-26.9374"/>
<polygon fill="#191970" stroke="#191970" points="950.1928,-24.38 940.6656,-19.7449 945.2228,-29.3095 950.1928,-24.38"/>
</g>
<!-- Node30&#45;&gt;Node11 -->
<g id="edge48" class="edge">
<title>Node30&#45;&gt;Node11</title>
<path fill="none" stroke="#191970" d="M925.2688,-61.9618C858.6821,-52.3217 753.1821,-36.7174 652.6671,-20.2457"/>
<polygon fill="#191970" stroke="#191970" points="653.0794,-16.7665 642.6439,-18.5975 651.9435,-23.6738 653.0794,-16.7665"/>
</g>
<!-- Node30&#45;&gt;Node12 -->
<g id="edge47" class="edge">
<title>Node30&#45;&gt;Node12</title>
<path fill="none" stroke="#191970" d="M1019.5,-61.8906C1049.4647,-51.42 1097.5683,-34.6111 1130.8698,-22.9745"/>
<polygon fill="#191970" stroke="#191970" points="1132.4074,-26.1448 1140.6931,-19.5419 1130.0983,-19.5366 1132.4074,-26.1448"/>
</g>
<!-- Node30&#45;&gt;Node18 -->
<g id="edge46" class="edge">
<title>Node30&#45;&gt;Node18</title>
<path fill="none" stroke="#191970" d="M1042.8901,-61.9581C1101.2695,-51.012 1196.9321,-33.0752 1259.1861,-21.4026"/>
<polygon fill="#191970" stroke="#191970" points="1260.0767,-24.7967 1269.2604,-19.5137 1258.7866,-17.9166 1260.0767,-24.7967"/>
</g>
<!-- Node31 -->
<g id="node32" class="node">
<title>Node31</title>
<polygon fill="#ffffff" stroke="#bfbfbf" points="970,-.5 970,-19.5 1098,-19.5 1098,-.5 970,-.5"/>
<text text-anchor="middle" x="1034" y="-7.5" font-family="Helvetica,sans-Serif" font-size="10.00" fill="#000000">AMReX_PhysBCFunct.H</text>
</g>
<!-- Node30&#45;&gt;Node31 -->
<g id="edge49" class="edge">
<title>Node30&#45;&gt;Node31</title>
<path fill="none" stroke="#191970" d="M998.5625,-61.8906C1004.6908,-52.917 1013.9985,-39.2879 1021.5372,-28.2491"/>
<polygon fill="#191970" stroke="#191970" points="1024.5956,-29.9768 1027.345,-19.7449 1018.815,-26.029 1024.5956,-29.9768"/>
</g>
<!-- Node32&#45;&gt;Node3 -->
<g id="edge55" class="edge">
<title>Node32&#45;&gt;Node3</title>
<path fill="none" stroke="#191970" d="M783.4505,-130.4722C700.0962,-120.7353 556.2277,-103.5623 433,-87 422.2745,-85.5584 410.9484,-83.9714 399.8488,-82.3795"/>
<polygon fill="#191970" stroke="#191970" points="400.1404,-78.8854 389.7428,-80.9203 399.1399,-85.8136 400.1404,-78.8854"/>
</g>
<!-- Node32&#45;&gt;Node9 -->
<g id="edge56" class="edge">
<title>Node32&#45;&gt;Node9</title>
<path fill="none" stroke="#191970" d="M794.6509,-123.4639C747.8415,-111.4015 683.008,-94.6944 639.617,-83.5128"/>
<polygon fill="#191970" stroke="#191970" points="640.4433,-80.1115 629.8862,-81.0053 638.6964,-86.89 640.4433,-80.1115"/>
</g>
<!-- Node32&#45;&gt;Node10 -->
<g id="edge54" class="edge">
<title>Node32&#45;&gt;Node10</title>
<path fill="none" stroke="#191970" d="M854.7332,-123.4156C857.3066,-105.9959 863.3891,-77.0416 877,-56 884.6295,-44.2053 896.1804,-33.789 906.6436,-25.8644"/>
<polygon fill="#191970" stroke="#191970" points="908.9841,-28.4928 915.067,-19.8181 904.9022,-22.8061 908.9841,-28.4928"/>
</g>
<!-- Node32&#45;&gt;Node17 -->
<g id="edge60" class="edge">
<title>Node32&#45;&gt;Node17</title>
<path fill="none" stroke="#191970" d="M848.3354,-123.2956C845.3405,-113.104 841.5487,-99.3406 839,-87 835,-67.632 831.9766,-45.2238 830.1215,-29.5926"/>
<polygon fill="#191970" stroke="#191970" points="833.587,-29.0895 828.98,-19.5487 826.6317,-29.88 833.587,-29.0895"/>
</g>
<!-- Node32&#45;&gt;Node18 -->
<g id="edge59" class="edge">
<title>Node32&#45;&gt;Node18</title>
<path fill="none" stroke="#191970" d="M922.7252,-127.4892C974.1735,-118.6118 1045.6092,-104.7026 1107,-87 1144.4365,-76.2049 1152.3945,-69.3441 1189,-56 1220.5275,-44.507 1256.5054,-31.9105 1282.7699,-22.8095"/>
<polygon fill="#191970" stroke="#191970" points="1284.0245,-26.0791 1292.3309,-19.5022 1281.7361,-19.4637 1284.0245,-26.0791"/>
</g>
<!-- Node33 -->
<g id="node34" class="node">
<title>Node33</title>
<g id="a_node34"><a xlink:href="_p_d_e_fields_8_h.html" target="_top" xlink:title="amr&#45;wind/equation_systems\l/PDEFields.H">
<polygon fill="#ffffff" stroke="#000000" points="1529.5,-56.5 1529.5,-86.5 1668.5,-86.5 1668.5,-56.5 1529.5,-56.5"/>
<text text-anchor="start" x="1537.5" y="-74.5" font-family="Helvetica,sans-Serif" font-size="10.00" fill="#000000">amr&#45;wind/equation_systems</text>
<text text-anchor="middle" x="1599" y="-63.5" font-family="Helvetica,sans-Serif" font-size="10.00" fill="#000000">/PDEFields.H</text>
</a>
</g>
</g>
<!-- Node32&#45;&gt;Node33 -->
<g id="edge57" class="edge">
<title>Node32&#45;&gt;Node33</title>
<path fill="none" stroke="#191970" d="M922.6544,-134.1574C1065.5041,-125.0862 1388.4471,-103.689 1519.1023,-86.9825"/>
<polygon fill="#191970" stroke="#191970" points="1519.8319,-90.4166 1529.2868,-85.6359 1518.9143,-83.477 1519.8319,-90.4166"/>
</g>
<!-- Node34 -->
<g id="node35" class="node">
<title>Node34</title>
<polygon fill="#ffffff" stroke="#bfbfbf" points="1679.5,-.5 1679.5,-19.5 1724.5,-19.5 1724.5,-.5 1679.5,-.5"/>
<text text-anchor="middle" x="1702" y="-7.5" font-family="Helvetica,sans-Serif" font-size="10.00" fill="#000000">iosfwd</text>
</g>
<!-- Node33&#45;&gt;Node34 -->
<g id="edge58" class="edge">
<title>Node33&#45;&gt;Node34</title>
<path fill="none" stroke="#191970" d="M1624.1966,-56.4554C1640.3272,-46.8241 1661.1638,-34.3828 1677.2136,-24.7996"/>
<polygon fill="#191970" stroke="#191970" points="1679.247,-27.662 1686.0387,-19.5303 1675.6584,-21.6518 1679.247,-27.662"/>
</g>
</g>
</svg>
        <g id="navigator" transform="translate(0 0)" fill="#404254">
                <rect fill="#f2f5e9" fill-opacity="0.5" stroke="#606060" stroke-width=".5" x="0" y="0" width="60" height="60"/>
                <use id="zoomplus" xlink:href="#zoomPlus" x="17" y="9" onmousedown="handleZoom(evt,'in')"/>
                <use id="zoomminus" xlink:href="#zoomMin" x="42" y="9" onmousedown="handleZoom(evt,'out')"/>
                <use id="reset" xlink:href="#resetDef" x="30" y="36" onmousedown="handleReset()"/>
                <g id="arrowUp" xlink:href="#dirArrow" transform="translate(30 24)" onmousedown="handlePan(0,-1)">
                  <use xlink:href="#rim" fill="#404040">
                        <set attributeName="fill" to="#808080" begin="arrowUp.mouseover" end="arrowUp.mouseout"/>
                  </use>
                  <path fill="none" stroke="white" stroke-width="1.5" d="M0,-3.0v7 M-2.5,-0.5L0,-3.0L2.5,-0.5"/>
                </g>
                <g id="arrowRight" xlink:href="#dirArrow" transform="rotate(90) translate(36 -43)" onmousedown="handlePan(1,0)">
                  <use xlink:href="#rim" fill="#404040">
                        <set attributeName="fill" to="#808080" begin="arrowRight.mouseover" end="arrowRight.mouseout"/>
                  </use>
                  <path fill="none" stroke="white" stroke-width="1.5" d="M0,-3.0v7 M-2.5,-0.5L0,-3.0L2.5,-0.5"/>
                </g>
                <g id="arrowDown" xlink:href="#dirArrow" transform="rotate(180) translate(-30 -48)" onmousedown="handlePan(0,1)">
                  <use xlink:href="#rim" fill="#404040">
                        <set attributeName="fill" to="#808080" begin="arrowDown.mouseover" end="arrowDown.mouseout"/>
                  </use>
                  <path fill="none" stroke="white" stroke-width="1.5" d="M0,-3.0v7 M-2.5,-0.5L0,-3.0L2.5,-0.5"/>
                </g>
                <g id="arrowLeft" xlink:href="#dirArrow" transform="rotate(270) translate(-36 17)" onmousedown="handlePan(-1,0)">
                  <use xlink:href="#rim" fill="#404040">
                        <set attributeName="fill" to="#808080" begin="arrowLeft.mouseover" end="arrowLeft.mouseout"/>
                  </use>
                  <path fill="none" stroke="white" stroke-width="1.5" d="M0,-3.0v7 M-2.5,-0.5L0,-3.0L2.5,-0.5"/>
                </g>
        </g>
        <svg viewBox="0 0 15 15" width="100%" height="30px" preserveAspectRatio="xMaxYMin meet">
         <g id="arrow_out" transform="scale(0.3 0.3)">
          <a xlink:href="_multi_phase_8cpp__incl_org.svg" target="_base">
           <rect id="button" ry="5" rx="5" y="6" x="6" height="38" width="38"
                fill="#f2f5e9" fill-opacity="0.5" stroke="#606060" stroke-width="1.0"/>
           <path id="arrow"
             d="M 11.500037,31.436501 C 11.940474,20.09759 22.043105,11.32322 32.158766,21.979434 L 37.068811,17.246167 C 37.068811,17.246167 37.088388,32 37.088388,32 L 22.160133,31.978069 C 22.160133,31.978069 26.997745,27.140456 26.997745,27.140456 C 18.528582,18.264221 13.291696,25.230495 11.500037,31.436501 z"
             style="fill:#404040;"/>
          </a>
         </g>
        </svg>
</svg>
