<?xml version="1.0" encoding="UTF-8" standalone="no"?>
<!DOCTYPE svg PUBLIC "-//W3C//DTD SVG 1.1//EN"
 "http://www.w3.org/Graphics/SVG/1.1/DTD/svg11.dtd">
<!-- Generated by graphviz version 2.40.1 (20161225.0304)
 -->
<!-- Title: PDEBase.cpp Pages: 1 -->
<svg width="2757pt" height="285pt"
 viewBox="0.00 0.00 2757.00 285.00" xmlns="http://www.w3.org/2000/svg" xmlns:xlink="http://www.w3.org/1999/xlink">
<g id="graph0" class="graph" transform="scale(1 1) rotate(0) translate(4 281)">
<title>PDEBase.cpp</title>
<polygon fill="#ffffff" stroke="transparent" points="-4,4 -4,-281 2753,-281 2753,4 -4,4"/>
<!-- Node0 -->
<g id="node1" class="node">
<title>Node0</title>
<polygon fill="#bfbfbf" stroke="#000000" points="1018.5,-257.5 1018.5,-276.5 1097.5,-276.5 1097.5,-257.5 1018.5,-257.5"/>
<text text-anchor="middle" x="1058" y="-264.5" font-family="Helvetica,sans-Serif" font-size="10.00" fill="#000000">PDEBase.cpp</text>
</g>
<!-- Node1 -->
<g id="node2" class="node">
<title>Node1</title>
<g id="a_node2"><a xlink:href="_p_d_e_base_8_h.html" target="_top" xlink:title="amr&#45;wind/equation_systems\l/PDEBase.H">
<polygon fill="#ffffff" stroke="#000000" points="523.5,-123.5 523.5,-153.5 662.5,-153.5 662.5,-123.5 523.5,-123.5"/>
<text text-anchor="start" x="531.5" y="-141.5" font-family="Helvetica,sans-Serif" font-size="10.00" fill="#000000">amr&#45;wind/equation_systems</text>
<text text-anchor="middle" x="593" y="-130.5" font-family="Helvetica,sans-Serif" font-size="10.00" fill="#000000">/PDEBase.H</text>
</a>
</g>
</g>
<!-- Node0&#45;&gt;Node1 -->
<g id="edge1" class="edge">
<title>Node0&#45;&gt;Node1</title>
<path fill="none" stroke="#191970" d="M1018.1375,-262.2698C967.4816,-255.7006 877.6543,-242.1768 803,-221 743.0422,-203.9921 676.4956,-176.2578 634.7102,-157.6998"/>
<polygon fill="#191970" stroke="#191970" points="635.9687,-154.4286 625.4112,-153.5396 633.11,-160.8183 635.9687,-154.4286"/>
</g>
<!-- Node14 -->
<g id="node15" class="node">
<title>Node14</title>
<g id="a_node15"><a xlink:href="incflo__enums_8_h.html" target="_top" xlink:title="amr&#45;wind/incflo_enums.H">
<polygon fill="#ffffff" stroke="#000000" points="0,-.5 0,-19.5 128,-19.5 128,-.5 0,-.5"/>
<text text-anchor="middle" x="64" y="-7.5" font-family="Helvetica,sans-Serif" font-size="10.00" fill="#000000">amr&#45;wind/incflo_enums.H</text>
</a>
</g>
</g>
<!-- Node0&#45;&gt;Node14 -->
<g id="edge82" class="edge">
<title>Node0&#45;&gt;Node14</title>
<path fill="none" stroke="#191970" d="M1018.3794,-262.936C953.8904,-256.0516 822.3289,-240.8832 712,-221 448.6423,-173.5384 351.3511,-229.7412 125,-87 101.9955,-72.4929 83.981,-46.1808 73.6663,-28.4001"/>
<polygon fill="#191970" stroke="#191970" points="76.6567,-26.5758 68.7452,-19.5289 70.5355,-29.9714 76.6567,-26.5758"/>
</g>
<!-- Node15 -->
<g id="node16" class="node">
<title>Node15</title>
<g id="a_node16"><a xlink:href="_scheme_traits_8_h.html" target="_top" xlink:title="amr&#45;wind/equation_systems\l/SchemeTraits.H">
<polygon fill="#ffffff" stroke="#000000" points="811.5,-190.5 811.5,-220.5 950.5,-220.5 950.5,-190.5 811.5,-190.5"/>
<text text-anchor="start" x="819.5" y="-208.5" font-family="Helvetica,sans-Serif" font-size="10.00" fill="#000000">amr&#45;wind/equation_systems</text>
<text text-anchor="middle" x="881" y="-197.5" font-family="Helvetica,sans-Serif" font-size="10.00" fill="#000000">/SchemeTraits.H</text>
</a>
</g>
</g>
<!-- Node0&#45;&gt;Node15 -->
<g id="edge18" class="edge">
<title>Node0&#45;&gt;Node15</title>
<path fill="none" stroke="#191970" d="M1030.3438,-257.3906C1004.6145,-248.4508 965.5873,-234.8905 933.8811,-223.8739"/>
<polygon fill="#191970" stroke="#191970" points="934.8939,-220.5206 924.2991,-220.5446 932.5964,-227.1329 934.8939,-220.5206"/>
</g>
<!-- Node16 -->
<g id="node17" class="node">
<title>Node16</title>
<g id="a_node17"><a xlink:href="_c_f_d_sim_8_h.html" target="_top" xlink:title="amr&#45;wind/CFDSim.H">
<polygon fill="#ffffff" stroke="#000000" points="1004,-196 1004,-215 1112,-215 1112,-196 1004,-196"/>
<text text-anchor="middle" x="1058" y="-203" font-family="Helvetica,sans-Serif" font-size="10.00" fill="#000000">amr&#45;wind/CFDSim.H</text>
</a>
</g>
</g>
<!-- Node0&#45;&gt;Node16 -->
<g id="edge20" class="edge">
<title>Node0&#45;&gt;Node16</title>
<path fill="none" stroke="#191970" d="M1058,-257.3906C1058,-248.8657 1058,-236.1392 1058,-225.4235"/>
<polygon fill="#191970" stroke="#191970" points="1061.5001,-225.2448 1058,-215.2449 1054.5001,-225.2449 1061.5001,-225.2448"/>
</g>
<!-- Node22 -->
<g id="node23" class="node">
<title>Node22</title>
<g id="a_node23"><a xlink:href="_field_repo_8_h.html" target="_top" xlink:title="amr&#45;wind/core/FieldRepo.H">
<polygon fill="#ffffff" stroke="#000000" points="1170,-129 1170,-148 1306,-148 1306,-129 1170,-129"/>
<text text-anchor="middle" x="1238" y="-136" font-family="Helvetica,sans-Serif" font-size="10.00" fill="#000000">amr&#45;wind/core/FieldRepo.H</text>
</a>
</g>
</g>
<!-- Node0&#45;&gt;Node22 -->
<g id="edge60" class="edge">
<title>Node0&#45;&gt;Node22</title>
<path fill="none" stroke="#191970" d="M1071.6367,-257.2881C1084.4776,-248.0853 1104.196,-233.8048 1121,-221 1138.6116,-207.5798 1142.0771,-203.0015 1160,-190 1177.6779,-177.1762 1198.3266,-163.6021 1213.9365,-153.6108"/>
<polygon fill="#191970" stroke="#191970" points="1215.9244,-156.4945 1222.4845,-148.1749 1212.1681,-150.5877 1215.9244,-156.4945"/>
</g>
<!-- Node34 -->
<g id="node35" class="node">
<title>Node34</title>
<g id="a_node35"><a xlink:href="_p_d_e_helpers_8_h.html" target="_top" xlink:title="amr&#45;wind/equation_systems\l/PDEHelpers.H">
<polygon fill="#ffffff" stroke="#000000" points="1168.5,-190.5 1168.5,-220.5 1307.5,-220.5 1307.5,-190.5 1168.5,-190.5"/>
<text text-anchor="start" x="1176.5" y="-208.5" font-family="Helvetica,sans-Serif" font-size="10.00" fill="#000000">amr&#45;wind/equation_systems</text>
<text text-anchor="middle" x="1238" y="-197.5" font-family="Helvetica,sans-Serif" font-size="10.00" fill="#000000">/PDEHelpers.H</text>
</a>
</g>
</g>
<!-- Node0&#45;&gt;Node34 -->
<g id="edge61" class="edge">
<title>Node0&#45;&gt;Node34</title>
<path fill="none" stroke="#191970" d="M1086.125,-257.3906C1112.2903,-248.4508 1151.9791,-234.8905 1184.2227,-223.8739"/>
<polygon fill="#191970" stroke="#191970" points="1185.6358,-227.0898 1193.967,-220.5446 1183.3725,-220.4658 1185.6358,-227.0898"/>
</g>
<!-- Node40 -->
<g id="node41" class="node">
<title>Node40</title>
<polygon fill="#ffffff" stroke="#bfbfbf" points="1326,-196 1326,-215 1442,-215 1442,-196 1326,-196"/>
<text text-anchor="middle" x="1384" y="-203" font-family="Helvetica,sans-Serif" font-size="10.00" fill="#000000">AMReX_ParmParse.H</text>
</g>
<!-- Node0&#45;&gt;Node40 -->
<g id="edge83" class="edge">
<title>Node0&#45;&gt;Node40</title>
<path fill="none" stroke="#191970" d="M1097.6117,-260.6172C1148.5256,-252.2636 1239.5921,-236.817 1317,-221 1322.6952,-219.8363 1328.6475,-218.5546 1334.5532,-217.2418"/>
<polygon fill="#191970" stroke="#191970" points="1335.4114,-220.6362 1344.3943,-215.0186 1333.8689,-213.8083 1335.4114,-220.6362"/>
</g>
<!-- Node2 -->
<g id="node3" class="node">
<title>Node2</title>
<polygon fill="#ffffff" stroke="#bfbfbf" points="768.5,-.5 768.5,-19.5 809.5,-19.5 809.5,-.5 768.5,-.5"/>
<text text-anchor="middle" x="789" y="-7.5" font-family="Helvetica,sans-Serif" font-size="10.00" fill="#000000">string</text>
</g>
<!-- Node1&#45;&gt;Node2 -->
<g id="edge2" class="edge">
<title>Node1&#45;&gt;Node2</title>
<path fill="none" stroke="#191970" d="M614.8699,-123.34C639.1547,-106.5932 679.6045,-78.957 715,-56 731.3452,-45.3988 749.9732,-33.8219 764.4503,-24.9341"/>
<polygon fill="#191970" stroke="#191970" points="766.5961,-27.7244 773.2987,-19.5192 762.9422,-21.7537 766.5961,-27.7244"/>
</g>
<!-- Node3 -->
<g id="node4" class="node">
<title>Node3</title>
<g id="a_node4"><a xlink:href="_factory_8_h.html" target="_top" xlink:title="amr&#45;wind/core/Factory.H">
<polygon fill="#ffffff" stroke="#000000" points="199.5,-62 199.5,-81 324.5,-81 324.5,-62 199.5,-62"/>
<text text-anchor="middle" x="262" y="-69" font-family="Helvetica,sans-Serif" font-size="10.00" fill="#000000">amr&#45;wind/core/Factory.H</text>
</a>
</g>
</g>
<!-- Node1&#45;&gt;Node3 -->
<g id="edge3" class="edge">
<title>Node1&#45;&gt;Node3</title>
<path fill="none" stroke="#191970" d="M523.4026,-125.0945C470.9992,-114.9086 397.4216,-100.4108 333,-87 327.2236,-85.7975 321.1882,-84.5171 315.1813,-83.2274"/>
<polygon fill="#191970" stroke="#191970" points="315.6634,-79.7508 305.1498,-81.0601 314.1851,-86.593 315.6634,-79.7508"/>
</g>
<!-- Node9 -->
<g id="node10" class="node">
<title>Node9</title>
<g id="a_node10"><a xlink:href="_coll_mgr_8_h.html" target="_top" xlink:title="amr&#45;wind/core/CollMgr.H">
<polygon fill="#ffffff" stroke="#000000" points="342.5,-62 342.5,-81 467.5,-81 467.5,-62 342.5,-62"/>
<text text-anchor="middle" x="405" y="-69" font-family="Helvetica,sans-Serif" font-size="10.00" fill="#000000">amr&#45;wind/core/CollMgr.H</text>
</a>
</g>
</g>
<!-- Node1&#45;&gt;Node9 -->
<g id="edge9" class="edge">
<title>Node1&#45;&gt;Node9</title>
<path fill="none" stroke="#191970" d="M550.8091,-123.4639C517.8886,-111.7316 472.639,-95.6054 441.318,-84.4431"/>
<polygon fill="#191970" stroke="#191970" points="442.2662,-81.0655 431.6716,-81.0053 439.9163,-87.6593 442.2662,-81.0655"/>
</g>
<!-- Node11 -->
<g id="node12" class="node">
<title>Node11</title>
<g id="a_node12"><a xlink:href="_p_d_e_fields_8_h.html" target="_top" xlink:title="amr&#45;wind/equation_systems\l/PDEFields.H">
<polygon fill="#ffffff" stroke="#000000" points="485.5,-56.5 485.5,-86.5 624.5,-86.5 624.5,-56.5 485.5,-56.5"/>
<text text-anchor="start" x="493.5" y="-74.5" font-family="Helvetica,sans-Serif" font-size="10.00" fill="#000000">amr&#45;wind/equation_systems</text>
<text text-anchor="middle" x="555" y="-63.5" font-family="Helvetica,sans-Serif" font-size="10.00" fill="#000000">/PDEFields.H</text>
</a>
</g>
</g>
<!-- Node1&#45;&gt;Node11 -->
<g id="edge14" class="edge">
<title>Node1&#45;&gt;Node11</title>
<path fill="none" stroke="#191970" d="M584.3772,-123.2967C579.713,-115.0729 573.8453,-104.7272 568.5826,-95.4483"/>
<polygon fill="#191970" stroke="#191970" points="571.5665,-93.6148 563.5887,-86.6432 565.4777,-97.0683 571.5665,-93.6148"/>
</g>
<!-- Node13 -->
<g id="node14" class="node">
<title>Node13</title>
<g id="a_node14"><a xlink:href="_field_desc_types_8_h.html" target="_top" xlink:title="amr&#45;wind/core/FieldDescTypes.H">
<polygon fill="#ffffff" stroke="#000000" points="1478.5,-.5 1478.5,-19.5 1641.5,-19.5 1641.5,-.5 1478.5,-.5"/>
<text text-anchor="middle" x="1560" y="-7.5" font-family="Helvetica,sans-Serif" font-size="10.00" fill="#000000">amr&#45;wind/core/FieldDescTypes.H</text>
</a>
</g>
</g>
<!-- Node1&#45;&gt;Node13 -->
<g id="edge16" class="edge">
<title>Node1&#45;&gt;Node13</title>
<path fill="none" stroke="#191970" d="M662.7617,-130.744C689.4066,-127.9866 720.0854,-125.059 748,-123 831.8674,-116.814 1429.9905,-126.9324 1504,-87 1527.3209,-74.417 1543.3943,-47.3978 1552.1519,-28.9572"/>
<polygon fill="#191970" stroke="#191970" points="1555.3855,-30.2996 1556.2641,-19.7413 1548.993,-27.4472 1555.3855,-30.2996"/>
</g>
<!-- Node1&#45;&gt;Node14 -->
<g id="edge17" class="edge">
<title>Node1&#45;&gt;Node14</title>
<path fill="none" stroke="#191970" d="M523.37,-133.1412C424.7984,-124.9532 249.8927,-108.0399 190,-87 149.4646,-72.7602 108.003,-44.1651 84.1998,-26.1127"/>
<polygon fill="#191970" stroke="#191970" points="86.0335,-23.1065 75.9804,-19.762 81.7537,-28.6457 86.0335,-23.1065"/>
</g>
<!-- Node4 -->
<g id="node5" class="node">
<title>Node4</title>
<polygon fill="#ffffff" stroke="#bfbfbf" points="518,-.5 518,-19.5 570,-19.5 570,-.5 518,-.5"/>
<text text-anchor="middle" x="544" y="-7.5" font-family="Helvetica,sans-Serif" font-size="10.00" fill="#000000">memory</text>
</g>
<!-- Node3&#45;&gt;Node4 -->
<g id="edge4" class="edge">
<title>Node3&#45;&gt;Node4</title>
<path fill="none" stroke="#191970" d="M305.1604,-61.9906C314.3453,-59.9913 323.9901,-57.9101 333,-56 410.6799,-39.5315 430.8117,-38.6371 508,-20 508.0985,-19.9762 508.1972,-19.9523 508.296,-19.9284"/>
<polygon fill="#191970" stroke="#191970" points="508.8842,-23.3906 517.7078,-17.5259 507.1528,-16.608 508.8842,-23.3906"/>
</g>
<!-- Node5 -->
<g id="node6" class="node">
<title>Node5</title>
<polygon fill="#ffffff" stroke="#bfbfbf" points="588.5,-.5 588.5,-19.5 671.5,-19.5 671.5,-.5 588.5,-.5"/>
<text text-anchor="middle" x="630" y="-7.5" font-family="Helvetica,sans-Serif" font-size="10.00" fill="#000000">unordered_map</text>
</g>
<!-- Node3&#45;&gt;Node5 -->
<g id="edge5" class="edge">
<title>Node3&#45;&gt;Node5</title>
<path fill="none" stroke="#191970" d="M303.2005,-61.997C312.945,-59.8907 323.3182,-57.763 333,-56 438.5253,-36.7841 468.3535,-38.5127 578.1203,-20.076"/>
<polygon fill="#191970" stroke="#191970" points="579.0088,-23.4753 588.2816,-18.3504 577.8368,-16.5741 579.0088,-23.4753"/>
</g>
<!-- Node6 -->
<g id="node7" class="node">
<title>Node6</title>
<polygon fill="#ffffff" stroke="#bfbfbf" points="146,-.5 146,-19.5 200,-19.5 200,-.5 146,-.5"/>
<text text-anchor="middle" x="173" y="-7.5" font-family="Helvetica,sans-Serif" font-size="10.00" fill="#000000">iostream</text>
</g>
<!-- Node3&#45;&gt;Node6 -->
<g id="edge6" class="edge">
<title>Node3&#45;&gt;Node6</title>
<path fill="none" stroke="#191970" d="M248.0938,-61.8906C233.9862,-52.1421 211.9276,-36.8994 195.3615,-25.4521"/>
<polygon fill="#191970" stroke="#191970" points="197.0253,-22.3474 186.8086,-19.5419 193.0458,-28.1063 197.0253,-22.3474"/>
</g>
<!-- Node7 -->
<g id="node8" class="node">
<title>Node7</title>
<polygon fill="#ffffff" stroke="#bfbfbf" points="218.5,-.5 218.5,-19.5 305.5,-19.5 305.5,-.5 218.5,-.5"/>
<text text-anchor="middle" x="262" y="-7.5" font-family="Helvetica,sans-Serif" font-size="10.00" fill="#000000">AMReX_Print.H</text>
</g>
<!-- Node3&#45;&gt;Node7 -->
<g id="edge7" class="edge">
<title>Node3&#45;&gt;Node7</title>
<path fill="none" stroke="#191970" d="M262,-61.8906C262,-53.3657 262,-40.6392 262,-29.9235"/>
<polygon fill="#191970" stroke="#191970" points="265.5001,-29.7448 262,-19.7449 258.5001,-29.7449 265.5001,-29.7448"/>
</g>
<!-- Node8 -->
<g id="node9" class="node">
<title>Node8</title>
<polygon fill="#ffffff" stroke="#bfbfbf" points="324,-.5 324,-19.5 386,-19.5 386,-.5 324,-.5"/>
<text text-anchor="middle" x="355" y="-7.5" font-family="Helvetica,sans-Serif" font-size="10.00" fill="#000000">AMReX.H</text>
</g>
<!-- Node3&#45;&gt;Node8 -->
<g id="edge8" class="edge">
<title>Node3&#45;&gt;Node8</title>
<path fill="none" stroke="#191970" d="M276.5313,-61.8906C291.4094,-52.0519 314.7504,-36.6167 332.1128,-25.1351"/>
<polygon fill="#191970" stroke="#191970" points="334.1602,-27.9773 340.5708,-19.5419 330.299,-22.1385 334.1602,-27.9773"/>
</g>
<!-- Node9&#45;&gt;Node2 -->
<g id="edge10" class="edge">
<title>Node9&#45;&gt;Node2</title>
<path fill="none" stroke="#191970" d="M445.8118,-61.9986C455.6652,-59.8687 466.1841,-57.7303 476,-56 593.9224,-35.2135 625.0685,-40.7348 743,-20 747.9704,-19.1261 753.2193,-18.092 758.3233,-17.0257"/>
<polygon fill="#191970" stroke="#191970" points="759.4265,-20.3682 768.4605,-14.8331 757.9466,-13.5264 759.4265,-20.3682"/>
</g>
<!-- Node9&#45;&gt;Node4 -->
<g id="edge11" class="edge">
<title>Node9&#45;&gt;Node4</title>
<path fill="none" stroke="#191970" d="M426.7188,-61.8906C449.874,-51.6457 486.7441,-35.3326 512.9591,-23.7339"/>
<polygon fill="#191970" stroke="#191970" points="514.705,-26.7888 522.4338,-19.5419 511.8727,-20.3874 514.705,-26.7888"/>
</g>
<!-- Node9&#45;&gt;Node5 -->
<g id="edge12" class="edge">
<title>Node9&#45;&gt;Node5</title>
<path fill="none" stroke="#191970" d="M440.1563,-61.8906C479.2889,-51.1944 542.621,-33.8836 585.2582,-22.2294"/>
<polygon fill="#191970" stroke="#191970" points="586.3673,-25.5547 595.0906,-19.5419 584.5216,-18.8024 586.3673,-25.5547"/>
</g>
<!-- Node10 -->
<g id="node11" class="node">
<title>Node10</title>
<polygon fill="#ffffff" stroke="#bfbfbf" points="404.5,-.5 404.5,-19.5 499.5,-19.5 499.5,-.5 404.5,-.5"/>
<text text-anchor="middle" x="452" y="-7.5" font-family="Helvetica,sans-Serif" font-size="10.00" fill="#000000">AMReX_Vector.H</text>
</g>
<!-- Node9&#45;&gt;Node10 -->
<g id="edge13" class="edge">
<title>Node9&#45;&gt;Node10</title>
<path fill="none" stroke="#191970" d="M412.3438,-61.8906C419.2702,-52.8273 429.826,-39.0149 438.306,-27.9188"/>
<polygon fill="#191970" stroke="#191970" points="441.2615,-29.8155 444.5527,-19.7449 435.6997,-25.565 441.2615,-29.8155"/>
</g>
<!-- Node12 -->
<g id="node13" class="node">
<title>Node12</title>
<polygon fill="#ffffff" stroke="#bfbfbf" points="689.5,-.5 689.5,-19.5 734.5,-19.5 734.5,-.5 689.5,-.5"/>
<text text-anchor="middle" x="712" y="-7.5" font-family="Helvetica,sans-Serif" font-size="10.00" fill="#000000">iosfwd</text>
</g>
<!-- Node11&#45;&gt;Node12 -->
<g id="edge15" class="edge">
<title>Node11&#45;&gt;Node12</title>
<path fill="none" stroke="#191970" d="M593.4065,-56.4554C619.8534,-46.0956 654.5997,-32.4848 679.6382,-22.6768"/>
<polygon fill="#191970" stroke="#191970" points="681.0195,-25.8947 689.054,-18.9884 678.4663,-19.3769 681.0195,-25.8947"/>
</g>
<!-- Node15&#45;&gt;Node2 -->
<g id="edge19" class="edge">
<title>Node15&#45;&gt;Node2</title>
<path fill="none" stroke="#191970" d="M824.1175,-190.4457C792.3086,-180.7525 757.2366,-167.4815 748,-154 739.8865,-142.1578 743.1077,-81.5602 753,-56 757.0749,-45.4712 764.4138,-35.4005 771.4073,-27.3806"/>
<polygon fill="#191970" stroke="#191970" points="774.1775,-29.541 778.4188,-19.8321 769.0487,-24.777 774.1775,-29.541"/>
</g>
<!-- Node16&#45;&gt;Node1 -->
<g id="edge54" class="edge">
<title>Node16&#45;&gt;Node1</title>
<path fill="none" stroke="#191970" d="M1003.854,-196.7631C989.5973,-194.51 974.2257,-192.1229 960,-190 861.2386,-175.2615 747.3384,-159.4651 672.9539,-149.3106"/>
<polygon fill="#191970" stroke="#191970" points="673.1071,-145.7991 662.7259,-147.9159 672.1613,-152.735 673.1071,-145.7991"/>
</g>
<!-- Node17 -->
<g id="node18" class="node">
<title>Node17</title>
<polygon fill="#ffffff" stroke="#bfbfbf" points="1589,-62 1589,-81 1695,-81 1695,-62 1589,-62"/>
<text text-anchor="middle" x="1642" y="-69" font-family="Helvetica,sans-Serif" font-size="10.00" fill="#000000">AMReX_AmrCore.H</text>
</g>
<!-- Node16&#45;&gt;Node17 -->
<g id="edge21" class="edge">
<title>Node16&#45;&gt;Node17</title>
<path fill="none" stroke="#191970" d="M1109.3573,-195.9817C1161.3488,-186.1645 1243.9859,-170.0631 1315,-154 1415.8882,-131.1795 1533.2598,-100.5663 1596.318,-83.7839"/>
<polygon fill="#191970" stroke="#191970" points="1597.5717,-87.0719 1606.3321,-81.1133 1595.7679,-80.3083 1597.5717,-87.0719"/>
</g>
<!-- Node18 -->
<g id="node19" class="node">
<title>Node18</title>
<g id="a_node19"><a xlink:href="_sim_time_8_h.html" target="_top" xlink:title="amr&#45;wind/core/SimTime.H">
<polygon fill="#ffffff" stroke="#000000" points="2471.5,-62 2471.5,-81 2602.5,-81 2602.5,-62 2471.5,-62"/>
<text text-anchor="middle" x="2537" y="-69" font-family="Helvetica,sans-Serif" font-size="10.00" fill="#000000">amr&#45;wind/core/SimTime.H</text>
</a>
</g>
</g>
<!-- Node16&#45;&gt;Node18 -->
<g id="edge22" class="edge">
<title>Node16&#45;&gt;Node18</title>
<path fill="none" stroke="#191970" d="M1112.1188,-196.1195C1127.5446,-193.7606 1144.3975,-191.4811 1160,-190 1574.0023,-150.6992 1681.7192,-200.2752 2095,-154 2238.3958,-137.9439 2405.1524,-102.0627 2486.7747,-83.3567"/>
<polygon fill="#191970" stroke="#191970" points="2487.8129,-86.7093 2496.772,-81.0536 2486.2415,-79.8879 2487.8129,-86.7093"/>
</g>
<!-- Node16&#45;&gt;Node22 -->
<g id="edge26" class="edge">
<title>Node16&#45;&gt;Node22</title>
<path fill="none" stroke="#191970" d="M1083.7896,-195.9005C1114.9333,-184.3082 1167.4815,-164.7486 1202.4531,-151.7313"/>
<polygon fill="#191970" stroke="#191970" points="1204.1074,-154.8503 1212.2582,-148.0817 1201.6654,-148.29 1204.1074,-154.8503"/>
</g>
<!-- Node32 -->
<g id="node33" class="node">
<title>Node32</title>
<g id="a_node33"><a xlink:href="_physics_8_h.html" target="_top" xlink:title="amr&#45;wind/core/Physics.H">
<polygon fill="#ffffff" stroke="#000000" points="757.5,-129 757.5,-148 884.5,-148 884.5,-129 757.5,-129"/>
<text text-anchor="middle" x="821" y="-136" font-family="Helvetica,sans-Serif" font-size="10.00" fill="#000000">amr&#45;wind/core/Physics.H</text>
</a>
</g>
</g>
<!-- Node16&#45;&gt;Node32 -->
<g id="edge55" class="edge">
<title>Node16&#45;&gt;Node32</title>
<path fill="none" stroke="#191970" d="M1024.2954,-195.9717C982.3863,-184.124 910.7623,-163.8758 864.6813,-150.8487"/>
<polygon fill="#191970" stroke="#191970" points="865.5471,-147.4564 854.9721,-148.1039 863.6428,-154.1924 865.5471,-147.4564"/>
</g>
<!-- Node19 -->
<g id="node20" class="node">
<title>Node19</title>
<polygon fill="#ffffff" stroke="#bfbfbf" points="2383.5,-.5 2383.5,-19.5 2476.5,-19.5 2476.5,-.5 2383.5,-.5"/>
<text text-anchor="middle" x="2430" y="-7.5" font-family="Helvetica,sans-Serif" font-size="10.00" fill="#000000">AMReX_REAL.H</text>
</g>
<!-- Node18&#45;&gt;Node19 -->
<g id="edge23" class="edge">
<title>Node18&#45;&gt;Node19</title>
<path fill="none" stroke="#191970" d="M2520.2813,-61.8906C2502.9278,-51.9165 2475.5677,-36.1908 2455.5118,-24.6633"/>
<polygon fill="#191970" stroke="#191970" points="2457.0154,-21.4907 2446.6013,-19.5419 2453.5272,-27.5596 2457.0154,-21.4907"/>
</g>
<!-- Node20 -->
<g id="node21" class="node">
<title>Node20</title>
<polygon fill="#ffffff" stroke="#bfbfbf" points="2623,-.5 2623,-19.5 2749,-19.5 2749,-.5 2623,-.5"/>
<text text-anchor="middle" x="2686" y="-7.5" font-family="Helvetica,sans-Serif" font-size="10.00" fill="#000000">AMReX_GpuQualifiers.H</text>
</g>
<!-- Node18&#45;&gt;Node20 -->
<g id="edge24" class="edge">
<title>Node18&#45;&gt;Node20</title>
<path fill="none" stroke="#191970" d="M2560.2813,-61.8906C2585.321,-51.5554 2625.3225,-35.0447 2653.466,-23.4284"/>
<polygon fill="#191970" stroke="#191970" points="2654.974,-26.5925 2662.8822,-19.5419 2652.3033,-20.122 2654.974,-26.5925"/>
</g>
<!-- Node21 -->
<g id="node22" class="node">
<title>Node21</title>
<polygon fill="#ffffff" stroke="#bfbfbf" points="2495,-.5 2495,-19.5 2605,-19.5 2605,-.5 2495,-.5"/>
<text text-anchor="middle" x="2550" y="-7.5" font-family="Helvetica,sans-Serif" font-size="10.00" fill="#000000">AMReX_Extension.H</text>
</g>
<!-- Node18&#45;&gt;Node21 -->
<g id="edge25" class="edge">
<title>Node18&#45;&gt;Node21</title>
<path fill="none" stroke="#191970" d="M2539.0313,-61.8906C2540.8522,-53.276 2543.5802,-40.3708 2545.8599,-29.5858"/>
<polygon fill="#191970" stroke="#191970" points="2549.2962,-30.2525 2547.9401,-19.7449 2542.4476,-28.8048 2549.2962,-30.2525"/>
</g>
<!-- Node22&#45;&gt;Node2 -->
<g id="edge27" class="edge">
<title>Node22&#45;&gt;Node2</title>
<path fill="none" stroke="#191970" d="M1169.8699,-134.5792C1076.4808,-128.2926 914.3188,-113.8459 862,-87 835.4829,-73.3935 813.3247,-46.2286 800.6078,-28.0788"/>
<polygon fill="#191970" stroke="#191970" points="803.3366,-25.8651 794.8452,-19.5289 797.5319,-29.7774 803.3366,-25.8651"/>
</g>
<!-- Node22&#45;&gt;Node5 -->
<g id="edge28" class="edge">
<title>Node22&#45;&gt;Node5</title>
<path fill="none" stroke="#191970" d="M1169.8433,-135.6556C1086.0651,-130.902 940.1098,-118.5169 819,-87 759.7629,-71.5845 694.4053,-41.9089 658.1646,-24.2398"/>
<polygon fill="#191970" stroke="#191970" points="659.2612,-20.8783 648.7442,-19.5964 656.1664,-27.157 659.2612,-20.8783"/>
</g>
<!-- Node22&#45;&gt;Node13 -->
<g id="edge29" class="edge">
<title>Node22&#45;&gt;Node13</title>
<path fill="none" stroke="#191970" d="M1306.2454,-134.956C1383.7067,-129.5564 1503.6515,-116.5779 1537,-87 1553.1736,-72.6551 1558.1944,-47.4652 1559.6382,-29.8144"/>
<polygon fill="#191970" stroke="#191970" points="1563.1386,-29.8922 1560.1473,-19.7284 1556.1475,-29.5392 1563.1386,-29.8922"/>
</g>
<!-- Node22&#45;&gt;Node17 -->
<g id="edge51" class="edge">
<title>Node22&#45;&gt;Node17</title>
<path fill="none" stroke="#191970" d="M1306.0341,-129.6435C1374.2846,-120.3975 1482.2879,-104.7818 1575,-87 1580.8591,-85.8763 1586.9835,-84.6007 1593.0465,-83.2753"/>
<polygon fill="#191970" stroke="#191970" points="1594.1411,-86.6169 1603.1344,-81.0159 1592.6112,-79.7862 1594.1411,-86.6169"/>
</g>
<!-- Node23 -->
<g id="node24" class="node">
<title>Node23</title>
<g id="a_node24"><a xlink:href="_field_utils_8_h.html" target="_top" xlink:title="amr&#45;wind/core/FieldUtils.H">
<polygon fill="#ffffff" stroke="#000000" points="1921.5,-62 1921.5,-81 2054.5,-81 2054.5,-62 1921.5,-62"/>
<text text-anchor="middle" x="1988" y="-69" font-family="Helvetica,sans-Serif" font-size="10.00" fill="#000000">amr&#45;wind/core/FieldUtils.H</text>
</a>
</g>
</g>
<!-- Node22&#45;&gt;Node23 -->
<g id="edge30" class="edge">
<title>Node22&#45;&gt;Node23</title>
<path fill="none" stroke="#191970" d="M1306.1897,-132.9783C1417.244,-123.9067 1644.0699,-105.0493 1836,-87 1860.4945,-84.6965 1887.1924,-82.0275 1911.2816,-79.5603"/>
<polygon fill="#191970" stroke="#191970" points="1911.8422,-83.0212 1921.4319,-78.5169 1911.1264,-76.0579 1911.8422,-83.0212"/>
</g>
<!-- Node24 -->
<g id="node25" class="node">
<title>Node24</title>
<polygon fill="#ffffff" stroke="#bfbfbf" points="1355,-.5 1355,-19.5 1459,-19.5 1459,-.5 1355,-.5"/>
<text text-anchor="middle" x="1407" y="-7.5" font-family="Helvetica,sans-Serif" font-size="10.00" fill="#000000">AMReX_MultiFab.H</text>
</g>
<!-- Node22&#45;&gt;Node24 -->
<g id="edge52" class="edge">
<title>Node22&#45;&gt;Node24</title>
<path fill="none" stroke="#191970" d="M1249.3917,-128.7957C1267.9982,-113.0581 1306.2258,-81.1924 1340,-56 1354.3352,-45.3073 1370.8997,-33.9264 1383.9717,-25.16"/>
<polygon fill="#191970" stroke="#191970" points="1386.0118,-28.0065 1392.3933,-19.5492 1382.1306,-22.181 1386.0118,-28.0065"/>
</g>
<!-- Node26 -->
<g id="node27" class="node">
<title>Node26</title>
<g id="a_node27"><a xlink:href="_field_8_h.html" target="_top" xlink:title="amr&#45;wind/core/Field.H">
<polygon fill="#ffffff" stroke="#000000" points="999.5,-62 999.5,-81 1112.5,-81 1112.5,-62 999.5,-62"/>
<text text-anchor="middle" x="1056" y="-69" font-family="Helvetica,sans-Serif" font-size="10.00" fill="#000000">amr&#45;wind/core/Field.H</text>
</a>
</g>
</g>
<!-- Node22&#45;&gt;Node26 -->
<g id="edge34" class="edge">
<title>Node22&#45;&gt;Node26</title>
<path fill="none" stroke="#191970" d="M1211.9238,-128.9005C1180.2989,-117.2584 1126.8456,-97.5805 1091.4876,-84.5641"/>
<polygon fill="#191970" stroke="#191970" points="1092.6213,-81.2519 1082.0278,-81.0817 1090.203,-87.8209 1092.6213,-81.2519"/>
</g>
<!-- Node29 -->
<g id="node30" class="node">
<title>Node29</title>
<g id="a_node30"><a xlink:href="_int_field_8_h.html" target="_top" xlink:title="amr&#45;wind/core/IntField.H">
<polygon fill="#ffffff" stroke="#000000" points="1131,-62 1131,-81 1255,-81 1255,-62 1131,-62"/>
<text text-anchor="middle" x="1193" y="-69" font-family="Helvetica,sans-Serif" font-size="10.00" fill="#000000">amr&#45;wind/core/IntField.H</text>
</a>
</g>
</g>
<!-- Node22&#45;&gt;Node29 -->
<g id="edge43" class="edge">
<title>Node22&#45;&gt;Node29</title>
<path fill="none" stroke="#191970" d="M1231.5526,-128.9005C1224.6689,-118.6515 1213.6024,-102.1747 1205.088,-89.4976"/>
<polygon fill="#191970" stroke="#191970" points="1207.9165,-87.4316 1199.4354,-81.0817 1202.1056,-91.3345 1207.9165,-87.4316"/>
</g>
<!-- Node30 -->
<g id="node31" class="node">
<title>Node30</title>
<polygon fill="#ffffff" stroke="#bfbfbf" points="1228.5,-.5 1228.5,-19.5 1335.5,-19.5 1335.5,-.5 1228.5,-.5"/>
<text text-anchor="middle" x="1282" y="-7.5" font-family="Helvetica,sans-Serif" font-size="10.00" fill="#000000">AMReX_iMultiFab.H</text>
</g>
<!-- Node22&#45;&gt;Node30 -->
<g id="edge53" class="edge">
<title>Node22&#45;&gt;Node30</title>
<path fill="none" stroke="#191970" d="M1243.7005,-128.9367C1249.5183,-118.8223 1258.4579,-102.2497 1264,-87 1270.8674,-68.1035 1275.7684,-45.6272 1278.7053,-29.8515"/>
<polygon fill="#191970" stroke="#191970" points="1282.2063,-30.1515 1280.4967,-19.6956 1275.3128,-28.9355 1282.2063,-30.1515"/>
</g>
<!-- Node31 -->
<g id="node32" class="node">
<title>Node31</title>
<g id="a_node32"><a xlink:href="_scratch_field_8_h.html" target="_top" xlink:title="amr&#45;wind/core/ScratchField.H">
<polygon fill="#ffffff" stroke="#000000" points="1349,-62 1349,-81 1495,-81 1495,-62 1349,-62"/>
<text text-anchor="middle" x="1422" y="-69" font-family="Helvetica,sans-Serif" font-size="10.00" fill="#000000">amr&#45;wind/core/ScratchField.H</text>
</a>
</g>
</g>
<!-- Node22&#45;&gt;Node31 -->
<g id="edge47" class="edge">
<title>Node22&#45;&gt;Node31</title>
<path fill="none" stroke="#191970" d="M1264.3627,-128.9005C1296.3351,-117.2584 1350.3759,-97.5805 1386.1225,-84.5641"/>
<polygon fill="#191970" stroke="#191970" points="1387.4873,-87.792 1395.6862,-81.0817 1385.0922,-81.2145 1387.4873,-87.792"/>
</g>
<!-- Node23&#45;&gt;Node13 -->
<g id="edge31" class="edge">
<title>Node23&#45;&gt;Node13</title>
<path fill="none" stroke="#191970" d="M1940.5381,-61.9464C1929.5472,-59.8651 1917.883,-57.7611 1907,-56 1820.6617,-42.0283 1721.7274,-29.2273 1651.6483,-20.6967"/>
<polygon fill="#191970" stroke="#191970" points="1651.8716,-17.1982 1641.5231,-19.4694 1651.0292,-24.1473 1651.8716,-17.1982"/>
</g>
<!-- Node23&#45;&gt;Node24 -->
<g id="edge32" class="edge">
<title>Node23&#45;&gt;Node24</title>
<path fill="none" stroke="#191970" d="M1942.7298,-61.9523C1931.1237,-59.7483 1918.6327,-57.5875 1907,-56 1713.9097,-29.6487 1663.4832,-43.2919 1470,-20 1469.7801,-19.9735 1469.5598,-19.9469 1469.3391,-19.92"/>
<polygon fill="#191970" stroke="#191970" points="1469.5807,-16.4219 1459.2116,-18.5975 1468.6742,-23.363 1469.5807,-16.4219"/>
</g>
<!-- Node25 -->
<g id="node26" class="node">
<title>Node25</title>
<polygon fill="#ffffff" stroke="#bfbfbf" points="1930,-.5 1930,-19.5 2046,-19.5 2046,-.5 1930,-.5"/>
<text text-anchor="middle" x="1988" y="-7.5" font-family="Helvetica,sans-Serif" font-size="10.00" fill="#000000">AMReX_Interpolater.H</text>
</g>
<!-- Node23&#45;&gt;Node25 -->
<g id="edge33" class="edge">
<title>Node23&#45;&gt;Node25</title>
<path fill="none" stroke="#191970" d="M1988,-61.8906C1988,-53.3657 1988,-40.6392 1988,-29.9235"/>
<polygon fill="#191970" stroke="#191970" points="1991.5001,-29.7448 1988,-19.7449 1984.5001,-29.7449 1991.5001,-29.7448"/>
</g>
<!-- Node26&#45;&gt;Node2 -->
<g id="edge35" class="edge">
<title>Node26&#45;&gt;Node2</title>
<path fill="none" stroke="#191970" d="M1015.5198,-61.9549C1007.0879,-59.9775 998.2555,-57.914 990,-56 929.4967,-41.9723 858.682,-25.8303 819.3216,-16.8828"/>
<polygon fill="#191970" stroke="#191970" points="820.0801,-13.466 809.5531,-14.6631 818.5289,-20.292 820.0801,-13.466"/>
</g>
<!-- Node26&#45;&gt;Node4 -->
<g id="edge36" class="edge">
<title>Node26&#45;&gt;Node4</title>
<path fill="none" stroke="#191970" d="M1019.5299,-61.9508C1009.9748,-59.7201 999.6459,-57.5469 990,-56 812.13,-27.4746 761.0955,-52.4289 580.0877,-19.8833"/>
<polygon fill="#191970" stroke="#191970" points="580.7123,-16.4395 570.2453,-18.0804 579.451,-23.325 580.7123,-16.4395"/>
</g>
<!-- Node26&#45;&gt;Node5 -->
<g id="edge37" class="edge">
<title>Node26&#45;&gt;Node5</title>
<path fill="none" stroke="#191970" d="M1018.8066,-61.9758C1009.447,-59.7973 999.3912,-57.6424 990,-56 856.5724,-32.6647 818.768,-41.1915 681.7365,-20.1698"/>
<polygon fill="#191970" stroke="#191970" points="682.1159,-16.6868 671.6961,-18.6044 681.0375,-23.6032 682.1159,-16.6868"/>
</g>
<!-- Node26&#45;&gt;Node13 -->
<g id="edge42" class="edge">
<title>Node26&#45;&gt;Node13</title>
<path fill="none" stroke="#191970" d="M1092.8335,-61.9778C1102.2913,-59.7734 1112.4831,-57.6059 1122,-56 1274.4526,-30.2743 1314.2594,-36.3534 1468,-20 1468.1048,-19.9888 1468.2098,-19.9777 1468.3147,-19.9665"/>
<polygon fill="#191970" stroke="#191970" points="1468.6653,-23.4491 1478.2371,-18.907 1467.922,-16.4886 1468.6653,-23.4491"/>
</g>
<!-- Node26&#45;&gt;Node14 -->
<g id="edge41" class="edge">
<title>Node26&#45;&gt;Node14</title>
<path fill="none" stroke="#191970" d="M1020.9503,-61.9745C1011.0169,-59.6289 1000.1448,-57.3926 990,-56 617.381,-4.8482 516.7054,-52.926 138.1903,-20.016"/>
<polygon fill="#191970" stroke="#191970" points="138.3245,-16.5143 128.0555,-19.1213 137.7089,-23.4872 138.3245,-16.5143"/>
</g>
<!-- Node26&#45;&gt;Node24 -->
<g id="edge38" class="edge">
<title>Node26&#45;&gt;Node24</title>
<path fill="none" stroke="#191970" d="M1094.639,-61.9435C1103.5961,-59.8624 1113.1094,-57.7592 1122,-56 1122.6865,-55.8642 1261.3396,-33.495 1344.9733,-20.0045"/>
<polygon fill="#191970" stroke="#191970" points="1345.5719,-23.4533 1354.8869,-18.4054 1344.4571,-16.5426 1345.5719,-23.4533"/>
</g>
<!-- Node27 -->
<g id="node28" class="node">
<title>Node27</title>
<polygon fill="#ffffff" stroke="#bfbfbf" points="1006.5,-.5 1006.5,-19.5 1105.5,-19.5 1105.5,-.5 1006.5,-.5"/>
<text text-anchor="middle" x="1056" y="-7.5" font-family="Helvetica,sans-Serif" font-size="10.00" fill="#000000">AMReX_BCRec.H</text>
</g>
<!-- Node26&#45;&gt;Node27 -->
<g id="edge39" class="edge">
<title>Node26&#45;&gt;Node27</title>
<path fill="none" stroke="#191970" d="M1056,-61.8906C1056,-53.3657 1056,-40.6392 1056,-29.9235"/>
<polygon fill="#191970" stroke="#191970" points="1059.5001,-29.7448 1056,-19.7449 1052.5001,-29.7449 1059.5001,-29.7448"/>
</g>
<!-- Node28 -->
<g id="node29" class="node">
<title>Node28</title>
<polygon fill="#ffffff" stroke="#bfbfbf" points="1124.5,-.5 1124.5,-19.5 1209.5,-19.5 1209.5,-.5 1124.5,-.5"/>
<text text-anchor="middle" x="1167" y="-7.5" font-family="Helvetica,sans-Serif" font-size="10.00" fill="#000000">AMReX_Gpu.H</text>
</g>
<!-- Node26&#45;&gt;Node28 -->
<g id="edge40" class="edge">
<title>Node26&#45;&gt;Node28</title>
<path fill="none" stroke="#191970" d="M1073.3438,-61.8906C1091.4273,-51.8713 1119.9859,-36.0483 1140.8165,-24.5071"/>
<polygon fill="#191970" stroke="#191970" points="1142.7271,-27.4498 1149.778,-19.5419 1139.3346,-21.3268 1142.7271,-27.4498"/>
</g>
<!-- Node29&#45;&gt;Node2 -->
<g id="edge44" class="edge">
<title>Node29&#45;&gt;Node2</title>
<path fill="none" stroke="#191970" d="M1151.8097,-61.9405C1142.0648,-59.8365 1131.6888,-57.7241 1122,-56 1011.3816,-36.3158 878.8143,-20.2228 819.869,-13.4518"/>
<polygon fill="#191970" stroke="#191970" points="820.0734,-9.9525 809.7413,-12.2973 819.2805,-16.9075 820.0734,-9.9525"/>
</g>
<!-- Node29&#45;&gt;Node13 -->
<g id="edge45" class="edge">
<title>Node29&#45;&gt;Node13</title>
<path fill="none" stroke="#191970" d="M1249.9411,-61.9581C1315.6659,-50.9443 1423.6248,-32.8531 1493.2435,-21.1867"/>
<polygon fill="#191970" stroke="#191970" points="1493.9433,-24.6183 1503.2273,-19.5137 1492.7863,-17.7146 1493.9433,-24.6183"/>
</g>
<!-- Node29&#45;&gt;Node30 -->
<g id="edge46" class="edge">
<title>Node29&#45;&gt;Node30</title>
<path fill="none" stroke="#191970" d="M1206.9063,-61.8906C1221.0138,-52.1421 1243.0724,-36.8994 1259.6385,-25.4521"/>
<polygon fill="#191970" stroke="#191970" points="1261.9542,-28.1063 1268.1914,-19.5419 1257.9747,-22.3474 1261.9542,-28.1063"/>
</g>
<!-- Node31&#45;&gt;Node2 -->
<g id="edge48" class="edge">
<title>Node31&#45;&gt;Node2</title>
<path fill="none" stroke="#191970" d="M1348.8457,-64.3043C1322.1444,-61.6829 1291.7066,-58.7006 1264,-56 1096.5927,-39.6825 895.9777,-20.3163 820.1061,-12.9988"/>
<polygon fill="#191970" stroke="#191970" points="820.1257,-9.4846 809.8359,-12.0084 819.4537,-16.4523 820.1257,-9.4846"/>
</g>
<!-- Node31&#45;&gt;Node13 -->
<g id="edge49" class="edge">
<title>Node31&#45;&gt;Node13</title>
<path fill="none" stroke="#191970" d="M1443.5625,-61.8906C1466.5512,-51.6457 1503.156,-35.3326 1529.1824,-23.7339"/>
<polygon fill="#191970" stroke="#191970" points="1530.8796,-26.8095 1538.5889,-19.5419 1528.0302,-20.4156 1530.8796,-26.8095"/>
</g>
<!-- Node31&#45;&gt;Node24 -->
<g id="edge50" class="edge">
<title>Node31&#45;&gt;Node24</title>
<path fill="none" stroke="#191970" d="M1419.6563,-61.8906C1417.5551,-53.276 1414.4075,-40.3708 1411.777,-29.5858"/>
<polygon fill="#191970" stroke="#191970" points="1415.1468,-28.6307 1409.3768,-19.7449 1408.3461,-30.2894 1415.1468,-28.6307"/>
</g>
<!-- Node32&#45;&gt;Node3 -->
<g id="edge56" class="edge">
<title>Node32&#45;&gt;Node3</title>
<path fill="none" stroke="#191970" d="M757.3307,-131.8724C627.4759,-118.3428 343.3684,-88.6737 333,-87 326.2215,-85.9058 319.1163,-84.5763 312.1298,-83.1611"/>
<polygon fill="#191970" stroke="#191970" points="312.5357,-79.6702 302.0303,-81.0436 311.0993,-86.5212 312.5357,-79.6702"/>
</g>
<!-- Node32&#45;&gt;Node9 -->
<g id="edge57" class="edge">
<title>Node32&#45;&gt;Node9</title>
<path fill="none" stroke="#191970" d="M757.2028,-130.2751C687.7993,-121.0251 573.6851,-104.9331 476,-87 469.7294,-85.8488 463.168,-84.5482 456.6749,-83.202"/>
<polygon fill="#191970" stroke="#191970" points="457.0875,-79.7118 446.5793,-81.0639 455.6371,-86.5599 457.0875,-79.7118"/>
</g>
<!-- Node32&#45;&gt;Node24 -->
<g id="edge58" class="edge">
<title>Node32&#45;&gt;Node24</title>
<path fill="none" stroke="#191970" d="M822.6282,-128.8223C826.1959,-110.9742 836.5168,-73.1358 862,-56 951.3159,4.0592 1238.1067,-32.5807 1345,-20 1345.1015,-19.9881 1345.2031,-19.9761 1345.3048,-19.964"/>
<polygon fill="#191970" stroke="#191970" points="1345.4768,-23.4707 1354.9499,-18.7263 1344.5858,-16.5277 1345.4768,-23.4707"/>
</g>
<!-- Node33 -->
<g id="node34" class="node">
<title>Node33</title>
<polygon fill="#ffffff" stroke="#bfbfbf" points="871,-62 871,-81 981,-81 981,-62 871,-62"/>
<text text-anchor="middle" x="926" y="-69" font-family="Helvetica,sans-Serif" font-size="10.00" fill="#000000">AMReX_Geometry.H</text>
</g>
<!-- Node32&#45;&gt;Node33 -->
<g id="edge59" class="edge">
<title>Node32&#45;&gt;Node33</title>
<path fill="none" stroke="#191970" d="M836.0439,-128.9005C853.3534,-117.8554 881.9977,-99.5776 902.3089,-86.6172"/>
<polygon fill="#191970" stroke="#191970" points="904.4367,-89.4113 910.984,-81.0817 900.6712,-83.5103 904.4367,-89.4113"/>
</g>
<!-- Node34&#45;&gt;Node2 -->
<g id="edge62" class="edge">
<title>Node34&#45;&gt;Node2</title>
<path fill="none" stroke="#191970" d="M1182.1615,-190.3997C1069.6784,-159.8885 825.8808,-93.2506 819,-87 802.623,-72.1228 795.0904,-47.2264 791.6894,-29.7812"/>
<polygon fill="#191970" stroke="#191970" points="795.0859,-28.8677 789.9997,-19.5735 788.1799,-30.0109 795.0859,-28.8677"/>
</g>
<!-- Node34&#45;&gt;Node11 -->
<g id="edge63" class="edge">
<title>Node34&#45;&gt;Node11</title>
<path fill="none" stroke="#191970" d="M1168.477,-195.298C1086.2992,-182.9743 957.993,-162.8027 937,-154 915.273,-144.8896 915.8112,-131.907 894,-123 848.3895,-104.3741 720.0405,-88.3044 635.0126,-79.272"/>
<polygon fill="#191970" stroke="#191970" points="635.1777,-75.7702 624.8666,-78.2057 634.446,-82.7318 635.1777,-75.7702"/>
</g>
<!-- Node34&#45;&gt;Node18 -->
<g id="edge64" class="edge">
<title>Node34&#45;&gt;Node18</title>
<path fill="none" stroke="#191970" d="M1307.6932,-191.2048C1310.8321,-190.7571 1313.9453,-190.3515 1317,-190 1541.6592,-164.1493 2112.8596,-201.2961 2334,-154 2400.079,-139.8674 2472.1908,-105.6284 2510.1509,-85.9887"/>
<polygon fill="#191970" stroke="#191970" points="2512.2486,-88.8409 2519.4806,-81.0982 2508.9987,-82.641 2512.2486,-88.8409"/>
</g>
<!-- Node34&#45;&gt;Node22 -->
<g id="edge65" class="edge">
<title>Node34&#45;&gt;Node22</title>
<path fill="none" stroke="#191970" d="M1238,-190.2967C1238,-180.7699 1238,-168.3954 1238,-158.1306"/>
<polygon fill="#191970" stroke="#191970" points="1241.5001,-158.0549 1238,-148.055 1234.5001,-158.055 1241.5001,-158.0549"/>
</g>
<!-- Node35 -->
<g id="node36" class="node">
<title>Node35</title>
<g id="a_node36"><a xlink:href="_field_fill_patch_ops_8_h.html" target="_top" xlink:title="amr&#45;wind/core/FieldFillPatch\lOps.H">
<polygon fill="#ffffff" stroke="#000000" points="1946,-123.5 1946,-153.5 2086,-153.5 2086,-123.5 1946,-123.5"/>
<text text-anchor="start" x="1954" y="-141.5" font-family="Helvetica,sans-Serif" font-size="10.00" fill="#000000">amr&#45;wind/core/FieldFillPatch</text>
<text text-anchor="middle" x="2016" y="-130.5" font-family="Helvetica,sans-Serif" font-size="10.00" fill="#000000">Ops.H</text>
</a>
</g>
</g>
<!-- Node34&#45;&gt;Node35 -->
<g id="edge66" class="edge">
<title>Node34&#45;&gt;Node35</title>
<path fill="none" stroke="#191970" d="M1307.705,-191.3018C1310.8407,-190.8278 1313.95,-190.3902 1317,-190 1578.4662,-156.5507 1646.7809,-180.9183 1909,-154 1917.6826,-153.1087 1926.7412,-152.0298 1935.7528,-150.8608"/>
<polygon fill="#191970" stroke="#191970" points="1936.4359,-154.3008 1945.8847,-149.508 1935.5094,-147.3623 1936.4359,-154.3008"/>
</g>
<!-- Node38 -->
<g id="node39" class="node">
<title>Node38</title>
<g id="a_node39"><a xlink:href="_field_b_c_ops_8_h.html" target="_top" xlink:title="amr&#45;wind/core/FieldBCOps.H">
<polygon fill="#ffffff" stroke="#000000" points="1754.5,-129 1754.5,-148 1899.5,-148 1899.5,-129 1754.5,-129"/>
<text text-anchor="middle" x="1827" y="-136" font-family="Helvetica,sans-Serif" font-size="10.00" fill="#000000">amr&#45;wind/core/FieldBCOps.H</text>
</a>
</g>
</g>
<!-- Node34&#45;&gt;Node38 -->
<g id="edge76" class="edge">
<title>Node34&#45;&gt;Node38</title>
<path fill="none" stroke="#191970" d="M1307.726,-191.4541C1310.8561,-190.9389 1313.9584,-190.451 1317,-190 1466.788,-167.792 1642.7689,-152.3539 1743.9484,-144.4975"/>
<polygon fill="#191970" stroke="#191970" points="1744.4027,-147.973 1754.1042,-143.7149 1743.8648,-140.9936 1744.4027,-147.973"/>
</g>
<!-- Node35&#45;&gt;Node13 -->
<g id="edge69" class="edge">
<title>Node35&#45;&gt;Node13</title>
<path fill="none" stroke="#191970" d="M2086.3292,-135.3576C2171.9254,-129.1258 2299.1038,-110.6347 2248,-56 2227.9478,-34.5623 1834.6486,-18.9688 1651.8963,-12.8507"/>
<polygon fill="#191970" stroke="#191970" points="1651.8717,-9.348 1641.7609,-12.5139 1651.6391,-16.3442 1651.8717,-9.348"/>
</g>
<!-- Node35&#45;&gt;Node17 -->
<g id="edge71" class="edge">
<title>Node35&#45;&gt;Node17</title>
<path fill="none" stroke="#191970" d="M1945.9287,-128.4756C1882.7094,-119.0569 1787.2885,-103.9098 1705,-87 1699.6903,-85.9089 1694.1505,-84.6802 1688.6548,-83.4043"/>
<polygon fill="#191970" stroke="#191970" points="1689.408,-79.9859 1678.8694,-81.0762 1687.7877,-86.7958 1689.408,-79.9859"/>
</g>
<!-- Node35&#45;&gt;Node18 -->
<g id="edge68" class="edge">
<title>Node35&#45;&gt;Node18</title>
<path fill="none" stroke="#191970" d="M2086.1063,-131.954C2173.2885,-123.4364 2326.5542,-107.2244 2457,-87 2464.7655,-85.796 2472.9276,-84.3848 2480.9484,-82.9129"/>
<polygon fill="#191970" stroke="#191970" points="2481.8098,-86.3124 2490.9922,-81.0271 2480.518,-79.4326 2481.8098,-86.3124"/>
</g>
<!-- Node35&#45;&gt;Node19 -->
<g id="edge73" class="edge">
<title>Node35&#45;&gt;Node19</title>
<path fill="none" stroke="#191970" d="M2086.1409,-134.4153C2196.6429,-127.2837 2401.1233,-110.9971 2424,-87 2438.2684,-72.0328 2437.5231,-47.1548 2434.6752,-29.7386"/>
<polygon fill="#191970" stroke="#191970" points="2438.0306,-28.6692 2432.6366,-19.5503 2431.1667,-30.0427 2438.0306,-28.6692"/>
</g>
<!-- Node35&#45;&gt;Node23 -->
<g id="edge70" class="edge">
<title>Node35&#45;&gt;Node23</title>
<path fill="none" stroke="#191970" d="M2009.6464,-123.2967C2005.5803,-113.5672 2000.273,-100.8675 1995.9313,-90.4784"/>
<polygon fill="#191970" stroke="#191970" points="1999.0785,-88.9321 1991.9931,-81.055 1992.6198,-91.6313 1999.0785,-88.9321"/>
</g>
<!-- Node35&#45;&gt;Node24 -->
<g id="edge72" class="edge">
<title>Node35&#45;&gt;Node24</title>
<path fill="none" stroke="#191970" d="M1982.8575,-123.4861C1962.3293,-113.8081 1935.6527,-100.5389 1913,-87 1892.4663,-74.7275 1891.4559,-64.2448 1869,-56 1701.8561,5.3679 1646.6932,-41.969 1470,-20 1469.7802,-19.9727 1469.56,-19.9452 1469.3394,-19.9175"/>
<polygon fill="#191970" stroke="#191970" points="1469.5907,-16.42 1459.2155,-18.566 1468.6644,-23.3585 1469.5907,-16.42"/>
</g>
<!-- Node35&#45;&gt;Node26 -->
<g id="edge67" class="edge">
<title>Node35&#45;&gt;Node26</title>
<path fill="none" stroke="#191970" d="M1945.8997,-127.3405C1933.6261,-125.6742 1920.9591,-124.1369 1909,-123 1560.4282,-89.8612 1468.8056,-135.2325 1122,-87 1115.1856,-86.0523 1108.0422,-84.7292 1101.0752,-83.2517"/>
<polygon fill="#191970" stroke="#191970" points="1101.5767,-79.7773 1091.0529,-81.0021 1100.0436,-86.6073 1101.5767,-79.7773"/>
</g>
<!-- Node36 -->
<g id="node37" class="node">
<title>Node36</title>
<polygon fill="#ffffff" stroke="#bfbfbf" points="2111,-62 2111,-81 2239,-81 2239,-62 2111,-62"/>
<text text-anchor="middle" x="2175" y="-69" font-family="Helvetica,sans-Serif" font-size="10.00" fill="#000000">AMReX_PhysBCFunct.H</text>
</g>
<!-- Node35&#45;&gt;Node36 -->
<g id="edge74" class="edge">
<title>Node35&#45;&gt;Node36</title>
<path fill="none" stroke="#191970" d="M2051.6827,-123.4639C2078.9617,-111.969 2116.2504,-96.2561 2142.6622,-85.1266"/>
<polygon fill="#191970" stroke="#191970" points="2144.3525,-88.2125 2152.2086,-81.1039 2141.6342,-81.7618 2144.3525,-88.2125"/>
</g>
<!-- Node37 -->
<g id="node38" class="node">
<title>Node37</title>
<polygon fill="#ffffff" stroke="#bfbfbf" points="2295,-62 2295,-81 2415,-81 2415,-62 2295,-62"/>
<text text-anchor="middle" x="2355" y="-69" font-family="Helvetica,sans-Serif" font-size="10.00" fill="#000000">AMReX_FillPatchUtil.H</text>
</g>
<!-- Node35&#45;&gt;Node37 -->
<g id="edge75" class="edge">
<title>Node35&#45;&gt;Node37</title>
<path fill="none" stroke="#191970" d="M2086.077,-125.1688C2139.5293,-114.9305 2214.9601,-100.3327 2281,-87 2287.1638,-85.7556 2293.6121,-84.4341 2300.0226,-83.108"/>
<polygon fill="#191970" stroke="#191970" points="2300.9401,-86.4922 2310.0188,-81.0308 2299.5158,-79.6387 2300.9401,-86.4922"/>
</g>
<!-- Node38&#45;&gt;Node13 -->
<g id="edge77" class="edge">
<title>Node38&#45;&gt;Node13</title>
<path fill="none" stroke="#191970" d="M1889.9148,-128.9727C1956.3474,-118.2732 2053.0175,-100.6252 2064,-87 2072.6463,-76.273 2073.2891,-66.1755 2064,-56 2036.8197,-26.226 1789.567,-15.5003 1651.7616,-11.8138"/>
<polygon fill="#191970" stroke="#191970" points="1651.7144,-8.3115 1641.6267,-11.5501 1651.5322,-15.3091 1651.7144,-8.3115"/>
</g>
<!-- Node38&#45;&gt;Node28 -->
<g id="edge78" class="edge">
<title>Node38&#45;&gt;Node28</title>
<path fill="none" stroke="#191970" d="M1832.2317,-128.8476C1840.7279,-111.7125 1854.7839,-75.9137 1836,-56 1788.9554,-6.1257 1288.048,-28.3731 1220,-20 1219.8954,-19.9871 1219.7908,-19.9742 1219.686,-19.9612"/>
<polygon fill="#191970" stroke="#191970" points="1220.1302,-16.4892 1209.7378,-18.5503 1219.1472,-23.4199 1220.1302,-16.4892"/>
</g>
<!-- Node38&#45;&gt;Node33 -->
<g id="edge80" class="edge">
<title>Node38&#45;&gt;Node33</title>
<path fill="none" stroke="#191970" d="M1754.4065,-135.6398C1579.2936,-128.4801 1137.3455,-108.7899 991,-87 984.5993,-86.047 977.9019,-84.7734 971.3409,-83.3641"/>
<polygon fill="#191970" stroke="#191970" points="971.732,-79.864 961.2054,-81.0645 970.1831,-86.6905 971.732,-79.864"/>
</g>
<!-- Node38&#45;&gt;Node36 -->
<g id="edge81" class="edge">
<title>Node38&#45;&gt;Node36</title>
<path fill="none" stroke="#191970" d="M1877.7806,-128.9346C1932.0663,-118.6807 2020.6503,-101.8673 2097,-87 2103.5557,-85.7234 2110.4191,-84.3758 2117.2397,-83.0297"/>
<polygon fill="#191970" stroke="#191970" points="2118.0306,-86.4411 2127.1612,-81.0668 2116.672,-79.5742 2118.0306,-86.4411"/>
</g>
<!-- Node39 -->
<g id="node40" class="node">
<title>Node39</title>
<polygon fill="#ffffff" stroke="#bfbfbf" points="1713.5,-62 1713.5,-81 1826.5,-81 1826.5,-62 1713.5,-62"/>
<text text-anchor="middle" x="1770" y="-69" font-family="Helvetica,sans-Serif" font-size="10.00" fill="#000000">AMReX_FArrayBox.H</text>
</g>
<!-- Node38&#45;&gt;Node39 -->
<g id="edge79" class="edge">
<title>Node38&#45;&gt;Node39</title>
<path fill="none" stroke="#191970" d="M1818.8333,-128.9005C1809.9446,-118.4525 1795.55,-101.5325 1784.6869,-88.7635"/>
<polygon fill="#191970" stroke="#191970" points="1787.2972,-86.4303 1778.1516,-81.0817 1781.9656,-90.9662 1787.2972,-86.4303"/>
</g>
</g>
</svg>
