<?xml version="1.0" encoding="UTF-8" standalone="no"?>
<!DOCTYPE svg PUBLIC "-//W3C//DTD SVG 1.1//EN"
 "http://www.w3.org/Graphics/SVG/1.1/DTD/svg11.dtd">
<!-- Generated by graphviz version 2.40.1 (20161225.0304)
 -->
<!-- Title: PDEHelpers.H Pages: 1 -->
<svg width="2053pt" height="207pt"
 viewBox="0.00 0.00 2052.50 207.00" xmlns="http://www.w3.org/2000/svg" xmlns:xlink="http://www.w3.org/1999/xlink">
<g id="graph0" class="graph" transform="scale(1 1) rotate(0) translate(4 203)">
<title>PDEHelpers.H</title>
<polygon fill="#ffffff" stroke="transparent" points="-4,4 -4,-203 2048.5,-203 2048.5,4 -4,4"/>
<!-- Node0 -->
<g id="node1" class="node">
<title>Node0</title>
<polygon fill="#bfbfbf" stroke="#000000" points="1086.5,-179.5 1086.5,-198.5 1168.5,-198.5 1168.5,-179.5 1086.5,-179.5"/>
<text text-anchor="middle" x="1127.5" y="-186.5" font-family="Helvetica,sans-Serif" font-size="10.00" fill="#000000">PDEHelpers.H</text>
</g>
<!-- Node1 -->
<g id="node2" class="node">
<title>Node1</title>
<polygon fill="#ffffff" stroke="#bfbfbf" points="125,-.5 125,-19.5 166,-19.5 166,-.5 125,-.5"/>
<text text-anchor="middle" x="145.5" y="-7.5" font-family="Helvetica,sans-Serif" font-size="10.00" fill="#000000">string</text>
</g>
<!-- Node0&#45;&gt;Node1 -->
<g id="edge1" class="edge">
<title>Node0&#45;&gt;Node1</title>
<path fill="none" stroke="#191970" d="M1086.3166,-188.0925C981.4451,-185.3636 695.9539,-175.3133 460.5,-143 314.8189,-123.007 229.3547,-190.0207 136.5,-76 125.9228,-63.0118 130.1958,-43.5926 135.9007,-29.1777"/>
<polygon fill="#191970" stroke="#191970" points="139.2379,-30.2876 140.1159,-19.7292 132.8452,-27.4356 139.2379,-30.2876"/>
</g>
<!-- Node2 -->
<g id="node3" class="node">
<title>Node2</title>
<g id="a_node3"><a xlink:href="_p_d_e_fields_8_h.html" target="_top" xlink:title="amr&#45;wind/equation_systems\l/PDEFields.H">
<polygon fill="#ffffff" stroke="#000000" points="1633,-112.5 1633,-142.5 1772,-142.5 1772,-112.5 1633,-112.5"/>
<text text-anchor="start" x="1641" y="-130.5" font-family="Helvetica,sans-Serif" font-size="10.00" fill="#000000">amr&#45;wind/equation_systems</text>
<text text-anchor="middle" x="1702.5" y="-119.5" font-family="Helvetica,sans-Serif" font-size="10.00" fill="#000000">/PDEFields.H</text>
</a>
</g>
</g>
<!-- Node0&#45;&gt;Node2 -->
<g id="edge2" class="edge">
<title>Node0&#45;&gt;Node2</title>
<path fill="none" stroke="#191970" d="M1168.8526,-184.5771C1263.7782,-174.4242 1498.65,-149.3031 1622.7388,-136.031"/>
<polygon fill="#191970" stroke="#191970" points="1623.3648,-139.4841 1632.9359,-134.9403 1622.6203,-132.5238 1623.3648,-139.4841"/>
</g>
<!-- Node4 -->
<g id="node5" class="node">
<title>Node4</title>
<g id="a_node5"><a xlink:href="_sim_time_8_h.html" target="_top" xlink:title="amr&#45;wind/core/SimTime.H">
<polygon fill="#ffffff" stroke="#000000" points="1614,-56.5 1614,-75.5 1745,-75.5 1745,-56.5 1614,-56.5"/>
<text text-anchor="middle" x="1679.5" y="-63.5" font-family="Helvetica,sans-Serif" font-size="10.00" fill="#000000">amr&#45;wind/core/SimTime.H</text>
</a>
</g>
</g>
<!-- Node0&#45;&gt;Node4 -->
<g id="edge4" class="edge">
<title>Node0&#45;&gt;Node4</title>
<path fill="none" stroke="#191970" d="M1168.5387,-179.8555C1267.1524,-157.8818 1517.3556,-102.13 1626.8424,-77.7335"/>
<polygon fill="#191970" stroke="#191970" points="1627.6768,-81.1335 1636.6761,-75.5423 1626.1543,-74.3011 1627.6768,-81.1335"/>
</g>
<!-- Node8 -->
<g id="node9" class="node">
<title>Node8</title>
<g id="a_node9"><a xlink:href="_field_repo_8_h.html" target="_top" xlink:title="amr&#45;wind/core/FieldRepo.H">
<polygon fill="#ffffff" stroke="#000000" points="469.5,-118 469.5,-137 605.5,-137 605.5,-118 469.5,-118"/>
<text text-anchor="middle" x="537.5" y="-125" font-family="Helvetica,sans-Serif" font-size="10.00" fill="#000000">amr&#45;wind/core/FieldRepo.H</text>
</a>
</g>
</g>
<!-- Node0&#45;&gt;Node8 -->
<g id="edge8" class="edge">
<title>Node0&#45;&gt;Node8</title>
<path fill="none" stroke="#191970" d="M1086.4808,-184.7243C989.1592,-174.5797 742.9662,-148.9172 615.9616,-135.6786"/>
<polygon fill="#191970" stroke="#191970" points="616.2199,-132.1867 605.9109,-134.631 615.4941,-139.1489 616.2199,-132.1867"/>
</g>
<!-- Node25 -->
<g id="node26" class="node">
<title>Node25</title>
<g id="a_node26"><a xlink:href="_field_fill_patch_ops_8_h.html" target="_top" xlink:title="amr&#45;wind/core/FieldFillPatch\lOps.H">
<polygon fill="#ffffff" stroke="#000000" points="1008.5,-112.5 1008.5,-142.5 1148.5,-142.5 1148.5,-112.5 1008.5,-112.5"/>
<text text-anchor="start" x="1016.5" y="-130.5" font-family="Helvetica,sans-Serif" font-size="10.00" fill="#000000">amr&#45;wind/core/FieldFillPatch</text>
<text text-anchor="middle" x="1078.5" y="-119.5" font-family="Helvetica,sans-Serif" font-size="10.00" fill="#000000">Ops.H</text>
</a>
</g>
</g>
<!-- Node0&#45;&gt;Node25 -->
<g id="edge38" class="edge">
<title>Node0&#45;&gt;Node25</title>
<path fill="none" stroke="#191970" d="M1119.8438,-179.3906C1113.7034,-171.6839 1104.8272,-160.5434 1096.8721,-150.5589"/>
<polygon fill="#191970" stroke="#191970" points="1099.4556,-148.1847 1090.4867,-142.5446 1093.9808,-152.5467 1099.4556,-148.1847"/>
</g>
<!-- Node27 -->
<g id="node28" class="node">
<title>Node27</title>
<g id="a_node28"><a xlink:href="_field_b_c_ops_8_h.html" target="_top" xlink:title="amr&#45;wind/core/FieldBCOps.H">
<polygon fill="#ffffff" stroke="#000000" points="1275,-56.5 1275,-75.5 1420,-75.5 1420,-56.5 1275,-56.5"/>
<text text-anchor="middle" x="1347.5" y="-63.5" font-family="Helvetica,sans-Serif" font-size="10.00" fill="#000000">amr&#45;wind/core/FieldBCOps.H</text>
</a>
</g>
</g>
<!-- Node0&#45;&gt;Node27 -->
<g id="edge48" class="edge">
<title>Node0&#45;&gt;Node27</title>
<path fill="none" stroke="#191970" d="M1144.763,-179.3484C1183.1577,-157.8823 1275.8164,-106.0776 1321.3521,-80.6191"/>
<polygon fill="#191970" stroke="#191970" points="1323.2967,-83.5418 1330.3172,-75.6068 1319.8807,-77.4319 1323.2967,-83.5418"/>
</g>
<!-- Node3 -->
<g id="node4" class="node">
<title>Node3</title>
<polygon fill="#ffffff" stroke="#bfbfbf" points="1763,-56.5 1763,-75.5 1808,-75.5 1808,-56.5 1763,-56.5"/>
<text text-anchor="middle" x="1785.5" y="-63.5" font-family="Helvetica,sans-Serif" font-size="10.00" fill="#000000">iosfwd</text>
</g>
<!-- Node2&#45;&gt;Node3 -->
<g id="edge3" class="edge">
<title>Node2&#45;&gt;Node3</title>
<path fill="none" stroke="#191970" d="M1723.0169,-112.2977C1735.4982,-103.0495 1751.4159,-91.2551 1764.0614,-81.8853"/>
<polygon fill="#191970" stroke="#191970" points="1766.2596,-84.6126 1772.2106,-75.8469 1762.0922,-78.9882 1766.2596,-84.6126"/>
</g>
<!-- Node5 -->
<g id="node6" class="node">
<title>Node5</title>
<polygon fill="#ffffff" stroke="#bfbfbf" points="1679,-.5 1679,-19.5 1772,-19.5 1772,-.5 1679,-.5"/>
<text text-anchor="middle" x="1725.5" y="-7.5" font-family="Helvetica,sans-Serif" font-size="10.00" fill="#000000">AMReX_REAL.H</text>
</g>
<!-- Node4&#45;&gt;Node5 -->
<g id="edge5" class="edge">
<title>Node4&#45;&gt;Node5</title>
<path fill="none" stroke="#191970" d="M1687.5126,-56.2455C1693.9768,-48.3761 1703.2385,-37.101 1710.9983,-27.6542"/>
<polygon fill="#191970" stroke="#191970" points="1713.9364,-29.5916 1717.5792,-19.6427 1708.5273,-25.1484 1713.9364,-29.5916"/>
</g>
<!-- Node6 -->
<g id="node7" class="node">
<title>Node6</title>
<polygon fill="#ffffff" stroke="#bfbfbf" points="1918.5,-.5 1918.5,-19.5 2044.5,-19.5 2044.5,-.5 1918.5,-.5"/>
<text text-anchor="middle" x="1981.5" y="-7.5" font-family="Helvetica,sans-Serif" font-size="10.00" fill="#000000">AMReX_GpuQualifiers.H</text>
</g>
<!-- Node4&#45;&gt;Node6 -->
<g id="edge6" class="edge">
<title>Node4&#45;&gt;Node6</title>
<path fill="none" stroke="#191970" d="M1731.0725,-56.4369C1783.409,-46.7321 1864.432,-31.708 1920.0612,-21.3926"/>
<polygon fill="#191970" stroke="#191970" points="1920.946,-24.7883 1930.1402,-19.5237 1919.6697,-17.9056 1920.946,-24.7883"/>
</g>
<!-- Node7 -->
<g id="node8" class="node">
<title>Node7</title>
<polygon fill="#ffffff" stroke="#bfbfbf" points="1790.5,-.5 1790.5,-19.5 1900.5,-19.5 1900.5,-.5 1790.5,-.5"/>
<text text-anchor="middle" x="1845.5" y="-7.5" font-family="Helvetica,sans-Serif" font-size="10.00" fill="#000000">AMReX_Extension.H</text>
</g>
<!-- Node4&#45;&gt;Node7 -->
<g id="edge7" class="edge">
<title>Node4&#45;&gt;Node7</title>
<path fill="none" stroke="#191970" d="M1708.0364,-56.3733C1735.5202,-47.1016 1777.2686,-33.0178 1807.5452,-22.804"/>
<polygon fill="#191970" stroke="#191970" points="1808.9794,-26.0141 1817.336,-19.5011 1806.7418,-19.3813 1808.9794,-26.0141"/>
</g>
<!-- Node8&#45;&gt;Node1 -->
<g id="edge9" class="edge">
<title>Node8&#45;&gt;Node1</title>
<path fill="none" stroke="#191970" d="M470.2785,-117.9944C424.4078,-110.118 362.8868,-96.7906 311.5,-76 295.6019,-69.5678 294.0244,-63.2882 278.5,-56 277.8896,-55.7135 214.811,-33.9254 175.7535,-20.4418"/>
<polygon fill="#191970" stroke="#191970" points="176.7516,-17.0838 166.1568,-17.1291 174.4674,-23.7006 176.7516,-17.0838"/>
</g>
<!-- Node9 -->
<g id="node10" class="node">
<title>Node9</title>
<polygon fill="#ffffff" stroke="#bfbfbf" points="184,-.5 184,-19.5 267,-19.5 267,-.5 184,-.5"/>
<text text-anchor="middle" x="225.5" y="-7.5" font-family="Helvetica,sans-Serif" font-size="10.00" fill="#000000">unordered_map</text>
</g>
<!-- Node8&#45;&gt;Node9 -->
<g id="edge10" class="edge">
<title>Node8&#45;&gt;Node9</title>
<path fill="none" stroke="#191970" d="M494.5581,-117.9731C456.9638,-109.0329 401.2066,-94.3104 354.5,-76 334.5479,-68.1782 284.0156,-41.5345 252.4443,-24.5863"/>
<polygon fill="#191970" stroke="#191970" points="253.7743,-21.3274 243.3099,-19.6694 250.4564,-27.4911 253.7743,-21.3274"/>
</g>
<!-- Node10 -->
<g id="node11" class="node">
<title>Node10</title>
<g id="a_node11"><a xlink:href="_field_desc_types_8_h.html" target="_top" xlink:title="amr&#45;wind/core/FieldDescTypes.H">
<polygon fill="#ffffff" stroke="#000000" points="398,-.5 398,-19.5 561,-19.5 561,-.5 398,-.5"/>
<text text-anchor="middle" x="479.5" y="-7.5" font-family="Helvetica,sans-Serif" font-size="10.00" fill="#000000">amr&#45;wind/core/FieldDescTypes.H</text>
</a>
</g>
</g>
<!-- Node8&#45;&gt;Node10 -->
<g id="edge11" class="edge">
<title>Node8&#45;&gt;Node10</title>
<path fill="none" stroke="#191970" d="M536.3014,-117.7545C534.2502,-103.5149 529.2063,-76.4908 518.5,-56 512.9726,-45.4211 504.6342,-35.1421 497.0845,-26.9937"/>
<polygon fill="#191970" stroke="#191970" points="499.4072,-24.3615 489.9309,-19.6233 494.3841,-29.2369 499.4072,-24.3615"/>
</g>
<!-- Node11 -->
<g id="node12" class="node">
<title>Node11</title>
<g id="a_node12"><a xlink:href="_field_utils_8_h.html" target="_top" xlink:title="amr&#45;wind/core/FieldUtils.H">
<polygon fill="#ffffff" stroke="#000000" points="604,-56.5 604,-75.5 737,-75.5 737,-56.5 604,-56.5"/>
<text text-anchor="middle" x="670.5" y="-63.5" font-family="Helvetica,sans-Serif" font-size="10.00" fill="#000000">amr&#45;wind/core/FieldUtils.H</text>
</a>
</g>
</g>
<!-- Node8&#45;&gt;Node11 -->
<g id="edge12" class="edge">
<title>Node8&#45;&gt;Node11</title>
<path fill="none" stroke="#191970" d="M558.2813,-117.8906C580.3394,-107.6908 615.405,-91.4763 640.4669,-79.8875"/>
<polygon fill="#191970" stroke="#191970" points="642.2571,-82.9158 649.8647,-75.5419 639.3191,-76.5622 642.2571,-82.9158"/>
</g>
<!-- Node12 -->
<g id="node13" class="node">
<title>Node12</title>
<polygon fill="#ffffff" stroke="#bfbfbf" points="713.5,-.5 713.5,-19.5 817.5,-19.5 817.5,-.5 713.5,-.5"/>
<text text-anchor="middle" x="765.5" y="-7.5" font-family="Helvetica,sans-Serif" font-size="10.00" fill="#000000">AMReX_MultiFab.H</text>
</g>
<!-- Node8&#45;&gt;Node12 -->
<g id="edge36" class="edge">
<title>Node8&#45;&gt;Node12</title>
<path fill="none" stroke="#191970" d="M605.6038,-118.0331C658.239,-109.4011 725.4042,-95.0863 745.5,-76 758.0907,-64.0418 762.8345,-44.45 764.5813,-29.7118"/>
<polygon fill="#191970" stroke="#191970" points="768.0819,-29.8477 765.4133,-19.5944 761.1055,-29.2739 768.0819,-29.8477"/>
</g>
<!-- Node14 -->
<g id="node15" class="node">
<title>Node14</title>
<g id="a_node15"><a xlink:href="_field_8_h.html" target="_top" xlink:title="amr&#45;wind/core/Field.H">
<polygon fill="#ffffff" stroke="#000000" points="794,-56.5 794,-75.5 907,-75.5 907,-56.5 794,-56.5"/>
<text text-anchor="middle" x="850.5" y="-63.5" font-family="Helvetica,sans-Serif" font-size="10.00" fill="#000000">amr&#45;wind/core/Field.H</text>
</a>
</g>
</g>
<!-- Node8&#45;&gt;Node14 -->
<g id="edge16" class="edge">
<title>Node8&#45;&gt;Node14</title>
<path fill="none" stroke="#191970" d="M586.0628,-117.9581C641.6575,-107.0345 732.6839,-89.1492 792.0994,-77.4749"/>
<polygon fill="#191970" stroke="#191970" points="792.9432,-80.8761 802.0808,-75.5137 791.5936,-74.0074 792.9432,-80.8761"/>
</g>
<!-- Node19 -->
<g id="node20" class="node">
<title>Node19</title>
<g id="a_node20"><a xlink:href="_int_field_8_h.html" target="_top" xlink:title="amr&#45;wind/core/IntField.H">
<polygon fill="#ffffff" stroke="#000000" points="145.5,-56.5 145.5,-75.5 269.5,-75.5 269.5,-56.5 145.5,-56.5"/>
<text text-anchor="middle" x="207.5" y="-63.5" font-family="Helvetica,sans-Serif" font-size="10.00" fill="#000000">amr&#45;wind/core/IntField.H</text>
</a>
</g>
</g>
<!-- Node8&#45;&gt;Node19 -->
<g id="edge25" class="edge">
<title>Node8&#45;&gt;Node19</title>
<path fill="none" stroke="#191970" d="M486.2996,-117.9581C427.5643,-107.012 331.3183,-89.0752 268.6847,-77.4026"/>
<polygon fill="#191970" stroke="#191970" points="269.021,-73.9051 258.549,-75.5137 267.7385,-80.7866 269.021,-73.9051"/>
</g>
<!-- Node20 -->
<g id="node21" class="node">
<title>Node20</title>
<polygon fill="#ffffff" stroke="#bfbfbf" points="0,-.5 0,-19.5 107,-19.5 107,-.5 0,-.5"/>
<text text-anchor="middle" x="53.5" y="-7.5" font-family="Helvetica,sans-Serif" font-size="10.00" fill="#000000">AMReX_iMultiFab.H</text>
</g>
<!-- Node8&#45;&gt;Node20 -->
<g id="edge37" class="edge">
<title>Node8&#45;&gt;Node20</title>
<path fill="none" stroke="#191970" d="M469.4793,-123.1951C371.2423,-116.2304 195.0133,-100.7227 136.5,-76 109.928,-64.773 84.7901,-42.5644 69.2851,-27.0229"/>
<polygon fill="#191970" stroke="#191970" points="71.5678,-24.3488 62.0984,-19.5968 66.5377,-29.2168 71.5678,-24.3488"/>
</g>
<!-- Node21 -->
<g id="node22" class="node">
<title>Node21</title>
<g id="a_node22"><a xlink:href="_scratch_field_8_h.html" target="_top" xlink:title="amr&#45;wind/core/ScratchField.H">
<polygon fill="#ffffff" stroke="#000000" points="363.5,-56.5 363.5,-75.5 509.5,-75.5 509.5,-56.5 363.5,-56.5"/>
<text text-anchor="middle" x="436.5" y="-63.5" font-family="Helvetica,sans-Serif" font-size="10.00" fill="#000000">amr&#45;wind/core/ScratchField.H</text>
</a>
</g>
</g>
<!-- Node8&#45;&gt;Node21 -->
<g id="edge29" class="edge">
<title>Node8&#45;&gt;Node21</title>
<path fill="none" stroke="#191970" d="M521.7188,-117.8906C505.4125,-107.9616 479.746,-92.333 460.8386,-80.8201"/>
<polygon fill="#191970" stroke="#191970" points="462.5319,-77.7533 452.1704,-75.5419 458.8913,-83.7322 462.5319,-77.7533"/>
</g>
<!-- Node24 -->
<g id="node25" class="node">
<title>Node24</title>
<polygon fill="#ffffff" stroke="#bfbfbf" points="925.5,-56.5 925.5,-75.5 1031.5,-75.5 1031.5,-56.5 925.5,-56.5"/>
<text text-anchor="middle" x="978.5" y="-63.5" font-family="Helvetica,sans-Serif" font-size="10.00" fill="#000000">AMReX_AmrCore.H</text>
</g>
<!-- Node8&#45;&gt;Node24 -->
<g id="edge35" class="edge">
<title>Node8&#45;&gt;Node24</title>
<path fill="none" stroke="#191970" d="M605.5066,-118.6927C679.0842,-109.0604 800.1277,-92.9141 915.1923,-76.018"/>
<polygon fill="#191970" stroke="#191970" points="915.8533,-79.4585 925.2367,-74.5389 914.8334,-72.5332 915.8533,-79.4585"/>
</g>
<!-- Node11&#45;&gt;Node10 -->
<g id="edge13" class="edge">
<title>Node11&#45;&gt;Node10</title>
<path fill="none" stroke="#191970" d="M637.6659,-56.3733C605.6305,-46.9807 556.7513,-32.6496 521.8145,-22.4064"/>
<polygon fill="#191970" stroke="#191970" points="522.4864,-18.9561 511.9056,-19.5011 520.5169,-25.6733 522.4864,-18.9561"/>
</g>
<!-- Node11&#45;&gt;Node12 -->
<g id="edge14" class="edge">
<title>Node11&#45;&gt;Node12</title>
<path fill="none" stroke="#191970" d="M687.0477,-56.2455C701.7599,-47.5731 723.4888,-34.7645 740.3505,-24.825"/>
<polygon fill="#191970" stroke="#191970" points="742.3046,-27.736 749.1419,-19.6427 738.7498,-21.7057 742.3046,-27.736"/>
</g>
<!-- Node13 -->
<g id="node14" class="node">
<title>Node13</title>
<polygon fill="#ffffff" stroke="#bfbfbf" points="579.5,-.5 579.5,-19.5 695.5,-19.5 695.5,-.5 579.5,-.5"/>
<text text-anchor="middle" x="637.5" y="-7.5" font-family="Helvetica,sans-Serif" font-size="10.00" fill="#000000">AMReX_Interpolater.H</text>
</g>
<!-- Node11&#45;&gt;Node13 -->
<g id="edge15" class="edge">
<title>Node11&#45;&gt;Node13</title>
<path fill="none" stroke="#191970" d="M664.7518,-56.2455C660.2565,-48.617 653.8752,-37.7881 648.4175,-28.5267"/>
<polygon fill="#191970" stroke="#191970" points="651.2747,-26.4811 643.1823,-19.6427 645.2439,-30.035 651.2747,-26.4811"/>
</g>
<!-- Node14&#45;&gt;Node1 -->
<g id="edge17" class="edge">
<title>Node14&#45;&gt;Node1</title>
<path fill="none" stroke="#191970" d="M793.8562,-60.2707C778.1998,-58.7783 761.199,-57.2421 745.5,-56 495.3525,-36.2077 425.6676,-69.0118 176.3143,-19.9068"/>
<polygon fill="#191970" stroke="#191970" points="176.7148,-16.4179 166.2234,-17.8946 175.3458,-23.2827 176.7148,-16.4179"/>
</g>
<!-- Node14&#45;&gt;Node9 -->
<g id="edge19" class="edge">
<title>Node14&#45;&gt;Node9</title>
<path fill="none" stroke="#191970" d="M793.8447,-60.4106C778.1883,-58.9188 761.1902,-57.3479 745.5,-56 540.0295,-38.3481 484.7569,-48.2735 277.1789,-20.0983"/>
<polygon fill="#191970" stroke="#191970" points="277.5606,-16.618 267.1779,-18.7276 276.61,-23.5531 277.5606,-16.618"/>
</g>
<!-- Node14&#45;&gt;Node10 -->
<g id="edge24" class="edge">
<title>Node14&#45;&gt;Node10</title>
<path fill="none" stroke="#191970" d="M793.7492,-57.4338C729.1303,-47.68 623.3808,-31.7179 552.6289,-21.0383"/>
<polygon fill="#191970" stroke="#191970" points="552.8635,-17.5342 542.4531,-19.5024 551.8187,-24.4558 552.8635,-17.5342"/>
</g>
<!-- Node14&#45;&gt;Node12 -->
<g id="edge20" class="edge">
<title>Node14&#45;&gt;Node12</title>
<path fill="none" stroke="#191970" d="M835.6941,-56.2455C822.7744,-47.7337 803.8069,-35.2375 788.8448,-25.3801"/>
<polygon fill="#191970" stroke="#191970" points="790.4124,-22.2216 780.1362,-19.6427 786.5613,-28.067 790.4124,-22.2216"/>
</g>
<!-- Node15 -->
<g id="node16" class="node">
<title>Node15</title>
<polygon fill="#ffffff" stroke="#bfbfbf" points="981.5,-.5 981.5,-19.5 1033.5,-19.5 1033.5,-.5 981.5,-.5"/>
<text text-anchor="middle" x="1007.5" y="-7.5" font-family="Helvetica,sans-Serif" font-size="10.00" fill="#000000">memory</text>
</g>
<!-- Node14&#45;&gt;Node15 -->
<g id="edge18" class="edge">
<title>Node14&#45;&gt;Node15</title>
<path fill="none" stroke="#191970" d="M877.4893,-56.3733C903.5268,-47.086 943.1011,-32.9703 971.7478,-22.7524"/>
<polygon fill="#191970" stroke="#191970" points="973.1417,-25.9712 981.3846,-19.315 970.79,-19.3781 973.1417,-25.9712"/>
</g>
<!-- Node16 -->
<g id="node17" class="node">
<title>Node16</title>
<polygon fill="#ffffff" stroke="#bfbfbf" points="1052,-.5 1052,-19.5 1151,-19.5 1151,-.5 1052,-.5"/>
<text text-anchor="middle" x="1101.5" y="-7.5" font-family="Helvetica,sans-Serif" font-size="10.00" fill="#000000">AMReX_BCRec.H</text>
</g>
<!-- Node14&#45;&gt;Node16 -->
<g id="edge21" class="edge">
<title>Node14&#45;&gt;Node16</title>
<path fill="none" stroke="#191970" d="M893.3632,-56.4369C936.4102,-46.8328 1002.8073,-32.0191 1048.991,-21.7152"/>
<polygon fill="#191970" stroke="#191970" points="1049.8157,-25.1173 1058.8135,-19.5237 1048.2913,-18.2853 1049.8157,-25.1173"/>
</g>
<!-- Node17 -->
<g id="node18" class="node">
<title>Node17</title>
<polygon fill="#ffffff" stroke="#bfbfbf" points="1316,-.5 1316,-19.5 1401,-19.5 1401,-.5 1316,-.5"/>
<text text-anchor="middle" x="1358.5" y="-7.5" font-family="Helvetica,sans-Serif" font-size="10.00" fill="#000000">AMReX_Gpu.H</text>
</g>
<!-- Node14&#45;&gt;Node17 -->
<g id="edge22" class="edge">
<title>Node14&#45;&gt;Node17</title>
<path fill="none" stroke="#191970" d="M907.3529,-57.1707C910.4447,-56.7578 913.5089,-56.3643 916.5,-56 1086.087,-35.3432 1132.4487,-44.1232 1306.008,-19.9342"/>
<polygon fill="#191970" stroke="#191970" points="1306.5765,-23.3888 1315.9898,-18.5266 1305.5989,-16.4574 1306.5765,-23.3888"/>
</g>
<!-- Node18 -->
<g id="node19" class="node">
<title>Node18</title>
<g id="a_node19"><a xlink:href="incflo__enums_8_h.html" target="_top" xlink:title="amr&#45;wind/incflo_enums.H">
<polygon fill="#ffffff" stroke="#000000" points="835.5,-.5 835.5,-19.5 963.5,-19.5 963.5,-.5 835.5,-.5"/>
<text text-anchor="middle" x="899.5" y="-7.5" font-family="Helvetica,sans-Serif" font-size="10.00" fill="#000000">amr&#45;wind/incflo_enums.H</text>
</a>
</g>
</g>
<!-- Node14&#45;&gt;Node18 -->
<g id="edge23" class="edge">
<title>Node14&#45;&gt;Node18</title>
<path fill="none" stroke="#191970" d="M859.0351,-56.2455C865.9912,-48.2958 875.9883,-36.8706 884.3051,-27.3656"/>
<polygon fill="#191970" stroke="#191970" points="887.1116,-29.4732 891.0627,-19.6427 881.8436,-24.8637 887.1116,-29.4732"/>
</g>
<!-- Node19&#45;&gt;Node1 -->
<g id="edge26" class="edge">
<title>Node19&#45;&gt;Node1</title>
<path fill="none" stroke="#191970" d="M196.7004,-56.2455C187.6322,-48.0549 174.4794,-36.1749 163.7755,-26.5069"/>
<polygon fill="#191970" stroke="#191970" points="165.9429,-23.7482 156.1758,-19.6427 161.2509,-28.9429 165.9429,-23.7482"/>
</g>
<!-- Node19&#45;&gt;Node10 -->
<g id="edge27" class="edge">
<title>Node19&#45;&gt;Node10</title>
<path fill="none" stroke="#191970" d="M253.9494,-56.4369C300.7935,-46.7925 373.1539,-31.8948 423.2262,-21.5858"/>
<polygon fill="#191970" stroke="#191970" points="424.1534,-24.9684 433.2422,-19.5237 422.7418,-18.1122 424.1534,-24.9684"/>
</g>
<!-- Node19&#45;&gt;Node20 -->
<g id="edge28" class="edge">
<title>Node19&#45;&gt;Node20</title>
<path fill="none" stroke="#191970" d="M181.0265,-56.3733C155.6403,-47.1419 117.1355,-33.1402 89.078,-22.9375"/>
<polygon fill="#191970" stroke="#191970" points="90.2222,-19.6293 79.6281,-19.5011 87.8299,-26.2079 90.2222,-19.6293"/>
</g>
<!-- Node21&#45;&gt;Node1 -->
<g id="edge30" class="edge">
<title>Node21&#45;&gt;Node1</title>
<path fill="none" stroke="#191970" d="M364.3981,-56.4801C313.884,-49.0887 244.7274,-37.5287 176.3666,-20.2072"/>
<polygon fill="#191970" stroke="#191970" points="176.8458,-16.7164 166.2887,-17.6096 175.0986,-23.4949 176.8458,-16.7164"/>
</g>
<!-- Node21&#45;&gt;Node10 -->
<g id="edge31" class="edge">
<title>Node21&#45;&gt;Node10</title>
<path fill="none" stroke="#191970" d="M443.99,-56.2455C450.0326,-48.3761 458.6903,-37.101 465.9441,-27.6542"/>
<polygon fill="#191970" stroke="#191970" points="468.7815,-29.7058 472.0958,-19.6427 463.2295,-25.4426 468.7815,-29.7058"/>
</g>
<!-- Node21&#45;&gt;Node12 -->
<g id="edge32" class="edge">
<title>Node21&#45;&gt;Node12</title>
<path fill="none" stroke="#191970" d="M492.6833,-56.4369C551.1499,-46.4851 642.4786,-30.9398 703.1405,-20.6144"/>
<polygon fill="#191970" stroke="#191970" points="704.0775,-24.0053 713.3484,-18.8769 702.9029,-17.1046 704.0775,-24.0053"/>
</g>
<!-- Node22 -->
<g id="node23" class="node">
<title>Node22</title>
<polygon fill="#ffffff" stroke="#bfbfbf" points="285,-.5 285,-19.5 380,-19.5 380,-.5 285,-.5"/>
<text text-anchor="middle" x="332.5" y="-7.5" font-family="Helvetica,sans-Serif" font-size="10.00" fill="#000000">AMReX_Vector.H</text>
</g>
<!-- Node21&#45;&gt;Node22 -->
<g id="edge33" class="edge">
<title>Node21&#45;&gt;Node22</title>
<path fill="none" stroke="#191970" d="M418.3846,-56.2455C402.055,-47.4527 377.829,-34.4079 359.2661,-24.4125"/>
<polygon fill="#191970" stroke="#191970" points="360.8719,-21.3021 350.4078,-19.6427 357.5532,-27.4654 360.8719,-21.3021"/>
</g>
<!-- Node23 -->
<g id="node24" class="node">
<title>Node23</title>
<polygon fill="#ffffff" stroke="#bfbfbf" points="1169.5,-.5 1169.5,-19.5 1297.5,-19.5 1297.5,-.5 1169.5,-.5"/>
<text text-anchor="middle" x="1233.5" y="-7.5" font-family="Helvetica,sans-Serif" font-size="10.00" fill="#000000">AMReX_PhysBCFunct.H</text>
</g>
<!-- Node21&#45;&gt;Node23 -->
<g id="edge34" class="edge">
<title>Node21&#45;&gt;Node23</title>
<path fill="none" stroke="#191970" d="M509.6684,-61.3615C679.0134,-50.624 1088.315,-24.6596 1159.1461,-19.7157"/>
<polygon fill="#191970" stroke="#191970" points="1159.6468,-23.1881 1169.3573,-18.9506 1159.1237,-16.2076 1159.6468,-23.1881"/>
</g>
<!-- Node25&#45;&gt;Node4 -->
<g id="edge40" class="edge">
<title>Node25&#45;&gt;Node4</title>
<path fill="none" stroke="#191970" d="M1148.6186,-120.3248C1262.4993,-108.6715 1486.7015,-85.729 1603.9717,-73.7288"/>
<polygon fill="#191970" stroke="#191970" points="1604.3558,-77.2078 1613.9475,-72.7079 1603.6432,-70.2442 1604.3558,-77.2078"/>
</g>
<!-- Node25&#45;&gt;Node5 -->
<g id="edge45" class="edge">
<title>Node25&#45;&gt;Node5</title>
<path fill="none" stroke="#191970" d="M1148.6761,-118.7515C1219.7105,-109.5331 1332.5932,-93.8879 1429.5,-76 1517.1741,-59.8163 1618.3704,-36.1656 1676.8406,-22.0068"/>
<polygon fill="#191970" stroke="#191970" points="1678.0075,-25.3252 1686.8982,-19.5628 1676.3545,-18.5232 1678.0075,-25.3252"/>
</g>
<!-- Node25&#45;&gt;Node10 -->
<g id="edge41" class="edge">
<title>Node25&#45;&gt;Node10</title>
<path fill="none" stroke="#191970" d="M1008.3506,-123.6033C893.27,-116.6147 669.6583,-100.3666 594.5,-76 559.0874,-64.5191 522.5239,-41.2054 500.3954,-25.5903"/>
<polygon fill="#191970" stroke="#191970" points="502.2721,-22.6287 492.1118,-19.6256 498.1817,-28.3093 502.2721,-22.6287"/>
</g>
<!-- Node25&#45;&gt;Node11 -->
<g id="edge42" class="edge">
<title>Node25&#45;&gt;Node11</title>
<path fill="none" stroke="#191970" d="M1008.3623,-116.9278C934.5947,-105.8084 819.0167,-88.3867 744.0059,-77.0799"/>
<polygon fill="#191970" stroke="#191970" points="744.1093,-73.5561 733.6993,-75.5264 743.0659,-80.4779 744.1093,-73.5561"/>
</g>
<!-- Node25&#45;&gt;Node12 -->
<g id="edge44" class="edge">
<title>Node25&#45;&gt;Node12</title>
<path fill="none" stroke="#191970" d="M1074.7342,-112.2578C1069.7933,-95.6506 1059.4375,-69.6348 1040.5,-56 1039.414,-55.2181 908.4675,-33.5438 827.6836,-20.2298"/>
<polygon fill="#191970" stroke="#191970" points="828.0437,-16.7421 817.6077,-18.5697 826.9056,-23.6489 828.0437,-16.7421"/>
</g>
<!-- Node25&#45;&gt;Node14 -->
<g id="edge39" class="edge">
<title>Node25&#45;&gt;Node14</title>
<path fill="none" stroke="#191970" d="M1022.7249,-112.4554C983.6814,-101.9239 932.1825,-88.0328 895.7006,-78.1923"/>
<polygon fill="#191970" stroke="#191970" points="896.3984,-74.7555 885.8319,-75.5303 894.5753,-81.5139 896.3984,-74.7555"/>
</g>
<!-- Node25&#45;&gt;Node23 -->
<g id="edge46" class="edge">
<title>Node25&#45;&gt;Node23</title>
<path fill="none" stroke="#191970" d="M1083.0303,-112.3807C1088.54,-96.3746 1099.2968,-71.3474 1116.5,-56 1134.1547,-40.2499 1157.8357,-29.5905 1179.2741,-22.5345"/>
<polygon fill="#191970" stroke="#191970" points="1180.4205,-25.8435 1188.9367,-19.5408 1178.3489,-19.1571 1180.4205,-25.8435"/>
</g>
<!-- Node25&#45;&gt;Node24 -->
<g id="edge43" class="edge">
<title>Node25&#45;&gt;Node24</title>
<path fill="none" stroke="#191970" d="M1054.0372,-112.4554C1038.3765,-102.8241 1018.1468,-90.3828 1002.5644,-80.7996"/>
<polygon fill="#191970" stroke="#191970" points="1004.348,-77.7876 993.9965,-75.5303 1000.681,-83.7503 1004.348,-77.7876"/>
</g>
<!-- Node26 -->
<g id="node27" class="node">
<title>Node26</title>
<polygon fill="#ffffff" stroke="#bfbfbf" points="1125.5,-56.5 1125.5,-75.5 1245.5,-75.5 1245.5,-56.5 1125.5,-56.5"/>
<text text-anchor="middle" x="1185.5" y="-63.5" font-family="Helvetica,sans-Serif" font-size="10.00" fill="#000000">AMReX_FillPatchUtil.H</text>
</g>
<!-- Node25&#45;&gt;Node26 -->
<g id="edge47" class="edge">
<title>Node25&#45;&gt;Node26</title>
<path fill="none" stroke="#191970" d="M1104.6751,-112.4554C1121.5887,-102.734 1143.4829,-90.15 1160.2172,-80.5317"/>
<polygon fill="#191970" stroke="#191970" points="1161.993,-83.548 1168.9188,-75.5303 1158.5047,-77.4791 1161.993,-83.548"/>
</g>
<!-- Node27&#45;&gt;Node10 -->
<g id="edge49" class="edge">
<title>Node27&#45;&gt;Node10</title>
<path fill="none" stroke="#191970" d="M1274.9357,-57.8111C1268.0331,-57.1485 1261.1367,-56.5311 1254.5,-56 954.3089,-31.9789 875.6054,-44.363 571.3243,-20.0206"/>
<polygon fill="#191970" stroke="#191970" points="571.5806,-16.53 561.3315,-19.2146 571.0177,-23.5074 571.5806,-16.53"/>
</g>
<!-- Node27&#45;&gt;Node17 -->
<g id="edge50" class="edge">
<title>Node27&#45;&gt;Node17</title>
<path fill="none" stroke="#191970" d="M1349.4161,-56.2455C1350.8514,-48.9382 1352.8636,-38.6944 1354.6295,-29.7046"/>
<polygon fill="#191970" stroke="#191970" points="1358.1127,-30.1298 1356.6059,-19.6427 1351.244,-28.7805 1358.1127,-30.1298"/>
</g>
<!-- Node27&#45;&gt;Node23 -->
<g id="edge53" class="edge">
<title>Node27&#45;&gt;Node23</title>
<path fill="none" stroke="#191970" d="M1327.9027,-56.3733C1309.7669,-47.4644 1282.5865,-34.1127 1262.0413,-24.0203"/>
<polygon fill="#191970" stroke="#191970" points="1263.3603,-20.7688 1252.8416,-19.5011 1260.2739,-27.0517 1263.3603,-20.7688"/>
</g>
<!-- Node28 -->
<g id="node29" class="node">
<title>Node28</title>
<polygon fill="#ffffff" stroke="#bfbfbf" points="1548,-.5 1548,-19.5 1661,-19.5 1661,-.5 1548,-.5"/>
<text text-anchor="middle" x="1604.5" y="-7.5" font-family="Helvetica,sans-Serif" font-size="10.00" fill="#000000">AMReX_FArrayBox.H</text>
</g>
<!-- Node27&#45;&gt;Node28 -->
<g id="edge51" class="edge">
<title>Node27&#45;&gt;Node28</title>
<path fill="none" stroke="#191970" d="M1391.3879,-56.4369C1435.4638,-46.8328 1503.4481,-32.0191 1550.7358,-21.7152"/>
<polygon fill="#191970" stroke="#191970" points="1551.7676,-25.0725 1560.7932,-19.5237 1550.2772,-18.233 1551.7676,-25.0725"/>
</g>
<!-- Node29 -->
<g id="node30" class="node">
<title>Node29</title>
<polygon fill="#ffffff" stroke="#bfbfbf" points="1419.5,-.5 1419.5,-19.5 1529.5,-19.5 1529.5,-.5 1419.5,-.5"/>
<text text-anchor="middle" x="1474.5" y="-7.5" font-family="Helvetica,sans-Serif" font-size="10.00" fill="#000000">AMReX_Geometry.H</text>
</g>
<!-- Node27&#45;&gt;Node29 -->
<g id="edge52" class="edge">
<title>Node27&#45;&gt;Node29</title>
<path fill="none" stroke="#191970" d="M1369.3321,-56.3733C1389.8103,-47.3435 1420.6399,-33.7494 1443.6319,-23.6111"/>
<polygon fill="#191970" stroke="#191970" points="1445.215,-26.7383 1452.9528,-19.5011 1442.3907,-20.3333 1445.215,-26.7383"/>
</g>
</g>
</svg>
