<?xml version="1.0" encoding="UTF-8" standalone="no"?>
<!DOCTYPE svg PUBLIC "-//W3C//DTD SVG 1.1//EN"
 "http://www.w3.org/Graphics/SVG/1.1/DTD/svg11.dtd">
<!-- Generated by graphviz version 2.40.1 (20161225.0304)
 -->
<!-- Title: PDETraits.H Pages: 1 -->
<!--zoomable 263 -->
<svg id="main" version="1.1" xmlns="http://www.w3.org/2000/svg" xmlns:xlink="http://www.w3.org/1999/xlink" xml:space="preserve" onload="init(evt)">
<style type="text/css"><![CDATA[
.edge:hover path { stroke: red; }
.edge:hover polygon { stroke: red; fill: red; }
]]></style>
<script type="text/javascript"><![CDATA[
var edges = document.getElementsByTagName('g');
if (edges && edges.length) {
  for (var i=0;i<edges.length;i++) {
    if (edges[i].id.substr(0,4)=='edge') {
      edges[i].setAttribute('class','edge');
    }
  }
}
]]></script>
        <defs>
                <circle id="rim" cx="0" cy="0" r="7"/>
                <circle id="rim2" cx="0" cy="0" r="3.5"/>
                <g id="zoomPlus">
                        <use xlink:href="#rim" fill="#404040">
                                <set attributeName="fill" to="#808080" begin="zoomplus.mouseover" end="zoomplus.mouseout"/>
                        </use>
                        <path d="M-4,0h8M0,-4v8" fill="none" stroke="white" stroke-width="1.5" pointer-events="none"/>
                </g>
                <g id="zoomMin">
                        <use xlink:href="#rim" fill="#404040">
                                <set attributeName="fill" to="#808080" begin="zoomminus.mouseover" end="zoomminus.mouseout"/>
                        </use>
                        <path d="M-4,0h8" fill="none" stroke="white" stroke-width="1.5" pointer-events="none"/>
                </g>
                <g id="dirArrow">
                        <path fill="none" stroke="white" stroke-width="1.5" d="M0,-3.0v7 M-2.5,-0.5L0,-3.0L2.5,-0.5"/>
                </g>
               <g id="resetDef">
                       <use xlink:href="#rim2" fill="#404040">
                               <set attributeName="fill" to="#808080" begin="reset.mouseover" end="reset.mouseout"/>
                       </use>
               </g>
        </defs>

<script type="text/javascript">
var viewWidth = 1669;
var viewHeight = 263;
var sectionId = 'dynsection-0';
</script>
<script xlink:href="svgpan.js"/>
<svg id="graph" class="graph">
<g id="viewport">
<title>PDETraits.H</title>
<polygon fill="#ffffff" stroke="transparent" points="-4,4 -4,-259 1665,-259 1665,4 -4,4"/>
<!-- Node0 -->
<g id="node1" class="node">
<title>Node0</title>
<polygon fill="#bfbfbf" stroke="#000000" points="592.5,-235.5 592.5,-254.5 665.5,-254.5 665.5,-235.5 592.5,-235.5"/>
<text text-anchor="middle" x="629" y="-242.5" font-family="Helvetica,sans-Serif" font-size="10.00" fill="#000000">PDETraits.H</text>
</g>
<!-- Node1 -->
<g id="node2" class="node">
<title>Node1</title>
<polygon fill="#ffffff" stroke="#bfbfbf" points="822.5,-.5 822.5,-19.5 863.5,-19.5 863.5,-.5 822.5,-.5"/>
<text text-anchor="middle" x="843" y="-7.5" font-family="Helvetica,sans-Serif" font-size="10.00" fill="#000000">string</text>
</g>
<!-- Node0&#45;&gt;Node1 -->
<g id="edge1" class="edge">
<title>Node0&#45;&gt;Node1</title>
<path fill="none" stroke="#191970" d="M654.1018,-235.3787C703.4695,-214.8828 811.9514,-161.6685 853,-76 860.0234,-61.3421 856.3499,-42.9356 851.592,-29.2872"/>
<polygon fill="#191970" stroke="#191970" points="854.8231,-27.94 847.9015,-19.9187 848.3102,-30.5056 854.8231,-27.94"/>
</g>
<!-- Node2 -->
<g id="node3" class="node">
<title>Node2</title>
<polygon fill="#ffffff" stroke="#bfbfbf" points="567.5,-174 567.5,-193 690.5,-193 690.5,-174 567.5,-174"/>
<text text-anchor="middle" x="629" y="-181" font-family="Helvetica,sans-Serif" font-size="10.00" fill="#000000">AMReX_MLTensorOp.H</text>
</g>
<!-- Node0&#45;&gt;Node2 -->
<g id="edge2" class="edge">
<title>Node0&#45;&gt;Node2</title>
<path fill="none" stroke="#191970" d="M629,-235.3906C629,-226.8657 629,-214.1392 629,-203.4235"/>
<polygon fill="#191970" stroke="#191970" points="632.5001,-203.2448 629,-193.2449 625.5001,-203.2449 632.5001,-203.2448"/>
</g>
<!-- Node3 -->
<g id="node4" class="node">
<title>Node3</title>
<g id="a_node4"><a xlink:href="_source_term_8_h.html" target="_top" xlink:title="amr&#45;wind/equation_systems\l/SourceTerm.H">
<polygon fill="#ffffff" stroke="#000000" points="322.5,-168.5 322.5,-198.5 461.5,-198.5 461.5,-168.5 322.5,-168.5"/>
<text text-anchor="start" x="330.5" y="-186.5" font-family="Helvetica,sans-Serif" font-size="10.00" fill="#000000">amr&#45;wind/equation_systems</text>
<text text-anchor="middle" x="392" y="-175.5" font-family="Helvetica,sans-Serif" font-size="10.00" fill="#000000">/SourceTerm.H</text>
</a>
</g>
</g>
<!-- Node0&#45;&gt;Node3 -->
<g id="edge3" class="edge">
<title>Node0&#45;&gt;Node3</title>
<path fill="none" stroke="#191970" d="M592.4881,-235.5254C557.3135,-226.3978 503.2348,-212.3647 460.1033,-201.1724"/>
<polygon fill="#191970" stroke="#191970" points="460.7961,-197.7363 450.2375,-198.6123 459.0378,-204.5119 460.7961,-197.7363"/>
</g>
<!-- Node4 -->
<g id="node5" class="node">
<title>Node4</title>
<g id="a_node5"><a xlink:href="_factory_8_h.html" target="_top" xlink:title="amr&#45;wind/core/Factory.H">
<polygon fill="#ffffff" stroke="#000000" points="1341.5,-56.5 1341.5,-75.5 1466.5,-75.5 1466.5,-56.5 1341.5,-56.5"/>
<text text-anchor="middle" x="1404" y="-63.5" font-family="Helvetica,sans-Serif" font-size="10.00" fill="#000000">amr&#45;wind/core/Factory.H</text>
</a>
</g>
</g>
<!-- Node3&#45;&gt;Node4 -->
<g id="edge4" class="edge">
<title>Node3&#45;&gt;Node4</title>
<path fill="none" stroke="#191970" d="M461.5589,-175.4237C645.6167,-154.0534 1144.0817,-96.1783 1331.4723,-74.421"/>
<polygon fill="#191970" stroke="#191970" points="1331.9662,-77.8872 1341.4958,-73.2572 1331.1588,-70.9339 1331.9662,-77.8872"/>
</g>
<!-- Node10 -->
<g id="node11" class="node">
<title>Node10</title>
<g id="a_node11"><a xlink:href="_field_desc_types_8_h.html" target="_top" xlink:title="amr&#45;wind/core/FieldDescTypes.H">
<polygon fill="#ffffff" stroke="#000000" points="381.5,-.5 381.5,-19.5 544.5,-19.5 544.5,-.5 381.5,-.5"/>
<text text-anchor="middle" x="463" y="-7.5" font-family="Helvetica,sans-Serif" font-size="10.00" fill="#000000">amr&#45;wind/core/FieldDescTypes.H</text>
</a>
</g>
</g>
<!-- Node3&#45;&gt;Node10 -->
<g id="edge10" class="edge">
<title>Node3&#45;&gt;Node10</title>
<path fill="none" stroke="#191970" d="M388.4809,-168.2224C383.5447,-143.074 377.2224,-92.1466 397,-56 404.4446,-42.3938 417.8493,-31.9363 430.6427,-24.4559"/>
<polygon fill="#191970" stroke="#191970" points="432.6214,-27.3651 439.7562,-19.5328 429.2943,-21.2063 432.6214,-27.3651"/>
</g>
<!-- Node11 -->
<g id="node12" class="node">
<title>Node11</title>
<g id="a_node12"><a xlink:href="_field_utils_8_h.html" target="_top" xlink:title="amr&#45;wind/core/FieldUtils.H">
<polygon fill="#ffffff" stroke="#000000" points="109.5,-56.5 109.5,-75.5 242.5,-75.5 242.5,-56.5 109.5,-56.5"/>
<text text-anchor="middle" x="176" y="-63.5" font-family="Helvetica,sans-Serif" font-size="10.00" fill="#000000">amr&#45;wind/core/FieldUtils.H</text>
</a>
</g>
</g>
<!-- Node3&#45;&gt;Node11 -->
<g id="edge11" class="edge">
<title>Node3&#45;&gt;Node11</title>
<path fill="none" stroke="#191970" d="M363.064,-168.3142C343.7421,-158.1304 317.7905,-144.3688 295,-132 262.9217,-114.5906 226.2218,-94.157 202.1612,-80.6897"/>
<polygon fill="#191970" stroke="#191970" points="203.7229,-77.5528 193.2881,-75.7183 200.3013,-83.6596 203.7229,-77.5528"/>
</g>
<!-- Node12 -->
<g id="node13" class="node">
<title>Node12</title>
<polygon fill="#ffffff" stroke="#bfbfbf" points="134,-.5 134,-19.5 238,-19.5 238,-.5 134,-.5"/>
<text text-anchor="middle" x="186" y="-7.5" font-family="Helvetica,sans-Serif" font-size="10.00" fill="#000000">AMReX_MultiFab.H</text>
</g>
<!-- Node3&#45;&gt;Node12 -->
<g id="edge42" class="edge">
<title>Node3&#45;&gt;Node12</title>
<path fill="none" stroke="#191970" d="M325.8821,-168.4297C248.1866,-149.2247 126.461,-113.9389 100,-76 84.0877,-53.1855 115.2116,-34.7159 144.3656,-23.1785"/>
<polygon fill="#191970" stroke="#191970" points="145.9661,-26.3167 154.1063,-19.5353 143.5138,-19.7603 145.9661,-26.3167"/>
</g>
<!-- Node14 -->
<g id="node15" class="node">
<title>Node14</title>
<g id="a_node15"><a xlink:href="_field_repo_8_h.html" target="_top" xlink:title="amr&#45;wind/core/FieldRepo.H">
<polygon fill="#ffffff" stroke="#000000" points="407,-112.5 407,-131.5 543,-131.5 543,-112.5 407,-112.5"/>
<text text-anchor="middle" x="475" y="-119.5" font-family="Helvetica,sans-Serif" font-size="10.00" fill="#000000">amr&#45;wind/core/FieldRepo.H</text>
</a>
</g>
</g>
<!-- Node3&#45;&gt;Node14 -->
<g id="edge15" class="edge">
<title>Node3&#45;&gt;Node14</title>
<path fill="none" stroke="#191970" d="M412.5169,-168.2977C424.9982,-159.0495 440.9159,-147.2551 453.5614,-137.8853"/>
<polygon fill="#191970" stroke="#191970" points="455.7596,-140.6126 461.7106,-131.8469 451.5922,-134.9882 455.7596,-140.6126"/>
</g>
<!-- Node5 -->
<g id="node6" class="node">
<title>Node5</title>
<polygon fill="#ffffff" stroke="#bfbfbf" points="1249,-.5 1249,-19.5 1301,-19.5 1301,-.5 1249,-.5"/>
<text text-anchor="middle" x="1275" y="-7.5" font-family="Helvetica,sans-Serif" font-size="10.00" fill="#000000">memory</text>
</g>
<!-- Node4&#45;&gt;Node5 -->
<g id="edge5" class="edge">
<title>Node4&#45;&gt;Node5</title>
<path fill="none" stroke="#191970" d="M1381.8241,-56.3733C1361.0234,-47.3435 1329.7083,-33.7494 1306.3542,-23.6111"/>
<polygon fill="#191970" stroke="#191970" points="1307.4532,-20.2727 1296.8865,-19.5011 1304.6657,-26.6938 1307.4532,-20.2727"/>
</g>
<!-- Node6 -->
<g id="node7" class="node">
<title>Node6</title>
<polygon fill="#ffffff" stroke="#bfbfbf" points="1319.5,-.5 1319.5,-19.5 1402.5,-19.5 1402.5,-.5 1319.5,-.5"/>
<text text-anchor="middle" x="1361" y="-7.5" font-family="Helvetica,sans-Serif" font-size="10.00" fill="#000000">unordered_map</text>
</g>
<!-- Node4&#45;&gt;Node6 -->
<g id="edge6" class="edge">
<title>Node4&#45;&gt;Node6</title>
<path fill="none" stroke="#191970" d="M1396.51,-56.2455C1390.4674,-48.3761 1381.8097,-37.101 1374.5559,-27.6542"/>
<polygon fill="#191970" stroke="#191970" points="1377.2705,-25.4426 1368.4042,-19.6427 1371.7185,-29.7058 1377.2705,-25.4426"/>
</g>
<!-- Node7 -->
<g id="node8" class="node">
<title>Node7</title>
<polygon fill="#ffffff" stroke="#bfbfbf" points="1421,-.5 1421,-19.5 1475,-19.5 1475,-.5 1421,-.5"/>
<text text-anchor="middle" x="1448" y="-7.5" font-family="Helvetica,sans-Serif" font-size="10.00" fill="#000000">iostream</text>
</g>
<!-- Node4&#45;&gt;Node7 -->
<g id="edge7" class="edge">
<title>Node4&#45;&gt;Node7</title>
<path fill="none" stroke="#191970" d="M1411.6642,-56.2455C1417.8473,-48.3761 1426.7063,-37.101 1434.1289,-27.6542"/>
<polygon fill="#191970" stroke="#191970" points="1436.9975,-29.6683 1440.4236,-19.6427 1431.4932,-25.3435 1436.9975,-29.6683"/>
</g>
<!-- Node8 -->
<g id="node9" class="node">
<title>Node8</title>
<polygon fill="#ffffff" stroke="#bfbfbf" points="1493.5,-.5 1493.5,-19.5 1580.5,-19.5 1580.5,-.5 1493.5,-.5"/>
<text text-anchor="middle" x="1537" y="-7.5" font-family="Helvetica,sans-Serif" font-size="10.00" fill="#000000">AMReX_Print.H</text>
</g>
<!-- Node4&#45;&gt;Node8 -->
<g id="edge8" class="edge">
<title>Node4&#45;&gt;Node8</title>
<path fill="none" stroke="#191970" d="M1426.8635,-56.3733C1448.405,-47.3032 1480.8838,-33.6279 1504.9956,-23.4755"/>
<polygon fill="#191970" stroke="#191970" points="1506.5767,-26.6075 1514.4348,-19.5011 1503.8603,-20.156 1506.5767,-26.6075"/>
</g>
<!-- Node9 -->
<g id="node10" class="node">
<title>Node9</title>
<polygon fill="#ffffff" stroke="#bfbfbf" points="1599,-.5 1599,-19.5 1661,-19.5 1661,-.5 1599,-.5"/>
<text text-anchor="middle" x="1630" y="-7.5" font-family="Helvetica,sans-Serif" font-size="10.00" fill="#000000">AMReX.H</text>
</g>
<!-- Node4&#45;&gt;Node9 -->
<g id="edge9" class="edge">
<title>Node4&#45;&gt;Node9</title>
<path fill="none" stroke="#191970" d="M1442.8376,-56.4254C1478.4129,-47.6482 1532.8008,-34.2126 1589.1897,-20.1974"/>
<polygon fill="#191970" stroke="#191970" points="1590.133,-23.5695 1598.9931,-17.76 1588.444,-16.7763 1590.133,-23.5695"/>
</g>
<!-- Node11&#45;&gt;Node10 -->
<g id="edge12" class="edge">
<title>Node11&#45;&gt;Node10</title>
<path fill="none" stroke="#191970" d="M225.011,-56.4369C274.6447,-46.7522 351.4273,-31.7703 404.2834,-21.4569"/>
<polygon fill="#191970" stroke="#191970" points="405.0466,-24.8741 414.1912,-19.5237 403.706,-18.0036 405.0466,-24.8741"/>
</g>
<!-- Node11&#45;&gt;Node12 -->
<g id="edge13" class="edge">
<title>Node11&#45;&gt;Node12</title>
<path fill="none" stroke="#191970" d="M177.7419,-56.2455C179.0467,-48.9382 180.876,-38.6944 182.4813,-29.7046"/>
<polygon fill="#191970" stroke="#191970" points="185.9656,-30.1022 184.2781,-19.6427 179.0746,-28.8717 185.9656,-30.1022"/>
</g>
<!-- Node13 -->
<g id="node14" class="node">
<title>Node13</title>
<polygon fill="#ffffff" stroke="#bfbfbf" points="0,-.5 0,-19.5 116,-19.5 116,-.5 0,-.5"/>
<text text-anchor="middle" x="58" y="-7.5" font-family="Helvetica,sans-Serif" font-size="10.00" fill="#000000">AMReX_Interpolater.H</text>
</g>
<!-- Node11&#45;&gt;Node13 -->
<g id="edge14" class="edge">
<title>Node11&#45;&gt;Node13</title>
<path fill="none" stroke="#191970" d="M155.7151,-56.3733C136.8579,-47.4241 108.554,-33.9917 87.2545,-23.8835"/>
<polygon fill="#191970" stroke="#191970" points="88.5551,-20.6266 78.0202,-19.5011 85.5539,-26.9506 88.5551,-20.6266"/>
</g>
<!-- Node14&#45;&gt;Node1 -->
<g id="edge16" class="edge">
<title>Node14&#45;&gt;Node1</title>
<path fill="none" stroke="#191970" d="M543.3723,-117.6817C641.7638,-110.809 813.7577,-96.0792 834,-76 845.9074,-64.1885 847.2117,-44.5771 846.105,-29.7945"/>
<polygon fill="#191970" stroke="#191970" points="849.556,-29.1694 844.9244,-19.6406 842.6028,-29.9779 849.556,-29.1694"/>
</g>
<!-- Node14&#45;&gt;Node6 -->
<g id="edge17" class="edge">
<title>Node14&#45;&gt;Node6</title>
<path fill="none" stroke="#191970" d="M543.3794,-119.1726C650.2326,-114.1429 863.099,-101.6646 1042,-76 1138.779,-62.1164 1250.3211,-36.8862 1312.5537,-21.9653"/>
<polygon fill="#191970" stroke="#191970" points="1313.5764,-25.3191 1322.4776,-19.573 1311.9359,-18.5141 1313.5764,-25.3191"/>
</g>
<!-- Node14&#45;&gt;Node10 -->
<g id="edge18" class="edge">
<title>Node14&#45;&gt;Node10</title>
<path fill="none" stroke="#191970" d="M448.399,-112.397C432.4127,-105.0839 413.4002,-93.291 404,-76 393.1293,-56.0042 414.5775,-37.0573 434.5918,-24.6367"/>
<polygon fill="#191970" stroke="#191970" points="436.4014,-27.633 443.2734,-19.5691 432.8726,-21.5876 436.4014,-27.633"/>
</g>
<!-- Node14&#45;&gt;Node11 -->
<g id="edge19" class="edge">
<title>Node14&#45;&gt;Node11</title>
<path fill="none" stroke="#191970" d="M423.9398,-112.4369C372.1232,-102.7321 291.905,-87.708 236.8285,-77.3926"/>
<polygon fill="#191970" stroke="#191970" points="237.323,-73.9245 226.8496,-75.5237 236.0344,-80.8048 237.323,-73.9245"/>
</g>
<!-- Node14&#45;&gt;Node12 -->
<g id="edge40" class="edge">
<title>Node14&#45;&gt;Node12</title>
<path fill="none" stroke="#191970" d="M450.36,-112.4509C398.7458,-92.4482 279.1812,-46.1117 220.1838,-23.2477"/>
<polygon fill="#191970" stroke="#191970" points="221.1667,-19.875 210.5776,-19.5249 218.6371,-26.402 221.1667,-19.875"/>
</g>
<!-- Node15 -->
<g id="node16" class="node">
<title>Node15</title>
<g id="a_node16"><a xlink:href="_field_8_h.html" target="_top" xlink:title="amr&#45;wind/core/Field.H">
<polygon fill="#ffffff" stroke="#000000" points="919.5,-56.5 919.5,-75.5 1032.5,-75.5 1032.5,-56.5 919.5,-56.5"/>
<text text-anchor="middle" x="976" y="-63.5" font-family="Helvetica,sans-Serif" font-size="10.00" fill="#000000">amr&#45;wind/core/Field.H</text>
</a>
</g>
</g>
<!-- Node14&#45;&gt;Node15 -->
<g id="edge20" class="edge">
<title>Node14&#45;&gt;Node15</title>
<path fill="none" stroke="#191970" d="M543.0885,-114.3893C639.2451,-103.6413 813.7223,-84.1388 909.1829,-73.4686"/>
<polygon fill="#191970" stroke="#191970" points="909.7463,-76.9275 919.2956,-72.3382 908.9686,-69.9708 909.7463,-76.9275"/>
</g>
<!-- Node19 -->
<g id="node20" class="node">
<title>Node19</title>
<g id="a_node20"><a xlink:href="_int_field_8_h.html" target="_top" xlink:title="amr&#45;wind/core/IntField.H">
<polygon fill="#ffffff" stroke="#000000" points="413,-56.5 413,-75.5 537,-75.5 537,-56.5 413,-56.5"/>
<text text-anchor="middle" x="475" y="-63.5" font-family="Helvetica,sans-Serif" font-size="10.00" fill="#000000">amr&#45;wind/core/IntField.H</text>
</a>
</g>
</g>
<!-- Node14&#45;&gt;Node19 -->
<g id="edge29" class="edge">
<title>Node14&#45;&gt;Node19</title>
<path fill="none" stroke="#191970" d="M475,-112.2455C475,-104.9382 475,-94.6944 475,-85.7046"/>
<polygon fill="#191970" stroke="#191970" points="478.5001,-85.6426 475,-75.6427 471.5001,-85.6427 478.5001,-85.6426"/>
</g>
<!-- Node20 -->
<g id="node21" class="node">
<title>Node20</title>
<polygon fill="#ffffff" stroke="#bfbfbf" points="256.5,-.5 256.5,-19.5 363.5,-19.5 363.5,-.5 256.5,-.5"/>
<text text-anchor="middle" x="310" y="-7.5" font-family="Helvetica,sans-Serif" font-size="10.00" fill="#000000">AMReX_iMultiFab.H</text>
</g>
<!-- Node14&#45;&gt;Node20 -->
<g id="edge41" class="edge">
<title>Node14&#45;&gt;Node20</title>
<path fill="none" stroke="#191970" d="M457.2946,-112.3353C441.2477,-103.3949 417.1052,-89.4883 397,-76 373.2699,-60.0798 347.3241,-40.0271 329.9979,-26.227"/>
<polygon fill="#191970" stroke="#191970" points="331.771,-23.1624 321.7805,-19.6354 327.3909,-28.6228 331.771,-23.1624"/>
</g>
<!-- Node21 -->
<g id="node22" class="node">
<title>Node21</title>
<g id="a_node22"><a xlink:href="_scratch_field_8_h.html" target="_top" xlink:title="amr&#45;wind/core/ScratchField.H">
<polygon fill="#ffffff" stroke="#000000" points="555,-56.5 555,-75.5 701,-75.5 701,-56.5 555,-56.5"/>
<text text-anchor="middle" x="628" y="-63.5" font-family="Helvetica,sans-Serif" font-size="10.00" fill="#000000">amr&#45;wind/core/ScratchField.H</text>
</a>
</g>
</g>
<!-- Node14&#45;&gt;Node21 -->
<g id="edge33" class="edge">
<title>Node14&#45;&gt;Node21</title>
<path fill="none" stroke="#191970" d="M501.3016,-112.3733C526.4128,-103.1822 564.4438,-89.2624 592.2872,-79.0713"/>
<polygon fill="#191970" stroke="#191970" points="593.8538,-82.2251 602.0416,-75.5011 591.4478,-75.6516 593.8538,-82.2251"/>
</g>
<!-- Node24 -->
<g id="node25" class="node">
<title>Node24</title>
<polygon fill="#ffffff" stroke="#bfbfbf" points="719,-56.5 719,-75.5 825,-75.5 825,-56.5 719,-56.5"/>
<text text-anchor="middle" x="772" y="-63.5" font-family="Helvetica,sans-Serif" font-size="10.00" fill="#000000">AMReX_AmrCore.H</text>
</g>
<!-- Node14&#45;&gt;Node24 -->
<g id="edge39" class="edge">
<title>Node14&#45;&gt;Node24</title>
<path fill="none" stroke="#191970" d="M525.7187,-112.4369C577.1886,-102.7321 656.8702,-87.708 711.5784,-77.3926"/>
<polygon fill="#191970" stroke="#191970" points="712.3122,-80.816 721.4905,-75.5237 711.0152,-73.9372 712.3122,-80.816"/>
</g>
<!-- Node15&#45;&gt;Node1 -->
<g id="edge21" class="edge">
<title>Node15&#45;&gt;Node1</title>
<path fill="none" stroke="#191970" d="M953.1365,-56.3733C931.0728,-47.0833 897.5351,-32.9621 873.2659,-22.7435"/>
<polygon fill="#191970" stroke="#191970" points="874.3912,-19.4198 863.8166,-18.7649 871.6748,-25.8713 874.3912,-19.4198"/>
</g>
<!-- Node15&#45;&gt;Node5 -->
<g id="edge22" class="edge">
<title>Node15&#45;&gt;Node5</title>
<path fill="none" stroke="#191970" d="M1032.7376,-57.8908C1084.233,-50.1296 1162.4093,-37.3495 1238.9009,-20.0767"/>
<polygon fill="#191970" stroke="#191970" points="1239.7355,-23.4763 1248.7041,-17.8358 1238.1756,-16.6523 1239.7355,-23.4763"/>
</g>
<!-- Node15&#45;&gt;Node6 -->
<g id="edge23" class="edge">
<title>Node15&#45;&gt;Node6</title>
<path fill="none" stroke="#191970" d="M1032.5854,-59.2011C1097.0553,-51.2322 1205.7972,-37.1166 1309.2892,-20.0409"/>
<polygon fill="#191970" stroke="#191970" points="1309.9957,-23.4715 1319.2865,-18.3792 1308.848,-16.5663 1309.9957,-23.4715"/>
</g>
<!-- Node15&#45;&gt;Node10 -->
<g id="edge28" class="edge">
<title>Node15&#45;&gt;Node10</title>
<path fill="none" stroke="#191970" d="M919.3447,-59.8402C840.3222,-51.2451 692.2253,-35.124 555.1232,-20.1222"/>
<polygon fill="#191970" stroke="#191970" points="555.1736,-16.6069 544.8521,-18.9982 554.412,-23.5653 555.1736,-16.6069"/>
</g>
<!-- Node15&#45;&gt;Node12 -->
<g id="edge24" class="edge">
<title>Node15&#45;&gt;Node12</title>
<path fill="none" stroke="#191970" d="M919.347,-61.8937C893.3466,-60.0391 862.1127,-57.8534 834,-56 573.6298,-38.8347 507.3401,-48.8097 248,-20 247.8984,-19.9887 247.7967,-19.9774 247.695,-19.966"/>
<polygon fill="#191970" stroke="#191970" points="248.3976,-16.5262 238.0444,-18.7758 247.5408,-23.4736 248.3976,-16.5262"/>
</g>
<!-- Node16 -->
<g id="node17" class="node">
<title>Node16</title>
<polygon fill="#ffffff" stroke="#bfbfbf" points="1028.5,-.5 1028.5,-19.5 1127.5,-19.5 1127.5,-.5 1028.5,-.5"/>
<text text-anchor="middle" x="1078" y="-7.5" font-family="Helvetica,sans-Serif" font-size="10.00" fill="#000000">AMReX_BCRec.H</text>
</g>
<!-- Node15&#45;&gt;Node16 -->
<g id="edge25" class="edge">
<title>Node15&#45;&gt;Node16</title>
<path fill="none" stroke="#191970" d="M993.767,-56.2455C1009.7095,-47.4928 1033.3259,-34.527 1051.4989,-24.5496"/>
<polygon fill="#191970" stroke="#191970" points="1053.3552,-27.5233 1060.4366,-19.6427 1049.9863,-21.3873 1053.3552,-27.5233"/>
</g>
<!-- Node17 -->
<g id="node18" class="node">
<title>Node17</title>
<polygon fill="#ffffff" stroke="#bfbfbf" points="1145.5,-.5 1145.5,-19.5 1230.5,-19.5 1230.5,-.5 1145.5,-.5"/>
<text text-anchor="middle" x="1188" y="-7.5" font-family="Helvetica,sans-Serif" font-size="10.00" fill="#000000">AMReX_Gpu.H</text>
</g>
<!-- Node15&#45;&gt;Node17 -->
<g id="edge26" class="edge">
<title>Node15&#45;&gt;Node17</title>
<path fill="none" stroke="#191970" d="M1012.4441,-56.3733C1048.3069,-46.9001 1103.1878,-32.4032 1142.0282,-22.1435"/>
<polygon fill="#191970" stroke="#191970" points="1143.257,-25.439 1152.0315,-19.5011 1141.4692,-18.6712 1143.257,-25.439"/>
</g>
<!-- Node18 -->
<g id="node19" class="node">
<title>Node18</title>
<g id="a_node19"><a xlink:href="incflo__enums_8_h.html" target="_top" xlink:title="amr&#45;wind/incflo_enums.H">
<polygon fill="#ffffff" stroke="#000000" points="882,-.5 882,-19.5 1010,-19.5 1010,-.5 882,-.5"/>
<text text-anchor="middle" x="946" y="-7.5" font-family="Helvetica,sans-Serif" font-size="10.00" fill="#000000">amr&#45;wind/incflo_enums.H</text>
</a>
</g>
</g>
<!-- Node15&#45;&gt;Node18 -->
<g id="edge27" class="edge">
<title>Node15&#45;&gt;Node18</title>
<path fill="none" stroke="#191970" d="M970.7744,-56.2455C966.6877,-48.617 960.8865,-37.7881 955.925,-28.5267"/>
<polygon fill="#191970" stroke="#191970" points="958.9732,-26.8047 951.1657,-19.6427 952.8028,-30.1103 958.9732,-26.8047"/>
</g>
<!-- Node19&#45;&gt;Node1 -->
<g id="edge30" class="edge">
<title>Node19&#45;&gt;Node1</title>
<path fill="none" stroke="#191970" d="M537.3352,-57.1992C540.2641,-56.7923 543.1638,-56.3909 546,-56 661.4913,-40.081 694.6213,-46.6779 812.7049,-19.6709"/>
<polygon fill="#191970" stroke="#191970" points="813.5381,-23.0706 822.4887,-17.4017 811.9565,-16.2516 813.5381,-23.0706"/>
</g>
<!-- Node19&#45;&gt;Node10 -->
<g id="edge31" class="edge">
<title>Node19&#45;&gt;Node10</title>
<path fill="none" stroke="#191970" d="M472.9098,-56.2455C471.3439,-48.9382 469.1488,-38.6944 467.2224,-29.7046"/>
<polygon fill="#191970" stroke="#191970" points="470.584,-28.6873 465.0663,-19.6427 463.7393,-30.1541 470.584,-28.6873"/>
</g>
<!-- Node19&#45;&gt;Node20 -->
<g id="edge32" class="edge">
<title>Node19&#45;&gt;Node20</title>
<path fill="none" stroke="#191970" d="M446.6355,-56.3733C419.3173,-47.1016 377.8204,-33.0178 347.7262,-22.804"/>
<polygon fill="#191970" stroke="#191970" points="348.5887,-19.4008 337.9944,-19.5011 346.339,-26.0294 348.5887,-19.4008"/>
</g>
<!-- Node21&#45;&gt;Node1 -->
<g id="edge34" class="edge">
<title>Node21&#45;&gt;Node1</title>
<path fill="none" stroke="#191970" d="M670.4997,-56.4274C706.0268,-48.2028 758.2065,-35.6085 812.5926,-19.9515"/>
<polygon fill="#191970" stroke="#191970" points="813.7837,-23.2502 822.4096,-17.0985 811.8301,-16.5284 813.7837,-23.2502"/>
</g>
<!-- Node21&#45;&gt;Node10 -->
<g id="edge35" class="edge">
<title>Node21&#45;&gt;Node10</title>
<path fill="none" stroke="#191970" d="M599.6355,-56.3733C572.3173,-47.1016 530.8204,-33.0178 500.7262,-22.804"/>
<polygon fill="#191970" stroke="#191970" points="501.5887,-19.4008 490.9944,-19.5011 499.339,-26.0294 501.5887,-19.4008"/>
</g>
<!-- Node21&#45;&gt;Node12 -->
<g id="edge36" class="edge">
<title>Node21&#45;&gt;Node12</title>
<path fill="none" stroke="#191970" d="M554.6829,-57.0547C551.7504,-56.6983 548.8474,-56.3456 546,-56 413.5646,-39.9252 380.1009,-38.6251 248,-20 247.8988,-19.9857 247.7975,-19.9714 247.6961,-19.9571"/>
<polygon fill="#191970" stroke="#191970" points="248.4732,-16.5335 238.0725,-18.5525 247.4622,-23.4601 248.4732,-16.5335"/>
</g>
<!-- Node22 -->
<g id="node23" class="node">
<title>Node22</title>
<polygon fill="#ffffff" stroke="#bfbfbf" points="562.5,-.5 562.5,-19.5 657.5,-19.5 657.5,-.5 562.5,-.5"/>
<text text-anchor="middle" x="610" y="-7.5" font-family="Helvetica,sans-Serif" font-size="10.00" fill="#000000">AMReX_Vector.H</text>
</g>
<!-- Node21&#45;&gt;Node22 -->
<g id="edge37" class="edge">
<title>Node21&#45;&gt;Node22</title>
<path fill="none" stroke="#191970" d="M624.8646,-56.2455C622.49,-48.8579 619.1507,-38.4689 616.2385,-29.4087"/>
<polygon fill="#191970" stroke="#191970" points="619.4917,-28.0919 613.0994,-19.6427 612.8275,-30.234 619.4917,-28.0919"/>
</g>
<!-- Node23 -->
<g id="node24" class="node">
<title>Node23</title>
<polygon fill="#ffffff" stroke="#bfbfbf" points="676,-.5 676,-19.5 804,-19.5 804,-.5 676,-.5"/>
<text text-anchor="middle" x="740" y="-7.5" font-family="Helvetica,sans-Serif" font-size="10.00" fill="#000000">AMReX_PhysBCFunct.H</text>
</g>
<!-- Node21&#45;&gt;Node23 -->
<g id="edge38" class="edge">
<title>Node21&#45;&gt;Node23</title>
<path fill="none" stroke="#191970" d="M647.2535,-56.3733C665.0712,-47.4644 691.7747,-34.1127 711.9594,-24.0203"/>
<polygon fill="#191970" stroke="#191970" points="713.6187,-27.1038 720.9978,-19.5011 710.4882,-20.8428 713.6187,-27.1038"/>
</g>
</g>
</svg>
        <g id="navigator" transform="translate(0 0)" fill="#404254">
                <rect fill="#f2f5e9" fill-opacity="0.5" stroke="#606060" stroke-width=".5" x="0" y="0" width="60" height="60"/>
                <use id="zoomplus" xlink:href="#zoomPlus" x="17" y="9" onmousedown="handleZoom(evt,'in')"/>
                <use id="zoomminus" xlink:href="#zoomMin" x="42" y="9" onmousedown="handleZoom(evt,'out')"/>
                <use id="reset" xlink:href="#resetDef" x="30" y="36" onmousedown="handleReset()"/>
                <g id="arrowUp" xlink:href="#dirArrow" transform="translate(30 24)" onmousedown="handlePan(0,-1)">
                  <use xlink:href="#rim" fill="#404040">
                        <set attributeName="fill" to="#808080" begin="arrowUp.mouseover" end="arrowUp.mouseout"/>
                  </use>
                  <path fill="none" stroke="white" stroke-width="1.5" d="M0,-3.0v7 M-2.5,-0.5L0,-3.0L2.5,-0.5"/>
                </g>
                <g id="arrowRight" xlink:href="#dirArrow" transform="rotate(90) translate(36 -43)" onmousedown="handlePan(1,0)">
                  <use xlink:href="#rim" fill="#404040">
                        <set attributeName="fill" to="#808080" begin="arrowRight.mouseover" end="arrowRight.mouseout"/>
                  </use>
                  <path fill="none" stroke="white" stroke-width="1.5" d="M0,-3.0v7 M-2.5,-0.5L0,-3.0L2.5,-0.5"/>
                </g>
                <g id="arrowDown" xlink:href="#dirArrow" transform="rotate(180) translate(-30 -48)" onmousedown="handlePan(0,1)">
                  <use xlink:href="#rim" fill="#404040">
                        <set attributeName="fill" to="#808080" begin="arrowDown.mouseover" end="arrowDown.mouseout"/>
                  </use>
                  <path fill="none" stroke="white" stroke-width="1.5" d="M0,-3.0v7 M-2.5,-0.5L0,-3.0L2.5,-0.5"/>
                </g>
                <g id="arrowLeft" xlink:href="#dirArrow" transform="rotate(270) translate(-36 17)" onmousedown="handlePan(-1,0)">
                  <use xlink:href="#rim" fill="#404040">
                        <set attributeName="fill" to="#808080" begin="arrowLeft.mouseover" end="arrowLeft.mouseout"/>
                  </use>
                  <path fill="none" stroke="white" stroke-width="1.5" d="M0,-3.0v7 M-2.5,-0.5L0,-3.0L2.5,-0.5"/>
                </g>
        </g>
        <svg viewBox="0 0 15 15" width="100%" height="30px" preserveAspectRatio="xMaxYMin meet">
         <g id="arrow_out" transform="scale(0.3 0.3)">
          <a xlink:href="_p_d_e_traits_8_h__incl_org.svg" target="_base">
           <rect id="button" ry="5" rx="5" y="6" x="6" height="38" width="38"
                fill="#f2f5e9" fill-opacity="0.5" stroke="#606060" stroke-width="1.0"/>
           <path id="arrow"
             d="M 11.500037,31.436501 C 11.940474,20.09759 22.043105,11.32322 32.158766,21.979434 L 37.068811,17.246167 C 37.068811,17.246167 37.088388,32 37.088388,32 L 22.160133,31.978069 C 22.160133,31.978069 26.997745,27.140456 26.997745,27.140456 C 18.528582,18.264221 13.291696,25.230495 11.500037,31.436501 z"
             style="fill:#404040;"/>
          </a>
         </g>
        </svg>
</svg>
