<?xml version="1.0" encoding="UTF-8" standalone="no"?>
<!DOCTYPE svg PUBLIC "-//W3C//DTD SVG 1.1//EN"
 "http://www.w3.org/Graphics/SVG/1.1/DTD/svg11.dtd">
<!-- Generated by graphviz version 2.40.1 (20161225.0304)
 -->
<!-- Title: PDEHelpers.H Pages: 1 -->
<svg width="1922pt" height="207pt"
 viewBox="0.00 0.00 1922.00 207.00" xmlns="http://www.w3.org/2000/svg" xmlns:xlink="http://www.w3.org/1999/xlink">
<g id="graph0" class="graph" transform="scale(1 1) rotate(0) translate(4 203)">
<title>PDEHelpers.H</title>
<polygon fill="#ffffff" stroke="transparent" points="-4,4 -4,-203 1918,-203 1918,4 -4,4"/>
<!-- Node0 -->
<g id="node1" class="node">
<title>Node0</title>
<polygon fill="#bfbfbf" stroke="#000000" points="1216.5,-179.5 1216.5,-198.5 1298.5,-198.5 1298.5,-179.5 1216.5,-179.5"/>
<text text-anchor="middle" x="1257.5" y="-186.5" font-family="Helvetica,sans-Serif" font-size="10.00" fill="#000000">PDEHelpers.H</text>
</g>
<!-- Node1 -->
<g id="node2" class="node">
<title>Node1</title>
<polygon fill="#ffffff" stroke="#bfbfbf" points="125,-.5 125,-19.5 166,-19.5 166,-.5 125,-.5"/>
<text text-anchor="middle" x="145.5" y="-7.5" font-family="Helvetica,sans-Serif" font-size="10.00" fill="#000000">string</text>
</g>
<!-- Node0&#45;&gt;Node1 -->
<g id="edge1" class="edge">
<title>Node0&#45;&gt;Node1</title>
<path fill="none" stroke="#191970" d="M1216.08,-188.6756C1098.197,-187.3052 750.9505,-180.1617 465.5,-143 317.5252,-123.7357 230.9037,-191.5664 136.5,-76 125.9032,-63.0277 130.1788,-43.6065 135.8896,-29.1867"/>
<polygon fill="#191970" stroke="#191970" points="139.2288,-30.2926 140.1094,-19.7345 132.8368,-27.439 139.2288,-30.2926"/>
</g>
<!-- Node2 -->
<g id="node3" class="node">
<title>Node2</title>
<g id="a_node3"><a xlink:href="_p_d_e_fields_8_h.html" target="_top" xlink:title="amr&#45;wind/equation_systems\l/PDEFields.H">
<polygon fill="#ffffff" stroke="#000000" points="1732,-112.5 1732,-142.5 1871,-142.5 1871,-112.5 1732,-112.5"/>
<text text-anchor="start" x="1740" y="-130.5" font-family="Helvetica,sans-Serif" font-size="10.00" fill="#000000">amr&#45;wind/equation_systems</text>
<text text-anchor="middle" x="1801.5" y="-119.5" font-family="Helvetica,sans-Serif" font-size="10.00" fill="#000000">/PDEFields.H</text>
</a>
</g>
</g>
<!-- Node0&#45;&gt;Node2 -->
<g id="edge2" class="edge">
<title>Node0&#45;&gt;Node2</title>
<path fill="none" stroke="#191970" d="M1298.8349,-184.327C1388.942,-174.1403 1604.374,-149.7854 1721.8292,-136.5069"/>
<polygon fill="#191970" stroke="#191970" points="1722.3005,-139.976 1731.844,-135.3747 1721.5141,-133.0203 1722.3005,-139.976"/>
</g>
<!-- Node4 -->
<g id="node5" class="node">
<title>Node4</title>
<g id="a_node5"><a xlink:href="_sim_time_8_h.html" target="_top" xlink:title="amr&#45;wind/core/SimTime.H">
<polygon fill="#ffffff" stroke="#000000" points="1591,-56.5 1591,-75.5 1722,-75.5 1722,-56.5 1591,-56.5"/>
<text text-anchor="middle" x="1656.5" y="-63.5" font-family="Helvetica,sans-Serif" font-size="10.00" fill="#000000">amr&#45;wind/core/SimTime.H</text>
</a>
</g>
</g>
<!-- Node0&#45;&gt;Node4 -->
<g id="edge4" class="edge">
<title>Node0&#45;&gt;Node4</title>
<path fill="none" stroke="#191970" d="M1298.5489,-184.228C1346.445,-177.9333 1427.6089,-164.9967 1494.5,-143 1544.9002,-126.4262 1599.9691,-97.8077 1631.1688,-80.5176"/>
<polygon fill="#191970" stroke="#191970" points="1633.0392,-83.4817 1640.0536,-75.5413 1629.6185,-77.3744 1633.0392,-83.4817"/>
</g>
<!-- Node8 -->
<g id="node9" class="node">
<title>Node8</title>
<g id="a_node9"><a xlink:href="_field_repo_8_h.html" target="_top" xlink:title="amr&#45;wind/core/FieldRepo.H">
<polygon fill="#ffffff" stroke="#000000" points="474.5,-118 474.5,-137 610.5,-137 610.5,-118 474.5,-118"/>
<text text-anchor="middle" x="542.5" y="-125" font-family="Helvetica,sans-Serif" font-size="10.00" fill="#000000">amr&#45;wind/core/FieldRepo.H</text>
</a>
</g>
</g>
<!-- Node0&#45;&gt;Node8 -->
<g id="edge8" class="edge">
<title>Node0&#45;&gt;Node8</title>
<path fill="none" stroke="#191970" d="M1216.4904,-185.4726C1101.1151,-175.5487 772.2842,-147.2647 620.7336,-134.2292"/>
<polygon fill="#191970" stroke="#191970" points="620.8357,-130.7251 610.5726,-133.3552 620.2358,-137.6994 620.8357,-130.7251"/>
</g>
<!-- Node23 -->
<g id="node24" class="node">
<title>Node23</title>
<g id="a_node24"><a xlink:href="_field_fill_patch_ops_8_h.html" target="_top" xlink:title="amr&#45;wind/core/FieldFillPatch\lOps.H">
<polygon fill="#ffffff" stroke="#000000" points="1007.5,-112.5 1007.5,-142.5 1147.5,-142.5 1147.5,-112.5 1007.5,-112.5"/>
<text text-anchor="start" x="1015.5" y="-130.5" font-family="Helvetica,sans-Serif" font-size="10.00" fill="#000000">amr&#45;wind/core/FieldFillPatch</text>
<text text-anchor="middle" x="1077.5" y="-119.5" font-family="Helvetica,sans-Serif" font-size="10.00" fill="#000000">Ops.H</text>
</a>
</g>
</g>
<!-- Node0&#45;&gt;Node23 -->
<g id="edge36" class="edge">
<title>Node0&#45;&gt;Node23</title>
<path fill="none" stroke="#191970" d="M1229.375,-179.3906C1203.2097,-170.4508 1163.5209,-156.8905 1131.2773,-145.8739"/>
<polygon fill="#191970" stroke="#191970" points="1132.1275,-142.4658 1121.533,-142.5446 1129.8642,-149.0898 1132.1275,-142.4658"/>
</g>
<!-- Node26 -->
<g id="node27" class="node">
<title>Node26</title>
<g id="a_node27"><a xlink:href="_field_b_c_ops_8_h.html" target="_top" xlink:title="amr&#45;wind/core/FieldBCOps.H">
<polygon fill="#ffffff" stroke="#000000" points="1340,-118 1340,-137 1485,-137 1485,-118 1340,-118"/>
<text text-anchor="middle" x="1412.5" y="-125" font-family="Helvetica,sans-Serif" font-size="10.00" fill="#000000">amr&#45;wind/core/FieldBCOps.H</text>
</a>
</g>
</g>
<!-- Node0&#45;&gt;Node26 -->
<g id="edge46" class="edge">
<title>Node0&#45;&gt;Node26</title>
<path fill="none" stroke="#191970" d="M1281.7188,-179.3906C1307.8806,-169.0103 1349.7429,-152.4004 1379.0388,-140.7766"/>
<polygon fill="#191970" stroke="#191970" points="1380.4471,-143.9833 1388.4513,-137.0419 1377.8654,-137.4767 1380.4471,-143.9833"/>
</g>
<!-- Node3 -->
<g id="node4" class="node">
<title>Node3</title>
<polygon fill="#ffffff" stroke="#bfbfbf" points="1869,-56.5 1869,-75.5 1914,-75.5 1914,-56.5 1869,-56.5"/>
<text text-anchor="middle" x="1891.5" y="-63.5" font-family="Helvetica,sans-Serif" font-size="10.00" fill="#000000">iosfwd</text>
</g>
<!-- Node2&#45;&gt;Node3 -->
<g id="edge3" class="edge">
<title>Node2&#45;&gt;Node3</title>
<path fill="none" stroke="#191970" d="M1823.7472,-112.2977C1837.4967,-102.9022 1855.0921,-90.8787 1868.9057,-81.4395"/>
<polygon fill="#191970" stroke="#191970" points="1871.0768,-84.195 1877.3586,-75.6633 1867.1275,-78.4155 1871.0768,-84.195"/>
</g>
<!-- Node5 -->
<g id="node6" class="node">
<title>Node5</title>
<polygon fill="#ffffff" stroke="#bfbfbf" points="1288,-.5 1288,-19.5 1381,-19.5 1381,-.5 1288,-.5"/>
<text text-anchor="middle" x="1334.5" y="-7.5" font-family="Helvetica,sans-Serif" font-size="10.00" fill="#000000">AMReX_REAL.H</text>
</g>
<!-- Node4&#45;&gt;Node5 -->
<g id="edge5" class="edge">
<title>Node4&#45;&gt;Node5</title>
<path fill="none" stroke="#191970" d="M1601.5121,-56.4369C1542.8462,-46.2341 1450.3744,-30.1521 1391.0985,-19.8432"/>
<polygon fill="#191970" stroke="#191970" points="1391.6091,-16.3796 1381.1572,-18.1143 1390.4096,-23.276 1391.6091,-16.3796"/>
</g>
<!-- Node6 -->
<g id="node7" class="node">
<title>Node6</title>
<polygon fill="#ffffff" stroke="#bfbfbf" points="1525.5,-.5 1525.5,-19.5 1651.5,-19.5 1651.5,-.5 1525.5,-.5"/>
<text text-anchor="middle" x="1588.5" y="-7.5" font-family="Helvetica,sans-Serif" font-size="10.00" fill="#000000">AMReX_GpuQualifiers.H</text>
</g>
<!-- Node4&#45;&gt;Node6 -->
<g id="edge6" class="edge">
<title>Node4&#45;&gt;Node6</title>
<path fill="none" stroke="#191970" d="M1644.6553,-56.2455C1634.612,-47.9746 1620.0005,-35.9416 1608.1996,-26.2232"/>
<polygon fill="#191970" stroke="#191970" points="1610.1533,-23.298 1600.209,-19.6427 1605.7033,-28.7015 1610.1533,-23.298"/>
</g>
<!-- Node7 -->
<g id="node8" class="node">
<title>Node7</title>
<polygon fill="#ffffff" stroke="#bfbfbf" points="1669.5,-.5 1669.5,-19.5 1779.5,-19.5 1779.5,-.5 1669.5,-.5"/>
<text text-anchor="middle" x="1724.5" y="-7.5" font-family="Helvetica,sans-Serif" font-size="10.00" fill="#000000">AMReX_Extension.H</text>
</g>
<!-- Node4&#45;&gt;Node7 -->
<g id="edge7" class="edge">
<title>Node4&#45;&gt;Node7</title>
<path fill="none" stroke="#191970" d="M1668.3447,-56.2455C1678.388,-47.9746 1692.9995,-35.9416 1704.8004,-26.2232"/>
<polygon fill="#191970" stroke="#191970" points="1707.2967,-28.7015 1712.791,-19.6427 1702.8467,-23.298 1707.2967,-28.7015"/>
</g>
<!-- Node8&#45;&gt;Node1 -->
<g id="edge9" class="edge">
<title>Node8&#45;&gt;Node1</title>
<path fill="none" stroke="#191970" d="M474.2397,-123.2937C367.2949,-116.0155 170.1452,-99.5573 148.5,-76 137.2447,-63.7504 137.7794,-44.1973 140.3579,-29.5476"/>
<polygon fill="#191970" stroke="#191970" points="143.8373,-30.0211 142.5665,-19.5028 137.0006,-28.5178 143.8373,-30.0211"/>
</g>
<!-- Node9 -->
<g id="node10" class="node">
<title>Node9</title>
<polygon fill="#ffffff" stroke="#bfbfbf" points="184,-.5 184,-19.5 267,-19.5 267,-.5 184,-.5"/>
<text text-anchor="middle" x="225.5" y="-7.5" font-family="Helvetica,sans-Serif" font-size="10.00" fill="#000000">unordered_map</text>
</g>
<!-- Node8&#45;&gt;Node9 -->
<g id="edge10" class="edge">
<title>Node8&#45;&gt;Node9</title>
<path fill="none" stroke="#191970" d="M478.9331,-117.944C435.4058,-110.0316 377.0097,-96.6821 328.5,-76 312.0572,-68.9896 272.7059,-42.6634 247.6812,-25.4538"/>
<polygon fill="#191970" stroke="#191970" points="249.3954,-22.384 239.1788,-19.5785 245.416,-28.1429 249.3954,-22.384"/>
</g>
<!-- Node10 -->
<g id="node11" class="node">
<title>Node10</title>
<g id="a_node11"><a xlink:href="_field_desc_types_8_h.html" target="_top" xlink:title="amr&#45;wind/core/FieldDescTypes.H">
<polygon fill="#ffffff" stroke="#000000" points="742,-.5 742,-19.5 905,-19.5 905,-.5 742,-.5"/>
<text text-anchor="middle" x="823.5" y="-7.5" font-family="Helvetica,sans-Serif" font-size="10.00" fill="#000000">amr&#45;wind/core/FieldDescTypes.H</text>
</a>
</g>
</g>
<!-- Node8&#45;&gt;Node10 -->
<g id="edge11" class="edge">
<title>Node8&#45;&gt;Node10</title>
<path fill="none" stroke="#191970" d="M562.762,-117.8034C592.6424,-103.6246 650.4035,-76.6755 700.5,-56 729.2097,-44.1511 762.1953,-31.8865 786.7758,-23.0041"/>
<polygon fill="#191970" stroke="#191970" points="788.1978,-26.2122 796.4239,-19.5352 785.8294,-19.6251 788.1978,-26.2122"/>
</g>
<!-- Node11 -->
<g id="node12" class="node">
<title>Node11</title>
<g id="a_node12"><a xlink:href="_field_utils_8_h.html" target="_top" xlink:title="amr&#45;wind/core/FieldUtils.H">
<polygon fill="#ffffff" stroke="#000000" points="872,-56.5 872,-75.5 1005,-75.5 1005,-56.5 872,-56.5"/>
<text text-anchor="middle" x="938.5" y="-63.5" font-family="Helvetica,sans-Serif" font-size="10.00" fill="#000000">amr&#45;wind/core/FieldUtils.H</text>
</a>
</g>
</g>
<!-- Node8&#45;&gt;Node11 -->
<g id="edge12" class="edge">
<title>Node8&#45;&gt;Node11</title>
<path fill="none" stroke="#191970" d="M603.9405,-117.9581C675.0042,-106.9217 791.8262,-88.7789 866.9297,-77.1151"/>
<polygon fill="#191970" stroke="#191970" points="867.8968,-80.5069 877.2412,-75.5137 866.8225,-73.5899 867.8968,-80.5069"/>
</g>
<!-- Node12 -->
<g id="node13" class="node">
<title>Node12</title>
<polygon fill="#ffffff" stroke="#bfbfbf" points="619.5,-.5 619.5,-19.5 723.5,-19.5 723.5,-.5 619.5,-.5"/>
<text text-anchor="middle" x="671.5" y="-7.5" font-family="Helvetica,sans-Serif" font-size="10.00" fill="#000000">AMReX_MultiFab.H</text>
</g>
<!-- Node8&#45;&gt;Node12 -->
<g id="edge34" class="edge">
<title>Node8&#45;&gt;Node12</title>
<path fill="none" stroke="#191970" d="M562.2119,-117.9497C579.8213,-108.7951 605.6705,-93.7674 624.5,-76 639.2967,-62.0379 652.3753,-42.7869 660.9546,-28.6789"/>
<polygon fill="#191970" stroke="#191970" points="664.0877,-30.2557 666.1411,-19.8617 658.0541,-26.7065 664.0877,-30.2557"/>
</g>
<!-- Node14 -->
<g id="node15" class="node">
<title>Node14</title>
<g id="a_node15"><a xlink:href="_field_8_h.html" target="_top" xlink:title="amr&#45;wind/core/Field.H">
<polygon fill="#ffffff" stroke="#000000" points="338,-56.5 338,-75.5 451,-75.5 451,-56.5 338,-56.5"/>
<text text-anchor="middle" x="394.5" y="-63.5" font-family="Helvetica,sans-Serif" font-size="10.00" fill="#000000">amr&#45;wind/core/Field.H</text>
</a>
</g>
</g>
<!-- Node8&#45;&gt;Node14 -->
<g id="edge16" class="edge">
<title>Node8&#45;&gt;Node14</title>
<path fill="none" stroke="#191970" d="M519.375,-117.8906C494.5033,-107.5554 454.7702,-91.0447 426.8156,-79.4284"/>
<polygon fill="#191970" stroke="#191970" points="428.0402,-76.1472 417.4626,-75.5419 425.354,-82.6113 428.0402,-76.1472"/>
</g>
<!-- Node19 -->
<g id="node20" class="node">
<title>Node19</title>
<g id="a_node20"><a xlink:href="_int_field_8_h.html" target="_top" xlink:title="amr&#45;wind/core/IntField.H">
<polygon fill="#ffffff" stroke="#000000" points="157.5,-56.5 157.5,-75.5 281.5,-75.5 281.5,-56.5 157.5,-56.5"/>
<text text-anchor="middle" x="219.5" y="-63.5" font-family="Helvetica,sans-Serif" font-size="10.00" fill="#000000">amr&#45;wind/core/IntField.H</text>
</a>
</g>
</g>
<!-- Node8&#45;&gt;Node19 -->
<g id="edge25" class="edge">
<title>Node8&#45;&gt;Node19</title>
<path fill="none" stroke="#191970" d="M492.3856,-117.9581C434.8962,-107.012 340.6918,-89.0752 279.3868,-77.4026"/>
<polygon fill="#191970" stroke="#191970" points="279.9444,-73.946 269.4662,-75.5137 278.635,-80.8224 279.9444,-73.946"/>
</g>
<!-- Node20 -->
<g id="node21" class="node">
<title>Node20</title>
<polygon fill="#ffffff" stroke="#bfbfbf" points="0,-.5 0,-19.5 107,-19.5 107,-.5 0,-.5"/>
<text text-anchor="middle" x="53.5" y="-7.5" font-family="Helvetica,sans-Serif" font-size="10.00" fill="#000000">AMReX_iMultiFab.H</text>
</g>
<!-- Node8&#45;&gt;Node20 -->
<g id="edge35" class="edge">
<title>Node8&#45;&gt;Node20</title>
<path fill="none" stroke="#191970" d="M474.4555,-123.3181C375.1605,-116.4662 195.9143,-101.0489 136.5,-76 109.9193,-64.7937 84.7833,-42.5805 69.2811,-27.0322"/>
<polygon fill="#191970" stroke="#191970" points="71.5638,-24.3578 62.096,-19.6026 66.5319,-29.2241 71.5638,-24.3578"/>
</g>
<!-- Node21 -->
<g id="node22" class="node">
<title>Node21</title>
<g id="a_node22"><a xlink:href="_scratch_field_8_h.html" target="_top" xlink:title="amr&#45;wind/core/ScratchField.H">
<polygon fill="#ffffff" stroke="#000000" points="469.5,-56.5 469.5,-75.5 615.5,-75.5 615.5,-56.5 469.5,-56.5"/>
<text text-anchor="middle" x="542.5" y="-63.5" font-family="Helvetica,sans-Serif" font-size="10.00" fill="#000000">amr&#45;wind/core/ScratchField.H</text>
</a>
</g>
</g>
<!-- Node8&#45;&gt;Node21 -->
<g id="edge29" class="edge">
<title>Node8&#45;&gt;Node21</title>
<path fill="none" stroke="#191970" d="M542.5,-117.8906C542.5,-109.3657 542.5,-96.6392 542.5,-85.9235"/>
<polygon fill="#191970" stroke="#191970" points="546.0001,-85.7448 542.5,-75.7449 539.0001,-85.7449 546.0001,-85.7448"/>
</g>
<!-- Node22 -->
<g id="node23" class="node">
<title>Node22</title>
<polygon fill="#ffffff" stroke="#bfbfbf" points="709.5,-56.5 709.5,-75.5 815.5,-75.5 815.5,-56.5 709.5,-56.5"/>
<text text-anchor="middle" x="762.5" y="-63.5" font-family="Helvetica,sans-Serif" font-size="10.00" fill="#000000">AMReX_AmrCore.H</text>
</g>
<!-- Node8&#45;&gt;Node22 -->
<g id="edge33" class="edge">
<title>Node8&#45;&gt;Node22</title>
<path fill="none" stroke="#191970" d="M576.875,-117.8906C615.0573,-107.2169 676.8016,-89.9566 718.4884,-78.3033"/>
<polygon fill="#191970" stroke="#191970" points="719.6779,-81.605 728.3664,-75.5419 717.7933,-74.8634 719.6779,-81.605"/>
</g>
<!-- Node11&#45;&gt;Node10 -->
<g id="edge13" class="edge">
<title>Node11&#45;&gt;Node10</title>
<path fill="none" stroke="#191970" d="M918.7308,-56.3733C900.3531,-47.4241 872.7688,-33.9917 852.0107,-23.8835"/>
<polygon fill="#191970" stroke="#191970" points="853.5343,-20.7325 843.0112,-19.5011 850.4696,-27.026 853.5343,-20.7325"/>
</g>
<!-- Node11&#45;&gt;Node12 -->
<g id="edge14" class="edge">
<title>Node11&#45;&gt;Node12</title>
<path fill="none" stroke="#191970" d="M892.9044,-56.4369C846.9215,-46.7925 775.8912,-31.8948 726.7394,-21.5858"/>
<polygon fill="#191970" stroke="#191970" points="727.413,-18.151 716.9075,-19.5237 725.9761,-25.0019 727.413,-18.151"/>
</g>
<!-- Node13 -->
<g id="node14" class="node">
<title>Node13</title>
<polygon fill="#ffffff" stroke="#bfbfbf" points="1026.5,-.5 1026.5,-19.5 1142.5,-19.5 1142.5,-.5 1026.5,-.5"/>
<text text-anchor="middle" x="1084.5" y="-7.5" font-family="Helvetica,sans-Serif" font-size="10.00" fill="#000000">AMReX_Interpolater.H</text>
</g>
<!-- Node11&#45;&gt;Node13 -->
<g id="edge15" class="edge">
<title>Node11&#45;&gt;Node13</title>
<path fill="none" stroke="#191970" d="M963.5983,-56.3733C987.4555,-47.2226 1023.5335,-33.3844 1050.071,-23.2057"/>
<polygon fill="#191970" stroke="#191970" points="1051.6459,-26.3503 1059.7292,-19.5011 1049.139,-19.8145 1051.6459,-26.3503"/>
</g>
<!-- Node14&#45;&gt;Node1 -->
<g id="edge17" class="edge">
<title>Node14&#45;&gt;Node1</title>
<path fill="none" stroke="#191970" d="M339.342,-56.4609C296.8394,-48.6585 236.4919,-36.6033 176.0152,-20.1976"/>
<polygon fill="#191970" stroke="#191970" points="176.8809,-16.8058 166.3107,-17.5273 175.0237,-23.555 176.8809,-16.8058"/>
</g>
<!-- Node14&#45;&gt;Node9 -->
<g id="edge19" class="edge">
<title>Node14&#45;&gt;Node9</title>
<path fill="none" stroke="#191970" d="M365.4479,-56.3733C337.3457,-47.0613 294.5946,-32.8953 263.7393,-22.671"/>
<polygon fill="#191970" stroke="#191970" points="264.7664,-19.3243 254.173,-19.5011 262.5645,-25.969 264.7664,-19.3243"/>
</g>
<!-- Node14&#45;&gt;Node10 -->
<g id="edge24" class="edge">
<title>Node14&#45;&gt;Node10</title>
<path fill="none" stroke="#191970" d="M451.0125,-57.3451C454.2211,-56.8825 457.4008,-56.4311 460.5,-56 553.4933,-43.0649 660.1042,-29.733 733.6124,-20.7739"/>
<polygon fill="#191970" stroke="#191970" points="734.2561,-24.2215 743.7601,-19.5393 733.4106,-17.2728 734.2561,-24.2215"/>
</g>
<!-- Node14&#45;&gt;Node12 -->
<g id="edge20" class="edge">
<title>Node14&#45;&gt;Node12</title>
<path fill="none" stroke="#191970" d="M441.8033,-56.4369C489.608,-46.7724 563.5068,-31.8326 614.5108,-21.5213"/>
<polygon fill="#191970" stroke="#191970" points="615.2837,-24.9359 624.3918,-19.5237 613.8966,-18.0747 615.2837,-24.9359"/>
</g>
<!-- Node15 -->
<g id="node16" class="node">
<title>Node15</title>
<polygon fill="#ffffff" stroke="#bfbfbf" points="285.5,-.5 285.5,-19.5 337.5,-19.5 337.5,-.5 285.5,-.5"/>
<text text-anchor="middle" x="311.5" y="-7.5" font-family="Helvetica,sans-Serif" font-size="10.00" fill="#000000">memory</text>
</g>
<!-- Node14&#45;&gt;Node15 -->
<g id="edge18" class="edge">
<title>Node14&#45;&gt;Node15</title>
<path fill="none" stroke="#191970" d="M380.0425,-56.2455C367.4268,-47.7337 348.9056,-35.2375 334.2955,-25.3801"/>
<polygon fill="#191970" stroke="#191970" points="336.0391,-22.3343 325.7918,-19.6427 332.1239,-28.1371 336.0391,-22.3343"/>
</g>
<!-- Node16 -->
<g id="node17" class="node">
<title>Node16</title>
<polygon fill="#ffffff" stroke="#bfbfbf" points="356,-.5 356,-19.5 455,-19.5 455,-.5 356,-.5"/>
<text text-anchor="middle" x="405.5" y="-7.5" font-family="Helvetica,sans-Serif" font-size="10.00" fill="#000000">AMReX_BCRec.H</text>
</g>
<!-- Node14&#45;&gt;Node16 -->
<g id="edge21" class="edge">
<title>Node14&#45;&gt;Node16</title>
<path fill="none" stroke="#191970" d="M396.4161,-56.2455C397.8514,-48.9382 399.8636,-38.6944 401.6295,-29.7046"/>
<polygon fill="#191970" stroke="#191970" points="405.1127,-30.1298 403.6059,-19.6427 398.244,-28.7805 405.1127,-30.1298"/>
</g>
<!-- Node17 -->
<g id="node18" class="node">
<title>Node17</title>
<polygon fill="#ffffff" stroke="#bfbfbf" points="923,-.5 923,-19.5 1008,-19.5 1008,-.5 923,-.5"/>
<text text-anchor="middle" x="965.5" y="-7.5" font-family="Helvetica,sans-Serif" font-size="10.00" fill="#000000">AMReX_Gpu.H</text>
</g>
<!-- Node14&#45;&gt;Node17 -->
<g id="edge22" class="edge">
<title>Node14&#45;&gt;Node17</title>
<path fill="none" stroke="#191970" d="M451.3474,-57.1246C454.4406,-56.7235 457.5067,-56.3453 460.5,-56 657.9049,-33.2303 711.6385,-46.6624 912.9835,-19.9177"/>
<polygon fill="#191970" stroke="#191970" points="913.5517,-23.3729 922.9959,-18.5711 912.6186,-16.4354 913.5517,-23.3729"/>
</g>
<!-- Node18 -->
<g id="node19" class="node">
<title>Node18</title>
<g id="a_node19"><a xlink:href="incflo__enums_8_h.html" target="_top" xlink:title="amr&#45;wind/incflo_enums.H">
<polygon fill="#ffffff" stroke="#000000" points="473.5,-.5 473.5,-19.5 601.5,-19.5 601.5,-.5 473.5,-.5"/>
<text text-anchor="middle" x="537.5" y="-7.5" font-family="Helvetica,sans-Serif" font-size="10.00" fill="#000000">amr&#45;wind/incflo_enums.H</text>
</a>
</g>
</g>
<!-- Node14&#45;&gt;Node18 -->
<g id="edge23" class="edge">
<title>Node14&#45;&gt;Node18</title>
<path fill="none" stroke="#191970" d="M419.0826,-56.3733C442.4496,-47.2226 477.7862,-33.3844 503.7784,-23.2057"/>
<polygon fill="#191970" stroke="#191970" points="505.203,-26.4066 513.2382,-19.5011 502.6505,-19.8886 505.203,-26.4066"/>
</g>
<!-- Node19&#45;&gt;Node1 -->
<g id="edge26" class="edge">
<title>Node19&#45;&gt;Node1</title>
<path fill="none" stroke="#191970" d="M206.6102,-56.2455C195.5746,-47.8943 179.4708,-35.7076 166.5647,-25.9408"/>
<polygon fill="#191970" stroke="#191970" points="168.3283,-22.8862 158.2421,-19.6427 164.1041,-28.4681 168.3283,-22.8862"/>
</g>
<!-- Node19&#45;&gt;Node10 -->
<g id="edge27" class="edge">
<title>Node19&#45;&gt;Node10</title>
<path fill="none" stroke="#191970" d="M281.7502,-60.2607C297.037,-58.8591 313.3593,-57.3691 328.5,-56 504.791,-40.0587 551.4457,-37.9205 731.5761,-20.0754"/>
<polygon fill="#191970" stroke="#191970" points="732.0507,-23.5455 741.6558,-19.0742 731.3588,-16.5798 732.0507,-23.5455"/>
</g>
<!-- Node19&#45;&gt;Node20 -->
<g id="edge28" class="edge">
<title>Node19&#45;&gt;Node20</title>
<path fill="none" stroke="#191970" d="M190.9636,-56.3733C163.4798,-47.1016 121.7314,-33.0178 91.4548,-22.804"/>
<polygon fill="#191970" stroke="#191970" points="92.2582,-19.3813 81.664,-19.5011 90.0206,-26.0141 92.2582,-19.3813"/>
</g>
<!-- Node21&#45;&gt;Node1 -->
<g id="edge30" class="edge">
<title>Node21&#45;&gt;Node1</title>
<path fill="none" stroke="#191970" d="M469.3841,-57.0533C375.0174,-45.482 218.5792,-26.2083 176.1313,-19.5189"/>
<polygon fill="#191970" stroke="#191970" points="176.7204,-16.0688 166.2576,-17.7363 175.4766,-22.9574 176.7204,-16.0688"/>
</g>
<!-- Node21&#45;&gt;Node10 -->
<g id="edge31" class="edge">
<title>Node21&#45;&gt;Node10</title>
<path fill="none" stroke="#191970" d="M590.4863,-56.4369C638.9814,-46.7724 713.9473,-31.8326 765.6879,-21.5213"/>
<polygon fill="#191970" stroke="#191970" points="766.5885,-24.9107 775.7116,-19.5237 765.2203,-18.0457 766.5885,-24.9107"/>
</g>
<!-- Node21&#45;&gt;Node12 -->
<g id="edge32" class="edge">
<title>Node21&#45;&gt;Node12</title>
<path fill="none" stroke="#191970" d="M564.6759,-56.3733C585.4766,-47.3435 616.7917,-33.7494 640.1458,-23.6111"/>
<polygon fill="#191970" stroke="#191970" points="641.8343,-26.6938 649.6135,-19.5011 639.0468,-20.2727 641.8343,-26.6938"/>
</g>
<!-- Node23&#45;&gt;Node4 -->
<g id="edge38" class="edge">
<title>Node23&#45;&gt;Node4</title>
<path fill="none" stroke="#191970" d="M1147.8381,-121.0591C1243.4819,-112.1375 1420.1632,-95.0779 1580.6861,-76.188"/>
<polygon fill="#191970" stroke="#191970" points="1581.2265,-79.6485 1590.7467,-74.9991 1580.405,-72.6969 1581.2265,-79.6485"/>
</g>
<!-- Node23&#45;&gt;Node5 -->
<g id="edge43" class="edge">
<title>Node23&#45;&gt;Node5</title>
<path fill="none" stroke="#191970" d="M1111.8568,-112.4511C1134.3741,-102.4389 1164.3694,-88.8182 1190.5,-76 1207.6347,-67.5947 1211.2896,-64.2491 1228.5,-56 1252.7063,-44.3977 1280.5675,-32.3568 1301.6496,-23.5056"/>
<polygon fill="#191970" stroke="#191970" points="1303.2345,-26.6368 1311.1145,-19.5547 1300.5379,-20.177 1303.2345,-26.6368"/>
</g>
<!-- Node23&#45;&gt;Node10 -->
<g id="edge39" class="edge">
<title>Node23&#45;&gt;Node10</title>
<path fill="none" stroke="#191970" d="M1068.1311,-112.4665C1057.0971,-96.0462 1037.2326,-70.1974 1013.5,-56 983.9378,-38.3152 947.9495,-27.4226 915.278,-20.7164"/>
<polygon fill="#191970" stroke="#191970" points="915.7403,-17.2408 905.2559,-18.7667 914.4035,-24.112 915.7403,-17.2408"/>
</g>
<!-- Node23&#45;&gt;Node11 -->
<g id="edge40" class="edge">
<title>Node23&#45;&gt;Node11</title>
<path fill="none" stroke="#191970" d="M1043.4968,-112.4554C1020.8129,-102.419 991.2327,-89.3314 969.2521,-79.6061"/>
<polygon fill="#191970" stroke="#191970" points="970.6011,-76.3758 960.0401,-75.5303 967.7688,-82.7772 970.6011,-76.3758"/>
</g>
<!-- Node23&#45;&gt;Node12 -->
<g id="edge42" class="edge">
<title>Node23&#45;&gt;Node12</title>
<path fill="none" stroke="#191970" d="M1007.4395,-115.3172C964.7574,-106.7735 909.5613,-93.7028 862.5,-76 844.6368,-69.2805 842.1647,-63.2254 824.5,-56 790.5943,-42.1315 750.9511,-30.3295 720.5145,-22.1529"/>
<polygon fill="#191970" stroke="#191970" points="721.1297,-18.6953 710.5671,-19.5212 719.3393,-25.4625 721.1297,-18.6953"/>
</g>
<!-- Node23&#45;&gt;Node14 -->
<g id="edge37" class="edge">
<title>Node23&#45;&gt;Node14</title>
<path fill="none" stroke="#191970" d="M1007.4869,-123.1919C894.7487,-115.9157 665.7992,-99.7419 461.3725,-76.032"/>
<polygon fill="#191970" stroke="#191970" points="461.6877,-72.5451 451.3491,-74.861 460.8754,-79.4978 461.6877,-72.5451"/>
</g>
<!-- Node23&#45;&gt;Node22 -->
<g id="edge41" class="edge">
<title>Node23&#45;&gt;Node22</title>
<path fill="none" stroke="#191970" d="M1007.1999,-113.7747C951.3268,-102.8662 874.0744,-87.7836 821.4142,-77.5023"/>
<polygon fill="#191970" stroke="#191970" points="822.0366,-74.0578 811.5512,-75.5767 820.6952,-80.9281 822.0366,-74.0578"/>
</g>
<!-- Node24 -->
<g id="node25" class="node">
<title>Node24</title>
<polygon fill="#ffffff" stroke="#bfbfbf" points="1237.5,-56.5 1237.5,-75.5 1365.5,-75.5 1365.5,-56.5 1237.5,-56.5"/>
<text text-anchor="middle" x="1301.5" y="-63.5" font-family="Helvetica,sans-Serif" font-size="10.00" fill="#000000">AMReX_PhysBCFunct.H</text>
</g>
<!-- Node23&#45;&gt;Node24 -->
<g id="edge44" class="edge">
<title>Node23&#45;&gt;Node24</title>
<path fill="none" stroke="#191970" d="M1132.2966,-112.4554C1170.6551,-101.9239 1221.2505,-88.0328 1257.0924,-78.1923"/>
<polygon fill="#191970" stroke="#191970" points="1258.0715,-81.5531 1266.788,-75.5303 1256.2181,-74.8028 1258.0715,-81.5531"/>
</g>
<!-- Node25 -->
<g id="node26" class="node">
<title>Node25</title>
<polygon fill="#ffffff" stroke="#bfbfbf" points="1061.5,-56.5 1061.5,-75.5 1181.5,-75.5 1181.5,-56.5 1061.5,-56.5"/>
<text text-anchor="middle" x="1121.5" y="-63.5" font-family="Helvetica,sans-Serif" font-size="10.00" fill="#000000">AMReX_FillPatchUtil.H</text>
</g>
<!-- Node23&#45;&gt;Node25 -->
<g id="edge45" class="edge">
<title>Node23&#45;&gt;Node25</title>
<path fill="none" stroke="#191970" d="M1088.3764,-112.2977C1094.4841,-103.7609 1102.1439,-93.0545 1108.5588,-84.0883"/>
<polygon fill="#191970" stroke="#191970" points="1111.4829,-86.0163 1114.455,-75.8469 1105.7899,-81.9433 1111.4829,-86.0163"/>
</g>
<!-- Node26&#45;&gt;Node10 -->
<g id="edge47" class="edge">
<title>Node26&#45;&gt;Node10</title>
<path fill="none" stroke="#191970" d="M1410.4982,-117.8575C1406.6285,-101.9184 1396.4868,-70.4086 1374.5,-56 1291.0724,-1.3275 1031.6212,-27.9915 915.5168,-20.0339"/>
<polygon fill="#191970" stroke="#191970" points="915.6546,-16.5337 905.4048,-19.2156 915.0899,-23.5109 915.6546,-16.5337"/>
</g>
<!-- Node26&#45;&gt;Node17 -->
<g id="edge48" class="edge">
<title>Node26&#45;&gt;Node17</title>
<path fill="none" stroke="#191970" d="M1415.335,-117.5985C1419.0881,-102.1445 1423.509,-72.3689 1407.5,-56 1378.6175,-26.4682 1091.9911,-26.0751 1017.9894,-19.62"/>
<polygon fill="#191970" stroke="#191970" points="1018.332,-16.1367 1008.0102,-18.5266 1017.5695,-23.095 1018.332,-16.1367"/>
</g>
<!-- Node26&#45;&gt;Node24 -->
<g id="edge51" class="edge">
<title>Node26&#45;&gt;Node24</title>
<path fill="none" stroke="#191970" d="M1395.1563,-117.8906C1377.0727,-107.8713 1348.5141,-92.0483 1327.6835,-80.5071"/>
<polygon fill="#191970" stroke="#191970" points="1329.1654,-77.3268 1318.722,-75.5419 1325.7729,-83.4498 1329.1654,-77.3268"/>
</g>
<!-- Node27 -->
<g id="node28" class="node">
<title>Node27</title>
<polygon fill="#ffffff" stroke="#bfbfbf" points="1460,-56.5 1460,-75.5 1573,-75.5 1573,-56.5 1460,-56.5"/>
<text text-anchor="middle" x="1516.5" y="-63.5" font-family="Helvetica,sans-Serif" font-size="10.00" fill="#000000">AMReX_FArrayBox.H</text>
</g>
<!-- Node26&#45;&gt;Node27 -->
<g id="edge49" class="edge">
<title>Node26&#45;&gt;Node27</title>
<path fill="none" stroke="#191970" d="M1428.75,-117.8906C1445.6169,-107.9165 1472.2099,-92.1908 1491.7035,-80.6633"/>
<polygon fill="#191970" stroke="#191970" points="1493.538,-83.6447 1500.3641,-75.5419 1489.9749,-77.6194 1493.538,-83.6447"/>
</g>
<!-- Node28 -->
<g id="node29" class="node">
<title>Node28</title>
<polygon fill="#ffffff" stroke="#bfbfbf" points="1740.5,-56.5 1740.5,-75.5 1850.5,-75.5 1850.5,-56.5 1740.5,-56.5"/>
<text text-anchor="middle" x="1795.5" y="-63.5" font-family="Helvetica,sans-Serif" font-size="10.00" fill="#000000">AMReX_Geometry.H</text>
</g>
<!-- Node26&#45;&gt;Node28 -->
<g id="edge50" class="edge">
<title>Node26&#45;&gt;Node28</title>
<path fill="none" stroke="#191970" d="M1471.9235,-117.9581C1541.9587,-106.7122 1657.9457,-88.0877 1730.3707,-76.4581"/>
<polygon fill="#191970" stroke="#191970" points="1730.9731,-79.9063 1740.2917,-74.865 1729.8633,-72.9948 1730.9731,-79.9063"/>
</g>
</g>
</svg>
