<?xml version="1.0" encoding="UTF-8" standalone="no"?>
<!DOCTYPE svg PUBLIC "-//W3C//DTD SVG 1.1//EN"
 "http://www.w3.org/Graphics/SVG/1.1/DTD/svg11.dtd">
<!-- Generated by graphviz version 2.40.1 (20161225.0304)
 -->
<!-- Title: PlaneAveraging.H Pages: 1 -->
<svg width="426pt" height="84pt"
 viewBox="0.00 0.00 426.00 84.00" xmlns="http://www.w3.org/2000/svg" xmlns:xlink="http://www.w3.org/1999/xlink">
<g id="graph0" class="graph" transform="scale(1 1) rotate(0) translate(4 80)">
<title>PlaneAveraging.H</title>
<polygon fill="#ffffff" stroke="transparent" points="-4,4 -4,-80 422,-80 422,4 -4,4"/>
<!-- Node3 -->
<g id="node1" class="node">
<title>Node3</title>
<polygon fill="#bfbfbf" stroke="#000000" points="181.5,-56.5 181.5,-75.5 276.5,-75.5 276.5,-56.5 181.5,-56.5"/>
<text text-anchor="middle" x="229" y="-63.5" font-family="Helvetica,sans-Serif" font-size="10.00" fill="#000000">PlaneAveraging.H</text>
</g>
<!-- Node4 -->
<g id="node2" class="node">
<title>Node4</title>
<g id="a_node2"><a xlink:href="_a_b_l_forcing_8cpp.html" target="_top" xlink:title="ABLForcing.cpp">
<polygon fill="#ffffff" stroke="#000000" points="0,-.5 0,-19.5 86,-19.5 86,-.5 0,-.5"/>
<text text-anchor="middle" x="43" y="-7.5" font-family="Helvetica,sans-Serif" font-size="10.00" fill="#000000">ABLForcing.cpp</text>
</a>
</g>
</g>
<!-- Node3&#45;&gt;Node4 -->
<g id="edge1" class="edge">
<title>Node3&#45;&gt;Node4</title>
<path fill="none" stroke="#191970" d="M187.3363,-53.4561C153.1933,-43.1765 105.6069,-28.8494 74.5573,-19.5011"/>
<polygon fill="#191970" stroke="#191970" points="186.441,-56.8417 197.0255,-56.3733 188.4591,-50.1389 186.441,-56.8417"/>
</g>
<!-- Node5 -->
<g id="node3" class="node">
<title>Node5</title>
<g id="a_node3"><a xlink:href="_geostrophic_forcing_8cpp.html" target="_top" xlink:title="GeostrophicForcing.cpp">
<polygon fill="#ffffff" stroke="#000000" points="104,-.5 104,-19.5 224,-19.5 224,-.5 104,-.5"/>
<text text-anchor="middle" x="164" y="-7.5" font-family="Helvetica,sans-Serif" font-size="10.00" fill="#000000">GeostrophicForcing.cpp</text>
</a>
</g>
</g>
<!-- Node3&#45;&gt;Node5 -->
<g id="edge2" class="edge">
<title>Node3&#45;&gt;Node5</title>
<path fill="none" stroke="#191970" d="M210.0165,-49.645C198.7121,-39.9058 184.753,-27.8795 175.1924,-19.6427"/>
<polygon fill="#191970" stroke="#191970" points="207.8173,-52.3701 217.6779,-56.2455 212.3862,-47.0668 207.8173,-52.3701"/>
</g>
<!-- Node6 -->
<g id="node4" class="node">
<title>Node6</title>
<g id="a_node4"><a xlink:href="_plane_averaging_8cpp.html" target="_top" xlink:title="PlaneAveraging.cpp">
<polygon fill="#ffffff" stroke="#000000" points="242,-.5 242,-19.5 346,-19.5 346,-.5 242,-.5"/>
<text text-anchor="middle" x="294" y="-7.5" font-family="Helvetica,sans-Serif" font-size="10.00" fill="#000000">PlaneAveraging.cpp</text>
</a>
</g>
</g>
<!-- Node3&#45;&gt;Node6 -->
<g id="edge3" class="edge">
<title>Node3&#45;&gt;Node6</title>
<path fill="none" stroke="#191970" d="M247.9835,-49.645C259.2879,-39.9058 273.247,-27.8795 282.8076,-19.6427"/>
<polygon fill="#191970" stroke="#191970" points="245.6138,-47.0668 240.3221,-56.2455 250.1827,-52.3701 245.6138,-47.0668"/>
</g>
<!-- Node7 -->
<g id="node5" class="node">
<title>Node7</title>
<g id="a_node5"><a xlink:href="_a_b_l_8cpp.html" target="_top" xlink:title="ABL.cpp">
<polygon fill="#ffffff" stroke="#000000" points="364,-.5 364,-19.5 418,-19.5 418,-.5 364,-.5"/>
<text text-anchor="middle" x="391" y="-7.5" font-family="Helvetica,sans-Serif" font-size="10.00" fill="#000000">ABL.cpp</text>
</a>
</g>
</g>
<!-- Node3&#45;&gt;Node7 -->
<g id="edge4" class="edge">
<title>Node3&#45;&gt;Node7</title>
<path fill="none" stroke="#191970" d="M266.4727,-53.0465C296.218,-42.7641 337.1036,-28.6308 363.7842,-19.4079"/>
<polygon fill="#191970" stroke="#191970" points="265.1565,-49.7982 256.8488,-56.3733 267.4436,-56.414 265.1565,-49.7982"/>
</g>
</g>
</svg>
