<?xml version="1.0" encoding="UTF-8" standalone="no"?>
<!DOCTYPE svg PUBLIC "-//W3C//DTD SVG 1.1//EN"
 "http://www.w3.org/Graphics/SVG/1.1/DTD/svg11.dtd">
<!-- Generated by graphviz version 2.40.1 (20161225.0304)
 -->
<!-- Title: PlaneAveraging.cpp Pages: 1 -->
<!--zoomable 352 -->
<svg id="main" version="1.1" xmlns="http://www.w3.org/2000/svg" xmlns:xlink="http://www.w3.org/1999/xlink" xml:space="preserve" onload="init(evt)">
<style type="text/css"><![CDATA[
.edge:hover path { stroke: red; }
.edge:hover polygon { stroke: red; fill: red; }
]]></style>
<script type="text/javascript"><![CDATA[
var edges = document.getElementsByTagName('g');
if (edges && edges.length) {
  for (var i=0;i<edges.length;i++) {
    if (edges[i].id.substr(0,4)=='edge') {
      edges[i].setAttribute('class','edge');
    }
  }
}
]]></script>
        <defs>
                <circle id="rim" cx="0" cy="0" r="7"/>
                <circle id="rim2" cx="0" cy="0" r="3.5"/>
                <g id="zoomPlus">
                        <use xlink:href="#rim" fill="#404040">
                                <set attributeName="fill" to="#808080" begin="zoomplus.mouseover" end="zoomplus.mouseout"/>
                        </use>
                        <path d="M-4,0h8M0,-4v8" fill="none" stroke="white" stroke-width="1.5" pointer-events="none"/>
                </g>
                <g id="zoomMin">
                        <use xlink:href="#rim" fill="#404040">
                                <set attributeName="fill" to="#808080" begin="zoomminus.mouseover" end="zoomminus.mouseout"/>
                        </use>
                        <path d="M-4,0h8" fill="none" stroke="white" stroke-width="1.5" pointer-events="none"/>
                </g>
                <g id="dirArrow">
                        <path fill="none" stroke="white" stroke-width="1.5" d="M0,-3.0v7 M-2.5,-0.5L0,-3.0L2.5,-0.5"/>
                </g>
               <g id="resetDef">
                       <use xlink:href="#rim2" fill="#404040">
                               <set attributeName="fill" to="#808080" begin="reset.mouseover" end="reset.mouseout"/>
                       </use>
               </g>
        </defs>

<script type="text/javascript">
var viewWidth = 2217;
var viewHeight = 352;
var sectionId = 'dynsection-0';
</script>
<script xlink:href="svgpan.js"/>
<svg id="graph" class="graph">
<g id="viewport">
<title>PlaneAveraging.cpp</title>
<polygon fill="#ffffff" stroke="transparent" points="-4,4 -4,-348 2212.5,-348 2212.5,4 -4,4"/>
<!-- Node0 -->
<g id="node1" class="node">
<title>Node0</title>
<polygon fill="#bfbfbf" stroke="#000000" points="1052,-324.5 1052,-343.5 1156,-343.5 1156,-324.5 1052,-324.5"/>
<text text-anchor="middle" x="1104" y="-331.5" font-family="Helvetica,sans-Serif" font-size="10.00" fill="#000000">PlaneAveraging.cpp</text>
</g>
<!-- Node1 -->
<g id="node2" class="node">
<title>Node1</title>
<polygon fill="#ffffff" stroke="#bfbfbf" points="981,-263 981,-282 1037,-282 1037,-263 981,-263"/>
<text text-anchor="middle" x="1009" y="-270" font-family="Helvetica,sans-Serif" font-size="10.00" fill="#000000">algorithm</text>
</g>
<!-- Node0&#45;&gt;Node1 -->
<g id="edge1" class="edge">
<title>Node0&#45;&gt;Node1</title>
<path fill="none" stroke="#191970" d="M1089.1563,-324.3906C1073.9582,-314.5519 1050.1152,-299.1167 1032.3794,-287.6351"/>
<polygon fill="#191970" stroke="#191970" points="1034.0361,-284.5382 1023.7395,-282.0419 1030.232,-290.4144 1034.0361,-284.5382"/>
</g>
<!-- Node2 -->
<g id="node3" class="node">
<title>Node2</title>
<g id="a_node3"><a xlink:href="_plane_averaging_8_h.html" target="_top" xlink:title="amr&#45;wind/utilities\l/PlaneAveraging.H">
<polygon fill="#ffffff" stroke="#000000" points="1055,-257.5 1055,-287.5 1153,-287.5 1153,-257.5 1055,-257.5"/>
<text text-anchor="start" x="1063" y="-275.5" font-family="Helvetica,sans-Serif" font-size="10.00" fill="#000000">amr&#45;wind/utilities</text>
<text text-anchor="middle" x="1104" y="-264.5" font-family="Helvetica,sans-Serif" font-size="10.00" fill="#000000">/PlaneAveraging.H</text>
</a>
</g>
</g>
<!-- Node0&#45;&gt;Node2 -->
<g id="edge2" class="edge">
<title>Node0&#45;&gt;Node2</title>
<path fill="none" stroke="#191970" d="M1104,-324.3906C1104,-317.2234 1104,-307.0862 1104,-297.671"/>
<polygon fill="#191970" stroke="#191970" points="1107.5001,-297.5446 1104,-287.5446 1100.5001,-297.5446 1107.5001,-297.5446"/>
</g>
<!-- Node5 -->
<g id="node6" class="node">
<title>Node5</title>
<g id="a_node6"><a xlink:href="incflo_8_h.html" target="_top" xlink:title="amr&#45;wind/incflo.H">
<polygon fill="#ffffff" stroke="#000000" points="1171.5,-263 1171.5,-282 1264.5,-282 1264.5,-263 1171.5,-263"/>
<text text-anchor="middle" x="1218" y="-270" font-family="Helvetica,sans-Serif" font-size="10.00" fill="#000000">amr&#45;wind/incflo.H</text>
</a>
</g>
</g>
<!-- Node0&#45;&gt;Node5 -->
<g id="edge5" class="edge">
<title>Node0&#45;&gt;Node5</title>
<path fill="none" stroke="#191970" d="M1121.8125,-324.3906C1140.4685,-314.3262 1169.9797,-298.4057 1191.3974,-286.8514"/>
<polygon fill="#191970" stroke="#191970" points="1193.1734,-289.8702 1200.3126,-282.0419 1189.8498,-283.7095 1193.1734,-289.8702"/>
</g>
<!-- Node3 -->
<g id="node4" class="node">
<title>Node3</title>
<polygon fill="#ffffff" stroke="#bfbfbf" points="1071,-62 1071,-81 1177,-81 1177,-62 1071,-62"/>
<text text-anchor="middle" x="1124" y="-69" font-family="Helvetica,sans-Serif" font-size="10.00" fill="#000000">AMReX_AmrCore.H</text>
</g>
<!-- Node2&#45;&gt;Node3 -->
<g id="edge3" class="edge">
<title>Node2&#45;&gt;Node3</title>
<path fill="none" stroke="#191970" d="M1105.5033,-257.3923C1109.0662,-221.5844 1118.0244,-131.5545 1122.0213,-91.386"/>
<polygon fill="#191970" stroke="#191970" points="1125.5218,-91.5536 1123.0292,-81.2562 1118.5562,-90.8605 1125.5218,-91.5536"/>
</g>
<!-- Node4 -->
<g id="node5" class="node">
<title>Node4</title>
<g id="a_node5"><a xlink:href="_direction_selector_8_h.html" target="_top" xlink:title="amr&#45;wind/utilities\l/DirectionSelector.H">
<polygon fill="#ffffff" stroke="#000000" points="222.5,-190.5 222.5,-220.5 327.5,-220.5 327.5,-190.5 222.5,-190.5"/>
<text text-anchor="start" x="230.5" y="-208.5" font-family="Helvetica,sans-Serif" font-size="10.00" fill="#000000">amr&#45;wind/utilities</text>
<text text-anchor="middle" x="275" y="-197.5" font-family="Helvetica,sans-Serif" font-size="10.00" fill="#000000">/DirectionSelector.H</text>
</a>
</g>
</g>
<!-- Node2&#45;&gt;Node4 -->
<g id="edge4" class="edge">
<title>Node2&#45;&gt;Node4</title>
<path fill="none" stroke="#191970" d="M1054.79,-258.5955C1051.829,-257.9937 1048.8829,-257.4538 1046,-257 736.5124,-208.2878 652.2665,-264.4759 342,-221 340.522,-220.7929 339.0287,-220.5691 337.5249,-220.3306"/>
<polygon fill="#191970" stroke="#191970" points="337.9582,-216.8532 327.503,-218.5676 336.7454,-223.7473 337.9582,-216.8532"/>
</g>
<!-- Node5&#45;&gt;Node3 -->
<g id="edge6" class="edge">
<title>Node5&#45;&gt;Node3</title>
<path fill="none" stroke="#191970" d="M1237.9922,-262.9787C1253.4488,-254.3987 1273.7243,-240.1834 1283,-221 1288.9976,-208.5961 1289.1802,-202.3139 1283,-190 1256.8762,-137.9493 1195.8496,-102.9452 1157.4547,-85.187"/>
<polygon fill="#191970" stroke="#191970" points="1158.7725,-81.9422 1148.2159,-81.0439 1155.9082,-88.3294 1158.7725,-81.9422"/>
</g>
<!-- Node6 -->
<g id="node7" class="node">
<title>Node6</title>
<polygon fill="#ffffff" stroke="#bfbfbf" points="2089.5,-196 2089.5,-215 2208.5,-215 2208.5,-196 2089.5,-196"/>
<text text-anchor="middle" x="2149" y="-203" font-family="Helvetica,sans-Serif" font-size="10.00" fill="#000000">AMReX_MultiFabUtil.H</text>
</g>
<!-- Node5&#45;&gt;Node6 -->
<g id="edge7" class="edge">
<title>Node5&#45;&gt;Node6</title>
<path fill="none" stroke="#191970" d="M1264.6797,-272.0914C1394.0152,-270.4438 1767.7177,-262.1887 2075,-221 2082.7753,-219.9578 2090.9534,-218.5574 2098.9225,-217.0229"/>
<polygon fill="#191970" stroke="#191970" points="2099.7453,-220.4276 2108.8588,-215.0243 2098.3649,-213.565 2099.7453,-220.4276"/>
</g>
<!-- Node7 -->
<g id="node8" class="node">
<title>Node7</title>
<polygon fill="#ffffff" stroke="#bfbfbf" points="844,-196 844,-215 960,-215 960,-196 844,-196"/>
<text text-anchor="middle" x="902" y="-203" font-family="Helvetica,sans-Serif" font-size="10.00" fill="#000000">AMReX_ParmParse.H</text>
</g>
<!-- Node5&#45;&gt;Node7 -->
<g id="edge8" class="edge">
<title>Node5&#45;&gt;Node7</title>
<path fill="none" stroke="#191970" d="M1185.2512,-262.9297C1177.6496,-260.8492 1169.5679,-258.7498 1162,-257 1076.9855,-237.3438 1054.4146,-238.8376 969,-221 963.5217,-219.8559 957.8033,-218.6112 952.1163,-217.3409"/>
<polygon fill="#191970" stroke="#191970" points="952.4986,-213.8389 941.9725,-215.0432 950.9522,-220.666 952.4986,-213.8389"/>
</g>
<!-- Node8 -->
<g id="node9" class="node">
<title>Node8</title>
<polygon fill="#ffffff" stroke="#bfbfbf" points="1978.5,-.5 1978.5,-19.5 2085.5,-19.5 2085.5,-.5 1978.5,-.5"/>
<text text-anchor="middle" x="2032" y="-7.5" font-family="Helvetica,sans-Serif" font-size="10.00" fill="#000000">AMReX_iMultiFab.H</text>
</g>
<!-- Node5&#45;&gt;Node8 -->
<g id="edge9" class="edge">
<title>Node5&#45;&gt;Node8</title>
<path fill="none" stroke="#191970" d="M1264.7174,-264.1437C1317.4254,-254.5322 1405.6355,-237.893 1481,-221 1718.0847,-167.8574 1837.6046,-257.1979 2011,-87 2026.2501,-72.0311 2030.7474,-47.1535 2031.9129,-29.7378"/>
<polygon fill="#191970" stroke="#191970" points="2035.4175,-29.6686 2032.2772,-19.5499 2028.422,-29.4184 2035.4175,-29.6686"/>
</g>
<!-- Node9 -->
<g id="node10" class="node">
<title>Node9</title>
<polygon fill="#ffffff" stroke="#bfbfbf" points="1142.5,-196 1142.5,-215 1273.5,-215 1273.5,-196 1142.5,-196"/>
<text text-anchor="middle" x="1208" y="-203" font-family="Helvetica,sans-Serif" font-size="10.00" fill="#000000">AMReX_NodalProjector.H</text>
</g>
<!-- Node5&#45;&gt;Node9 -->
<g id="edge10" class="edge">
<title>Node5&#45;&gt;Node9</title>
<path fill="none" stroke="#191970" d="M1216.5672,-262.9005C1215.0969,-253.0495 1212.7679,-237.4451 1210.9091,-224.9912"/>
<polygon fill="#191970" stroke="#191970" points="1214.368,-224.4554 1209.4301,-215.0817 1207.4447,-225.4888 1214.368,-224.4554"/>
</g>
<!-- Node10 -->
<g id="node11" class="node">
<title>Node10</title>
<g id="a_node11"><a xlink:href="incflo__enums_8_h.html" target="_top" xlink:title="amr&#45;wind/incflo_enums.H">
<polygon fill="#ffffff" stroke="#000000" points="426,-.5 426,-19.5 554,-19.5 554,-.5 426,-.5"/>
<text text-anchor="middle" x="490" y="-7.5" font-family="Helvetica,sans-Serif" font-size="10.00" fill="#000000">amr&#45;wind/incflo_enums.H</text>
</a>
</g>
</g>
<!-- Node5&#45;&gt;Node10 -->
<g id="edge11" class="edge">
<title>Node5&#45;&gt;Node10</title>
<path fill="none" stroke="#191970" d="M1187.1078,-262.9961C1178.9997,-260.7647 1170.2224,-258.58 1162,-257 826.7769,-192.5863 614.5669,-362.4894 413,-87 404.8644,-75.8807 406.2002,-67.9829 413,-56 421.2586,-41.4463 436.1516,-31.0054 450.6541,-23.7891"/>
<polygon fill="#191970" stroke="#191970" points="452.4083,-26.8359 460.0542,-19.5017 449.5034,-20.4671 452.4083,-26.8359"/>
</g>
<!-- Node11 -->
<g id="node12" class="node">
<title>Node11</title>
<g id="a_node12"><a xlink:href="_c_f_d_sim_8_h.html" target="_top" xlink:title="amr&#45;wind/CFDSim.H">
<polygon fill="#ffffff" stroke="#000000" points="978,-196 978,-215 1086,-215 1086,-196 978,-196"/>
<text text-anchor="middle" x="1032" y="-203" font-family="Helvetica,sans-Serif" font-size="10.00" fill="#000000">amr&#45;wind/CFDSim.H</text>
</a>
</g>
</g>
<!-- Node5&#45;&gt;Node11 -->
<g id="edge12" class="edge">
<title>Node5&#45;&gt;Node11</title>
<path fill="none" stroke="#191970" d="M1191.3507,-262.9005C1159.0308,-251.2584 1104.4026,-231.5805 1068.2675,-218.5641"/>
<polygon fill="#191970" stroke="#191970" points="1069.1942,-215.1778 1058.5998,-215.0817 1066.8219,-221.7636 1069.1942,-215.1778"/>
</g>
<!-- Node12 -->
<g id="node13" class="node">
<title>Node12</title>
<g id="a_node13"><a xlink:href="_sim_time_8_h.html" target="_top" xlink:title="amr&#45;wind/core/SimTime.H">
<polygon fill="#ffffff" stroke="#000000" points="234.5,-129 234.5,-148 365.5,-148 365.5,-129 234.5,-129"/>
<text text-anchor="middle" x="300" y="-136" font-family="Helvetica,sans-Serif" font-size="10.00" fill="#000000">amr&#45;wind/core/SimTime.H</text>
</a>
</g>
</g>
<!-- Node5&#45;&gt;Node12 -->
<g id="edge70" class="edge">
<title>Node5&#45;&gt;Node12</title>
<path fill="none" stroke="#191970" d="M1188.3384,-262.9593C1179.9108,-260.6135 1170.667,-258.381 1162,-257 990.2055,-229.6258 538.6011,-292.4732 380,-221 349.694,-207.3427 324.9496,-176.517 311.3646,-156.6554"/>
<polygon fill="#191970" stroke="#191970" points="314.1925,-154.5858 305.7721,-148.1556 308.3448,-158.4334 314.1925,-154.5858"/>
</g>
<!-- Node16 -->
<g id="node17" class="node">
<title>Node16</title>
<g id="a_node17"><a xlink:href="_field_repo_8_h.html" target="_top" xlink:title="amr&#45;wind/core/FieldRepo.H">
<polygon fill="#ffffff" stroke="#000000" points="1369,-129 1369,-148 1505,-148 1505,-129 1369,-129"/>
<text text-anchor="middle" x="1437" y="-136" font-family="Helvetica,sans-Serif" font-size="10.00" fill="#000000">amr&#45;wind/core/FieldRepo.H</text>
</a>
</g>
</g>
<!-- Node5&#45;&gt;Node16 -->
<g id="edge71" class="edge">
<title>Node5&#45;&gt;Node16</title>
<path fill="none" stroke="#191970" d="M1238.3552,-262.849C1258.5039,-253.0549 1290.0148,-237.0837 1316,-221 1336.0329,-208.6005 1339.6099,-203.3823 1359,-190 1377.1974,-177.4408 1398.1207,-163.6612 1413.7127,-153.5184"/>
<polygon fill="#191970" stroke="#191970" points="1415.7307,-156.3813 1422.2162,-148.0034 1411.9217,-150.5083 1415.7307,-156.3813"/>
</g>
<!-- Node41 -->
<g id="node42" class="node">
<title>Node41</title>
<g id="a_node42"><a xlink:href="incflo__prob___i_8_h.html" target="_top" xlink:title="amr&#45;wind/prob/incflo\l_prob_I.H">
<polygon fill="#ffffff" stroke="#000000" points="1368,-190.5 1368,-220.5 1472,-220.5 1472,-190.5 1368,-190.5"/>
<text text-anchor="start" x="1376" y="-208.5" font-family="Helvetica,sans-Serif" font-size="10.00" fill="#000000">amr&#45;wind/prob/incflo</text>
<text text-anchor="middle" x="1420" y="-197.5" font-family="Helvetica,sans-Serif" font-size="10.00" fill="#000000">_prob_I.H</text>
</a>
</g>
</g>
<!-- Node5&#45;&gt;Node41 -->
<g id="edge72" class="edge">
<title>Node5&#45;&gt;Node41</title>
<path fill="none" stroke="#191970" d="M1246.9417,-262.9005C1277.5853,-252.7366 1326.6945,-236.4479 1364.7842,-223.8141"/>
<polygon fill="#191970" stroke="#191970" points="1366.3209,-226.992 1374.7105,-220.5218 1364.1171,-220.348 1366.3209,-226.992"/>
</g>
<!-- Node11&#45;&gt;Node3 -->
<g id="edge13" class="edge">
<title>Node11&#45;&gt;Node3</title>
<path fill="none" stroke="#191970" d="M1038.6164,-195.8631C1053.9334,-173.5535 1092.0236,-118.0744 1111.7399,-89.3571"/>
<polygon fill="#191970" stroke="#191970" points="1114.6688,-91.2747 1117.4435,-81.0496 1108.898,-87.3126 1114.6688,-91.2747"/>
</g>
<!-- Node11&#45;&gt;Node12 -->
<g id="edge14" class="edge">
<title>Node11&#45;&gt;Node12</title>
<path fill="none" stroke="#191970" d="M997.5491,-195.9405C988.3364,-193.6823 978.3421,-191.4984 969,-190 755.8793,-155.8177 500.7959,-144.1376 376.1433,-140.2931"/>
<polygon fill="#191970" stroke="#191970" points="376.044,-136.7887 365.9435,-139.9871 375.834,-143.7855 376.044,-136.7887"/>
</g>
<!-- Node11&#45;&gt;Node16 -->
<g id="edge18" class="edge">
<title>Node11&#45;&gt;Node16</title>
<path fill="none" stroke="#191970" d="M1086.1999,-196.5336C1159.4764,-184.4113 1290.103,-162.8015 1369.6149,-149.6477"/>
<polygon fill="#191970" stroke="#191970" points="1370.2334,-153.093 1379.528,-148.0077 1369.0908,-146.1869 1370.2334,-153.093"/>
</g>
<!-- Node31 -->
<g id="node32" class="node">
<title>Node31</title>
<g id="a_node32"><a xlink:href="_p_d_e_base_8_h.html" target="_top" xlink:title="amr&#45;wind/equation_systems\l/PDEBase.H">
<polygon fill="#ffffff" stroke="#000000" points="754.5,-123.5 754.5,-153.5 893.5,-153.5 893.5,-123.5 754.5,-123.5"/>
<text text-anchor="start" x="762.5" y="-141.5" font-family="Helvetica,sans-Serif" font-size="10.00" fill="#000000">amr&#45;wind/equation_systems</text>
<text text-anchor="middle" x="824" y="-130.5" font-family="Helvetica,sans-Serif" font-size="10.00" fill="#000000">/PDEBase.H</text>
</a>
</g>
</g>
<!-- Node11&#45;&gt;Node31 -->
<g id="edge48" class="edge">
<title>Node11&#45;&gt;Node31</title>
<path fill="none" stroke="#191970" d="M1002.1987,-195.9005C970.5106,-185.6933 919.6462,-169.3091 880.3558,-156.6531"/>
<polygon fill="#191970" stroke="#191970" points="881.2262,-153.2564 870.6347,-153.5218 879.08,-159.9193 881.2262,-153.2564"/>
</g>
<!-- Node39 -->
<g id="node40" class="node">
<title>Node39</title>
<g id="a_node40"><a xlink:href="_physics_8_h.html" target="_top" xlink:title="amr&#45;wind/core/Physics.H">
<polygon fill="#ffffff" stroke="#000000" points="920.5,-129 920.5,-148 1047.5,-148 1047.5,-129 920.5,-129"/>
<text text-anchor="middle" x="984" y="-136" font-family="Helvetica,sans-Serif" font-size="10.00" fill="#000000">amr&#45;wind/core/Physics.H</text>
</a>
</g>
</g>
<!-- Node11&#45;&gt;Node39 -->
<g id="edge65" class="edge">
<title>Node11&#45;&gt;Node39</title>
<path fill="none" stroke="#191970" d="M1025.1228,-195.9005C1017.7802,-185.6515 1005.9759,-169.1747 996.8938,-156.4976"/>
<polygon fill="#191970" stroke="#191970" points="999.5336,-154.1724 990.8645,-148.0817 993.8432,-158.2492 999.5336,-154.1724"/>
</g>
<!-- Node13 -->
<g id="node14" class="node">
<title>Node13</title>
<polygon fill="#ffffff" stroke="#bfbfbf" points="272.5,-62 272.5,-81 365.5,-81 365.5,-62 272.5,-62"/>
<text text-anchor="middle" x="319" y="-69" font-family="Helvetica,sans-Serif" font-size="10.00" fill="#000000">AMReX_REAL.H</text>
</g>
<!-- Node12&#45;&gt;Node13 -->
<g id="edge15" class="edge">
<title>Node12&#45;&gt;Node13</title>
<path fill="none" stroke="#191970" d="M302.7222,-128.9005C305.5158,-119.0495 309.941,-103.4451 313.4727,-90.9912"/>
<polygon fill="#191970" stroke="#191970" points="316.9217,-91.6572 316.2828,-81.0817 310.1873,-89.7474 316.9217,-91.6572"/>
</g>
<!-- Node14 -->
<g id="node15" class="node">
<title>Node14</title>
<polygon fill="#ffffff" stroke="#bfbfbf" points="0,-62 0,-81 126,-81 126,-62 0,-62"/>
<text text-anchor="middle" x="63" y="-69" font-family="Helvetica,sans-Serif" font-size="10.00" fill="#000000">AMReX_GpuQualifiers.H</text>
</g>
<!-- Node12&#45;&gt;Node14 -->
<g id="edge16" class="edge">
<title>Node12&#45;&gt;Node14</title>
<path fill="none" stroke="#191970" d="M266.2954,-128.9717C224.3863,-117.124 152.7623,-96.8758 106.6813,-83.8487"/>
<polygon fill="#191970" stroke="#191970" points="107.5471,-80.4564 96.9721,-81.1039 105.6428,-87.1924 107.5471,-80.4564"/>
</g>
<!-- Node15 -->
<g id="node16" class="node">
<title>Node15</title>
<polygon fill="#ffffff" stroke="#bfbfbf" points="144,-62 144,-81 254,-81 254,-62 144,-62"/>
<text text-anchor="middle" x="199" y="-69" font-family="Helvetica,sans-Serif" font-size="10.00" fill="#000000">AMReX_Extension.H</text>
</g>
<!-- Node12&#45;&gt;Node15 -->
<g id="edge17" class="edge">
<title>Node12&#45;&gt;Node15</title>
<path fill="none" stroke="#191970" d="M285.5292,-128.9005C268.8791,-117.8554 241.326,-99.5776 221.7886,-86.6172"/>
<polygon fill="#191970" stroke="#191970" points="223.712,-83.693 213.444,-81.0817 219.8424,-89.5263 223.712,-83.693"/>
</g>
<!-- Node16&#45;&gt;Node3 -->
<g id="edge45" class="edge">
<title>Node16&#45;&gt;Node3</title>
<path fill="none" stroke="#191970" d="M1389.7772,-128.9203C1340.2063,-118.7925 1260.0318,-102.2092 1191,-87 1185.6803,-85.828 1180.1287,-84.5814 1174.5968,-83.324"/>
<polygon fill="#191970" stroke="#191970" points="1175.2436,-79.8816 1164.7149,-81.0629 1173.6822,-86.7053 1175.2436,-79.8816"/>
</g>
<!-- Node16&#45;&gt;Node8 -->
<g id="edge47" class="edge">
<title>Node16&#45;&gt;Node8</title>
<path fill="none" stroke="#191970" d="M1505.0461,-135.4158C1642.3811,-128.7114 1943.0763,-111.4256 1983,-87 2004.4677,-73.8659 2018.1586,-47.3901 2025.4591,-29.1831"/>
<polygon fill="#191970" stroke="#191970" points="2028.8244,-30.1749 2029.0295,-19.582 2022.2633,-27.7349 2028.8244,-30.1749"/>
</g>
<!-- Node17 -->
<g id="node18" class="node">
<title>Node17</title>
<polygon fill="#ffffff" stroke="#bfbfbf" points="1114.5,-.5 1114.5,-19.5 1155.5,-19.5 1155.5,-.5 1114.5,-.5"/>
<text text-anchor="middle" x="1135" y="-7.5" font-family="Helvetica,sans-Serif" font-size="10.00" fill="#000000">string</text>
</g>
<!-- Node16&#45;&gt;Node17 -->
<g id="edge19" class="edge">
<title>Node16&#45;&gt;Node17</title>
<path fill="none" stroke="#191970" d="M1390.0485,-128.988C1354.1314,-120.684 1303.9758,-106.8323 1263,-87 1241.4678,-76.5784 1239.3008,-68.654 1219,-56 1200.8354,-44.6776 1179.6979,-33.1102 1163.171,-24.4074"/>
<polygon fill="#191970" stroke="#191970" points="1164.515,-21.161 1154.0302,-19.6379 1161.2768,-27.3669 1164.515,-21.161"/>
</g>
<!-- Node18 -->
<g id="node19" class="node">
<title>Node18</title>
<polygon fill="#ffffff" stroke="#bfbfbf" points="900.5,-.5 900.5,-19.5 983.5,-19.5 983.5,-.5 900.5,-.5"/>
<text text-anchor="middle" x="942" y="-7.5" font-family="Helvetica,sans-Serif" font-size="10.00" fill="#000000">unordered_map</text>
</g>
<!-- Node16&#45;&gt;Node18 -->
<g id="edge20" class="edge">
<title>Node16&#45;&gt;Node18</title>
<path fill="none" stroke="#191970" d="M1368.916,-131.6629C1324.2026,-125.0042 1265.589,-112.0342 1219,-87 1201.2739,-77.4751 1203.9476,-65.1006 1186,-56 1110.9879,-17.964 1080.8962,-35.0374 993.7849,-20.0433"/>
<polygon fill="#191970" stroke="#191970" points="994.2073,-16.5628 983.7425,-18.2173 992.955,-23.4499 994.2073,-16.5628"/>
</g>
<!-- Node19 -->
<g id="node20" class="node">
<title>Node19</title>
<g id="a_node20"><a xlink:href="_field_desc_types_8_h.html" target="_top" xlink:title="amr&#45;wind/core/FieldDescTypes.H">
<polygon fill="#ffffff" stroke="#000000" points="1662.5,-.5 1662.5,-19.5 1825.5,-19.5 1825.5,-.5 1662.5,-.5"/>
<text text-anchor="middle" x="1744" y="-7.5" font-family="Helvetica,sans-Serif" font-size="10.00" fill="#000000">amr&#45;wind/core/FieldDescTypes.H</text>
</a>
</g>
</g>
<!-- Node16&#45;&gt;Node19 -->
<g id="edge21" class="edge">
<title>Node16&#45;&gt;Node19</title>
<path fill="none" stroke="#191970" d="M1505.0281,-136.8724C1640.9175,-132.9159 1935.5782,-120.5273 1966,-87 1975.2583,-76.7966 1974.698,-66.6851 1966,-56 1956.6289,-44.488 1881.2159,-30.5705 1820.8475,-21.0798"/>
<polygon fill="#191970" stroke="#191970" points="1821.3381,-17.6141 1810.9192,-19.5371 1820.2632,-24.5311 1821.3381,-17.6141"/>
</g>
<!-- Node20 -->
<g id="node21" class="node">
<title>Node20</title>
<g id="a_node21"><a xlink:href="_field_utils_8_h.html" target="_top" xlink:title="amr&#45;wind/core/FieldUtils.H">
<polygon fill="#ffffff" stroke="#000000" points="1823.5,-62 1823.5,-81 1956.5,-81 1956.5,-62 1823.5,-62"/>
<text text-anchor="middle" x="1890" y="-69" font-family="Helvetica,sans-Serif" font-size="10.00" fill="#000000">amr&#45;wind/core/FieldUtils.H</text>
</a>
</g>
</g>
<!-- Node16&#45;&gt;Node20 -->
<g id="edge22" class="edge">
<title>Node16&#45;&gt;Node20</title>
<path fill="none" stroke="#191970" d="M1505.3108,-130.5323C1580.993,-121.3878 1706.5455,-105.2768 1814,-87 1821.1189,-85.7892 1828.5902,-84.4055 1835.9538,-82.9745"/>
<polygon fill="#191970" stroke="#191970" points="1836.7568,-86.3835 1845.8853,-81.0056 1835.3955,-79.5171 1836.7568,-86.3835"/>
</g>
<!-- Node21 -->
<g id="node22" class="node">
<title>Node21</title>
<polygon fill="#ffffff" stroke="#bfbfbf" points="1540,-.5 1540,-19.5 1644,-19.5 1644,-.5 1540,-.5"/>
<text text-anchor="middle" x="1592" y="-7.5" font-family="Helvetica,sans-Serif" font-size="10.00" fill="#000000">AMReX_MultiFab.H</text>
</g>
<!-- Node16&#45;&gt;Node21 -->
<g id="edge46" class="edge">
<title>Node16&#45;&gt;Node21</title>
<path fill="none" stroke="#191970" d="M1484.3743,-128.9279C1524.727,-119.7065 1578.1603,-104.5904 1591,-87 1603.0264,-70.5239 1601.0723,-46.3352 1597.5307,-29.4801"/>
<polygon fill="#191970" stroke="#191970" points="1600.8922,-28.4925 1595.105,-19.6178 1594.0947,-30.1643 1600.8922,-28.4925"/>
</g>
<!-- Node23 -->
<g id="node24" class="node">
<title>Node23</title>
<g id="a_node24"><a xlink:href="_field_8_h.html" target="_top" xlink:title="amr&#45;wind/core/Field.H">
<polygon fill="#ffffff" stroke="#000000" points="1271.5,-62 1271.5,-81 1384.5,-81 1384.5,-62 1271.5,-62"/>
<text text-anchor="middle" x="1328" y="-69" font-family="Helvetica,sans-Serif" font-size="10.00" fill="#000000">amr&#45;wind/core/Field.H</text>
</a>
</g>
</g>
<!-- Node16&#45;&gt;Node23 -->
<g id="edge26" class="edge">
<title>Node16&#45;&gt;Node23</title>
<path fill="none" stroke="#191970" d="M1421.383,-128.9005C1403.3331,-117.8057 1373.4104,-99.4128 1352.3092,-86.4424"/>
<polygon fill="#191970" stroke="#191970" points="1353.9402,-83.3366 1343.5881,-81.0817 1350.2745,-89.3001 1353.9402,-83.3366"/>
</g>
<!-- Node27 -->
<g id="node28" class="node">
<title>Node27</title>
<g id="a_node28"><a xlink:href="_int_field_8_h.html" target="_top" xlink:title="amr&#45;wind/core/IntField.H">
<polygon fill="#ffffff" stroke="#000000" points="1681,-62 1681,-81 1805,-81 1805,-62 1681,-62"/>
<text text-anchor="middle" x="1743" y="-69" font-family="Helvetica,sans-Serif" font-size="10.00" fill="#000000">amr&#45;wind/core/IntField.H</text>
</a>
</g>
</g>
<!-- Node16&#45;&gt;Node27 -->
<g id="edge35" class="edge">
<title>Node16&#45;&gt;Node27</title>
<path fill="none" stroke="#191970" d="M1480.5174,-128.9717C1535.4219,-116.9501 1629.8268,-96.2797 1689.1992,-83.2799"/>
<polygon fill="#191970" stroke="#191970" points="1690.1174,-86.6619 1699.1373,-81.1039 1688.6201,-79.8239 1690.1174,-86.6619"/>
</g>
<!-- Node28 -->
<g id="node29" class="node">
<title>Node28</title>
<g id="a_node29"><a xlink:href="_scratch_field_8_h.html" target="_top" xlink:title="amr&#45;wind/core/ScratchField.H">
<polygon fill="#ffffff" stroke="#000000" points="1403,-62 1403,-81 1549,-81 1549,-62 1403,-62"/>
<text text-anchor="middle" x="1476" y="-69" font-family="Helvetica,sans-Serif" font-size="10.00" fill="#000000">amr&#45;wind/core/ScratchField.H</text>
</a>
</g>
</g>
<!-- Node16&#45;&gt;Node28 -->
<g id="edge39" class="edge">
<title>Node16&#45;&gt;Node28</title>
<path fill="none" stroke="#191970" d="M1442.5877,-128.9005C1448.4957,-118.751 1457.9587,-102.4941 1465.3082,-89.8679"/>
<polygon fill="#191970" stroke="#191970" points="1468.4167,-91.4849 1470.4226,-81.0817 1462.367,-87.9634 1468.4167,-91.4849"/>
</g>
<!-- Node20&#45;&gt;Node19 -->
<g id="edge23" class="edge">
<title>Node20&#45;&gt;Node19</title>
<path fill="none" stroke="#191970" d="M1867.1875,-61.8906C1842.6519,-51.5554 1803.4558,-35.0447 1775.8789,-23.4284"/>
<polygon fill="#191970" stroke="#191970" points="1777.2268,-20.1984 1766.6523,-19.5419 1774.5094,-26.6495 1777.2268,-20.1984"/>
</g>
<!-- Node20&#45;&gt;Node21 -->
<g id="edge24" class="edge">
<title>Node20&#45;&gt;Node21</title>
<path fill="none" stroke="#191970" d="M1843.7645,-61.9581C1791.0205,-51.073 1704.7801,-33.2751 1648.2008,-21.5985"/>
<polygon fill="#191970" stroke="#191970" points="1648.8451,-18.1578 1638.344,-19.5643 1647.4302,-25.0133 1648.8451,-18.1578"/>
</g>
<!-- Node22 -->
<g id="node23" class="node">
<title>Node22</title>
<polygon fill="#ffffff" stroke="#bfbfbf" points="1844,-.5 1844,-19.5 1960,-19.5 1960,-.5 1844,-.5"/>
<text text-anchor="middle" x="1902" y="-7.5" font-family="Helvetica,sans-Serif" font-size="10.00" fill="#000000">AMReX_Interpolater.H</text>
</g>
<!-- Node20&#45;&gt;Node22 -->
<g id="edge25" class="edge">
<title>Node20&#45;&gt;Node22</title>
<path fill="none" stroke="#191970" d="M1891.875,-61.8906C1893.5559,-53.276 1896.074,-40.3708 1898.1784,-29.5858"/>
<polygon fill="#191970" stroke="#191970" points="1901.6186,-30.2301 1900.0986,-19.7449 1894.7482,-28.8895 1901.6186,-30.2301"/>
</g>
<!-- Node23&#45;&gt;Node10 -->
<g id="edge33" class="edge">
<title>Node23&#45;&gt;Node10</title>
<path fill="none" stroke="#191970" d="M1271.4029,-64.6528C1245.4138,-61.6808 1214.1733,-58.3501 1186,-56 912.983,-33.2262 840.8022,-46.5077 564.4022,-20.0635"/>
<polygon fill="#191970" stroke="#191970" points="564.3509,-16.5423 554.0608,-19.0647 563.678,-23.5099 564.3509,-16.5423"/>
</g>
<!-- Node23&#45;&gt;Node17 -->
<g id="edge27" class="edge">
<title>Node23&#45;&gt;Node17</title>
<path fill="none" stroke="#191970" d="M1297.3112,-61.9618C1266.4335,-52.3301 1217.2093,-36.8816 1165.3524,-20.0801"/>
<polygon fill="#191970" stroke="#191970" points="1166.2348,-16.6869 1155.6427,-16.9283 1164.0735,-23.3449 1166.2348,-16.6869"/>
</g>
<!-- Node23&#45;&gt;Node18 -->
<g id="edge29" class="edge">
<title>Node23&#45;&gt;Node18</title>
<path fill="none" stroke="#191970" d="M1271.2777,-63.5052C1206.6444,-54.233 1097.6051,-38.0981 993.7548,-20.0756"/>
<polygon fill="#191970" stroke="#191970" points="994.1753,-16.5962 983.7226,-18.3258 992.9725,-23.4921 994.1753,-16.5962"/>
</g>
<!-- Node23&#45;&gt;Node19 -->
<g id="edge34" class="edge">
<title>Node23&#45;&gt;Node19</title>
<path fill="none" stroke="#191970" d="M1365.558,-61.9942C1374.8183,-59.8402 1384.7372,-57.692 1394,-56 1442.3514,-47.1678 1567.5146,-31.3449 1654.2536,-20.7588"/>
<polygon fill="#191970" stroke="#191970" points="1654.8653,-24.2102 1664.3687,-19.5267 1654.0189,-17.2616 1654.8653,-24.2102"/>
</g>
<!-- Node23&#45;&gt;Node21 -->
<g id="edge30" class="edge">
<title>Node23&#45;&gt;Node21</title>
<path fill="none" stroke="#191970" d="M1368.4851,-61.976C1376.9166,-59.997 1385.7477,-57.9276 1394,-56 1443.897,-44.3448 1500.8867,-31.1132 1540.8727,-21.8427"/>
<polygon fill="#191970" stroke="#191970" points="1541.7063,-25.2423 1550.6576,-19.5745 1540.1255,-18.4231 1541.7063,-25.2423"/>
</g>
<!-- Node24 -->
<g id="node25" class="node">
<title>Node24</title>
<polygon fill="#ffffff" stroke="#bfbfbf" points="830,-.5 830,-19.5 882,-19.5 882,-.5 830,-.5"/>
<text text-anchor="middle" x="856" y="-7.5" font-family="Helvetica,sans-Serif" font-size="10.00" fill="#000000">memory</text>
</g>
<!-- Node23&#45;&gt;Node24 -->
<g id="edge28" class="edge">
<title>Node23&#45;&gt;Node24</title>
<path fill="none" stroke="#191970" d="M1271.3206,-65.2967C1161.7494,-53.2325 928.4119,-27.1637 892,-20 891.9006,-19.9804 891.801,-19.9607 891.7013,-19.9409"/>
<polygon fill="#191970" stroke="#191970" points="892.7619,-16.5928 882.2347,-17.7884 891.2097,-23.4186 892.7619,-16.5928"/>
</g>
<!-- Node25 -->
<g id="node26" class="node">
<title>Node25</title>
<polygon fill="#ffffff" stroke="#bfbfbf" points="1173.5,-.5 1173.5,-19.5 1272.5,-19.5 1272.5,-.5 1173.5,-.5"/>
<text text-anchor="middle" x="1223" y="-7.5" font-family="Helvetica,sans-Serif" font-size="10.00" fill="#000000">AMReX_BCRec.H</text>
</g>
<!-- Node23&#45;&gt;Node25 -->
<g id="edge31" class="edge">
<title>Node23&#45;&gt;Node25</title>
<path fill="none" stroke="#191970" d="M1311.5938,-61.8906C1294.5647,-51.9165 1267.7159,-36.1908 1248.0349,-24.6633"/>
<polygon fill="#191970" stroke="#191970" points="1249.6888,-21.5759 1239.291,-19.5419 1246.151,-27.6161 1249.6888,-21.5759"/>
</g>
<!-- Node26 -->
<g id="node27" class="node">
<title>Node26</title>
<polygon fill="#ffffff" stroke="#bfbfbf" points="1290.5,-.5 1290.5,-19.5 1375.5,-19.5 1375.5,-.5 1290.5,-.5"/>
<text text-anchor="middle" x="1333" y="-7.5" font-family="Helvetica,sans-Serif" font-size="10.00" fill="#000000">AMReX_Gpu.H</text>
</g>
<!-- Node23&#45;&gt;Node26 -->
<g id="edge32" class="edge">
<title>Node23&#45;&gt;Node26</title>
<path fill="none" stroke="#191970" d="M1328.7813,-61.8906C1329.4743,-53.3657 1330.509,-40.6392 1331.3802,-29.9235"/>
<polygon fill="#191970" stroke="#191970" points="1334.8858,-29.9956 1332.2077,-19.7449 1327.9088,-29.4283 1334.8858,-29.9956"/>
</g>
<!-- Node27&#45;&gt;Node8 -->
<g id="edge38" class="edge">
<title>Node27&#45;&gt;Node8</title>
<path fill="none" stroke="#191970" d="M1787.1647,-61.9693C1796.3628,-59.9908 1805.997,-57.9233 1815,-56 1870.0295,-44.2441 1932.9351,-30.9221 1976.7982,-21.6517"/>
<polygon fill="#191970" stroke="#191970" points="1977.6286,-25.0536 1986.6889,-19.5617 1976.1814,-18.2048 1977.6286,-25.0536"/>
</g>
<!-- Node27&#45;&gt;Node17 -->
<g id="edge36" class="edge">
<title>Node27&#45;&gt;Node17</title>
<path fill="none" stroke="#191970" d="M1680.8157,-66.1503C1544.9577,-54.439 1229.2902,-27.0926 1165.9548,-19.1454"/>
<polygon fill="#191970" stroke="#191970" points="1166.2183,-15.6459 1155.8102,-17.6261 1165.1815,-22.5687 1166.2183,-15.6459"/>
</g>
<!-- Node27&#45;&gt;Node19 -->
<g id="edge37" class="edge">
<title>Node27&#45;&gt;Node19</title>
<path fill="none" stroke="#191970" d="M1743.1563,-61.8906C1743.2949,-53.3657 1743.5018,-40.6392 1743.676,-29.9235"/>
<polygon fill="#191970" stroke="#191970" points="1747.1784,-29.8005 1743.8415,-19.7449 1740.1793,-29.6866 1747.1784,-29.8005"/>
</g>
<!-- Node28&#45;&gt;Node17 -->
<g id="edge40" class="edge">
<title>Node28&#45;&gt;Node17</title>
<path fill="none" stroke="#191970" d="M1427.0475,-61.9906C1416.1785,-59.9507 1404.707,-57.8531 1394,-56 1295.5548,-38.9619 1266.8287,-44.0355 1165.2559,-19.7068"/>
<polygon fill="#191970" stroke="#191970" points="1166.0696,-16.3028 1155.5258,-17.3408 1164.4156,-23.1045 1166.0696,-16.3028"/>
</g>
<!-- Node28&#45;&gt;Node19 -->
<g id="edge41" class="edge">
<title>Node28&#45;&gt;Node19</title>
<path fill="none" stroke="#191970" d="M1517.581,-61.9581C1564.7205,-51.1406 1641.6113,-33.4959 1692.5057,-21.8168"/>
<polygon fill="#191970" stroke="#191970" points="1693.3577,-25.2123 1702.3215,-19.5643 1691.792,-18.3897 1693.3577,-25.2123"/>
</g>
<!-- Node28&#45;&gt;Node21 -->
<g id="edge42" class="edge">
<title>Node28&#45;&gt;Node21</title>
<path fill="none" stroke="#191970" d="M1494.125,-61.8906C1513.1083,-51.8262 1543.1373,-35.9057 1564.9307,-24.3514"/>
<polygon fill="#191970" stroke="#191970" points="1566.8066,-27.3184 1574.0023,-19.5419 1563.5277,-21.1338 1566.8066,-27.3184"/>
</g>
<!-- Node29 -->
<g id="node30" class="node">
<title>Node29</title>
<polygon fill="#ffffff" stroke="#bfbfbf" points="1001.5,-.5 1001.5,-19.5 1096.5,-19.5 1096.5,-.5 1001.5,-.5"/>
<text text-anchor="middle" x="1049" y="-7.5" font-family="Helvetica,sans-Serif" font-size="10.00" fill="#000000">AMReX_Vector.H</text>
</g>
<!-- Node28&#45;&gt;Node29 -->
<g id="edge43" class="edge">
<title>Node28&#45;&gt;Node29</title>
<path fill="none" stroke="#191970" d="M1428.3909,-61.9798C1417.1378,-59.8742 1405.1643,-57.7512 1394,-56 1269.7978,-36.5182 1235.303,-39.0065 1106.7955,-20.05"/>
<polygon fill="#191970" stroke="#191970" points="1106.9639,-16.5365 1096.5572,-18.524 1105.9319,-23.4601 1106.9639,-16.5365"/>
</g>
<!-- Node30 -->
<g id="node31" class="node">
<title>Node30</title>
<polygon fill="#ffffff" stroke="#bfbfbf" points="1394,-.5 1394,-19.5 1522,-19.5 1522,-.5 1394,-.5"/>
<text text-anchor="middle" x="1458" y="-7.5" font-family="Helvetica,sans-Serif" font-size="10.00" fill="#000000">AMReX_PhysBCFunct.H</text>
</g>
<!-- Node28&#45;&gt;Node30 -->
<g id="edge44" class="edge">
<title>Node28&#45;&gt;Node30</title>
<path fill="none" stroke="#191970" d="M1473.1875,-61.8906C1470.6661,-53.276 1466.889,-40.3708 1463.7324,-29.5858"/>
<polygon fill="#191970" stroke="#191970" points="1467.0203,-28.3591 1460.8522,-19.7449 1460.3021,-30.3254 1467.0203,-28.3591"/>
</g>
<!-- Node31&#45;&gt;Node10 -->
<g id="edge64" class="edge">
<title>Node31&#45;&gt;Node10</title>
<path fill="none" stroke="#191970" d="M754.0874,-129.6592C710.7075,-122.2875 654.7191,-109.2744 609,-87 589.0947,-77.3021 588.3156,-68.4424 570,-56 553.2087,-44.5931 533.4418,-33.2094 517.7579,-24.6201"/>
<polygon fill="#191970" stroke="#191970" points="519.0443,-21.3368 508.5833,-19.658 515.7141,-27.4939 519.0443,-21.3368"/>
</g>
<!-- Node31&#45;&gt;Node17 -->
<g id="edge49" class="edge">
<title>Node31&#45;&gt;Node17</title>
<path fill="none" stroke="#191970" d="M846.002,-123.3042C860.3949,-113.2317 879.516,-99.599 896,-87 913.317,-73.7643 914.3297,-65.3883 934,-56 1001.5934,-23.7388 1028.4859,-39.3483 1104.1995,-20.1831"/>
<polygon fill="#191970" stroke="#191970" points="1105.4245,-23.4791 1114.1892,-17.5267 1103.6256,-16.7142 1105.4245,-23.4791"/>
</g>
<!-- Node31&#45;&gt;Node19 -->
<g id="edge63" class="edge">
<title>Node31&#45;&gt;Node19</title>
<path fill="none" stroke="#191970" d="M893.5401,-125.4662C899.7687,-124.5368 905.9899,-123.6943 912,-123 1197.6569,-90.0013 1277.6329,-150.899 1558,-87 1617.4911,-73.4413 1682.3462,-42.5639 1717.5803,-24.2958"/>
<polygon fill="#191970" stroke="#191970" points="1719.4789,-27.252 1726.7035,-19.5025 1716.2231,-21.0552 1719.4789,-27.252"/>
</g>
<!-- Node32 -->
<g id="node33" class="node">
<title>Node32</title>
<g id="a_node33"><a xlink:href="_factory_8_h.html" target="_top" xlink:title="amr&#45;wind/core/Factory.H">
<polygon fill="#ffffff" stroke="#000000" points="618.5,-62 618.5,-81 743.5,-81 743.5,-62 618.5,-62"/>
<text text-anchor="middle" x="681" y="-69" font-family="Helvetica,sans-Serif" font-size="10.00" fill="#000000">amr&#45;wind/core/Factory.H</text>
</a>
</g>
</g>
<!-- Node31&#45;&gt;Node32 -->
<g id="edge50" class="edge">
<title>Node31&#45;&gt;Node32</title>
<path fill="none" stroke="#191970" d="M791.908,-123.4639C767.5902,-112.0702 734.4279,-96.5327 710.7138,-85.4219"/>
<polygon fill="#191970" stroke="#191970" points="712.0382,-82.1773 701.4979,-81.1039 709.0683,-88.5161 712.0382,-82.1773"/>
</g>
<!-- Node36 -->
<g id="node37" class="node">
<title>Node36</title>
<g id="a_node37"><a xlink:href="_coll_mgr_8_h.html" target="_top" xlink:title="amr&#45;wind/core/CollMgr.H">
<polygon fill="#ffffff" stroke="#000000" points="761.5,-62 761.5,-81 886.5,-81 886.5,-62 761.5,-62"/>
<text text-anchor="middle" x="824" y="-69" font-family="Helvetica,sans-Serif" font-size="10.00" fill="#000000">amr&#45;wind/core/CollMgr.H</text>
</a>
</g>
</g>
<!-- Node31&#45;&gt;Node36 -->
<g id="edge56" class="edge">
<title>Node31&#45;&gt;Node36</title>
<path fill="none" stroke="#191970" d="M824,-123.2967C824,-113.7699 824,-101.3954 824,-91.1306"/>
<polygon fill="#191970" stroke="#191970" points="827.5001,-91.0549 824,-81.055 820.5001,-91.055 827.5001,-91.0549"/>
</g>
<!-- Node37 -->
<g id="node38" class="node">
<title>Node37</title>
<g id="a_node38"><a xlink:href="_p_d_e_fields_8_h.html" target="_top" xlink:title="amr&#45;wind/equation_systems\l/PDEFields.H">
<polygon fill="#ffffff" stroke="#000000" points="422.5,-56.5 422.5,-86.5 561.5,-86.5 561.5,-56.5 422.5,-56.5"/>
<text text-anchor="start" x="430.5" y="-74.5" font-family="Helvetica,sans-Serif" font-size="10.00" fill="#000000">amr&#45;wind/equation_systems</text>
<text text-anchor="middle" x="492" y="-63.5" font-family="Helvetica,sans-Serif" font-size="10.00" fill="#000000">/PDEFields.H</text>
</a>
</g>
</g>
<!-- Node31&#45;&gt;Node37 -->
<g id="edge61" class="edge">
<title>Node31&#45;&gt;Node37</title>
<path fill="none" stroke="#191970" d="M754.4019,-124.4546C700.9488,-113.6674 627.0873,-98.7616 571.3431,-87.512"/>
<polygon fill="#191970" stroke="#191970" points="572.0012,-84.0743 561.5065,-85.5269 570.6164,-90.936 572.0012,-84.0743"/>
</g>
<!-- Node32&#45;&gt;Node18 -->
<g id="edge52" class="edge">
<title>Node32&#45;&gt;Node18</title>
<path fill="none" stroke="#191970" d="M721.4949,-61.9581C767.3075,-51.1632 841.9737,-33.5694 891.5406,-21.8899"/>
<polygon fill="#191970" stroke="#191970" points="892.4794,-25.2646 901.4101,-19.5643 890.8739,-18.4512 892.4794,-25.2646"/>
</g>
<!-- Node32&#45;&gt;Node24 -->
<g id="edge51" class="edge">
<title>Node32&#45;&gt;Node24</title>
<path fill="none" stroke="#191970" d="M708.3438,-61.8906C738.4866,-51.2976 787.0898,-34.217 820.2366,-22.5683"/>
<polygon fill="#191970" stroke="#191970" points="821.7158,-25.7584 829.9897,-19.1408 819.3949,-19.1543 821.7158,-25.7584"/>
</g>
<!-- Node33 -->
<g id="node34" class="node">
<title>Node33</title>
<polygon fill="#ffffff" stroke="#bfbfbf" points="652,-.5 652,-19.5 706,-19.5 706,-.5 652,-.5"/>
<text text-anchor="middle" x="679" y="-7.5" font-family="Helvetica,sans-Serif" font-size="10.00" fill="#000000">iostream</text>
</g>
<!-- Node32&#45;&gt;Node33 -->
<g id="edge53" class="edge">
<title>Node32&#45;&gt;Node33</title>
<path fill="none" stroke="#191970" d="M680.6875,-61.8906C680.4103,-53.3657 679.9964,-40.6392 679.6479,-29.9235"/>
<polygon fill="#191970" stroke="#191970" points="683.1402,-29.6258 679.3169,-19.7449 676.1439,-29.8534 683.1402,-29.6258"/>
</g>
<!-- Node34 -->
<g id="node35" class="node">
<title>Node34</title>
<polygon fill="#ffffff" stroke="#bfbfbf" points="724.5,-.5 724.5,-19.5 811.5,-19.5 811.5,-.5 724.5,-.5"/>
<text text-anchor="middle" x="768" y="-7.5" font-family="Helvetica,sans-Serif" font-size="10.00" fill="#000000">AMReX_Print.H</text>
</g>
<!-- Node32&#45;&gt;Node34 -->
<g id="edge54" class="edge">
<title>Node32&#45;&gt;Node34</title>
<path fill="none" stroke="#191970" d="M694.5938,-61.8906C708.3843,-52.1421 729.9472,-36.8994 746.141,-25.4521"/>
<polygon fill="#191970" stroke="#191970" points="748.3563,-28.1723 754.5017,-19.5419 744.3156,-22.4563 748.3563,-28.1723"/>
</g>
<!-- Node35 -->
<g id="node36" class="node">
<title>Node35</title>
<polygon fill="#ffffff" stroke="#bfbfbf" points="572,-.5 572,-19.5 634,-19.5 634,-.5 572,-.5"/>
<text text-anchor="middle" x="603" y="-7.5" font-family="Helvetica,sans-Serif" font-size="10.00" fill="#000000">AMReX.H</text>
</g>
<!-- Node32&#45;&gt;Node35 -->
<g id="edge55" class="edge">
<title>Node32&#45;&gt;Node35</title>
<path fill="none" stroke="#191970" d="M668.8125,-61.8906C656.563,-52.2324 637.4737,-37.1812 623.0023,-25.771"/>
<polygon fill="#191970" stroke="#191970" points="625.1217,-22.985 615.1019,-19.5419 620.7876,-28.4819 625.1217,-22.985"/>
</g>
<!-- Node36&#45;&gt;Node17 -->
<g id="edge57" class="edge">
<title>Node36&#45;&gt;Node17</title>
<path fill="none" stroke="#191970" d="M870.3819,-61.9698C880.4664,-59.9519 891.0837,-57.8685 901,-56 988.7985,-39.4566 1014.6837,-42.8828 1104.4369,-20.126"/>
<polygon fill="#191970" stroke="#191970" points="1105.3997,-23.4923 1114.2113,-17.6095 1103.6544,-16.7134 1105.3997,-23.4923"/>
</g>
<!-- Node36&#45;&gt;Node18 -->
<g id="edge59" class="edge">
<title>Node36&#45;&gt;Node18</title>
<path fill="none" stroke="#191970" d="M842.4375,-61.8906C861.8347,-51.7811 892.569,-35.7628 914.7617,-24.1962"/>
<polygon fill="#191970" stroke="#191970" points="916.4418,-27.2675 923.692,-19.5419 913.2064,-21.06 916.4418,-27.2675"/>
</g>
<!-- Node36&#45;&gt;Node24 -->
<g id="edge58" class="edge">
<title>Node36&#45;&gt;Node24</title>
<path fill="none" stroke="#191970" d="M829,-61.8906C833.5758,-53.0965 840.4781,-39.8312 846.1583,-28.9145"/>
<polygon fill="#191970" stroke="#191970" points="849.4185,-30.2314 850.9295,-19.7449 843.2088,-27.0003 849.4185,-30.2314"/>
</g>
<!-- Node36&#45;&gt;Node29 -->
<g id="edge60" class="edge">
<title>Node36&#45;&gt;Node29</title>
<path fill="none" stroke="#191970" d="M859.1563,-61.8906C898.2889,-51.1944 961.621,-33.8836 1004.2582,-22.2294"/>
<polygon fill="#191970" stroke="#191970" points="1005.3673,-25.5547 1014.0906,-19.5419 1003.5216,-18.8024 1005.3673,-25.5547"/>
</g>
<!-- Node38 -->
<g id="node39" class="node">
<title>Node38</title>
<polygon fill="#ffffff" stroke="#bfbfbf" points="362.5,-.5 362.5,-19.5 407.5,-19.5 407.5,-.5 362.5,-.5"/>
<text text-anchor="middle" x="385" y="-7.5" font-family="Helvetica,sans-Serif" font-size="10.00" fill="#000000">iosfwd</text>
</g>
<!-- Node37&#45;&gt;Node38 -->
<g id="edge62" class="edge">
<title>Node37&#45;&gt;Node38</title>
<path fill="none" stroke="#191970" d="M465.8249,-56.4554C448.9113,-46.734 427.0171,-34.15 410.2828,-24.5317"/>
<polygon fill="#191970" stroke="#191970" points="411.9953,-21.4791 401.5812,-19.5303 408.507,-27.548 411.9953,-21.4791"/>
</g>
<!-- Node39&#45;&gt;Node21 -->
<g id="edge68" class="edge">
<title>Node39&#45;&gt;Node21</title>
<path fill="none" stroke="#191970" d="M1047.7551,-136.3999C1188.6446,-131.2461 1517.2733,-116.2127 1558,-87 1576.5853,-73.669 1585.154,-47.8565 1589.0071,-29.8077"/>
<polygon fill="#191970" stroke="#191970" points="1592.4895,-30.2203 1590.8441,-19.7541 1585.6035,-28.962 1592.4895,-30.2203"/>
</g>
<!-- Node39&#45;&gt;Node32 -->
<g id="edge66" class="edge">
<title>Node39&#45;&gt;Node32</title>
<path fill="none" stroke="#191970" d="M940.9093,-128.9717C886.543,-116.9501 793.0636,-96.2797 734.2733,-83.2799"/>
<polygon fill="#191970" stroke="#191970" points="734.9525,-79.8456 724.4327,-81.1039 733.4411,-86.6805 734.9525,-79.8456"/>
</g>
<!-- Node39&#45;&gt;Node36 -->
<g id="edge67" class="edge">
<title>Node39&#45;&gt;Node36</title>
<path fill="none" stroke="#191970" d="M961.0759,-128.9005C933.6302,-117.4077 887.4836,-98.0838 856.4012,-85.068"/>
<polygon fill="#191970" stroke="#191970" points="857.4574,-81.7159 846.8816,-81.0817 854.7536,-88.1726 857.4574,-81.7159"/>
</g>
<!-- Node40 -->
<g id="node41" class="node">
<title>Node40</title>
<polygon fill="#ffffff" stroke="#bfbfbf" points="943,-62 943,-81 1053,-81 1053,-62 943,-62"/>
<text text-anchor="middle" x="998" y="-69" font-family="Helvetica,sans-Serif" font-size="10.00" fill="#000000">AMReX_Geometry.H</text>
</g>
<!-- Node39&#45;&gt;Node40 -->
<g id="edge69" class="edge">
<title>Node39&#45;&gt;Node40</title>
<path fill="none" stroke="#191970" d="M986.0059,-128.9005C988.0643,-119.0495 991.3249,-103.4451 993.9272,-90.9912"/>
<polygon fill="#191970" stroke="#191970" points="997.3784,-91.5862 995.9979,-81.0817 990.5264,-90.1543 997.3784,-91.5862"/>
</g>
</g>
</svg>
        <g id="navigator" transform="translate(0 0)" fill="#404254">
                <rect fill="#f2f5e9" fill-opacity="0.5" stroke="#606060" stroke-width=".5" x="0" y="0" width="60" height="60"/>
                <use id="zoomplus" xlink:href="#zoomPlus" x="17" y="9" onmousedown="handleZoom(evt,'in')"/>
                <use id="zoomminus" xlink:href="#zoomMin" x="42" y="9" onmousedown="handleZoom(evt,'out')"/>
                <use id="reset" xlink:href="#resetDef" x="30" y="36" onmousedown="handleReset()"/>
                <g id="arrowUp" xlink:href="#dirArrow" transform="translate(30 24)" onmousedown="handlePan(0,-1)">
                  <use xlink:href="#rim" fill="#404040">
                        <set attributeName="fill" to="#808080" begin="arrowUp.mouseover" end="arrowUp.mouseout"/>
                  </use>
                  <path fill="none" stroke="white" stroke-width="1.5" d="M0,-3.0v7 M-2.5,-0.5L0,-3.0L2.5,-0.5"/>
                </g>
                <g id="arrowRight" xlink:href="#dirArrow" transform="rotate(90) translate(36 -43)" onmousedown="handlePan(1,0)">
                  <use xlink:href="#rim" fill="#404040">
                        <set attributeName="fill" to="#808080" begin="arrowRight.mouseover" end="arrowRight.mouseout"/>
                  </use>
                  <path fill="none" stroke="white" stroke-width="1.5" d="M0,-3.0v7 M-2.5,-0.5L0,-3.0L2.5,-0.5"/>
                </g>
                <g id="arrowDown" xlink:href="#dirArrow" transform="rotate(180) translate(-30 -48)" onmousedown="handlePan(0,1)">
                  <use xlink:href="#rim" fill="#404040">
                        <set attributeName="fill" to="#808080" begin="arrowDown.mouseover" end="arrowDown.mouseout"/>
                  </use>
                  <path fill="none" stroke="white" stroke-width="1.5" d="M0,-3.0v7 M-2.5,-0.5L0,-3.0L2.5,-0.5"/>
                </g>
                <g id="arrowLeft" xlink:href="#dirArrow" transform="rotate(270) translate(-36 17)" onmousedown="handlePan(-1,0)">
                  <use xlink:href="#rim" fill="#404040">
                        <set attributeName="fill" to="#808080" begin="arrowLeft.mouseover" end="arrowLeft.mouseout"/>
                  </use>
                  <path fill="none" stroke="white" stroke-width="1.5" d="M0,-3.0v7 M-2.5,-0.5L0,-3.0L2.5,-0.5"/>
                </g>
        </g>
        <svg viewBox="0 0 15 15" width="100%" height="30px" preserveAspectRatio="xMaxYMin meet">
         <g id="arrow_out" transform="scale(0.3 0.3)">
          <a xlink:href="_plane_averaging_8cpp__incl_org.svg" target="_base">
           <rect id="button" ry="5" rx="5" y="6" x="6" height="38" width="38"
                fill="#f2f5e9" fill-opacity="0.5" stroke="#606060" stroke-width="1.0"/>
           <path id="arrow"
             d="M 11.500037,31.436501 C 11.940474,20.09759 22.043105,11.32322 32.158766,21.979434 L 37.068811,17.246167 C 37.068811,17.246167 37.088388,32 37.088388,32 L 22.160133,31.978069 C 22.160133,31.978069 26.997745,27.140456 26.997745,27.140456 C 18.528582,18.264221 13.291696,25.230495 11.500037,31.436501 z"
             style="fill:#404040;"/>
          </a>
         </g>
        </svg>
</svg>
