<?xml version="1.0" encoding="UTF-8" standalone="no"?>
<!DOCTYPE svg PUBLIC "-//W3C//DTD SVG 1.1//EN"
 "http://www.w3.org/Graphics/SVG/1.1/DTD/svg11.dtd">
<!-- Generated by graphviz version 2.40.1 (20161225.0304)
 -->
<!-- Title: PlaneAveraging.H Pages: 1 -->
<svg width="238pt" height="95pt"
 viewBox="0.00 0.00 237.50 95.00" xmlns="http://www.w3.org/2000/svg" xmlns:xlink="http://www.w3.org/1999/xlink">
<g id="graph0" class="graph" transform="scale(1 1) rotate(0) translate(4 91)">
<title>PlaneAveraging.H</title>
<polygon fill="#ffffff" stroke="transparent" points="-4,4 -4,-91 233.5,-91 233.5,4 -4,4"/>
<!-- Node0 -->
<g id="node1" class="node">
<title>Node0</title>
<polygon fill="#bfbfbf" stroke="#000000" points="67.5,-67.5 67.5,-86.5 162.5,-86.5 162.5,-67.5 67.5,-67.5"/>
<text text-anchor="middle" x="115" y="-74.5" font-family="Helvetica,sans-Serif" font-size="10.00" fill="#000000">PlaneAveraging.H</text>
</g>
<!-- Node1 -->
<g id="node2" class="node">
<title>Node1</title>
<polygon fill="#ffffff" stroke="#bfbfbf" points="0,-6 0,-25 106,-25 106,-6 0,-6"/>
<text text-anchor="middle" x="53" y="-13" font-family="Helvetica,sans-Serif" font-size="10.00" fill="#000000">AMReX_AmrCore.H</text>
</g>
<!-- Node0&#45;&gt;Node1 -->
<g id="edge1" class="edge">
<title>Node0&#45;&gt;Node1</title>
<path fill="none" stroke="#191970" d="M105.3125,-67.3906C95.9041,-58.0581 81.4193,-43.6902 70.0751,-32.4374"/>
<polygon fill="#191970" stroke="#191970" points="72.3886,-29.8024 62.8241,-25.2449 67.4589,-34.7722 72.3886,-29.8024"/>
</g>
<!-- Node2 -->
<g id="node3" class="node">
<title>Node2</title>
<g id="a_node3"><a xlink:href="_direction_selector_8_h.html" target="_top" xlink:title="amr&#45;wind/utilities\l/DirectionSelector.H">
<polygon fill="#ffffff" stroke="#000000" points="124.5,-.5 124.5,-30.5 229.5,-30.5 229.5,-.5 124.5,-.5"/>
<text text-anchor="start" x="132.5" y="-18.5" font-family="Helvetica,sans-Serif" font-size="10.00" fill="#000000">amr&#45;wind/utilities</text>
<text text-anchor="middle" x="177" y="-7.5" font-family="Helvetica,sans-Serif" font-size="10.00" fill="#000000">/DirectionSelector.H</text>
</a>
</g>
</g>
<!-- Node0&#45;&gt;Node2 -->
<g id="edge2" class="edge">
<title>Node0&#45;&gt;Node2</title>
<path fill="none" stroke="#191970" d="M124.6875,-67.3906C132.69,-59.4527 144.365,-47.8718 154.6563,-37.6635"/>
<polygon fill="#191970" stroke="#191970" points="157.1983,-40.0719 161.8331,-30.5446 152.2686,-35.1021 157.1983,-40.0719"/>
</g>
</g>
</svg>
