<?xml version="1.0" encoding="UTF-8" standalone="no"?>
<!DOCTYPE svg PUBLIC "-//W3C//DTD SVG 1.1//EN"
 "http://www.w3.org/Graphics/SVG/1.1/DTD/svg11.dtd">
<!-- Generated by graphviz version 2.40.1 (20161225.0304)
 -->
<!-- Title: PostProcessing.H Pages: 1 -->
<svg width="491pt" height="140pt"
 viewBox="0.00 0.00 491.00 140.00" xmlns="http://www.w3.org/2000/svg" xmlns:xlink="http://www.w3.org/1999/xlink">
<g id="graph0" class="graph" transform="scale(1 1) rotate(0) translate(4 136)">
<title>PostProcessing.H</title>
<polygon fill="#ffffff" stroke="transparent" points="-4,4 -4,-136 487,-136 487,4 -4,4"/>
<!-- Node7 -->
<g id="node1" class="node">
<title>Node7</title>
<polygon fill="#bfbfbf" stroke="#000000" points="172,-112.5 172,-131.5 268,-131.5 268,-112.5 172,-112.5"/>
<text text-anchor="middle" x="220" y="-119.5" font-family="Helvetica,sans-Serif" font-size="10.00" fill="#000000">PostProcessing.H</text>
</g>
<!-- Node8 -->
<g id="node2" class="node">
<title>Node8</title>
<g id="a_node2"><a xlink:href="_c_f_d_sim_8cpp.html" target="_top" xlink:title="CFDSim.cpp">
<polygon fill="#ffffff" stroke="#000000" points="0,-56.5 0,-75.5 74,-75.5 74,-56.5 0,-56.5"/>
<text text-anchor="middle" x="37" y="-63.5" font-family="Helvetica,sans-Serif" font-size="10.00" fill="#000000">CFDSim.cpp</text>
</a>
</g>
</g>
<!-- Node7&#45;&gt;Node8 -->
<g id="edge1" class="edge">
<title>Node7&#45;&gt;Node8</title>
<path fill="none" stroke="#191970" d="M178.575,-109.3235C145.0144,-99.0536 98.466,-84.8093 68.0483,-75.5011"/>
<polygon fill="#191970" stroke="#191970" points="177.9547,-112.7938 188.5412,-112.3733 180.0031,-106.1002 177.9547,-112.7938"/>
</g>
<!-- Node9 -->
<g id="node3" class="node">
<title>Node9</title>
<g id="a_node3"><a xlink:href="incflo_8cpp.html" target="_top" xlink:title="incflo.cpp">
<polygon fill="#ffffff" stroke="#000000" points="92.5,-56.5 92.5,-75.5 151.5,-75.5 151.5,-56.5 92.5,-56.5"/>
<text text-anchor="middle" x="122" y="-63.5" font-family="Helvetica,sans-Serif" font-size="10.00" fill="#000000">incflo.cpp</text>
</a>
</g>
</g>
<!-- Node7&#45;&gt;Node9 -->
<g id="edge2" class="edge">
<title>Node7&#45;&gt;Node9</title>
<path fill="none" stroke="#191970" d="M193.8314,-107.0465C176.3942,-97.0824 153.9889,-84.2794 138.8747,-75.6427"/>
<polygon fill="#191970" stroke="#191970" points="192.5108,-110.323 202.9297,-112.2455 195.9838,-104.2453 192.5108,-110.323"/>
</g>
<!-- Node10 -->
<g id="node4" class="node">
<title>Node10</title>
<g id="a_node4"><a xlink:href="incflo__advance_8cpp.html" target="_top" xlink:title="incflo_advance.cpp">
<polygon fill="#ffffff" stroke="#000000" points="169.5,-56.5 169.5,-75.5 270.5,-75.5 270.5,-56.5 169.5,-56.5"/>
<text text-anchor="middle" x="220" y="-63.5" font-family="Helvetica,sans-Serif" font-size="10.00" fill="#000000">incflo_advance.cpp</text>
</a>
</g>
</g>
<!-- Node7&#45;&gt;Node10 -->
<g id="edge3" class="edge">
<title>Node7&#45;&gt;Node10</title>
<path fill="none" stroke="#191970" d="M220,-102.1575C220,-93.155 220,-82.9199 220,-75.6427"/>
<polygon fill="#191970" stroke="#191970" points="216.5001,-102.2455 220,-112.2455 223.5001,-102.2456 216.5001,-102.2455"/>
</g>
<!-- Node11 -->
<g id="node5" class="node">
<title>Node11</title>
<g id="a_node5"><a xlink:href="_post_processing_8cpp.html" target="_top" xlink:title="PostProcessing.cpp">
<polygon fill="#ffffff" stroke="#000000" points="289,-56.5 289,-75.5 393,-75.5 393,-56.5 289,-56.5"/>
<text text-anchor="middle" x="341" y="-63.5" font-family="Helvetica,sans-Serif" font-size="10.00" fill="#000000">PostProcessing.cpp</text>
</a>
</g>
</g>
<!-- Node7&#45;&gt;Node11 -->
<g id="edge4" class="edge">
<title>Node7&#45;&gt;Node11</title>
<path fill="none" stroke="#191970" d="M250.0104,-108.1109C271.9525,-97.9559 301.1388,-84.4482 320.4708,-75.5011"/>
<polygon fill="#191970" stroke="#191970" points="248.4058,-104.9968 240.8006,-112.3733 251.3459,-111.3494 248.4058,-104.9968"/>
</g>
<!-- Node12 -->
<g id="node6" class="node">
<title>Node12</title>
<g id="a_node6"><a xlink:href="_sampling_8_h.html" target="_top" xlink:title="Sampling.H">
<polygon fill="#ffffff" stroke="#000000" points="411,-56.5 411,-75.5 479,-75.5 479,-56.5 411,-56.5"/>
<text text-anchor="middle" x="445" y="-63.5" font-family="Helvetica,sans-Serif" font-size="10.00" fill="#000000">Sampling.H</text>
</a>
</g>
</g>
<!-- Node7&#45;&gt;Node12 -->
<g id="edge5" class="edge">
<title>Node7&#45;&gt;Node12</title>
<path fill="none" stroke="#191970" d="M268.3566,-109.9646C311.2469,-99.2897 372.8175,-83.9654 410.7886,-74.5148"/>
<polygon fill="#191970" stroke="#191970" points="267.2818,-106.6252 258.4232,-112.4369 268.9725,-113.418 267.2818,-106.6252"/>
</g>
<!-- Node13 -->
<g id="node7" class="node">
<title>Node13</title>
<g id="a_node7"><a xlink:href="_sampling_8cpp.html" target="_top" xlink:title="Sampling.cpp">
<polygon fill="#ffffff" stroke="#000000" points="407,-.5 407,-19.5 483,-19.5 483,-.5 407,-.5"/>
<text text-anchor="middle" x="445" y="-7.5" font-family="Helvetica,sans-Serif" font-size="10.00" fill="#000000">Sampling.cpp</text>
</a>
</g>
</g>
<!-- Node12&#45;&gt;Node13 -->
<g id="edge6" class="edge">
<title>Node12&#45;&gt;Node13</title>
<path fill="none" stroke="#191970" d="M445,-46.1575C445,-37.155 445,-26.9199 445,-19.6427"/>
<polygon fill="#191970" stroke="#191970" points="441.5001,-46.2455 445,-56.2455 448.5001,-46.2456 441.5001,-46.2455"/>
</g>
</g>
</svg>
