<?xml version="1.0" encoding="UTF-8" standalone="no"?>
<!DOCTYPE svg PUBLIC "-//W3C//DTD SVG 1.1//EN"
 "http://www.w3.org/Graphics/SVG/1.1/DTD/svg11.dtd">
<!-- Generated by graphviz version 2.40.1 (20161225.0304)
 -->
<!-- Title: PostProcessing.H Pages: 1 -->
<svg width="420pt" height="140pt"
 viewBox="0.00 0.00 420.00 140.00" xmlns="http://www.w3.org/2000/svg" xmlns:xlink="http://www.w3.org/1999/xlink">
<g id="graph0" class="graph" transform="scale(1 1) rotate(0) translate(4 136)">
<title>PostProcessing.H</title>
<polygon fill="#ffffff" stroke="transparent" points="-4,4 -4,-136 416,-136 416,4 -4,4"/>
<!-- Node0 -->
<g id="node1" class="node">
<title>Node0</title>
<polygon fill="#bfbfbf" stroke="#000000" points="64,-112.5 64,-131.5 160,-131.5 160,-112.5 64,-112.5"/>
<text text-anchor="middle" x="112" y="-119.5" font-family="Helvetica,sans-Serif" font-size="10.00" fill="#000000">PostProcessing.H</text>
</g>
<!-- Node1 -->
<g id="node2" class="node">
<title>Node1</title>
<polygon fill="#ffffff" stroke="#bfbfbf" points="0,-.5 0,-19.5 52,-19.5 52,-.5 0,-.5"/>
<text text-anchor="middle" x="26" y="-7.5" font-family="Helvetica,sans-Serif" font-size="10.00" fill="#000000">memory</text>
</g>
<!-- Node0&#45;&gt;Node1 -->
<g id="edge1" class="edge">
<title>Node0&#45;&gt;Node1</title>
<path fill="none" stroke="#191970" d="M104.6677,-112.4509C90.2604,-93.688 58.0617,-51.7548 39.6356,-27.758"/>
<polygon fill="#191970" stroke="#191970" points="42.1801,-25.3248 33.3138,-19.5249 36.628,-29.588 42.1801,-25.3248"/>
</g>
<!-- Node2 -->
<g id="node3" class="node">
<title>Node2</title>
<g id="a_node3"><a xlink:href="_factory_8_h.html" target="_top" xlink:title="amr&#45;wind/core/Factory.H">
<polygon fill="#ffffff" stroke="#000000" points="115.5,-56.5 115.5,-75.5 240.5,-75.5 240.5,-56.5 115.5,-56.5"/>
<text text-anchor="middle" x="178" y="-63.5" font-family="Helvetica,sans-Serif" font-size="10.00" fill="#000000">amr&#45;wind/core/Factory.H</text>
</a>
</g>
</g>
<!-- Node0&#45;&gt;Node2 -->
<g id="edge2" class="edge">
<title>Node0&#45;&gt;Node2</title>
<path fill="none" stroke="#191970" d="M123.4963,-112.2455C133.2442,-103.9746 147.4259,-91.9416 158.8798,-82.2232"/>
<polygon fill="#191970" stroke="#191970" points="161.2747,-84.7813 166.6354,-75.6427 156.7459,-79.4437 161.2747,-84.7813"/>
</g>
<!-- Node2&#45;&gt;Node1 -->
<g id="edge3" class="edge">
<title>Node2&#45;&gt;Node1</title>
<path fill="none" stroke="#191970" d="M151.8703,-56.3733C126.9232,-47.1822 89.1408,-33.2624 61.4794,-23.0713"/>
<polygon fill="#191970" stroke="#191970" points="62.3822,-19.674 51.7888,-19.5011 59.9622,-26.2424 62.3822,-19.674"/>
</g>
<!-- Node3 -->
<g id="node4" class="node">
<title>Node3</title>
<polygon fill="#ffffff" stroke="#bfbfbf" points="70.5,-.5 70.5,-19.5 153.5,-19.5 153.5,-.5 70.5,-.5"/>
<text text-anchor="middle" x="112" y="-7.5" font-family="Helvetica,sans-Serif" font-size="10.00" fill="#000000">unordered_map</text>
</g>
<!-- Node2&#45;&gt;Node3 -->
<g id="edge4" class="edge">
<title>Node2&#45;&gt;Node3</title>
<path fill="none" stroke="#191970" d="M166.5037,-56.2455C156.7558,-47.9746 142.5741,-35.9416 131.1202,-26.2232"/>
<polygon fill="#191970" stroke="#191970" points="133.2541,-23.4437 123.3646,-19.6427 128.7253,-28.7813 133.2541,-23.4437"/>
</g>
<!-- Node4 -->
<g id="node5" class="node">
<title>Node4</title>
<polygon fill="#ffffff" stroke="#bfbfbf" points="172,-.5 172,-19.5 226,-19.5 226,-.5 172,-.5"/>
<text text-anchor="middle" x="199" y="-7.5" font-family="Helvetica,sans-Serif" font-size="10.00" fill="#000000">iostream</text>
</g>
<!-- Node2&#45;&gt;Node4 -->
<g id="edge5" class="edge">
<title>Node2&#45;&gt;Node4</title>
<path fill="none" stroke="#191970" d="M181.6579,-56.2455C184.4584,-48.7776 188.409,-38.2427 191.8324,-29.1137"/>
<polygon fill="#191970" stroke="#191970" points="195.1499,-30.2349 195.384,-19.6427 188.5955,-27.777 195.1499,-30.2349"/>
</g>
<!-- Node5 -->
<g id="node6" class="node">
<title>Node5</title>
<polygon fill="#ffffff" stroke="#bfbfbf" points="244.5,-.5 244.5,-19.5 331.5,-19.5 331.5,-.5 244.5,-.5"/>
<text text-anchor="middle" x="288" y="-7.5" font-family="Helvetica,sans-Serif" font-size="10.00" fill="#000000">AMReX_Print.H</text>
</g>
<!-- Node2&#45;&gt;Node5 -->
<g id="edge6" class="edge">
<title>Node2&#45;&gt;Node5</title>
<path fill="none" stroke="#191970" d="M197.1605,-56.2455C214.5111,-47.4125 240.2901,-34.2887 259.9583,-24.2758"/>
<polygon fill="#191970" stroke="#191970" points="261.7353,-27.2986 269.059,-19.6427 258.5595,-21.0605 261.7353,-27.2986"/>
</g>
<!-- Node6 -->
<g id="node7" class="node">
<title>Node6</title>
<polygon fill="#ffffff" stroke="#bfbfbf" points="350,-.5 350,-19.5 412,-19.5 412,-.5 350,-.5"/>
<text text-anchor="middle" x="381" y="-7.5" font-family="Helvetica,sans-Serif" font-size="10.00" fill="#000000">AMReX.H</text>
</g>
<!-- Node2&#45;&gt;Node6 -->
<g id="edge7" class="edge">
<title>Node2&#45;&gt;Node6</title>
<path fill="none" stroke="#191970" d="M212.8969,-56.3733C248.1273,-46.6545 302.5247,-31.6484 339.8402,-21.3544"/>
<polygon fill="#191970" stroke="#191970" points="341.1728,-24.6176 349.882,-18.5843 339.3113,-17.8697 341.1728,-24.6176"/>
</g>
</g>
</svg>
