<?xml version="1.0" encoding="UTF-8" standalone="no"?>
<!DOCTYPE svg PUBLIC "-//W3C//DTD SVG 1.1//EN"
 "http://www.w3.org/Graphics/SVG/1.1/DTD/svg11.dtd">
<!-- Generated by graphviz version 2.40.1 (20161225.0304)
 -->
<!-- Title: PostProcessing.cpp Pages: 1 -->
<svg width="2092pt" height="274pt"
 viewBox="0.00 0.00 2091.50 274.00" xmlns="http://www.w3.org/2000/svg" xmlns:xlink="http://www.w3.org/1999/xlink">
<g id="graph0" class="graph" transform="scale(1 1) rotate(0) translate(4 270)">
<title>PostProcessing.cpp</title>
<polygon fill="#ffffff" stroke="transparent" points="-4,4 -4,-270 2087.5,-270 2087.5,4 -4,4"/>
<!-- Node0 -->
<g id="node1" class="node">
<title>Node0</title>
<polygon fill="#bfbfbf" stroke="#000000" points="1530,-246.5 1530,-265.5 1634,-265.5 1634,-246.5 1530,-246.5"/>
<text text-anchor="middle" x="1582" y="-253.5" font-family="Helvetica,sans-Serif" font-size="10.00" fill="#000000">PostProcessing.cpp</text>
</g>
<!-- Node1 -->
<g id="node2" class="node">
<title>Node1</title>
<g id="a_node2"><a xlink:href="_post_processing_8_h.html" target="_top" xlink:title="amr&#45;wind/utilities\l/PostProcessing.H">
<polygon fill="#ffffff" stroke="#000000" points="1882.5,-123.5 1882.5,-153.5 1981.5,-153.5 1981.5,-123.5 1882.5,-123.5"/>
<text text-anchor="start" x="1890.5" y="-141.5" font-family="Helvetica,sans-Serif" font-size="10.00" fill="#000000">amr&#45;wind/utilities</text>
<text text-anchor="middle" x="1932" y="-130.5" font-family="Helvetica,sans-Serif" font-size="10.00" fill="#000000">/PostProcessing.H</text>
</a>
</g>
</g>
<!-- Node0&#45;&gt;Node1 -->
<g id="edge1" class="edge">
<title>Node0&#45;&gt;Node1</title>
<path fill="none" stroke="#191970" d="M1581.7639,-246.2408C1581.9848,-231.654 1584.7197,-204.3489 1601,-190 1621.0074,-172.3661 1782.2817,-153.5619 1872.1081,-144.3179"/>
<polygon fill="#191970" stroke="#191970" points="1872.57,-147.7891 1882.1632,-143.2924 1871.8596,-140.8252 1872.57,-147.7891"/>
</g>
<!-- Node8 -->
<g id="node9" class="node">
<title>Node8</title>
<g id="a_node9"><a xlink:href="_c_f_d_sim_8_h.html" target="_top" xlink:title="amr&#45;wind/CFDSim.H">
<polygon fill="#ffffff" stroke="#000000" points="1096,-190.5 1096,-209.5 1204,-209.5 1204,-190.5 1096,-190.5"/>
<text text-anchor="middle" x="1150" y="-197.5" font-family="Helvetica,sans-Serif" font-size="10.00" fill="#000000">amr&#45;wind/CFDSim.H</text>
</a>
</g>
</g>
<!-- Node0&#45;&gt;Node8 -->
<g id="edge9" class="edge">
<title>Node0&#45;&gt;Node8</title>
<path fill="none" stroke="#191970" d="M1529.8907,-249.2451C1450.7487,-238.9859 1300.3964,-219.4958 1214.4809,-208.3586"/>
<polygon fill="#191970" stroke="#191970" points="1214.699,-204.8577 1204.332,-207.043 1213.799,-211.7996 1214.699,-204.8577"/>
</g>
<!-- Node34 -->
<g id="node35" class="node">
<title>Node34</title>
<polygon fill="#ffffff" stroke="#bfbfbf" points="1610,-190.5 1610,-209.5 1726,-209.5 1726,-190.5 1610,-190.5"/>
<text text-anchor="middle" x="1668" y="-197.5" font-family="Helvetica,sans-Serif" font-size="10.00" fill="#000000">AMReX_ParmParse.H</text>
</g>
<!-- Node0&#45;&gt;Node34 -->
<g id="edge60" class="edge">
<title>Node0&#45;&gt;Node34</title>
<path fill="none" stroke="#191970" d="M1596.9801,-246.2455C1610.1751,-237.6534 1629.6051,-225.0014 1644.8079,-215.1018"/>
<polygon fill="#191970" stroke="#191970" points="1646.7215,-218.0325 1653.1916,-209.6427 1642.9017,-212.1665 1646.7215,-218.0325"/>
</g>
<!-- Node2 -->
<g id="node3" class="node">
<title>Node2</title>
<polygon fill="#ffffff" stroke="#bfbfbf" points="1774,-.5 1774,-19.5 1826,-19.5 1826,-.5 1774,-.5"/>
<text text-anchor="middle" x="1800" y="-7.5" font-family="Helvetica,sans-Serif" font-size="10.00" fill="#000000">memory</text>
</g>
<!-- Node1&#45;&gt;Node2 -->
<g id="edge2" class="edge">
<title>Node1&#45;&gt;Node2</title>
<path fill="none" stroke="#191970" d="M1961.0667,-123.4333C1988.7628,-107.111 2023.5552,-80.1596 2004,-56 1957.6654,1.2443 1913.3104,-35.2651 1836.3745,-19.9853"/>
<polygon fill="#191970" stroke="#191970" points="1836.8452,-16.5039 1826.3214,-17.7292 1835.3123,-23.334 1836.8452,-16.5039"/>
</g>
<!-- Node3 -->
<g id="node4" class="node">
<title>Node3</title>
<g id="a_node4"><a xlink:href="_factory_8_h.html" target="_top" xlink:title="amr&#45;wind/core/Factory.H">
<polygon fill="#ffffff" stroke="#000000" points="1869.5,-62 1869.5,-81 1994.5,-81 1994.5,-62 1869.5,-62"/>
<text text-anchor="middle" x="1932" y="-69" font-family="Helvetica,sans-Serif" font-size="10.00" fill="#000000">amr&#45;wind/core/Factory.H</text>
</a>
</g>
</g>
<!-- Node1&#45;&gt;Node3 -->
<g id="edge3" class="edge">
<title>Node1&#45;&gt;Node3</title>
<path fill="none" stroke="#191970" d="M1932,-123.2967C1932,-113.7699 1932,-101.3954 1932,-91.1306"/>
<polygon fill="#191970" stroke="#191970" points="1935.5001,-91.0549 1932,-81.055 1928.5001,-91.055 1935.5001,-91.0549"/>
</g>
<!-- Node3&#45;&gt;Node2 -->
<g id="edge4" class="edge">
<title>Node3&#45;&gt;Node2</title>
<path fill="none" stroke="#191970" d="M1911.375,-61.8906C1889.4827,-51.6908 1854.6807,-35.4763 1829.8073,-23.8875"/>
<polygon fill="#191970" stroke="#191970" points="1831.0228,-20.5926 1820.4802,-19.5419 1828.0665,-26.9377 1831.0228,-20.5926"/>
</g>
<!-- Node4 -->
<g id="node5" class="node">
<title>Node4</title>
<polygon fill="#ffffff" stroke="#bfbfbf" points="1496.5,-.5 1496.5,-19.5 1579.5,-19.5 1579.5,-.5 1496.5,-.5"/>
<text text-anchor="middle" x="1538" y="-7.5" font-family="Helvetica,sans-Serif" font-size="10.00" fill="#000000">unordered_map</text>
</g>
<!-- Node3&#45;&gt;Node4 -->
<g id="edge5" class="edge">
<title>Node3&#45;&gt;Node4</title>
<path fill="none" stroke="#191970" d="M1890.6105,-61.9974C1880.6184,-59.8675 1869.9521,-57.7294 1860,-56 1743.4478,-35.7464 1710.6121,-39.479 1589.7289,-20.0278"/>
<polygon fill="#191970" stroke="#191970" points="1590.1435,-16.5493 1579.7108,-18.3956 1589.0178,-23.4582 1590.1435,-16.5493"/>
</g>
<!-- Node5 -->
<g id="node6" class="node">
<title>Node5</title>
<polygon fill="#ffffff" stroke="#bfbfbf" points="1924,-.5 1924,-19.5 1978,-19.5 1978,-.5 1924,-.5"/>
<text text-anchor="middle" x="1951" y="-7.5" font-family="Helvetica,sans-Serif" font-size="10.00" fill="#000000">iostream</text>
</g>
<!-- Node3&#45;&gt;Node5 -->
<g id="edge6" class="edge">
<title>Node3&#45;&gt;Node5</title>
<path fill="none" stroke="#191970" d="M1934.9688,-61.8906C1937.6302,-53.276 1941.6171,-40.3708 1944.9491,-29.5858"/>
<polygon fill="#191970" stroke="#191970" points="1948.3816,-30.3324 1947.9894,-19.7449 1941.6935,-28.2661 1948.3816,-30.3324"/>
</g>
<!-- Node6 -->
<g id="node7" class="node">
<title>Node6</title>
<polygon fill="#ffffff" stroke="#bfbfbf" points="1996.5,-.5 1996.5,-19.5 2083.5,-19.5 2083.5,-.5 1996.5,-.5"/>
<text text-anchor="middle" x="2040" y="-7.5" font-family="Helvetica,sans-Serif" font-size="10.00" fill="#000000">AMReX_Print.H</text>
</g>
<!-- Node3&#45;&gt;Node6 -->
<g id="edge7" class="edge">
<title>Node3&#45;&gt;Node6</title>
<path fill="none" stroke="#191970" d="M1948.875,-61.8906C1966.4698,-51.8713 1994.2566,-36.0483 2014.5241,-24.5071"/>
<polygon fill="#191970" stroke="#191970" points="2016.2856,-27.5318 2023.2435,-19.5419 2012.8217,-21.4489 2016.2856,-27.5318"/>
</g>
<!-- Node7 -->
<g id="node8" class="node">
<title>Node7</title>
<polygon fill="#ffffff" stroke="#bfbfbf" points="1844,-.5 1844,-19.5 1906,-19.5 1906,-.5 1844,-.5"/>
<text text-anchor="middle" x="1875" y="-7.5" font-family="Helvetica,sans-Serif" font-size="10.00" fill="#000000">AMReX.H</text>
</g>
<!-- Node3&#45;&gt;Node7 -->
<g id="edge8" class="edge">
<title>Node3&#45;&gt;Node7</title>
<path fill="none" stroke="#191970" d="M1923.0938,-61.8906C1914.5272,-52.6478 1901.3831,-38.466 1890.9997,-27.2628"/>
<polygon fill="#191970" stroke="#191970" points="1893.3965,-24.7 1884.0318,-19.7449 1888.2625,-29.4584 1893.3965,-24.7"/>
</g>
<!-- Node9 -->
<g id="node10" class="node">
<title>Node9</title>
<polygon fill="#ffffff" stroke="#bfbfbf" points="384,-62 384,-81 490,-81 490,-62 384,-62"/>
<text text-anchor="middle" x="437" y="-69" font-family="Helvetica,sans-Serif" font-size="10.00" fill="#000000">AMReX_AmrCore.H</text>
</g>
<!-- Node8&#45;&gt;Node9 -->
<g id="edge10" class="edge">
<title>Node8&#45;&gt;Node9</title>
<path fill="none" stroke="#191970" d="M1095.7744,-192.4789C1035.4136,-183.9287 935.0284,-169.1786 849,-154 720.2631,-131.286 569.8728,-99.9455 491.2284,-83.1862"/>
<polygon fill="#191970" stroke="#191970" points="491.5883,-79.6842 481.0779,-81.0191 490.1267,-86.53 491.5883,-79.6842"/>
</g>
<!-- Node10 -->
<g id="node11" class="node">
<title>Node10</title>
<g id="a_node11"><a xlink:href="_sim_time_8_h.html" target="_top" xlink:title="amr&#45;wind/core/SimTime.H">
<polygon fill="#ffffff" stroke="#000000" points="193.5,-129 193.5,-148 324.5,-148 324.5,-129 193.5,-129"/>
<text text-anchor="middle" x="259" y="-136" font-family="Helvetica,sans-Serif" font-size="10.00" fill="#000000">amr&#45;wind/core/SimTime.H</text>
</a>
</g>
</g>
<!-- Node8&#45;&gt;Node10 -->
<g id="edge11" class="edge">
<title>Node8&#45;&gt;Node10</title>
<path fill="none" stroke="#191970" d="M1095.9383,-196.2685C943.6331,-185.7558 510.6833,-155.8721 334.7361,-143.7276"/>
<polygon fill="#191970" stroke="#191970" points="334.7488,-140.2202 324.5315,-143.0232 334.2667,-147.2036 334.7488,-140.2202"/>
</g>
<!-- Node14 -->
<g id="node15" class="node">
<title>Node14</title>
<g id="a_node15"><a xlink:href="_field_repo_8_h.html" target="_top" xlink:title="amr&#45;wind/core/FieldRepo.H">
<polygon fill="#ffffff" stroke="#000000" points="858,-129 858,-148 994,-148 994,-129 858,-129"/>
<text text-anchor="middle" x="926" y="-136" font-family="Helvetica,sans-Serif" font-size="10.00" fill="#000000">amr&#45;wind/core/FieldRepo.H</text>
</a>
</g>
</g>
<!-- Node8&#45;&gt;Node14 -->
<g id="edge15" class="edge">
<title>Node8&#45;&gt;Node14</title>
<path fill="none" stroke="#191970" d="M1115,-190.3906C1076.0412,-179.6944 1012.9907,-162.3836 970.5429,-150.7294"/>
<polygon fill="#191970" stroke="#191970" points="971.3241,-147.3144 960.7542,-148.0419 969.4707,-154.0646 971.3241,-147.3144"/>
</g>
<!-- Node27 -->
<g id="node28" class="node">
<title>Node27</title>
<g id="a_node28"><a xlink:href="_p_d_e_base_8_h.html" target="_top" xlink:title="amr&#45;wind/equation_systems\l/PDEBase.H">
<polygon fill="#ffffff" stroke="#000000" points="1304.5,-123.5 1304.5,-153.5 1443.5,-153.5 1443.5,-123.5 1304.5,-123.5"/>
<text text-anchor="start" x="1312.5" y="-141.5" font-family="Helvetica,sans-Serif" font-size="10.00" fill="#000000">amr&#45;wind/equation_systems</text>
<text text-anchor="middle" x="1374" y="-130.5" font-family="Helvetica,sans-Serif" font-size="10.00" fill="#000000">/PDEBase.H</text>
</a>
</g>
</g>
<!-- Node8&#45;&gt;Node27 -->
<g id="edge43" class="edge">
<title>Node8&#45;&gt;Node27</title>
<path fill="none" stroke="#191970" d="M1185,-190.3906C1218.1929,-181.2774 1268.8741,-167.3627 1309.4013,-156.2358"/>
<polygon fill="#191970" stroke="#191970" points="1310.487,-159.5673 1319.2034,-153.5446 1308.6336,-152.8171 1310.487,-159.5673"/>
</g>
<!-- Node32 -->
<g id="node33" class="node">
<title>Node32</title>
<g id="a_node33"><a xlink:href="_physics_8_h.html" target="_top" xlink:title="amr&#45;wind/core/Physics.H">
<polygon fill="#ffffff" stroke="#000000" points="1596.5,-129 1596.5,-148 1723.5,-148 1723.5,-129 1596.5,-129"/>
<text text-anchor="middle" x="1660" y="-136" font-family="Helvetica,sans-Serif" font-size="10.00" fill="#000000">amr&#45;wind/core/Physics.H</text>
</a>
</g>
</g>
<!-- Node8&#45;&gt;Node32 -->
<g id="edge55" class="edge">
<title>Node8&#45;&gt;Node32</title>
<path fill="none" stroke="#191970" d="M1204.0961,-193.4766C1295.8914,-182.4072 1482.2788,-159.9311 1586.0506,-147.4174"/>
<polygon fill="#191970" stroke="#191970" points="1586.6269,-150.8734 1596.1359,-146.2013 1585.7888,-143.9237 1586.6269,-150.8734"/>
</g>
<!-- Node11 -->
<g id="node12" class="node">
<title>Node11</title>
<polygon fill="#ffffff" stroke="#bfbfbf" points="272.5,-62 272.5,-81 365.5,-81 365.5,-62 272.5,-62"/>
<text text-anchor="middle" x="319" y="-69" font-family="Helvetica,sans-Serif" font-size="10.00" fill="#000000">AMReX_REAL.H</text>
</g>
<!-- Node10&#45;&gt;Node11 -->
<g id="edge12" class="edge">
<title>Node10&#45;&gt;Node11</title>
<path fill="none" stroke="#191970" d="M267.5965,-128.9005C276.953,-118.4525 292.1052,-101.5325 303.5401,-88.7635"/>
<polygon fill="#191970" stroke="#191970" points="306.3555,-90.8661 310.4194,-81.0817 301.1408,-86.1963 306.3555,-90.8661"/>
</g>
<!-- Node12 -->
<g id="node13" class="node">
<title>Node12</title>
<polygon fill="#ffffff" stroke="#bfbfbf" points="0,-62 0,-81 126,-81 126,-62 0,-62"/>
<text text-anchor="middle" x="63" y="-69" font-family="Helvetica,sans-Serif" font-size="10.00" fill="#000000">AMReX_GpuQualifiers.H</text>
</g>
<!-- Node10&#45;&gt;Node12 -->
<g id="edge13" class="edge">
<title>Node10&#45;&gt;Node12</title>
<path fill="none" stroke="#191970" d="M230.918,-128.9005C196.7149,-117.2086 138.8028,-97.4122 100.7303,-84.3976"/>
<polygon fill="#191970" stroke="#191970" points="101.6245,-81.0045 91.0299,-81.0817 99.3602,-87.6282 101.6245,-81.0045"/>
</g>
<!-- Node13 -->
<g id="node14" class="node">
<title>Node13</title>
<polygon fill="#ffffff" stroke="#bfbfbf" points="144,-62 144,-81 254,-81 254,-62 144,-62"/>
<text text-anchor="middle" x="199" y="-69" font-family="Helvetica,sans-Serif" font-size="10.00" fill="#000000">AMReX_Extension.H</text>
</g>
<!-- Node10&#45;&gt;Node13 -->
<g id="edge14" class="edge">
<title>Node10&#45;&gt;Node13</title>
<path fill="none" stroke="#191970" d="M250.4035,-128.9005C241.047,-118.4525 225.8948,-101.5325 214.4599,-88.7635"/>
<polygon fill="#191970" stroke="#191970" points="216.8592,-86.1963 207.5806,-81.0817 211.6445,-90.8661 216.8592,-86.1963"/>
</g>
<!-- Node14&#45;&gt;Node4 -->
<g id="edge17" class="edge">
<title>Node14&#45;&gt;Node4</title>
<path fill="none" stroke="#191970" d="M994.3423,-136.1542C1079.9303,-131.8889 1230.4567,-119.9814 1355,-87 1362.7508,-84.9474 1455.9349,-45.1903 1506.2487,-23.6302"/>
<polygon fill="#191970" stroke="#191970" points="1507.8901,-26.7347 1515.7019,-19.5774 1505.1318,-20.301 1507.8901,-26.7347"/>
</g>
<!-- Node14&#45;&gt;Node9 -->
<g id="edge40" class="edge">
<title>Node14&#45;&gt;Node9</title>
<path fill="none" stroke="#191970" d="M857.6986,-132.4101C773.9728,-124.429 627.933,-108.8345 504,-87 497.827,-85.9124 491.3681,-84.6191 485.0001,-83.25"/>
<polygon fill="#191970" stroke="#191970" points="485.6435,-79.8077 475.1224,-81.0551 484.1251,-86.641 485.6435,-79.8077"/>
</g>
<!-- Node15 -->
<g id="node16" class="node">
<title>Node15</title>
<polygon fill="#ffffff" stroke="#bfbfbf" points="1070.5,-.5 1070.5,-19.5 1111.5,-19.5 1111.5,-.5 1070.5,-.5"/>
<text text-anchor="middle" x="1091" y="-7.5" font-family="Helvetica,sans-Serif" font-size="10.00" fill="#000000">string</text>
</g>
<!-- Node14&#45;&gt;Node15 -->
<g id="edge16" class="edge">
<title>Node14&#45;&gt;Node15</title>
<path fill="none" stroke="#191970" d="M989.3106,-128.9585C1036.1872,-120.4483 1094.3531,-106.3378 1109,-87 1121.8881,-69.9843 1112.4807,-45.2337 1103.1065,-28.4207"/>
<polygon fill="#191970" stroke="#191970" points="1105.922,-26.312 1097.7597,-19.5572 1099.9281,-29.9278 1105.922,-26.312"/>
</g>
<!-- Node16 -->
<g id="node17" class="node">
<title>Node16</title>
<g id="a_node17"><a xlink:href="_field_desc_types_8_h.html" target="_top" xlink:title="amr&#45;wind/core/FieldDescTypes.H">
<polygon fill="#ffffff" stroke="#000000" points="766.5,-.5 766.5,-19.5 929.5,-19.5 929.5,-.5 766.5,-.5"/>
<text text-anchor="middle" x="848" y="-7.5" font-family="Helvetica,sans-Serif" font-size="10.00" fill="#000000">amr&#45;wind/core/FieldDescTypes.H</text>
</a>
</g>
</g>
<!-- Node14&#45;&gt;Node16 -->
<g id="edge18" class="edge">
<title>Node14&#45;&gt;Node16</title>
<path fill="none" stroke="#191970" d="M857.7436,-129.8039C806.7196,-121.7377 743.1112,-107.8115 727,-87 718.5659,-76.1054 719.1779,-67.342 727,-56 735.7408,-43.326 769.7848,-31.042 799.5436,-22.3609"/>
<polygon fill="#191970" stroke="#191970" points="800.7618,-25.6536 809.4287,-19.5596 798.8533,-18.9188 800.7618,-25.6536"/>
</g>
<!-- Node17 -->
<g id="node18" class="node">
<title>Node17</title>
<g id="a_node18"><a xlink:href="_field_utils_8_h.html" target="_top" xlink:title="amr&#45;wind/core/FieldUtils.H">
<polygon fill="#ffffff" stroke="#000000" points="546.5,-62 546.5,-81 679.5,-81 679.5,-62 546.5,-62"/>
<text text-anchor="middle" x="613" y="-69" font-family="Helvetica,sans-Serif" font-size="10.00" fill="#000000">amr&#45;wind/core/FieldUtils.H</text>
</a>
</g>
</g>
<!-- Node14&#45;&gt;Node17 -->
<g id="edge19" class="edge">
<title>Node14&#45;&gt;Node17</title>
<path fill="none" stroke="#191970" d="M881.4871,-128.9717C825.1307,-116.9082 728.0877,-96.1354 667.3971,-83.1441"/>
<polygon fill="#191970" stroke="#191970" points="668.1235,-79.7204 657.6124,-81.0496 666.6583,-86.5653 668.1235,-79.7204"/>
</g>
<!-- Node18 -->
<g id="node19" class="node">
<title>Node18</title>
<polygon fill="#ffffff" stroke="#bfbfbf" points="948,-.5 948,-19.5 1052,-19.5 1052,-.5 948,-.5"/>
<text text-anchor="middle" x="1000" y="-7.5" font-family="Helvetica,sans-Serif" font-size="10.00" fill="#000000">AMReX_MultiFab.H</text>
</g>
<!-- Node14&#45;&gt;Node18 -->
<g id="edge41" class="edge">
<title>Node14&#45;&gt;Node18</title>
<path fill="none" stroke="#191970" d="M926.2643,-128.8564C927.1137,-112.6494 930.6266,-79.4271 945,-56 952.4995,-43.7767 964.3873,-33.2392 975.1952,-25.3455"/>
<polygon fill="#191970" stroke="#191970" points="977.2814,-28.1584 983.5269,-19.6001 973.3075,-22.3957 977.2814,-28.1584"/>
</g>
<!-- Node20 -->
<g id="node21" class="node">
<title>Node20</title>
<g id="a_node21"><a xlink:href="_field_8_h.html" target="_top" xlink:title="amr&#45;wind/core/Field.H">
<polygon fill="#ffffff" stroke="#000000" points="1232.5,-62 1232.5,-81 1345.5,-81 1345.5,-62 1232.5,-62"/>
<text text-anchor="middle" x="1289" y="-69" font-family="Helvetica,sans-Serif" font-size="10.00" fill="#000000">amr&#45;wind/core/Field.H</text>
</a>
</g>
</g>
<!-- Node14&#45;&gt;Node20 -->
<g id="edge23" class="edge">
<title>Node14&#45;&gt;Node20</title>
<path fill="none" stroke="#191970" d="M977.6235,-128.9717C1043.3869,-116.8335 1156.9218,-95.8781 1227.2145,-82.9039"/>
<polygon fill="#191970" stroke="#191970" points="1228.0624,-86.3066 1237.261,-81.0496 1226.7918,-79.4229 1228.0624,-86.3066"/>
</g>
<!-- Node24 -->
<g id="node25" class="node">
<title>Node24</title>
<g id="a_node25"><a xlink:href="_int_field_8_h.html" target="_top" xlink:title="amr&#45;wind/core/IntField.H">
<polygon fill="#ffffff" stroke="#000000" points="736,-62 736,-81 860,-81 860,-62 736,-62"/>
<text text-anchor="middle" x="798" y="-69" font-family="Helvetica,sans-Serif" font-size="10.00" fill="#000000">amr&#45;wind/core/IntField.H</text>
</a>
</g>
</g>
<!-- Node14&#45;&gt;Node24 -->
<g id="edge32" class="edge">
<title>Node14&#45;&gt;Node24</title>
<path fill="none" stroke="#191970" d="M907.6607,-128.9005C886.0844,-117.6067 850.0609,-98.7506 825.2234,-85.7497"/>
<polygon fill="#191970" stroke="#191970" points="826.7881,-82.6183 816.3053,-81.0817 823.5418,-88.8201 826.7881,-82.6183"/>
</g>
<!-- Node25 -->
<g id="node26" class="node">
<title>Node25</title>
<polygon fill="#ffffff" stroke="#bfbfbf" points="641.5,-.5 641.5,-19.5 748.5,-19.5 748.5,-.5 641.5,-.5"/>
<text text-anchor="middle" x="695" y="-7.5" font-family="Helvetica,sans-Serif" font-size="10.00" fill="#000000">AMReX_iMultiFab.H</text>
</g>
<!-- Node14&#45;&gt;Node25 -->
<g id="edge42" class="edge">
<title>Node14&#45;&gt;Node25</title>
<path fill="none" stroke="#191970" d="M857.6239,-134.2813C751.6667,-127.0388 557.7656,-110.696 537,-87 527.9194,-76.638 528.7307,-67.0202 537,-56 548.6481,-40.4771 592.4325,-28.4747 630.9631,-20.628"/>
<polygon fill="#191970" stroke="#191970" points="632.0045,-23.9902 641.14,-18.6244 630.6523,-17.122 632.0045,-23.9902"/>
</g>
<!-- Node26 -->
<g id="node27" class="node">
<title>Node26</title>
<g id="a_node27"><a xlink:href="_scratch_field_8_h.html" target="_top" xlink:title="amr&#45;wind/core/ScratchField.H">
<polygon fill="#ffffff" stroke="#000000" points="954,-62 954,-81 1100,-81 1100,-62 954,-62"/>
<text text-anchor="middle" x="1027" y="-69" font-family="Helvetica,sans-Serif" font-size="10.00" fill="#000000">amr&#45;wind/core/ScratchField.H</text>
</a>
</g>
</g>
<!-- Node14&#45;&gt;Node26 -->
<g id="edge36" class="edge">
<title>Node14&#45;&gt;Node26</title>
<path fill="none" stroke="#191970" d="M940.4708,-128.9005C957.1209,-117.8554 984.674,-99.5776 1004.2114,-86.6172"/>
<polygon fill="#191970" stroke="#191970" points="1006.1576,-89.5263 1012.556,-81.0817 1002.288,-83.693 1006.1576,-89.5263"/>
</g>
<!-- Node17&#45;&gt;Node16 -->
<g id="edge20" class="edge">
<title>Node17&#45;&gt;Node16</title>
<path fill="none" stroke="#191970" d="M649.4609,-61.9581C690.4515,-51.2308 757.0969,-33.7895 801.726,-22.11"/>
<polygon fill="#191970" stroke="#191970" points="802.6655,-25.4821 811.4536,-19.5643 800.8932,-18.7101 802.6655,-25.4821"/>
</g>
<!-- Node17&#45;&gt;Node18 -->
<g id="edge21" class="edge">
<title>Node17&#45;&gt;Node18</title>
<path fill="none" stroke="#191970" d="M673.5058,-61.9632C738.7796,-51.663 845.7676,-34.7457 938,-20 938.1009,-19.9839 938.202,-19.9677 938.3031,-19.9515"/>
<polygon fill="#191970" stroke="#191970" points="938.5861,-23.4509 947.9065,-18.4129 937.4787,-16.5391 938.5861,-23.4509"/>
</g>
<!-- Node19 -->
<g id="node20" class="node">
<title>Node19</title>
<polygon fill="#ffffff" stroke="#bfbfbf" points="507,-.5 507,-19.5 623,-19.5 623,-.5 507,-.5"/>
<text text-anchor="middle" x="565" y="-7.5" font-family="Helvetica,sans-Serif" font-size="10.00" fill="#000000">AMReX_Interpolater.H</text>
</g>
<!-- Node17&#45;&gt;Node19 -->
<g id="edge22" class="edge">
<title>Node17&#45;&gt;Node19</title>
<path fill="none" stroke="#191970" d="M605.5,-61.8906C598.4262,-52.8273 587.6458,-39.0149 578.9854,-27.9188"/>
<polygon fill="#191970" stroke="#191970" points="581.5176,-25.4746 572.6057,-19.7449 575.9994,-29.7815 581.5176,-25.4746"/>
</g>
<!-- Node20&#45;&gt;Node2 -->
<g id="edge25" class="edge">
<title>Node20&#45;&gt;Node2</title>
<path fill="none" stroke="#191970" d="M1345.7153,-65.3488C1371.9686,-62.5024 1403.5734,-59.0772 1432,-56 1576.8181,-40.3235 1617.1794,-48.1946 1763.9218,-19.9361"/>
<polygon fill="#191970" stroke="#191970" points="1764.5978,-23.3703 1773.7436,-18.0218 1763.2587,-16.4995 1764.5978,-23.3703"/>
</g>
<!-- Node20&#45;&gt;Node4 -->
<g id="edge26" class="edge">
<title>Node20&#45;&gt;Node4</title>
<path fill="none" stroke="#191970" d="M1327.633,-61.9581C1371.2481,-51.1857 1442.2753,-33.6428 1489.5641,-21.9631"/>
<polygon fill="#191970" stroke="#191970" points="1490.4073,-25.3601 1499.2763,-19.5643 1488.7288,-18.5643 1490.4073,-25.3601"/>
</g>
<!-- Node20&#45;&gt;Node15 -->
<g id="edge24" class="edge">
<title>Node20&#45;&gt;Node15</title>
<path fill="none" stroke="#191970" d="M1256.4922,-61.9747C1224.382,-52.4822 1173.6484,-37.2608 1121.3446,-20.367"/>
<polygon fill="#191970" stroke="#191970" points="1122.1562,-16.9508 1111.5642,-17.1941 1119.9961,-23.6092 1122.1562,-16.9508"/>
</g>
<!-- Node20&#45;&gt;Node16 -->
<g id="edge31" class="edge">
<title>Node20&#45;&gt;Node16</title>
<path fill="none" stroke="#191970" d="M1232.2498,-63.5859C1154.4104,-52.7307 1014.2001,-33.1776 926.3854,-20.9313"/>
<polygon fill="#191970" stroke="#191970" points="926.86,-17.4637 916.4724,-19.5489 925.8931,-24.3966 926.86,-17.4637"/>
</g>
<!-- Node20&#45;&gt;Node18 -->
<g id="edge27" class="edge">
<title>Node20&#45;&gt;Node18</title>
<path fill="none" stroke="#191970" d="M1245.4544,-61.9433C1236.3837,-59.9667 1226.8817,-57.9065 1218,-56 1162.7394,-44.1379 1099.5407,-30.831 1055.4686,-21.593"/>
<polygon fill="#191970" stroke="#191970" points="1056.0359,-18.1359 1045.5306,-19.5109 1054.6004,-24.9872 1056.0359,-18.1359"/>
</g>
<!-- Node21 -->
<g id="node22" class="node">
<title>Node21</title>
<polygon fill="#ffffff" stroke="#bfbfbf" points="1129.5,-.5 1129.5,-19.5 1228.5,-19.5 1228.5,-.5 1129.5,-.5"/>
<text text-anchor="middle" x="1179" y="-7.5" font-family="Helvetica,sans-Serif" font-size="10.00" fill="#000000">AMReX_BCRec.H</text>
</g>
<!-- Node20&#45;&gt;Node21 -->
<g id="edge28" class="edge">
<title>Node20&#45;&gt;Node21</title>
<path fill="none" stroke="#191970" d="M1271.8125,-61.8906C1253.8918,-51.8713 1225.5905,-36.0483 1204.9477,-24.5071"/>
<polygon fill="#191970" stroke="#191970" points="1206.5033,-21.367 1196.0668,-19.5419 1203.0872,-27.4769 1206.5033,-21.367"/>
</g>
<!-- Node22 -->
<g id="node23" class="node">
<title>Node22</title>
<polygon fill="#ffffff" stroke="#bfbfbf" points="1246.5,-.5 1246.5,-19.5 1331.5,-19.5 1331.5,-.5 1246.5,-.5"/>
<text text-anchor="middle" x="1289" y="-7.5" font-family="Helvetica,sans-Serif" font-size="10.00" fill="#000000">AMReX_Gpu.H</text>
</g>
<!-- Node20&#45;&gt;Node22 -->
<g id="edge29" class="edge">
<title>Node20&#45;&gt;Node22</title>
<path fill="none" stroke="#191970" d="M1289,-61.8906C1289,-53.3657 1289,-40.6392 1289,-29.9235"/>
<polygon fill="#191970" stroke="#191970" points="1292.5001,-29.7448 1289,-19.7449 1285.5001,-29.7449 1292.5001,-29.7448"/>
</g>
<!-- Node23 -->
<g id="node24" class="node">
<title>Node23</title>
<g id="a_node24"><a xlink:href="incflo__enums_8_h.html" target="_top" xlink:title="amr&#45;wind/incflo_enums.H">
<polygon fill="#ffffff" stroke="#000000" points="1350,-.5 1350,-19.5 1478,-19.5 1478,-.5 1350,-.5"/>
<text text-anchor="middle" x="1414" y="-7.5" font-family="Helvetica,sans-Serif" font-size="10.00" fill="#000000">amr&#45;wind/incflo_enums.H</text>
</a>
</g>
</g>
<!-- Node20&#45;&gt;Node23 -->
<g id="edge30" class="edge">
<title>Node20&#45;&gt;Node23</title>
<path fill="none" stroke="#191970" d="M1308.5313,-61.8906C1329.1708,-51.7359 1361.9276,-35.6196 1385.4602,-24.0416"/>
<polygon fill="#191970" stroke="#191970" points="1387.1782,-27.0971 1394.6059,-19.5419 1384.088,-20.8161 1387.1782,-27.0971"/>
</g>
<!-- Node24&#45;&gt;Node15 -->
<g id="edge33" class="edge">
<title>Node24&#45;&gt;Node15</title>
<path fill="none" stroke="#191970" d="M858.297,-61.9598C909.6237,-53.3257 985.419,-39.3672 1060.3612,-19.8934"/>
<polygon fill="#191970" stroke="#191970" points="1061.669,-23.1684 1070.448,-17.2371 1059.8863,-16.3992 1061.669,-23.1684"/>
</g>
<!-- Node24&#45;&gt;Node16 -->
<g id="edge34" class="edge">
<title>Node24&#45;&gt;Node16</title>
<path fill="none" stroke="#191970" d="M805.8125,-61.8906C813.254,-52.7376 824.6334,-38.7409 833.6992,-27.59"/>
<polygon fill="#191970" stroke="#191970" points="836.4847,-29.712 840.0774,-19.7449 831.0533,-25.2962 836.4847,-29.712"/>
</g>
<!-- Node24&#45;&gt;Node25 -->
<g id="edge35" class="edge">
<title>Node24&#45;&gt;Node25</title>
<path fill="none" stroke="#191970" d="M781.9063,-61.8906C765.2772,-51.9616 739.1024,-36.333 719.8206,-24.8201"/>
<polygon fill="#191970" stroke="#191970" points="721.361,-21.6634 710.9807,-19.5419 717.7724,-27.6736 721.361,-21.6634"/>
</g>
<!-- Node26&#45;&gt;Node15 -->
<g id="edge37" class="edge">
<title>Node26&#45;&gt;Node15</title>
<path fill="none" stroke="#191970" d="M1037,-61.8906C1046.7119,-52.5581 1061.6639,-38.1902 1073.3741,-26.9374"/>
<polygon fill="#191970" stroke="#191970" points="1076.0736,-29.1974 1080.859,-19.7449 1071.2234,-24.15 1076.0736,-29.1974"/>
</g>
<!-- Node26&#45;&gt;Node16 -->
<g id="edge38" class="edge">
<title>Node26&#45;&gt;Node16</title>
<path fill="none" stroke="#191970" d="M999.0313,-61.8906C968.4245,-51.3749 919.2101,-34.466 885.3259,-22.8243"/>
<polygon fill="#191970" stroke="#191970" points="886.367,-19.4812 875.7724,-19.5419 884.0924,-26.1014 886.367,-19.4812"/>
</g>
<!-- Node26&#45;&gt;Node18 -->
<g id="edge39" class="edge">
<title>Node26&#45;&gt;Node18</title>
<path fill="none" stroke="#191970" d="M1022.7813,-61.8906C1018.9204,-53.0965 1013.0966,-39.8312 1008.3039,-28.9145"/>
<polygon fill="#191970" stroke="#191970" points="1011.5029,-27.4943 1004.2782,-19.7449 1005.0934,-30.3083 1011.5029,-27.4943"/>
</g>
<!-- Node27&#45;&gt;Node3 -->
<g id="edge45" class="edge">
<title>Node27&#45;&gt;Node3</title>
<path fill="none" stroke="#191970" d="M1443.5208,-133.474C1538.1314,-126.1014 1712.5477,-110.6154 1860,-87 1866.871,-85.8996 1874.0745,-84.5665 1881.1587,-83.1495"/>
<polygon fill="#191970" stroke="#191970" points="1882.3163,-86.4842 1891.3997,-81.0306 1880.898,-79.6294 1882.3163,-86.4842"/>
</g>
<!-- Node27&#45;&gt;Node15 -->
<g id="edge44" class="edge">
<title>Node27&#45;&gt;Node15</title>
<path fill="none" stroke="#191970" d="M1321.6404,-123.4708C1292.1159,-114.3003 1254.872,-101.5548 1223,-87 1183.0216,-68.7433 1139.5102,-41.8719 1113.7785,-25.1795"/>
<polygon fill="#191970" stroke="#191970" points="1115.4258,-22.0746 1105.1422,-19.525 1111.5913,-27.931 1115.4258,-22.0746"/>
</g>
<!-- Node27&#45;&gt;Node16 -->
<g id="edge53" class="edge">
<title>Node27&#45;&gt;Node16</title>
<path fill="none" stroke="#191970" d="M1304.2682,-134.7455C1199.8227,-128.3468 1008.2601,-113.39 945,-87 912.3044,-73.3605 881.5142,-45.3816 863.7206,-27.1715"/>
<polygon fill="#191970" stroke="#191970" points="865.9272,-24.4129 856.4995,-19.5787 860.8548,-29.237 865.9272,-24.4129"/>
</g>
<!-- Node27&#45;&gt;Node23 -->
<g id="edge54" class="edge">
<title>Node27&#45;&gt;Node23</title>
<path fill="none" stroke="#191970" d="M1378.7456,-123.2548C1386.0249,-99.87 1399.9418,-55.1619 1407.9404,-29.4665"/>
<polygon fill="#191970" stroke="#191970" points="1411.339,-30.3242 1410.9694,-19.7358 1404.6553,-28.2436 1411.339,-30.3242"/>
</g>
<!-- Node28 -->
<g id="node29" class="node">
<title>Node28</title>
<g id="a_node29"><a xlink:href="_coll_mgr_8_h.html" target="_top" xlink:title="amr&#45;wind/core/CollMgr.H">
<polygon fill="#ffffff" stroke="#000000" points="1597.5,-62 1597.5,-81 1722.5,-81 1722.5,-62 1597.5,-62"/>
<text text-anchor="middle" x="1660" y="-69" font-family="Helvetica,sans-Serif" font-size="10.00" fill="#000000">amr&#45;wind/core/CollMgr.H</text>
</a>
</g>
</g>
<!-- Node27&#45;&gt;Node28 -->
<g id="edge46" class="edge">
<title>Node27&#45;&gt;Node28</title>
<path fill="none" stroke="#191970" d="M1438.184,-123.4639C1489.9996,-111.3253 1561.8928,-94.4831 1609.6228,-83.3016"/>
<polygon fill="#191970" stroke="#191970" points="1610.4871,-86.694 1619.4252,-81.0053 1608.8904,-79.8785 1610.4871,-86.694"/>
</g>
<!-- Node30 -->
<g id="node31" class="node">
<title>Node30</title>
<g id="a_node31"><a xlink:href="_p_d_e_fields_8_h.html" target="_top" xlink:title="amr&#45;wind/equation_systems\l/PDEFields.H">
<polygon fill="#ffffff" stroke="#000000" points="1440.5,-56.5 1440.5,-86.5 1579.5,-86.5 1579.5,-56.5 1440.5,-56.5"/>
<text text-anchor="start" x="1448.5" y="-74.5" font-family="Helvetica,sans-Serif" font-size="10.00" fill="#000000">amr&#45;wind/equation_systems</text>
<text text-anchor="middle" x="1510" y="-63.5" font-family="Helvetica,sans-Serif" font-size="10.00" fill="#000000">/PDEFields.H</text>
</a>
</g>
</g>
<!-- Node27&#45;&gt;Node30 -->
<g id="edge51" class="edge">
<title>Node27&#45;&gt;Node30</title>
<path fill="none" stroke="#191970" d="M1404.5211,-123.4639C1423.8955,-113.9191 1449.173,-101.4663 1470.1257,-91.144"/>
<polygon fill="#191970" stroke="#191970" points="1471.6865,-94.2768 1479.1103,-86.7177 1468.593,-87.9974 1471.6865,-94.2768"/>
</g>
<!-- Node28&#45;&gt;Node2 -->
<g id="edge48" class="edge">
<title>Node28&#45;&gt;Node2</title>
<path fill="none" stroke="#191970" d="M1681.875,-61.8906C1705.2996,-51.6005 1742.6596,-35.1888 1769.0841,-23.5809"/>
<polygon fill="#191970" stroke="#191970" points="1770.5307,-26.7683 1778.2786,-19.5419 1767.7154,-20.3594 1770.5307,-26.7683"/>
</g>
<!-- Node28&#45;&gt;Node4 -->
<g id="edge49" class="edge">
<title>Node28&#45;&gt;Node4</title>
<path fill="none" stroke="#191970" d="M1640.9375,-61.8906C1620.8828,-51.7811 1589.1066,-35.7628 1566.1616,-24.1962"/>
<polygon fill="#191970" stroke="#191970" points="1567.4337,-20.918 1556.9286,-19.5419 1564.2827,-27.1687 1567.4337,-20.918"/>
</g>
<!-- Node28&#45;&gt;Node15 -->
<g id="edge47" class="edge">
<title>Node28&#45;&gt;Node15</title>
<path fill="none" stroke="#191970" d="M1621.1164,-61.9961C1610.7343,-59.7375 1599.4856,-57.5394 1589,-56 1385.3916,-26.1073 1326.5403,-61.2877 1121.6012,-19.8891"/>
<polygon fill="#191970" stroke="#191970" points="1122.2306,-16.4454 1111.7306,-17.8593 1120.8206,-23.3019 1122.2306,-16.4454"/>
</g>
<!-- Node29 -->
<g id="node30" class="node">
<title>Node29</title>
<polygon fill="#ffffff" stroke="#bfbfbf" points="1660.5,-.5 1660.5,-19.5 1755.5,-19.5 1755.5,-.5 1660.5,-.5"/>
<text text-anchor="middle" x="1708" y="-7.5" font-family="Helvetica,sans-Serif" font-size="10.00" fill="#000000">AMReX_Vector.H</text>
</g>
<!-- Node28&#45;&gt;Node29 -->
<g id="edge50" class="edge">
<title>Node28&#45;&gt;Node29</title>
<path fill="none" stroke="#191970" d="M1667.5,-61.8906C1674.5738,-52.8273 1685.3542,-39.0149 1694.0146,-27.9188"/>
<polygon fill="#191970" stroke="#191970" points="1697.0006,-29.7815 1700.3943,-19.7449 1691.4824,-25.4746 1697.0006,-29.7815"/>
</g>
<!-- Node31 -->
<g id="node32" class="node">
<title>Node31</title>
<polygon fill="#ffffff" stroke="#bfbfbf" points="1597.5,-.5 1597.5,-19.5 1642.5,-19.5 1642.5,-.5 1597.5,-.5"/>
<text text-anchor="middle" x="1620" y="-7.5" font-family="Helvetica,sans-Serif" font-size="10.00" fill="#000000">iosfwd</text>
</g>
<!-- Node30&#45;&gt;Node31 -->
<g id="edge52" class="edge">
<title>Node30&#45;&gt;Node31</title>
<path fill="none" stroke="#191970" d="M1536.909,-56.4554C1554.2968,-46.734 1576.8049,-34.15 1594.0084,-24.5317"/>
<polygon fill="#191970" stroke="#191970" points="1595.9335,-27.4653 1602.9539,-19.5303 1592.5174,-21.3554 1595.9335,-27.4653"/>
</g>
<!-- Node32&#45;&gt;Node3 -->
<g id="edge56" class="edge">
<title>Node32&#45;&gt;Node3</title>
<path fill="none" stroke="#191970" d="M1698.6821,-128.9717C1747.1836,-117.0246 1830.3627,-96.5357 1883.1921,-83.5225"/>
<polygon fill="#191970" stroke="#191970" points="1884.1383,-86.8942 1893.011,-81.1039 1882.464,-80.0973 1884.1383,-86.8942"/>
</g>
<!-- Node32&#45;&gt;Node18 -->
<g id="edge58" class="edge">
<title>Node32&#45;&gt;Node18</title>
<path fill="none" stroke="#191970" d="M1596.2172,-132.6863C1492.6364,-122.9583 1292.4427,-102.8858 1223,-87 1152.9915,-70.9848 1074.2693,-40.7853 1031.6128,-23.3452"/>
<polygon fill="#191970" stroke="#191970" points="1032.9014,-20.0907 1022.3223,-19.5147 1030.2332,-26.5623 1032.9014,-20.0907"/>
</g>
<!-- Node32&#45;&gt;Node28 -->
<g id="edge57" class="edge">
<title>Node32&#45;&gt;Node28</title>
<path fill="none" stroke="#191970" d="M1660,-128.9005C1660,-119.149 1660,-103.7597 1660,-91.3695"/>
<polygon fill="#191970" stroke="#191970" points="1663.5001,-91.0816 1660,-81.0817 1656.5001,-91.0817 1663.5001,-91.0816"/>
</g>
<!-- Node33 -->
<g id="node34" class="node">
<title>Node33</title>
<polygon fill="#ffffff" stroke="#bfbfbf" points="1741,-62 1741,-81 1851,-81 1851,-62 1741,-62"/>
<text text-anchor="middle" x="1796" y="-69" font-family="Helvetica,sans-Serif" font-size="10.00" fill="#000000">AMReX_Geometry.H</text>
</g>
<!-- Node32&#45;&gt;Node33 -->
<g id="edge59" class="edge">
<title>Node32&#45;&gt;Node33</title>
<path fill="none" stroke="#191970" d="M1679.4855,-128.9005C1702.5113,-117.5569 1741.0228,-98.5844 1767.4232,-85.5783"/>
<polygon fill="#191970" stroke="#191970" points="1769.1269,-88.6407 1776.5507,-81.0817 1766.0334,-82.3613 1769.1269,-88.6407"/>
</g>
</g>
</svg>
