<?xml version="1.0" encoding="UTF-8" standalone="no"?>
<!DOCTYPE svg PUBLIC "-//W3C//DTD SVG 1.1//EN"
 "http://www.w3.org/Graphics/SVG/1.1/DTD/svg11.dtd">
<!-- Generated by graphviz version 2.40.1 (20161225.0304)
 -->
<!-- Title: ProbeSampler.cpp Pages: 1 -->
<!--zoomable 285 -->
<svg id="main" version="1.1" xmlns="http://www.w3.org/2000/svg" xmlns:xlink="http://www.w3.org/1999/xlink" xml:space="preserve" onload="init(evt)">
<style type="text/css"><![CDATA[
.edge:hover path { stroke: red; }
.edge:hover polygon { stroke: red; fill: red; }
]]></style>
<script type="text/javascript"><![CDATA[
var edges = document.getElementsByTagName('g');
if (edges && edges.length) {
  for (var i=0;i<edges.length;i++) {
    if (edges[i].id.substr(0,4)=='edge') {
      edges[i].setAttribute('class','edge');
    }
  }
}
]]></script>
        <defs>
                <circle id="rim" cx="0" cy="0" r="7"/>
                <circle id="rim2" cx="0" cy="0" r="3.5"/>
                <g id="zoomPlus">
                        <use xlink:href="#rim" fill="#404040">
                                <set attributeName="fill" to="#808080" begin="zoomplus.mouseover" end="zoomplus.mouseout"/>
                        </use>
                        <path d="M-4,0h8M0,-4v8" fill="none" stroke="white" stroke-width="1.5" pointer-events="none"/>
                </g>
                <g id="zoomMin">
                        <use xlink:href="#rim" fill="#404040">
                                <set attributeName="fill" to="#808080" begin="zoomminus.mouseover" end="zoomminus.mouseout"/>
                        </use>
                        <path d="M-4,0h8" fill="none" stroke="white" stroke-width="1.5" pointer-events="none"/>
                </g>
                <g id="dirArrow">
                        <path fill="none" stroke="white" stroke-width="1.5" d="M0,-3.0v7 M-2.5,-0.5L0,-3.0L2.5,-0.5"/>
                </g>
               <g id="resetDef">
                       <use xlink:href="#rim2" fill="#404040">
                               <set attributeName="fill" to="#808080" begin="reset.mouseover" end="reset.mouseout"/>
                       </use>
               </g>
        </defs>

<script type="text/javascript">
var viewWidth = 2285;
var viewHeight = 285;
var sectionId = 'dynsection-0';
</script>
<script xlink:href="svgpan.js"/>
<svg id="graph" class="graph">
<g id="viewport">
<title>ProbeSampler.cpp</title>
<polygon fill="#ffffff" stroke="transparent" points="-4,4 -4,-281 2280.5,-281 2280.5,4 -4,4"/>
<!-- Node0 -->
<g id="node1" class="node">
<title>Node0</title>
<polygon fill="#bfbfbf" stroke="#000000" points="967.5,-257.5 967.5,-276.5 1064.5,-276.5 1064.5,-257.5 967.5,-257.5"/>
<text text-anchor="middle" x="1016" y="-264.5" font-family="Helvetica,sans-Serif" font-size="10.00" fill="#000000">ProbeSampler.cpp</text>
</g>
<!-- Node1 -->
<g id="node2" class="node">
<title>Node1</title>
<g id="a_node2"><a xlink:href="_probe_sampler_8_h.html" target="_top" xlink:title="amr&#45;wind/utilities\l/sampling/ProbeSampler.H">
<polygon fill="#ffffff" stroke="#000000" points="604,-190.5 604,-220.5 738,-220.5 738,-190.5 604,-190.5"/>
<text text-anchor="start" x="612" y="-208.5" font-family="Helvetica,sans-Serif" font-size="10.00" fill="#000000">amr&#45;wind/utilities</text>
<text text-anchor="middle" x="671" y="-197.5" font-family="Helvetica,sans-Serif" font-size="10.00" fill="#000000">/sampling/ProbeSampler.H</text>
</a>
</g>
</g>
<!-- Node0&#45;&gt;Node1 -->
<g id="edge1" class="edge">
<title>Node0&#45;&gt;Node1</title>
<path fill="none" stroke="#191970" d="M967.3017,-258.319C910.325,-248.1623 815.2625,-231.2164 748.2026,-219.2622"/>
<polygon fill="#191970" stroke="#191970" points="748.5644,-215.7716 738.1054,-217.4623 747.3359,-222.663 748.5644,-215.7716"/>
</g>
<!-- Node14 -->
<g id="node15" class="node">
<title>Node14</title>
<g id="a_node15"><a xlink:href="_c_f_d_sim_8_h.html" target="_top" xlink:title="amr&#45;wind/CFDSim.H">
<polygon fill="#ffffff" stroke="#000000" points="962,-196 962,-215 1070,-215 1070,-196 962,-196"/>
<text text-anchor="middle" x="1016" y="-203" font-family="Helvetica,sans-Serif" font-size="10.00" fill="#000000">amr&#45;wind/CFDSim.H</text>
</a>
</g>
</g>
<!-- Node0&#45;&gt;Node14 -->
<g id="edge15" class="edge">
<title>Node0&#45;&gt;Node14</title>
<path fill="none" stroke="#191970" d="M1016,-257.3906C1016,-248.8657 1016,-236.1392 1016,-225.4235"/>
<polygon fill="#191970" stroke="#191970" points="1019.5001,-225.2448 1016,-215.2449 1012.5001,-225.2449 1019.5001,-225.2448"/>
</g>
<!-- Node39 -->
<g id="node40" class="node">
<title>Node39</title>
<polygon fill="#ffffff" stroke="#bfbfbf" points="1088,-196 1088,-215 1204,-215 1204,-196 1088,-196"/>
<text text-anchor="middle" x="1146" y="-203" font-family="Helvetica,sans-Serif" font-size="10.00" fill="#000000">AMReX_ParmParse.H</text>
</g>
<!-- Node0&#45;&gt;Node39 -->
<g id="edge66" class="edge">
<title>Node0&#45;&gt;Node39</title>
<path fill="none" stroke="#191970" d="M1036.3125,-257.3906C1057.8731,-247.1908 1092.1478,-230.9763 1116.6444,-219.3875"/>
<polygon fill="#191970" stroke="#191970" points="1118.2874,-222.4822 1125.8301,-215.0419 1115.2939,-216.1545 1118.2874,-222.4822"/>
</g>
<!-- Node2 -->
<g id="node3" class="node">
<title>Node2</title>
<g id="a_node3"><a xlink:href="_sampler_base_8_h.html" target="_top" xlink:title="amr&#45;wind/utilities\l/sampling/SamplerBase.H">
<polygon fill="#ffffff" stroke="#000000" points="279.5,-123.5 279.5,-153.5 410.5,-153.5 410.5,-123.5 279.5,-123.5"/>
<text text-anchor="start" x="287.5" y="-141.5" font-family="Helvetica,sans-Serif" font-size="10.00" fill="#000000">amr&#45;wind/utilities</text>
<text text-anchor="middle" x="345" y="-130.5" font-family="Helvetica,sans-Serif" font-size="10.00" fill="#000000">/sampling/SamplerBase.H</text>
</a>
</g>
</g>
<!-- Node1&#45;&gt;Node2 -->
<g id="edge2" class="edge">
<title>Node1&#45;&gt;Node2</title>
<path fill="none" stroke="#191970" d="M603.8479,-191.6988C550.5928,-180.7537 476.1671,-165.4577 420.783,-154.075"/>
<polygon fill="#191970" stroke="#191970" points="421.1725,-150.582 410.6726,-151.9971 419.7632,-157.4387 421.1725,-150.582"/>
</g>
<!-- Node3 -->
<g id="node4" class="node">
<title>Node3</title>
<g id="a_node4"><a xlink:href="_factory_8_h.html" target="_top" xlink:title="amr&#45;wind/core/Factory.H">
<polygon fill="#ffffff" stroke="#000000" points="282.5,-62 282.5,-81 407.5,-81 407.5,-62 282.5,-62"/>
<text text-anchor="middle" x="345" y="-69" font-family="Helvetica,sans-Serif" font-size="10.00" fill="#000000">amr&#45;wind/core/Factory.H</text>
</a>
</g>
</g>
<!-- Node2&#45;&gt;Node3 -->
<g id="edge3" class="edge">
<title>Node2&#45;&gt;Node3</title>
<path fill="none" stroke="#191970" d="M345,-123.2967C345,-113.7699 345,-101.3954 345,-91.1306"/>
<polygon fill="#191970" stroke="#191970" points="348.5001,-91.0549 345,-81.055 341.5001,-91.055 348.5001,-91.0549"/>
</g>
<!-- Node9 -->
<g id="node10" class="node">
<title>Node9</title>
<g id="a_node10"><a xlink:href="nc__interface_8_h.html" target="_top" xlink:title="Interface to NetCDF library. ">
<polygon fill="#ffffff" stroke="#000000" points="141.5,-56.5 141.5,-86.5 256.5,-86.5 256.5,-56.5 141.5,-56.5"/>
<text text-anchor="start" x="149.5" y="-74.5" font-family="Helvetica,sans-Serif" font-size="10.00" fill="#000000">amr&#45;wind/utilities</text>
<text text-anchor="middle" x="199" y="-63.5" font-family="Helvetica,sans-Serif" font-size="10.00" fill="#000000">/ncutils/nc_interface.H</text>
</a>
</g>
</g>
<!-- Node2&#45;&gt;Node9 -->
<g id="edge9" class="edge">
<title>Node2&#45;&gt;Node9</title>
<path fill="none" stroke="#191970" d="M312.2348,-123.4639C291.2689,-113.8426 263.8639,-101.2663 241.2659,-90.896"/>
<polygon fill="#191970" stroke="#191970" points="242.4567,-87.5915 231.9082,-86.6017 239.537,-93.9536 242.4567,-87.5915"/>
</g>
<!-- Node4 -->
<g id="node5" class="node">
<title>Node4</title>
<polygon fill="#ffffff" stroke="#bfbfbf" points="758,-.5 758,-19.5 810,-19.5 810,-.5 758,-.5"/>
<text text-anchor="middle" x="784" y="-7.5" font-family="Helvetica,sans-Serif" font-size="10.00" fill="#000000">memory</text>
</g>
<!-- Node3&#45;&gt;Node4 -->
<g id="edge4" class="edge">
<title>Node3&#45;&gt;Node4</title>
<path fill="none" stroke="#191970" d="M385.0336,-61.9767C395.1017,-59.7981 405.9134,-57.643 416,-56 562.4897,-32.1379 602.2359,-47.9546 748,-20 748.0995,-19.9809 748.1992,-19.9617 748.299,-19.9423"/>
<polygon fill="#191970" stroke="#191970" points="748.7794,-23.4216 757.771,-17.8179 747.2475,-16.5913 748.7794,-23.4216"/>
</g>
<!-- Node5 -->
<g id="node6" class="node">
<title>Node5</title>
<polygon fill="#ffffff" stroke="#bfbfbf" points="543.5,-.5 543.5,-19.5 626.5,-19.5 626.5,-.5 543.5,-.5"/>
<text text-anchor="middle" x="585" y="-7.5" font-family="Helvetica,sans-Serif" font-size="10.00" fill="#000000">unordered_map</text>
</g>
<!-- Node3&#45;&gt;Node5 -->
<g id="edge5" class="edge">
<title>Node3&#45;&gt;Node5</title>
<path fill="none" stroke="#191970" d="M382.2367,-61.9581C424.0994,-51.2308 492.1628,-33.7895 537.7415,-22.11"/>
<polygon fill="#191970" stroke="#191970" points="538.8578,-25.4371 547.676,-19.5643 537.1201,-18.6562 538.8578,-25.4371"/>
</g>
<!-- Node6 -->
<g id="node7" class="node">
<title>Node6</title>
<polygon fill="#ffffff" stroke="#bfbfbf" points="408,-.5 408,-19.5 462,-19.5 462,-.5 408,-.5"/>
<text text-anchor="middle" x="435" y="-7.5" font-family="Helvetica,sans-Serif" font-size="10.00" fill="#000000">iostream</text>
</g>
<!-- Node3&#45;&gt;Node6 -->
<g id="edge6" class="edge">
<title>Node3&#45;&gt;Node6</title>
<path fill="none" stroke="#191970" d="M359.0625,-61.8906C373.3286,-52.1421 395.635,-36.8994 412.3872,-25.4521"/>
<polygon fill="#191970" stroke="#191970" points="414.7545,-28.0736 421.0362,-19.5419 410.8051,-22.2941 414.7545,-28.0736"/>
</g>
<!-- Node7 -->
<g id="node8" class="node">
<title>Node7</title>
<polygon fill="#ffffff" stroke="#bfbfbf" points="222.5,-.5 222.5,-19.5 309.5,-19.5 309.5,-.5 222.5,-.5"/>
<text text-anchor="middle" x="266" y="-7.5" font-family="Helvetica,sans-Serif" font-size="10.00" fill="#000000">AMReX_Print.H</text>
</g>
<!-- Node3&#45;&gt;Node7 -->
<g id="edge7" class="edge">
<title>Node3&#45;&gt;Node7</title>
<path fill="none" stroke="#191970" d="M332.6563,-61.8906C320.2497,-52.2324 300.9157,-37.1812 286.2587,-25.771"/>
<polygon fill="#191970" stroke="#191970" points="288.2979,-22.923 278.2571,-19.5419 283.9979,-28.4466 288.2979,-22.923"/>
</g>
<!-- Node8 -->
<g id="node9" class="node">
<title>Node8</title>
<polygon fill="#ffffff" stroke="#bfbfbf" points="328,-.5 328,-19.5 390,-19.5 390,-.5 328,-.5"/>
<text text-anchor="middle" x="359" y="-7.5" font-family="Helvetica,sans-Serif" font-size="10.00" fill="#000000">AMReX.H</text>
</g>
<!-- Node3&#45;&gt;Node8 -->
<g id="edge8" class="edge">
<title>Node3&#45;&gt;Node8</title>
<path fill="none" stroke="#191970" d="M347.1875,-61.8906C349.1486,-53.276 352.0863,-40.3708 354.5415,-29.5858"/>
<polygon fill="#191970" stroke="#191970" points="357.9746,-30.2723 356.7817,-19.7449 351.1493,-28.7185 357.9746,-30.2723"/>
</g>
<!-- Node9&#45;&gt;Node5 -->
<g id="edge11" class="edge">
<title>Node9&#45;&gt;Node5</title>
<path fill="none" stroke="#191970" d="M256.6936,-59.0118C262.1954,-57.9427 267.6975,-56.9199 273,-56 385.2202,-36.5321 416.7876,-39.111 533.2586,-20.0393"/>
<polygon fill="#191970" stroke="#191970" points="533.9927,-23.4655 543.2864,-18.3785 532.8489,-16.5596 533.9927,-23.4655"/>
</g>
<!-- Node10 -->
<g id="node11" class="node">
<title>Node10</title>
<polygon fill="#ffffff" stroke="#bfbfbf" points="1389.5,-.5 1389.5,-19.5 1430.5,-19.5 1430.5,-.5 1389.5,-.5"/>
<text text-anchor="middle" x="1410" y="-7.5" font-family="Helvetica,sans-Serif" font-size="10.00" fill="#000000">string</text>
</g>
<!-- Node9&#45;&gt;Node10 -->
<g id="edge10" class="edge">
<title>Node9&#45;&gt;Node10</title>
<path fill="none" stroke="#191970" d="M256.6122,-58.4641C262.1308,-57.5079 267.6591,-56.661 273,-56 672.0516,-6.6116 775.2474,-36.6208 1177,-20 1249.5028,-17.0005 1334.6877,-13.2996 1379.2622,-11.3495"/>
<polygon fill="#191970" stroke="#191970" points="1379.5926,-14.8385 1389.4299,-10.9042 1379.2863,-7.8452 1379.5926,-14.8385"/>
</g>
<!-- Node11 -->
<g id="node12" class="node">
<title>Node11</title>
<polygon fill="#ffffff" stroke="#bfbfbf" points="160,-.5 160,-19.5 204,-19.5 204,-.5 160,-.5"/>
<text text-anchor="middle" x="182" y="-7.5" font-family="Helvetica,sans-Serif" font-size="10.00" fill="#000000">vector</text>
</g>
<!-- Node9&#45;&gt;Node11 -->
<g id="edge12" class="edge">
<title>Node9&#45;&gt;Node11</title>
<path fill="none" stroke="#191970" d="M194.7978,-56.2977C192.5609,-48.2055 189.7851,-38.1639 187.391,-29.5029"/>
<polygon fill="#191970" stroke="#191970" points="190.7598,-28.5529 184.7219,-19.8469 184.0128,-30.418 190.7598,-28.5529"/>
</g>
<!-- Node12 -->
<g id="node13" class="node">
<title>Node12</title>
<polygon fill="#ffffff" stroke="#bfbfbf" points="0,-.5 0,-19.5 52,-19.5 52,-.5 0,-.5"/>
<text text-anchor="middle" x="26" y="-7.5" font-family="Helvetica,sans-Serif" font-size="10.00" fill="#000000">netcdf.h</text>
</g>
<!-- Node9&#45;&gt;Node12 -->
<g id="edge13" class="edge">
<title>Node9&#45;&gt;Node12</title>
<path fill="none" stroke="#191970" d="M156.6794,-56.4554C127.5467,-46.099 89.2746,-32.4936 61.6864,-22.6862"/>
<polygon fill="#191970" stroke="#191970" points="62.6372,-19.3097 52.0425,-19.2579 60.2925,-25.9053 62.6372,-19.3097"/>
</g>
<!-- Node13 -->
<g id="node14" class="node">
<title>Node13</title>
<polygon fill="#ffffff" stroke="#bfbfbf" points="70.5,-.5 70.5,-19.5 141.5,-19.5 141.5,-.5 70.5,-.5"/>
<text text-anchor="middle" x="106" y="-7.5" font-family="Helvetica,sans-Serif" font-size="10.00" fill="#000000">netcdf_par.h</text>
</g>
<!-- Node9&#45;&gt;Node13 -->
<g id="edge14" class="edge">
<title>Node9&#45;&gt;Node13</title>
<path fill="none" stroke="#191970" d="M176.0112,-56.2977C161.8034,-46.9022 143.6215,-34.8787 129.3475,-25.4395"/>
<polygon fill="#191970" stroke="#191970" points="130.8845,-22.2598 120.6128,-19.6633 127.0233,-28.0986 130.8845,-22.2598"/>
</g>
<!-- Node15 -->
<g id="node16" class="node">
<title>Node15</title>
<polygon fill="#ffffff" stroke="#bfbfbf" points="1353,-62 1353,-81 1459,-81 1459,-62 1353,-62"/>
<text text-anchor="middle" x="1406" y="-69" font-family="Helvetica,sans-Serif" font-size="10.00" fill="#000000">AMReX_AmrCore.H</text>
</g>
<!-- Node14&#45;&gt;Node15 -->
<g id="edge16" class="edge">
<title>Node14&#45;&gt;Node15</title>
<path fill="none" stroke="#191970" d="M1048.0897,-195.9916C1081.4485,-185.9886 1135.1039,-169.5665 1181,-154 1249.133,-130.8915 1327.8818,-101.3594 1371.8182,-84.6253"/>
<polygon fill="#191970" stroke="#191970" points="1373.075,-87.8919 1381.1699,-81.0564 1370.5791,-81.352 1373.075,-87.8919"/>
</g>
<!-- Node16 -->
<g id="node17" class="node">
<title>Node16</title>
<g id="a_node17"><a xlink:href="_sim_time_8_h.html" target="_top" xlink:title="amr&#45;wind/core/SimTime.H">
<polygon fill="#ffffff" stroke="#000000" points="1040.5,-129 1040.5,-148 1171.5,-148 1171.5,-129 1040.5,-129"/>
<text text-anchor="middle" x="1106" y="-136" font-family="Helvetica,sans-Serif" font-size="10.00" fill="#000000">amr&#45;wind/core/SimTime.H</text>
</a>
</g>
</g>
<!-- Node14&#45;&gt;Node16 -->
<g id="edge17" class="edge">
<title>Node14&#45;&gt;Node16</title>
<path fill="none" stroke="#191970" d="M1028.8948,-195.9005C1043.4642,-185.0544 1067.4022,-167.2339 1084.7454,-154.3229"/>
<polygon fill="#191970" stroke="#191970" points="1087.1978,-156.8606 1093.1291,-148.0817 1083.0177,-151.2457 1087.1978,-156.8606"/>
</g>
<!-- Node20 -->
<g id="node21" class="node">
<title>Node20</title>
<g id="a_node21"><a xlink:href="_field_repo_8_h.html" target="_top" xlink:title="amr&#45;wind/core/FieldRepo.H">
<polygon fill="#ffffff" stroke="#000000" points="1641,-129 1641,-148 1777,-148 1777,-129 1641,-129"/>
<text text-anchor="middle" x="1709" y="-136" font-family="Helvetica,sans-Serif" font-size="10.00" fill="#000000">amr&#45;wind/core/FieldRepo.H</text>
</a>
</g>
</g>
<!-- Node14&#45;&gt;Node20 -->
<g id="edge21" class="edge">
<title>Node14&#45;&gt;Node20</title>
<path fill="none" stroke="#191970" d="M1050.4558,-195.9704C1059.6684,-193.712 1069.6615,-191.5205 1079,-190 1276.0732,-157.9128 1511.2514,-145.4217 1630.8207,-140.8801"/>
<polygon fill="#191970" stroke="#191970" points="1631.1139,-144.3717 1640.9771,-140.5029 1630.854,-137.3765 1631.1139,-144.3717"/>
</g>
<!-- Node32 -->
<g id="node33" class="node">
<title>Node32</title>
<g id="a_node33"><a xlink:href="_p_d_e_base_8_h.html" target="_top" xlink:title="amr&#45;wind/equation_systems\l/PDEBase.H">
<polygon fill="#ffffff" stroke="#000000" points="690.5,-123.5 690.5,-153.5 829.5,-153.5 829.5,-123.5 690.5,-123.5"/>
<text text-anchor="start" x="698.5" y="-141.5" font-family="Helvetica,sans-Serif" font-size="10.00" fill="#000000">amr&#45;wind/equation_systems</text>
<text text-anchor="middle" x="760" y="-130.5" font-family="Helvetica,sans-Serif" font-size="10.00" fill="#000000">/PDEBase.H</text>
</a>
</g>
</g>
<!-- Node14&#45;&gt;Node32 -->
<g id="edge49" class="edge">
<title>Node14&#45;&gt;Node32</title>
<path fill="none" stroke="#191970" d="M979.5933,-195.9717C940.0753,-185.6291 876.0971,-168.8848 827.3665,-156.1311"/>
<polygon fill="#191970" stroke="#191970" points="828.0853,-152.7014 817.5249,-153.5553 826.3129,-159.4733 828.0853,-152.7014"/>
</g>
<!-- Node37 -->
<g id="node38" class="node">
<title>Node37</title>
<g id="a_node38"><a xlink:href="_physics_8_h.html" target="_top" xlink:title="amr&#45;wind/core/Physics.H">
<polygon fill="#ffffff" stroke="#000000" points="847.5,-129 847.5,-148 974.5,-148 974.5,-129 847.5,-129"/>
<text text-anchor="middle" x="911" y="-136" font-family="Helvetica,sans-Serif" font-size="10.00" fill="#000000">amr&#45;wind/core/Physics.H</text>
</a>
</g>
</g>
<!-- Node14&#45;&gt;Node37 -->
<g id="edge61" class="edge">
<title>Node14&#45;&gt;Node37</title>
<path fill="none" stroke="#191970" d="M1000.9561,-195.9005C983.6466,-184.8554 955.0023,-166.5776 934.6911,-153.6172"/>
<polygon fill="#191970" stroke="#191970" points="936.3288,-150.5103 926.016,-148.0817 932.5633,-156.4113 936.3288,-150.5103"/>
</g>
<!-- Node17 -->
<g id="node18" class="node">
<title>Node17</title>
<polygon fill="#ffffff" stroke="#bfbfbf" points="1241.5,-62 1241.5,-81 1334.5,-81 1334.5,-62 1241.5,-62"/>
<text text-anchor="middle" x="1288" y="-69" font-family="Helvetica,sans-Serif" font-size="10.00" fill="#000000">AMReX_REAL.H</text>
</g>
<!-- Node16&#45;&gt;Node17 -->
<g id="edge18" class="edge">
<title>Node16&#45;&gt;Node17</title>
<path fill="none" stroke="#191970" d="M1132.0762,-128.9005C1163.7011,-117.2584 1217.1544,-97.5805 1252.5124,-84.5641"/>
<polygon fill="#191970" stroke="#191970" points="1253.797,-87.8209 1261.9722,-81.0817 1251.3787,-81.2519 1253.797,-87.8209"/>
</g>
<!-- Node18 -->
<g id="node19" class="node">
<title>Node18</title>
<polygon fill="#ffffff" stroke="#bfbfbf" points="969,-62 969,-81 1095,-81 1095,-62 969,-62"/>
<text text-anchor="middle" x="1032" y="-69" font-family="Helvetica,sans-Serif" font-size="10.00" fill="#000000">AMReX_GpuQualifiers.H</text>
</g>
<!-- Node16&#45;&gt;Node18 -->
<g id="edge19" class="edge">
<title>Node16&#45;&gt;Node18</title>
<path fill="none" stroke="#191970" d="M1095.3976,-128.9005C1083.6381,-118.2535 1064.4557,-100.8856 1050.2664,-88.0385"/>
<polygon fill="#191970" stroke="#191970" points="1052.3449,-85.1989 1042.5827,-81.0817 1047.6466,-90.388 1052.3449,-85.1989"/>
</g>
<!-- Node19 -->
<g id="node20" class="node">
<title>Node19</title>
<polygon fill="#ffffff" stroke="#bfbfbf" points="1113,-62 1113,-81 1223,-81 1223,-62 1113,-62"/>
<text text-anchor="middle" x="1168" y="-69" font-family="Helvetica,sans-Serif" font-size="10.00" fill="#000000">AMReX_Extension.H</text>
</g>
<!-- Node16&#45;&gt;Node19 -->
<g id="edge20" class="edge">
<title>Node16&#45;&gt;Node19</title>
<path fill="none" stroke="#191970" d="M1114.8831,-128.9005C1124.5514,-118.4525 1140.2088,-101.5325 1152.0248,-88.7635"/>
<polygon fill="#191970" stroke="#191970" points="1154.9103,-90.7985 1159.1334,-81.0817 1149.7726,-86.0441 1154.9103,-90.7985"/>
</g>
<!-- Node20&#45;&gt;Node5 -->
<g id="edge23" class="edge">
<title>Node20&#45;&gt;Node5</title>
<path fill="none" stroke="#191970" d="M1640.597,-136.3142C1403.8639,-128.6197 632.7016,-102.4206 612,-87 594.1248,-73.6848 588.023,-47.6495 585.9749,-29.5603"/>
<polygon fill="#191970" stroke="#191970" points="589.4564,-29.1909 585.1544,-19.5089 582.4796,-29.7605 589.4564,-29.1909"/>
</g>
<!-- Node20&#45;&gt;Node10 -->
<g id="edge22" class="edge">
<title>Node20&#45;&gt;Node10</title>
<path fill="none" stroke="#191970" d="M1643.3152,-128.9896C1602.5586,-121.3623 1549.9556,-108.3154 1507,-87 1487.1656,-77.1578 1485.3408,-69.7684 1468,-56 1455.3274,-45.9381 1441.0906,-34.6467 1429.8936,-25.769"/>
<polygon fill="#191970" stroke="#191970" points="1432.0105,-22.9808 1421.9999,-19.511 1427.6617,-28.4661 1432.0105,-22.9808"/>
</g>
<!-- Node20&#45;&gt;Node15 -->
<g id="edge46" class="edge">
<title>Node20&#45;&gt;Node15</title>
<path fill="none" stroke="#191970" d="M1664.5971,-128.9834C1617.1331,-118.7703 1539.6924,-101.9906 1473,-87 1467.6854,-85.8054 1462.137,-84.5443 1456.6069,-83.2783"/>
<polygon fill="#191970" stroke="#191970" points="1457.2571,-79.8366 1446.7272,-81.0076 1455.6891,-86.6587 1457.2571,-79.8366"/>
</g>
<!-- Node21 -->
<g id="node22" class="node">
<title>Node21</title>
<g id="a_node22"><a xlink:href="_field_desc_types_8_h.html" target="_top" xlink:title="amr&#45;wind/core/FieldDescTypes.H">
<polygon fill="#ffffff" stroke="#000000" points="1793.5,-.5 1793.5,-19.5 1956.5,-19.5 1956.5,-.5 1793.5,-.5"/>
<text text-anchor="middle" x="1875" y="-7.5" font-family="Helvetica,sans-Serif" font-size="10.00" fill="#000000">amr&#45;wind/core/FieldDescTypes.H</text>
</a>
</g>
</g>
<!-- Node20&#45;&gt;Node21 -->
<g id="edge24" class="edge">
<title>Node20&#45;&gt;Node21</title>
<path fill="none" stroke="#191970" d="M1728.1538,-128.8682C1746.3564,-119.3283 1774.1215,-103.7544 1796,-87 1819.8257,-68.7545 1844.0807,-43.9981 1859.3139,-27.536"/>
<polygon fill="#191970" stroke="#191970" points="1862.2526,-29.5081 1866.4075,-19.7619 1857.0817,-24.7898 1862.2526,-29.5081"/>
</g>
<!-- Node22 -->
<g id="node23" class="node">
<title>Node22</title>
<g id="a_node23"><a xlink:href="_field_utils_8_h.html" target="_top" xlink:title="amr&#45;wind/core/FieldUtils.H">
<polygon fill="#ffffff" stroke="#000000" points="2143.5,-62 2143.5,-81 2276.5,-81 2276.5,-62 2143.5,-62"/>
<text text-anchor="middle" x="2210" y="-69" font-family="Helvetica,sans-Serif" font-size="10.00" fill="#000000">amr&#45;wind/core/FieldUtils.H</text>
</a>
</g>
</g>
<!-- Node20&#45;&gt;Node22 -->
<g id="edge25" class="edge">
<title>Node20&#45;&gt;Node22</title>
<path fill="none" stroke="#191970" d="M1777.2114,-131.5579C1860.4678,-122.7572 2005.4395,-106.3752 2129,-87 2136.7575,-85.7836 2144.9088,-84.3769 2152.9291,-82.9174"/>
<polygon fill="#191970" stroke="#191970" points="2153.7858,-86.3182 2162.9785,-81.0508 2152.5074,-79.436 2153.7858,-86.3182"/>
</g>
<!-- Node23 -->
<g id="node24" class="node">
<title>Node23</title>
<polygon fill="#ffffff" stroke="#bfbfbf" points="2025,-.5 2025,-19.5 2129,-19.5 2129,-.5 2025,-.5"/>
<text text-anchor="middle" x="2077" y="-7.5" font-family="Helvetica,sans-Serif" font-size="10.00" fill="#000000">AMReX_MultiFab.H</text>
</g>
<!-- Node20&#45;&gt;Node23 -->
<g id="edge47" class="edge">
<title>Node20&#45;&gt;Node23</title>
<path fill="none" stroke="#191970" d="M1777.4204,-134.1001C1881.7491,-126.6859 2070.7119,-110.2068 2091,-87 2104.9794,-71.0095 2096.6663,-45.8369 2088.0731,-28.6581"/>
<polygon fill="#191970" stroke="#191970" points="2090.9986,-26.7113 2083.1476,-19.5971 2084.8485,-30.0545 2090.9986,-26.7113"/>
</g>
<!-- Node25 -->
<g id="node26" class="node">
<title>Node25</title>
<g id="a_node26"><a xlink:href="_field_8_h.html" target="_top" xlink:title="amr&#45;wind/core/Field.H">
<polygon fill="#ffffff" stroke="#000000" points="1515.5,-62 1515.5,-81 1628.5,-81 1628.5,-62 1515.5,-62"/>
<text text-anchor="middle" x="1572" y="-69" font-family="Helvetica,sans-Serif" font-size="10.00" fill="#000000">amr&#45;wind/core/Field.H</text>
</a>
</g>
</g>
<!-- Node20&#45;&gt;Node25 -->
<g id="edge29" class="edge">
<title>Node20&#45;&gt;Node25</title>
<path fill="none" stroke="#191970" d="M1689.3712,-128.9005C1666.1761,-117.5569 1627.3815,-98.5844 1600.7869,-85.5783"/>
<polygon fill="#191970" stroke="#191970" points="1602.1133,-82.3308 1591.5923,-81.0817 1599.038,-88.6191 1602.1133,-82.3308"/>
</g>
<!-- Node29 -->
<g id="node30" class="node">
<title>Node29</title>
<g id="a_node30"><a xlink:href="_int_field_8_h.html" target="_top" xlink:title="amr&#45;wind/core/IntField.H">
<polygon fill="#ffffff" stroke="#000000" points="1647,-62 1647,-81 1771,-81 1771,-62 1647,-62"/>
<text text-anchor="middle" x="1709" y="-69" font-family="Helvetica,sans-Serif" font-size="10.00" fill="#000000">amr&#45;wind/core/IntField.H</text>
</a>
</g>
</g>
<!-- Node20&#45;&gt;Node29 -->
<g id="edge38" class="edge">
<title>Node20&#45;&gt;Node29</title>
<path fill="none" stroke="#191970" d="M1709,-128.9005C1709,-119.149 1709,-103.7597 1709,-91.3695"/>
<polygon fill="#191970" stroke="#191970" points="1712.5001,-91.0816 1709,-81.0817 1705.5001,-91.0817 1712.5001,-91.0816"/>
</g>
<!-- Node30 -->
<g id="node31" class="node">
<title>Node30</title>
<polygon fill="#ffffff" stroke="#bfbfbf" points="1668.5,-.5 1668.5,-19.5 1775.5,-19.5 1775.5,-.5 1668.5,-.5"/>
<text text-anchor="middle" x="1722" y="-7.5" font-family="Helvetica,sans-Serif" font-size="10.00" fill="#000000">AMReX_iMultiFab.H</text>
</g>
<!-- Node20&#45;&gt;Node30 -->
<g id="edge48" class="edge">
<title>Node20&#45;&gt;Node30</title>
<path fill="none" stroke="#191970" d="M1731.8113,-128.9436C1748.5226,-120.5792 1769.9682,-106.6696 1780,-87 1786.2598,-74.7263 1785.9946,-68.4053 1780,-56 1773.7172,-42.9981 1761.7765,-32.5481 1750.3549,-24.9145"/>
<polygon fill="#191970" stroke="#191970" points="1752.1684,-21.9209 1741.8241,-19.6305 1748.4823,-27.8718 1752.1684,-21.9209"/>
</g>
<!-- Node31 -->
<g id="node32" class="node">
<title>Node31</title>
<g id="a_node32"><a xlink:href="_scratch_field_8_h.html" target="_top" xlink:title="amr&#45;wind/core/ScratchField.H">
<polygon fill="#ffffff" stroke="#000000" points="1903,-62 1903,-81 2049,-81 2049,-62 1903,-62"/>
<text text-anchor="middle" x="1976" y="-69" font-family="Helvetica,sans-Serif" font-size="10.00" fill="#000000">amr&#45;wind/core/ScratchField.H</text>
</a>
</g>
</g>
<!-- Node20&#45;&gt;Node31 -->
<g id="edge42" class="edge">
<title>Node20&#45;&gt;Node31</title>
<path fill="none" stroke="#191970" d="M1746.971,-128.9717C1794.482,-117.0495 1875.8917,-96.6208 1927.7655,-83.6038"/>
<polygon fill="#191970" stroke="#191970" points="1928.8803,-86.9326 1937.7277,-81.1039 1927.1765,-80.1431 1928.8803,-86.9326"/>
</g>
<!-- Node22&#45;&gt;Node21 -->
<g id="edge26" class="edge">
<title>Node22&#45;&gt;Node21</title>
<path fill="none" stroke="#191970" d="M2158.0238,-61.9581C2098.2756,-50.9894 2000.2913,-33.0012 1936.7189,-21.3305"/>
<polygon fill="#191970" stroke="#191970" points="1937.2901,-17.8769 1926.8225,-19.5137 1936.0261,-24.7619 1937.2901,-17.8769"/>
</g>
<!-- Node22&#45;&gt;Node23 -->
<g id="edge27" class="edge">
<title>Node22&#45;&gt;Node23</title>
<path fill="none" stroke="#191970" d="M2189.2188,-61.8906C2167.1606,-51.6908 2132.095,-35.4763 2107.0331,-23.8875"/>
<polygon fill="#191970" stroke="#191970" points="2108.1809,-20.5622 2097.6353,-19.5419 2105.2429,-26.9158 2108.1809,-20.5622"/>
</g>
<!-- Node24 -->
<g id="node25" class="node">
<title>Node24</title>
<polygon fill="#ffffff" stroke="#bfbfbf" points="2152,-.5 2152,-19.5 2268,-19.5 2268,-.5 2152,-.5"/>
<text text-anchor="middle" x="2210" y="-7.5" font-family="Helvetica,sans-Serif" font-size="10.00" fill="#000000">AMReX_Interpolater.H</text>
</g>
<!-- Node22&#45;&gt;Node24 -->
<g id="edge28" class="edge">
<title>Node22&#45;&gt;Node24</title>
<path fill="none" stroke="#191970" d="M2210,-61.8906C2210,-53.3657 2210,-40.6392 2210,-29.9235"/>
<polygon fill="#191970" stroke="#191970" points="2213.5001,-29.7448 2210,-19.7449 2206.5001,-29.7449 2213.5001,-29.7448"/>
</g>
<!-- Node25&#45;&gt;Node4 -->
<g id="edge31" class="edge">
<title>Node25&#45;&gt;Node4</title>
<path fill="none" stroke="#191970" d="M1515.4325,-62.2211C1500.0751,-59.9339 1483.4271,-57.6656 1468,-56 1221.1421,-29.3476 922.388,-15.5862 820.2526,-11.4051"/>
<polygon fill="#191970" stroke="#191970" points="820.2921,-7.9039 810.1589,-10.997 820.0093,-14.8982 820.2921,-7.9039"/>
</g>
<!-- Node25&#45;&gt;Node5 -->
<g id="edge32" class="edge">
<title>Node25&#45;&gt;Node5</title>
<path fill="none" stroke="#191970" d="M1515.4577,-61.9736C1500.1002,-59.6869 1483.4459,-57.4807 1468,-56 1102.4554,-20.9582 1004.6507,-63.6839 636.7918,-20.0474"/>
<polygon fill="#191970" stroke="#191970" points="637.0101,-16.5486 626.6643,-18.8324 636.1762,-23.4987 637.0101,-16.5486"/>
</g>
<!-- Node25&#45;&gt;Node10 -->
<g id="edge30" class="edge">
<title>Node25&#45;&gt;Node10</title>
<path fill="none" stroke="#191970" d="M1546.6875,-61.8906C1517.905,-50.9639 1470.9403,-33.1347 1440.2513,-21.4843"/>
<polygon fill="#191970" stroke="#191970" points="1441.1086,-18.0661 1430.5174,-17.789 1438.6242,-24.6104 1441.1086,-18.0661"/>
</g>
<!-- Node25&#45;&gt;Node21 -->
<g id="edge37" class="edge">
<title>Node25&#45;&gt;Node21</title>
<path fill="none" stroke="#191970" d="M1611.3804,-61.9867C1620.1298,-59.947 1629.3686,-57.8505 1638,-56 1697.1132,-43.327 1764.8518,-30.3316 1812.7298,-21.4003"/>
<polygon fill="#191970" stroke="#191970" points="1813.4435,-24.8277 1822.6347,-19.5578 1812.1633,-17.9458 1813.4435,-24.8277"/>
</g>
<!-- Node25&#45;&gt;Node23 -->
<g id="edge33" class="edge">
<title>Node25&#45;&gt;Node23</title>
<path fill="none" stroke="#191970" d="M1608.8343,-61.9826C1618.2921,-59.7781 1628.4837,-57.6094 1638,-56 1708.8394,-44.0196 1911.4201,-24.9112 2014.7516,-15.5438"/>
<polygon fill="#191970" stroke="#191970" points="2015.0915,-19.0275 2024.7357,-14.6411 2014.4611,-12.0559 2015.0915,-19.0275"/>
</g>
<!-- Node26 -->
<g id="node27" class="node">
<title>Node26</title>
<polygon fill="#ffffff" stroke="#bfbfbf" points="1448.5,-.5 1448.5,-19.5 1547.5,-19.5 1547.5,-.5 1448.5,-.5"/>
<text text-anchor="middle" x="1498" y="-7.5" font-family="Helvetica,sans-Serif" font-size="10.00" fill="#000000">AMReX_BCRec.H</text>
</g>
<!-- Node25&#45;&gt;Node26 -->
<g id="edge34" class="edge">
<title>Node25&#45;&gt;Node26</title>
<path fill="none" stroke="#191970" d="M1560.4375,-61.8906C1548.9921,-52.3786 1531.2527,-37.6357 1517.603,-26.2917"/>
<polygon fill="#191970" stroke="#191970" points="1519.6533,-23.4447 1509.7255,-19.7449 1515.1792,-28.8283 1519.6533,-23.4447"/>
</g>
<!-- Node27 -->
<g id="node28" class="node">
<title>Node27</title>
<polygon fill="#ffffff" stroke="#bfbfbf" points="1565.5,-.5 1565.5,-19.5 1650.5,-19.5 1650.5,-.5 1565.5,-.5"/>
<text text-anchor="middle" x="1608" y="-7.5" font-family="Helvetica,sans-Serif" font-size="10.00" fill="#000000">AMReX_Gpu.H</text>
</g>
<!-- Node25&#45;&gt;Node27 -->
<g id="edge35" class="edge">
<title>Node25&#45;&gt;Node27</title>
<path fill="none" stroke="#191970" d="M1577.625,-61.8906C1582.8253,-53.0068 1590.6966,-39.5601 1597.1233,-28.5811"/>
<polygon fill="#191970" stroke="#191970" points="1600.2644,-30.1432 1602.2957,-19.7449 1594.2233,-26.6069 1600.2644,-30.1432"/>
</g>
<!-- Node28 -->
<g id="node29" class="node">
<title>Node28</title>
<g id="a_node29"><a xlink:href="incflo__enums_8_h.html" target="_top" xlink:title="amr&#45;wind/incflo_enums.H">
<polygon fill="#ffffff" stroke="#000000" points="1040,-.5 1040,-19.5 1168,-19.5 1168,-.5 1040,-.5"/>
<text text-anchor="middle" x="1104" y="-7.5" font-family="Helvetica,sans-Serif" font-size="10.00" fill="#000000">amr&#45;wind/incflo_enums.H</text>
</a>
</g>
</g>
<!-- Node25&#45;&gt;Node28 -->
<g id="edge36" class="edge">
<title>Node25&#45;&gt;Node28</title>
<path fill="none" stroke="#191970" d="M1515.3583,-62.8247C1500.0011,-60.5363 1483.3717,-58.1165 1468,-56 1367.806,-42.2044 1251.8704,-27.8259 1178.2649,-18.8946"/>
<polygon fill="#191970" stroke="#191970" points="1178.5142,-15.3993 1168.1659,-17.6712 1177.6723,-22.3485 1178.5142,-15.3993"/>
</g>
<!-- Node29&#45;&gt;Node10 -->
<g id="edge39" class="edge">
<title>Node29&#45;&gt;Node10</title>
<path fill="none" stroke="#191970" d="M1666.6264,-61.9946C1657.2147,-59.9545 1647.2788,-57.8558 1638,-56 1553.3776,-39.0755 1528.3864,-41.9614 1440.4154,-19.799"/>
<polygon fill="#191970" stroke="#191970" points="1441.0977,-16.3609 1430.5423,-17.2744 1439.3635,-23.1427 1441.0977,-16.3609"/>
</g>
<!-- Node29&#45;&gt;Node21 -->
<g id="edge40" class="edge">
<title>Node29&#45;&gt;Node21</title>
<path fill="none" stroke="#191970" d="M1734.9375,-61.8906C1763.0778,-51.4652 1808.1793,-34.7559 1839.5726,-23.1252"/>
<polygon fill="#191970" stroke="#191970" points="1841.0834,-26.298 1849.2446,-19.5419 1838.6515,-19.734 1841.0834,-26.298"/>
</g>
<!-- Node29&#45;&gt;Node30 -->
<g id="edge41" class="edge">
<title>Node29&#45;&gt;Node30</title>
<path fill="none" stroke="#191970" d="M1711.0313,-61.8906C1712.8522,-53.276 1715.5802,-40.3708 1717.8599,-29.5858"/>
<polygon fill="#191970" stroke="#191970" points="1721.2962,-30.2525 1719.9401,-19.7449 1714.4476,-28.8048 1721.2962,-30.2525"/>
</g>
<!-- Node31&#45;&gt;Node10 -->
<g id="edge43" class="edge">
<title>Node31&#45;&gt;Node10</title>
<path fill="none" stroke="#191970" d="M1902.8749,-65.3991C1773.6466,-54.488 1512.477,-31.8142 1440.6646,-19.4924"/>
<polygon fill="#191970" stroke="#191970" points="1441.2939,-16.0494 1430.8142,-17.6071 1439.9779,-22.9246 1441.2939,-16.0494"/>
</g>
<!-- Node31&#45;&gt;Node21 -->
<g id="edge44" class="edge">
<title>Node31&#45;&gt;Node21</title>
<path fill="none" stroke="#191970" d="M1960.2188,-61.8906C1943.9125,-51.9616 1918.246,-36.333 1899.3386,-24.8201"/>
<polygon fill="#191970" stroke="#191970" points="1901.0319,-21.7533 1890.6704,-19.5419 1897.3913,-27.7322 1901.0319,-21.7533"/>
</g>
<!-- Node31&#45;&gt;Node23 -->
<g id="edge45" class="edge">
<title>Node31&#45;&gt;Node23</title>
<path fill="none" stroke="#191970" d="M1991.7813,-61.8906C2008.0875,-51.9616 2033.754,-36.333 2052.6614,-24.8201"/>
<polygon fill="#191970" stroke="#191970" points="2054.6087,-27.7322 2061.3296,-19.5419 2050.9681,-21.7533 2054.6087,-27.7322"/>
</g>
<!-- Node32&#45;&gt;Node3 -->
<g id="edge51" class="edge">
<title>Node32&#45;&gt;Node3</title>
<path fill="none" stroke="#191970" d="M690.265,-129.4417C620.6098,-120.0692 510.5832,-104.3844 416,-87 409.7297,-85.8475 403.1684,-84.5461 396.6754,-83.1994"/>
<polygon fill="#191970" stroke="#191970" points="397.0881,-79.7093 386.5798,-81.0609 395.6374,-86.5573 397.0881,-79.7093"/>
</g>
<!-- Node32&#45;&gt;Node10 -->
<g id="edge50" class="edge">
<title>Node32&#45;&gt;Node10</title>
<path fill="none" stroke="#191970" d="M770.9615,-123.3978C787.0034,-101.7736 816.6326,-63.7354 832,-56 881.0515,-31.3092 1266.4346,-15.2887 1379.1413,-11.0971"/>
<polygon fill="#191970" stroke="#191970" points="1379.3119,-14.5932 1389.1767,-10.7284 1379.0549,-7.598 1379.3119,-14.5932"/>
</g>
<!-- Node32&#45;&gt;Node21 -->
<g id="edge59" class="edge">
<title>Node32&#45;&gt;Node21</title>
<path fill="none" stroke="#191970" d="M829.6945,-124.2157C832.8331,-123.765 835.9458,-123.3559 839,-123 942.929,-110.8909 1683.4733,-127.379 1780,-87 1798.5642,-79.2342 1797.5604,-68.9057 1813,-56 1825.7436,-45.3479 1840.6776,-34.2296 1852.6954,-25.5926"/>
<polygon fill="#191970" stroke="#191970" points="1854.7394,-28.4338 1860.8577,-19.7841 1850.6808,-22.7305 1854.7394,-28.4338"/>
</g>
<!-- Node32&#45;&gt;Node28 -->
<g id="edge60" class="edge">
<title>Node32&#45;&gt;Node28</title>
<path fill="none" stroke="#191970" d="M762.705,-123.2646C766.9286,-104.2818 777.0073,-72.3557 799,-56 834.5206,-29.5838 951.3683,-18.1021 1029.685,-13.2825"/>
<polygon fill="#191970" stroke="#191970" points="1030.2141,-16.7575 1039.9899,-12.6729 1029.8007,-9.7697 1030.2141,-16.7575"/>
</g>
<!-- Node33 -->
<g id="node34" class="node">
<title>Node33</title>
<g id="a_node34"><a xlink:href="_coll_mgr_8_h.html" target="_top" xlink:title="amr&#45;wind/core/CollMgr.H">
<polygon fill="#ffffff" stroke="#000000" points="621.5,-62 621.5,-81 746.5,-81 746.5,-62 621.5,-62"/>
<text text-anchor="middle" x="684" y="-69" font-family="Helvetica,sans-Serif" font-size="10.00" fill="#000000">amr&#45;wind/core/CollMgr.H</text>
</a>
</g>
</g>
<!-- Node32&#45;&gt;Node33 -->
<g id="edge52" class="edge">
<title>Node32&#45;&gt;Node33</title>
<path fill="none" stroke="#191970" d="M742.7544,-123.2967C730.7983,-112.7564 714.8881,-98.7303 702.6396,-87.9323"/>
<polygon fill="#191970" stroke="#191970" points="704.6543,-85.0425 694.8385,-81.055 700.0252,-90.2934 704.6543,-85.0425"/>
</g>
<!-- Node35 -->
<g id="node36" class="node">
<title>Node35</title>
<g id="a_node36"><a xlink:href="_p_d_e_fields_8_h.html" target="_top" xlink:title="amr&#45;wind/equation_systems\l/PDEFields.H">
<polygon fill="#ffffff" stroke="#000000" points="425.5,-56.5 425.5,-86.5 564.5,-86.5 564.5,-56.5 425.5,-56.5"/>
<text text-anchor="start" x="433.5" y="-74.5" font-family="Helvetica,sans-Serif" font-size="10.00" fill="#000000">amr&#45;wind/equation_systems</text>
<text text-anchor="middle" x="495" y="-63.5" font-family="Helvetica,sans-Serif" font-size="10.00" fill="#000000">/PDEFields.H</text>
</a>
</g>
</g>
<!-- Node32&#45;&gt;Node35 -->
<g id="edge57" class="edge">
<title>Node32&#45;&gt;Node35</title>
<path fill="none" stroke="#191970" d="M700.5288,-123.4639C660.2659,-113.2842 606.9194,-99.7966 564.6663,-89.1138"/>
<polygon fill="#191970" stroke="#191970" points="565.2834,-85.6597 554.7306,-86.6017 563.5676,-92.4462 565.2834,-85.6597"/>
</g>
<!-- Node33&#45;&gt;Node4 -->
<g id="edge54" class="edge">
<title>Node33&#45;&gt;Node4</title>
<path fill="none" stroke="#191970" d="M699.625,-61.8906C715.7698,-51.9616 741.1822,-36.333 759.9023,-24.8201"/>
<polygon fill="#191970" stroke="#191970" points="761.8002,-27.7619 768.4847,-19.5419 758.1331,-21.7992 761.8002,-27.7619"/>
</g>
<!-- Node33&#45;&gt;Node5 -->
<g id="edge55" class="edge">
<title>Node33&#45;&gt;Node5</title>
<path fill="none" stroke="#191970" d="M668.5313,-61.8906C652.5479,-51.9616 627.3897,-36.333 608.8567,-24.8201"/>
<polygon fill="#191970" stroke="#191970" points="610.7015,-21.8457 600.3601,-19.5419 607.0076,-27.7918 610.7015,-21.8457"/>
</g>
<!-- Node33&#45;&gt;Node10 -->
<g id="edge53" class="edge">
<title>Node33&#45;&gt;Node10</title>
<path fill="none" stroke="#191970" d="M746.5886,-62.3839C763.5703,-60.0964 781.9696,-57.7872 799,-56 1021.1336,-32.6887 1289.9022,-16.6725 1379.3816,-11.6661"/>
<polygon fill="#191970" stroke="#191970" points="1379.5992,-15.1595 1389.3898,-11.1104 1379.2111,-8.1702 1379.5992,-15.1595"/>
</g>
<!-- Node34 -->
<g id="node35" class="node">
<title>Node34</title>
<polygon fill="#ffffff" stroke="#bfbfbf" points="644.5,-.5 644.5,-19.5 739.5,-19.5 739.5,-.5 644.5,-.5"/>
<text text-anchor="middle" x="692" y="-7.5" font-family="Helvetica,sans-Serif" font-size="10.00" fill="#000000">AMReX_Vector.H</text>
</g>
<!-- Node33&#45;&gt;Node34 -->
<g id="edge56" class="edge">
<title>Node33&#45;&gt;Node34</title>
<path fill="none" stroke="#191970" d="M685.25,-61.8906C686.3589,-53.3657 688.0144,-40.6392 689.4083,-29.9235"/>
<polygon fill="#191970" stroke="#191970" points="692.9131,-30.1128 690.7324,-19.7449 685.9716,-29.2098 692.9131,-30.1128"/>
</g>
<!-- Node36 -->
<g id="node37" class="node">
<title>Node36</title>
<polygon fill="#ffffff" stroke="#bfbfbf" points="480.5,-.5 480.5,-19.5 525.5,-19.5 525.5,-.5 480.5,-.5"/>
<text text-anchor="middle" x="503" y="-7.5" font-family="Helvetica,sans-Serif" font-size="10.00" fill="#000000">iosfwd</text>
</g>
<!-- Node35&#45;&gt;Node36 -->
<g id="edge58" class="edge">
<title>Node35&#45;&gt;Node36</title>
<path fill="none" stroke="#191970" d="M496.9775,-56.2977C498.0186,-48.2945 499.3077,-38.3843 500.4258,-29.7889"/>
<polygon fill="#191970" stroke="#191970" points="503.8998,-30.2149 501.7191,-19.8469 496.9583,-29.3119 503.8998,-30.2149"/>
</g>
<!-- Node37&#45;&gt;Node3 -->
<g id="edge62" class="edge">
<title>Node37&#45;&gt;Node3</title>
<path fill="none" stroke="#191970" d="M871.1776,-128.9823C860.7544,-126.7511 849.4959,-124.5699 839,-123 652.3962,-95.0892 602.5632,-115.181 416,-87 408.8813,-85.9247 401.4086,-84.5587 394.0933,-83.0849"/>
<polygon fill="#191970" stroke="#191970" points="394.7687,-79.6505 384.2635,-81.0257 393.3334,-86.5018 394.7687,-79.6505"/>
</g>
<!-- Node37&#45;&gt;Node23 -->
<g id="edge64" class="edge">
<title>Node37&#45;&gt;Node23</title>
<path fill="none" stroke="#191970" d="M974.6233,-129.2299C993.0931,-126.8428 1013.3188,-124.521 1032,-123 1088.847,-118.3716 2013.722,-122.9508 2058,-87 2074.7304,-73.416 2078.1054,-47.6599 2078.2019,-29.6931"/>
<polygon fill="#191970" stroke="#191970" points="2081.7005,-29.5918 2077.9284,-19.6913 2074.7031,-29.7833 2081.7005,-29.5918"/>
</g>
<!-- Node37&#45;&gt;Node33 -->
<g id="edge63" class="edge">
<title>Node37&#45;&gt;Node33</title>
<path fill="none" stroke="#191970" d="M878.4764,-128.9005C838.4422,-117.0843 770.3619,-96.9901 726.2984,-83.9845"/>
<polygon fill="#191970" stroke="#191970" points="727.045,-80.5557 716.4632,-81.0817 725.0634,-87.2694 727.045,-80.5557"/>
</g>
<!-- Node38 -->
<g id="node39" class="node">
<title>Node38</title>
<polygon fill="#ffffff" stroke="#bfbfbf" points="841,-62 841,-81 951,-81 951,-62 841,-62"/>
<text text-anchor="middle" x="896" y="-69" font-family="Helvetica,sans-Serif" font-size="10.00" fill="#000000">AMReX_Geometry.H</text>
</g>
<!-- Node37&#45;&gt;Node38 -->
<g id="edge65" class="edge">
<title>Node37&#45;&gt;Node38</title>
<path fill="none" stroke="#191970" d="M908.8509,-128.9005C906.6454,-119.0495 903.1519,-103.4451 900.3637,-90.9912"/>
<polygon fill="#191970" stroke="#191970" points="903.7454,-90.0754 898.1451,-81.0817 896.9145,-91.6048 903.7454,-90.0754"/>
</g>
</g>
</svg>
        <g id="navigator" transform="translate(0 0)" fill="#404254">
                <rect fill="#f2f5e9" fill-opacity="0.5" stroke="#606060" stroke-width=".5" x="0" y="0" width="60" height="60"/>
                <use id="zoomplus" xlink:href="#zoomPlus" x="17" y="9" onmousedown="handleZoom(evt,'in')"/>
                <use id="zoomminus" xlink:href="#zoomMin" x="42" y="9" onmousedown="handleZoom(evt,'out')"/>
                <use id="reset" xlink:href="#resetDef" x="30" y="36" onmousedown="handleReset()"/>
                <g id="arrowUp" xlink:href="#dirArrow" transform="translate(30 24)" onmousedown="handlePan(0,-1)">
                  <use xlink:href="#rim" fill="#404040">
                        <set attributeName="fill" to="#808080" begin="arrowUp.mouseover" end="arrowUp.mouseout"/>
                  </use>
                  <path fill="none" stroke="white" stroke-width="1.5" d="M0,-3.0v7 M-2.5,-0.5L0,-3.0L2.5,-0.5"/>
                </g>
                <g id="arrowRight" xlink:href="#dirArrow" transform="rotate(90) translate(36 -43)" onmousedown="handlePan(1,0)">
                  <use xlink:href="#rim" fill="#404040">
                        <set attributeName="fill" to="#808080" begin="arrowRight.mouseover" end="arrowRight.mouseout"/>
                  </use>
                  <path fill="none" stroke="white" stroke-width="1.5" d="M0,-3.0v7 M-2.5,-0.5L0,-3.0L2.5,-0.5"/>
                </g>
                <g id="arrowDown" xlink:href="#dirArrow" transform="rotate(180) translate(-30 -48)" onmousedown="handlePan(0,1)">
                  <use xlink:href="#rim" fill="#404040">
                        <set attributeName="fill" to="#808080" begin="arrowDown.mouseover" end="arrowDown.mouseout"/>
                  </use>
                  <path fill="none" stroke="white" stroke-width="1.5" d="M0,-3.0v7 M-2.5,-0.5L0,-3.0L2.5,-0.5"/>
                </g>
                <g id="arrowLeft" xlink:href="#dirArrow" transform="rotate(270) translate(-36 17)" onmousedown="handlePan(-1,0)">
                  <use xlink:href="#rim" fill="#404040">
                        <set attributeName="fill" to="#808080" begin="arrowLeft.mouseover" end="arrowLeft.mouseout"/>
                  </use>
                  <path fill="none" stroke="white" stroke-width="1.5" d="M0,-3.0v7 M-2.5,-0.5L0,-3.0L2.5,-0.5"/>
                </g>
        </g>
        <svg viewBox="0 0 15 15" width="100%" height="30px" preserveAspectRatio="xMaxYMin meet">
         <g id="arrow_out" transform="scale(0.3 0.3)">
          <a xlink:href="_probe_sampler_8cpp__incl_org.svg" target="_base">
           <rect id="button" ry="5" rx="5" y="6" x="6" height="38" width="38"
                fill="#f2f5e9" fill-opacity="0.5" stroke="#606060" stroke-width="1.0"/>
           <path id="arrow"
             d="M 11.500037,31.436501 C 11.940474,20.09759 22.043105,11.32322 32.158766,21.979434 L 37.068811,17.246167 C 37.068811,17.246167 37.088388,32 37.088388,32 L 22.160133,31.978069 C 22.160133,31.978069 26.997745,27.140456 26.997745,27.140456 C 18.528582,18.264221 13.291696,25.230495 11.500037,31.436501 z"
             style="fill:#404040;"/>
          </a>
         </g>
        </svg>
</svg>
