<?xml version="1.0" encoding="UTF-8" standalone="no"?>
<!DOCTYPE svg PUBLIC "-//W3C//DTD SVG 1.1//EN"
 "http://www.w3.org/Graphics/SVG/1.1/DTD/svg11.dtd">
<!-- Generated by graphviz version 2.40.1 (20161225.0304)
 -->
<!-- Title: RayleighTaylor.cpp Pages: 1 -->
<svg width="2440pt" height="285pt"
 viewBox="0.00 0.00 2439.50 285.00" xmlns="http://www.w3.org/2000/svg" xmlns:xlink="http://www.w3.org/1999/xlink">
<g id="graph0" class="graph" transform="scale(1 1) rotate(0) translate(4 281)">
<title>RayleighTaylor.cpp</title>
<polygon fill="#ffffff" stroke="transparent" points="-4,4 -4,-281 2435.5,-281 2435.5,4 -4,4"/>
<!-- Node0 -->
<g id="node1" class="node">
<title>Node0</title>
<polygon fill="#bfbfbf" stroke="#000000" points="711.5,-257.5 711.5,-276.5 812.5,-276.5 812.5,-257.5 711.5,-257.5"/>
<text text-anchor="middle" x="762" y="-264.5" font-family="Helvetica,sans-Serif" font-size="10.00" fill="#000000">RayleighTaylor.cpp</text>
</g>
<!-- Node1 -->
<g id="node2" class="node">
<title>Node1</title>
<g id="a_node2"><a xlink:href="_rayleigh_taylor_8_h.html" target="_top" xlink:title="amr&#45;wind/physics/Rayleigh\lTaylor.H">
<polygon fill="#ffffff" stroke="#000000" points="695,-190.5 695,-220.5 829,-220.5 829,-190.5 695,-190.5"/>
<text text-anchor="start" x="703" y="-208.5" font-family="Helvetica,sans-Serif" font-size="10.00" fill="#000000">amr&#45;wind/physics/Rayleigh</text>
<text text-anchor="middle" x="762" y="-197.5" font-family="Helvetica,sans-Serif" font-size="10.00" fill="#000000">Taylor.H</text>
</a>
</g>
</g>
<!-- Node0&#45;&gt;Node1 -->
<g id="edge1" class="edge">
<title>Node0&#45;&gt;Node1</title>
<path fill="none" stroke="#191970" d="M762,-257.3906C762,-250.2234 762,-240.0862 762,-230.671"/>
<polygon fill="#191970" stroke="#191970" points="765.5001,-230.5446 762,-220.5446 758.5001,-230.5446 765.5001,-230.5446"/>
</g>
<!-- Node14 -->
<g id="node15" class="node">
<title>Node14</title>
<g id="a_node15"><a xlink:href="_rayleigh_taylor_field_init_8_h.html" target="_top" xlink:title="amr&#45;wind/physics/Rayleigh\lTaylorFieldInit.H">
<polygon fill="#ffffff" stroke="#000000" points="305,-123.5 305,-153.5 439,-153.5 439,-123.5 305,-123.5"/>
<text text-anchor="start" x="313" y="-141.5" font-family="Helvetica,sans-Serif" font-size="10.00" fill="#000000">amr&#45;wind/physics/Rayleigh</text>
<text text-anchor="middle" x="372" y="-130.5" font-family="Helvetica,sans-Serif" font-size="10.00" fill="#000000">TaylorFieldInit.H</text>
</a>
</g>
</g>
<!-- Node0&#45;&gt;Node14 -->
<g id="edge34" class="edge">
<title>Node0&#45;&gt;Node14</title>
<path fill="none" stroke="#191970" d="M733.0052,-257.4466C668.3088,-236.13 511.2639,-184.3857 427.2249,-156.6959"/>
<polygon fill="#191970" stroke="#191970" points="428.1893,-153.3286 417.5963,-153.5234 425.9987,-159.977 428.1893,-153.3286"/>
</g>
<!-- Node24 -->
<g id="node25" class="node">
<title>Node24</title>
<g id="a_node25"><a xlink:href="_c_f_d_sim_8_h.html" target="_top" xlink:title="amr&#45;wind/CFDSim.H">
<polygon fill="#ffffff" stroke="#000000" points="1179,-196 1179,-215 1287,-215 1287,-196 1179,-196"/>
<text text-anchor="middle" x="1233" y="-203" font-family="Helvetica,sans-Serif" font-size="10.00" fill="#000000">amr&#45;wind/CFDSim.H</text>
</a>
</g>
</g>
<!-- Node0&#45;&gt;Node24 -->
<g id="edge35" class="edge">
<title>Node0&#45;&gt;Node24</title>
<path fill="none" stroke="#191970" d="M812.8528,-260.36C899.1481,-249.0921 1074.0894,-226.2495 1168.7303,-213.8919"/>
<polygon fill="#191970" stroke="#191970" points="1169.285,-217.3493 1178.7476,-212.5839 1168.3786,-210.4082 1169.285,-217.3493"/>
</g>
<!-- Node2 -->
<g id="node3" class="node">
<title>Node2</title>
<polygon fill="#ffffff" stroke="#bfbfbf" points="1111,-.5 1111,-19.5 1163,-19.5 1163,-.5 1111,-.5"/>
<text text-anchor="middle" x="1137" y="-7.5" font-family="Helvetica,sans-Serif" font-size="10.00" fill="#000000">memory</text>
</g>
<!-- Node1&#45;&gt;Node2 -->
<g id="edge2" class="edge">
<title>Node1&#45;&gt;Node2</title>
<path fill="none" stroke="#191970" d="M740.3177,-190.46C701.8178,-162.0115 629.1537,-99.2966 669,-56 700.096,-22.2114 1020.8168,-27.9766 1100.4681,-19.5159"/>
<polygon fill="#191970" stroke="#191970" points="1101.3307,-22.93 1110.7571,-18.0932 1100.3719,-15.996 1101.3307,-22.93"/>
</g>
<!-- Node3 -->
<g id="node4" class="node">
<title>Node3</title>
<g id="a_node4"><a xlink:href="_physics_8_h.html" target="_top" xlink:title="amr&#45;wind/core/Physics.H">
<polygon fill="#ffffff" stroke="#000000" points="985.5,-129 985.5,-148 1112.5,-148 1112.5,-129 985.5,-129"/>
<text text-anchor="middle" x="1049" y="-136" font-family="Helvetica,sans-Serif" font-size="10.00" fill="#000000">amr&#45;wind/core/Physics.H</text>
</a>
</g>
</g>
<!-- Node1&#45;&gt;Node3 -->
<g id="edge3" class="edge">
<title>Node1&#45;&gt;Node3</title>
<path fill="none" stroke="#191970" d="M826.4084,-190.4639C878.4052,-178.3253 950.5498,-161.4831 998.4467,-150.3016"/>
<polygon fill="#191970" stroke="#191970" points="999.3409,-153.6871 1008.2833,-148.0053 997.7495,-146.8704 999.3409,-153.6871"/>
</g>
<!-- Node1&#45;&gt;Node14 -->
<g id="edge17" class="edge">
<title>Node1&#45;&gt;Node14</title>
<path fill="none" stroke="#191970" d="M694.9566,-193.9823C626.6275,-182.2437 520.77,-164.0579 449.0348,-151.7342"/>
<polygon fill="#191970" stroke="#191970" points="449.5948,-148.2792 439.1465,-150.0354 448.4095,-155.1781 449.5948,-148.2792"/>
</g>
<!-- Node20 -->
<g id="node21" class="node">
<title>Node20</title>
<g id="a_node21"><a xlink:href="_field_8_h.html" target="_top" xlink:title="amr&#45;wind/core/Field.H">
<polygon fill="#ffffff" stroke="#000000" points="1275.5,-62 1275.5,-81 1388.5,-81 1388.5,-62 1275.5,-62"/>
<text text-anchor="middle" x="1332" y="-69" font-family="Helvetica,sans-Serif" font-size="10.00" fill="#000000">amr&#45;wind/core/Field.H</text>
</a>
</g>
</g>
<!-- Node1&#45;&gt;Node20 -->
<g id="edge25" class="edge">
<title>Node1&#45;&gt;Node20</title>
<path fill="none" stroke="#191970" d="M829.2767,-200.5711C902.3012,-194.1395 1021.8892,-180.4401 1122,-154 1188.8261,-136.3507 1263.2981,-103.8371 1303.128,-85.3348"/>
<polygon fill="#191970" stroke="#191970" points="1304.6801,-88.4728 1312.25,-81.0601 1301.7098,-82.1343 1304.6801,-88.4728"/>
</g>
<!-- Node4 -->
<g id="node5" class="node">
<title>Node4</title>
<g id="a_node5"><a xlink:href="_factory_8_h.html" target="_top" xlink:title="amr&#45;wind/core/Factory.H">
<polygon fill="#ffffff" stroke="#000000" points="950.5,-62 950.5,-81 1075.5,-81 1075.5,-62 950.5,-62"/>
<text text-anchor="middle" x="1013" y="-69" font-family="Helvetica,sans-Serif" font-size="10.00" fill="#000000">amr&#45;wind/core/Factory.H</text>
</a>
</g>
</g>
<!-- Node3&#45;&gt;Node4 -->
<g id="edge4" class="edge">
<title>Node3&#45;&gt;Node4</title>
<path fill="none" stroke="#191970" d="M1043.8421,-128.9005C1038.4421,-118.8505 1029.8245,-102.8122 1023.0694,-90.2403"/>
<polygon fill="#191970" stroke="#191970" points="1025.9647,-88.234 1018.1484,-81.0817 1019.7984,-91.5472 1025.9647,-88.234"/>
</g>
<!-- Node9 -->
<g id="node10" class="node">
<title>Node9</title>
<g id="a_node10"><a xlink:href="_coll_mgr_8_h.html" target="_top" xlink:title="amr&#45;wind/core/CollMgr.H">
<polygon fill="#ffffff" stroke="#000000" points="1093.5,-62 1093.5,-81 1218.5,-81 1218.5,-62 1093.5,-62"/>
<text text-anchor="middle" x="1156" y="-69" font-family="Helvetica,sans-Serif" font-size="10.00" fill="#000000">amr&#45;wind/core/CollMgr.H</text>
</a>
</g>
</g>
<!-- Node3&#45;&gt;Node9 -->
<g id="edge10" class="edge">
<title>Node3&#45;&gt;Node9</title>
<path fill="none" stroke="#191970" d="M1064.3305,-128.9005C1082.0491,-117.8057 1111.4228,-99.4128 1132.1368,-86.4424"/>
<polygon fill="#191970" stroke="#191970" points="1134.0799,-89.3553 1140.6979,-81.0817 1130.3649,-83.4224 1134.0799,-89.3553"/>
</g>
<!-- Node12 -->
<g id="node13" class="node">
<title>Node12</title>
<polygon fill="#ffffff" stroke="#bfbfbf" points="1836,-.5 1836,-19.5 1940,-19.5 1940,-.5 1836,-.5"/>
<text text-anchor="middle" x="1888" y="-7.5" font-family="Helvetica,sans-Serif" font-size="10.00" fill="#000000">AMReX_MultiFab.H</text>
</g>
<!-- Node3&#45;&gt;Node12 -->
<g id="edge15" class="edge">
<title>Node3&#45;&gt;Node12</title>
<path fill="none" stroke="#191970" d="M1112.6497,-133.6526C1183.3203,-127.2267 1300.3134,-113.4712 1398,-87 1433.6074,-77.3511 1439.2266,-65.0139 1475,-56 1539.7798,-39.6773 1726.9726,-22.8974 1825.5639,-14.8641"/>
<polygon fill="#191970" stroke="#191970" points="1826.004,-18.34 1835.6889,-14.0445 1825.4391,-11.3628 1826.004,-18.34"/>
</g>
<!-- Node13 -->
<g id="node14" class="node">
<title>Node13</title>
<polygon fill="#ffffff" stroke="#bfbfbf" points="512,-62 512,-81 622,-81 622,-62 512,-62"/>
<text text-anchor="middle" x="567" y="-69" font-family="Helvetica,sans-Serif" font-size="10.00" fill="#000000">AMReX_Geometry.H</text>
</g>
<!-- Node3&#45;&gt;Node13 -->
<g id="edge16" class="edge">
<title>Node3&#45;&gt;Node13</title>
<path fill="none" stroke="#191970" d="M985.4186,-130.2011C909.9173,-120.2728 780.2031,-102.9837 669,-87 657.088,-85.2878 644.4029,-83.4068 632.1709,-81.5633"/>
<polygon fill="#191970" stroke="#191970" points="632.4407,-78.0644 622.0295,-80.0283 631.393,-84.9856 632.4407,-78.0644"/>
</g>
<!-- Node4&#45;&gt;Node2 -->
<g id="edge5" class="edge">
<title>Node4&#45;&gt;Node2</title>
<path fill="none" stroke="#191970" d="M1032.375,-61.8906C1052.8495,-51.7359 1085.3442,-35.6196 1108.6885,-24.0416"/>
<polygon fill="#191970" stroke="#191970" points="1110.3575,-27.1207 1117.7611,-19.5419 1107.2472,-20.8496 1110.3575,-27.1207"/>
</g>
<!-- Node5 -->
<g id="node6" class="node">
<title>Node5</title>
<polygon fill="#ffffff" stroke="#bfbfbf" points="1181.5,-.5 1181.5,-19.5 1264.5,-19.5 1264.5,-.5 1181.5,-.5"/>
<text text-anchor="middle" x="1223" y="-7.5" font-family="Helvetica,sans-Serif" font-size="10.00" fill="#000000">unordered_map</text>
</g>
<!-- Node4&#45;&gt;Node5 -->
<g id="edge6" class="edge">
<title>Node4&#45;&gt;Node5</title>
<path fill="none" stroke="#191970" d="M1045.8125,-61.8906C1082.1822,-51.2395 1140.9478,-34.0296 1180.7363,-22.3772"/>
<polygon fill="#191970" stroke="#191970" points="1181.8047,-25.7114 1190.4179,-19.5419 1179.8373,-18.9936 1181.8047,-25.7114"/>
</g>
<!-- Node6 -->
<g id="node7" class="node">
<title>Node6</title>
<polygon fill="#ffffff" stroke="#bfbfbf" points="749,-.5 749,-19.5 803,-19.5 803,-.5 749,-.5"/>
<text text-anchor="middle" x="776" y="-7.5" font-family="Helvetica,sans-Serif" font-size="10.00" fill="#000000">iostream</text>
</g>
<!-- Node4&#45;&gt;Node6 -->
<g id="edge7" class="edge">
<title>Node4&#45;&gt;Node6</title>
<path fill="none" stroke="#191970" d="M975.3665,-61.952C935.1396,-51.7127 869.5092,-34.9114 813,-20 812.8995,-19.9735 812.7988,-19.9469 812.698,-19.9203"/>
<polygon fill="#191970" stroke="#191970" points="813.6319,-16.5471 803.0679,-17.3556 811.8304,-23.3113 813.6319,-16.5471"/>
</g>
<!-- Node7 -->
<g id="node8" class="node">
<title>Node7</title>
<polygon fill="#ffffff" stroke="#bfbfbf" points="821.5,-.5 821.5,-19.5 908.5,-19.5 908.5,-.5 821.5,-.5"/>
<text text-anchor="middle" x="865" y="-7.5" font-family="Helvetica,sans-Serif" font-size="10.00" fill="#000000">AMReX_Print.H</text>
</g>
<!-- Node4&#45;&gt;Node7 -->
<g id="edge8" class="edge">
<title>Node4&#45;&gt;Node7</title>
<path fill="none" stroke="#191970" d="M989.875,-61.8906C965.0033,-51.5554 925.2702,-35.0447 897.3156,-23.4284"/>
<polygon fill="#191970" stroke="#191970" points="898.5402,-20.1472 887.9626,-19.5419 895.854,-26.6113 898.5402,-20.1472"/>
</g>
<!-- Node8 -->
<g id="node9" class="node">
<title>Node8</title>
<polygon fill="#ffffff" stroke="#bfbfbf" points="927,-.5 927,-19.5 989,-19.5 989,-.5 927,-.5"/>
<text text-anchor="middle" x="958" y="-7.5" font-family="Helvetica,sans-Serif" font-size="10.00" fill="#000000">AMReX.H</text>
</g>
<!-- Node4&#45;&gt;Node8 -->
<g id="edge9" class="edge">
<title>Node4&#45;&gt;Node8</title>
<path fill="none" stroke="#191970" d="M1004.4063,-61.8906C996.1403,-52.6478 983.4574,-38.466 973.4383,-27.2628"/>
<polygon fill="#191970" stroke="#191970" points="975.99,-24.8657 966.7149,-19.7449 970.7722,-29.5321 975.99,-24.8657"/>
</g>
<!-- Node9&#45;&gt;Node2 -->
<g id="edge12" class="edge">
<title>Node9&#45;&gt;Node2</title>
<path fill="none" stroke="#191970" d="M1153.0313,-61.8906C1150.3698,-53.276 1146.3829,-40.3708 1143.0509,-29.5858"/>
<polygon fill="#191970" stroke="#191970" points="1146.3065,-28.2661 1140.0106,-19.7449 1139.6184,-30.3324 1146.3065,-28.2661"/>
</g>
<!-- Node9&#45;&gt;Node5 -->
<g id="edge13" class="edge">
<title>Node9&#45;&gt;Node5</title>
<path fill="none" stroke="#191970" d="M1166.4688,-61.8906C1176.7337,-52.4683 1192.5903,-37.9134 1204.9006,-26.6137"/>
<polygon fill="#191970" stroke="#191970" points="1207.3834,-29.0856 1212.3837,-19.7449 1202.6499,-23.9287 1207.3834,-29.0856"/>
</g>
<!-- Node10 -->
<g id="node11" class="node">
<title>Node10</title>
<polygon fill="#ffffff" stroke="#bfbfbf" points="1703.5,-.5 1703.5,-19.5 1744.5,-19.5 1744.5,-.5 1703.5,-.5"/>
<text text-anchor="middle" x="1724" y="-7.5" font-family="Helvetica,sans-Serif" font-size="10.00" fill="#000000">string</text>
</g>
<!-- Node9&#45;&gt;Node10 -->
<g id="edge11" class="edge">
<title>Node9&#45;&gt;Node10</title>
<path fill="none" stroke="#191970" d="M1218.7571,-62.308C1234.4932,-60.1213 1251.3516,-57.8794 1267,-56 1427.0261,-36.7804 1619.2426,-19.2347 1693.0601,-12.7008"/>
<polygon fill="#191970" stroke="#191970" points="1693.8179,-16.1477 1703.4719,-11.7829 1693.2031,-9.1747 1693.8179,-16.1477"/>
</g>
<!-- Node11 -->
<g id="node12" class="node">
<title>Node11</title>
<polygon fill="#ffffff" stroke="#bfbfbf" points="461.5,-.5 461.5,-19.5 556.5,-19.5 556.5,-.5 461.5,-.5"/>
<text text-anchor="middle" x="509" y="-7.5" font-family="Helvetica,sans-Serif" font-size="10.00" fill="#000000">AMReX_Vector.H</text>
</g>
<!-- Node9&#45;&gt;Node11 -->
<g id="edge14" class="edge">
<title>Node9&#45;&gt;Node11</title>
<path fill="none" stroke="#191970" d="M1116.7421,-61.9373C1106.4634,-59.7068 1095.3584,-57.5371 1085,-56 896.7236,-28.0617 671.1316,-16.2684 566.957,-12.035"/>
<polygon fill="#191970" stroke="#191970" points="566.7912,-8.5257 556.6599,-11.6252 566.5128,-15.5202 566.7912,-8.5257"/>
</g>
<!-- Node14&#45;&gt;Node11 -->
<g id="edge23" class="edge">
<title>Node14&#45;&gt;Node11</title>
<path fill="none" stroke="#191970" d="M363.1848,-123.2272C354.1684,-105.3634 343.3862,-75.7288 358,-56 369.455,-40.5356 413.7911,-28.1939 451.4813,-20.2032"/>
<polygon fill="#191970" stroke="#191970" points="452.3069,-23.6068 461.398,-18.1661 450.8983,-16.75 452.3069,-23.6068"/>
</g>
<!-- Node14&#45;&gt;Node13 -->
<g id="edge21" class="edge">
<title>Node14&#45;&gt;Node13</title>
<path fill="none" stroke="#191970" d="M415.7618,-123.4639C450.0559,-111.6808 497.2491,-95.4657 529.7508,-84.2984"/>
<polygon fill="#191970" stroke="#191970" points="531.0154,-87.5649 539.3354,-81.0053 528.7407,-80.9447 531.0154,-87.5649"/>
</g>
<!-- Node15 -->
<g id="node16" class="node">
<title>Node15</title>
<polygon fill="#ffffff" stroke="#bfbfbf" points="0,-62 0,-81 90,-81 90,-62 0,-62"/>
<text text-anchor="middle" x="45" y="-69" font-family="Helvetica,sans-Serif" font-size="10.00" fill="#000000">AMReX_Array.H</text>
</g>
<!-- Node14&#45;&gt;Node15 -->
<g id="edge18" class="edge">
<title>Node14&#45;&gt;Node15</title>
<path fill="none" stroke="#191970" d="M304.8773,-127.6313C249.3898,-118.2178 168.689,-103.537 99,-87 94.8362,-86.012 90.5136,-84.9073 86.2087,-83.755"/>
<polygon fill="#191970" stroke="#191970" points="86.8506,-80.3013 76.2796,-81.0124 84.9868,-87.0486 86.8506,-80.3013"/>
</g>
<!-- Node16 -->
<g id="node17" class="node">
<title>Node16</title>
<polygon fill="#ffffff" stroke="#bfbfbf" points="108.5,-62 108.5,-81 203.5,-81 203.5,-62 108.5,-62"/>
<text text-anchor="middle" x="156" y="-69" font-family="Helvetica,sans-Serif" font-size="10.00" fill="#000000">AMReX_Array4.H</text>
</g>
<!-- Node14&#45;&gt;Node16 -->
<g id="edge19" class="edge">
<title>Node14&#45;&gt;Node16</title>
<path fill="none" stroke="#191970" d="M323.5254,-123.4639C285.2106,-111.5792 232.3601,-95.1858 196.3332,-84.0108"/>
<polygon fill="#191970" stroke="#191970" points="197.2319,-80.6251 186.6439,-81.0053 195.1581,-87.3108 197.2319,-80.6251"/>
</g>
<!-- Node17 -->
<g id="node18" class="node">
<title>Node17</title>
<polygon fill="#ffffff" stroke="#bfbfbf" points="222,-62 222,-81 306,-81 306,-62 222,-62"/>
<text text-anchor="middle" x="264" y="-69" font-family="Helvetica,sans-Serif" font-size="10.00" fill="#000000">AMReX_Box.H</text>
</g>
<!-- Node14&#45;&gt;Node17 -->
<g id="edge20" class="edge">
<title>Node14&#45;&gt;Node17</title>
<path fill="none" stroke="#191970" d="M347.7627,-123.4639C329.9682,-112.4247 305.9031,-97.4954 288.1331,-86.4715"/>
<polygon fill="#191970" stroke="#191970" points="289.8237,-83.4015 279.4809,-81.1039 286.1335,-89.3498 289.8237,-83.4015"/>
</g>
<!-- Node18 -->
<g id="node19" class="node">
<title>Node18</title>
<polygon fill="#ffffff" stroke="#bfbfbf" points="400.5,-62 400.5,-81 493.5,-81 493.5,-62 400.5,-62"/>
<text text-anchor="middle" x="447" y="-69" font-family="Helvetica,sans-Serif" font-size="10.00" fill="#000000">AMReX_REAL.H</text>
</g>
<!-- Node14&#45;&gt;Node18 -->
<g id="edge22" class="edge">
<title>Node14&#45;&gt;Node18</title>
<path fill="none" stroke="#191970" d="M389.0187,-123.2967C400.8175,-112.7564 416.5184,-98.7303 428.6057,-87.9323"/>
<polygon fill="#191970" stroke="#191970" points="431.1783,-90.3273 436.3041,-81.055 426.5147,-85.107 431.1783,-90.3273"/>
</g>
<!-- Node19 -->
<g id="node20" class="node">
<title>Node19</title>
<polygon fill="#ffffff" stroke="#bfbfbf" points="1007.5,-.5 1007.5,-19.5 1092.5,-19.5 1092.5,-.5 1007.5,-.5"/>
<text text-anchor="middle" x="1050" y="-7.5" font-family="Helvetica,sans-Serif" font-size="10.00" fill="#000000">AMReX_Gpu.H</text>
</g>
<!-- Node14&#45;&gt;Node19 -->
<g id="edge24" class="edge">
<title>Node14&#45;&gt;Node19</title>
<path fill="none" stroke="#191970" d="M370.5732,-123.2837C369.7319,-104.3212 371.5823,-72.4164 391,-56 440.6802,-13.9985 895.3165,-27.2908 997.0728,-19.6652"/>
<polygon fill="#191970" stroke="#191970" points="997.6044,-23.1303 1007.222,-18.686 996.932,-16.1626 997.6044,-23.1303"/>
</g>
<!-- Node20&#45;&gt;Node2 -->
<g id="edge27" class="edge">
<title>Node20&#45;&gt;Node2</title>
<path fill="none" stroke="#191970" d="M1301.5313,-61.8906C1266.7727,-50.9283 1209.9851,-33.0184 1173.0528,-21.3705"/>
<polygon fill="#191970" stroke="#191970" points="1173.787,-17.9322 1163.1973,-18.2622 1171.6815,-24.608 1173.787,-17.9322"/>
</g>
<!-- Node20&#45;&gt;Node5 -->
<g id="edge28" class="edge">
<title>Node20&#45;&gt;Node5</title>
<path fill="none" stroke="#191970" d="M1314.9688,-61.8906C1297.211,-51.8713 1269.167,-36.0483 1248.7118,-24.5071"/>
<polygon fill="#191970" stroke="#191970" points="1250.3409,-21.4077 1239.9117,-19.5419 1246.9011,-27.5042 1250.3409,-21.4077"/>
</g>
<!-- Node20&#45;&gt;Node10 -->
<g id="edge26" class="edge">
<title>Node20&#45;&gt;Node10</title>
<path fill="none" stroke="#191970" d="M1388.5815,-62.6231C1472.5343,-49.4519 1627.2424,-25.1801 1693.0579,-14.8544"/>
<polygon fill="#191970" stroke="#191970" points="1693.8591,-18.2716 1703.1958,-13.2639 1692.7741,-11.3562 1693.8591,-18.2716"/>
</g>
<!-- Node20&#45;&gt;Node12 -->
<g id="edge29" class="edge">
<title>Node20&#45;&gt;Node12</title>
<path fill="none" stroke="#191970" d="M1388.518,-63.0389C1405.384,-60.6286 1423.9251,-58.0918 1441,-56 1578.1009,-39.204 1739.3729,-23.6376 1825.8028,-15.6339"/>
<polygon fill="#191970" stroke="#191970" points="1826.3294,-19.1003 1835.9653,-14.6958 1825.6859,-12.1299 1826.3294,-19.1003"/>
</g>
<!-- Node20&#45;&gt;Node19 -->
<g id="edge31" class="edge">
<title>Node20&#45;&gt;Node19</title>
<path fill="none" stroke="#191970" d="M1288.2469,-61.9581C1238.2509,-51.0547 1156.45,-33.2152 1102.9133,-21.5396"/>
<polygon fill="#191970" stroke="#191970" points="1103.4465,-18.0737 1092.9304,-19.3625 1101.9549,-24.9129 1103.4465,-18.0737"/>
</g>
<!-- Node21 -->
<g id="node22" class="node">
<title>Node21</title>
<polygon fill="#ffffff" stroke="#bfbfbf" points="1282.5,-.5 1282.5,-19.5 1381.5,-19.5 1381.5,-.5 1282.5,-.5"/>
<text text-anchor="middle" x="1332" y="-7.5" font-family="Helvetica,sans-Serif" font-size="10.00" fill="#000000">AMReX_BCRec.H</text>
</g>
<!-- Node20&#45;&gt;Node21 -->
<g id="edge30" class="edge">
<title>Node20&#45;&gt;Node21</title>
<path fill="none" stroke="#191970" d="M1332,-61.8906C1332,-53.3657 1332,-40.6392 1332,-29.9235"/>
<polygon fill="#191970" stroke="#191970" points="1335.5001,-29.7448 1332,-19.7449 1328.5001,-29.7449 1335.5001,-29.7448"/>
</g>
<!-- Node22 -->
<g id="node23" class="node">
<title>Node22</title>
<g id="a_node23"><a xlink:href="incflo__enums_8_h.html" target="_top" xlink:title="amr&#45;wind/incflo_enums.H">
<polygon fill="#ffffff" stroke="#000000" points="1400,-.5 1400,-19.5 1528,-19.5 1528,-.5 1400,-.5"/>
<text text-anchor="middle" x="1464" y="-7.5" font-family="Helvetica,sans-Serif" font-size="10.00" fill="#000000">amr&#45;wind/incflo_enums.H</text>
</a>
</g>
</g>
<!-- Node20&#45;&gt;Node22 -->
<g id="edge32" class="edge">
<title>Node20&#45;&gt;Node22</title>
<path fill="none" stroke="#191970" d="M1352.625,-61.8906C1374.5173,-51.6908 1409.3193,-35.4763 1434.1927,-23.8875"/>
<polygon fill="#191970" stroke="#191970" points="1435.9335,-26.9377 1443.5198,-19.5419 1432.9772,-20.5926 1435.9335,-26.9377"/>
</g>
<!-- Node23 -->
<g id="node24" class="node">
<title>Node23</title>
<g id="a_node24"><a xlink:href="_field_desc_types_8_h.html" target="_top" xlink:title="amr&#45;wind/core/FieldDescTypes.H">
<polygon fill="#ffffff" stroke="#000000" points="1958.5,-.5 1958.5,-19.5 2121.5,-19.5 2121.5,-.5 1958.5,-.5"/>
<text text-anchor="middle" x="2040" y="-7.5" font-family="Helvetica,sans-Serif" font-size="10.00" fill="#000000">amr&#45;wind/core/FieldDescTypes.H</text>
</a>
</g>
</g>
<!-- Node20&#45;&gt;Node23 -->
<g id="edge33" class="edge">
<title>Node20&#45;&gt;Node23</title>
<path fill="none" stroke="#191970" d="M1388.6736,-64.9331C1414.9183,-62.001 1446.5279,-58.6236 1475,-56 1682.0949,-36.9169 1736.9299,-39.4557 1947.9908,-20.0649"/>
<polygon fill="#191970" stroke="#191970" points="1948.5253,-23.5305 1958.1607,-19.1247 1947.8809,-16.5602 1948.5253,-23.5305"/>
</g>
<!-- Node24&#45;&gt;Node3 -->
<g id="edge69" class="edge">
<title>Node24&#45;&gt;Node3</title>
<path fill="none" stroke="#191970" d="M1206.6373,-195.9005C1174.6649,-184.2584 1120.6241,-164.5805 1084.8775,-151.5641"/>
<polygon fill="#191970" stroke="#191970" points="1085.9078,-148.2145 1075.3138,-148.0817 1083.5127,-154.792 1085.9078,-148.2145"/>
</g>
<!-- Node25 -->
<g id="node26" class="node">
<title>Node25</title>
<polygon fill="#ffffff" stroke="#bfbfbf" points="1679,-62 1679,-81 1785,-81 1785,-62 1679,-62"/>
<text text-anchor="middle" x="1732" y="-69" font-family="Helvetica,sans-Serif" font-size="10.00" fill="#000000">AMReX_AmrCore.H</text>
</g>
<!-- Node24&#45;&gt;Node25 -->
<g id="edge36" class="edge">
<title>Node24&#45;&gt;Node25</title>
<path fill="none" stroke="#191970" d="M1287.1632,-197.2205C1340.7037,-188.4928 1424.7137,-173.3332 1496,-154 1569.7605,-133.9958 1653.7026,-102.4803 1698.9251,-84.7524"/>
<polygon fill="#191970" stroke="#191970" points="1700.2152,-88.006 1708.235,-81.0827 1697.6482,-81.4937 1700.2152,-88.006"/>
</g>
<!-- Node26 -->
<g id="node27" class="node">
<title>Node26</title>
<g id="a_node27"><a xlink:href="_sim_time_8_h.html" target="_top" xlink:title="amr&#45;wind/core/SimTime.H">
<polygon fill="#ffffff" stroke="#000000" points="775.5,-129 775.5,-148 906.5,-148 906.5,-129 775.5,-129"/>
<text text-anchor="middle" x="841" y="-136" font-family="Helvetica,sans-Serif" font-size="10.00" fill="#000000">amr&#45;wind/core/SimTime.H</text>
</a>
</g>
</g>
<!-- Node24&#45;&gt;Node26 -->
<g id="edge37" class="edge">
<title>Node24&#45;&gt;Node26</title>
<path fill="none" stroke="#191970" d="M1178.9056,-196.2543C1107.8499,-184.1096 983.164,-162.7984 906.7451,-149.737"/>
<polygon fill="#191970" stroke="#191970" points="907.1998,-146.2641 896.753,-148.0292 906.0204,-153.164 907.1998,-146.2641"/>
</g>
<!-- Node29 -->
<g id="node30" class="node">
<title>Node29</title>
<g id="a_node30"><a xlink:href="_field_repo_8_h.html" target="_top" xlink:title="amr&#45;wind/core/FieldRepo.H">
<polygon fill="#ffffff" stroke="#000000" points="1846,-129 1846,-148 1982,-148 1982,-129 1846,-129"/>
<text text-anchor="middle" x="1914" y="-136" font-family="Helvetica,sans-Serif" font-size="10.00" fill="#000000">amr&#45;wind/core/FieldRepo.H</text>
</a>
</g>
</g>
<!-- Node24&#45;&gt;Node29 -->
<g id="edge41" class="edge">
<title>Node24&#45;&gt;Node29</title>
<path fill="none" stroke="#191970" d="M1287.0062,-200.1866C1406.9317,-188.3878 1695.8539,-159.9622 1835.638,-146.2096"/>
<polygon fill="#191970" stroke="#191970" points="1836.2379,-149.6676 1845.8471,-145.2052 1835.5524,-142.7012 1836.2379,-149.6676"/>
</g>
<!-- Node35 -->
<g id="node36" class="node">
<title>Node35</title>
<g id="a_node36"><a xlink:href="_p_d_e_base_8_h.html" target="_top" xlink:title="amr&#45;wind/equation_systems\l/PDEBase.H">
<polygon fill="#ffffff" stroke="#000000" points="1347.5,-123.5 1347.5,-153.5 1486.5,-153.5 1486.5,-123.5 1347.5,-123.5"/>
<text text-anchor="start" x="1355.5" y="-141.5" font-family="Helvetica,sans-Serif" font-size="10.00" fill="#000000">amr&#45;wind/equation_systems</text>
<text text-anchor="middle" x="1417" y="-130.5" font-family="Helvetica,sans-Serif" font-size="10.00" fill="#000000">/PDEBase.H</text>
</a>
</g>
</g>
<!-- Node24&#45;&gt;Node35 -->
<g id="edge61" class="edge">
<title>Node24&#45;&gt;Node35</title>
<path fill="none" stroke="#191970" d="M1259.3627,-195.9005C1287.1569,-185.7798 1331.6285,-169.5864 1366.261,-156.9756"/>
<polygon fill="#191970" stroke="#191970" points="1367.5473,-160.2321 1375.7462,-153.5218 1365.1522,-153.6546 1367.5473,-160.2321"/>
</g>
<!-- Node26&#45;&gt;Node18 -->
<g id="edge38" class="edge">
<title>Node26&#45;&gt;Node18</title>
<path fill="none" stroke="#191970" d="M775.4706,-130.8604C707.0688,-122.3394 596.8896,-107.0722 503,-87 498.3142,-85.9982 493.4393,-84.8346 488.6068,-83.6036"/>
<polygon fill="#191970" stroke="#191970" points="489.384,-80.1889 478.8213,-81.0127 487.5923,-86.9557 489.384,-80.1889"/>
</g>
<!-- Node27 -->
<g id="node28" class="node">
<title>Node27</title>
<polygon fill="#ffffff" stroke="#bfbfbf" points="678,-62 678,-81 804,-81 804,-62 678,-62"/>
<text text-anchor="middle" x="741" y="-69" font-family="Helvetica,sans-Serif" font-size="10.00" fill="#000000">AMReX_GpuQualifiers.H</text>
</g>
<!-- Node26&#45;&gt;Node27 -->
<g id="edge39" class="edge">
<title>Node26&#45;&gt;Node27</title>
<path fill="none" stroke="#191970" d="M826.6724,-128.9005C810.2615,-117.9052 783.1525,-99.7422 763.8249,-86.7927"/>
<polygon fill="#191970" stroke="#191970" points="765.5569,-83.7402 755.301,-81.0817 761.6605,-89.5556 765.5569,-83.7402"/>
</g>
<!-- Node28 -->
<g id="node29" class="node">
<title>Node28</title>
<polygon fill="#ffffff" stroke="#bfbfbf" points="822,-62 822,-81 932,-81 932,-62 822,-62"/>
<text text-anchor="middle" x="877" y="-69" font-family="Helvetica,sans-Serif" font-size="10.00" fill="#000000">AMReX_Extension.H</text>
</g>
<!-- Node26&#45;&gt;Node28 -->
<g id="edge40" class="edge">
<title>Node26&#45;&gt;Node28</title>
<path fill="none" stroke="#191970" d="M846.1579,-128.9005C851.5579,-118.8505 860.1755,-102.8122 866.9306,-90.2403"/>
<polygon fill="#191970" stroke="#191970" points="870.2016,-91.5472 871.8516,-81.0817 864.0353,-88.234 870.2016,-91.5472"/>
</g>
<!-- Node29&#45;&gt;Node5 -->
<g id="edge43" class="edge">
<title>Node29&#45;&gt;Node5</title>
<path fill="none" stroke="#191970" d="M1845.904,-136.6539C1689.6395,-131.9114 1315.0145,-117.4745 1267,-87 1246.3533,-73.8956 1234.3893,-47.4126 1228.2815,-29.196"/>
<polygon fill="#191970" stroke="#191970" points="1231.6146,-28.1266 1225.3407,-19.5891 1224.9212,-30.1756 1231.6146,-28.1266"/>
</g>
<!-- Node29&#45;&gt;Node10 -->
<g id="edge42" class="edge">
<title>Node29&#45;&gt;Node10</title>
<path fill="none" stroke="#191970" d="M1897.2733,-128.8218C1880.4199,-118.8802 1853.8515,-102.684 1832,-87 1814.293,-74.2908 1811.5752,-68.8909 1794,-56 1779.2327,-45.1686 1762.0541,-33.8617 1748.4106,-25.1684"/>
<polygon fill="#191970" stroke="#191970" points="1749.9267,-21.9864 1739.6029,-19.6055 1746.1887,-27.9048 1749.9267,-21.9864"/>
</g>
<!-- Node29&#45;&gt;Node12 -->
<g id="edge59" class="edge">
<title>Node29&#45;&gt;Node12</title>
<path fill="none" stroke="#191970" d="M1942.6436,-128.876C1961.4914,-120.8759 1984.6947,-107.4503 1996,-87 2002.6658,-74.9421 2003.5974,-67.4938 1996,-56 1985.3801,-39.9337 1967.8841,-29.4606 1950.0356,-22.6407"/>
<polygon fill="#191970" stroke="#191970" points="1950.7196,-19.1741 1940.1249,-19.2154 1948.433,-25.7901 1950.7196,-19.1741"/>
</g>
<!-- Node29&#45;&gt;Node20 -->
<g id="edge49" class="edge">
<title>Node29&#45;&gt;Node20</title>
<path fill="none" stroke="#191970" d="M1845.8122,-130.6502C1733.3091,-117.6988 1510.1819,-92.0123 1398.6776,-79.1759"/>
<polygon fill="#191970" stroke="#191970" points="1398.9025,-75.6788 1388.5678,-78.0121 1398.1018,-82.6329 1398.9025,-75.6788"/>
</g>
<!-- Node29&#45;&gt;Node23 -->
<g id="edge44" class="edge">
<title>Node29&#45;&gt;Node23</title>
<path fill="none" stroke="#191970" d="M1982.0901,-131.8423C2068.5743,-122.6877 2208.523,-105.2603 2224,-87 2232.9084,-76.4896 2232.479,-66.8597 2224,-56 2211.4308,-39.9016 2167.8353,-28.6034 2126.2352,-21.2335"/>
<polygon fill="#191970" stroke="#191970" points="2126.7317,-17.7677 2116.2856,-19.5363 2125.5546,-24.668 2126.7317,-17.7677"/>
</g>
<!-- Node29&#45;&gt;Node25 -->
<g id="edge58" class="edge">
<title>Node29&#45;&gt;Node25</title>
<path fill="none" stroke="#191970" d="M1887.9238,-128.9005C1856.2989,-117.2584 1802.8456,-97.5805 1767.4876,-84.5641"/>
<polygon fill="#191970" stroke="#191970" points="1768.6213,-81.2519 1758.0278,-81.0817 1766.203,-87.8209 1768.6213,-81.2519"/>
</g>
<!-- Node30 -->
<g id="node31" class="node">
<title>Node30</title>
<g id="a_node31"><a xlink:href="_field_utils_8_h.html" target="_top" xlink:title="amr&#45;wind/core/FieldUtils.H">
<polygon fill="#ffffff" stroke="#000000" points="2081.5,-62 2081.5,-81 2214.5,-81 2214.5,-62 2081.5,-62"/>
<text text-anchor="middle" x="2148" y="-69" font-family="Helvetica,sans-Serif" font-size="10.00" fill="#000000">amr&#45;wind/core/FieldUtils.H</text>
</a>
</g>
</g>
<!-- Node29&#45;&gt;Node30 -->
<g id="edge45" class="edge">
<title>Node29&#45;&gt;Node30</title>
<path fill="none" stroke="#191970" d="M1947.5265,-128.9005C1988.8821,-117.0594 2059.2706,-96.9054 2104.6838,-83.9025"/>
<polygon fill="#191970" stroke="#191970" points="2105.8855,-87.1992 2114.5357,-81.0817 2103.9586,-80.4696 2105.8855,-87.1992"/>
</g>
<!-- Node32 -->
<g id="node33" class="node">
<title>Node32</title>
<g id="a_node33"><a xlink:href="_int_field_8_h.html" target="_top" xlink:title="amr&#45;wind/core/IntField.H">
<polygon fill="#ffffff" stroke="#000000" points="2271,-62 2271,-81 2395,-81 2395,-62 2271,-62"/>
<text text-anchor="middle" x="2333" y="-69" font-family="Helvetica,sans-Serif" font-size="10.00" fill="#000000">amr&#45;wind/core/IntField.H</text>
</a>
</g>
</g>
<!-- Node29&#45;&gt;Node32 -->
<g id="edge50" class="edge">
<title>Node29&#45;&gt;Node32</title>
<path fill="none" stroke="#191970" d="M1982.1782,-129.3311C2051.5167,-119.7557 2161.9794,-103.8113 2257,-87 2263.771,-85.8021 2270.8645,-84.4653 2277.8825,-83.0929"/>
<polygon fill="#191970" stroke="#191970" points="2278.939,-86.4514 2288.0644,-81.0684 2277.5738,-79.5858 2278.939,-86.4514"/>
</g>
<!-- Node33 -->
<g id="node34" class="node">
<title>Node33</title>
<polygon fill="#ffffff" stroke="#bfbfbf" points="2324.5,-.5 2324.5,-19.5 2431.5,-19.5 2431.5,-.5 2324.5,-.5"/>
<text text-anchor="middle" x="2378" y="-7.5" font-family="Helvetica,sans-Serif" font-size="10.00" fill="#000000">AMReX_iMultiFab.H</text>
</g>
<!-- Node29&#45;&gt;Node33 -->
<g id="edge60" class="edge">
<title>Node29&#45;&gt;Node33</title>
<path fill="none" stroke="#191970" d="M1982.407,-136.2886C2110.532,-131.4381 2376.312,-117.7506 2404,-87 2418.9539,-70.392 2405.4505,-44.8591 2392.9792,-27.8029"/>
<polygon fill="#191970" stroke="#191970" points="2395.6129,-25.4884 2386.7077,-19.7484 2390.0897,-29.789 2395.6129,-25.4884"/>
</g>
<!-- Node34 -->
<g id="node35" class="node">
<title>Node34</title>
<g id="a_node35"><a xlink:href="_scratch_field_8_h.html" target="_top" xlink:title="amr&#45;wind/core/ScratchField.H">
<polygon fill="#ffffff" stroke="#000000" points="1841,-62 1841,-81 1987,-81 1987,-62 1841,-62"/>
<text text-anchor="middle" x="1914" y="-69" font-family="Helvetica,sans-Serif" font-size="10.00" fill="#000000">amr&#45;wind/core/ScratchField.H</text>
</a>
</g>
</g>
<!-- Node29&#45;&gt;Node34 -->
<g id="edge54" class="edge">
<title>Node29&#45;&gt;Node34</title>
<path fill="none" stroke="#191970" d="M1914,-128.9005C1914,-119.149 1914,-103.7597 1914,-91.3695"/>
<polygon fill="#191970" stroke="#191970" points="1917.5001,-91.0816 1914,-81.0817 1910.5001,-91.0817 1917.5001,-91.0816"/>
</g>
<!-- Node30&#45;&gt;Node12 -->
<g id="edge47" class="edge">
<title>Node30&#45;&gt;Node12</title>
<path fill="none" stroke="#191970" d="M2107.6603,-61.9581C2062.0232,-51.1632 1987.643,-33.5694 1938.266,-21.8899"/>
<polygon fill="#191970" stroke="#191970" points="1938.9715,-18.4602 1928.4344,-19.5643 1937.3602,-25.2722 1938.9715,-18.4602"/>
</g>
<!-- Node30&#45;&gt;Node23 -->
<g id="edge46" class="edge">
<title>Node30&#45;&gt;Node23</title>
<path fill="none" stroke="#191970" d="M2131.125,-61.8906C2113.5302,-51.8713 2085.7434,-36.0483 2065.4759,-24.5071"/>
<polygon fill="#191970" stroke="#191970" points="2067.1783,-21.4489 2056.7565,-19.5419 2063.7144,-27.5318 2067.1783,-21.4489"/>
</g>
<!-- Node31 -->
<g id="node32" class="node">
<title>Node31</title>
<polygon fill="#ffffff" stroke="#bfbfbf" points="2140,-.5 2140,-19.5 2256,-19.5 2256,-.5 2140,-.5"/>
<text text-anchor="middle" x="2198" y="-7.5" font-family="Helvetica,sans-Serif" font-size="10.00" fill="#000000">AMReX_Interpolater.H</text>
</g>
<!-- Node30&#45;&gt;Node31 -->
<g id="edge48" class="edge">
<title>Node30&#45;&gt;Node31</title>
<path fill="none" stroke="#191970" d="M2155.8125,-61.8906C2163.254,-52.7376 2174.6334,-38.7409 2183.6992,-27.59"/>
<polygon fill="#191970" stroke="#191970" points="2186.4847,-29.712 2190.0774,-19.7449 2181.0533,-25.2962 2186.4847,-29.712"/>
</g>
<!-- Node32&#45;&gt;Node10 -->
<g id="edge51" class="edge">
<title>Node32&#45;&gt;Node10</title>
<path fill="none" stroke="#191970" d="M2270.8179,-62.1011C2255.529,-59.9439 2239.1887,-57.7674 2224,-56 2048.0191,-35.522 2003.3927,-36.5602 1827,-20 1802.6285,-17.7119 1775.023,-15.0268 1754.5295,-13.0153"/>
<polygon fill="#191970" stroke="#191970" points="1754.8104,-9.5261 1744.5159,-12.0305 1754.1253,-16.4925 1754.8104,-9.5261"/>
</g>
<!-- Node32&#45;&gt;Node23 -->
<g id="edge52" class="edge">
<title>Node32&#45;&gt;Node23</title>
<path fill="none" stroke="#191970" d="M2287.5402,-61.9581C2235.7886,-51.0956 2151.2388,-33.3488 2095.6038,-21.6711"/>
<polygon fill="#191970" stroke="#191970" points="2096.0722,-18.1932 2085.5664,-19.5643 2094.6342,-25.0439 2096.0722,-18.1932"/>
</g>
<!-- Node32&#45;&gt;Node33 -->
<g id="edge53" class="edge">
<title>Node32&#45;&gt;Node33</title>
<path fill="none" stroke="#191970" d="M2340.0313,-61.8906C2346.663,-52.8273 2356.7696,-39.0149 2364.8887,-27.9188"/>
<polygon fill="#191970" stroke="#191970" points="2367.7891,-29.882 2370.8696,-19.7449 2362.1399,-25.7484 2367.7891,-29.882"/>
</g>
<!-- Node34&#45;&gt;Node10 -->
<g id="edge55" class="edge">
<title>Node34&#45;&gt;Node10</title>
<path fill="none" stroke="#191970" d="M1884.3125,-61.8906C1848.9751,-50.4525 1790.2695,-31.4504 1754.5548,-19.8901"/>
<polygon fill="#191970" stroke="#191970" points="1755.2869,-16.4483 1744.695,-16.6987 1753.1312,-23.1082 1755.2869,-16.4483"/>
</g>
<!-- Node34&#45;&gt;Node12 -->
<g id="edge57" class="edge">
<title>Node34&#45;&gt;Node12</title>
<path fill="none" stroke="#191970" d="M1909.9375,-61.8906C1906.2576,-53.1862 1900.7258,-40.1015 1896.138,-29.2494"/>
<polygon fill="#191970" stroke="#191970" points="1899.2375,-27.5927 1892.1198,-19.7449 1892.79,-30.3185 1899.2375,-27.5927"/>
</g>
<!-- Node34&#45;&gt;Node23 -->
<g id="edge56" class="edge">
<title>Node34&#45;&gt;Node23</title>
<path fill="none" stroke="#191970" d="M1933.6875,-61.8906C1954.4922,-51.7359 1987.511,-35.6196 2011.2319,-24.0416"/>
<polygon fill="#191970" stroke="#191970" points="2012.9993,-27.0736 2020.4507,-19.5419 2009.9288,-20.783 2012.9993,-27.0736"/>
</g>
<!-- Node35&#45;&gt;Node4 -->
<g id="edge63" class="edge">
<title>Node35&#45;&gt;Node4</title>
<path fill="none" stroke="#191970" d="M1347.4908,-128.918C1280.1809,-119.3562 1175.3335,-103.7151 1085,-87 1078.6467,-85.8244 1071.9963,-84.509 1065.4136,-83.1548"/>
<polygon fill="#191970" stroke="#191970" points="1065.6829,-79.6352 1055.1775,-81.0093 1064.2468,-86.4864 1065.6829,-79.6352"/>
</g>
<!-- Node35&#45;&gt;Node9 -->
<g id="edge64" class="edge">
<title>Node35&#45;&gt;Node9</title>
<path fill="none" stroke="#191970" d="M1358.4265,-123.4639C1311.437,-111.4015 1246.3542,-94.6944 1202.7963,-83.5128"/>
<polygon fill="#191970" stroke="#191970" points="1203.5843,-80.1017 1193.0281,-81.0053 1201.8437,-86.8819 1203.5843,-80.1017"/>
</g>
<!-- Node35&#45;&gt;Node10 -->
<g id="edge62" class="edge">
<title>Node35&#45;&gt;Node10</title>
<path fill="none" stroke="#191970" d="M1486.6202,-130.1426C1530.1447,-122.941 1586.3945,-109.9364 1632,-87 1634.0883,-85.9497 1678.5115,-48.4884 1704.8522,-26.2125"/>
<polygon fill="#191970" stroke="#191970" points="1707.3189,-28.7101 1712.6923,-19.579 1702.7975,-23.3662 1707.3189,-28.7101"/>
</g>
<!-- Node35&#45;&gt;Node22 -->
<g id="edge68" class="edge">
<title>Node35&#45;&gt;Node22</title>
<path fill="none" stroke="#191970" d="M1422.5761,-123.2548C1431.1292,-99.87 1447.4816,-55.1619 1456.88,-29.4665"/>
<polygon fill="#191970" stroke="#191970" points="1460.291,-30.3296 1460.439,-19.7358 1453.7169,-27.925 1460.291,-30.3296"/>
</g>
<!-- Node35&#45;&gt;Node23 -->
<g id="edge67" class="edge">
<title>Node35&#45;&gt;Node23</title>
<path fill="none" stroke="#191970" d="M1486.7662,-135.8972C1631.4005,-129.9853 1954.0015,-113.9305 1996,-87 2016.5857,-73.8 2028.5644,-47.34 2034.6921,-29.1546"/>
<polygon fill="#191970" stroke="#191970" points="2038.0466,-30.1535 2037.6447,-19.5663 2031.3566,-28.0933 2038.0466,-30.1535"/>
</g>
<!-- Node36 -->
<g id="node37" class="node">
<title>Node36</title>
<g id="a_node37"><a xlink:href="_p_d_e_fields_8_h.html" target="_top" xlink:title="amr&#45;wind/equation_systems\l/PDEFields.H">
<polygon fill="#ffffff" stroke="#000000" points="1483.5,-56.5 1483.5,-86.5 1622.5,-86.5 1622.5,-56.5 1483.5,-56.5"/>
<text text-anchor="start" x="1491.5" y="-74.5" font-family="Helvetica,sans-Serif" font-size="10.00" fill="#000000">amr&#45;wind/equation_systems</text>
<text text-anchor="middle" x="1553" y="-63.5" font-family="Helvetica,sans-Serif" font-size="10.00" fill="#000000">/PDEFields.H</text>
</a>
</g>
</g>
<!-- Node35&#45;&gt;Node36 -->
<g id="edge65" class="edge">
<title>Node35&#45;&gt;Node36</title>
<path fill="none" stroke="#191970" d="M1447.5211,-123.4639C1466.8955,-113.9191 1492.173,-101.4663 1513.1257,-91.144"/>
<polygon fill="#191970" stroke="#191970" points="1514.6865,-94.2768 1522.1103,-86.7177 1511.593,-87.9974 1514.6865,-94.2768"/>
</g>
<!-- Node37 -->
<g id="node38" class="node">
<title>Node37</title>
<polygon fill="#ffffff" stroke="#bfbfbf" points="1546.5,-.5 1546.5,-19.5 1591.5,-19.5 1591.5,-.5 1546.5,-.5"/>
<text text-anchor="middle" x="1569" y="-7.5" font-family="Helvetica,sans-Serif" font-size="10.00" fill="#000000">iosfwd</text>
</g>
<!-- Node36&#45;&gt;Node37 -->
<g id="edge66" class="edge">
<title>Node36&#45;&gt;Node37</title>
<path fill="none" stroke="#191970" d="M1556.9551,-56.2977C1559.0372,-48.2945 1561.6155,-38.3843 1563.8517,-29.7889"/>
<polygon fill="#191970" stroke="#191970" points="1567.3076,-30.406 1566.4382,-19.8469 1560.5331,-28.6435 1567.3076,-30.406"/>
</g>
</g>
</svg>
