<?xml version="1.0" encoding="UTF-8" standalone="no"?>
<!DOCTYPE svg PUBLIC "-//W3C//DTD SVG 1.1//EN"
 "http://www.w3.org/Graphics/SVG/1.1/DTD/svg11.dtd">
<!-- Generated by graphviz version 2.40.1 (20161225.0304)
 -->
<!-- Title: RayleighTaylor.H Pages: 1 -->
<svg width="1755pt" height="207pt"
 viewBox="0.00 0.00 1755.00 207.00" xmlns="http://www.w3.org/2000/svg" xmlns:xlink="http://www.w3.org/1999/xlink">
<g id="graph0" class="graph" transform="scale(1 1) rotate(0) translate(4 203)">
<title>RayleighTaylor.H</title>
<polygon fill="#ffffff" stroke="transparent" points="-4,4 -4,-203 1751,-203 1751,4 -4,4"/>
<!-- Node0 -->
<g id="node1" class="node">
<title>Node0</title>
<polygon fill="#bfbfbf" stroke="#000000" points="560,-179.5 560,-198.5 652,-198.5 652,-179.5 560,-179.5"/>
<text text-anchor="middle" x="606" y="-186.5" font-family="Helvetica,sans-Serif" font-size="10.00" fill="#000000">RayleighTaylor.H</text>
</g>
<!-- Node1 -->
<g id="node2" class="node">
<title>Node1</title>
<polygon fill="#ffffff" stroke="#bfbfbf" points="300,-.5 300,-19.5 352,-19.5 352,-.5 300,-.5"/>
<text text-anchor="middle" x="326" y="-7.5" font-family="Helvetica,sans-Serif" font-size="10.00" fill="#000000">memory</text>
</g>
<!-- Node0&#45;&gt;Node1 -->
<g id="edge1" class="edge">
<title>Node0&#45;&gt;Node1</title>
<path fill="none" stroke="#191970" d="M559.6655,-182.6022C466.7524,-168.6738 263.3499,-132.2691 226,-76 206.9674,-47.3267 254.3018,-28.1489 290.1704,-18.1691"/>
<polygon fill="#191970" stroke="#191970" points="291.1418,-21.5327 299.9184,-15.5979 289.3565,-14.7641 291.1418,-21.5327"/>
</g>
<!-- Node2 -->
<g id="node3" class="node">
<title>Node2</title>
<g id="a_node3"><a xlink:href="_physics_8_h.html" target="_top" xlink:title="amr&#45;wind/core/Physics.H">
<polygon fill="#ffffff" stroke="#000000" points="394.5,-118 394.5,-137 521.5,-137 521.5,-118 394.5,-118"/>
<text text-anchor="middle" x="458" y="-125" font-family="Helvetica,sans-Serif" font-size="10.00" fill="#000000">amr&#45;wind/core/Physics.H</text>
</a>
</g>
</g>
<!-- Node0&#45;&gt;Node2 -->
<g id="edge2" class="edge">
<title>Node0&#45;&gt;Node2</title>
<path fill="none" stroke="#191970" d="M582.875,-179.3906C558.0033,-169.0554 518.2702,-152.5447 490.3156,-140.9284"/>
<polygon fill="#191970" stroke="#191970" points="491.5402,-137.6472 480.9626,-137.0419 488.854,-144.1113 491.5402,-137.6472"/>
</g>
<!-- Node13 -->
<g id="node14" class="node">
<title>Node13</title>
<g id="a_node14"><a xlink:href="_rayleigh_taylor_field_init_8_h.html" target="_top" xlink:title="amr&#45;wind/physics/Rayleigh\lTaylorFieldInit.H">
<polygon fill="#ffffff" stroke="#000000" points="1327,-112.5 1327,-142.5 1461,-142.5 1461,-112.5 1327,-112.5"/>
<text text-anchor="start" x="1335" y="-130.5" font-family="Helvetica,sans-Serif" font-size="10.00" fill="#000000">amr&#45;wind/physics/Rayleigh</text>
<text text-anchor="middle" x="1394" y="-119.5" font-family="Helvetica,sans-Serif" font-size="10.00" fill="#000000">TaylorFieldInit.H</text>
</a>
</g>
</g>
<!-- Node0&#45;&gt;Node13 -->
<g id="edge16" class="edge">
<title>Node0&#45;&gt;Node13</title>
<path fill="none" stroke="#191970" d="M652.0613,-185.4051C782.2779,-175.2423 1154.1442,-146.2197 1316.5437,-133.5451"/>
<polygon fill="#191970" stroke="#191970" points="1317.2357,-137.0019 1326.933,-132.7343 1316.6909,-130.0231 1317.2357,-137.0019"/>
</g>
<!-- Node19 -->
<g id="node20" class="node">
<title>Node19</title>
<g id="a_node20"><a xlink:href="_field_8_h.html" target="_top" xlink:title="amr&#45;wind/core/Field.H">
<polygon fill="#ffffff" stroke="#000000" points="698.5,-118 698.5,-137 811.5,-137 811.5,-118 698.5,-118"/>
<text text-anchor="middle" x="755" y="-125" font-family="Helvetica,sans-Serif" font-size="10.00" fill="#000000">amr&#45;wind/core/Field.H</text>
</a>
</g>
</g>
<!-- Node0&#45;&gt;Node19 -->
<g id="edge24" class="edge">
<title>Node0&#45;&gt;Node19</title>
<path fill="none" stroke="#191970" d="M629.2813,-179.3906C654.321,-169.0554 694.3225,-152.5447 722.466,-140.9284"/>
<polygon fill="#191970" stroke="#191970" points="723.974,-144.0925 731.8822,-137.0419 721.3033,-137.622 723.974,-144.0925"/>
</g>
<!-- Node3 -->
<g id="node4" class="node">
<title>Node3</title>
<g id="a_node4"><a xlink:href="_factory_8_h.html" target="_top" xlink:title="amr&#45;wind/core/Factory.H">
<polygon fill="#ffffff" stroke="#000000" points="53.5,-56.5 53.5,-75.5 178.5,-75.5 178.5,-56.5 53.5,-56.5"/>
<text text-anchor="middle" x="116" y="-63.5" font-family="Helvetica,sans-Serif" font-size="10.00" fill="#000000">amr&#45;wind/core/Factory.H</text>
</a>
</g>
</g>
<!-- Node2&#45;&gt;Node3 -->
<g id="edge3" class="edge">
<title>Node2&#45;&gt;Node3</title>
<path fill="none" stroke="#191970" d="M404.9377,-117.9581C343.9411,-106.9894 243.9093,-89.0012 179.0085,-77.3305"/>
<polygon fill="#191970" stroke="#191970" points="179.367,-73.8389 168.9053,-75.5137 178.128,-80.7284 179.367,-73.8389"/>
</g>
<!-- Node8 -->
<g id="node9" class="node">
<title>Node8</title>
<g id="a_node9"><a xlink:href="_coll_mgr_8_h.html" target="_top" xlink:title="amr&#45;wind/core/CollMgr.H">
<polygon fill="#ffffff" stroke="#000000" points="395.5,-56.5 395.5,-75.5 520.5,-75.5 520.5,-56.5 395.5,-56.5"/>
<text text-anchor="middle" x="458" y="-63.5" font-family="Helvetica,sans-Serif" font-size="10.00" fill="#000000">amr&#45;wind/core/CollMgr.H</text>
</a>
</g>
</g>
<!-- Node2&#45;&gt;Node8 -->
<g id="edge9" class="edge">
<title>Node2&#45;&gt;Node8</title>
<path fill="none" stroke="#191970" d="M458,-117.8906C458,-109.3657 458,-96.6392 458,-85.9235"/>
<polygon fill="#191970" stroke="#191970" points="461.5001,-85.7448 458,-75.7449 454.5001,-85.7449 461.5001,-85.7448"/>
</g>
<!-- Node11 -->
<g id="node12" class="node">
<title>Node11</title>
<polygon fill="#ffffff" stroke="#bfbfbf" points="235,-56.5 235,-75.5 339,-75.5 339,-56.5 235,-56.5"/>
<text text-anchor="middle" x="287" y="-63.5" font-family="Helvetica,sans-Serif" font-size="10.00" fill="#000000">AMReX_MultiFab.H</text>
</g>
<!-- Node2&#45;&gt;Node11 -->
<g id="edge14" class="edge">
<title>Node2&#45;&gt;Node11</title>
<path fill="none" stroke="#191970" d="M431.2813,-117.8906C402.1679,-107.42 355.4308,-90.6111 323.0753,-78.9745"/>
<polygon fill="#191970" stroke="#191970" points="324.1256,-75.6328 313.5311,-75.5419 321.7565,-82.2197 324.1256,-75.6328"/>
</g>
<!-- Node12 -->
<g id="node13" class="node">
<title>Node12</title>
<polygon fill="#ffffff" stroke="#bfbfbf" points="577,-56.5 577,-75.5 687,-75.5 687,-56.5 577,-56.5"/>
<text text-anchor="middle" x="632" y="-63.5" font-family="Helvetica,sans-Serif" font-size="10.00" fill="#000000">AMReX_Geometry.H</text>
</g>
<!-- Node2&#45;&gt;Node12 -->
<g id="edge15" class="edge">
<title>Node2&#45;&gt;Node12</title>
<path fill="none" stroke="#191970" d="M485.1875,-117.8906C514.8117,-107.42 562.3687,-90.6111 595.2918,-78.9745"/>
<polygon fill="#191970" stroke="#191970" points="596.7414,-82.1744 605.0034,-75.5419 594.4086,-75.5745 596.7414,-82.1744"/>
</g>
<!-- Node3&#45;&gt;Node1 -->
<g id="edge4" class="edge">
<title>Node3&#45;&gt;Node1</title>
<path fill="none" stroke="#191970" d="M152.1003,-56.3733C190.7466,-46.0676 251.6882,-29.8165 290.2134,-19.5431"/>
<polygon fill="#191970" stroke="#191970" points="291.212,-22.8992 299.9725,-16.9407 289.4083,-16.1356 291.212,-22.8992"/>
</g>
<!-- Node4 -->
<g id="node5" class="node">
<title>Node4</title>
<polygon fill="#ffffff" stroke="#bfbfbf" points="416.5,-.5 416.5,-19.5 499.5,-19.5 499.5,-.5 416.5,-.5"/>
<text text-anchor="middle" x="458" y="-7.5" font-family="Helvetica,sans-Serif" font-size="10.00" fill="#000000">unordered_map</text>
</g>
<!-- Node3&#45;&gt;Node4 -->
<g id="edge5" class="edge">
<title>Node3&#45;&gt;Node4</title>
<path fill="none" stroke="#191970" d="M174.4033,-56.4369C239.5526,-45.7692 343.9546,-28.6741 406.2668,-18.4709"/>
<polygon fill="#191970" stroke="#191970" points="406.9652,-21.9033 416.2682,-16.8333 405.8341,-14.9953 406.9652,-21.9033"/>
</g>
<!-- Node5 -->
<g id="node6" class="node">
<title>Node5</title>
<polygon fill="#ffffff" stroke="#bfbfbf" points="0,-.5 0,-19.5 54,-19.5 54,-.5 0,-.5"/>
<text text-anchor="middle" x="27" y="-7.5" font-family="Helvetica,sans-Serif" font-size="10.00" fill="#000000">iostream</text>
</g>
<!-- Node3&#45;&gt;Node5 -->
<g id="edge6" class="edge">
<title>Node3&#45;&gt;Node5</title>
<path fill="none" stroke="#191970" d="M100.4974,-56.2455C86.842,-47.6534 66.7343,-35.0014 51.0011,-25.1018"/>
<polygon fill="#191970" stroke="#191970" points="52.6529,-22.006 42.325,-19.6427 48.9249,-27.9307 52.6529,-22.006"/>
</g>
<!-- Node6 -->
<g id="node7" class="node">
<title>Node6</title>
<polygon fill="#ffffff" stroke="#bfbfbf" points="72.5,-.5 72.5,-19.5 159.5,-19.5 159.5,-.5 72.5,-.5"/>
<text text-anchor="middle" x="116" y="-7.5" font-family="Helvetica,sans-Serif" font-size="10.00" fill="#000000">AMReX_Print.H</text>
</g>
<!-- Node3&#45;&gt;Node6 -->
<g id="edge7" class="edge">
<title>Node3&#45;&gt;Node6</title>
<path fill="none" stroke="#191970" d="M116,-56.2455C116,-48.9382 116,-38.6944 116,-29.7046"/>
<polygon fill="#191970" stroke="#191970" points="119.5001,-29.6426 116,-19.6427 112.5001,-29.6427 119.5001,-29.6426"/>
</g>
<!-- Node7 -->
<g id="node8" class="node">
<title>Node7</title>
<polygon fill="#ffffff" stroke="#bfbfbf" points="178,-.5 178,-19.5 240,-19.5 240,-.5 178,-.5"/>
<text text-anchor="middle" x="209" y="-7.5" font-family="Helvetica,sans-Serif" font-size="10.00" fill="#000000">AMReX.H</text>
</g>
<!-- Node3&#45;&gt;Node7 -->
<g id="edge8" class="edge">
<title>Node3&#45;&gt;Node7</title>
<path fill="none" stroke="#191970" d="M132.1994,-56.2455C146.6018,-47.5731 167.8732,-34.7645 184.3799,-24.825"/>
<polygon fill="#191970" stroke="#191970" points="186.225,-27.7996 192.9863,-19.6427 182.614,-21.8028 186.225,-27.7996"/>
</g>
<!-- Node8&#45;&gt;Node1 -->
<g id="edge11" class="edge">
<title>Node8&#45;&gt;Node1</title>
<path fill="none" stroke="#191970" d="M435.3084,-56.3733C413.9289,-47.3032 381.6943,-33.6279 357.7638,-23.4755"/>
<polygon fill="#191970" stroke="#191970" points="358.9683,-20.1846 348.3955,-19.5011 356.2344,-26.6287 358.9683,-20.1846"/>
</g>
<!-- Node8&#45;&gt;Node4 -->
<g id="edge12" class="edge">
<title>Node8&#45;&gt;Node4</title>
<path fill="none" stroke="#191970" d="M458,-56.2455C458,-48.9382 458,-38.6944 458,-29.7046"/>
<polygon fill="#191970" stroke="#191970" points="461.5001,-29.6426 458,-19.6427 454.5001,-29.6427 461.5001,-29.6426"/>
</g>
<!-- Node9 -->
<g id="node10" class="node">
<title>Node9</title>
<polygon fill="#ffffff" stroke="#bfbfbf" points="828.5,-.5 828.5,-19.5 869.5,-19.5 869.5,-.5 828.5,-.5"/>
<text text-anchor="middle" x="849" y="-7.5" font-family="Helvetica,sans-Serif" font-size="10.00" fill="#000000">string</text>
</g>
<!-- Node8&#45;&gt;Node9 -->
<g id="edge10" class="edge">
<title>Node8&#45;&gt;Node9</title>
<path fill="none" stroke="#191970" d="M520.8209,-57.0026C605.7127,-44.8442 753.8008,-23.6347 817.9274,-14.4503"/>
<polygon fill="#191970" stroke="#191970" points="818.7826,-17.8636 828.1853,-12.9811 817.7901,-10.9343 818.7826,-17.8636"/>
</g>
<!-- Node10 -->
<g id="node11" class="node">
<title>Node10</title>
<polygon fill="#ffffff" stroke="#bfbfbf" points="1234.5,-.5 1234.5,-19.5 1329.5,-19.5 1329.5,-.5 1234.5,-.5"/>
<text text-anchor="middle" x="1282" y="-7.5" font-family="Helvetica,sans-Serif" font-size="10.00" fill="#000000">AMReX_Vector.H</text>
</g>
<!-- Node8&#45;&gt;Node10 -->
<g id="edge13" class="edge">
<title>Node8&#45;&gt;Node10</title>
<path fill="none" stroke="#191970" d="M520.5107,-60.0296C536.0215,-58.6274 552.6097,-57.1951 568,-56 811.6788,-37.0774 1102.5756,-20.0678 1224.1481,-13.2094"/>
<polygon fill="#191970" stroke="#191970" points="1224.5537,-16.6922 1234.3412,-12.6358 1224.1603,-9.7033 1224.5537,-16.6922"/>
</g>
<!-- Node13&#45;&gt;Node10 -->
<g id="edge22" class="edge">
<title>Node13&#45;&gt;Node10</title>
<path fill="none" stroke="#191970" d="M1461.06,-120.5473C1517.417,-113.1565 1591.6342,-99.2595 1610,-76 1615.5085,-69.0237 1615.8326,-62.7077 1610,-56 1592.5386,-35.9188 1428.8237,-20.8266 1339.4998,-14.0084"/>
<polygon fill="#191970" stroke="#191970" points="1339.7509,-10.5175 1329.5164,-13.2572 1339.2256,-17.4978 1339.7509,-10.5175"/>
</g>
<!-- Node13&#45;&gt;Node12 -->
<g id="edge20" class="edge">
<title>Node13&#45;&gt;Node12</title>
<path fill="none" stroke="#191970" d="M1326.9368,-124.3704C1204.1159,-118.2409 934.6423,-102.9505 697.325,-76.0693"/>
<polygon fill="#191970" stroke="#191970" points="697.4519,-72.5611 687.1193,-74.9038 696.6576,-79.5159 697.4519,-72.5611"/>
</g>
<!-- Node14 -->
<g id="node15" class="node">
<title>Node14</title>
<polygon fill="#ffffff" stroke="#bfbfbf" points="1657,-56.5 1657,-75.5 1747,-75.5 1747,-56.5 1657,-56.5"/>
<text text-anchor="middle" x="1702" y="-63.5" font-family="Helvetica,sans-Serif" font-size="10.00" fill="#000000">AMReX_Array.H</text>
</g>
<!-- Node13&#45;&gt;Node14 -->
<g id="edge17" class="edge">
<title>Node13&#45;&gt;Node14</title>
<path fill="none" stroke="#191970" d="M1461.2113,-114.0796C1516.8014,-102.9796 1594.7932,-87.4065 1646.7877,-77.0245"/>
<polygon fill="#191970" stroke="#191970" points="1647.7045,-80.4106 1656.8256,-75.0202 1646.3338,-73.5461 1647.7045,-80.4106"/>
</g>
<!-- Node15 -->
<g id="node16" class="node">
<title>Node15</title>
<polygon fill="#ffffff" stroke="#bfbfbf" points="1292.5,-56.5 1292.5,-75.5 1387.5,-75.5 1387.5,-56.5 1292.5,-56.5"/>
<text text-anchor="middle" x="1340" y="-63.5" font-family="Helvetica,sans-Serif" font-size="10.00" fill="#000000">AMReX_Array4.H</text>
</g>
<!-- Node13&#45;&gt;Node15 -->
<g id="edge18" class="edge">
<title>Node13&#45;&gt;Node15</title>
<path fill="none" stroke="#191970" d="M1380.6517,-112.2977C1372.9998,-103.5831 1363.3627,-92.6075 1355.3924,-83.5302"/>
<polygon fill="#191970" stroke="#191970" points="1357.8742,-81.052 1348.6461,-75.8469 1352.6141,-85.6707 1357.8742,-81.052"/>
</g>
<!-- Node16 -->
<g id="node17" class="node">
<title>Node16</title>
<polygon fill="#ffffff" stroke="#bfbfbf" points="1406,-56.5 1406,-75.5 1490,-75.5 1490,-56.5 1406,-56.5"/>
<text text-anchor="middle" x="1448" y="-63.5" font-family="Helvetica,sans-Serif" font-size="10.00" fill="#000000">AMReX_Box.H</text>
</g>
<!-- Node13&#45;&gt;Node16 -->
<g id="edge19" class="edge">
<title>Node13&#45;&gt;Node16</title>
<path fill="none" stroke="#191970" d="M1407.3483,-112.2977C1415.0002,-103.5831 1424.6373,-92.6075 1432.6076,-83.5302"/>
<polygon fill="#191970" stroke="#191970" points="1435.3859,-85.6707 1439.3539,-75.8469 1430.1258,-81.052 1435.3859,-85.6707"/>
</g>
<!-- Node17 -->
<g id="node18" class="node">
<title>Node17</title>
<polygon fill="#ffffff" stroke="#bfbfbf" points="1507.5,-56.5 1507.5,-75.5 1600.5,-75.5 1600.5,-56.5 1507.5,-56.5"/>
<text text-anchor="middle" x="1554" y="-63.5" font-family="Helvetica,sans-Serif" font-size="10.00" fill="#000000">AMReX_REAL.H</text>
</g>
<!-- Node13&#45;&gt;Node17 -->
<g id="edge21" class="edge">
<title>Node13&#45;&gt;Node17</title>
<path fill="none" stroke="#191970" d="M1433.1404,-112.4554C1459.6026,-102.284 1494.2181,-88.9787 1519.6183,-79.2155"/>
<polygon fill="#191970" stroke="#191970" points="1521.1272,-82.3852 1529.2057,-75.5303 1518.6157,-75.8512 1521.1272,-82.3852"/>
</g>
<!-- Node18 -->
<g id="node19" class="node">
<title>Node18</title>
<polygon fill="#ffffff" stroke="#bfbfbf" points="1189.5,-56.5 1189.5,-75.5 1274.5,-75.5 1274.5,-56.5 1189.5,-56.5"/>
<text text-anchor="middle" x="1232" y="-63.5" font-family="Helvetica,sans-Serif" font-size="10.00" fill="#000000">AMReX_Gpu.H</text>
</g>
<!-- Node13&#45;&gt;Node18 -->
<g id="edge23" class="edge">
<title>Node13&#45;&gt;Node18</title>
<path fill="none" stroke="#191970" d="M1354.3703,-112.4554C1327.4588,-102.239 1292.2189,-88.8609 1266.4706,-79.0861"/>
<polygon fill="#191970" stroke="#191970" points="1267.6955,-75.8074 1257.1043,-75.5303 1265.211,-82.3517 1267.6955,-75.8074"/>
</g>
<!-- Node19&#45;&gt;Node1 -->
<g id="edge26" class="edge">
<title>Node19&#45;&gt;Node1</title>
<path fill="none" stroke="#191970" d="M698.1665,-124.2839C608.5089,-118.4308 438.9805,-103.9757 386,-76 365.1343,-64.9821 347.8509,-43.6977 337.2776,-28.2718"/>
<polygon fill="#191970" stroke="#191970" points="339.99,-26.0243 331.5894,-19.5682 334.1304,-29.8538 339.99,-26.0243"/>
</g>
<!-- Node19&#45;&gt;Node4 -->
<g id="edge27" class="edge">
<title>Node19&#45;&gt;Node4</title>
<path fill="none" stroke="#191970" d="M706.5204,-117.952C668.0355,-109.4778 613.3496,-95.4188 568,-76 550.7099,-68.5964 508.35,-42.2311 481.5286,-25.1486"/>
<polygon fill="#191970" stroke="#191970" points="483.3977,-22.1894 473.087,-19.752 479.6273,-28.0872 483.3977,-22.1894"/>
</g>
<!-- Node19&#45;&gt;Node9 -->
<g id="edge25" class="edge">
<title>Node19&#45;&gt;Node9</title>
<path fill="none" stroke="#191970" d="M811.7031,-124.0045C913.7244,-117.1336 1119.6521,-100.3853 1141,-76 1146.855,-69.3119 1146.7757,-62.7568 1141,-56 1124.1501,-36.2879 951.8795,-19.0274 880.1161,-12.6354"/>
<polygon fill="#191970" stroke="#191970" points="880.1612,-9.126 869.8934,-11.738 879.549,-16.0991 880.1612,-9.126"/>
</g>
<!-- Node19&#45;&gt;Node11 -->
<g id="edge28" class="edge">
<title>Node19&#45;&gt;Node11</title>
<path fill="none" stroke="#191970" d="M698.3572,-120.6593C620.4792,-111.1592 475.993,-93.1936 353,-76 351.7411,-75.824 350.4688,-75.6447 349.1868,-75.4628"/>
<polygon fill="#191970" stroke="#191970" points="349.6199,-71.9891 339.2226,-74.0256 348.6205,-78.9174 349.6199,-71.9891"/>
</g>
<!-- Node19&#45;&gt;Node18 -->
<g id="edge30" class="edge">
<title>Node19&#45;&gt;Node18</title>
<path fill="none" stroke="#191970" d="M811.5103,-121.5089C892.275,-112.7334 1045.2994,-95.316 1175,-76 1176.4596,-75.7826 1177.9393,-75.5573 1179.432,-75.3256"/>
<polygon fill="#191970" stroke="#191970" points="1180.0807,-78.7663 1189.3974,-73.7217 1178.9683,-71.8553 1180.0807,-78.7663"/>
</g>
<!-- Node20 -->
<g id="node21" class="node">
<title>Node20</title>
<polygon fill="#ffffff" stroke="#bfbfbf" points="705.5,-56.5 705.5,-75.5 804.5,-75.5 804.5,-56.5 705.5,-56.5"/>
<text text-anchor="middle" x="755" y="-63.5" font-family="Helvetica,sans-Serif" font-size="10.00" fill="#000000">AMReX_BCRec.H</text>
</g>
<!-- Node19&#45;&gt;Node20 -->
<g id="edge29" class="edge">
<title>Node19&#45;&gt;Node20</title>
<path fill="none" stroke="#191970" d="M755,-117.8906C755,-109.3657 755,-96.6392 755,-85.9235"/>
<polygon fill="#191970" stroke="#191970" points="758.5001,-85.7448 755,-75.7449 751.5001,-85.7449 758.5001,-85.7448"/>
</g>
<!-- Node21 -->
<g id="node22" class="node">
<title>Node21</title>
<g id="a_node22"><a xlink:href="incflo__enums_8_h.html" target="_top" xlink:title="amr&#45;wind/incflo_enums.H">
<polygon fill="#ffffff" stroke="#000000" points="823,-56.5 823,-75.5 951,-75.5 951,-56.5 823,-56.5"/>
<text text-anchor="middle" x="887" y="-63.5" font-family="Helvetica,sans-Serif" font-size="10.00" fill="#000000">amr&#45;wind/incflo_enums.H</text>
</a>
</g>
</g>
<!-- Node19&#45;&gt;Node21 -->
<g id="edge31" class="edge">
<title>Node19&#45;&gt;Node21</title>
<path fill="none" stroke="#191970" d="M775.625,-117.8906C797.5173,-107.6908 832.3193,-91.4763 857.1927,-79.8875"/>
<polygon fill="#191970" stroke="#191970" points="858.9335,-82.9377 866.5198,-75.5419 855.9772,-76.5926 858.9335,-82.9377"/>
</g>
<!-- Node22 -->
<g id="node23" class="node">
<title>Node22</title>
<g id="a_node23"><a xlink:href="_field_desc_types_8_h.html" target="_top" xlink:title="amr&#45;wind/core/FieldDescTypes.H">
<polygon fill="#ffffff" stroke="#000000" points="969.5,-56.5 969.5,-75.5 1132.5,-75.5 1132.5,-56.5 969.5,-56.5"/>
<text text-anchor="middle" x="1051" y="-63.5" font-family="Helvetica,sans-Serif" font-size="10.00" fill="#000000">amr&#45;wind/core/FieldDescTypes.H</text>
</a>
</g>
</g>
<!-- Node19&#45;&gt;Node22 -->
<g id="edge32" class="edge">
<title>Node19&#45;&gt;Node22</title>
<path fill="none" stroke="#191970" d="M800.9252,-117.9581C853.2067,-107.0956 938.6222,-89.3488 994.8269,-77.6711"/>
<polygon fill="#191970" stroke="#191970" points="995.8881,-81.0254 1004.967,-75.5643 994.4641,-74.1718 995.8881,-81.0254"/>
</g>
</g>
</svg>
