<?xml version="1.0" encoding="UTF-8" standalone="no"?>
<!DOCTYPE svg PUBLIC "-//W3C//DTD SVG 1.1//EN"
 "http://www.w3.org/Graphics/SVG/1.1/DTD/svg11.dtd">
<!-- Generated by graphviz version 2.40.1 (20161225.0304)
 -->
<!-- Title: SamplingContainer.H Pages: 1 -->
<svg width="216pt" height="140pt"
 viewBox="0.00 0.00 216.00 140.00" xmlns="http://www.w3.org/2000/svg" xmlns:xlink="http://www.w3.org/1999/xlink">
<g id="graph0" class="graph" transform="scale(1 1) rotate(0) translate(4 136)">
<title>SamplingContainer.H</title>
<polygon fill="#ffffff" stroke="transparent" points="-4,4 -4,-136 212,-136 212,4 -4,4"/>
<!-- Node3 -->
<g id="node1" class="node">
<title>Node3</title>
<polygon fill="#bfbfbf" stroke="#000000" points="38,-112.5 38,-131.5 148,-131.5 148,-112.5 38,-112.5"/>
<text text-anchor="middle" x="93" y="-119.5" font-family="Helvetica,sans-Serif" font-size="10.00" fill="#000000">SamplingContainer.H</text>
</g>
<!-- Node4 -->
<g id="node2" class="node">
<title>Node4</title>
<g id="a_node2"><a xlink:href="_sampling_8_h.html" target="_top" xlink:title="Sampling.H">
<polygon fill="#ffffff" stroke="#000000" points="4,-56.5 4,-75.5 72,-75.5 72,-56.5 4,-56.5"/>
<text text-anchor="middle" x="38" y="-63.5" font-family="Helvetica,sans-Serif" font-size="10.00" fill="#000000">Sampling.H</text>
</a>
</g>
</g>
<!-- Node3&#45;&gt;Node4 -->
<g id="edge1" class="edge">
<title>Node3&#45;&gt;Node4</title>
<path fill="none" stroke="#191970" d="M76.3774,-105.0751C66.9145,-95.4402 55.4031,-83.7196 47.4705,-75.6427"/>
<polygon fill="#191970" stroke="#191970" points="73.9155,-107.5635 83.4197,-112.2455 78.9097,-102.6585 73.9155,-107.5635"/>
</g>
<!-- Node6 -->
<g id="node4" class="node">
<title>Node6</title>
<g id="a_node4"><a xlink:href="_sampling_container_8cpp.html" target="_top" xlink:title="SamplingContainer.cpp">
<polygon fill="#ffffff" stroke="#000000" points="90,-56.5 90,-75.5 208,-75.5 208,-56.5 90,-56.5"/>
<text text-anchor="middle" x="149" y="-63.5" font-family="Helvetica,sans-Serif" font-size="10.00" fill="#000000">SamplingContainer.cpp</text>
</a>
</g>
</g>
<!-- Node3&#45;&gt;Node6 -->
<g id="edge3" class="edge">
<title>Node3&#45;&gt;Node6</title>
<path fill="none" stroke="#191970" d="M109.9249,-105.0751C119.5598,-95.4402 131.2804,-83.7196 139.3573,-75.6427"/>
<polygon fill="#191970" stroke="#191970" points="107.3507,-102.6996 102.7545,-112.2455 112.3004,-107.6493 107.3507,-102.6996"/>
</g>
<!-- Node5 -->
<g id="node3" class="node">
<title>Node5</title>
<g id="a_node3"><a xlink:href="_sampling_8cpp.html" target="_top" xlink:title="Sampling.cpp">
<polygon fill="#ffffff" stroke="#000000" points="0,-.5 0,-19.5 76,-19.5 76,-.5 0,-.5"/>
<text text-anchor="middle" x="38" y="-7.5" font-family="Helvetica,sans-Serif" font-size="10.00" fill="#000000">Sampling.cpp</text>
</a>
</g>
</g>
<!-- Node4&#45;&gt;Node5 -->
<g id="edge2" class="edge">
<title>Node4&#45;&gt;Node5</title>
<path fill="none" stroke="#191970" d="M38,-46.1575C38,-37.155 38,-26.9199 38,-19.6427"/>
<polygon fill="#191970" stroke="#191970" points="34.5001,-46.2455 38,-56.2455 41.5001,-46.2456 34.5001,-46.2455"/>
</g>
</g>
</svg>
