<?xml version="1.0" encoding="UTF-8" standalone="no"?>
<!DOCTYPE svg PUBLIC "-//W3C//DTD SVG 1.1//EN"
 "http://www.w3.org/Graphics/SVG/1.1/DTD/svg11.dtd">
<!-- Generated by graphviz version 2.40.1 (20161225.0304)
 -->
<!-- Title: SamplerBase.H Pages: 1 -->
<svg width="879pt" height="196pt"
 viewBox="0.00 0.00 879.00 196.00" xmlns="http://www.w3.org/2000/svg" xmlns:xlink="http://www.w3.org/1999/xlink">
<g id="graph0" class="graph" transform="scale(1 1) rotate(0) translate(4 192)">
<title>SamplerBase.H</title>
<polygon fill="#ffffff" stroke="transparent" points="-4,4 -4,-192 875,-192 875,4 -4,4"/>
<!-- Node12 -->
<g id="node1" class="node">
<title>Node12</title>
<polygon fill="#bfbfbf" stroke="#000000" points="508,-168.5 508,-187.5 594,-187.5 594,-168.5 508,-168.5"/>
<text text-anchor="middle" x="551" y="-175.5" font-family="Helvetica,sans-Serif" font-size="10.00" fill="#000000">SamplerBase.H</text>
</g>
<!-- Node13 -->
<g id="node2" class="node">
<title>Node13</title>
<g id="a_node2"><a xlink:href="_a_b_l_stats_8_h.html" target="_top" xlink:title="ABLStats.H">
<polygon fill="#ffffff" stroke="#000000" points="251.5,-112.5 251.5,-131.5 320.5,-131.5 320.5,-112.5 251.5,-112.5"/>
<text text-anchor="middle" x="286" y="-119.5" font-family="Helvetica,sans-Serif" font-size="10.00" fill="#000000">ABLStats.H</text>
</a>
</g>
</g>
<!-- Node12&#45;&gt;Node13 -->
<g id="edge1" class="edge">
<title>Node12&#45;&gt;Node13</title>
<path fill="none" stroke="#191970" d="M497.985,-166.7968C445.2466,-155.6521 365.8585,-138.8758 320.6909,-129.3309"/>
<polygon fill="#191970" stroke="#191970" points="497.3258,-170.2347 507.8334,-168.878 498.7731,-163.386 497.3258,-170.2347"/>
</g>
<!-- Node21 -->
<g id="node10" class="node">
<title>Node21</title>
<g id="a_node10"><a xlink:href="_line_sampler_8_h.html" target="_top" xlink:title="LineSampler.H">
<polygon fill="#ffffff" stroke="#000000" points="350.5,-112.5 350.5,-131.5 431.5,-131.5 431.5,-112.5 350.5,-112.5"/>
<text text-anchor="middle" x="391" y="-119.5" font-family="Helvetica,sans-Serif" font-size="10.00" fill="#000000">LineSampler.H</text>
</a>
</g>
</g>
<!-- Node12&#45;&gt;Node21 -->
<g id="edge9" class="edge">
<title>Node12&#45;&gt;Node21</title>
<path fill="none" stroke="#191970" d="M514.0201,-165.057C484.7382,-154.8084 444.5115,-140.729 418.1461,-131.5011"/>
<polygon fill="#191970" stroke="#191970" points="512.9002,-168.3732 523.495,-168.3733 515.2127,-161.7662 512.9002,-168.3732"/>
</g>
<!-- Node23 -->
<g id="node12" class="node">
<title>Node23</title>
<g id="a_node12"><a xlink:href="_plane_sampler_8_h.html" target="_top" xlink:title="PlaneSampler.H">
<polygon fill="#ffffff" stroke="#000000" points="454,-112.5 454,-131.5 542,-131.5 542,-112.5 454,-112.5"/>
<text text-anchor="middle" x="498" y="-119.5" font-family="Helvetica,sans-Serif" font-size="10.00" fill="#000000">PlaneSampler.H</text>
</a>
</g>
</g>
<!-- Node12&#45;&gt;Node23 -->
<g id="edge11" class="edge">
<title>Node12&#45;&gt;Node23</title>
<path fill="none" stroke="#191970" d="M534.7104,-160.7884C525.6438,-151.2085 514.6946,-139.6396 507.1261,-131.6427"/>
<polygon fill="#191970" stroke="#191970" points="532.3522,-163.3884 541.7681,-168.2455 537.4363,-158.5767 532.3522,-163.3884"/>
</g>
<!-- Node25 -->
<g id="node14" class="node">
<title>Node25</title>
<g id="a_node14"><a xlink:href="_probe_sampler_8_h.html" target="_top" xlink:title="ProbeSampler.H">
<polygon fill="#ffffff" stroke="#000000" points="559.5,-112.5 559.5,-131.5 648.5,-131.5 648.5,-112.5 559.5,-112.5"/>
<text text-anchor="middle" x="604" y="-119.5" font-family="Helvetica,sans-Serif" font-size="10.00" fill="#000000">ProbeSampler.H</text>
</a>
</g>
</g>
<!-- Node12&#45;&gt;Node25 -->
<g id="edge13" class="edge">
<title>Node12&#45;&gt;Node25</title>
<path fill="none" stroke="#191970" d="M567.2896,-160.7884C576.3562,-151.2085 587.3054,-139.6396 594.8739,-131.6427"/>
<polygon fill="#191970" stroke="#191970" points="564.5637,-158.5767 560.2319,-168.2455 569.6478,-163.3884 564.5637,-158.5767"/>
</g>
<!-- Node27 -->
<g id="node16" class="node">
<title>Node27</title>
<g id="a_node16"><a xlink:href="_sampling_8_h.html" target="_top" xlink:title="Sampling.H">
<polygon fill="#ffffff" stroke="#000000" points="667,-112.5 667,-131.5 735,-131.5 735,-112.5 667,-112.5"/>
<text text-anchor="middle" x="701" y="-119.5" font-family="Helvetica,sans-Serif" font-size="10.00" fill="#000000">Sampling.H</text>
</a>
</g>
</g>
<!-- Node12&#45;&gt;Node27 -->
<g id="edge15" class="edge">
<title>Node12&#45;&gt;Node27</title>
<path fill="none" stroke="#191970" d="M586.3871,-164.7888C613.7753,-154.5639 651.0479,-140.6488 675.5506,-131.5011"/>
<polygon fill="#191970" stroke="#191970" points="584.9302,-161.5967 576.7859,-168.3733 587.3785,-168.1546 584.9302,-161.5967"/>
</g>
<!-- Node29 -->
<g id="node18" class="node">
<title>Node29</title>
<g id="a_node18"><a xlink:href="_sampling_container_8cpp.html" target="_top" xlink:title="SamplingContainer.cpp">
<polygon fill="#ffffff" stroke="#000000" points="753,-112.5 753,-131.5 871,-131.5 871,-112.5 753,-112.5"/>
<text text-anchor="middle" x="812" y="-119.5" font-family="Helvetica,sans-Serif" font-size="10.00" fill="#000000">SamplingContainer.cpp</text>
</a>
</g>
</g>
<!-- Node12&#45;&gt;Node29 -->
<g id="edge17" class="edge">
<title>Node12&#45;&gt;Node29</title>
<path fill="none" stroke="#191970" d="M604.0145,-166.6252C652.1281,-156.302 722.2721,-141.252 767.5262,-131.5423"/>
<polygon fill="#191970" stroke="#191970" points="603.142,-163.2327 594.0988,-168.7527 604.6106,-170.0769 603.142,-163.2327"/>
</g>
<!-- Node14 -->
<g id="node3" class="node">
<title>Node14</title>
<g id="a_node3"><a xlink:href="_a_b_l_8_h.html" target="_top" xlink:title="ABL.H">
<polygon fill="#ffffff" stroke="#000000" points="183,-56.5 183,-75.5 229,-75.5 229,-56.5 183,-56.5"/>
<text text-anchor="middle" x="206" y="-63.5" font-family="Helvetica,sans-Serif" font-size="10.00" fill="#000000">ABL.H</text>
</a>
</g>
</g>
<!-- Node13&#45;&gt;Node14 -->
<g id="edge2" class="edge">
<title>Node13&#45;&gt;Node14</title>
<path fill="none" stroke="#191970" d="M263.8429,-106.49C249.728,-96.6096 231.8849,-84.1194 219.7752,-75.6427"/>
<polygon fill="#191970" stroke="#191970" points="261.8656,-109.3782 272.0651,-112.2455 265.8799,-103.6436 261.8656,-109.3782"/>
</g>
<!-- Node20 -->
<g id="node9" class="node">
<title>Node20</title>
<g id="a_node9"><a xlink:href="_a_b_l_stats_8cpp.html" target="_top" xlink:title="ABLStats.cpp">
<polygon fill="#ffffff" stroke="#000000" points="247.5,-56.5 247.5,-75.5 324.5,-75.5 324.5,-56.5 247.5,-56.5"/>
<text text-anchor="middle" x="286" y="-63.5" font-family="Helvetica,sans-Serif" font-size="10.00" fill="#000000">ABLStats.cpp</text>
</a>
</g>
</g>
<!-- Node13&#45;&gt;Node20 -->
<g id="edge8" class="edge">
<title>Node13&#45;&gt;Node20</title>
<path fill="none" stroke="#191970" d="M286,-102.1575C286,-93.155 286,-82.9199 286,-75.6427"/>
<polygon fill="#191970" stroke="#191970" points="282.5001,-102.2455 286,-112.2455 289.5001,-102.2456 282.5001,-102.2455"/>
</g>
<!-- Node15 -->
<g id="node4" class="node">
<title>Node15</title>
<g id="a_node4"><a xlink:href="_a_b_l_forcing_8cpp.html" target="_top" xlink:title="ABLForcing.cpp">
<polygon fill="#ffffff" stroke="#000000" points="0,-.5 0,-19.5 86,-19.5 86,-.5 0,-.5"/>
<text text-anchor="middle" x="43" y="-7.5" font-family="Helvetica,sans-Serif" font-size="10.00" fill="#000000">ABLForcing.cpp</text>
</a>
</g>
</g>
<!-- Node14&#45;&gt;Node15 -->
<g id="edge3" class="edge">
<title>Node14&#45;&gt;Node15</title>
<path fill="none" stroke="#191970" d="M173.3827,-54.7941C143.3317,-44.4698 99.2183,-29.3143 70.8008,-19.5512"/>
<polygon fill="#191970" stroke="#191970" points="172.3971,-58.1562 182.9918,-58.0953 174.6716,-51.536 172.3971,-58.1562"/>
</g>
<!-- Node16 -->
<g id="node5" class="node">
<title>Node16</title>
<g id="a_node5"><a xlink:href="incflo_8cpp.html" target="_top" xlink:title="incflo.cpp">
<polygon fill="#ffffff" stroke="#000000" points="104.5,-.5 104.5,-19.5 163.5,-19.5 163.5,-.5 104.5,-.5"/>
<text text-anchor="middle" x="134" y="-7.5" font-family="Helvetica,sans-Serif" font-size="10.00" fill="#000000">incflo.cpp</text>
</a>
</g>
</g>
<!-- Node14&#45;&gt;Node16 -->
<g id="edge4" class="edge">
<title>Node14&#45;&gt;Node16</title>
<path fill="none" stroke="#191970" d="M185.336,-49.928C172.7511,-40.1397 157.0908,-27.9595 146.3977,-19.6427"/>
<polygon fill="#191970" stroke="#191970" points="183.4162,-52.8688 193.4586,-56.2455 187.7138,-47.3434 183.4162,-52.8688"/>
</g>
<!-- Node17 -->
<g id="node6" class="node">
<title>Node17</title>
<g id="a_node6"><a xlink:href="init_8cpp.html" target="_top" xlink:title="init.cpp">
<polygon fill="#ffffff" stroke="#000000" points="182,-.5 182,-19.5 230,-19.5 230,-.5 182,-.5"/>
<text text-anchor="middle" x="206" y="-7.5" font-family="Helvetica,sans-Serif" font-size="10.00" fill="#000000">init.cpp</text>
</a>
</g>
</g>
<!-- Node14&#45;&gt;Node17 -->
<g id="edge5" class="edge">
<title>Node14&#45;&gt;Node17</title>
<path fill="none" stroke="#191970" d="M206,-46.1575C206,-37.155 206,-26.9199 206,-19.6427"/>
<polygon fill="#191970" stroke="#191970" points="202.5001,-46.2455 206,-56.2455 209.5001,-46.2456 202.5001,-46.2455"/>
</g>
<!-- Node18 -->
<g id="node7" class="node">
<title>Node18</title>
<g id="a_node7"><a xlink:href="_a_b_l_8cpp.html" target="_top" xlink:title="ABL.cpp">
<polygon fill="#ffffff" stroke="#000000" points="248,-.5 248,-19.5 302,-19.5 302,-.5 248,-.5"/>
<text text-anchor="middle" x="275" y="-7.5" font-family="Helvetica,sans-Serif" font-size="10.00" fill="#000000">ABL.cpp</text>
</a>
</g>
</g>
<!-- Node14&#45;&gt;Node18 -->
<g id="edge6" class="edge">
<title>Node14&#45;&gt;Node18</title>
<path fill="none" stroke="#191970" d="M225.803,-49.928C237.8636,-40.1397 252.8714,-27.9595 263.1188,-19.6427"/>
<polygon fill="#191970" stroke="#191970" points="223.5779,-47.2262 218.0189,-56.2455 227.9891,-52.6614 223.5779,-47.2262"/>
</g>
<!-- Node19 -->
<g id="node8" class="node">
<title>Node19</title>
<g id="a_node8"><a xlink:href="_a_b_l_wall_function_8cpp.html" target="_top" xlink:title="ABLWallFunction.cpp">
<polygon fill="#ffffff" stroke="#000000" points="320.5,-.5 320.5,-19.5 431.5,-19.5 431.5,-.5 320.5,-.5"/>
<text text-anchor="middle" x="376" y="-7.5" font-family="Helvetica,sans-Serif" font-size="10.00" fill="#000000">ABLWallFunction.cpp</text>
</a>
</g>
</g>
<!-- Node14&#45;&gt;Node19 -->
<g id="edge7" class="edge">
<title>Node14&#45;&gt;Node19</title>
<path fill="none" stroke="#191970" d="M238.8829,-55.168C270.2506,-44.8351 317.0396,-29.4222 347.0362,-19.541"/>
<polygon fill="#191970" stroke="#191970" points="237.6842,-51.8778 229.2813,-58.3309 239.8744,-58.5263 237.6842,-51.8778"/>
</g>
<!-- Node22 -->
<g id="node11" class="node">
<title>Node22</title>
<g id="a_node11"><a xlink:href="_line_sampler_8cpp.html" target="_top" xlink:title="LineSampler.cpp">
<polygon fill="#ffffff" stroke="#000000" points="342.5,-56.5 342.5,-75.5 431.5,-75.5 431.5,-56.5 342.5,-56.5"/>
<text text-anchor="middle" x="387" y="-63.5" font-family="Helvetica,sans-Serif" font-size="10.00" fill="#000000">LineSampler.cpp</text>
</a>
</g>
</g>
<!-- Node21&#45;&gt;Node22 -->
<g id="edge10" class="edge">
<title>Node21&#45;&gt;Node22</title>
<path fill="none" stroke="#191970" d="M389.5827,-102.1575C388.9396,-93.155 388.2086,-82.9199 387.6888,-75.6427"/>
<polygon fill="#191970" stroke="#191970" points="386.0996,-102.5204 390.3033,-112.2455 393.0818,-102.0216 386.0996,-102.5204"/>
</g>
<!-- Node24 -->
<g id="node13" class="node">
<title>Node24</title>
<g id="a_node13"><a xlink:href="_plane_sampler_8cpp.html" target="_top" xlink:title="PlaneSampler.cpp">
<polygon fill="#ffffff" stroke="#000000" points="450,-56.5 450,-75.5 546,-75.5 546,-56.5 450,-56.5"/>
<text text-anchor="middle" x="498" y="-63.5" font-family="Helvetica,sans-Serif" font-size="10.00" fill="#000000">PlaneSampler.cpp</text>
</a>
</g>
</g>
<!-- Node23&#45;&gt;Node24 -->
<g id="edge12" class="edge">
<title>Node23&#45;&gt;Node24</title>
<path fill="none" stroke="#191970" d="M498,-102.1575C498,-93.155 498,-82.9199 498,-75.6427"/>
<polygon fill="#191970" stroke="#191970" points="494.5001,-102.2455 498,-112.2455 501.5001,-102.2456 494.5001,-102.2455"/>
</g>
<!-- Node26 -->
<g id="node15" class="node">
<title>Node26</title>
<g id="a_node15"><a xlink:href="_probe_sampler_8cpp.html" target="_top" xlink:title="ProbeSampler.cpp">
<polygon fill="#ffffff" stroke="#000000" points="564.5,-56.5 564.5,-75.5 661.5,-75.5 661.5,-56.5 564.5,-56.5"/>
<text text-anchor="middle" x="613" y="-63.5" font-family="Helvetica,sans-Serif" font-size="10.00" fill="#000000">ProbeSampler.cpp</text>
</a>
</g>
</g>
<!-- Node25&#45;&gt;Node26 -->
<g id="edge14" class="edge">
<title>Node25&#45;&gt;Node26</title>
<path fill="none" stroke="#191970" d="M607.189,-102.1575C608.6358,-93.155 610.2807,-82.9199 611.4503,-75.6427"/>
<polygon fill="#191970" stroke="#191970" points="603.6989,-101.8168 605.5677,-112.2455 610.6102,-102.9276 603.6989,-101.8168"/>
</g>
<!-- Node28 -->
<g id="node17" class="node">
<title>Node28</title>
<g id="a_node17"><a xlink:href="_sampling_8cpp.html" target="_top" xlink:title="Sampling.cpp">
<polygon fill="#ffffff" stroke="#000000" points="680,-56.5 680,-75.5 756,-75.5 756,-56.5 680,-56.5"/>
<text text-anchor="middle" x="718" y="-63.5" font-family="Helvetica,sans-Serif" font-size="10.00" fill="#000000">Sampling.cpp</text>
</a>
</g>
</g>
<!-- Node27&#45;&gt;Node28 -->
<g id="edge16" class="edge">
<title>Node27&#45;&gt;Node28</title>
<path fill="none" stroke="#191970" d="M706.9337,-102.4538C709.6881,-93.3803 712.8393,-82.9998 715.0728,-75.6427"/>
<polygon fill="#191970" stroke="#191970" points="703.517,-101.66 703.9612,-112.2455 710.2151,-103.6934 703.517,-101.66"/>
</g>
</g>
</svg>
