<?xml version="1.0" encoding="UTF-8" standalone="no"?>
<!DOCTYPE svg PUBLIC "-//W3C//DTD SVG 1.1//EN"
 "http://www.w3.org/Graphics/SVG/1.1/DTD/svg11.dtd">
<!-- Generated by graphviz version 2.40.1 (20161225.0304)
 -->
<!-- Title: SamplerBase.H Pages: 1 -->
<svg width="959pt" height="207pt"
 viewBox="0.00 0.00 959.00 207.00" xmlns="http://www.w3.org/2000/svg" xmlns:xlink="http://www.w3.org/1999/xlink">
<g id="graph0" class="graph" transform="scale(1 1) rotate(0) translate(4 203)">
<title>SamplerBase.H</title>
<polygon fill="#ffffff" stroke="transparent" points="-4,4 -4,-203 955,-203 955,4 -4,4"/>
<!-- Node12 -->
<g id="node1" class="node">
<title>Node12</title>
<polygon fill="#bfbfbf" stroke="#000000" points="588,-179.5 588,-198.5 674,-198.5 674,-179.5 588,-179.5"/>
<text text-anchor="middle" x="631" y="-186.5" font-family="Helvetica,sans-Serif" font-size="10.00" fill="#000000">SamplerBase.H</text>
</g>
<!-- Node13 -->
<g id="node2" class="node">
<title>Node13</title>
<g id="a_node2"><a xlink:href="_a_b_l_stats_8_h.html" target="_top" xlink:title="ABLStats.H">
<polygon fill="#ffffff" stroke="#000000" points="331.5,-123.5 331.5,-142.5 400.5,-142.5 400.5,-123.5 331.5,-123.5"/>
<text text-anchor="middle" x="366" y="-130.5" font-family="Helvetica,sans-Serif" font-size="10.00" fill="#000000">ABLStats.H</text>
</a>
</g>
</g>
<!-- Node12&#45;&gt;Node13 -->
<g id="edge1" class="edge">
<title>Node12&#45;&gt;Node13</title>
<path fill="none" stroke="#191970" d="M577.985,-177.7968C525.2466,-166.6521 445.8585,-149.8758 400.6909,-140.3309"/>
<polygon fill="#191970" stroke="#191970" points="577.3258,-181.2347 587.8334,-179.878 578.7731,-174.386 577.3258,-181.2347"/>
</g>
<!-- Node22 -->
<g id="node11" class="node">
<title>Node22</title>
<g id="a_node11"><a xlink:href="_line_sampler_8_h.html" target="_top" xlink:title="LineSampler.H">
<polygon fill="#ffffff" stroke="#000000" points="430.5,-123.5 430.5,-142.5 511.5,-142.5 511.5,-123.5 430.5,-123.5"/>
<text text-anchor="middle" x="471" y="-130.5" font-family="Helvetica,sans-Serif" font-size="10.00" fill="#000000">LineSampler.H</text>
</a>
</g>
</g>
<!-- Node12&#45;&gt;Node22 -->
<g id="edge10" class="edge">
<title>Node12&#45;&gt;Node22</title>
<path fill="none" stroke="#191970" d="M594.0201,-176.057C564.7382,-165.8084 524.5115,-151.729 498.1461,-142.5011"/>
<polygon fill="#191970" stroke="#191970" points="592.9002,-179.3732 603.495,-179.3733 595.2127,-172.7662 592.9002,-179.3732"/>
</g>
<!-- Node24 -->
<g id="node13" class="node">
<title>Node24</title>
<g id="a_node13"><a xlink:href="_plane_sampler_8_h.html" target="_top" xlink:title="PlaneSampler.H">
<polygon fill="#ffffff" stroke="#000000" points="534,-123.5 534,-142.5 622,-142.5 622,-123.5 534,-123.5"/>
<text text-anchor="middle" x="578" y="-130.5" font-family="Helvetica,sans-Serif" font-size="10.00" fill="#000000">PlaneSampler.H</text>
</a>
</g>
</g>
<!-- Node12&#45;&gt;Node24 -->
<g id="edge12" class="edge">
<title>Node12&#45;&gt;Node24</title>
<path fill="none" stroke="#191970" d="M614.7104,-171.7884C605.6438,-162.2085 594.6946,-150.6396 587.1261,-142.6427"/>
<polygon fill="#191970" stroke="#191970" points="612.3522,-174.3884 621.7681,-179.2455 617.4363,-169.5767 612.3522,-174.3884"/>
</g>
<!-- Node26 -->
<g id="node15" class="node">
<title>Node26</title>
<g id="a_node15"><a xlink:href="_probe_sampler_8_h.html" target="_top" xlink:title="ProbeSampler.H">
<polygon fill="#ffffff" stroke="#000000" points="639.5,-123.5 639.5,-142.5 728.5,-142.5 728.5,-123.5 639.5,-123.5"/>
<text text-anchor="middle" x="684" y="-130.5" font-family="Helvetica,sans-Serif" font-size="10.00" fill="#000000">ProbeSampler.H</text>
</a>
</g>
</g>
<!-- Node12&#45;&gt;Node26 -->
<g id="edge14" class="edge">
<title>Node12&#45;&gt;Node26</title>
<path fill="none" stroke="#191970" d="M647.2896,-171.7884C656.3562,-162.2085 667.3054,-150.6396 674.8739,-142.6427"/>
<polygon fill="#191970" stroke="#191970" points="644.5637,-169.5767 640.2319,-179.2455 649.6478,-174.3884 644.5637,-169.5767"/>
</g>
<!-- Node28 -->
<g id="node17" class="node">
<title>Node28</title>
<g id="a_node17"><a xlink:href="_sampling_8_h.html" target="_top" xlink:title="Sampling.H">
<polygon fill="#ffffff" stroke="#000000" points="747,-123.5 747,-142.5 815,-142.5 815,-123.5 747,-123.5"/>
<text text-anchor="middle" x="781" y="-130.5" font-family="Helvetica,sans-Serif" font-size="10.00" fill="#000000">Sampling.H</text>
</a>
</g>
</g>
<!-- Node12&#45;&gt;Node28 -->
<g id="edge16" class="edge">
<title>Node12&#45;&gt;Node28</title>
<path fill="none" stroke="#191970" d="M666.3871,-175.7888C693.7753,-165.5639 731.0479,-151.6488 755.5506,-142.5011"/>
<polygon fill="#191970" stroke="#191970" points="664.9302,-172.5967 656.7859,-179.3733 667.3785,-179.1546 664.9302,-172.5967"/>
</g>
<!-- Node30 -->
<g id="node19" class="node">
<title>Node30</title>
<g id="a_node19"><a xlink:href="_sampling_container_8cpp.html" target="_top" xlink:title="SamplingContainer.cpp">
<polygon fill="#ffffff" stroke="#000000" points="833,-123.5 833,-142.5 951,-142.5 951,-123.5 833,-123.5"/>
<text text-anchor="middle" x="892" y="-130.5" font-family="Helvetica,sans-Serif" font-size="10.00" fill="#000000">SamplingContainer.cpp</text>
</a>
</g>
</g>
<!-- Node12&#45;&gt;Node30 -->
<g id="edge18" class="edge">
<title>Node12&#45;&gt;Node30</title>
<path fill="none" stroke="#191970" d="M684.0145,-177.6252C732.1281,-167.302 802.2721,-152.252 847.5262,-142.5423"/>
<polygon fill="#191970" stroke="#191970" points="683.142,-174.2327 674.0988,-179.7527 684.6106,-181.0769 683.142,-174.2327"/>
</g>
<!-- Node14 -->
<g id="node3" class="node">
<title>Node14</title>
<g id="a_node3"><a xlink:href="_a_b_l_8_h.html" target="_top" xlink:title="ABL.H">
<polygon fill="#ffffff" stroke="#000000" points="263,-67.5 263,-86.5 309,-86.5 309,-67.5 263,-67.5"/>
<text text-anchor="middle" x="286" y="-74.5" font-family="Helvetica,sans-Serif" font-size="10.00" fill="#000000">ABL.H</text>
</a>
</g>
</g>
<!-- Node13&#45;&gt;Node14 -->
<g id="edge2" class="edge">
<title>Node13&#45;&gt;Node14</title>
<path fill="none" stroke="#191970" d="M343.8429,-117.49C329.728,-107.6096 311.8849,-95.1194 299.7752,-86.6427"/>
<polygon fill="#191970" stroke="#191970" points="341.8656,-120.3782 352.0651,-123.2455 345.8799,-114.6436 341.8656,-120.3782"/>
</g>
<!-- Node21 -->
<g id="node10" class="node">
<title>Node21</title>
<g id="a_node10"><a xlink:href="_a_b_l_stats_8cpp.html" target="_top" xlink:title="ABLStats.cpp">
<polygon fill="#ffffff" stroke="#000000" points="327.5,-67.5 327.5,-86.5 404.5,-86.5 404.5,-67.5 327.5,-67.5"/>
<text text-anchor="middle" x="366" y="-74.5" font-family="Helvetica,sans-Serif" font-size="10.00" fill="#000000">ABLStats.cpp</text>
</a>
</g>
</g>
<!-- Node13&#45;&gt;Node21 -->
<g id="edge9" class="edge">
<title>Node13&#45;&gt;Node21</title>
<path fill="none" stroke="#191970" d="M366,-113.1575C366,-104.155 366,-93.9199 366,-86.6427"/>
<polygon fill="#191970" stroke="#191970" points="362.5001,-113.2455 366,-123.2455 369.5001,-113.2456 362.5001,-113.2455"/>
</g>
<!-- Node15 -->
<g id="node4" class="node">
<title>Node15</title>
<g id="a_node4"><a xlink:href="incflo__set__velocity__bcs_8cpp.html" target="_top" xlink:title="incflo_set_velocity\l_bcs.cpp">
<polygon fill="#ffffff" stroke="#000000" points="0,-.5 0,-30.5 98,-30.5 98,-.5 0,-.5"/>
<text text-anchor="start" x="8" y="-18.5" font-family="Helvetica,sans-Serif" font-size="10.00" fill="#000000">incflo_set_velocity</text>
<text text-anchor="middle" x="49" y="-7.5" font-family="Helvetica,sans-Serif" font-size="10.00" fill="#000000">_bcs.cpp</text>
</a>
</g>
</g>
<!-- Node14&#45;&gt;Node15 -->
<g id="edge3" class="edge">
<title>Node14&#45;&gt;Node15</title>
<path fill="none" stroke="#191970" d="M252.8712,-68.5877C216.9234,-59.436 157.8485,-44.3277 107,-31 104.0761,-30.2336 101.0704,-29.442 98.0389,-28.6407"/>
<polygon fill="#191970" stroke="#191970" points="252.2562,-72.0427 262.8104,-71.1163 253.9821,-65.2588 252.2562,-72.0427"/>
</g>
<!-- Node16 -->
<g id="node5" class="node">
<title>Node16</title>
<g id="a_node5"><a xlink:href="_a_b_l_forcing_8cpp.html" target="_top" xlink:title="ABLForcing.cpp">
<polygon fill="#ffffff" stroke="#000000" points="116,-6 116,-25 202,-25 202,-6 116,-6"/>
<text text-anchor="middle" x="159" y="-13" font-family="Helvetica,sans-Serif" font-size="10.00" fill="#000000">ABLForcing.cpp</text>
</a>
</g>
</g>
<!-- Node14&#45;&gt;Node16 -->
<g id="edge4" class="edge">
<title>Node14&#45;&gt;Node16</title>
<path fill="none" stroke="#191970" d="M256.8443,-62.8813C232.8937,-51.2832 199.6195,-35.1701 178.7044,-25.0419"/>
<polygon fill="#191970" stroke="#191970" points="255.6305,-66.1823 266.1563,-67.3906 258.6814,-59.8821 255.6305,-66.1823"/>
</g>
<!-- Node17 -->
<g id="node6" class="node">
<title>Node17</title>
<g id="a_node6"><a xlink:href="incflo_8cpp.html" target="_top" xlink:title="incflo.cpp">
<polygon fill="#ffffff" stroke="#000000" points="220.5,-6 220.5,-25 279.5,-25 279.5,-6 220.5,-6"/>
<text text-anchor="middle" x="250" y="-13" font-family="Helvetica,sans-Serif" font-size="10.00" fill="#000000">incflo.cpp</text>
</a>
</g>
</g>
<!-- Node14&#45;&gt;Node17 -->
<g id="edge5" class="edge">
<title>Node14&#45;&gt;Node17</title>
<path fill="none" stroke="#191970" d="M275.2209,-58.5857C268.809,-47.632 260.9316,-34.1748 255.7043,-25.2449"/>
<polygon fill="#191970" stroke="#191970" points="272.3026,-60.5286 280.375,-67.3906 278.3437,-56.9923 272.3026,-60.5286"/>
</g>
<!-- Node18 -->
<g id="node7" class="node">
<title>Node18</title>
<g id="a_node7"><a xlink:href="init_8cpp.html" target="_top" xlink:title="init.cpp">
<polygon fill="#ffffff" stroke="#000000" points="298,-6 298,-25 346,-25 346,-6 298,-6"/>
<text text-anchor="middle" x="322" y="-13" font-family="Helvetica,sans-Serif" font-size="10.00" fill="#000000">init.cpp</text>
</a>
</g>
</g>
<!-- Node14&#45;&gt;Node18 -->
<g id="edge6" class="edge">
<title>Node14&#45;&gt;Node18</title>
<path fill="none" stroke="#191970" d="M296.7791,-58.5857C303.191,-47.632 311.0684,-34.1748 316.2957,-25.2449"/>
<polygon fill="#191970" stroke="#191970" points="293.6563,-56.9923 291.625,-67.3906 299.6974,-60.5286 293.6563,-56.9923"/>
</g>
<!-- Node19 -->
<g id="node8" class="node">
<title>Node19</title>
<g id="a_node8"><a xlink:href="_a_b_l_8cpp.html" target="_top" xlink:title="ABL.cpp">
<polygon fill="#ffffff" stroke="#000000" points="364,-6 364,-25 418,-25 418,-6 364,-6"/>
<text text-anchor="middle" x="391" y="-13" font-family="Helvetica,sans-Serif" font-size="10.00" fill="#000000">ABL.cpp</text>
</a>
</g>
</g>
<!-- Node14&#45;&gt;Node19 -->
<g id="edge7" class="edge">
<title>Node14&#45;&gt;Node19</title>
<path fill="none" stroke="#191970" d="M311.1684,-62.2585C330.8817,-50.7122 357.7243,-34.99 374.709,-25.0419"/>
<polygon fill="#191970" stroke="#191970" points="309.2662,-59.3164 302.4063,-67.3906 312.804,-65.3566 309.2662,-59.3164"/>
</g>
<!-- Node20 -->
<g id="node9" class="node">
<title>Node20</title>
<g id="a_node9"><a xlink:href="_a_b_l_wall_function_8cpp.html" target="_top" xlink:title="ABLWallFunction.cpp">
<polygon fill="#ffffff" stroke="#000000" points="436.5,-6 436.5,-25 547.5,-25 547.5,-6 436.5,-6"/>
<text text-anchor="middle" x="492" y="-13" font-family="Helvetica,sans-Serif" font-size="10.00" fill="#000000">ABLWallFunction.cpp</text>
</a>
</g>
</g>
<!-- Node14&#45;&gt;Node20 -->
<g id="edge8" class="edge">
<title>Node14&#45;&gt;Node20</title>
<path fill="none" stroke="#191970" d="M318.9132,-66.7514C373.5264,-50.1732 426.219,-34.6831 459.245,-25.0344"/>
<polygon fill="#191970" stroke="#191970" points="317.6081,-63.49 309.0592,-69.7483 319.6449,-70.1871 317.6081,-63.49"/>
</g>
<!-- Node23 -->
<g id="node12" class="node">
<title>Node23</title>
<g id="a_node12"><a xlink:href="_line_sampler_8cpp.html" target="_top" xlink:title="LineSampler.cpp">
<polygon fill="#ffffff" stroke="#000000" points="422.5,-67.5 422.5,-86.5 511.5,-86.5 511.5,-67.5 422.5,-67.5"/>
<text text-anchor="middle" x="467" y="-74.5" font-family="Helvetica,sans-Serif" font-size="10.00" fill="#000000">LineSampler.cpp</text>
</a>
</g>
</g>
<!-- Node22&#45;&gt;Node23 -->
<g id="edge11" class="edge">
<title>Node22&#45;&gt;Node23</title>
<path fill="none" stroke="#191970" d="M469.5827,-113.1575C468.9396,-104.155 468.2086,-93.9199 467.6888,-86.6427"/>
<polygon fill="#191970" stroke="#191970" points="466.0996,-113.5204 470.3033,-123.2455 473.0818,-113.0216 466.0996,-113.5204"/>
</g>
<!-- Node25 -->
<g id="node14" class="node">
<title>Node25</title>
<g id="a_node14"><a xlink:href="_plane_sampler_8cpp.html" target="_top" xlink:title="PlaneSampler.cpp">
<polygon fill="#ffffff" stroke="#000000" points="530,-67.5 530,-86.5 626,-86.5 626,-67.5 530,-67.5"/>
<text text-anchor="middle" x="578" y="-74.5" font-family="Helvetica,sans-Serif" font-size="10.00" fill="#000000">PlaneSampler.cpp</text>
</a>
</g>
</g>
<!-- Node24&#45;&gt;Node25 -->
<g id="edge13" class="edge">
<title>Node24&#45;&gt;Node25</title>
<path fill="none" stroke="#191970" d="M578,-113.1575C578,-104.155 578,-93.9199 578,-86.6427"/>
<polygon fill="#191970" stroke="#191970" points="574.5001,-113.2455 578,-123.2455 581.5001,-113.2456 574.5001,-113.2455"/>
</g>
<!-- Node27 -->
<g id="node16" class="node">
<title>Node27</title>
<g id="a_node16"><a xlink:href="_probe_sampler_8cpp.html" target="_top" xlink:title="ProbeSampler.cpp">
<polygon fill="#ffffff" stroke="#000000" points="644.5,-67.5 644.5,-86.5 741.5,-86.5 741.5,-67.5 644.5,-67.5"/>
<text text-anchor="middle" x="693" y="-74.5" font-family="Helvetica,sans-Serif" font-size="10.00" fill="#000000">ProbeSampler.cpp</text>
</a>
</g>
</g>
<!-- Node26&#45;&gt;Node27 -->
<g id="edge15" class="edge">
<title>Node26&#45;&gt;Node27</title>
<path fill="none" stroke="#191970" d="M687.189,-113.1575C688.6358,-104.155 690.2807,-93.9199 691.4503,-86.6427"/>
<polygon fill="#191970" stroke="#191970" points="683.6989,-112.8168 685.5677,-123.2455 690.6102,-113.9276 683.6989,-112.8168"/>
</g>
<!-- Node29 -->
<g id="node18" class="node">
<title>Node29</title>
<g id="a_node18"><a xlink:href="_sampling_8cpp.html" target="_top" xlink:title="Sampling.cpp">
<polygon fill="#ffffff" stroke="#000000" points="760,-67.5 760,-86.5 836,-86.5 836,-67.5 760,-67.5"/>
<text text-anchor="middle" x="798" y="-74.5" font-family="Helvetica,sans-Serif" font-size="10.00" fill="#000000">Sampling.cpp</text>
</a>
</g>
</g>
<!-- Node28&#45;&gt;Node29 -->
<g id="edge17" class="edge">
<title>Node28&#45;&gt;Node29</title>
<path fill="none" stroke="#191970" d="M786.9337,-113.4538C789.6881,-104.3803 792.8393,-93.9998 795.0728,-86.6427"/>
<polygon fill="#191970" stroke="#191970" points="783.517,-112.66 783.9612,-123.2455 790.2151,-114.6934 783.517,-112.66"/>
</g>
</g>
</svg>
