<?xml version="1.0" encoding="UTF-8" standalone="no"?>
<!DOCTYPE svg PUBLIC "-//W3C//DTD SVG 1.1//EN"
 "http://www.w3.org/Graphics/SVG/1.1/DTD/svg11.dtd">
<!-- Generated by graphviz version 2.40.1 (20161225.0304)
 -->
<!-- Title: SchemeTraits.H Pages: 1 -->
<svg width="1096pt" height="308pt"
 viewBox="0.00 0.00 1095.50 308.00" xmlns="http://www.w3.org/2000/svg" xmlns:xlink="http://www.w3.org/1999/xlink">
<g id="graph0" class="graph" transform="scale(1 1) rotate(0) translate(4 304)">
<title>SchemeTraits.H</title>
<polygon fill="#ffffff" stroke="transparent" points="-4,4 -4,-304 1091.5,-304 1091.5,4 -4,4"/>
<!-- Node2 -->
<g id="node1" class="node">
<title>Node2</title>
<polygon fill="#bfbfbf" stroke="#000000" points="499,-280.5 499,-299.5 587,-299.5 587,-280.5 499,-280.5"/>
<text text-anchor="middle" x="543" y="-287.5" font-family="Helvetica,sans-Serif" font-size="10.00" fill="#000000">SchemeTraits.H</text>
</g>
<!-- Node3 -->
<g id="node2" class="node">
<title>Node3</title>
<g id="a_node2"><a xlink:href="_adv_op___godunov_8_h.html" target="_top" xlink:title="AdvOp_Godunov.H">
<polygon fill="#ffffff" stroke="#000000" points="241.5,-112.5 241.5,-131.5 342.5,-131.5 342.5,-112.5 241.5,-112.5"/>
<text text-anchor="middle" x="292" y="-119.5" font-family="Helvetica,sans-Serif" font-size="10.00" fill="#000000">AdvOp_Godunov.H</text>
</a>
</g>
</g>
<!-- Node2&#45;&gt;Node3 -->
<g id="edge1" class="edge">
<title>Node2&#45;&gt;Node3</title>
<path fill="none" stroke="#191970" d="M513.6978,-275.6678C496.7833,-267.0662 475.3029,-255.5752 457,-244 397.0816,-206.1061 330.6142,-153.4053 303.9859,-131.8155"/>
<polygon fill="#191970" stroke="#191970" points="512.5637,-279.015 523.0706,-280.3773 515.7066,-272.7601 512.5637,-279.015"/>
</g>
<!-- Node12 -->
<g id="node11" class="node">
<title>Node12</title>
<g id="a_node11"><a xlink:href="_adv_op___m_o_l_8_h.html" target="_top" xlink:title="AdvOp_MOL.H">
<polygon fill="#ffffff" stroke="#000000" points="457.5,-112.5 457.5,-131.5 540.5,-131.5 540.5,-112.5 457.5,-112.5"/>
<text text-anchor="middle" x="499" y="-119.5" font-family="Helvetica,sans-Serif" font-size="10.00" fill="#000000">AdvOp_MOL.H</text>
</a>
</g>
</g>
<!-- Node2&#45;&gt;Node12 -->
<g id="edge10" class="edge">
<title>Node2&#45;&gt;Node12</title>
<path fill="none" stroke="#191970" d="M516.215,-274.871C505.3358,-267.1693 493.9463,-256.7251 488,-244 470.0838,-205.6592 486.6686,-153.2062 494.9422,-131.7491"/>
<polygon fill="#191970" stroke="#191970" points="514.436,-277.8899 524.7167,-280.4509 518.277,-272.0378 514.436,-277.8899"/>
</g>
<!-- Node13 -->
<g id="node12" class="node">
<title>Node13</title>
<g id="a_node12"><a xlink:href="_comp_r_h_s_ops_8_h.html" target="_top" xlink:title="CompRHSOps.H">
<polygon fill="#ffffff" stroke="#000000" points="496.5,-224.5 496.5,-243.5 589.5,-243.5 589.5,-224.5 496.5,-224.5"/>
<text text-anchor="middle" x="543" y="-231.5" font-family="Helvetica,sans-Serif" font-size="10.00" fill="#000000">CompRHSOps.H</text>
</a>
</g>
</g>
<!-- Node2&#45;&gt;Node13 -->
<g id="edge17" class="edge">
<title>Node2&#45;&gt;Node13</title>
<path fill="none" stroke="#191970" d="M543,-270.1575C543,-261.155 543,-250.9199 543,-243.6427"/>
<polygon fill="#191970" stroke="#191970" points="539.5001,-270.2455 543,-280.2455 546.5001,-270.2456 539.5001,-270.2455"/>
</g>
<!-- Node15 -->
<g id="node14" class="node">
<title>Node15</title>
<g id="a_node14"><a xlink:href="density_8_h.html" target="_top" xlink:title="density.H">
<polygon fill="#ffffff" stroke="#000000" points="88.5,-112.5 88.5,-131.5 147.5,-131.5 147.5,-112.5 88.5,-112.5"/>
<text text-anchor="middle" x="118" y="-119.5" font-family="Helvetica,sans-Serif" font-size="10.00" fill="#000000">density.H</text>
</a>
</g>
</g>
<!-- Node2&#45;&gt;Node15 -->
<g id="edge41" class="edge">
<title>Node2&#45;&gt;Node15</title>
<path fill="none" stroke="#191970" d="M492.1642,-278.0325C459.4225,-269.7661 416.1841,-257.7995 379,-244 284.7444,-209.0205 177.6008,-153.7604 135.9132,-131.6304"/>
<polygon fill="#191970" stroke="#191970" points="491.4204,-281.4541 501.9701,-280.477 493.1137,-274.662 491.4204,-281.4541"/>
</g>
<!-- Node17 -->
<g id="node16" class="node">
<title>Node17</title>
<g id="a_node16"><a xlink:href="icns_8_h.html" target="_top" xlink:title="icns.H">
<polygon fill="#ffffff" stroke="#000000" points="867.5,-112.5 867.5,-131.5 912.5,-131.5 912.5,-112.5 867.5,-112.5"/>
<text text-anchor="middle" x="890" y="-119.5" font-family="Helvetica,sans-Serif" font-size="10.00" fill="#000000">icns.H</text>
</a>
</g>
</g>
<!-- Node2&#45;&gt;Node17 -->
<g id="edge47" class="edge">
<title>Node2&#45;&gt;Node17</title>
<path fill="none" stroke="#191970" d="M597.0461,-286.2349C645.8404,-281.2654 718.7066,-269.8741 777,-244 815.0229,-227.1232 824.3849,-219.1123 852,-188 867.623,-170.3985 879.8917,-145.3658 885.9176,-131.7455"/>
<polygon fill="#191970" stroke="#191970" points="596.6317,-282.7585 587.0132,-287.2007 597.3026,-289.7263 596.6317,-282.7585"/>
</g>
<!-- Node20 -->
<g id="node19" class="node">
<title>Node20</title>
<g id="a_node19"><a xlink:href="levelset_8_h.html" target="_top" xlink:title="levelset.H">
<polygon fill="#ffffff" stroke="#000000" points="628.5,-112.5 628.5,-131.5 689.5,-131.5 689.5,-112.5 628.5,-112.5"/>
<text text-anchor="middle" x="659" y="-119.5" font-family="Helvetica,sans-Serif" font-size="10.00" fill="#000000">levelset.H</text>
</a>
</g>
</g>
<!-- Node2&#45;&gt;Node20 -->
<g id="edge48" class="edge">
<title>Node2&#45;&gt;Node20</title>
<path fill="none" stroke="#191970" d="M575.0151,-275.893C589.2469,-268.2362 605.1905,-257.541 616,-244 644.1615,-208.722 654.6089,-153.6321 657.7981,-131.589"/>
<polygon fill="#191970" stroke="#191970" points="573.3096,-272.8337 565.9812,-280.4852 576.4816,-279.0738 573.3096,-272.8337"/>
</g>
<!-- Node22 -->
<g id="node21" class="node">
<title>Node22</title>
<g id="a_node21"><a xlink:href="_s_d_r_8_h.html" target="_top" xlink:title="SDR.H">
<polygon fill="#ffffff" stroke="#000000" points="174.5,-112.5 174.5,-131.5 223.5,-131.5 223.5,-112.5 174.5,-112.5"/>
<text text-anchor="middle" x="199" y="-119.5" font-family="Helvetica,sans-Serif" font-size="10.00" fill="#000000">SDR.H</text>
</a>
</g>
</g>
<!-- Node2&#45;&gt;Node22 -->
<g id="edge50" class="edge">
<title>Node2&#45;&gt;Node22</title>
<path fill="none" stroke="#191970" d="M505.493,-277.0736C481.5603,-268.4715 450.0636,-256.4903 423,-244 342.5854,-206.8874 251.0999,-153.3004 214.9229,-131.6319"/>
<polygon fill="#191970" stroke="#191970" points="504.3284,-280.3741 514.9231,-280.4291 506.6752,-273.7792 504.3284,-280.3741"/>
</g>
<!-- Node23 -->
<g id="node22" class="node">
<title>Node23</title>
<g id="a_node22"><a xlink:href="temperature_8_h.html" target="_top" xlink:title="temperature.H">
<polygon fill="#ffffff" stroke="#000000" points="360.5,-112.5 360.5,-131.5 439.5,-131.5 439.5,-112.5 360.5,-112.5"/>
<text text-anchor="middle" x="400" y="-119.5" font-family="Helvetica,sans-Serif" font-size="10.00" fill="#000000">temperature.H</text>
</a>
</g>
</g>
<!-- Node2&#45;&gt;Node23 -->
<g id="edge51" class="edge">
<title>Node2&#45;&gt;Node23</title>
<path fill="none" stroke="#191970" d="M516.6799,-275.0867C503.7772,-266.9652 488.5677,-256.1085 477,-244 442.3973,-207.7793 414.8642,-153.6906 404.4743,-131.76"/>
<polygon fill="#191970" stroke="#191970" points="515.2187,-278.2942 525.5823,-280.4957 518.8535,-272.3119 515.2187,-278.2942"/>
</g>
<!-- Node24 -->
<g id="node23" class="node">
<title>Node24</title>
<g id="a_node23"><a xlink:href="_t_k_e_8_h.html" target="_top" xlink:title="TKE.H">
<polygon fill="#ffffff" stroke="#000000" points="561.5,-112.5 561.5,-131.5 608.5,-131.5 608.5,-112.5 561.5,-112.5"/>
<text text-anchor="middle" x="585" y="-119.5" font-family="Helvetica,sans-Serif" font-size="10.00" fill="#000000">TKE.H</text>
</a>
</g>
</g>
<!-- Node2&#45;&gt;Node24 -->
<g id="edge52" class="edge">
<title>Node2&#45;&gt;Node24</title>
<path fill="none" stroke="#191970" d="M570.4926,-274.8126C581.4968,-267.1458 592.9754,-256.7453 599,-244 617.1308,-205.6434 598.6142,-153.1992 589.4697,-131.7467"/>
<polygon fill="#191970" stroke="#191970" points="568.3879,-272.0052 561.8824,-280.3676 572.1828,-277.8873 568.3879,-272.0052"/>
</g>
<!-- Node26 -->
<g id="node25" class="node">
<title>Node26</title>
<g id="a_node25"><a xlink:href="_diffusion_ops_8_h.html" target="_top" xlink:title="DiffusionOps.H">
<polygon fill="#ffffff" stroke="#000000" points="684,-224.5 684,-243.5 768,-243.5 768,-224.5 684,-224.5"/>
<text text-anchor="middle" x="726" y="-231.5" font-family="Helvetica,sans-Serif" font-size="10.00" fill="#000000">DiffusionOps.H</text>
</a>
</g>
</g>
<!-- Node2&#45;&gt;Node26 -->
<g id="edge42" class="edge">
<title>Node2&#45;&gt;Node26</title>
<path fill="none" stroke="#191970" d="M584.425,-277.3235C617.9856,-267.0536 664.534,-252.8093 694.9517,-243.5011"/>
<polygon fill="#191970" stroke="#191970" points="582.9969,-274.1002 574.4588,-280.3733 585.0453,-280.7938 582.9969,-274.1002"/>
</g>
<!-- Node28 -->
<g id="node27" class="node">
<title>Node28</title>
<g id="a_node27"><a xlink:href="_p_d_e_base_8cpp.html" target="_top" xlink:title="PDEBase.cpp">
<polygon fill="#ffffff" stroke="#000000" points="899.5,-224.5 899.5,-243.5 978.5,-243.5 978.5,-224.5 899.5,-224.5"/>
<text text-anchor="middle" x="939" y="-231.5" font-family="Helvetica,sans-Serif" font-size="10.00" fill="#000000">PDEBase.cpp</text>
</a>
</g>
</g>
<!-- Node2&#45;&gt;Node28 -->
<g id="edge49" class="edge">
<title>Node2&#45;&gt;Node28</title>
<path fill="none" stroke="#191970" d="M597.0842,-283.5633C664.6045,-275.335 783.5716,-260.2026 885,-244 889.6134,-243.263 894.439,-242.4418 899.2267,-241.5956"/>
<polygon fill="#191970" stroke="#191970" points="596.6072,-280.0955 587.1019,-284.7752 597.4508,-287.0444 596.6072,-280.0955"/>
</g>
<!-- Node4 -->
<g id="node3" class="node">
<title>Node4</title>
<g id="a_node3"><a xlink:href="density_8cpp.html" target="_top" xlink:title="density.cpp">
<polygon fill="#ffffff" stroke="#000000" points="93.5,-.5 93.5,-19.5 160.5,-19.5 160.5,-.5 93.5,-.5"/>
<text text-anchor="middle" x="127" y="-7.5" font-family="Helvetica,sans-Serif" font-size="10.00" fill="#000000">density.cpp</text>
</a>
</g>
</g>
<!-- Node3&#45;&gt;Node4 -->
<g id="edge2" class="edge">
<title>Node3&#45;&gt;Node4</title>
<path fill="none" stroke="#191970" d="M232.3895,-109.7295C209.4467,-102.757 184.1795,-92.0876 165,-76 146.7659,-60.7054 135.3869,-34.2895 130.2376,-19.953"/>
<polygon fill="#191970" stroke="#191970" points="231.4782,-113.1091 242.0553,-112.4964 233.4047,-106.3794 231.4782,-113.1091"/>
</g>
<!-- Node5 -->
<g id="node4" class="node">
<title>Node5</title>
<g id="a_node4"><a xlink:href="icns__ops_8_h.html" target="_top" xlink:title="icns_ops.H">
<polygon fill="#ffffff" stroke="#000000" points="788,-56.5 788,-75.5 854,-75.5 854,-56.5 788,-56.5"/>
<text text-anchor="middle" x="821" y="-63.5" font-family="Helvetica,sans-Serif" font-size="10.00" fill="#000000">icns_ops.H</text>
</a>
</g>
</g>
<!-- Node3&#45;&gt;Node5 -->
<g id="edge3" class="edge">
<title>Node3&#45;&gt;Node5</title>
<path fill="none" stroke="#191970" d="M352.8103,-111.8614C542.1366,-88.6356 593.7301,-105.6762 779,-76 781.8124,-75.5495 784.7153,-75.0124 787.6199,-74.4244"/>
<polygon fill="#191970" stroke="#191970" points="352.298,-108.3981 342.8086,-113.1099 353.1651,-115.3442 352.298,-108.3981"/>
</g>
<!-- Node8 -->
<g id="node7" class="node">
<title>Node8</title>
<g id="a_node7"><a xlink:href="levelset_8cpp.html" target="_top" xlink:title="levelset.cpp">
<polygon fill="#ffffff" stroke="#000000" points="516.5,-.5 516.5,-19.5 585.5,-19.5 585.5,-.5 516.5,-.5"/>
<text text-anchor="middle" x="551" y="-7.5" font-family="Helvetica,sans-Serif" font-size="10.00" fill="#000000">levelset.cpp</text>
</a>
</g>
</g>
<!-- Node3&#45;&gt;Node8 -->
<g id="edge6" class="edge">
<title>Node3&#45;&gt;Node8</title>
<path fill="none" stroke="#191970" d="M280.8021,-103.2027C273.7903,-88.7259 267.9756,-69.0454 279,-56 294.2054,-38.0072 446.7024,-20.5002 516.4773,-13.3602"/>
<polygon fill="#191970" stroke="#191970" points="277.8434,-105.0914 285.6555,-112.2483 284.0116,-101.7818 277.8434,-105.0914"/>
</g>
<!-- Node9 -->
<g id="node8" class="node">
<title>Node9</title>
<g id="a_node8"><a xlink:href="_s_d_r_8cpp.html" target="_top" xlink:title="SDR.cpp">
<polygon fill="#ffffff" stroke="#000000" points="174.5,-56.5 174.5,-75.5 231.5,-75.5 231.5,-56.5 174.5,-56.5"/>
<text text-anchor="middle" x="203" y="-63.5" font-family="Helvetica,sans-Serif" font-size="10.00" fill="#000000">SDR.cpp</text>
</a>
</g>
</g>
<!-- Node3&#45;&gt;Node9 -->
<g id="edge7" class="edge">
<title>Node3&#45;&gt;Node9</title>
<path fill="none" stroke="#191970" d="M267.7936,-106.769C252.0225,-96.8456 231.924,-84.1994 218.325,-75.6427"/>
<polygon fill="#191970" stroke="#191970" points="266.1695,-109.8823 276.4974,-112.2455 269.8974,-103.9575 266.1695,-109.8823"/>
</g>
<!-- Node10 -->
<g id="node9" class="node">
<title>Node10</title>
<g id="a_node9"><a xlink:href="temperature_8cpp.html" target="_top" xlink:title="temperature.cpp">
<polygon fill="#ffffff" stroke="#000000" points="288.5,-56.5 288.5,-75.5 375.5,-75.5 375.5,-56.5 288.5,-56.5"/>
<text text-anchor="middle" x="332" y="-63.5" font-family="Helvetica,sans-Serif" font-size="10.00" fill="#000000">temperature.cpp</text>
</a>
</g>
</g>
<!-- Node3&#45;&gt;Node10 -->
<g id="edge8" class="edge">
<title>Node3&#45;&gt;Node10</title>
<path fill="none" stroke="#191970" d="M304.9136,-103.9209C311.6303,-94.5176 319.5717,-83.3997 325.1124,-75.6427"/>
<polygon fill="#191970" stroke="#191970" points="301.9318,-102.0738 298.9675,-112.2455 307.628,-106.1425 301.9318,-102.0738"/>
</g>
<!-- Node11 -->
<g id="node10" class="node">
<title>Node11</title>
<g id="a_node10"><a xlink:href="_t_k_e_8cpp.html" target="_top" xlink:title="TKE.cpp">
<polygon fill="#ffffff" stroke="#000000" points="470.5,-56.5 470.5,-75.5 525.5,-75.5 525.5,-56.5 470.5,-56.5"/>
<text text-anchor="middle" x="498" y="-63.5" font-family="Helvetica,sans-Serif" font-size="10.00" fill="#000000">TKE.cpp</text>
</a>
</g>
</g>
<!-- Node3&#45;&gt;Node11 -->
<g id="edge9" class="edge">
<title>Node3&#45;&gt;Node11</title>
<path fill="none" stroke="#191970" d="M337.0766,-109.7462C377.7101,-98.7002 436.1642,-82.8097 470.2982,-73.5306"/>
<polygon fill="#191970" stroke="#191970" points="336.1443,-106.3725 327.4127,-112.3733 337.9806,-113.1274 336.1443,-106.3725"/>
</g>
<!-- Node6 -->
<g id="node5" class="node">
<title>Node6</title>
<g id="a_node5"><a xlink:href="icns_8cpp.html" target="_top" xlink:title="icns.cpp">
<polygon fill="#ffffff" stroke="#000000" points="913.5,-.5 913.5,-19.5 966.5,-19.5 966.5,-.5 913.5,-.5"/>
<text text-anchor="middle" x="940" y="-7.5" font-family="Helvetica,sans-Serif" font-size="10.00" fill="#000000">icns.cpp</text>
</a>
</g>
</g>
<!-- Node5&#45;&gt;Node6 -->
<g id="edge4" class="edge">
<title>Node5&#45;&gt;Node6</title>
<path fill="none" stroke="#191970" d="M850.5144,-52.1109C872.0938,-41.9559 900.7976,-28.4482 919.8101,-19.5011"/>
<polygon fill="#191970" stroke="#191970" points="849.0147,-48.9484 841.4568,-56.3733 851.9953,-55.2821 849.0147,-48.9484"/>
</g>
<!-- Node7 -->
<g id="node6" class="node">
<title>Node7</title>
<g id="a_node6"><a xlink:href="icns__ops_8cpp.html" target="_top" xlink:title="icns_ops.cpp">
<polygon fill="#ffffff" stroke="#000000" points="784,-.5 784,-19.5 858,-19.5 858,-.5 784,-.5"/>
<text text-anchor="middle" x="821" y="-7.5" font-family="Helvetica,sans-Serif" font-size="10.00" fill="#000000">icns_ops.cpp</text>
</a>
</g>
</g>
<!-- Node5&#45;&gt;Node7 -->
<g id="edge5" class="edge">
<title>Node5&#45;&gt;Node7</title>
<path fill="none" stroke="#191970" d="M821,-46.1575C821,-37.155 821,-26.9199 821,-19.6427"/>
<polygon fill="#191970" stroke="#191970" points="817.5001,-46.2455 821,-56.2455 824.5001,-46.2456 817.5001,-46.2455"/>
</g>
<!-- Node12&#45;&gt;Node4 -->
<g id="edge11" class="edge">
<title>Node12&#45;&gt;Node4</title>
<path fill="none" stroke="#191970" d="M477.5651,-106.6704C455.2604,-91.4669 418.792,-68.6632 384,-56 307.1186,-28.0175 210.8882,-16.6265 160.8144,-12.3415"/>
<polygon fill="#191970" stroke="#191970" points="475.7242,-109.653 485.9363,-112.4752 479.7131,-103.9007 475.7242,-109.653"/>
</g>
<!-- Node12&#45;&gt;Node5 -->
<g id="edge12" class="edge">
<title>Node12&#45;&gt;Node5</title>
<path fill="none" stroke="#191970" d="M550.7109,-112.3962C551.479,-112.2626 552.2424,-112.1305 553,-112 653.2353,-94.7384 679.2337,-95.7934 779,-76 781.7938,-75.4457 784.6837,-74.8356 787.5794,-74.1986"/>
<polygon fill="#191970" stroke="#191970" points="549.7861,-109.0055 540.5502,-114.1967 551.0075,-115.8981 549.7861,-109.0055"/>
</g>
<!-- Node12&#45;&gt;Node8 -->
<g id="edge13" class="edge">
<title>Node12&#45;&gt;Node8</title>
<path fill="none" stroke="#191970" d="M478.8666,-105.4897C465.0164,-92.0519 450.8098,-72.6524 461,-56 472.9985,-36.3925 496.2844,-24.8067 516.1638,-18.1672"/>
<polygon fill="#191970" stroke="#191970" points="476.6068,-108.1652 486.3673,-112.2865 481.3072,-102.978 476.6068,-108.1652"/>
</g>
<!-- Node12&#45;&gt;Node9 -->
<g id="edge14" class="edge">
<title>Node12&#45;&gt;Node9</title>
<path fill="none" stroke="#191970" d="M447.2452,-111.8665C362.8286,-95.6942 275.6998,-79.4709 231.6802,-71.3077"/>
<polygon fill="#191970" stroke="#191970" points="446.7765,-115.3403 457.2568,-113.7867 448.0951,-108.4656 446.7765,-115.3403"/>
</g>
<!-- Node12&#45;&gt;Node10 -->
<g id="edge15" class="edge">
<title>Node12&#45;&gt;Node10</title>
<path fill="none" stroke="#191970" d="M460.8002,-109.1905C430.2046,-98.9309 387.9722,-84.7691 360.3337,-75.5011"/>
<polygon fill="#191970" stroke="#191970" points="459.6978,-112.5123 470.2917,-112.3733 461.9233,-105.8755 459.6978,-112.5123"/>
</g>
<!-- Node12&#45;&gt;Node11 -->
<g id="edge16" class="edge">
<title>Node12&#45;&gt;Node11</title>
<path fill="none" stroke="#191970" d="M498.6457,-102.1575C498.4849,-93.155 498.3021,-82.9199 498.1722,-75.6427"/>
<polygon fill="#191970" stroke="#191970" points="495.1477,-102.3097 498.8258,-112.2455 502.1466,-102.1846 495.1477,-102.3097"/>
</g>
<!-- Node14 -->
<g id="node13" class="node">
<title>Node14</title>
<g id="a_node13"><a xlink:href="_p_d_e_8_h.html" target="_top" xlink:title="PDE.H">
<polygon fill="#ffffff" stroke="#000000" points="530,-168.5 530,-187.5 578,-187.5 578,-168.5 530,-168.5"/>
<text text-anchor="middle" x="554" y="-175.5" font-family="Helvetica,sans-Serif" font-size="10.00" fill="#000000">PDE.H</text>
</a>
</g>
</g>
<!-- Node13&#45;&gt;Node14 -->
<g id="edge18" class="edge">
<title>Node13&#45;&gt;Node14</title>
<path fill="none" stroke="#191970" d="M546.8976,-214.1575C548.666,-205.155 550.6765,-194.9199 552.1059,-187.6427"/>
<polygon fill="#191970" stroke="#191970" points="543.4092,-213.7584 544.9161,-224.2455 550.278,-215.1077 543.4092,-213.7584"/>
</g>
<!-- Node14&#45;&gt;Node15 -->
<g id="edge19" class="edge">
<title>Node14&#45;&gt;Node15</title>
<path fill="none" stroke="#191970" d="M519.6277,-175.0062C451.6302,-168.8477 295.2444,-153.5098 165,-132 159.3207,-131.0621 153.2885,-129.9033 147.5062,-128.7108"/>
<polygon fill="#191970" stroke="#191970" points="519.4917,-178.508 529.7644,-175.9154 520.1171,-171.536 519.4917,-178.508"/>
</g>
<!-- Node14&#45;&gt;Node17 -->
<g id="edge23" class="edge">
<title>Node14&#45;&gt;Node17</title>
<path fill="none" stroke="#191970" d="M588.0286,-172.3286C656.5784,-160.9036 809.6606,-135.3899 867.3873,-125.7688"/>
<polygon fill="#191970" stroke="#191970" points="587.4528,-168.8762 578.1643,-173.9726 588.6037,-175.7809 587.4528,-168.8762"/>
</g>
<!-- Node14&#45;&gt;Node20 -->
<g id="edge30" class="edge">
<title>Node14&#45;&gt;Node20</title>
<path fill="none" stroke="#191970" d="M581.2625,-163.46C600.0522,-153.4388 624.5013,-140.3993 640.92,-131.6427"/>
<polygon fill="#191970" stroke="#191970" points="579.4661,-160.4514 572.2896,-168.2455 582.7602,-166.6278 579.4661,-160.4514"/>
</g>
<!-- Node14&#45;&gt;Node22 -->
<g id="edge34" class="edge">
<title>Node14&#45;&gt;Node22</title>
<path fill="none" stroke="#191970" d="M519.6725,-174.8313C460.4688,-168.9814 335.5456,-154.9446 232,-132 229.3115,-131.4042 226.5236,-130.6997 223.759,-129.9447"/>
<polygon fill="#191970" stroke="#191970" points="519.6509,-178.3456 529.9424,-175.8286 520.3275,-171.3784 519.6509,-178.3456"/>
</g>
<!-- Node14&#45;&gt;Node23 -->
<g id="edge36" class="edge">
<title>Node14&#45;&gt;Node23</title>
<path fill="none" stroke="#191970" d="M520.4549,-165.8018C492.1545,-155.5107 452.2105,-140.9856 426.2112,-131.5314"/>
<polygon fill="#191970" stroke="#191970" points="519.3434,-169.1218 529.9375,-169.25 521.7357,-162.5432 519.3434,-169.1218"/>
</g>
<!-- Node14&#45;&gt;Node24 -->
<g id="edge38" class="edge">
<title>Node14&#45;&gt;Node24</title>
<path fill="none" stroke="#191970" d="M564.3312,-159.3372C569.4665,-150.0605 575.4566,-139.2398 579.6621,-131.6427"/>
<polygon fill="#191970" stroke="#191970" points="561.1809,-157.8015 559.3998,-168.2455 567.3051,-161.1917 561.1809,-157.8015"/>
</g>
<!-- Node15&#45;&gt;Node4 -->
<g id="edge20" class="edge">
<title>Node15&#45;&gt;Node4</title>
<path fill="none" stroke="#191970" d="M119.5854,-102.2702C121.5358,-77.9985 124.7683,-37.7725 126.2346,-19.5249"/>
<polygon fill="#191970" stroke="#191970" points="116.0797,-102.2027 118.7673,-112.4509 123.0572,-102.7635 116.0797,-102.2027"/>
</g>
<!-- Node16 -->
<g id="node15" class="node">
<title>Node16</title>
<g id="a_node15"><a xlink:href="density__ops_8_h.html" target="_top" xlink:title="density_ops.H">
<polygon fill="#ffffff" stroke="#000000" points="0,-56.5 0,-75.5 80,-75.5 80,-56.5 0,-56.5"/>
<text text-anchor="middle" x="40" y="-63.5" font-family="Helvetica,sans-Serif" font-size="10.00" fill="#000000">density_ops.H</text>
</a>
</g>
</g>
<!-- Node15&#45;&gt;Node16 -->
<g id="edge21" class="edge">
<title>Node15&#45;&gt;Node16</title>
<path fill="none" stroke="#191970" d="M96.0064,-106.2097C82.3071,-96.3743 65.1264,-84.0394 53.4309,-75.6427"/>
<polygon fill="#191970" stroke="#191970" points="94.2489,-109.2566 104.4134,-112.2455 98.3314,-103.5703 94.2489,-109.2566"/>
</g>
<!-- Node16&#45;&gt;Node4 -->
<g id="edge22" class="edge">
<title>Node16&#45;&gt;Node4</title>
<path fill="none" stroke="#191970" d="M63.6625,-50.769C79.0791,-40.8456 98.726,-28.1994 112.0194,-19.6427"/>
<polygon fill="#191970" stroke="#191970" points="61.6685,-47.89 55.1542,-56.2455 65.4573,-53.7761 61.6685,-47.89"/>
</g>
<!-- Node17&#45;&gt;Node5 -->
<g id="edge25" class="edge">
<title>Node17&#45;&gt;Node5</title>
<path fill="none" stroke="#191970" d="M870.197,-105.928C858.1364,-96.1397 843.1286,-83.9595 832.8812,-75.6427"/>
<polygon fill="#191970" stroke="#191970" points="868.0109,-108.6614 877.9811,-112.2455 872.4221,-103.2262 868.0109,-108.6614"/>
</g>
<!-- Node17&#45;&gt;Node6 -->
<g id="edge24" class="edge">
<title>Node17&#45;&gt;Node6</title>
<path fill="none" stroke="#191970" d="M920.9034,-107.5161C933.2468,-99.9901 946.139,-89.5049 953,-76 962.3097,-57.6751 952.6741,-33.3516 945.7426,-19.939"/>
<polygon fill="#191970" stroke="#191970" points="919.0997,-104.5151 912.1066,-112.4742 922.5367,-110.6132 919.0997,-104.5151"/>
</g>
<!-- Node18 -->
<g id="node17" class="node">
<title>Node18</title>
<g id="a_node17"><a xlink:href="icns__diffusion_8_h.html" target="_top" xlink:title="icns_diffusion.H">
<polygon fill="#ffffff" stroke="#000000" points="1000.5,-56.5 1000.5,-75.5 1087.5,-75.5 1087.5,-56.5 1000.5,-56.5"/>
<text text-anchor="middle" x="1044" y="-63.5" font-family="Helvetica,sans-Serif" font-size="10.00" fill="#000000">icns_diffusion.H</text>
</a>
</g>
</g>
<!-- Node17&#45;&gt;Node18 -->
<g id="edge26" class="edge">
<title>Node17&#45;&gt;Node18</title>
<path fill="none" stroke="#191970" d="M922.1991,-110.2912C950.5815,-99.9704 991.4167,-85.1212 1017.8297,-75.5165"/>
<polygon fill="#191970" stroke="#191970" points="920.925,-107.0302 912.7232,-113.737 923.3173,-113.6088 920.925,-107.0302"/>
</g>
<!-- Node19 -->
<g id="node18" class="node">
<title>Node19</title>
<g id="a_node18"><a xlink:href="icns__bcop_8_h.html" target="_top" xlink:title="icns_bcop.H">
<polygon fill="#ffffff" stroke="#000000" points="872.5,-56.5 872.5,-75.5 943.5,-75.5 943.5,-56.5 872.5,-56.5"/>
<text text-anchor="middle" x="908" y="-63.5" font-family="Helvetica,sans-Serif" font-size="10.00" fill="#000000">icns_bcop.H</text>
</a>
</g>
</g>
<!-- Node17&#45;&gt;Node19 -->
<g id="edge28" class="edge">
<title>Node17&#45;&gt;Node19</title>
<path fill="none" stroke="#191970" d="M896.2827,-102.4538C899.1992,-93.3803 902.5358,-82.9998 904.9006,-75.6427"/>
<polygon fill="#191970" stroke="#191970" points="892.8634,-101.6542 893.1354,-112.2455 899.5276,-103.7963 892.8634,-101.6542"/>
</g>
<!-- Node18&#45;&gt;Node6 -->
<g id="edge27" class="edge">
<title>Node18&#45;&gt;Node6</title>
<path fill="none" stroke="#191970" d="M1016.9971,-51.46C998.3864,-41.4388 974.1701,-28.3993 957.9078,-19.6427"/>
<polygon fill="#191970" stroke="#191970" points="1015.4205,-54.5861 1025.8846,-56.2455 1018.7392,-48.4228 1015.4205,-54.5861"/>
</g>
<!-- Node19&#45;&gt;Node6 -->
<g id="edge29" class="edge">
<title>Node19&#45;&gt;Node6</title>
<path fill="none" stroke="#191970" d="M918.6645,-47.3372C923.9654,-38.0605 930.1487,-27.2398 934.4899,-19.6427"/>
<polygon fill="#191970" stroke="#191970" points="915.4966,-45.8266 913.574,-56.2455 921.5743,-49.2996 915.4966,-45.8266"/>
</g>
<!-- Node20&#45;&gt;Node8 -->
<g id="edge31" class="edge">
<title>Node20&#45;&gt;Node8</title>
<path fill="none" stroke="#191970" d="M657.7984,-102.189C656.0115,-87.9731 651.6368,-69.0926 641,-56 626.6157,-38.2948 603.6318,-26.7092 584.4917,-19.5938"/>
<polygon fill="#191970" stroke="#191970" points="654.336,-102.7572 658.7469,-112.3902 661.306,-102.1091 654.336,-102.7572"/>
</g>
<!-- Node21 -->
<g id="node20" class="node">
<title>Node21</title>
<g id="a_node20"><a xlink:href="levelset__ops_8_h.html" target="_top" xlink:title="levelset_ops.H">
<polygon fill="#ffffff" stroke="#000000" points="688,-56.5 688,-75.5 770,-75.5 770,-56.5 688,-56.5"/>
<text text-anchor="middle" x="729" y="-63.5" font-family="Helvetica,sans-Serif" font-size="10.00" fill="#000000">levelset_ops.H</text>
</a>
</g>
</g>
<!-- Node20&#45;&gt;Node21 -->
<g id="edge32" class="edge">
<title>Node20&#45;&gt;Node21</title>
<path fill="none" stroke="#191970" d="M679.09,-105.928C691.3253,-96.1397 706.5507,-83.9595 716.9467,-75.6427"/>
<polygon fill="#191970" stroke="#191970" points="676.8153,-103.2655 671.1931,-112.2455 681.1882,-108.7316 676.8153,-103.2655"/>
</g>
<!-- Node21&#45;&gt;Node8 -->
<g id="edge33" class="edge">
<title>Node21&#45;&gt;Node8</title>
<path fill="none" stroke="#191970" d="M688.7069,-53.3235C656.0632,-43.0536 610.7866,-28.8093 581.2,-19.5011"/>
<polygon fill="#191970" stroke="#191970" points="687.8113,-56.7108 698.4007,-56.3733 689.912,-50.0335 687.8113,-56.7108"/>
</g>
<!-- Node22&#45;&gt;Node9 -->
<g id="edge35" class="edge">
<title>Node22&#45;&gt;Node9</title>
<path fill="none" stroke="#191970" d="M200.4173,-102.1575C201.0604,-93.155 201.7914,-82.9199 202.3112,-75.6427"/>
<polygon fill="#191970" stroke="#191970" points="196.9182,-102.0216 199.6967,-112.2455 203.9004,-102.5204 196.9182,-102.0216"/>
</g>
<!-- Node23&#45;&gt;Node10 -->
<g id="edge37" class="edge">
<title>Node23&#45;&gt;Node10</title>
<path fill="none" stroke="#191970" d="M380.1404,-105.645C368.3142,-95.9058 353.7108,-83.8795 343.709,-75.6427"/>
<polygon fill="#191970" stroke="#191970" points="378.211,-108.5902 388.1553,-112.2455 382.661,-103.1867 378.211,-108.5902"/>
</g>
<!-- Node24&#45;&gt;Node11 -->
<g id="edge39" class="edge">
<title>Node24&#45;&gt;Node11</title>
<path fill="none" stroke="#191970" d="M561.3375,-106.769C545.9209,-96.8456 526.274,-84.1994 512.9806,-75.6427"/>
<polygon fill="#191970" stroke="#191970" points="559.5427,-109.7761 569.8458,-112.2455 563.3315,-103.89 559.5427,-109.7761"/>
</g>
<!-- Node25 -->
<g id="node24" class="node">
<title>Node25</title>
<g id="a_node24"><a xlink:href="_one_eq_ksgs_8cpp.html" target="_top" xlink:title="OneEqKsgs.cpp">
<polygon fill="#ffffff" stroke="#000000" points="544,-56.5 544,-75.5 632,-75.5 632,-56.5 544,-56.5"/>
<text text-anchor="middle" x="588" y="-63.5" font-family="Helvetica,sans-Serif" font-size="10.00" fill="#000000">OneEqKsgs.cpp</text>
</a>
</g>
</g>
<!-- Node24&#45;&gt;Node25 -->
<g id="edge40" class="edge">
<title>Node24&#45;&gt;Node25</title>
<path fill="none" stroke="#191970" d="M586.063,-102.1575C586.5453,-93.155 587.0936,-82.9199 587.4834,-75.6427"/>
<polygon fill="#191970" stroke="#191970" points="582.5626,-102.0726 585.5226,-112.2455 589.5526,-102.4471 582.5626,-102.0726"/>
</g>
<!-- Node26&#45;&gt;Node5 -->
<g id="edge45" class="edge">
<title>Node26&#45;&gt;Node5</title>
<path fill="none" stroke="#191970" d="M728.5931,-214.0577C730.8775,-200.5646 734.9716,-182.6088 742,-168 760.2561,-130.054 794.3038,-92.8319 811.1035,-75.735"/>
<polygon fill="#191970" stroke="#191970" points="725.0984,-213.7619 727.0753,-224.1707 732.0209,-214.801 725.0984,-213.7619"/>
</g>
<!-- Node26&#45;&gt;Node14 -->
<g id="edge43" class="edge">
<title>Node26&#45;&gt;Node14</title>
<path fill="none" stroke="#191970" d="M686.5299,-221.1493C653.1217,-210.2722 606.3101,-195.0312 578.1906,-185.876"/>
<polygon fill="#191970" stroke="#191970" points="685.8399,-224.6054 696.4321,-224.3733 688.007,-217.9493 685.8399,-224.6054"/>
</g>
<!-- Node26&#45;&gt;Node18 -->
<g id="edge46" class="edge">
<title>Node26&#45;&gt;Node18</title>
<path fill="none" stroke="#191970" d="M767.4126,-221.3922C792.4556,-213.1575 824.7103,-201.4545 852,-188 923.1988,-152.8974 1000.9555,-97.7075 1031.0802,-75.6133"/>
<polygon fill="#191970" stroke="#191970" points="766.2877,-218.0775 757.8494,-224.4842 768.4412,-224.738 766.2877,-218.0775"/>
</g>
<!-- Node27 -->
<g id="node26" class="node">
<title>Node27</title>
<g id="a_node26"><a xlink:href="_diffusion_ops_8cpp.html" target="_top" xlink:title="DiffusionOps.cpp">
<polygon fill="#ffffff" stroke="#000000" points="751,-168.5 751,-187.5 843,-187.5 843,-168.5 751,-168.5"/>
<text text-anchor="middle" x="797" y="-175.5" font-family="Helvetica,sans-Serif" font-size="10.00" fill="#000000">DiffusionOps.cpp</text>
</a>
</g>
</g>
<!-- Node26&#45;&gt;Node27 -->
<g id="edge44" class="edge">
<title>Node26&#45;&gt;Node27</title>
<path fill="none" stroke="#191970" d="M746.377,-217.928C758.7871,-208.1397 774.23,-195.9595 784.7745,-187.6427"/>
<polygon fill="#191970" stroke="#191970" points="744.0514,-215.3046 738.3673,-224.2455 748.3864,-220.8007 744.0514,-215.3046"/>
</g>
</g>
</svg>
