<?xml version="1.0" encoding="UTF-8" standalone="no"?>
<!DOCTYPE svg PUBLIC "-//W3C//DTD SVG 1.1//EN"
 "http://www.w3.org/Graphics/SVG/1.1/DTD/svg11.dtd">
<!-- Generated by graphviz version 2.40.1 (20161225.0304)
 -->
<!-- Title: ScratchField.H Pages: 1 -->
<svg width="613pt" height="84pt"
 viewBox="0.00 0.00 612.50 84.00" xmlns="http://www.w3.org/2000/svg" xmlns:xlink="http://www.w3.org/1999/xlink">
<g id="graph0" class="graph" transform="scale(1 1) rotate(0) translate(4 80)">
<title>ScratchField.H</title>
<polygon fill="#ffffff" stroke="transparent" points="-4,4 -4,-80 608.5,-80 608.5,4 -4,4"/>
<!-- Node0 -->
<g id="node1" class="node">
<title>Node0</title>
<polygon fill="#bfbfbf" stroke="#000000" points="251.5,-56.5 251.5,-75.5 333.5,-75.5 333.5,-56.5 251.5,-56.5"/>
<text text-anchor="middle" x="292.5" y="-63.5" font-family="Helvetica,sans-Serif" font-size="10.00" fill="#000000">ScratchField.H</text>
</g>
<!-- Node1 -->
<g id="node2" class="node">
<title>Node1</title>
<polygon fill="#ffffff" stroke="#bfbfbf" points="0,-.5 0,-19.5 41,-19.5 41,-.5 0,-.5"/>
<text text-anchor="middle" x="20.5" y="-7.5" font-family="Helvetica,sans-Serif" font-size="10.00" fill="#000000">string</text>
</g>
<!-- Node0&#45;&gt;Node1 -->
<g id="edge1" class="edge">
<title>Node0&#45;&gt;Node1</title>
<path fill="none" stroke="#191970" d="M251.2476,-60.0599C204.6667,-52.9422 126.5068,-39.765 51.3933,-20.2435"/>
<polygon fill="#191970" stroke="#191970" points="51.8599,-16.7468 41.2976,-17.5757 50.0715,-23.5145 51.8599,-16.7468"/>
</g>
<!-- Node2 -->
<g id="node3" class="node">
<title>Node2</title>
<g id="a_node3"><a xlink:href="_field_desc_types_8_h.html" target="_top" xlink:title="amr&#45;wind/core/FieldDescTypes.H">
<polygon fill="#ffffff" stroke="#000000" points="59,-.5 59,-19.5 222,-19.5 222,-.5 59,-.5"/>
<text text-anchor="middle" x="140.5" y="-7.5" font-family="Helvetica,sans-Serif" font-size="10.00" fill="#000000">amr&#45;wind/core/FieldDescTypes.H</text>
</a>
</g>
</g>
<!-- Node0&#45;&gt;Node2 -->
<g id="edge2" class="edge">
<title>Node0&#45;&gt;Node2</title>
<path fill="none" stroke="#191970" d="M266.3703,-56.3733C241.4232,-47.1822 203.6408,-33.2624 175.9794,-23.0713"/>
<polygon fill="#191970" stroke="#191970" points="176.8822,-19.674 166.2888,-19.5011 174.4622,-26.2424 176.8822,-19.674"/>
</g>
<!-- Node3 -->
<g id="node4" class="node">
<title>Node3</title>
<polygon fill="#ffffff" stroke="#bfbfbf" points="240.5,-.5 240.5,-19.5 344.5,-19.5 344.5,-.5 240.5,-.5"/>
<text text-anchor="middle" x="292.5" y="-7.5" font-family="Helvetica,sans-Serif" font-size="10.00" fill="#000000">AMReX_MultiFab.H</text>
</g>
<!-- Node0&#45;&gt;Node3 -->
<g id="edge3" class="edge">
<title>Node0&#45;&gt;Node3</title>
<path fill="none" stroke="#191970" d="M292.5,-56.2455C292.5,-48.9382 292.5,-38.6944 292.5,-29.7046"/>
<polygon fill="#191970" stroke="#191970" points="296.0001,-29.6426 292.5,-19.6427 289.0001,-29.6427 296.0001,-29.6426"/>
</g>
<!-- Node4 -->
<g id="node5" class="node">
<title>Node4</title>
<polygon fill="#ffffff" stroke="#bfbfbf" points="363,-.5 363,-19.5 458,-19.5 458,-.5 363,-.5"/>
<text text-anchor="middle" x="410.5" y="-7.5" font-family="Helvetica,sans-Serif" font-size="10.00" fill="#000000">AMReX_Vector.H</text>
</g>
<!-- Node0&#45;&gt;Node4 -->
<g id="edge4" class="edge">
<title>Node0&#45;&gt;Node4</title>
<path fill="none" stroke="#191970" d="M312.7849,-56.3733C331.6421,-47.4241 359.946,-33.9917 381.2455,-23.8835"/>
<polygon fill="#191970" stroke="#191970" points="382.9461,-26.9506 390.4798,-19.5011 379.9449,-20.6266 382.9461,-26.9506"/>
</g>
<!-- Node5 -->
<g id="node6" class="node">
<title>Node5</title>
<polygon fill="#ffffff" stroke="#bfbfbf" points="476.5,-.5 476.5,-19.5 604.5,-19.5 604.5,-.5 476.5,-.5"/>
<text text-anchor="middle" x="540.5" y="-7.5" font-family="Helvetica,sans-Serif" font-size="10.00" fill="#000000">AMReX_PhysBCFunct.H</text>
</g>
<!-- Node0&#45;&gt;Node5 -->
<g id="edge5" class="edge">
<title>Node0&#45;&gt;Node5</title>
<path fill="none" stroke="#191970" d="M333.7305,-56.6899C376.204,-47.0991 442.5213,-32.1242 488.5531,-21.73"/>
<polygon fill="#191970" stroke="#191970" points="489.3573,-25.1366 498.3408,-19.5198 487.8154,-18.3085 489.3573,-25.1366"/>
</g>
</g>
</svg>
