<?xml version="1.0" encoding="UTF-8" standalone="no"?>
<!DOCTYPE svg PUBLIC "-//W3C//DTD SVG 1.1//EN"
 "http://www.w3.org/Graphics/SVG/1.1/DTD/svg11.dtd">
<!-- Generated by graphviz version 2.40.1 (20161225.0304)
 -->
<!-- Title: ScratchField.H Pages: 1 -->
<svg width="3955pt" height="308pt"
 viewBox="0.00 0.00 3954.50 308.00" xmlns="http://www.w3.org/2000/svg" xmlns:xlink="http://www.w3.org/1999/xlink">
<g id="graph0" class="graph" transform="scale(1 1) rotate(0) translate(4 304)">
<title>ScratchField.H</title>
<polygon fill="#ffffff" stroke="transparent" points="-4,4 -4,-304 3950.5,-304 3950.5,4 -4,4"/>
<!-- Node6 -->
<g id="node1" class="node">
<title>Node6</title>
<polygon fill="#bfbfbf" stroke="#000000" points="2270.5,-280.5 2270.5,-299.5 2352.5,-299.5 2352.5,-280.5 2270.5,-280.5"/>
<text text-anchor="middle" x="2311.5" y="-287.5" font-family="Helvetica,sans-Serif" font-size="10.00" fill="#000000">ScratchField.H</text>
</g>
<!-- Node7 -->
<g id="node2" class="node">
<title>Node7</title>
<g id="a_node2"><a xlink:href="_field_repo_8_h.html" target="_top" xlink:title="FieldRepo.H">
<polygon fill="#ffffff" stroke="#000000" points="2244,-224.5 2244,-243.5 2315,-243.5 2315,-224.5 2244,-224.5"/>
<text text-anchor="middle" x="2279.5" y="-231.5" font-family="Helvetica,sans-Serif" font-size="10.00" fill="#000000">FieldRepo.H</text>
</a>
</g>
</g>
<!-- Node6&#45;&gt;Node7 -->
<g id="edge1" class="edge">
<title>Node6&#45;&gt;Node7</title>
<path fill="none" stroke="#191970" d="M2300.8355,-271.3372C2295.5346,-262.0605 2289.3513,-251.2398 2285.0101,-243.6427"/>
<polygon fill="#191970" stroke="#191970" points="2297.9257,-273.2996 2305.926,-280.2455 2304.0034,-269.8266 2297.9257,-273.2996"/>
</g>
<!-- Node112 -->
<g id="node31" class="node">
<title>Node112</title>
<g id="a_node31"><a xlink:href="_scratch_field_8cpp.html" target="_top" xlink:title="ScratchField.cpp">
<polygon fill="#ffffff" stroke="#000000" points="3856.5,-168.5 3856.5,-187.5 3946.5,-187.5 3946.5,-168.5 3856.5,-168.5"/>
<text text-anchor="middle" x="3901.5" y="-175.5" font-family="Helvetica,sans-Serif" font-size="10.00" fill="#000000">ScratchField.cpp</text>
</a>
</g>
</g>
<!-- Node6&#45;&gt;Node112 -->
<g id="edge68" class="edge">
<title>Node6&#45;&gt;Node112</title>
<path fill="none" stroke="#191970" d="M2362.7709,-287.8762C2555.5857,-279.609 3255.447,-247.076 3829.5,-188 3838.162,-187.1086 3847.3853,-185.9712 3856.238,-184.7853"/>
<polygon fill="#191970" stroke="#191970" points="2362.4889,-284.3849 2352.6471,-288.3079 2362.7872,-291.3786 2362.4889,-284.3849"/>
</g>
<!-- Node8 -->
<g id="node3" class="node">
<title>Node8</title>
<g id="a_node3"><a xlink:href="_b_c_interface_8cpp.html" target="_top" xlink:title="BCInterface.cpp">
<polygon fill="#ffffff" stroke="#000000" points="3784.5,-112.5 3784.5,-131.5 3872.5,-131.5 3872.5,-112.5 3784.5,-112.5"/>
<text text-anchor="middle" x="3828.5" y="-119.5" font-family="Helvetica,sans-Serif" font-size="10.00" fill="#000000">BCInterface.cpp</text>
</a>
</g>
</g>
<!-- Node7&#45;&gt;Node8 -->
<g id="edge2" class="edge">
<title>Node7&#45;&gt;Node8</title>
<path fill="none" stroke="#191970" d="M2325.2791,-233.3612C2576.699,-229.7627 3779.432,-211.3492 3809.5,-188 3826.8284,-174.5437 3829.0626,-146.3351 3828.9487,-131.5322"/>
<polygon fill="#191970" stroke="#191970" points="2324.9894,-229.8648 2315.0403,-233.507 2325.0892,-236.8641 2324.9894,-229.8648"/>
</g>
<!-- Node9 -->
<g id="node4" class="node">
<title>Node9</title>
<g id="a_node4"><a xlink:href="_fixed_gradient_b_c_8_h.html" target="_top" xlink:title="FixedGradientBC.H">
<polygon fill="#ffffff" stroke="#000000" points="3698.5,-168.5 3698.5,-187.5 3800.5,-187.5 3800.5,-168.5 3698.5,-168.5"/>
<text text-anchor="middle" x="3749.5" y="-175.5" font-family="Helvetica,sans-Serif" font-size="10.00" fill="#000000">FixedGradientBC.H</text>
</a>
</g>
</g>
<!-- Node7&#45;&gt;Node9 -->
<g id="edge3" class="edge">
<title>Node7&#45;&gt;Node9</title>
<path fill="none" stroke="#191970" d="M2325.281,-233.3237C2536.201,-230.0827 3415.6664,-215.1654 3689.5,-188 3692.4425,-187.7081 3695.459,-187.3604 3698.4983,-186.9727"/>
<polygon fill="#191970" stroke="#191970" points="2325.122,-229.8257 2315.1766,-233.4779 2325.2288,-236.8248 2325.122,-229.8257"/>
</g>
<!-- Node11 -->
<g id="node6" class="node">
<title>Node11</title>
<g id="a_node6"><a xlink:href="_c_f_d_sim_8_h.html" target="_top" xlink:title="CFDSim.H">
<polygon fill="#ffffff" stroke="#ff0000" points="787,-168.5 787,-187.5 852,-187.5 852,-168.5 787,-168.5"/>
<text text-anchor="middle" x="819.5" y="-175.5" font-family="Helvetica,sans-Serif" font-size="10.00" fill="#000000">CFDSim.H</text>
</a>
</g>
</g>
<!-- Node7&#45;&gt;Node11 -->
<g id="edge6" class="edge">
<title>Node7&#45;&gt;Node11</title>
<path fill="none" stroke="#191970" d="M2233.7317,-232.2445C2010.9156,-223.6981 1042.6899,-186.5607 852.1294,-179.2515"/>
<polygon fill="#191970" stroke="#191970" points="2233.6456,-235.7437 2243.7725,-232.6296 2233.914,-228.7488 2233.6456,-235.7437"/>
</g>
<!-- Node12 -->
<g id="node7" class="node">
<title>Node12</title>
<g id="a_node7"><a xlink:href="incflo_8_h.html" target="_top" xlink:title="incflo.H">
<polygon fill="#ffffff" stroke="#ff0000" points="1311.5,-112.5 1311.5,-131.5 1361.5,-131.5 1361.5,-112.5 1311.5,-112.5"/>
<text text-anchor="middle" x="1336.5" y="-119.5" font-family="Helvetica,sans-Serif" font-size="10.00" fill="#000000">incflo.H</text>
</a>
</g>
</g>
<!-- Node7&#45;&gt;Node12 -->
<g id="edge30" class="edge">
<title>Node7&#45;&gt;Node12</title>
<path fill="none" stroke="#191970" d="M2233.6139,-232.6505C2071.1987,-227.7075 1529.3098,-209.7418 1454.5,-188 1412.8006,-175.881 1369.7465,-146.8104 1349.0724,-131.6175"/>
<polygon fill="#191970" stroke="#191970" points="2233.6529,-236.1531 2243.7542,-232.9571 2233.8646,-229.1563 2233.6529,-236.1531"/>
</g>
<!-- Node74 -->
<g id="node20" class="node">
<title>Node74</title>
<g id="a_node20"><a xlink:href="_p_d_e_base_8cpp.html" target="_top" xlink:title="PDEBase.cpp">
<polygon fill="#ffffff" stroke="#000000" points="0,-112.5 0,-131.5 79,-131.5 79,-112.5 0,-112.5"/>
<text text-anchor="middle" x="39.5" y="-119.5" font-family="Helvetica,sans-Serif" font-size="10.00" fill="#000000">PDEBase.cpp</text>
</a>
</g>
</g>
<!-- Node7&#45;&gt;Node74 -->
<g id="edge60" class="edge">
<title>Node7&#45;&gt;Node74</title>
<path fill="none" stroke="#191970" d="M2233.5335,-233.6429C1921.8346,-231.1483 128.964,-215.615 80.5,-188 58.9349,-175.7121 47.189,-146.9924 42.2877,-131.8095"/>
<polygon fill="#191970" stroke="#191970" points="2233.5488,-237.143 2243.5764,-233.7228 2233.6046,-230.1432 2233.5488,-237.143"/>
</g>
<!-- Node79 -->
<g id="node24" class="node">
<title>Node79</title>
<g id="a_node24"><a xlink:href="_tioga_interface_8cpp.html" target="_top" xlink:title="TiogaInterface.cpp">
<polygon fill="#ffffff" stroke="#000000" points="1195.5,-112.5 1195.5,-131.5 1293.5,-131.5 1293.5,-112.5 1195.5,-112.5"/>
<text text-anchor="middle" x="1244.5" y="-119.5" font-family="Helvetica,sans-Serif" font-size="10.00" fill="#000000">TiogaInterface.cpp</text>
</a>
</g>
</g>
<!-- Node7&#45;&gt;Node79 -->
<g id="edge65" class="edge">
<title>Node7&#45;&gt;Node79</title>
<path fill="none" stroke="#191970" d="M2233.3179,-233.641C2076.2738,-232.0981 1563.7505,-224.333 1403.5,-188 1349.5761,-175.774 1290.5542,-146.7511 1261.9633,-131.5928"/>
<polygon fill="#191970" stroke="#191970" points="2233.5389,-237.1432 2243.5716,-233.7378 2233.6051,-230.1435 2233.5389,-237.1432"/>
</g>
<!-- Node99 -->
<g id="node25" class="node">
<title>Node99</title>
<g id="a_node25"><a xlink:href="_godunov_8_h.html" target="_top" xlink:title="Godunov.H">
<polygon fill="#ffffff" stroke="#ff0000" points="1699.5,-168.5 1699.5,-187.5 1765.5,-187.5 1765.5,-168.5 1699.5,-168.5"/>
<text text-anchor="middle" x="1732.5" y="-175.5" font-family="Helvetica,sans-Serif" font-size="10.00" fill="#000000">Godunov.H</text>
</a>
</g>
</g>
<!-- Node7&#45;&gt;Node99 -->
<g id="edge31" class="edge">
<title>Node7&#45;&gt;Node99</title>
<path fill="none" stroke="#191970" d="M2233.7431,-232.0248C2144.7795,-227.7013 1942.4774,-215.5031 1774.5,-188 1771.6891,-187.5398 1768.7873,-186.9958 1765.8835,-186.4032"/>
<polygon fill="#191970" stroke="#191970" points="2233.6131,-235.5225 2243.7682,-232.5018 2233.9458,-228.5304 2233.6131,-235.5225"/>
</g>
<!-- Node104 -->
<g id="node26" class="node">
<title>Node104</title>
<g id="a_node26"><a xlink:href="mac__projection_8_h.html" target="_top" xlink:title="mac_projection.H">
<polygon fill="#ffffff" stroke="#ff0000" points="1784,-168.5 1784,-187.5 1877,-187.5 1877,-168.5 1784,-168.5"/>
<text text-anchor="middle" x="1830.5" y="-175.5" font-family="Helvetica,sans-Serif" font-size="10.00" fill="#000000">mac_projection.H</text>
</a>
</g>
</g>
<!-- Node7&#45;&gt;Node104 -->
<g id="edge32" class="edge">
<title>Node7&#45;&gt;Node104</title>
<path fill="none" stroke="#191970" d="M2233.6281,-229.5356C2160.1695,-222.1831 2011.6727,-206.4846 1886.5,-188 1883.4713,-187.5527 1880.3549,-187.0672 1877.2165,-186.5591"/>
<polygon fill="#191970" stroke="#191970" points="2233.6125,-233.0513 2243.9101,-230.5592 2234.306,-226.0857 2233.6125,-233.0513"/>
</g>
<!-- Node106 -->
<g id="node27" class="node">
<title>Node106</title>
<g id="a_node27"><a xlink:href="_m_o_l_8_h.html" target="_top" xlink:title="MOL.H">
<polygon fill="#ffffff" stroke="#ff0000" points="1895.5,-168.5 1895.5,-187.5 1943.5,-187.5 1943.5,-168.5 1895.5,-168.5"/>
<text text-anchor="middle" x="1919.5" y="-175.5" font-family="Helvetica,sans-Serif" font-size="10.00" fill="#000000">MOL.H</text>
</a>
</g>
</g>
<!-- Node7&#45;&gt;Node106 -->
<g id="edge33" class="edge">
<title>Node7&#45;&gt;Node106</title>
<path fill="none" stroke="#191970" d="M2233.7583,-229.8182C2170.1651,-223.4949 2051.6717,-209.864 1952.5,-188 1949.577,-187.3556 1946.5369,-186.5814 1943.537,-185.7528"/>
<polygon fill="#191970" stroke="#191970" points="2233.5624,-233.3157 2243.8558,-230.8065 2234.2443,-226.349 2233.5624,-233.3157"/>
</g>
<!-- Node109 -->
<g id="node28" class="node">
<title>Node109</title>
<g id="a_node28"><a xlink:href="_field_8cpp.html" target="_top" xlink:title="Field.cpp">
<polygon fill="#ffffff" stroke="#000000" points="1961.5,-168.5 1961.5,-187.5 2017.5,-187.5 2017.5,-168.5 1961.5,-168.5"/>
<text text-anchor="middle" x="1989.5" y="-175.5" font-family="Helvetica,sans-Serif" font-size="10.00" fill="#000000">Field.cpp</text>
</a>
</g>
</g>
<!-- Node7&#45;&gt;Node109 -->
<g id="edge34" class="edge">
<title>Node7&#45;&gt;Node109</title>
<path fill="none" stroke="#191970" d="M2233.6753,-226.8591C2182.8132,-218.6571 2098.4099,-204.2246 2026.5,-188 2023.644,-187.3556 2020.6767,-186.6373 2017.7208,-185.8896"/>
<polygon fill="#191970" stroke="#191970" points="2233.2671,-230.3383 2243.6948,-228.4641 2234.3744,-223.4264 2233.2671,-230.3383"/>
</g>
<!-- Node110 -->
<g id="node29" class="node">
<title>Node110</title>
<g id="a_node29"><a xlink:href="_field_repo_8cpp.html" target="_top" xlink:title="FieldRepo.cpp">
<polygon fill="#ffffff" stroke="#000000" points="2035.5,-168.5 2035.5,-187.5 2115.5,-187.5 2115.5,-168.5 2035.5,-168.5"/>
<text text-anchor="middle" x="2075.5" y="-175.5" font-family="Helvetica,sans-Serif" font-size="10.00" fill="#000000">FieldRepo.cpp</text>
</a>
</g>
</g>
<!-- Node7&#45;&gt;Node110 -->
<g id="edge35" class="edge">
<title>Node7&#45;&gt;Node110</title>
<path fill="none" stroke="#191970" d="M2234.7653,-221.7199C2197.2545,-211.4228 2144.4579,-196.9296 2110.1112,-187.5011"/>
<polygon fill="#191970" stroke="#191970" points="2233.8613,-225.1012 2244.4311,-224.3733 2235.7144,-218.3509 2233.8613,-225.1012"/>
</g>
<!-- Node111 -->
<g id="node30" class="node">
<title>Node111</title>
<g id="a_node30"><a xlink:href="_int_field_8cpp.html" target="_top" xlink:title="IntField.cpp">
<polygon fill="#ffffff" stroke="#000000" points="2133.5,-168.5 2133.5,-187.5 2201.5,-187.5 2201.5,-168.5 2133.5,-168.5"/>
<text text-anchor="middle" x="2167.5" y="-175.5" font-family="Helvetica,sans-Serif" font-size="10.00" fill="#000000">IntField.cpp</text>
</a>
</g>
</g>
<!-- Node7&#45;&gt;Node111 -->
<g id="edge36" class="edge">
<title>Node7&#45;&gt;Node111</title>
<path fill="none" stroke="#191970" d="M2251.1737,-219.8368C2230.9279,-209.7139 2204.2358,-196.3679 2186.5022,-187.5011"/>
<polygon fill="#191970" stroke="#191970" points="2249.737,-223.0316 2260.2465,-224.3733 2252.8675,-216.7706 2249.737,-223.0316"/>
</g>
<!-- Node7&#45;&gt;Node112 -->
<g id="edge37" class="edge">
<title>Node7&#45;&gt;Node112</title>
<path fill="none" stroke="#191970" d="M2325.4381,-233.5074C2550.3474,-230.9641 3536.8462,-218.2537 3842.5,-188 3847.049,-187.5497 3851.7772,-186.9588 3856.4886,-186.289"/>
<polygon fill="#191970" stroke="#191970" points="2325.2696,-230.0089 2315.3095,-233.6208 2325.3481,-237.0085 2325.2696,-230.0089"/>
</g>
<!-- Node113 -->
<g id="node32" class="node">
<title>Node113</title>
<g id="a_node32"><a xlink:href="compute__curvature_8cpp.html" target="_top" xlink:title="compute_curvature.cpp">
<polygon fill="#ffffff" stroke="#000000" points="2220,-168.5 2220,-187.5 2339,-187.5 2339,-168.5 2220,-168.5"/>
<text text-anchor="middle" x="2279.5" y="-175.5" font-family="Helvetica,sans-Serif" font-size="10.00" fill="#000000">compute_curvature.cpp</text>
</a>
</g>
</g>
<!-- Node7&#45;&gt;Node113 -->
<g id="edge38" class="edge">
<title>Node7&#45;&gt;Node113</title>
<path fill="none" stroke="#191970" d="M2279.5,-214.1575C2279.5,-205.155 2279.5,-194.9199 2279.5,-187.6427"/>
<polygon fill="#191970" stroke="#191970" points="2276.0001,-214.2455 2279.5,-224.2455 2283.0001,-214.2456 2276.0001,-214.2455"/>
</g>
<!-- Node114 -->
<g id="node33" class="node">
<title>Node114</title>
<g id="a_node33"><a xlink:href="compute__gradient_8cpp.html" target="_top" xlink:title="compute_gradient.cpp">
<polygon fill="#ffffff" stroke="#000000" points="2357,-168.5 2357,-187.5 2470,-187.5 2470,-168.5 2357,-168.5"/>
<text text-anchor="middle" x="2413.5" y="-175.5" font-family="Helvetica,sans-Serif" font-size="10.00" fill="#000000">compute_gradient.cpp</text>
</a>
</g>
</g>
<!-- Node7&#45;&gt;Node114 -->
<g id="edge39" class="edge">
<title>Node7&#45;&gt;Node114</title>
<path fill="none" stroke="#191970" d="M2312.0828,-220.3833C2336.4536,-210.1985 2369.1642,-196.5284 2390.7652,-187.5011"/>
<polygon fill="#191970" stroke="#191970" points="2310.4125,-217.2879 2302.5354,-224.3733 2313.1117,-223.7466 2310.4125,-217.2879"/>
</g>
<!-- Node115 -->
<g id="node34" class="node">
<title>Node115</title>
<g id="a_node34"><a xlink:href="compute__laplacian_8cpp.html" target="_top" xlink:title="compute_laplacian.cpp">
<polygon fill="#ffffff" stroke="#000000" points="2488.5,-168.5 2488.5,-187.5 2604.5,-187.5 2604.5,-168.5 2488.5,-168.5"/>
<text text-anchor="middle" x="2546.5" y="-175.5" font-family="Helvetica,sans-Serif" font-size="10.00" fill="#000000">compute_laplacian.cpp</text>
</a>
</g>
</g>
<!-- Node7&#45;&gt;Node115 -->
<g id="edge40" class="edge">
<title>Node7&#45;&gt;Node115</title>
<path fill="none" stroke="#191970" d="M2325.274,-224.3995C2374.459,-214.0835 2452.1515,-197.7885 2501.1658,-187.5083"/>
<polygon fill="#191970" stroke="#191970" points="2324.3003,-221.0274 2315.2318,-226.5057 2325.7373,-227.8784 2324.3003,-221.0274"/>
</g>
<!-- Node116 -->
<g id="node35" class="node">
<title>Node116</title>
<g id="a_node35"><a xlink:href="compute__strainrate_8cpp.html" target="_top" xlink:title="compute_strainrate.cpp">
<polygon fill="#ffffff" stroke="#000000" points="2623,-168.5 2623,-187.5 2742,-187.5 2742,-168.5 2623,-168.5"/>
<text text-anchor="middle" x="2682.5" y="-175.5" font-family="Helvetica,sans-Serif" font-size="10.00" fill="#000000">compute_strainrate.cpp</text>
</a>
</g>
</g>
<!-- Node7&#45;&gt;Node116 -->
<g id="edge41" class="edge">
<title>Node7&#45;&gt;Node116</title>
<path fill="none" stroke="#191970" d="M2325.3145,-227.7944C2389.6865,-219.0515 2510.5603,-202.5479 2613.5,-188 2616.4963,-187.5765 2619.5654,-187.1404 2622.6646,-186.6982"/>
<polygon fill="#191970" stroke="#191970" points="2324.5402,-224.3674 2315.1019,-229.1808 2325.4818,-231.3038 2324.5402,-224.3674"/>
</g>
<!-- Node117 -->
<g id="node36" class="node">
<title>Node117</title>
<g id="a_node36"><a xlink:href="field__algebra_8cpp.html" target="_top" xlink:title="field_algebra.cpp">
<polygon fill="#ffffff" stroke="#000000" points="2760.5,-168.5 2760.5,-187.5 2850.5,-187.5 2850.5,-168.5 2760.5,-168.5"/>
<text text-anchor="middle" x="2805.5" y="-175.5" font-family="Helvetica,sans-Serif" font-size="10.00" fill="#000000">field_algebra.cpp</text>
</a>
</g>
</g>
<!-- Node7&#45;&gt;Node117 -->
<g id="edge42" class="edge">
<title>Node7&#45;&gt;Node117</title>
<path fill="none" stroke="#191970" d="M2325.0725,-230.8057C2409.328,-224.6211 2595.0533,-209.6847 2750.5,-188 2753.672,-187.5575 2756.9401,-187.0629 2760.2269,-186.537"/>
<polygon fill="#191970" stroke="#191970" points="2324.7886,-227.317 2315.069,-231.5337 2325.2967,-234.2985 2324.7886,-227.317"/>
</g>
<!-- Node118 -->
<g id="node37" class="node">
<title>Node118</title>
<g id="a_node37"><a xlink:href="diffusion_8_h.html" target="_top" xlink:title="diffusion.H">
<polygon fill="#ffffff" stroke="#ff0000" points="2868.5,-168.5 2868.5,-187.5 2932.5,-187.5 2932.5,-168.5 2868.5,-168.5"/>
<text text-anchor="middle" x="2900.5" y="-175.5" font-family="Helvetica,sans-Serif" font-size="10.00" fill="#000000">diffusion.H</text>
</a>
</g>
</g>
<!-- Node7&#45;&gt;Node118 -->
<g id="edge43" class="edge">
<title>Node7&#45;&gt;Node118</title>
<path fill="none" stroke="#191970" d="M2325.2241,-232.859C2423.5608,-229.8618 2662.2342,-219.6704 2859.5,-188 2862.3936,-187.5354 2865.384,-186.9719 2868.3702,-186.3517"/>
<polygon fill="#191970" stroke="#191970" points="2324.9352,-229.3659 2315.0425,-233.1587 2325.1412,-236.3629 2324.9352,-229.3659"/>
</g>
<!-- Node119 -->
<g id="node38" class="node">
<title>Node119</title>
<g id="a_node38"><a xlink:href="_source_term_8_h.html" target="_top" xlink:title="SourceTerm.H">
<polygon fill="#ffffff" stroke="#ff0000" points="2950.5,-168.5 2950.5,-187.5 3030.5,-187.5 3030.5,-168.5 2950.5,-168.5"/>
<text text-anchor="middle" x="2990.5" y="-175.5" font-family="Helvetica,sans-Serif" font-size="10.00" fill="#000000">SourceTerm.H</text>
</a>
</g>
</g>
<!-- Node7&#45;&gt;Node119 -->
<g id="edge44" class="edge">
<title>Node7&#45;&gt;Node119</title>
<path fill="none" stroke="#191970" d="M2325.3978,-232.894C2433.3182,-229.8401 2711.4352,-219.3299 2941.5,-188 2944.425,-187.6017 2947.4373,-187.1328 2950.4623,-186.6191"/>
<polygon fill="#191970" stroke="#191970" points="2325.0908,-229.401 2315.1909,-233.1747 2325.2834,-236.3983 2325.0908,-229.401"/>
</g>
<!-- Node121 -->
<g id="node39" class="node">
<title>Node121</title>
<g id="a_node39"><a xlink:href="_p_d_e_helpers_8_h.html" target="_top" xlink:title="PDEHelpers.H">
<polygon fill="#ffffff" stroke="#ff0000" points="89.5,-168.5 89.5,-187.5 171.5,-187.5 171.5,-168.5 89.5,-168.5"/>
<text text-anchor="middle" x="130.5" y="-175.5" font-family="Helvetica,sans-Serif" font-size="10.00" fill="#000000">PDEHelpers.H</text>
</a>
</g>
</g>
<!-- Node7&#45;&gt;Node121 -->
<g id="edge45" class="edge">
<title>Node7&#45;&gt;Node121</title>
<path fill="none" stroke="#191970" d="M2233.6783,-232.8059C1950.3838,-225.4237 440.7405,-186.0844 171.575,-179.0704"/>
<polygon fill="#191970" stroke="#191970" points="2233.9052,-236.313 2243.9931,-233.0747 2234.0877,-229.3153 2233.9052,-236.313"/>
</g>
<!-- Node122 -->
<g id="node40" class="node">
<title>Node122</title>
<g id="a_node40"><a xlink:href="_density_source_8_h.html" target="_top" xlink:title="DensitySource.H">
<polygon fill="#ffffff" stroke="#ff0000" points="3048.5,-168.5 3048.5,-187.5 3140.5,-187.5 3140.5,-168.5 3048.5,-168.5"/>
<text text-anchor="middle" x="3094.5" y="-175.5" font-family="Helvetica,sans-Serif" font-size="10.00" fill="#000000">DensitySource.H</text>
</a>
</g>
</g>
<!-- Node7&#45;&gt;Node122 -->
<g id="edge48" class="edge">
<title>Node7&#45;&gt;Node122</title>
<path fill="none" stroke="#191970" d="M2325.4116,-233.1296C2443.9943,-230.4686 2770.074,-220.529 3039.5,-188 3042.3906,-187.651 3045.3589,-187.2465 3048.3472,-186.8042"/>
<polygon fill="#191970" stroke="#191970" points="2325.1704,-229.634 2315.2491,-233.3511 2325.323,-236.6323 2325.1704,-229.634"/>
</g>
<!-- Node123 -->
<g id="node41" class="node">
<title>Node123</title>
<g id="a_node41"><a xlink:href="_momentum_source_8_h.html" target="_top" xlink:title="MomentumSource.H">
<polygon fill="#ffffff" stroke="#ff0000" points="1498,-168.5 1498,-187.5 1605,-187.5 1605,-168.5 1498,-168.5"/>
<text text-anchor="middle" x="1551.5" y="-175.5" font-family="Helvetica,sans-Serif" font-size="10.00" fill="#000000">MomentumSource.H</text>
</a>
</g>
</g>
<!-- Node7&#45;&gt;Node123 -->
<g id="edge49" class="edge">
<title>Node7&#45;&gt;Node123</title>
<path fill="none" stroke="#191970" d="M2233.4589,-232.004C2125.8124,-227.0727 1849.3701,-212.8761 1619.5,-188 1614.8733,-187.4993 1610.0782,-186.9191 1605.2732,-186.2952"/>
<polygon fill="#191970" stroke="#191970" points="2233.4949,-235.5092 2243.6432,-232.4659 2233.8121,-228.5164 2233.4949,-235.5092"/>
</g>
<!-- Node126 -->
<g id="node42" class="node">
<title>Node126</title>
<g id="a_node42"><a xlink:href="_boussinesq_buoyancy_8_h.html" target="_top" xlink:title="BoussinesqBuoyancy.H">
<polygon fill="#ffffff" stroke="#000000" points="1501.5,-112.5 1501.5,-131.5 1623.5,-131.5 1623.5,-112.5 1501.5,-112.5"/>
<text text-anchor="middle" x="1562.5" y="-119.5" font-family="Helvetica,sans-Serif" font-size="10.00" fill="#000000">BoussinesqBuoyancy.H</text>
</a>
</g>
</g>
<!-- Node7&#45;&gt;Node126 -->
<g id="edge57" class="edge">
<title>Node7&#45;&gt;Node126</title>
<path fill="none" stroke="#191970" d="M2233.4528,-233.0485C2068.31,-229.4149 1514.1917,-215.2292 1488.5,-188 1468.18,-166.4639 1508.5698,-144.0735 1537.2633,-131.6985"/>
<polygon fill="#191970" stroke="#191970" points="2233.6844,-236.5542 2243.7582,-233.2726 2233.8367,-229.5559 2233.6844,-236.5542"/>
</g>
<!-- Node127 -->
<g id="node43" class="node">
<title>Node127</title>
<g id="a_node43"><a xlink:href="_coriolis_forcing_8_h.html" target="_top" xlink:title="CoriolisForcing.H">
<polygon fill="#ffffff" stroke="#000000" points="1641.5,-112.5 1641.5,-131.5 1733.5,-131.5 1733.5,-112.5 1641.5,-112.5"/>
<text text-anchor="middle" x="1687.5" y="-119.5" font-family="Helvetica,sans-Serif" font-size="10.00" fill="#000000">CoriolisForcing.H</text>
</a>
</g>
</g>
<!-- Node7&#45;&gt;Node127 -->
<g id="edge58" class="edge">
<title>Node7&#45;&gt;Node127</title>
<path fill="none" stroke="#191970" d="M2233.6469,-232.1662C2096.745,-226.4713 1699.2572,-208.2529 1680.5,-188 1666.4068,-172.783 1675.5928,-146.3355 1682.2892,-131.9735"/>
<polygon fill="#191970" stroke="#191970" points="2233.6689,-235.67 2243.8048,-232.5856 2233.9577,-228.6759 2233.6689,-235.67"/>
</g>
<!-- Node128 -->
<g id="node44" class="node">
<title>Node128</title>
<g id="a_node44"><a xlink:href="_density_buoyancy_8_h.html" target="_top" xlink:title="DensityBuoyancy.H">
<polygon fill="#ffffff" stroke="#000000" points="1379.5,-112.5 1379.5,-131.5 1483.5,-131.5 1483.5,-112.5 1379.5,-112.5"/>
<text text-anchor="middle" x="1431.5" y="-119.5" font-family="Helvetica,sans-Serif" font-size="10.00" fill="#000000">DensityBuoyancy.H</text>
</a>
</g>
</g>
<!-- Node7&#45;&gt;Node128 -->
<g id="edge59" class="edge">
<title>Node7&#45;&gt;Node128</title>
<path fill="none" stroke="#191970" d="M2233.4962,-233.6348C2073.2397,-232.0519 1545.6638,-224.1213 1479.5,-188 1456.6184,-175.5081 1441.8322,-146.8776 1435.325,-131.7611"/>
<polygon fill="#191970" stroke="#191970" points="2233.4791,-237.1347 2243.512,-233.7301 2233.5458,-230.135 2233.4791,-237.1347"/>
</g>
<!-- Node130 -->
<g id="node45" class="node">
<title>Node130</title>
<g id="a_node45"><a xlink:href="_m_m_s_forcing_8_h.html" target="_top" xlink:title="MMSForcing.H">
<polygon fill="#ffffff" stroke="#ff0000" points="1752,-112.5 1752,-131.5 1835,-131.5 1835,-112.5 1752,-112.5"/>
<text text-anchor="middle" x="1793.5" y="-119.5" font-family="Helvetica,sans-Serif" font-size="10.00" fill="#000000">MMSForcing.H</text>
</a>
</g>
</g>
<!-- Node7&#45;&gt;Node130 -->
<g id="edge64" class="edge">
<title>Node7&#45;&gt;Node130</title>
<path fill="none" stroke="#191970" d="M2233.9457,-232.1171C2098.8931,-226.3168 1708.9118,-207.9058 1690.5,-188 1666.8494,-162.4303 1715.7723,-142.5353 1753.9902,-131.5382"/>
<polygon fill="#191970" stroke="#191970" points="2233.8307,-235.6153 2243.9707,-232.5446 2234.129,-228.6216 2233.8307,-235.6153"/>
</g>
<!-- Node131 -->
<g id="node46" class="node">
<title>Node131</title>
<g id="a_node46"><a xlink:href="_s_d_r_source_8_h.html" target="_top" xlink:title="SDRSource.H">
<polygon fill="#ffffff" stroke="#ff0000" points="3158.5,-168.5 3158.5,-187.5 3238.5,-187.5 3238.5,-168.5 3158.5,-168.5"/>
<text text-anchor="middle" x="3198.5" y="-175.5" font-family="Helvetica,sans-Serif" font-size="10.00" fill="#000000">SDRSource.H</text>
</a>
</g>
</g>
<!-- Node7&#45;&gt;Node131 -->
<g id="edge61" class="edge">
<title>Node7&#45;&gt;Node131</title>
<path fill="none" stroke="#191970" d="M2325.164,-232.4827C2480.4777,-227.1816 2987.6204,-208.6816 3149.5,-188 3152.4282,-187.6259 3155.4429,-187.1748 3158.4695,-186.6737"/>
<polygon fill="#191970" stroke="#191970" points="2324.8991,-228.9896 2315.0237,-232.8271 2325.1368,-235.9856 2324.8991,-228.9896"/>
</g>
<!-- Node132 -->
<g id="node47" class="node">
<title>Node132</title>
<g id="a_node47"><a xlink:href="_temperature_source_8_h.html" target="_top" xlink:title="TemperatureSource.H">
<polygon fill="#ffffff" stroke="#ff0000" points="3257,-168.5 3257,-187.5 3370,-187.5 3370,-168.5 3257,-168.5"/>
<text text-anchor="middle" x="3313.5" y="-175.5" font-family="Helvetica,sans-Serif" font-size="10.00" fill="#000000">TemperatureSource.H</text>
</a>
</g>
</g>
<!-- Node7&#45;&gt;Node132 -->
<g id="edge62" class="edge">
<title>Node7&#45;&gt;Node132</title>
<path fill="none" stroke="#191970" d="M2325.4804,-233.4924C2464.707,-231.5958 2893.8255,-223.103 3247.5,-188 3250.4984,-187.7024 3253.5686,-187.3621 3256.665,-186.9908"/>
<polygon fill="#191970" stroke="#191970" points="2325.1488,-229.9964 2315.1957,-233.6276 2325.2409,-236.9958 2325.1488,-229.9964"/>
</g>
<!-- Node133 -->
<g id="node48" class="node">
<title>Node133</title>
<g id="a_node48"><a xlink:href="_t_k_e_source_8_h.html" target="_top" xlink:title="TKESource.H">
<polygon fill="#ffffff" stroke="#ff0000" points="3388,-168.5 3388,-187.5 3465,-187.5 3465,-168.5 3388,-168.5"/>
<text text-anchor="middle" x="3426.5" y="-175.5" font-family="Helvetica,sans-Serif" font-size="10.00" fill="#000000">TKESource.H</text>
</a>
</g>
</g>
<!-- Node7&#45;&gt;Node133 -->
<g id="edge63" class="edge">
<title>Node7&#45;&gt;Node133</title>
<path fill="none" stroke="#191970" d="M2325.2578,-232.5409C2519.9084,-226.272 3273.9452,-201.3404 3379.5,-188 3382.2313,-187.6548 3385.0394,-187.2325 3387.8591,-186.7586"/>
<polygon fill="#191970" stroke="#191970" points="2324.9717,-229.0482 2315.0894,-232.8677 2325.1967,-236.0445 2324.9717,-229.0482"/>
</g>
<!-- Node136 -->
<g id="node49" class="node">
<title>Node136</title>
<g id="a_node49"><a xlink:href="_transport_model_8_h.html" target="_top" xlink:title="TransportModel.H">
<polygon fill="#ffffff" stroke="#ff0000" points="3483,-168.5 3483,-187.5 3578,-187.5 3578,-168.5 3483,-168.5"/>
<text text-anchor="middle" x="3530.5" y="-175.5" font-family="Helvetica,sans-Serif" font-size="10.00" fill="#000000">TransportModel.H</text>
</a>
</g>
</g>
<!-- Node7&#45;&gt;Node136 -->
<g id="edge66" class="edge">
<title>Node7&#45;&gt;Node136</title>
<path fill="none" stroke="#191970" d="M2325.5103,-233.0806C2516.2539,-229.1376 3245.5752,-212.7259 3474.5,-188 3477.2493,-187.7031 3480.0671,-187.3514 3482.9055,-186.9607"/>
<polygon fill="#191970" stroke="#191970" points="2325.2024,-229.5861 2315.2765,-233.2909 2325.3463,-236.5846 2325.2024,-229.5861"/>
</g>
<!-- Node91 -->
<g id="node50" class="node">
<title>Node91</title>
<g id="a_node50"><a xlink:href="_smagorinsky_8_h.html" target="_top" xlink:title="Smagorinsky.H">
<polygon fill="#ffffff" stroke="#ff0000" points="3596.5,-168.5 3596.5,-187.5 3680.5,-187.5 3680.5,-168.5 3596.5,-168.5"/>
<text text-anchor="middle" x="3638.5" y="-175.5" font-family="Helvetica,sans-Serif" font-size="10.00" fill="#000000">Smagorinsky.H</text>
</a>
</g>
</g>
<!-- Node7&#45;&gt;Node91 -->
<g id="edge67" class="edge">
<title>Node7&#45;&gt;Node91</title>
<path fill="none" stroke="#191970" d="M2325.5233,-233.3606C2527.3586,-230.4058 3335.3744,-216.9666 3587.5,-188 3590.3684,-187.6704 3593.3166,-187.267 3596.2798,-186.8134"/>
<polygon fill="#191970" stroke="#191970" points="2325.2262,-229.8644 2315.278,-233.5092 2325.3278,-236.8637 2325.2262,-229.8644"/>
</g>
<!-- Node9&#45;&gt;Node8 -->
<g id="edge4" class="edge">
<title>Node9&#45;&gt;Node8</title>
<path fill="none" stroke="#191970" d="M3771.7756,-162.2097C3785.6505,-152.3743 3803.0515,-140.0394 3814.8969,-131.6427"/>
<polygon fill="#191970" stroke="#191970" points="3769.3949,-159.6071 3763.2607,-168.2455 3773.4431,-165.3178 3769.3949,-159.6071"/>
</g>
<!-- Node10 -->
<g id="node5" class="node">
<title>Node10</title>
<g id="a_node5"><a xlink:href="_fixed_gradient_b_c_8cpp.html" target="_top" xlink:title="FixedGradientBC.cpp">
<polygon fill="#ffffff" stroke="#000000" points="3656.5,-112.5 3656.5,-131.5 3766.5,-131.5 3766.5,-112.5 3656.5,-112.5"/>
<text text-anchor="middle" x="3711.5" y="-119.5" font-family="Helvetica,sans-Serif" font-size="10.00" fill="#000000">FixedGradientBC.cpp</text>
</a>
</g>
</g>
<!-- Node9&#45;&gt;Node10 -->
<g id="edge5" class="edge">
<title>Node9&#45;&gt;Node10</title>
<path fill="none" stroke="#191970" d="M3737.2321,-159.9209C3730.8512,-150.5176 3723.3069,-139.3997 3718.0432,-131.6427"/>
<polygon fill="#191970" stroke="#191970" points="3734.3697,-161.936 3742.8809,-168.2455 3740.162,-158.0055 3734.3697,-161.936"/>
</g>
<!-- Node11&#45;&gt;Node12 -->
<g id="edge7" class="edge">
<title>Node11&#45;&gt;Node12</title>
<path fill="none" stroke="#191970" d="M862.0204,-176.677C946.6146,-173.4469 1141.7188,-163.0051 1302.5,-132 1305.3999,-131.4408 1308.4077,-130.7397 1311.3809,-129.9696"/>
<polygon fill="#191970" stroke="#191970" points="861.8872,-173.1794 852.0226,-177.0445 862.1445,-180.1747 861.8872,-173.1794"/>
</g>
<!-- Node32 -->
<g id="node8" class="node">
<title>Node32</title>
<g id="a_node8"><a xlink:href="_c_f_d_sim_8cpp.html" target="_top" xlink:title="CFDSim.cpp">
<polygon fill="#ffffff" stroke="#000000" points="847.5,-112.5 847.5,-131.5 921.5,-131.5 921.5,-112.5 847.5,-112.5"/>
<text text-anchor="middle" x="884.5" y="-119.5" font-family="Helvetica,sans-Serif" font-size="10.00" fill="#000000">CFDSim.cpp</text>
</a>
</g>
</g>
<!-- Node11&#45;&gt;Node32 -->
<g id="edge8" class="edge">
<title>Node11&#45;&gt;Node32</title>
<path fill="none" stroke="#191970" d="M838.4835,-161.645C849.7879,-151.9058 863.747,-139.8795 873.3076,-131.6427"/>
<polygon fill="#191970" stroke="#191970" points="836.1138,-159.0668 830.8221,-168.2455 840.6827,-164.3701 836.1138,-159.0668"/>
</g>
<!-- Node33 -->
<g id="node9" class="node">
<title>Node33</title>
<g id="a_node9"><a xlink:href="_p_d_e_ops_8_h.html" target="_top" xlink:title="PDEOps.H">
<polygon fill="#ffffff" stroke="#ff0000" points="97.5,-112.5 97.5,-131.5 163.5,-131.5 163.5,-112.5 97.5,-112.5"/>
<text text-anchor="middle" x="130.5" y="-119.5" font-family="Helvetica,sans-Serif" font-size="10.00" fill="#000000">PDEOps.H</text>
</a>
</g>
</g>
<!-- Node11&#45;&gt;Node33 -->
<g id="edge9" class="edge">
<title>Node11&#45;&gt;Node33</title>
<path fill="none" stroke="#191970" d="M776.8956,-176.9794C673.6142,-174.0641 401.8654,-163.7517 177.5,-132 172.957,-131.3571 168.1966,-130.5288 163.522,-129.6246"/>
<polygon fill="#191970" stroke="#191970" points="776.8397,-180.479 786.9318,-177.2541 777.0314,-173.4817 776.8397,-180.479"/>
</g>
<!-- Node46 -->
<g id="node10" class="node">
<title>Node46</title>
<g id="a_node10"><a xlink:href="_p_d_e_8_h.html" target="_top" xlink:title="PDE.H">
<polygon fill="#ffffff" stroke="#ff0000" points="137.5,-56.5 137.5,-75.5 185.5,-75.5 185.5,-56.5 137.5,-56.5"/>
<text text-anchor="middle" x="161.5" y="-63.5" font-family="Helvetica,sans-Serif" font-size="10.00" fill="#000000">PDE.H</text>
</a>
</g>
</g>
<!-- Node11&#45;&gt;Node46 -->
<g id="edge11" class="edge">
<title>Node11&#45;&gt;Node46</title>
<path fill="none" stroke="#191970" d="M776.5962,-176.8102C646.0908,-172.9082 259.7801,-159.164 210.5,-132 187.5036,-119.324 172.251,-90.7741 165.4905,-75.7174"/>
<polygon fill="#191970" stroke="#191970" points="776.8843,-180.3201 786.983,-177.1161 777.0904,-173.3232 776.8843,-180.3201"/>
</g>
<!-- Node57 -->
<g id="node11" class="node">
<title>Node57</title>
<g id="a_node11"><a xlink:href="_a_b_l_forcing_8cpp.html" target="_top" xlink:title="ABLForcing.cpp">
<polygon fill="#ffffff" stroke="#000000" points="939.5,-112.5 939.5,-131.5 1025.5,-131.5 1025.5,-112.5 939.5,-112.5"/>
<text text-anchor="middle" x="982.5" y="-119.5" font-family="Helvetica,sans-Serif" font-size="10.00" fill="#000000">ABLForcing.cpp</text>
</a>
</g>
</g>
<!-- Node11&#45;&gt;Node57 -->
<g id="edge12" class="edge">
<title>Node11&#45;&gt;Node57</title>
<path fill="none" stroke="#191970" d="M857.1733,-165.057C887.0042,-154.8084 927.9852,-140.729 954.8449,-131.5011"/>
<polygon fill="#191970" stroke="#191970" points="855.8409,-161.8139 847.5207,-168.3733 858.1154,-168.4341 855.8409,-161.8139"/>
</g>
<!-- Node58 -->
<g id="node12" class="node">
<title>Node58</title>
<g id="a_node12"><a xlink:href="_a_b_l_wall_function_8_h.html" target="_top" xlink:title="ABLWallFunction.H">
<polygon fill="#ffffff" stroke="#ff0000" points="704,-56.5 704,-75.5 807,-75.5 807,-56.5 704,-56.5"/>
<text text-anchor="middle" x="755.5" y="-63.5" font-family="Helvetica,sans-Serif" font-size="10.00" fill="#000000">ABLWallFunction.H</text>
</a>
</g>
</g>
<!-- Node11&#45;&gt;Node58 -->
<g id="edge13" class="edge">
<title>Node11&#45;&gt;Node58</title>
<path fill="none" stroke="#191970" d="M816.4519,-158.2366C813.7299,-144.5656 808.8446,-126.3287 800.5,-112 792.0666,-97.5187 778.0665,-84.2149 767.9187,-75.6804"/>
<polygon fill="#191970" stroke="#191970" points="813.0716,-159.2218 818.258,-168.4604 819.9649,-158.004 813.0716,-159.2218"/>
</g>
<!-- Node61 -->
<g id="node13" class="node">
<title>Node61</title>
<g id="a_node13"><a xlink:href="_a_b_l_stats_8_h.html" target="_top" xlink:title="ABLStats.H">
<polygon fill="#ffffff" stroke="#ff0000" points="721,-.5 721,-19.5 790,-19.5 790,-.5 721,-.5"/>
<text text-anchor="middle" x="755.5" y="-7.5" font-family="Helvetica,sans-Serif" font-size="10.00" fill="#000000">ABLStats.H</text>
</a>
</g>
</g>
<!-- Node11&#45;&gt;Node61 -->
<g id="edge18" class="edge">
<title>Node11&#45;&gt;Node61</title>
<path fill="none" stroke="#191970" d="M862.2332,-175.0649C918.6274,-170.1997 1013.26,-158.265 1034.5,-132 1040.0893,-125.0883 1039.5932,-119.285 1034.5,-112 1005.6141,-70.6837 858.1355,-32.9857 790.0422,-17.4751"/>
<polygon fill="#191970" stroke="#191970" points="861.8536,-171.5842 852.1745,-175.893 862.4279,-178.5606 861.8536,-171.5842"/>
</g>
<!-- Node64 -->
<g id="node14" class="node">
<title>Node64</title>
<g id="a_node14"><a xlink:href="_field_plane_averaging_8_h.html" target="_top" xlink:title="FieldPlaneAveraging.H">
<polygon fill="#ffffff" stroke="#ff0000" points="427.5,-112.5 427.5,-131.5 543.5,-131.5 543.5,-112.5 427.5,-112.5"/>
<text text-anchor="middle" x="485.5" y="-119.5" font-family="Helvetica,sans-Serif" font-size="10.00" fill="#000000">FieldPlaneAveraging.H</text>
</a>
</g>
</g>
<!-- Node11&#45;&gt;Node64 -->
<g id="edge15" class="edge">
<title>Node11&#45;&gt;Node64</title>
<path fill="none" stroke="#191970" d="M776.6653,-170.8181C717.0052,-160.8152 608.7652,-142.6672 542.3899,-131.5384"/>
<polygon fill="#191970" stroke="#191970" points="776.4254,-174.3267 786.8665,-172.5285 777.583,-167.4231 776.4254,-174.3267"/>
</g>
<!-- Node69 -->
<g id="node15" class="node">
<title>Node69</title>
<g id="a_node15"><a xlink:href="_body_force_8cpp.html" target="_top" xlink:title="BodyForce.cpp">
<polygon fill="#ffffff" stroke="#000000" points="220,-112.5 220,-131.5 303,-131.5 303,-112.5 220,-112.5"/>
<text text-anchor="middle" x="261.5" y="-119.5" font-family="Helvetica,sans-Serif" font-size="10.00" fill="#000000">BodyForce.cpp</text>
</a>
</g>
</g>
<!-- Node11&#45;&gt;Node69 -->
<g id="edge19" class="edge">
<title>Node11&#45;&gt;Node69</title>
<path fill="none" stroke="#191970" d="M776.6623,-175.6097C689.133,-170.3965 483.5916,-156.4687 312.5,-132 309.4632,-131.5657 306.3334,-131.0703 303.1889,-130.5378"/>
<polygon fill="#191970" stroke="#191970" points="776.5531,-179.1092 786.7413,-176.2024 776.964,-172.1213 776.5531,-179.1092"/>
</g>
<!-- Node70 -->
<g id="node16" class="node">
<title>Node70</title>
<g id="a_node16"><a xlink:href="_boussinesq_buoyancy_8cpp.html" target="_top" xlink:title="BoussinesqBuoyancy.cpp">
<polygon fill="#ffffff" stroke="#000000" points="1419.5,-56.5 1419.5,-75.5 1549.5,-75.5 1549.5,-56.5 1419.5,-56.5"/>
<text text-anchor="middle" x="1484.5" y="-63.5" font-family="Helvetica,sans-Serif" font-size="10.00" fill="#000000">BoussinesqBuoyancy.cpp</text>
</a>
</g>
</g>
<!-- Node11&#45;&gt;Node70 -->
<g id="edge20" class="edge">
<title>Node11&#45;&gt;Node70</title>
<path fill="none" stroke="#191970" d="M862.2117,-174.295C918.7165,-168.68 1021.0275,-156.0284 1105.5,-132 1127.7293,-125.6768 1131.2044,-118.0851 1153.5,-112 1243.8921,-87.3294 1351.9674,-75.4789 1419.44,-70.0916"/>
<polygon fill="#191970" stroke="#191970" points="861.8252,-170.816 852.2088,-175.2628 862.4993,-177.7835 861.8252,-170.816"/>
</g>
<!-- Node71 -->
<g id="node17" class="node">
<title>Node71</title>
<g id="a_node17"><a xlink:href="_coriolis_forcing_8cpp.html" target="_top" xlink:title="CoriolisForcing.cpp">
<polygon fill="#ffffff" stroke="#000000" points="1602,-56.5 1602,-75.5 1703,-75.5 1703,-56.5 1602,-56.5"/>
<text text-anchor="middle" x="1652.5" y="-63.5" font-family="Helvetica,sans-Serif" font-size="10.00" fill="#000000">CoriolisForcing.cpp</text>
</a>
</g>
</g>
<!-- Node11&#45;&gt;Node71 -->
<g id="edge21" class="edge">
<title>Node11&#45;&gt;Node71</title>
<path fill="none" stroke="#191970" d="M862.6976,-175.904C925.6257,-171.952 1045.6649,-161.0028 1143.5,-132 1163.7079,-126.0094 1166.1636,-117.5389 1186.5,-112 1346.7676,-68.3489 1393.2446,-92.786 1558.5,-76 1572.5417,-74.5737 1587.7574,-72.9772 1601.7736,-71.4857"/>
<polygon fill="#191970" stroke="#191970" points="862.1382,-172.4311 852.3649,-176.5218 862.556,-179.4187 862.1382,-172.4311"/>
</g>
<!-- Node72 -->
<g id="node18" class="node">
<title>Node72</title>
<g id="a_node18"><a xlink:href="_density_buoyancy_8cpp.html" target="_top" xlink:title="DensityBuoyancy.cpp">
<polygon fill="#ffffff" stroke="#000000" points="1219,-56.5 1219,-75.5 1332,-75.5 1332,-56.5 1219,-56.5"/>
<text text-anchor="middle" x="1275.5" y="-63.5" font-family="Helvetica,sans-Serif" font-size="10.00" fill="#000000">DensityBuoyancy.cpp</text>
</a>
</g>
</g>
<!-- Node11&#45;&gt;Node72 -->
<g id="edge22" class="edge">
<title>Node11&#45;&gt;Node72</title>
<path fill="none" stroke="#191970" d="M862.2285,-172.8706C912.1695,-166.2368 996.9661,-152.9787 1067.5,-132 1089.6521,-125.4114 1093.6917,-119.6499 1115.5,-112 1156.6833,-97.5537 1204.9496,-84.1454 1237.615,-75.5767"/>
<polygon fill="#191970" stroke="#191970" points="861.5832,-169.4249 852.1184,-174.186 862.4864,-176.3664 861.5832,-169.4249"/>
</g>
<!-- Node73 -->
<g id="node19" class="node">
<title>Node73</title>
<g id="a_node19"><a xlink:href="_geostrophic_forcing_8cpp.html" target="_top" xlink:title="GeostrophicForcing.cpp">
<polygon fill="#ffffff" stroke="#000000" points="561.5,-112.5 561.5,-131.5 681.5,-131.5 681.5,-112.5 561.5,-112.5"/>
<text text-anchor="middle" x="621.5" y="-119.5" font-family="Helvetica,sans-Serif" font-size="10.00" fill="#000000">GeostrophicForcing.cpp</text>
</a>
</g>
</g>
<!-- Node11&#45;&gt;Node73 -->
<g id="edge23" class="edge">
<title>Node11&#45;&gt;Node73</title>
<path fill="none" stroke="#191970" d="M776.9697,-165.9712C740.5639,-155.6746 688.8512,-141.0488 655.2387,-131.5423"/>
<polygon fill="#191970" stroke="#191970" points="776.2292,-169.399 786.8043,-168.7527 778.1343,-162.6633 776.2292,-169.399"/>
</g>
<!-- Node11&#45;&gt;Node74 -->
<g id="edge24" class="edge">
<title>Node11&#45;&gt;Node74</title>
<path fill="none" stroke="#191970" d="M776.6205,-177.3723C663.5827,-175.2705 348.2976,-166.5152 88.5,-132 85.4016,-131.5884 82.2056,-131.0947 79.0008,-130.5503"/>
<polygon fill="#191970" stroke="#191970" points="776.8589,-180.877 786.9196,-177.5556 776.9835,-173.8781 776.8589,-180.877"/>
</g>
<!-- Node75 -->
<g id="node21" class="node">
<title>Node75</title>
<g id="a_node21"><a xlink:href="_ksgs_m84_src_8cpp.html" target="_top" xlink:title="KsgsM84Src.cpp">
<polygon fill="#ffffff" stroke="#000000" points="699.5,-112.5 699.5,-131.5 791.5,-131.5 791.5,-112.5 699.5,-112.5"/>
<text text-anchor="middle" x="745.5" y="-119.5" font-family="Helvetica,sans-Serif" font-size="10.00" fill="#000000">KsgsM84Src.cpp</text>
</a>
</g>
</g>
<!-- Node11&#45;&gt;Node75 -->
<g id="edge25" class="edge">
<title>Node11&#45;&gt;Node75</title>
<path fill="none" stroke="#191970" d="M798.6343,-162.2097C785.6375,-152.3743 769.3378,-140.0394 758.2421,-131.6427"/>
<polygon fill="#191970" stroke="#191970" points="796.524,-165.002 806.6102,-168.2455 800.7482,-159.4201 796.524,-165.002"/>
</g>
<!-- Node76 -->
<g id="node22" class="node">
<title>Node76</title>
<g id="a_node22"><a xlink:href="_m_m_s_8_h.html" target="_top" xlink:title="MMS.H">
<polygon fill="#ffffff" stroke="#000000" points="321.5,-112.5 321.5,-131.5 371.5,-131.5 371.5,-112.5 321.5,-112.5"/>
<text text-anchor="middle" x="346.5" y="-119.5" font-family="Helvetica,sans-Serif" font-size="10.00" fill="#000000">MMS.H</text>
</a>
</g>
</g>
<!-- Node11&#45;&gt;Node76 -->
<g id="edge26" class="edge">
<title>Node11&#45;&gt;Node76</title>
<path fill="none" stroke="#191970" d="M776.455,-175.5188C698.156,-170.5448 527.4025,-157.5727 385.5,-132 380.9598,-131.1818 376.1685,-130.1208 371.5572,-128.9966"/>
<polygon fill="#191970" stroke="#191970" points="776.6788,-179.0394 786.8771,-176.168 777.1141,-172.053 776.6788,-179.0394"/>
</g>
<!-- Node77 -->
<g id="node23" class="node">
<title>Node77</title>
<g id="a_node23"><a xlink:href="_m_m_s_8cpp.html" target="_top" xlink:title="MMS.cpp">
<polygon fill="#ffffff" stroke="#000000" points="343,-56.5 343,-75.5 402,-75.5 402,-56.5 343,-56.5"/>
<text text-anchor="middle" x="372.5" y="-63.5" font-family="Helvetica,sans-Serif" font-size="10.00" fill="#000000">MMS.cpp</text>
</a>
</g>
</g>
<!-- Node11&#45;&gt;Node77 -->
<g id="edge28" class="edge">
<title>Node11&#45;&gt;Node77</title>
<path fill="none" stroke="#191970" d="M776.7914,-177.4728C686.1995,-175.6618 478.1868,-167.629 418.5,-132 396.4336,-118.8278 382.324,-90.495 376.1328,-75.5996"/>
<polygon fill="#191970" stroke="#191970" points="776.9208,-180.9757 786.9834,-177.66 777.0494,-173.9769 776.9208,-180.9757"/>
</g>
<!-- Node11&#45;&gt;Node79 -->
<g id="edge29" class="edge">
<title>Node11&#45;&gt;Node79</title>
<path fill="none" stroke="#191970" d="M862.8004,-172.938C930.7673,-164.8932 1066.6052,-148.4146 1181.5,-132 1185.9949,-131.3578 1190.6659,-130.6649 1195.3415,-129.9538"/>
<polygon fill="#191970" stroke="#191970" points="862.0091,-169.507 852.4884,-174.1554 862.8298,-176.4587 862.0091,-169.507"/>
</g>
<!-- Node33&#45;&gt;Node46 -->
<g id="edge10" class="edge">
<title>Node33&#45;&gt;Node46</title>
<path fill="none" stroke="#191970" d="M140.8312,-103.3372C145.9665,-94.0605 151.9566,-83.2398 156.1621,-75.6427"/>
<polygon fill="#191970" stroke="#191970" points="137.6809,-101.8015 135.8998,-112.2455 143.8051,-105.1917 137.6809,-101.8015"/>
</g>
<!-- Node58&#45;&gt;Node61 -->
<g id="edge14" class="edge">
<title>Node58&#45;&gt;Node61</title>
<path fill="none" stroke="#191970" d="M755.5,-46.1575C755.5,-37.155 755.5,-26.9199 755.5,-19.6427"/>
<polygon fill="#191970" stroke="#191970" points="752.0001,-46.2455 755.5,-56.2455 759.0001,-46.2456 752.0001,-46.2455"/>
</g>
<!-- Node64&#45;&gt;Node58 -->
<g id="edge16" class="edge">
<title>Node64&#45;&gt;Node58</title>
<path fill="none" stroke="#191970" d="M541.5636,-110.372C591.328,-100.0505 663.1519,-85.1537 709.5823,-75.5237"/>
<polygon fill="#191970" stroke="#191970" points="540.6887,-106.9789 531.6079,-112.4369 542.1103,-113.833 540.6887,-106.9789"/>
</g>
<!-- Node64&#45;&gt;Node61 -->
<g id="edge17" class="edge">
<title>Node64&#45;&gt;Node61</title>
<path fill="none" stroke="#191970" d="M517.8458,-108.5825C573.1287,-85.6503 684.468,-39.4651 732.5382,-19.5249"/>
<polygon fill="#191970" stroke="#191970" points="516.4158,-105.3864 508.52,-112.4509 519.098,-111.8522 516.4158,-105.3864"/>
</g>
<!-- Node76&#45;&gt;Node77 -->
<g id="edge27" class="edge">
<title>Node76&#45;&gt;Node77</title>
<path fill="none" stroke="#191970" d="M355.3011,-103.0437C359.5775,-93.8331 364.533,-83.1598 368.023,-75.6427"/>
<polygon fill="#191970" stroke="#191970" points="352.0655,-101.7015 351.0289,-112.2455 358.4146,-104.6494 352.0655,-101.7015"/>
</g>
<!-- Node121&#45;&gt;Node33 -->
<g id="edge46" class="edge">
<title>Node121&#45;&gt;Node33</title>
<path fill="none" stroke="#191970" d="M130.5,-158.1575C130.5,-149.155 130.5,-138.9199 130.5,-131.6427"/>
<polygon fill="#191970" stroke="#191970" points="127.0001,-158.2455 130.5,-168.2455 134.0001,-158.2456 127.0001,-158.2455"/>
</g>
<!-- Node121&#45;&gt;Node74 -->
<g id="edge47" class="edge">
<title>Node121&#45;&gt;Node74</title>
<path fill="none" stroke="#191970" d="M105.7496,-162.769C89.6242,-152.8456 69.074,-140.1994 55.1693,-131.6427"/>
<polygon fill="#191970" stroke="#191970" points="104.2981,-165.9853 114.649,-168.2455 107.9668,-160.0237 104.2981,-165.9853"/>
</g>
<!-- Node123&#45;&gt;Node126 -->
<g id="edge50" class="edge">
<title>Node123&#45;&gt;Node126</title>
<path fill="none" stroke="#191970" d="M1555.3976,-158.1575C1557.166,-149.155 1559.1765,-138.9199 1560.6059,-131.6427"/>
<polygon fill="#191970" stroke="#191970" points="1551.9092,-157.7584 1553.4161,-168.2455 1558.778,-159.1077 1551.9092,-157.7584"/>
</g>
<!-- Node123&#45;&gt;Node127 -->
<g id="edge52" class="edge">
<title>Node123&#45;&gt;Node127</title>
<path fill="none" stroke="#191970" d="M1584.2399,-164.5189C1609.0083,-154.3201 1642.405,-140.5685 1664.4258,-131.5011"/>
<polygon fill="#191970" stroke="#191970" points="1582.7934,-161.3293 1574.8792,-168.3733 1585.4587,-167.8021 1582.7934,-161.3293"/>
</g>
<!-- Node123&#45;&gt;Node128 -->
<g id="edge54" class="edge">
<title>Node123&#45;&gt;Node128</title>
<path fill="none" stroke="#191970" d="M1521.7376,-164.1109C1499.9768,-153.9559 1471.0318,-140.4482 1451.8595,-131.5011"/>
<polygon fill="#191970" stroke="#191970" points="1520.3293,-167.316 1530.8713,-168.3733 1523.2895,-160.9727 1520.3293,-167.316"/>
</g>
<!-- Node123&#45;&gt;Node130 -->
<g id="edge56" class="edge">
<title>Node123&#45;&gt;Node130</title>
<path fill="none" stroke="#191970" d="M1602.59,-166.1775C1647.1587,-155.8641 1710.9893,-141.0934 1752.3441,-131.5237"/>
<polygon fill="#191970" stroke="#191970" points="1601.7798,-162.7724 1592.8263,-168.4369 1603.358,-169.5922 1601.7798,-162.7724"/>
</g>
<!-- Node126&#45;&gt;Node70 -->
<g id="edge51" class="edge">
<title>Node126&#45;&gt;Node70</title>
<path fill="none" stroke="#191970" d="M1540.5064,-106.2097C1526.8071,-96.3743 1509.6264,-84.0394 1497.9309,-75.6427"/>
<polygon fill="#191970" stroke="#191970" points="1538.7489,-109.2566 1548.9134,-112.2455 1542.8314,-103.5703 1538.7489,-109.2566"/>
</g>
<!-- Node127&#45;&gt;Node71 -->
<g id="edge53" class="edge">
<title>Node127&#45;&gt;Node71</title>
<path fill="none" stroke="#191970" d="M1676.0185,-103.6296C1670.1804,-94.2887 1663.3248,-83.3197 1658.5267,-75.6427"/>
<polygon fill="#191970" stroke="#191970" points="1673.1354,-105.6206 1681.4035,-112.2455 1679.0714,-101.9105 1673.1354,-105.6206"/>
</g>
<!-- Node128&#45;&gt;Node72 -->
<g id="edge55" class="edge">
<title>Node128&#45;&gt;Node72</title>
<path fill="none" stroke="#191970" d="M1395.0716,-108.9231C1366.5539,-98.686 1327.5619,-84.6889 1301.9674,-75.5011"/>
<polygon fill="#191970" stroke="#191970" points="1394.0881,-112.2887 1404.6826,-112.3733 1396.4532,-105.7004 1394.0881,-112.2887"/>
</g>
</g>
</svg>
