<?xml version="1.0" encoding="UTF-8" standalone="no"?>
<!DOCTYPE svg PUBLIC "-//W3C//DTD SVG 1.1//EN"
 "http://www.w3.org/Graphics/SVG/1.1/DTD/svg11.dtd">
<!-- Generated by graphviz version 2.40.1 (20161225.0304)
 -->
<!-- Title: SecondMomentAveraging.cpp Pages: 1 -->
<svg width="2079pt" height="408pt"
 viewBox="0.00 0.00 2079.00 408.00" xmlns="http://www.w3.org/2000/svg" xmlns:xlink="http://www.w3.org/1999/xlink">
<g id="graph0" class="graph" transform="scale(1 1) rotate(0) translate(4 404)">
<title>SecondMomentAveraging.cpp</title>
<polygon fill="#ffffff" stroke="transparent" points="-4,4 -4,-404 2075,-404 2075,4 -4,4"/>
<!-- Node0 -->
<g id="node1" class="node">
<title>Node0</title>
<polygon fill="#bfbfbf" stroke="#000000" points="703.5,-380.5 703.5,-399.5 850.5,-399.5 850.5,-380.5 703.5,-380.5"/>
<text text-anchor="middle" x="777" y="-387.5" font-family="Helvetica,sans-Serif" font-size="10.00" fill="#000000">SecondMomentAveraging.cpp</text>
</g>
<!-- Node1 -->
<g id="node2" class="node">
<title>Node1</title>
<g id="a_node2"><a xlink:href="_second_moment_averaging_8_h.html" target="_top" xlink:title="SecondMomentAveraging.H">
<polygon fill="#ffffff" stroke="#000000" points="707.5,-324.5 707.5,-343.5 846.5,-343.5 846.5,-324.5 707.5,-324.5"/>
<text text-anchor="middle" x="777" y="-331.5" font-family="Helvetica,sans-Serif" font-size="10.00" fill="#000000">SecondMomentAveraging.H</text>
</a>
</g>
</g>
<!-- Node0&#45;&gt;Node1 -->
<g id="edge1" class="edge">
<title>Node0&#45;&gt;Node1</title>
<path fill="none" stroke="#191970" d="M777,-380.2455C777,-372.9382 777,-362.6944 777,-353.7046"/>
<polygon fill="#191970" stroke="#191970" points="780.5001,-353.6426 777,-343.6427 773.5001,-353.6427 780.5001,-353.6426"/>
</g>
<!-- Node2 -->
<g id="node3" class="node">
<title>Node2</title>
<polygon fill="#ffffff" stroke="#bfbfbf" points="384,-62 384,-81 490,-81 490,-62 384,-62"/>
<text text-anchor="middle" x="437" y="-69" font-family="Helvetica,sans-Serif" font-size="10.00" fill="#000000">AMReX_AmrCore.H</text>
</g>
<!-- Node1&#45;&gt;Node2 -->
<g id="edge2" class="edge">
<title>Node1&#45;&gt;Node2</title>
<path fill="none" stroke="#191970" d="M771.2907,-324.3038C765.9846,-315.1121 758.0175,-300.8391 752,-288 732.1057,-245.553 745.7005,-223.5888 713,-190 654.2501,-129.654 559.7747,-98.2856 498.0358,-83.3506"/>
<polygon fill="#191970" stroke="#191970" points="498.5759,-79.8824 488.0409,-81.0069 496.9778,-86.6976 498.5759,-79.8824"/>
</g>
<!-- Node3 -->
<g id="node4" class="node">
<title>Node3</title>
<g id="a_node4"><a xlink:href="_direction_selector_8_h.html" target="_top" xlink:title="amr&#45;wind/utilities\l/DirectionSelector.H">
<polygon fill="#ffffff" stroke="#000000" points="599.5,-190.5 599.5,-220.5 704.5,-220.5 704.5,-190.5 599.5,-190.5"/>
<text text-anchor="start" x="607.5" y="-208.5" font-family="Helvetica,sans-Serif" font-size="10.00" fill="#000000">amr&#45;wind/utilities</text>
<text text-anchor="middle" x="652" y="-197.5" font-family="Helvetica,sans-Serif" font-size="10.00" fill="#000000">/DirectionSelector.H</text>
</a>
</g>
</g>
<!-- Node1&#45;&gt;Node3 -->
<g id="edge3" class="edge">
<title>Node1&#45;&gt;Node3</title>
<path fill="none" stroke="#191970" d="M762.9393,-324.1925C750.7353,-315.375 732.8929,-301.7331 719,-288 700.3388,-269.5534 681.7348,-246.1424 668.8833,-228.9752"/>
<polygon fill="#191970" stroke="#191970" points="671.4736,-226.591 662.7173,-220.6263 665.8428,-230.7496 671.4736,-226.591"/>
</g>
<!-- Node4 -->
<g id="node5" class="node">
<title>Node4</title>
<g id="a_node5"><a xlink:href="_field_8_h.html" target="_top" xlink:title="amr&#45;wind/core/Field.H">
<polygon fill="#ffffff" stroke="#000000" points="1194.5,-62 1194.5,-81 1307.5,-81 1307.5,-62 1194.5,-62"/>
<text text-anchor="middle" x="1251" y="-69" font-family="Helvetica,sans-Serif" font-size="10.00" fill="#000000">amr&#45;wind/core/Field.H</text>
</a>
</g>
</g>
<!-- Node1&#45;&gt;Node4 -->
<g id="edge4" class="edge">
<title>Node1&#45;&gt;Node4</title>
<path fill="none" stroke="#191970" d="M803.2301,-324.3566C826.2057,-315.6443 860.3108,-302.0647 889,-288 1022.9138,-222.3497 1172.8687,-124.1317 1228.5864,-86.7154"/>
<polygon fill="#191970" stroke="#191970" points="1230.6597,-89.5388 1236.9966,-81.0479 1226.7479,-83.7338 1230.6597,-89.5388"/>
</g>
<!-- Node13 -->
<g id="node14" class="node">
<title>Node13</title>
<g id="a_node14"><a xlink:href="_field_plane_averaging_8_h.html" target="_top" xlink:title="amr&#45;wind/utilities\l/FieldPlaneAveraging.H">
<polygon fill="#ffffff" stroke="#000000" points="761.5,-257.5 761.5,-287.5 880.5,-287.5 880.5,-257.5 761.5,-257.5"/>
<text text-anchor="start" x="769.5" y="-275.5" font-family="Helvetica,sans-Serif" font-size="10.00" fill="#000000">amr&#45;wind/utilities</text>
<text text-anchor="middle" x="821" y="-264.5" font-family="Helvetica,sans-Serif" font-size="10.00" fill="#000000">/FieldPlaneAveraging.H</text>
</a>
</g>
</g>
<!-- Node1&#45;&gt;Node13 -->
<g id="edge13" class="edge">
<title>Node1&#45;&gt;Node13</title>
<path fill="none" stroke="#191970" d="M783.875,-324.3906C789.3336,-316.761 797.2001,-305.7658 804.288,-295.8588"/>
<polygon fill="#191970" stroke="#191970" points="807.2642,-297.714 810.2364,-287.5446 801.5712,-293.6409 807.2642,-297.714"/>
</g>
<!-- Node5 -->
<g id="node6" class="node">
<title>Node5</title>
<polygon fill="#ffffff" stroke="#bfbfbf" points="1057.5,-.5 1057.5,-19.5 1098.5,-19.5 1098.5,-.5 1057.5,-.5"/>
<text text-anchor="middle" x="1078" y="-7.5" font-family="Helvetica,sans-Serif" font-size="10.00" fill="#000000">string</text>
</g>
<!-- Node4&#45;&gt;Node5 -->
<g id="edge5" class="edge">
<title>Node4&#45;&gt;Node5</title>
<path fill="none" stroke="#191970" d="M1223.9688,-61.8906C1192.534,-50.7159 1140.7907,-32.3215 1108.1003,-20.7004"/>
<polygon fill="#191970" stroke="#191970" points="1109.205,-17.3786 1098.6103,-17.3268 1106.8603,-23.9742 1109.205,-17.3786"/>
</g>
<!-- Node6 -->
<g id="node7" class="node">
<title>Node6</title>
<polygon fill="#ffffff" stroke="#bfbfbf" points="1648,-.5 1648,-19.5 1700,-19.5 1700,-.5 1648,-.5"/>
<text text-anchor="middle" x="1674" y="-7.5" font-family="Helvetica,sans-Serif" font-size="10.00" fill="#000000">memory</text>
</g>
<!-- Node4&#45;&gt;Node6 -->
<g id="edge6" class="edge">
<title>Node4&#45;&gt;Node6</title>
<path fill="none" stroke="#191970" d="M1307.6589,-66.6009C1381.6149,-59.6265 1515.1355,-45.0521 1637.7899,-20.0097"/>
<polygon fill="#191970" stroke="#191970" points="1638.6466,-23.4066 1647.7295,-17.952 1637.2276,-16.5519 1638.6466,-23.4066"/>
</g>
<!-- Node7 -->
<g id="node8" class="node">
<title>Node7</title>
<polygon fill="#ffffff" stroke="#bfbfbf" points="1546.5,-.5 1546.5,-19.5 1629.5,-19.5 1629.5,-.5 1546.5,-.5"/>
<text text-anchor="middle" x="1588" y="-7.5" font-family="Helvetica,sans-Serif" font-size="10.00" fill="#000000">unordered_map</text>
</g>
<!-- Node4&#45;&gt;Node7 -->
<g id="edge7" class="edge">
<title>Node4&#45;&gt;Node7</title>
<path fill="none" stroke="#191970" d="M1305.8121,-61.9975C1361.4674,-52.2737 1450.4003,-36.5305 1536.3484,-20.2899"/>
<polygon fill="#191970" stroke="#191970" points="1537.0964,-23.7105 1546.2702,-18.4103 1535.7935,-16.8329 1537.0964,-23.7105"/>
</g>
<!-- Node8 -->
<g id="node9" class="node">
<title>Node8</title>
<polygon fill="#ffffff" stroke="#bfbfbf" points="935,-.5 935,-19.5 1039,-19.5 1039,-.5 935,-.5"/>
<text text-anchor="middle" x="987" y="-7.5" font-family="Helvetica,sans-Serif" font-size="10.00" fill="#000000">AMReX_MultiFab.H</text>
</g>
<!-- Node4&#45;&gt;Node8 -->
<g id="edge8" class="edge">
<title>Node4&#45;&gt;Node8</title>
<path fill="none" stroke="#191970" d="M1210.0397,-61.9581C1163.7005,-51.1632 1088.176,-33.5694 1038.0394,-21.8899"/>
<polygon fill="#191970" stroke="#191970" points="1038.5898,-18.4244 1028.0564,-19.5643 1037.0016,-25.2419 1038.5898,-18.4244"/>
</g>
<!-- Node9 -->
<g id="node10" class="node">
<title>Node9</title>
<polygon fill="#ffffff" stroke="#bfbfbf" points="1219.5,-.5 1219.5,-19.5 1318.5,-19.5 1318.5,-.5 1219.5,-.5"/>
<text text-anchor="middle" x="1269" y="-7.5" font-family="Helvetica,sans-Serif" font-size="10.00" fill="#000000">AMReX_BCRec.H</text>
</g>
<!-- Node4&#45;&gt;Node9 -->
<g id="edge9" class="edge">
<title>Node4&#45;&gt;Node9</title>
<path fill="none" stroke="#191970" d="M1253.8125,-61.8906C1256.3339,-53.276 1260.111,-40.3708 1263.2676,-29.5858"/>
<polygon fill="#191970" stroke="#191970" points="1266.6979,-30.3254 1266.1478,-19.7449 1259.9797,-28.3591 1266.6979,-30.3254"/>
</g>
<!-- Node10 -->
<g id="node11" class="node">
<title>Node10</title>
<polygon fill="#ffffff" stroke="#bfbfbf" points="1116.5,-.5 1116.5,-19.5 1201.5,-19.5 1201.5,-.5 1116.5,-.5"/>
<text text-anchor="middle" x="1159" y="-7.5" font-family="Helvetica,sans-Serif" font-size="10.00" fill="#000000">AMReX_Gpu.H</text>
</g>
<!-- Node4&#45;&gt;Node10 -->
<g id="edge10" class="edge">
<title>Node4&#45;&gt;Node10</title>
<path fill="none" stroke="#191970" d="M1236.625,-61.8906C1221.9069,-52.0519 1198.8168,-36.6167 1181.6411,-25.1351"/>
<polygon fill="#191970" stroke="#191970" points="1183.5327,-22.1896 1173.2741,-19.5419 1179.6425,-28.0091 1183.5327,-22.1896"/>
</g>
<!-- Node11 -->
<g id="node12" class="node">
<title>Node11</title>
<g id="a_node12"><a xlink:href="incflo__enums_8_h.html" target="_top" xlink:title="amr&#45;wind/incflo_enums.H">
<polygon fill="#ffffff" stroke="#000000" points="1337,-.5 1337,-19.5 1465,-19.5 1465,-.5 1337,-.5"/>
<text text-anchor="middle" x="1401" y="-7.5" font-family="Helvetica,sans-Serif" font-size="10.00" fill="#000000">amr&#45;wind/incflo_enums.H</text>
</a>
</g>
</g>
<!-- Node4&#45;&gt;Node11 -->
<g id="edge11" class="edge">
<title>Node4&#45;&gt;Node11</title>
<path fill="none" stroke="#191970" d="M1274.4375,-61.8906C1299.6453,-51.5554 1339.9153,-35.0447 1368.2477,-23.4284"/>
<polygon fill="#191970" stroke="#191970" points="1369.8023,-26.5739 1377.7271,-19.5419 1367.1468,-20.0971 1369.8023,-26.5739"/>
</g>
<!-- Node12 -->
<g id="node13" class="node">
<title>Node12</title>
<g id="a_node13"><a xlink:href="_field_desc_types_8_h.html" target="_top" xlink:title="amr&#45;wind/core/FieldDescTypes.H">
<polygon fill="#ffffff" stroke="#000000" points="619.5,-.5 619.5,-19.5 782.5,-19.5 782.5,-.5 619.5,-.5"/>
<text text-anchor="middle" x="701" y="-7.5" font-family="Helvetica,sans-Serif" font-size="10.00" fill="#000000">amr&#45;wind/core/FieldDescTypes.H</text>
</a>
</g>
</g>
<!-- Node4&#45;&gt;Node12 -->
<g id="edge12" class="edge">
<title>Node4&#45;&gt;Node12</title>
<path fill="none" stroke="#191970" d="M1194.4687,-65.1788C1099.6071,-54.5715 907.5476,-33.0958 793.0157,-20.289"/>
<polygon fill="#191970" stroke="#191970" points="793.1893,-16.7867 782.8622,-19.1537 792.4113,-23.7434 793.1893,-16.7867"/>
</g>
<!-- Node13&#45;&gt;Node3 -->
<g id="edge14" class="edge">
<title>Node13&#45;&gt;Node3</title>
<path fill="none" stroke="#191970" d="M783.0731,-257.4639C758.3711,-247.6708 725.9469,-234.8162 699.5283,-224.3426"/>
<polygon fill="#191970" stroke="#191970" points="700.6784,-221.0335 690.0923,-220.6017 698.0985,-227.5408 700.6784,-221.0335"/>
</g>
<!-- Node13&#45;&gt;Node4 -->
<g id="edge63" class="edge">
<title>Node13&#45;&gt;Node4</title>
<path fill="none" stroke="#191970" d="M853.3199,-257.3923C934.048,-219.6566 1143.5995,-121.7035 1221.3745,-85.3482"/>
<polygon fill="#191970" stroke="#191970" points="1223.0333,-88.4364 1230.6103,-81.031 1220.069,-82.095 1223.0333,-88.4364"/>
</g>
<!-- Node14 -->
<g id="node15" class="node">
<title>Node14</title>
<g id="a_node15"><a xlink:href="_c_f_d_sim_8_h.html" target="_top" xlink:title="amr&#45;wind/CFDSim.H">
<polygon fill="#ffffff" stroke="#000000" points="810,-196 810,-215 918,-215 918,-196 810,-196"/>
<text text-anchor="middle" x="864" y="-203" font-family="Helvetica,sans-Serif" font-size="10.00" fill="#000000">amr&#45;wind/CFDSim.H</text>
</a>
</g>
</g>
<!-- Node13&#45;&gt;Node14 -->
<g id="edge15" class="edge">
<title>Node13&#45;&gt;Node14</title>
<path fill="none" stroke="#191970" d="M830.7574,-257.2967C837.1968,-247.2631 845.6635,-234.0709 852.4405,-223.5113"/>
<polygon fill="#191970" stroke="#191970" points="855.412,-225.3613 857.8677,-215.055 849.5209,-221.5804 855.412,-225.3613"/>
</g>
<!-- Node15 -->
<g id="node16" class="node">
<title>Node15</title>
<g id="a_node16"><a xlink:href="_sim_time_8_h.html" target="_top" xlink:title="amr&#45;wind/core/SimTime.H">
<polygon fill="#ffffff" stroke="#000000" points="237.5,-129 237.5,-148 368.5,-148 368.5,-129 237.5,-129"/>
<text text-anchor="middle" x="303" y="-136" font-family="Helvetica,sans-Serif" font-size="10.00" fill="#000000">amr&#45;wind/core/SimTime.H</text>
</a>
</g>
</g>
<!-- Node13&#45;&gt;Node15 -->
<g id="edge64" class="edge">
<title>Node13&#45;&gt;Node15</title>
<path fill="none" stroke="#191970" d="M806.5505,-257.3175C787.2326,-238.0791 750.993,-205.557 713,-190 654.1901,-165.9191 480.4151,-150.5035 378.9651,-143.2927"/>
<polygon fill="#191970" stroke="#191970" points="378.9964,-139.7864 368.7761,-142.5787 378.507,-146.7692 378.9964,-139.7864"/>
</g>
<!-- Node14&#45;&gt;Node2 -->
<g id="edge16" class="edge">
<title>Node14&#45;&gt;Node2</title>
<path fill="none" stroke="#191970" d="M850.0402,-195.8871C835.1267,-185.5936 810.819,-168.7475 790,-154 770.775,-140.3817 768.7727,-132.0006 747,-123 653.8152,-84.4786 622.3993,-103.9434 523,-87 515.1321,-85.6588 506.8659,-84.2143 498.6976,-82.7655"/>
<polygon fill="#191970" stroke="#191970" points="499.275,-79.3134 488.8158,-81.0029 498.0458,-86.2046 499.275,-79.3134"/>
</g>
<!-- Node14&#45;&gt;Node15 -->
<g id="edge17" class="edge">
<title>Node14&#45;&gt;Node15</title>
<path fill="none" stroke="#191970" d="M821.6918,-195.9994C811.0569,-193.8203 799.6412,-191.6593 789,-190 644.6167,-167.4862 474.5402,-151.9561 378.6882,-144.2028"/>
<polygon fill="#191970" stroke="#191970" points="378.7588,-140.6973 368.5109,-143.3863 378.199,-147.6749 378.7588,-140.6973"/>
</g>
<!-- Node19 -->
<g id="node20" class="node">
<title>Node19</title>
<g id="a_node20"><a xlink:href="_field_repo_8_h.html" target="_top" xlink:title="amr&#45;wind/core/FieldRepo.H">
<polygon fill="#ffffff" stroke="#000000" points="799,-129 799,-148 935,-148 935,-129 799,-129"/>
<text text-anchor="middle" x="867" y="-136" font-family="Helvetica,sans-Serif" font-size="10.00" fill="#000000">amr&#45;wind/core/FieldRepo.H</text>
</a>
</g>
</g>
<!-- Node14&#45;&gt;Node19 -->
<g id="edge21" class="edge">
<title>Node14&#45;&gt;Node19</title>
<path fill="none" stroke="#191970" d="M864.4298,-195.9005C864.8665,-186.149 865.5555,-170.7597 866.1103,-158.3695"/>
<polygon fill="#191970" stroke="#191970" points="869.6201,-158.2282 866.571,-148.0817 862.6271,-157.9151 869.6201,-158.2282"/>
</g>
<!-- Node25 -->
<g id="node26" class="node">
<title>Node25</title>
<g id="a_node26"><a xlink:href="_p_d_e_base_8_h.html" target="_top" xlink:title="amr&#45;wind/equation_systems\l/PDEBase.H">
<polygon fill="#ffffff" stroke="#000000" points="1342.5,-123.5 1342.5,-153.5 1481.5,-153.5 1481.5,-123.5 1342.5,-123.5"/>
<text text-anchor="start" x="1350.5" y="-141.5" font-family="Helvetica,sans-Serif" font-size="10.00" fill="#000000">amr&#45;wind/equation_systems</text>
<text text-anchor="middle" x="1412" y="-130.5" font-family="Helvetica,sans-Serif" font-size="10.00" fill="#000000">/PDEBase.H</text>
</a>
</g>
</g>
<!-- Node14&#45;&gt;Node25 -->
<g id="edge41" class="edge">
<title>Node14&#45;&gt;Node25</title>
<path fill="none" stroke="#191970" d="M918.0441,-198.8924C1015.0258,-187.0352 1219.0113,-162.0953 1332.1548,-148.2621"/>
<polygon fill="#191970" stroke="#191970" points="1332.6442,-151.7284 1342.1455,-147.0406 1331.7946,-144.7802 1332.6442,-151.7284"/>
</g>
<!-- Node34 -->
<g id="node35" class="node">
<title>Node34</title>
<g id="a_node35"><a xlink:href="_physics_8_h.html" target="_top" xlink:title="amr&#45;wind/core/Physics.H">
<polygon fill="#ffffff" stroke="#000000" points="1596.5,-129 1596.5,-148 1723.5,-148 1723.5,-129 1596.5,-129"/>
<text text-anchor="middle" x="1660" y="-136" font-family="Helvetica,sans-Serif" font-size="10.00" fill="#000000">amr&#45;wind/core/Physics.H</text>
</a>
</g>
</g>
<!-- Node14&#45;&gt;Node34 -->
<g id="edge58" class="edge">
<title>Node14&#45;&gt;Node34</title>
<path fill="none" stroke="#191970" d="M918.1099,-201.2298C1026.7357,-192.6188 1279.0917,-172.42 1491,-154 1522.1145,-151.2954 1556.4375,-148.173 1585.9773,-145.4426"/>
<polygon fill="#191970" stroke="#191970" points="1586.5788,-148.902 1596.2133,-144.4945 1585.9331,-141.9318 1586.5788,-148.902"/>
</g>
<!-- Node16 -->
<g id="node17" class="node">
<title>Node16</title>
<polygon fill="#ffffff" stroke="#bfbfbf" points="128.5,-62 128.5,-81 221.5,-81 221.5,-62 128.5,-62"/>
<text text-anchor="middle" x="175" y="-69" font-family="Helvetica,sans-Serif" font-size="10.00" fill="#000000">AMReX_REAL.H</text>
</g>
<!-- Node15&#45;&gt;Node16 -->
<g id="edge18" class="edge">
<title>Node15&#45;&gt;Node16</title>
<path fill="none" stroke="#191970" d="M284.6607,-128.9005C263.0844,-117.6067 227.0609,-98.7506 202.2234,-85.7497"/>
<polygon fill="#191970" stroke="#191970" points="203.7881,-82.6183 193.3053,-81.0817 200.5418,-88.8201 203.7881,-82.6183"/>
</g>
<!-- Node17 -->
<g id="node18" class="node">
<title>Node17</title>
<polygon fill="#ffffff" stroke="#bfbfbf" points="240,-62 240,-81 366,-81 366,-62 240,-62"/>
<text text-anchor="middle" x="303" y="-69" font-family="Helvetica,sans-Serif" font-size="10.00" fill="#000000">AMReX_GpuQualifiers.H</text>
</g>
<!-- Node15&#45;&gt;Node17 -->
<g id="edge19" class="edge">
<title>Node15&#45;&gt;Node17</title>
<path fill="none" stroke="#191970" d="M303,-128.9005C303,-119.149 303,-103.7597 303,-91.3695"/>
<polygon fill="#191970" stroke="#191970" points="306.5001,-91.0816 303,-81.0817 299.5001,-91.0817 306.5001,-91.0816"/>
</g>
<!-- Node18 -->
<g id="node19" class="node">
<title>Node18</title>
<polygon fill="#ffffff" stroke="#bfbfbf" points="0,-62 0,-81 110,-81 110,-62 0,-62"/>
<text text-anchor="middle" x="55" y="-69" font-family="Helvetica,sans-Serif" font-size="10.00" fill="#000000">AMReX_Extension.H</text>
</g>
<!-- Node15&#45;&gt;Node18 -->
<g id="edge20" class="edge">
<title>Node15&#45;&gt;Node18</title>
<path fill="none" stroke="#191970" d="M267.731,-128.9717C223.7849,-117.0991 148.6141,-96.7909 100.4058,-83.7669"/>
<polygon fill="#191970" stroke="#191970" points="101.1156,-80.3332 90.5488,-81.1039 99.2899,-87.091 101.1156,-80.3332"/>
</g>
<!-- Node19&#45;&gt;Node2 -->
<g id="edge38" class="edge">
<title>Node19&#45;&gt;Node2</title>
<path fill="none" stroke="#191970" d="M818.9538,-128.9236C807.8272,-126.8434 796.0185,-124.7456 785,-123 660.6413,-103.2984 627.934,-109.2171 504,-87 497.8303,-85.894 491.3733,-84.5897 485.0064,-83.215"/>
<polygon fill="#191970" stroke="#191970" points="485.6512,-79.773 475.1295,-81.0152 484.1294,-86.6056 485.6512,-79.773"/>
</g>
<!-- Node19&#45;&gt;Node4 -->
<g id="edge29" class="edge">
<title>Node19&#45;&gt;Node4</title>
<path fill="none" stroke="#191970" d="M921.61,-128.9717C991.3205,-116.8087 1111.7734,-95.7921 1186.0967,-82.8243"/>
<polygon fill="#191970" stroke="#191970" points="1187.0183,-86.2164 1196.2678,-81.0496 1185.815,-79.3206 1187.0183,-86.2164"/>
</g>
<!-- Node19&#45;&gt;Node5 -->
<g id="edge22" class="edge">
<title>Node19&#45;&gt;Node5</title>
<path fill="none" stroke="#191970" d="M935.0472,-133.4131C998.8082,-127.0643 1087.445,-113.6248 1109,-87 1123.2078,-69.4504 1108.4104,-44.5381 1094.7911,-27.8502"/>
<polygon fill="#191970" stroke="#191970" points="1097.1356,-25.2119 1087.9364,-19.9558 1091.85,-29.8014 1097.1356,-25.2119"/>
</g>
<!-- Node19&#45;&gt;Node7 -->
<g id="edge23" class="edge">
<title>Node19&#45;&gt;Node7</title>
<path fill="none" stroke="#191970" d="M935.2277,-134.1216C1023.6855,-127.6596 1182.4486,-113.3826 1316,-87 1338.6298,-82.5296 1474.7189,-43.0969 1545.4156,-22.4649"/>
<polygon fill="#191970" stroke="#191970" points="1546.7325,-25.7265 1555.3505,-19.5636 1544.7702,-19.0072 1546.7325,-25.7265"/>
</g>
<!-- Node19&#45;&gt;Node8 -->
<g id="edge39" class="edge">
<title>Node19&#45;&gt;Node8</title>
<path fill="none" stroke="#191970" d="M876.0195,-128.8416C896.1733,-107.2602 945.0975,-54.8706 970.7273,-27.4254"/>
<polygon fill="#191970" stroke="#191970" points="973.6086,-29.468 977.8758,-19.7705 968.4926,-24.6903 973.6086,-29.468"/>
</g>
<!-- Node19&#45;&gt;Node12 -->
<g id="edge24" class="edge">
<title>Node19&#45;&gt;Node12</title>
<path fill="none" stroke="#191970" d="M827.6059,-128.9081C789.8732,-118.9694 736.5799,-102.7169 722,-87 707.5444,-71.4171 702.8726,-46.8619 701.4498,-29.6821"/>
<polygon fill="#191970" stroke="#191970" points="704.9412,-29.4255 700.9138,-19.626 697.9511,-29.7981 704.9412,-29.4255"/>
</g>
<!-- Node20 -->
<g id="node21" class="node">
<title>Node20</title>
<g id="a_node21"><a xlink:href="_field_utils_8_h.html" target="_top" xlink:title="amr&#45;wind/core/FieldUtils.H">
<polygon fill="#ffffff" stroke="#000000" points="764.5,-62 764.5,-81 897.5,-81 897.5,-62 764.5,-62"/>
<text text-anchor="middle" x="831" y="-69" font-family="Helvetica,sans-Serif" font-size="10.00" fill="#000000">amr&#45;wind/core/FieldUtils.H</text>
</a>
</g>
</g>
<!-- Node19&#45;&gt;Node20 -->
<g id="edge25" class="edge">
<title>Node19&#45;&gt;Node20</title>
<path fill="none" stroke="#191970" d="M861.8421,-128.9005C856.4421,-118.8505 847.8245,-102.8122 841.0694,-90.2403"/>
<polygon fill="#191970" stroke="#191970" points="843.9647,-88.234 836.1484,-81.0817 837.7984,-91.5472 843.9647,-88.234"/>
</g>
<!-- Node22 -->
<g id="node23" class="node">
<title>Node22</title>
<g id="a_node23"><a xlink:href="_int_field_8_h.html" target="_top" xlink:title="amr&#45;wind/core/IntField.H">
<polygon fill="#ffffff" stroke="#000000" points="546,-62 546,-81 670,-81 670,-62 546,-62"/>
<text text-anchor="middle" x="608" y="-69" font-family="Helvetica,sans-Serif" font-size="10.00" fill="#000000">amr&#45;wind/core/IntField.H</text>
</a>
</g>
</g>
<!-- Node19&#45;&gt;Node22 -->
<g id="edge30" class="edge">
<title>Node19&#45;&gt;Node22</title>
<path fill="none" stroke="#191970" d="M830.1667,-128.9717C784.1753,-117.0743 705.4377,-96.7059 655.1041,-83.6852"/>
<polygon fill="#191970" stroke="#191970" points="655.6835,-80.22 645.1256,-81.1039 653.9303,-86.9969 655.6835,-80.22"/>
</g>
<!-- Node23 -->
<g id="node24" class="node">
<title>Node23</title>
<polygon fill="#ffffff" stroke="#bfbfbf" points="481.5,-.5 481.5,-19.5 588.5,-19.5 588.5,-.5 481.5,-.5"/>
<text text-anchor="middle" x="535" y="-7.5" font-family="Helvetica,sans-Serif" font-size="10.00" fill="#000000">AMReX_iMultiFab.H</text>
</g>
<!-- Node19&#45;&gt;Node23 -->
<g id="edge40" class="edge">
<title>Node19&#45;&gt;Node23</title>
<path fill="none" stroke="#191970" d="M818.498,-128.9774C807.4998,-126.9169 795.8606,-124.8139 785,-123 730.0721,-113.8262 573.9835,-128.6348 537,-87 523.3769,-71.6636 525.3619,-47.0594 529.1414,-29.8008"/>
<polygon fill="#191970" stroke="#191970" points="532.6401,-30.2478 531.7382,-19.6915 525.8602,-28.5063 532.6401,-30.2478"/>
</g>
<!-- Node24 -->
<g id="node25" class="node">
<title>Node24</title>
<g id="a_node25"><a xlink:href="_scratch_field_8_h.html" target="_top" xlink:title="amr&#45;wind/core/ScratchField.H">
<polygon fill="#ffffff" stroke="#000000" points="954,-62 954,-81 1100,-81 1100,-62 954,-62"/>
<text text-anchor="middle" x="1027" y="-69" font-family="Helvetica,sans-Serif" font-size="10.00" fill="#000000">amr&#45;wind/core/ScratchField.H</text>
</a>
</g>
</g>
<!-- Node19&#45;&gt;Node24 -->
<g id="edge34" class="edge">
<title>Node19&#45;&gt;Node24</title>
<path fill="none" stroke="#191970" d="M889.9241,-128.9005C917.3698,-117.4077 963.5164,-98.0838 994.5988,-85.068"/>
<polygon fill="#191970" stroke="#191970" points="996.2464,-88.1726 1004.1184,-81.0817 993.5426,-81.7159 996.2464,-88.1726"/>
</g>
<!-- Node20&#45;&gt;Node8 -->
<g id="edge27" class="edge">
<title>Node20&#45;&gt;Node8</title>
<path fill="none" stroke="#191970" d="M855.375,-61.8906C881.7056,-51.5103 923.838,-34.9004 953.3229,-23.2766"/>
<polygon fill="#191970" stroke="#191970" points="954.7767,-26.4657 962.7962,-19.5419 952.2093,-19.9534 954.7767,-26.4657"/>
</g>
<!-- Node20&#45;&gt;Node12 -->
<g id="edge26" class="edge">
<title>Node20&#45;&gt;Node12</title>
<path fill="none" stroke="#191970" d="M810.6875,-61.8906C789.1269,-51.6908 754.8522,-35.4763 730.3556,-23.8875"/>
<polygon fill="#191970" stroke="#191970" points="731.7061,-20.6545 721.1699,-19.5419 728.7126,-26.9822 731.7061,-20.6545"/>
</g>
<!-- Node21 -->
<g id="node22" class="node">
<title>Node21</title>
<polygon fill="#ffffff" stroke="#bfbfbf" points="801,-.5 801,-19.5 917,-19.5 917,-.5 801,-.5"/>
<text text-anchor="middle" x="859" y="-7.5" font-family="Helvetica,sans-Serif" font-size="10.00" fill="#000000">AMReX_Interpolater.H</text>
</g>
<!-- Node20&#45;&gt;Node21 -->
<g id="edge28" class="edge">
<title>Node20&#45;&gt;Node21</title>
<path fill="none" stroke="#191970" d="M835.375,-61.8906C839.3788,-53.0965 845.4183,-39.8312 850.3885,-28.9145"/>
<polygon fill="#191970" stroke="#191970" points="853.6051,-30.2963 854.5633,-19.7449 847.2343,-27.3957 853.6051,-30.2963"/>
</g>
<!-- Node22&#45;&gt;Node5 -->
<g id="edge31" class="edge">
<title>Node22&#45;&gt;Node5</title>
<path fill="none" stroke="#191970" d="M670.4336,-64.911C776.4798,-53.6192 985.584,-30.8885 1047.6749,-19.4496"/>
<polygon fill="#191970" stroke="#191970" points="1048.3985,-22.8742 1057.4998,-17.4504 1047.0027,-16.0148 1048.3985,-22.8742"/>
</g>
<!-- Node22&#45;&gt;Node12 -->
<g id="edge32" class="edge">
<title>Node22&#45;&gt;Node12</title>
<path fill="none" stroke="#191970" d="M622.5313,-61.8906C637.4094,-52.0519 660.7504,-36.6167 678.1128,-25.1351"/>
<polygon fill="#191970" stroke="#191970" points="680.1602,-27.9773 686.5708,-19.5419 676.299,-22.1385 680.1602,-27.9773"/>
</g>
<!-- Node22&#45;&gt;Node23 -->
<g id="edge33" class="edge">
<title>Node22&#45;&gt;Node23</title>
<path fill="none" stroke="#191970" d="M596.5938,-61.8906C585.3031,-52.3786 567.8033,-37.6357 554.3381,-26.2917"/>
<polygon fill="#191970" stroke="#191970" points="556.4699,-23.5111 546.5671,-19.7449 551.9598,-28.8646 556.4699,-23.5111"/>
</g>
<!-- Node24&#45;&gt;Node5 -->
<g id="edge35" class="edge">
<title>Node24&#45;&gt;Node5</title>
<path fill="none" stroke="#191970" d="M1034.9688,-61.8906C1042.5591,-52.7376 1054.1661,-38.7409 1063.4132,-27.59"/>
<polygon fill="#191970" stroke="#191970" points="1066.2297,-29.6766 1069.9189,-19.7449 1060.8413,-25.2083 1066.2297,-29.6766"/>
</g>
<!-- Node24&#45;&gt;Node8 -->
<g id="edge37" class="edge">
<title>Node24&#45;&gt;Node8</title>
<path fill="none" stroke="#191970" d="M1020.75,-61.8906C1014.9135,-52.917 1006.0491,-39.2879 998.8694,-28.2491"/>
<polygon fill="#191970" stroke="#191970" points="1001.7245,-26.2194 993.3381,-19.7449 995.8564,-30.0361 1001.7245,-26.2194"/>
</g>
<!-- Node24&#45;&gt;Node12 -->
<g id="edge36" class="edge">
<title>Node24&#45;&gt;Node12</title>
<path fill="none" stroke="#191970" d="M976.4202,-61.9581C918.3968,-51.012 823.3175,-33.0752 761.4431,-21.4026"/>
<polygon fill="#191970" stroke="#191970" points="761.9058,-17.9282 751.4302,-19.5137 760.608,-24.8069 761.9058,-17.9282"/>
</g>
<!-- Node25&#45;&gt;Node5 -->
<g id="edge42" class="edge">
<title>Node25&#45;&gt;Node5</title>
<path fill="none" stroke="#191970" d="M1399.1155,-123.216C1382.1428,-104.1818 1350.3926,-72.2016 1316,-56 1233.6452,-17.2045 1200.5748,-41.6317 1108.7599,-20.0832"/>
<polygon fill="#191970" stroke="#191970" points="1109.3343,-16.6199 1098.7866,-17.6179 1107.6544,-23.4154 1109.3343,-16.6199"/>
</g>
<!-- Node25&#45;&gt;Node11 -->
<g id="edge57" class="edge">
<title>Node25&#45;&gt;Node11</title>
<path fill="none" stroke="#191970" d="M1410.695,-123.2548C1408.7021,-99.9744 1404.9001,-55.5607 1402.6959,-29.8117"/>
<polygon fill="#191970" stroke="#191970" points="1406.1737,-29.4008 1401.8334,-19.7358 1399.1992,-29.9979 1406.1737,-29.4008"/>
</g>
<!-- Node25&#45;&gt;Node12 -->
<g id="edge56" class="edge">
<title>Node25&#45;&gt;Node12</title>
<path fill="none" stroke="#191970" d="M1342.4489,-136.3864C1183.82,-131.0916 805.0848,-115.5911 755,-87 732.373,-74.0833 716.9732,-47.3523 708.5821,-29.0471"/>
<polygon fill="#191970" stroke="#191970" points="711.7075,-27.4549 704.5447,-19.6482 705.2758,-30.2178 711.7075,-27.4549"/>
</g>
<!-- Node26 -->
<g id="node27" class="node">
<title>Node26</title>
<g id="a_node27"><a xlink:href="_factory_8_h.html" target="_top" xlink:title="amr&#45;wind/core/Factory.H">
<polygon fill="#ffffff" stroke="#000000" points="1740.5,-62 1740.5,-81 1865.5,-81 1865.5,-62 1740.5,-62"/>
<text text-anchor="middle" x="1803" y="-69" font-family="Helvetica,sans-Serif" font-size="10.00" fill="#000000">amr&#45;wind/core/Factory.H</text>
</a>
</g>
</g>
<!-- Node25&#45;&gt;Node26 -->
<g id="edge43" class="edge">
<title>Node25&#45;&gt;Node26</title>
<path fill="none" stroke="#191970" d="M1481.7955,-128.4054C1546.752,-118.7412 1646.1673,-103.263 1732,-87 1738.1826,-85.8286 1744.651,-84.5253 1751.0593,-83.1859"/>
<polygon fill="#191970" stroke="#191970" points="1751.977,-86.5691 1761.0302,-81.0654 1750.5208,-79.7222 1751.977,-86.5691"/>
</g>
<!-- Node30 -->
<g id="node31" class="node">
<title>Node30</title>
<g id="a_node31"><a xlink:href="_coll_mgr_8_h.html" target="_top" xlink:title="amr&#45;wind/core/CollMgr.H">
<polygon fill="#ffffff" stroke="#000000" points="1597.5,-62 1597.5,-81 1722.5,-81 1722.5,-62 1597.5,-62"/>
<text text-anchor="middle" x="1660" y="-69" font-family="Helvetica,sans-Serif" font-size="10.00" fill="#000000">amr&#45;wind/core/CollMgr.H</text>
</a>
</g>
</g>
<!-- Node25&#45;&gt;Node30 -->
<g id="edge49" class="edge">
<title>Node25&#45;&gt;Node30</title>
<path fill="none" stroke="#191970" d="M1467.656,-123.4639C1512.117,-111.4522 1573.6258,-94.835 1615.0107,-83.6544"/>
<polygon fill="#191970" stroke="#191970" points="1616.0752,-86.9923 1624.8163,-81.0053 1614.2495,-80.2346 1616.0752,-86.9923"/>
</g>
<!-- Node32 -->
<g id="node33" class="node">
<title>Node32</title>
<g id="a_node33"><a xlink:href="_p_d_e_fields_8_h.html" target="_top" xlink:title="amr&#45;wind/equation_systems\l/PDEFields.H">
<polygon fill="#ffffff" stroke="#000000" points="1440.5,-56.5 1440.5,-86.5 1579.5,-86.5 1579.5,-56.5 1440.5,-56.5"/>
<text text-anchor="start" x="1448.5" y="-74.5" font-family="Helvetica,sans-Serif" font-size="10.00" fill="#000000">amr&#45;wind/equation_systems</text>
<text text-anchor="middle" x="1510" y="-63.5" font-family="Helvetica,sans-Serif" font-size="10.00" fill="#000000">/PDEFields.H</text>
</a>
</g>
</g>
<!-- Node25&#45;&gt;Node32 -->
<g id="edge54" class="edge">
<title>Node25&#45;&gt;Node32</title>
<path fill="none" stroke="#191970" d="M1434.2377,-123.2967C1447.6447,-114.1306 1464.9076,-102.3285 1479.568,-92.3055"/>
<polygon fill="#191970" stroke="#191970" points="1481.5705,-95.1763 1487.8503,-86.6432 1477.6198,-89.3977 1481.5705,-95.1763"/>
</g>
<!-- Node26&#45;&gt;Node6 -->
<g id="edge44" class="edge">
<title>Node26&#45;&gt;Node6</title>
<path fill="none" stroke="#191970" d="M1782.8438,-61.8906C1761.449,-51.6908 1727.438,-35.4763 1703.1298,-23.8875"/>
<polygon fill="#191970" stroke="#191970" points="1704.5476,-20.686 1694.0147,-19.5419 1701.5352,-27.0047 1704.5476,-20.686"/>
</g>
<!-- Node26&#45;&gt;Node7 -->
<g id="edge45" class="edge">
<title>Node26&#45;&gt;Node7</title>
<path fill="none" stroke="#191970" d="M1769.4063,-61.8906C1732.0917,-51.2169 1671.7508,-33.9566 1631.0114,-22.3033"/>
<polygon fill="#191970" stroke="#191970" points="1631.9348,-18.9271 1621.3579,-19.5419 1630.0097,-25.6572 1631.9348,-18.9271"/>
</g>
<!-- Node27 -->
<g id="node28" class="node">
<title>Node27</title>
<polygon fill="#ffffff" stroke="#bfbfbf" points="2017,-.5 2017,-19.5 2071,-19.5 2071,-.5 2017,-.5"/>
<text text-anchor="middle" x="2044" y="-7.5" font-family="Helvetica,sans-Serif" font-size="10.00" fill="#000000">iostream</text>
</g>
<!-- Node26&#45;&gt;Node27 -->
<g id="edge46" class="edge">
<title>Node26&#45;&gt;Node27</title>
<path fill="none" stroke="#191970" d="M1842.3744,-61.9161C1881.6834,-52.2795 1944.0627,-36.8031 2007.1711,-20.1764"/>
<polygon fill="#191970" stroke="#191970" points="2008.1189,-23.5462 2016.8928,-17.6074 2006.3304,-16.7785 2008.1189,-23.5462"/>
</g>
<!-- Node28 -->
<g id="node29" class="node">
<title>Node28</title>
<polygon fill="#ffffff" stroke="#bfbfbf" points="1831.5,-.5 1831.5,-19.5 1918.5,-19.5 1918.5,-.5 1831.5,-.5"/>
<text text-anchor="middle" x="1875" y="-7.5" font-family="Helvetica,sans-Serif" font-size="10.00" fill="#000000">AMReX_Print.H</text>
</g>
<!-- Node26&#45;&gt;Node28 -->
<g id="edge47" class="edge">
<title>Node26&#45;&gt;Node28</title>
<path fill="none" stroke="#191970" d="M1814.25,-61.8906C1825.386,-52.3786 1842.646,-37.6357 1855.9268,-26.2917"/>
<polygon fill="#191970" stroke="#191970" points="1858.2608,-28.9011 1863.5914,-19.7449 1853.7144,-23.5784 1858.2608,-28.9011"/>
</g>
<!-- Node29 -->
<g id="node30" class="node">
<title>Node29</title>
<polygon fill="#ffffff" stroke="#bfbfbf" points="1937,-.5 1937,-19.5 1999,-19.5 1999,-.5 1937,-.5"/>
<text text-anchor="middle" x="1968" y="-7.5" font-family="Helvetica,sans-Serif" font-size="10.00" fill="#000000">AMReX.H</text>
</g>
<!-- Node26&#45;&gt;Node29 -->
<g id="edge48" class="edge">
<title>Node26&#45;&gt;Node29</title>
<path fill="none" stroke="#191970" d="M1828.7813,-61.8906C1856.752,-51.4652 1901.5819,-34.7559 1932.786,-23.1252"/>
<polygon fill="#191970" stroke="#191970" points="1934.2519,-26.3141 1942.3998,-19.5419 1931.8071,-19.7549 1934.2519,-26.3141"/>
</g>
<!-- Node30&#45;&gt;Node5 -->
<g id="edge50" class="edge">
<title>Node30&#45;&gt;Node5</title>
<path fill="none" stroke="#191970" d="M1621.1186,-61.9815C1610.7365,-59.7229 1599.4872,-57.5287 1589,-56 1379.6451,-25.4837 1319.2169,-62.2281 1108.5505,-19.8741"/>
<polygon fill="#191970" stroke="#191970" points="1109.2281,-16.4403 1098.7295,-17.8646 1107.8249,-23.2982 1109.2281,-16.4403"/>
</g>
<!-- Node30&#45;&gt;Node6 -->
<g id="edge51" class="edge">
<title>Node30&#45;&gt;Node6</title>
<path fill="none" stroke="#191970" d="M1662.1875,-61.8906C1664.1486,-53.276 1667.0863,-40.3708 1669.5415,-29.5858"/>
<polygon fill="#191970" stroke="#191970" points="1672.9746,-30.2723 1671.7817,-19.7449 1666.1493,-28.7185 1672.9746,-30.2723"/>
</g>
<!-- Node30&#45;&gt;Node7 -->
<g id="edge52" class="edge">
<title>Node30&#45;&gt;Node7</title>
<path fill="none" stroke="#191970" d="M1648.75,-61.8906C1637.614,-52.3786 1620.354,-37.6357 1607.0732,-26.2917"/>
<polygon fill="#191970" stroke="#191970" points="1609.2856,-23.5784 1599.4086,-19.7449 1604.7392,-28.9011 1609.2856,-23.5784"/>
</g>
<!-- Node31 -->
<g id="node32" class="node">
<title>Node31</title>
<polygon fill="#ffffff" stroke="#bfbfbf" points="1718.5,-.5 1718.5,-19.5 1813.5,-19.5 1813.5,-.5 1718.5,-.5"/>
<text text-anchor="middle" x="1766" y="-7.5" font-family="Helvetica,sans-Serif" font-size="10.00" fill="#000000">AMReX_Vector.H</text>
</g>
<!-- Node30&#45;&gt;Node31 -->
<g id="edge53" class="edge">
<title>Node30&#45;&gt;Node31</title>
<path fill="none" stroke="#191970" d="M1676.5625,-61.8906C1693.7537,-51.9165 1720.8582,-36.1908 1740.7266,-24.6633"/>
<polygon fill="#191970" stroke="#191970" points="1742.6606,-27.5877 1749.5538,-19.5419 1739.1477,-21.533 1742.6606,-27.5877"/>
</g>
<!-- Node33 -->
<g id="node34" class="node">
<title>Node33</title>
<polygon fill="#ffffff" stroke="#bfbfbf" points="1483.5,-.5 1483.5,-19.5 1528.5,-19.5 1528.5,-.5 1483.5,-.5"/>
<text text-anchor="middle" x="1506" y="-7.5" font-family="Helvetica,sans-Serif" font-size="10.00" fill="#000000">iosfwd</text>
</g>
<!-- Node32&#45;&gt;Node33 -->
<g id="edge55" class="edge">
<title>Node32&#45;&gt;Node33</title>
<path fill="none" stroke="#191970" d="M1509.0112,-56.2977C1508.4965,-48.3834 1507.8604,-38.6043 1507.3057,-30.0759"/>
<polygon fill="#191970" stroke="#191970" points="1510.7822,-29.5986 1506.6405,-19.8469 1503.797,-30.053 1510.7822,-29.5986"/>
</g>
<!-- Node34&#45;&gt;Node8 -->
<g id="edge61" class="edge">
<title>Node34&#45;&gt;Node8</title>
<path fill="none" stroke="#191970" d="M1596.3102,-132.5925C1476.024,-121.2889 1223.9525,-96.8486 1185,-87 1149.6333,-78.058 1142.9589,-69.3252 1109,-56 1080.1084,-44.6632 1047.1689,-32.2749 1022.805,-23.2134"/>
<polygon fill="#191970" stroke="#191970" points="1023.8489,-19.8676 1013.2559,-19.6689 1021.4129,-26.4301 1023.8489,-19.8676"/>
</g>
<!-- Node34&#45;&gt;Node26 -->
<g id="edge59" class="edge">
<title>Node34&#45;&gt;Node26</title>
<path fill="none" stroke="#191970" d="M1680.4884,-128.9005C1704.8056,-117.5072 1745.5486,-98.4178 1773.3169,-85.4075"/>
<polygon fill="#191970" stroke="#191970" points="1774.9792,-88.4938 1782.5496,-81.0817 1772.0093,-82.1551 1774.9792,-88.4938"/>
</g>
<!-- Node34&#45;&gt;Node30 -->
<g id="edge60" class="edge">
<title>Node34&#45;&gt;Node30</title>
<path fill="none" stroke="#191970" d="M1660,-128.9005C1660,-119.149 1660,-103.7597 1660,-91.3695"/>
<polygon fill="#191970" stroke="#191970" points="1663.5001,-91.0816 1660,-81.0817 1656.5001,-91.0817 1663.5001,-91.0816"/>
</g>
<!-- Node35 -->
<g id="node36" class="node">
<title>Node35</title>
<polygon fill="#ffffff" stroke="#bfbfbf" points="1884,-62 1884,-81 1994,-81 1994,-62 1884,-62"/>
<text text-anchor="middle" x="1939" y="-69" font-family="Helvetica,sans-Serif" font-size="10.00" fill="#000000">AMReX_Geometry.H</text>
</g>
<!-- Node34&#45;&gt;Node35 -->
<g id="edge62" class="edge">
<title>Node34&#45;&gt;Node35</title>
<path fill="none" stroke="#191970" d="M1700.0288,-128.9434C1743.2117,-118.6264 1813.9897,-101.695 1875,-87 1879.7514,-85.8556 1884.7007,-84.6611 1889.6492,-83.4653"/>
<polygon fill="#191970" stroke="#191970" points="1890.8451,-86.777 1899.742,-81.0242 1889.1995,-79.9732 1890.8451,-86.777"/>
</g>
</g>
</svg>
