<?xml version="1.0" encoding="UTF-8" standalone="no"?>
<!DOCTYPE svg PUBLIC "-//W3C//DTD SVG 1.1//EN"
 "http://www.w3.org/Graphics/SVG/1.1/DTD/svg11.dtd">
<!-- Generated by graphviz version 2.40.1 (20161225.0304)
 -->
<!-- Title: SecondMomentAveraging.H Pages: 1 -->
<svg width="2033pt" height="352pt"
 viewBox="0.00 0.00 2033.00 352.00" xmlns="http://www.w3.org/2000/svg" xmlns:xlink="http://www.w3.org/1999/xlink">
<g id="graph0" class="graph" transform="scale(1 1) rotate(0) translate(4 348)">
<title>SecondMomentAveraging.H</title>
<polygon fill="#ffffff" stroke="transparent" points="-4,4 -4,-348 2029,-348 2029,4 -4,4"/>
<!-- Node0 -->
<g id="node1" class="node">
<title>Node0</title>
<polygon fill="#bfbfbf" stroke="#000000" points="998.5,-324.5 998.5,-343.5 1137.5,-343.5 1137.5,-324.5 998.5,-324.5"/>
<text text-anchor="middle" x="1068" y="-331.5" font-family="Helvetica,sans-Serif" font-size="10.00" fill="#000000">SecondMomentAveraging.H</text>
</g>
<!-- Node1 -->
<g id="node2" class="node">
<title>Node1</title>
<polygon fill="#ffffff" stroke="#bfbfbf" points="1889,-62 1889,-81 1995,-81 1995,-62 1889,-62"/>
<text text-anchor="middle" x="1942" y="-69" font-family="Helvetica,sans-Serif" font-size="10.00" fill="#000000">AMReX_AmrCore.H</text>
</g>
<!-- Node0&#45;&gt;Node1 -->
<g id="edge1" class="edge">
<title>Node0&#45;&gt;Node1</title>
<path fill="none" stroke="#191970" d="M1099.8821,-324.4244C1233.5807,-284.269 1749.0899,-129.4393 1900.166,-84.0646"/>
<polygon fill="#191970" stroke="#191970" points="1901.423,-87.3415 1909.9936,-81.1129 1899.4094,-80.6374 1901.423,-87.3415"/>
</g>
<!-- Node2 -->
<g id="node3" class="node">
<title>Node2</title>
<g id="a_node3"><a xlink:href="_direction_selector_8_h.html" target="_top" xlink:title="amr&#45;wind/utilities\l/DirectionSelector.H">
<polygon fill="#ffffff" stroke="#000000" points="792.5,-190.5 792.5,-220.5 897.5,-220.5 897.5,-190.5 792.5,-190.5"/>
<text text-anchor="start" x="800.5" y="-208.5" font-family="Helvetica,sans-Serif" font-size="10.00" fill="#000000">amr&#45;wind/utilities</text>
<text text-anchor="middle" x="845" y="-197.5" font-family="Helvetica,sans-Serif" font-size="10.00" fill="#000000">/DirectionSelector.H</text>
</a>
</g>
</g>
<!-- Node0&#45;&gt;Node2 -->
<g id="edge2" class="edge">
<title>Node0&#45;&gt;Node2</title>
<path fill="none" stroke="#191970" d="M1029.648,-324.4529C1003.0746,-316.871 967.492,-304.7488 939,-288 910.9922,-271.5358 883.6128,-246.1346 865.6949,-227.8677"/>
<polygon fill="#191970" stroke="#191970" points="868.0788,-225.2974 858.6209,-220.5226 863.0369,-230.1533 868.0788,-225.2974"/>
</g>
<!-- Node3 -->
<g id="node4" class="node">
<title>Node3</title>
<g id="a_node4"><a xlink:href="_field_8_h.html" target="_top" xlink:title="amr&#45;wind/core/Field.H">
<polygon fill="#ffffff" stroke="#000000" points="1071.5,-62 1071.5,-81 1184.5,-81 1184.5,-62 1071.5,-62"/>
<text text-anchor="middle" x="1128" y="-69" font-family="Helvetica,sans-Serif" font-size="10.00" fill="#000000">amr&#45;wind/core/Field.H</text>
</a>
</g>
</g>
<!-- Node0&#45;&gt;Node3 -->
<g id="edge3" class="edge">
<title>Node0&#45;&gt;Node3</title>
<path fill="none" stroke="#191970" d="M1070.776,-324.3103C1078.4093,-297.4382 1100.0705,-219.627 1114,-154 1118.5094,-132.7544 1122.5265,-108.1874 1125.0884,-91.4238"/>
<polygon fill="#191970" stroke="#191970" points="1128.5995,-91.6095 1126.6177,-81.2017 1121.6765,-90.5737 1128.5995,-91.6095"/>
</g>
<!-- Node12 -->
<g id="node13" class="node">
<title>Node12</title>
<g id="a_node13"><a xlink:href="_field_plane_averaging_8_h.html" target="_top" xlink:title="amr&#45;wind/utilities\l/FieldPlaneAveraging.H">
<polygon fill="#ffffff" stroke="#000000" points="948.5,-257.5 948.5,-287.5 1067.5,-287.5 1067.5,-257.5 948.5,-257.5"/>
<text text-anchor="start" x="956.5" y="-275.5" font-family="Helvetica,sans-Serif" font-size="10.00" fill="#000000">amr&#45;wind/utilities</text>
<text text-anchor="middle" x="1008" y="-264.5" font-family="Helvetica,sans-Serif" font-size="10.00" fill="#000000">/FieldPlaneAveraging.H</text>
</a>
</g>
</g>
<!-- Node0&#45;&gt;Node12 -->
<g id="edge12" class="edge">
<title>Node0&#45;&gt;Node12</title>
<path fill="none" stroke="#191970" d="M1058.625,-324.3906C1050.9559,-316.5298 1039.8013,-305.0964 1029.9134,-294.9612"/>
<polygon fill="#191970" stroke="#191970" points="1032.1662,-292.2583 1022.6777,-287.5446 1027.1557,-297.1466 1032.1662,-292.2583"/>
</g>
<!-- Node4 -->
<g id="node5" class="node">
<title>Node4</title>
<polygon fill="#ffffff" stroke="#bfbfbf" points="1161.5,-.5 1161.5,-19.5 1202.5,-19.5 1202.5,-.5 1161.5,-.5"/>
<text text-anchor="middle" x="1182" y="-7.5" font-family="Helvetica,sans-Serif" font-size="10.00" fill="#000000">string</text>
</g>
<!-- Node3&#45;&gt;Node4 -->
<g id="edge4" class="edge">
<title>Node3&#45;&gt;Node4</title>
<path fill="none" stroke="#191970" d="M1136.4375,-61.8906C1144.5531,-52.6478 1157.0055,-38.466 1166.8424,-27.2628"/>
<polygon fill="#191970" stroke="#191970" points="1169.4755,-29.5686 1173.4435,-19.7449 1164.2154,-24.95 1169.4755,-29.5686"/>
</g>
<!-- Node5 -->
<g id="node6" class="node">
<title>Node5</title>
<polygon fill="#ffffff" stroke="#bfbfbf" points="623,-.5 623,-19.5 675,-19.5 675,-.5 623,-.5"/>
<text text-anchor="middle" x="649" y="-7.5" font-family="Helvetica,sans-Serif" font-size="10.00" fill="#000000">memory</text>
</g>
<!-- Node3&#45;&gt;Node5 -->
<g id="edge5" class="edge">
<title>Node3&#45;&gt;Node5</title>
<path fill="none" stroke="#191970" d="M1071.3859,-62.6165C1056.0286,-60.3286 1039.3923,-57.961 1024,-56 876.5011,-37.2083 834.9406,-48.4718 685.2722,-19.9642"/>
<polygon fill="#191970" stroke="#191970" points="685.7377,-16.4895 675.2552,-18.0282 684.4093,-23.3623 685.7377,-16.4895"/>
</g>
<!-- Node6 -->
<g id="node7" class="node">
<title>Node6</title>
<polygon fill="#ffffff" stroke="#bfbfbf" points="693.5,-.5 693.5,-19.5 776.5,-19.5 776.5,-.5 693.5,-.5"/>
<text text-anchor="middle" x="735" y="-7.5" font-family="Helvetica,sans-Serif" font-size="10.00" fill="#000000">unordered_map</text>
</g>
<!-- Node3&#45;&gt;Node6 -->
<g id="edge6" class="edge">
<title>Node3&#45;&gt;Node6</title>
<path fill="none" stroke="#191970" d="M1087.1906,-61.9849C1077.3372,-59.8554 1066.8175,-57.7207 1057,-56 940.4773,-35.5776 907.6137,-39.4701 786.729,-20.0275"/>
<polygon fill="#191970" stroke="#191970" points="787.1434,-16.5489 776.7108,-18.3956 786.018,-23.4579 787.1434,-16.5489"/>
</g>
<!-- Node7 -->
<g id="node8" class="node">
<title>Node7</title>
<polygon fill="#ffffff" stroke="#bfbfbf" points="1787,-.5 1787,-19.5 1891,-19.5 1891,-.5 1787,-.5"/>
<text text-anchor="middle" x="1839" y="-7.5" font-family="Helvetica,sans-Serif" font-size="10.00" fill="#000000">AMReX_MultiFab.H</text>
</g>
<!-- Node3&#45;&gt;Node7 -->
<g id="edge7" class="edge">
<title>Node3&#45;&gt;Node7</title>
<path fill="none" stroke="#191970" d="M1184.5661,-62.2076C1199.9235,-59.9204 1216.5718,-57.6555 1232,-56 1470.4995,-30.4083 1534.6447,-47.2292 1776.6365,-20.0531"/>
<polygon fill="#191970" stroke="#191970" points="1777.2623,-23.5046 1786.8029,-18.8974 1776.4716,-16.5494 1777.2623,-23.5046"/>
</g>
<!-- Node8 -->
<g id="node9" class="node">
<title>Node8</title>
<polygon fill="#ffffff" stroke="#bfbfbf" points="1044.5,-.5 1044.5,-19.5 1143.5,-19.5 1143.5,-.5 1044.5,-.5"/>
<text text-anchor="middle" x="1094" y="-7.5" font-family="Helvetica,sans-Serif" font-size="10.00" fill="#000000">AMReX_BCRec.H</text>
</g>
<!-- Node3&#45;&gt;Node8 -->
<g id="edge8" class="edge">
<title>Node3&#45;&gt;Node8</title>
<path fill="none" stroke="#191970" d="M1122.6875,-61.8906C1117.7761,-53.0068 1110.3421,-39.5601 1104.2725,-28.5811"/>
<polygon fill="#191970" stroke="#191970" points="1107.2888,-26.8031 1099.3874,-19.7449 1101.1627,-30.1899 1107.2888,-26.8031"/>
</g>
<!-- Node9 -->
<g id="node10" class="node">
<title>Node9</title>
<polygon fill="#ffffff" stroke="#bfbfbf" points="941.5,-.5 941.5,-19.5 1026.5,-19.5 1026.5,-.5 941.5,-.5"/>
<text text-anchor="middle" x="984" y="-7.5" font-family="Helvetica,sans-Serif" font-size="10.00" fill="#000000">AMReX_Gpu.H</text>
</g>
<!-- Node3&#45;&gt;Node9 -->
<g id="edge9" class="edge">
<title>Node3&#45;&gt;Node9</title>
<path fill="none" stroke="#191970" d="M1105.5,-61.8906C1081.4062,-51.6005 1042.9787,-35.1888 1015.7992,-23.5809"/>
<polygon fill="#191970" stroke="#191970" points="1016.9131,-20.2508 1006.342,-19.5419 1014.1637,-26.6883 1016.9131,-20.2508"/>
</g>
<!-- Node10 -->
<g id="node11" class="node">
<title>Node10</title>
<g id="a_node11"><a xlink:href="incflo__enums_8_h.html" target="_top" xlink:title="amr&#45;wind/incflo_enums.H">
<polygon fill="#ffffff" stroke="#000000" points="795,-.5 795,-19.5 923,-19.5 923,-.5 795,-.5"/>
<text text-anchor="middle" x="859" y="-7.5" font-family="Helvetica,sans-Serif" font-size="10.00" fill="#000000">amr&#45;wind/incflo_enums.H</text>
</a>
</g>
</g>
<!-- Node3&#45;&gt;Node10 -->
<g id="edge10" class="edge">
<title>Node3&#45;&gt;Node10</title>
<path fill="none" stroke="#191970" d="M1086.2639,-61.9581C1038.9485,-51.1406 961.7708,-33.4959 910.6864,-21.8168"/>
<polygon fill="#191970" stroke="#191970" points="911.3626,-18.3811 900.834,-19.5643 909.8024,-25.2051 911.3626,-18.3811"/>
</g>
<!-- Node11 -->
<g id="node12" class="node">
<title>Node11</title>
<g id="a_node12"><a xlink:href="_field_desc_types_8_h.html" target="_top" xlink:title="amr&#45;wind/core/FieldDescTypes.H">
<polygon fill="#ffffff" stroke="#000000" points="1605.5,-.5 1605.5,-19.5 1768.5,-19.5 1768.5,-.5 1605.5,-.5"/>
<text text-anchor="middle" x="1687" y="-7.5" font-family="Helvetica,sans-Serif" font-size="10.00" fill="#000000">amr&#45;wind/core/FieldDescTypes.H</text>
</a>
</g>
</g>
<!-- Node3&#45;&gt;Node11 -->
<g id="edge11" class="edge">
<title>Node3&#45;&gt;Node11</title>
<path fill="none" stroke="#191970" d="M1184.6051,-62.5454C1199.9624,-60.2575 1216.601,-57.9078 1232,-56 1390.025,-36.4218 1432.5802,-36.8523 1594.803,-20.1112"/>
<polygon fill="#191970" stroke="#191970" points="1595.5669,-23.5508 1605.152,-19.0367 1594.844,-16.5882 1595.5669,-23.5508"/>
</g>
<!-- Node12&#45;&gt;Node2 -->
<g id="edge13" class="edge">
<title>Node12&#45;&gt;Node2</title>
<path fill="none" stroke="#191970" d="M971.4196,-257.4639C947.6991,-247.7137 916.5957,-234.9289 891.1765,-224.4805"/>
<polygon fill="#191970" stroke="#191970" points="892.3197,-221.1663 881.7399,-220.6017 889.6584,-227.6407 892.3197,-221.1663"/>
</g>
<!-- Node12&#45;&gt;Node3 -->
<g id="edge64" class="edge">
<title>Node12&#45;&gt;Node3</title>
<path fill="none" stroke="#191970" d="M1032.1826,-257.3148C1045.1627,-248.1377 1060.5871,-235.4363 1071,-221 1086.6099,-199.3587 1110.894,-125.9972 1122.0405,-90.7354"/>
<polygon fill="#191970" stroke="#191970" points="1125.4048,-91.7037 1125.0538,-81.1147 1118.7248,-89.6114 1125.4048,-91.7037"/>
</g>
<!-- Node13 -->
<g id="node14" class="node">
<title>Node13</title>
<g id="a_node14"><a xlink:href="_c_f_d_sim_8_h.html" target="_top" xlink:title="amr&#45;wind/CFDSim.H">
<polygon fill="#ffffff" stroke="#000000" points="954,-196 954,-215 1062,-215 1062,-196 954,-196"/>
<text text-anchor="middle" x="1008" y="-203" font-family="Helvetica,sans-Serif" font-size="10.00" fill="#000000">amr&#45;wind/CFDSim.H</text>
</a>
</g>
</g>
<!-- Node12&#45;&gt;Node13 -->
<g id="edge14" class="edge">
<title>Node12&#45;&gt;Node13</title>
<path fill="none" stroke="#191970" d="M1008,-257.2967C1008,-247.7699 1008,-235.3954 1008,-225.1306"/>
<polygon fill="#191970" stroke="#191970" points="1011.5001,-225.0549 1008,-215.055 1004.5001,-225.055 1011.5001,-225.0549"/>
</g>
<!-- Node14 -->
<g id="node15" class="node">
<title>Node14</title>
<g id="a_node15"><a xlink:href="_sim_time_8_h.html" target="_top" xlink:title="amr&#45;wind/core/SimTime.H">
<polygon fill="#ffffff" stroke="#000000" points="237.5,-129 237.5,-148 368.5,-148 368.5,-129 237.5,-129"/>
<text text-anchor="middle" x="303" y="-136" font-family="Helvetica,sans-Serif" font-size="10.00" fill="#000000">amr&#45;wind/core/SimTime.H</text>
</a>
</g>
</g>
<!-- Node12&#45;&gt;Node14 -->
<g id="edge65" class="edge">
<title>Node12&#45;&gt;Node14</title>
<path fill="none" stroke="#191970" d="M989.5671,-257.4791C960.5167,-233.8215 907.2281,-190.4943 906,-190 858.2108,-170.7654 529.7471,-150.7767 378.6993,-142.4779"/>
<polygon fill="#191970" stroke="#191970" points="378.7501,-138.9756 368.574,-141.9245 378.368,-145.9651 378.7501,-138.9756"/>
</g>
<!-- Node13&#45;&gt;Node1 -->
<g id="edge15" class="edge">
<title>Node13&#45;&gt;Node1</title>
<path fill="none" stroke="#191970" d="M1062.016,-200.7543C1199.5272,-188.1133 1573.6359,-150.2141 1880,-87 1885.2973,-85.907 1890.8254,-84.6682 1896.3043,-83.3787"/>
<polygon fill="#191970" stroke="#191970" points="1897.1544,-86.7741 1906.0528,-81.0236 1895.5105,-79.9699 1897.1544,-86.7741"/>
</g>
<!-- Node13&#45;&gt;Node14 -->
<g id="edge16" class="edge">
<title>Node13&#45;&gt;Node14</title>
<path fill="none" stroke="#191970" d="M970.4183,-195.9216C960.5737,-193.6913 949.9335,-191.5256 940,-190 738.8689,-159.1097 498.9793,-146.0474 379.0995,-141.1232"/>
<polygon fill="#191970" stroke="#191970" points="379.0602,-137.6189 368.9273,-140.7131 378.7782,-144.6132 379.0602,-137.6189"/>
</g>
<!-- Node18 -->
<g id="node19" class="node">
<title>Node18</title>
<g id="a_node19"><a xlink:href="_field_repo_8_h.html" target="_top" xlink:title="amr&#45;wind/core/FieldRepo.H">
<polygon fill="#ffffff" stroke="#000000" points="1325,-129 1325,-148 1461,-148 1461,-129 1325,-129"/>
<text text-anchor="middle" x="1393" y="-136" font-family="Helvetica,sans-Serif" font-size="10.00" fill="#000000">amr&#45;wind/core/FieldRepo.H</text>
</a>
</g>
</g>
<!-- Node13&#45;&gt;Node18 -->
<g id="edge20" class="edge">
<title>Node13&#45;&gt;Node18</title>
<path fill="none" stroke="#191970" d="M1062.3445,-196.0426C1132.2262,-183.8814 1253.4479,-162.7857 1328.096,-149.795"/>
<polygon fill="#191970" stroke="#191970" points="1329.0581,-153.1802 1338.3099,-148.0175 1327.8579,-146.2839 1329.0581,-153.1802"/>
</g>
<!-- Node26 -->
<g id="node27" class="node">
<title>Node26</title>
<g id="a_node27"><a xlink:href="_p_d_e_base_8_h.html" target="_top" xlink:title="amr&#45;wind/equation_systems\l/PDEBase.H">
<polygon fill="#ffffff" stroke="#000000" points="663.5,-123.5 663.5,-153.5 802.5,-153.5 802.5,-123.5 663.5,-123.5"/>
<text text-anchor="start" x="671.5" y="-141.5" font-family="Helvetica,sans-Serif" font-size="10.00" fill="#000000">amr&#45;wind/equation_systems</text>
<text text-anchor="middle" x="733" y="-130.5" font-family="Helvetica,sans-Serif" font-size="10.00" fill="#000000">/PDEBase.H</text>
</a>
</g>
</g>
<!-- Node13&#45;&gt;Node26 -->
<g id="edge42" class="edge">
<title>Node13&#45;&gt;Node26</title>
<path fill="none" stroke="#191970" d="M968.8913,-195.9717C926.263,-185.5859 857.1393,-168.7449 804.7115,-155.9715"/>
<polygon fill="#191970" stroke="#191970" points="805.3387,-152.522 794.7943,-153.5553 803.6816,-159.3231 805.3387,-152.522"/>
</g>
<!-- Node34 -->
<g id="node35" class="node">
<title>Node34</title>
<g id="a_node35"><a xlink:href="_physics_8_h.html" target="_top" xlink:title="amr&#45;wind/core/Physics.H">
<polygon fill="#ffffff" stroke="#000000" points="896.5,-129 896.5,-148 1023.5,-148 1023.5,-129 896.5,-129"/>
<text text-anchor="middle" x="960" y="-136" font-family="Helvetica,sans-Serif" font-size="10.00" fill="#000000">amr&#45;wind/core/Physics.H</text>
</a>
</g>
</g>
<!-- Node13&#45;&gt;Node34 -->
<g id="edge59" class="edge">
<title>Node13&#45;&gt;Node34</title>
<path fill="none" stroke="#191970" d="M1001.1228,-195.9005C993.7802,-185.6515 981.9759,-169.1747 972.8938,-156.4976"/>
<polygon fill="#191970" stroke="#191970" points="975.5336,-154.1724 966.8645,-148.0817 969.8432,-158.2492 975.5336,-154.1724"/>
</g>
<!-- Node15 -->
<g id="node16" class="node">
<title>Node15</title>
<polygon fill="#ffffff" stroke="#bfbfbf" points="128.5,-62 128.5,-81 221.5,-81 221.5,-62 128.5,-62"/>
<text text-anchor="middle" x="175" y="-69" font-family="Helvetica,sans-Serif" font-size="10.00" fill="#000000">AMReX_REAL.H</text>
</g>
<!-- Node14&#45;&gt;Node15 -->
<g id="edge17" class="edge">
<title>Node14&#45;&gt;Node15</title>
<path fill="none" stroke="#191970" d="M284.6607,-128.9005C263.0844,-117.6067 227.0609,-98.7506 202.2234,-85.7497"/>
<polygon fill="#191970" stroke="#191970" points="203.7881,-82.6183 193.3053,-81.0817 200.5418,-88.8201 203.7881,-82.6183"/>
</g>
<!-- Node16 -->
<g id="node17" class="node">
<title>Node16</title>
<polygon fill="#ffffff" stroke="#bfbfbf" points="240,-62 240,-81 366,-81 366,-62 240,-62"/>
<text text-anchor="middle" x="303" y="-69" font-family="Helvetica,sans-Serif" font-size="10.00" fill="#000000">AMReX_GpuQualifiers.H</text>
</g>
<!-- Node14&#45;&gt;Node16 -->
<g id="edge18" class="edge">
<title>Node14&#45;&gt;Node16</title>
<path fill="none" stroke="#191970" d="M303,-128.9005C303,-119.149 303,-103.7597 303,-91.3695"/>
<polygon fill="#191970" stroke="#191970" points="306.5001,-91.0816 303,-81.0817 299.5001,-91.0817 306.5001,-91.0816"/>
</g>
<!-- Node17 -->
<g id="node18" class="node">
<title>Node17</title>
<polygon fill="#ffffff" stroke="#bfbfbf" points="0,-62 0,-81 110,-81 110,-62 0,-62"/>
<text text-anchor="middle" x="55" y="-69" font-family="Helvetica,sans-Serif" font-size="10.00" fill="#000000">AMReX_Extension.H</text>
</g>
<!-- Node14&#45;&gt;Node17 -->
<g id="edge19" class="edge">
<title>Node14&#45;&gt;Node17</title>
<path fill="none" stroke="#191970" d="M267.731,-128.9717C223.7849,-117.0991 148.6141,-96.7909 100.4058,-83.7669"/>
<polygon fill="#191970" stroke="#191970" points="101.1156,-80.3332 90.5488,-81.1039 99.2899,-87.091 101.1156,-80.3332"/>
</g>
<!-- Node18&#45;&gt;Node1 -->
<g id="edge39" class="edge">
<title>Node18&#45;&gt;Node1</title>
<path fill="none" stroke="#191970" d="M1461.1735,-134.3063C1555.7368,-127.8054 1731.8174,-113.2257 1880,-87 1885.7392,-85.9843 1891.7337,-84.7327 1897.6371,-83.3849"/>
<polygon fill="#191970" stroke="#191970" points="1898.5096,-86.7751 1907.4247,-81.0504 1896.8855,-79.9661 1898.5096,-86.7751"/>
</g>
<!-- Node18&#45;&gt;Node3 -->
<g id="edge28" class="edge">
<title>Node18&#45;&gt;Node3</title>
<path fill="none" stroke="#191970" d="M1355.3134,-128.9717C1308.1583,-117.0495 1227.3584,-96.6208 1175.8732,-83.6038"/>
<polygon fill="#191970" stroke="#191970" points="1176.5385,-80.1619 1165.9857,-81.1039 1174.8227,-86.9484 1176.5385,-80.1619"/>
</g>
<!-- Node18&#45;&gt;Node4 -->
<g id="edge21" class="edge">
<title>Node18&#45;&gt;Node4</title>
<path fill="none" stroke="#191970" d="M1331.0144,-128.9826C1298.9743,-121.6537 1260.6868,-108.9091 1232,-87 1212.0925,-71.7959 1197.7839,-46.2407 1189.7025,-28.7732"/>
<polygon fill="#191970" stroke="#191970" points="1192.8863,-27.3184 1185.6685,-19.5625 1186.4743,-30.1267 1192.8863,-27.3184"/>
</g>
<!-- Node18&#45;&gt;Node6 -->
<g id="edge22" class="edge">
<title>Node18&#45;&gt;Node6</title>
<path fill="none" stroke="#191970" d="M1324.9509,-132.1553C1242.1755,-123.7057 1107.8145,-107.4223 1062,-87 1042.0924,-78.126 1043.9263,-64.8319 1024,-56 929.0608,-13.9202 893.4974,-36.8532 786.5987,-19.974"/>
<polygon fill="#191970" stroke="#191970" points="787.1594,-16.5192 776.7212,-18.334 786.0128,-23.4247 787.1594,-16.5192"/>
</g>
<!-- Node18&#45;&gt;Node7 -->
<g id="edge40" class="edge">
<title>Node18&#45;&gt;Node7</title>
<path fill="none" stroke="#191970" d="M1461.1572,-134.9125C1521.8884,-129.7757 1612.1613,-117.2966 1685,-87 1707.0872,-77.813 1708.0635,-67.5719 1729,-56 1752.4087,-43.0616 1780.2101,-31.4654 1802.0064,-23.1526"/>
<polygon fill="#191970" stroke="#191970" points="1803.4257,-26.3585 1811.561,-19.5712 1800.9687,-19.8038 1803.4257,-26.3585"/>
</g>
<!-- Node18&#45;&gt;Node11 -->
<g id="edge23" class="edge">
<title>Node18&#45;&gt;Node11</title>
<path fill="none" stroke="#191970" d="M1461.157,-131.8545C1505.4846,-125.2843 1563.3217,-112.3412 1609,-87 1635.6386,-72.2216 1659.4639,-45.8136 1673.5767,-28.1012"/>
<polygon fill="#191970" stroke="#191970" points="1676.6925,-29.7928 1680.0349,-19.739 1671.1524,-25.5141 1676.6925,-29.7928"/>
</g>
<!-- Node19 -->
<g id="node20" class="node">
<title>Node19</title>
<g id="a_node20"><a xlink:href="_field_utils_8_h.html" target="_top" xlink:title="amr&#45;wind/core/FieldUtils.H">
<polygon fill="#ffffff" stroke="#000000" points="1737.5,-62 1737.5,-81 1870.5,-81 1870.5,-62 1737.5,-62"/>
<text text-anchor="middle" x="1804" y="-69" font-family="Helvetica,sans-Serif" font-size="10.00" fill="#000000">amr&#45;wind/core/FieldUtils.H</text>
</a>
</g>
</g>
<!-- Node18&#45;&gt;Node19 -->
<g id="edge24" class="edge">
<title>Node18&#45;&gt;Node19</title>
<path fill="none" stroke="#191970" d="M1458.2272,-128.9942C1524.8746,-119.1234 1631.3062,-102.9233 1723,-87 1730.3563,-85.7225 1738.0768,-84.3223 1745.7077,-82.9024"/>
<polygon fill="#191970" stroke="#191970" points="1746.4687,-86.3207 1755.6497,-81.0331 1745.1751,-79.4413 1746.4687,-86.3207"/>
</g>
<!-- Node21 -->
<g id="node22" class="node">
<title>Node21</title>
<g id="a_node22"><a xlink:href="_int_field_8_h.html" target="_top" xlink:title="amr&#45;wind/core/IntField.H">
<polygon fill="#ffffff" stroke="#000000" points="1241,-62 1241,-81 1365,-81 1365,-62 1241,-62"/>
<text text-anchor="middle" x="1303" y="-69" font-family="Helvetica,sans-Serif" font-size="10.00" fill="#000000">amr&#45;wind/core/IntField.H</text>
</a>
</g>
</g>
<!-- Node18&#45;&gt;Node21 -->
<g id="edge29" class="edge">
<title>Node18&#45;&gt;Node21</title>
<path fill="none" stroke="#191970" d="M1380.1052,-128.9005C1365.5358,-118.0544 1341.5978,-100.2339 1324.2546,-87.3229"/>
<polygon fill="#191970" stroke="#191970" points="1325.9823,-84.2457 1315.8709,-81.0817 1321.8022,-89.8606 1325.9823,-84.2457"/>
</g>
<!-- Node22 -->
<g id="node23" class="node">
<title>Node22</title>
<polygon fill="#ffffff" stroke="#bfbfbf" points="1220.5,-.5 1220.5,-19.5 1327.5,-19.5 1327.5,-.5 1220.5,-.5"/>
<text text-anchor="middle" x="1274" y="-7.5" font-family="Helvetica,sans-Serif" font-size="10.00" fill="#000000">AMReX_iMultiFab.H</text>
</g>
<!-- Node18&#45;&gt;Node22 -->
<g id="edge41" class="edge">
<title>Node18&#45;&gt;Node22</title>
<path fill="none" stroke="#191970" d="M1393.3796,-128.9328C1393.5331,-112.2462 1391.5321,-77.5475 1374,-56 1361.4323,-40.5539 1342.5274,-30.0608 1324.5265,-23.0476"/>
<polygon fill="#191970" stroke="#191970" points="1325.2595,-19.5918 1314.6651,-19.5001 1322.89,-26.1786 1325.2595,-19.5918"/>
</g>
<!-- Node23 -->
<g id="node24" class="node">
<title>Node23</title>
<g id="a_node24"><a xlink:href="_scratch_field_8_h.html" target="_top" xlink:title="amr&#45;wind/core/ScratchField.H">
<polygon fill="#ffffff" stroke="#000000" points="1421,-62 1421,-81 1567,-81 1567,-62 1421,-62"/>
<text text-anchor="middle" x="1494" y="-69" font-family="Helvetica,sans-Serif" font-size="10.00" fill="#000000">amr&#45;wind/core/ScratchField.H</text>
</a>
</g>
</g>
<!-- Node18&#45;&gt;Node23 -->
<g id="edge33" class="edge">
<title>Node18&#45;&gt;Node23</title>
<path fill="none" stroke="#191970" d="M1407.4708,-128.9005C1424.1209,-117.8554 1451.674,-99.5776 1471.2114,-86.6172"/>
<polygon fill="#191970" stroke="#191970" points="1473.1576,-89.5263 1479.556,-81.0817 1469.288,-83.693 1473.1576,-89.5263"/>
</g>
<!-- Node19&#45;&gt;Node7 -->
<g id="edge26" class="edge">
<title>Node19&#45;&gt;Node7</title>
<path fill="none" stroke="#191970" d="M1809.4688,-61.8906C1814.5246,-53.0068 1822.1772,-39.5601 1828.4254,-28.5811"/>
<polygon fill="#191970" stroke="#191970" points="1831.5498,-30.1672 1833.4541,-19.7449 1825.466,-26.7048 1831.5498,-30.1672"/>
</g>
<!-- Node19&#45;&gt;Node11 -->
<g id="edge25" class="edge">
<title>Node19&#45;&gt;Node11</title>
<path fill="none" stroke="#191970" d="M1785.7188,-61.8906C1766.4859,-51.7811 1736.0121,-35.7628 1714.0075,-24.1962"/>
<polygon fill="#191970" stroke="#191970" points="1715.633,-21.0967 1705.1529,-19.5419 1712.376,-27.2928 1715.633,-21.0967"/>
</g>
<!-- Node20 -->
<g id="node21" class="node">
<title>Node20</title>
<polygon fill="#ffffff" stroke="#bfbfbf" points="1909,-.5 1909,-19.5 2025,-19.5 2025,-.5 1909,-.5"/>
<text text-anchor="middle" x="1967" y="-7.5" font-family="Helvetica,sans-Serif" font-size="10.00" fill="#000000">AMReX_Interpolater.H</text>
</g>
<!-- Node19&#45;&gt;Node20 -->
<g id="edge27" class="edge">
<title>Node19&#45;&gt;Node20</title>
<path fill="none" stroke="#191970" d="M1829.4688,-61.8906C1857.1005,-51.4652 1901.3869,-34.7559 1932.2128,-23.1252"/>
<polygon fill="#191970" stroke="#191970" points="1933.5894,-26.3467 1941.7101,-19.5419 1931.1183,-19.7974 1933.5894,-26.3467"/>
</g>
<!-- Node21&#45;&gt;Node4 -->
<g id="edge30" class="edge">
<title>Node21&#45;&gt;Node4</title>
<path fill="none" stroke="#191970" d="M1284.0938,-61.8906C1264.2034,-51.7811 1232.6877,-35.7628 1209.9308,-24.1962"/>
<polygon fill="#191970" stroke="#191970" points="1211.274,-20.9528 1200.7735,-19.5419 1208.1022,-27.193 1211.274,-20.9528"/>
</g>
<!-- Node21&#45;&gt;Node11 -->
<g id="edge31" class="edge">
<title>Node21&#45;&gt;Node11</title>
<path fill="none" stroke="#191970" d="M1362.5787,-61.9581C1431.4889,-50.9217 1544.7709,-32.7789 1617.5985,-21.1151"/>
<polygon fill="#191970" stroke="#191970" points="1618.2769,-24.5511 1627.5975,-19.5137 1617.1698,-17.6392 1618.2769,-24.5511"/>
</g>
<!-- Node21&#45;&gt;Node22 -->
<g id="edge32" class="edge">
<title>Node21&#45;&gt;Node22</title>
<path fill="none" stroke="#191970" d="M1298.4688,-61.8906C1294.3219,-53.0965 1288.0668,-39.8312 1282.919,-28.9145"/>
<polygon fill="#191970" stroke="#191970" points="1286.0259,-27.2969 1278.5951,-19.7449 1279.6945,-30.2825 1286.0259,-27.2969"/>
</g>
<!-- Node23&#45;&gt;Node4 -->
<g id="edge34" class="edge">
<title>Node23&#45;&gt;Node4</title>
<path fill="none" stroke="#191970" d="M1427.0457,-61.999C1371.9009,-53.5534 1291.5869,-39.8316 1212.6602,-19.8681"/>
<polygon fill="#191970" stroke="#191970" points="1213.099,-16.3674 1202.5429,-17.2723 1211.3593,-23.1478 1213.099,-16.3674"/>
</g>
<!-- Node23&#45;&gt;Node7 -->
<g id="edge36" class="edge">
<title>Node23&#45;&gt;Node7</title>
<path fill="none" stroke="#191970" d="M1547.5277,-61.9581C1609.4187,-50.9254 1711.1486,-32.7909 1776.5821,-21.1267"/>
<polygon fill="#191970" stroke="#191970" points="1777.5299,-24.513 1786.7604,-19.3123 1776.3014,-17.6216 1777.5299,-24.513"/>
</g>
<!-- Node23&#45;&gt;Node11 -->
<g id="edge35" class="edge">
<title>Node23&#45;&gt;Node11</title>
<path fill="none" stroke="#191970" d="M1524.1563,-61.8906C1557.2985,-51.3298 1610.6762,-34.3208 1647.2242,-22.6747"/>
<polygon fill="#191970" stroke="#191970" points="1648.5902,-25.9129 1657.0555,-19.5419 1646.4649,-19.2433 1648.5902,-25.9129"/>
</g>
<!-- Node24 -->
<g id="node25" class="node">
<title>Node24</title>
<polygon fill="#ffffff" stroke="#bfbfbf" points="1345.5,-.5 1345.5,-19.5 1440.5,-19.5 1440.5,-.5 1345.5,-.5"/>
<text text-anchor="middle" x="1393" y="-7.5" font-family="Helvetica,sans-Serif" font-size="10.00" fill="#000000">AMReX_Vector.H</text>
</g>
<!-- Node23&#45;&gt;Node24 -->
<g id="edge37" class="edge">
<title>Node23&#45;&gt;Node24</title>
<path fill="none" stroke="#191970" d="M1478.2188,-61.8906C1461.9125,-51.9616 1436.246,-36.333 1417.3386,-24.8201"/>
<polygon fill="#191970" stroke="#191970" points="1419.0319,-21.7533 1408.6704,-19.5419 1415.3913,-27.7322 1419.0319,-21.7533"/>
</g>
<!-- Node25 -->
<g id="node26" class="node">
<title>Node25</title>
<polygon fill="#ffffff" stroke="#bfbfbf" points="1459,-.5 1459,-19.5 1587,-19.5 1587,-.5 1459,-.5"/>
<text text-anchor="middle" x="1523" y="-7.5" font-family="Helvetica,sans-Serif" font-size="10.00" fill="#000000">AMReX_PhysBCFunct.H</text>
</g>
<!-- Node23&#45;&gt;Node25 -->
<g id="edge38" class="edge">
<title>Node23&#45;&gt;Node25</title>
<path fill="none" stroke="#191970" d="M1498.5313,-61.8906C1502.6781,-53.0965 1508.9332,-39.8312 1514.081,-28.9145"/>
<polygon fill="#191970" stroke="#191970" points="1517.3055,-30.2825 1518.4049,-19.7449 1510.9741,-27.2969 1517.3055,-30.2825"/>
</g>
<!-- Node26&#45;&gt;Node4 -->
<g id="edge43" class="edge">
<title>Node26&#45;&gt;Node4</title>
<path fill="none" stroke="#191970" d="M731.6529,-123.3766C730.8958,-104.5121 732.8351,-72.7108 752,-56 817.0342,.7065 1048.5368,-35.6284 1151.0913,-19.4791"/>
<polygon fill="#191970" stroke="#191970" points="1151.9865,-22.8733 1161.1893,-17.6237 1150.7214,-15.9886 1151.9865,-22.8733"/>
</g>
<!-- Node26&#45;&gt;Node10 -->
<g id="edge58" class="edge">
<title>Node26&#45;&gt;Node10</title>
<path fill="none" stroke="#191970" d="M724.2595,-123.2818C715.3149,-105.4707 704.6016,-75.8866 719,-56 729.0711,-42.0901 767.0798,-30.119 800.9552,-21.8785"/>
<polygon fill="#191970" stroke="#191970" points="801.9054,-25.2505 810.8353,-19.549 800.2989,-18.4373 801.9054,-25.2505"/>
</g>
<!-- Node26&#45;&gt;Node11 -->
<g id="edge57" class="edge">
<title>Node26&#45;&gt;Node11</title>
<path fill="none" stroke="#191970" d="M802.6995,-130.7678C829.0835,-128.0295 859.4031,-125.1085 887,-123 963.4372,-117.1598 1505.4868,-117.0772 1576,-87 1594.5096,-79.1048 1592.9015,-68.0738 1609,-56 1624.8312,-44.1266 1643.9519,-32.8081 1659.2998,-24.3695"/>
<polygon fill="#191970" stroke="#191970" points="1661.1682,-27.3384 1668.3053,-19.5082 1657.843,-21.1786 1661.1682,-27.3384"/>
</g>
<!-- Node27 -->
<g id="node28" class="node">
<title>Node27</title>
<g id="a_node28"><a xlink:href="_factory_8_h.html" target="_top" xlink:title="amr&#45;wind/core/Factory.H">
<polygon fill="#ffffff" stroke="#000000" points="541.5,-62 541.5,-81 666.5,-81 666.5,-62 541.5,-62"/>
<text text-anchor="middle" x="604" y="-69" font-family="Helvetica,sans-Serif" font-size="10.00" fill="#000000">amr&#45;wind/core/Factory.H</text>
</a>
</g>
</g>
<!-- Node26&#45;&gt;Node27 -->
<g id="edge44" class="edge">
<title>Node26&#45;&gt;Node27</title>
<path fill="none" stroke="#191970" d="M704.0499,-123.4639C682.3078,-112.1715 652.7284,-96.8086 631.3773,-85.7192"/>
<polygon fill="#191970" stroke="#191970" points="632.9788,-82.6071 622.4911,-81.1039 629.7523,-88.8192 632.9788,-82.6071"/>
</g>
<!-- Node31 -->
<g id="node32" class="node">
<title>Node31</title>
<g id="a_node32"><a xlink:href="_coll_mgr_8_h.html" target="_top" xlink:title="amr&#45;wind/core/CollMgr.H">
<polygon fill="#ffffff" stroke="#000000" points="761.5,-62 761.5,-81 886.5,-81 886.5,-62 761.5,-62"/>
<text text-anchor="middle" x="824" y="-69" font-family="Helvetica,sans-Serif" font-size="10.00" fill="#000000">amr&#45;wind/core/CollMgr.H</text>
</a>
</g>
</g>
<!-- Node26&#45;&gt;Node31 -->
<g id="edge50" class="edge">
<title>Node26&#45;&gt;Node31</title>
<path fill="none" stroke="#191970" d="M753.6493,-123.2967C768.3781,-112.4524 788.1186,-97.9182 802.9396,-87.006"/>
<polygon fill="#191970" stroke="#191970" points="805.0447,-89.8025 811.0224,-81.055 800.8944,-84.1655 805.0447,-89.8025"/>
</g>
<!-- Node32 -->
<g id="node33" class="node">
<title>Node32</title>
<g id="a_node33"><a xlink:href="_p_d_e_fields_8_h.html" target="_top" xlink:title="amr&#45;wind/equation_systems\l/PDEFields.H">
<polygon fill="#ffffff" stroke="#000000" points="384.5,-56.5 384.5,-86.5 523.5,-86.5 523.5,-56.5 384.5,-56.5"/>
<text text-anchor="start" x="392.5" y="-74.5" font-family="Helvetica,sans-Serif" font-size="10.00" fill="#000000">amr&#45;wind/equation_systems</text>
<text text-anchor="middle" x="454" y="-63.5" font-family="Helvetica,sans-Serif" font-size="10.00" fill="#000000">/PDEFields.H</text>
</a>
</g>
</g>
<!-- Node26&#45;&gt;Node32 -->
<g id="edge55" class="edge">
<title>Node26&#45;&gt;Node32</title>
<path fill="none" stroke="#191970" d="M670.387,-123.4639C627.818,-113.2412 571.3579,-99.6827 526.7843,-88.9787"/>
<polygon fill="#191970" stroke="#191970" points="527.427,-85.5336 516.8861,-86.6017 525.7924,-92.3401 527.427,-85.5336"/>
</g>
<!-- Node27&#45;&gt;Node5 -->
<g id="edge45" class="edge">
<title>Node27&#45;&gt;Node5</title>
<path fill="none" stroke="#191970" d="M611.0313,-61.8906C617.663,-52.8273 627.7696,-39.0149 635.8887,-27.9188"/>
<polygon fill="#191970" stroke="#191970" points="638.7891,-29.882 641.8696,-19.7449 633.1399,-25.7484 638.7891,-29.882"/>
</g>
<!-- Node27&#45;&gt;Node6 -->
<g id="edge46" class="edge">
<title>Node27&#45;&gt;Node6</title>
<path fill="none" stroke="#191970" d="M624.4688,-61.8906C646.1952,-51.6908 680.7335,-35.4763 705.4185,-23.8875"/>
<polygon fill="#191970" stroke="#191970" points="707.1103,-26.9598 714.675,-19.5419 704.1355,-20.6234 707.1103,-26.9598"/>
</g>
<!-- Node28 -->
<g id="node29" class="node">
<title>Node28</title>
<polygon fill="#ffffff" stroke="#bfbfbf" points="445,-.5 445,-19.5 499,-19.5 499,-.5 445,-.5"/>
<text text-anchor="middle" x="472" y="-7.5" font-family="Helvetica,sans-Serif" font-size="10.00" fill="#000000">iostream</text>
</g>
<!-- Node27&#45;&gt;Node28 -->
<g id="edge47" class="edge">
<title>Node27&#45;&gt;Node28</title>
<path fill="none" stroke="#191970" d="M583.375,-61.8906C561.4827,-51.6908 526.6807,-35.4763 501.8073,-23.8875"/>
<polygon fill="#191970" stroke="#191970" points="503.0228,-20.5926 492.4802,-19.5419 500.0665,-26.9377 503.0228,-20.5926"/>
</g>
<!-- Node29 -->
<g id="node30" class="node">
<title>Node29</title>
<polygon fill="#ffffff" stroke="#bfbfbf" points="517.5,-.5 517.5,-19.5 604.5,-19.5 604.5,-.5 517.5,-.5"/>
<text text-anchor="middle" x="561" y="-7.5" font-family="Helvetica,sans-Serif" font-size="10.00" fill="#000000">AMReX_Print.H</text>
</g>
<!-- Node27&#45;&gt;Node29 -->
<g id="edge48" class="edge">
<title>Node27&#45;&gt;Node29</title>
<path fill="none" stroke="#191970" d="M597.2813,-61.8906C591.007,-52.917 581.4777,-39.2879 573.7596,-28.2491"/>
<polygon fill="#191970" stroke="#191970" points="576.4121,-25.9348 567.8135,-19.7449 570.6753,-29.9459 576.4121,-25.9348"/>
</g>
<!-- Node30 -->
<g id="node31" class="node">
<title>Node30</title>
<polygon fill="#ffffff" stroke="#bfbfbf" points="365,-.5 365,-19.5 427,-19.5 427,-.5 365,-.5"/>
<text text-anchor="middle" x="396" y="-7.5" font-family="Helvetica,sans-Serif" font-size="10.00" fill="#000000">AMReX.H</text>
</g>
<!-- Node27&#45;&gt;Node30 -->
<g id="edge49" class="edge">
<title>Node27&#45;&gt;Node30</title>
<path fill="none" stroke="#191970" d="M571.5,-61.8906C535.2376,-51.1688 476.4974,-33.8009 437.0793,-22.146"/>
<polygon fill="#191970" stroke="#191970" points="437.8343,-18.7195 427.2522,-19.2404 435.8494,-25.4323 437.8343,-18.7195"/>
</g>
<!-- Node31&#45;&gt;Node4 -->
<g id="edge51" class="edge">
<title>Node31&#45;&gt;Node4</title>
<path fill="none" stroke="#191970" d="M865.7788,-61.9709C875.6606,-59.8656 886.1805,-57.745 896,-56 1006.0316,-36.4461 1038.3896,-45.7308 1151.7306,-19.669"/>
<polygon fill="#191970" stroke="#191970" points="1152.5459,-23.0729 1161.485,-17.3858 1150.9505,-16.2571 1152.5459,-23.0729"/>
</g>
<!-- Node31&#45;&gt;Node5 -->
<g id="edge52" class="edge">
<title>Node31&#45;&gt;Node5</title>
<path fill="none" stroke="#191970" d="M796.6563,-61.8906C766.5134,-51.2976 717.9102,-34.217 684.7634,-22.5683"/>
<polygon fill="#191970" stroke="#191970" points="685.6051,-19.1543 675.0103,-19.1408 683.2842,-25.7584 685.6051,-19.1543"/>
</g>
<!-- Node31&#45;&gt;Node6 -->
<g id="edge53" class="edge">
<title>Node31&#45;&gt;Node6</title>
<path fill="none" stroke="#191970" d="M810.0938,-61.8906C795.9862,-52.1421 773.9276,-36.8994 757.3615,-25.4521"/>
<polygon fill="#191970" stroke="#191970" points="759.0253,-22.3474 748.8086,-19.5419 755.0458,-28.1063 759.0253,-22.3474"/>
</g>
<!-- Node31&#45;&gt;Node24 -->
<g id="edge54" class="edge">
<title>Node31&#45;&gt;Node24</title>
<path fill="none" stroke="#191970" d="M863.8187,-61.9575C874.242,-59.7267 885.5014,-57.5518 896,-56 1087.3087,-27.7228 1140.2364,-44.7265 1335.3826,-20.1033"/>
<polygon fill="#191970" stroke="#191970" points="1335.9152,-23.5638 1345.3889,-18.8202 1335.0249,-16.6206 1335.9152,-23.5638"/>
</g>
<!-- Node33 -->
<g id="node34" class="node">
<title>Node33</title>
<polygon fill="#ffffff" stroke="#bfbfbf" points="301.5,-.5 301.5,-19.5 346.5,-19.5 346.5,-.5 301.5,-.5"/>
<text text-anchor="middle" x="324" y="-7.5" font-family="Helvetica,sans-Serif" font-size="10.00" fill="#000000">iosfwd</text>
</g>
<!-- Node32&#45;&gt;Node33 -->
<g id="edge56" class="edge">
<title>Node32&#45;&gt;Node33</title>
<path fill="none" stroke="#191970" d="M422.1984,-56.4554C401.1735,-46.509 373.8141,-33.5659 353.3157,-23.8686"/>
<polygon fill="#191970" stroke="#191970" points="354.6816,-20.6429 344.1454,-19.5303 351.6881,-26.9706 354.6816,-20.6429"/>
</g>
<!-- Node34&#45;&gt;Node7 -->
<g id="edge62" class="edge">
<title>Node34&#45;&gt;Node7</title>
<path fill="none" stroke="#191970" d="M1023.5297,-135.9467C1164.3532,-129.8834 1498.964,-113.1406 1609,-87 1644.4919,-78.5684 1650.5938,-68.1235 1685,-56 1721.0579,-43.2945 1762.6312,-31.0127 1793.4878,-22.3405"/>
<polygon fill="#191970" stroke="#191970" points="1794.8261,-25.6009 1803.5179,-19.5425 1792.9451,-18.8583 1794.8261,-25.6009"/>
</g>
<!-- Node34&#45;&gt;Node27 -->
<g id="edge60" class="edge">
<title>Node34&#45;&gt;Node27</title>
<path fill="none" stroke="#191970" d="M909.372,-128.9717C844.8767,-116.8335 733.5312,-95.8781 664.594,-82.9039"/>
<polygon fill="#191970" stroke="#191970" points="665.2161,-79.4596 654.7413,-81.0496 663.9214,-86.3389 665.2161,-79.4596"/>
</g>
<!-- Node34&#45;&gt;Node31 -->
<g id="edge61" class="edge">
<title>Node34&#45;&gt;Node31</title>
<path fill="none" stroke="#191970" d="M940.5145,-128.9005C917.4887,-117.5569 878.9772,-98.5844 852.5768,-85.5783"/>
<polygon fill="#191970" stroke="#191970" points="853.9666,-82.3613 843.4493,-81.0817 850.8731,-88.6407 853.9666,-82.3613"/>
</g>
<!-- Node35 -->
<g id="node36" class="node">
<title>Node35</title>
<polygon fill="#ffffff" stroke="#bfbfbf" points="905,-62 905,-81 1015,-81 1015,-62 905,-62"/>
<text text-anchor="middle" x="960" y="-69" font-family="Helvetica,sans-Serif" font-size="10.00" fill="#000000">AMReX_Geometry.H</text>
</g>
<!-- Node34&#45;&gt;Node35 -->
<g id="edge63" class="edge">
<title>Node34&#45;&gt;Node35</title>
<path fill="none" stroke="#191970" d="M960,-128.9005C960,-119.149 960,-103.7597 960,-91.3695"/>
<polygon fill="#191970" stroke="#191970" points="963.5001,-91.0816 960,-81.0817 956.5001,-91.0817 963.5001,-91.0816"/>
</g>
</g>
</svg>
