<?xml version="1.0" encoding="UTF-8" standalone="no"?>
<!DOCTYPE svg PUBLIC "-//W3C//DTD SVG 1.1//EN"
 "http://www.w3.org/Graphics/SVG/1.1/DTD/svg11.dtd">
<!-- Generated by graphviz version 2.40.1 (20161225.0304)
 -->
<!-- Title: SimTime.cpp Pages: 1 -->
<svg width="488pt" height="140pt"
 viewBox="0.00 0.00 488.00 140.00" xmlns="http://www.w3.org/2000/svg" xmlns:xlink="http://www.w3.org/1999/xlink">
<g id="graph0" class="graph" transform="scale(1 1) rotate(0) translate(4 136)">
<title>SimTime.cpp</title>
<polygon fill="#ffffff" stroke="transparent" points="-4,4 -4,-136 484,-136 484,4 -4,4"/>
<!-- Node0 -->
<g id="node1" class="node">
<title>Node0</title>
<polygon fill="#bfbfbf" stroke="#000000" points="279.5,-112.5 279.5,-131.5 353.5,-131.5 353.5,-112.5 279.5,-112.5"/>
<text text-anchor="middle" x="316.5" y="-119.5" font-family="Helvetica,sans-Serif" font-size="10.00" fill="#000000">SimTime.cpp</text>
</g>
<!-- Node1 -->
<g id="node2" class="node">
<title>Node1</title>
<g id="a_node2"><a xlink:href="_sim_time_8_h.html" target="_top" xlink:title="amr&#45;wind/core/SimTime.H">
<polygon fill="#ffffff" stroke="#000000" points="109,-56.5 109,-75.5 240,-75.5 240,-56.5 109,-56.5"/>
<text text-anchor="middle" x="174.5" y="-63.5" font-family="Helvetica,sans-Serif" font-size="10.00" fill="#000000">amr&#45;wind/core/SimTime.H</text>
</a>
</g>
</g>
<!-- Node0&#45;&gt;Node1 -->
<g id="edge1" class="edge">
<title>Node0&#45;&gt;Node1</title>
<path fill="none" stroke="#191970" d="M292.0893,-112.3733C268.8858,-103.2226 233.7962,-89.3844 207.9858,-79.2057"/>
<polygon fill="#191970" stroke="#191970" points="209.1789,-75.9139 198.5921,-75.5011 206.6108,-82.4258 209.1789,-75.9139"/>
</g>
<!-- Node5 -->
<g id="node6" class="node">
<title>Node5</title>
<polygon fill="#ffffff" stroke="#bfbfbf" points="258.5,-56.5 258.5,-75.5 374.5,-75.5 374.5,-56.5 258.5,-56.5"/>
<text text-anchor="middle" x="316.5" y="-63.5" font-family="Helvetica,sans-Serif" font-size="10.00" fill="#000000">AMReX_ParmParse.H</text>
</g>
<!-- Node0&#45;&gt;Node5 -->
<g id="edge5" class="edge">
<title>Node0&#45;&gt;Node5</title>
<path fill="none" stroke="#191970" d="M316.5,-112.2455C316.5,-104.9382 316.5,-94.6944 316.5,-85.7046"/>
<polygon fill="#191970" stroke="#191970" points="320.0001,-85.6426 316.5,-75.6427 313.0001,-85.6427 320.0001,-85.6426"/>
</g>
<!-- Node6 -->
<g id="node7" class="node">
<title>Node6</title>
<polygon fill="#ffffff" stroke="#bfbfbf" points="393,-56.5 393,-75.5 480,-75.5 480,-56.5 393,-56.5"/>
<text text-anchor="middle" x="436.5" y="-63.5" font-family="Helvetica,sans-Serif" font-size="10.00" fill="#000000">AMReX_Print.H</text>
</g>
<!-- Node0&#45;&gt;Node6 -->
<g id="edge6" class="edge">
<title>Node0&#45;&gt;Node6</title>
<path fill="none" stroke="#191970" d="M337.1287,-112.3733C356.3919,-103.3838 385.3486,-89.8706 407.0419,-79.7471"/>
<polygon fill="#191970" stroke="#191970" points="408.5587,-82.9017 416.1405,-75.5011 405.5985,-76.5584 408.5587,-82.9017"/>
</g>
<!-- Node2 -->
<g id="node3" class="node">
<title>Node2</title>
<polygon fill="#ffffff" stroke="#bfbfbf" points="0,-.5 0,-19.5 93,-19.5 93,-.5 0,-.5"/>
<text text-anchor="middle" x="46.5" y="-7.5" font-family="Helvetica,sans-Serif" font-size="10.00" fill="#000000">AMReX_REAL.H</text>
</g>
<!-- Node1&#45;&gt;Node2 -->
<g id="edge2" class="edge">
<title>Node1&#45;&gt;Node2</title>
<path fill="none" stroke="#191970" d="M152.496,-56.3733C131.8565,-47.3435 100.7842,-33.7494 77.6111,-23.6111"/>
<polygon fill="#191970" stroke="#191970" points="78.7813,-20.3028 68.2169,-19.5011 75.9755,-26.7159 78.7813,-20.3028"/>
</g>
<!-- Node3 -->
<g id="node4" class="node">
<title>Node3</title>
<polygon fill="#ffffff" stroke="#bfbfbf" points="111.5,-.5 111.5,-19.5 237.5,-19.5 237.5,-.5 111.5,-.5"/>
<text text-anchor="middle" x="174.5" y="-7.5" font-family="Helvetica,sans-Serif" font-size="10.00" fill="#000000">AMReX_GpuQualifiers.H</text>
</g>
<!-- Node1&#45;&gt;Node3 -->
<g id="edge3" class="edge">
<title>Node1&#45;&gt;Node3</title>
<path fill="none" stroke="#191970" d="M174.5,-56.2455C174.5,-48.9382 174.5,-38.6944 174.5,-29.7046"/>
<polygon fill="#191970" stroke="#191970" points="178.0001,-29.6426 174.5,-19.6427 171.0001,-29.6427 178.0001,-29.6426"/>
</g>
<!-- Node4 -->
<g id="node5" class="node">
<title>Node4</title>
<polygon fill="#ffffff" stroke="#bfbfbf" points="255.5,-.5 255.5,-19.5 365.5,-19.5 365.5,-.5 255.5,-.5"/>
<text text-anchor="middle" x="310.5" y="-7.5" font-family="Helvetica,sans-Serif" font-size="10.00" fill="#000000">AMReX_Extension.H</text>
</g>
<!-- Node1&#45;&gt;Node4 -->
<g id="edge4" class="edge">
<title>Node1&#45;&gt;Node4</title>
<path fill="none" stroke="#191970" d="M197.8792,-56.3733C220.0045,-47.2629 253.4134,-33.5062 278.1019,-23.3404"/>
<polygon fill="#191970" stroke="#191970" points="279.5117,-26.5451 287.4258,-19.5011 276.8464,-20.0723 279.5117,-26.5451"/>
</g>
</g>
</svg>
