<?xml version="1.0" encoding="UTF-8" standalone="no"?>
<!DOCTYPE svg PUBLIC "-//W3C//DTD SVG 1.1//EN"
 "http://www.w3.org/Graphics/SVG/1.1/DTD/svg11.dtd">
<!-- Generated by graphviz version 2.40.1 (20161225.0304)
 -->
<!-- Title: Smagorinsky.H Pages: 1 -->
<svg width="214pt" height="84pt"
 viewBox="0.00 0.00 213.50 84.00" xmlns="http://www.w3.org/2000/svg" xmlns:xlink="http://www.w3.org/1999/xlink">
<g id="graph0" class="graph" transform="scale(1 1) rotate(0) translate(4 80)">
<title>Smagorinsky.H</title>
<polygon fill="#ffffff" stroke="transparent" points="-4,4 -4,-80 209.5,-80 209.5,4 -4,4"/>
<!-- Node39 -->
<g id="node1" class="node">
<title>Node39</title>
<polygon fill="#bfbfbf" stroke="#000000" points="60,-56.5 60,-75.5 144,-75.5 144,-56.5 60,-56.5"/>
<text text-anchor="middle" x="102" y="-63.5" font-family="Helvetica,sans-Serif" font-size="10.00" fill="#000000">Smagorinsky.H</text>
</g>
<!-- Node40 -->
<g id="node2" class="node">
<title>Node40</title>
<g id="a_node2"><a xlink:href="_smagorinsky_8cpp.html" target="_top" xlink:title="Smagorinsky.cpp">
<polygon fill="#ffffff" stroke="#000000" points="0,-.5 0,-19.5 92,-19.5 92,-.5 0,-.5"/>
<text text-anchor="middle" x="46" y="-7.5" font-family="Helvetica,sans-Serif" font-size="10.00" fill="#000000">Smagorinsky.cpp</text>
</a>
</g>
</g>
<!-- Node39&#45;&gt;Node40 -->
<g id="edge1" class="edge">
<title>Node39&#45;&gt;Node40</title>
<path fill="none" stroke="#191970" d="M85.0751,-49.0751C75.4402,-39.4402 63.7196,-27.7196 55.6427,-19.6427"/>
<polygon fill="#191970" stroke="#191970" points="82.6996,-51.6493 92.2455,-56.2455 87.6493,-46.6996 82.6996,-51.6493"/>
</g>
<!-- Node41 -->
<g id="node3" class="node">
<title>Node41</title>
<g id="a_node3"><a xlink:href="turbulence__utils_8_h.html" target="_top" xlink:title="turbulence_utils.H">
<polygon fill="#ffffff" stroke="#000000" points="110.5,-.5 110.5,-19.5 205.5,-19.5 205.5,-.5 110.5,-.5"/>
<text text-anchor="middle" x="158" y="-7.5" font-family="Helvetica,sans-Serif" font-size="10.00" fill="#000000">turbulence_utils.H</text>
</a>
</g>
</g>
<!-- Node39&#45;&gt;Node41 -->
<g id="edge2" class="edge">
<title>Node39&#45;&gt;Node41</title>
<path fill="none" stroke="#191970" d="M118.9249,-49.0751C128.5598,-39.4402 140.2804,-27.7196 148.3573,-19.6427"/>
<polygon fill="#191970" stroke="#191970" points="116.3507,-46.6996 111.7545,-56.2455 121.3004,-51.6493 116.3507,-46.6996"/>
</g>
</g>
</svg>
