<?xml version="1.0" encoding="UTF-8" standalone="no"?>
<!DOCTYPE svg PUBLIC "-//W3C//DTD SVG 1.1//EN"
 "http://www.w3.org/Graphics/SVG/1.1/DTD/svg11.dtd">
<!-- Generated by graphviz version 2.40.1 (20161225.0304)
 -->
<!-- Title: Smagorinsky.H Pages: 1 -->
<!--zoomable 408 -->
<svg id="main" version="1.1" xmlns="http://www.w3.org/2000/svg" xmlns:xlink="http://www.w3.org/1999/xlink" xml:space="preserve" onload="init(evt)">
<style type="text/css"><![CDATA[
.edge:hover path { stroke: red; }
.edge:hover polygon { stroke: red; fill: red; }
]]></style>
<script type="text/javascript"><![CDATA[
var edges = document.getElementsByTagName('g');
if (edges && edges.length) {
  for (var i=0;i<edges.length;i++) {
    if (edges[i].id.substr(0,4)=='edge') {
      edges[i].setAttribute('class','edge');
    }
  }
}
]]></script>
        <defs>
                <circle id="rim" cx="0" cy="0" r="7"/>
                <circle id="rim2" cx="0" cy="0" r="3.5"/>
                <g id="zoomPlus">
                        <use xlink:href="#rim" fill="#404040">
                                <set attributeName="fill" to="#808080" begin="zoomplus.mouseover" end="zoomplus.mouseout"/>
                        </use>
                        <path d="M-4,0h8M0,-4v8" fill="none" stroke="white" stroke-width="1.5" pointer-events="none"/>
                </g>
                <g id="zoomMin">
                        <use xlink:href="#rim" fill="#404040">
                                <set attributeName="fill" to="#808080" begin="zoomminus.mouseover" end="zoomminus.mouseout"/>
                        </use>
                        <path d="M-4,0h8" fill="none" stroke="white" stroke-width="1.5" pointer-events="none"/>
                </g>
                <g id="dirArrow">
                        <path fill="none" stroke="white" stroke-width="1.5" d="M0,-3.0v7 M-2.5,-0.5L0,-3.0L2.5,-0.5"/>
                </g>
               <g id="resetDef">
                       <use xlink:href="#rim2" fill="#404040">
                               <set attributeName="fill" to="#808080" begin="reset.mouseover" end="reset.mouseout"/>
                       </use>
               </g>
        </defs>

<script type="text/javascript">
var viewWidth = 2258;
var viewHeight = 408;
var sectionId = 'dynsection-0';
</script>
<script xlink:href="svgpan.js"/>
<svg id="graph" class="graph">
<g id="viewport">
<title>Smagorinsky.H</title>
<polygon fill="#ffffff" stroke="transparent" points="-4,4 -4,-404 2253.737,-404 2253.737,4 -4,4"/>
<!-- Node0 -->
<g id="node1" class="node">
<title>Node0</title>
<polygon fill="#bfbfbf" stroke="#000000" points="565.737,-380.5 565.737,-399.5 649.737,-399.5 649.737,-380.5 565.737,-380.5"/>
<text text-anchor="middle" x="607.737" y="-387.5" font-family="Helvetica,sans-Serif" font-size="10.00" fill="#000000">Smagorinsky.H</text>
</g>
<!-- Node1 -->
<g id="node2" class="node">
<title>Node1</title>
<polygon fill="#ffffff" stroke="#bfbfbf" points="593.237,-.5 593.237,-19.5 634.237,-19.5 634.237,-.5 593.237,-.5"/>
<text text-anchor="middle" x="613.737" y="-7.5" font-family="Helvetica,sans-Serif" font-size="10.00" fill="#000000">string</text>
</g>
<!-- Node0&#45;&gt;Node1 -->
<g id="edge1" class="edge">
<title>Node0&#45;&gt;Node1</title>
<path fill="none" stroke="#191970" d="M607.737,-380.3281C607.737,-358.9175 607.737,-305.895 607.737,-261.5 607.737,-261.5 607.737,-261.5 607.737,-138.5 607.737,-99.9593 610.4635,-54.9871 612.2406,-29.7679"/>
<polygon fill="#191970" stroke="#191970" points="615.7407,-29.8927 612.9771,-19.6647 608.7593,-29.3837 615.7407,-29.8927"/>
</g>
<!-- Node2 -->
<g id="node3" class="node">
<title>Node2</title>
<g id="a_node3"><a xlink:href="_turb_model_base_8_h.html" target="_top" xlink:title="amr&#45;wind/turbulence\l/TurbModelBase.H">
<polygon fill="#ffffff" stroke="#000000" points="928.737,-313.5 928.737,-343.5 1032.737,-343.5 1032.737,-313.5 928.737,-313.5"/>
<text text-anchor="start" x="936.737" y="-331.5" font-family="Helvetica,sans-Serif" font-size="10.00" fill="#000000">amr&#45;wind/turbulence</text>
<text text-anchor="middle" x="980.737" y="-320.5" font-family="Helvetica,sans-Serif" font-size="10.00" fill="#000000">/TurbModelBase.H</text>
</a>
</g>
</g>
<!-- Node0&#45;&gt;Node2 -->
<g id="edge2" class="edge">
<title>Node0&#45;&gt;Node2</title>
<path fill="none" stroke="#191970" d="M649.7998,-383.0647C715.4418,-372.2417 842.5933,-351.2771 918.7498,-338.7204"/>
<polygon fill="#191970" stroke="#191970" points="919.3917,-342.1619 928.689,-337.0816 918.2528,-335.2552 919.3917,-342.1619"/>
</g>
<!-- Node18 -->
<g id="node19" class="node">
<title>Node18</title>
<g id="a_node19"><a xlink:href="_field_repo_8_h.html" target="_top" xlink:title="amr&#45;wind/core/FieldRepo.H">
<polygon fill="#ffffff" stroke="#000000" points="434.737,-129 434.737,-148 570.737,-148 570.737,-129 434.737,-129"/>
<text text-anchor="middle" x="502.737" y="-136" font-family="Helvetica,sans-Serif" font-size="10.00" fill="#000000">amr&#45;wind/core/FieldRepo.H</text>
</a>
</g>
</g>
<!-- Node0&#45;&gt;Node18 -->
<g id="edge72" class="edge">
<title>Node0&#45;&gt;Node18</title>
<path fill="none" stroke="#191970" d="M603.7491,-380.448C588.2214,-343.2554 531.6275,-207.6994 510.6395,-157.4283"/>
<polygon fill="#191970" stroke="#191970" points="513.8115,-155.9411 506.7289,-148.0615 507.3518,-158.638 513.8115,-155.9411"/>
</g>
<!-- Node3 -->
<g id="node4" class="node">
<title>Node3</title>
<g id="a_node4"><a xlink:href="_turb_model_8_h.html" target="_top" xlink:title="amr&#45;wind/turbulence\l/TurbModel.H">
<polygon fill="#ffffff" stroke="#000000" points="1052.737,-246.5 1052.737,-276.5 1156.737,-276.5 1156.737,-246.5 1052.737,-246.5"/>
<text text-anchor="start" x="1060.737" y="-264.5" font-family="Helvetica,sans-Serif" font-size="10.00" fill="#000000">amr&#45;wind/turbulence</text>
<text text-anchor="middle" x="1104.737" y="-253.5" font-family="Helvetica,sans-Serif" font-size="10.00" fill="#000000">/TurbModel.H</text>
</a>
</g>
</g>
<!-- Node2&#45;&gt;Node3 -->
<g id="edge3" class="edge">
<title>Node2&#45;&gt;Node3</title>
<path fill="none" stroke="#191970" d="M1008.5651,-313.4639C1025.9923,-304.0475 1048.658,-291.8008 1067.6079,-281.5617"/>
<polygon fill="#191970" stroke="#191970" points="1069.4388,-284.5507 1076.5729,-276.7177 1066.1112,-278.3922 1069.4388,-284.5507"/>
</g>
<!-- Node36 -->
<g id="node37" class="node">
<title>Node36</title>
<g id="a_node37"><a xlink:href="_i_o_manager_8_h.html" target="_top" xlink:title="amr&#45;wind/utilities\l/IOManager.H">
<polygon fill="#ffffff" stroke="#000000" points="2114.737,-56.5 2114.737,-86.5 2204.737,-86.5 2204.737,-56.5 2114.737,-56.5"/>
<text text-anchor="start" x="2122.737" y="-74.5" font-family="Helvetica,sans-Serif" font-size="10.00" fill="#000000">amr&#45;wind/utilities</text>
<text text-anchor="middle" x="2159.737" y="-63.5" font-family="Helvetica,sans-Serif" font-size="10.00" fill="#000000">/IOManager.H</text>
</a>
</g>
</g>
<!-- Node2&#45;&gt;Node36 -->
<g id="edge64" class="edge">
<title>Node2&#45;&gt;Node36</title>
<path fill="none" stroke="#191970" d="M1032.8406,-325.8039C1186.5324,-316.5673 1649.7874,-279.473 2009.737,-154 2053.7368,-138.6624 2100.1032,-111.1681 2129.4347,-92.1599"/>
<polygon fill="#191970" stroke="#191970" points="2131.5311,-94.9705 2137.9692,-86.5561 2127.6891,-89.1191 2131.5311,-94.9705"/>
</g>
<!-- Node38 -->
<g id="node39" class="node">
<title>Node38</title>
<g id="a_node39"><a xlink:href="field__ops_8_h.html" target="_top" xlink:title="amr&#45;wind/core/field\l_ops.H">
<polygon fill="#ffffff" stroke="#000000" points="643.237,-123.5 643.237,-153.5 742.237,-153.5 742.237,-123.5 643.237,-123.5"/>
<text text-anchor="start" x="651.237" y="-141.5" font-family="Helvetica,sans-Serif" font-size="10.00" fill="#000000">amr&#45;wind/core/field</text>
<text text-anchor="middle" x="692.737" y="-130.5" font-family="Helvetica,sans-Serif" font-size="10.00" fill="#000000">_ops.H</text>
</a>
</g>
</g>
<!-- Node2&#45;&gt;Node38 -->
<g id="edge69" class="edge">
<title>Node2&#45;&gt;Node38</title>
<path fill="none" stroke="#191970" d="M957.6556,-313.2727C906.2362,-279.3501 782.2232,-197.536 723.9625,-159.1001"/>
<polygon fill="#191970" stroke="#191970" points="725.8032,-156.1214 715.5286,-153.5361 721.9484,-161.9645 725.8032,-156.1214"/>
</g>
<!-- Node4 -->
<g id="node5" class="node">
<title>Node4</title>
<g id="a_node5"><a xlink:href="_turbulence_model_8_h.html" target="_top" xlink:title="amr&#45;wind/turbulence\l/TurbulenceModel.H">
<polygon fill="#ffffff" stroke="#000000" points="1896.737,-123.5 1896.737,-153.5 2000.737,-153.5 2000.737,-123.5 1896.737,-123.5"/>
<text text-anchor="start" x="1904.737" y="-141.5" font-family="Helvetica,sans-Serif" font-size="10.00" fill="#000000">amr&#45;wind/turbulence</text>
<text text-anchor="middle" x="1948.737" y="-130.5" font-family="Helvetica,sans-Serif" font-size="10.00" fill="#000000">/TurbulenceModel.H</text>
</a>
</g>
</g>
<!-- Node3&#45;&gt;Node4 -->
<g id="edge4" class="edge">
<title>Node3&#45;&gt;Node4</title>
<path fill="none" stroke="#191970" d="M1156.8961,-253.8986C1304.8634,-232.3347 1726.8771,-170.8327 1886.5264,-147.5662"/>
<polygon fill="#191970" stroke="#191970" points="1887.2664,-150.9955 1896.6571,-146.0899 1886.2568,-144.0686 1887.2664,-150.9955"/>
</g>
<!-- Node12 -->
<g id="node13" class="node">
<title>Node12</title>
<g id="a_node13"><a xlink:href="_c_f_d_sim_8_h.html" target="_top" xlink:title="amr&#45;wind/CFDSim.H">
<polygon fill="#ffffff" stroke="#000000" points="1050.737,-190.5 1050.737,-209.5 1158.737,-209.5 1158.737,-190.5 1050.737,-190.5"/>
<text text-anchor="middle" x="1104.737" y="-197.5" font-family="Helvetica,sans-Serif" font-size="10.00" fill="#000000">amr&#45;wind/CFDSim.H</text>
</a>
</g>
</g>
<!-- Node3&#45;&gt;Node12 -->
<g id="edge13" class="edge">
<title>Node3&#45;&gt;Node12</title>
<path fill="none" stroke="#191970" d="M1104.737,-246.2977C1104.737,-238.3834 1104.737,-228.6043 1104.737,-220.0759"/>
<polygon fill="#191970" stroke="#191970" points="1108.2371,-219.8469 1104.737,-209.8469 1101.2371,-219.847 1108.2371,-219.8469"/>
</g>
<!-- Node5 -->
<g id="node6" class="node">
<title>Node5</title>
<polygon fill="#ffffff" stroke="#bfbfbf" points="1741.237,-.5 1741.237,-19.5 1824.237,-19.5 1824.237,-.5 1741.237,-.5"/>
<text text-anchor="middle" x="1782.737" y="-7.5" font-family="Helvetica,sans-Serif" font-size="10.00" fill="#000000">unordered_map</text>
</g>
<!-- Node4&#45;&gt;Node5 -->
<g id="edge5" class="edge">
<title>Node4&#45;&gt;Node5</title>
<path fill="none" stroke="#191970" d="M2001.0986,-124.0796C2043.7695,-109.7734 2093.1318,-85.7191 2067.737,-56 2034.4147,-17.0034 1890.3336,-28.4321 1839.737,-20 1838.0337,-19.7161 1836.3022,-19.4253 1834.5539,-19.1297"/>
<polygon fill="#191970" stroke="#191970" points="1834.8844,-15.6355 1824.4376,-17.4004 1833.7048,-22.5355 1834.8844,-15.6355"/>
</g>
<!-- Node6 -->
<g id="node7" class="node">
<title>Node6</title>
<g id="a_node7"><a xlink:href="_factory_8_h.html" target="_top" xlink:title="amr&#45;wind/core/Factory.H">
<polygon fill="#ffffff" stroke="#000000" points="1933.237,-62 1933.237,-81 2058.237,-81 2058.237,-62 1933.237,-62"/>
<text text-anchor="middle" x="1995.737" y="-69" font-family="Helvetica,sans-Serif" font-size="10.00" fill="#000000">amr&#45;wind/core/Factory.H</text>
</a>
</g>
</g>
<!-- Node4&#45;&gt;Node6 -->
<g id="edge6" class="edge">
<title>Node4&#45;&gt;Node6</title>
<path fill="none" stroke="#191970" d="M1959.4021,-123.2967C1966.4405,-113.2631 1975.6948,-100.0709 1983.1022,-89.5113"/>
<polygon fill="#191970" stroke="#191970" points="1986.1567,-91.2516 1989.0343,-81.055 1980.4261,-87.2316 1986.1567,-91.2516"/>
</g>
<!-- Node11 -->
<g id="node12" class="node">
<title>Node11</title>
<g id="a_node12"><a xlink:href="_field_desc_types_8_h.html" target="_top" xlink:title="amr&#45;wind/core/FieldDescTypes.H">
<polygon fill="#ffffff" stroke="#000000" points="289.237,-.5 289.237,-19.5 452.237,-19.5 452.237,-.5 289.237,-.5"/>
<text text-anchor="middle" x="370.737" y="-7.5" font-family="Helvetica,sans-Serif" font-size="10.00" fill="#000000">amr&#45;wind/core/FieldDescTypes.H</text>
</a>
</g>
</g>
<!-- Node4&#45;&gt;Node11 -->
<g id="edge12" class="edge">
<title>Node4&#45;&gt;Node11</title>
<path fill="none" stroke="#191970" d="M1942.2434,-123.2548C1932.9527,-103.6254 1913.8271,-70.3378 1885.737,-56 1817.2477,-21.0416 611.92,-25.0595 462.849,-19.8046"/>
<polygon fill="#191970" stroke="#191970" points="462.7142,-16.2945 452.5607,-19.3203 462.385,-23.2867 462.7142,-16.2945"/>
</g>
<!-- Node6&#45;&gt;Node5 -->
<g id="edge8" class="edge">
<title>Node6&#45;&gt;Node5</title>
<path fill="none" stroke="#191970" d="M1962.4558,-61.8906C1925.5665,-51.2395 1865.9614,-34.0296 1825.6045,-22.3772"/>
<polygon fill="#191970" stroke="#191970" points="1826.3631,-18.9533 1815.7846,-19.5419 1824.4212,-25.6786 1826.3631,-18.9533"/>
</g>
<!-- Node7 -->
<g id="node8" class="node">
<title>Node7</title>
<polygon fill="#ffffff" stroke="#bfbfbf" points="1659.737,-.5 1659.737,-19.5 1711.737,-19.5 1711.737,-.5 1659.737,-.5"/>
<text text-anchor="middle" x="1685.737" y="-7.5" font-family="Helvetica,sans-Serif" font-size="10.00" fill="#000000">memory</text>
</g>
<!-- Node6&#45;&gt;Node7 -->
<g id="edge7" class="edge">
<title>Node6&#45;&gt;Node7</title>
<path fill="none" stroke="#191970" d="M1948.5114,-61.9356C1938.6741,-59.9596 1928.3692,-57.9016 1918.737,-56 1836.1306,-39.6918 1815.2525,-36.7621 1732.737,-20 1729.2804,-19.2978 1725.6835,-18.5548 1722.0869,-17.8036"/>
<polygon fill="#191970" stroke="#191970" points="1722.5755,-14.3298 1712.0686,-15.6919 1721.1317,-21.1792 1722.5755,-14.3298"/>
</g>
<!-- Node8 -->
<g id="node9" class="node">
<title>Node8</title>
<polygon fill="#ffffff" stroke="#bfbfbf" points="2033.737,-.5 2033.737,-19.5 2087.737,-19.5 2087.737,-.5 2033.737,-.5"/>
<text text-anchor="middle" x="2060.737" y="-7.5" font-family="Helvetica,sans-Serif" font-size="10.00" fill="#000000">iostream</text>
</g>
<!-- Node6&#45;&gt;Node8 -->
<g id="edge9" class="edge">
<title>Node6&#45;&gt;Node8</title>
<path fill="none" stroke="#191970" d="M2005.8933,-61.8906C2015.757,-52.5581 2030.9426,-38.1902 2042.8357,-26.9374"/>
<polygon fill="#191970" stroke="#191970" points="2045.5791,-29.1601 2050.4376,-19.7449 2040.7681,-24.0753 2045.5791,-29.1601"/>
</g>
<!-- Node9 -->
<g id="node10" class="node">
<title>Node9</title>
<polygon fill="#ffffff" stroke="#bfbfbf" points="1848.237,-.5 1848.237,-19.5 1935.237,-19.5 1935.237,-.5 1848.237,-.5"/>
<text text-anchor="middle" x="1891.737" y="-7.5" font-family="Helvetica,sans-Serif" font-size="10.00" fill="#000000">AMReX_Print.H</text>
</g>
<!-- Node6&#45;&gt;Node9 -->
<g id="edge10" class="edge">
<title>Node6&#45;&gt;Node9</title>
<path fill="none" stroke="#191970" d="M1979.487,-61.8906C1962.6202,-51.9165 1936.0271,-36.1908 1916.5336,-24.6633"/>
<polygon fill="#191970" stroke="#191970" points="1918.2621,-21.6194 1907.8729,-19.5419 1914.699,-27.6447 1918.2621,-21.6194"/>
</g>
<!-- Node10 -->
<g id="node11" class="node">
<title>Node10</title>
<polygon fill="#ffffff" stroke="#bfbfbf" points="1953.737,-.5 1953.737,-19.5 2015.737,-19.5 2015.737,-.5 1953.737,-.5"/>
<text text-anchor="middle" x="1984.737" y="-7.5" font-family="Helvetica,sans-Serif" font-size="10.00" fill="#000000">AMReX.H</text>
</g>
<!-- Node6&#45;&gt;Node10 -->
<g id="edge11" class="edge">
<title>Node6&#45;&gt;Node10</title>
<path fill="none" stroke="#191970" d="M1994.0183,-61.8906C1992.4935,-53.3657 1990.2172,-40.6392 1988.3006,-29.9235"/>
<polygon fill="#191970" stroke="#191970" points="1991.6861,-28.9724 1986.48,-19.7449 1984.7955,-30.2049 1991.6861,-28.9724"/>
</g>
<!-- Node13 -->
<g id="node14" class="node">
<title>Node13</title>
<polygon fill="#ffffff" stroke="#bfbfbf" points="805.737,-62 805.737,-81 911.737,-81 911.737,-62 805.737,-62"/>
<text text-anchor="middle" x="858.737" y="-69" font-family="Helvetica,sans-Serif" font-size="10.00" fill="#000000">AMReX_AmrCore.H</text>
</g>
<!-- Node12&#45;&gt;Node13 -->
<g id="edge14" class="edge">
<title>Node12&#45;&gt;Node13</title>
<path fill="none" stroke="#191970" d="M1086.2471,-190.3416C1043.3131,-167.9147 936.6877,-112.2181 886.147,-85.8178"/>
<polygon fill="#191970" stroke="#191970" points="887.5901,-82.6229 877.106,-81.0952 884.3491,-88.8275 887.5901,-82.6229"/>
</g>
<!-- Node14 -->
<g id="node15" class="node">
<title>Node14</title>
<g id="a_node15"><a xlink:href="_sim_time_8_h.html" target="_top" xlink:title="amr&#45;wind/core/SimTime.H">
<polygon fill="#ffffff" stroke="#000000" points="1039.237,-129 1039.237,-148 1170.237,-148 1170.237,-129 1039.237,-129"/>
<text text-anchor="middle" x="1104.737" y="-136" font-family="Helvetica,sans-Serif" font-size="10.00" fill="#000000">amr&#45;wind/core/SimTime.H</text>
</a>
</g>
</g>
<!-- Node12&#45;&gt;Node14 -->
<g id="edge15" class="edge">
<title>Node12&#45;&gt;Node14</title>
<path fill="none" stroke="#191970" d="M1104.737,-190.3906C1104.737,-181.8657 1104.737,-169.1392 1104.737,-158.4235"/>
<polygon fill="#191970" stroke="#191970" points="1108.2371,-158.2448 1104.737,-148.2449 1101.2371,-158.2449 1108.2371,-158.2448"/>
</g>
<!-- Node12&#45;&gt;Node18 -->
<g id="edge19" class="edge">
<title>Node12&#45;&gt;Node18</title>
<path fill="none" stroke="#191970" d="M1050.662,-195.0806C963.0484,-187.0287 784.6502,-170.2958 633.737,-154 616.7018,-152.1605 598.4349,-150.0723 581.1112,-148.038"/>
<polygon fill="#191970" stroke="#191970" points="581.3781,-144.5453 571.0367,-146.8486 580.5574,-151.497 581.3781,-144.5453"/>
</g>
<!-- Node29 -->
<g id="node30" class="node">
<title>Node29</title>
<g id="a_node30"><a xlink:href="_p_d_e_base_8_h.html" target="_top" xlink:title="amr&#45;wind/equation_systems\l/PDEBase.H">
<polygon fill="#ffffff" stroke="#000000" points="1368.237,-123.5 1368.237,-153.5 1507.237,-153.5 1507.237,-123.5 1368.237,-123.5"/>
<text text-anchor="start" x="1376.237" y="-141.5" font-family="Helvetica,sans-Serif" font-size="10.00" fill="#000000">amr&#45;wind/equation_systems</text>
<text text-anchor="middle" x="1437.737" y="-130.5" font-family="Helvetica,sans-Serif" font-size="10.00" fill="#000000">/PDEBase.H</text>
</a>
</g>
</g>
<!-- Node12&#45;&gt;Node29 -->
<g id="edge47" class="edge">
<title>Node12&#45;&gt;Node29</title>
<path fill="none" stroke="#191970" d="M1156.4029,-190.4581C1210.3321,-180.4982 1295.5995,-164.7506 1358.1391,-153.2005"/>
<polygon fill="#191970" stroke="#191970" points="1358.7749,-156.6424 1367.9729,-151.3844 1357.5035,-149.7588 1358.7749,-156.6424"/>
</g>
<!-- Node34 -->
<g id="node35" class="node">
<title>Node34</title>
<g id="a_node35"><a xlink:href="_physics_8_h.html" target="_top" xlink:title="amr&#45;wind/core/Physics.H">
<polygon fill="#ffffff" stroke="#000000" points="1622.237,-129 1622.237,-148 1749.237,-148 1749.237,-129 1622.237,-129"/>
<text text-anchor="middle" x="1685.737" y="-136" font-family="Helvetica,sans-Serif" font-size="10.00" fill="#000000">amr&#45;wind/core/Physics.H</text>
</a>
</g>
</g>
<!-- Node12&#45;&gt;Node34 -->
<g id="edge59" class="edge">
<title>Node12&#45;&gt;Node34</title>
<path fill="none" stroke="#191970" d="M1158.8744,-194.2695C1263.4384,-183.2012 1493.2969,-158.8702 1611.8258,-146.3237"/>
<polygon fill="#191970" stroke="#191970" points="1612.3241,-149.7906 1621.9001,-145.2573 1611.5872,-142.8294 1612.3241,-149.7906"/>
</g>
<!-- Node15 -->
<g id="node16" class="node">
<title>Node15</title>
<polygon fill="#ffffff" stroke="#bfbfbf" points="1058.237,-62 1058.237,-81 1151.237,-81 1151.237,-62 1058.237,-62"/>
<text text-anchor="middle" x="1104.737" y="-69" font-family="Helvetica,sans-Serif" font-size="10.00" fill="#000000">AMReX_REAL.H</text>
</g>
<!-- Node14&#45;&gt;Node15 -->
<g id="edge16" class="edge">
<title>Node14&#45;&gt;Node15</title>
<path fill="none" stroke="#191970" d="M1104.737,-128.9005C1104.737,-119.149 1104.737,-103.7597 1104.737,-91.3695"/>
<polygon fill="#191970" stroke="#191970" points="1108.2371,-91.0816 1104.737,-81.0817 1101.2371,-91.0817 1108.2371,-91.0816"/>
</g>
<!-- Node16 -->
<g id="node17" class="node">
<title>Node16</title>
<polygon fill="#ffffff" stroke="#bfbfbf" points="1169.737,-62 1169.737,-81 1295.737,-81 1295.737,-62 1169.737,-62"/>
<text text-anchor="middle" x="1232.737" y="-69" font-family="Helvetica,sans-Serif" font-size="10.00" fill="#000000">AMReX_GpuQualifiers.H</text>
</g>
<!-- Node14&#45;&gt;Node16 -->
<g id="edge17" class="edge">
<title>Node14&#45;&gt;Node16</title>
<path fill="none" stroke="#191970" d="M1123.0763,-128.9005C1144.6527,-117.6067 1180.6761,-98.7506 1205.5137,-85.7497"/>
<polygon fill="#191970" stroke="#191970" points="1207.1952,-88.8201 1214.4318,-81.0817 1203.949,-82.6183 1207.1952,-88.8201"/>
</g>
<!-- Node17 -->
<g id="node18" class="node">
<title>Node17</title>
<polygon fill="#ffffff" stroke="#bfbfbf" points="929.737,-62 929.737,-81 1039.737,-81 1039.737,-62 929.737,-62"/>
<text text-anchor="middle" x="984.737" y="-69" font-family="Helvetica,sans-Serif" font-size="10.00" fill="#000000">AMReX_Extension.H</text>
</g>
<!-- Node14&#45;&gt;Node17 -->
<g id="edge18" class="edge">
<title>Node14&#45;&gt;Node17</title>
<path fill="none" stroke="#191970" d="M1087.544,-128.9005C1067.4944,-117.7062 1034.1382,-99.0823 1010.8768,-86.0947"/>
<polygon fill="#191970" stroke="#191970" points="1012.3357,-82.9007 1001.8982,-81.0817 1008.9232,-89.0126 1012.3357,-82.9007"/>
</g>
<!-- Node18&#45;&gt;Node1 -->
<g id="edge20" class="edge">
<title>Node18&#45;&gt;Node1</title>
<path fill="none" stroke="#191970" d="M511.0801,-128.8416C529.7224,-107.2602 574.9773,-54.8706 598.6848,-27.4254"/>
<polygon fill="#191970" stroke="#191970" points="601.4088,-29.626 605.2972,-19.7705 596.1115,-25.0501 601.4088,-29.626"/>
</g>
<!-- Node18&#45;&gt;Node5 -->
<g id="edge21" class="edge">
<title>Node18&#45;&gt;Node5</title>
<path fill="none" stroke="#191970" d="M568.4025,-128.975C632.7053,-118.9916 725.6892,-102.6152 758.737,-87 778.4438,-77.6885 776.3508,-63.7111 796.737,-56 892.8367,-19.6502 1618.4999,-30.1988 1720.737,-20 1724.1494,-19.6596 1727.6592,-19.2519 1731.191,-18.7985"/>
<polygon fill="#191970" stroke="#191970" points="1731.7157,-22.2594 1741.1397,-17.4181 1730.7535,-15.3258 1731.7157,-22.2594"/>
</g>
<!-- Node18&#45;&gt;Node11 -->
<g id="edge22" class="edge">
<title>Node18&#45;&gt;Node11</title>
<path fill="none" stroke="#191970" d="M434.3934,-136.2271C307.1234,-131.2869 44.153,-117.4746 16.737,-87 7.5223,-76.7572 7.644,-66.351 16.737,-56 21.0789,-51.0574 175.4801,-32.4253 278.9146,-20.444"/>
<polygon fill="#191970" stroke="#191970" points="279.5387,-23.8953 289.0706,-19.27 278.7348,-16.9416 279.5387,-23.8953"/>
</g>
<!-- Node18&#45;&gt;Node13 -->
<g id="edge44" class="edge">
<title>Node18&#45;&gt;Node13</title>
<path fill="none" stroke="#191970" d="M561.3004,-128.9645C619.802,-119.2275 712.2245,-103.2709 791.737,-87 797.4319,-85.8346 803.384,-84.5519 809.2896,-83.2386"/>
<polygon fill="#191970" stroke="#191970" points="810.148,-86.633 819.1306,-81.0148 808.605,-79.8051 810.148,-86.633"/>
</g>
<!-- Node19 -->
<g id="node20" class="node">
<title>Node19</title>
<g id="a_node20"><a xlink:href="_field_utils_8_h.html" target="_top" xlink:title="amr&#45;wind/core/FieldUtils.H">
<polygon fill="#ffffff" stroke="#000000" points="26.237,-62 26.237,-81 159.237,-81 159.237,-62 26.237,-62"/>
<text text-anchor="middle" x="92.737" y="-69" font-family="Helvetica,sans-Serif" font-size="10.00" fill="#000000">amr&#45;wind/core/FieldUtils.H</text>
</a>
</g>
</g>
<!-- Node18&#45;&gt;Node19 -->
<g id="edge23" class="edge">
<title>Node18&#45;&gt;Node19</title>
<path fill="none" stroke="#191970" d="M434.7703,-128.9998C367.1689,-119.3203 260.5656,-103.4338 168.737,-87 161.9685,-85.7887 154.8764,-84.4439 147.8591,-83.0671"/>
<polygon fill="#191970" stroke="#191970" points="148.169,-79.5602 137.6779,-81.0389 146.8013,-86.4253 148.169,-79.5602"/>
</g>
<!-- Node20 -->
<g id="node21" class="node">
<title>Node20</title>
<polygon fill="#ffffff" stroke="#bfbfbf" points="470.737,-.5 470.737,-19.5 574.737,-19.5 574.737,-.5 470.737,-.5"/>
<text text-anchor="middle" x="522.737" y="-7.5" font-family="Helvetica,sans-Serif" font-size="10.00" fill="#000000">AMReX_MultiFab.H</text>
</g>
<!-- Node18&#45;&gt;Node20 -->
<g id="edge45" class="edge">
<title>Node18&#45;&gt;Node20</title>
<path fill="none" stroke="#191970" d="M504.2403,-128.8416C507.4979,-107.9114 515.2656,-58.004 519.6279,-29.9762"/>
<polygon fill="#191970" stroke="#191970" points="523.1367,-30.1898 521.2163,-19.7705 516.22,-29.1132 523.1367,-30.1898"/>
</g>
<!-- Node22 -->
<g id="node23" class="node">
<title>Node22</title>
<g id="a_node23"><a xlink:href="_field_8_h.html" target="_top" xlink:title="amr&#45;wind/core/Field.H">
<polygon fill="#ffffff" stroke="#000000" points="636.237,-62 636.237,-81 749.237,-81 749.237,-62 636.237,-62"/>
<text text-anchor="middle" x="692.737" y="-69" font-family="Helvetica,sans-Serif" font-size="10.00" fill="#000000">amr&#45;wind/core/Field.H</text>
</a>
</g>
</g>
<!-- Node18&#45;&gt;Node22 -->
<g id="edge27" class="edge">
<title>Node18&#45;&gt;Node22</title>
<path fill="none" stroke="#191970" d="M529.9594,-128.9005C562.9744,-117.2584 618.7773,-97.5805 655.6896,-84.5641"/>
<polygon fill="#191970" stroke="#191970" points="657.2983,-87.7081 665.5652,-81.0817 654.9704,-81.1065 657.2983,-87.7081"/>
</g>
<!-- Node26 -->
<g id="node27" class="node">
<title>Node26</title>
<g id="a_node27"><a xlink:href="_int_field_8_h.html" target="_top" xlink:title="amr&#45;wind/core/IntField.H">
<polygon fill="#ffffff" stroke="#000000" points="177.737,-62 177.737,-81 301.737,-81 301.737,-62 177.737,-62"/>
<text text-anchor="middle" x="239.737" y="-69" font-family="Helvetica,sans-Serif" font-size="10.00" fill="#000000">amr&#45;wind/core/IntField.H</text>
</a>
</g>
</g>
<!-- Node18&#45;&gt;Node26 -->
<g id="edge36" class="edge">
<title>Node18&#45;&gt;Node26</title>
<path fill="none" stroke="#191970" d="M465.3349,-128.9717C418.5357,-117.0495 338.3456,-96.6208 287.2489,-83.6038"/>
<polygon fill="#191970" stroke="#191970" points="287.9906,-80.181 277.436,-81.1039 286.2624,-86.9643 287.9906,-80.181"/>
</g>
<!-- Node27 -->
<g id="node28" class="node">
<title>Node27</title>
<polygon fill="#ffffff" stroke="#bfbfbf" points="164.237,-.5 164.237,-19.5 271.237,-19.5 271.237,-.5 164.237,-.5"/>
<text text-anchor="middle" x="217.737" y="-7.5" font-family="Helvetica,sans-Serif" font-size="10.00" fill="#000000">AMReX_iMultiFab.H</text>
</g>
<!-- Node18&#45;&gt;Node27 -->
<g id="edge46" class="edge">
<title>Node18&#45;&gt;Node27</title>
<path fill="none" stroke="#191970" d="M434.4978,-136.3886C305.1982,-131.681 34.8524,-118.1858 6.737,-87 -2.4885,-76.7669 -1.9057,-66.7299 6.737,-56 11.5339,-50.0447 95.9325,-32.9939 156.5128,-21.4106"/>
<polygon fill="#191970" stroke="#191970" points="157.2222,-24.8385 166.3911,-19.5298 155.9129,-17.9621 157.2222,-24.8385"/>
</g>
<!-- Node28 -->
<g id="node29" class="node">
<title>Node28</title>
<g id="a_node29"><a xlink:href="_scratch_field_8_h.html" target="_top" xlink:title="amr&#45;wind/core/ScratchField.H">
<polygon fill="#ffffff" stroke="#000000" points="319.737,-62 319.737,-81 465.737,-81 465.737,-62 319.737,-62"/>
<text text-anchor="middle" x="392.737" y="-69" font-family="Helvetica,sans-Serif" font-size="10.00" fill="#000000">amr&#45;wind/core/ScratchField.H</text>
</a>
</g>
</g>
<!-- Node18&#45;&gt;Node28 -->
<g id="edge40" class="edge">
<title>Node18&#45;&gt;Node28</title>
<path fill="none" stroke="#191970" d="M486.9767,-128.9005C468.7613,-117.8057 438.5641,-99.4128 417.2693,-86.4424"/>
<polygon fill="#191970" stroke="#191970" points="418.8293,-83.2945 408.4681,-81.0817 415.1879,-89.2728 418.8293,-83.2945"/>
</g>
<!-- Node19&#45;&gt;Node11 -->
<g id="edge24" class="edge">
<title>Node19&#45;&gt;Node11</title>
<path fill="none" stroke="#191970" d="M135.8695,-61.9581C184.8698,-51.1181 264.8603,-33.4224 317.651,-21.7439"/>
<polygon fill="#191970" stroke="#191970" points="318.4955,-25.1417 327.5034,-19.5643 316.9834,-18.307 318.4955,-25.1417"/>
</g>
<!-- Node19&#45;&gt;Node20 -->
<g id="edge25" class="edge">
<title>Node19&#45;&gt;Node20</title>
<path fill="none" stroke="#191970" d="M136.4345,-61.9769C146.9814,-59.8477 158.238,-57.7151 168.737,-56 297.7868,-34.9186 331.2797,-38.4138 460.737,-20 460.8382,-19.9856 460.9395,-19.9712 461.0409,-19.9567"/>
<polygon fill="#191970" stroke="#191970" points="461.2781,-23.4595 470.6632,-18.5433 460.2607,-16.5339 461.2781,-23.4595"/>
</g>
<!-- Node21 -->
<g id="node22" class="node">
<title>Node21</title>
<polygon fill="#ffffff" stroke="#bfbfbf" points="29.737,-.5 29.737,-19.5 145.737,-19.5 145.737,-.5 29.737,-.5"/>
<text text-anchor="middle" x="87.737" y="-7.5" font-family="Helvetica,sans-Serif" font-size="10.00" fill="#000000">AMReX_Interpolater.H</text>
</g>
<!-- Node19&#45;&gt;Node21 -->
<g id="edge26" class="edge">
<title>Node19&#45;&gt;Node21</title>
<path fill="none" stroke="#191970" d="M91.9558,-61.8906C91.2627,-53.3657 90.228,-40.6392 89.3568,-29.9235"/>
<polygon fill="#191970" stroke="#191970" points="92.8282,-29.4283 88.5293,-19.7449 85.8512,-29.9956 92.8282,-29.4283"/>
</g>
<!-- Node22&#45;&gt;Node1 -->
<g id="edge28" class="edge">
<title>Node22&#45;&gt;Node1</title>
<path fill="none" stroke="#191970" d="M680.3933,-61.8906C667.9868,-52.2324 648.6527,-37.1812 633.9957,-25.771"/>
<polygon fill="#191970" stroke="#191970" points="636.035,-22.923 625.9941,-19.5419 631.7349,-28.4466 636.035,-22.923"/>
</g>
<!-- Node22&#45;&gt;Node5 -->
<g id="edge30" class="edge">
<title>Node22&#45;&gt;Node5</title>
<path fill="none" stroke="#191970" d="M730.4737,-61.961C741.1599,-59.6152 752.8479,-57.3823 763.737,-56 1185.9826,-2.3984 1297.1768,-61.9658 1720.737,-20 1724.1497,-19.6619 1727.6596,-19.2559 1731.1915,-18.8038"/>
<polygon fill="#191970" stroke="#191970" points="1731.7152,-22.2648 1741.1405,-17.4258 1730.7548,-15.331 1731.7152,-22.2648"/>
</g>
<!-- Node22&#45;&gt;Node7 -->
<g id="edge29" class="edge">
<title>Node22&#45;&gt;Node7</title>
<path fill="none" stroke="#191970" d="M730.8491,-61.931C741.4351,-59.6151 752.978,-57.4049 763.737,-56 1118.4175,-9.6871 1210.7928,-43.1069 1567.737,-20 1595.1363,-18.2263 1626.0611,-15.5818 1649.3768,-13.4577"/>
<polygon fill="#191970" stroke="#191970" points="1649.8774,-16.9265 1659.514,-12.5234 1649.2349,-9.956 1649.8774,-16.9265"/>
</g>
<!-- Node22&#45;&gt;Node11 -->
<g id="edge35" class="edge">
<title>Node22&#45;&gt;Node11</title>
<path fill="none" stroke="#191970" d="M642.7778,-61.9581C585.4664,-51.012 491.5537,-33.0752 430.4385,-21.4026"/>
<polygon fill="#191970" stroke="#191970" points="431.0276,-17.9519 420.5485,-19.5137 429.7143,-24.8276 431.0276,-17.9519"/>
</g>
<!-- Node22&#45;&gt;Node20 -->
<g id="edge31" class="edge">
<title>Node22&#45;&gt;Node20</title>
<path fill="none" stroke="#191970" d="M666.1745,-61.8906C637.2314,-51.42 590.7676,-34.6111 558.6014,-22.9745"/>
<polygon fill="#191970" stroke="#191970" points="559.7073,-19.6526 549.113,-19.5419 557.3259,-26.2351 559.7073,-19.6526"/>
</g>
<!-- Node23 -->
<g id="node24" class="node">
<title>Node23</title>
<polygon fill="#ffffff" stroke="#bfbfbf" points="652.237,-.5 652.237,-19.5 751.237,-19.5 751.237,-.5 652.237,-.5"/>
<text text-anchor="middle" x="701.737" y="-7.5" font-family="Helvetica,sans-Serif" font-size="10.00" fill="#000000">AMReX_BCRec.H</text>
</g>
<!-- Node22&#45;&gt;Node23 -->
<g id="edge32" class="edge">
<title>Node22&#45;&gt;Node23</title>
<path fill="none" stroke="#191970" d="M694.1433,-61.8906C695.3908,-53.3657 697.2533,-40.6392 698.8214,-29.9235"/>
<polygon fill="#191970" stroke="#191970" points="702.326,-30.1463 700.311,-19.7449 695.3998,-29.1326 702.326,-30.1463"/>
</g>
<!-- Node24 -->
<g id="node25" class="node">
<title>Node24</title>
<polygon fill="#ffffff" stroke="#bfbfbf" points="769.237,-.5 769.237,-19.5 854.237,-19.5 854.237,-.5 769.237,-.5"/>
<text text-anchor="middle" x="811.737" y="-7.5" font-family="Helvetica,sans-Serif" font-size="10.00" fill="#000000">AMReX_Gpu.H</text>
</g>
<!-- Node22&#45;&gt;Node24 -->
<g id="edge33" class="edge">
<title>Node22&#45;&gt;Node24</title>
<path fill="none" stroke="#191970" d="M711.3308,-61.8906C730.8924,-51.7811 761.8871,-35.7628 784.2679,-24.1962"/>
<polygon fill="#191970" stroke="#191970" points="785.997,-27.2425 793.2739,-19.5419 782.7832,-21.0238 785.997,-27.2425"/>
</g>
<!-- Node25 -->
<g id="node26" class="node">
<title>Node25</title>
<g id="a_node26"><a xlink:href="incflo__enums_8_h.html" target="_top" xlink:title="amr&#45;wind/incflo_enums.H">
<polygon fill="#ffffff" stroke="#000000" points="1122.737,-.5 1122.737,-19.5 1250.737,-19.5 1250.737,-.5 1122.737,-.5"/>
<text text-anchor="middle" x="1186.737" y="-7.5" font-family="Helvetica,sans-Serif" font-size="10.00" fill="#000000">amr&#45;wind/incflo_enums.H</text>
</a>
</g>
</g>
<!-- Node22&#45;&gt;Node25 -->
<g id="edge34" class="edge">
<title>Node22&#45;&gt;Node25</title>
<path fill="none" stroke="#191970" d="M732.771,-61.9788C742.8391,-59.8002 753.6507,-57.6446 763.737,-56 885.2906,-36.1805 1027.9294,-22.6658 1112.6337,-15.6501"/>
<polygon fill="#191970" stroke="#191970" points="1112.9906,-19.1327 1122.671,-14.8268 1112.4183,-12.1561 1112.9906,-19.1327"/>
</g>
<!-- Node26&#45;&gt;Node1 -->
<g id="edge37" class="edge">
<title>Node26&#45;&gt;Node1</title>
<path fill="none" stroke="#191970" d="M280.5452,-61.9781C290.3987,-59.8489 300.9187,-57.716 310.737,-56 428.1147,-35.4857 462.6666,-46.8371 583.2392,-19.7005"/>
<polygon fill="#191970" stroke="#191970" points="584.2631,-23.0567 593.2276,-17.4098 582.6983,-16.2338 584.2631,-23.0567"/>
</g>
<!-- Node26&#45;&gt;Node11 -->
<g id="edge38" class="edge">
<title>Node26&#45;&gt;Node11</title>
<path fill="none" stroke="#191970" d="M260.2058,-61.8906C281.9322,-51.6908 316.4705,-35.4763 341.1556,-23.8875"/>
<polygon fill="#191970" stroke="#191970" points="342.8473,-26.9598 350.412,-19.5419 339.8725,-20.6234 342.8473,-26.9598"/>
</g>
<!-- Node26&#45;&gt;Node27 -->
<g id="edge39" class="edge">
<title>Node26&#45;&gt;Node27</title>
<path fill="none" stroke="#191970" d="M236.2995,-61.8906C233.1858,-53.1862 228.5051,-40.1015 224.623,-29.2494"/>
<polygon fill="#191970" stroke="#191970" points="227.8868,-27.9817 221.223,-19.7449 221.2958,-30.3394 227.8868,-27.9817"/>
</g>
<!-- Node28&#45;&gt;Node1 -->
<g id="edge41" class="edge">
<title>Node28&#45;&gt;Node1</title>
<path fill="none" stroke="#191970" d="M430.6114,-61.9834C467.2426,-52.6251 524.5163,-37.5892 583.3021,-20.0046"/>
<polygon fill="#191970" stroke="#191970" points="584.5648,-23.2796 593.1307,-17.0446 582.5462,-16.577 584.5648,-23.2796"/>
</g>
<!-- Node28&#45;&gt;Node11 -->
<g id="edge42" class="edge">
<title>Node28&#45;&gt;Node11</title>
<path fill="none" stroke="#191970" d="M389.2995,-61.8906C386.1858,-53.1862 381.5051,-40.1015 377.623,-29.2494"/>
<polygon fill="#191970" stroke="#191970" points="380.8868,-27.9817 374.223,-19.7449 374.2958,-30.3394 380.8868,-27.9817"/>
</g>
<!-- Node28&#45;&gt;Node20 -->
<g id="edge43" class="edge">
<title>Node28&#45;&gt;Node20</title>
<path fill="none" stroke="#191970" d="M413.0495,-61.8906C434.6101,-51.6908 468.8848,-35.4763 493.3814,-23.8875"/>
<polygon fill="#191970" stroke="#191970" points="495.0244,-26.9822 502.5672,-19.5419 492.0309,-20.6545 495.0244,-26.9822"/>
</g>
<!-- Node29&#45;&gt;Node1 -->
<g id="edge48" class="edge">
<title>Node29&#45;&gt;Node1</title>
<path fill="none" stroke="#191970" d="M1425.064,-123.2349C1407.6978,-103.5834 1374.4474,-70.2714 1337.737,-56 1196.5507,-1.1129 810.8094,-47.5095 644.6015,-19.7654"/>
<polygon fill="#191970" stroke="#191970" points="644.919,-16.2659 634.4547,-17.9236 643.6688,-23.1533 644.919,-16.2659"/>
</g>
<!-- Node29&#45;&gt;Node6 -->
<g id="edge49" class="edge">
<title>Node29&#45;&gt;Node6</title>
<path fill="none" stroke="#191970" d="M1507.2592,-131.0645C1595.3925,-121.5106 1751.9724,-104.11 1885.737,-87 1897.6933,-85.4707 1910.3681,-83.7642 1922.6978,-82.0583"/>
<polygon fill="#191970" stroke="#191970" points="1923.5293,-85.4763 1932.9504,-80.6293 1922.5629,-78.5433 1923.5293,-85.4763"/>
</g>
<!-- Node29&#45;&gt;Node11 -->
<g id="edge57" class="edge">
<title>Node29&#45;&gt;Node11</title>
<path fill="none" stroke="#191970" d="M1409.7167,-123.4588C1391.7258,-113.56 1368.0177,-100.062 1347.737,-87 1327.93,-74.243 1326.9975,-63.7158 1304.737,-56 1130.5148,4.3882 664.5159,-32.9599 462.565,-19.9553"/>
<polygon fill="#191970" stroke="#191970" points="462.7862,-16.4623 452.5655,-19.2529 462.2957,-23.4451 462.7862,-16.4623"/>
</g>
<!-- Node29&#45;&gt;Node25 -->
<g id="edge58" class="edge">
<title>Node29&#45;&gt;Node25</title>
<path fill="none" stroke="#191970" d="M1437.7792,-123.293C1436.9613,-104.6423 1432.6175,-73.3722 1413.737,-56 1391.6845,-35.7091 1318.3602,-23.4525 1260.9437,-16.7531"/>
<polygon fill="#191970" stroke="#191970" points="1261.1178,-13.2506 1250.7881,-15.6059 1260.332,-20.2063 1261.1178,-13.2506"/>
</g>
<!-- Node30 -->
<g id="node31" class="node">
<title>Node30</title>
<g id="a_node31"><a xlink:href="_coll_mgr_8_h.html" target="_top" xlink:title="amr&#45;wind/core/CollMgr.H">
<polygon fill="#ffffff" stroke="#000000" points="1623.237,-62 1623.237,-81 1748.237,-81 1748.237,-62 1623.237,-62"/>
<text text-anchor="middle" x="1685.737" y="-69" font-family="Helvetica,sans-Serif" font-size="10.00" fill="#000000">amr&#45;wind/core/CollMgr.H</text>
</a>
</g>
</g>
<!-- Node29&#45;&gt;Node30 -->
<g id="edge50" class="edge">
<title>Node29&#45;&gt;Node30</title>
<path fill="none" stroke="#191970" d="M1493.3931,-123.4639C1537.8541,-111.4522 1599.3628,-94.835 1640.7477,-83.6544"/>
<polygon fill="#191970" stroke="#191970" points="1641.8123,-86.9923 1650.5533,-81.0053 1639.9865,-80.2346 1641.8123,-86.9923"/>
</g>
<!-- Node32 -->
<g id="node33" class="node">
<title>Node32</title>
<g id="a_node33"><a xlink:href="_p_d_e_fields_8_h.html" target="_top" xlink:title="amr&#45;wind/equation_systems\l/PDEFields.H">
<polygon fill="#ffffff" stroke="#000000" points="1466.237,-56.5 1466.237,-86.5 1605.237,-86.5 1605.237,-56.5 1466.237,-56.5"/>
<text text-anchor="start" x="1474.237" y="-74.5" font-family="Helvetica,sans-Serif" font-size="10.00" fill="#000000">amr&#45;wind/equation_systems</text>
<text text-anchor="middle" x="1535.737" y="-63.5" font-family="Helvetica,sans-Serif" font-size="10.00" fill="#000000">/PDEFields.H</text>
</a>
</g>
</g>
<!-- Node29&#45;&gt;Node32 -->
<g id="edge55" class="edge">
<title>Node29&#45;&gt;Node32</title>
<path fill="none" stroke="#191970" d="M1459.9748,-123.2967C1473.3818,-114.1306 1490.6447,-102.3285 1505.3051,-92.3055"/>
<polygon fill="#191970" stroke="#191970" points="1507.3075,-95.1763 1513.5873,-86.6432 1503.3568,-89.3977 1507.3075,-95.1763"/>
</g>
<!-- Node30&#45;&gt;Node1 -->
<g id="edge51" class="edge">
<title>Node30&#45;&gt;Node1</title>
<path fill="none" stroke="#191970" d="M1648.0009,-61.9569C1637.3147,-59.6111 1625.6266,-57.3792 1614.737,-56 1189.2173,-2.1081 1069.5586,-97.8075 644.5442,-19.8361"/>
<polygon fill="#191970" stroke="#191970" points="644.9183,-16.3458 634.4474,-17.9618 643.6406,-23.2282 644.9183,-16.3458"/>
</g>
<!-- Node30&#45;&gt;Node5 -->
<g id="edge53" class="edge">
<title>Node30&#45;&gt;Node5</title>
<path fill="none" stroke="#191970" d="M1700.8933,-61.8906C1716.4113,-52.0519 1740.7563,-36.6167 1758.8655,-25.1351"/>
<polygon fill="#191970" stroke="#191970" points="1761.1158,-27.8526 1767.6872,-19.5419 1757.3675,-21.9407 1761.1158,-27.8526"/>
</g>
<!-- Node30&#45;&gt;Node7 -->
<g id="edge52" class="edge">
<title>Node30&#45;&gt;Node7</title>
<path fill="none" stroke="#191970" d="M1685.737,-61.8906C1685.737,-53.3657 1685.737,-40.6392 1685.737,-29.9235"/>
<polygon fill="#191970" stroke="#191970" points="1689.2371,-29.7448 1685.737,-19.7449 1682.2371,-29.7449 1689.2371,-29.7448"/>
</g>
<!-- Node31 -->
<g id="node32" class="node">
<title>Node31</title>
<polygon fill="#ffffff" stroke="#bfbfbf" points="2106.237,-.5 2106.237,-19.5 2201.237,-19.5 2201.237,-.5 2106.237,-.5"/>
<text text-anchor="middle" x="2153.737" y="-7.5" font-family="Helvetica,sans-Serif" font-size="10.00" fill="#000000">AMReX_Vector.H</text>
</g>
<!-- Node30&#45;&gt;Node31 -->
<g id="edge54" class="edge">
<title>Node30&#45;&gt;Node31</title>
<path fill="none" stroke="#191970" d="M1726.3376,-61.971C1736.5474,-59.7926 1747.5106,-57.639 1757.737,-56 1904.1275,-32.5378 1944.9579,-40.728 2096.074,-19.9982"/>
<polygon fill="#191970" stroke="#191970" points="2096.7675,-23.4355 2106.1895,-18.5903 2095.8025,-16.5023 2096.7675,-23.4355"/>
</g>
<!-- Node33 -->
<g id="node34" class="node">
<title>Node33</title>
<polygon fill="#ffffff" stroke="#bfbfbf" points="1513.237,-.5 1513.237,-19.5 1558.237,-19.5 1558.237,-.5 1513.237,-.5"/>
<text text-anchor="middle" x="1535.737" y="-7.5" font-family="Helvetica,sans-Serif" font-size="10.00" fill="#000000">iosfwd</text>
</g>
<!-- Node32&#45;&gt;Node33 -->
<g id="edge56" class="edge">
<title>Node32&#45;&gt;Node33</title>
<path fill="none" stroke="#191970" d="M1535.737,-56.2977C1535.737,-48.3834 1535.737,-38.6043 1535.737,-30.0759"/>
<polygon fill="#191970" stroke="#191970" points="1539.2371,-29.8469 1535.737,-19.8469 1532.2371,-29.847 1539.2371,-29.8469"/>
</g>
<!-- Node34&#45;&gt;Node6 -->
<g id="edge60" class="edge">
<title>Node34&#45;&gt;Node6</title>
<path fill="none" stroke="#191970" d="M1729.8233,-128.9717C1785.4455,-116.9501 1881.0845,-96.2797 1941.233,-83.2799"/>
<polygon fill="#191970" stroke="#191970" points="1942.2661,-86.6375 1951.301,-81.1039 1940.7873,-79.7955 1942.2661,-86.6375"/>
</g>
<!-- Node34&#45;&gt;Node20 -->
<g id="edge62" class="edge">
<title>Node34&#45;&gt;Node20</title>
<path fill="none" stroke="#191970" d="M1641.4956,-128.9842C1595.4811,-118.9752 1521.4035,-102.5484 1457.737,-87 1405.0611,-74.1357 1393.3339,-64.2235 1339.737,-56 1010.4941,-5.4836 920.0251,-54.2948 584.9135,-19.9996"/>
<polygon fill="#191970" stroke="#191970" points="585.2357,-16.5143 574.9272,-18.9605 584.5112,-23.4767 585.2357,-16.5143"/>
</g>
<!-- Node34&#45;&gt;Node30 -->
<g id="edge61" class="edge">
<title>Node34&#45;&gt;Node30</title>
<path fill="none" stroke="#191970" d="M1685.737,-128.9005C1685.737,-119.149 1685.737,-103.7597 1685.737,-91.3695"/>
<polygon fill="#191970" stroke="#191970" points="1689.2371,-91.0816 1685.737,-81.0817 1682.2371,-91.0817 1689.2371,-91.0816"/>
</g>
<!-- Node35 -->
<g id="node36" class="node">
<title>Node35</title>
<polygon fill="#ffffff" stroke="#bfbfbf" points="1766.737,-62 1766.737,-81 1876.737,-81 1876.737,-62 1766.737,-62"/>
<text text-anchor="middle" x="1821.737" y="-69" font-family="Helvetica,sans-Serif" font-size="10.00" fill="#000000">AMReX_Geometry.H</text>
</g>
<!-- Node34&#45;&gt;Node35 -->
<g id="edge63" class="edge">
<title>Node34&#45;&gt;Node35</title>
<path fill="none" stroke="#191970" d="M1705.2225,-128.9005C1728.2484,-117.5569 1766.7598,-98.5844 1793.1603,-85.5783"/>
<polygon fill="#191970" stroke="#191970" points="1794.864,-88.6407 1802.2877,-81.0817 1791.7704,-82.3613 1794.864,-88.6407"/>
</g>
<!-- Node36&#45;&gt;Node1 -->
<g id="edge65" class="edge">
<title>Node36&#45;&gt;Node1</title>
<path fill="none" stroke="#191970" d="M2114.5162,-62.571C2099.6717,-59.9913 2083.0535,-57.4762 2067.737,-56 1755.6636,-25.922 970.7766,-75.2618 644.436,-19.7515"/>
<polygon fill="#191970" stroke="#191970" points="644.8972,-16.279 634.4418,-17.9923 643.6836,-23.173 644.8972,-16.279"/>
</g>
<!-- Node36&#45;&gt;Node5 -->
<g id="edge66" class="edge">
<title>Node36&#45;&gt;Node5</title>
<path fill="none" stroke="#191970" d="M2114.4465,-59.0161C2109.8332,-57.9205 2105.2029,-56.8913 2100.737,-56 1985.9034,-33.0821 1955.4248,-38.1203 1839.737,-20 1838.031,-19.7328 1836.2971,-19.4564 1834.5468,-19.1732"/>
<polygon fill="#191970" stroke="#191970" points="1834.8602,-15.6775 1824.4224,-17.4945 1833.7152,-22.5832 1834.8602,-15.6775"/>
</g>
<!-- Node36&#45;&gt;Node31 -->
<g id="edge68" class="edge">
<title>Node36&#45;&gt;Node31</title>
<path fill="none" stroke="#191970" d="M2158.2539,-56.2977C2157.4818,-48.3834 2156.5277,-38.6043 2155.6957,-30.0759"/>
<polygon fill="#191970" stroke="#191970" points="2159.1523,-29.4598 2154.6977,-19.8469 2152.1853,-30.1396 2159.1523,-29.4598"/>
</g>
<!-- Node37 -->
<g id="node38" class="node">
<title>Node37</title>
<polygon fill="#ffffff" stroke="#bfbfbf" points="2219.737,-.5 2219.737,-19.5 2249.737,-19.5 2249.737,-.5 2219.737,-.5"/>
<text text-anchor="middle" x="2234.737" y="-7.5" font-family="Helvetica,sans-Serif" font-size="10.00" fill="#000000">set</text>
</g>
<!-- Node36&#45;&gt;Node37 -->
<g id="edge67" class="edge">
<title>Node36&#45;&gt;Node37</title>
<path fill="none" stroke="#191970" d="M2178.2764,-56.2977C2189.3378,-47.2274 2203.3861,-35.7077 2214.7023,-26.4285"/>
<polygon fill="#191970" stroke="#191970" points="2217.2152,-28.8942 2222.7286,-19.8469 2212.7766,-23.4813 2217.2152,-28.8942"/>
</g>
<!-- Node38&#45;&gt;Node20 -->
<g id="edge71" class="edge">
<title>Node38&#45;&gt;Node20</title>
<path fill="none" stroke="#191970" d="M672.5682,-123.2548C640.112,-98.7217 576.6072,-50.7195 543.6706,-25.8233"/>
<polygon fill="#191970" stroke="#191970" points="545.705,-22.9737 535.6171,-19.7358 541.484,-28.5579 545.705,-22.9737"/>
</g>
<!-- Node38&#45;&gt;Node22 -->
<g id="edge70" class="edge">
<title>Node38&#45;&gt;Node22</title>
<path fill="none" stroke="#191970" d="M692.737,-123.2967C692.737,-113.7699 692.737,-101.3954 692.737,-91.1306"/>
<polygon fill="#191970" stroke="#191970" points="696.2371,-91.0549 692.737,-81.055 689.2371,-91.055 696.2371,-91.0549"/>
</g>
</g>
</svg>
        <g id="navigator" transform="translate(0 0)" fill="#404254">
                <rect fill="#f2f5e9" fill-opacity="0.5" stroke="#606060" stroke-width=".5" x="0" y="0" width="60" height="60"/>
                <use id="zoomplus" xlink:href="#zoomPlus" x="17" y="9" onmousedown="handleZoom(evt,'in')"/>
                <use id="zoomminus" xlink:href="#zoomMin" x="42" y="9" onmousedown="handleZoom(evt,'out')"/>
                <use id="reset" xlink:href="#resetDef" x="30" y="36" onmousedown="handleReset()"/>
                <g id="arrowUp" xlink:href="#dirArrow" transform="translate(30 24)" onmousedown="handlePan(0,-1)">
                  <use xlink:href="#rim" fill="#404040">
                        <set attributeName="fill" to="#808080" begin="arrowUp.mouseover" end="arrowUp.mouseout"/>
                  </use>
                  <path fill="none" stroke="white" stroke-width="1.5" d="M0,-3.0v7 M-2.5,-0.5L0,-3.0L2.5,-0.5"/>
                </g>
                <g id="arrowRight" xlink:href="#dirArrow" transform="rotate(90) translate(36 -43)" onmousedown="handlePan(1,0)">
                  <use xlink:href="#rim" fill="#404040">
                        <set attributeName="fill" to="#808080" begin="arrowRight.mouseover" end="arrowRight.mouseout"/>
                  </use>
                  <path fill="none" stroke="white" stroke-width="1.5" d="M0,-3.0v7 M-2.5,-0.5L0,-3.0L2.5,-0.5"/>
                </g>
                <g id="arrowDown" xlink:href="#dirArrow" transform="rotate(180) translate(-30 -48)" onmousedown="handlePan(0,1)">
                  <use xlink:href="#rim" fill="#404040">
                        <set attributeName="fill" to="#808080" begin="arrowDown.mouseover" end="arrowDown.mouseout"/>
                  </use>
                  <path fill="none" stroke="white" stroke-width="1.5" d="M0,-3.0v7 M-2.5,-0.5L0,-3.0L2.5,-0.5"/>
                </g>
                <g id="arrowLeft" xlink:href="#dirArrow" transform="rotate(270) translate(-36 17)" onmousedown="handlePan(-1,0)">
                  <use xlink:href="#rim" fill="#404040">
                        <set attributeName="fill" to="#808080" begin="arrowLeft.mouseover" end="arrowLeft.mouseout"/>
                  </use>
                  <path fill="none" stroke="white" stroke-width="1.5" d="M0,-3.0v7 M-2.5,-0.5L0,-3.0L2.5,-0.5"/>
                </g>
        </g>
        <svg viewBox="0 0 15 15" width="100%" height="30px" preserveAspectRatio="xMaxYMin meet">
         <g id="arrow_out" transform="scale(0.3 0.3)">
          <a xlink:href="_smagorinsky_8_h__incl_org.svg" target="_base">
           <rect id="button" ry="5" rx="5" y="6" x="6" height="38" width="38"
                fill="#f2f5e9" fill-opacity="0.5" stroke="#606060" stroke-width="1.0"/>
           <path id="arrow"
             d="M 11.500037,31.436501 C 11.940474,20.09759 22.043105,11.32322 32.158766,21.979434 L 37.068811,17.246167 C 37.068811,17.246167 37.088388,32 37.088388,32 L 22.160133,31.978069 C 22.160133,31.978069 26.997745,27.140456 26.997745,27.140456 C 18.528582,18.264221 13.291696,25.230495 11.500037,31.436501 z"
             style="fill:#404040;"/>
          </a>
         </g>
        </svg>
</svg>
