<?xml version="1.0" encoding="UTF-8" standalone="no"?>
<!DOCTYPE svg PUBLIC "-//W3C//DTD SVG 1.1//EN"
 "http://www.w3.org/Graphics/SVG/1.1/DTD/svg11.dtd">
<!-- Generated by graphviz version 2.40.1 (20161225.0304)
 -->
<!-- Title: TKE.cpp Pages: 1 -->
<svg width="2749pt" height="553pt"
 viewBox="0.00 0.00 2748.96 553.00" xmlns="http://www.w3.org/2000/svg" xmlns:xlink="http://www.w3.org/1999/xlink">
<g id="graph0" class="graph" transform="scale(1 1) rotate(0) translate(4 549)">
<title>TKE.cpp</title>
<polygon fill="#ffffff" stroke="transparent" points="-4,4 -4,-549 2744.9572,-549 2744.9572,4 -4,4"/>
<!-- Node0 -->
<g id="node1" class="node">
<title>Node0</title>
<polygon fill="#bfbfbf" stroke="#000000" points="1012.6346,-525.5 1012.6346,-544.5 1067.6346,-544.5 1067.6346,-525.5 1012.6346,-525.5"/>
<text text-anchor="middle" x="1040.1346" y="-532.5" font-family="Helvetica,sans-Serif" font-size="10.00" fill="#000000">TKE.cpp</text>
</g>
<!-- Node1 -->
<g id="node2" class="node">
<title>Node1</title>
<g id="a_node2"><a xlink:href="_t_k_e_8_h.html" target="_top" xlink:title="amr&#45;wind/equation_systems\l/tke/TKE.H">
<polygon fill="#ffffff" stroke="#000000" points="1183.6346,-458.5 1183.6346,-488.5 1322.6346,-488.5 1322.6346,-458.5 1183.6346,-458.5"/>
<text text-anchor="start" x="1191.6346" y="-476.5" font-family="Helvetica,sans-Serif" font-size="10.00" fill="#000000">amr&#45;wind/equation_systems</text>
<text text-anchor="middle" x="1253.1346" y="-465.5" font-family="Helvetica,sans-Serif" font-size="10.00" fill="#000000">/tke/TKE.H</text>
</a>
</g>
</g>
<!-- Node0&#45;&gt;Node1 -->
<g id="edge1" class="edge">
<title>Node0&#45;&gt;Node1</title>
<path fill="none" stroke="#191970" d="M1067.9806,-526.9599C1099.1294,-517.9663 1150.5597,-503.1167 1191.3216,-491.3474"/>
<polygon fill="#191970" stroke="#191970" points="1192.5328,-494.6407 1201.1694,-488.504 1190.5909,-487.9155 1192.5328,-494.6407"/>
</g>
<!-- Node58 -->
<g id="node43" class="node">
<title>Node58</title>
<g id="a_node43"><a xlink:href="_adv_op___godunov_8_h.html" target="_top" xlink:title="amr&#45;wind/equation_systems\l/AdvOp_Godunov.H">
<polygon fill="#ffffff" stroke="#000000" points="618.6346,-324.5 618.6346,-354.5 757.6346,-354.5 757.6346,-324.5 618.6346,-324.5"/>
<text text-anchor="start" x="626.6346" y="-342.5" font-family="Helvetica,sans-Serif" font-size="10.00" fill="#000000">amr&#45;wind/equation_systems</text>
<text text-anchor="middle" x="688.1346" y="-331.5" font-family="Helvetica,sans-Serif" font-size="10.00" fill="#000000">/AdvOp_Godunov.H</text>
</a>
</g>
</g>
<!-- Node0&#45;&gt;Node58 -->
<g id="edge105" class="edge">
<title>Node0&#45;&gt;Node58</title>
<path fill="none" stroke="#191970" d="M1022.6789,-525.3051C967.9356,-494.9008 798.8427,-400.987 724.1895,-359.5248"/>
<polygon fill="#191970" stroke="#191970" points="725.587,-356.2974 715.1454,-354.5017 722.1882,-362.4169 725.587,-356.2974"/>
</g>
<!-- Node61 -->
<g id="node46" class="node">
<title>Node61</title>
<g id="a_node46"><a xlink:href="_adv_op___m_o_l_8_h.html" target="_top" xlink:title="amr&#45;wind/equation_systems\l/AdvOp_MOL.H">
<polygon fill="#ffffff" stroke="#000000" points="807.6346,-324.5 807.6346,-354.5 946.6346,-354.5 946.6346,-324.5 807.6346,-324.5"/>
<text text-anchor="start" x="815.6346" y="-342.5" font-family="Helvetica,sans-Serif" font-size="10.00" fill="#000000">amr&#45;wind/equation_systems</text>
<text text-anchor="middle" x="877.1346" y="-331.5" font-family="Helvetica,sans-Serif" font-size="10.00" fill="#000000">/AdvOp_MOL.H</text>
</a>
</g>
</g>
<!-- Node0&#45;&gt;Node61 -->
<g id="edge114" class="edge">
<title>Node0&#45;&gt;Node61</title>
<path fill="none" stroke="#191970" d="M1032.0514,-525.3051C1007.2996,-495.6181 932.065,-405.3828 896.3488,-362.5453"/>
<polygon fill="#191970" stroke="#191970" points="898.8512,-360.0811 889.7592,-354.6418 893.4748,-364.5637 898.8512,-360.0811"/>
</g>
<!-- Node63 -->
<g id="node48" class="node">
<title>Node63</title>
<g id="a_node48"><a xlink:href="_b_c_ops_8_h.html" target="_top" xlink:title="amr&#45;wind/equation_systems\l/BCOps.H">
<polygon fill="#ffffff" stroke="#000000" points="1204.6346,-324.5 1204.6346,-354.5 1343.6346,-354.5 1343.6346,-324.5 1204.6346,-324.5"/>
<text text-anchor="start" x="1212.6346" y="-342.5" font-family="Helvetica,sans-Serif" font-size="10.00" fill="#000000">amr&#45;wind/equation_systems</text>
<text text-anchor="middle" x="1274.1346" y="-331.5" font-family="Helvetica,sans-Serif" font-size="10.00" fill="#000000">/BCOps.H</text>
</a>
</g>
</g>
<!-- Node0&#45;&gt;Node63 -->
<g id="edge123" class="edge">
<title>Node0&#45;&gt;Node63</title>
<path fill="none" stroke="#191970" d="M1051.7387,-525.3051C1087.6421,-495.3089 1197.5355,-403.4963 1248.1346,-361.2222"/>
<polygon fill="#191970" stroke="#191970" points="1250.5808,-363.7393 1256.011,-354.6418 1246.0927,-358.3674 1250.5808,-363.7393"/>
</g>
<!-- Node2 -->
<g id="node3" class="node">
<title>Node2</title>
<g id="a_node3"><a xlink:href="_p_d_e_traits_8_h.html" target="_top" xlink:title="amr&#45;wind/equation_systems\l/PDETraits.H">
<polygon fill="#ffffff" stroke="#000000" points="891.6346,-257.5 891.6346,-287.5 1030.6346,-287.5 1030.6346,-257.5 891.6346,-257.5"/>
<text text-anchor="start" x="899.6346" y="-275.5" font-family="Helvetica,sans-Serif" font-size="10.00" fill="#000000">amr&#45;wind/equation_systems</text>
<text text-anchor="middle" x="961.1346" y="-264.5" font-family="Helvetica,sans-Serif" font-size="10.00" fill="#000000">/PDETraits.H</text>
</a>
</g>
</g>
<!-- Node1&#45;&gt;Node2 -->
<g id="edge2" class="edge">
<title>Node1&#45;&gt;Node2</title>
<path fill="none" stroke="#191970" d="M1183.4241,-462.3548C1131.7988,-452.9883 1066.8148,-438.5087 1045.1346,-422 1003.4574,-390.2642 979.3886,-331.5269 968.4119,-297.8988"/>
<polygon fill="#191970" stroke="#191970" points="971.6212,-296.4333 965.3024,-287.929 964.9387,-298.5176 971.6212,-296.4333"/>
</g>
<!-- Node25 -->
<g id="node20" class="node">
<title>Node25</title>
<g id="a_node20"><a xlink:href="_scheme_traits_8_h.html" target="_top" xlink:title="amr&#45;wind/equation_systems\l/SchemeTraits.H">
<polygon fill="#ffffff" stroke="#000000" points="1754.6346,-257.5 1754.6346,-287.5 1893.6346,-287.5 1893.6346,-257.5 1754.6346,-257.5"/>
<text text-anchor="start" x="1762.6346" y="-275.5" font-family="Helvetica,sans-Serif" font-size="10.00" fill="#000000">amr&#45;wind/equation_systems</text>
<text text-anchor="middle" x="1824.1346" y="-264.5" font-family="Helvetica,sans-Serif" font-size="10.00" fill="#000000">/SchemeTraits.H</text>
</a>
</g>
</g>
<!-- Node1&#45;&gt;Node25 -->
<g id="edge36" class="edge">
<title>Node1&#45;&gt;Node25</title>
<path fill="none" stroke="#191970" d="M1322.9334,-467.3269C1390.0342,-460.2769 1493.8459,-446.4273 1581.1346,-422 1656.5624,-400.8919 1679.2862,-398.9272 1744.1346,-355 1768.486,-338.5047 1791.3209,-313.6488 1806.3104,-295.5316"/>
<polygon fill="#191970" stroke="#191970" points="1809.0498,-297.7102 1812.6227,-287.7359 1803.6096,-293.3051 1809.0498,-297.7102"/>
</g>
<!-- Node26 -->
<g id="node21" class="node">
<title>Node26</title>
<g id="a_node21"><a xlink:href="_p_d_e_helpers_8_h.html" target="_top" xlink:title="amr&#45;wind/equation_systems\l/PDEHelpers.H">
<polygon fill="#ffffff" stroke="#000000" points="1558.6346,-190.5 1558.6346,-220.5 1697.6346,-220.5 1697.6346,-190.5 1558.6346,-190.5"/>
<text text-anchor="start" x="1566.6346" y="-208.5" font-family="Helvetica,sans-Serif" font-size="10.00" fill="#000000">amr&#45;wind/equation_systems</text>
<text text-anchor="middle" x="1628.1346" y="-197.5" font-family="Helvetica,sans-Serif" font-size="10.00" fill="#000000">/PDEHelpers.H</text>
</a>
</g>
</g>
<!-- Node1&#45;&gt;Node26 -->
<g id="edge38" class="edge">
<title>Node1&#45;&gt;Node26</title>
<path fill="none" stroke="#191970" d="M1281.881,-458.4568C1336.4455,-429.2644 1457.6553,-361.3258 1548.1346,-288 1570.5129,-269.8643 1593.0946,-245.9447 1608.5327,-228.5333"/>
<polygon fill="#191970" stroke="#191970" points="1611.5555,-230.3936 1615.5053,-220.5625 1606.2869,-225.7847 1611.5555,-230.3936"/>
</g>
<!-- Node39 -->
<g id="node32" class="node">
<title>Node39</title>
<g id="a_node32"><a xlink:href="_p_d_e_8_h.html" target="_top" xlink:title="amr&#45;wind/equation_systems\l/PDE.H">
<polygon fill="#ffffff" stroke="#000000" points="1791.6346,-391.5 1791.6346,-421.5 1930.6346,-421.5 1930.6346,-391.5 1791.6346,-391.5"/>
<text text-anchor="start" x="1799.6346" y="-409.5" font-family="Helvetica,sans-Serif" font-size="10.00" fill="#000000">amr&#45;wind/equation_systems</text>
<text text-anchor="middle" x="1861.1346" y="-398.5" font-family="Helvetica,sans-Serif" font-size="10.00" fill="#000000">/PDE.H</text>
</a>
</g>
</g>
<!-- Node1&#45;&gt;Node39 -->
<g id="edge61" class="edge">
<title>Node1&#45;&gt;Node39</title>
<path fill="none" stroke="#191970" d="M1322.8615,-468.5319C1423.4829,-460.9354 1615.1157,-444.8683 1777.1346,-422 1778.603,-421.7927 1780.0848,-421.578 1781.5769,-421.3567"/>
<polygon fill="#191970" stroke="#191970" points="1782.192,-424.8033 1791.5367,-419.8106 1781.1181,-417.8861 1782.192,-424.8033"/>
</g>
<!-- Node56 -->
<g id="node41" class="node">
<title>Node56</title>
<g id="a_node41"><a xlink:href="field__ops_8_h.html" target="_top" xlink:title="amr&#45;wind/core/field\l_ops.H">
<polygon fill="#ffffff" stroke="#000000" points="539.6346,-123.5 539.6346,-153.5 638.6346,-153.5 638.6346,-123.5 539.6346,-123.5"/>
<text text-anchor="start" x="547.6346" y="-141.5" font-family="Helvetica,sans-Serif" font-size="10.00" fill="#000000">amr&#45;wind/core/field</text>
<text text-anchor="middle" x="589.1346" y="-130.5" font-family="Helvetica,sans-Serif" font-size="10.00" fill="#000000">_ops.H</text>
</a>
</g>
</g>
<!-- Node1&#45;&gt;Node56 -->
<g id="edge96" class="edge">
<title>Node1&#45;&gt;Node56</title>
<path fill="none" stroke="#191970" d="M1239.501,-458.4581C1206.5421,-422.364 1119.404,-328.5334 1040.1346,-257 1021.1198,-239.8409 1014.4837,-237.7814 995.1346,-221 979.9325,-207.8153 980.3968,-198.4516 962.1346,-190 836.0771,-131.6613 786.0671,-179.0453 648.8463,-154.7641"/>
<polygon fill="#191970" stroke="#191970" points="649.2862,-151.2858 638.8135,-152.8896 648.0005,-158.1667 649.2862,-151.2858"/>
</g>
<!-- Node57 -->
<g id="node42" class="node">
<title>Node57</title>
<g id="a_node42"><a xlink:href="_t_k_e_source_8_h.html" target="_top" xlink:title="amr&#45;wind/equation_systems\l/tke/TKESource.H">
<polygon fill="#ffffff" stroke="#000000" points="1047.6346,-190.5 1047.6346,-220.5 1186.6346,-220.5 1186.6346,-190.5 1047.6346,-190.5"/>
<text text-anchor="start" x="1055.6346" y="-208.5" font-family="Helvetica,sans-Serif" font-size="10.00" fill="#000000">amr&#45;wind/equation_systems</text>
<text text-anchor="middle" x="1117.1346" y="-197.5" font-family="Helvetica,sans-Serif" font-size="10.00" fill="#000000">/tke/TKESource.H</text>
</a>
</g>
</g>
<!-- Node1&#45;&gt;Node57 -->
<g id="edge99" class="edge">
<title>Node1&#45;&gt;Node57</title>
<path fill="none" stroke="#191970" d="M1245.433,-458.3233C1222.8981,-413.9163 1156.9509,-283.9616 1129.4252,-229.7196"/>
<polygon fill="#191970" stroke="#191970" points="1132.3982,-227.8439 1124.7517,-220.5103 1126.156,-231.0116 1132.3982,-227.8439"/>
</g>
<!-- Node3 -->
<g id="node4" class="node">
<title>Node3</title>
<polygon fill="#ffffff" stroke="#bfbfbf" points="2038.6346,-.5 2038.6346,-19.5 2079.6346,-19.5 2079.6346,-.5 2038.6346,-.5"/>
<text text-anchor="middle" x="2059.1346" y="-7.5" font-family="Helvetica,sans-Serif" font-size="10.00" fill="#000000">string</text>
</g>
<!-- Node2&#45;&gt;Node3 -->
<g id="edge3" class="edge">
<title>Node2&#45;&gt;Node3</title>
<path fill="none" stroke="#191970" d="M1030.9651,-262.264C1274.5318,-226.4055 2072.7078,-107.5238 2090.1346,-87 2104.9083,-69.6008 2089.5336,-44.2558 2075.6615,-27.4578"/>
<polygon fill="#191970" stroke="#191970" points="2077.939,-24.7468 2068.7119,-19.54 2072.6781,-29.3645 2077.939,-24.7468"/>
</g>
<!-- Node4 -->
<g id="node5" class="node">
<title>Node4</title>
<polygon fill="#ffffff" stroke="#bfbfbf" points="829.6346,-196 829.6346,-215 952.6346,-215 952.6346,-196 829.6346,-196"/>
<text text-anchor="middle" x="891.1346" y="-203" font-family="Helvetica,sans-Serif" font-size="10.00" fill="#000000">AMReX_MLTensorOp.H</text>
</g>
<!-- Node2&#45;&gt;Node4 -->
<g id="edge4" class="edge">
<title>Node2&#45;&gt;Node4</title>
<path fill="none" stroke="#191970" d="M945.2505,-257.2967C934.3442,-246.8578 919.8656,-232.9997 908.629,-222.2446"/>
<polygon fill="#191970" stroke="#191970" points="910.7617,-219.4411 901.1174,-215.055 905.9215,-224.498 910.7617,-219.4411"/>
</g>
<!-- Node5 -->
<g id="node6" class="node">
<title>Node5</title>
<g id="a_node6"><a xlink:href="_source_term_8_h.html" target="_top" xlink:title="amr&#45;wind/equation_systems\l/SourceTerm.H">
<polygon fill="#ffffff" stroke="#000000" points="595.6346,-190.5 595.6346,-220.5 734.6346,-220.5 734.6346,-190.5 595.6346,-190.5"/>
<text text-anchor="start" x="603.6346" y="-208.5" font-family="Helvetica,sans-Serif" font-size="10.00" fill="#000000">amr&#45;wind/equation_systems</text>
<text text-anchor="middle" x="665.1346" y="-197.5" font-family="Helvetica,sans-Serif" font-size="10.00" fill="#000000">/SourceTerm.H</text>
</a>
</g>
</g>
<!-- Node2&#45;&gt;Node5 -->
<g id="edge5" class="edge">
<title>Node2&#45;&gt;Node5</title>
<path fill="none" stroke="#191970" d="M894.7064,-257.4639C849.2744,-247.1803 788.9284,-233.5209 741.5091,-222.7875"/>
<polygon fill="#191970" stroke="#191970" points="742.1226,-219.3379 731.5966,-220.5438 740.5772,-226.1652 742.1226,-219.3379"/>
</g>
<!-- Node6 -->
<g id="node7" class="node">
<title>Node6</title>
<g id="a_node7"><a xlink:href="_factory_8_h.html" target="_top" xlink:title="amr&#45;wind/core/Factory.H">
<polygon fill="#ffffff" stroke="#ff0000" points="1287.6346,-62 1287.6346,-81 1412.6346,-81 1412.6346,-62 1287.6346,-62"/>
<text text-anchor="middle" x="1350.1346" y="-69" font-family="Helvetica,sans-Serif" font-size="10.00" fill="#000000">amr&#45;wind/core/Factory.H</text>
</a>
</g>
</g>
<!-- Node5&#45;&gt;Node6 -->
<g id="edge6" class="edge">
<title>Node5&#45;&gt;Node6</title>
<path fill="none" stroke="#191970" d="M734.9933,-198.2119C761.9045,-195.4954 792.9375,-192.4735 821.1346,-190 926.1464,-180.7881 1202.9273,-206.8542 1294.1346,-154 1318.5109,-139.874 1334.5265,-110.3652 1342.9598,-90.7417"/>
<polygon fill="#191970" stroke="#191970" points="1346.2868,-91.8495 1346.7766,-81.266 1339.7938,-89.2341 1346.2868,-91.8495"/>
</g>
<!-- Node12 -->
<g id="node9" class="node">
<title>Node12</title>
<g id="a_node9"><a xlink:href="_field_desc_types_8_h.html" target="_top" xlink:title="amr&#45;wind/core/FieldDescTypes.H">
<polygon fill="#ffffff" stroke="#000000" points="794.6346,-.5 794.6346,-19.5 957.6346,-19.5 957.6346,-.5 794.6346,-.5"/>
<text text-anchor="middle" x="876.1346" y="-7.5" font-family="Helvetica,sans-Serif" font-size="10.00" fill="#000000">amr&#45;wind/core/FieldDescTypes.H</text>
</a>
</g>
</g>
<!-- Node5&#45;&gt;Node12 -->
<g id="edge8" class="edge">
<title>Node5&#45;&gt;Node12</title>
<path fill="none" stroke="#191970" d="M595.4506,-191.0745C549.9264,-181.3443 489.2818,-167.8035 436.1346,-154 334.3209,-127.5567 272.1144,-171.2545 209.1346,-87 200.8856,-75.9645 199.7334,-66.0719 209.1346,-56 218.8269,-45.6162 603.8722,-24.2073 784.4327,-14.7124"/>
<polygon fill="#191970" stroke="#191970" points="784.6475,-18.2061 794.4503,-14.1869 784.2806,-11.2157 784.6475,-18.2061"/>
</g>
<!-- Node13 -->
<g id="node10" class="node">
<title>Node13</title>
<g id="a_node10"><a xlink:href="_field_utils_8_h.html" target="_top" xlink:title="amr&#45;wind/core/FieldUtils.H">
<polygon fill="#ffffff" stroke="#ff0000" points="218.6346,-62 218.6346,-81 351.6346,-81 351.6346,-62 218.6346,-62"/>
<text text-anchor="middle" x="285.1346" y="-69" font-family="Helvetica,sans-Serif" font-size="10.00" fill="#000000">amr&#45;wind/core/FieldUtils.H</text>
</a>
</g>
</g>
<!-- Node5&#45;&gt;Node13 -->
<g id="edge9" class="edge">
<title>Node5&#45;&gt;Node13</title>
<path fill="none" stroke="#191970" d="M622.2824,-190.389C547.1714,-163.9025 393.0086,-109.5398 322.1942,-84.5684"/>
<polygon fill="#191970" stroke="#191970" points="322.9651,-81.129 312.3703,-81.1042 320.6371,-87.7306 322.9651,-81.129"/>
</g>
<!-- Node14 -->
<g id="node11" class="node">
<title>Node14</title>
<polygon fill="#ffffff" stroke="#bfbfbf" points="280.1346,-.5 280.1346,-19.5 384.1346,-19.5 384.1346,-.5 280.1346,-.5"/>
<text text-anchor="middle" x="332.1346" y="-7.5" font-family="Helvetica,sans-Serif" font-size="10.00" fill="#000000">AMReX_MultiFab.H</text>
</g>
<!-- Node5&#45;&gt;Node14 -->
<g id="edge35" class="edge">
<title>Node5&#45;&gt;Node14</title>
<path fill="none" stroke="#191970" d="M595.4062,-191.4702C592.2768,-190.9507 589.1753,-190.4574 586.1346,-190 476.9641,-173.5776 159.4912,-180.0843 100.1346,-87 92.7269,-75.3831 91.3908,-66.6477 100.1346,-56 121.271,-30.2613 208.7769,-18.6715 270.0526,-13.6343"/>
<polygon fill="#191970" stroke="#191970" points="270.3305,-17.1233 280.0265,-12.8526 269.7835,-10.1447 270.3305,-17.1233"/>
</g>
<!-- Node16 -->
<g id="node12" class="node">
<title>Node16</title>
<g id="a_node12"><a xlink:href="_field_repo_8_h.html" target="_top" xlink:title="amr&#45;wind/core/FieldRepo.H">
<polygon fill="#ffffff" stroke="#000000" points="733.1346,-129 733.1346,-148 869.1346,-148 869.1346,-129 733.1346,-129"/>
<text text-anchor="middle" x="801.1346" y="-136" font-family="Helvetica,sans-Serif" font-size="10.00" fill="#000000">amr&#45;wind/core/FieldRepo.H</text>
</a>
</g>
</g>
<!-- Node5&#45;&gt;Node16 -->
<g id="edge12" class="edge">
<title>Node5&#45;&gt;Node16</title>
<path fill="none" stroke="#191970" d="M695.6556,-190.4639C718.6803,-179.1209 750.0418,-163.6707 772.574,-152.5703"/>
<polygon fill="#191970" stroke="#191970" points="774.2163,-155.6629 781.6401,-148.1039 771.1228,-149.3836 774.2163,-155.6629"/>
</g>
<!-- Node8 -->
<g id="node8" class="node">
<title>Node8</title>
<polygon fill="#ffffff" stroke="#bfbfbf" points="1308.6346,-.5 1308.6346,-19.5 1391.6346,-19.5 1391.6346,-.5 1308.6346,-.5"/>
<text text-anchor="middle" x="1350.1346" y="-7.5" font-family="Helvetica,sans-Serif" font-size="10.00" fill="#000000">unordered_map</text>
</g>
<!-- Node6&#45;&gt;Node8 -->
<g id="edge7" class="edge">
<title>Node6&#45;&gt;Node8</title>
<path fill="none" stroke="#191970" d="M1350.1346,-61.8906C1350.1346,-53.3657 1350.1346,-40.6392 1350.1346,-29.9235"/>
<polygon fill="#191970" stroke="#191970" points="1353.6347,-29.7448 1350.1346,-19.7449 1346.6347,-29.7449 1353.6347,-29.7448"/>
</g>
<!-- Node13&#45;&gt;Node12 -->
<g id="edge10" class="edge">
<title>Node13&#45;&gt;Node12</title>
<path fill="none" stroke="#191970" d="M351.781,-64.5647C457.526,-53.5608 664.0153,-32.0733 783.9016,-19.5979"/>
<polygon fill="#191970" stroke="#191970" points="784.5747,-23.0468 794.1587,-18.5305 783.8502,-16.0844 784.5747,-23.0468"/>
</g>
<!-- Node13&#45;&gt;Node14 -->
<g id="edge11" class="edge">
<title>Node13&#45;&gt;Node14</title>
<path fill="none" stroke="#191970" d="M292.4783,-61.8906C299.4048,-52.8273 309.9606,-39.0149 318.4406,-27.9188"/>
<polygon fill="#191970" stroke="#191970" points="321.3961,-29.8155 324.6873,-19.7449 315.8343,-25.565 321.3961,-29.8155"/>
</g>
<!-- Node16&#45;&gt;Node3 -->
<g id="edge13" class="edge">
<title>Node16&#45;&gt;Node3</title>
<path fill="none" stroke="#191970" d="M869.1977,-130.8891C945.031,-121.711 1062.3448,-105.2281 1103.1346,-87 1123.35,-77.9662 1121.4186,-63.818 1142.1346,-56 1226.4301,-24.1878 1877.0842,-12.6872 2027.9628,-10.4342"/>
<polygon fill="#191970" stroke="#191970" points="2028.3868,-13.9285 2038.3344,-10.2823 2028.2842,-6.9292 2028.3868,-13.9285"/>
</g>
<!-- Node16&#45;&gt;Node8 -->
<g id="edge14" class="edge">
<title>Node16&#45;&gt;Node8</title>
<path fill="none" stroke="#191970" d="M816.4667,-128.9492C845.5827,-111.3124 911.4059,-73.8122 972.1346,-56 1032.0874,-38.4154 1209.5761,-21.7208 1298.3534,-14.1882"/>
<polygon fill="#191970" stroke="#191970" points="1298.7972,-17.6633 1308.4685,-13.3371 1298.2102,-10.688 1298.7972,-17.6633"/>
</g>
<!-- Node16&#45;&gt;Node12 -->
<g id="edge15" class="edge">
<title>Node16&#45;&gt;Node12</title>
<path fill="none" stroke="#191970" d="M770.2829,-128.9073C750.6936,-121.0331 726.8904,-107.7423 715.1346,-87 708.3412,-75.0135 706.8377,-66.9995 715.1346,-56 726.5039,-40.9273 767.7849,-29.3076 805.6966,-21.5172"/>
<polygon fill="#191970" stroke="#191970" points="806.6284,-24.9007 815.7556,-19.5208 805.2656,-18.0346 806.6284,-24.9007"/>
</g>
<!-- Node16&#45;&gt;Node13 -->
<g id="edge16" class="edge">
<title>Node16&#45;&gt;Node13</title>
<path fill="none" stroke="#191970" d="M754.4176,-128.9571C742.914,-126.8042 730.6048,-124.6659 719.1346,-123 563.0693,-100.334 522.1743,-109.8418 366.1346,-87 358.0773,-85.8205 349.6021,-84.4001 341.2924,-82.904"/>
<polygon fill="#191970" stroke="#191970" points="341.7473,-79.4288 331.2776,-81.0526 340.4748,-86.3122 341.7473,-79.4288"/>
</g>
<!-- Node16&#45;&gt;Node14 -->
<g id="edge33" class="edge">
<title>Node16&#45;&gt;Node14</title>
<path fill="none" stroke="#191970" d="M751.7341,-128.9828C740.9951,-126.9641 729.6903,-124.8771 719.1346,-123 623.3136,-105.9607 596.2794,-115.2143 503.1346,-87 449.8164,-70.8495 391.3788,-41.8888 358.4854,-24.4579"/>
<polygon fill="#191970" stroke="#191970" points="359.9884,-21.2925 349.5206,-19.6563 356.6833,-27.4632 359.9884,-21.2925"/>
</g>
<!-- Node17 -->
<g id="node13" class="node">
<title>Node17</title>
<g id="a_node13"><a xlink:href="_field_8_h.html" target="_top" xlink:title="amr&#45;wind/core/Field.H">
<polygon fill="#ffffff" stroke="#ff0000" points="980.6346,-62 980.6346,-81 1093.6346,-81 1093.6346,-62 980.6346,-62"/>
<text text-anchor="middle" x="1037.1346" y="-69" font-family="Helvetica,sans-Serif" font-size="10.00" fill="#000000">amr&#45;wind/core/Field.H</text>
</a>
</g>
</g>
<!-- Node16&#45;&gt;Node17 -->
<g id="edge17" class="edge">
<title>Node16&#45;&gt;Node17</title>
<path fill="none" stroke="#191970" d="M834.697,-128.9717C876.4292,-117.124 947.751,-96.8758 993.6376,-83.8487"/>
<polygon fill="#191970" stroke="#191970" points="994.6419,-87.202 1003.3059,-81.1039 992.7301,-80.4681 994.6419,-87.202"/>
</g>
<!-- Node21 -->
<g id="node16" class="node">
<title>Node21</title>
<g id="a_node16"><a xlink:href="_int_field_8_h.html" target="_top" xlink:title="amr&#45;wind/core/IntField.H">
<polygon fill="#ffffff" stroke="#000000" points="724.1346,-62 724.1346,-81 848.1346,-81 848.1346,-62 724.1346,-62"/>
<text text-anchor="middle" x="786.1346" y="-69" font-family="Helvetica,sans-Serif" font-size="10.00" fill="#000000">amr&#45;wind/core/IntField.H</text>
</a>
</g>
</g>
<!-- Node16&#45;&gt;Node21 -->
<g id="edge24" class="edge">
<title>Node16&#45;&gt;Node21</title>
<path fill="none" stroke="#191970" d="M798.9855,-128.9005C796.78,-119.0495 793.2865,-103.4451 790.4983,-90.9912"/>
<polygon fill="#191970" stroke="#191970" points="793.88,-90.0754 788.2797,-81.0817 787.0491,-91.6048 793.88,-90.0754"/>
</g>
<!-- Node22 -->
<g id="node17" class="node">
<title>Node22</title>
<polygon fill="#ffffff" stroke="#bfbfbf" points="517.6346,-.5 517.6346,-19.5 624.6346,-19.5 624.6346,-.5 517.6346,-.5"/>
<text text-anchor="middle" x="571.1346" y="-7.5" font-family="Helvetica,sans-Serif" font-size="10.00" fill="#000000">AMReX_iMultiFab.H</text>
</g>
<!-- Node16&#45;&gt;Node22 -->
<g id="edge34" class="edge">
<title>Node16&#45;&gt;Node22</title>
<path fill="none" stroke="#191970" d="M751.2871,-128.9637C740.6792,-126.9662 729.5403,-124.8926 719.1346,-123 673.4131,-114.6841 543.033,-122.5765 513.1346,-87 504.2704,-76.4524 507.14,-68.4053 513.1346,-56 519.4174,-42.9981 531.3581,-32.5481 542.7797,-24.9145"/>
<polygon fill="#191970" stroke="#191970" points="544.6522,-27.8718 551.3105,-19.6305 540.9662,-21.9209 544.6522,-27.8718"/>
</g>
<!-- Node23 -->
<g id="node18" class="node">
<title>Node23</title>
<g id="a_node18"><a xlink:href="_scratch_field_8_h.html" target="_top" xlink:title="amr&#45;wind/core/ScratchField.H">
<polygon fill="#ffffff" stroke="#000000" points="522.1346,-62 522.1346,-81 668.1346,-81 668.1346,-62 522.1346,-62"/>
<text text-anchor="middle" x="595.1346" y="-69" font-family="Helvetica,sans-Serif" font-size="10.00" fill="#000000">amr&#45;wind/core/ScratchField.H</text>
</a>
</g>
</g>
<!-- Node16&#45;&gt;Node23 -->
<g id="edge28" class="edge">
<title>Node16&#45;&gt;Node23</title>
<path fill="none" stroke="#191970" d="M771.6198,-128.9005C735.5187,-117.1589 674.2864,-97.2436 634.2802,-84.2318"/>
<polygon fill="#191970" stroke="#191970" points="635.1868,-80.8463 624.5946,-81.0817 633.0217,-87.5031 635.1868,-80.8463"/>
</g>
<!-- Node24 -->
<g id="node19" class="node">
<title>Node24</title>
<polygon fill="#ffffff" stroke="#bfbfbf" points="1829.1346,-62 1829.1346,-81 1935.1346,-81 1935.1346,-62 1829.1346,-62"/>
<text text-anchor="middle" x="1882.1346" y="-69" font-family="Helvetica,sans-Serif" font-size="10.00" fill="#000000">AMReX_AmrCore.H</text>
</g>
<!-- Node16&#45;&gt;Node24 -->
<g id="edge32" class="edge">
<title>Node16&#45;&gt;Node24</title>
<path fill="none" stroke="#191970" d="M869.2073,-129.5008C889.7219,-127.0605 912.3172,-124.6423 933.1346,-123 1326.4593,-91.9708 1429.6021,-143.1388 1820.1346,-87 1826.4048,-86.0987 1832.962,-84.8284 1839.3664,-83.3986"/>
<polygon fill="#191970" stroke="#191970" points="1840.3222,-86.769 1849.2413,-81.0506 1838.7029,-79.9589 1840.3222,-86.769"/>
</g>
<!-- Node17&#45;&gt;Node3 -->
<g id="edge18" class="edge">
<title>Node17&#45;&gt;Node3</title>
<path fill="none" stroke="#191970" d="M1075.25,-61.9565C1085.836,-59.6407 1097.3781,-57.4242 1108.1346,-56 1292.1963,-31.6301 1885.5436,-14.6082 2028.1183,-10.8043"/>
<polygon fill="#191970" stroke="#191970" points="2028.4245,-14.2975 2038.3284,-10.534 2028.2392,-7.3 2028.4245,-14.2975"/>
</g>
<!-- Node17&#45;&gt;Node8 -->
<g id="edge19" class="edge">
<title>Node17&#45;&gt;Node8</title>
<path fill="none" stroke="#191970" d="M1079.8961,-61.9684C1089.1952,-59.9506 1098.9869,-57.8676 1108.1346,-56 1173.6594,-42.6226 1249.4315,-28.4241 1298.4822,-19.3992"/>
<polygon fill="#191970" stroke="#191970" points="1299.3268,-22.8027 1308.5302,-17.5541 1298.0625,-15.9179 1299.3268,-22.8027"/>
</g>
<!-- Node17&#45;&gt;Node12 -->
<g id="edge23" class="edge">
<title>Node17&#45;&gt;Node12</title>
<path fill="none" stroke="#191970" d="M1011.9783,-61.8906C984.6856,-51.4652 940.9426,-34.7559 910.4949,-23.1252"/>
<polygon fill="#191970" stroke="#191970" points="911.7048,-19.8408 901.1142,-19.5419 909.2069,-26.3799 911.7048,-19.8408"/>
</g>
<!-- Node17&#45;&gt;Node14 -->
<g id="edge20" class="edge">
<title>Node17&#45;&gt;Node14</title>
<path fill="none" stroke="#191970" d="M980.6332,-66.5712C850.5466,-55.2232 530.6531,-27.3176 394.7951,-15.4661"/>
<polygon fill="#191970" stroke="#191970" points="394.8247,-11.9555 384.5583,-14.5731 394.2163,-18.929 394.8247,-11.9555"/>
</g>
<!-- Node19 -->
<g id="node14" class="node">
<title>Node19</title>
<polygon fill="#ffffff" stroke="#bfbfbf" points="109.6346,-.5 109.6346,-19.5 194.6346,-19.5 194.6346,-.5 109.6346,-.5"/>
<text text-anchor="middle" x="152.1346" y="-7.5" font-family="Helvetica,sans-Serif" font-size="10.00" fill="#000000">AMReX_Gpu.H</text>
</g>
<!-- Node17&#45;&gt;Node19 -->
<g id="edge21" class="edge">
<title>Node17&#45;&gt;Node19</title>
<path fill="none" stroke="#191970" d="M980.4146,-66.2569C944.9912,-63.0714 898.4251,-59.0456 857.1346,-56 596.9061,-36.8053 531.3827,-38.9264 271.1346,-20 249.4652,-18.4241 225.5957,-16.4627 204.9586,-14.6955"/>
<polygon fill="#191970" stroke="#191970" points="205.0655,-11.1918 194.8016,-13.8192 204.4638,-18.1659 205.0655,-11.1918"/>
</g>
<!-- Node20 -->
<g id="node15" class="node">
<title>Node20</title>
<g id="a_node15"><a xlink:href="incflo__enums_8_h.html" target="_top" xlink:title="amr&#45;wind/incflo_enums.H">
<polygon fill="#ffffff" stroke="#000000" points="2121.1346,-.5 2121.1346,-19.5 2249.1346,-19.5 2249.1346,-.5 2121.1346,-.5"/>
<text text-anchor="middle" x="2185.1346" y="-7.5" font-family="Helvetica,sans-Serif" font-size="10.00" fill="#000000">amr&#45;wind/incflo_enums.H</text>
</a>
</g>
</g>
<!-- Node17&#45;&gt;Node20 -->
<g id="edge22" class="edge">
<title>Node17&#45;&gt;Node20</title>
<path fill="none" stroke="#191970" d="M1093.6717,-62.0043C1109.3277,-59.6886 1126.355,-57.4603 1142.1346,-56 1561.5355,-17.1881 1668.9997,-49.8352 2089.1346,-20 2096.2018,-19.4981 2103.5533,-18.8893 2110.9023,-18.2224"/>
<polygon fill="#191970" stroke="#191970" points="2111.2673,-21.7036 2120.8953,-17.2818 2110.6112,-14.7344 2111.2673,-21.7036"/>
</g>
<!-- Node21&#45;&gt;Node3 -->
<g id="edge25" class="edge">
<title>Node21&#45;&gt;Node3</title>
<path fill="none" stroke="#191970" d="M848.5124,-65.6619C884.6027,-62.4443 930.9012,-58.5894 972.1346,-56 1389.7715,-29.7726 1898.6377,-14.4893 2028.0561,-10.8503"/>
<polygon fill="#191970" stroke="#191970" points="2028.495,-14.3395 2038.3934,-10.5618 2028.2997,-7.3422 2028.495,-14.3395"/>
</g>
<!-- Node21&#45;&gt;Node12 -->
<g id="edge26" class="edge">
<title>Node21&#45;&gt;Node12</title>
<path fill="none" stroke="#191970" d="M800.1971,-61.8906C814.4632,-52.1421 836.7696,-36.8994 853.5218,-25.4521"/>
<polygon fill="#191970" stroke="#191970" points="855.8891,-28.0736 862.1708,-19.5419 851.9397,-22.2941 855.8891,-28.0736"/>
</g>
<!-- Node21&#45;&gt;Node22 -->
<g id="edge27" class="edge">
<title>Node21&#45;&gt;Node22</title>
<path fill="none" stroke="#191970" d="M752.5408,-61.8906C715.2263,-51.2169 654.8853,-33.9566 614.146,-22.3033"/>
<polygon fill="#191970" stroke="#191970" points="615.0694,-18.9271 604.4924,-19.5419 613.1443,-25.6572 615.0694,-18.9271"/>
</g>
<!-- Node23&#45;&gt;Node3 -->
<g id="edge29" class="edge">
<title>Node23&#45;&gt;Node3</title>
<path fill="none" stroke="#191970" d="M660.0977,-61.9738C677.9043,-59.6726 697.2335,-57.4592 715.1346,-56 982.6628,-34.1927 1853.8681,-14.4494 2028.4955,-10.6552"/>
<polygon fill="#191970" stroke="#191970" points="2028.6142,-14.1536 2038.5361,-10.438 2028.4627,-7.1552 2028.6142,-14.1536"/>
</g>
<!-- Node23&#45;&gt;Node12 -->
<g id="edge30" class="edge">
<title>Node23&#45;&gt;Node12</title>
<path fill="none" stroke="#191970" d="M638.7325,-61.9581C688.2616,-51.1181 769.1153,-33.4224 822.4756,-21.7439"/>
<polygon fill="#191970" stroke="#191970" points="823.4139,-25.1214 832.4344,-19.5643 821.9173,-18.2833 823.4139,-25.1214"/>
</g>
<!-- Node23&#45;&gt;Node14 -->
<g id="edge31" class="edge">
<title>Node23&#45;&gt;Node14</title>
<path fill="none" stroke="#191970" d="M554.3294,-61.9581C508.1657,-51.1632 432.9274,-33.5694 382.9806,-21.8899"/>
<polygon fill="#191970" stroke="#191970" points="383.5698,-18.4333 373.0355,-19.5643 381.9759,-25.2494 383.5698,-18.4333"/>
</g>
<!-- Node25&#45;&gt;Node3 -->
<g id="edge37" class="edge">
<title>Node25&#45;&gt;Node3</title>
<path fill="none" stroke="#191970" d="M1893.6462,-258.7517C1956.8187,-243.0654 2049.0677,-211.7509 2109.1346,-154 2142.0658,-122.3385 2163.1166,-95.4809 2140.1346,-56 2129.22,-37.2497 2107.5002,-25.5187 2089.2975,-18.5994"/>
<polygon fill="#191970" stroke="#191970" points="2090.2326,-15.219 2079.6378,-15.2364 2087.931,-21.8298 2090.2326,-15.219"/>
</g>
<!-- Node26&#45;&gt;Node3 -->
<g id="edge39" class="edge">
<title>Node26&#45;&gt;Node3</title>
<path fill="none" stroke="#191970" d="M1698.0389,-204.3586C1807.6542,-201.4358 2013.9006,-191.0315 2076.1346,-154 2117.647,-129.2987 2145.175,-98.9843 2123.1346,-56 2115.7792,-41.6551 2101.6393,-30.7711 2088.5172,-23.2007"/>
<polygon fill="#191970" stroke="#191970" points="2090.1609,-20.1107 2079.6912,-18.4872 2086.8633,-26.2853 2090.1609,-20.1107"/>
</g>
<!-- Node26&#45;&gt;Node16 -->
<g id="edge46" class="edge">
<title>Node26&#45;&gt;Node16</title>
<path fill="none" stroke="#191970" d="M1558.5055,-201.333C1433.2479,-193.6157 1161.6696,-175.8749 933.1346,-154 915.7579,-152.3367 897.1238,-150.3029 879.493,-148.2628"/>
<polygon fill="#191970" stroke="#191970" points="879.5844,-144.7497 869.2453,-147.0636 878.7707,-151.7022 879.5844,-144.7497"/>
</g>
<!-- Node27 -->
<g id="node22" class="node">
<title>Node27</title>
<g id="a_node22"><a xlink:href="_p_d_e_fields_8_h.html" target="_top" xlink:title="amr&#45;wind/equation_systems\l/PDEFields.H">
<polygon fill="#ffffff" stroke="#000000" points="2514.6346,-56.5 2514.6346,-86.5 2653.6346,-86.5 2653.6346,-56.5 2514.6346,-56.5"/>
<text text-anchor="start" x="2522.6346" y="-74.5" font-family="Helvetica,sans-Serif" font-size="10.00" fill="#000000">amr&#45;wind/equation_systems</text>
<text text-anchor="middle" x="2584.1346" y="-63.5" font-family="Helvetica,sans-Serif" font-size="10.00" fill="#000000">/PDEFields.H</text>
</a>
</g>
</g>
<!-- Node26&#45;&gt;Node27 -->
<g id="edge40" class="edge">
<title>Node26&#45;&gt;Node27</title>
<path fill="none" stroke="#191970" d="M1697.8423,-203.8304C1860.7113,-199.442 2262.3018,-185.6671 2393.1346,-154 2449.7722,-140.2913 2510.8783,-111.0969 2548.328,-91.3789"/>
<polygon fill="#191970" stroke="#191970" points="2550.1436,-94.3773 2557.3223,-86.5852 2546.8512,-88.1999 2550.1436,-94.3773"/>
</g>
<!-- Node29 -->
<g id="node24" class="node">
<title>Node29</title>
<g id="a_node24"><a xlink:href="_sim_time_8_h.html" target="_top" xlink:title="amr&#45;wind/core/SimTime.H">
<polygon fill="#ffffff" stroke="#000000" points="2365.6346,-62 2365.6346,-81 2496.6346,-81 2496.6346,-62 2365.6346,-62"/>
<text text-anchor="middle" x="2431.1346" y="-69" font-family="Helvetica,sans-Serif" font-size="10.00" fill="#000000">amr&#45;wind/core/SimTime.H</text>
</a>
</g>
</g>
<!-- Node26&#45;&gt;Node29 -->
<g id="edge42" class="edge">
<title>Node26&#45;&gt;Node29</title>
<path fill="none" stroke="#191970" d="M1697.9212,-203.7012C1869.8179,-198.8329 2303.9356,-183.7215 2362.1346,-154 2389.5902,-139.9788 2410.3318,-109.7273 2421.5996,-90.0129"/>
<polygon fill="#191970" stroke="#191970" points="2424.7713,-91.5073 2426.4861,-81.0521 2418.6256,-88.1559 2424.7713,-91.5073"/>
</g>
<!-- Node33 -->
<g id="node28" class="node">
<title>Node33</title>
<g id="a_node28"><a xlink:href="_field_fill_patch_ops_8_h.html" target="_top" xlink:title="amr&#45;wind/core/FieldFillPatch\lOps.H">
<polygon fill="#ffffff" stroke="#000000" points="1511.1346,-123.5 1511.1346,-153.5 1651.1346,-153.5 1651.1346,-123.5 1511.1346,-123.5"/>
<text text-anchor="start" x="1519.1346" y="-141.5" font-family="Helvetica,sans-Serif" font-size="10.00" fill="#000000">amr&#45;wind/core/FieldFillPatch</text>
<text text-anchor="middle" x="1581.1346" y="-130.5" font-family="Helvetica,sans-Serif" font-size="10.00" fill="#000000">Ops.H</text>
</a>
</g>
</g>
<!-- Node26&#45;&gt;Node33 -->
<g id="edge47" class="edge">
<title>Node26&#45;&gt;Node33</title>
<path fill="none" stroke="#191970" d="M1617.4696,-190.2967C1611.5805,-181.9016 1604.1402,-171.2952 1597.5283,-161.8698"/>
<polygon fill="#191970" stroke="#191970" points="1600.3656,-159.8198 1591.7574,-153.6432 1594.635,-163.8398 1600.3656,-159.8198"/>
</g>
<!-- Node36 -->
<g id="node31" class="node">
<title>Node36</title>
<g id="a_node31"><a xlink:href="_field_b_c_ops_8_h.html" target="_top" xlink:title="amr&#45;wind/core/FieldBCOps.H">
<polygon fill="#ffffff" stroke="#ff0000" points="941.6346,-129 941.6346,-148 1086.6346,-148 1086.6346,-129 941.6346,-129"/>
<text text-anchor="middle" x="1014.1346" y="-136" font-family="Helvetica,sans-Serif" font-size="10.00" fill="#000000">amr&#45;wind/core/FieldBCOps.H</text>
</a>
</g>
</g>
<!-- Node26&#45;&gt;Node36 -->
<g id="edge57" class="edge">
<title>Node26&#45;&gt;Node36</title>
<path fill="none" stroke="#191970" d="M1558.3499,-199.0795C1461.4728,-189.9948 1280.7975,-172.4313 1127.1346,-154 1115.3842,-152.5906 1102.9614,-150.9944 1090.8206,-149.3756"/>
<polygon fill="#191970" stroke="#191970" points="1091.0873,-145.88 1080.7096,-148.014 1090.153,-152.8174 1091.0873,-145.88"/>
</g>
<!-- Node28 -->
<g id="node23" class="node">
<title>Node28</title>
<polygon fill="#ffffff" stroke="#bfbfbf" points="2651.6346,-.5 2651.6346,-19.5 2696.6346,-19.5 2696.6346,-.5 2651.6346,-.5"/>
<text text-anchor="middle" x="2674.1346" y="-7.5" font-family="Helvetica,sans-Serif" font-size="10.00" fill="#000000">iosfwd</text>
</g>
<!-- Node27&#45;&gt;Node28 -->
<g id="edge41" class="edge">
<title>Node27&#45;&gt;Node28</title>
<path fill="none" stroke="#191970" d="M2606.3818,-56.2977C2620.1313,-46.9022 2637.7267,-34.8787 2651.5403,-25.4395"/>
<polygon fill="#191970" stroke="#191970" points="2653.7114,-28.195 2659.9932,-19.6633 2649.7621,-22.4155 2653.7114,-28.195"/>
</g>
<!-- Node30 -->
<g id="node25" class="node">
<title>Node30</title>
<polygon fill="#ffffff" stroke="#bfbfbf" points="2267.6346,-.5 2267.6346,-19.5 2360.6346,-19.5 2360.6346,-.5 2267.6346,-.5"/>
<text text-anchor="middle" x="2314.1346" y="-7.5" font-family="Helvetica,sans-Serif" font-size="10.00" fill="#000000">AMReX_REAL.H</text>
</g>
<!-- Node29&#45;&gt;Node30 -->
<g id="edge43" class="edge">
<title>Node29&#45;&gt;Node30</title>
<path fill="none" stroke="#191970" d="M2412.8533,-61.8906C2393.6205,-51.7811 2363.1467,-35.7628 2341.142,-24.1962"/>
<polygon fill="#191970" stroke="#191970" points="2342.7676,-21.0967 2332.2875,-19.5419 2339.5106,-27.2928 2342.7676,-21.0967"/>
</g>
<!-- Node31 -->
<g id="node26" class="node">
<title>Node31</title>
<polygon fill="#ffffff" stroke="#bfbfbf" points="2507.1346,-.5 2507.1346,-19.5 2633.1346,-19.5 2633.1346,-.5 2507.1346,-.5"/>
<text text-anchor="middle" x="2570.1346" y="-7.5" font-family="Helvetica,sans-Serif" font-size="10.00" fill="#000000">AMReX_GpuQualifiers.H</text>
</g>
<!-- Node29&#45;&gt;Node31 -->
<g id="edge44" class="edge">
<title>Node29&#45;&gt;Node31</title>
<path fill="none" stroke="#191970" d="M2452.8533,-61.8906C2476.0086,-51.6457 2512.8787,-35.3326 2539.0937,-23.7339"/>
<polygon fill="#191970" stroke="#191970" points="2540.8396,-26.7888 2548.5684,-19.5419 2538.0073,-20.3874 2540.8396,-26.7888"/>
</g>
<!-- Node32 -->
<g id="node27" class="node">
<title>Node32</title>
<polygon fill="#ffffff" stroke="#bfbfbf" points="2379.1346,-.5 2379.1346,-19.5 2489.1346,-19.5 2489.1346,-.5 2379.1346,-.5"/>
<text text-anchor="middle" x="2434.1346" y="-7.5" font-family="Helvetica,sans-Serif" font-size="10.00" fill="#000000">AMReX_Extension.H</text>
</g>
<!-- Node29&#45;&gt;Node32 -->
<g id="edge45" class="edge">
<title>Node29&#45;&gt;Node32</title>
<path fill="none" stroke="#191970" d="M2431.6033,-61.8906C2432.0192,-53.3657 2432.64,-40.6392 2433.1627,-29.9235"/>
<polygon fill="#191970" stroke="#191970" points="2436.6678,-29.9035 2433.6592,-19.7449 2429.6761,-29.5624 2436.6678,-29.9035"/>
</g>
<!-- Node33&#45;&gt;Node12 -->
<g id="edge50" class="edge">
<title>Node33&#45;&gt;Node12</title>
<path fill="none" stroke="#191970" d="M1593.3665,-123.4246C1606.6131,-105.1992 1623.6526,-74.6566 1606.1346,-56 1584.5987,-33.0643 1158.8217,-18.0697 967.6665,-12.4681"/>
<polygon fill="#191970" stroke="#191970" points="967.7322,-8.9687 957.6347,-12.1765 967.5288,-15.9657 967.7322,-8.9687"/>
</g>
<!-- Node33&#45;&gt;Node13 -->
<g id="edge51" class="edge">
<title>Node33&#45;&gt;Node13</title>
<path fill="none" stroke="#191970" d="M1511.0136,-124.1433C1508.0196,-123.7198 1505.0505,-123.3353 1502.1346,-123 1050.6055,-71.0838 933.8935,-113.0131 480.1346,-87 441.2521,-84.7709 398.0742,-81.4285 362.252,-78.4175"/>
<polygon fill="#191970" stroke="#191970" points="362.13,-74.8947 351.87,-77.537 361.5384,-81.8697 362.13,-74.8947"/>
</g>
<!-- Node33&#45;&gt;Node14 -->
<g id="edge53" class="edge">
<title>Node33&#45;&gt;Node14</title>
<path fill="none" stroke="#191970" d="M1511.0131,-124.1477C1508.0193,-123.723 1505.0503,-123.337 1502.1346,-123 1283.6655,-97.7508 727.7906,-134.8442 513.1346,-87 497.6991,-83.5596 409.8338,-44.7826 362.4389,-23.6084"/>
<polygon fill="#191970" stroke="#191970" points="363.814,-20.3893 353.2565,-19.5001 360.9551,-26.779 363.814,-20.3893"/>
</g>
<!-- Node33&#45;&gt;Node17 -->
<g id="edge48" class="edge">
<title>Node33&#45;&gt;Node17</title>
<path fill="none" stroke="#191970" d="M1510.9825,-124.3804C1507.997,-123.892 1505.0382,-123.4291 1502.1346,-123 1343.0639,-99.4946 1301.7155,-106.7466 1142.1346,-87 1129.725,-85.4644 1116.5165,-83.6538 1103.8046,-81.8219"/>
<polygon fill="#191970" stroke="#191970" points="1104.1419,-78.3341 1093.7412,-80.353 1103.1308,-85.2607 1104.1419,-78.3341"/>
</g>
<!-- Node33&#45;&gt;Node24 -->
<g id="edge52" class="edge">
<title>Node33&#45;&gt;Node24</title>
<path fill="none" stroke="#191970" d="M1651.3373,-124.0039C1699.0318,-114.0007 1763.4972,-100.1781 1820.1346,-87 1824.8827,-85.8952 1829.8273,-84.7131 1834.7611,-83.5127"/>
<polygon fill="#191970" stroke="#191970" points="1835.9321,-86.8291 1844.8067,-81.042 1834.2602,-80.0317 1835.9321,-86.8291"/>
</g>
<!-- Node33&#45;&gt;Node29 -->
<g id="edge49" class="edge">
<title>Node33&#45;&gt;Node29</title>
<path fill="none" stroke="#191970" d="M1651.2278,-136.7336C1786.8769,-132.6699 2094.5398,-120.3068 2351.1346,-87 2359.6049,-85.9005 2368.5296,-84.4575 2377.2231,-82.8942"/>
<polygon fill="#191970" stroke="#191970" points="2378.0933,-86.2923 2387.2815,-81.0171 2376.8091,-79.4111 2378.0933,-86.2923"/>
</g>
<!-- Node33&#45;&gt;Node30 -->
<g id="edge54" class="edge">
<title>Node33&#45;&gt;Node30</title>
<path fill="none" stroke="#191970" d="M1651.1876,-137.0678C1790.9802,-133.4923 2099.6713,-121.8009 2199.1346,-87 2237.1756,-73.69 2274.7366,-44.7654 2296.1155,-26.402"/>
<polygon fill="#191970" stroke="#191970" points="2298.5328,-28.9372 2303.737,-19.7086 2293.9137,-23.6775 2298.5328,-28.9372"/>
</g>
<!-- Node34 -->
<g id="node29" class="node">
<title>Node34</title>
<polygon fill="#ffffff" stroke="#bfbfbf" points="1469.1346,-62 1469.1346,-81 1597.1346,-81 1597.1346,-62 1469.1346,-62"/>
<text text-anchor="middle" x="1533.1346" y="-69" font-family="Helvetica,sans-Serif" font-size="10.00" fill="#000000">AMReX_PhysBCFunct.H</text>
</g>
<!-- Node33&#45;&gt;Node34 -->
<g id="edge55" class="edge">
<title>Node33&#45;&gt;Node34</title>
<path fill="none" stroke="#191970" d="M1570.2426,-123.2967C1562.9819,-113.1618 1553.4121,-99.804 1545.8095,-89.1921"/>
<polygon fill="#191970" stroke="#191970" points="1548.649,-87.1458 1539.9799,-81.055 1542.9586,-91.2225 1548.649,-87.1458"/>
</g>
<!-- Node35 -->
<g id="node30" class="node">
<title>Node35</title>
<polygon fill="#ffffff" stroke="#bfbfbf" points="1691.1346,-62 1691.1346,-81 1811.1346,-81 1811.1346,-62 1691.1346,-62"/>
<text text-anchor="middle" x="1751.1346" y="-69" font-family="Helvetica,sans-Serif" font-size="10.00" fill="#000000">AMReX_FillPatchUtil.H</text>
</g>
<!-- Node33&#45;&gt;Node35 -->
<g id="edge56" class="edge">
<title>Node33&#45;&gt;Node35</title>
<path fill="none" stroke="#191970" d="M1619.2859,-123.4639C1648.7091,-111.8677 1689.0239,-95.9789 1717.3032,-84.8335"/>
<polygon fill="#191970" stroke="#191970" points="1718.7463,-88.0269 1726.7664,-81.1039 1716.1796,-81.5144 1718.7463,-88.0269"/>
</g>
<!-- Node36&#45;&gt;Node12 -->
<g id="edge58" class="edge">
<title>Node36&#45;&gt;Node12</title>
<path fill="none" stroke="#191970" d="M1003.7622,-128.8416C980.3855,-107.0742 923.3499,-53.965 894.092,-26.7212"/>
<polygon fill="#191970" stroke="#191970" points="896.331,-24.0237 886.6274,-19.7705 891.5607,-29.1466 896.331,-24.0237"/>
</g>
<!-- Node36&#45;&gt;Node19 -->
<g id="edge59" class="edge">
<title>Node36&#45;&gt;Node19</title>
<path fill="none" stroke="#191970" d="M941.4705,-129.9018C920.9973,-127.5654 898.7021,-125.1019 878.1346,-123 701.4439,-104.9427 655.1399,-117.3123 480.1346,-87 425.8585,-77.5989 413.7019,-68.8382 360.1346,-56 307.472,-43.3786 247.0038,-30.1462 204.8885,-21.1309"/>
<polygon fill="#191970" stroke="#191970" points="205.3704,-17.655 194.8599,-18.9897 203.9086,-24.5007 205.3704,-17.655"/>
</g>
<!-- Node36&#45;&gt;Node34 -->
<g id="edge60" class="edge">
<title>Node36&#45;&gt;Node34</title>
<path fill="none" stroke="#191970" d="M1082.2329,-128.9922C1097.0303,-126.9728 1112.6028,-124.8832 1127.1346,-123 1258.123,-106.0247 1291.1669,-104.1341 1422.1346,-87 1433.9669,-85.452 1446.5003,-83.7562 1458.72,-82.0721"/>
<polygon fill="#191970" stroke="#191970" points="1459.4631,-85.5027 1468.8884,-80.6638 1458.5027,-78.5689 1459.4631,-85.5027"/>
</g>
<!-- Node39&#45;&gt;Node3 -->
<g id="edge62" class="edge">
<title>Node39&#45;&gt;Node3</title>
<path fill="none" stroke="#191970" d="M1930.7784,-402.4418C2129.0155,-389.9679 2682.1346,-348.366 2682.1346,-272.5 2682.1346,-272.5 2682.1346,-272.5 2682.1346,-138.5 2682.1346,-100.8735 2691.7952,-80.3787 2663.1346,-56 2616.4013,-16.2487 2173.002,-27.7018 2112.1346,-20 2104.8103,-19.0732 2096.9702,-17.7688 2089.6269,-16.4072"/>
<polygon fill="#191970" stroke="#191970" points="2090.1654,-12.9465 2079.6818,-14.4777 2088.8321,-19.8183 2090.1654,-12.9465"/>
</g>
<!-- Node40 -->
<g id="node33" class="node">
<title>Node40</title>
<g id="a_node33"><a xlink:href="_c_f_d_sim_8_h.html" target="_top" xlink:title="amr&#45;wind/CFDSim.H">
<polygon fill="#ffffff" stroke="#ff0000" points="2213.1346,-196 2213.1346,-215 2321.1346,-215 2321.1346,-196 2213.1346,-196"/>
<text text-anchor="middle" x="2267.1346" y="-203" font-family="Helvetica,sans-Serif" font-size="10.00" fill="#000000">amr&#45;wind/CFDSim.H</text>
</a>
</g>
</g>
<!-- Node39&#45;&gt;Node40 -->
<g id="edge63" class="edge">
<title>Node39&#45;&gt;Node40</title>
<path fill="none" stroke="#191970" d="M1891.6506,-391.3923C1967.7177,-353.7335 2164.9231,-256.1022 2238.7124,-219.5711"/>
<polygon fill="#191970" stroke="#191970" points="2240.4739,-222.6045 2247.8829,-215.031 2237.3681,-216.3312 2240.4739,-222.6045"/>
</g>
<!-- Node41 -->
<g id="node34" class="node">
<title>Node41</title>
<g id="a_node34"><a xlink:href="_p_d_e_base_8_h.html" target="_top" xlink:title="amr&#45;wind/equation_systems\l/PDEBase.H">
<polygon fill="#ffffff" stroke="#ff0000" points="2213.6346,-123.5 2213.6346,-153.5 2352.6346,-153.5 2352.6346,-123.5 2213.6346,-123.5"/>
<text text-anchor="start" x="2221.6346" y="-141.5" font-family="Helvetica,sans-Serif" font-size="10.00" fill="#000000">amr&#45;wind/equation_systems</text>
<text text-anchor="middle" x="2283.1346" y="-130.5" font-family="Helvetica,sans-Serif" font-size="10.00" fill="#000000">/PDEBase.H</text>
</a>
</g>
</g>
<!-- Node39&#45;&gt;Node41 -->
<g id="edge73" class="edge">
<title>Node39&#45;&gt;Node41</title>
<path fill="none" stroke="#191970" d="M1922.5069,-391.4561C2038.6387,-361.5991 2283.1448,-291.6203 2330.1346,-221 2343.2006,-201.3633 2326.9778,-177.9044 2310.125,-161.0307"/>
<polygon fill="#191970" stroke="#191970" points="2312.1155,-158.0966 2302.4405,-153.7786 2307.311,-163.1876 2312.1155,-158.0966"/>
</g>
<!-- Node45 -->
<g id="node35" class="node">
<title>Node45</title>
<g id="a_node35"><a xlink:href="_p_d_e_ops_8_h.html" target="_top" xlink:title="amr&#45;wind/equation_systems\l/PDEOps.H">
<polygon fill="#ffffff" stroke="#000000" points="1399.6346,-257.5 1399.6346,-287.5 1538.6346,-287.5 1538.6346,-257.5 1399.6346,-257.5"/>
<text text-anchor="start" x="1407.6346" y="-275.5" font-family="Helvetica,sans-Serif" font-size="10.00" fill="#000000">amr&#45;wind/equation_systems</text>
<text text-anchor="middle" x="1469.1346" y="-264.5" font-family="Helvetica,sans-Serif" font-size="10.00" fill="#000000">/PDEOps.H</text>
</a>
</g>
</g>
<!-- Node39&#45;&gt;Node45 -->
<g id="edge74" class="edge">
<title>Node39&#45;&gt;Node45</title>
<path fill="none" stroke="#191970" d="M1791.5299,-401.5893C1734.7066,-395.6807 1653.2833,-382.8093 1587.1346,-355 1551.6303,-340.0738 1516.1189,-313.2296 1493.4702,-294.2205"/>
<polygon fill="#191970" stroke="#191970" points="1495.6081,-291.4435 1485.7318,-287.6082 1491.0607,-296.7653 1495.6081,-291.4435"/>
</g>
<!-- Node50 -->
<g id="node39" class="node">
<title>Node50</title>
<g id="a_node39"><a xlink:href="_comp_r_h_s_ops_8_h.html" target="_top" xlink:title="amr&#45;wind/equation_systems\l/CompRHSOps.H">
<polygon fill="#ffffff" stroke="#000000" points="1791.6346,-324.5 1791.6346,-354.5 1930.6346,-354.5 1930.6346,-324.5 1791.6346,-324.5"/>
<text text-anchor="start" x="1799.6346" y="-342.5" font-family="Helvetica,sans-Serif" font-size="10.00" fill="#000000">amr&#45;wind/equation_systems</text>
<text text-anchor="middle" x="1861.1346" y="-331.5" font-family="Helvetica,sans-Serif" font-size="10.00" fill="#000000">/CompRHSOps.H</text>
</a>
</g>
</g>
<!-- Node39&#45;&gt;Node50 -->
<g id="edge86" class="edge">
<title>Node39&#45;&gt;Node50</title>
<path fill="none" stroke="#191970" d="M1861.1346,-391.2967C1861.1346,-383.5013 1861.1346,-373.7991 1861.1346,-364.9064"/>
<polygon fill="#191970" stroke="#191970" points="1864.6347,-364.6431 1861.1346,-354.6432 1857.6347,-364.6432 1864.6347,-364.6431"/>
</g>
<!-- Node51 -->
<g id="node40" class="node">
<title>Node51</title>
<g id="a_node40"><a xlink:href="_diffusion_ops_8_h.html" target="_top" xlink:title="amr&#45;wind/equation_systems\l/DiffusionOps.H">
<polygon fill="#ffffff" stroke="#ff0000" points="1595.6346,-324.5 1595.6346,-354.5 1734.6346,-354.5 1734.6346,-324.5 1595.6346,-324.5"/>
<text text-anchor="start" x="1603.6346" y="-342.5" font-family="Helvetica,sans-Serif" font-size="10.00" fill="#000000">amr&#45;wind/equation_systems</text>
<text text-anchor="middle" x="1665.1346" y="-331.5" font-family="Helvetica,sans-Serif" font-size="10.00" fill="#000000">/DiffusionOps.H</text>
</a>
</g>
</g>
<!-- Node39&#45;&gt;Node51 -->
<g id="edge90" class="edge">
<title>Node39&#45;&gt;Node51</title>
<path fill="none" stroke="#191970" d="M1817.1484,-391.4639C1788.1229,-381.5419 1749.9043,-368.4774 1719.0504,-357.9304"/>
<polygon fill="#191970" stroke="#191970" points="1719.9072,-354.5245 1709.3127,-354.6017 1717.643,-361.1482 1719.9072,-354.5245"/>
</g>
<!-- Node40&#45;&gt;Node16 -->
<g id="edge66" class="edge">
<title>Node40&#45;&gt;Node16</title>
<path fill="none" stroke="#191970" d="M2213.0977,-203.9801C1996.2069,-197.7919 1188.3223,-173.8778 933.1346,-154 915.7312,-152.6444 897.0862,-150.7363 879.4533,-148.7208"/>
<polygon fill="#191970" stroke="#191970" points="879.5436,-145.2077 869.2053,-147.525 878.7322,-152.1605 879.5436,-145.2077"/>
</g>
<!-- Node40&#45;&gt;Node24 -->
<g id="edge64" class="edge">
<title>Node40&#45;&gt;Node24</title>
<path fill="none" stroke="#191970" d="M2239.755,-195.9705C2172.0185,-172.3947 1996.517,-111.311 1919.405,-84.472"/>
<polygon fill="#191970" stroke="#191970" points="1920.227,-81.0523 1909.6322,-81.0706 1917.926,-87.6633 1920.227,-81.0523"/>
</g>
<!-- Node40&#45;&gt;Node29 -->
<g id="edge65" class="edge">
<title>Node40&#45;&gt;Node29</title>
<path fill="none" stroke="#191970" d="M2314.0208,-195.9488C2340.6424,-188.44 2372.9713,-175.5312 2395.1346,-154 2412.7608,-136.8765 2422.3163,-109.6602 2427.0655,-91.2117"/>
<polygon fill="#191970" stroke="#191970" points="2430.5222,-91.7991 2429.3809,-81.2659 2423.7046,-90.2119 2430.5222,-91.7991"/>
</g>
<!-- Node40&#45;&gt;Node41 -->
<g id="edge67" class="edge">
<title>Node40&#45;&gt;Node41</title>
<path fill="none" stroke="#191970" d="M2269.427,-195.9005C2271.4514,-187.4234 2274.4932,-174.6856 2277.1975,-163.3614"/>
<polygon fill="#191970" stroke="#191970" points="2280.6288,-164.0613 2279.5473,-153.5218 2273.8202,-162.4353 2280.6288,-164.0613"/>
</g>
<!-- Node41&#45;&gt;Node3 -->
<g id="edge68" class="edge">
<title>Node41&#45;&gt;Node3</title>
<path fill="none" stroke="#191970" d="M2278.7379,-123.2497C2272.5507,-104.5545 2259.4599,-73.2384 2237.1346,-56 2225.4253,-46.9587 2137.3197,-26.8871 2089.6121,-16.5036"/>
<polygon fill="#191970" stroke="#191970" points="2090.3232,-13.0765 2079.8091,-14.3826 2088.8428,-19.9182 2090.3232,-13.0765"/>
</g>
<!-- Node41&#45;&gt;Node6 -->
<g id="edge69" class="edge">
<title>Node41&#45;&gt;Node6</title>
<path fill="none" stroke="#191970" d="M2213.619,-135.9701C2071.7138,-130.4046 1738.582,-115.287 1460.1346,-87 1447.7199,-85.7388 1434.5539,-84.125 1421.8094,-82.4174"/>
<polygon fill="#191970" stroke="#191970" points="1422.0838,-78.9224 1411.7013,-81.0327 1421.1337,-85.8576 1422.0838,-78.9224"/>
</g>
<!-- Node41&#45;&gt;Node12 -->
<g id="edge71" class="edge">
<title>Node41&#45;&gt;Node12</title>
<path fill="none" stroke="#191970" d="M2213.5604,-130.7591C2137.8977,-121.6111 2022.3704,-105.301 1982.1346,-87 1962.2946,-77.9759 1964.505,-63.7529 1944.1346,-56 1898.9322,-38.7961 1219.0156,-19.1047 968.1809,-12.3878"/>
<polygon fill="#191970" stroke="#191970" points="968.0902,-8.8842 958.0003,-12.116 967.9033,-15.8817 968.0902,-8.8842"/>
</g>
<!-- Node41&#45;&gt;Node20 -->
<g id="edge72" class="edge">
<title>Node41&#45;&gt;Node20</title>
<path fill="none" stroke="#191970" d="M2285.731,-123.3579C2287.9199,-105.6198 2288.8157,-76.1061 2275.1346,-56 2264.8195,-40.8407 2247.9306,-30.3928 2231.553,-23.3358"/>
<polygon fill="#191970" stroke="#191970" points="2232.609,-19.9896 2222.0228,-19.5626 2230.0321,-26.4981 2232.609,-19.9896"/>
</g>
<!-- Node41&#45;&gt;Node27 -->
<g id="edge70" class="edge">
<title>Node41&#45;&gt;Node27</title>
<path fill="none" stroke="#191970" d="M2350.6849,-123.4639C2396.981,-113.1588 2458.5065,-99.4637 2506.7724,-88.7202"/>
<polygon fill="#191970" stroke="#191970" points="2507.5493,-92.133 2516.5499,-86.5438 2506.0283,-85.3002 2507.5493,-92.133"/>
</g>
<!-- Node45&#45;&gt;Node13 -->
<g id="edge75" class="edge">
<title>Node45&#45;&gt;Node13</title>
<path fill="none" stroke="#191970" d="M1399.4199,-268.3103C1294.97,-261.3329 1103.2738,-245.6182 1039.1346,-221 1016.8015,-212.428 1017.4893,-198.5156 995.1346,-190 863.8664,-139.9958 808.5724,-213.0877 681.1346,-154 662.8784,-145.5354 666.2758,-131.7083 648.1346,-123 635.3618,-116.8687 464.7237,-94.3493 362.0185,-81.207"/>
<polygon fill="#191970" stroke="#191970" points="362.3556,-77.7217 351.9927,-79.9263 361.4685,-84.6653 362.3556,-77.7217"/>
</g>
<!-- Node45&#45;&gt;Node26 -->
<g id="edge76" class="edge">
<title>Node45&#45;&gt;Node26</title>
<path fill="none" stroke="#191970" d="M1504.8173,-257.4639C1527.8538,-247.7567 1558.0287,-235.0415 1582.7632,-224.6188"/>
<polygon fill="#191970" stroke="#191970" points="1584.4401,-227.7103 1592.2963,-220.6017 1581.7219,-221.2596 1584.4401,-227.7103"/>
</g>
<!-- Node45&#45;&gt;Node40 -->
<g id="edge84" class="edge">
<title>Node45&#45;&gt;Node40</title>
<path fill="none" stroke="#191970" d="M1538.9038,-266.6422C1691.8841,-253.798 2054.9332,-223.3164 2202.7962,-210.9018"/>
<polygon fill="#191970" stroke="#191970" points="2203.3925,-214.3642 2213.0646,-210.0397 2202.8068,-207.3887 2203.3925,-214.3642"/>
</g>
<!-- Node46 -->
<g id="node36" class="node">
<title>Node46</title>
<g id="a_node36"><a xlink:href="_turbulence_model_8_h.html" target="_top" xlink:title="amr&#45;wind/turbulence\l/TurbulenceModel.H">
<polygon fill="#ffffff" stroke="#000000" points="1389.1346,-123.5 1389.1346,-153.5 1493.1346,-153.5 1493.1346,-123.5 1389.1346,-123.5"/>
<text text-anchor="start" x="1397.1346" y="-141.5" font-family="Helvetica,sans-Serif" font-size="10.00" fill="#000000">amr&#45;wind/turbulence</text>
<text text-anchor="middle" x="1441.1346" y="-130.5" font-family="Helvetica,sans-Serif" font-size="10.00" fill="#000000">/TurbulenceModel.H</text>
</a>
</g>
</g>
<!-- Node45&#45;&gt;Node46 -->
<g id="edge77" class="edge">
<title>Node45&#45;&gt;Node46</title>
<path fill="none" stroke="#191970" d="M1465.9771,-257.389C1461.2296,-234.6691 1452.1963,-191.438 1446.4296,-163.8405"/>
<polygon fill="#191970" stroke="#191970" points="1449.795,-162.8341 1444.3235,-153.7614 1442.943,-164.2659 1449.795,-162.8341"/>
</g>
<!-- Node47 -->
<g id="node37" class="node">
<title>Node47</title>
<g id="a_node37"><a xlink:href="_i_o_manager_8_h.html" target="_top" xlink:title="amr&#45;wind/utilities\l/IOManager.H">
<polygon fill="#ffffff" stroke="#ff0000" points="1991.1346,-56.5 1991.1346,-86.5 2081.1346,-86.5 2081.1346,-56.5 1991.1346,-56.5"/>
<text text-anchor="start" x="1999.1346" y="-74.5" font-family="Helvetica,sans-Serif" font-size="10.00" fill="#000000">amr&#45;wind/utilities</text>
<text text-anchor="middle" x="2036.1346" y="-63.5" font-family="Helvetica,sans-Serif" font-size="10.00" fill="#000000">/IOManager.H</text>
</a>
</g>
</g>
<!-- Node45&#45;&gt;Node47 -->
<g id="edge81" class="edge">
<title>Node45&#45;&gt;Node47</title>
<path fill="none" stroke="#191970" d="M1479.8797,-257.1923C1493.8728,-238.4378 1520.12,-207.0606 1550.1346,-190 1587.7795,-168.6023 1861.7337,-108.6242 1980.9553,-83.1647"/>
<polygon fill="#191970" stroke="#191970" points="1981.9253,-86.5366 1990.9757,-81.0284 1980.4657,-79.6905 1981.9253,-86.5366"/>
</g>
<!-- Node49 -->
<g id="node38" class="node">
<title>Node49</title>
<polygon fill="#ffffff" stroke="#bfbfbf" points="461.1346,-196 461.1346,-215 577.1346,-215 577.1346,-196 461.1346,-196"/>
<text text-anchor="middle" x="519.1346" y="-203" font-family="Helvetica,sans-Serif" font-size="10.00" fill="#000000">AMReX_ParmParse.H</text>
</g>
<!-- Node45&#45;&gt;Node49 -->
<g id="edge85" class="edge">
<title>Node45&#45;&gt;Node49</title>
<path fill="none" stroke="#191970" d="M1399.5679,-269.931C1219.926,-263.0576 743.6442,-243.2501 587.1346,-221 580.2884,-220.0267 573.1127,-218.7163 566.0951,-217.2676"/>
<polygon fill="#191970" stroke="#191970" points="566.4989,-213.7737 555.9836,-215.0693 565.0117,-220.6139 566.4989,-213.7737"/>
</g>
<!-- Node46&#45;&gt;Node6 -->
<g id="edge79" class="edge">
<title>Node46&#45;&gt;Node6</title>
<path fill="none" stroke="#191970" d="M1420.4853,-123.2967C1405.7565,-112.4524 1386.016,-97.9182 1371.195,-87.006"/>
<polygon fill="#191970" stroke="#191970" points="1373.2402,-84.1655 1363.1122,-81.055 1369.0899,-89.8025 1373.2402,-84.1655"/>
</g>
<!-- Node46&#45;&gt;Node8 -->
<g id="edge78" class="edge">
<title>Node46&#45;&gt;Node8</title>
<path fill="none" stroke="#191970" d="M1493.1725,-123.8637C1540.2011,-110.3901 1602.612,-91.7896 1606.1346,-87 1614.2976,-75.9008 1614.9736,-66.5688 1606.1346,-56 1580.6642,-25.545 1469.4004,-15.2248 1402.221,-11.7479"/>
<polygon fill="#191970" stroke="#191970" points="1401.9947,-8.233 1391.8375,-11.2466 1401.6571,-15.2249 1401.9947,-8.233"/>
</g>
<!-- Node46&#45;&gt;Node12 -->
<g id="edge80" class="edge">
<title>Node46&#45;&gt;Node12</title>
<path fill="none" stroke="#191970" d="M1442.4967,-123.3593C1443.2696,-104.4765 1441.3471,-72.6561 1422.1346,-56 1388.6615,-26.9809 1114.8062,-15.8375 968.1219,-11.9201"/>
<polygon fill="#191970" stroke="#191970" points="967.8734,-8.4125 957.7854,-11.6504 967.6907,-15.4101 967.8734,-8.4125"/>
</g>
<!-- Node47&#45;&gt;Node3 -->
<g id="edge82" class="edge">
<title>Node47&#45;&gt;Node3</title>
<path fill="none" stroke="#191970" d="M2041.82,-56.2977C2044.8796,-48.1166 2048.6844,-37.943 2051.9474,-29.2179"/>
<polygon fill="#191970" stroke="#191970" points="2055.2273,-30.4394 2055.452,-19.8469 2048.6708,-27.9873 2055.2273,-30.4394"/>
</g>
<!-- Node47&#45;&gt;Node8 -->
<g id="edge83" class="edge">
<title>Node47&#45;&gt;Node8</title>
<path fill="none" stroke="#191970" d="M1990.8984,-58.7191C1986.2743,-57.6826 1981.6267,-56.7483 1977.1346,-56 1765.8823,-20.8083 1510.12,-12.5395 1402.1842,-10.5966"/>
<polygon fill="#191970" stroke="#191970" points="1401.9581,-7.0924 1391.9004,-10.4228 1401.8398,-14.0914 1401.9581,-7.0924"/>
</g>
<!-- Node50&#45;&gt;Node20 -->
<g id="edge87" class="edge">
<title>Node50&#45;&gt;Node20</title>
<path fill="none" stroke="#191970" d="M1930.6811,-328.7313C2109.8091,-299.3796 2578.8691,-211.7408 2663.1346,-87 2732.6444,15.8975 2895.5482,-90.3624 2259.6594,-20.0062"/>
<polygon fill="#191970" stroke="#191970" points="2259.6139,-16.4795 2249.2878,-18.8509 2258.8388,-23.4365 2259.6139,-16.4795"/>
</g>
<!-- Node50&#45;&gt;Node25 -->
<g id="edge89" class="edge">
<title>Node50&#45;&gt;Node25</title>
<path fill="none" stroke="#191970" d="M1852.7387,-324.2967C1848.1973,-316.0729 1842.484,-305.7272 1837.3598,-296.4483"/>
<polygon fill="#191970" stroke="#191970" points="1840.3954,-294.7051 1832.4972,-287.6432 1834.2677,-298.0891 1840.3954,-294.7051"/>
</g>
<!-- Node50&#45;&gt;Node45 -->
<g id="edge88" class="edge">
<title>Node50&#45;&gt;Node45</title>
<path fill="none" stroke="#191970" d="M1791.5045,-327.5989C1723.5627,-315.9864 1620.3043,-298.3377 1549.0482,-286.1587"/>
<polygon fill="#191970" stroke="#191970" points="1549.222,-282.6377 1538.7752,-284.4029 1548.0426,-289.5377 1549.222,-282.6377"/>
</g>
<!-- Node51&#45;&gt;Node2 -->
<g id="edge91" class="edge">
<title>Node51&#45;&gt;Node2</title>
<path fill="none" stroke="#191970" d="M1595.3824,-332.8617C1463.8194,-320.3407 1179.799,-293.3104 1040.8959,-280.0909"/>
<polygon fill="#191970" stroke="#191970" points="1041.0317,-276.5881 1030.7451,-279.1249 1040.3685,-283.5566 1041.0317,-276.5881"/>
</g>
<!-- Node51&#45;&gt;Node24 -->
<g id="edge95" class="edge">
<title>Node51&#45;&gt;Node24</title>
<path fill="none" stroke="#191970" d="M1677.4232,-324.3233C1714.9767,-277.9439 1828.088,-138.2488 1868.0019,-88.9543"/>
<polygon fill="#191970" stroke="#191970" points="1870.7948,-91.0668 1874.3675,-81.0926 1865.3545,-86.6619 1870.7948,-91.0668"/>
</g>
<!-- Node51&#45;&gt;Node25 -->
<g id="edge92" class="edge">
<title>Node51&#45;&gt;Node25</title>
<path fill="none" stroke="#191970" d="M1700.8173,-324.4639C1723.8538,-314.7567 1754.0287,-302.0415 1778.7632,-291.6188"/>
<polygon fill="#191970" stroke="#191970" points="1780.4401,-294.7103 1788.2963,-287.6017 1777.7219,-288.2596 1780.4401,-294.7103"/>
</g>
<!-- Node51&#45;&gt;Node26 -->
<g id="edge94" class="edge">
<title>Node51&#45;&gt;Node26</title>
<path fill="none" stroke="#191970" d="M1660.9621,-324.389C1654.661,-301.5686 1642.646,-258.055 1635.0307,-230.4751"/>
<polygon fill="#191970" stroke="#191970" points="1638.384,-229.4691 1632.3486,-220.7614 1631.6365,-231.3323 1638.384,-229.4691"/>
</g>
<!-- Node51&#45;&gt;Node45 -->
<g id="edge93" class="edge">
<title>Node51&#45;&gt;Node45</title>
<path fill="none" stroke="#191970" d="M1621.1484,-324.4639C1592.1229,-314.5419 1553.9043,-301.4774 1523.0504,-290.9304"/>
<polygon fill="#191970" stroke="#191970" points="1523.9072,-287.5245 1513.3127,-287.6017 1521.643,-294.1482 1523.9072,-287.5245"/>
</g>
<!-- Node56&#45;&gt;Node14 -->
<g id="edge98" class="edge">
<title>Node56&#45;&gt;Node14</title>
<path fill="none" stroke="#191970" d="M539.459,-135.3621C441.4053,-128.6606 230.5696,-111.536 209.1346,-87 183.0923,-57.1902 235.3475,-34.9673 279.6011,-22.2471"/>
<polygon fill="#191970" stroke="#191970" points="280.7584,-25.5587 289.4673,-19.5249 278.8965,-18.8108 280.7584,-25.5587"/>
</g>
<!-- Node56&#45;&gt;Node17 -->
<g id="edge97" class="edge">
<title>Node56&#45;&gt;Node17</title>
<path fill="none" stroke="#191970" d="M638.7901,-131.0738C719.7073,-118.9724 880.0593,-94.9912 970.6937,-81.4365"/>
<polygon fill="#191970" stroke="#191970" points="971.2126,-84.8979 980.5849,-79.9572 970.1771,-77.9749 971.2126,-84.8979"/>
</g>
<!-- Node57&#45;&gt;Node6 -->
<g id="edge100" class="edge">
<title>Node57&#45;&gt;Node6</title>
<path fill="none" stroke="#191970" d="M1186.6867,-195.9579C1239.4432,-187.3658 1306.1789,-173.1443 1326.1346,-154 1343.1513,-137.6751 1348.3037,-110.0521 1349.7556,-91.3099"/>
<polygon fill="#191970" stroke="#191970" points="1353.2567,-91.3699 1350.2497,-81.2108 1346.2651,-91.0278 1353.2567,-91.3699"/>
</g>
<!-- Node57&#45;&gt;Node12 -->
<g id="edge101" class="edge">
<title>Node57&#45;&gt;Node12</title>
<path fill="none" stroke="#191970" d="M1047.2151,-192.6297C1002.6568,-183.1897 950.2004,-169.3772 933.1346,-154 896.3094,-120.8184 882.9624,-60.747 878.3761,-29.7241"/>
<polygon fill="#191970" stroke="#191970" points="881.8332,-29.1689 877.0555,-19.7125 874.8934,-30.0844 881.8332,-29.1689"/>
</g>
<!-- Node57&#45;&gt;Node13 -->
<g id="edge102" class="edge">
<title>Node57&#45;&gt;Node13</title>
<path fill="none" stroke="#191970" d="M1047.5225,-192.2865C1042.6593,-191.4769 1037.8273,-190.7055 1033.1346,-190 896.409,-169.4441 853.0248,-204.0375 724.1346,-154 702.1718,-145.4737 703.04,-131.6727 681.1346,-123 666.484,-117.1996 472.8809,-93.6593 361.9175,-80.5046"/>
<polygon fill="#191970" stroke="#191970" points="362.1169,-77.0039 351.7748,-79.3038 361.2939,-83.9553 362.1169,-77.0039"/>
</g>
<!-- Node57&#45;&gt;Node14 -->
<g id="edge104" class="edge">
<title>Node57&#45;&gt;Node14</title>
<path fill="none" stroke="#191970" d="M1047.329,-198.2748C1020.6788,-195.5807 990.008,-192.5576 962.1346,-190 791.7568,-174.3666 307.491,-219.408 199.1346,-87 173.2631,-55.3859 225.9128,-34.0443 272.4136,-21.9961"/>
<polygon fill="#191970" stroke="#191970" points="273.3492,-25.3702 282.2126,-19.5659 271.6641,-18.576 273.3492,-25.3702"/>
</g>
<!-- Node57&#45;&gt;Node16 -->
<g id="edge103" class="edge">
<title>Node57&#45;&gt;Node16</title>
<path fill="none" stroke="#191970" d="M1047.3959,-190.7136C989.853,-178.5131 909.3135,-161.4367 856.2194,-150.1794"/>
<polygon fill="#191970" stroke="#191970" points="856.8178,-146.7285 846.3093,-148.0782 855.3659,-153.5763 856.8178,-146.7285"/>
</g>
<!-- Node58&#45;&gt;Node2 -->
<g id="edge110" class="edge">
<title>Node58&#45;&gt;Node2</title>
<path fill="none" stroke="#191970" d="M749.4011,-324.4639C790.9671,-314.2627 846.0684,-300.7397 889.6405,-290.0462"/>
<polygon fill="#191970" stroke="#191970" points="890.7233,-293.3844 899.6008,-287.6017 889.0548,-286.5861 890.7233,-293.3844"/>
</g>
<!-- Node58&#45;&gt;Node19 -->
<g id="edge112" class="edge">
<title>Node58&#45;&gt;Node19</title>
<path fill="none" stroke="#191970" d="M618.3793,-333.2123C443.4697,-316.5124 .1346,-268.0177 .1346,-205.5 .1346,-205.5 .1346,-205.5 .1346,-138.5 .1346,-100.3133 -2.0189,-83.8248 24.1346,-56 43.766,-35.114 73.5591,-23.6926 99.4633,-17.456"/>
<polygon fill="#191970" stroke="#191970" points="100.5277,-20.8055 109.5408,-15.2364 99.022,-13.9694 100.5277,-20.8055"/>
</g>
<!-- Node58&#45;&gt;Node25 -->
<g id="edge109" class="edge">
<title>Node58&#45;&gt;Node25</title>
<path fill="none" stroke="#191970" d="M757.8921,-328.7752C771.5418,-326.9551 785.7672,-325.252 799.1346,-324 1130.9556,-292.9226 1215.313,-305.3436 1548.1346,-288 1614.2338,-284.5555 1689.218,-280.3237 1744.3295,-277.1526"/>
<polygon fill="#191970" stroke="#191970" points="1744.6002,-280.6429 1754.3822,-276.5733 1744.1974,-273.6545 1744.6002,-280.6429"/>
</g>
<!-- Node58&#45;&gt;Node45 -->
<g id="edge111" class="edge">
<title>Node58&#45;&gt;Node45</title>
<path fill="none" stroke="#191970" d="M757.9231,-329.0819C771.5701,-327.235 785.7865,-325.4436 799.1346,-324 1011.7904,-301.0018 1263.5063,-284.5299 1389.2547,-277.0326"/>
<polygon fill="#191970" stroke="#191970" points="1389.7824,-280.5075 1399.5577,-276.4216 1389.368,-273.5198 1389.7824,-280.5075"/>
</g>
<!-- Node58&#45;&gt;Node49 -->
<g id="edge113" class="edge">
<title>Node58&#45;&gt;Node49</title>
<path fill="none" stroke="#191970" d="M618.4974,-331.8478C563.6908,-324.221 493.7204,-310.3693 476.1346,-288 459.801,-267.2235 481.9136,-239.3027 499.9985,-221.858"/>
<polygon fill="#191970" stroke="#191970" points="502.3848,-224.4185 507.3787,-215.0744 497.6478,-219.2648 502.3848,-224.4185"/>
</g>
<!-- Node59 -->
<g id="node44" class="node">
<title>Node59</title>
<polygon fill="#ffffff" stroke="#bfbfbf" points="610.1346,-263 610.1346,-282 672.1346,-282 672.1346,-263 610.1346,-263"/>
<text text-anchor="middle" x="641.1346" y="-270" font-family="Helvetica,sans-Serif" font-size="10.00" fill="#000000">type_traits</text>
</g>
<!-- Node58&#45;&gt;Node59 -->
<g id="edge106" class="edge">
<title>Node58&#45;&gt;Node59</title>
<path fill="none" stroke="#191970" d="M677.4696,-324.2967C670.4311,-314.2631 661.1768,-301.0709 653.7694,-290.5113"/>
<polygon fill="#191970" stroke="#191970" points="656.4455,-288.2316 647.8373,-282.055 650.7149,-292.2516 656.4455,-288.2316"/>
</g>
<!-- Node60 -->
<g id="node45" class="node">
<title>Node60</title>
<g id="a_node45"><a xlink:href="_godunov_8_h.html" target="_top" xlink:title="amr&#45;wind/convection\l/Godunov.H">
<polygon fill="#ffffff" stroke="#000000" points="484.6346,-257.5 484.6346,-287.5 591.6346,-287.5 591.6346,-257.5 484.6346,-257.5"/>
<text text-anchor="start" x="492.6346" y="-275.5" font-family="Helvetica,sans-Serif" font-size="10.00" fill="#000000">amr&#45;wind/convection</text>
<text text-anchor="middle" x="538.1346" y="-264.5" font-family="Helvetica,sans-Serif" font-size="10.00" fill="#000000">/Godunov.H</text>
</a>
</g>
</g>
<!-- Node58&#45;&gt;Node60 -->
<g id="edge107" class="edge">
<title>Node58&#45;&gt;Node60</title>
<path fill="none" stroke="#191970" d="M654.4717,-324.4639C632.8353,-314.7996 604.524,-302.154 581.2478,-291.7572"/>
<polygon fill="#191970" stroke="#191970" points="582.5024,-288.4844 571.9443,-287.6017 579.6475,-294.8758 582.5024,-288.4844"/>
</g>
<!-- Node60&#45;&gt;Node16 -->
<g id="edge108" class="edge">
<title>Node60&#45;&gt;Node16</title>
<path fill="none" stroke="#191970" d="M591.7182,-259.2241C652.4854,-244.1512 743.3283,-221.5582 744.1346,-221 767.3079,-204.9555 783.9684,-176.2076 793.0853,-157.2417"/>
<polygon fill="#191970" stroke="#191970" points="796.2923,-158.6445 797.2639,-148.0943 789.9252,-155.7359 796.2923,-158.6445"/>
</g>
<!-- Node61&#45;&gt;Node2 -->
<g id="edge119" class="edge">
<title>Node61&#45;&gt;Node2</title>
<path fill="none" stroke="#191970" d="M896.1955,-324.2967C907.365,-315.3876 921.6569,-303.9882 933.9879,-294.1527"/>
<polygon fill="#191970" stroke="#191970" points="936.5138,-296.615 942.1491,-287.6432 932.1489,-291.1426 936.5138,-296.615"/>
</g>
<!-- Node61&#45;&gt;Node19 -->
<g id="edge121" class="edge">
<title>Node61&#45;&gt;Node19</title>
<path fill="none" stroke="#191970" d="M807.2509,-324.7904C777.2851,-316.6572 742.6837,-304.7309 714.1346,-288 696.7732,-277.8255 699.21,-265.8441 681.1346,-257 588.5908,-211.7191 553.4158,-239.89 452.1346,-221 313.5652,-195.1553 261.4262,-229.0928 142.1346,-154 100.4065,-127.7326 67.9695,-100.0445 90.1346,-56 96.8082,-42.7387 109.3139,-32.3415 121.3553,-24.8125"/>
<polygon fill="#191970" stroke="#191970" points="123.4547,-27.6422 130.3688,-19.6143 119.9575,-21.5783 123.4547,-27.6422"/>
</g>
<!-- Node61&#45;&gt;Node25 -->
<g id="edge118" class="edge">
<title>Node61&#45;&gt;Node25</title>
<path fill="none" stroke="#191970" d="M946.7698,-334.5733C1118.6495,-322.4129 1562.2871,-291.0256 1744.3552,-278.1444"/>
<polygon fill="#191970" stroke="#191970" points="1744.6693,-281.631 1754.3974,-277.4339 1744.1752,-274.6484 1744.6693,-281.631"/>
</g>
<!-- Node61&#45;&gt;Node45 -->
<g id="edge120" class="edge">
<title>Node61&#45;&gt;Node45</title>
<path fill="none" stroke="#191970" d="M946.7853,-331.6172C1057.4139,-319.0968 1272.6758,-294.7344 1389.3457,-281.5302"/>
<polygon fill="#191970" stroke="#191970" points="1389.7477,-285.0071 1399.2907,-280.4046 1388.9605,-278.0515 1389.7477,-285.0071"/>
</g>
<!-- Node61&#45;&gt;Node49 -->
<g id="edge122" class="edge">
<title>Node61&#45;&gt;Node49</title>
<path fill="none" stroke="#191970" d="M836.7585,-324.4302C813.2494,-315.07 783.3651,-302.1494 758.1346,-288 737.27,-276.299 735.8185,-267.1023 714.1346,-257 700.8657,-250.8182 621.7275,-230.738 568.4351,-217.5544"/>
<polygon fill="#191970" stroke="#191970" points="569.0252,-214.0951 558.4778,-215.0969 567.3478,-220.8912 569.0252,-214.0951"/>
</g>
<!-- Node61&#45;&gt;Node59 -->
<g id="edge115" class="edge">
<title>Node61&#45;&gt;Node59</title>
<path fill="none" stroke="#191970" d="M817.0444,-324.422C779.2777,-314.6682 729.6408,-301.341 686.1346,-288 683.3943,-287.1597 680.5705,-286.2626 677.736,-285.3394"/>
<polygon fill="#191970" stroke="#191970" points="678.7577,-281.9907 668.164,-282.1452 676.5419,-288.6307 678.7577,-281.9907"/>
</g>
<!-- Node62 -->
<g id="node47" class="node">
<title>Node62</title>
<g id="a_node47"><a xlink:href="_m_o_l_8_h.html" target="_top" xlink:title="amr&#45;wind/convection\l/MOL.H">
<polygon fill="#ffffff" stroke="#000000" points="766.6346,-257.5 766.6346,-287.5 873.6346,-287.5 873.6346,-257.5 766.6346,-257.5"/>
<text text-anchor="start" x="774.6346" y="-275.5" font-family="Helvetica,sans-Serif" font-size="10.00" fill="#000000">amr&#45;wind/convection</text>
<text text-anchor="middle" x="820.1346" y="-264.5" font-family="Helvetica,sans-Serif" font-size="10.00" fill="#000000">/MOL.H</text>
</a>
</g>
</g>
<!-- Node61&#45;&gt;Node62 -->
<g id="edge116" class="edge">
<title>Node61&#45;&gt;Node62</title>
<path fill="none" stroke="#191970" d="M864.2004,-324.2967C856.9126,-315.7303 847.6659,-304.8614 839.5267,-295.2943"/>
<polygon fill="#191970" stroke="#191970" points="842.1632,-292.9918 833.0176,-287.6432 836.8316,-297.5277 842.1632,-292.9918"/>
</g>
<!-- Node62&#45;&gt;Node16 -->
<g id="edge117" class="edge">
<title>Node62&#45;&gt;Node16</title>
<path fill="none" stroke="#191970" d="M817.992,-257.389C814.5443,-233.0735 807.7654,-185.2644 803.9378,-158.2698"/>
<polygon fill="#191970" stroke="#191970" points="807.3657,-157.5137 802.4964,-148.1042 800.435,-158.4965 807.3657,-157.5137"/>
</g>
<!-- Node63&#45;&gt;Node2 -->
<g id="edge124" class="edge">
<title>Node63&#45;&gt;Node2</title>
<path fill="none" stroke="#191970" d="M1204.2809,-324.5473C1155.8033,-314.1703 1091.1287,-300.3262 1040.6683,-289.5248"/>
<polygon fill="#191970" stroke="#191970" points="1041.2859,-286.0778 1030.7748,-287.407 1039.8207,-292.9227 1041.2859,-286.0778"/>
</g>
<!-- Node63&#45;&gt;Node45 -->
<g id="edge125" class="edge">
<title>Node63&#45;&gt;Node45</title>
<path fill="none" stroke="#191970" d="M1317.8964,-324.4639C1346.7738,-314.5419 1384.7974,-301.4774 1415.4939,-290.9304"/>
<polygon fill="#191970" stroke="#191970" points="1416.8619,-294.1613 1425.1819,-287.6017 1414.5873,-287.5411 1416.8619,-294.1613"/>
</g>
<!-- Node64 -->
<g id="node49" class="node">
<title>Node64</title>
<g id="a_node49"><a xlink:href="_b_c_interface_8_h.html" target="_top" xlink:title="amr&#45;wind/boundary_conditions\l/BCInterface.H">
<polygon fill="#ffffff" stroke="#000000" points="1135.6346,-123.5 1135.6346,-153.5 1284.6346,-153.5 1284.6346,-123.5 1135.6346,-123.5"/>
<text text-anchor="start" x="1143.6346" y="-141.5" font-family="Helvetica,sans-Serif" font-size="10.00" fill="#000000">amr&#45;wind/boundary_conditions</text>
<text text-anchor="middle" x="1210.1346" y="-130.5" font-family="Helvetica,sans-Serif" font-size="10.00" fill="#000000">/BCInterface.H</text>
</a>
</g>
</g>
<!-- Node63&#45;&gt;Node64 -->
<g id="edge126" class="edge">
<title>Node63&#45;&gt;Node64</title>
<path fill="none" stroke="#191970" d="M1269.3242,-324.3923C1258.3634,-289.9685 1231.4467,-205.4334 1218.0188,-163.2615"/>
<polygon fill="#191970" stroke="#191970" points="1221.2826,-161.9755 1214.9135,-153.5088 1214.6125,-164.0994 1221.2826,-161.9755"/>
</g>
<!-- Node64&#45;&gt;Node17 -->
<g id="edge127" class="edge">
<title>Node64&#45;&gt;Node17</title>
<path fill="none" stroke="#191970" d="M1171.31,-123.4639C1141.2784,-111.8332 1100.097,-95.8843 1071.3064,-84.7342"/>
<polygon fill="#191970" stroke="#191970" points="1072.2672,-81.353 1061.6781,-81.0053 1069.7392,-87.8806 1072.2672,-81.353"/>
</g>
<!-- Node64&#45;&gt;Node20 -->
<g id="edge128" class="edge">
<title>Node64&#45;&gt;Node20</title>
<path fill="none" stroke="#191970" d="M1284.9787,-131.0207C1314.5925,-128.2328 1348.9466,-125.2116 1380.1346,-123 1537.7194,-111.8254 1942.6117,-143.5229 2090.1346,-87 2123.1191,-74.3621 2153.3565,-45.6271 2170.4852,-27.0568"/>
<polygon fill="#191970" stroke="#191970" points="2173.1302,-29.3497 2177.1946,-19.5654 2167.9158,-24.6795 2173.1302,-29.3497"/>
</g>
<!-- Node65 -->
<g id="node50" class="node">
<title>Node65</title>
<polygon fill="#ffffff" stroke="#bfbfbf" points="1150.6346,-62 1150.6346,-81 1269.6346,-81 1269.6346,-62 1150.6346,-62"/>
<text text-anchor="middle" x="1210.1346" y="-69" font-family="Helvetica,sans-Serif" font-size="10.00" fill="#000000">AMReX_BC_TYPES.H</text>
</g>
<!-- Node64&#45;&gt;Node65 -->
<g id="edge129" class="edge">
<title>Node64&#45;&gt;Node65</title>
<path fill="none" stroke="#191970" d="M1210.1346,-123.2967C1210.1346,-113.7699 1210.1346,-101.3954 1210.1346,-91.1306"/>
<polygon fill="#191970" stroke="#191970" points="1213.6347,-91.0549 1210.1346,-81.055 1206.6347,-91.055 1213.6347,-91.0549"/>
</g>
</g>
</svg>
