<?xml version="1.0" encoding="UTF-8" standalone="no"?>
<!DOCTYPE svg PUBLIC "-//W3C//DTD SVG 1.1//EN"
 "http://www.w3.org/Graphics/SVG/1.1/DTD/svg11.dtd">
<!-- Generated by graphviz version 2.40.1 (20161225.0304)
 -->
<!-- Title: TurbModelDefs.H Pages: 1 -->
<svg width="1485pt" height="341pt"
 viewBox="0.00 0.00 1485.00 341.00" xmlns="http://www.w3.org/2000/svg" xmlns:xlink="http://www.w3.org/1999/xlink">
<g id="graph0" class="graph" transform="scale(1 1) rotate(0) translate(4 337)">
<title>TurbModelDefs.H</title>
<polygon fill="#ffffff" stroke="transparent" points="-4,4 -4,-337 1481,-337 1481,4 -4,4"/>
<!-- Node0 -->
<g id="node1" class="node">
<title>Node0</title>
<polygon fill="#bfbfbf" stroke="#000000" points="509,-313.5 509,-332.5 603,-332.5 603,-313.5 509,-313.5"/>
<text text-anchor="middle" x="556" y="-320.5" font-family="Helvetica,sans-Serif" font-size="10.00" fill="#000000">TurbModelDefs.H</text>
</g>
<!-- Node1 -->
<g id="node2" class="node">
<title>Node1</title>
<g id="a_node2"><a xlink:href="_turbulence_model_8_h.html" target="_top" xlink:title="amr&#45;wind/turbulence\l/TurbulenceModel.H">
<polygon fill="#ffffff" stroke="#000000" points="457,-112.5 457,-142.5 561,-142.5 561,-112.5 457,-112.5"/>
<text text-anchor="start" x="465" y="-130.5" font-family="Helvetica,sans-Serif" font-size="10.00" fill="#000000">amr&#45;wind/turbulence</text>
<text text-anchor="middle" x="509" y="-119.5" font-family="Helvetica,sans-Serif" font-size="10.00" fill="#000000">/TurbulenceModel.H</text>
</a>
</g>
</g>
<!-- Node0&#45;&gt;Node1 -->
<g id="edge1" class="edge">
<title>Node0&#45;&gt;Node1</title>
<path fill="none" stroke="#191970" d="M548.4717,-313.3837C541.922,-304.4758 532.7553,-290.5899 528,-277 513.3772,-235.2107 509.7843,-183.346 509.0287,-152.9849"/>
<polygon fill="#191970" stroke="#191970" points="512.5258,-152.7724 508.8636,-142.8307 505.5268,-152.8863 512.5258,-152.7724"/>
</g>
<!-- Node9 -->
<g id="node10" class="node">
<title>Node9</title>
<g id="a_node10"><a xlink:href="_const_transport_8_h.html" target="_top" xlink:title="amr&#45;wind/transport\l_models/ConstTransport.H">
<polygon fill="#ffffff" stroke="#000000" points="537,-246.5 537,-276.5 671,-276.5 671,-246.5 537,-246.5"/>
<text text-anchor="start" x="545" y="-264.5" font-family="Helvetica,sans-Serif" font-size="10.00" fill="#000000">amr&#45;wind/transport</text>
<text text-anchor="middle" x="604" y="-253.5" font-family="Helvetica,sans-Serif" font-size="10.00" fill="#000000">_models/ConstTransport.H</text>
</a>
</g>
</g>
<!-- Node0&#45;&gt;Node9 -->
<g id="edge9" class="edge">
<title>Node0&#45;&gt;Node9</title>
<path fill="none" stroke="#191970" d="M563.5,-313.3906C569.515,-305.6839 578.2101,-294.5434 586.0028,-284.5589"/>
<polygon fill="#191970" stroke="#191970" points="588.8642,-286.5812 592.2579,-276.5446 583.346,-282.2743 588.8642,-286.5812"/>
</g>
<!-- Node2 -->
<g id="node3" class="node">
<title>Node2</title>
<g id="a_node3"><a xlink:href="_factory_8_h.html" target="_top" xlink:title="amr&#45;wind/core/Factory.H">
<polygon fill="#ffffff" stroke="#000000" points="221.5,-56.5 221.5,-75.5 346.5,-75.5 346.5,-56.5 221.5,-56.5"/>
<text text-anchor="middle" x="284" y="-63.5" font-family="Helvetica,sans-Serif" font-size="10.00" fill="#000000">amr&#45;wind/core/Factory.H</text>
</a>
</g>
</g>
<!-- Node1&#45;&gt;Node2 -->
<g id="edge2" class="edge">
<title>Node1&#45;&gt;Node2</title>
<path fill="none" stroke="#191970" d="M456.8149,-113.2361C418.1309,-102.6625 365.9385,-88.3965 329.0646,-78.3177"/>
<polygon fill="#191970" stroke="#191970" points="329.6635,-74.853 319.0945,-75.5925 327.8178,-81.6053 329.6635,-74.853"/>
</g>
<!-- Node8 -->
<g id="node9" class="node">
<title>Node8</title>
<g id="a_node9"><a xlink:href="_field_desc_types_8_h.html" target="_top" xlink:title="amr&#45;wind/core/FieldDescTypes.H">
<polygon fill="#ffffff" stroke="#000000" points="796.5,-.5 796.5,-19.5 959.5,-19.5 959.5,-.5 796.5,-.5"/>
<text text-anchor="middle" x="878" y="-7.5" font-family="Helvetica,sans-Serif" font-size="10.00" fill="#000000">amr&#45;wind/core/FieldDescTypes.H</text>
</a>
</g>
</g>
<!-- Node1&#45;&gt;Node8 -->
<g id="edge8" class="edge">
<title>Node1&#45;&gt;Node8</title>
<path fill="none" stroke="#191970" d="M561.3719,-116.4177C603.1289,-107.0864 662.8748,-92.6233 714,-76 761.4795,-60.5621 814.8385,-38.0943 847.4336,-23.7643"/>
<polygon fill="#191970" stroke="#191970" points="849.1255,-26.843 856.8532,-19.5951 846.2923,-20.442 849.1255,-26.843"/>
</g>
<!-- Node3 -->
<g id="node4" class="node">
<title>Node3</title>
<polygon fill="#ffffff" stroke="#bfbfbf" points="258,-.5 258,-19.5 310,-19.5 310,-.5 258,-.5"/>
<text text-anchor="middle" x="284" y="-7.5" font-family="Helvetica,sans-Serif" font-size="10.00" fill="#000000">memory</text>
</g>
<!-- Node2&#45;&gt;Node3 -->
<g id="edge3" class="edge">
<title>Node2&#45;&gt;Node3</title>
<path fill="none" stroke="#191970" d="M284,-56.2455C284,-48.9382 284,-38.6944 284,-29.7046"/>
<polygon fill="#191970" stroke="#191970" points="287.5001,-29.6426 284,-19.6427 280.5001,-29.6427 287.5001,-29.6426"/>
</g>
<!-- Node4 -->
<g id="node5" class="node">
<title>Node4</title>
<polygon fill="#ffffff" stroke="#bfbfbf" points="328.5,-.5 328.5,-19.5 411.5,-19.5 411.5,-.5 328.5,-.5"/>
<text text-anchor="middle" x="370" y="-7.5" font-family="Helvetica,sans-Serif" font-size="10.00" fill="#000000">unordered_map</text>
</g>
<!-- Node2&#45;&gt;Node4 -->
<g id="edge4" class="edge">
<title>Node2&#45;&gt;Node4</title>
<path fill="none" stroke="#191970" d="M298.9801,-56.2455C312.1751,-47.6534 331.6051,-35.0014 346.8079,-25.1018"/>
<polygon fill="#191970" stroke="#191970" points="348.7215,-28.0325 355.1916,-19.6427 344.9017,-22.1665 348.7215,-28.0325"/>
</g>
<!-- Node5 -->
<g id="node6" class="node">
<title>Node5</title>
<polygon fill="#ffffff" stroke="#bfbfbf" points="0,-.5 0,-19.5 54,-19.5 54,-.5 0,-.5"/>
<text text-anchor="middle" x="27" y="-7.5" font-family="Helvetica,sans-Serif" font-size="10.00" fill="#000000">iostream</text>
</g>
<!-- Node2&#45;&gt;Node5 -->
<g id="edge5" class="edge">
<title>Node2&#45;&gt;Node5</title>
<path fill="none" stroke="#191970" d="M233.3185,-56.4346C190.5812,-48.1462 127.5992,-35.4139 63.8913,-20.1046"/>
<polygon fill="#191970" stroke="#191970" points="64.6199,-16.68 54.0769,-17.7268 62.9716,-23.4831 64.6199,-16.68"/>
</g>
<!-- Node6 -->
<g id="node7" class="node">
<title>Node6</title>
<polygon fill="#ffffff" stroke="#bfbfbf" points="72.5,-.5 72.5,-19.5 159.5,-19.5 159.5,-.5 72.5,-.5"/>
<text text-anchor="middle" x="116" y="-7.5" font-family="Helvetica,sans-Serif" font-size="10.00" fill="#000000">AMReX_Print.H</text>
</g>
<!-- Node2&#45;&gt;Node6 -->
<g id="edge6" class="edge">
<title>Node2&#45;&gt;Node6</title>
<path fill="none" stroke="#191970" d="M255.1198,-56.3733C227.1839,-47.0613 184.6858,-32.8953 154.0131,-22.671"/>
<polygon fill="#191970" stroke="#191970" points="155.097,-19.3431 144.5034,-19.5011 152.8834,-25.9839 155.097,-19.3431"/>
</g>
<!-- Node7 -->
<g id="node8" class="node">
<title>Node7</title>
<polygon fill="#ffffff" stroke="#bfbfbf" points="178,-.5 178,-19.5 240,-19.5 240,-.5 178,-.5"/>
<text text-anchor="middle" x="209" y="-7.5" font-family="Helvetica,sans-Serif" font-size="10.00" fill="#000000">AMReX.H</text>
</g>
<!-- Node2&#45;&gt;Node7 -->
<g id="edge7" class="edge">
<title>Node2&#45;&gt;Node7</title>
<path fill="none" stroke="#191970" d="M270.936,-56.2455C259.6438,-47.814 243.1155,-35.4729 229.9729,-25.6598"/>
<polygon fill="#191970" stroke="#191970" points="232.0211,-22.8211 221.9143,-19.6427 227.8331,-28.4301 232.0211,-22.8211"/>
</g>
<!-- Node10 -->
<g id="node11" class="node">
<title>Node10</title>
<g id="a_node11"><a xlink:href="_transport_model_8_h.html" target="_top" xlink:title="amr&#45;wind/transport\l_models/TransportModel.H">
<polygon fill="#ffffff" stroke="#000000" points="537,-179.5 537,-209.5 671,-209.5 671,-179.5 537,-179.5"/>
<text text-anchor="start" x="545" y="-197.5" font-family="Helvetica,sans-Serif" font-size="10.00" fill="#000000">amr&#45;wind/transport</text>
<text text-anchor="middle" x="604" y="-186.5" font-family="Helvetica,sans-Serif" font-size="10.00" fill="#000000">_models/TransportModel.H</text>
</a>
</g>
</g>
<!-- Node9&#45;&gt;Node10 -->
<g id="edge10" class="edge">
<title>Node9&#45;&gt;Node10</title>
<path fill="none" stroke="#191970" d="M604,-246.2967C604,-238.5013 604,-228.7991 604,-219.9064"/>
<polygon fill="#191970" stroke="#191970" points="607.5001,-219.6431 604,-209.6432 600.5001,-219.6432 607.5001,-219.6431"/>
</g>
<!-- Node24 -->
<g id="node25" class="node">
<title>Node24</title>
<polygon fill="#ffffff" stroke="#bfbfbf" points="689,-185 689,-204 805,-204 805,-185 689,-185"/>
<text text-anchor="middle" x="747" y="-192" font-family="Helvetica,sans-Serif" font-size="10.00" fill="#000000">AMReX_ParmParse.H</text>
</g>
<!-- Node9&#45;&gt;Node24 -->
<g id="edge40" class="edge">
<title>Node9&#45;&gt;Node24</title>
<path fill="none" stroke="#191970" d="M636.092,-246.4639C660.4098,-235.0702 693.5721,-219.5327 717.2862,-208.4219"/>
<polygon fill="#191970" stroke="#191970" points="718.9317,-211.5161 726.5021,-204.1039 715.9618,-205.1773 718.9317,-211.5161"/>
</g>
<!-- Node10&#45;&gt;Node2 -->
<g id="edge11" class="edge">
<title>Node10&#45;&gt;Node2</title>
<path fill="none" stroke="#191970" d="M602.2217,-179.3529C599.1522,-160.4635 591.0121,-128.6359 570,-112 537.8025,-86.5082 430.2857,-74.8202 356.6557,-69.6985"/>
<polygon fill="#191970" stroke="#191970" points="356.714,-66.1946 346.5024,-69.0186 356.2462,-73.179 356.714,-66.1946"/>
</g>
<!-- Node11 -->
<g id="node12" class="node">
<title>Node11</title>
<g id="a_node12"><a xlink:href="_field_repo_8_h.html" target="_top" xlink:title="amr&#45;wind/core/FieldRepo.H">
<polygon fill="#ffffff" stroke="#000000" points="962,-118 962,-137 1098,-137 1098,-118 962,-118"/>
<text text-anchor="middle" x="1030" y="-125" font-family="Helvetica,sans-Serif" font-size="10.00" fill="#000000">amr&#45;wind/core/FieldRepo.H</text>
</a>
</g>
</g>
<!-- Node10&#45;&gt;Node11 -->
<g id="edge12" class="edge">
<title>Node10&#45;&gt;Node11</title>
<path fill="none" stroke="#191970" d="M671.0986,-180.6067C674.1043,-180.0502 677.082,-179.5118 680,-179 772.975,-162.6915 880.4636,-147.4027 951.5283,-137.7874"/>
<polygon fill="#191970" stroke="#191970" points="952.3001,-141.2151 961.7429,-136.4105 951.3649,-134.2778 952.3001,-141.2151"/>
</g>
<!-- Node11&#45;&gt;Node4 -->
<g id="edge14" class="edge">
<title>Node11&#45;&gt;Node4</title>
<path fill="none" stroke="#191970" d="M961.8144,-123.6465C873.4364,-117.7456 714.9017,-104.0675 582,-76 518.4113,-62.5707 446.6276,-38.2034 405.024,-23.1302"/>
<polygon fill="#191970" stroke="#191970" points="405.9639,-19.7474 395.3701,-19.6026 403.5614,-26.3222 405.9639,-19.7474"/>
</g>
<!-- Node11&#45;&gt;Node8 -->
<g id="edge15" class="edge">
<title>Node11&#45;&gt;Node8</title>
<path fill="none" stroke="#191970" d="M961.9135,-122.2706C898.7196,-115.8346 811.2953,-102.3496 790,-76 772.0195,-53.7519 805.2078,-34.9435 835.8415,-23.1664"/>
<polygon fill="#191970" stroke="#191970" points="837.4355,-26.3105 845.6296,-19.5943 835.0357,-19.7347 837.4355,-26.3105"/>
</g>
<!-- Node12 -->
<g id="node13" class="node">
<title>Node12</title>
<polygon fill="#ffffff" stroke="#bfbfbf" points="1100.5,-.5 1100.5,-19.5 1141.5,-19.5 1141.5,-.5 1100.5,-.5"/>
<text text-anchor="middle" x="1121" y="-7.5" font-family="Helvetica,sans-Serif" font-size="10.00" fill="#000000">string</text>
</g>
<!-- Node11&#45;&gt;Node12 -->
<g id="edge13" class="edge">
<title>Node11&#45;&gt;Node12</title>
<path fill="none" stroke="#191970" d="M1098.1641,-123.3135C1165.8039,-117.5683 1262.6633,-104.4989 1286,-76 1344.1139,-5.031 1373.3841,-84.5812 1151.3288,-19.9282"/>
<polygon fill="#191970" stroke="#191970" points="1152.1861,-16.532 1141.6041,-17.0522 1150.2009,-23.2446 1152.1861,-16.532"/>
</g>
<!-- Node13 -->
<g id="node14" class="node">
<title>Node13</title>
<g id="a_node14"><a xlink:href="_field_utils_8_h.html" target="_top" xlink:title="amr&#45;wind/core/FieldUtils.H">
<polygon fill="#ffffff" stroke="#000000" points="963.5,-56.5 963.5,-75.5 1096.5,-75.5 1096.5,-56.5 963.5,-56.5"/>
<text text-anchor="middle" x="1030" y="-63.5" font-family="Helvetica,sans-Serif" font-size="10.00" fill="#000000">amr&#45;wind/core/FieldUtils.H</text>
</a>
</g>
</g>
<!-- Node11&#45;&gt;Node13 -->
<g id="edge16" class="edge">
<title>Node11&#45;&gt;Node13</title>
<path fill="none" stroke="#191970" d="M1030,-117.8906C1030,-109.3657 1030,-96.6392 1030,-85.9235"/>
<polygon fill="#191970" stroke="#191970" points="1033.5001,-85.7448 1030,-75.7449 1026.5001,-85.7449 1033.5001,-85.7448"/>
</g>
<!-- Node14 -->
<g id="node15" class="node">
<title>Node14</title>
<polygon fill="#ffffff" stroke="#bfbfbf" points="978,-.5 978,-19.5 1082,-19.5 1082,-.5 978,-.5"/>
<text text-anchor="middle" x="1030" y="-7.5" font-family="Helvetica,sans-Serif" font-size="10.00" fill="#000000">AMReX_MultiFab.H</text>
</g>
<!-- Node11&#45;&gt;Node14 -->
<g id="edge38" class="edge">
<title>Node11&#45;&gt;Node14</title>
<path fill="none" stroke="#191970" d="M1055.0878,-117.7974C1082.6455,-105.5555 1121.1218,-82.8286 1106,-56 1097.862,-41.5618 1083.1645,-31.1395 1068.8484,-23.9057"/>
<polygon fill="#191970" stroke="#191970" points="1070.113,-20.6342 1059.5685,-19.6024 1067.1681,-26.9846 1070.113,-20.6342"/>
</g>
<!-- Node16 -->
<g id="node17" class="node">
<title>Node16</title>
<g id="a_node17"><a xlink:href="_field_8_h.html" target="_top" xlink:title="amr&#45;wind/core/Field.H">
<polygon fill="#ffffff" stroke="#000000" points="591.5,-56.5 591.5,-75.5 704.5,-75.5 704.5,-56.5 591.5,-56.5"/>
<text text-anchor="middle" x="648" y="-63.5" font-family="Helvetica,sans-Serif" font-size="10.00" fill="#000000">amr&#45;wind/core/Field.H</text>
</a>
</g>
</g>
<!-- Node11&#45;&gt;Node16 -->
<g id="edge20" class="edge">
<title>Node11&#45;&gt;Node16</title>
<path fill="none" stroke="#191970" d="M970.7316,-117.9581C901.3797,-106.7928 786.8501,-88.3541 714.5183,-76.7091"/>
<polygon fill="#191970" stroke="#191970" points="715.0303,-73.2465 704.6011,-75.1125 713.9176,-80.1575 715.0303,-73.2465"/>
</g>
<!-- Node20 -->
<g id="node21" class="node">
<title>Node20</title>
<g id="a_node21"><a xlink:href="_int_field_8_h.html" target="_top" xlink:title="amr&#45;wind/core/IntField.H">
<polygon fill="#ffffff" stroke="#000000" points="1153,-56.5 1153,-75.5 1277,-75.5 1277,-56.5 1153,-56.5"/>
<text text-anchor="middle" x="1215" y="-63.5" font-family="Helvetica,sans-Serif" font-size="10.00" fill="#000000">amr&#45;wind/core/IntField.H</text>
</a>
</g>
</g>
<!-- Node11&#45;&gt;Node20 -->
<g id="edge29" class="edge">
<title>Node11&#45;&gt;Node20</title>
<path fill="none" stroke="#191970" d="M1058.9063,-117.8906C1090.539,-107.3749 1141.403,-90.466 1176.4229,-78.8243"/>
<polygon fill="#191970" stroke="#191970" points="1177.9115,-82.0178 1186.2967,-75.5419 1175.7032,-75.3753 1177.9115,-82.0178"/>
</g>
<!-- Node21 -->
<g id="node22" class="node">
<title>Node21</title>
<polygon fill="#ffffff" stroke="#bfbfbf" points="1294.5,-.5 1294.5,-19.5 1401.5,-19.5 1401.5,-.5 1294.5,-.5"/>
<text text-anchor="middle" x="1348" y="-7.5" font-family="Helvetica,sans-Serif" font-size="10.00" fill="#000000">AMReX_iMultiFab.H</text>
</g>
<!-- Node11&#45;&gt;Node21 -->
<g id="edge39" class="edge">
<title>Node11&#45;&gt;Node21</title>
<path fill="none" stroke="#191970" d="M1098.0708,-121.4262C1169.4152,-113.9396 1275.6884,-99.2727 1309,-76 1325.1337,-64.7284 1335.6415,-44.4567 1341.6396,-29.3435"/>
<polygon fill="#191970" stroke="#191970" points="1344.9532,-30.4726 1345.0853,-19.8786 1338.3755,-28.0779 1344.9532,-30.4726"/>
</g>
<!-- Node22 -->
<g id="node23" class="node">
<title>Node22</title>
<g id="a_node23"><a xlink:href="_scratch_field_8_h.html" target="_top" xlink:title="amr&#45;wind/core/ScratchField.H">
<polygon fill="#ffffff" stroke="#000000" points="799,-56.5 799,-75.5 945,-75.5 945,-56.5 799,-56.5"/>
<text text-anchor="middle" x="872" y="-63.5" font-family="Helvetica,sans-Serif" font-size="10.00" fill="#000000">amr&#45;wind/core/ScratchField.H</text>
</a>
</g>
</g>
<!-- Node11&#45;&gt;Node22 -->
<g id="edge33" class="edge">
<title>Node11&#45;&gt;Node22</title>
<path fill="none" stroke="#191970" d="M1005.3125,-117.8906C978.6443,-107.5103 935.9718,-90.9004 906.1089,-79.2766"/>
<polygon fill="#191970" stroke="#191970" points="907.1027,-75.9076 896.5141,-75.5419 904.5635,-82.4309 907.1027,-75.9076"/>
</g>
<!-- Node23 -->
<g id="node24" class="node">
<title>Node23</title>
<polygon fill="#ffffff" stroke="#bfbfbf" points="1371,-56.5 1371,-75.5 1477,-75.5 1477,-56.5 1371,-56.5"/>
<text text-anchor="middle" x="1424" y="-63.5" font-family="Helvetica,sans-Serif" font-size="10.00" fill="#000000">AMReX_AmrCore.H</text>
</g>
<!-- Node11&#45;&gt;Node23 -->
<g id="edge37" class="edge">
<title>Node11&#45;&gt;Node23</title>
<path fill="none" stroke="#191970" d="M1091.1302,-117.9581C1164.4154,-106.5189 1286.6117,-87.4451 1360.8026,-75.8646"/>
<polygon fill="#191970" stroke="#191970" points="1361.602,-79.2823 1370.9426,-74.2818 1360.5224,-72.366 1361.602,-79.2823"/>
</g>
<!-- Node13&#45;&gt;Node8 -->
<g id="edge17" class="edge">
<title>Node13&#45;&gt;Node8</title>
<path fill="none" stroke="#191970" d="M1003.8703,-56.3733C978.9232,-47.1822 941.1408,-33.2624 913.4794,-23.0713"/>
<polygon fill="#191970" stroke="#191970" points="914.3822,-19.674 903.7888,-19.5011 911.9622,-26.2424 914.3822,-19.674"/>
</g>
<!-- Node13&#45;&gt;Node14 -->
<g id="edge18" class="edge">
<title>Node13&#45;&gt;Node14</title>
<path fill="none" stroke="#191970" d="M1030,-56.2455C1030,-48.9382 1030,-38.6944 1030,-29.7046"/>
<polygon fill="#191970" stroke="#191970" points="1033.5001,-29.6426 1030,-19.6427 1026.5001,-29.6427 1033.5001,-29.6426"/>
</g>
<!-- Node15 -->
<g id="node16" class="node">
<title>Node15</title>
<polygon fill="#ffffff" stroke="#bfbfbf" points="1160,-.5 1160,-19.5 1276,-19.5 1276,-.5 1160,-.5"/>
<text text-anchor="middle" x="1218" y="-7.5" font-family="Helvetica,sans-Serif" font-size="10.00" fill="#000000">AMReX_Interpolater.H</text>
</g>
<!-- Node13&#45;&gt;Node15 -->
<g id="edge19" class="edge">
<title>Node13&#45;&gt;Node15</title>
<path fill="none" stroke="#191970" d="M1062.3184,-56.3733C1093.8506,-46.9807 1141.9621,-32.6496 1176.3501,-22.4064"/>
<polygon fill="#191970" stroke="#191970" points="1177.5187,-25.7103 1186.1034,-19.5011 1175.5203,-19.0016 1177.5187,-25.7103"/>
</g>
<!-- Node16&#45;&gt;Node3 -->
<g id="edge22" class="edge">
<title>Node16&#45;&gt;Node3</title>
<path fill="none" stroke="#191970" d="M591.4078,-60.5126C527.6471,-53.7896 420.8129,-40.9015 320.2937,-20.0424"/>
<polygon fill="#191970" stroke="#191970" points="320.7814,-16.5684 310.2747,-17.9321 319.3385,-23.4181 320.7814,-16.5684"/>
</g>
<!-- Node16&#45;&gt;Node4 -->
<g id="edge23" class="edge">
<title>Node16&#45;&gt;Node4</title>
<path fill="none" stroke="#191970" d="M600.526,-56.4369C550.804,-46.4209 472.9546,-30.739 421.7043,-20.4152"/>
<polygon fill="#191970" stroke="#191970" points="422.3193,-16.9689 411.8251,-18.4252 420.937,-23.8311 422.3193,-16.9689"/>
</g>
<!-- Node16&#45;&gt;Node8 -->
<g id="edge28" class="edge">
<title>Node16&#45;&gt;Node8</title>
<path fill="none" stroke="#191970" d="M687.2771,-56.4369C726.4744,-46.8932 786.8,-32.2052 829.0835,-21.9101"/>
<polygon fill="#191970" stroke="#191970" points="829.9968,-25.2901 838.8849,-19.5237 828.3408,-18.4888 829.9968,-25.2901"/>
</g>
<!-- Node16&#45;&gt;Node12 -->
<g id="edge21" class="edge">
<title>Node16&#45;&gt;Node12</title>
<path fill="none" stroke="#191970" d="M704.8134,-61.6547C803.295,-53.8738 1002.7702,-36.9562 1090.3214,-19.6437"/>
<polygon fill="#191970" stroke="#191970" points="1091.1073,-23.0551 1100.1813,-17.5859 1089.6771,-16.2028 1091.1073,-23.0551"/>
</g>
<!-- Node16&#45;&gt;Node14 -->
<g id="edge24" class="edge">
<title>Node16&#45;&gt;Node14</title>
<path fill="none" stroke="#191970" d="M704.5868,-58.2423C766.625,-49.6584 869.3826,-35.2093 967.6598,-20.1837"/>
<polygon fill="#191970" stroke="#191970" points="968.4136,-23.609 977.7676,-18.6337 967.3526,-16.6899 968.4136,-23.609"/>
</g>
<!-- Node17 -->
<g id="node18" class="node">
<title>Node17</title>
<polygon fill="#ffffff" stroke="#bfbfbf" points="429.5,-.5 429.5,-19.5 528.5,-19.5 528.5,-.5 429.5,-.5"/>
<text text-anchor="middle" x="479" y="-7.5" font-family="Helvetica,sans-Serif" font-size="10.00" fill="#000000">AMReX_BCRec.H</text>
</g>
<!-- Node16&#45;&gt;Node17 -->
<g id="edge25" class="edge">
<title>Node16&#45;&gt;Node17</title>
<path fill="none" stroke="#191970" d="M618.9479,-56.3733C590.8457,-47.0613 548.0946,-32.8953 517.2393,-22.671"/>
<polygon fill="#191970" stroke="#191970" points="518.2664,-19.3243 507.673,-19.5011 516.0645,-25.969 518.2664,-19.3243"/>
</g>
<!-- Node18 -->
<g id="node19" class="node">
<title>Node18</title>
<polygon fill="#ffffff" stroke="#bfbfbf" points="546.5,-.5 546.5,-19.5 631.5,-19.5 631.5,-.5 546.5,-.5"/>
<text text-anchor="middle" x="589" y="-7.5" font-family="Helvetica,sans-Serif" font-size="10.00" fill="#000000">AMReX_Gpu.H</text>
</g>
<!-- Node16&#45;&gt;Node18 -->
<g id="edge26" class="edge">
<title>Node16&#45;&gt;Node18</title>
<path fill="none" stroke="#191970" d="M637.723,-56.2455C629.1782,-48.1352 616.8222,-36.4075 606.6915,-26.7919"/>
<polygon fill="#191970" stroke="#191970" points="608.8218,-23.9884 599.1592,-19.6427 604.0028,-29.0655 608.8218,-23.9884"/>
</g>
<!-- Node19 -->
<g id="node20" class="node">
<title>Node19</title>
<g id="a_node20"><a xlink:href="incflo__enums_8_h.html" target="_top" xlink:title="amr&#45;wind/incflo_enums.H">
<polygon fill="#ffffff" stroke="#000000" points="650,-.5 650,-19.5 778,-19.5 778,-.5 650,-.5"/>
<text text-anchor="middle" x="714" y="-7.5" font-family="Helvetica,sans-Serif" font-size="10.00" fill="#000000">amr&#45;wind/incflo_enums.H</text>
</a>
</g>
</g>
<!-- Node16&#45;&gt;Node19 -->
<g id="edge27" class="edge">
<title>Node16&#45;&gt;Node19</title>
<path fill="none" stroke="#191970" d="M659.4963,-56.2455C669.2442,-47.9746 683.4259,-35.9416 694.8798,-26.2232"/>
<polygon fill="#191970" stroke="#191970" points="697.2747,-28.7813 702.6354,-19.6427 692.7459,-23.4437 697.2747,-28.7813"/>
</g>
<!-- Node20&#45;&gt;Node8 -->
<g id="edge31" class="edge">
<title>Node20&#45;&gt;Node8</title>
<path fill="none" stroke="#191970" d="M1157.4505,-56.4369C1098.6851,-46.6717 1007.5087,-31.5207 945.4034,-21.2006"/>
<polygon fill="#191970" stroke="#191970" points="945.7506,-17.7103 935.3121,-19.5237 944.6031,-24.6157 945.7506,-17.7103"/>
</g>
<!-- Node20&#45;&gt;Node12 -->
<g id="edge30" class="edge">
<title>Node20&#45;&gt;Node12</title>
<path fill="none" stroke="#191970" d="M1198.6264,-56.2455C1184.0692,-47.5731 1162.569,-34.7645 1145.8848,-24.825"/>
<polygon fill="#191970" stroke="#191970" points="1147.5683,-21.7539 1137.1859,-19.6427 1143.9856,-27.7676 1147.5683,-21.7539"/>
</g>
<!-- Node20&#45;&gt;Node21 -->
<g id="edge32" class="edge">
<title>Node20&#45;&gt;Node21</title>
<path fill="none" stroke="#191970" d="M1237.8635,-56.3733C1259.405,-47.3032 1291.8838,-33.6279 1315.9956,-23.4755"/>
<polygon fill="#191970" stroke="#191970" points="1317.5767,-26.6075 1325.4348,-19.5011 1314.8603,-20.156 1317.5767,-26.6075"/>
</g>
<!-- Node22&#45;&gt;Node8 -->
<g id="edge35" class="edge">
<title>Node22&#45;&gt;Node8</title>
<path fill="none" stroke="#191970" d="M873.0451,-56.2455C873.828,-48.9382 874.9256,-38.6944 875.8888,-29.7046"/>
<polygon fill="#191970" stroke="#191970" points="879.3815,-29.9587 876.9669,-19.6427 872.4214,-29.2129 879.3815,-29.9587"/>
</g>
<!-- Node22&#45;&gt;Node12 -->
<g id="edge34" class="edge">
<title>Node22&#45;&gt;Node12</title>
<path fill="none" stroke="#191970" d="M925.96,-56.4537C968.2753,-48.5627 1028.7854,-36.3911 1090.5217,-19.8856"/>
<polygon fill="#191970" stroke="#191970" points="1091.7009,-23.1924 1100.4379,-17.1993 1089.8706,-16.4359 1091.7009,-23.1924"/>
</g>
<!-- Node22&#45;&gt;Node14 -->
<g id="edge36" class="edge">
<title>Node22&#45;&gt;Node14</title>
<path fill="none" stroke="#191970" d="M899.1612,-56.3733C925.2067,-47.1419 964.7116,-33.1402 993.4979,-22.9375"/>
<polygon fill="#191970" stroke="#191970" points="994.937,-26.1408 1003.1933,-19.5011 992.5985,-19.5429 994.937,-26.1408"/>
</g>
</g>
</svg>
