<?xml version="1.0" encoding="UTF-8" standalone="no"?>
<!DOCTYPE svg PUBLIC "-//W3C//DTD SVG 1.1//EN"
 "http://www.w3.org/Graphics/SVG/1.1/DTD/svg11.dtd">
<!-- Generated by graphviz version 2.40.1 (20161225.0304)
 -->
<!-- Title: TurbModelBase.H Pages: 1 -->
<!--zoomable 341 -->
<svg id="main" version="1.1" xmlns="http://www.w3.org/2000/svg" xmlns:xlink="http://www.w3.org/1999/xlink" xml:space="preserve" onload="init(evt)">
<style type="text/css"><![CDATA[
.edge:hover path { stroke: red; }
.edge:hover polygon { stroke: red; fill: red; }
]]></style>
<script type="text/javascript"><![CDATA[
var edges = document.getElementsByTagName('g');
if (edges && edges.length) {
  for (var i=0;i<edges.length;i++) {
    if (edges[i].id.substr(0,4)=='edge') {
      edges[i].setAttribute('class','edge');
    }
  }
}
]]></script>
        <defs>
                <circle id="rim" cx="0" cy="0" r="7"/>
                <circle id="rim2" cx="0" cy="0" r="3.5"/>
                <g id="zoomPlus">
                        <use xlink:href="#rim" fill="#404040">
                                <set attributeName="fill" to="#808080" begin="zoomplus.mouseover" end="zoomplus.mouseout"/>
                        </use>
                        <path d="M-4,0h8M0,-4v8" fill="none" stroke="white" stroke-width="1.5" pointer-events="none"/>
                </g>
                <g id="zoomMin">
                        <use xlink:href="#rim" fill="#404040">
                                <set attributeName="fill" to="#808080" begin="zoomminus.mouseover" end="zoomminus.mouseout"/>
                        </use>
                        <path d="M-4,0h8" fill="none" stroke="white" stroke-width="1.5" pointer-events="none"/>
                </g>
                <g id="dirArrow">
                        <path fill="none" stroke="white" stroke-width="1.5" d="M0,-3.0v7 M-2.5,-0.5L0,-3.0L2.5,-0.5"/>
                </g>
               <g id="resetDef">
                       <use xlink:href="#rim2" fill="#404040">
                               <set attributeName="fill" to="#808080" begin="reset.mouseover" end="reset.mouseout"/>
                       </use>
               </g>
        </defs>

<script type="text/javascript">
var viewWidth = 2219;
var viewHeight = 341;
var sectionId = 'dynsection-0';
</script>
<script xlink:href="svgpan.js"/>
<svg id="graph" class="graph">
<g id="viewport">
<title>TurbModelBase.H</title>
<polygon fill="#ffffff" stroke="transparent" points="-4,4 -4,-337 2214.5,-337 2214.5,4 -4,4"/>
<!-- Node0 -->
<g id="node1" class="node">
<title>Node0</title>
<polygon fill="#bfbfbf" stroke="#000000" points="1305.5,-313.5 1305.5,-332.5 1400.5,-332.5 1400.5,-313.5 1305.5,-313.5"/>
<text text-anchor="middle" x="1353" y="-320.5" font-family="Helvetica,sans-Serif" font-size="10.00" fill="#000000">TurbModelBase.H</text>
</g>
<!-- Node1 -->
<g id="node2" class="node">
<title>Node1</title>
<g id="a_node2"><a xlink:href="_turb_model_8_h.html" target="_top" xlink:title="amr&#45;wind/turbulence\l/TurbModel.H">
<polygon fill="#ffffff" stroke="#000000" points="1381,-246.5 1381,-276.5 1485,-276.5 1485,-246.5 1381,-246.5"/>
<text text-anchor="start" x="1389" y="-264.5" font-family="Helvetica,sans-Serif" font-size="10.00" fill="#000000">amr&#45;wind/turbulence</text>
<text text-anchor="middle" x="1433" y="-253.5" font-family="Helvetica,sans-Serif" font-size="10.00" fill="#000000">/TurbModel.H</text>
</a>
</g>
</g>
<!-- Node0&#45;&gt;Node1 -->
<g id="edge1" class="edge">
<title>Node0&#45;&gt;Node1</title>
<path fill="none" stroke="#191970" d="M1365.5,-313.3906C1376.1265,-305.2215 1391.7719,-293.1941 1405.325,-282.7752"/>
<polygon fill="#191970" stroke="#191970" points="1407.6349,-285.4142 1413.4298,-276.5446 1403.3685,-279.8645 1407.6349,-285.4142"/>
</g>
<!-- Node36 -->
<g id="node37" class="node">
<title>Node36</title>
<g id="a_node37"><a xlink:href="_i_o_manager_8_h.html" target="_top" xlink:title="amr&#45;wind/utilities\l/IOManager.H">
<polygon fill="#ffffff" stroke="#000000" points="1360,-56.5 1360,-86.5 1450,-86.5 1450,-56.5 1360,-56.5"/>
<text text-anchor="start" x="1368" y="-74.5" font-family="Helvetica,sans-Serif" font-size="10.00" fill="#000000">amr&#45;wind/utilities</text>
<text text-anchor="middle" x="1405" y="-63.5" font-family="Helvetica,sans-Serif" font-size="10.00" fill="#000000">/IOManager.H</text>
</a>
</g>
</g>
<!-- Node0&#45;&gt;Node36 -->
<g id="edge64" class="edge">
<title>Node0&#45;&gt;Node36</title>
<path fill="none" stroke="#191970" d="M1354.975,-313.448C1362.3666,-277.698 1388.5487,-151.0673 1399.7995,-96.6522"/>
<polygon fill="#191970" stroke="#191970" points="1403.2433,-97.282 1401.8406,-86.7804 1396.3883,-95.8646 1403.2433,-97.282"/>
</g>
<!-- Node38 -->
<g id="node39" class="node">
<title>Node38</title>
<g id="a_node39"><a xlink:href="field__ops_8_h.html" target="_top" xlink:title="amr&#45;wind/core/field\l_ops.H">
<polygon fill="#ffffff" stroke="#000000" points="515.5,-123.5 515.5,-153.5 614.5,-153.5 614.5,-123.5 515.5,-123.5"/>
<text text-anchor="start" x="523.5" y="-141.5" font-family="Helvetica,sans-Serif" font-size="10.00" fill="#000000">amr&#45;wind/core/field</text>
<text text-anchor="middle" x="565" y="-130.5" font-family="Helvetica,sans-Serif" font-size="10.00" fill="#000000">_ops.H</text>
</a>
</g>
</g>
<!-- Node0&#45;&gt;Node38 -->
<g id="edge69" class="edge">
<title>Node0&#45;&gt;Node38</title>
<path fill="none" stroke="#191970" d="M1309.7576,-313.4369C1198.1503,-288.6562 891.1147,-219.8579 624.4163,-154.0662"/>
<polygon fill="#191970" stroke="#191970" points="625.0953,-150.6288 614.5478,-151.6286 623.4166,-157.4246 625.0953,-150.6288"/>
</g>
<!-- Node2 -->
<g id="node3" class="node">
<title>Node2</title>
<g id="a_node3"><a xlink:href="_turbulence_model_8_h.html" target="_top" xlink:title="amr&#45;wind/turbulence\l/TurbulenceModel.H">
<polygon fill="#ffffff" stroke="#000000" points="1449,-123.5 1449,-153.5 1553,-153.5 1553,-123.5 1449,-123.5"/>
<text text-anchor="start" x="1457" y="-141.5" font-family="Helvetica,sans-Serif" font-size="10.00" fill="#000000">amr&#45;wind/turbulence</text>
<text text-anchor="middle" x="1501" y="-130.5" font-family="Helvetica,sans-Serif" font-size="10.00" fill="#000000">/TurbulenceModel.H</text>
</a>
</g>
</g>
<!-- Node1&#45;&gt;Node2 -->
<g id="edge2" class="edge">
<title>Node1&#45;&gt;Node2</title>
<path fill="none" stroke="#191970" d="M1441.3381,-246.4178C1452.9107,-225.485 1473.9662,-187.3994 1487.7164,-162.5276"/>
<polygon fill="#191970" stroke="#191970" points="1490.8184,-164.1506 1492.5937,-153.7056 1484.6922,-160.7638 1490.8184,-164.1506"/>
</g>
<!-- Node10 -->
<g id="node11" class="node">
<title>Node10</title>
<g id="a_node11"><a xlink:href="_c_f_d_sim_8_h.html" target="_top" xlink:title="amr&#45;wind/CFDSim.H">
<polygon fill="#ffffff" stroke="#000000" points="1096,-190.5 1096,-209.5 1204,-209.5 1204,-190.5 1096,-190.5"/>
<text text-anchor="middle" x="1150" y="-197.5" font-family="Helvetica,sans-Serif" font-size="10.00" fill="#000000">amr&#45;wind/CFDSim.H</text>
</a>
</g>
</g>
<!-- Node1&#45;&gt;Node10 -->
<g id="edge11" class="edge">
<title>Node1&#45;&gt;Node10</title>
<path fill="none" stroke="#191970" d="M1380.7636,-250.1483C1330.4552,-239.2155 1254.7026,-222.7534 1203.8565,-211.7038"/>
<polygon fill="#191970" stroke="#191970" points="1204.5495,-208.2728 1194.0343,-209.5693 1203.0629,-215.1131 1204.5495,-208.2728"/>
</g>
<!-- Node3 -->
<g id="node4" class="node">
<title>Node3</title>
<polygon fill="#ffffff" stroke="#bfbfbf" points="1436.5,-.5 1436.5,-19.5 1519.5,-19.5 1519.5,-.5 1436.5,-.5"/>
<text text-anchor="middle" x="1478" y="-7.5" font-family="Helvetica,sans-Serif" font-size="10.00" fill="#000000">unordered_map</text>
</g>
<!-- Node2&#45;&gt;Node3 -->
<g id="edge3" class="edge">
<title>Node2&#45;&gt;Node3</title>
<path fill="none" stroke="#191970" d="M1500.2053,-123.466C1499.1305,-106.8295 1496.7707,-79.2894 1492,-56 1490.1829,-47.1295 1487.3923,-37.5177 1484.7793,-29.3853"/>
<polygon fill="#191970" stroke="#191970" points="1488.0407,-28.1023 1481.5435,-19.7335 1481.4037,-30.3274 1488.0407,-28.1023"/>
</g>
<!-- Node4 -->
<g id="node5" class="node">
<title>Node4</title>
<g id="a_node5"><a xlink:href="_factory_8_h.html" target="_top" xlink:title="amr&#45;wind/core/Factory.H">
<polygon fill="#ffffff" stroke="#000000" points="1701.5,-62 1701.5,-81 1826.5,-81 1826.5,-62 1701.5,-62"/>
<text text-anchor="middle" x="1764" y="-69" font-family="Helvetica,sans-Serif" font-size="10.00" fill="#000000">amr&#45;wind/core/Factory.H</text>
</a>
</g>
</g>
<!-- Node2&#45;&gt;Node4 -->
<g id="edge4" class="edge">
<title>Node2&#45;&gt;Node4</title>
<path fill="none" stroke="#191970" d="M1553.2748,-125.1828C1601.0049,-113.0235 1670.9362,-95.2083 1716.9524,-83.4855"/>
<polygon fill="#191970" stroke="#191970" points="1717.8509,-86.8685 1726.6773,-81.0081 1716.1228,-80.0851 1717.8509,-86.8685"/>
</g>
<!-- Node9 -->
<g id="node10" class="node">
<title>Node9</title>
<g id="a_node10"><a xlink:href="_field_desc_types_8_h.html" target="_top" xlink:title="amr&#45;wind/core/FieldDescTypes.H">
<polygon fill="#ffffff" stroke="#000000" points="382.5,-.5 382.5,-19.5 545.5,-19.5 545.5,-.5 382.5,-.5"/>
<text text-anchor="middle" x="464" y="-7.5" font-family="Helvetica,sans-Serif" font-size="10.00" fill="#000000">amr&#45;wind/core/FieldDescTypes.H</text>
</a>
</g>
</g>
<!-- Node2&#45;&gt;Node9 -->
<g id="edge10" class="edge">
<title>Node2&#45;&gt;Node9</title>
<path fill="none" stroke="#191970" d="M1448.7698,-133.9453C1409.0833,-130.5926 1353.1331,-126.0974 1304,-123 1219.7391,-117.6882 622.6399,-120.1686 545,-87 544.0031,-86.5741 504.8905,-49.1859 481.388,-26.6718"/>
<polygon fill="#191970" stroke="#191970" points="483.7354,-24.0735 474.0937,-19.6816 478.8921,-29.1276 483.7354,-24.0735"/>
</g>
<!-- Node4&#45;&gt;Node3 -->
<g id="edge6" class="edge">
<title>Node4&#45;&gt;Node3</title>
<path fill="none" stroke="#191970" d="M1720.4502,-61.9627C1711.3798,-59.9847 1701.879,-57.919 1693,-56 1637.0992,-43.9181 1572.9862,-30.2217 1529.4221,-20.9391"/>
<polygon fill="#191970" stroke="#191970" points="1530.1392,-17.5134 1519.6295,-18.8531 1528.6808,-24.3598 1530.1392,-17.5134"/>
</g>
<!-- Node5 -->
<g id="node6" class="node">
<title>Node5</title>
<polygon fill="#ffffff" stroke="#bfbfbf" points="1285,-.5 1285,-19.5 1337,-19.5 1337,-.5 1285,-.5"/>
<text text-anchor="middle" x="1311" y="-7.5" font-family="Helvetica,sans-Serif" font-size="10.00" fill="#000000">memory</text>
</g>
<!-- Node4&#45;&gt;Node5 -->
<g id="edge5" class="edge">
<title>Node4&#45;&gt;Node5</title>
<path fill="none" stroke="#191970" d="M1723.586,-61.9393C1713.6245,-59.787 1702.957,-57.6533 1693,-56 1554.4276,-32.9906 1518.283,-38.2211 1379,-20 1368.6177,-18.6418 1357.3633,-17.0397 1347.0547,-15.5206"/>
<polygon fill="#191970" stroke="#191970" points="1347.5353,-12.0537 1337.1286,-14.0412 1346.5033,-18.9772 1347.5353,-12.0537"/>
</g>
<!-- Node6 -->
<g id="node7" class="node">
<title>Node6</title>
<polygon fill="#ffffff" stroke="#bfbfbf" points="1651,-.5 1651,-19.5 1705,-19.5 1705,-.5 1651,-.5"/>
<text text-anchor="middle" x="1678" y="-7.5" font-family="Helvetica,sans-Serif" font-size="10.00" fill="#000000">iostream</text>
</g>
<!-- Node4&#45;&gt;Node6 -->
<g id="edge7" class="edge">
<title>Node4&#45;&gt;Node6</title>
<path fill="none" stroke="#191970" d="M1750.5625,-61.8906C1736.9305,-52.1421 1715.6154,-36.8994 1699.6078,-25.4521"/>
<polygon fill="#191970" stroke="#191970" points="1701.5132,-22.5118 1691.3431,-19.5419 1697.4414,-28.2057 1701.5132,-22.5118"/>
</g>
<!-- Node7 -->
<g id="node8" class="node">
<title>Node7</title>
<polygon fill="#ffffff" stroke="#bfbfbf" points="1723.5,-.5 1723.5,-19.5 1810.5,-19.5 1810.5,-.5 1723.5,-.5"/>
<text text-anchor="middle" x="1767" y="-7.5" font-family="Helvetica,sans-Serif" font-size="10.00" fill="#000000">AMReX_Print.H</text>
</g>
<!-- Node4&#45;&gt;Node7 -->
<g id="edge8" class="edge">
<title>Node4&#45;&gt;Node7</title>
<path fill="none" stroke="#191970" d="M1764.4688,-61.8906C1764.8846,-53.3657 1765.5054,-40.6392 1766.0281,-29.9235"/>
<polygon fill="#191970" stroke="#191970" points="1769.5332,-29.9035 1766.5246,-19.7449 1762.5415,-29.5624 1769.5332,-29.9035"/>
</g>
<!-- Node8 -->
<g id="node9" class="node">
<title>Node8</title>
<polygon fill="#ffffff" stroke="#bfbfbf" points="1829,-.5 1829,-19.5 1891,-19.5 1891,-.5 1829,-.5"/>
<text text-anchor="middle" x="1860" y="-7.5" font-family="Helvetica,sans-Serif" font-size="10.00" fill="#000000">AMReX.H</text>
</g>
<!-- Node4&#45;&gt;Node8 -->
<g id="edge9" class="edge">
<title>Node4&#45;&gt;Node8</title>
<path fill="none" stroke="#191970" d="M1779,-61.8906C1794.3581,-52.0519 1818.4521,-36.6167 1836.3745,-25.1351"/>
<polygon fill="#191970" stroke="#191970" points="1838.573,-27.8833 1845.1053,-19.5419 1834.797,-21.9891 1838.573,-27.8833"/>
</g>
<!-- Node11 -->
<g id="node12" class="node">
<title>Node11</title>
<polygon fill="#ffffff" stroke="#bfbfbf" points="888,-62 888,-81 994,-81 994,-62 888,-62"/>
<text text-anchor="middle" x="941" y="-69" font-family="Helvetica,sans-Serif" font-size="10.00" fill="#000000">AMReX_AmrCore.H</text>
</g>
<!-- Node10&#45;&gt;Node11 -->
<g id="edge12" class="edge">
<title>Node10&#45;&gt;Node11</title>
<path fill="none" stroke="#191970" d="M1095.9325,-191.9639C1065.8574,-185.4748 1028.9687,-173.9976 1001,-154 977.7975,-137.4103 960.0418,-109.0416 950.0629,-90.2808"/>
<polygon fill="#191970" stroke="#191970" points="953.1061,-88.5438 945.4497,-81.2207 946.8682,-91.7201 953.1061,-88.5438"/>
</g>
<!-- Node12 -->
<g id="node13" class="node">
<title>Node12</title>
<g id="a_node13"><a xlink:href="_sim_time_8_h.html" target="_top" xlink:title="amr&#45;wind/core/SimTime.H">
<polygon fill="#ffffff" stroke="#000000" points="1910.5,-129 1910.5,-148 2041.5,-148 2041.5,-129 1910.5,-129"/>
<text text-anchor="middle" x="1976" y="-136" font-family="Helvetica,sans-Serif" font-size="10.00" fill="#000000">amr&#45;wind/core/SimTime.H</text>
</a>
</g>
</g>
<!-- Node10&#45;&gt;Node12 -->
<g id="edge13" class="edge">
<title>Node10&#45;&gt;Node12</title>
<path fill="none" stroke="#191970" d="M1204.1962,-195.9648C1347.2775,-185.3117 1735.452,-156.41 1900.3081,-144.1357"/>
<polygon fill="#191970" stroke="#191970" points="1900.6525,-147.6198 1910.3649,-143.3869 1900.1326,-140.6391 1900.6525,-147.6198"/>
</g>
<!-- Node16 -->
<g id="node17" class="node">
<title>Node16</title>
<g id="a_node17"><a xlink:href="_field_repo_8_h.html" target="_top" xlink:title="amr&#45;wind/core/FieldRepo.H">
<polygon fill="#ffffff" stroke="#000000" points="633,-129 633,-148 769,-148 769,-129 633,-129"/>
<text text-anchor="middle" x="701" y="-136" font-family="Helvetica,sans-Serif" font-size="10.00" fill="#000000">amr&#45;wind/core/FieldRepo.H</text>
</a>
</g>
</g>
<!-- Node10&#45;&gt;Node16 -->
<g id="edge17" class="edge">
<title>Node10&#45;&gt;Node16</title>
<path fill="none" stroke="#191970" d="M1095.8401,-192.5817C1016.93,-181.7733 869.9066,-161.6353 779.2394,-149.2165"/>
<polygon fill="#191970" stroke="#191970" points="779.6694,-145.7428 769.2869,-147.8533 778.7194,-152.6781 779.6694,-145.7428"/>
</g>
<!-- Node30 -->
<g id="node31" class="node">
<title>Node30</title>
<g id="a_node31"><a xlink:href="_p_d_e_base_8_h.html" target="_top" xlink:title="amr&#45;wind/equation_systems\l/PDEBase.H">
<polygon fill="#ffffff" stroke="#000000" points="1155.5,-123.5 1155.5,-153.5 1294.5,-153.5 1294.5,-123.5 1155.5,-123.5"/>
<text text-anchor="start" x="1163.5" y="-141.5" font-family="Helvetica,sans-Serif" font-size="10.00" fill="#000000">amr&#45;wind/equation_systems</text>
<text text-anchor="middle" x="1225" y="-130.5" font-family="Helvetica,sans-Serif" font-size="10.00" fill="#000000">/PDEBase.H</text>
</a>
</g>
</g>
<!-- Node10&#45;&gt;Node30 -->
<g id="edge47" class="edge">
<title>Node10&#45;&gt;Node30</title>
<path fill="none" stroke="#191970" d="M1161.7188,-190.3906C1171.5871,-182.2986 1186.0723,-170.4207 1198.6946,-160.0705"/>
<polygon fill="#191970" stroke="#191970" points="1201.1395,-162.5919 1206.6529,-153.5446 1196.7009,-157.179 1201.1395,-162.5919"/>
</g>
<!-- Node34 -->
<g id="node35" class="node">
<title>Node34</title>
<g id="a_node35"><a xlink:href="_physics_8_h.html" target="_top" xlink:title="amr&#45;wind/core/Physics.H">
<polygon fill="#ffffff" stroke="#000000" points="1010.5,-129 1010.5,-148 1137.5,-148 1137.5,-129 1010.5,-129"/>
<text text-anchor="middle" x="1074" y="-136" font-family="Helvetica,sans-Serif" font-size="10.00" fill="#000000">amr&#45;wind/core/Physics.H</text>
</a>
</g>
</g>
<!-- Node10&#45;&gt;Node34 -->
<g id="edge59" class="edge">
<title>Node10&#45;&gt;Node34</title>
<path fill="none" stroke="#191970" d="M1138.125,-190.3906C1126.3703,-180.8786 1108.1514,-166.1357 1094.1328,-154.7917"/>
<polygon fill="#191970" stroke="#191970" points="1096.0178,-151.8146 1086.0424,-148.2449 1091.6144,-157.2562 1096.0178,-151.8146"/>
</g>
<!-- Node13 -->
<g id="node14" class="node">
<title>Node13</title>
<polygon fill="#ffffff" stroke="#bfbfbf" points="2117.5,-62 2117.5,-81 2210.5,-81 2210.5,-62 2117.5,-62"/>
<text text-anchor="middle" x="2164" y="-69" font-family="Helvetica,sans-Serif" font-size="10.00" fill="#000000">AMReX_REAL.H</text>
</g>
<!-- Node12&#45;&gt;Node13 -->
<g id="edge14" class="edge">
<title>Node12&#45;&gt;Node13</title>
<path fill="none" stroke="#191970" d="M2002.9358,-128.9005C2035.6033,-117.2584 2090.8188,-97.5805 2127.3425,-84.5641"/>
<polygon fill="#191970" stroke="#191970" points="2128.8694,-87.7356 2137.1142,-81.0817 2126.5195,-81.1418 2128.8694,-87.7356"/>
</g>
<!-- Node14 -->
<g id="node15" class="node">
<title>Node14</title>
<polygon fill="#ffffff" stroke="#bfbfbf" points="1845,-62 1845,-81 1971,-81 1971,-62 1845,-62"/>
<text text-anchor="middle" x="1908" y="-69" font-family="Helvetica,sans-Serif" font-size="10.00" fill="#000000">AMReX_GpuQualifiers.H</text>
</g>
<!-- Node12&#45;&gt;Node14 -->
<g id="edge15" class="edge">
<title>Node12&#45;&gt;Node14</title>
<path fill="none" stroke="#191970" d="M1966.2573,-128.9005C1955.5523,-118.353 1938.153,-101.2096 1925.1521,-88.3998"/>
<polygon fill="#191970" stroke="#191970" points="1927.3044,-85.607 1917.7247,-81.0817 1922.3915,-90.5933 1927.3044,-85.607"/>
</g>
<!-- Node15 -->
<g id="node16" class="node">
<title>Node15</title>
<polygon fill="#ffffff" stroke="#bfbfbf" points="1989,-62 1989,-81 2099,-81 2099,-62 1989,-62"/>
<text text-anchor="middle" x="2044" y="-69" font-family="Helvetica,sans-Serif" font-size="10.00" fill="#000000">AMReX_Extension.H</text>
</g>
<!-- Node12&#45;&gt;Node15 -->
<g id="edge16" class="edge">
<title>Node12&#45;&gt;Node15</title>
<path fill="none" stroke="#191970" d="M1985.7427,-128.9005C1996.4477,-118.353 2013.847,-101.2096 2026.8479,-88.3998"/>
<polygon fill="#191970" stroke="#191970" points="2029.6085,-90.5933 2034.2753,-81.0817 2024.6956,-85.607 2029.6085,-90.5933"/>
</g>
<!-- Node16&#45;&gt;Node3 -->
<g id="edge19" class="edge">
<title>Node16&#45;&gt;Node3</title>
<path fill="none" stroke="#191970" d="M769.2354,-134.9277C953.085,-125.165 1445.8592,-98.0315 1459,-87 1475.4278,-73.2091 1478.8981,-47.6905 1479.0974,-29.8233"/>
<polygon fill="#191970" stroke="#191970" points="1482.5922,-29.5441 1478.8726,-19.6237 1475.5939,-29.6985 1482.5922,-29.5441"/>
</g>
<!-- Node16&#45;&gt;Node9 -->
<g id="edge20" class="edge">
<title>Node16&#45;&gt;Node9</title>
<path fill="none" stroke="#191970" d="M652.58,-128.977C587.7353,-116.0129 480.0609,-93.6588 474,-87 460.0808,-71.7075 459.2521,-47.0947 460.8238,-29.822"/>
<polygon fill="#191970" stroke="#191970" points="464.3212,-30.0603 462.0897,-19.7031 457.3753,-29.1913 464.3212,-30.0603"/>
</g>
<!-- Node16&#45;&gt;Node11 -->
<g id="edge44" class="edge">
<title>Node16&#45;&gt;Node11</title>
<path fill="none" stroke="#191970" d="M735.1313,-128.9717C777.5708,-117.124 850.1015,-96.8758 896.7658,-83.8487"/>
<polygon fill="#191970" stroke="#191970" points="897.9073,-87.164 906.5979,-81.1039 896.025,-80.4217 897.9073,-87.164"/>
</g>
<!-- Node17 -->
<g id="node18" class="node">
<title>Node17</title>
<polygon fill="#ffffff" stroke="#bfbfbf" points="930.5,-.5 930.5,-19.5 971.5,-19.5 971.5,-.5 930.5,-.5"/>
<text text-anchor="middle" x="951" y="-7.5" font-family="Helvetica,sans-Serif" font-size="10.00" fill="#000000">string</text>
</g>
<!-- Node16&#45;&gt;Node17 -->
<g id="edge18" class="edge">
<title>Node16&#45;&gt;Node17</title>
<path fill="none" stroke="#191970" d="M735.7515,-128.9845C764.7083,-120.2804 806.4827,-105.8899 840,-87 859.2895,-76.1287 860.9799,-68.8665 879,-56 894.3493,-45.0405 912.2127,-33.6201 926.3064,-24.9001"/>
<polygon fill="#191970" stroke="#191970" points="928.2657,-27.8044 934.9593,-19.5919 924.6052,-21.8377 928.2657,-27.8044"/>
</g>
<!-- Node18 -->
<g id="node19" class="node">
<title>Node18</title>
<g id="a_node19"><a xlink:href="_field_utils_8_h.html" target="_top" xlink:title="amr&#45;wind/core/FieldUtils.H">
<polygon fill="#ffffff" stroke="#000000" points="108.5,-62 108.5,-81 241.5,-81 241.5,-62 108.5,-62"/>
<text text-anchor="middle" x="175" y="-69" font-family="Helvetica,sans-Serif" font-size="10.00" fill="#000000">amr&#45;wind/core/FieldUtils.H</text>
</a>
</g>
</g>
<!-- Node16&#45;&gt;Node18 -->
<g id="edge21" class="edge">
<title>Node16&#45;&gt;Node18</title>
<path fill="none" stroke="#191970" d="M656.9952,-128.9591C645.935,-126.7809 634.0637,-124.6305 623,-123 458.6692,-98.7823 415.2694,-111.6305 251,-87 243.4997,-85.8754 235.6211,-84.4954 227.8937,-83.0269"/>
<polygon fill="#191970" stroke="#191970" points="228.3537,-79.5505 217.8669,-81.0593 227.0057,-86.4195 228.3537,-79.5505"/>
</g>
<!-- Node19 -->
<g id="node20" class="node">
<title>Node19</title>
<polygon fill="#ffffff" stroke="#bfbfbf" points="260,-.5 260,-19.5 364,-19.5 364,-.5 260,-.5"/>
<text text-anchor="middle" x="312" y="-7.5" font-family="Helvetica,sans-Serif" font-size="10.00" fill="#000000">AMReX_MultiFab.H</text>
</g>
<!-- Node16&#45;&gt;Node19 -->
<g id="edge45" class="edge">
<title>Node16&#45;&gt;Node19</title>
<path fill="none" stroke="#191970" d="M658.2511,-128.9843C646.8456,-126.7258 634.4959,-124.5308 623,-123 565.1511,-115.297 138.8271,-129.6572 99,-87 89.5974,-76.9293 90.3468,-66.7214 99,-56 103.8461,-49.9956 189.0437,-32.9582 250.197,-21.3912"/>
<polygon fill="#191970" stroke="#191970" points="250.9893,-24.8036 260.1686,-19.5132 249.6936,-17.9246 250.9893,-24.8036"/>
</g>
<!-- Node21 -->
<g id="node22" class="node">
<title>Node21</title>
<g id="a_node22"><a xlink:href="_field_8_h.html" target="_top" xlink:title="amr&#45;wind/core/Field.H">
<polygon fill="#ffffff" stroke="#000000" points="718.5,-62 718.5,-81 831.5,-81 831.5,-62 718.5,-62"/>
<text text-anchor="middle" x="775" y="-69" font-family="Helvetica,sans-Serif" font-size="10.00" fill="#000000">amr&#45;wind/core/Field.H</text>
</a>
</g>
</g>
<!-- Node16&#45;&gt;Node21 -->
<g id="edge25" class="edge">
<title>Node16&#45;&gt;Node21</title>
<path fill="none" stroke="#191970" d="M711.6024,-128.9005C723.3619,-118.2535 742.5443,-100.8856 756.7336,-88.0385"/>
<polygon fill="#191970" stroke="#191970" points="759.3534,-90.388 764.4173,-81.0817 754.6551,-85.1989 759.3534,-90.388"/>
</g>
<!-- Node25 -->
<g id="node26" class="node">
<title>Node25</title>
<g id="a_node26"><a xlink:href="_int_field_8_h.html" target="_top" xlink:title="amr&#45;wind/core/IntField.H">
<polygon fill="#ffffff" stroke="#000000" points="260,-62 260,-81 384,-81 384,-62 260,-62"/>
<text text-anchor="middle" x="322" y="-69" font-family="Helvetica,sans-Serif" font-size="10.00" fill="#000000">amr&#45;wind/core/IntField.H</text>
</a>
</g>
</g>
<!-- Node16&#45;&gt;Node25 -->
<g id="edge34" class="edge">
<title>Node16&#45;&gt;Node25</title>
<path fill="none" stroke="#191970" d="M654.4469,-128.9522C644.1074,-126.9145 633.1923,-124.8274 623,-123 523.3176,-105.1276 497.6371,-105.1229 398,-87 391.3239,-85.7857 384.3314,-84.4489 377.4057,-83.0848"/>
<polygon fill="#191970" stroke="#191970" points="377.8428,-79.6031 367.3512,-81.078 376.4726,-86.4677 377.8428,-79.6031"/>
</g>
<!-- Node26 -->
<g id="node27" class="node">
<title>Node26</title>
<polygon fill="#ffffff" stroke="#bfbfbf" points="134.5,-.5 134.5,-19.5 241.5,-19.5 241.5,-.5 134.5,-.5"/>
<text text-anchor="middle" x="188" y="-7.5" font-family="Helvetica,sans-Serif" font-size="10.00" fill="#000000">AMReX_iMultiFab.H</text>
</g>
<!-- Node16&#45;&gt;Node26 -->
<g id="edge46" class="edge">
<title>Node16&#45;&gt;Node26</title>
<path fill="none" stroke="#191970" d="M658.2524,-128.9744C646.8469,-126.7159 634.4969,-124.5234 623,-123 564.0473,-115.1884 129.6114,-130.4414 89,-87 79.591,-76.9353 81.5893,-67.615 89,-56 99.0203,-40.2949 115.9416,-29.8684 132.987,-22.9824"/>
<polygon fill="#191970" stroke="#191970" points="134.2496,-26.2473 142.4264,-19.51 131.8329,-19.6777 134.2496,-26.2473"/>
</g>
<!-- Node27 -->
<g id="node28" class="node">
<title>Node27</title>
<g id="a_node28"><a xlink:href="_scratch_field_8_h.html" target="_top" xlink:title="amr&#45;wind/core/ScratchField.H">
<polygon fill="#ffffff" stroke="#000000" points="554,-62 554,-81 700,-81 700,-62 554,-62"/>
<text text-anchor="middle" x="627" y="-69" font-family="Helvetica,sans-Serif" font-size="10.00" fill="#000000">amr&#45;wind/core/ScratchField.H</text>
</a>
</g>
</g>
<!-- Node16&#45;&gt;Node27 -->
<g id="edge38" class="edge">
<title>Node16&#45;&gt;Node27</title>
<path fill="none" stroke="#191970" d="M690.3976,-128.9005C678.6381,-118.2535 659.4557,-100.8856 645.2664,-88.0385"/>
<polygon fill="#191970" stroke="#191970" points="647.3449,-85.1989 637.5827,-81.0817 642.6466,-90.388 647.3449,-85.1989"/>
</g>
<!-- Node18&#45;&gt;Node9 -->
<g id="edge22" class="edge">
<title>Node18&#45;&gt;Node9</title>
<path fill="none" stroke="#191970" d="M219.8392,-61.9581C270.8843,-51.0956 354.2798,-33.3488 409.1553,-21.6711"/>
<polygon fill="#191970" stroke="#191970" points="410.0032,-25.0691 419.0556,-19.5643 408.5461,-18.2224 410.0032,-25.0691"/>
</g>
<!-- Node18&#45;&gt;Node19 -->
<g id="edge23" class="edge">
<title>Node18&#45;&gt;Node19</title>
<path fill="none" stroke="#191970" d="M196.4063,-61.8906C219.2283,-51.6457 255.5679,-35.3326 281.4057,-23.7339"/>
<polygon fill="#191970" stroke="#191970" points="283.0545,-26.8303 290.7441,-19.5419 280.1877,-20.4443 283.0545,-26.8303"/>
</g>
<!-- Node20 -->
<g id="node21" class="node">
<title>Node20</title>
<polygon fill="#ffffff" stroke="#bfbfbf" points="0,-.5 0,-19.5 116,-19.5 116,-.5 0,-.5"/>
<text text-anchor="middle" x="58" y="-7.5" font-family="Helvetica,sans-Serif" font-size="10.00" fill="#000000">AMReX_Interpolater.H</text>
</g>
<!-- Node18&#45;&gt;Node20 -->
<g id="edge24" class="edge">
<title>Node18&#45;&gt;Node20</title>
<path fill="none" stroke="#191970" d="M156.7188,-61.8906C137.4859,-51.7811 107.0121,-35.7628 85.0075,-24.1962"/>
<polygon fill="#191970" stroke="#191970" points="86.633,-21.0967 76.1529,-19.5419 83.376,-27.2928 86.633,-21.0967"/>
</g>
<!-- Node21&#45;&gt;Node3 -->
<g id="edge28" class="edge">
<title>Node21&#45;&gt;Node3</title>
<path fill="none" stroke="#191970" d="M831.5658,-62.2051C846.9232,-59.918 863.5716,-57.6536 879,-56 1118.3725,-30.3436 1183.203,-50.9663 1426.1177,-19.9433"/>
<polygon fill="#191970" stroke="#191970" points="1426.8544,-23.3772 1436.3227,-18.6232 1425.9563,-16.4351 1426.8544,-23.3772"/>
</g>
<!-- Node21&#45;&gt;Node5 -->
<g id="edge27" class="edge">
<title>Node21&#45;&gt;Node5</title>
<path fill="none" stroke="#191970" d="M831.5949,-62.4614C846.9522,-60.1737 863.5934,-57.8451 879,-56 1051.6474,-35.324 1100.0485,-51.8413 1274.7098,-19.9338"/>
<polygon fill="#191970" stroke="#191970" points="1275.5588,-23.3361 1284.7531,-18.0716 1274.2825,-16.4534 1275.5588,-23.3361"/>
</g>
<!-- Node21&#45;&gt;Node9 -->
<g id="edge33" class="edge">
<title>Node21&#45;&gt;Node9</title>
<path fill="none" stroke="#191970" d="M735.628,-61.9471C726.8782,-59.9097 717.637,-57.8241 709,-56 647.9933,-43.116 578.055,-30.1643 528.5612,-21.3018"/>
<polygon fill="#191970" stroke="#191970" points="529.0919,-17.8413 518.6325,-19.5297 527.8619,-24.7324 529.0919,-17.8413"/>
</g>
<!-- Node21&#45;&gt;Node17 -->
<g id="edge26" class="edge">
<title>Node21&#45;&gt;Node17</title>
<path fill="none" stroke="#191970" d="M802.5,-61.8906C834.5674,-50.6852 887.409,-32.2207 920.6506,-20.605"/>
<polygon fill="#191970" stroke="#191970" points="922.0073,-23.8386 930.293,-17.2357 919.6982,-17.2304 922.0073,-23.8386"/>
</g>
<!-- Node21&#45;&gt;Node19 -->
<g id="edge29" class="edge">
<title>Node21&#45;&gt;Node19</title>
<path fill="none" stroke="#191970" d="M738.1631,-61.998C728.7053,-59.7932 718.5144,-57.6205 709,-56 564.125,-31.3248 523.5603,-39.7694 374.2116,-20.0936"/>
<polygon fill="#191970" stroke="#191970" points="374.5905,-16.6132 364.2147,-18.7563 373.6623,-23.5514 374.5905,-16.6132"/>
</g>
<!-- Node22 -->
<g id="node23" class="node">
<title>Node22</title>
<polygon fill="#ffffff" stroke="#bfbfbf" points="813.5,-.5 813.5,-19.5 912.5,-19.5 912.5,-.5 813.5,-.5"/>
<text text-anchor="middle" x="863" y="-7.5" font-family="Helvetica,sans-Serif" font-size="10.00" fill="#000000">AMReX_BCRec.H</text>
</g>
<!-- Node21&#45;&gt;Node22 -->
<g id="edge30" class="edge">
<title>Node21&#45;&gt;Node22</title>
<path fill="none" stroke="#191970" d="M788.75,-61.8906C802.6991,-52.1421 824.5098,-36.8994 840.8897,-25.4521"/>
<polygon fill="#191970" stroke="#191970" points="843.1548,-28.1392 849.3466,-19.5419 839.1449,-22.4015 843.1548,-28.1392"/>
</g>
<!-- Node23 -->
<g id="node24" class="node">
<title>Node23</title>
<polygon fill="#ffffff" stroke="#bfbfbf" points="710.5,-.5 710.5,-19.5 795.5,-19.5 795.5,-.5 710.5,-.5"/>
<text text-anchor="middle" x="753" y="-7.5" font-family="Helvetica,sans-Serif" font-size="10.00" fill="#000000">AMReX_Gpu.H</text>
</g>
<!-- Node21&#45;&gt;Node23 -->
<g id="edge31" class="edge">
<title>Node21&#45;&gt;Node23</title>
<path fill="none" stroke="#191970" d="M771.5625,-61.8906C768.4487,-53.1862 763.768,-40.1015 759.886,-29.2494"/>
<polygon fill="#191970" stroke="#191970" points="763.1497,-27.9817 756.486,-19.7449 756.5588,-30.3394 763.1497,-27.9817"/>
</g>
<!-- Node24 -->
<g id="node25" class="node">
<title>Node24</title>
<g id="a_node25"><a xlink:href="incflo__enums_8_h.html" target="_top" xlink:title="amr&#45;wind/incflo_enums.H">
<polygon fill="#ffffff" stroke="#000000" points="1023,-.5 1023,-19.5 1151,-19.5 1151,-.5 1023,-.5"/>
<text text-anchor="middle" x="1087" y="-7.5" font-family="Helvetica,sans-Serif" font-size="10.00" fill="#000000">amr&#45;wind/incflo_enums.H</text>
</a>
</g>
</g>
<!-- Node21&#45;&gt;Node24 -->
<g id="edge32" class="edge">
<title>Node21&#45;&gt;Node24</title>
<path fill="none" stroke="#191970" d="M823.4077,-61.9581C878.8247,-51.0345 969.5603,-33.1492 1028.786,-21.4749"/>
<polygon fill="#191970" stroke="#191970" points="1029.6012,-24.8816 1038.7355,-19.5137 1028.2474,-18.0138 1029.6012,-24.8816"/>
</g>
<!-- Node25&#45;&gt;Node9 -->
<g id="edge36" class="edge">
<title>Node25&#45;&gt;Node9</title>
<path fill="none" stroke="#191970" d="M344.1875,-61.8906C367.9467,-51.6005 405.8405,-35.1888 432.6425,-23.5809"/>
<polygon fill="#191970" stroke="#191970" points="434.183,-26.7279 441.9683,-19.5419 431.4009,-20.3045 434.183,-26.7279"/>
</g>
<!-- Node25&#45;&gt;Node17 -->
<g id="edge35" class="edge">
<title>Node25&#45;&gt;Node17</title>
<path fill="none" stroke="#191970" d="M384.0872,-66.9966C520.2919,-57.0026 839.0252,-32.9528 920.3375,-19.4652"/>
<polygon fill="#191970" stroke="#191970" points="920.999,-22.9023 930.1916,-17.6347 919.7205,-16.02 920.999,-22.9023"/>
</g>
<!-- Node25&#45;&gt;Node26 -->
<g id="edge37" class="edge">
<title>Node25&#45;&gt;Node26</title>
<path fill="none" stroke="#191970" d="M301.0625,-61.8906C278.7402,-51.6457 243.1963,-35.3326 217.9243,-23.7339"/>
<polygon fill="#191970" stroke="#191970" points="219.3389,-20.5322 208.7905,-19.5419 216.419,-26.8942 219.3389,-20.5322"/>
</g>
<!-- Node27&#45;&gt;Node9 -->
<g id="edge40" class="edge">
<title>Node27&#45;&gt;Node9</title>
<path fill="none" stroke="#191970" d="M601.5313,-61.8906C573.8995,-51.4652 529.6131,-34.7559 498.7872,-23.1252"/>
<polygon fill="#191970" stroke="#191970" points="499.8817,-19.7974 489.2899,-19.5419 497.4106,-26.3467 499.8817,-19.7974"/>
</g>
<!-- Node27&#45;&gt;Node17 -->
<g id="edge39" class="edge">
<title>Node27&#45;&gt;Node17</title>
<path fill="none" stroke="#191970" d="M676.8406,-61.9254C687.4489,-59.9305 698.5898,-57.8676 709,-56 799.9458,-39.6842 826.5322,-42.9331 920.5366,-19.7867"/>
<polygon fill="#191970" stroke="#191970" points="921.6121,-23.1257 930.4658,-17.3067 919.9157,-16.3344 921.6121,-23.1257"/>
</g>
<!-- Node27&#45;&gt;Node19 -->
<g id="edge41" class="edge">
<title>Node27&#45;&gt;Node19</title>
<path fill="none" stroke="#191970" d="M578.1269,-61.9581C522.1769,-51.0345 430.5689,-33.1492 370.7738,-21.4749"/>
<polygon fill="#191970" stroke="#191970" points="371.214,-17.9948 360.7286,-19.5137 369.8726,-24.8651 371.214,-17.9948"/>
</g>
<!-- Node28 -->
<g id="node29" class="node">
<title>Node28</title>
<polygon fill="#ffffff" stroke="#bfbfbf" points="1171.5,-.5 1171.5,-19.5 1266.5,-19.5 1266.5,-.5 1171.5,-.5"/>
<text text-anchor="middle" x="1219" y="-7.5" font-family="Helvetica,sans-Serif" font-size="10.00" fill="#000000">AMReX_Vector.H</text>
</g>
<!-- Node27&#45;&gt;Node28 -->
<g id="edge42" class="edge">
<title>Node27&#45;&gt;Node28</title>
<path fill="none" stroke="#191970" d="M672.8308,-61.9394C684.5801,-59.7357 697.225,-57.5782 709,-56 908.2998,-29.2876 960.4563,-44.8254 1160,-20 1160.4639,-19.9423 1160.9298,-19.8835 1161.3974,-19.8237"/>
<polygon fill="#191970" stroke="#191970" points="1161.9698,-23.2779 1171.3952,-18.4393 1161.0096,-16.3441 1161.9698,-23.2779"/>
</g>
<!-- Node29 -->
<g id="node30" class="node">
<title>Node29</title>
<polygon fill="#ffffff" stroke="#bfbfbf" points="564,-.5 564,-19.5 692,-19.5 692,-.5 564,-.5"/>
<text text-anchor="middle" x="628" y="-7.5" font-family="Helvetica,sans-Serif" font-size="10.00" fill="#000000">AMReX_PhysBCFunct.H</text>
</g>
<!-- Node27&#45;&gt;Node29 -->
<g id="edge43" class="edge">
<title>Node27&#45;&gt;Node29</title>
<path fill="none" stroke="#191970" d="M627.1563,-61.8906C627.2949,-53.3657 627.5018,-40.6392 627.676,-29.9235"/>
<polygon fill="#191970" stroke="#191970" points="631.1784,-29.8005 627.8415,-19.7449 624.1793,-29.6866 631.1784,-29.8005"/>
</g>
<!-- Node30&#45;&gt;Node4 -->
<g id="edge49" class="edge">
<title>Node30&#45;&gt;Node4</title>
<path fill="none" stroke="#191970" d="M1294.6917,-133.1387C1386.4012,-125.5568 1552.4384,-110.0112 1693,-87 1699.776,-85.8907 1706.8798,-84.5526 1713.8657,-83.133"/>
<polygon fill="#191970" stroke="#191970" points="1714.8974,-86.4928 1723.9646,-81.0121 1713.4587,-79.6422 1714.8974,-86.4928"/>
</g>
<!-- Node30&#45;&gt;Node9 -->
<g id="edge57" class="edge">
<title>Node30&#45;&gt;Node9</title>
<path fill="none" stroke="#191970" d="M1155.297,-124.2864C1152.1607,-123.8166 1149.0508,-123.3841 1146,-123 1075.9946,-114.187 572.6972,-122.976 512,-87 490.4768,-74.2429 477.1842,-47.6763 470.1941,-29.3461"/>
<polygon fill="#191970" stroke="#191970" points="473.4114,-27.9446 466.7921,-19.672 466.8078,-30.2668 473.4114,-27.9446"/>
</g>
<!-- Node30&#45;&gt;Node17 -->
<g id="edge48" class="edge">
<title>Node30&#45;&gt;Node17</title>
<path fill="none" stroke="#191970" d="M1206.6339,-123.4251C1194.4116,-113.2882 1178.0755,-99.5371 1164,-87 1148.9734,-73.6157 1148.6386,-65.686 1131,-56 1105.4152,-41.9505 1026.0359,-24.7742 981.715,-15.9148"/>
<polygon fill="#191970" stroke="#191970" points="982.2663,-12.4561 971.7774,-13.9504 980.9087,-19.3232 982.2663,-12.4561"/>
</g>
<!-- Node30&#45;&gt;Node24 -->
<g id="edge58" class="edge">
<title>Node30&#45;&gt;Node24</title>
<path fill="none" stroke="#191970" d="M1216.3815,-123.3962C1205.7449,-105.6949 1186.3054,-76.2165 1164,-56 1149.9543,-43.2697 1131.8552,-32.2448 1116.7338,-24.1821"/>
<polygon fill="#191970" stroke="#191970" points="1118.258,-21.0302 1107.7662,-19.5559 1115.0487,-27.2511 1118.258,-21.0302"/>
</g>
<!-- Node31 -->
<g id="node32" class="node">
<title>Node31</title>
<g id="a_node32"><a xlink:href="_coll_mgr_8_h.html" target="_top" xlink:title="amr&#45;wind/core/CollMgr.H">
<polygon fill="#ffffff" stroke="#000000" points="1216.5,-62 1216.5,-81 1341.5,-81 1341.5,-62 1216.5,-62"/>
<text text-anchor="middle" x="1279" y="-69" font-family="Helvetica,sans-Serif" font-size="10.00" fill="#000000">amr&#45;wind/core/CollMgr.H</text>
</a>
</g>
</g>
<!-- Node30&#45;&gt;Node31 -->
<g id="edge50" class="edge">
<title>Node30&#45;&gt;Node31</title>
<path fill="none" stroke="#191970" d="M1237.2534,-123.2967C1245.5035,-113.0605 1256.4034,-99.5366 1264.9966,-88.8746"/>
<polygon fill="#191970" stroke="#191970" points="1267.7488,-91.0373 1271.299,-81.055 1262.2986,-86.6446 1267.7488,-91.0373"/>
</g>
<!-- Node32 -->
<g id="node33" class="node">
<title>Node32</title>
<g id="a_node33"><a xlink:href="_p_d_e_fields_8_h.html" target="_top" xlink:title="amr&#45;wind/equation_systems\l/PDEFields.H">
<polygon fill="#ffffff" stroke="#000000" points="1544.5,-56.5 1544.5,-86.5 1683.5,-86.5 1683.5,-56.5 1544.5,-56.5"/>
<text text-anchor="start" x="1552.5" y="-74.5" font-family="Helvetica,sans-Serif" font-size="10.00" fill="#000000">amr&#45;wind/equation_systems</text>
<text text-anchor="middle" x="1614" y="-63.5" font-family="Helvetica,sans-Serif" font-size="10.00" fill="#000000">/PDEFields.H</text>
</a>
</g>
</g>
<!-- Node30&#45;&gt;Node32 -->
<g id="edge55" class="edge">
<title>Node30&#45;&gt;Node32</title>
<path fill="none" stroke="#191970" d="M1294.5454,-126.5217C1361.8236,-114.934 1463.6926,-97.3884 1534.23,-85.2393"/>
<polygon fill="#191970" stroke="#191970" points="1535.1412,-88.634 1544.402,-83.4873 1533.953,-81.7356 1535.1412,-88.634"/>
</g>
<!-- Node31&#45;&gt;Node3 -->
<g id="edge53" class="edge">
<title>Node31&#45;&gt;Node3</title>
<path fill="none" stroke="#191970" d="M1310.0938,-61.8906C1344.4124,-51.2846 1399.7743,-34.1753 1437.4698,-22.5257"/>
<polygon fill="#191970" stroke="#191970" points="1438.6039,-25.8386 1447.1246,-19.5419 1436.537,-19.1507 1438.6039,-25.8386"/>
</g>
<!-- Node31&#45;&gt;Node5 -->
<g id="edge52" class="edge">
<title>Node31&#45;&gt;Node5</title>
<path fill="none" stroke="#191970" d="M1284,-61.8906C1288.5758,-53.0965 1295.4781,-39.8312 1301.1583,-28.9145"/>
<polygon fill="#191970" stroke="#191970" points="1304.4185,-30.2314 1305.9295,-19.7449 1298.2088,-27.0003 1304.4185,-30.2314"/>
</g>
<!-- Node31&#45;&gt;Node17 -->
<g id="edge51" class="edge">
<title>Node31&#45;&gt;Node17</title>
<path fill="none" stroke="#191970" d="M1228.1099,-61.9581C1159.1396,-49.0262 1038.1313,-26.3371 981.6529,-15.7474"/>
<polygon fill="#191970" stroke="#191970" points="982.0421,-12.2595 971.5683,-13.8566 980.752,-19.1396 982.0421,-12.2595"/>
</g>
<!-- Node31&#45;&gt;Node28 -->
<g id="edge54" class="edge">
<title>Node31&#45;&gt;Node28</title>
<path fill="none" stroke="#191970" d="M1269.625,-61.8906C1260.5201,-52.5581 1246.5026,-38.1902 1235.5243,-26.9374"/>
<polygon fill="#191970" stroke="#191970" points="1237.9957,-24.4586 1228.5072,-19.7449 1232.9852,-29.3468 1237.9957,-24.4586"/>
</g>
<!-- Node33 -->
<g id="node34" class="node">
<title>Node33</title>
<polygon fill="#ffffff" stroke="#bfbfbf" points="1587.5,-.5 1587.5,-19.5 1632.5,-19.5 1632.5,-.5 1587.5,-.5"/>
<text text-anchor="middle" x="1610" y="-7.5" font-family="Helvetica,sans-Serif" font-size="10.00" fill="#000000">iosfwd</text>
</g>
<!-- Node32&#45;&gt;Node33 -->
<g id="edge56" class="edge">
<title>Node32&#45;&gt;Node33</title>
<path fill="none" stroke="#191970" d="M1613.0112,-56.2977C1612.4965,-48.3834 1611.8604,-38.6043 1611.3057,-30.0759"/>
<polygon fill="#191970" stroke="#191970" points="1614.7822,-29.5986 1610.6405,-19.8469 1607.797,-30.053 1614.7822,-29.5986"/>
</g>
<!-- Node34&#45;&gt;Node4 -->
<g id="edge60" class="edge">
<title>Node34&#45;&gt;Node4</title>
<path fill="none" stroke="#191970" d="M1113.426,-128.9249C1123.9544,-126.6668 1135.3629,-124.4869 1146,-123 1387.2912,-89.2723 1451.7579,-121.077 1693,-87 1700.3834,-85.9571 1708.1418,-84.5695 1715.7087,-83.0521"/>
<polygon fill="#191970" stroke="#191970" points="1716.4285,-86.4774 1725.498,-81.0006 1714.9927,-79.6262 1716.4285,-86.4774"/>
</g>
<!-- Node34&#45;&gt;Node19 -->
<g id="edge62" class="edge">
<title>Node34&#45;&gt;Node19</title>
<path fill="none" stroke="#191970" d="M1010.3535,-135.7371C878.3314,-129.5565 578.769,-113.0763 480,-87 426.5852,-72.8978 369.0214,-42.9312 337.0549,-24.8211"/>
<polygon fill="#191970" stroke="#191970" points="338.4033,-21.5593 327.9889,-19.6121 334.9159,-27.6288 338.4033,-21.5593"/>
</g>
<!-- Node34&#45;&gt;Node31 -->
<g id="edge61" class="edge">
<title>Node34&#45;&gt;Node31</title>
<path fill="none" stroke="#191970" d="M1103.3715,-128.9005C1139.2974,-117.1589 1200.2324,-97.2436 1240.0445,-84.2318"/>
<polygon fill="#191970" stroke="#191970" points="1241.2651,-87.5151 1249.683,-81.0817 1239.0904,-80.8615 1241.2651,-87.5151"/>
</g>
<!-- Node35 -->
<g id="node36" class="node">
<title>Node35</title>
<polygon fill="#ffffff" stroke="#bfbfbf" points="1012,-62 1012,-81 1122,-81 1122,-62 1012,-62"/>
<text text-anchor="middle" x="1067" y="-69" font-family="Helvetica,sans-Serif" font-size="10.00" fill="#000000">AMReX_Geometry.H</text>
</g>
<!-- Node34&#45;&gt;Node35 -->
<g id="edge63" class="edge">
<title>Node34&#45;&gt;Node35</title>
<path fill="none" stroke="#191970" d="M1072.9971,-128.9005C1071.9783,-119.149 1070.3704,-103.7597 1069.0759,-91.3695"/>
<polygon fill="#191970" stroke="#191970" points="1072.5213,-90.6638 1068.0011,-81.0817 1065.5592,-91.3912 1072.5213,-90.6638"/>
</g>
<!-- Node36&#45;&gt;Node3 -->
<g id="edge66" class="edge">
<title>Node36&#45;&gt;Node3</title>
<path fill="none" stroke="#191970" d="M1423.0449,-56.2977C1433.8114,-47.2274 1447.4851,-35.7077 1458.4995,-26.4285"/>
<polygon fill="#191970" stroke="#191970" points="1460.9191,-28.9667 1466.3118,-19.8469 1456.4089,-23.6132 1460.9191,-28.9667"/>
</g>
<!-- Node36&#45;&gt;Node17 -->
<g id="edge65" class="edge">
<title>Node36&#45;&gt;Node17</title>
<path fill="none" stroke="#191970" d="M1359.7653,-57.9007C1356.812,-57.2036 1353.8718,-56.5612 1351,-56 1203.1659,-27.1127 1163.3212,-39.8134 1014,-20 1003.4892,-18.6053 992.0285,-16.8551 981.7985,-15.2104"/>
<polygon fill="#191970" stroke="#191970" points="982.1087,-11.7147 971.6748,-13.554 980.9784,-18.6229 982.1087,-11.7147"/>
</g>
<!-- Node36&#45;&gt;Node28 -->
<g id="edge68" class="edge">
<title>Node36&#45;&gt;Node28</title>
<path fill="none" stroke="#191970" d="M1359.9746,-56.6126C1328.6779,-46.2645 1287.3995,-32.616 1257.6058,-22.7648"/>
<polygon fill="#191970" stroke="#191970" points="1258.5664,-19.3961 1247.9731,-19.5798 1256.3688,-26.0423 1258.5664,-19.3961"/>
</g>
<!-- Node37 -->
<g id="node38" class="node">
<title>Node37</title>
<polygon fill="#ffffff" stroke="#bfbfbf" points="1388,-.5 1388,-19.5 1418,-19.5 1418,-.5 1388,-.5"/>
<text text-anchor="middle" x="1403" y="-7.5" font-family="Helvetica,sans-Serif" font-size="10.00" fill="#000000">set</text>
</g>
<!-- Node36&#45;&gt;Node37 -->
<g id="edge67" class="edge">
<title>Node36&#45;&gt;Node37</title>
<path fill="none" stroke="#191970" d="M1404.5056,-56.2977C1404.2482,-48.3834 1403.9302,-38.6043 1403.6529,-30.0759"/>
<polygon fill="#191970" stroke="#191970" points="1407.1435,-29.7279 1403.3202,-19.8469 1400.1472,-29.9554 1407.1435,-29.7279"/>
</g>
<!-- Node38&#45;&gt;Node19 -->
<g id="edge71" class="edge">
<title>Node38&#45;&gt;Node19</title>
<path fill="none" stroke="#191970" d="M515.2809,-137.0709C394.9565,-133.1013 95.7517,-119.9803 66,-87 56.7713,-76.7698 57.1984,-66.6 66,-56 68.9699,-52.4233 177.9824,-33.0585 249.8793,-20.6215"/>
<polygon fill="#191970" stroke="#191970" points="250.5044,-24.0654 259.763,-18.9149 249.3133,-17.1675 250.5044,-24.0654"/>
</g>
<!-- Node38&#45;&gt;Node21 -->
<g id="edge70" class="edge">
<title>Node38&#45;&gt;Node21</title>
<path fill="none" stroke="#191970" d="M612.1281,-123.4639C649.2194,-111.63 700.3221,-95.3258 735.3372,-84.1543"/>
<polygon fill="#191970" stroke="#191970" points="736.7443,-87.3793 745.2073,-81.0053 734.6166,-80.7105 736.7443,-87.3793"/>
</g>
</g>
</svg>
        <g id="navigator" transform="translate(0 0)" fill="#404254">
                <rect fill="#f2f5e9" fill-opacity="0.5" stroke="#606060" stroke-width=".5" x="0" y="0" width="60" height="60"/>
                <use id="zoomplus" xlink:href="#zoomPlus" x="17" y="9" onmousedown="handleZoom(evt,'in')"/>
                <use id="zoomminus" xlink:href="#zoomMin" x="42" y="9" onmousedown="handleZoom(evt,'out')"/>
                <use id="reset" xlink:href="#resetDef" x="30" y="36" onmousedown="handleReset()"/>
                <g id="arrowUp" xlink:href="#dirArrow" transform="translate(30 24)" onmousedown="handlePan(0,-1)">
                  <use xlink:href="#rim" fill="#404040">
                        <set attributeName="fill" to="#808080" begin="arrowUp.mouseover" end="arrowUp.mouseout"/>
                  </use>
                  <path fill="none" stroke="white" stroke-width="1.5" d="M0,-3.0v7 M-2.5,-0.5L0,-3.0L2.5,-0.5"/>
                </g>
                <g id="arrowRight" xlink:href="#dirArrow" transform="rotate(90) translate(36 -43)" onmousedown="handlePan(1,0)">
                  <use xlink:href="#rim" fill="#404040">
                        <set attributeName="fill" to="#808080" begin="arrowRight.mouseover" end="arrowRight.mouseout"/>
                  </use>
                  <path fill="none" stroke="white" stroke-width="1.5" d="M0,-3.0v7 M-2.5,-0.5L0,-3.0L2.5,-0.5"/>
                </g>
                <g id="arrowDown" xlink:href="#dirArrow" transform="rotate(180) translate(-30 -48)" onmousedown="handlePan(0,1)">
                  <use xlink:href="#rim" fill="#404040">
                        <set attributeName="fill" to="#808080" begin="arrowDown.mouseover" end="arrowDown.mouseout"/>
                  </use>
                  <path fill="none" stroke="white" stroke-width="1.5" d="M0,-3.0v7 M-2.5,-0.5L0,-3.0L2.5,-0.5"/>
                </g>
                <g id="arrowLeft" xlink:href="#dirArrow" transform="rotate(270) translate(-36 17)" onmousedown="handlePan(-1,0)">
                  <use xlink:href="#rim" fill="#404040">
                        <set attributeName="fill" to="#808080" begin="arrowLeft.mouseover" end="arrowLeft.mouseout"/>
                  </use>
                  <path fill="none" stroke="white" stroke-width="1.5" d="M0,-3.0v7 M-2.5,-0.5L0,-3.0L2.5,-0.5"/>
                </g>
        </g>
        <svg viewBox="0 0 15 15" width="100%" height="30px" preserveAspectRatio="xMaxYMin meet">
         <g id="arrow_out" transform="scale(0.3 0.3)">
          <a xlink:href="_turb_model_base_8_h__incl_org.svg" target="_base">
           <rect id="button" ry="5" rx="5" y="6" x="6" height="38" width="38"
                fill="#f2f5e9" fill-opacity="0.5" stroke="#606060" stroke-width="1.0"/>
           <path id="arrow"
             d="M 11.500037,31.436501 C 11.940474,20.09759 22.043105,11.32322 32.158766,21.979434 L 37.068811,17.246167 C 37.068811,17.246167 37.088388,32 37.088388,32 L 22.160133,31.978069 C 22.160133,31.978069 26.997745,27.140456 26.997745,27.140456 C 18.528582,18.264221 13.291696,25.230495 11.500037,31.436501 z"
             style="fill:#404040;"/>
          </a>
         </g>
        </svg>
</svg>
