<?xml version="1.0" encoding="UTF-8" standalone="no"?>
<!DOCTYPE svg PUBLIC "-//W3C//DTD SVG 1.1//EN"
 "http://www.w3.org/Graphics/SVG/1.1/DTD/svg11.dtd">
<!-- Generated by graphviz version 2.40.1 (20161225.0304)
 -->
<!-- Title: TurbModelBase.H Pages: 1 -->
<!--zoomable 341 -->
<svg id="main" version="1.1" xmlns="http://www.w3.org/2000/svg" xmlns:xlink="http://www.w3.org/1999/xlink" xml:space="preserve" onload="init(evt)">
<style type="text/css"><![CDATA[
.edge:hover path { stroke: red; }
.edge:hover polygon { stroke: red; fill: red; }
]]></style>
<script type="text/javascript"><![CDATA[
var edges = document.getElementsByTagName('g');
if (edges && edges.length) {
  for (var i=0;i<edges.length;i++) {
    if (edges[i].id.substr(0,4)=='edge') {
      edges[i].setAttribute('class','edge');
    }
  }
}
]]></script>
        <defs>
                <circle id="rim" cx="0" cy="0" r="7"/>
                <circle id="rim2" cx="0" cy="0" r="3.5"/>
                <g id="zoomPlus">
                        <use xlink:href="#rim" fill="#404040">
                                <set attributeName="fill" to="#808080" begin="zoomplus.mouseover" end="zoomplus.mouseout"/>
                        </use>
                        <path d="M-4,0h8M0,-4v8" fill="none" stroke="white" stroke-width="1.5" pointer-events="none"/>
                </g>
                <g id="zoomMin">
                        <use xlink:href="#rim" fill="#404040">
                                <set attributeName="fill" to="#808080" begin="zoomminus.mouseover" end="zoomminus.mouseout"/>
                        </use>
                        <path d="M-4,0h8" fill="none" stroke="white" stroke-width="1.5" pointer-events="none"/>
                </g>
                <g id="dirArrow">
                        <path fill="none" stroke="white" stroke-width="1.5" d="M0,-3.0v7 M-2.5,-0.5L0,-3.0L2.5,-0.5"/>
                </g>
               <g id="resetDef">
                       <use xlink:href="#rim2" fill="#404040">
                               <set attributeName="fill" to="#808080" begin="reset.mouseover" end="reset.mouseout"/>
                       </use>
               </g>
        </defs>

<script type="text/javascript">
var viewWidth = 2271;
var viewHeight = 341;
var sectionId = 'dynsection-0';
</script>
<script xlink:href="svgpan.js"/>
<svg id="graph" class="graph">
<g id="viewport">
<title>TurbModelBase.H</title>
<polygon fill="#ffffff" stroke="transparent" points="-4,4 -4,-337 2267.2096,-337 2267.2096,4 -4,4"/>
<!-- Node0 -->
<g id="node1" class="node">
<title>Node0</title>
<polygon fill="#bfbfbf" stroke="#000000" points="737,-313.5 737,-332.5 832,-332.5 832,-313.5 737,-313.5"/>
<text text-anchor="middle" x="784.5" y="-320.5" font-family="Helvetica,sans-Serif" font-size="10.00" fill="#000000">TurbModelBase.H</text>
</g>
<!-- Node1 -->
<g id="node2" class="node">
<title>Node1</title>
<g id="a_node2"><a xlink:href="_turb_model_8_h.html" target="_top" xlink:title="amr&#45;wind/turbulence\l/TurbModel.H">
<polygon fill="#ffffff" stroke="#000000" points="732.5,-246.5 732.5,-276.5 836.5,-276.5 836.5,-246.5 732.5,-246.5"/>
<text text-anchor="start" x="740.5" y="-264.5" font-family="Helvetica,sans-Serif" font-size="10.00" fill="#000000">amr&#45;wind/turbulence</text>
<text text-anchor="middle" x="784.5" y="-253.5" font-family="Helvetica,sans-Serif" font-size="10.00" fill="#000000">/TurbModel.H</text>
</a>
</g>
</g>
<!-- Node0&#45;&gt;Node1 -->
<g id="edge1" class="edge">
<title>Node0&#45;&gt;Node1</title>
<path fill="none" stroke="#191970" d="M784.5,-313.3906C784.5,-306.2234 784.5,-296.0862 784.5,-286.671"/>
<polygon fill="#191970" stroke="#191970" points="788.0001,-286.5446 784.5,-276.5446 781.0001,-286.5446 788.0001,-286.5446"/>
</g>
<!-- Node35 -->
<g id="node36" class="node">
<title>Node35</title>
<g id="a_node36"><a xlink:href="_i_o_manager_8_h.html" target="_top" xlink:title="amr&#45;wind/utilities\l/IOManager.H">
<polygon fill="#ffffff" stroke="#000000" points="374.5,-56.5 374.5,-86.5 464.5,-86.5 464.5,-56.5 374.5,-56.5"/>
<text text-anchor="start" x="382.5" y="-74.5" font-family="Helvetica,sans-Serif" font-size="10.00" fill="#000000">amr&#45;wind/utilities</text>
<text text-anchor="middle" x="419.5" y="-63.5" font-family="Helvetica,sans-Serif" font-size="10.00" fill="#000000">/IOManager.H</text>
</a>
</g>
</g>
<!-- Node0&#45;&gt;Node35 -->
<g id="edge62" class="edge">
<title>Node0&#45;&gt;Node35</title>
<path fill="none" stroke="#191970" d="M753.5067,-313.4428C691.7303,-293.0624 551.7107,-240.0453 464.5,-154 447.9185,-137.6401 435.8356,-113.8676 428.3909,-96.0392"/>
<polygon fill="#191970" stroke="#191970" points="431.5796,-94.5856 424.6388,-86.5808 425.0729,-97.1668 431.5796,-94.5856"/>
</g>
<!-- Node37 -->
<g id="node38" class="node">
<title>Node37</title>
<g id="a_node38"><a xlink:href="field__ops_8_h.html" target="_top" xlink:title="amr&#45;wind/core/field\l_ops.H">
<polygon fill="#ffffff" stroke="#000000" points="1752,-123.5 1752,-153.5 1851,-153.5 1851,-123.5 1752,-123.5"/>
<text text-anchor="start" x="1760" y="-141.5" font-family="Helvetica,sans-Serif" font-size="10.00" fill="#000000">amr&#45;wind/core/field</text>
<text text-anchor="middle" x="1801.5" y="-130.5" font-family="Helvetica,sans-Serif" font-size="10.00" fill="#000000">_ops.H</text>
</a>
</g>
</g>
<!-- Node0&#45;&gt;Node37 -->
<g id="edge67" class="edge">
<title>Node0&#45;&gt;Node37</title>
<path fill="none" stroke="#191970" d="M832.1199,-316.0205C971.0402,-295.3579 1387.817,-231.2251 1742.0621,-153.994"/>
<polygon fill="#191970" stroke="#191970" points="1742.9759,-157.3769 1751.9971,-151.8209 1741.4802,-150.5386 1742.9759,-157.3769"/>
</g>
<!-- Node2 -->
<g id="node3" class="node">
<title>Node2</title>
<g id="a_node3"><a xlink:href="_turbulence_model_8_h.html" target="_top" xlink:title="amr&#45;wind/turbulence\l/TurbulenceModel.H">
<polygon fill="#ffffff" stroke="#000000" points="473.5,-123.5 473.5,-153.5 577.5,-153.5 577.5,-123.5 473.5,-123.5"/>
<text text-anchor="start" x="481.5" y="-141.5" font-family="Helvetica,sans-Serif" font-size="10.00" fill="#000000">amr&#45;wind/turbulence</text>
<text text-anchor="middle" x="525.5" y="-130.5" font-family="Helvetica,sans-Serif" font-size="10.00" fill="#000000">/TurbulenceModel.H</text>
</a>
</g>
</g>
<!-- Node1&#45;&gt;Node2 -->
<g id="edge2" class="edge">
<title>Node1&#45;&gt;Node2</title>
<path fill="none" stroke="#191970" d="M752.7415,-246.4178C705.8179,-224.1336 617.9617,-182.4104 566.3166,-157.8839"/>
<polygon fill="#191970" stroke="#191970" points="567.6473,-154.6413 557.1127,-153.513 564.6444,-160.9645 567.6473,-154.6413"/>
</g>
<!-- Node10 -->
<g id="node11" class="node">
<title>Node10</title>
<g id="a_node11"><a xlink:href="_c_f_d_sim_8_h.html" target="_top" xlink:title="amr&#45;wind/CFDSim.H">
<polygon fill="#ffffff" stroke="#000000" points="960.5,-190.5 960.5,-209.5 1068.5,-209.5 1068.5,-190.5 960.5,-190.5"/>
<text text-anchor="middle" x="1014.5" y="-197.5" font-family="Helvetica,sans-Serif" font-size="10.00" fill="#000000">amr&#45;wind/CFDSim.H</text>
</a>
</g>
</g>
<!-- Node1&#45;&gt;Node10 -->
<g id="edge11" class="edge">
<title>Node1&#45;&gt;Node10</title>
<path fill="none" stroke="#191970" d="M836.6906,-247.5447C876.597,-236.8741 931.0596,-222.3112 969.1572,-212.1243"/>
<polygon fill="#191970" stroke="#191970" points="970.2,-215.4685 978.9565,-209.504 968.3918,-208.706 970.2,-215.4685"/>
</g>
<!-- Node3 -->
<g id="node4" class="node">
<title>Node3</title>
<polygon fill="#ffffff" stroke="#bfbfbf" points="515,-.5 515,-19.5 598,-19.5 598,-.5 515,-.5"/>
<text text-anchor="middle" x="556.5" y="-7.5" font-family="Helvetica,sans-Serif" font-size="10.00" fill="#000000">unordered_map</text>
</g>
<!-- Node2&#45;&gt;Node3 -->
<g id="edge3" class="edge">
<title>Node2&#45;&gt;Node3</title>
<path fill="none" stroke="#191970" d="M518.1491,-123.3594C510.9838,-106.3901 502.3938,-78.3306 511.5,-56 516.2156,-44.4363 525.3927,-34.2008 534.2362,-26.3383"/>
<polygon fill="#191970" stroke="#191970" points="536.6496,-28.8842 542.1263,-19.8147 532.1891,-23.4894 536.6496,-28.8842"/>
</g>
<!-- Node4 -->
<g id="node5" class="node">
<title>Node4</title>
<g id="a_node5"><a xlink:href="_factory_8_h.html" target="_top" xlink:title="amr&#45;wind/core/Factory.H">
<polygon fill="#ffffff" stroke="#000000" points="74,-62 74,-81 199,-81 199,-62 74,-62"/>
<text text-anchor="middle" x="136.5" y="-69" font-family="Helvetica,sans-Serif" font-size="10.00" fill="#000000">amr&#45;wind/core/Factory.H</text>
</a>
</g>
</g>
<!-- Node2&#45;&gt;Node4 -->
<g id="edge4" class="edge">
<title>Node2&#45;&gt;Node4</title>
<path fill="none" stroke="#191970" d="M473.2944,-130.9357C410.1664,-121.5836 300.7689,-104.7196 207.5,-87 201.318,-85.8255 194.8499,-84.5203 188.4418,-83.18"/>
<polygon fill="#191970" stroke="#191970" points="188.9806,-79.7163 178.4711,-81.0585 187.5237,-86.5631 188.9806,-79.7163"/>
</g>
<!-- Node9 -->
<g id="node10" class="node">
<title>Node9</title>
<g id="a_node10"><a xlink:href="_field_desc_types_8_h.html" target="_top" xlink:title="amr&#45;wind/core/FieldDescTypes.H">
<polygon fill="#ffffff" stroke="#000000" points="1691,-.5 1691,-19.5 1854,-19.5 1854,-.5 1691,-.5"/>
<text text-anchor="middle" x="1772.5" y="-7.5" font-family="Helvetica,sans-Serif" font-size="10.00" fill="#000000">amr&#45;wind/core/FieldDescTypes.H</text>
</a>
</g>
</g>
<!-- Node2&#45;&gt;Node9 -->
<g id="edge10" class="edge">
<title>Node2&#45;&gt;Node9</title>
<path fill="none" stroke="#191970" d="M564.4952,-123.4754C621.5782,-101.7522 725.3503,-63.3584 764.5,-56 962.0084,-18.8771 1462.937,-34.7647 1680.4647,-20.0735"/>
<polygon fill="#191970" stroke="#191970" points="1680.8808,-23.5528 1690.6066,-19.3504 1680.383,-16.5705 1680.8808,-23.5528"/>
</g>
<!-- Node4&#45;&gt;Node3 -->
<g id="edge6" class="edge">
<title>Node4&#45;&gt;Node3</title>
<path fill="none" stroke="#191970" d="M176.9211,-61.9822C186.8825,-59.8285 197.548,-57.6835 207.5,-56 335.8271,-34.2913 371.9801,-40.5196 504.6512,-20.0257"/>
<polygon fill="#191970" stroke="#191970" points="505.4582,-23.4421 514.7958,-18.4361 504.3744,-16.5264 505.4582,-23.4421"/>
</g>
<!-- Node5 -->
<g id="node6" class="node">
<title>Node5</title>
<polygon fill="#ffffff" stroke="#bfbfbf" points="616.5,-.5 616.5,-19.5 668.5,-19.5 668.5,-.5 616.5,-.5"/>
<text text-anchor="middle" x="642.5" y="-7.5" font-family="Helvetica,sans-Serif" font-size="10.00" fill="#000000">memory</text>
</g>
<!-- Node4&#45;&gt;Node5 -->
<g id="edge5" class="edge">
<title>Node4&#45;&gt;Node5</title>
<path fill="none" stroke="#191970" d="M176.1408,-61.9297C186.3148,-59.7262 197.2743,-57.5712 207.5,-56 383.4883,-28.959 431.3378,-51.9582 606.5,-20 606.5997,-19.9818 606.6995,-19.9635 606.7995,-19.945"/>
<polygon fill="#191970" stroke="#191970" points="607.2588,-23.4273 616.2815,-17.8738 605.7649,-16.5885 607.2588,-23.4273"/>
</g>
<!-- Node6 -->
<g id="node7" class="node">
<title>Node6</title>
<polygon fill="#ffffff" stroke="#bfbfbf" points="185.5,-.5 185.5,-19.5 239.5,-19.5 239.5,-.5 185.5,-.5"/>
<text text-anchor="middle" x="212.5" y="-7.5" font-family="Helvetica,sans-Serif" font-size="10.00" fill="#000000">iostream</text>
</g>
<!-- Node4&#45;&gt;Node6 -->
<g id="edge7" class="edge">
<title>Node4&#45;&gt;Node6</title>
<path fill="none" stroke="#191970" d="M148.375,-61.8906C160.1297,-52.3786 178.3486,-37.6357 192.3672,-26.2917"/>
<polygon fill="#191970" stroke="#191970" points="194.8856,-28.7562 200.4576,-19.7449 190.4822,-23.3146 194.8856,-28.7562"/>
</g>
<!-- Node7 -->
<g id="node8" class="node">
<title>Node7</title>
<polygon fill="#ffffff" stroke="#bfbfbf" points="0,-.5 0,-19.5 87,-19.5 87,-.5 0,-.5"/>
<text text-anchor="middle" x="43.5" y="-7.5" font-family="Helvetica,sans-Serif" font-size="10.00" fill="#000000">AMReX_Print.H</text>
</g>
<!-- Node4&#45;&gt;Node7 -->
<g id="edge8" class="edge">
<title>Node4&#45;&gt;Node7</title>
<path fill="none" stroke="#191970" d="M121.9688,-61.8906C107.0906,-52.0519 83.7496,-36.6167 66.3872,-25.1351"/>
<polygon fill="#191970" stroke="#191970" points="68.201,-22.1385 57.9292,-19.5419 64.3398,-27.9773 68.201,-22.1385"/>
</g>
<!-- Node8 -->
<g id="node9" class="node">
<title>Node8</title>
<polygon fill="#ffffff" stroke="#bfbfbf" points="105.5,-.5 105.5,-19.5 167.5,-19.5 167.5,-.5 105.5,-.5"/>
<text text-anchor="middle" x="136.5" y="-7.5" font-family="Helvetica,sans-Serif" font-size="10.00" fill="#000000">AMReX.H</text>
</g>
<!-- Node4&#45;&gt;Node8 -->
<g id="edge9" class="edge">
<title>Node4&#45;&gt;Node8</title>
<path fill="none" stroke="#191970" d="M136.5,-61.8906C136.5,-53.3657 136.5,-40.6392 136.5,-29.9235"/>
<polygon fill="#191970" stroke="#191970" points="140.0001,-29.7448 136.5,-19.7449 133.0001,-29.7449 140.0001,-29.7448"/>
</g>
<!-- Node11 -->
<g id="node12" class="node">
<title>Node11</title>
<polygon fill="#ffffff" stroke="#bfbfbf" points="1366.5,-62 1366.5,-81 1472.5,-81 1472.5,-62 1366.5,-62"/>
<text text-anchor="middle" x="1419.5" y="-69" font-family="Helvetica,sans-Serif" font-size="10.00" fill="#000000">AMReX_AmrCore.H</text>
</g>
<!-- Node10&#45;&gt;Node11 -->
<g id="edge12" class="edge">
<title>Node10&#45;&gt;Node11</title>
<path fill="none" stroke="#191970" d="M1047.3246,-190.4772C1078.5568,-181.3497 1126.8325,-167.0682 1168.5,-154 1244.4564,-130.1779 1332.7789,-100.7407 1381.7951,-84.249"/>
<polygon fill="#191970" stroke="#191970" points="1382.9897,-87.5399 1391.3493,-81.0309 1380.7551,-80.9061 1382.9897,-87.5399"/>
</g>
<!-- Node12 -->
<g id="node13" class="node">
<title>Node12</title>
<g id="a_node13"><a xlink:href="_sim_time_8_h.html" target="_top" xlink:title="amr&#45;wind/core/SimTime.H">
<polygon fill="#ffffff" stroke="#000000" points="1028,-129 1028,-148 1159,-148 1159,-129 1028,-129"/>
<text text-anchor="middle" x="1093.5" y="-136" font-family="Helvetica,sans-Serif" font-size="10.00" fill="#000000">amr&#45;wind/core/SimTime.H</text>
</a>
</g>
</g>
<!-- Node10&#45;&gt;Node12 -->
<g id="edge13" class="edge">
<title>Node10&#45;&gt;Node12</title>
<path fill="none" stroke="#191970" d="M1026.8438,-190.3906C1039.2503,-180.7324 1058.5843,-165.6812 1073.2413,-154.271"/>
<polygon fill="#191970" stroke="#191970" points="1075.5021,-156.9466 1081.2429,-148.0419 1071.2021,-151.423 1075.5021,-156.9466"/>
</g>
<!-- Node16 -->
<g id="node17" class="node">
<title>Node16</title>
<g id="a_node17"><a xlink:href="_field_repo_8_h.html" target="_top" xlink:title="amr&#45;wind/core/FieldRepo.H">
<polygon fill="#ffffff" stroke="#000000" points="1597.5,-129 1597.5,-148 1733.5,-148 1733.5,-129 1597.5,-129"/>
<text text-anchor="middle" x="1665.5" y="-136" font-family="Helvetica,sans-Serif" font-size="10.00" fill="#000000">amr&#45;wind/core/FieldRepo.H</text>
</a>
</g>
</g>
<!-- Node10&#45;&gt;Node16 -->
<g id="edge17" class="edge">
<title>Node10&#45;&gt;Node16</title>
<path fill="none" stroke="#191970" d="M1068.6057,-194.8886C1183.6856,-184.017 1453.1363,-158.562 1587.0664,-145.9096"/>
<polygon fill="#191970" stroke="#191970" points="1587.6264,-149.3724 1597.2529,-144.9473 1586.968,-142.4034 1587.6264,-149.3724"/>
</g>
<!-- Node28 -->
<g id="node29" class="node">
<title>Node28</title>
<g id="a_node29"><a xlink:href="_p_d_e_base_8_h.html" target="_top" xlink:title="amr&#45;wind/equation_systems\l/PDEBase.H">
<polygon fill="#ffffff" stroke="#000000" points="605,-123.5 605,-153.5 744,-153.5 744,-123.5 605,-123.5"/>
<text text-anchor="start" x="613" y="-141.5" font-family="Helvetica,sans-Serif" font-size="10.00" fill="#000000">amr&#45;wind/equation_systems</text>
<text text-anchor="middle" x="674.5" y="-130.5" font-family="Helvetica,sans-Serif" font-size="10.00" fill="#000000">/PDEBase.H</text>
</a>
</g>
</g>
<!-- Node10&#45;&gt;Node28 -->
<g id="edge45" class="edge">
<title>Node10&#45;&gt;Node28</title>
<path fill="none" stroke="#191970" d="M961.748,-190.4581C906.2426,-180.4181 818.2237,-164.4971 754.2358,-152.9228"/>
<polygon fill="#191970" stroke="#191970" points="754.6445,-149.44 744.1811,-151.1041 753.3984,-156.3282 754.6445,-149.44"/>
</g>
<!-- Node33 -->
<g id="node34" class="node">
<title>Node33</title>
<g id="a_node34"><a xlink:href="_physics_8_h.html" target="_top" xlink:title="amr&#45;wind/core/Physics.H">
<polygon fill="#ffffff" stroke="#000000" points="808,-129 808,-148 935,-148 935,-129 808,-129"/>
<text text-anchor="middle" x="871.5" y="-136" font-family="Helvetica,sans-Serif" font-size="10.00" fill="#000000">amr&#45;wind/core/Physics.H</text>
</a>
</g>
</g>
<!-- Node10&#45;&gt;Node33 -->
<g id="edge57" class="edge">
<title>Node10&#45;&gt;Node33</title>
<path fill="none" stroke="#191970" d="M992.1563,-190.3906C968.2297,-180.1005 930.0691,-163.6888 903.0784,-152.0809"/>
<polygon fill="#191970" stroke="#191970" points="904.2561,-148.7775 893.6869,-148.0419 901.4905,-155.208 904.2561,-148.7775"/>
</g>
<!-- Node13 -->
<g id="node14" class="node">
<title>Node13</title>
<polygon fill="#ffffff" stroke="#bfbfbf" points="983,-62 983,-81 1076,-81 1076,-62 983,-62"/>
<text text-anchor="middle" x="1029.5" y="-69" font-family="Helvetica,sans-Serif" font-size="10.00" fill="#000000">AMReX_REAL.H</text>
</g>
<!-- Node12&#45;&gt;Node13 -->
<g id="edge14" class="edge">
<title>Node12&#45;&gt;Node13</title>
<path fill="none" stroke="#191970" d="M1084.3304,-128.9005C1074.2551,-118.353 1057.8793,-101.2096 1045.6431,-88.3998"/>
<polygon fill="#191970" stroke="#191970" points="1048.0909,-85.8952 1038.6526,-81.0817 1043.0291,-90.7304 1048.0909,-85.8952"/>
</g>
<!-- Node14 -->
<g id="node15" class="node">
<title>Node14</title>
<polygon fill="#ffffff" stroke="#bfbfbf" points="1094.5,-62 1094.5,-81 1220.5,-81 1220.5,-62 1094.5,-62"/>
<text text-anchor="middle" x="1157.5" y="-69" font-family="Helvetica,sans-Serif" font-size="10.00" fill="#000000">AMReX_GpuQualifiers.H</text>
</g>
<!-- Node12&#45;&gt;Node14 -->
<g id="edge15" class="edge">
<title>Node12&#45;&gt;Node14</title>
<path fill="none" stroke="#191970" d="M1102.6696,-128.9005C1112.7449,-118.353 1129.1207,-101.2096 1141.3569,-88.3998"/>
<polygon fill="#191970" stroke="#191970" points="1143.9709,-90.7304 1148.3474,-81.0817 1138.9091,-85.8952 1143.9709,-90.7304"/>
</g>
<!-- Node15 -->
<g id="node16" class="node">
<title>Node15</title>
<polygon fill="#ffffff" stroke="#bfbfbf" points="1238.5,-62 1238.5,-81 1348.5,-81 1348.5,-62 1238.5,-62"/>
<text text-anchor="middle" x="1293.5" y="-69" font-family="Helvetica,sans-Serif" font-size="10.00" fill="#000000">AMReX_Extension.H</text>
</g>
<!-- Node12&#45;&gt;Node15 -->
<g id="edge16" class="edge">
<title>Node12&#45;&gt;Node15</title>
<path fill="none" stroke="#191970" d="M1122.1551,-128.9005C1157.0563,-117.2086 1216.1502,-97.4122 1254.9997,-84.3976"/>
<polygon fill="#191970" stroke="#191970" points="1256.5277,-87.577 1264.898,-81.0817 1254.3041,-80.9395 1256.5277,-87.577"/>
</g>
<!-- Node16&#45;&gt;Node3 -->
<g id="edge19" class="edge">
<title>Node16&#45;&gt;Node3</title>
<path fill="none" stroke="#191970" d="M1622.0571,-128.9304C1590.6776,-120.802 1548.0872,-107.1982 1514.5,-87 1497.255,-76.6294 1500.0528,-63.7929 1481.5,-56 1394.3409,-19.3897 741.1949,-30.7094 608.1318,-19.6909"/>
<polygon fill="#191970" stroke="#191970" points="608.4624,-16.2066 598.1668,-18.7071 607.7746,-23.1727 608.4624,-16.2066"/>
</g>
<!-- Node16&#45;&gt;Node9 -->
<g id="edge20" class="edge">
<title>Node16&#45;&gt;Node9</title>
<path fill="none" stroke="#191970" d="M1672.3582,-128.5288C1683.3911,-112.6893 1706.0252,-81.0127 1727.5,-56 1736.1921,-45.8759 1746.5688,-35.1858 1755.1661,-26.6615"/>
<polygon fill="#191970" stroke="#191970" points="1757.7637,-29.0165 1762.462,-19.5204 1752.8673,-24.014 1757.7637,-29.0165"/>
</g>
<!-- Node16&#45;&gt;Node11 -->
<g id="edge42" class="edge">
<title>Node16&#45;&gt;Node11</title>
<path fill="none" stroke="#191970" d="M1630.5154,-128.9717C1586.9237,-117.0991 1512.3591,-96.7909 1464.5396,-83.7669"/>
<polygon fill="#191970" stroke="#191970" points="1465.3305,-80.3549 1454.7622,-81.1039 1463.4909,-87.1088 1465.3305,-80.3549"/>
</g>
<!-- Node17 -->
<g id="node18" class="node">
<title>Node17</title>
<polygon fill="#ffffff" stroke="#bfbfbf" points="1265,-.5 1265,-19.5 1306,-19.5 1306,-.5 1265,-.5"/>
<text text-anchor="middle" x="1285.5" y="-7.5" font-family="Helvetica,sans-Serif" font-size="10.00" fill="#000000">string</text>
</g>
<!-- Node16&#45;&gt;Node17 -->
<g id="edge18" class="edge">
<title>Node16&#45;&gt;Node17</title>
<path fill="none" stroke="#191970" d="M1642.8115,-128.891C1620.7612,-119.2502 1586.5852,-103.5 1558.5,-87 1537.8744,-74.8825 1536.567,-65.2355 1514.5,-56 1434.5033,-22.5198 1404.6843,-40.8625 1315.9781,-19.7467"/>
<polygon fill="#191970" stroke="#191970" points="1316.5907,-16.2925 1306.0417,-17.2769 1314.9021,-23.0858 1316.5907,-16.2925"/>
</g>
<!-- Node18 -->
<g id="node19" class="node">
<title>Node18</title>
<g id="a_node19"><a xlink:href="_field_utils_8_h.html" target="_top" xlink:title="amr&#45;wind/core/FieldUtils.H">
<polygon fill="#ffffff" stroke="#000000" points="2081,-62 2081,-81 2214,-81 2214,-62 2081,-62"/>
<text text-anchor="middle" x="2147.5" y="-69" font-family="Helvetica,sans-Serif" font-size="10.00" fill="#000000">amr&#45;wind/core/FieldUtils.H</text>
</a>
</g>
</g>
<!-- Node16&#45;&gt;Node18 -->
<g id="edge21" class="edge">
<title>Node16&#45;&gt;Node18</title>
<path fill="none" stroke="#191970" d="M1709.9318,-128.9908C1720.8745,-126.8369 1732.5848,-124.6897 1743.5,-123 1886.2443,-100.9034 1923.6783,-108.5905 2066.5,-87 2074.451,-85.798 2082.812,-84.3774 2091.0204,-82.8919"/>
<polygon fill="#191970" stroke="#191970" points="2091.7241,-86.3212 2100.9193,-81.0582 2090.449,-79.4383 2091.7241,-86.3212"/>
</g>
<!-- Node19 -->
<g id="node20" class="node">
<title>Node19</title>
<polygon fill="#ffffff" stroke="#bfbfbf" points="1997.5,-.5 1997.5,-19.5 2101.5,-19.5 2101.5,-.5 1997.5,-.5"/>
<text text-anchor="middle" x="2049.5" y="-7.5" font-family="Helvetica,sans-Serif" font-size="10.00" fill="#000000">AMReX_MultiFab.H</text>
</g>
<!-- Node16&#45;&gt;Node19 -->
<g id="edge43" class="edge">
<title>Node16&#45;&gt;Node19</title>
<path fill="none" stroke="#191970" d="M1708.6632,-128.9525C1719.9548,-126.7217 1732.1457,-124.5481 1743.5,-123 1796.4928,-115.7746 2187.1234,-126.207 2223.5,-87 2232.871,-76.8999 2231.9056,-66.9166 2223.5,-56 2216.181,-46.4946 2155.0229,-31.8391 2107.2566,-21.6335"/>
<polygon fill="#191970" stroke="#191970" points="2107.7989,-18.1708 2097.2912,-19.5267 2106.351,-25.0195 2107.7989,-18.1708"/>
</g>
<!-- Node21 -->
<g id="node22" class="node">
<title>Node21</title>
<g id="a_node22"><a xlink:href="_field_8_h.html" target="_top" xlink:title="amr&#45;wind/core/Field.H">
<polygon fill="#ffffff" stroke="#000000" points="1567,-62 1567,-81 1680,-81 1680,-62 1567,-62"/>
<text text-anchor="middle" x="1623.5" y="-69" font-family="Helvetica,sans-Serif" font-size="10.00" fill="#000000">amr&#45;wind/core/Field.H</text>
</a>
</g>
</g>
<!-- Node16&#45;&gt;Node21 -->
<g id="edge25" class="edge">
<title>Node16&#45;&gt;Node21</title>
<path fill="none" stroke="#191970" d="M1659.4824,-128.9005C1653.12,-118.751 1642.9291,-102.4941 1635.0142,-89.8679"/>
<polygon fill="#191970" stroke="#191970" points="1637.7833,-87.6956 1629.5064,-81.0817 1631.8523,-91.4135 1637.7833,-87.6956"/>
</g>
<!-- Node25 -->
<g id="node26" class="node">
<title>Node25</title>
<g id="a_node26"><a xlink:href="_int_field_8_h.html" target="_top" xlink:title="amr&#45;wind/core/IntField.H">
<polygon fill="#ffffff" stroke="#000000" points="1736.5,-62 1736.5,-81 1860.5,-81 1860.5,-62 1736.5,-62"/>
<text text-anchor="middle" x="1798.5" y="-69" font-family="Helvetica,sans-Serif" font-size="10.00" fill="#000000">amr&#45;wind/core/IntField.H</text>
</a>
</g>
</g>
<!-- Node16&#45;&gt;Node25 -->
<g id="edge34" class="edge">
<title>Node16&#45;&gt;Node25</title>
<path fill="none" stroke="#191970" d="M1684.5557,-128.9005C1706.9748,-117.6067 1744.4054,-98.7506 1770.2132,-85.7497"/>
<polygon fill="#191970" stroke="#191970" points="1772.1235,-88.7065 1779.4797,-81.0817 1768.9742,-82.4549 1772.1235,-88.7065"/>
</g>
<!-- Node26 -->
<g id="node27" class="node">
<title>Node26</title>
<polygon fill="#ffffff" stroke="#bfbfbf" points="1872,-.5 1872,-19.5 1979,-19.5 1979,-.5 1872,-.5"/>
<text text-anchor="middle" x="1925.5" y="-7.5" font-family="Helvetica,sans-Serif" font-size="10.00" fill="#000000">AMReX_iMultiFab.H</text>
</g>
<!-- Node16&#45;&gt;Node26 -->
<g id="edge44" class="edge">
<title>Node16&#45;&gt;Node26</title>
<path fill="none" stroke="#191970" d="M1710.7692,-128.9258C1721.4741,-126.8224 1732.8682,-124.7139 1743.5,-123 1807.6114,-112.6646 1990.5025,-135.6652 2033.5,-87 2042.6226,-76.675 2041.0974,-67.4938 2033.5,-56 2023.0698,-40.2206 2006.0068,-29.8364 1988.4914,-23.0096"/>
<polygon fill="#191970" stroke="#191970" points="1989.3481,-19.6004 1978.7533,-19.5712 1987.0174,-26.201 1989.3481,-19.6004"/>
</g>
<!-- Node27 -->
<g id="node28" class="node">
<title>Node27</title>
<g id="a_node28"><a xlink:href="_scratch_field_8_h.html" target="_top" xlink:title="amr&#45;wind/core/ScratchField.H">
<polygon fill="#ffffff" stroke="#000000" points="1878.5,-62 1878.5,-81 2024.5,-81 2024.5,-62 1878.5,-62"/>
<text text-anchor="middle" x="1951.5" y="-69" font-family="Helvetica,sans-Serif" font-size="10.00" fill="#000000">amr&#45;wind/core/ScratchField.H</text>
</a>
</g>
</g>
<!-- Node16&#45;&gt;Node27 -->
<g id="edge38" class="edge">
<title>Node16&#45;&gt;Node27</title>
<path fill="none" stroke="#191970" d="M1706.1731,-128.9717C1757.277,-116.9998 1844.9952,-96.4504 1900.526,-83.4415"/>
<polygon fill="#191970" stroke="#191970" points="1901.5661,-86.7926 1910.5042,-81.1039 1899.9694,-79.9772 1901.5661,-86.7926"/>
</g>
<!-- Node18&#45;&gt;Node9 -->
<g id="edge22" class="edge">
<title>Node18&#45;&gt;Node9</title>
<path fill="none" stroke="#191970" d="M2089.3177,-61.9581C2022.1602,-50.9443 1911.8479,-32.8531 1840.7117,-21.1867"/>
<polygon fill="#191970" stroke="#191970" points="1840.9449,-17.6783 1830.5102,-19.5137 1839.812,-24.586 1840.9449,-17.6783"/>
</g>
<!-- Node18&#45;&gt;Node19 -->
<g id="edge23" class="edge">
<title>Node18&#45;&gt;Node19</title>
<path fill="none" stroke="#191970" d="M2132.1875,-61.8906C2116.4376,-52.0067 2091.6877,-36.4749 2073.3663,-24.9773"/>
<polygon fill="#191970" stroke="#191970" points="2075.0357,-21.8929 2064.705,-19.5419 2071.3148,-27.8221 2075.0357,-21.8929"/>
</g>
<!-- Node20 -->
<g id="node21" class="node">
<title>Node20</title>
<polygon fill="#ffffff" stroke="#bfbfbf" points="2119.5,-.5 2119.5,-19.5 2235.5,-19.5 2235.5,-.5 2119.5,-.5"/>
<text text-anchor="middle" x="2177.5" y="-7.5" font-family="Helvetica,sans-Serif" font-size="10.00" fill="#000000">AMReX_Interpolater.H</text>
</g>
<!-- Node18&#45;&gt;Node20 -->
<g id="edge24" class="edge">
<title>Node18&#45;&gt;Node20</title>
<path fill="none" stroke="#191970" d="M2152.1875,-61.8906C2156.4773,-53.0965 2162.9482,-39.8312 2168.2734,-28.9145"/>
<polygon fill="#191970" stroke="#191970" points="2171.5078,-30.2671 2172.7464,-19.7449 2165.2164,-27.1981 2171.5078,-30.2671"/>
</g>
<!-- Node21&#45;&gt;Node3 -->
<g id="edge28" class="edge">
<title>Node21&#45;&gt;Node3</title>
<path fill="none" stroke="#191970" d="M1566.7731,-62.3201C1549.9842,-59.9048 1531.5371,-57.5454 1514.5,-56 1116.0562,-19.8571 1009.9429,-66.1707 608.3139,-19.8938"/>
<polygon fill="#191970" stroke="#191970" points="608.504,-16.3924 598.1662,-18.7122 607.6943,-23.3454 608.504,-16.3924"/>
</g>
<!-- Node21&#45;&gt;Node5 -->
<g id="edge27" class="edge">
<title>Node21&#45;&gt;Node5</title>
<path fill="none" stroke="#191970" d="M1566.7599,-62.4609C1549.9706,-60.0492 1531.5266,-57.6564 1514.5,-56 1191.1751,-24.5456 798.1659,-13.5191 678.6638,-10.7607"/>
<polygon fill="#191970" stroke="#191970" points="678.6771,-7.2602 668.6005,-10.5332 678.5188,-14.2584 678.6771,-7.2602"/>
</g>
<!-- Node21&#45;&gt;Node9 -->
<g id="edge33" class="edge">
<title>Node21&#45;&gt;Node9</title>
<path fill="none" stroke="#191970" d="M1646.7813,-61.8906C1671.821,-51.5554 1711.8225,-35.0447 1739.966,-23.4284"/>
<polygon fill="#191970" stroke="#191970" points="1741.474,-26.5925 1749.3822,-19.5419 1738.8033,-20.122 1741.474,-26.5925"/>
</g>
<!-- Node21&#45;&gt;Node17 -->
<g id="edge26" class="edge">
<title>Node21&#45;&gt;Node17</title>
<path fill="none" stroke="#191970" d="M1581.9174,-61.9541C1572.2825,-59.8725 1562.0529,-57.7664 1552.5,-56 1450.906,-37.2145 1420.8867,-44.4591 1316.0628,-19.7632"/>
<polygon fill="#191970" stroke="#191970" points="1316.5628,-16.284 1306.0223,-17.3552 1314.9302,-23.0909 1316.5628,-16.284"/>
</g>
<!-- Node21&#45;&gt;Node19 -->
<g id="edge29" class="edge">
<title>Node21&#45;&gt;Node19</title>
<path fill="none" stroke="#191970" d="M1680.1581,-62.9415C1695.5153,-60.6529 1712.1406,-58.2038 1727.5,-56 1840.2418,-39.8238 1871.0456,-37.5879 1987.2627,-20.1585"/>
<polygon fill="#191970" stroke="#191970" points="1987.9028,-23.6016 1997.2703,-18.6518 1986.8607,-16.6796 1987.9028,-23.6016"/>
</g>
<!-- Node22 -->
<g id="node23" class="node">
<title>Node22</title>
<polygon fill="#ffffff" stroke="#bfbfbf" points="1574,-.5 1574,-19.5 1673,-19.5 1673,-.5 1574,-.5"/>
<text text-anchor="middle" x="1623.5" y="-7.5" font-family="Helvetica,sans-Serif" font-size="10.00" fill="#000000">AMReX_BCRec.H</text>
</g>
<!-- Node21&#45;&gt;Node22 -->
<g id="edge30" class="edge">
<title>Node21&#45;&gt;Node22</title>
<path fill="none" stroke="#191970" d="M1623.5,-61.8906C1623.5,-53.3657 1623.5,-40.6392 1623.5,-29.9235"/>
<polygon fill="#191970" stroke="#191970" points="1627.0001,-29.7448 1623.5,-19.7449 1620.0001,-29.7449 1627.0001,-29.7448"/>
</g>
<!-- Node23 -->
<g id="node24" class="node">
<title>Node23</title>
<polygon fill="#ffffff" stroke="#bfbfbf" points="1471,-.5 1471,-19.5 1556,-19.5 1556,-.5 1471,-.5"/>
<text text-anchor="middle" x="1513.5" y="-7.5" font-family="Helvetica,sans-Serif" font-size="10.00" fill="#000000">AMReX_Gpu.H</text>
</g>
<!-- Node21&#45;&gt;Node23 -->
<g id="edge31" class="edge">
<title>Node21&#45;&gt;Node23</title>
<path fill="none" stroke="#191970" d="M1606.3125,-61.8906C1588.3918,-51.8713 1560.0905,-36.0483 1539.4477,-24.5071"/>
<polygon fill="#191970" stroke="#191970" points="1541.0033,-21.367 1530.5668,-19.5419 1537.5872,-27.4769 1541.0033,-21.367"/>
</g>
<!-- Node24 -->
<g id="node25" class="node">
<title>Node24</title>
<g id="a_node25"><a xlink:href="incflo__enums_8_h.html" target="_top" xlink:title="amr&#45;wind/incflo_enums.H">
<polygon fill="#ffffff" stroke="#000000" points="1324.5,-.5 1324.5,-19.5 1452.5,-19.5 1452.5,-.5 1324.5,-.5"/>
<text text-anchor="middle" x="1388.5" y="-7.5" font-family="Helvetica,sans-Serif" font-size="10.00" fill="#000000">amr&#45;wind/incflo_enums.H</text>
</a>
</g>
</g>
<!-- Node21&#45;&gt;Node24 -->
<g id="edge32" class="edge">
<title>Node21&#45;&gt;Node24</title>
<path fill="none" stroke="#191970" d="M1587.0391,-61.9581C1546.0485,-51.2308 1479.4031,-33.7895 1434.774,-22.11"/>
<polygon fill="#191970" stroke="#191970" points="1435.6068,-18.7101 1425.0464,-19.5643 1433.8345,-25.4821 1435.6068,-18.7101"/>
</g>
<!-- Node25&#45;&gt;Node9 -->
<g id="edge36" class="edge">
<title>Node25&#45;&gt;Node9</title>
<path fill="none" stroke="#191970" d="M1794.4375,-61.8906C1790.7576,-53.1862 1785.2258,-40.1015 1780.638,-29.2494"/>
<polygon fill="#191970" stroke="#191970" points="1783.7375,-27.5927 1776.6198,-19.7449 1777.29,-30.3185 1783.7375,-27.5927"/>
</g>
<!-- Node25&#45;&gt;Node17 -->
<g id="edge35" class="edge">
<title>Node25&#45;&gt;Node17</title>
<path fill="none" stroke="#191970" d="M1736.3109,-62.1607C1721.0222,-60.0016 1704.6838,-57.8094 1689.5,-56 1526.9213,-36.6259 1480.6586,-53.9204 1316.2802,-19.7129"/>
<polygon fill="#191970" stroke="#191970" points="1316.8219,-16.2501 1306.3143,-17.6066 1315.3744,-23.0988 1316.8219,-16.2501"/>
</g>
<!-- Node25&#45;&gt;Node26 -->
<g id="edge37" class="edge">
<title>Node25&#45;&gt;Node26</title>
<path fill="none" stroke="#191970" d="M1818.3438,-61.8906C1839.3136,-51.7359 1872.5944,-35.6196 1896.5036,-24.0416"/>
<polygon fill="#191970" stroke="#191970" points="1898.3208,-27.0504 1905.7956,-19.5419 1895.2699,-20.7502 1898.3208,-27.0504"/>
</g>
<!-- Node27&#45;&gt;Node9 -->
<g id="edge40" class="edge">
<title>Node27&#45;&gt;Node9</title>
<path fill="none" stroke="#191970" d="M1923.5313,-61.8906C1892.9245,-51.3749 1843.7101,-34.466 1809.8259,-22.8243"/>
<polygon fill="#191970" stroke="#191970" points="1810.867,-19.4812 1800.2724,-19.5419 1808.5924,-26.1014 1810.867,-19.4812"/>
</g>
<!-- Node27&#45;&gt;Node17 -->
<g id="edge39" class="edge">
<title>Node27&#45;&gt;Node17</title>
<path fill="none" stroke="#191970" d="M1906.543,-61.9801C1894.5528,-59.7216 1881.5738,-57.5276 1869.5,-56 1627.9372,-25.4365 1559.4444,-66.2991 1316.1426,-19.6108"/>
<polygon fill="#191970" stroke="#191970" points="1316.7816,-16.1695 1306.2968,-17.6923 1315.4428,-23.0403 1316.7816,-16.1695"/>
</g>
<!-- Node27&#45;&gt;Node19 -->
<g id="edge41" class="edge">
<title>Node27&#45;&gt;Node19</title>
<path fill="none" stroke="#191970" d="M1966.8125,-61.8906C1982.5624,-52.0067 2007.3123,-36.4749 2025.6337,-24.9773"/>
<polygon fill="#191970" stroke="#191970" points="2027.6852,-27.8221 2034.295,-19.5419 2023.9643,-21.8929 2027.6852,-27.8221"/>
</g>
<!-- Node28&#45;&gt;Node4 -->
<g id="edge47" class="edge">
<title>Node28&#45;&gt;Node4</title>
<path fill="none" stroke="#191970" d="M604.9282,-125.7187C598.7064,-124.7354 592.4954,-123.8114 586.5,-123 418.8261,-100.3065 374.6788,-113.0915 207.5,-87 200.6321,-85.9281 193.4319,-84.5997 186.3605,-83.1749"/>
<polygon fill="#191970" stroke="#191970" points="186.651,-79.6599 176.146,-81.0369 185.2168,-86.5114 186.651,-79.6599"/>
</g>
<!-- Node28&#45;&gt;Node9 -->
<g id="edge55" class="edge">
<title>Node28&#45;&gt;Node9</title>
<path fill="none" stroke="#191970" d="M705.3252,-123.3035C724.0572,-113.6588 748.1958,-100.4894 768.5,-87 786.9429,-74.7472 786.7491,-63.7247 807.5,-56 896.1085,-23.015 1547.0534,-27.1072 1680.3013,-19.9953"/>
<polygon fill="#191970" stroke="#191970" points="1680.8469,-23.4679 1690.6061,-19.3437 1680.4051,-16.4819 1680.8469,-23.4679"/>
</g>
<!-- Node28&#45;&gt;Node17 -->
<g id="edge46" class="edge">
<title>Node28&#45;&gt;Node17</title>
<path fill="none" stroke="#191970" d="M681.1104,-123.1712C690.3786,-103.7746 709.2158,-71.0816 736.5,-56 781.9677,-30.8672 1145.6919,-15.2616 1254.7197,-11.1145"/>
<polygon fill="#191970" stroke="#191970" points="1254.8814,-14.611 1264.7431,-10.7384 1254.6189,-7.6159 1254.8814,-14.611"/>
</g>
<!-- Node28&#45;&gt;Node24 -->
<g id="edge56" class="edge">
<title>Node28&#45;&gt;Node24</title>
<path fill="none" stroke="#191970" d="M692.193,-123.4258C719.5938,-100.1499 769.663,-57.9214 774.5,-56 883.6336,-12.648 1180.0574,-31.1763 1314.282,-19.9709"/>
<polygon fill="#191970" stroke="#191970" points="1314.8004,-23.438 1324.4361,-19.033 1314.1565,-16.4677 1314.8004,-23.438"/>
</g>
<!-- Node29 -->
<g id="node30" class="node">
<title>Node29</title>
<g id="a_node30"><a xlink:href="_coll_mgr_8_h.html" target="_top" xlink:title="amr&#45;wind/core/CollMgr.H">
<polygon fill="#ffffff" stroke="#000000" points="521,-62 521,-81 646,-81 646,-62 521,-62"/>
<text text-anchor="middle" x="583.5" y="-69" font-family="Helvetica,sans-Serif" font-size="10.00" fill="#000000">amr&#45;wind/core/CollMgr.H</text>
</a>
</g>
</g>
<!-- Node28&#45;&gt;Node29 -->
<g id="edge48" class="edge">
<title>Node28&#45;&gt;Node29</title>
<path fill="none" stroke="#191970" d="M653.8507,-123.2967C639.1219,-112.4524 619.3814,-97.9182 604.5604,-87.006"/>
<polygon fill="#191970" stroke="#191970" points="606.6056,-84.1655 596.4776,-81.055 602.4553,-89.8025 606.6056,-84.1655"/>
</g>
<!-- Node31 -->
<g id="node32" class="node">
<title>Node31</title>
<g id="a_node32"><a xlink:href="_p_d_e_fields_8_h.html" target="_top" xlink:title="amr&#45;wind/equation_systems\l/PDEFields.H">
<polygon fill="#ffffff" stroke="#000000" points="217,-56.5 217,-86.5 356,-86.5 356,-56.5 217,-56.5"/>
<text text-anchor="start" x="225" y="-74.5" font-family="Helvetica,sans-Serif" font-size="10.00" fill="#000000">amr&#45;wind/equation_systems</text>
<text text-anchor="middle" x="286.5" y="-63.5" font-family="Helvetica,sans-Serif" font-size="10.00" fill="#000000">/PDEFields.H</text>
</a>
</g>
</g>
<!-- Node28&#45;&gt;Node31 -->
<g id="edge53" class="edge">
<title>Node28&#45;&gt;Node31</title>
<path fill="none" stroke="#191970" d="M604.8627,-126.1491C598.6548,-125.0739 592.465,-124.0111 586.5,-123 491.5448,-106.9042 465.1343,-104.7129 366.3757,-87.124"/>
<polygon fill="#191970" stroke="#191970" points="366.7241,-83.6308 356.2639,-85.3146 365.491,-90.5214 366.7241,-83.6308"/>
</g>
<!-- Node29&#45;&gt;Node3 -->
<g id="edge51" class="edge">
<title>Node29&#45;&gt;Node3</title>
<path fill="none" stroke="#191970" d="M579.2813,-61.8906C575.4204,-53.0965 569.5966,-39.8312 564.8039,-28.9145"/>
<polygon fill="#191970" stroke="#191970" points="568.0029,-27.4943 560.7782,-19.7449 561.5934,-30.3083 568.0029,-27.4943"/>
</g>
<!-- Node29&#45;&gt;Node5 -->
<g id="edge50" class="edge">
<title>Node29&#45;&gt;Node5</title>
<path fill="none" stroke="#191970" d="M592.7188,-61.8906C601.5858,-52.6478 615.1912,-38.466 625.9389,-27.2628"/>
<polygon fill="#191970" stroke="#191970" points="628.7541,-29.3841 633.1513,-19.7449 623.7027,-24.5381 628.7541,-29.3841"/>
</g>
<!-- Node29&#45;&gt;Node17 -->
<g id="edge49" class="edge">
<title>Node29&#45;&gt;Node17</title>
<path fill="none" stroke="#191970" d="M626.1034,-61.9347C637.2502,-59.7042 649.2865,-57.5351 660.5,-56 887.3495,-24.944 1163.5908,-13.8619 1254.7206,-10.9012"/>
<polygon fill="#191970" stroke="#191970" points="1255.0161,-14.3937 1264.9006,-10.5796 1254.795,-7.3972 1255.0161,-14.3937"/>
</g>
<!-- Node30 -->
<g id="node31" class="node">
<title>Node30</title>
<polygon fill="#ffffff" stroke="#bfbfbf" points="402,-.5 402,-19.5 497,-19.5 497,-.5 402,-.5"/>
<text text-anchor="middle" x="449.5" y="-7.5" font-family="Helvetica,sans-Serif" font-size="10.00" fill="#000000">AMReX_Vector.H</text>
</g>
<!-- Node29&#45;&gt;Node30 -->
<g id="edge52" class="edge">
<title>Node29&#45;&gt;Node30</title>
<path fill="none" stroke="#191970" d="M562.5625,-61.8906C540.2402,-51.6457 504.6963,-35.3326 479.4243,-23.7339"/>
<polygon fill="#191970" stroke="#191970" points="480.8389,-20.5322 470.2905,-19.5419 477.919,-26.8942 480.8389,-20.5322"/>
</g>
<!-- Node32 -->
<g id="node33" class="node">
<title>Node32</title>
<polygon fill="#ffffff" stroke="#bfbfbf" points="264,-.5 264,-19.5 309,-19.5 309,-.5 264,-.5"/>
<text text-anchor="middle" x="286.5" y="-7.5" font-family="Helvetica,sans-Serif" font-size="10.00" fill="#000000">iosfwd</text>
</g>
<!-- Node31&#45;&gt;Node32 -->
<g id="edge54" class="edge">
<title>Node31&#45;&gt;Node32</title>
<path fill="none" stroke="#191970" d="M286.5,-56.2977C286.5,-48.3834 286.5,-38.6043 286.5,-30.0759"/>
<polygon fill="#191970" stroke="#191970" points="290.0001,-29.8469 286.5,-19.8469 283.0001,-29.847 290.0001,-29.8469"/>
</g>
<!-- Node33&#45;&gt;Node4 -->
<g id="edge58" class="edge">
<title>Node33&#45;&gt;Node4</title>
<path fill="none" stroke="#191970" d="M807.8976,-129.3777C790.303,-127.0636 771.1838,-124.7426 753.5,-123 511.4786,-99.1511 448.301,-121.0295 207.5,-87 200.2855,-85.9805 192.7129,-84.6321 185.3109,-83.1552"/>
<polygon fill="#191970" stroke="#191970" points="185.8768,-79.698 175.3725,-81.0804 184.4462,-86.5503 185.8768,-79.698"/>
</g>
<!-- Node33&#45;&gt;Node19 -->
<g id="edge60" class="edge">
<title>Node33&#45;&gt;Node19</title>
<path fill="none" stroke="#191970" d="M883.6265,-128.7469C910.7137,-106.9664 973.8254,-56.2504 974.5,-56 1077.6116,-17.7279 1837.8526,-30.4717 1987.2645,-19.8452"/>
<polygon fill="#191970" stroke="#191970" points="1987.6417,-23.326 1997.3142,-19.0023 1987.0566,-16.3504 1987.6417,-23.326"/>
</g>
<!-- Node33&#45;&gt;Node29 -->
<g id="edge59" class="edge">
<title>Node33&#45;&gt;Node29</title>
<path fill="none" stroke="#191970" d="M830.5425,-128.9717C779.0812,-116.9998 690.7496,-96.4504 634.8305,-83.4415"/>
<polygon fill="#191970" stroke="#191970" points="635.3155,-79.9609 624.7825,-81.1039 633.7293,-86.7788 635.3155,-79.9609"/>
</g>
<!-- Node34 -->
<g id="node35" class="node">
<title>Node34</title>
<polygon fill="#ffffff" stroke="#bfbfbf" points="816.5,-62 816.5,-81 926.5,-81 926.5,-62 816.5,-62"/>
<text text-anchor="middle" x="871.5" y="-69" font-family="Helvetica,sans-Serif" font-size="10.00" fill="#000000">AMReX_Geometry.H</text>
</g>
<!-- Node33&#45;&gt;Node34 -->
<g id="edge61" class="edge">
<title>Node33&#45;&gt;Node34</title>
<path fill="none" stroke="#191970" d="M871.5,-128.9005C871.5,-119.149 871.5,-103.7597 871.5,-91.3695"/>
<polygon fill="#191970" stroke="#191970" points="875.0001,-91.0816 871.5,-81.0817 868.0001,-91.0817 875.0001,-91.0816"/>
</g>
<!-- Node35&#45;&gt;Node3 -->
<g id="edge64" class="edge">
<title>Node35&#45;&gt;Node3</title>
<path fill="none" stroke="#191970" d="M453.014,-56.4554C475.2712,-46.464 504.2647,-33.4487 525.8985,-23.7372"/>
<polygon fill="#191970" stroke="#191970" points="527.5803,-26.8187 535.2699,-19.5303 524.7135,-20.4327 527.5803,-26.8187"/>
</g>
<!-- Node35&#45;&gt;Node17 -->
<g id="edge63" class="edge">
<title>Node35&#45;&gt;Node17</title>
<path fill="none" stroke="#191970" d="M464.7534,-62.8806C479.5998,-60.3195 496.2109,-57.7372 511.5,-56 799.2483,-23.3056 1149.9871,-13.0757 1254.6275,-10.6429"/>
<polygon fill="#191970" stroke="#191970" points="1254.8802,-14.1382 1264.7986,-10.4132 1254.7221,-7.14 1254.8802,-14.1382"/>
</g>
<!-- Node35&#45;&gt;Node30 -->
<g id="edge66" class="edge">
<title>Node35&#45;&gt;Node30</title>
<path fill="none" stroke="#191970" d="M426.9157,-56.2977C430.9499,-48.0277 435.9773,-37.7215 440.264,-28.9339"/>
<polygon fill="#191970" stroke="#191970" points="443.458,-30.3691 444.6966,-19.8469 437.1666,-27.3001 443.458,-30.3691"/>
</g>
<!-- Node36 -->
<g id="node37" class="node">
<title>Node36</title>
<polygon fill="#ffffff" stroke="#bfbfbf" points="353.5,-.5 353.5,-19.5 383.5,-19.5 383.5,-.5 353.5,-.5"/>
<text text-anchor="middle" x="368.5" y="-7.5" font-family="Helvetica,sans-Serif" font-size="10.00" fill="#000000">set</text>
</g>
<!-- Node35&#45;&gt;Node36 -->
<g id="edge65" class="edge">
<title>Node35&#45;&gt;Node36</title>
<path fill="none" stroke="#191970" d="M406.8933,-56.2977C399.7402,-47.672 390.7503,-36.8312 383.2682,-27.8087"/>
<polygon fill="#191970" stroke="#191970" points="385.7433,-25.3103 376.6657,-19.8469 380.355,-29.7787 385.7433,-25.3103"/>
</g>
<!-- Node37&#45;&gt;Node19 -->
<g id="edge69" class="edge">
<title>Node37&#45;&gt;Node19</title>
<path fill="none" stroke="#191970" d="M1851.3762,-136.5341C1963.9111,-131.5867 2229.8556,-116.8303 2256.5,-87 2265.6782,-76.7244 2265.1211,-66.7472 2256.5,-56 2251.8046,-50.1466 2169.1025,-33.0861 2109.676,-21.4708"/>
<polygon fill="#191970" stroke="#191970" points="2110.1001,-17.9877 2099.6156,-19.5128 2108.7627,-24.8588 2110.1001,-17.9877"/>
</g>
<!-- Node37&#45;&gt;Node21 -->
<g id="edge68" class="edge">
<title>Node37&#45;&gt;Node21</title>
<path fill="none" stroke="#191970" d="M1761.5533,-123.4639C1730.5189,-111.7824 1687.9119,-95.7449 1658.2721,-84.5884"/>
<polygon fill="#191970" stroke="#191970" points="1659.3448,-81.2525 1648.7529,-81.0053 1656.8788,-87.8037 1659.3448,-81.2525"/>
</g>
</g>
</svg>
        <g id="navigator" transform="translate(0 0)" fill="#404254">
                <rect fill="#f2f5e9" fill-opacity="0.5" stroke="#606060" stroke-width=".5" x="0" y="0" width="60" height="60"/>
                <use id="zoomplus" xlink:href="#zoomPlus" x="17" y="9" onmousedown="handleZoom(evt,'in')"/>
                <use id="zoomminus" xlink:href="#zoomMin" x="42" y="9" onmousedown="handleZoom(evt,'out')"/>
                <use id="reset" xlink:href="#resetDef" x="30" y="36" onmousedown="handleReset()"/>
                <g id="arrowUp" xlink:href="#dirArrow" transform="translate(30 24)" onmousedown="handlePan(0,-1)">
                  <use xlink:href="#rim" fill="#404040">
                        <set attributeName="fill" to="#808080" begin="arrowUp.mouseover" end="arrowUp.mouseout"/>
                  </use>
                  <path fill="none" stroke="white" stroke-width="1.5" d="M0,-3.0v7 M-2.5,-0.5L0,-3.0L2.5,-0.5"/>
                </g>
                <g id="arrowRight" xlink:href="#dirArrow" transform="rotate(90) translate(36 -43)" onmousedown="handlePan(1,0)">
                  <use xlink:href="#rim" fill="#404040">
                        <set attributeName="fill" to="#808080" begin="arrowRight.mouseover" end="arrowRight.mouseout"/>
                  </use>
                  <path fill="none" stroke="white" stroke-width="1.5" d="M0,-3.0v7 M-2.5,-0.5L0,-3.0L2.5,-0.5"/>
                </g>
                <g id="arrowDown" xlink:href="#dirArrow" transform="rotate(180) translate(-30 -48)" onmousedown="handlePan(0,1)">
                  <use xlink:href="#rim" fill="#404040">
                        <set attributeName="fill" to="#808080" begin="arrowDown.mouseover" end="arrowDown.mouseout"/>
                  </use>
                  <path fill="none" stroke="white" stroke-width="1.5" d="M0,-3.0v7 M-2.5,-0.5L0,-3.0L2.5,-0.5"/>
                </g>
                <g id="arrowLeft" xlink:href="#dirArrow" transform="rotate(270) translate(-36 17)" onmousedown="handlePan(-1,0)">
                  <use xlink:href="#rim" fill="#404040">
                        <set attributeName="fill" to="#808080" begin="arrowLeft.mouseover" end="arrowLeft.mouseout"/>
                  </use>
                  <path fill="none" stroke="white" stroke-width="1.5" d="M0,-3.0v7 M-2.5,-0.5L0,-3.0L2.5,-0.5"/>
                </g>
        </g>
        <svg viewBox="0 0 15 15" width="100%" height="30px" preserveAspectRatio="xMaxYMin meet">
         <g id="arrow_out" transform="scale(0.3 0.3)">
          <a xlink:href="_turb_model_base_8_h__incl_org.svg" target="_base">
           <rect id="button" ry="5" rx="5" y="6" x="6" height="38" width="38"
                fill="#f2f5e9" fill-opacity="0.5" stroke="#606060" stroke-width="1.0"/>
           <path id="arrow"
             d="M 11.500037,31.436501 C 11.940474,20.09759 22.043105,11.32322 32.158766,21.979434 L 37.068811,17.246167 C 37.068811,17.246167 37.088388,32 37.088388,32 L 22.160133,31.978069 C 22.160133,31.978069 26.997745,27.140456 26.997745,27.140456 C 18.528582,18.264221 13.291696,25.230495 11.500037,31.436501 z"
             style="fill:#404040;"/>
          </a>
         </g>
        </svg>
</svg>
