<?xml version="1.0" encoding="UTF-8" standalone="no"?>
<!DOCTYPE svg PUBLIC "-//W3C//DTD SVG 1.1//EN"
 "http://www.w3.org/Graphics/SVG/1.1/DTD/svg11.dtd">
<!-- Generated by graphviz version 2.40.1 (20161225.0304)
 -->
<!-- Title: bc_ops.H Pages: 1 -->
<svg width="478pt" height="84pt"
 viewBox="0.00 0.00 477.50 84.00" xmlns="http://www.w3.org/2000/svg" xmlns:xlink="http://www.w3.org/1999/xlink">
<g id="graph0" class="graph" transform="scale(1 1) rotate(0) translate(4 80)">
<title>bc_ops.H</title>
<polygon fill="#ffffff" stroke="transparent" points="-4,4 -4,-80 473.5,-80 473.5,4 -4,4"/>
<!-- Node2 -->
<g id="node1" class="node">
<title>Node2</title>
<polygon fill="#bfbfbf" stroke="#000000" points="231.5,-56.5 231.5,-75.5 290.5,-75.5 290.5,-56.5 231.5,-56.5"/>
<text text-anchor="middle" x="261" y="-63.5" font-family="Helvetica,sans-Serif" font-size="10.00" fill="#000000">bc_ops.H</text>
</g>
<!-- Node3 -->
<g id="node2" class="node">
<title>Node3</title>
<g id="a_node2"><a xlink:href="incflo__godunov__plm_8cpp.html" target="_top" xlink:title="incflo_godunov_plm.cpp">
<polygon fill="#ffffff" stroke="#000000" points="0,-.5 0,-19.5 122,-19.5 122,-.5 0,-.5"/>
<text text-anchor="middle" x="61" y="-7.5" font-family="Helvetica,sans-Serif" font-size="10.00" fill="#000000">incflo_godunov_plm.cpp</text>
</a>
</g>
</g>
<!-- Node2&#45;&gt;Node3 -->
<g id="edge1" class="edge">
<title>Node2&#45;&gt;Node3</title>
<path fill="none" stroke="#191970" d="M221.574,-54.9607C184.6474,-44.6213 130.039,-29.3309 94.9874,-19.5165"/>
<polygon fill="#191970" stroke="#191970" points="220.9159,-58.411 231.4893,-57.737 222.8034,-51.6703 220.9159,-58.411"/>
</g>
<!-- Node4 -->
<g id="node3" class="node">
<title>Node4</title>
<g id="a_node3"><a xlink:href="incflo__mol__fluxes_8cpp.html" target="_top" xlink:title="incflo_mol_fluxes.cpp">
<polygon fill="#ffffff" stroke="#000000" points="140.5,-.5 140.5,-19.5 251.5,-19.5 251.5,-.5 140.5,-.5"/>
<text text-anchor="middle" x="196" y="-7.5" font-family="Helvetica,sans-Serif" font-size="10.00" fill="#000000">incflo_mol_fluxes.cpp</text>
</a>
</g>
</g>
<!-- Node2&#45;&gt;Node4 -->
<g id="edge2" class="edge">
<title>Node2&#45;&gt;Node4</title>
<path fill="none" stroke="#191970" d="M242.0165,-49.645C230.7121,-39.9058 216.753,-27.8795 207.1924,-19.6427"/>
<polygon fill="#191970" stroke="#191970" points="239.8173,-52.3701 249.6779,-56.2455 244.3862,-47.0668 239.8173,-52.3701"/>
</g>
<!-- Node5 -->
<g id="node4" class="node">
<title>Node5</title>
<g id="a_node4"><a xlink:href="incflo__mol__predict_8cpp.html" target="_top" xlink:title="incflo_mol_predict.cpp">
<polygon fill="#ffffff" stroke="#000000" points="270,-.5 270,-19.5 384,-19.5 384,-.5 270,-.5"/>
<text text-anchor="middle" x="327" y="-7.5" font-family="Helvetica,sans-Serif" font-size="10.00" fill="#000000">incflo_mol_predict.cpp</text>
</a>
</g>
</g>
<!-- Node2&#45;&gt;Node5 -->
<g id="edge3" class="edge">
<title>Node2&#45;&gt;Node5</title>
<path fill="none" stroke="#191970" d="M280.2755,-49.645C291.7538,-39.9058 305.9277,-27.8795 315.6354,-19.6427"/>
<polygon fill="#191970" stroke="#191970" points="277.857,-47.1069 272.4963,-56.2455 282.3859,-52.4445 277.857,-47.1069"/>
</g>
<!-- Node6 -->
<g id="node5" class="node">
<title>Node6</title>
<g id="a_node5"><a xlink:href="bc__ops_8cpp.html" target="_top" xlink:title="bc_ops.cpp">
<polygon fill="#ffffff" stroke="#000000" points="402.5,-.5 402.5,-19.5 469.5,-19.5 469.5,-.5 402.5,-.5"/>
<text text-anchor="middle" x="436" y="-7.5" font-family="Helvetica,sans-Serif" font-size="10.00" fill="#000000">bc_ops.cpp</text>
</a>
</g>
</g>
<!-- Node2&#45;&gt;Node6 -->
<g id="edge4" class="edge">
<title>Node2&#45;&gt;Node6</title>
<path fill="none" stroke="#191970" d="M300.6193,-53.3218C332.6606,-43.0686 377.079,-28.8547 406.168,-19.5462"/>
<polygon fill="#191970" stroke="#191970" points="299.1439,-50.1191 290.6864,-56.5004 301.2773,-56.786 299.1439,-50.1191"/>
</g>
</g>
</svg>
