<?xml version="1.0" encoding="UTF-8" standalone="no"?>
<!DOCTYPE svg PUBLIC "-//W3C//DTD SVG 1.1//EN"
 "http://www.w3.org/Graphics/SVG/1.1/DTD/svg11.dtd">
<!-- Generated by graphviz version 2.40.1 (20161225.0304)
 -->
<!-- Title: amr_wind::FieldBCIface Pages: 1 -->
<svg width="473pt" height="84pt"
 viewBox="0.00 0.00 472.50 84.00" xmlns="http://www.w3.org/2000/svg" xmlns:xlink="http://www.w3.org/1999/xlink">
<g id="graph0" class="graph" transform="scale(1 1) rotate(0) translate(4 80)">
<title>amr_wind::FieldBCIface</title>
<polygon fill="#ffffff" stroke="transparent" points="-4,4 -4,-80 468.5,-80 468.5,4 -4,4"/>
<!-- Node0 -->
<g id="node1" class="node">
<title>Node0</title>
<polygon fill="#bfbfbf" stroke="#000000" points="175.5,-56.5 175.5,-75.5 297.5,-75.5 297.5,-56.5 175.5,-56.5"/>
<text text-anchor="middle" x="236.5" y="-63.5" font-family="Helvetica,sans-Serif" font-size="10.00" fill="#000000">amr_wind::FieldBCIface</text>
</g>
<!-- Node1 -->
<g id="node2" class="node">
<title>Node1</title>
<g id="a_node2"><a xlink:href="classamr__wind_1_1_a_b_l_temp_wall_func.html" target="_top" xlink:title="amr_wind::ABLTempWallFunc">
<polygon fill="#ffffff" stroke="#000000" points="0,-.5 0,-19.5 149,-19.5 149,-.5 0,-.5"/>
<text text-anchor="middle" x="74.5" y="-7.5" font-family="Helvetica,sans-Serif" font-size="10.00" fill="#000000">amr_wind::ABLTempWallFunc</text>
</a>
</g>
</g>
<!-- Node0&#45;&gt;Node1 -->
<g id="edge1" class="edge">
<title>Node0&#45;&gt;Node1</title>
<path fill="none" stroke="#191970" d="M199.0578,-53.057C169.4099,-42.8084 128.6804,-28.729 101.9854,-19.5011"/>
<polygon fill="#191970" stroke="#191970" points="198.0564,-56.414 208.6512,-56.3733 200.3435,-49.7982 198.0564,-56.414"/>
</g>
<!-- Node2 -->
<g id="node3" class="node">
<title>Node2</title>
<g id="a_node3"><a xlink:href="classamr__wind_1_1_a_b_l_vel_wall_func.html" target="_top" xlink:title="Applies a shear&#45;stress value at the domain boundary. ">
<polygon fill="#ffffff" stroke="#000000" points="167,-.5 167,-19.5 306,-19.5 306,-.5 167,-.5"/>
<text text-anchor="middle" x="236.5" y="-7.5" font-family="Helvetica,sans-Serif" font-size="10.00" fill="#000000">amr_wind::ABLVelWallFunc</text>
</a>
</g>
</g>
<!-- Node0&#45;&gt;Node2 -->
<g id="edge2" class="edge">
<title>Node0&#45;&gt;Node2</title>
<path fill="none" stroke="#191970" d="M236.5,-46.1575C236.5,-37.155 236.5,-26.9199 236.5,-19.6427"/>
<polygon fill="#191970" stroke="#191970" points="233.0001,-46.2455 236.5,-56.2455 240.0001,-46.2456 233.0001,-46.2455"/>
</g>
<!-- Node3 -->
<g id="node4" class="node">
<title>Node3</title>
<g id="a_node4"><a xlink:href="classamr__wind_1_1_fixed_gradient_b_c.html" target="_top" xlink:title="Applies a non&#45;zero gradient at the domain boundaryUsed with the inhomogeneous Neumann linear solver B...">
<polygon fill="#ffffff" stroke="#000000" points="324.5,-.5 324.5,-19.5 464.5,-19.5 464.5,-.5 324.5,-.5"/>
<text text-anchor="middle" x="394.5" y="-7.5" font-family="Helvetica,sans-Serif" font-size="10.00" fill="#000000">amr_wind::FixedGradientBC</text>
</a>
</g>
</g>
<!-- Node0&#45;&gt;Node3 -->
<g id="edge3" class="edge">
<title>Node0&#45;&gt;Node3</title>
<path fill="none" stroke="#191970" d="M273.3955,-52.9231C302.2787,-42.686 341.7706,-28.6889 367.6933,-19.5011"/>
<polygon fill="#191970" stroke="#191970" points="271.9174,-49.7336 263.6612,-56.3733 274.2559,-56.3314 271.9174,-49.7336"/>
</g>
</g>
</svg>
