<?xml version="1.0" encoding="UTF-8" standalone="no"?>
<!DOCTYPE svg PUBLIC "-//W3C//DTD SVG 1.1//EN"
 "http://www.w3.org/Graphics/SVG/1.1/DTD/svg11.dtd">
<!-- Generated by graphviz version 2.40.1 (20161225.0304)
 -->
<!-- Title: incflo::Evolve Pages: 1 -->
<!--zoomable 694 -->
<svg id="main" version="1.1" xmlns="http://www.w3.org/2000/svg" xmlns:xlink="http://www.w3.org/1999/xlink" xml:space="preserve" onload="init(evt)">
<style type="text/css"><![CDATA[
.edge:hover path { stroke: red; }
.edge:hover polygon { stroke: red; fill: red; }
]]></style>
<script type="text/javascript"><![CDATA[
var edges = document.getElementsByTagName('g');
if (edges && edges.length) {
  for (var i=0;i<edges.length;i++) {
    if (edges[i].id.substr(0,4)=='edge') {
      edges[i].setAttribute('class','edge');
    }
  }
}
]]></script>
        <defs>
                <circle id="rim" cx="0" cy="0" r="7"/>
                <circle id="rim2" cx="0" cy="0" r="3.5"/>
                <g id="zoomPlus">
                        <use xlink:href="#rim" fill="#404040">
                                <set attributeName="fill" to="#808080" begin="zoomplus.mouseover" end="zoomplus.mouseout"/>
                        </use>
                        <path d="M-4,0h8M0,-4v8" fill="none" stroke="white" stroke-width="1.5" pointer-events="none"/>
                </g>
                <g id="zoomMin">
                        <use xlink:href="#rim" fill="#404040">
                                <set attributeName="fill" to="#808080" begin="zoomminus.mouseover" end="zoomminus.mouseout"/>
                        </use>
                        <path d="M-4,0h8" fill="none" stroke="white" stroke-width="1.5" pointer-events="none"/>
                </g>
                <g id="dirArrow">
                        <path fill="none" stroke="white" stroke-width="1.5" d="M0,-3.0v7 M-2.5,-0.5L0,-3.0L2.5,-0.5"/>
                </g>
               <g id="resetDef">
                       <use xlink:href="#rim2" fill="#404040">
                               <set attributeName="fill" to="#808080" begin="reset.mouseover" end="reset.mouseout"/>
                       </use>
               </g>
        </defs>

<script type="text/javascript">
var viewWidth = 266;
var viewHeight = 694;
var sectionId = 'dynsection-2';
</script>
<script xlink:href="svgpan.js"/>
<svg id="graph" class="graph">
<g id="viewport">
<title>incflo::Evolve</title>
<polygon fill="#ffffff" stroke="transparent" points="-4,4 -4,-690 262,-690 262,4 -4,4"/>
<!-- Node1 -->
<g id="node1" class="node">
<title>Node1</title>
<polygon fill="#bfbfbf" stroke="#000000" points="0,-328 0,-347 76,-347 76,-328 0,-328"/>
<text text-anchor="middle" x="38" y="-335" font-family="Helvetica,sans-Serif" font-size="10.00" fill="#000000">incflo::Evolve</text>
</g>
<!-- Node2 -->
<g id="node2" class="node">
<title>Node2</title>
<g id="a_node2"><a xlink:href="classamr__wind_1_1_c_f_d_sim.html#a53f6989a504570158dff0a103e968b99" target="_top" xlink:title="amr_wind::CFDSim::io\l_manager">
<polygon fill="#ffffff" stroke="#000000" points="127,-655.5 127,-685.5 243,-685.5 243,-655.5 127,-655.5"/>
<text text-anchor="start" x="135" y="-673.5" font-family="Helvetica,sans-Serif" font-size="10.00" fill="#000000">amr_wind::CFDSim::io</text>
<text text-anchor="middle" x="185" y="-662.5" font-family="Helvetica,sans-Serif" font-size="10.00" fill="#000000">_manager</text>
</a>
</g>
</g>
<!-- Node1&#45;&gt;Node2 -->
<g id="edge1" class="edge">
<title>Node1&#45;&gt;Node2</title>
<path fill="none" stroke="#191970" d="M39.0358,-347.033C44.3202,-394.0193 69.6869,-600.54 112,-646.5 113.9908,-648.6623 116.1795,-650.6302 118.5175,-652.4212"/>
<polygon fill="#191970" stroke="#191970" points="116.6655,-655.3914 126.9703,-657.8538 120.4502,-649.5027 116.6655,-655.3914"/>
</g>
<!-- Node3 -->
<g id="node3" class="node">
<title>Node3</title>
<g id="a_node3"><a xlink:href="classamr__wind_1_1_i_o_manager.html#aae4a733a61f497223cb7b25a1c54beec" target="_top" xlink:title="Name of the checkpoint file to be read during a restart. ">
<polygon fill="#ffffff" stroke="#000000" points="128.5,-606.5 128.5,-636.5 241.5,-636.5 241.5,-606.5 128.5,-606.5"/>
<text text-anchor="start" x="136.5" y="-624.5" font-family="Helvetica,sans-Serif" font-size="10.00" fill="#000000">amr_wind::IOManager</text>
<text text-anchor="middle" x="185" y="-613.5" font-family="Helvetica,sans-Serif" font-size="10.00" fill="#000000">::restart_file</text>
</a>
</g>
</g>
<!-- Node1&#45;&gt;Node3 -->
<g id="edge2" class="edge">
<title>Node1&#45;&gt;Node3</title>
<path fill="none" stroke="#191970" d="M39.5186,-347.1784C46.3722,-389.721 75.6708,-559.6744 112,-597.5 114.3103,-599.9055 116.8656,-602.07 119.5959,-604.0177"/>
<polygon fill="#191970" stroke="#191970" points="117.8719,-607.0652 128.2423,-609.2345 121.4882,-601.0716 117.8719,-607.0652"/>
</g>
<!-- Node4 -->
<g id="node4" class="node">
<title>Node4</title>
<g id="a_node4"><a xlink:href="classamr__wind_1_1_sim_time.html#a41dbe1da02ae4d42df486c64f9014eaf" target="_top" xlink:title="amr_wind::SimTime::\lnew_time">
<polygon fill="#ffffff" stroke="#000000" points="130,-557.5 130,-587.5 240,-587.5 240,-557.5 130,-557.5"/>
<text text-anchor="start" x="138" y="-575.5" font-family="Helvetica,sans-Serif" font-size="10.00" fill="#000000">amr_wind::SimTime::</text>
<text text-anchor="middle" x="185" y="-564.5" font-family="Helvetica,sans-Serif" font-size="10.00" fill="#000000">new_time</text>
</a>
</g>
</g>
<!-- Node1&#45;&gt;Node4 -->
<g id="edge3" class="edge">
<title>Node1&#45;&gt;Node4</title>
<path fill="none" stroke="#191970" d="M38.5442,-347.432C40.898,-380.6386 52.9732,-488.9931 112,-547.5 114.7294,-550.2054 117.7638,-552.6184 121.0006,-554.7705"/>
<polygon fill="#191970" stroke="#191970" points="119.549,-557.9717 129.9706,-559.8799 123.0137,-551.8892 119.549,-557.9717"/>
</g>
<!-- Node5 -->
<g id="node5" class="node">
<title>Node5</title>
<g id="a_node5"><a xlink:href="classincflo.html#aec8ae0c6fe958f54f2bcc99b6cc7e352" target="_top" xlink:title="incflo::ComputeKineticEnergy">
<polygon fill="#ffffff" stroke="#000000" points="112,-519 112,-538 258,-538 258,-519 112,-519"/>
<text text-anchor="middle" x="185" y="-526" font-family="Helvetica,sans-Serif" font-size="10.00" fill="#000000">incflo::ComputeKineticEnergy</text>
</a>
</g>
</g>
<!-- Node1&#45;&gt;Node5 -->
<g id="edge4" class="edge">
<title>Node1&#45;&gt;Node5</title>
<path fill="none" stroke="#191970" d="M39.1732,-347.0175C43.2793,-376.11 59.7172,-464.6011 112,-509.5 113.956,-511.1797 116.0428,-512.7135 118.2289,-514.1138"/>
<polygon fill="#191970" stroke="#191970" points="116.6209,-517.223 127.0854,-518.8796 119.938,-511.0588 116.6209,-517.223"/>
</g>
<!-- Node6 -->
<g id="node6" class="node">
<title>Node6</title>
<g id="a_node6"><a xlink:href="classamr__wind_1_1_sim_time.html#a6876c4852c53ab6f86bba1cb09386339" target="_top" xlink:title="Advance to a new time state and update internal time states. ">
<polygon fill="#ffffff" stroke="#000000" points="130,-469.5 130,-499.5 240,-499.5 240,-469.5 130,-469.5"/>
<text text-anchor="start" x="138" y="-487.5" font-family="Helvetica,sans-Serif" font-size="10.00" fill="#000000">amr_wind::SimTime::</text>
<text text-anchor="middle" x="185" y="-476.5" font-family="Helvetica,sans-Serif" font-size="10.00" fill="#000000">new_timestep</text>
</a>
</g>
</g>
<!-- Node1&#45;&gt;Node6 -->
<g id="edge5" class="edge">
<title>Node1&#45;&gt;Node6</title>
<path fill="none" stroke="#191970" d="M41.117,-347.0762C49.0944,-370.0939 72.4542,-428.9497 112,-460.5 114.7424,-462.6879 117.6917,-464.6796 120.7764,-466.4923"/>
<polygon fill="#191970" stroke="#191970" points="119.2785,-469.6579 129.769,-471.141 122.4931,-463.4396 119.2785,-469.6579"/>
</g>
<!-- Node7 -->
<g id="node7" class="node">
<title>Node7</title>
<g id="a_node7"><a xlink:href="classincflo.html#ae09184db23dbf56c886e48000c7685d7" target="_top" xlink:title="Perform regrid actions at a given timestep. ">
<polygon fill="#ffffff" stroke="#000000" points="139.5,-420.5 139.5,-450.5 230.5,-450.5 230.5,-420.5 139.5,-420.5"/>
<text text-anchor="start" x="147.5" y="-438.5" font-family="Helvetica,sans-Serif" font-size="10.00" fill="#000000">incflo::regrid_and</text>
<text text-anchor="middle" x="185" y="-427.5" font-family="Helvetica,sans-Serif" font-size="10.00" fill="#000000">_update</text>
</a>
</g>
</g>
<!-- Node1&#45;&gt;Node7 -->
<g id="edge6" class="edge">
<title>Node1&#45;&gt;Node7</title>
<path fill="none" stroke="#191970" d="M45.1165,-347.1009C57.1951,-362.7522 83.2168,-393.7927 112,-411.5 117.4435,-414.8488 123.4061,-417.7848 129.5029,-420.3451"/>
<polygon fill="#191970" stroke="#191970" points="128.5491,-423.7285 139.1386,-424.0645 131.0699,-417.1982 128.5491,-423.7285"/>
</g>
<!-- Node8 -->
<g id="node8" class="node">
<title>Node8</title>
<g id="a_node8"><a xlink:href="classincflo.html#a171fd353adf62e83b0e65a20fd27e567" target="_top" xlink:title="incflo::pre_advance\l_stage1">
<polygon fill="#ffffff" stroke="#000000" points="134.5,-371.5 134.5,-401.5 235.5,-401.5 235.5,-371.5 134.5,-371.5"/>
<text text-anchor="start" x="142.5" y="-389.5" font-family="Helvetica,sans-Serif" font-size="10.00" fill="#000000">incflo::pre_advance</text>
<text text-anchor="middle" x="185" y="-378.5" font-family="Helvetica,sans-Serif" font-size="10.00" fill="#000000">_stage1</text>
</a>
</g>
</g>
<!-- Node1&#45;&gt;Node8 -->
<g id="edge7" class="edge">
<title>Node1&#45;&gt;Node8</title>
<path fill="none" stroke="#191970" d="M66.0933,-347.0511C79.9112,-351.7335 96.8195,-357.4404 112,-362.5 117.5946,-364.3646 123.4336,-366.3009 129.2658,-368.2285"/>
<polygon fill="#191970" stroke="#191970" points="128.4372,-371.6406 139.0303,-371.45 130.6304,-364.993 128.4372,-371.6406"/>
</g>
<!-- Node9 -->
<g id="node9" class="node">
<title>Node9</title>
<g id="a_node9"><a xlink:href="classincflo.html#ae9108a8fa888740a724bd6c2384f5bae" target="_top" xlink:title="incflo::pre_advance\l_stage2">
<polygon fill="#ffffff" stroke="#000000" points="134.5,-322.5 134.5,-352.5 235.5,-352.5 235.5,-322.5 134.5,-322.5"/>
<text text-anchor="start" x="142.5" y="-340.5" font-family="Helvetica,sans-Serif" font-size="10.00" fill="#000000">incflo::pre_advance</text>
<text text-anchor="middle" x="185" y="-329.5" font-family="Helvetica,sans-Serif" font-size="10.00" fill="#000000">_stage2</text>
</a>
</g>
</g>
<!-- Node1&#45;&gt;Node9 -->
<g id="edge8" class="edge">
<title>Node1&#45;&gt;Node9</title>
<path fill="none" stroke="#191970" d="M76.2388,-337.5C90.9624,-337.5 108.1601,-337.5 124.4766,-337.5"/>
<polygon fill="#191970" stroke="#191970" points="124.4921,-341.0001 134.4921,-337.5 124.4921,-334.0001 124.4921,-341.0001"/>
</g>
<!-- Node10 -->
<g id="node10" class="node">
<title>Node10</title>
<g id="a_node10"><a xlink:href="classincflo.html#a22114d65c7a744e185cb768669061fec" target="_top" xlink:title="Advance simulation state by one timestep. ">
<polygon fill="#ffffff" stroke="#000000" points="143.5,-284 143.5,-303 226.5,-303 226.5,-284 143.5,-284"/>
<text text-anchor="middle" x="185" y="-291" font-family="Helvetica,sans-Serif" font-size="10.00" fill="#000000">incflo::advance</text>
</a>
</g>
</g>
<!-- Node1&#45;&gt;Node10 -->
<g id="edge9" class="edge">
<title>Node1&#45;&gt;Node10</title>
<path fill="none" stroke="#191970" d="M66.3674,-327.9603C80.1021,-323.4285 96.8601,-318.0264 112,-313.5 120.6901,-310.9019 130.0009,-308.2509 138.966,-305.7644"/>
<polygon fill="#191970" stroke="#191970" points="140.1738,-309.0623 148.8895,-303.0385 138.3196,-302.3123 140.1738,-309.0623"/>
</g>
<!-- Node11 -->
<g id="node11" class="node">
<title>Node11</title>
<g id="a_node11"><a xlink:href="classincflo.html#a339cc34ea0a08de4eaff982226dab8bf" target="_top" xlink:title="Perform actions after a timestep. ">
<polygon fill="#ffffff" stroke="#000000" points="118.5,-246 118.5,-265 251.5,-265 251.5,-246 118.5,-246"/>
<text text-anchor="middle" x="185" y="-253" font-family="Helvetica,sans-Serif" font-size="10.00" fill="#000000">incflo::post_advance_work</text>
</a>
</g>
</g>
<!-- Node1&#45;&gt;Node11 -->
<g id="edge10" class="edge">
<title>Node1&#45;&gt;Node11</title>
<path fill="none" stroke="#191970" d="M46.5707,-327.8471C59.4204,-313.9725 85.0609,-288.5231 112,-274.5 116.5303,-272.1417 121.3746,-270.061 126.3319,-268.2281"/>
<polygon fill="#191970" stroke="#191970" points="127.5844,-271.4997 135.9518,-265.0007 125.3578,-264.8632 127.5844,-271.4997"/>
</g>
<!-- Node12 -->
<g id="node12" class="node">
<title>Node12</title>
<g id="a_node12"><a xlink:href="classamr__wind_1_1_sim_time.html#a2e5adf26426dc2125954797919edd02b" target="_top" xlink:title="amr_wind::SimTime::\ltime_index">
<polygon fill="#ffffff" stroke="#000000" points="130,-196.5 130,-226.5 240,-226.5 240,-196.5 130,-196.5"/>
<text text-anchor="start" x="138" y="-214.5" font-family="Helvetica,sans-Serif" font-size="10.00" fill="#000000">amr_wind::SimTime::</text>
<text text-anchor="middle" x="185" y="-203.5" font-family="Helvetica,sans-Serif" font-size="10.00" fill="#000000">time_index</text>
</a>
</g>
</g>
<!-- Node1&#45;&gt;Node12 -->
<g id="edge11" class="edge">
<title>Node1&#45;&gt;Node12</title>
<path fill="none" stroke="#191970" d="M42.4832,-327.922C52.2786,-308.006 77.5046,-261.8744 112,-236.5 114.7821,-234.4535 117.7442,-232.5657 120.8219,-230.8253"/>
<polygon fill="#191970" stroke="#191970" points="122.4101,-233.9443 129.7477,-226.3016 119.2456,-227.7004 122.4101,-233.9443"/>
</g>
<!-- Node13 -->
<g id="node13" class="node">
<title>Node13</title>
<g id="a_node13"><a xlink:href="classamr__wind_1_1_sim_time.html#af9a046349140b654143237bb569cff00" target="_top" xlink:title="Return true if plot files should be written at this timestep. ">
<polygon fill="#ffffff" stroke="#000000" points="130,-147.5 130,-177.5 240,-177.5 240,-147.5 130,-147.5"/>
<text text-anchor="start" x="138" y="-165.5" font-family="Helvetica,sans-Serif" font-size="10.00" fill="#000000">amr_wind::SimTime::</text>
<text text-anchor="middle" x="185" y="-154.5" font-family="Helvetica,sans-Serif" font-size="10.00" fill="#000000">write_last_plot_file</text>
</a>
</g>
</g>
<!-- Node1&#45;&gt;Node13 -->
<g id="edge12" class="edge">
<title>Node1&#45;&gt;Node13</title>
<path fill="none" stroke="#191970" d="M40.045,-327.8635C46.1384,-301.4792 66.64,-227.382 112,-187.5 114.7792,-185.0564 117.8087,-182.8491 121.002,-180.8555"/>
<polygon fill="#191970" stroke="#191970" points="122.6798,-183.9272 129.7784,-176.062 119.3244,-177.7838 122.6798,-183.9272"/>
</g>
<!-- Node14 -->
<g id="node14" class="node">
<title>Node14</title>
<g id="a_node14"><a xlink:href="classamr__wind_1_1_i_o_manager.html#a2751c61d7bc0b302032db0ebef39e57f" target="_top" xlink:title="Write all user&#45;requested fields to disk. ">
<polygon fill="#ffffff" stroke="#000000" points="128.5,-98.5 128.5,-128.5 241.5,-128.5 241.5,-98.5 128.5,-98.5"/>
<text text-anchor="start" x="136.5" y="-116.5" font-family="Helvetica,sans-Serif" font-size="10.00" fill="#000000">amr_wind::IOManager</text>
<text text-anchor="middle" x="185" y="-105.5" font-family="Helvetica,sans-Serif" font-size="10.00" fill="#000000">::write_plot_file</text>
</a>
</g>
</g>
<!-- Node1&#45;&gt;Node14 -->
<g id="edge13" class="edge">
<title>Node1&#45;&gt;Node14</title>
<path fill="none" stroke="#191970" d="M38.7596,-327.6333C41.7507,-295.6212 55.501,-193.5451 112,-138.5 114.2774,-136.2812 116.7599,-134.259 119.3901,-132.4159"/>
<polygon fill="#191970" stroke="#191970" points="121.4468,-135.2637 128.2217,-127.1181 117.8458,-129.2609 121.4468,-135.2637"/>
</g>
<!-- Node15 -->
<g id="node15" class="node">
<title>Node15</title>
<g id="a_node15"><a xlink:href="classamr__wind_1_1_sim_time.html#ac072a0b6439bf83a0a899dd01b486086" target="_top" xlink:title="Return true if checkpoint files should be written at this timestep. ">
<polygon fill="#ffffff" stroke="#000000" points="129.5,-49.5 129.5,-79.5 240.5,-79.5 240.5,-49.5 129.5,-49.5"/>
<text text-anchor="start" x="137.5" y="-67.5" font-family="Helvetica,sans-Serif" font-size="10.00" fill="#000000">amr_wind::SimTime::</text>
<text text-anchor="middle" x="185" y="-56.5" font-family="Helvetica,sans-Serif" font-size="10.00" fill="#000000">write_last_checkpoint</text>
</a>
</g>
</g>
<!-- Node1&#45;&gt;Node15 -->
<g id="edge14" class="edge">
<title>Node1&#45;&gt;Node15</title>
<path fill="none" stroke="#191970" d="M39.6908,-327.7228C47.0361,-286.2742 77.3678,-125.5449 112,-89.5 114.6133,-86.7801 117.5348,-84.3561 120.6651,-82.1958"/>
<polygon fill="#191970" stroke="#191970" points="122.5285,-85.1603 129.3706,-77.0711 118.9773,-79.1279 122.5285,-85.1603"/>
</g>
<!-- Node16 -->
<g id="node16" class="node">
<title>Node16</title>
<g id="a_node16"><a xlink:href="classamr__wind_1_1_i_o_manager.html#adb51b0f19d9708d0d2c58d37607d8d83" target="_top" xlink:title="Write all necessary fields for restart. ">
<polygon fill="#ffffff" stroke="#000000" points="128,-.5 128,-30.5 242,-30.5 242,-.5 128,-.5"/>
<text text-anchor="start" x="136" y="-18.5" font-family="Helvetica,sans-Serif" font-size="10.00" fill="#000000">amr_wind::IOManager</text>
<text text-anchor="middle" x="185" y="-7.5" font-family="Helvetica,sans-Serif" font-size="10.00" fill="#000000">::write_checkpoint_file</text>
</a>
</g>
</g>
<!-- Node1&#45;&gt;Node16 -->
<g id="edge15" class="edge">
<title>Node1&#45;&gt;Node16</title>
<path fill="none" stroke="#191970" d="M39.1758,-327.737C44.9295,-281.4646 71.4894,-84.6428 112,-40.5 114.0805,-38.233 116.3752,-36.1716 118.8291,-34.297"/>
<polygon fill="#191970" stroke="#191970" points="121.1689,-36.9551 127.7052,-28.6167 117.3957,-31.0591 121.1689,-36.9551"/>
</g>
</g>
</svg>
        <g id="navigator" transform="translate(0 0)" fill="#404254">
                <rect fill="#f2f5e9" fill-opacity="0.5" stroke="#606060" stroke-width=".5" x="0" y="0" width="60" height="60"/>
                <use id="zoomplus" xlink:href="#zoomPlus" x="17" y="9" onmousedown="handleZoom(evt,'in')"/>
                <use id="zoomminus" xlink:href="#zoomMin" x="42" y="9" onmousedown="handleZoom(evt,'out')"/>
                <use id="reset" xlink:href="#resetDef" x="30" y="36" onmousedown="handleReset()"/>
                <g id="arrowUp" xlink:href="#dirArrow" transform="translate(30 24)" onmousedown="handlePan(0,-1)">
                  <use xlink:href="#rim" fill="#404040">
                        <set attributeName="fill" to="#808080" begin="arrowUp.mouseover" end="arrowUp.mouseout"/>
                  </use>
                  <path fill="none" stroke="white" stroke-width="1.5" d="M0,-3.0v7 M-2.5,-0.5L0,-3.0L2.5,-0.5"/>
                </g>
                <g id="arrowRight" xlink:href="#dirArrow" transform="rotate(90) translate(36 -43)" onmousedown="handlePan(1,0)">
                  <use xlink:href="#rim" fill="#404040">
                        <set attributeName="fill" to="#808080" begin="arrowRight.mouseover" end="arrowRight.mouseout"/>
                  </use>
                  <path fill="none" stroke="white" stroke-width="1.5" d="M0,-3.0v7 M-2.5,-0.5L0,-3.0L2.5,-0.5"/>
                </g>
                <g id="arrowDown" xlink:href="#dirArrow" transform="rotate(180) translate(-30 -48)" onmousedown="handlePan(0,1)">
                  <use xlink:href="#rim" fill="#404040">
                        <set attributeName="fill" to="#808080" begin="arrowDown.mouseover" end="arrowDown.mouseout"/>
                  </use>
                  <path fill="none" stroke="white" stroke-width="1.5" d="M0,-3.0v7 M-2.5,-0.5L0,-3.0L2.5,-0.5"/>
                </g>
                <g id="arrowLeft" xlink:href="#dirArrow" transform="rotate(270) translate(-36 17)" onmousedown="handlePan(-1,0)">
                  <use xlink:href="#rim" fill="#404040">
                        <set attributeName="fill" to="#808080" begin="arrowLeft.mouseover" end="arrowLeft.mouseout"/>
                  </use>
                  <path fill="none" stroke="white" stroke-width="1.5" d="M0,-3.0v7 M-2.5,-0.5L0,-3.0L2.5,-0.5"/>
                </g>
        </g>
        <svg viewBox="0 0 15 15" width="100%" height="30px" preserveAspectRatio="xMaxYMin meet">
         <g id="arrow_out" transform="scale(0.3 0.3)">
          <a xlink:href="classincflo_a0141eeb4fa408c909bca038ec9de0ef5_cgraph_org.svg" target="_base">
           <rect id="button" ry="5" rx="5" y="6" x="6" height="38" width="38"
                fill="#f2f5e9" fill-opacity="0.5" stroke="#606060" stroke-width="1.0"/>
           <path id="arrow"
             d="M 11.500037,31.436501 C 11.940474,20.09759 22.043105,11.32322 32.158766,21.979434 L 37.068811,17.246167 C 37.068811,17.246167 37.088388,32 37.088388,32 L 22.160133,31.978069 C 22.160133,31.978069 26.997745,27.140456 26.997745,27.140456 C 18.528582,18.264221 13.291696,25.230495 11.500037,31.436501 z"
             style="fill:#404040;"/>
          </a>
         </g>
        </svg>
</svg>
