<?xml version="1.0" encoding="UTF-8" standalone="no"?>
<!DOCTYPE svg PUBLIC "-//W3C//DTD SVG 1.1//EN"
 "http://www.w3.org/Graphics/SVG/1.1/DTD/svg11.dtd">
<!-- Generated by graphviz version 2.40.1 (20161225.0304)
 -->
<!-- Title: amr_wind::sampling::LineSampler Pages: 1 -->
<!--zoomable 620 -->
<svg id="main" version="1.1" xmlns="http://www.w3.org/2000/svg" xmlns:xlink="http://www.w3.org/1999/xlink" xml:space="preserve" onload="init(evt)">
<style type="text/css"><![CDATA[
.edge:hover path { stroke: red; }
.edge:hover polygon { stroke: red; fill: red; }
]]></style>
<script type="text/javascript"><![CDATA[
var edges = document.getElementsByTagName('g');
if (edges && edges.length) {
  for (var i=0;i<edges.length;i++) {
    if (edges[i].id.substr(0,4)=='edge') {
      edges[i].setAttribute('class','edge');
    }
  }
}
]]></script>
        <defs>
                <circle id="rim" cx="0" cy="0" r="7"/>
                <circle id="rim2" cx="0" cy="0" r="3.5"/>
                <g id="zoomPlus">
                        <use xlink:href="#rim" fill="#404040">
                                <set attributeName="fill" to="#808080" begin="zoomplus.mouseover" end="zoomplus.mouseout"/>
                        </use>
                        <path d="M-4,0h8M0,-4v8" fill="none" stroke="white" stroke-width="1.5" pointer-events="none"/>
                </g>
                <g id="zoomMin">
                        <use xlink:href="#rim" fill="#404040">
                                <set attributeName="fill" to="#808080" begin="zoomminus.mouseover" end="zoomminus.mouseout"/>
                        </use>
                        <path d="M-4,0h8" fill="none" stroke="white" stroke-width="1.5" pointer-events="none"/>
                </g>
                <g id="dirArrow">
                        <path fill="none" stroke="white" stroke-width="1.5" d="M0,-3.0v7 M-2.5,-0.5L0,-3.0L2.5,-0.5"/>
                </g>
               <g id="resetDef">
                       <use xlink:href="#rim2" fill="#404040">
                               <set attributeName="fill" to="#808080" begin="reset.mouseover" end="reset.mouseout"/>
                       </use>
               </g>
        </defs>

<script type="text/javascript">
var viewWidth = 2154;
var viewHeight = 620;
var sectionId = 'dynsection-1';
</script>
<script xlink:href="svgpan.js"/>
<svg id="graph" class="graph">
<g id="viewport">
<title>amr_wind::sampling::LineSampler</title>
<polygon fill="#ffffff" stroke="transparent" points="-4,4 -4,-616.0115 2150,-616.0115 2150,4 -4,4"/>
<!-- Node2 -->
<g id="node1" class="node">
<title>Node2</title>
<polygon fill="#bfbfbf" stroke="#000000" points="1813,-72.0115 1813,-102.0115 1917,-102.0115 1917,-72.0115 1813,-72.0115"/>
<text text-anchor="start" x="1821" y="-90.0115" font-family="Helvetica,sans-Serif" font-size="10.00" fill="#000000">amr_wind::sampling</text>
<text text-anchor="middle" x="1865" y="-79.0115" font-family="Helvetica,sans-Serif" font-size="10.00" fill="#000000">::LineSampler</text>
</g>
<!-- Node3 -->
<g id="node2" class="node">
<title>Node3</title>
<polygon fill="#ffffff" stroke="#bfbfbf" points="1554.5,-28.0115 1554.5,-58.0115 1672.5,-58.0115 1672.5,-28.0115 1554.5,-28.0115"/>
<text text-anchor="start" x="1562.5" y="-46.0115" font-family="Helvetica,sans-Serif" font-size="10.00" fill="#000000">SamplerBase::Register</text>
<text text-anchor="middle" x="1613.5" y="-35.0115" font-family="Helvetica,sans-Serif" font-size="10.00" fill="#000000">&lt; LineSampler &gt;</text>
</g>
<!-- Node3&#45;&gt;Node2 -->
<g id="edge1" class="edge">
<title>Node3&#45;&gt;Node2</title>
<path fill="none" stroke="#191970" d="M1682.7416,-55.1254C1723.8941,-62.325 1775.2409,-71.3082 1812.9373,-77.9032"/>
<polygon fill="#191970" stroke="#191970" points="1683.2371,-51.659 1672.7835,-53.3832 1682.0307,-58.5543 1683.2371,-51.659"/>
</g>
<!-- Node4 -->
<g id="node3" class="node">
<title>Node4</title>
<g id="a_node3"><a xlink:href="classamr__wind_1_1_c_f_d_sim.html" target="_top" xlink:title="Data structures for a CFD simulationCFDSim represents the amr&#45;wind execution environment and manages ...">
<polygon fill="#ffffff" stroke="#000000" points="1562,-258.5115 1562,-277.5115 1665,-277.5115 1665,-258.5115 1562,-258.5115"/>
<text text-anchor="middle" x="1613.5" y="-265.5115" font-family="Helvetica,sans-Serif" font-size="10.00" fill="#000000">amr_wind::CFDSim</text>
</a>
</g>
</g>
<!-- Node4&#45;&gt;Node2 -->
<g id="edge2" class="edge">
<title>Node4&#45;&gt;Node2</title>
<path fill="none" stroke="#9a32cd" stroke-dasharray="5,2" d="M1635.0447,-252.1759C1653.1507,-237.9135 1678.6256,-215.4797 1695,-191.0115 1707.4405,-172.4218 1697.1281,-159.7731 1713,-144.0115 1739.8974,-117.3012 1780.4888,-102.9236 1812.9603,-95.2927"/>
<polygon fill="#9a32cd" stroke="#9a32cd" points="1632.6182,-249.6264 1626.8204,-258.4941 1636.8827,-255.1774 1632.6182,-249.6264"/>
<text text-anchor="middle" x="1740.5" y="-147.0115" font-family="Helvetica,sans-Serif" font-size="10.00" fill="#000000"> m_sim</text>
</g>
<!-- Node6 -->
<g id="node5" class="node">
<title>Node6</title>
<g id="a_node5"><a xlink:href="classamr__wind_1_1_i_o_manager.html" target="_top" xlink:title="Input/Output managerThis class contains infrastructure to output solution fields during the simulatio...">
<polygon fill="#ffffff" stroke="#000000" points="1808.5,-390.5115 1808.5,-409.5115 1921.5,-409.5115 1921.5,-390.5115 1808.5,-390.5115"/>
<text text-anchor="middle" x="1865" y="-397.5115" font-family="Helvetica,sans-Serif" font-size="10.00" fill="#000000">amr_wind::IOManager</text>
</a>
</g>
</g>
<!-- Node4&#45;&gt;Node6 -->
<g id="edge5" class="edge">
<title>Node4&#45;&gt;Node6</title>
<path fill="none" stroke="#9a32cd" stroke-dasharray="5,2" d="M1631.6269,-284.3086C1650.8889,-301.1116 1682.6883,-327.4119 1713,-346.0115 1743.5057,-364.7302 1752.2809,-368.0111 1786,-380.0115 1797.1964,-383.9963 1809.5507,-387.5193 1821.0977,-390.4547"/>
<polygon fill="#9a32cd" stroke="#9a32cd" points="1633.7583,-281.5215 1623.9447,-277.5286 1629.1263,-286.7699 1633.7583,-281.5215"/>
<text text-anchor="middle" x="1740.5" y="-376.0115" font-family="Helvetica,sans-Serif" font-size="10.00" fill="#000000"> m_sim</text>
</g>
<!-- Node15 -->
<g id="node14" class="node">
<title>Node15</title>
<g id="a_node14"><a xlink:href="classamr__wind_1_1_post_process_manager.html" target="_top" xlink:title="A collection of post&#45;processing instances that are active during a simulation. ">
<polygon fill="#ffffff" stroke="#000000" points="1786,-127.5115 1786,-146.5115 1944,-146.5115 1944,-127.5115 1786,-127.5115"/>
<text text-anchor="middle" x="1865" y="-134.5115" font-family="Helvetica,sans-Serif" font-size="10.00" fill="#000000">amr_wind::PostProcessManager</text>
</a>
</g>
</g>
<!-- Node4&#45;&gt;Node15 -->
<g id="edge16" class="edge">
<title>Node4&#45;&gt;Node15</title>
<path fill="none" stroke="#9a32cd" stroke-dasharray="5,2" d="M1628.6356,-250.5486C1646.773,-230.6778 1678.9986,-198.5829 1713,-180.0115 1742.8448,-163.7105 1779.4395,-153.1125 1809.2431,-146.5172"/>
<polygon fill="#9a32cd" stroke="#9a32cd" points="1625.8148,-248.4525 1621.7609,-258.2411 1631.0342,-253.1171 1625.8148,-248.4525"/>
<text text-anchor="middle" x="1740.5" y="-183.0115" font-family="Helvetica,sans-Serif" font-size="10.00" fill="#000000"> m_sim</text>
</g>
<!-- Node16 -->
<g id="node15" class="node">
<title>Node16</title>
<g id="a_node15"><a xlink:href="classamr__wind_1_1pde_1_1_p_d_e_mgr.html" target="_top" xlink:title="PDE systems manager. ">
<polygon fill="#ffffff" stroke="#000000" points="1803,-351.5115 1803,-370.5115 1927,-370.5115 1927,-351.5115 1803,-351.5115"/>
<text text-anchor="middle" x="1865" y="-358.5115" font-family="Helvetica,sans-Serif" font-size="10.00" fill="#000000">amr_wind::pde::PDEMgr</text>
</a>
</g>
</g>
<!-- Node4&#45;&gt;Node16 -->
<g id="edge27" class="edge">
<title>Node4&#45;&gt;Node16</title>
<path fill="none" stroke="#9a32cd" stroke-dasharray="5,2" d="M1675.2542,-275.6261C1704.1333,-280.4809 1738.5651,-288.1591 1768,-300.0115 1801.0319,-313.3124 1835.2947,-337.8362 1852.9176,-351.3854"/>
<polygon fill="#9a32cd" stroke="#9a32cd" points="1675.7168,-272.1556 1665.2881,-274.0244 1674.606,-279.0669 1675.7168,-272.1556"/>
<text text-anchor="middle" x="1740.5" y="-303.0115" font-family="Helvetica,sans-Serif" font-size="10.00" fill="#000000"> m_sim</text>
</g>
<!-- Node5 -->
<g id="node4" class="node">
<title>Node5</title>
<polygon fill="#ffffff" stroke="#bfbfbf" points="2017,-253.0115 2017,-283.0115 2124,-283.0115 2124,-253.0115 2017,-253.0115"/>
<text text-anchor="start" x="2025" y="-271.0115" font-family="Helvetica,sans-Serif" font-size="10.00" fill="#000000">std::unique_ptr&lt; amr</text>
<text text-anchor="middle" x="2070.5" y="-260.0115" font-family="Helvetica,sans-Serif" font-size="10.00" fill="#000000">_wind::IOManager &gt;</text>
</g>
<!-- Node5&#45;&gt;Node4 -->
<g id="edge3" class="edge">
<title>Node5&#45;&gt;Node4</title>
<path fill="none" stroke="#9a32cd" stroke-dasharray="5,2" d="M2006.4562,-268.0115C1915.0541,-268.0115 1748.9867,-268.0115 1665.0354,-268.0115"/>
<polygon fill="#9a32cd" stroke="#9a32cd" points="2006.6823,-271.5116 2016.6823,-268.0115 2006.6823,-264.5116 2006.6823,-271.5116"/>
<text text-anchor="middle" x="1865" y="-271.0115" font-family="Helvetica,sans-Serif" font-size="10.00" fill="#000000"> m_io_mgr</text>
</g>
<!-- Node6&#45;&gt;Node5 -->
<g id="edge4" class="edge">
<title>Node6&#45;&gt;Node5</title>
<path fill="none" stroke="#9a32cd" stroke-dasharray="5,2" d="M1927.4543,-387.2185C1933.1876,-385.1518 1938.7917,-382.765 1944,-380.0115 1991.974,-354.6494 2036.6729,-307.4535 2057.7767,-283.2254"/>
<polygon fill="#9a32cd" stroke="#9a32cd" points="1926.1448,-383.9643 1917.7305,-390.4025 1928.3231,-390.6168 1926.1448,-383.9643"/>
<text text-anchor="middle" x="1969.5" y="-371.0115" font-family="Helvetica,sans-Serif" font-size="10.00" fill="#000000"> ptr</text>
</g>
<!-- Node7 -->
<g id="node6" class="node">
<title>Node7</title>
<polygon fill="#ffffff" stroke="#bfbfbf" points="410,-580.5115 410,-599.5115 521,-599.5115 521,-580.5115 410,-580.5115"/>
<text text-anchor="middle" x="465.5" y="-587.5115" font-family="Helvetica,sans-Serif" font-size="10.00" fill="#000000">std::set&lt; std::string &gt;</text>
</g>
<!-- Node7&#45;&gt;Node6 -->
<g id="edge6" class="edge">
<title>Node7&#45;&gt;Node6</title>
<path fill="none" stroke="#9a32cd" stroke-dasharray="5,2" d="M531.3696,-590.0115C588.4186,-590.0115 673.1572,-590.0115 747,-590.0115 747,-590.0115 747,-590.0115 1613.5,-590.0115 1685.2736,-590.0115 1710.2188,-585.5884 1768,-543.0115 1817.9919,-506.1744 1850.5585,-435.413 1861.1938,-409.6742"/>
<polygon fill="#9a32cd" stroke="#9a32cd" points="531.0485,-586.5116 521.0484,-590.0115 531.0484,-593.5116 531.0485,-586.5116"/>
<text text-anchor="middle" x="1190.5" y="-604.0115" font-family="Helvetica,sans-Serif" font-size="10.00" fill="#000000"> m_chkvars</text>
<text text-anchor="middle" x="1190.5" y="-593.0115" font-family="Helvetica,sans-Serif" font-size="10.00" fill="#000000">m_pltvars_default</text>
</g>
<!-- Node8 -->
<g id="node7" class="node">
<title>Node8</title>
<g id="a_node7"><a xlink:title="STL class. ">
<polygon fill="#ffffff" stroke="#bfbfbf" points="195.5,-438.5115 195.5,-457.5115 255.5,-457.5115 255.5,-438.5115 195.5,-438.5115"/>
<text text-anchor="middle" x="225.5" y="-445.5115" font-family="Helvetica,sans-Serif" font-size="10.00" fill="#000000">std::string</text>
</a>
</g>
</g>
<!-- Node8&#45;&gt;Node2 -->
<g id="edge48" class="edge">
<title>Node8&#45;&gt;Node2</title>
<path fill="none" stroke="#9a32cd" stroke-dasharray="5,2" d="M240.4393,-430.7927C252.2937,-416.1567 268.2747,-394.0641 277,-372.0115 295.7102,-324.7231 271.9913,-304.3643 295,-259.0115 343.6992,-163.0198 357.8616,-87.0115 465.5,-87.0115 465.5,-87.0115 465.5,-87.0115 1613.5,-87.0115 1682.4878,-87.0115 1762.1203,-87.0115 1812.9791,-87.0115"/>
<polygon fill="#9a32cd" stroke="#9a32cd" points="237.7363,-428.5691 234.0226,-438.4918 243.1136,-433.0508 237.7363,-428.5691"/>
<text text-anchor="middle" x="1040" y="-90.0115" font-family="Helvetica,sans-Serif" font-size="10.00" fill="#000000"> m_label</text>
</g>
<!-- Node8&#45;&gt;Node6 -->
<g id="edge11" class="edge">
<title>Node8&#45;&gt;Node6</title>
<path fill="none" stroke="#9a32cd" stroke-dasharray="5,2" d="M242.1491,-464.929C255.3181,-477.2516 274.7967,-493.2594 295,-502.0115 365.4001,-532.5092 388.778,-529.0115 465.5,-529.0115 465.5,-529.0115 465.5,-529.0115 1613.5,-529.0115 1683.7155,-529.0115 1706.2233,-529.3861 1768,-496.0115 1808.8576,-473.9384 1844.0116,-429.3913 1858.2457,-409.7224"/>
<polygon fill="#9a32cd" stroke="#9a32cd" points="244.4346,-462.2702 234.8148,-457.8304 239.5663,-467.3001 244.4346,-462.2702"/>
<text text-anchor="middle" x="1040" y="-554.0115" font-family="Helvetica,sans-Serif" font-size="10.00" fill="#000000"> m_chk_prefix</text>
<text text-anchor="middle" x="1040" y="-543.0115" font-family="Helvetica,sans-Serif" font-size="10.00" fill="#000000">m_plt_prefix</text>
<text text-anchor="middle" x="1040" y="-532.0115" font-family="Helvetica,sans-Serif" font-size="10.00" fill="#000000">m_restart_file</text>
</g>
<!-- Node8&#45;&gt;Node7 -->
<g id="edge7" class="edge">
<title>Node8&#45;&gt;Node7</title>
<path fill="none" stroke="#9a32cd" stroke-dasharray="5,2" d="M234.409,-466.5552C245.5615,-487.7101 266.6926,-521.7302 295,-540.0115 332.1351,-563.994 349.6844,-549.2223 392,-562.0115 409.3845,-567.2657 428.544,-574.618 442.9419,-580.4702"/>
<polygon fill="#9a32cd" stroke="#9a32cd" points="237.5091,-464.9296 229.8723,-457.5858 231.2627,-468.089 237.5091,-464.9296"/>
<text text-anchor="middle" x="343.5" y="-565.0115" font-family="Helvetica,sans-Serif" font-size="10.00" fill="#000000"> keys</text>
</g>
<!-- Node8&#45;&gt;Node16 -->
<g id="edge28" class="edge">
<title>Node8&#45;&gt;Node16</title>
<path fill="none" stroke="#9a32cd" stroke-dasharray="5,2" d="M265.5625,-450.435C397.6456,-458.2084 831.4193,-482.0115 1190.5,-482.0115 1190.5,-482.0115 1190.5,-482.0115 1613.5,-482.0115 1689.8297,-482.0115 1710.0444,-456.6842 1768,-407.0115 1778.6713,-397.8653 1774.4529,-389.0238 1786,-381.0115 1792.2769,-376.6562 1799.4208,-373.2484 1806.7866,-370.5821"/>
<polygon fill="#9a32cd" stroke="#9a32cd" points="265.6922,-446.9367 255.5028,-449.8395 265.2785,-453.9244 265.6922,-446.9367"/>
<text text-anchor="middle" x="1040" y="-484.0115" font-family="Helvetica,sans-Serif" font-size="10.00" fill="#000000"> m_scheme</text>
</g>
<!-- Node18 -->
<g id="node17" class="node">
<title>Node18</title>
<polygon fill="#ffffff" stroke="#bfbfbf" points="414,-377.0115 414,-407.0115 517,-407.0115 517,-377.0115 414,-377.0115"/>
<text text-anchor="start" x="422" y="-395.0115" font-family="Helvetica,sans-Serif" font-size="10.00" fill="#000000">std::unordered_map</text>
<text text-anchor="middle" x="465.5" y="-384.0115" font-family="Helvetica,sans-Serif" font-size="10.00" fill="#000000">&lt; std::string, int &gt;</text>
</g>
<!-- Node8&#45;&gt;Node18 -->
<g id="edge21" class="edge">
<title>Node8&#45;&gt;Node18</title>
<path fill="none" stroke="#9a32cd" stroke-dasharray="5,2" d="M265.7409,-438.622C306.4595,-429.121 369.5689,-414.3955 413.9334,-404.0438"/>
<polygon fill="#9a32cd" stroke="#9a32cd" points="264.8393,-435.2383 255.8962,-440.9191 266.4299,-442.0552 264.8393,-435.2383"/>
<text text-anchor="middle" x="343.5" y="-434.0115" font-family="Helvetica,sans-Serif" font-size="10.00" fill="#000000"> keys</text>
</g>
<!-- Node30 -->
<g id="node29" class="node">
<title>Node30</title>
<polygon fill="#ffffff" stroke="#bfbfbf" points="410.5,-245.0115 410.5,-275.0115 520.5,-275.0115 520.5,-245.0115 410.5,-245.0115"/>
<text text-anchor="start" x="418.5" y="-263.0115" font-family="Helvetica,sans-Serif" font-size="10.00" fill="#000000">std::unordered_map</text>
<text text-anchor="middle" x="465.5" y="-252.0115" font-family="Helvetica,sans-Serif" font-size="10.00" fill="#000000">&lt; std::string, size_t &gt;</text>
</g>
<!-- Node8&#45;&gt;Node30 -->
<g id="edge42" class="edge">
<title>Node8&#45;&gt;Node30</title>
<path fill="none" stroke="#9a32cd" stroke-dasharray="5,2" d="M238.0137,-429.6284C248.4668,-414.2525 263.7467,-391.7297 277,-372.0115 285.0453,-360.0418 284.1288,-354.4887 295,-345.0115 331.1101,-313.5319 350.8705,-322.5732 392,-298.0115 400.4725,-292.952 401.4576,-289.9522 410,-285.0115 416.0377,-281.5196 422.6511,-278.1665 429.1421,-275.1127"/>
<polygon fill="#9a32cd" stroke="#9a32cd" points="234.9207,-427.9526 232.1903,-438.1895 240.7086,-431.8896 234.9207,-427.9526"/>
<text text-anchor="middle" x="343.5" y="-348.0115" font-family="Helvetica,sans-Serif" font-size="10.00" fill="#000000"> keys</text>
</g>
<!-- Node9 -->
<g id="node8" class="node">
<title>Node9</title>
<g id="a_node8"><a xlink:title="STL class. ">
<polygon fill="#ffffff" stroke="#bfbfbf" points="0,-433.0115 0,-463.0115 95,-463.0115 95,-433.0115 0,-433.0115"/>
<text text-anchor="start" x="8" y="-451.0115" font-family="Helvetica,sans-Serif" font-size="10.00" fill="#000000">std::basic_string&lt;</text>
<text text-anchor="middle" x="47.5" y="-440.0115" font-family="Helvetica,sans-Serif" font-size="10.00" fill="#000000"> char &gt;</text>
</a>
</g>
</g>
<!-- Node9&#45;&gt;Node8 -->
<g id="edge8" class="edge">
<title>Node9&#45;&gt;Node8</title>
<path fill="none" stroke="#191970" d="M105.5446,-448.0115C135.493,-448.0115 170.7833,-448.0115 195.3,-448.0115"/>
<polygon fill="#191970" stroke="#191970" points="105.2008,-444.5116 95.2007,-448.0115 105.2007,-451.5116 105.2008,-444.5116"/>
</g>
<!-- Node10 -->
<g id="node9" class="node">
<title>Node10</title>
<g id="a_node9"><a xlink:title="STL class. ">
<polygon fill="#ffffff" stroke="#bfbfbf" points="188.5,-562.5115 188.5,-581.5115 262.5,-581.5115 262.5,-562.5115 188.5,-562.5115"/>
<text text-anchor="middle" x="225.5" y="-569.5115" font-family="Helvetica,sans-Serif" font-size="10.00" fill="#000000">std::set&lt; K &gt;</text>
</a>
</g>
</g>
<!-- Node10&#45;&gt;Node7 -->
<g id="edge9" class="edge">
<title>Node10&#45;&gt;Node7</title>
<path fill="none" stroke="#ffa500" stroke-dasharray="5,2" d="M272.8701,-575.5643C312.2475,-578.5176 368.3509,-582.7254 409.8613,-585.8386"/>
<polygon fill="#ffa500" stroke="#ffa500" points="272.9705,-572.0621 262.7367,-574.8043 272.4469,-579.0425 272.9705,-572.0621"/>
<text text-anchor="middle" x="343.5" y="-587.0115" font-family="Helvetica,sans-Serif" font-size="10.00" fill="#000000"> &lt; std::string &gt;</text>
</g>
<!-- Node11 -->
<g id="node10" class="node">
<title>Node11</title>
<polygon fill="#ffffff" stroke="#bfbfbf" points="33,-372.5115 33,-391.5115 62,-391.5115 62,-372.5115 33,-372.5115"/>
<text text-anchor="middle" x="47.5" y="-379.5115" font-family="Helvetica,sans-Serif" font-size="10.00" fill="#000000">K</text>
</g>
<!-- Node11&#45;&gt;Node10 -->
<g id="edge10" class="edge">
<title>Node11&#45;&gt;Node10</title>
<path fill="none" stroke="#9a32cd" stroke-dasharray="5,2" d="M67.0221,-398.3125C75.8032,-405.8855 86.1582,-415.1575 95,-424.0115 144.3809,-473.4606 197.9298,-538.0817 217.6465,-562.2937"/>
<polygon fill="#9a32cd" stroke="#9a32cd" points="69.0693,-395.4588 59.1861,-391.6414 64.5316,-400.7889 69.0693,-395.4588"/>
<text text-anchor="middle" x="134.5" y="-490.0115" font-family="Helvetica,sans-Serif" font-size="10.00" fill="#000000"> keys</text>
</g>
<!-- Node19 -->
<g id="node18" class="node">
<title>Node19</title>
<g id="a_node18"><a xlink:title="STL class. ">
<polygon fill="#ffffff" stroke="#bfbfbf" points="174,-332.0115 174,-362.0115 277,-362.0115 277,-332.0115 174,-332.0115"/>
<text text-anchor="start" x="182" y="-350.0115" font-family="Helvetica,sans-Serif" font-size="10.00" fill="#000000">std::unordered_map</text>
<text text-anchor="middle" x="225.5" y="-339.0115" font-family="Helvetica,sans-Serif" font-size="10.00" fill="#000000">&lt; K, T &gt;</text>
</a>
</g>
</g>
<!-- Node11&#45;&gt;Node19 -->
<g id="edge23" class="edge">
<title>Node11&#45;&gt;Node19</title>
<path fill="none" stroke="#9a32cd" stroke-dasharray="5,2" d="M71.8933,-377.2151C98.0492,-372.0721 140.3478,-363.7549 173.9422,-357.1493"/>
<polygon fill="#9a32cd" stroke="#9a32cd" points="71.2033,-373.7837 62.0665,-379.1474 72.5539,-380.6522 71.2033,-373.7837"/>
<text text-anchor="middle" x="134.5" y="-371.0115" font-family="Helvetica,sans-Serif" font-size="10.00" fill="#000000"> keys</text>
</g>
<!-- Node12 -->
<g id="node11" class="node">
<title>Node12</title>
<g id="a_node11"><a xlink:title="STL class. ">
<polygon fill="#ffffff" stroke="#bfbfbf" points="987.5,-143.5115 987.5,-162.5115 1092.5,-162.5115 1092.5,-143.5115 987.5,-143.5115"/>
<text text-anchor="middle" x="1040" y="-150.5115" font-family="Helvetica,sans-Serif" font-size="10.00" fill="#000000">std::unique_ptr&lt; T &gt;</text>
</a>
</g>
</g>
<!-- Node12&#45;&gt;Node5 -->
<g id="edge12" class="edge">
<title>Node12&#45;&gt;Node5</title>
<path fill="none" stroke="#ffa500" stroke-dasharray="5,2" d="M1103.049,-156.6169C1146.5985,-159.216 1205.8421,-162.9667 1258,-167.0115 1331.4153,-172.705 1349.8203,-173.8289 1423,-182.0115 1643.8882,-206.7102 1906.094,-244.0007 2016.8692,-260.1238"/>
<polygon fill="#ffa500" stroke="#ffa500" points="1103.079,-153.1127 1092.8893,-156.0145 1102.6646,-160.1004 1103.079,-153.1127"/>
<text text-anchor="middle" x="1613.5" y="-218.0115" font-family="Helvetica,sans-Serif" font-size="10.00" fill="#000000"> &lt; amr_wind::IOManager &gt;</text>
</g>
<!-- Node14 -->
<g id="node13" class="node">
<title>Node14</title>
<polygon fill="#ffffff" stroke="#bfbfbf" points="1995,-122.0115 1995,-152.0115 2146,-152.0115 2146,-122.0115 1995,-122.0115"/>
<text text-anchor="start" x="2003" y="-140.0115" font-family="Helvetica,sans-Serif" font-size="10.00" fill="#000000">std::unique_ptr&lt; amr</text>
<text text-anchor="middle" x="2070.5" y="-129.0115" font-family="Helvetica,sans-Serif" font-size="10.00" fill="#000000">_wind::PostProcessManager &gt;</text>
</g>
<!-- Node12&#45;&gt;Node14 -->
<g id="edge17" class="edge">
<title>Node12&#45;&gt;Node14</title>
<path fill="none" stroke="#ffa500" stroke-dasharray="5,2" d="M1072.8188,-139.6552C1150.8006,-108.7271 1354.0085,-32.8637 1532,-7.0115 1603.6922,3.4013 1622.9831,.8474 1695,-7.0115 1807.6653,-19.3063 1838.595,-20.3651 1944,-62.0115 1983.6547,-77.6795 2025.4048,-104.8221 2049.6413,-121.801"/>
<polygon fill="#ffa500" stroke="#ffa500" points="1071.5023,-136.4121 1063.512,-143.3695 1074.097,-142.9135 1071.5023,-136.4121"/>
<text text-anchor="middle" x="1613.5" y="-10.0115" font-family="Helvetica,sans-Serif" font-size="10.00" fill="#000000"> &lt; amr_wind::PostProcessManager &gt;</text>
</g>
<!-- Node21 -->
<g id="node20" class="node">
<title>Node21</title>
<polygon fill="#ffffff" stroke="#bfbfbf" points="1288.5,-328.0115 1288.5,-358.0115 1410.5,-358.0115 1410.5,-328.0115 1288.5,-328.0115"/>
<text text-anchor="start" x="1296.5" y="-346.0115" font-family="Helvetica,sans-Serif" font-size="10.00" fill="#000000">std::unique_ptr&lt; amr</text>
<text text-anchor="middle" x="1349.5" y="-335.0115" font-family="Helvetica,sans-Serif" font-size="10.00" fill="#000000">_wind::pde::PDEBase &gt;</text>
</g>
<!-- Node12&#45;&gt;Node21 -->
<g id="edge33" class="edge">
<title>Node12&#45;&gt;Node21</title>
<path fill="none" stroke="#ffa500" stroke-dasharray="5,2" d="M1074.898,-167.0951C1085.5794,-172.6915 1096.6896,-179.9816 1105,-189.0115 1118.2016,-203.3561 1108.187,-216.3378 1123,-229.0115 1170.2719,-269.4564 1202.9194,-237.0884 1258,-266.0115 1262.1818,-268.2074 1306.6647,-306.1993 1332.0319,-327.9799"/>
<polygon fill="#ffa500" stroke="#ffa500" points="1076.2253,-163.8485 1065.7029,-162.612 1073.1575,-170.1405 1076.2253,-163.8485"/>
<text text-anchor="middle" x="1190.5" y="-269.0115" font-family="Helvetica,sans-Serif" font-size="10.00" fill="#000000"> &lt; amr_wind::pde::PDEBase &gt;</text>
</g>
<!-- Node26 -->
<g id="node25" class="node">
<title>Node26</title>
<polygon fill="#ffffff" stroke="#bfbfbf" points="1276,-191.5115 1276,-232.5115 1423,-232.5115 1423,-191.5115 1276,-191.5115"/>
<text text-anchor="start" x="1284" y="-220.5115" font-family="Helvetica,sans-Serif" font-size="10.00" fill="#000000">std::unique_ptr&lt; amr</text>
<text text-anchor="start" x="1284" y="-209.5115" font-family="Helvetica,sans-Serif" font-size="10.00" fill="#000000">_wind::turbulence::Turbulence</text>
<text text-anchor="middle" x="1349.5" y="-198.5115" font-family="Helvetica,sans-Serif" font-size="10.00" fill="#000000">Model &gt;</text>
</g>
<!-- Node12&#45;&gt;Node26 -->
<g id="edge39" class="edge">
<title>Node12&#45;&gt;Node26</title>
<path fill="none" stroke="#ffa500" stroke-dasharray="5,2" d="M1102.927,-162.026C1156.5055,-169.849 1229.2325,-180.8585 1258,-187.0115 1264.2803,-188.3549 1270.7707,-189.8691 1277.2614,-191.471"/>
<polygon fill="#ffa500" stroke="#ffa500" points="1103.2232,-158.5323 1092.8233,-160.5553 1102.2148,-165.4593 1103.2232,-158.5323"/>
<text text-anchor="start" x="1137.5" y="-201.0115" font-family="Helvetica,sans-Serif" font-size="10.00" fill="#000000"> &lt; amr_wind::turbulence</text>
<text text-anchor="middle" x="1190.5" y="-190.0115" font-family="Helvetica,sans-Serif" font-size="10.00" fill="#000000">::TurbulenceModel &gt;</text>
</g>
<!-- Node13 -->
<g id="node12" class="node">
<title>Node13</title>
<polygon fill="#ffffff" stroke="#bfbfbf" points="33,-290.5115 33,-309.5115 62,-309.5115 62,-290.5115 33,-290.5115"/>
<text text-anchor="middle" x="47.5" y="-297.5115" font-family="Helvetica,sans-Serif" font-size="10.00" fill="#000000">T</text>
</g>
<!-- Node13&#45;&gt;Node12 -->
<g id="edge13" class="edge">
<title>Node13&#45;&gt;Node12</title>
<path fill="none" stroke="#9a32cd" stroke-dasharray="5,2" d="M51.3459,-280.5028C64.253,-221.3471 111.776,-48.0115 225.5,-48.0115 225.5,-48.0115 225.5,-48.0115 747,-48.0115 859.6645,-48.0115 983.1659,-117.6616 1025.1178,-143.5083"/>
<polygon fill="#9a32cd" stroke="#9a32cd" points="47.8887,-279.9366 49.2732,-290.4406 54.7413,-281.3658 47.8887,-279.9366"/>
<text text-anchor="middle" x="465.5" y="-51.0115" font-family="Helvetica,sans-Serif" font-size="10.00" fill="#000000"> ptr</text>
</g>
<!-- Node13&#45;&gt;Node19 -->
<g id="edge24" class="edge">
<title>Node13&#45;&gt;Node19</title>
<path fill="none" stroke="#9a32cd" stroke-dasharray="5,2" d="M71.8933,-306.4525C98.0492,-313.3588 140.3478,-324.5276 173.9422,-333.398"/>
<polygon fill="#9a32cd" stroke="#9a32cd" points="72.6287,-303.0268 62.0665,-303.8578 70.8416,-309.7948 72.6287,-303.0268"/>
<text text-anchor="middle" x="134.5" y="-330.0115" font-family="Helvetica,sans-Serif" font-size="10.00" fill="#000000"> elements</text>
</g>
<!-- Node14&#45;&gt;Node4 -->
<g id="edge14" class="edge">
<title>Node14&#45;&gt;Node4</title>
<path fill="none" stroke="#9a32cd" stroke-dasharray="5,2" d="M2008.1706,-154.8784C1909.9902,-183.022 1722.6904,-236.7119 1646.7344,-258.4848"/>
<polygon fill="#9a32cd" stroke="#9a32cd" points="2009.3142,-158.1916 2017.9626,-152.0715 2007.3853,-151.4626 2009.3142,-158.1916"/>
<text text-anchor="middle" x="1865" y="-221.0115" font-family="Helvetica,sans-Serif" font-size="10.00" fill="#000000"> m_post_mgr</text>
</g>
<!-- Node15&#45;&gt;Node14 -->
<g id="edge15" class="edge">
<title>Node15&#45;&gt;Node14</title>
<path fill="none" stroke="#9a32cd" stroke-dasharray="5,2" d="M1954.3781,-137.0115C1967.8432,-137.0115 1981.6199,-137.0115 1994.762,-137.0115"/>
<polygon fill="#9a32cd" stroke="#9a32cd" points="1954.1578,-133.5116 1944.1577,-137.0115 1954.1577,-140.5116 1954.1578,-133.5116"/>
<text text-anchor="middle" x="1969.5" y="-140.0115" font-family="Helvetica,sans-Serif" font-size="10.00" fill="#000000"> ptr</text>
</g>
<!-- Node16&#45;&gt;Node4 -->
<g id="edge18" class="edge">
<title>Node16&#45;&gt;Node4</title>
<path fill="none" stroke="#9a32cd" stroke-dasharray="5,2" d="M1820.8621,-348.584C1790.2677,-339.6036 1748.7623,-326.6896 1713,-313.0115 1684.6675,-302.1751 1652.8834,-287.3061 1633.0296,-277.6782"/>
<polygon fill="#9a32cd" stroke="#9a32cd" points="1820.2155,-352.041 1830.7952,-351.4742 1822.1712,-345.3197 1820.2155,-352.041"/>
<text text-anchor="middle" x="1740.5" y="-334.0115" font-family="Helvetica,sans-Serif" font-size="10.00" fill="#000000"> m_pde_mgr</text>
</g>
<!-- Node17 -->
<g id="node16" class="node">
<title>Node17</title>
<g id="a_node16"><a xlink:href="classamr__wind_1_1_coll_mgr.html" target="_top" xlink:title="amr_wind::CollMgr\&lt;\l PDEMgr, PDEBase \&gt;">
<polygon fill="#ffffff" stroke="#000000" points="982,-415.0115 982,-445.0115 1098,-445.0115 1098,-415.0115 982,-415.0115"/>
<text text-anchor="start" x="990" y="-433.0115" font-family="Helvetica,sans-Serif" font-size="10.00" fill="#000000">amr_wind::CollMgr&lt;</text>
<text text-anchor="middle" x="1040" y="-422.0115" font-family="Helvetica,sans-Serif" font-size="10.00" fill="#000000"> PDEMgr, PDEBase &gt;</text>
</a>
</g>
</g>
<!-- Node17&#45;&gt;Node16 -->
<g id="edge19" class="edge">
<title>Node17&#45;&gt;Node16</title>
<path fill="none" stroke="#191970" d="M1108.6211,-433.1197C1238.858,-437.471 1530.126,-439.7729 1768,-388.0115 1776.3874,-386.1865 1777.824,-383.6253 1786,-381.0115 1797.9937,-377.1773 1811.1964,-373.5917 1823.3178,-370.5454"/>
<polygon fill="#191970" stroke="#191970" points="1108.5148,-429.6139 1098.3987,-432.7627 1108.2704,-436.6097 1108.5148,-429.6139"/>
</g>
<!-- Node18&#45;&gt;Node17 -->
<g id="edge20" class="edge">
<title>Node18&#45;&gt;Node17</title>
<path fill="none" stroke="#9a32cd" stroke-dasharray="5,2" d="M527.1557,-405.002C531.1572,-405.7189 535.1314,-406.3965 539,-407.0115 722.8282,-436.2369 770.8936,-436.3738 957,-433.0115 965.0734,-432.8657 973.5864,-432.6401 981.9603,-432.3766"/>
<polygon fill="#9a32cd" stroke="#9a32cd" points="527.6682,-401.5374 517.1971,-403.152 526.3896,-408.4197 527.6682,-401.5374"/>
<text text-anchor="middle" x="747" y="-437.0115" font-family="Helvetica,sans-Serif" font-size="10.00" fill="#000000"> m_obj_map</text>
</g>
<!-- Node20 -->
<g id="node19" class="node">
<title>Node20</title>
<g id="a_node19"><a xlink:href="classamr__wind_1_1_coll_mgr.html" target="_top" xlink:title="Interface to manage objects of sub&#45;classes based on factory registrationProvides boiler&#45;plate code to...">
<polygon fill="#ffffff" stroke="#000000" points="687.5,-371.5115 687.5,-412.5115 806.5,-412.5115 806.5,-371.5115 687.5,-371.5115"/>
<text text-anchor="start" x="695.5" y="-400.5115" font-family="Helvetica,sans-Serif" font-size="10.00" fill="#000000">amr_wind::CollMgr&lt;</text>
<text text-anchor="start" x="695.5" y="-389.5115" font-family="Helvetica,sans-Serif" font-size="10.00" fill="#000000"> Collection, Type, allow</text>
<text text-anchor="middle" x="747" y="-378.5115" font-family="Helvetica,sans-Serif" font-size="10.00" fill="#000000">_duplicates &gt;</text>
</a>
</g>
</g>
<!-- Node18&#45;&gt;Node20 -->
<g id="edge26" class="edge">
<title>Node18&#45;&gt;Node20</title>
<path fill="none" stroke="#9a32cd" stroke-dasharray="5,2" d="M527.3106,-392.0115C574.9253,-392.0115 640.3529,-392.0115 687.4033,-392.0115"/>
<polygon fill="#9a32cd" stroke="#9a32cd" points="527.1315,-388.5116 517.1314,-392.0115 527.1314,-395.5116 527.1315,-388.5116"/>
<text text-anchor="middle" x="595.5" y="-395.0115" font-family="Helvetica,sans-Serif" font-size="10.00" fill="#000000"> m_obj_map</text>
</g>
<!-- Node32 -->
<g id="node31" class="node">
<title>Node32</title>
<g id="a_node31"><a xlink:href="classamr__wind_1_1_coll_mgr.html" target="_top" xlink:title="amr_wind::CollMgr\&lt;\l PhysicsMgr, Physics \&gt;">
<polygon fill="#ffffff" stroke="#000000" points="979,-366.0115 979,-396.0115 1101,-396.0115 1101,-366.0115 979,-366.0115"/>
<text text-anchor="start" x="987" y="-384.0115" font-family="Helvetica,sans-Serif" font-size="10.00" fill="#000000">amr_wind::CollMgr&lt;</text>
<text text-anchor="middle" x="1040" y="-373.0115" font-family="Helvetica,sans-Serif" font-size="10.00" fill="#000000"> PhysicsMgr, Physics &gt;</text>
</a>
</g>
</g>
<!-- Node18&#45;&gt;Node32 -->
<g id="edge46" class="edge">
<title>Node18&#45;&gt;Node32</title>
<path fill="none" stroke="#9a32cd" stroke-dasharray="5,2" d="M527.1335,-376.3421C567.4723,-366.9106 621.5019,-355.8253 670,-351.0115 778.543,-340.2379 905.2891,-356.8228 978.7251,-369.3001"/>
<polygon fill="#9a32cd" stroke="#9a32cd" points="526.1081,-372.9881 517.1845,-378.6995 527.7221,-379.7995 526.1081,-372.9881"/>
<text text-anchor="middle" x="747" y="-354.0115" font-family="Helvetica,sans-Serif" font-size="10.00" fill="#000000"> m_obj_map</text>
</g>
<!-- Node19&#45;&gt;Node18 -->
<g id="edge22" class="edge">
<title>Node19&#45;&gt;Node18</title>
<path fill="none" stroke="#ffa500" stroke-dasharray="5,2" d="M287.2614,-358.5918C326.4945,-365.948 376.6915,-375.36 413.8119,-382.32"/>
<polygon fill="#ffa500" stroke="#ffa500" points="287.7547,-355.1234 277.2809,-356.7205 286.4646,-362.0035 287.7547,-355.1234"/>
<text text-anchor="middle" x="343.5" y="-380.0115" font-family="Helvetica,sans-Serif" font-size="10.00" fill="#000000"> &lt; std::string, int &gt;</text>
</g>
<!-- Node19&#45;&gt;Node30 -->
<g id="edge43" class="edge">
<title>Node19&#45;&gt;Node30</title>
<path fill="none" stroke="#ffa500" stroke-dasharray="5,2" d="M245.4101,-324.4272C258.2387,-311.3667 276.0244,-295.8203 295,-287.0115 331.1539,-270.2284 375.7618,-263.5963 410.281,-261.0977"/>
<polygon fill="#ffa500" stroke="#ffa500" points="242.7983,-322.095 238.4582,-331.7601 247.8782,-326.9111 242.7983,-322.095"/>
<text text-anchor="middle" x="343.5" y="-290.0115" font-family="Helvetica,sans-Serif" font-size="10.00" fill="#000000"> &lt; std::string, size_t &gt;</text>
</g>
<!-- Node20&#45;&gt;Node17 -->
<g id="edge25" class="edge">
<title>Node20&#45;&gt;Node17</title>
<path fill="none" stroke="#ffa500" stroke-dasharray="5,2" d="M816.8103,-401.0654C867.2082,-407.6017 934.4691,-416.3249 981.9362,-422.4811"/>
<polygon fill="#ffa500" stroke="#ffa500" points="817.0132,-397.5625 806.6461,-399.7472 816.1128,-404.5044 817.0132,-397.5625"/>
<text text-anchor="middle" x="899.5" y="-421.0115" font-family="Helvetica,sans-Serif" font-size="10.00" fill="#000000"> &lt; PDEMgr, PDEBase &gt;</text>
</g>
<!-- Node20&#45;&gt;Node32 -->
<g id="edge47" class="edge">
<title>Node20&#45;&gt;Node32</title>
<path fill="none" stroke="#ffa500" stroke-dasharray="5,2" d="M816.9155,-389.3867C866.2451,-387.5348 931.6907,-385.0778 978.9259,-383.3044"/>
<polygon fill="#ffa500" stroke="#ffa500" points="816.5077,-385.8995 806.6461,-389.7723 816.7704,-392.8946 816.5077,-385.8995"/>
<text text-anchor="middle" x="899.5" y="-391.0115" font-family="Helvetica,sans-Serif" font-size="10.00" fill="#000000"> &lt; PhysicsMgr, Physics &gt;</text>
</g>
<!-- Node21&#45;&gt;Node16 -->
<g id="edge29" class="edge">
<title>Node21&#45;&gt;Node16</title>
<path fill="none" stroke="#9a32cd" stroke-dasharray="5,2" d="M1420.6004,-346.1942C1427.4938,-346.4804 1434.3813,-346.7576 1441,-347.0115 1569.6109,-351.9459 1720.2075,-356.6672 1802.8458,-359.1671"/>
<polygon fill="#9a32cd" stroke="#9a32cd" points="1420.6654,-342.694 1410.527,-345.7702 1420.3709,-349.6878 1420.6654,-342.694"/>
<text text-anchor="middle" x="1613.5" y="-358.0115" font-family="Helvetica,sans-Serif" font-size="10.00" fill="#000000"> m_icns</text>
</g>
<!-- Node22 -->
<g id="node21" class="node">
<title>Node22</title>
<g id="a_node21"><a xlink:href="classamr__wind_1_1pde_1_1_p_d_e_base.html" target="_top" xlink:title="Abstract interface defining a PDE and its solution process withn AMR&#45;WindThe exact behavior is implem...">
<polygon fill="#ffffff" stroke="#000000" points="975,-327.5115 975,-346.5115 1105,-346.5115 1105,-327.5115 975,-327.5115"/>
<text text-anchor="middle" x="1040" y="-334.5115" font-family="Helvetica,sans-Serif" font-size="10.00" fill="#000000">amr_wind::pde::PDEBase</text>
</a>
</g>
</g>
<!-- Node22&#45;&gt;Node21 -->
<g id="edge30" class="edge">
<title>Node22&#45;&gt;Node21</title>
<path fill="none" stroke="#9a32cd" stroke-dasharray="5,2" d="M1115.3016,-338.4714C1168.3989,-339.5007 1238.6196,-340.862 1288.278,-341.8247"/>
<polygon fill="#9a32cd" stroke="#9a32cd" points="1115.3248,-334.9712 1105.2588,-338.2767 1115.1891,-341.9699 1115.3248,-334.9712"/>
<text text-anchor="middle" x="1190.5" y="-344.0115" font-family="Helvetica,sans-Serif" font-size="10.00" fill="#000000"> ptr</text>
</g>
<!-- Node23 -->
<g id="node22" class="node">
<title>Node23</title>
<g id="a_node22"><a xlink:href="structamr__wind_1_1_factory.html" target="_top" xlink:title="amr_wind::Factory\&lt;\l PDEBase, CFDSim &amp;,\l const int \&gt;">
<polygon fill="#ffffff" stroke="#000000" points="687,-264.5115 687,-305.5115 807,-305.5115 807,-264.5115 687,-264.5115"/>
<text text-anchor="start" x="695" y="-293.5115" font-family="Helvetica,sans-Serif" font-size="10.00" fill="#000000">amr_wind::Factory&lt;</text>
<text text-anchor="start" x="695" y="-282.5115" font-family="Helvetica,sans-Serif" font-size="10.00" fill="#000000"> PDEBase, CFDSim &amp;,</text>
<text text-anchor="middle" x="747" y="-271.5115" font-family="Helvetica,sans-Serif" font-size="10.00" fill="#000000"> const int &gt;</text>
</a>
</g>
</g>
<!-- Node23&#45;&gt;Node22 -->
<g id="edge31" class="edge">
<title>Node23&#45;&gt;Node22</title>
<path fill="none" stroke="#191970" d="M817.4751,-297.5191C869.3071,-306.7179 938.7023,-319.0338 986.1327,-327.4515"/>
<polygon fill="#191970" stroke="#191970" points="817.8123,-294.0243 807.3545,-295.7229 816.589,-300.9166 817.8123,-294.0243"/>
</g>
<!-- Node24 -->
<g id="node23" class="node">
<title>Node24</title>
<g id="a_node23"><a xlink:href="structamr__wind_1_1_factory.html" target="_top" xlink:title="Runtime selection of options based on string keyword lookupFactory provides an automated way to regis...">
<polygon fill="#ffffff" stroke="#000000" points="413.5,-294.0115 413.5,-324.0115 517.5,-324.0115 517.5,-294.0115 413.5,-294.0115"/>
<text text-anchor="start" x="421.5" y="-312.0115" font-family="Helvetica,sans-Serif" font-size="10.00" fill="#000000">amr_wind::Factory&lt;</text>
<text text-anchor="middle" x="465.5" y="-301.0115" font-family="Helvetica,sans-Serif" font-size="10.00" fill="#000000"> Base, Args &gt;</text>
</a>
</g>
</g>
<!-- Node24&#45;&gt;Node23 -->
<g id="edge32" class="edge">
<title>Node24&#45;&gt;Node23</title>
<path fill="none" stroke="#ffa500" stroke-dasharray="5,2" d="M527.9109,-303.6906C575.2315,-299.6561 639.8873,-294.1437 686.6854,-290.1538"/>
<polygon fill="#ffa500" stroke="#ffa500" points="527.4548,-300.2166 517.7883,-304.5536 528.0495,-307.1913 527.4548,-300.2166"/>
<text text-anchor="start" x="539" y="-316.0115" font-family="Helvetica,sans-Serif" font-size="10.00" fill="#000000"> &lt; PDEBase, CFDSim &amp;,</text>
<text text-anchor="middle" x="595.5" y="-305.0115" font-family="Helvetica,sans-Serif" font-size="10.00" fill="#000000"> const int &gt;</text>
</g>
<!-- Node28 -->
<g id="node27" class="node">
<title>Node28</title>
<g id="a_node27"><a xlink:href="structamr__wind_1_1_factory.html" target="_top" xlink:title="amr_wind::Factory\&lt;\l TurbulenceModel, CFDSim &amp;\&gt;">
<polygon fill="#ffffff" stroke="#000000" points="670,-160.0115 670,-190.0115 824,-190.0115 824,-160.0115 670,-160.0115"/>
<text text-anchor="start" x="678" y="-178.0115" font-family="Helvetica,sans-Serif" font-size="10.00" fill="#000000">amr_wind::Factory&lt;</text>
<text text-anchor="middle" x="747" y="-167.0115" font-family="Helvetica,sans-Serif" font-size="10.00" fill="#000000"> TurbulenceModel, CFDSim &amp;&gt;</text>
</a>
</g>
</g>
<!-- Node24&#45;&gt;Node28 -->
<g id="edge38" class="edge">
<title>Node24&#45;&gt;Node28</title>
<path fill="none" stroke="#ffa500" stroke-dasharray="5,2" d="M514.3533,-289.1748C516.6441,-287.8455 518.8726,-286.4569 521,-285.0115 530.3582,-278.6535 529.0798,-272.4512 539,-267.0115 584.1013,-242.2809 604.9501,-262.7969 652,-242.0115 681.9069,-228.7995 712.0058,-205.4787 730.0774,-190.1338"/>
<polygon fill="#ffa500" stroke="#ffa500" points="512.4703,-286.2122 505.2909,-294.0037 515.7621,-292.3899 512.4703,-286.2122"/>
<text text-anchor="start" x="550.5" y="-281.0115" font-family="Helvetica,sans-Serif" font-size="10.00" fill="#000000"> &lt; TurbulenceModel,</text>
<text text-anchor="middle" x="595.5" y="-270.0115" font-family="Helvetica,sans-Serif" font-size="10.00" fill="#000000"> CFDSim &amp;&gt;</text>
</g>
<!-- Node25 -->
<g id="node24" class="node">
<title>Node25</title>
<g id="a_node24"><a xlink:href="classamr__wind_1_1_sim_time.html" target="_top" xlink:title="Time manager for simulations. ">
<polygon fill="#ffffff" stroke="#000000" points="1297.5,-251.5115 1297.5,-270.5115 1401.5,-270.5115 1401.5,-251.5115 1297.5,-251.5115"/>
<text text-anchor="middle" x="1349.5" y="-258.5115" font-family="Helvetica,sans-Serif" font-size="10.00" fill="#000000">amr_wind::SimTime</text>
</a>
</g>
</g>
<!-- Node25&#45;&gt;Node4 -->
<g id="edge34" class="edge">
<title>Node25&#45;&gt;Node4</title>
<path fill="none" stroke="#9a32cd" stroke-dasharray="5,2" d="M1411.7508,-262.6621C1457.4845,-263.8748 1518.8902,-265.503 1561.9003,-266.6434"/>
<polygon fill="#9a32cd" stroke="#9a32cd" points="1411.7472,-259.1609 1401.6579,-262.3945 1411.5616,-266.1584 1411.7472,-259.1609"/>
<text text-anchor="middle" x="1477.5" y="-268.0115" font-family="Helvetica,sans-Serif" font-size="10.00" fill="#000000"> m_time</text>
</g>
<!-- Node26&#45;&gt;Node4 -->
<g id="edge35" class="edge">
<title>Node26&#45;&gt;Node4</title>
<path fill="none" stroke="#9a32cd" stroke-dasharray="5,2" d="M1433.0571,-229.7358C1477.9153,-239.2512 1531.4398,-250.6048 1568.4869,-258.4633"/>
<polygon fill="#9a32cd" stroke="#9a32cd" points="1433.5474,-226.262 1423.0387,-227.6107 1432.0948,-233.1096 1433.5474,-226.262"/>
<text text-anchor="middle" x="1477.5" y="-250.0115" font-family="Helvetica,sans-Serif" font-size="10.00" fill="#000000"> m_turbulence</text>
</g>
<!-- Node27 -->
<g id="node26" class="node">
<title>Node27</title>
<g id="a_node26"><a xlink:href="classamr__wind_1_1turbulence_1_1_turbulence_model.html" target="_top" xlink:title="Abstract representation of a turbulence modelThis class is an abstract representation of a turbulence...">
<polygon fill="#ffffff" stroke="#000000" points="985,-199.0115 985,-229.0115 1095,-229.0115 1095,-199.0115 985,-199.0115"/>
<text text-anchor="start" x="993" y="-217.0115" font-family="Helvetica,sans-Serif" font-size="10.00" fill="#000000">amr_wind::turbulence</text>
<text text-anchor="middle" x="1040" y="-206.0115" font-family="Helvetica,sans-Serif" font-size="10.00" fill="#000000">::TurbulenceModel</text>
</a>
</g>
</g>
<!-- Node27&#45;&gt;Node26 -->
<g id="edge36" class="edge">
<title>Node27&#45;&gt;Node26</title>
<path fill="none" stroke="#9a32cd" stroke-dasharray="5,2" d="M1105.357,-213.5892C1155.2145,-213.267 1223.9123,-212.8231 1275.7372,-212.4882"/>
<polygon fill="#9a32cd" stroke="#9a32cd" points="1105.3095,-210.0893 1095.3324,-213.654 1105.3548,-217.0892 1105.3095,-210.0893"/>
<text text-anchor="middle" x="1190.5" y="-217.0115" font-family="Helvetica,sans-Serif" font-size="10.00" fill="#000000"> ptr</text>
</g>
<!-- Node28&#45;&gt;Node27 -->
<g id="edge37" class="edge">
<title>Node28&#45;&gt;Node27</title>
<path fill="none" stroke="#191970" d="M834.3033,-186.6321C883.1572,-193.1349 942.5696,-201.043 984.9575,-206.6851"/>
<polygon fill="#191970" stroke="#191970" points="834.74,-183.1595 824.3656,-185.3094 833.8163,-190.0983 834.74,-183.1595"/>
</g>
<!-- Node29 -->
<g id="node28" class="node">
<title>Node29</title>
<g id="a_node28"><a xlink:href="classamr__wind_1_1_field_repo.html" target="_top" xlink:title="Field RepositoryFieldRepo is a database that manages handling of fields used during a simulation...">
<polygon fill="#ffffff" stroke="#000000" points="845,-257.5115 845,-276.5115 954,-276.5115 954,-257.5115 845,-257.5115"/>
<text text-anchor="middle" x="899.5" y="-264.5115" font-family="Helvetica,sans-Serif" font-size="10.00" fill="#000000">amr_wind::FieldRepo</text>
</a>
</g>
</g>
<!-- Node29&#45;&gt;Node4 -->
<g id="edge40" class="edge">
<title>Node29&#45;&gt;Node4</title>
<path fill="none" stroke="#9a32cd" stroke-dasharray="5,2" d="M964.3575,-271.8367C1076.5052,-279.408 1313.8733,-292.0359 1514,-280.0115 1529.6313,-279.0724 1546.5697,-277.3104 1561.9641,-275.4202"/>
<polygon fill="#9a32cd" stroke="#9a32cd" points="964.441,-268.3343 954.2253,-271.1433 963.963,-275.318 964.441,-268.3343"/>
<text text-anchor="middle" x="1190.5" y="-287.0115" font-family="Helvetica,sans-Serif" font-size="10.00" fill="#000000"> m_repo</text>
</g>
<!-- Node30&#45;&gt;Node29 -->
<g id="edge41" class="edge">
<title>Node30&#45;&gt;Node29</title>
<path fill="none" stroke="#9a32cd" stroke-dasharray="5,2" d="M492.3182,-239.1636C505.5829,-230.1525 522.3025,-220.6275 539,-216.0115 663.5913,-181.5689 819.1731,-234.6982 876.7282,-257.4683"/>
<polygon fill="#9a32cd" stroke="#9a32cd" points="490.2765,-236.3206 484.1354,-244.9541 494.3201,-242.0347 490.2765,-236.3206"/>
<text text-anchor="middle" x="595.5" y="-230.0115" font-family="Helvetica,sans-Serif" font-size="10.00" fill="#000000"> m_fid_map</text>
<text text-anchor="middle" x="595.5" y="-219.0115" font-family="Helvetica,sans-Serif" font-size="10.00" fill="#000000">m_int_fid_map</text>
</g>
<!-- Node31 -->
<g id="node30" class="node">
<title>Node31</title>
<g id="a_node30"><a xlink:href="classamr__wind_1_1_physics_mgr.html" target="_top" xlink:title="A collection of Physics models instances that are active during a simulation. ">
<polygon fill="#ffffff" stroke="#000000" points="1291.5,-377.5115 1291.5,-396.5115 1407.5,-396.5115 1407.5,-377.5115 1291.5,-377.5115"/>
<text text-anchor="middle" x="1349.5" y="-384.5115" font-family="Helvetica,sans-Serif" font-size="10.00" fill="#000000">amr_wind::PhysicsMgr</text>
</a>
</g>
</g>
<!-- Node31&#45;&gt;Node4 -->
<g id="edge44" class="edge">
<title>Node31&#45;&gt;Node4</title>
<path fill="none" stroke="#9a32cd" stroke-dasharray="5,2" d="M1403.0576,-374.7131C1409.8464,-372.7038 1416.6384,-370.4657 1423,-368.0115 1491.305,-341.6614 1566.6856,-297.0418 1598.2681,-277.5738"/>
<polygon fill="#9a32cd" stroke="#9a32cd" points="1401.8453,-371.4181 1393.1641,-377.4917 1403.738,-378.1574 1401.8453,-371.4181"/>
<text text-anchor="middle" x="1477.5" y="-362.0115" font-family="Helvetica,sans-Serif" font-size="10.00" fill="#000000"> m_physics_mgr</text>
</g>
<!-- Node32&#45;&gt;Node31 -->
<g id="edge45" class="edge">
<title>Node32&#45;&gt;Node31</title>
<path fill="none" stroke="#191970" d="M1111.4477,-382.3966C1166.052,-383.4552 1240.369,-384.8959 1291.3606,-385.8845"/>
<polygon fill="#191970" stroke="#191970" points="1111.2132,-378.8915 1101.1472,-382.197 1111.0775,-385.8902 1111.2132,-378.8915"/>
</g>
</g>
</svg>
        <g id="navigator" transform="translate(0 0)" fill="#404254">
                <rect fill="#f2f5e9" fill-opacity="0.5" stroke="#606060" stroke-width=".5" x="0" y="0" width="60" height="60"/>
                <use id="zoomplus" xlink:href="#zoomPlus" x="17" y="9" onmousedown="handleZoom(evt,'in')"/>
                <use id="zoomminus" xlink:href="#zoomMin" x="42" y="9" onmousedown="handleZoom(evt,'out')"/>
                <use id="reset" xlink:href="#resetDef" x="30" y="36" onmousedown="handleReset()"/>
                <g id="arrowUp" xlink:href="#dirArrow" transform="translate(30 24)" onmousedown="handlePan(0,-1)">
                  <use xlink:href="#rim" fill="#404040">
                        <set attributeName="fill" to="#808080" begin="arrowUp.mouseover" end="arrowUp.mouseout"/>
                  </use>
                  <path fill="none" stroke="white" stroke-width="1.5" d="M0,-3.0v7 M-2.5,-0.5L0,-3.0L2.5,-0.5"/>
                </g>
                <g id="arrowRight" xlink:href="#dirArrow" transform="rotate(90) translate(36 -43)" onmousedown="handlePan(1,0)">
                  <use xlink:href="#rim" fill="#404040">
                        <set attributeName="fill" to="#808080" begin="arrowRight.mouseover" end="arrowRight.mouseout"/>
                  </use>
                  <path fill="none" stroke="white" stroke-width="1.5" d="M0,-3.0v7 M-2.5,-0.5L0,-3.0L2.5,-0.5"/>
                </g>
                <g id="arrowDown" xlink:href="#dirArrow" transform="rotate(180) translate(-30 -48)" onmousedown="handlePan(0,1)">
                  <use xlink:href="#rim" fill="#404040">
                        <set attributeName="fill" to="#808080" begin="arrowDown.mouseover" end="arrowDown.mouseout"/>
                  </use>
                  <path fill="none" stroke="white" stroke-width="1.5" d="M0,-3.0v7 M-2.5,-0.5L0,-3.0L2.5,-0.5"/>
                </g>
                <g id="arrowLeft" xlink:href="#dirArrow" transform="rotate(270) translate(-36 17)" onmousedown="handlePan(-1,0)">
                  <use xlink:href="#rim" fill="#404040">
                        <set attributeName="fill" to="#808080" begin="arrowLeft.mouseover" end="arrowLeft.mouseout"/>
                  </use>
                  <path fill="none" stroke="white" stroke-width="1.5" d="M0,-3.0v7 M-2.5,-0.5L0,-3.0L2.5,-0.5"/>
                </g>
        </g>
        <svg viewBox="0 0 15 15" width="100%" height="30px" preserveAspectRatio="xMaxYMin meet">
         <g id="arrow_out" transform="scale(0.3 0.3)">
          <a xlink:href="classamr__wind_1_1sampling_1_1_line_sampler__coll__graph_org.svg" target="_base">
           <rect id="button" ry="5" rx="5" y="6" x="6" height="38" width="38"
                fill="#f2f5e9" fill-opacity="0.5" stroke="#606060" stroke-width="1.0"/>
           <path id="arrow"
             d="M 11.500037,31.436501 C 11.940474,20.09759 22.043105,11.32322 32.158766,21.979434 L 37.068811,17.246167 C 37.068811,17.246167 37.088388,32 37.088388,32 L 22.160133,31.978069 C 22.160133,31.978069 26.997745,27.140456 26.997745,27.140456 C 18.528582,18.264221 13.291696,25.230495 11.500037,31.436501 z"
             style="fill:#404040;"/>
          </a>
         </g>
        </svg>
</svg>
