<?xml version="1.0" encoding="UTF-8" standalone="no"?>
<!DOCTYPE svg PUBLIC "-//W3C//DTD SVG 1.1//EN"
 "http://www.w3.org/Graphics/SVG/1.1/DTD/svg11.dtd">
<!-- Generated by graphviz version 2.40.1 (20161225.0304)
 -->
<!-- Title: amr_wind::BoussinesqBubble Pages: 1 -->
<!--zoomable 182 -->
<svg id="main" version="1.1" xmlns="http://www.w3.org/2000/svg" xmlns:xlink="http://www.w3.org/1999/xlink" xml:space="preserve" onload="init(evt)">
<style type="text/css"><![CDATA[
.edge:hover path { stroke: red; }
.edge:hover polygon { stroke: red; fill: red; }
]]></style>
<script type="text/javascript"><![CDATA[
var edges = document.getElementsByTagName('g');
if (edges && edges.length) {
  for (var i=0;i<edges.length;i++) {
    if (edges[i].id.substr(0,4)=='edge') {
      edges[i].setAttribute('class','edge');
    }
  }
}
]]></script>
        <defs>
                <circle id="rim" cx="0" cy="0" r="7"/>
                <circle id="rim2" cx="0" cy="0" r="3.5"/>
                <g id="zoomPlus">
                        <use xlink:href="#rim" fill="#404040">
                                <set attributeName="fill" to="#808080" begin="zoomplus.mouseover" end="zoomplus.mouseout"/>
                        </use>
                        <path d="M-4,0h8M0,-4v8" fill="none" stroke="white" stroke-width="1.5" pointer-events="none"/>
                </g>
                <g id="zoomMin">
                        <use xlink:href="#rim" fill="#404040">
                                <set attributeName="fill" to="#808080" begin="zoomminus.mouseover" end="zoomminus.mouseout"/>
                        </use>
                        <path d="M-4,0h8" fill="none" stroke="white" stroke-width="1.5" pointer-events="none"/>
                </g>
                <g id="dirArrow">
                        <path fill="none" stroke="white" stroke-width="1.5" d="M0,-3.0v7 M-2.5,-0.5L0,-3.0L2.5,-0.5"/>
                </g>
               <g id="resetDef">
                       <use xlink:href="#rim2" fill="#404040">
                               <set attributeName="fill" to="#808080" begin="reset.mouseover" end="reset.mouseout"/>
                       </use>
               </g>
        </defs>

<script type="text/javascript">
var viewWidth = 1315;
var viewHeight = 182;
var sectionId = 'dynsection-1';
</script>
<script xlink:href="svgpan.js"/>
<svg id="graph" class="graph">
<g id="viewport">
<title>amr_wind::BoussinesqBubble</title>
<polygon fill="#ffffff" stroke="transparent" points="-4,4 -4,-177.5 1311,-177.5 1311,4 -4,4"/>
<!-- Node2 -->
<g id="node1" class="node">
<title>Node2</title>
<polygon fill="#bfbfbf" stroke="#000000" points="1161,-100.5 1161,-119.5 1307,-119.5 1307,-100.5 1161,-100.5"/>
<text text-anchor="middle" x="1234" y="-107.5" font-family="Helvetica,sans-Serif" font-size="10.00" fill="#000000">amr_wind::BoussinesqBubble</text>
</g>
<!-- Node3 -->
<g id="node2" class="node">
<title>Node3</title>
<polygon fill="#ffffff" stroke="#bfbfbf" points="946,-143 946,-173 1056,-173 1056,-143 946,-143"/>
<text text-anchor="start" x="954" y="-161" font-family="Helvetica,sans-Serif" font-size="10.00" fill="#000000">Physics::Register&lt;</text>
<text text-anchor="middle" x="1001" y="-150" font-family="Helvetica,sans-Serif" font-size="10.00" fill="#000000"> BoussinesqBubble &gt;</text>
</g>
<!-- Node3&#45;&gt;Node2 -->
<g id="edge1" class="edge">
<title>Node3&#45;&gt;Node2</title>
<path fill="none" stroke="#191970" d="M1066.3461,-155.1167C1090.6405,-153.1164 1118.2952,-149.7303 1143,-144 1167.808,-138.2458 1195.0107,-127.4506 1213.1519,-119.5632"/>
<polygon fill="#191970" stroke="#191970" points="1065.8639,-151.6432 1056.1584,-155.892 1066.3951,-158.6231 1065.8639,-151.6432"/>
</g>
<!-- Node4 -->
<g id="node3" class="node">
<title>Node4</title>
<g id="a_node3"><a xlink:href="classamr__wind_1_1_field.html" target="_top" xlink:title="Computational fieldThis is an abstraction of a collection of MultiFabs over multiple levels...">
<polygon fill="#ffffff" stroke="#000000" points="958,-102.5 958,-121.5 1044,-121.5 1044,-102.5 958,-102.5"/>
<text text-anchor="middle" x="1001" y="-109.5" font-family="Helvetica,sans-Serif" font-size="10.00" fill="#000000">amr_wind::Field</text>
</a>
</g>
</g>
<!-- Node4&#45;&gt;Node2 -->
<g id="edge2" class="edge">
<title>Node4&#45;&gt;Node2</title>
<path fill="none" stroke="#9a32cd" stroke-dasharray="5,2" d="M1054.4728,-111.2217C1061.0498,-111.1395 1067.6788,-111.063 1074,-111 1102.3325,-110.7174 1133.4879,-110.5013 1160.7189,-110.3435"/>
<polygon fill="#9a32cd" stroke="#9a32cd" points="1054.186,-107.725 1044.2323,-111.3546 1054.2769,-114.7244 1054.186,-107.725"/>
<text text-anchor="middle" x="1108.5" y="-136" font-family="Helvetica,sans-Serif" font-size="10.00" fill="#000000"> m_temperature</text>
<text text-anchor="middle" x="1108.5" y="-125" font-family="Helvetica,sans-Serif" font-size="10.00" fill="#000000">m_density</text>
<text text-anchor="middle" x="1108.5" y="-114" font-family="Helvetica,sans-Serif" font-size="10.00" fill="#000000">m_velocity</text>
</g>
<!-- Node5 -->
<g id="node4" class="node">
<title>Node5</title>
<g id="a_node4"><a xlink:title="STL class. ">
<polygon fill="#ffffff" stroke="#bfbfbf" points="217,-141.5 217,-160.5 277,-160.5 277,-141.5 217,-141.5"/>
<text text-anchor="middle" x="247" y="-148.5" font-family="Helvetica,sans-Serif" font-size="10.00" fill="#000000">std::string</text>
</a>
</g>
</g>
<!-- Node5&#45;&gt;Node4 -->
<g id="edge3" class="edge">
<title>Node5&#45;&gt;Node4</title>
<path fill="none" stroke="#9a32cd" stroke-dasharray="5,2" d="M287.4204,-150.5367C333.8923,-149.9504 412.4632,-148.7952 480,-147 591.1438,-144.0456 618.9321,-143.0597 730,-138 786.4716,-135.4274 800.5575,-134.1454 857,-131 888.5566,-129.2414 896.6589,-131.0805 928,-127 938.3924,-125.6469 949.5166,-123.6484 959.8691,-121.5484"/>
<polygon fill="#9a32cd" stroke="#9a32cd" points="287.1213,-147.04 277.1653,-150.6633 287.2078,-154.0395 287.1213,-147.04"/>
<text text-anchor="middle" x="698" y="-144" font-family="Helvetica,sans-Serif" font-size="10.00" fill="#000000"> m_name</text>
</g>
<!-- Node8 -->
<g id="node7" class="node">
<title>Node8</title>
<polygon fill="#ffffff" stroke="#bfbfbf" points="518,-97 518,-127 628,-127 628,-97 518,-97"/>
<text text-anchor="start" x="526" y="-115" font-family="Helvetica,sans-Serif" font-size="10.00" fill="#000000">std::unordered_map</text>
<text text-anchor="middle" x="573" y="-104" font-family="Helvetica,sans-Serif" font-size="10.00" fill="#000000">&lt; std::string, size_t &gt;</text>
</g>
<!-- Node5&#45;&gt;Node8 -->
<g id="edge7" class="edge">
<title>Node5&#45;&gt;Node8</title>
<path fill="none" stroke="#9a32cd" stroke-dasharray="5,2" d="M287.2378,-143.8198C303.0319,-141.145 321.3351,-138.2223 338,-136 399.383,-127.8144 470.1134,-120.9353 517.8081,-116.6693"/>
<polygon fill="#9a32cd" stroke="#9a32cd" points="286.5273,-140.3905 277.2635,-145.5318 287.7115,-147.2896 286.5273,-140.3905"/>
<text text-anchor="middle" x="409" y="-139" font-family="Helvetica,sans-Serif" font-size="10.00" fill="#000000"> keys</text>
</g>
<!-- Node6 -->
<g id="node5" class="node">
<title>Node6</title>
<g id="a_node5"><a xlink:title="STL class. ">
<polygon fill="#ffffff" stroke="#bfbfbf" points="0,-136 0,-166 95,-166 95,-136 0,-136"/>
<text text-anchor="start" x="8" y="-154" font-family="Helvetica,sans-Serif" font-size="10.00" fill="#000000">std::basic_string&lt;</text>
<text text-anchor="middle" x="47.5" y="-143" font-family="Helvetica,sans-Serif" font-size="10.00" fill="#000000"> char &gt;</text>
</a>
</g>
</g>
<!-- Node6&#45;&gt;Node5 -->
<g id="edge4" class="edge">
<title>Node6&#45;&gt;Node5</title>
<path fill="none" stroke="#191970" d="M105.0651,-151C141.5824,-151 187.3458,-151 216.8729,-151"/>
<polygon fill="#191970" stroke="#191970" points="105.0318,-147.5001 95.0318,-151 105.0317,-154.5001 105.0318,-147.5001"/>
</g>
<!-- Node7 -->
<g id="node6" class="node">
<title>Node7</title>
<g id="a_node6"><a xlink:href="classamr__wind_1_1_field_repo.html" target="_top" xlink:title="Field RepositoryFieldRepo is a database that manages handling of fields used during a simulation...">
<polygon fill="#ffffff" stroke="#000000" points="748,-102.5 748,-121.5 857,-121.5 857,-102.5 748,-102.5"/>
<text text-anchor="middle" x="802.5" y="-109.5" font-family="Helvetica,sans-Serif" font-size="10.00" fill="#000000">amr_wind::FieldRepo</text>
</a>
</g>
</g>
<!-- Node7&#45;&gt;Node4 -->
<g id="edge5" class="edge">
<title>Node7&#45;&gt;Node4</title>
<path fill="none" stroke="#9a32cd" stroke-dasharray="5,2" d="M867.3006,-112C897.0255,-112 931.4569,-112 957.9337,-112"/>
<polygon fill="#9a32cd" stroke="#9a32cd" points="867.0036,-108.5001 857.0036,-112 867.0035,-115.5001 867.0036,-108.5001"/>
<text text-anchor="middle" x="901.5" y="-115" font-family="Helvetica,sans-Serif" font-size="10.00" fill="#000000"> m_repo</text>
</g>
<!-- Node8&#45;&gt;Node7 -->
<g id="edge6" class="edge">
<title>Node8&#45;&gt;Node7</title>
<path fill="none" stroke="#9a32cd" stroke-dasharray="5,2" d="M638.2711,-112C672.8523,-112 714.8487,-112 747.7164,-112"/>
<polygon fill="#9a32cd" stroke="#9a32cd" points="638.2631,-108.5001 628.263,-112 638.263,-115.5001 638.2631,-108.5001"/>
<text text-anchor="middle" x="698" y="-126" font-family="Helvetica,sans-Serif" font-size="10.00" fill="#000000"> m_fid_map</text>
<text text-anchor="middle" x="698" y="-115" font-family="Helvetica,sans-Serif" font-size="10.00" fill="#000000">m_int_fid_map</text>
</g>
<!-- Node9 -->
<g id="node8" class="node">
<title>Node9</title>
<g id="a_node8"><a xlink:title="STL class. ">
<polygon fill="#ffffff" stroke="#bfbfbf" points="195.5,-88 195.5,-118 298.5,-118 298.5,-88 195.5,-88"/>
<text text-anchor="start" x="203.5" y="-106" font-family="Helvetica,sans-Serif" font-size="10.00" fill="#000000">std::unordered_map</text>
<text text-anchor="middle" x="247" y="-95" font-family="Helvetica,sans-Serif" font-size="10.00" fill="#000000">&lt; K, T &gt;</text>
</a>
</g>
</g>
<!-- Node9&#45;&gt;Node8 -->
<g id="edge8" class="edge">
<title>Node9&#45;&gt;Node8</title>
<path fill="none" stroke="#ffa500" stroke-dasharray="5,2" d="M308.9831,-102.2276C318.6946,-102.133 328.6191,-102.0515 338,-102 401.1102,-101.6533 416.9794,-98.6215 480,-102 492.1617,-102.652 505.1797,-103.7802 517.5083,-105.0498"/>
<polygon fill="#ffa500" stroke="#ffa500" points="308.9352,-98.7279 298.9717,-102.3304 309.0071,-105.7275 308.9352,-98.7279"/>
<text text-anchor="middle" x="409" y="-105" font-family="Helvetica,sans-Serif" font-size="10.00" fill="#000000"> &lt; std::string, size_t &gt;</text>
</g>
<!-- Node10 -->
<g id="node9" class="node">
<title>Node10</title>
<polygon fill="#ffffff" stroke="#bfbfbf" points="33,-93.5 33,-112.5 62,-112.5 62,-93.5 33,-93.5"/>
<text text-anchor="middle" x="47.5" y="-100.5" font-family="Helvetica,sans-Serif" font-size="10.00" fill="#000000">K</text>
</g>
<!-- Node10&#45;&gt;Node9 -->
<g id="edge9" class="edge">
<title>Node10&#45;&gt;Node9</title>
<path fill="none" stroke="#9a32cd" stroke-dasharray="5,2" d="M72.3649,-103C102.9293,-103 155.5976,-103 195.1218,-103"/>
<polygon fill="#9a32cd" stroke="#9a32cd" points="72.1697,-99.5001 62.1697,-103 72.1697,-106.5001 72.1697,-99.5001"/>
<text text-anchor="middle" x="134.5" y="-106" font-family="Helvetica,sans-Serif" font-size="10.00" fill="#000000"> keys</text>
</g>
<!-- Node11 -->
<g id="node10" class="node">
<title>Node11</title>
<polygon fill="#ffffff" stroke="#bfbfbf" points="33,-40.5 33,-59.5 62,-59.5 62,-40.5 33,-40.5"/>
<text text-anchor="middle" x="47.5" y="-47.5" font-family="Helvetica,sans-Serif" font-size="10.00" fill="#000000">T</text>
</g>
<!-- Node11&#45;&gt;Node9 -->
<g id="edge10" class="edge">
<title>Node11&#45;&gt;Node9</title>
<path fill="none" stroke="#9a32cd" stroke-dasharray="5,2" d="M71.964,-56.4992C102.467,-64.6028 155.4243,-78.6716 195.1218,-89.2178"/>
<polygon fill="#9a32cd" stroke="#9a32cd" points="72.7332,-53.0822 62.1697,-53.8972 70.9358,-59.8475 72.7332,-53.0822"/>
<text text-anchor="middle" x="134.5" y="-82" font-family="Helvetica,sans-Serif" font-size="10.00" fill="#000000"> elements</text>
</g>
<!-- Node14 -->
<g id="node13" class="node">
<title>Node14</title>
<g id="a_node13"><a xlink:title="STL class. ">
<polygon fill="#ffffff" stroke="#bfbfbf" points="194.5,-.5 194.5,-19.5 299.5,-19.5 299.5,-.5 194.5,-.5"/>
<text text-anchor="middle" x="247" y="-7.5" font-family="Helvetica,sans-Serif" font-size="10.00" fill="#000000">std::unique_ptr&lt; T &gt;</text>
</a>
</g>
</g>
<!-- Node11&#45;&gt;Node14 -->
<g id="edge14" class="edge">
<title>Node11&#45;&gt;Node14</title>
<path fill="none" stroke="#9a32cd" stroke-dasharray="5,2" d="M71.6773,-41.6798C83.9405,-37.7003 99.1375,-33.1328 113,-30 139.6139,-23.9855 169.6221,-19.3152 194.4842,-16.0059"/>
<polygon fill="#9a32cd" stroke="#9a32cd" points="70.5477,-38.3669 62.1601,-44.8398 72.7535,-45.0103 70.5477,-38.3669"/>
<text text-anchor="middle" x="134.5" y="-33" font-family="Helvetica,sans-Serif" font-size="10.00" fill="#000000"> ptr</text>
</g>
<!-- Node12 -->
<g id="node11" class="node">
<title>Node12</title>
<polygon fill="#ffffff" stroke="#bfbfbf" points="498,-34.5 498,-75.5 648,-75.5 648,-34.5 498,-34.5"/>
<text text-anchor="start" x="506" y="-63.5" font-family="Helvetica,sans-Serif" font-size="10.00" fill="#000000">std::unique_ptr&lt; amr</text>
<text text-anchor="start" x="506" y="-52.5" font-family="Helvetica,sans-Serif" font-size="10.00" fill="#000000">_wind::BoussinesqBubbleField</text>
<text text-anchor="middle" x="573" y="-41.5" font-family="Helvetica,sans-Serif" font-size="10.00" fill="#000000">Init &gt;</text>
</g>
<!-- Node12&#45;&gt;Node2 -->
<g id="edge11" class="edge">
<title>Node12&#45;&gt;Node2</title>
<path fill="none" stroke="#9a32cd" stroke-dasharray="5,2" d="M658.3279,-61.2803C754.8705,-68.4867 916.7969,-80.8776 1056,-93 1090.4829,-96.0029 1128.6947,-99.6149 1160.8458,-102.7358"/>
<polygon fill="#9a32cd" stroke="#9a32cd" points="658.5603,-57.788 648.3278,-60.5349 658.0399,-64.7686 658.5603,-57.788"/>
<text text-anchor="middle" x="901.5" y="-85" font-family="Helvetica,sans-Serif" font-size="10.00" fill="#000000"> m_field_init</text>
</g>
<!-- Node13 -->
<g id="node12" class="node">
<title>Node13</title>
<g id="a_node12"><a xlink:href="classamr__wind_1_1_boussinesq_bubble_field_init.html" target="_top" xlink:title="Initialize BoussinesqBubble fields. ">
<polygon fill="#ffffff" stroke="#000000" points="174,-39 174,-69 320,-69 320,-39 174,-39"/>
<text text-anchor="start" x="182" y="-57" font-family="Helvetica,sans-Serif" font-size="10.00" fill="#000000">amr_wind::BoussinesqBubble</text>
<text text-anchor="middle" x="247" y="-46" font-family="Helvetica,sans-Serif" font-size="10.00" fill="#000000">FieldInit</text>
</a>
</g>
</g>
<!-- Node13&#45;&gt;Node12 -->
<g id="edge12" class="edge">
<title>Node13&#45;&gt;Node12</title>
<path fill="none" stroke="#9a32cd" stroke-dasharray="5,2" d="M330.2934,-54.2555C381.945,-54.4139 447.7615,-54.6158 497.8221,-54.7694"/>
<polygon fill="#9a32cd" stroke="#9a32cd" points="330.1715,-50.7552 320.1608,-54.2244 330.1499,-57.7552 330.1715,-50.7552"/>
<text text-anchor="middle" x="409" y="-58" font-family="Helvetica,sans-Serif" font-size="10.00" fill="#000000"> ptr</text>
</g>
<!-- Node14&#45;&gt;Node12 -->
<g id="edge13" class="edge">
<title>Node14&#45;&gt;Node12</title>
<path fill="none" stroke="#ffa500" stroke-dasharray="5,2" d="M309.7144,-11.8646C356.8556,-14.0501 422.8664,-18.7811 480,-29 488.2515,-30.4759 496.8275,-32.367 505.2863,-34.455"/>
<polygon fill="#ffa500" stroke="#ffa500" points="309.7969,-8.3649 299.6532,-11.4234 309.4902,-15.3582 309.7969,-8.3649"/>
<text text-anchor="start" x="338" y="-43" font-family="Helvetica,sans-Serif" font-size="10.00" fill="#000000"> &lt; amr_wind::BoussinesqBubble</text>
<text text-anchor="middle" x="409" y="-32" font-family="Helvetica,sans-Serif" font-size="10.00" fill="#000000">FieldInit &gt;</text>
</g>
</g>
</svg>
        <g id="navigator" transform="translate(0 0)" fill="#404254">
                <rect fill="#f2f5e9" fill-opacity="0.5" stroke="#606060" stroke-width=".5" x="0" y="0" width="60" height="60"/>
                <use id="zoomplus" xlink:href="#zoomPlus" x="17" y="9" onmousedown="handleZoom(evt,'in')"/>
                <use id="zoomminus" xlink:href="#zoomMin" x="42" y="9" onmousedown="handleZoom(evt,'out')"/>
                <use id="reset" xlink:href="#resetDef" x="30" y="36" onmousedown="handleReset()"/>
                <g id="arrowUp" xlink:href="#dirArrow" transform="translate(30 24)" onmousedown="handlePan(0,-1)">
                  <use xlink:href="#rim" fill="#404040">
                        <set attributeName="fill" to="#808080" begin="arrowUp.mouseover" end="arrowUp.mouseout"/>
                  </use>
                  <path fill="none" stroke="white" stroke-width="1.5" d="M0,-3.0v7 M-2.5,-0.5L0,-3.0L2.5,-0.5"/>
                </g>
                <g id="arrowRight" xlink:href="#dirArrow" transform="rotate(90) translate(36 -43)" onmousedown="handlePan(1,0)">
                  <use xlink:href="#rim" fill="#404040">
                        <set attributeName="fill" to="#808080" begin="arrowRight.mouseover" end="arrowRight.mouseout"/>
                  </use>
                  <path fill="none" stroke="white" stroke-width="1.5" d="M0,-3.0v7 M-2.5,-0.5L0,-3.0L2.5,-0.5"/>
                </g>
                <g id="arrowDown" xlink:href="#dirArrow" transform="rotate(180) translate(-30 -48)" onmousedown="handlePan(0,1)">
                  <use xlink:href="#rim" fill="#404040">
                        <set attributeName="fill" to="#808080" begin="arrowDown.mouseover" end="arrowDown.mouseout"/>
                  </use>
                  <path fill="none" stroke="white" stroke-width="1.5" d="M0,-3.0v7 M-2.5,-0.5L0,-3.0L2.5,-0.5"/>
                </g>
                <g id="arrowLeft" xlink:href="#dirArrow" transform="rotate(270) translate(-36 17)" onmousedown="handlePan(-1,0)">
                  <use xlink:href="#rim" fill="#404040">
                        <set attributeName="fill" to="#808080" begin="arrowLeft.mouseover" end="arrowLeft.mouseout"/>
                  </use>
                  <path fill="none" stroke="white" stroke-width="1.5" d="M0,-3.0v7 M-2.5,-0.5L0,-3.0L2.5,-0.5"/>
                </g>
        </g>
        <svg viewBox="0 0 15 15" width="100%" height="30px" preserveAspectRatio="xMaxYMin meet">
         <g id="arrow_out" transform="scale(0.3 0.3)">
          <a xlink:href="classamr__wind_1_1_boussinesq_bubble__coll__graph_org.svg" target="_base">
           <rect id="button" ry="5" rx="5" y="6" x="6" height="38" width="38"
                fill="#f2f5e9" fill-opacity="0.5" stroke="#606060" stroke-width="1.0"/>
           <path id="arrow"
             d="M 11.500037,31.436501 C 11.940474,20.09759 22.043105,11.32322 32.158766,21.979434 L 37.068811,17.246167 C 37.068811,17.246167 37.088388,32 37.088388,32 L 22.160133,31.978069 C 22.160133,31.978069 26.997745,27.140456 26.997745,27.140456 C 18.528582,18.264221 13.291696,25.230495 11.500037,31.436501 z"
             style="fill:#404040;"/>
          </a>
         </g>
        </svg>
</svg>
