<?xml version="1.0" encoding="UTF-8" standalone="no"?>
<!DOCTYPE svg PUBLIC "-//W3C//DTD SVG 1.1//EN"
 "http://www.w3.org/Graphics/SVG/1.1/DTD/svg11.dtd">
<!-- Generated by graphviz version 2.40.1 (20161225.0304)
 -->
<!-- Title: amr_wind::turbulence::TurbModelBase&lt; Transport &gt; Pages: 1 -->
<svg width="1257pt" height="112pt"
 viewBox="0.00 0.00 1257.00 112.00" xmlns="http://www.w3.org/2000/svg" xmlns:xlink="http://www.w3.org/1999/xlink">
<g id="graph0" class="graph" transform="scale(1 1) rotate(0) translate(4 108)">
<title>amr_wind::turbulence::TurbModelBase&lt; Transport &gt;</title>
<polygon fill="#ffffff" stroke="transparent" points="-4,4 -4,-108 1253,-108 1253,4 -4,4"/>
<!-- Node0 -->
<g id="node1" class="node">
<title>Node0</title>
<polygon fill="#bfbfbf" stroke="#000000" points="733,-12.5 733,-42.5 883,-42.5 883,-12.5 733,-12.5"/>
<text text-anchor="start" x="741" y="-30.5" font-family="Helvetica,sans-Serif" font-size="10.00" fill="#000000">amr_wind::turbulence</text>
<text text-anchor="middle" x="808" y="-19.5" font-family="Helvetica,sans-Serif" font-size="10.00" fill="#000000">::TurbModelBase&lt; Transport &gt;</text>
</g>
<!-- Node5 -->
<g id="node6" class="node">
<title>Node5</title>
<g id="a_node6"><a xlink:href="classamr__wind_1_1turbulence_1_1_one_eq_ksgs.html" target="_top" xlink:title="Base class for 1&#45;Equation subgrid scale TKE turbulence model. ">
<polygon fill="#ffffff" stroke="#000000" points="922.5,-49.5 922.5,-79.5 1056.5,-79.5 1056.5,-49.5 922.5,-49.5"/>
<text text-anchor="start" x="930.5" y="-67.5" font-family="Helvetica,sans-Serif" font-size="10.00" fill="#000000">amr_wind::turbulence</text>
<text text-anchor="middle" x="989.5" y="-56.5" font-family="Helvetica,sans-Serif" font-size="10.00" fill="#000000">::OneEqKsgs&lt; Transport &gt;</text>
</a>
</g>
</g>
<!-- Node0&#45;&gt;Node5 -->
<g id="edge5" class="edge">
<title>Node0&#45;&gt;Node5</title>
<path fill="none" stroke="#191970" d="M891.6649,-44.5557C901.9878,-46.6601 912.4337,-48.7895 922.464,-50.8343"/>
<polygon fill="#191970" stroke="#191970" points="892.3206,-41.1174 881.823,-42.5493 890.9223,-47.9763 892.3206,-41.1174"/>
</g>
<!-- Node8 -->
<g id="node9" class="node">
<title>Node8</title>
<g id="a_node9"><a xlink:href="classamr__wind_1_1turbulence_1_1_smagorinsky.html" target="_top" xlink:title="Smagorinsky LES Model. ">
<polygon fill="#ffffff" stroke="#000000" points="920,-.5 920,-30.5 1059,-30.5 1059,-.5 920,-.5"/>
<text text-anchor="start" x="928" y="-18.5" font-family="Helvetica,sans-Serif" font-size="10.00" fill="#000000">amr_wind::turbulence</text>
<text text-anchor="middle" x="989.5" y="-7.5" font-family="Helvetica,sans-Serif" font-size="10.00" fill="#000000">::Smagorinsky&lt; Transport &gt;</text>
</a>
</g>
</g>
<!-- Node0&#45;&gt;Node8 -->
<g id="edge8" class="edge">
<title>Node0&#45;&gt;Node8</title>
<path fill="none" stroke="#191970" d="M893.2013,-21.8669C902.1626,-21.2744 911.1964,-20.6771 919.9513,-20.0983"/>
<polygon fill="#191970" stroke="#191970" points="892.8804,-18.3803 883.1332,-22.5325 893.3423,-25.3651 892.8804,-18.3803"/>
</g>
<!-- Node1 -->
<g id="node2" class="node">
<title>Node1</title>
<g id="a_node2"><a xlink:href="classamr__wind_1_1turbulence_1_1_turb_model.html" target="_top" xlink:title="Turbulence model with a specific transport modelThis templated class allows turbulence model to be sp...">
<polygon fill="#ffffff" stroke="#000000" points="568,-12.5 568,-42.5 696,-42.5 696,-12.5 568,-12.5"/>
<text text-anchor="start" x="576" y="-30.5" font-family="Helvetica,sans-Serif" font-size="10.00" fill="#000000">amr_wind::turbulence</text>
<text text-anchor="middle" x="632" y="-19.5" font-family="Helvetica,sans-Serif" font-size="10.00" fill="#000000">::TurbModel&lt; Transport &gt;</text>
</a>
</g>
</g>
<!-- Node1&#45;&gt;Node0 -->
<g id="edge1" class="edge">
<title>Node1&#45;&gt;Node0</title>
<path fill="none" stroke="#191970" d="M706.2858,-27.5C715.108,-27.5 724.1187,-27.5 732.9514,-27.5"/>
<polygon fill="#191970" stroke="#191970" points="706.0379,-24.0001 696.0379,-27.5 706.0379,-31.0001 706.0379,-24.0001"/>
</g>
<!-- Node2 -->
<g id="node3" class="node">
<title>Node2</title>
<g id="a_node3"><a xlink:href="classamr__wind_1_1turbulence_1_1_turbulence_model.html" target="_top" xlink:title="Abstract representation of a turbulence modelThis class is an abstract representation of a turbulence...">
<polygon fill="#ffffff" stroke="#000000" points="421,-12.5 421,-42.5 531,-42.5 531,-12.5 421,-12.5"/>
<text text-anchor="start" x="429" y="-30.5" font-family="Helvetica,sans-Serif" font-size="10.00" fill="#000000">amr_wind::turbulence</text>
<text text-anchor="middle" x="476" y="-19.5" font-family="Helvetica,sans-Serif" font-size="10.00" fill="#000000">::TurbulenceModel</text>
</a>
</g>
</g>
<!-- Node2&#45;&gt;Node1 -->
<g id="edge2" class="edge">
<title>Node2&#45;&gt;Node1</title>
<path fill="none" stroke="#191970" d="M541.5668,-27.5C550.3009,-27.5 559.2485,-27.5 567.9562,-27.5"/>
<polygon fill="#191970" stroke="#191970" points="541.439,-24.0001 531.439,-27.5 541.439,-31.0001 541.439,-24.0001"/>
</g>
<!-- Node3 -->
<g id="node4" class="node">
<title>Node3</title>
<g id="a_node4"><a xlink:href="structamr__wind_1_1_factory.html" target="_top" xlink:title="amr_wind::Factory\&lt;\l TurbulenceModel, CFDSim &amp;\&gt;">
<polygon fill="#ffffff" stroke="#000000" points="230,-12.5 230,-42.5 384,-42.5 384,-12.5 230,-12.5"/>
<text text-anchor="start" x="238" y="-30.5" font-family="Helvetica,sans-Serif" font-size="10.00" fill="#000000">amr_wind::Factory&lt;</text>
<text text-anchor="middle" x="307" y="-19.5" font-family="Helvetica,sans-Serif" font-size="10.00" fill="#000000"> TurbulenceModel, CFDSim &amp;&gt;</text>
</a>
</g>
</g>
<!-- Node3&#45;&gt;Node2 -->
<g id="edge3" class="edge">
<title>Node3&#45;&gt;Node2</title>
<path fill="none" stroke="#191970" d="M394.2483,-27.5C403.2566,-27.5 412.2232,-27.5 420.738,-27.5"/>
<polygon fill="#191970" stroke="#191970" points="394.0818,-24.0001 384.0817,-27.5 394.0817,-31.0001 394.0818,-24.0001"/>
</g>
<!-- Node4 -->
<g id="node5" class="node">
<title>Node4</title>
<g id="a_node5"><a xlink:href="structamr__wind_1_1_factory.html" target="_top" xlink:title="Runtime selection of options based on string keyword lookupFactory provides an automated way to regis...">
<polygon fill="#ffffff" stroke="#000000" points="0,-12.5 0,-42.5 104,-42.5 104,-12.5 0,-12.5"/>
<text text-anchor="start" x="8" y="-30.5" font-family="Helvetica,sans-Serif" font-size="10.00" fill="#000000">amr_wind::Factory&lt;</text>
<text text-anchor="middle" x="52" y="-19.5" font-family="Helvetica,sans-Serif" font-size="10.00" fill="#000000"> Base, Args &gt;</text>
</a>
</g>
</g>
<!-- Node4&#45;&gt;Node3 -->
<g id="edge4" class="edge">
<title>Node4&#45;&gt;Node3</title>
<path fill="none" stroke="#ffa500" stroke-dasharray="5,2" d="M114.2476,-27.5C149.0411,-27.5 192.7097,-27.5 229.6805,-27.5"/>
<polygon fill="#ffa500" stroke="#ffa500" points="114.2184,-24.0001 104.2184,-27.5 114.2184,-31.0001 114.2184,-24.0001"/>
<text text-anchor="start" x="122" y="-41.5" font-family="Helvetica,sans-Serif" font-size="10.00" fill="#000000"> &lt; TurbulenceModel,</text>
<text text-anchor="middle" x="167" y="-30.5" font-family="Helvetica,sans-Serif" font-size="10.00" fill="#000000"> CFDSim &amp;&gt;</text>
</g>
<!-- Node6 -->
<g id="node7" class="node">
<title>Node6</title>
<g id="a_node7"><a xlink:href="classamr__wind_1_1turbulence_1_1_one_eq_ksgs_m84.html" target="_top" xlink:title="1&#45;equation subgrid scale TKE turbulence modelImplements the model described in Moeng 1984 paper ...">
<polygon fill="#ffffff" stroke="#000000" points="1096,-73.5 1096,-103.5 1249,-103.5 1249,-73.5 1096,-73.5"/>
<text text-anchor="start" x="1104" y="-91.5" font-family="Helvetica,sans-Serif" font-size="10.00" fill="#000000">amr_wind::turbulence</text>
<text text-anchor="middle" x="1172.5" y="-80.5" font-family="Helvetica,sans-Serif" font-size="10.00" fill="#000000">::OneEqKsgsM84&lt; Transport &gt;</text>
</a>
</g>
</g>
<!-- Node5&#45;&gt;Node6 -->
<g id="edge6" class="edge">
<title>Node5&#45;&gt;Node6</title>
<path fill="none" stroke="#191970" d="M1066.5827,-74.6092C1076.2533,-75.8775 1086.1444,-77.1747 1095.8091,-78.4422"/>
<polygon fill="#191970" stroke="#191970" points="1066.9736,-71.1306 1056.6033,-73.3004 1066.0633,-78.0711 1066.9736,-71.1306"/>
</g>
<!-- Node7 -->
<g id="node8" class="node">
<title>Node7</title>
<g id="a_node8"><a xlink:href="classamr__wind_1_1turbulence_1_1_one_eq_ksgs_s94.html" target="_top" xlink:title="1&#45;equation subgrid scale TKE turbulence modelImplements the model described in Sullivan 1994 paper ...">
<polygon fill="#ffffff" stroke="#000000" points="1096.5,-24.5 1096.5,-54.5 1248.5,-54.5 1248.5,-24.5 1096.5,-24.5"/>
<text text-anchor="start" x="1104.5" y="-42.5" font-family="Helvetica,sans-Serif" font-size="10.00" fill="#000000">amr_wind::turbulence</text>
<text text-anchor="middle" x="1172.5" y="-31.5" font-family="Helvetica,sans-Serif" font-size="10.00" fill="#000000">::OneEqKsgsS94&lt; Transport &gt;</text>
</a>
</g>
</g>
<!-- Node5&#45;&gt;Node7 -->
<g id="edge7" class="edge">
<title>Node5&#45;&gt;Node7</title>
<path fill="none" stroke="#191970" d="M1066.7439,-53.9476C1076.5718,-52.6049 1086.6246,-51.2316 1096.4338,-49.8916"/>
<polygon fill="#191970" stroke="#191970" points="1066.0375,-50.5115 1056.6033,-55.3329 1066.9851,-57.447 1066.0375,-50.5115"/>
</g>
</g>
</svg>
