<?xml version="1.0" encoding="UTF-8" standalone="no"?>
<!DOCTYPE svg PUBLIC "-//W3C//DTD SVG 1.1//EN"
 "http://www.w3.org/Graphics/SVG/1.1/DTD/svg11.dtd">
<!-- Generated by graphviz version 2.40.1 (20161225.0304)
 -->
<!-- Title: incflo::Evolve Pages: 1 -->
<svg width="266pt" height="596pt"
 viewBox="0.00 0.00 266.00 596.00" xmlns="http://www.w3.org/2000/svg" xmlns:xlink="http://www.w3.org/1999/xlink">
<g id="graph0" class="graph" transform="scale(1 1) rotate(0) translate(4 592)">
<title>incflo::Evolve</title>
<polygon fill="#ffffff" stroke="transparent" points="-4,4 -4,-592 262,-592 262,4 -4,4"/>
<!-- Node1 -->
<g id="node1" class="node">
<title>Node1</title>
<polygon fill="#bfbfbf" stroke="#000000" points="0,-284 0,-303 76,-303 76,-284 0,-284"/>
<text text-anchor="middle" x="38" y="-291" font-family="Helvetica,sans-Serif" font-size="10.00" fill="#000000">incflo::Evolve</text>
</g>
<!-- Node2 -->
<g id="node2" class="node">
<title>Node2</title>
<g id="a_node2"><a xlink:href="classamr__wind_1_1_c_f_d_sim.html#a53f6989a504570158dff0a103e968b99" target="_top" xlink:title="amr_wind::CFDSim::io\l_manager">
<polygon fill="#ffffff" stroke="#000000" points="127,-557.5 127,-587.5 243,-587.5 243,-557.5 127,-557.5"/>
<text text-anchor="start" x="135" y="-575.5" font-family="Helvetica,sans-Serif" font-size="10.00" fill="#000000">amr_wind::CFDSim::io</text>
<text text-anchor="middle" x="185" y="-564.5" font-family="Helvetica,sans-Serif" font-size="10.00" fill="#000000">_manager</text>
</a>
</g>
</g>
<!-- Node1&#45;&gt;Node2 -->
<g id="edge1" class="edge">
<title>Node1&#45;&gt;Node2</title>
<path fill="none" stroke="#191970" d="M39.5923,-303.2761C46.6448,-345.4715 76.301,-511.5219 112,-548.5 113.8648,-550.4316 115.8875,-552.2078 118.0319,-553.8412"/>
<polygon fill="#191970" stroke="#191970" points="116.5168,-557.0264 126.8285,-559.4592 120.2845,-551.1269 116.5168,-557.0264"/>
</g>
<!-- Node3 -->
<g id="node3" class="node">
<title>Node3</title>
<g id="a_node3"><a xlink:href="classamr__wind_1_1_i_o_manager.html#aae4a733a61f497223cb7b25a1c54beec" target="_top" xlink:title="Name of the checkpoint file to be read during a restart. ">
<polygon fill="#ffffff" stroke="#000000" points="128.5,-508.5 128.5,-538.5 241.5,-538.5 241.5,-508.5 128.5,-508.5"/>
<text text-anchor="start" x="136.5" y="-526.5" font-family="Helvetica,sans-Serif" font-size="10.00" fill="#000000">amr_wind::IOManager</text>
<text text-anchor="middle" x="185" y="-515.5" font-family="Helvetica,sans-Serif" font-size="10.00" fill="#000000">::restart_file</text>
</a>
</g>
</g>
<!-- Node1&#45;&gt;Node3 -->
<g id="edge2" class="edge">
<title>Node1&#45;&gt;Node3</title>
<path fill="none" stroke="#191970" d="M38.5806,-303.2745C41.0494,-335.9488 53.446,-442.5192 112,-499.5 114.2693,-501.7083 116.7452,-503.7134 119.37,-505.534"/>
<polygon fill="#191970" stroke="#191970" points="117.7988,-508.6709 128.1889,-510.7437 121.3592,-502.6439 117.7988,-508.6709"/>
</g>
<!-- Node4 -->
<g id="node4" class="node">
<title>Node4</title>
<g id="a_node4"><a xlink:href="classamr__wind_1_1_sim_time.html#a41dbe1da02ae4d42df486c64f9014eaf" target="_top" xlink:title="amr_wind::SimTime::\lnew_time">
<polygon fill="#ffffff" stroke="#000000" points="130,-459.5 130,-489.5 240,-489.5 240,-459.5 130,-459.5"/>
<text text-anchor="start" x="138" y="-477.5" font-family="Helvetica,sans-Serif" font-size="10.00" fill="#000000">amr_wind::SimTime::</text>
<text text-anchor="middle" x="185" y="-466.5" font-family="Helvetica,sans-Serif" font-size="10.00" fill="#000000">new_time</text>
</a>
</g>
</g>
<!-- Node1&#45;&gt;Node4 -->
<g id="edge3" class="edge">
<title>Node1&#45;&gt;Node4</title>
<path fill="none" stroke="#191970" d="M39.8416,-303.1244C45.5187,-330.2009 65.2695,-407.7717 112,-449.5 114.6792,-451.8924 117.5979,-454.0579 120.6767,-456.0177"/>
<polygon fill="#191970" stroke="#191970" points="119.266,-459.2372 129.7108,-461.0143 122.654,-453.1116 119.266,-459.2372"/>
</g>
<!-- Node5 -->
<g id="node5" class="node">
<title>Node5</title>
<g id="a_node5"><a xlink:href="classincflo.html#aec8ae0c6fe958f54f2bcc99b6cc7e352" target="_top" xlink:title="incflo::ComputeKineticEnergy">
<polygon fill="#ffffff" stroke="#000000" points="112,-421 112,-440 258,-440 258,-421 112,-421"/>
<text text-anchor="middle" x="185" y="-428" font-family="Helvetica,sans-Serif" font-size="10.00" fill="#000000">incflo::ComputeKineticEnergy</text>
</a>
</g>
</g>
<!-- Node1&#45;&gt;Node5 -->
<g id="edge4" class="edge">
<title>Node1&#45;&gt;Node5</title>
<path fill="none" stroke="#191970" d="M41.2305,-303.1808C49.3074,-325.8463 72.6074,-382.6181 112,-411.5 114.6403,-413.4358 117.4612,-415.1748 120.402,-416.7368"/>
<polygon fill="#191970" stroke="#191970" points="118.975,-419.9328 129.5244,-420.9123 121.8883,-413.5678 118.975,-419.9328"/>
</g>
<!-- Node6 -->
<g id="node6" class="node">
<title>Node6</title>
<g id="a_node6"><a xlink:href="classamr__wind_1_1_sim_time.html#a6876c4852c53ab6f86bba1cb09386339" target="_top" xlink:title="Advance to a new time state and update internal time states. ">
<polygon fill="#ffffff" stroke="#000000" points="130,-371.5 130,-401.5 240,-401.5 240,-371.5 130,-371.5"/>
<text text-anchor="start" x="138" y="-389.5" font-family="Helvetica,sans-Serif" font-size="10.00" fill="#000000">amr_wind::SimTime::</text>
<text text-anchor="middle" x="185" y="-378.5" font-family="Helvetica,sans-Serif" font-size="10.00" fill="#000000">new_timestep</text>
</a>
</g>
</g>
<!-- Node1&#45;&gt;Node6 -->
<g id="edge5" class="edge">
<title>Node1&#45;&gt;Node6</title>
<path fill="none" stroke="#191970" d="M46.077,-303.384C58.6892,-318.2174 84.4821,-346.227 112,-362.5 114.9605,-364.2507 118.0652,-365.8923 121.2548,-367.4288"/>
<polygon fill="#191970" stroke="#191970" points="119.859,-370.6385 130.42,-371.4847 122.6918,-364.2373 119.859,-370.6385"/>
</g>
<!-- Node7 -->
<g id="node7" class="node">
<title>Node7</title>
<g id="a_node7"><a xlink:href="classincflo.html#ae09184db23dbf56c886e48000c7685d7" target="_top" xlink:title="Perform regrid actions at a given timestep. ">
<polygon fill="#ffffff" stroke="#000000" points="139.5,-322.5 139.5,-352.5 230.5,-352.5 230.5,-322.5 139.5,-322.5"/>
<text text-anchor="start" x="147.5" y="-340.5" font-family="Helvetica,sans-Serif" font-size="10.00" fill="#000000">incflo::regrid_and</text>
<text text-anchor="middle" x="185" y="-329.5" font-family="Helvetica,sans-Serif" font-size="10.00" fill="#000000">_update</text>
</a>
</g>
</g>
<!-- Node1&#45;&gt;Node7 -->
<g id="edge6" class="edge">
<title>Node1&#45;&gt;Node7</title>
<path fill="none" stroke="#191970" d="M69.8968,-303.0473C87.3854,-308.282 109.5595,-314.9192 129.7669,-320.9676"/>
<polygon fill="#191970" stroke="#191970" points="128.916,-324.3663 139.4997,-323.8809 130.9233,-317.6603 128.916,-324.3663"/>
</g>
<!-- Node8 -->
<g id="node8" class="node">
<title>Node8</title>
<g id="a_node8"><a xlink:href="classincflo.html#a22114d65c7a744e185cb768669061fec" target="_top" xlink:title="Advance simulation state by one timestep. ">
<polygon fill="#ffffff" stroke="#000000" points="143.5,-284 143.5,-303 226.5,-303 226.5,-284 143.5,-284"/>
<text text-anchor="middle" x="185" y="-291" font-family="Helvetica,sans-Serif" font-size="10.00" fill="#000000">incflo::advance</text>
</a>
</g>
</g>
<!-- Node1&#45;&gt;Node8 -->
<g id="edge7" class="edge">
<title>Node1&#45;&gt;Node8</title>
<path fill="none" stroke="#191970" d="M76.2388,-293.5C93.6088,-293.5 114.4223,-293.5 133.17,-293.5"/>
<polygon fill="#191970" stroke="#191970" points="133.338,-297.0001 143.3379,-293.5 133.3379,-290.0001 133.338,-297.0001"/>
</g>
<!-- Node9 -->
<g id="node9" class="node">
<title>Node9</title>
<g id="a_node9"><a xlink:href="classincflo.html#a339cc34ea0a08de4eaff982226dab8bf" target="_top" xlink:title="Perform actions after a timestep. ">
<polygon fill="#ffffff" stroke="#000000" points="118.5,-246 118.5,-265 251.5,-265 251.5,-246 118.5,-246"/>
<text text-anchor="middle" x="185" y="-253" font-family="Helvetica,sans-Serif" font-size="10.00" fill="#000000">incflo::post_advance_work</text>
</a>
</g>
</g>
<!-- Node1&#45;&gt;Node9 -->
<g id="edge8" class="edge">
<title>Node1&#45;&gt;Node9</title>
<path fill="none" stroke="#191970" d="M75.0943,-283.911C94.3178,-278.9417 117.9863,-272.8233 138.4294,-267.5387"/>
<polygon fill="#191970" stroke="#191970" points="139.3667,-270.9115 148.1724,-265.0201 137.6147,-264.1343 139.3667,-270.9115"/>
</g>
<!-- Node10 -->
<g id="node10" class="node">
<title>Node10</title>
<g id="a_node10"><a xlink:href="classamr__wind_1_1_sim_time.html#a2e5adf26426dc2125954797919edd02b" target="_top" xlink:title="amr_wind::SimTime::\ltime_index">
<polygon fill="#ffffff" stroke="#000000" points="130,-196.5 130,-226.5 240,-226.5 240,-196.5 130,-196.5"/>
<text text-anchor="start" x="138" y="-214.5" font-family="Helvetica,sans-Serif" font-size="10.00" fill="#000000">amr_wind::SimTime::</text>
<text text-anchor="middle" x="185" y="-203.5" font-family="Helvetica,sans-Serif" font-size="10.00" fill="#000000">time_index</text>
</a>
</g>
</g>
<!-- Node1&#45;&gt;Node10 -->
<g id="edge9" class="edge">
<title>Node1&#45;&gt;Node10</title>
<path fill="none" stroke="#191970" d="M48.263,-283.8135C61.8912,-271.39 87.1452,-249.8579 112,-236.5 115.9567,-234.3735 120.1293,-232.3752 124.3933,-230.5079"/>
<polygon fill="#191970" stroke="#191970" points="125.9074,-233.6698 133.8258,-226.6307 123.2461,-227.1954 125.9074,-233.6698"/>
</g>
<!-- Node11 -->
<g id="node11" class="node">
<title>Node11</title>
<g id="a_node11"><a xlink:href="classamr__wind_1_1_sim_time.html#af9a046349140b654143237bb569cff00" target="_top" xlink:title="Return true if plot files should be written at this timestep. ">
<polygon fill="#ffffff" stroke="#000000" points="130,-147.5 130,-177.5 240,-177.5 240,-147.5 130,-147.5"/>
<text text-anchor="start" x="138" y="-165.5" font-family="Helvetica,sans-Serif" font-size="10.00" fill="#000000">amr_wind::SimTime::</text>
<text text-anchor="middle" x="185" y="-154.5" font-family="Helvetica,sans-Serif" font-size="10.00" fill="#000000">write_last_plot_file</text>
</a>
</g>
</g>
<!-- Node1&#45;&gt;Node11 -->
<g id="edge10" class="edge">
<title>Node1&#45;&gt;Node11</title>
<path fill="none" stroke="#191970" d="M42.2085,-283.7599C51.6498,-263.0259 76.5066,-214.239 112,-187.5 114.6749,-185.4848 117.5236,-183.6248 120.4866,-181.9089"/>
<polygon fill="#191970" stroke="#191970" points="122.373,-184.8743 129.6589,-177.1823 119.1664,-178.6519 122.373,-184.8743"/>
</g>
<!-- Node12 -->
<g id="node12" class="node">
<title>Node12</title>
<g id="a_node12"><a xlink:href="classamr__wind_1_1_i_o_manager.html#a2751c61d7bc0b302032db0ebef39e57f" target="_top" xlink:title="Write all user&#45;requested fields to disk. ">
<polygon fill="#ffffff" stroke="#000000" points="128.5,-98.5 128.5,-128.5 241.5,-128.5 241.5,-98.5 128.5,-98.5"/>
<text text-anchor="start" x="136.5" y="-116.5" font-family="Helvetica,sans-Serif" font-size="10.00" fill="#000000">amr_wind::IOManager</text>
<text text-anchor="middle" x="185" y="-105.5" font-family="Helvetica,sans-Serif" font-size="10.00" fill="#000000">::write_plot_file</text>
</a>
</g>
</g>
<!-- Node1&#45;&gt;Node12 -->
<g id="edge11" class="edge">
<title>Node1&#45;&gt;Node12</title>
<path fill="none" stroke="#191970" d="M39.8611,-283.9364C45.5894,-257.0311 65.4621,-179.952 112,-138.5 114.3258,-136.4284 116.8312,-134.5269 119.4645,-132.7816"/>
<polygon fill="#191970" stroke="#191970" points="121.3284,-135.7472 128.2463,-127.7227 117.8341,-129.6817 121.3284,-135.7472"/>
</g>
<!-- Node13 -->
<g id="node13" class="node">
<title>Node13</title>
<g id="a_node13"><a xlink:href="classamr__wind_1_1_sim_time.html#ac072a0b6439bf83a0a899dd01b486086" target="_top" xlink:title="Return true if checkpoint files should be written at this timestep. ">
<polygon fill="#ffffff" stroke="#000000" points="129.5,-49.5 129.5,-79.5 240.5,-79.5 240.5,-49.5 129.5,-49.5"/>
<text text-anchor="start" x="137.5" y="-67.5" font-family="Helvetica,sans-Serif" font-size="10.00" fill="#000000">amr_wind::SimTime::</text>
<text text-anchor="middle" x="185" y="-56.5" font-family="Helvetica,sans-Serif" font-size="10.00" fill="#000000">write_last_checkpoint</text>
</a>
</g>
</g>
<!-- Node1&#45;&gt;Node13 -->
<g id="edge12" class="edge">
<title>Node1&#45;&gt;Node13</title>
<path fill="none" stroke="#191970" d="M38.6393,-283.8457C41.294,-251.569 54.2096,-146.2574 112,-89.5 114.5626,-86.9832 117.3892,-84.7193 120.3964,-82.683"/>
<polygon fill="#191970" stroke="#191970" points="122.389,-85.5734 129.2802,-77.5259 118.8746,-79.5195 122.389,-85.5734"/>
</g>
<!-- Node14 -->
<g id="node14" class="node">
<title>Node14</title>
<g id="a_node14"><a xlink:href="classamr__wind_1_1_i_o_manager.html#adb51b0f19d9708d0d2c58d37607d8d83" target="_top" xlink:title="Write all necessary fields for restart. ">
<polygon fill="#ffffff" stroke="#000000" points="128,-.5 128,-30.5 242,-30.5 242,-.5 128,-.5"/>
<text text-anchor="start" x="136" y="-18.5" font-family="Helvetica,sans-Serif" font-size="10.00" fill="#000000">amr_wind::IOManager</text>
<text text-anchor="middle" x="185" y="-7.5" font-family="Helvetica,sans-Serif" font-size="10.00" fill="#000000">::write_checkpoint_file</text>
</a>
</g>
</g>
<!-- Node1&#45;&gt;Node14 -->
<g id="edge13" class="edge">
<title>Node1&#45;&gt;Node14</title>
<path fill="none" stroke="#191970" d="M39.6145,-283.8107C46.7598,-241.9884 76.7468,-77.3909 112,-40.5 114.1258,-38.2755 116.4578,-36.2488 118.9418,-34.4025"/>
<polygon fill="#191970" stroke="#191970" points="121.2782,-37.0691 127.8948,-28.7943 117.5622,-31.1368 121.2782,-37.0691"/>
</g>
</g>
</svg>
