<?xml version="1.0" encoding="UTF-8" standalone="no"?>
<!DOCTYPE svg PUBLIC "-//W3C//DTD SVG 1.1//EN"
 "http://www.w3.org/Graphics/SVG/1.1/DTD/svg11.dtd">
<!-- Generated by graphviz version 2.40.1 (20161225.0304)
 -->
<!-- Title: amr_wind::CollMgr&lt; Collection, Type, allow_duplicates &gt; Pages: 1 -->
<svg width="221pt" height="284pt"
 viewBox="0.00 0.00 220.50 284.00" xmlns="http://www.w3.org/2000/svg" xmlns:xlink="http://www.w3.org/1999/xlink">
<g id="graph0" class="graph" transform="scale(1 1) rotate(0) translate(4 280)">
<title>amr_wind::CollMgr&lt; Collection, Type, allow_duplicates &gt;</title>
<polygon fill="#ffffff" stroke="transparent" points="-4,4 -4,-280 216.5,-280 216.5,4 -4,4"/>
<!-- Node5 -->
<g id="node1" class="node">
<title>Node5</title>
<polygon fill="#bfbfbf" stroke="#000000" points="38,-.5 38,-41.5 157,-41.5 157,-.5 38,-.5"/>
<text text-anchor="start" x="46" y="-29.5" font-family="Helvetica,sans-Serif" font-size="10.00" fill="#000000">amr_wind::CollMgr&lt;</text>
<text text-anchor="start" x="46" y="-18.5" font-family="Helvetica,sans-Serif" font-size="10.00" fill="#000000"> Collection, Type, allow</text>
<text text-anchor="middle" x="97.5" y="-7.5" font-family="Helvetica,sans-Serif" font-size="10.00" fill="#000000">_duplicates &gt;</text>
</g>
<!-- Node6 -->
<g id="node2" class="node">
<title>Node6</title>
<polygon fill="#ffffff" stroke="#bfbfbf" points="46,-89.5 46,-119.5 149,-119.5 149,-89.5 46,-89.5"/>
<text text-anchor="start" x="54" y="-107.5" font-family="Helvetica,sans-Serif" font-size="10.00" fill="#000000">std::unordered_map</text>
<text text-anchor="middle" x="97.5" y="-96.5" font-family="Helvetica,sans-Serif" font-size="10.00" fill="#000000">&lt; std::string, int &gt;</text>
</g>
<!-- Node6&#45;&gt;Node5 -->
<g id="edge1" class="edge">
<title>Node6&#45;&gt;Node5</title>
<path fill="none" stroke="#9a32cd" stroke-dasharray="5,2" d="M97.5,-78.9112C97.5,-66.9282 97.5,-52.8447 97.5,-41.5668"/>
<polygon fill="#9a32cd" stroke="#9a32cd" points="94.0001,-79.1848 97.5,-89.1848 101.0001,-79.1848 94.0001,-79.1848"/>
<text text-anchor="middle" x="124.5" y="-63" font-family="Helvetica,sans-Serif" font-size="10.00" fill="#000000"> m_obj_map</text>
</g>
<!-- Node7 -->
<g id="node3" class="node">
<title>Node7</title>
<g id="a_node3"><a xlink:title="STL class. ">
<polygon fill="#ffffff" stroke="#bfbfbf" points="17.5,-173 17.5,-192 77.5,-192 77.5,-173 17.5,-173"/>
<text text-anchor="middle" x="47.5" y="-180" font-family="Helvetica,sans-Serif" font-size="10.00" fill="#000000">std::string</text>
</a>
</g>
</g>
<!-- Node7&#45;&gt;Node6 -->
<g id="edge2" class="edge">
<title>Node7&#45;&gt;Node6</title>
<path fill="none" stroke="#9a32cd" stroke-dasharray="5,2" d="M59.0657,-164.4575C67.7417,-150.923 79.4884,-132.5981 87.7036,-119.7824"/>
<polygon fill="#9a32cd" stroke="#9a32cd" points="56.0811,-162.628 53.631,-172.9357 61.9743,-166.4057 56.0811,-162.628"/>
<text text-anchor="middle" x="88" y="-141" font-family="Helvetica,sans-Serif" font-size="10.00" fill="#000000"> keys</text>
</g>
<!-- Node8 -->
<g id="node4" class="node">
<title>Node8</title>
<g id="a_node4"><a xlink:title="STL class. ">
<polygon fill="#ffffff" stroke="#bfbfbf" points="0,-245.5 0,-275.5 95,-275.5 95,-245.5 0,-245.5"/>
<text text-anchor="start" x="8" y="-263.5" font-family="Helvetica,sans-Serif" font-size="10.00" fill="#000000">std::basic_string&lt;</text>
<text text-anchor="middle" x="47.5" y="-252.5" font-family="Helvetica,sans-Serif" font-size="10.00" fill="#000000"> char &gt;</text>
</a>
</g>
</g>
<!-- Node8&#45;&gt;Node7 -->
<g id="edge3" class="edge">
<title>Node8&#45;&gt;Node7</title>
<path fill="none" stroke="#191970" d="M47.5,-235.3962C47.5,-220.6331 47.5,-202.8138 47.5,-192.0839"/>
<polygon fill="#191970" stroke="#191970" points="44.0001,-235.4608 47.5,-245.4608 51.0001,-235.4609 44.0001,-235.4608"/>
</g>
<!-- Node9 -->
<g id="node5" class="node">
<title>Node9</title>
<g id="a_node5"><a xlink:title="STL class. ">
<polygon fill="#ffffff" stroke="#bfbfbf" points="96,-167.5 96,-197.5 199,-197.5 199,-167.5 96,-167.5"/>
<text text-anchor="start" x="104" y="-185.5" font-family="Helvetica,sans-Serif" font-size="10.00" fill="#000000">std::unordered_map</text>
<text text-anchor="middle" x="147.5" y="-174.5" font-family="Helvetica,sans-Serif" font-size="10.00" fill="#000000">&lt; K, T &gt;</text>
</a>
</g>
</g>
<!-- Node9&#45;&gt;Node6 -->
<g id="edge4" class="edge">
<title>Node9&#45;&gt;Node6</title>
<path fill="none" stroke="#ffa500" stroke-dasharray="5,2" d="M132.2922,-158.7759C124.1641,-146.096 114.3958,-130.8574 107.2815,-119.7592"/>
<polygon fill="#ffa500" stroke="#ffa500" points="129.5162,-160.9309 137.8595,-167.4608 135.4094,-157.1532 129.5162,-160.9309"/>
<text text-anchor="middle" x="166.5" y="-141" font-family="Helvetica,sans-Serif" font-size="10.00" fill="#000000"> &lt; std::string, int &gt;</text>
</g>
<!-- Node10 -->
<g id="node6" class="node">
<title>Node10</title>
<polygon fill="#ffffff" stroke="#bfbfbf" points="123,-251 123,-270 152,-270 152,-251 123,-251"/>
<text text-anchor="middle" x="137.5" y="-258" font-family="Helvetica,sans-Serif" font-size="10.00" fill="#000000">K</text>
</g>
<!-- Node10&#45;&gt;Node9 -->
<g id="edge5" class="edge">
<title>Node10&#45;&gt;Node9</title>
<path fill="none" stroke="#9a32cd" stroke-dasharray="5,2" d="M136.9311,-240.6592C136.9741,-232.9293 137.35,-224.0175 138.5,-216 139.3721,-209.9196 140.9781,-203.3663 142.5946,-197.6822"/>
<polygon fill="#9a32cd" stroke="#9a32cd" points="133.4341,-240.94 137.055,-250.8968 140.4336,-240.8552 133.4341,-240.94"/>
<text text-anchor="middle" x="151" y="-219" font-family="Helvetica,sans-Serif" font-size="10.00" fill="#000000"> keys</text>
</g>
<!-- Node11 -->
<g id="node7" class="node">
<title>Node11</title>
<polygon fill="#ffffff" stroke="#bfbfbf" points="171,-251 171,-270 200,-270 200,-251 171,-251"/>
<text text-anchor="middle" x="185.5" y="-258" font-family="Helvetica,sans-Serif" font-size="10.00" fill="#000000">T</text>
</g>
<!-- Node11&#45;&gt;Node9 -->
<g id="edge6" class="edge">
<title>Node11&#45;&gt;Node9</title>
<path fill="none" stroke="#9a32cd" stroke-dasharray="5,2" d="M176.3271,-241.6714C169.7739,-228.2202 161.0688,-210.3517 154.9453,-197.7824"/>
<polygon fill="#9a32cd" stroke="#9a32cd" points="173.3142,-243.4787 180.8405,-250.9357 179.6072,-240.4128 173.3142,-243.4787"/>
<text text-anchor="middle" x="191" y="-219" font-family="Helvetica,sans-Serif" font-size="10.00" fill="#000000"> elements</text>
</g>
</g>
</svg>
