<?xml version="1.0" encoding="UTF-8" standalone="no"?>
<!DOCTYPE svg PUBLIC "-//W3C//DTD SVG 1.1//EN"
 "http://www.w3.org/Graphics/SVG/1.1/DTD/svg11.dtd">
<!-- Generated by graphviz version 2.40.1 (20161225.0304)
 -->
<!-- Title: amr_wind::Field Pages: 1 -->
<svg width="241pt" height="340pt"
 viewBox="0.00 0.00 241.00 340.00" xmlns="http://www.w3.org/2000/svg" xmlns:xlink="http://www.w3.org/1999/xlink">
<g id="graph0" class="graph" transform="scale(1 1) rotate(0) translate(4 336)">
<title>amr_wind::Field</title>
<polygon fill="#ffffff" stroke="transparent" points="-4,4 -4,-336 237,-336 237,4 -4,4"/>
<!-- Node1 -->
<g id="node1" class="node">
<title>Node1</title>
<polygon fill="#bfbfbf" stroke="#000000" points="126.5,-.5 126.5,-19.5 212.5,-19.5 212.5,-.5 126.5,-.5"/>
<text text-anchor="middle" x="169.5" y="-7.5" font-family="Helvetica,sans-Serif" font-size="10.00" fill="#000000">amr_wind::Field</text>
</g>
<!-- Node2 -->
<g id="node2" class="node">
<title>Node2</title>
<g id="a_node2"><a xlink:title="STL class. ">
<polygon fill="#ffffff" stroke="#bfbfbf" points="155.5,-229 155.5,-248 215.5,-248 215.5,-229 155.5,-229"/>
<text text-anchor="middle" x="185.5" y="-236" font-family="Helvetica,sans-Serif" font-size="10.00" fill="#000000">std::string</text>
</a>
</g>
</g>
<!-- Node2&#45;&gt;Node1 -->
<g id="edge1" class="edge">
<title>Node2&#45;&gt;Node1</title>
<path fill="none" stroke="#9a32cd" stroke-dasharray="5,2" d="M187.5149,-218.5825C187.9021,-214.1176 188.261,-209.4003 188.5,-205 192.2617,-135.7559 190.8333,-118.3429 191.5,-49 191.547,-44.1113 193.098,-42.6203 191.5,-38 189.1156,-31.1058 184.2551,-24.6182 179.7078,-19.6272"/>
<polygon fill="#9a32cd" stroke="#9a32cd" points="184.0022,-218.5526 186.546,-228.8375 190.9712,-219.2111 184.0022,-218.5526"/>
<text text-anchor="middle" x="211" y="-113.5" font-family="Helvetica,sans-Serif" font-size="10.00" fill="#000000"> m_name</text>
</g>
<!-- Node5 -->
<g id="node5" class="node">
<title>Node5</title>
<polygon fill="#ffffff" stroke="#bfbfbf" points="69.5,-145.5 69.5,-175.5 179.5,-175.5 179.5,-145.5 69.5,-145.5"/>
<text text-anchor="start" x="77.5" y="-163.5" font-family="Helvetica,sans-Serif" font-size="10.00" fill="#000000">std::unordered_map</text>
<text text-anchor="middle" x="124.5" y="-152.5" font-family="Helvetica,sans-Serif" font-size="10.00" fill="#000000">&lt; std::string, size_t &gt;</text>
</g>
<!-- Node2&#45;&gt;Node5 -->
<g id="edge5" class="edge">
<title>Node2&#45;&gt;Node5</title>
<path fill="none" stroke="#9a32cd" stroke-dasharray="5,2" d="M171.6941,-220.8466C161.0811,-207.2759 146.5706,-188.7214 136.4516,-175.7824"/>
<polygon fill="#9a32cd" stroke="#9a32cd" points="169.1028,-223.2146 178.0202,-228.9357 174.6168,-218.9023 169.1028,-223.2146"/>
<text text-anchor="middle" x="172" y="-197" font-family="Helvetica,sans-Serif" font-size="10.00" fill="#000000"> keys</text>
</g>
<!-- Node3 -->
<g id="node3" class="node">
<title>Node3</title>
<g id="a_node3"><a xlink:title="STL class. ">
<polygon fill="#ffffff" stroke="#bfbfbf" points="138,-301.5 138,-331.5 233,-331.5 233,-301.5 138,-301.5"/>
<text text-anchor="start" x="146" y="-319.5" font-family="Helvetica,sans-Serif" font-size="10.00" fill="#000000">std::basic_string&lt;</text>
<text text-anchor="middle" x="185.5" y="-308.5" font-family="Helvetica,sans-Serif" font-size="10.00" fill="#000000"> char &gt;</text>
</a>
</g>
</g>
<!-- Node3&#45;&gt;Node2 -->
<g id="edge2" class="edge">
<title>Node3&#45;&gt;Node2</title>
<path fill="none" stroke="#191970" d="M185.5,-291.3962C185.5,-276.6331 185.5,-258.8138 185.5,-248.0839"/>
<polygon fill="#191970" stroke="#191970" points="182.0001,-291.4608 185.5,-301.4608 189.0001,-291.4609 182.0001,-291.4608"/>
</g>
<!-- Node4 -->
<g id="node4" class="node">
<title>Node4</title>
<g id="a_node4"><a xlink:href="classamr__wind_1_1_field_repo.html" target="_top" xlink:title="Field RepositoryFieldRepo is a database that manages handling of fields used during a simulation...">
<polygon fill="#ffffff" stroke="#000000" points="72,-67.5 72,-86.5 181,-86.5 181,-67.5 72,-67.5"/>
<text text-anchor="middle" x="126.5" y="-74.5" font-family="Helvetica,sans-Serif" font-size="10.00" fill="#000000">amr_wind::FieldRepo</text>
</a>
</g>
</g>
<!-- Node4&#45;&gt;Node1 -->
<g id="edge3" class="edge">
<title>Node4&#45;&gt;Node1</title>
<path fill="none" stroke="#9a32cd" stroke-dasharray="5,2" d="M138.0649,-58.9803C146.2037,-46.2989 156.7775,-29.8235 163.3506,-19.5817"/>
<polygon fill="#9a32cd" stroke="#9a32cd" points="135.1166,-57.0942 132.6609,-67.4005 141.0077,-60.8751 135.1166,-57.0942"/>
<text text-anchor="middle" x="169.5" y="-41" font-family="Helvetica,sans-Serif" font-size="10.00" fill="#000000"> m_repo</text>
</g>
<!-- Node5&#45;&gt;Node4 -->
<g id="edge4" class="edge">
<title>Node5&#45;&gt;Node4</title>
<path fill="none" stroke="#9a32cd" stroke-dasharray="5,2" d="M124.8582,-135.4039C125.0188,-125.8813 125.233,-114.9391 125.5,-105 125.6646,-98.8733 125.9094,-91.9946 126.1156,-86.5884"/>
<polygon fill="#9a32cd" stroke="#9a32cd" points="121.3584,-135.3685 124.6997,-145.4227 128.3575,-135.4793 121.3584,-135.3685"/>
<text text-anchor="middle" x="157.5" y="-119" font-family="Helvetica,sans-Serif" font-size="10.00" fill="#000000"> m_fid_map</text>
<text text-anchor="middle" x="157.5" y="-108" font-family="Helvetica,sans-Serif" font-size="10.00" fill="#000000">m_int_fid_map</text>
</g>
<!-- Node6 -->
<g id="node6" class="node">
<title>Node6</title>
<g id="a_node6"><a xlink:title="STL class. ">
<polygon fill="#ffffff" stroke="#bfbfbf" points="0,-223.5 0,-253.5 103,-253.5 103,-223.5 0,-223.5"/>
<text text-anchor="start" x="8" y="-241.5" font-family="Helvetica,sans-Serif" font-size="10.00" fill="#000000">std::unordered_map</text>
<text text-anchor="middle" x="51.5" y="-230.5" font-family="Helvetica,sans-Serif" font-size="10.00" fill="#000000">&lt; K, T &gt;</text>
</a>
</g>
</g>
<!-- Node6&#45;&gt;Node5 -->
<g id="edge6" class="edge">
<title>Node6&#45;&gt;Node5</title>
<path fill="none" stroke="#ffa500" stroke-dasharray="5,2" d="M46.0011,-213.225C45.8133,-206.5391 46.8716,-199.6254 50.5,-194 55.545,-186.1783 62.9072,-180.163 71.0565,-175.5426"/>
<polygon fill="#ffa500" stroke="#ffa500" points="42.541,-213.7776 47.1318,-223.3262 49.4976,-212.9988 42.541,-213.7776"/>
<text text-anchor="middle" x="99" y="-197" font-family="Helvetica,sans-Serif" font-size="10.00" fill="#000000"> &lt; std::string, size_t &gt;</text>
</g>
<!-- Node7 -->
<g id="node7" class="node">
<title>Node7</title>
<polygon fill="#ffffff" stroke="#bfbfbf" points="23,-307 23,-326 52,-326 52,-307 23,-307"/>
<text text-anchor="middle" x="37.5" y="-314" font-family="Helvetica,sans-Serif" font-size="10.00" fill="#000000">K</text>
</g>
<!-- Node7&#45;&gt;Node6 -->
<g id="edge7" class="edge">
<title>Node7&#45;&gt;Node6</title>
<path fill="none" stroke="#9a32cd" stroke-dasharray="5,2" d="M36.4813,-296.5823C36.4663,-288.8425 36.9201,-279.944 38.5,-272 39.7412,-265.7589 42.0571,-259.173 44.3943,-253.5078"/>
<polygon fill="#9a32cd" stroke="#9a32cd" points="32.9898,-296.9462 36.7621,-306.8467 39.9872,-296.7547 32.9898,-296.9462"/>
<text text-anchor="middle" x="51" y="-275" font-family="Helvetica,sans-Serif" font-size="10.00" fill="#000000"> keys</text>
</g>
<!-- Node8 -->
<g id="node8" class="node">
<title>Node8</title>
<polygon fill="#ffffff" stroke="#bfbfbf" points="71,-307 71,-326 100,-326 100,-307 71,-307"/>
<text text-anchor="middle" x="85.5" y="-314" font-family="Helvetica,sans-Serif" font-size="10.00" fill="#000000">T</text>
</g>
<!-- Node8&#45;&gt;Node6 -->
<g id="edge8" class="edge">
<title>Node8&#45;&gt;Node6</title>
<path fill="none" stroke="#9a32cd" stroke-dasharray="5,2" d="M77.2927,-297.6714C71.4293,-284.2202 63.6405,-266.3517 58.1615,-253.7824"/>
<polygon fill="#9a32cd" stroke="#9a32cd" points="74.1266,-299.1673 81.3309,-306.9357 80.5435,-296.3701 74.1266,-299.1673"/>
<text text-anchor="middle" x="93" y="-275" font-family="Helvetica,sans-Serif" font-size="10.00" fill="#000000"> elements</text>
</g>
</g>
</svg>
