<?xml version="1.0" encoding="UTF-8" standalone="no"?>
<!DOCTYPE svg PUBLIC "-//W3C//DTD SVG 1.1//EN"
 "http://www.w3.org/Graphics/SVG/1.1/DTD/svg11.dtd">
<!-- Generated by graphviz version 2.40.1 (20161225.0304)
 -->
<!-- Title: amr_wind::PostProcessBase Pages: 1 -->
<svg width="178pt" height="207pt"
 viewBox="0.00 0.00 177.50 207.00" xmlns="http://www.w3.org/2000/svg" xmlns:xlink="http://www.w3.org/1999/xlink">
<g id="graph0" class="graph" transform="scale(1 1) rotate(0) translate(4 203)">
<title>amr_wind::PostProcessBase</title>
<polygon fill="#ffffff" stroke="transparent" points="-4,4 -4,-203 173.5,-203 173.5,4 -4,4"/>
<!-- Node0 -->
<g id="node1" class="node">
<title>Node0</title>
<polygon fill="#bfbfbf" stroke="#000000" points="0,-.5 0,-19.5 143,-19.5 143,-.5 0,-.5"/>
<text text-anchor="middle" x="71.5" y="-7.5" font-family="Helvetica,sans-Serif" font-size="10.00" fill="#000000">amr_wind::PostProcessBase</text>
</g>
<!-- Node1 -->
<g id="node2" class="node">
<title>Node1</title>
<g id="a_node2"><a xlink:href="structamr__wind_1_1_factory.html" target="_top" xlink:title="amr_wind::Factory\&lt;\l PostProcessBase, CFDSim\l &amp;, const std::string &amp;\&gt;">
<polygon fill="#ffffff" stroke="#000000" points="0,-57.5 0,-98.5 143,-98.5 143,-57.5 0,-57.5"/>
<text text-anchor="start" x="8" y="-86.5" font-family="Helvetica,sans-Serif" font-size="10.00" fill="#000000">amr_wind::Factory&lt;</text>
<text text-anchor="start" x="8" y="-75.5" font-family="Helvetica,sans-Serif" font-size="10.00" fill="#000000"> PostProcessBase, CFDSim</text>
<text text-anchor="middle" x="71.5" y="-64.5" font-family="Helvetica,sans-Serif" font-size="10.00" fill="#000000"> &amp;, const std::string &amp;&gt;</text>
</a>
</g>
</g>
<!-- Node1&#45;&gt;Node0 -->
<g id="edge1" class="edge">
<title>Node1&#45;&gt;Node0</title>
<path fill="none" stroke="#191970" d="M71.5,-47.1423C71.5,-37.1999 71.5,-26.896 71.5,-19.6705"/>
<polygon fill="#191970" stroke="#191970" points="68.0001,-47.2282 71.5,-57.2283 75.0001,-47.2283 68.0001,-47.2282"/>
</g>
<!-- Node2 -->
<g id="node3" class="node">
<title>Node2</title>
<g id="a_node3"><a xlink:href="structamr__wind_1_1_factory.html" target="_top" xlink:title="Runtime selection of options based on string keyword lookupFactory provides an automated way to regis...">
<polygon fill="#ffffff" stroke="#000000" points="19.5,-168.5 19.5,-198.5 123.5,-198.5 123.5,-168.5 19.5,-168.5"/>
<text text-anchor="start" x="27.5" y="-186.5" font-family="Helvetica,sans-Serif" font-size="10.00" fill="#000000">amr_wind::Factory&lt;</text>
<text text-anchor="middle" x="71.5" y="-175.5" font-family="Helvetica,sans-Serif" font-size="10.00" fill="#000000"> Base, Args &gt;</text>
</a>
</g>
</g>
<!-- Node2&#45;&gt;Node1 -->
<g id="edge2" class="edge">
<title>Node2&#45;&gt;Node1</title>
<path fill="none" stroke="#ffa500" stroke-dasharray="5,2" d="M71.5,-158.1769C71.5,-139.9145 71.5,-115.5763 71.5,-98.5233"/>
<polygon fill="#ffa500" stroke="#ffa500" points="68.0001,-158.3844 71.5,-168.3844 75.0001,-158.3845 68.0001,-158.3844"/>
<text text-anchor="start" x="71.5" y="-142" font-family="Helvetica,sans-Serif" font-size="10.00" fill="#000000"> &lt; PostProcessBase,</text>
<text text-anchor="start" x="71.5" y="-131" font-family="Helvetica,sans-Serif" font-size="10.00" fill="#000000"> CFDSim &amp;, const std</text>
<text text-anchor="middle" x="120.5" y="-120" font-family="Helvetica,sans-Serif" font-size="10.00" fill="#000000">::string &amp;&gt;</text>
</g>
</g>
</svg>
