<?xml version="1.0" encoding="UTF-8" standalone="no"?>
<!DOCTYPE svg PUBLIC "-//W3C//DTD SVG 1.1//EN"
 "http://www.w3.org/Graphics/SVG/1.1/DTD/svg11.dtd">
<!-- Generated by graphviz version 2.40.1 (20161225.0304)
 -->
<!-- Title: ncutils::NCFile Pages: 1 -->
<svg width="162pt" height="85pt"
 viewBox="0.00 0.00 162.00 85.00" xmlns="http://www.w3.org/2000/svg" xmlns:xlink="http://www.w3.org/1999/xlink">
<g id="graph0" class="graph" transform="scale(1 1) rotate(0) translate(4 81)">
<title>ncutils::NCFile</title>
<polygon fill="#ffffff" stroke="transparent" points="-4,4 -4,-81 158,-81 158,4 -4,4"/>
<!-- Node2 -->
<g id="node1" class="node">
<title>Node2</title>
<polygon fill="#bfbfbf" stroke="#000000" points="5,-.5 5,-19.5 87,-19.5 87,-.5 5,-.5"/>
<text text-anchor="middle" x="46" y="-7.5" font-family="Helvetica,sans-Serif" font-size="10.00" fill="#000000">ncutils::NCFile</text>
</g>
<!-- Node3 -->
<g id="node2" class="node">
<title>Node3</title>
<g id="a_node2"><a xlink:href="classncutils_1_1_n_c_group.html" target="_top" xlink:title="Representation of a NetCDF group. ">
<polygon fill="#ffffff" stroke="#000000" points="0,-57.5 0,-76.5 92,-76.5 92,-57.5 0,-57.5"/>
<text text-anchor="middle" x="46" y="-64.5" font-family="Helvetica,sans-Serif" font-size="10.00" fill="#000000">ncutils::NCGroup</text>
</a>
</g>
</g>
<!-- Node3&#45;&gt;Node2 -->
<g id="edge1" class="edge">
<title>Node3&#45;&gt;Node2</title>
<path fill="none" stroke="#191970" d="M46,-47.2342C46,-37.8491 46,-27.0651 46,-19.5265"/>
<polygon fill="#191970" stroke="#191970" points="42.5001,-47.3307 46,-57.3307 49.5001,-47.3308 42.5001,-47.3307"/>
</g>
<!-- Node3&#45;&gt;Node3 -->
<g id="edge2" class="edge">
<title>Node3&#45;&gt;Node3</title>
<path fill="none" stroke="#9a32cd" stroke-dasharray="5,2" d="M102.2743,-71.0771C107.0337,-70.2047 110,-68.8457 110,-67 110,-64.0469 102.4063,-62.3396 92.0242,-61.8782"/>
<polygon fill="#9a32cd" stroke="#9a32cd" points="101.6177,-67.6258 92.0242,-72.1218 102.3275,-74.5897 101.6177,-67.6258"/>
<text text-anchor="middle" x="132" y="-64.5" font-family="Helvetica,sans-Serif" font-size="10.00" fill="#000000"> m_parent</text>
</g>
</g>
</svg>
