<?xml version="1.0" encoding="UTF-8" standalone="no"?>
<!DOCTYPE svg PUBLIC "-//W3C//DTD SVG 1.1//EN"
 "http://www.w3.org/Graphics/SVG/1.1/DTD/svg11.dtd">
<!-- Generated by graphviz version 2.40.1 (20161225.0304)
 -->
<!-- Title: amr_wind::transport::ConstTransport Pages: 1 -->
<svg width="111pt" height="106pt"
 viewBox="0.00 0.00 111.00 106.00" xmlns="http://www.w3.org/2000/svg" xmlns:xlink="http://www.w3.org/1999/xlink">
<g id="graph0" class="graph" transform="scale(1 1) rotate(0) translate(4 102)">
<title>amr_wind::transport::ConstTransport</title>
<polygon fill="#ffffff" stroke="transparent" points="-4,4 -4,-102 107,-102 107,4 -4,4"/>
<!-- Node0 -->
<g id="node1" class="node">
<title>Node0</title>
<polygon fill="#bfbfbf" stroke="#000000" points="0,-.5 0,-30.5 103,-30.5 103,-.5 0,-.5"/>
<text text-anchor="start" x="8" y="-18.5" font-family="Helvetica,sans-Serif" font-size="10.00" fill="#000000">amr_wind::transport</text>
<text text-anchor="middle" x="51.5" y="-7.5" font-family="Helvetica,sans-Serif" font-size="10.00" fill="#000000">::ConstTransport</text>
</g>
<!-- Node1 -->
<g id="node2" class="node">
<title>Node1</title>
<g id="a_node2"><a xlink:href="classamr__wind_1_1transport_1_1_transport_model.html" target="_top" xlink:title="Abstract representation of a transport model. ">
<polygon fill="#ffffff" stroke="#000000" points="0,-67.5 0,-97.5 103,-97.5 103,-67.5 0,-67.5"/>
<text text-anchor="start" x="8" y="-85.5" font-family="Helvetica,sans-Serif" font-size="10.00" fill="#000000">amr_wind::transport</text>
<text text-anchor="middle" x="51.5" y="-74.5" font-family="Helvetica,sans-Serif" font-size="10.00" fill="#000000">::TransportModel</text>
</a>
</g>
</g>
<!-- Node1&#45;&gt;Node0 -->
<g id="edge1" class="edge">
<title>Node1&#45;&gt;Node0</title>
<path fill="none" stroke="#191970" d="M51.5,-57.0249C51.5,-48.128 51.5,-38.4287 51.5,-30.6432"/>
<polygon fill="#191970" stroke="#191970" points="48.0001,-57.2966 51.5,-67.2967 55.0001,-57.2967 48.0001,-57.2966"/>
</g>
</g>
</svg>
