<?xml version="1.0" encoding="UTF-8" standalone="no"?>
<!DOCTYPE svg PUBLIC "-//W3C//DTD SVG 1.1//EN"
 "http://www.w3.org/Graphics/SVG/1.1/DTD/svg11.dtd">
<!-- Generated by graphviz version 2.40.1 (20161225.0304)
 -->
<!-- Title: amr_wind::pde::PDEMgr Pages: 1 -->
<svg width="2106pt" height="528pt"
 viewBox="0.00 0.00 2106.00 527.97" xmlns="http://www.w3.org/2000/svg" xmlns:xlink="http://www.w3.org/1999/xlink">
<g id="graph0" class="graph" transform="scale(1 1) rotate(0) translate(4 523.9682)">
<title>amr_wind::pde::PDEMgr</title>
<polygon fill="#ffffff" stroke="transparent" points="-4,4 -4,-523.9682 2102,-523.9682 2102,4 -4,4"/>
<!-- Node3 -->
<g id="node1" class="node">
<title>Node3</title>
<polygon fill="#bfbfbf" stroke="#000000" points="1243,-246.4682 1243,-265.4682 1367,-265.4682 1367,-246.4682 1243,-246.4682"/>
<text text-anchor="middle" x="1305" y="-253.4682" font-family="Helvetica,sans-Serif" font-size="10.00" fill="#000000">amr_wind::pde::PDEMgr</text>
</g>
<!-- Node12 -->
<g id="node10" class="node">
<title>Node12</title>
<g id="a_node10"><a xlink:href="classamr__wind_1_1_c_f_d_sim.html" target="_top" xlink:title="Data structures for a CFD simulationCFDSim represents the amr&#45;wind execution environment and manages ...">
<polygon fill="#ffffff" stroke="#000000" points="1566,-289.4682 1566,-308.4682 1669,-308.4682 1669,-289.4682 1566,-289.4682"/>
<text text-anchor="middle" x="1617.5" y="-296.4682" font-family="Helvetica,sans-Serif" font-size="10.00" fill="#000000">amr_wind::CFDSim</text>
</a>
</g>
</g>
<!-- Node3&#45;&gt;Node12 -->
<g id="edge25" class="edge">
<title>Node3&#45;&gt;Node12</title>
<path fill="none" stroke="#9a32cd" stroke-dasharray="5,2" d="M1375.2233,-245.3361C1424.5527,-240.345 1491.5411,-238.5986 1548,-254.9682 1571.0427,-261.6491 1593.773,-278.5105 1606.6773,-289.3133"/>
<polygon fill="#9a32cd" stroke="#9a32cd" points="1374.5405,-241.8894 1364.9751,-246.445 1375.2936,-248.8488 1374.5405,-241.8894"/>
<text text-anchor="middle" x="1466.5" y="-257.9682" font-family="Helvetica,sans-Serif" font-size="10.00" fill="#000000"> m_pde_mgr</text>
</g>
<!-- Node4 -->
<g id="node2" class="node">
<title>Node4</title>
<g id="a_node2"><a xlink:href="classamr__wind_1_1_coll_mgr.html" target="_top" xlink:title="amr_wind::CollMgr\&lt;\l PDEMgr, PDEBase \&gt;">
<polygon fill="#ffffff" stroke="#000000" points="997.5,-239.9682 997.5,-269.9682 1113.5,-269.9682 1113.5,-239.9682 997.5,-239.9682"/>
<text text-anchor="start" x="1005.5" y="-257.9682" font-family="Helvetica,sans-Serif" font-size="10.00" fill="#000000">amr_wind::CollMgr&lt;</text>
<text text-anchor="middle" x="1055.5" y="-246.9682" font-family="Helvetica,sans-Serif" font-size="10.00" fill="#000000"> PDEMgr, PDEBase &gt;</text>
</a>
</g>
</g>
<!-- Node4&#45;&gt;Node3 -->
<g id="edge1" class="edge">
<title>Node4&#45;&gt;Node3</title>
<path fill="none" stroke="#191970" d="M1123.9215,-255.2424C1161.0716,-255.3913 1206.6576,-255.574 1242.7965,-255.7188"/>
<polygon fill="#191970" stroke="#191970" points="1123.6958,-251.7416 1113.6818,-255.2013 1123.6676,-258.7415 1123.6958,-251.7416"/>
</g>
<!-- Node5 -->
<g id="node3" class="node">
<title>Node5</title>
<polygon fill="#ffffff" stroke="#bfbfbf" points="452.5,-250.9682 452.5,-280.9682 555.5,-280.9682 555.5,-250.9682 452.5,-250.9682"/>
<text text-anchor="start" x="460.5" y="-268.9682" font-family="Helvetica,sans-Serif" font-size="10.00" fill="#000000">std::unordered_map</text>
<text text-anchor="middle" x="504" y="-257.9682" font-family="Helvetica,sans-Serif" font-size="10.00" fill="#000000">&lt; std::string, int &gt;</text>
</g>
<!-- Node5&#45;&gt;Node4 -->
<g id="edge2" class="edge">
<title>Node5&#45;&gt;Node4</title>
<path fill="none" stroke="#9a32cd" stroke-dasharray="5,2" d="M555.3888,-247.7733C590.3091,-236.3996 637.8251,-222.834 681,-216.9682 792.5427,-201.8136 923.5291,-224.2563 997.2952,-240.5624"/>
<polygon fill="#9a32cd" stroke="#9a32cd" points="554.2832,-244.4524 545.8876,-250.9149 556.4808,-251.0985 554.2832,-244.4524"/>
<text text-anchor="middle" x="746" y="-219.9682" font-family="Helvetica,sans-Serif" font-size="10.00" fill="#000000"> m_obj_map</text>
</g>
<!-- Node11 -->
<g id="node9" class="node">
<title>Node11</title>
<g id="a_node9"><a xlink:href="classamr__wind_1_1_coll_mgr.html" target="_top" xlink:title="Interface to manage objects of sub&#45;classes based on factory registrationProvides boiler&#45;plate code to...">
<polygon fill="#ffffff" stroke="#000000" points="686.5,-237.4682 686.5,-278.4682 805.5,-278.4682 805.5,-237.4682 686.5,-237.4682"/>
<text text-anchor="start" x="694.5" y="-266.4682" font-family="Helvetica,sans-Serif" font-size="10.00" fill="#000000">amr_wind::CollMgr&lt;</text>
<text text-anchor="start" x="694.5" y="-255.4682" font-family="Helvetica,sans-Serif" font-size="10.00" fill="#000000"> Collection, Type, allow</text>
<text text-anchor="middle" x="746" y="-244.4682" font-family="Helvetica,sans-Serif" font-size="10.00" fill="#000000">_duplicates &gt;</text>
</a>
</g>
</g>
<!-- Node5&#45;&gt;Node11 -->
<g id="edge9" class="edge">
<title>Node5&#45;&gt;Node11</title>
<path fill="none" stroke="#9a32cd" stroke-dasharray="5,2" d="M565.7896,-263.9255C602.8347,-262.7009 649.7066,-261.1514 686.3617,-259.9397"/>
<polygon fill="#9a32cd" stroke="#9a32cd" points="565.4971,-260.4332 555.6182,-264.2618 565.7285,-267.4294 565.4971,-260.4332"/>
<text text-anchor="middle" x="631" y="-264.9682" font-family="Helvetica,sans-Serif" font-size="10.00" fill="#000000"> m_obj_map</text>
</g>
<!-- Node28 -->
<g id="node26" class="node">
<title>Node28</title>
<g id="a_node26"><a xlink:href="classamr__wind_1_1_coll_mgr.html" target="_top" xlink:title="amr_wind::CollMgr\&lt;\l PhysicsMgr, Physics \&gt;">
<polygon fill="#ffffff" stroke="#000000" points="994.5,-299.9682 994.5,-329.9682 1116.5,-329.9682 1116.5,-299.9682 994.5,-299.9682"/>
<text text-anchor="start" x="1002.5" y="-317.9682" font-family="Helvetica,sans-Serif" font-size="10.00" fill="#000000">amr_wind::CollMgr&lt;</text>
<text text-anchor="middle" x="1055.5" y="-306.9682" font-family="Helvetica,sans-Serif" font-size="10.00" fill="#000000"> PhysicsMgr, Physics &gt;</text>
</a>
</g>
</g>
<!-- Node5&#45;&gt;Node28 -->
<g id="edge38" class="edge">
<title>Node5&#45;&gt;Node28</title>
<path fill="none" stroke="#9a32cd" stroke-dasharray="5,2" d="M566.0637,-274.2379C599.9882,-278.6181 642.7686,-283.9144 681,-287.9682 791.1987,-299.6526 920.1864,-307.7251 994.4136,-311.8301"/>
<polygon fill="#9a32cd" stroke="#9a32cd" points="566.2018,-270.7265 555.8345,-272.9103 565.3008,-277.6683 566.2018,-270.7265"/>
<text text-anchor="middle" x="746" y="-301.9682" font-family="Helvetica,sans-Serif" font-size="10.00" fill="#000000"> m_obj_map</text>
</g>
<!-- Node6 -->
<g id="node4" class="node">
<title>Node6</title>
<g id="a_node4"><a xlink:title="STL class. ">
<polygon fill="#ffffff" stroke="#bfbfbf" points="196,-383.4682 196,-402.4682 256,-402.4682 256,-383.4682 196,-383.4682"/>
<text text-anchor="middle" x="226" y="-390.4682" font-family="Helvetica,sans-Serif" font-size="10.00" fill="#000000">std::string</text>
</a>
</g>
</g>
<!-- Node6&#45;&gt;Node3 -->
<g id="edge40" class="edge">
<title>Node6&#45;&gt;Node3</title>
<path fill="none" stroke="#9a32cd" stroke-dasharray="5,2" d="M266.4872,-389.2958C276.1532,-388.475 286.4397,-387.6474 296,-386.9682 307.5587,-386.1469 1117.7748,-342.8444 1129,-339.9682 1192.6277,-323.6649 1260.8929,-283.8318 1290.2268,-265.4939"/>
<polygon fill="#9a32cd" stroke="#9a32cd" points="265.9669,-385.8277 256.3057,-390.1765 266.5702,-392.8017 265.9669,-385.8277"/>
<text text-anchor="middle" x="746" y="-367.9682" font-family="Helvetica,sans-Serif" font-size="10.00" fill="#000000"> m_scheme</text>
</g>
<!-- Node6&#45;&gt;Node5 -->
<g id="edge3" class="edge">
<title>Node6&#45;&gt;Node5</title>
<path fill="none" stroke="#9a32cd" stroke-dasharray="5,2" d="M242.2213,-375.4869C255.4382,-362.3214 275.2509,-344.8981 296,-334.9682 342.2306,-312.8435 360.4452,-328.3754 409,-311.9682 432.9574,-303.8726 458.6916,-291.138 477.3253,-281.1183"/>
<polygon fill="#9a32cd" stroke="#9a32cd" points="239.3521,-373.4173 234.8949,-383.029 244.3732,-378.2948 239.3521,-373.4173"/>
<text text-anchor="middle" x="352.5" y="-337.9682" font-family="Helvetica,sans-Serif" font-size="10.00" fill="#000000"> keys</text>
</g>
<!-- Node14 -->
<g id="node12" class="node">
<title>Node14</title>
<g id="a_node12"><a xlink:href="classamr__wind_1_1_i_o_manager.html" target="_top" xlink:title="Input/Output managerThis class contains infrastructure to output solution fields during the simulatio...">
<polygon fill="#ffffff" stroke="#000000" points="1760.5,-413.4682 1760.5,-432.4682 1873.5,-432.4682 1873.5,-413.4682 1760.5,-413.4682"/>
<text text-anchor="middle" x="1817" y="-420.4682" font-family="Helvetica,sans-Serif" font-size="10.00" fill="#000000">amr_wind::IOManager</text>
</a>
</g>
</g>
<!-- Node6&#45;&gt;Node14 -->
<g id="edge18" class="edge">
<title>Node6&#45;&gt;Node14</title>
<path fill="none" stroke="#9a32cd" stroke-dasharray="5,2" d="M254.3581,-407.7832C262.6743,-413.0566 271.3192,-419.5533 278,-426.9682 289.7088,-439.9635 281.6396,-451.9804 296,-461.9682 372.4396,-515.1322 410.8902,-486.9682 504,-486.9682 504,-486.9682 504,-486.9682 1617.5,-486.9682 1687.8837,-486.9682 1765.8461,-450.4035 1799.7184,-432.5496"/>
<polygon fill="#9a32cd" stroke="#9a32cd" points="255.9551,-404.6607 245.5715,-402.5554 252.3758,-410.6765 255.9551,-404.6607"/>
<text text-anchor="middle" x="1055.5" y="-511.9682" font-family="Helvetica,sans-Serif" font-size="10.00" fill="#000000"> m_chk_prefix</text>
<text text-anchor="middle" x="1055.5" y="-500.9682" font-family="Helvetica,sans-Serif" font-size="10.00" fill="#000000">m_plt_prefix</text>
<text text-anchor="middle" x="1055.5" y="-489.9682" font-family="Helvetica,sans-Serif" font-size="10.00" fill="#000000">m_restart_file</text>
</g>
<!-- Node15 -->
<g id="node13" class="node">
<title>Node15</title>
<polygon fill="#ffffff" stroke="#bfbfbf" points="448.5,-438.4682 448.5,-457.4682 559.5,-457.4682 559.5,-438.4682 448.5,-438.4682"/>
<text text-anchor="middle" x="504" y="-445.4682" font-family="Helvetica,sans-Serif" font-size="10.00" fill="#000000">std::set&lt; std::string &gt;</text>
</g>
<!-- Node6&#45;&gt;Node15 -->
<g id="edge15" class="edge">
<title>Node6&#45;&gt;Node15</title>
<path fill="none" stroke="#9a32cd" stroke-dasharray="5,2" d="M265.8415,-400.8505C315.9657,-410.7671 401.9771,-427.7838 455.7662,-438.4255"/>
<polygon fill="#9a32cd" stroke="#9a32cd" points="266.5042,-397.4138 256.015,-398.9064 265.1456,-404.2807 266.5042,-397.4138"/>
<text text-anchor="middle" x="352.5" y="-430.9682" font-family="Helvetica,sans-Serif" font-size="10.00" fill="#000000"> keys</text>
</g>
<!-- Node26 -->
<g id="node24" class="node">
<title>Node26</title>
<polygon fill="#ffffff" stroke="#bfbfbf" points="449,-388.9682 449,-418.9682 559,-418.9682 559,-388.9682 449,-388.9682"/>
<text text-anchor="start" x="457" y="-406.9682" font-family="Helvetica,sans-Serif" font-size="10.00" fill="#000000">std::unordered_map</text>
<text text-anchor="middle" x="504" y="-395.9682" font-family="Helvetica,sans-Serif" font-size="10.00" fill="#000000">&lt; std::string, size_t &gt;</text>
</g>
<!-- Node6&#45;&gt;Node26 -->
<g id="edge34" class="edge">
<title>Node6&#45;&gt;Node26</title>
<path fill="none" stroke="#9a32cd" stroke-dasharray="5,2" d="M266.5417,-392.036C303.6479,-391.457 360.0605,-391.2654 409,-393.9682 421.916,-394.6815 435.7806,-395.8884 448.8166,-397.222"/>
<polygon fill="#9a32cd" stroke="#9a32cd" points="266.081,-388.5434 256.1433,-392.2164 266.2025,-395.5423 266.081,-388.5434"/>
<text text-anchor="middle" x="352.5" y="-396.9682" font-family="Helvetica,sans-Serif" font-size="10.00" fill="#000000"> keys</text>
</g>
<!-- Node7 -->
<g id="node5" class="node">
<title>Node7</title>
<g id="a_node5"><a xlink:title="STL class. ">
<polygon fill="#ffffff" stroke="#bfbfbf" points="0,-377.9682 0,-407.9682 95,-407.9682 95,-377.9682 0,-377.9682"/>
<text text-anchor="start" x="8" y="-395.9682" font-family="Helvetica,sans-Serif" font-size="10.00" fill="#000000">std::basic_string&lt;</text>
<text text-anchor="middle" x="47.5" y="-384.9682" font-family="Helvetica,sans-Serif" font-size="10.00" fill="#000000"> char &gt;</text>
</a>
</g>
</g>
<!-- Node7&#45;&gt;Node6 -->
<g id="edge4" class="edge">
<title>Node7&#45;&gt;Node6</title>
<path fill="none" stroke="#191970" d="M105.3476,-392.9682C135.5655,-392.9682 171.2877,-392.9682 195.9816,-392.9682"/>
<polygon fill="#191970" stroke="#191970" points="105.3348,-389.4683 95.3347,-392.9682 105.3347,-396.4683 105.3348,-389.4683"/>
</g>
<!-- Node8 -->
<g id="node6" class="node">
<title>Node8</title>
<g id="a_node6"><a xlink:title="STL class. ">
<polygon fill="#ffffff" stroke="#bfbfbf" points="174.5,-267.9682 174.5,-297.9682 277.5,-297.9682 277.5,-267.9682 174.5,-267.9682"/>
<text text-anchor="start" x="182.5" y="-285.9682" font-family="Helvetica,sans-Serif" font-size="10.00" fill="#000000">std::unordered_map</text>
<text text-anchor="middle" x="226" y="-274.9682" font-family="Helvetica,sans-Serif" font-size="10.00" fill="#000000">&lt; K, T &gt;</text>
</a>
</g>
</g>
<!-- Node8&#45;&gt;Node5 -->
<g id="edge5" class="edge">
<title>Node8&#45;&gt;Node5</title>
<path fill="none" stroke="#ffa500" stroke-dasharray="5,2" d="M287.8041,-268.0749C290.5653,-267.6518 293.3064,-267.2786 296,-266.9682 348.9141,-260.869 409.9036,-261.4662 452.0967,-263.068"/>
<polygon fill="#ffa500" stroke="#ffa500" points="287.029,-264.6567 277.7673,-269.8017 288.216,-271.5554 287.029,-264.6567"/>
<text text-anchor="middle" x="352.5" y="-269.9682" font-family="Helvetica,sans-Serif" font-size="10.00" fill="#000000"> &lt; std::string, int &gt;</text>
</g>
<!-- Node8&#45;&gt;Node26 -->
<g id="edge35" class="edge">
<title>Node8&#45;&gt;Node26</title>
<path fill="none" stroke="#ffa500" stroke-dasharray="5,2" d="M287.7513,-278.3193C324.7274,-278.0727 371.6447,-282.3714 409,-300.9682 449.0701,-320.9164 480.6166,-365.399 495.1919,-388.8425"/>
<polygon fill="#ffa500" stroke="#ffa500" points="287.5375,-274.8225 277.6019,-278.5013 287.6631,-281.8213 287.5375,-274.8225"/>
<text text-anchor="middle" x="352.5" y="-303.9682" font-family="Helvetica,sans-Serif" font-size="10.00" fill="#000000"> &lt; std::string, size_t &gt;</text>
</g>
<!-- Node9 -->
<g id="node7" class="node">
<title>Node9</title>
<polygon fill="#ffffff" stroke="#bfbfbf" points="33,-334.4682 33,-353.4682 62,-353.4682 62,-334.4682 33,-334.4682"/>
<text text-anchor="middle" x="47.5" y="-341.4682" font-family="Helvetica,sans-Serif" font-size="10.00" fill="#000000">K</text>
</g>
<!-- Node9&#45;&gt;Node8 -->
<g id="edge6" class="edge">
<title>Node9&#45;&gt;Node8</title>
<path fill="none" stroke="#9a32cd" stroke-dasharray="5,2" d="M71.5868,-335.7368C99.8244,-326.087 147.1878,-309.9012 182.0285,-297.9948"/>
<polygon fill="#9a32cd" stroke="#9a32cd" points="70.4383,-332.4305 62.1074,-338.9763 72.702,-339.0544 70.4383,-332.4305"/>
<text text-anchor="middle" x="134.5" y="-322.9682" font-family="Helvetica,sans-Serif" font-size="10.00" fill="#000000"> keys</text>
</g>
<!-- Node16 -->
<g id="node14" class="node">
<title>Node16</title>
<g id="a_node14"><a xlink:title="STL class. ">
<polygon fill="#ffffff" stroke="#bfbfbf" points="189,-436.4682 189,-455.4682 263,-455.4682 263,-436.4682 189,-436.4682"/>
<text text-anchor="middle" x="226" y="-443.4682" font-family="Helvetica,sans-Serif" font-size="10.00" fill="#000000">std::set&lt; K &gt;</text>
</a>
</g>
</g>
<!-- Node9&#45;&gt;Node16 -->
<g id="edge17" class="edge">
<title>Node9&#45;&gt;Node16</title>
<path fill="none" stroke="#9a32cd" stroke-dasharray="5,2" d="M71.2421,-356.1852C78.8695,-360.1843 87.3283,-364.6977 95,-368.9682 136.9516,-392.3205 185.4649,-421.387 210.0063,-436.2398"/>
<polygon fill="#9a32cd" stroke="#9a32cd" points="72.6337,-352.9638 62.1473,-351.4518 69.402,-359.1732 72.6337,-352.9638"/>
<text text-anchor="middle" x="134.5" y="-404.9682" font-family="Helvetica,sans-Serif" font-size="10.00" fill="#000000"> keys</text>
</g>
<!-- Node10 -->
<g id="node8" class="node">
<title>Node10</title>
<polygon fill="#ffffff" stroke="#bfbfbf" points="33,-140.4682 33,-159.4682 62,-159.4682 62,-140.4682 33,-140.4682"/>
<text text-anchor="middle" x="47.5" y="-147.4682" font-family="Helvetica,sans-Serif" font-size="10.00" fill="#000000">T</text>
</g>
<!-- Node10&#45;&gt;Node8 -->
<g id="edge7" class="edge">
<title>Node10&#45;&gt;Node8</title>
<path fill="none" stroke="#9a32cd" stroke-dasharray="5,2" d="M68.7703,-165.8166C103.3986,-191.6181 171.5103,-242.3679 205.5809,-267.7539"/>
<polygon fill="#9a32cd" stroke="#9a32cd" points="70.4473,-162.7014 60.3373,-159.5332 66.2649,-168.3146 70.4473,-162.7014"/>
<text text-anchor="middle" x="134.5" y="-231.9682" font-family="Helvetica,sans-Serif" font-size="10.00" fill="#000000"> elements</text>
</g>
<!-- Node17 -->
<g id="node15" class="node">
<title>Node17</title>
<g id="a_node15"><a xlink:title="STL class. ">
<polygon fill="#ffffff" stroke="#bfbfbf" points="693.5,-62.4682 693.5,-81.4682 798.5,-81.4682 798.5,-62.4682 693.5,-62.4682"/>
<text text-anchor="middle" x="746" y="-69.4682" font-family="Helvetica,sans-Serif" font-size="10.00" fill="#000000">std::unique_ptr&lt; T &gt;</text>
</a>
</g>
</g>
<!-- Node10&#45;&gt;Node17 -->
<g id="edge20" class="edge">
<title>Node10&#45;&gt;Node17</title>
<path fill="none" stroke="#9a32cd" stroke-dasharray="5,2" d="M72.0679,-143.0288C97.4427,-136.0327 138.263,-125.2545 174,-117.9682 362.4024,-79.5551 591.8396,-72.9165 693.3557,-71.9754"/>
<polygon fill="#9a32cd" stroke="#9a32cd" points="70.8945,-139.7222 62.1984,-145.7743 72.7706,-146.4661 70.8945,-139.7222"/>
<text text-anchor="middle" x="352.5" y="-100.9682" font-family="Helvetica,sans-Serif" font-size="10.00" fill="#000000"> ptr</text>
</g>
<!-- Node11&#45;&gt;Node4 -->
<g id="edge8" class="edge">
<title>Node11&#45;&gt;Node4</title>
<path fill="none" stroke="#ffa500" stroke-dasharray="5,2" d="M816.0749,-256.1819C820.4485,-256.1007 824.7844,-256.0282 829,-255.9682 886.2096,-255.1527 951.5548,-254.9411 997.3072,-254.9104"/>
<polygon fill="#ffa500" stroke="#ffa500" points="815.7687,-252.6873 805.8404,-256.3857 815.9081,-259.6859 815.7687,-252.6873"/>
<text text-anchor="middle" x="896.5" y="-258.9682" font-family="Helvetica,sans-Serif" font-size="10.00" fill="#000000"> &lt; PDEMgr, PDEBase &gt;</text>
</g>
<!-- Node11&#45;&gt;Node28 -->
<g id="edge39" class="edge">
<title>Node11&#45;&gt;Node28</title>
<path fill="none" stroke="#ffa500" stroke-dasharray="5,2" d="M815.6332,-266.0083C858.622,-271.5106 914.7781,-279.6707 964,-289.9682 977.2174,-292.7333 991.3552,-296.292 1004.4679,-299.8522"/>
<polygon fill="#ffa500" stroke="#ffa500" points="815.918,-262.5165 805.5584,-264.7364 815.0413,-269.4614 815.918,-262.5165"/>
<text text-anchor="middle" x="896.5" y="-292.9682" font-family="Helvetica,sans-Serif" font-size="10.00" fill="#000000"> &lt; PhysicsMgr, Physics &gt;</text>
</g>
<!-- Node12&#45;&gt;Node3 -->
<g id="edge10" class="edge">
<title>Node12&#45;&gt;Node3</title>
<path fill="none" stroke="#9a32cd" stroke-dasharray="5,2" d="M1555.9016,-290.8708C1498.4486,-283.2972 1416.9499,-272.4941 1385,-267.9682 1379.1597,-267.1408 1373.0825,-266.262 1367.0032,-265.3708"/>
<polygon fill="#9a32cd" stroke="#9a32cd" points="1555.6028,-294.3616 1565.9744,-292.198 1556.5173,-287.4216 1555.6028,-294.3616"/>
<text text-anchor="middle" x="1466.5" y="-291.9682" font-family="Helvetica,sans-Serif" font-size="10.00" fill="#000000"> m_sim</text>
</g>
<!-- Node12&#45;&gt;Node14 -->
<g id="edge13" class="edge">
<title>Node12&#45;&gt;Node14</title>
<path fill="none" stroke="#9a32cd" stroke-dasharray="5,2" d="M1641.467,-313.8649C1682.961,-339.6557 1767.0507,-391.922 1801.6246,-413.4115"/>
<polygon fill="#9a32cd" stroke="#9a32cd" points="1643.1639,-310.7987 1632.8232,-308.4923 1639.4687,-316.7439 1643.1639,-310.7987"/>
<text text-anchor="middle" x="1703.5" y="-363.9682" font-family="Helvetica,sans-Serif" font-size="10.00" fill="#000000"> m_sim</text>
</g>
<!-- Node19 -->
<g id="node17" class="node">
<title>Node19</title>
<g id="a_node17"><a xlink:href="classamr__wind_1_1_post_process_manager.html" target="_top" xlink:title="A collection of post&#45;processing instances that are active during a simulation. ">
<polygon fill="#ffffff" stroke="#000000" points="1738,-219.4682 1738,-238.4682 1896,-238.4682 1896,-219.4682 1738,-219.4682"/>
<text text-anchor="middle" x="1817" y="-226.4682" font-family="Helvetica,sans-Serif" font-size="10.00" fill="#000000">amr_wind::PostProcessManager</text>
</a>
</g>
</g>
<!-- Node12&#45;&gt;Node19 -->
<g id="edge23" class="edge">
<title>Node12&#45;&gt;Node19</title>
<path fill="none" stroke="#9a32cd" stroke-dasharray="5,2" d="M1635.7444,-282.5805C1649.018,-271.5855 1667.9356,-257.7407 1687,-249.9682 1702.8776,-243.4948 1720.61,-239.012 1737.7474,-235.9091"/>
<polygon fill="#9a32cd" stroke="#9a32cd" points="1633.2131,-280.1402 1627.892,-289.3019 1637.765,-285.4581 1633.2131,-280.1402"/>
<text text-anchor="middle" x="1703.5" y="-252.9682" font-family="Helvetica,sans-Serif" font-size="10.00" fill="#000000"> m_sim</text>
</g>
<!-- Node13 -->
<g id="node11" class="node">
<title>Node13</title>
<polygon fill="#ffffff" stroke="#bfbfbf" points="1969,-306.9682 1969,-336.9682 2076,-336.9682 2076,-306.9682 1969,-306.9682"/>
<text text-anchor="start" x="1977" y="-324.9682" font-family="Helvetica,sans-Serif" font-size="10.00" fill="#000000">std::unique_ptr&lt; amr</text>
<text text-anchor="middle" x="2022.5" y="-313.9682" font-family="Helvetica,sans-Serif" font-size="10.00" fill="#000000">_wind::IOManager &gt;</text>
</g>
<!-- Node13&#45;&gt;Node12 -->
<g id="edge11" class="edge">
<title>Node13&#45;&gt;Node12</title>
<path fill="none" stroke="#9a32cd" stroke-dasharray="5,2" d="M1958.4135,-318.3287C1878.366,-313.7828 1742.9816,-306.0943 1669.2049,-301.9045"/>
<polygon fill="#9a32cd" stroke="#9a32cd" points="1958.6678,-321.8487 1968.8502,-318.9214 1959.0648,-314.8599 1958.6678,-321.8487"/>
<text text-anchor="middle" x="1817" y="-316.9682" font-family="Helvetica,sans-Serif" font-size="10.00" fill="#000000"> m_io_mgr</text>
</g>
<!-- Node14&#45;&gt;Node13 -->
<g id="edge12" class="edge">
<title>Node14&#45;&gt;Node13</title>
<path fill="none" stroke="#9a32cd" stroke-dasharray="5,2" d="M1845.4314,-408.9946C1883.8908,-390.0924 1952.2239,-356.5078 1991.8127,-337.0505"/>
<polygon fill="#9a32cd" stroke="#9a32cd" points="1843.7638,-405.9142 1836.3329,-413.4663 1846.8514,-412.1965 1843.7638,-405.9142"/>
<text text-anchor="middle" x="1921.5" y="-374.9682" font-family="Helvetica,sans-Serif" font-size="10.00" fill="#000000"> ptr</text>
</g>
<!-- Node15&#45;&gt;Node14 -->
<g id="edge14" class="edge">
<title>Node15&#45;&gt;Node14</title>
<path fill="none" stroke="#9a32cd" stroke-dasharray="5,2" d="M569.817,-445.0363C618.4749,-443.1191 686.3547,-440.9682 746,-440.9682 746,-440.9682 746,-440.9682 1617.5,-440.9682 1665.8388,-440.9682 1720.5003,-435.6615 1760.3674,-430.8109"/>
<polygon fill="#9a32cd" stroke="#9a32cd" points="569.5871,-441.5426 559.7356,-445.441 569.868,-448.537 569.5871,-441.5426"/>
<text text-anchor="middle" x="1186" y="-454.9682" font-family="Helvetica,sans-Serif" font-size="10.00" fill="#000000"> m_chkvars</text>
<text text-anchor="middle" x="1186" y="-443.9682" font-family="Helvetica,sans-Serif" font-size="10.00" fill="#000000">m_pltvars_default</text>
</g>
<!-- Node16&#45;&gt;Node15 -->
<g id="edge16" class="edge">
<title>Node16&#45;&gt;Node15</title>
<path fill="none" stroke="#ffa500" stroke-dasharray="5,2" d="M273.4157,-446.3093C321.86,-446.6578 397.0486,-447.1987 448.2993,-447.5674"/>
<polygon fill="#ffa500" stroke="#ffa500" points="273.2288,-442.8079 263.2039,-446.2358 273.1784,-449.8078 273.2288,-442.8079"/>
<text text-anchor="middle" x="352.5" y="-449.9682" font-family="Helvetica,sans-Serif" font-size="10.00" fill="#000000"> &lt; std::string &gt;</text>
</g>
<!-- Node17&#45;&gt;Node13 -->
<g id="edge19" class="edge">
<title>Node17&#45;&gt;Node13</title>
<path fill="none" stroke="#ffa500" stroke-dasharray="5,2" d="M808.7384,-61.3276C871.1167,-51.6827 969.6328,-38.9682 1055.5,-38.9682 1055.5,-38.9682 1055.5,-38.9682 1817,-38.9682 1872.6426,-38.9682 1911.662,-209.9877 1947,-252.9682 1963.9159,-273.5424 1986.9294,-293.6955 2003.0872,-306.8573"/>
<polygon fill="#ffa500" stroke="#ffa500" points="808.002,-57.9002 798.665,-62.9071 809.0865,-64.8157 808.002,-57.9002"/>
<text text-anchor="middle" x="1466.5" y="-41.9682" font-family="Helvetica,sans-Serif" font-size="10.00" fill="#000000"> &lt; amr_wind::IOManager &gt;</text>
</g>
<!-- Node18 -->
<g id="node16" class="node">
<title>Node18</title>
<polygon fill="#ffffff" stroke="#bfbfbf" points="1947,-213.9682 1947,-243.9682 2098,-243.9682 2098,-213.9682 1947,-213.9682"/>
<text text-anchor="start" x="1955" y="-231.9682" font-family="Helvetica,sans-Serif" font-size="10.00" fill="#000000">std::unique_ptr&lt; amr</text>
<text text-anchor="middle" x="2022.5" y="-220.9682" font-family="Helvetica,sans-Serif" font-size="10.00" fill="#000000">_wind::PostProcessManager &gt;</text>
</g>
<!-- Node17&#45;&gt;Node18 -->
<g id="edge24" class="edge">
<title>Node17&#45;&gt;Node18</title>
<path fill="none" stroke="#ffa500" stroke-dasharray="5,2" d="M767.646,-56.4158C783.7571,-45.6861 806.7237,-32.1138 829,-24.9682 925.3924,5.9521 954.2698,-.9682 1055.5,-.9682 1055.5,-.9682 1055.5,-.9682 1817,-.9682 1867.9078,-.9682 1889.2898,6.8863 1929,-24.9682 1991.2995,-74.943 2013.7794,-175.6951 2020.2637,-213.8552"/>
<polygon fill="#ffa500" stroke="#ffa500" points="765.2795,-53.7946 759.0093,-62.3348 769.2367,-59.5687 765.2795,-53.7946"/>
<text text-anchor="middle" x="1466.5" y="-3.9682" font-family="Helvetica,sans-Serif" font-size="10.00" fill="#000000"> &lt; amr_wind::PostProcessManager &gt;</text>
</g>
<!-- Node21 -->
<g id="node19" class="node">
<title>Node21</title>
<polygon fill="#ffffff" stroke="#bfbfbf" points="982,-96.4682 982,-137.4682 1129,-137.4682 1129,-96.4682 982,-96.4682"/>
<text text-anchor="start" x="990" y="-125.4682" font-family="Helvetica,sans-Serif" font-size="10.00" fill="#000000">std::unique_ptr&lt; amr</text>
<text text-anchor="start" x="990" y="-114.4682" font-family="Helvetica,sans-Serif" font-size="10.00" fill="#000000">_wind::turbulence::Turbulence</text>
<text text-anchor="middle" x="1055.5" y="-103.4682" font-family="Helvetica,sans-Serif" font-size="10.00" fill="#000000">Model &gt;</text>
</g>
<!-- Node17&#45;&gt;Node21 -->
<g id="edge31" class="edge">
<title>Node17&#45;&gt;Node21</title>
<path fill="none" stroke="#ffa500" stroke-dasharray="5,2" d="M809.0033,-74.2913C852.7701,-76.6761 912.2867,-81.4566 964,-90.9682 972.1209,-92.4618 980.5601,-94.3639 988.8833,-96.4577"/>
<polygon fill="#ffa500" stroke="#ffa500" points="808.9606,-70.7845 798.7929,-73.7627 808.5986,-77.7751 808.9606,-70.7845"/>
<text text-anchor="start" x="843.5" y="-104.9682" font-family="Helvetica,sans-Serif" font-size="10.00" fill="#000000"> &lt; amr_wind::turbulence</text>
<text text-anchor="middle" x="896.5" y="-93.9682" font-family="Helvetica,sans-Serif" font-size="10.00" fill="#000000">::TurbulenceModel &gt;</text>
</g>
<!-- Node29 -->
<g id="node27" class="node">
<title>Node29</title>
<polygon fill="#ffffff" stroke="#bfbfbf" points="994.5,-169.9682 994.5,-199.9682 1116.5,-199.9682 1116.5,-169.9682 994.5,-169.9682"/>
<text text-anchor="start" x="1002.5" y="-187.9682" font-family="Helvetica,sans-Serif" font-size="10.00" fill="#000000">std::unique_ptr&lt; amr</text>
<text text-anchor="middle" x="1055.5" y="-176.9682" font-family="Helvetica,sans-Serif" font-size="10.00" fill="#000000">_wind::pde::PDEBase &gt;</text>
</g>
<!-- Node17&#45;&gt;Node29 -->
<g id="edge45" class="edge">
<title>Node17&#45;&gt;Node29</title>
<path fill="none" stroke="#ffa500" stroke-dasharray="5,2" d="M804.6163,-86.3037C806.863,-87.7151 809.0045,-89.2654 811,-90.9682 825.2158,-103.0985 814.1884,-117.5729 829,-128.9682 877.3634,-166.1762 904.9513,-138.5829 964,-153.9682 980.8797,-158.3662 999.1457,-164.307 1014.8859,-169.8113"/>
<polygon fill="#ffa500" stroke="#ffa500" points="805.9942,-83.0739 795.5141,-81.5191 802.7371,-89.27 805.9942,-83.0739"/>
<text text-anchor="middle" x="896.5" y="-156.9682" font-family="Helvetica,sans-Serif" font-size="10.00" fill="#000000"> &lt; amr_wind::pde::PDEBase &gt;</text>
</g>
<!-- Node18&#45;&gt;Node12 -->
<g id="edge21" class="edge">
<title>Node18&#45;&gt;Node12</title>
<path fill="none" stroke="#9a32cd" stroke-dasharray="5,2" d="M1936.801,-243.7803C1855.7245,-257.7936 1736.6904,-278.3673 1669.2049,-290.0315"/>
<polygon fill="#9a32cd" stroke="#9a32cd" points="1937.7308,-247.1716 1946.9886,-242.0195 1936.5385,-240.2739 1937.7308,-247.1716"/>
<text text-anchor="middle" x="1817" y="-279.9682" font-family="Helvetica,sans-Serif" font-size="10.00" fill="#000000"> m_post_mgr</text>
</g>
<!-- Node19&#45;&gt;Node18 -->
<g id="edge22" class="edge">
<title>Node19&#45;&gt;Node18</title>
<path fill="none" stroke="#9a32cd" stroke-dasharray="5,2" d="M1906.3781,-228.9682C1919.8432,-228.9682 1933.6199,-228.9682 1946.762,-228.9682"/>
<polygon fill="#9a32cd" stroke="#9a32cd" points="1906.1578,-225.4683 1896.1577,-228.9682 1906.1577,-232.4683 1906.1578,-225.4683"/>
<text text-anchor="middle" x="1921.5" y="-231.9682" font-family="Helvetica,sans-Serif" font-size="10.00" fill="#000000"> ptr</text>
</g>
<!-- Node20 -->
<g id="node18" class="node">
<title>Node20</title>
<g id="a_node18"><a xlink:href="classamr__wind_1_1_sim_time.html" target="_top" xlink:title="Time manager for simulations. ">
<polygon fill="#ffffff" stroke="#000000" points="1253,-314.4682 1253,-333.4682 1357,-333.4682 1357,-314.4682 1253,-314.4682"/>
<text text-anchor="middle" x="1305" y="-321.4682" font-family="Helvetica,sans-Serif" font-size="10.00" fill="#000000">amr_wind::SimTime</text>
</a>
</g>
</g>
<!-- Node20&#45;&gt;Node12 -->
<g id="edge26" class="edge">
<title>Node20&#45;&gt;Node12</title>
<path fill="none" stroke="#9a32cd" stroke-dasharray="5,2" d="M1367.4751,-318.9701C1425.6575,-314.3156 1511.3728,-307.4583 1565.8046,-303.1038"/>
<polygon fill="#9a32cd" stroke="#9a32cd" points="1366.9945,-315.4973 1357.3055,-319.7837 1367.5528,-322.475 1366.9945,-315.4973"/>
<text text-anchor="middle" x="1466.5" y="-319.9682" font-family="Helvetica,sans-Serif" font-size="10.00" fill="#000000"> m_time</text>
</g>
<!-- Node21&#45;&gt;Node12 -->
<g id="edge27" class="edge">
<title>Node21&#45;&gt;Node12</title>
<path fill="none" stroke="#9a32cd" stroke-dasharray="5,2" d="M1139.3443,-124.8537C1241.0181,-137.1622 1415.2454,-167.2271 1548,-236.9682 1573.7658,-250.5039 1597.6582,-275.6569 1609.5734,-289.3985"/>
<polygon fill="#9a32cd" stroke="#9a32cd" points="1139.4717,-121.3445 1129.1302,-123.6475 1138.6507,-128.2962 1139.4717,-121.3445"/>
<text text-anchor="middle" x="1305" y="-169.9682" font-family="Helvetica,sans-Serif" font-size="10.00" fill="#000000"> m_turbulence</text>
</g>
<!-- Node22 -->
<g id="node20" class="node">
<title>Node22</title>
<g id="a_node20"><a xlink:href="classamr__wind_1_1turbulence_1_1_turbulence_model.html" target="_top" xlink:title="Abstract representation of a turbulence modelThis class is an abstract representation of a turbulence...">
<polygon fill="#ffffff" stroke="#000000" points="691,-100.9682 691,-130.9682 801,-130.9682 801,-100.9682 691,-100.9682"/>
<text text-anchor="start" x="699" y="-118.9682" font-family="Helvetica,sans-Serif" font-size="10.00" fill="#000000">amr_wind::turbulence</text>
<text text-anchor="middle" x="746" y="-107.9682" font-family="Helvetica,sans-Serif" font-size="10.00" fill="#000000">::TurbulenceModel</text>
</a>
</g>
</g>
<!-- Node22&#45;&gt;Node21 -->
<g id="edge28" class="edge">
<title>Node22&#45;&gt;Node21</title>
<path fill="none" stroke="#9a32cd" stroke-dasharray="5,2" d="M811.357,-116.1793C861.2145,-116.3404 929.9123,-116.5624 981.7372,-116.7298"/>
<polygon fill="#9a32cd" stroke="#9a32cd" points="811.3437,-112.6794 801.3324,-116.1469 811.321,-119.6793 811.3437,-112.6794"/>
<text text-anchor="middle" x="896.5" y="-119.9682" font-family="Helvetica,sans-Serif" font-size="10.00" fill="#000000"> ptr</text>
</g>
<!-- Node23 -->
<g id="node21" class="node">
<title>Node23</title>
<g id="a_node21"><a xlink:href="structamr__wind_1_1_factory.html" target="_top" xlink:title="amr_wind::Factory\&lt;\l TurbulenceModel, CFDSim &amp;\&gt;">
<polygon fill="#ffffff" stroke="#000000" points="427,-100.9682 427,-130.9682 581,-130.9682 581,-100.9682 427,-100.9682"/>
<text text-anchor="start" x="435" y="-118.9682" font-family="Helvetica,sans-Serif" font-size="10.00" fill="#000000">amr_wind::Factory&lt;</text>
<text text-anchor="middle" x="504" y="-107.9682" font-family="Helvetica,sans-Serif" font-size="10.00" fill="#000000"> TurbulenceModel, CFDSim &amp;&gt;</text>
</a>
</g>
</g>
<!-- Node23&#45;&gt;Node22 -->
<g id="edge29" class="edge">
<title>Node23&#45;&gt;Node22</title>
<path fill="none" stroke="#191970" d="M591.4154,-115.9682C624.636,-115.9682 661.5244,-115.9682 690.9328,-115.9682"/>
<polygon fill="#191970" stroke="#191970" points="591.2357,-112.4683 581.2357,-115.9682 591.2356,-119.4683 591.2357,-112.4683"/>
</g>
<!-- Node24 -->
<g id="node22" class="node">
<title>Node24</title>
<g id="a_node22"><a xlink:href="structamr__wind_1_1_factory.html" target="_top" xlink:title="Runtime selection of options based on string keyword lookupFactory provides an automated way to regis...">
<polygon fill="#ffffff" stroke="#000000" points="174,-127.9682 174,-157.9682 278,-157.9682 278,-127.9682 174,-127.9682"/>
<text text-anchor="start" x="182" y="-145.9682" font-family="Helvetica,sans-Serif" font-size="10.00" fill="#000000">amr_wind::Factory&lt;</text>
<text text-anchor="middle" x="226" y="-134.9682" font-family="Helvetica,sans-Serif" font-size="10.00" fill="#000000"> Base, Args &gt;</text>
</a>
</g>
</g>
<!-- Node24&#45;&gt;Node23 -->
<g id="edge30" class="edge">
<title>Node24&#45;&gt;Node23</title>
<path fill="none" stroke="#ffa500" stroke-dasharray="5,2" d="M279.5048,-125.3651C285.0302,-124.0152 290.5984,-122.8407 296,-121.9682 338.9749,-115.0264 387.5778,-113.2903 426.9888,-113.3972"/>
<polygon fill="#ffa500" stroke="#ffa500" points="278.4313,-122.0284 269.6507,-127.9573 280.2121,-128.7981 278.4313,-122.0284"/>
<text text-anchor="start" x="307.5" y="-135.9682" font-family="Helvetica,sans-Serif" font-size="10.00" fill="#000000"> &lt; TurbulenceModel,</text>
<text text-anchor="middle" x="352.5" y="-124.9682" font-family="Helvetica,sans-Serif" font-size="10.00" fill="#000000"> CFDSim &amp;&gt;</text>
</g>
<!-- Node31 -->
<g id="node29" class="node">
<title>Node31</title>
<g id="a_node29"><a xlink:href="structamr__wind_1_1_factory.html" target="_top" xlink:title="amr_wind::Factory\&lt;\l PDEBase, CFDSim &amp;,\l const int \&gt;">
<polygon fill="#ffffff" stroke="#000000" points="444,-150.4682 444,-191.4682 564,-191.4682 564,-150.4682 444,-150.4682"/>
<text text-anchor="start" x="452" y="-179.4682" font-family="Helvetica,sans-Serif" font-size="10.00" fill="#000000">amr_wind::Factory&lt;</text>
<text text-anchor="start" x="452" y="-168.4682" font-family="Helvetica,sans-Serif" font-size="10.00" fill="#000000"> PDEBase, CFDSim &amp;,</text>
<text text-anchor="middle" x="504" y="-157.4682" font-family="Helvetica,sans-Serif" font-size="10.00" fill="#000000"> const int &gt;</text>
</a>
</g>
</g>
<!-- Node24&#45;&gt;Node31 -->
<g id="edge44" class="edge">
<title>Node24&#45;&gt;Node31</title>
<path fill="none" stroke="#ffa500" stroke-dasharray="5,2" d="M288.5222,-149.2653C334.9341,-153.9399 397.8632,-160.2781 443.729,-164.8977"/>
<polygon fill="#ffa500" stroke="#ffa500" points="288.5901,-145.7546 278.2897,-148.2347 287.8886,-152.7193 288.5901,-145.7546"/>
<text text-anchor="start" x="296" y="-175.9682" font-family="Helvetica,sans-Serif" font-size="10.00" fill="#000000"> &lt; PDEBase, CFDSim &amp;,</text>
<text text-anchor="middle" x="352.5" y="-164.9682" font-family="Helvetica,sans-Serif" font-size="10.00" fill="#000000"> const int &gt;</text>
</g>
<!-- Node25 -->
<g id="node23" class="node">
<title>Node25</title>
<g id="a_node23"><a xlink:href="classamr__wind_1_1_field_repo.html" target="_top" xlink:title="Field RepositoryFieldRepo is a database that manages handling of fields used during a simulation...">
<polygon fill="#ffffff" stroke="#000000" points="842,-393.4682 842,-412.4682 951,-412.4682 951,-393.4682 842,-393.4682"/>
<text text-anchor="middle" x="896.5" y="-400.4682" font-family="Helvetica,sans-Serif" font-size="10.00" fill="#000000">amr_wind::FieldRepo</text>
</a>
</g>
</g>
<!-- Node25&#45;&gt;Node12 -->
<g id="edge32" class="edge">
<title>Node25&#45;&gt;Node12</title>
<path fill="none" stroke="#9a32cd" stroke-dasharray="5,2" d="M961.5454,-402.8797C1116.0074,-402.2712 1495.8773,-398.288 1548,-373.9682 1578.5652,-359.7068 1602.0437,-325.3015 1612.1182,-308.5091"/>
<polygon fill="#9a32cd" stroke="#9a32cd" points="961.2493,-399.3807 951.2619,-402.9165 961.2744,-406.3806 961.2493,-399.3807"/>
<text text-anchor="middle" x="1186" y="-402.9682" font-family="Helvetica,sans-Serif" font-size="10.00" fill="#000000"> m_repo</text>
</g>
<!-- Node26&#45;&gt;Node25 -->
<g id="edge33" class="edge">
<title>Node26&#45;&gt;Node25</title>
<path fill="none" stroke="#9a32cd" stroke-dasharray="5,2" d="M569.8384,-403.8004C646.126,-403.606 770.4444,-403.2893 841.6947,-403.1078"/>
<polygon fill="#9a32cd" stroke="#9a32cd" points="569.3942,-400.3014 559.4032,-403.827 569.4121,-407.3014 569.3942,-400.3014"/>
<text text-anchor="middle" x="631" y="-416.9682" font-family="Helvetica,sans-Serif" font-size="10.00" fill="#000000"> m_fid_map</text>
<text text-anchor="middle" x="631" y="-405.9682" font-family="Helvetica,sans-Serif" font-size="10.00" fill="#000000">m_int_fid_map</text>
</g>
<!-- Node27 -->
<g id="node25" class="node">
<title>Node27</title>
<g id="a_node25"><a xlink:href="classamr__wind_1_1_physics_mgr.html" target="_top" xlink:title="A collection of Physics models instances that are active during a simulation. ">
<polygon fill="#ffffff" stroke="#000000" points="1247,-354.4682 1247,-373.4682 1363,-373.4682 1363,-354.4682 1247,-354.4682"/>
<text text-anchor="middle" x="1305" y="-361.4682" font-family="Helvetica,sans-Serif" font-size="10.00" fill="#000000">amr_wind::PhysicsMgr</text>
</a>
</g>
</g>
<!-- Node27&#45;&gt;Node12 -->
<g id="edge36" class="edge">
<title>Node27&#45;&gt;Node12</title>
<path fill="none" stroke="#9a32cd" stroke-dasharray="5,2" d="M1373.2472,-360.6812C1422.6121,-356.9377 1490.4693,-348.9556 1548,-331.9682 1567.0873,-326.3321 1587.4996,-316.0777 1601.2286,-308.4902"/>
<polygon fill="#9a32cd" stroke="#9a32cd" points="1372.7276,-357.2094 1363.0043,-361.4174 1373.2295,-364.1914 1372.7276,-357.2094"/>
<text text-anchor="middle" x="1466.5" y="-361.9682" font-family="Helvetica,sans-Serif" font-size="10.00" fill="#000000"> m_physics_mgr</text>
</g>
<!-- Node28&#45;&gt;Node27 -->
<g id="edge37" class="edge">
<title>Node28&#45;&gt;Node27</title>
<path fill="none" stroke="#191970" d="M1126.5854,-328.9288C1168.08,-337.078 1219.3613,-347.1493 1256.2807,-354.4"/>
<polygon fill="#191970" stroke="#191970" points="1127.0216,-325.4477 1116.5346,-326.9549 1125.6726,-332.3165 1127.0216,-325.4477"/>
</g>
<!-- Node29&#45;&gt;Node3 -->
<g id="edge41" class="edge">
<title>Node29&#45;&gt;Node3</title>
<path fill="none" stroke="#9a32cd" stroke-dasharray="5,2" d="M1118.195,-202.8092C1166.7541,-216.6276 1232.1441,-235.2356 1271.2865,-246.3743"/>
<polygon fill="#9a32cd" stroke="#9a32cd" points="1118.9887,-199.3962 1108.4125,-200.0254 1117.0727,-206.1289 1118.9887,-199.3962"/>
<text text-anchor="middle" x="1186" y="-236.9682" font-family="Helvetica,sans-Serif" font-size="10.00" fill="#000000"> m_icns</text>
</g>
<!-- Node30 -->
<g id="node28" class="node">
<title>Node30</title>
<g id="a_node28"><a xlink:href="classamr__wind_1_1pde_1_1_p_d_e_base.html" target="_top" xlink:title="Abstract interface defining a PDE and its solution process withn AMR&#45;WindThe exact behavior is implem...">
<polygon fill="#ffffff" stroke="#000000" points="681,-152.4682 681,-171.4682 811,-171.4682 811,-152.4682 681,-152.4682"/>
<text text-anchor="middle" x="746" y="-159.4682" font-family="Helvetica,sans-Serif" font-size="10.00" fill="#000000">amr_wind::pde::PDEBase</text>
</a>
</g>
</g>
<!-- Node30&#45;&gt;Node29 -->
<g id="edge42" class="edge">
<title>Node30&#45;&gt;Node29</title>
<path fill="none" stroke="#9a32cd" stroke-dasharray="5,2" d="M821.3016,-167.5641C874.3989,-171.5099 944.6196,-176.7283 994.278,-180.4185"/>
<polygon fill="#9a32cd" stroke="#9a32cd" points="821.4907,-164.0686 811.2588,-166.8178 820.9719,-171.0493 821.4907,-164.0686"/>
<text text-anchor="middle" x="896.5" y="-180.9682" font-family="Helvetica,sans-Serif" font-size="10.00" fill="#000000"> ptr</text>
</g>
<!-- Node31&#45;&gt;Node30 -->
<g id="edge43" class="edge">
<title>Node31&#45;&gt;Node30</title>
<path fill="none" stroke="#191970" d="M574.3251,-168.3528C607.8762,-167.105 647.7715,-165.6213 680.6552,-164.3983"/>
<polygon fill="#191970" stroke="#191970" points="573.9941,-164.8625 564.1312,-168.7319 574.2544,-171.8577 573.9941,-164.8625"/>
</g>
</g>
</svg>
