<?xml version="1.0" encoding="UTF-8" standalone="no"?>
<!DOCTYPE svg PUBLIC "-//W3C//DTD SVG 1.1//EN"
 "http://www.w3.org/Graphics/SVG/1.1/DTD/svg11.dtd">
<!-- Generated by graphviz version 2.40.1 (20161225.0304)
 -->
<!-- Title: amr_wind::sampling::LineSampler Pages: 1 -->
<svg width="2200pt" height="629pt"
 viewBox="0.00 0.00 2200.00 629.00" xmlns="http://www.w3.org/2000/svg" xmlns:xlink="http://www.w3.org/1999/xlink">
<g id="graph0" class="graph" transform="scale(1 1) rotate(0) translate(4 625)">
<title>amr_wind::sampling::LineSampler</title>
<polygon fill="#ffffff" stroke="transparent" points="-4,4 -4,-625 2196,-625 2196,4 -4,4"/>
<!-- Node2 -->
<g id="node1" class="node">
<title>Node2</title>
<polygon fill="#bfbfbf" stroke="#000000" points="1859,-21 1859,-51 1963,-51 1963,-21 1859,-21"/>
<text text-anchor="start" x="1867" y="-39" font-family="Helvetica,sans-Serif" font-size="10.00" fill="#000000">amr_wind::sampling</text>
<text text-anchor="middle" x="1911" y="-28" font-family="Helvetica,sans-Serif" font-size="10.00" fill="#000000">::LineSampler</text>
</g>
<!-- Node3 -->
<g id="node2" class="node">
<title>Node3</title>
<polygon fill="#ffffff" stroke="#bfbfbf" points="1600.5,-29 1600.5,-59 1718.5,-59 1718.5,-29 1600.5,-29"/>
<text text-anchor="start" x="1608.5" y="-47" font-family="Helvetica,sans-Serif" font-size="10.00" fill="#000000">SamplerBase::Register</text>
<text text-anchor="middle" x="1659.5" y="-36" font-family="Helvetica,sans-Serif" font-size="10.00" fill="#000000">&lt; LineSampler &gt;</text>
</g>
<!-- Node3&#45;&gt;Node2 -->
<g id="edge1" class="edge">
<title>Node3&#45;&gt;Node2</title>
<path fill="none" stroke="#191970" d="M1729.0028,-41.7892C1770.1112,-40.4816 1821.3206,-38.8526 1858.9373,-37.6561"/>
<polygon fill="#191970" stroke="#191970" points="1728.6672,-38.298 1718.7835,-42.1142 1728.8898,-45.2944 1728.6672,-38.298"/>
</g>
<!-- Node4 -->
<g id="node3" class="node">
<title>Node4</title>
<g id="a_node3"><a xlink:href="classamr__wind_1_1_c_f_d_sim.html" target="_top" xlink:title="Data structures for a CFD simulationCFDSim represents the amr&#45;wind execution environment and manages ...">
<polygon fill="#ffffff" stroke="#000000" points="1608,-318.5 1608,-337.5 1711,-337.5 1711,-318.5 1608,-318.5"/>
<text text-anchor="middle" x="1659.5" y="-325.5" font-family="Helvetica,sans-Serif" font-size="10.00" fill="#000000">amr_wind::CFDSim</text>
</a>
</g>
</g>
<!-- Node4&#45;&gt;Node2 -->
<g id="edge2" class="edge">
<title>Node4&#45;&gt;Node2</title>
<path fill="none" stroke="#9a32cd" stroke-dasharray="5,2" d="M1677.1094,-311.2994C1693.9796,-295.0665 1719.9161,-269.4918 1741,-246 1803.9752,-175.8325 1872.8596,-86.3911 1899.5516,-51.1981"/>
<polygon fill="#9a32cd" stroke="#9a32cd" points="1674.4229,-309.0258 1669.6169,-318.4678 1679.2621,-314.0837 1674.4229,-309.0258"/>
<text text-anchor="middle" x="1786.5" y="-228" font-family="Helvetica,sans-Serif" font-size="10.00" fill="#000000"> m_sim</text>
</g>
<!-- Node6 -->
<g id="node5" class="node">
<title>Node6</title>
<g id="a_node5"><a xlink:href="classamr__wind_1_1_i_o_manager.html" target="_top" xlink:title="Input/Output managerThis class contains infrastructure to output solution fields during the simulatio...">
<polygon fill="#ffffff" stroke="#000000" points="1854.5,-551.5 1854.5,-570.5 1967.5,-570.5 1967.5,-551.5 1854.5,-551.5"/>
<text text-anchor="middle" x="1911" y="-558.5" font-family="Helvetica,sans-Serif" font-size="10.00" fill="#000000">amr_wind::IOManager</text>
</a>
</g>
</g>
<!-- Node4&#45;&gt;Node6 -->
<g id="edge5" class="edge">
<title>Node4&#45;&gt;Node6</title>
<path fill="none" stroke="#9a32cd" stroke-dasharray="5,2" d="M1673.8335,-345.7179C1692.4679,-368.3321 1726.485,-408.2097 1759,-439 1806.9108,-484.3694 1870.0252,-531.4076 1897.3829,-551.2483"/>
<polygon fill="#9a32cd" stroke="#9a32cd" points="1676.3054,-343.2118 1667.2655,-337.6864 1670.8867,-347.6432 1676.3054,-343.2118"/>
<text text-anchor="middle" x="1786.5" y="-487" font-family="Helvetica,sans-Serif" font-size="10.00" fill="#000000"> m_sim</text>
</g>
<!-- Node15 -->
<g id="node14" class="node">
<title>Node15</title>
<g id="a_node14"><a xlink:href="classamr__wind_1_1_post_process_manager.html" target="_top" xlink:title="A collection of post&#45;processing instances that are active during a simulation. ">
<polygon fill="#ffffff" stroke="#000000" points="1832,-357.5 1832,-376.5 1990,-376.5 1990,-357.5 1832,-357.5"/>
<text text-anchor="middle" x="1911" y="-364.5" font-family="Helvetica,sans-Serif" font-size="10.00" fill="#000000">amr_wind::PostProcessManager</text>
</a>
</g>
</g>
<!-- Node4&#45;&gt;Node15 -->
<g id="edge16" class="edge">
<title>Node4&#45;&gt;Node15</title>
<path fill="none" stroke="#9a32cd" stroke-dasharray="5,2" d="M1721.1696,-337.5631C1760.1595,-343.6092 1810.3658,-351.3947 1849.3517,-357.4402"/>
<polygon fill="#9a32cd" stroke="#9a32cd" points="1721.4199,-334.0601 1711.0017,-335.9863 1720.3472,-340.9775 1721.4199,-334.0601"/>
<text text-anchor="middle" x="1786.5" y="-353" font-family="Helvetica,sans-Serif" font-size="10.00" fill="#000000"> m_sim</text>
</g>
<!-- Node16 -->
<g id="node15" class="node">
<title>Node16</title>
<g id="a_node15"><a xlink:href="classamr__wind_1_1pde_1_1_p_d_e_mgr.html" target="_top" xlink:title="PDE systems manager. ">
<polygon fill="#ffffff" stroke="#000000" points="1849,-221.5 1849,-240.5 1973,-240.5 1973,-221.5 1849,-221.5"/>
<text text-anchor="middle" x="1911" y="-228.5" font-family="Helvetica,sans-Serif" font-size="10.00" fill="#000000">amr_wind::pde::PDEMgr</text>
</a>
</g>
</g>
<!-- Node4&#45;&gt;Node16 -->
<g id="edge27" class="edge">
<title>Node4&#45;&gt;Node16</title>
<path fill="none" stroke="#9a32cd" stroke-dasharray="5,2" d="M1704.4157,-315.7218C1735.5922,-306.7243 1777.8524,-293.577 1814,-279 1842.5783,-267.4754 1874.3495,-251.0175 1893.4941,-240.6768"/>
<polygon fill="#9a32cd" stroke="#9a32cd" points="1703.3599,-312.3833 1694.7047,-318.4938 1705.2814,-319.1144 1703.3599,-312.3833"/>
<text text-anchor="middle" x="1786.5" y="-302" font-family="Helvetica,sans-Serif" font-size="10.00" fill="#000000"> m_sim</text>
</g>
<!-- Node5 -->
<g id="node4" class="node">
<title>Node5</title>
<polygon fill="#ffffff" stroke="#bfbfbf" points="2063,-498 2063,-528 2170,-528 2170,-498 2063,-498"/>
<text text-anchor="start" x="2071" y="-516" font-family="Helvetica,sans-Serif" font-size="10.00" fill="#000000">std::unique_ptr&lt; amr</text>
<text text-anchor="middle" x="2116.5" y="-505" font-family="Helvetica,sans-Serif" font-size="10.00" fill="#000000">_wind::IOManager &gt;</text>
</g>
<!-- Node5&#45;&gt;Node4 -->
<g id="edge3" class="edge">
<title>Node5&#45;&gt;Node4</title>
<path fill="none" stroke="#9a32cd" stroke-dasharray="5,2" d="M2069.8587,-494.119C1973.4482,-455.0906 1755.2042,-366.7424 1683.108,-337.5568"/>
<polygon fill="#9a32cd" stroke="#9a32cd" points="2068.7673,-497.453 2079.35,-497.9611 2071.394,-490.9645 2068.7673,-497.453"/>
<text text-anchor="middle" x="1911" y="-462" font-family="Helvetica,sans-Serif" font-size="10.00" fill="#000000"> m_io_mgr</text>
</g>
<!-- Node6&#45;&gt;Node5 -->
<g id="edge4" class="edge">
<title>Node6&#45;&gt;Node5</title>
<path fill="none" stroke="#9a32cd" stroke-dasharray="5,2" d="M1962.1641,-549.0493C1992.871,-541.8769 2031.8777,-532.7658 2062.9935,-525.4979"/>
<polygon fill="#9a32cd" stroke="#9a32cd" points="1961.0339,-545.719 1952.0921,-551.4018 1962.6261,-552.5355 1961.0339,-545.719"/>
<text text-anchor="middle" x="2015.5" y="-540" font-family="Helvetica,sans-Serif" font-size="10.00" fill="#000000"> ptr</text>
</g>
<!-- Node7 -->
<g id="node6" class="node">
<title>Node7</title>
<polygon fill="#ffffff" stroke="#bfbfbf" points="410,-557.5 410,-576.5 521,-576.5 521,-557.5 410,-557.5"/>
<text text-anchor="middle" x="465.5" y="-564.5" font-family="Helvetica,sans-Serif" font-size="10.00" fill="#000000">std::set&lt; std::string &gt;</text>
</g>
<!-- Node7&#45;&gt;Node6 -->
<g id="edge6" class="edge">
<title>Node7&#45;&gt;Node6</title>
<path fill="none" stroke="#9a32cd" stroke-dasharray="5,2" d="M531.3428,-577.6539C594.6426,-586.9629 693.1004,-599 779,-599 779,-599 779,-599 1659.5,-599 1728.448,-599 1746.005,-596.4241 1814,-585 1835.3854,-581.4069 1859.0132,-575.6007 1877.5949,-570.5992"/>
<polygon fill="#9a32cd" stroke="#9a32cd" points="531.5131,-574.1407 521.1062,-576.1271 530.4804,-581.0641 531.5131,-574.1407"/>
<text text-anchor="middle" x="1233" y="-613" font-family="Helvetica,sans-Serif" font-size="10.00" fill="#000000"> m_chkvars</text>
<text text-anchor="middle" x="1233" y="-602" font-family="Helvetica,sans-Serif" font-size="10.00" fill="#000000">m_pltvars_default</text>
</g>
<!-- Node8 -->
<g id="node7" class="node">
<title>Node8</title>
<g id="a_node7"><a xlink:title="STL class. ">
<polygon fill="#ffffff" stroke="#bfbfbf" points="195.5,-268.5 195.5,-287.5 255.5,-287.5 255.5,-268.5 195.5,-268.5"/>
<text text-anchor="middle" x="225.5" y="-275.5" font-family="Helvetica,sans-Serif" font-size="10.00" fill="#000000">std::string</text>
</a>
</g>
</g>
<!-- Node8&#45;&gt;Node2 -->
<g id="edge53" class="edge">
<title>Node8&#45;&gt;Node2</title>
<path fill="none" stroke="#9a32cd" stroke-dasharray="5,2" d="M229.641,-258.396C237.5039,-225.0073 257.2818,-156.3268 295,-111 352.8374,-41.4955 375.0785,0 465.5,0 465.5,0 465.5,0 1659.5,0 1728.9705,0 1808.1558,-13.6265 1858.8067,-24.1125"/>
<polygon fill="#9a32cd" stroke="#9a32cd" points="226.1972,-257.7577 227.4224,-268.2814 233.0273,-259.2906 226.1972,-257.7577"/>
<text text-anchor="middle" x="1075.5" y="-3" font-family="Helvetica,sans-Serif" font-size="10.00" fill="#000000"> m_label</text>
</g>
<!-- Node8&#45;&gt;Node6 -->
<g id="edge11" class="edge">
<title>Node8&#45;&gt;Node6</title>
<path fill="none" stroke="#9a32cd" stroke-dasharray="5,2" d="M244.4595,-294.3343C290.579,-334.0411 405.2134,-432.5659 410,-435 462.56,-461.7279 480.944,-455.6833 539,-466 1043.2506,-555.6069 1665.7148,-561.748 1854.2779,-561.3842"/>
<polygon fill="#9a32cd" stroke="#9a32cd" points="246.5487,-291.5144 236.6873,-287.641 241.9808,-296.8187 246.5487,-291.5144"/>
<text text-anchor="middle" x="1075.5" y="-561" font-family="Helvetica,sans-Serif" font-size="10.00" fill="#000000"> m_chk_prefix</text>
<text text-anchor="middle" x="1075.5" y="-550" font-family="Helvetica,sans-Serif" font-size="10.00" fill="#000000">m_plt_prefix</text>
<text text-anchor="middle" x="1075.5" y="-539" font-family="Helvetica,sans-Serif" font-size="10.00" fill="#000000">m_restart_file</text>
</g>
<!-- Node8&#45;&gt;Node7 -->
<g id="edge7" class="edge">
<title>Node8&#45;&gt;Node7</title>
<path fill="none" stroke="#9a32cd" stroke-dasharray="5,2" d="M232.6175,-297.1582C242.8635,-324.9587 262.1671,-378.1725 277,-424 285.7045,-450.8932 276.688,-463.4667 295,-485 314.8954,-508.3954 396.7011,-541.3655 439.3541,-557.4389"/>
<polygon fill="#9a32cd" stroke="#9a32cd" points="235.7996,-295.6721 229.0477,-287.5074 229.2344,-298.1006 235.7996,-295.6721"/>
<text text-anchor="middle" x="343.5" y="-541" font-family="Helvetica,sans-Serif" font-size="10.00" fill="#000000"> keys</text>
</g>
<!-- Node8&#45;&gt;Node16 -->
<g id="edge28" class="edge">
<title>Node8&#45;&gt;Node16</title>
<path fill="none" stroke="#9a32cd" stroke-dasharray="5,2" d="M236.9077,-259.978C267.6805,-213.8282 357.4102,-95 465.5,-95 465.5,-95 465.5,-95 1659.5,-95 1765.7259,-95 1870.1014,-190.0356 1901.4904,-221.2192"/>
<polygon fill="#9a32cd" stroke="#9a32cd" points="233.9335,-258.1312 231.4003,-268.4188 239.796,-261.9564 233.9335,-258.1312"/>
<text text-anchor="middle" x="1075.5" y="-98" font-family="Helvetica,sans-Serif" font-size="10.00" fill="#000000"> m_scheme</text>
</g>
<!-- Node18 -->
<g id="node17" class="node">
<title>Node18</title>
<polygon fill="#ffffff" stroke="#bfbfbf" points="414,-233 414,-263 517,-263 517,-233 414,-233"/>
<text text-anchor="start" x="422" y="-251" font-family="Helvetica,sans-Serif" font-size="10.00" fill="#000000">std::unordered_map</text>
<text text-anchor="middle" x="465.5" y="-240" font-family="Helvetica,sans-Serif" font-size="10.00" fill="#000000">&lt; std::string, int &gt;</text>
</g>
<!-- Node8&#45;&gt;Node18 -->
<g id="edge21" class="edge">
<title>Node8&#45;&gt;Node18</title>
<path fill="none" stroke="#9a32cd" stroke-dasharray="5,2" d="M266,-272.9375C306.7269,-267.8466 369.6629,-259.9796 413.9334,-254.4458"/>
<polygon fill="#9a32cd" stroke="#9a32cd" points="265.3848,-269.4871 255.8962,-274.2005 266.2531,-276.433 265.3848,-269.4871"/>
<text text-anchor="middle" x="343.5" y="-273" font-family="Helvetica,sans-Serif" font-size="10.00" fill="#000000"> keys</text>
</g>
<!-- Node33 -->
<g id="node32" class="node">
<title>Node33</title>
<polygon fill="#ffffff" stroke="#bfbfbf" points="410.5,-319 410.5,-349 520.5,-349 520.5,-319 410.5,-319"/>
<text text-anchor="start" x="418.5" y="-337" font-family="Helvetica,sans-Serif" font-size="10.00" fill="#000000">std::unordered_map</text>
<text text-anchor="middle" x="465.5" y="-326" font-family="Helvetica,sans-Serif" font-size="10.00" fill="#000000">&lt; std::string, size_t &gt;</text>
</g>
<!-- Node8&#45;&gt;Node33 -->
<g id="edge47" class="edge">
<title>Node8&#45;&gt;Node33</title>
<path fill="none" stroke="#9a32cd" stroke-dasharray="5,2" d="M265.7302,-287.3871C305.3268,-296.6263 366.1047,-310.8078 410.225,-321.1025"/>
<polygon fill="#9a32cd" stroke="#9a32cd" points="266.4299,-283.9564 255.8962,-285.0924 264.8393,-290.7733 266.4299,-283.9564"/>
<text text-anchor="middle" x="343.5" y="-319" font-family="Helvetica,sans-Serif" font-size="10.00" fill="#000000"> keys</text>
</g>
<!-- Node9 -->
<g id="node8" class="node">
<title>Node9</title>
<g id="a_node8"><a xlink:title="STL class. ">
<polygon fill="#ffffff" stroke="#bfbfbf" points="0,-263 0,-293 95,-293 95,-263 0,-263"/>
<text text-anchor="start" x="8" y="-281" font-family="Helvetica,sans-Serif" font-size="10.00" fill="#000000">std::basic_string&lt;</text>
<text text-anchor="middle" x="47.5" y="-270" font-family="Helvetica,sans-Serif" font-size="10.00" fill="#000000"> char &gt;</text>
</a>
</g>
</g>
<!-- Node9&#45;&gt;Node8 -->
<g id="edge8" class="edge">
<title>Node9&#45;&gt;Node8</title>
<path fill="none" stroke="#191970" d="M105.5446,-278C135.493,-278 170.7833,-278 195.3,-278"/>
<polygon fill="#191970" stroke="#191970" points="105.2008,-274.5001 95.2007,-278 105.2007,-281.5001 105.2008,-274.5001"/>
</g>
<!-- Node10 -->
<g id="node9" class="node">
<title>Node10</title>
<g id="a_node9"><a xlink:title="STL class. ">
<polygon fill="#ffffff" stroke="#bfbfbf" points="188.5,-542.5 188.5,-561.5 262.5,-561.5 262.5,-542.5 188.5,-542.5"/>
<text text-anchor="middle" x="225.5" y="-549.5" font-family="Helvetica,sans-Serif" font-size="10.00" fill="#000000">std::set&lt; K &gt;</text>
</a>
</g>
</g>
<!-- Node10&#45;&gt;Node7 -->
<g id="edge9" class="edge">
<title>Node10&#45;&gt;Node7</title>
<path fill="none" stroke="#ffa500" stroke-dasharray="5,2" d="M272.8701,-554.9606C312.2475,-557.4217 368.3509,-560.9282 409.8613,-563.5226"/>
<polygon fill="#ffa500" stroke="#ffa500" points="272.9356,-551.458 262.7367,-554.3273 272.4988,-558.4444 272.9356,-551.458"/>
<text text-anchor="middle" x="343.5" y="-565" font-family="Helvetica,sans-Serif" font-size="10.00" fill="#000000"> &lt; std::string &gt;</text>
</g>
<!-- Node11 -->
<g id="node10" class="node">
<title>Node11</title>
<polygon fill="#ffffff" stroke="#bfbfbf" points="33,-513.5 33,-532.5 62,-532.5 62,-513.5 33,-513.5"/>
<text text-anchor="middle" x="47.5" y="-520.5" font-family="Helvetica,sans-Serif" font-size="10.00" fill="#000000">K</text>
</g>
<!-- Node11&#45;&gt;Node10 -->
<g id="edge10" class="edge">
<title>Node11&#45;&gt;Node10</title>
<path fill="none" stroke="#9a32cd" stroke-dasharray="5,2" d="M72.1226,-527.0116C102.196,-531.9111 153.3622,-540.2472 188.2582,-545.9325"/>
<polygon fill="#9a32cd" stroke="#9a32cd" points="72.4992,-523.5268 62.0665,-525.3732 71.3735,-530.4357 72.4992,-523.5268"/>
<text text-anchor="middle" x="134.5" y="-543" font-family="Helvetica,sans-Serif" font-size="10.00" fill="#000000"> keys</text>
</g>
<!-- Node19 -->
<g id="node18" class="node">
<title>Node19</title>
<g id="a_node18"><a xlink:title="STL class. ">
<polygon fill="#ffffff" stroke="#bfbfbf" points="174,-433 174,-463 277,-463 277,-433 174,-433"/>
<text text-anchor="start" x="182" y="-451" font-family="Helvetica,sans-Serif" font-size="10.00" fill="#000000">std::unordered_map</text>
<text text-anchor="middle" x="225.5" y="-440" font-family="Helvetica,sans-Serif" font-size="10.00" fill="#000000">&lt; K, T &gt;</text>
</a>
</g>
</g>
<!-- Node11&#45;&gt;Node19 -->
<g id="edge23" class="edge">
<title>Node11&#45;&gt;Node19</title>
<path fill="none" stroke="#9a32cd" stroke-dasharray="5,2" d="M71.4598,-512.9046C101.8456,-500.1016 154.5086,-477.9121 189.6781,-463.0935"/>
<polygon fill="#9a32cd" stroke="#9a32cd" points="69.9228,-509.7541 62.0665,-516.8624 72.6409,-516.2049 69.9228,-509.7541"/>
<text text-anchor="middle" x="134.5" y="-497" font-family="Helvetica,sans-Serif" font-size="10.00" fill="#000000"> keys</text>
</g>
<!-- Node12 -->
<g id="node11" class="node">
<title>Node12</title>
<g id="a_node11"><a xlink:title="STL class. ">
<polygon fill="#ffffff" stroke="#bfbfbf" points="1023,-466.5 1023,-485.5 1128,-485.5 1128,-466.5 1023,-466.5"/>
<text text-anchor="middle" x="1075.5" y="-473.5" font-family="Helvetica,sans-Serif" font-size="10.00" fill="#000000">std::unique_ptr&lt; T &gt;</text>
</a>
</g>
</g>
<!-- Node12&#45;&gt;Node5 -->
<g id="edge12" class="edge">
<title>Node12&#45;&gt;Node5</title>
<path fill="none" stroke="#ffa500" stroke-dasharray="5,2" d="M1104.782,-489.743C1121.207,-496.7019 1142.3002,-504.4196 1162,-508 1336.7619,-539.7623 1888.1679,-521.8352 2062.8622,-515.1656"/>
<polygon fill="#ffa500" stroke="#ffa500" points="1105.7767,-486.3577 1095.2126,-485.5519 1102.9684,-492.7698 1105.7767,-486.3577"/>
<text text-anchor="middle" x="1659.5" y="-529" font-family="Helvetica,sans-Serif" font-size="10.00" fill="#000000"> &lt; amr_wind::IOManager &gt;</text>
</g>
<!-- Node14 -->
<g id="node13" class="node">
<title>Node14</title>
<polygon fill="#ffffff" stroke="#bfbfbf" points="2041,-352 2041,-382 2192,-382 2192,-352 2041,-352"/>
<text text-anchor="start" x="2049" y="-370" font-family="Helvetica,sans-Serif" font-size="10.00" fill="#000000">std::unique_ptr&lt; amr</text>
<text text-anchor="middle" x="2116.5" y="-359" font-family="Helvetica,sans-Serif" font-size="10.00" fill="#000000">_wind::PostProcessManager &gt;</text>
</g>
<!-- Node12&#45;&gt;Node14 -->
<g id="edge17" class="edge">
<title>Node12&#45;&gt;Node14</title>
<path fill="none" stroke="#ffa500" stroke-dasharray="5,2" d="M1138.1451,-481.6701C1146.1672,-482.2195 1154.273,-482.6879 1162,-483 1225.0597,-485.5474 1240.897,-484.0116 1304,-483 1456.5032,-480.5552 1845.9839,-511.2253 1990,-461 2036.762,-444.6918 2080.6361,-404.4545 2102.33,-382.2776"/>
<polygon fill="#ffa500" stroke="#ffa500" points="1138.291,-478.1715 1128.0634,-480.9365 1137.7829,-485.1531 1138.291,-478.1715"/>
<text text-anchor="middle" x="1659.5" y="-493" font-family="Helvetica,sans-Serif" font-size="10.00" fill="#000000"> &lt; amr_wind::PostProcessManager &gt;</text>
</g>
<!-- Node21 -->
<g id="node20" class="node">
<title>Node21</title>
<polygon fill="#ffffff" stroke="#bfbfbf" points="1334.5,-231 1334.5,-261 1456.5,-261 1456.5,-231 1334.5,-231"/>
<text text-anchor="start" x="1342.5" y="-249" font-family="Helvetica,sans-Serif" font-size="10.00" fill="#000000">std::unique_ptr&lt; amr</text>
<text text-anchor="middle" x="1395.5" y="-238" font-family="Helvetica,sans-Serif" font-size="10.00" fill="#000000">_wind::pde::PDEBase &gt;</text>
</g>
<!-- Node12&#45;&gt;Node21 -->
<g id="edge33" class="edge">
<title>Node12&#45;&gt;Node21</title>
<path fill="none" stroke="#ffa500" stroke-dasharray="5,2" d="M1120.2037,-462.1797C1129.1416,-457.6271 1137.7041,-451.6878 1144,-444 1165.4458,-417.813 1138.0229,-393.891 1162,-370 1207.9701,-324.1949 1250.7682,-373.1178 1304,-336 1315.8302,-327.751 1312.4352,-319.7942 1322,-309 1338.0503,-290.8867 1359.2999,-273.2173 1374.8211,-261.2235"/>
<polygon fill="#ffa500" stroke="#ffa500" points="1118.4893,-459.1143 1110.8327,-466.4373 1121.3849,-465.4873 1118.4893,-459.1143"/>
<text text-anchor="middle" x="1233" y="-373" font-family="Helvetica,sans-Serif" font-size="10.00" fill="#000000"> &lt; amr_wind::pde::PDEBase &gt;</text>
</g>
<!-- Node26 -->
<g id="node25" class="node">
<title>Node26</title>
<polygon fill="#ffffff" stroke="#bfbfbf" points="1331,-357 1331,-387 1460,-387 1460,-357 1331,-357"/>
<text text-anchor="start" x="1339" y="-375" font-family="Helvetica,sans-Serif" font-size="10.00" fill="#000000">std::unique_ptr&lt; amr</text>
<text text-anchor="middle" x="1395.5" y="-364" font-family="Helvetica,sans-Serif" font-size="10.00" fill="#000000">_wind::OversetManager &gt;</text>
</g>
<!-- Node12&#45;&gt;Node26 -->
<g id="edge39" class="edge">
<title>Node12&#45;&gt;Node26</title>
<path fill="none" stroke="#ffa500" stroke-dasharray="5,2" d="M1111.1983,-462.3783C1122.2027,-457.3928 1134.036,-451.1846 1144,-444 1153.4352,-437.1966 1151.6802,-430.3676 1162,-425 1218.5992,-395.5611 1242.328,-420.3306 1304,-404 1312.2977,-401.8028 1313.9349,-399.9383 1322,-397 1331.1181,-393.6781 1340.9213,-390.2472 1350.3029,-387.0314"/>
<polygon fill="#ffa500" stroke="#ffa500" points="1109.5984,-459.2569 1101.8091,-466.4386 1112.3769,-465.6819 1109.5984,-459.2569"/>
<text text-anchor="middle" x="1233" y="-428" font-family="Helvetica,sans-Serif" font-size="10.00" fill="#000000"> &lt; amr_wind::OversetManager &gt;</text>
</g>
<!-- Node29 -->
<g id="node28" class="node">
<title>Node29</title>
<polygon fill="#ffffff" stroke="#bfbfbf" points="1322,-406.5 1322,-447.5 1469,-447.5 1469,-406.5 1322,-406.5"/>
<text text-anchor="start" x="1330" y="-435.5" font-family="Helvetica,sans-Serif" font-size="10.00" fill="#000000">std::unique_ptr&lt; amr</text>
<text text-anchor="start" x="1330" y="-424.5" font-family="Helvetica,sans-Serif" font-size="10.00" fill="#000000">_wind::turbulence::Turbulence</text>
<text text-anchor="middle" x="1395.5" y="-413.5" font-family="Helvetica,sans-Serif" font-size="10.00" fill="#000000">Model &gt;</text>
</g>
<!-- Node12&#45;&gt;Node29 -->
<g id="edge44" class="edge">
<title>Node12&#45;&gt;Node29</title>
<path fill="none" stroke="#ffa500" stroke-dasharray="5,2" d="M1138.1479,-464.9298C1146.1695,-463.5731 1154.2745,-462.2321 1162,-461 1215.3999,-452.4838 1275.8116,-443.7104 1321.8068,-437.2092"/>
<polygon fill="#ffa500" stroke="#ffa500" points="1137.3355,-461.5178 1128.0666,-466.6498 1138.5128,-468.4181 1137.3355,-461.5178"/>
<text text-anchor="start" x="1180" y="-475" font-family="Helvetica,sans-Serif" font-size="10.00" fill="#000000"> &lt; amr_wind::turbulence</text>
<text text-anchor="middle" x="1233" y="-464" font-family="Helvetica,sans-Serif" font-size="10.00" fill="#000000">::TurbulenceModel &gt;</text>
</g>
<!-- Node13 -->
<g id="node12" class="node">
<title>Node13</title>
<polygon fill="#ffffff" stroke="#bfbfbf" points="33,-448.5 33,-467.5 62,-467.5 62,-448.5 33,-448.5"/>
<text text-anchor="middle" x="47.5" y="-455.5" font-family="Helvetica,sans-Serif" font-size="10.00" fill="#000000">T</text>
</g>
<!-- Node13&#45;&gt;Node12 -->
<g id="edge13" class="edge">
<title>Node13&#45;&gt;Node12</title>
<path fill="none" stroke="#9a32cd" stroke-dasharray="5,2" d="M71.2053,-470.0423C83.4018,-475.7415 98.6808,-482.1311 113,-486 161.6415,-499.1424 175.1143,-500 225.5,-500 225.5,-500 225.5,-500 779,-500 864.6,-500 963.6492,-489.9391 1022.8479,-482.8453"/>
<polygon fill="#9a32cd" stroke="#9a32cd" points="72.6897,-466.8724 62.1621,-465.681 69.6489,-473.1775 72.6897,-466.8724"/>
<text text-anchor="middle" x="465.5" y="-503" font-family="Helvetica,sans-Serif" font-size="10.00" fill="#000000"> ptr</text>
</g>
<!-- Node13&#45;&gt;Node19 -->
<g id="edge24" class="edge">
<title>Node13&#45;&gt;Node19</title>
<path fill="none" stroke="#9a32cd" stroke-dasharray="5,2" d="M71.9883,-450.0664C84.1726,-446.5258 99.2095,-442.7604 113,-441 132.7997,-438.4724 154.6812,-439.0703 173.8423,-440.7043"/>
<polygon fill="#9a32cd" stroke="#9a32cd" points="70.6696,-446.809 62.1182,-453.064 72.7038,-453.5069 70.6696,-446.809"/>
<text text-anchor="middle" x="134.5" y="-444" font-family="Helvetica,sans-Serif" font-size="10.00" fill="#000000"> elements</text>
</g>
<!-- Node14&#45;&gt;Node4 -->
<g id="edge14" class="edge">
<title>Node14&#45;&gt;Node4</title>
<path fill="none" stroke="#9a32cd" stroke-dasharray="5,2" d="M2054.2579,-349.553C2033.9372,-344.5809 2011.1565,-339.7668 1990,-337 1892.106,-324.1978 1776.5641,-324.5358 1711.2795,-326.136"/>
<polygon fill="#9a32cd" stroke="#9a32cd" points="2053.4672,-352.963 2064.018,-351.9983 2055.1685,-346.1729 2053.4672,-352.963"/>
<text text-anchor="middle" x="1911" y="-340" font-family="Helvetica,sans-Serif" font-size="10.00" fill="#000000"> m_post_mgr</text>
</g>
<!-- Node15&#45;&gt;Node14 -->
<g id="edge15" class="edge">
<title>Node15&#45;&gt;Node14</title>
<path fill="none" stroke="#9a32cd" stroke-dasharray="5,2" d="M2000.3781,-367C2013.8432,-367 2027.6199,-367 2040.762,-367"/>
<polygon fill="#9a32cd" stroke="#9a32cd" points="2000.1578,-363.5001 1990.1577,-367 2000.1577,-370.5001 2000.1578,-363.5001"/>
<text text-anchor="middle" x="2015.5" y="-370" font-family="Helvetica,sans-Serif" font-size="10.00" fill="#000000"> ptr</text>
</g>
<!-- Node16&#45;&gt;Node4 -->
<g id="edge18" class="edge">
<title>Node16&#45;&gt;Node4</title>
<path fill="none" stroke="#9a32cd" stroke-dasharray="5,2" d="M1844.6859,-242.5652C1817.5345,-248.4659 1786.1747,-256.8073 1759,-268 1725.7997,-281.6745 1690.6644,-305.3405 1672.3359,-318.4925"/>
<polygon fill="#9a32cd" stroke="#9a32cd" points="1845.4195,-245.9876 1854.4831,-240.5009 1843.9763,-239.138 1845.4195,-245.9876"/>
<text text-anchor="middle" x="1786.5" y="-271" font-family="Helvetica,sans-Serif" font-size="10.00" fill="#000000"> m_pde_mgr</text>
</g>
<!-- Node17 -->
<g id="node16" class="node">
<title>Node17</title>
<g id="a_node16"><a xlink:href="classamr__wind_1_1_coll_mgr.html" target="_top" xlink:title="amr_wind::CollMgr\&lt;\l PDEMgr, PDEBase \&gt;">
<polygon fill="#ffffff" stroke="#000000" points="1017.5,-144 1017.5,-174 1133.5,-174 1133.5,-144 1017.5,-144"/>
<text text-anchor="start" x="1025.5" y="-162" font-family="Helvetica,sans-Serif" font-size="10.00" fill="#000000">amr_wind::CollMgr&lt;</text>
<text text-anchor="middle" x="1075.5" y="-151" font-family="Helvetica,sans-Serif" font-size="10.00" fill="#000000"> PDEMgr, PDEBase &gt;</text>
</a>
</g>
</g>
<!-- Node17&#45;&gt;Node16 -->
<g id="edge19" class="edge">
<title>Node17&#45;&gt;Node16</title>
<path fill="none" stroke="#191970" d="M1143.8125,-162.1855C1222.3519,-166.0755 1355.1072,-173.348 1469,-183 1604.7489,-194.5043 1763.4156,-212.9618 1848.8709,-223.3162"/>
<polygon fill="#191970" stroke="#191970" points="1143.728,-158.6772 1133.5682,-161.6821 1143.3844,-165.6688 1143.728,-158.6772"/>
</g>
<!-- Node18&#45;&gt;Node17 -->
<g id="edge20" class="edge">
<title>Node18&#45;&gt;Node17</title>
<path fill="none" stroke="#9a32cd" stroke-dasharray="5,2" d="M491.0535,-226.6428C504.6049,-216.1921 521.9449,-204.1419 539,-196 606.9304,-163.571 627.4368,-160.3197 702,-150 812.6709,-134.683 943.506,-144.0527 1017.2663,-151.8226"/>
<polygon fill="#9a32cd" stroke="#9a32cd" points="488.8183,-223.9481 483.1418,-232.8939 493.158,-229.4406 488.8183,-223.9481"/>
<text text-anchor="middle" x="779" y="-153" font-family="Helvetica,sans-Serif" font-size="10.00" fill="#000000"> m_obj_map</text>
</g>
<!-- Node20 -->
<g id="node19" class="node">
<title>Node20</title>
<g id="a_node19"><a xlink:href="classamr__wind_1_1_coll_mgr.html" target="_top" xlink:title="Interface to manage objects of sub&#45;classes based on factory registrationProvides boiler&#45;plate code to...">
<polygon fill="#ffffff" stroke="#000000" points="719.5,-170.5 719.5,-211.5 838.5,-211.5 838.5,-170.5 719.5,-170.5"/>
<text text-anchor="start" x="727.5" y="-199.5" font-family="Helvetica,sans-Serif" font-size="10.00" fill="#000000">amr_wind::CollMgr&lt;</text>
<text text-anchor="start" x="727.5" y="-188.5" font-family="Helvetica,sans-Serif" font-size="10.00" fill="#000000"> Collection, Type, allow</text>
<text text-anchor="middle" x="779" y="-177.5" font-family="Helvetica,sans-Serif" font-size="10.00" fill="#000000">_duplicates &gt;</text>
</a>
</g>
</g>
<!-- Node18&#45;&gt;Node20 -->
<g id="edge26" class="edge">
<title>Node18&#45;&gt;Node20</title>
<path fill="none" stroke="#9a32cd" stroke-dasharray="5,2" d="M514.7627,-229.7754C522.7882,-227.2326 531.0699,-224.8585 539,-223 599.5712,-208.8045 670.3218,-200.3272 719.2372,-195.701"/>
<polygon fill="#9a32cd" stroke="#9a32cd" points="513.5487,-226.4901 505.1413,-232.9373 515.7342,-233.1402 513.5487,-226.4901"/>
<text text-anchor="middle" x="611.5" y="-226" font-family="Helvetica,sans-Serif" font-size="10.00" fill="#000000"> m_obj_map</text>
</g>
<!-- Node35 -->
<g id="node34" class="node">
<title>Node35</title>
<g id="a_node34"><a xlink:href="classamr__wind_1_1_coll_mgr.html" target="_top" xlink:title="amr_wind::CollMgr\&lt;\l PhysicsMgr, Physics \&gt;">
<polygon fill="#ffffff" stroke="#000000" points="1014.5,-193 1014.5,-223 1136.5,-223 1136.5,-193 1014.5,-193"/>
<text text-anchor="start" x="1022.5" y="-211" font-family="Helvetica,sans-Serif" font-size="10.00" fill="#000000">amr_wind::CollMgr&lt;</text>
<text text-anchor="middle" x="1075.5" y="-200" font-family="Helvetica,sans-Serif" font-size="10.00" fill="#000000"> PhysicsMgr, Physics &gt;</text>
</a>
</g>
</g>
<!-- Node18&#45;&gt;Node35 -->
<g id="edge51" class="edge">
<title>Node18&#45;&gt;Node35</title>
<path fill="none" stroke="#9a32cd" stroke-dasharray="5,2" d="M527.2379,-245.62C625.2301,-241.5817 822.3471,-232.3961 989,-218 997.1331,-217.2974 1005.6838,-216.4463 1014.1141,-215.5406"/>
<polygon fill="#9a32cd" stroke="#9a32cd" points="527.0613,-242.1242 517.2124,-246.0294 527.3469,-249.1184 527.0613,-242.1242"/>
<text text-anchor="middle" x="779" y="-241" font-family="Helvetica,sans-Serif" font-size="10.00" fill="#000000"> m_obj_map</text>
</g>
<!-- Node19&#45;&gt;Node18 -->
<g id="edge22" class="edge">
<title>Node19&#45;&gt;Node18</title>
<path fill="none" stroke="#ffa500" stroke-dasharray="5,2" d="M260.289,-427.4758C295.4653,-405.8549 350.4268,-369.6365 392,-331 401.2541,-322.3996 401.7462,-318.5645 410,-309 423.6571,-293.1743 439.7883,-275.5592 451.1295,-263.3431"/>
<polygon fill="#ffa500" stroke="#ffa500" points="258.0781,-424.7241 251.3564,-432.9136 261.7181,-430.7033 258.0781,-424.7241"/>
<text text-anchor="middle" x="343.5" y="-407" font-family="Helvetica,sans-Serif" font-size="10.00" fill="#000000"> &lt; std::string, int &gt;</text>
</g>
<!-- Node19&#45;&gt;Node33 -->
<g id="edge48" class="edge">
<title>Node19&#45;&gt;Node33</title>
<path fill="none" stroke="#ffa500" stroke-dasharray="5,2" d="M279.9477,-465.4578C315.3647,-473.228 360.6288,-475.9612 392,-452 416.1628,-433.5446 394.3132,-412.0455 410,-386 418.7198,-371.5222 432.5948,-358.5222 444.2898,-349.1416"/>
<polygon fill="#ffa500" stroke="#ffa500" points="280.3093,-461.9459 269.7701,-463.0303 278.6852,-468.7549 280.3093,-461.9459"/>
<text text-anchor="middle" x="343.5" y="-473" font-family="Helvetica,sans-Serif" font-size="10.00" fill="#000000"> &lt; std::string, size_t &gt;</text>
</g>
<!-- Node20&#45;&gt;Node17 -->
<g id="edge25" class="edge">
<title>Node20&#45;&gt;Node17</title>
<path fill="none" stroke="#ffa500" stroke-dasharray="5,2" d="M848.6692,-183.4809C900.0292,-177.9378 969.0876,-170.4846 1017.4653,-165.2634"/>
<polygon fill="#ffa500" stroke="#ffa500" points="848.2112,-180.0099 838.6445,-184.5628 848.9624,-186.9695 848.2112,-180.0099"/>
<text text-anchor="middle" x="931.5" y="-184" font-family="Helvetica,sans-Serif" font-size="10.00" fill="#000000"> &lt; PDEMgr, PDEBase &gt;</text>
</g>
<!-- Node20&#45;&gt;Node35 -->
<g id="edge52" class="edge">
<title>Node20&#45;&gt;Node35</title>
<path fill="none" stroke="#ffa500" stroke-dasharray="5,2" d="M848.7839,-195.0011C899.0642,-197.884 966.2619,-201.7368 1014.4231,-204.4981"/>
<polygon fill="#ffa500" stroke="#ffa500" points="848.8285,-191.498 838.6445,-194.4198 848.4278,-198.4865 848.8285,-191.498"/>
<text text-anchor="middle" x="931.5" y="-206" font-family="Helvetica,sans-Serif" font-size="10.00" fill="#000000"> &lt; PhysicsMgr, Physics &gt;</text>
</g>
<!-- Node21&#45;&gt;Node16 -->
<g id="edge29" class="edge">
<title>Node21&#45;&gt;Node16</title>
<path fill="none" stroke="#9a32cd" stroke-dasharray="5,2" d="M1466.8086,-243.9251C1568.2317,-240.9739 1752.4938,-235.6122 1848.7164,-232.8123"/>
<polygon fill="#9a32cd" stroke="#9a32cd" points="1466.5529,-240.4309 1456.659,-244.2204 1466.7566,-247.428 1466.5529,-240.4309"/>
<text text-anchor="middle" x="1659.5" y="-244" font-family="Helvetica,sans-Serif" font-size="10.00" fill="#000000"> m_icns</text>
</g>
<!-- Node22 -->
<g id="node21" class="node">
<title>Node22</title>
<g id="a_node21"><a xlink:href="classamr__wind_1_1pde_1_1_p_d_e_base.html" target="_top" xlink:title="Abstract interface defining a PDE and its solution process withn AMR&#45;WindThe exact behavior is implem...">
<polygon fill="#ffffff" stroke="#000000" points="1010.5,-242.5 1010.5,-261.5 1140.5,-261.5 1140.5,-242.5 1010.5,-242.5"/>
<text text-anchor="middle" x="1075.5" y="-249.5" font-family="Helvetica,sans-Serif" font-size="10.00" fill="#000000">amr_wind::pde::PDEBase</text>
</a>
</g>
</g>
<!-- Node22&#45;&gt;Node21 -->
<g id="edge30" class="edge">
<title>Node22&#45;&gt;Node21</title>
<path fill="none" stroke="#9a32cd" stroke-dasharray="5,2" d="M1150.8459,-250.5873C1206.7512,-249.539 1282.0219,-248.1277 1334.2459,-247.1485"/>
<polygon fill="#9a32cd" stroke="#9a32cd" points="1150.5751,-247.0916 1140.6425,-250.7786 1150.7064,-254.0904 1150.5751,-247.0916"/>
<text text-anchor="middle" x="1233" y="-254" font-family="Helvetica,sans-Serif" font-size="10.00" fill="#000000"> ptr</text>
</g>
<!-- Node23 -->
<g id="node22" class="node">
<title>Node23</title>
<g id="a_node22"><a xlink:href="structamr__wind_1_1_factory.html" target="_top" xlink:title="amr_wind::Factory\&lt;\l PDEBase, CFDSim &amp;,\l const int \&gt;">
<polygon fill="#ffffff" stroke="#000000" points="719,-277.5 719,-318.5 839,-318.5 839,-277.5 719,-277.5"/>
<text text-anchor="start" x="727" y="-306.5" font-family="Helvetica,sans-Serif" font-size="10.00" fill="#000000">amr_wind::Factory&lt;</text>
<text text-anchor="start" x="727" y="-295.5" font-family="Helvetica,sans-Serif" font-size="10.00" fill="#000000"> PDEBase, CFDSim &amp;,</text>
<text text-anchor="middle" x="779" y="-284.5" font-family="Helvetica,sans-Serif" font-size="10.00" fill="#000000"> const int &gt;</text>
</a>
</g>
</g>
<!-- Node23&#45;&gt;Node22 -->
<g id="edge31" class="edge">
<title>Node23&#45;&gt;Node22</title>
<path fill="none" stroke="#191970" d="M849.1104,-287.1228C899.2283,-279.3474 966.0284,-268.9838 1014.0594,-261.5321"/>
<polygon fill="#191970" stroke="#191970" points="848.3464,-283.6994 839.0012,-288.6912 849.4196,-290.6167 848.3464,-283.6994"/>
</g>
<!-- Node24 -->
<g id="node23" class="node">
<title>Node24</title>
<g id="a_node23"><a xlink:href="structamr__wind_1_1_factory.html" target="_top" xlink:title="Runtime selection of options based on string keyword lookupFactory provides an automated way to regis...">
<polygon fill="#ffffff" stroke="#000000" points="413.5,-395 413.5,-425 517.5,-425 517.5,-395 413.5,-395"/>
<text text-anchor="start" x="421.5" y="-413" font-family="Helvetica,sans-Serif" font-size="10.00" fill="#000000">amr_wind::Factory&lt;</text>
<text text-anchor="middle" x="465.5" y="-402" font-family="Helvetica,sans-Serif" font-size="10.00" fill="#000000"> Base, Args &gt;</text>
</a>
</g>
</g>
<!-- Node24&#45;&gt;Node23 -->
<g id="edge32" class="edge">
<title>Node24&#45;&gt;Node23</title>
<path fill="none" stroke="#ffa500" stroke-dasharray="5,2" d="M502.2715,-390.3401C513.756,-384.9298 526.6555,-379.5735 539,-376 601.432,-357.9269 622.7912,-378.8603 684,-357 709.0489,-348.054 734.4949,-331.7858 752.7392,-318.5946"/>
<polygon fill="#ffa500" stroke="#ffa500" points="500.4557,-387.3315 493.0006,-394.8595 503.5231,-393.6236 500.4557,-387.3315"/>
<text text-anchor="start" x="555" y="-390" font-family="Helvetica,sans-Serif" font-size="10.00" fill="#000000"> &lt; PDEBase, CFDSim &amp;,</text>
<text text-anchor="middle" x="611.5" y="-379" font-family="Helvetica,sans-Serif" font-size="10.00" fill="#000000"> const int &gt;</text>
</g>
<!-- Node28 -->
<g id="node27" class="node">
<title>Node28</title>
<g id="a_node27"><a xlink:href="structamr__wind_1_1_factory.html" target="_top" xlink:title="amr_wind::Factory\&lt;\l OversetManager, CFDSim &amp;\&gt;">
<polygon fill="#ffffff" stroke="#000000" points="703,-380 703,-410 855,-410 855,-380 703,-380"/>
<text text-anchor="start" x="711" y="-398" font-family="Helvetica,sans-Serif" font-size="10.00" fill="#000000">amr_wind::Factory&lt;</text>
<text text-anchor="middle" x="779" y="-387" font-family="Helvetica,sans-Serif" font-size="10.00" fill="#000000"> OversetManager, CFDSim &amp;&gt;</text>
</a>
</g>
</g>
<!-- Node24&#45;&gt;Node28 -->
<g id="edge38" class="edge">
<title>Node24&#45;&gt;Node28</title>
<path fill="none" stroke="#ffa500" stroke-dasharray="5,2" d="M527.8138,-408.3306C571.5412,-407.0093 631.3667,-404.9017 684,-402 690.1097,-401.6632 696.4378,-401.2775 702.7935,-400.8641"/>
<polygon fill="#ffa500" stroke="#ffa500" points="527.5112,-404.8379 517.6195,-408.6332 527.7189,-411.8348 527.5112,-404.8379"/>
<text text-anchor="middle" x="611.5" y="-410" font-family="Helvetica,sans-Serif" font-size="10.00" fill="#000000"> &lt; OversetManager, CFDSim &amp;&gt;</text>
</g>
<!-- Node31 -->
<g id="node30" class="node">
<title>Node31</title>
<g id="a_node30"><a xlink:href="structamr__wind_1_1_factory.html" target="_top" xlink:title="amr_wind::Factory\&lt;\l TurbulenceModel, CFDSim &amp;\&gt;">
<polygon fill="#ffffff" stroke="#000000" points="702,-437 702,-467 856,-467 856,-437 702,-437"/>
<text text-anchor="start" x="710" y="-455" font-family="Helvetica,sans-Serif" font-size="10.00" fill="#000000">amr_wind::Factory&lt;</text>
<text text-anchor="middle" x="779" y="-444" font-family="Helvetica,sans-Serif" font-size="10.00" fill="#000000"> TurbulenceModel, CFDSim &amp;&gt;</text>
</a>
</g>
</g>
<!-- Node24&#45;&gt;Node31 -->
<g id="edge43" class="edge">
<title>Node24&#45;&gt;Node31</title>
<path fill="none" stroke="#ffa500" stroke-dasharray="5,2" d="M527.7544,-420.3306C531.5574,-420.91 535.3288,-421.471 539,-422 593.342,-429.8296 654.7803,-437.4872 701.8906,-443.1059"/>
<polygon fill="#ffa500" stroke="#ffa500" points="528.0794,-416.8392 517.6608,-418.7637 527.0055,-423.7563 528.0794,-416.8392"/>
<text text-anchor="start" x="566.5" y="-454" font-family="Helvetica,sans-Serif" font-size="10.00" fill="#000000"> &lt; TurbulenceModel,</text>
<text text-anchor="middle" x="611.5" y="-443" font-family="Helvetica,sans-Serif" font-size="10.00" fill="#000000"> CFDSim &amp;&gt;</text>
</g>
<!-- Node25 -->
<g id="node24" class="node">
<title>Node25</title>
<g id="a_node24"><a xlink:href="classamr__wind_1_1_sim_time.html" target="_top" xlink:title="Time manager for simulations. ">
<polygon fill="#ffffff" stroke="#000000" points="1343.5,-318.5 1343.5,-337.5 1447.5,-337.5 1447.5,-318.5 1343.5,-318.5"/>
<text text-anchor="middle" x="1395.5" y="-325.5" font-family="Helvetica,sans-Serif" font-size="10.00" fill="#000000">amr_wind::SimTime</text>
</a>
</g>
</g>
<!-- Node25&#45;&gt;Node4 -->
<g id="edge34" class="edge">
<title>Node25&#45;&gt;Node4</title>
<path fill="none" stroke="#9a32cd" stroke-dasharray="5,2" d="M1457.7508,-328C1503.4845,-328 1564.8902,-328 1607.9003,-328"/>
<polygon fill="#9a32cd" stroke="#9a32cd" points="1457.6579,-324.5001 1447.6579,-328 1457.6579,-331.5001 1457.6579,-324.5001"/>
<text text-anchor="middle" x="1523.5" y="-331" font-family="Helvetica,sans-Serif" font-size="10.00" fill="#000000"> m_time</text>
</g>
<!-- Node26&#45;&gt;Node4 -->
<g id="edge35" class="edge">
<title>Node26&#45;&gt;Node4</title>
<path fill="none" stroke="#9a32cd" stroke-dasharray="5,2" d="M1470.1602,-359.5566C1514.1635,-352.2227 1568.7191,-343.1302 1607.9493,-336.5918"/>
<polygon fill="#9a32cd" stroke="#9a32cd" points="1469.3702,-356.1399 1460.0817,-361.2364 1470.521,-363.0447 1469.3702,-356.1399"/>
<text text-anchor="middle" x="1523.5" y="-359" font-family="Helvetica,sans-Serif" font-size="10.00" fill="#000000"> m_overset_mgr</text>
</g>
<!-- Node27 -->
<g id="node26" class="node">
<title>Node27</title>
<g id="a_node26"><a xlink:href="classamr__wind_1_1_overset_manager.html" target="_top" xlink:title="Overset interface manager. ">
<polygon fill="#ffffff" stroke="#000000" points="1007,-335.5 1007,-354.5 1144,-354.5 1144,-335.5 1007,-335.5"/>
<text text-anchor="middle" x="1075.5" y="-342.5" font-family="Helvetica,sans-Serif" font-size="10.00" fill="#000000">amr_wind::OversetManager</text>
</a>
</g>
</g>
<!-- Node27&#45;&gt;Node26 -->
<g id="edge36" class="edge">
<title>Node27&#45;&gt;Node26</title>
<path fill="none" stroke="#9a32cd" stroke-dasharray="5,2" d="M1108.4162,-332.0924C1154.5506,-316.1584 1239.9657,-294.6555 1304,-325 1315.4165,-330.41 1311.6195,-339.7994 1322,-347 1327.5374,-350.8411 1333.7155,-354.1354 1340.0729,-356.9501"/>
<polygon fill="#9a32cd" stroke="#9a32cd" points="1107.1575,-328.8254 1098.9192,-335.4872 1109.5138,-335.4169 1107.1575,-328.8254"/>
<text text-anchor="middle" x="1233" y="-328" font-family="Helvetica,sans-Serif" font-size="10.00" fill="#000000"> ptr</text>
</g>
<!-- Node28&#45;&gt;Node27 -->
<g id="edge37" class="edge">
<title>Node28&#45;&gt;Node27</title>
<path fill="none" stroke="#191970" d="M865.4213,-380.4264C914.9378,-372.0763 975.6656,-361.8355 1019.071,-354.5159"/>
<polygon fill="#191970" stroke="#191970" points="864.6349,-377.0095 855.3561,-382.1238 865.7989,-383.9121 864.6349,-377.0095"/>
</g>
<!-- Node29&#45;&gt;Node4 -->
<g id="edge40" class="edge">
<title>Node29&#45;&gt;Node4</title>
<path fill="none" stroke="#9a32cd" stroke-dasharray="5,2" d="M1469.8429,-403.0912C1498.2348,-393.5953 1530.7916,-382.2624 1560,-371 1587.5666,-360.3707 1618.7444,-346.606 1638.7358,-337.5495"/>
<polygon fill="#9a32cd" stroke="#9a32cd" points="1468.3702,-399.8924 1459.9864,-406.3702 1470.5799,-406.5345 1468.3702,-399.8924"/>
<text text-anchor="middle" x="1523.5" y="-399" font-family="Helvetica,sans-Serif" font-size="10.00" fill="#000000"> m_turbulence</text>
</g>
<!-- Node30 -->
<g id="node29" class="node">
<title>Node30</title>
<g id="a_node29"><a xlink:href="classamr__wind_1_1turbulence_1_1_turbulence_model.html" target="_top" xlink:title="Abstract representation of a turbulence modelThis class is an abstract representation of a turbulence...">
<polygon fill="#ffffff" stroke="#000000" points="1020.5,-404 1020.5,-434 1130.5,-434 1130.5,-404 1020.5,-404"/>
<text text-anchor="start" x="1028.5" y="-422" font-family="Helvetica,sans-Serif" font-size="10.00" fill="#000000">amr_wind::turbulence</text>
<text text-anchor="middle" x="1075.5" y="-411" font-family="Helvetica,sans-Serif" font-size="10.00" fill="#000000">::TurbulenceModel</text>
</a>
</g>
</g>
<!-- Node30&#45;&gt;Node29 -->
<g id="edge41" class="edge">
<title>Node30&#45;&gt;Node29</title>
<path fill="none" stroke="#9a32cd" stroke-dasharray="5,2" d="M1126.6165,-400.9561C1138.1144,-397.6528 1150.3607,-394.7114 1162,-393 1224.4397,-383.8189 1241.8848,-381.8325 1304,-393 1319.3449,-395.7588 1335.4779,-400.9258 1349.8508,-406.4139"/>
<polygon fill="#9a32cd" stroke="#9a32cd" points="1125.3052,-397.6957 1116.7391,-403.9305 1127.3236,-404.3984 1125.3052,-397.6957"/>
<text text-anchor="middle" x="1233" y="-396" font-family="Helvetica,sans-Serif" font-size="10.00" fill="#000000"> ptr</text>
</g>
<!-- Node31&#45;&gt;Node30 -->
<g id="edge42" class="edge">
<title>Node31&#45;&gt;Node30</title>
<path fill="none" stroke="#191970" d="M866.2586,-442.2883C916.0875,-436.7424 977.0504,-429.9573 1020.29,-425.1448"/>
<polygon fill="#191970" stroke="#191970" points="865.6793,-438.831 856.1279,-443.4158 866.4537,-445.7881 865.6793,-438.831"/>
</g>
<!-- Node32 -->
<g id="node31" class="node">
<title>Node32</title>
<g id="a_node31"><a xlink:href="classamr__wind_1_1_field_repo.html" target="_top" xlink:title="Field RepositoryFieldRepo is a database that manages handling of fields used during a simulation...">
<polygon fill="#ffffff" stroke="#000000" points="877,-319.5 877,-338.5 986,-338.5 986,-319.5 877,-319.5"/>
<text text-anchor="middle" x="931.5" y="-326.5" font-family="Helvetica,sans-Serif" font-size="10.00" fill="#000000">amr_wind::FieldRepo</text>
</a>
</g>
</g>
<!-- Node32&#45;&gt;Node4 -->
<g id="edge45" class="edge">
<title>Node32&#45;&gt;Node4</title>
<path fill="none" stroke="#9a32cd" stroke-dasharray="5,2" d="M991.5055,-317.6863C1037.8687,-309.544 1103.7445,-299.2734 1162,-295 1298.2202,-285.0075 1332.9917,-296.4481 1469,-309 1515.9968,-313.3372 1569.4693,-318.7087 1607.7735,-322.6326"/>
<polygon fill="#9a32cd" stroke="#9a32cd" points="990.8595,-314.2462 981.6257,-319.4411 992.0837,-321.1383 990.8595,-314.2462"/>
<text text-anchor="middle" x="1233" y="-298" font-family="Helvetica,sans-Serif" font-size="10.00" fill="#000000"> m_repo</text>
</g>
<!-- Node33&#45;&gt;Node32 -->
<g id="edge46" class="edge">
<title>Node33&#45;&gt;Node32</title>
<path fill="none" stroke="#9a32cd" stroke-dasharray="5,2" d="M530.8809,-331.211C533.6236,-331.1321 536.3387,-331.0611 539,-331 659.5818,-328.2328 801.0533,-328.336 876.8847,-328.6633"/>
<polygon fill="#9a32cd" stroke="#9a32cd" points="530.7613,-327.713 520.8771,-331.5279 530.9829,-334.7095 530.7613,-327.713"/>
<text text-anchor="middle" x="611.5" y="-345" font-family="Helvetica,sans-Serif" font-size="10.00" fill="#000000"> m_fid_map</text>
<text text-anchor="middle" x="611.5" y="-334" font-family="Helvetica,sans-Serif" font-size="10.00" fill="#000000">m_int_fid_map</text>
</g>
<!-- Node34 -->
<g id="node33" class="node">
<title>Node34</title>
<g id="a_node33"><a xlink:href="classamr__wind_1_1_physics_mgr.html" target="_top" xlink:title="A collection of Physics models instances that are active during a simulation. ">
<polygon fill="#ffffff" stroke="#000000" points="1337.5,-192.5 1337.5,-211.5 1453.5,-211.5 1453.5,-192.5 1337.5,-192.5"/>
<text text-anchor="middle" x="1395.5" y="-199.5" font-family="Helvetica,sans-Serif" font-size="10.00" fill="#000000">amr_wind::PhysicsMgr</text>
</a>
</g>
</g>
<!-- Node34&#45;&gt;Node4 -->
<g id="edge49" class="edge">
<title>Node34&#45;&gt;Node4</title>
<path fill="none" stroke="#9a32cd" stroke-dasharray="5,2" d="M1447.9652,-214.2057C1455.1027,-216.2595 1462.2798,-218.5342 1469,-221 1539.8665,-247.0025 1615.6699,-297.2354 1645.9128,-318.3157"/>
<polygon fill="#9a32cd" stroke="#9a32cd" points="1448.8737,-210.8257 1438.3033,-211.5449 1447.0151,-217.5745 1448.8737,-210.8257"/>
<text text-anchor="middle" x="1523.5" y="-265" font-family="Helvetica,sans-Serif" font-size="10.00" fill="#000000"> m_physics_mgr</text>
</g>
<!-- Node35&#45;&gt;Node34 -->
<g id="edge50" class="edge">
<title>Node35&#45;&gt;Node34</title>
<path fill="none" stroke="#191970" d="M1146.9031,-206.6612C1204.2689,-205.5856 1283.8255,-204.0939 1337.3522,-203.0903"/>
<polygon fill="#191970" stroke="#191970" points="1146.7532,-203.1633 1136.8206,-206.8502 1146.8845,-210.1621 1146.7532,-203.1633"/>
</g>
</g>
</svg>
