<?xml version="1.0" encoding="UTF-8" standalone="no"?>
<!DOCTYPE svg PUBLIC "-//W3C//DTD SVG 1.1//EN"
 "http://www.w3.org/Graphics/SVG/1.1/DTD/svg11.dtd">
<!-- Generated by graphviz version 2.40.1 (20161225.0304)
 -->
<!-- Title: amr_wind::FieldFillPatchOps&lt; Functor &gt; Pages: 1 -->
<svg width="358pt" height="429pt"
 viewBox="0.00 0.00 358.00 429.00" xmlns="http://www.w3.org/2000/svg" xmlns:xlink="http://www.w3.org/1999/xlink">
<g id="graph0" class="graph" transform="scale(1 1) rotate(0) translate(4 425)">
<title>amr_wind::FieldFillPatchOps&lt; Functor &gt;</title>
<polygon fill="#ffffff" stroke="transparent" points="-4,4 -4,-425 354,-425 354,4 -4,4"/>
<!-- Node4 -->
<g id="node1" class="node">
<title>Node4</title>
<polygon fill="#bfbfbf" stroke="#000000" points="123,-.5 123,-30.5 247,-30.5 247,-.5 123,-.5"/>
<text text-anchor="start" x="131" y="-18.5" font-family="Helvetica,sans-Serif" font-size="10.00" fill="#000000">amr_wind::FieldFillPatch</text>
<text text-anchor="middle" x="185" y="-7.5" font-family="Helvetica,sans-Serif" font-size="10.00" fill="#000000">Ops&lt; Functor &gt;</text>
</g>
<!-- Node5 -->
<g id="node2" class="node">
<title>Node5</title>
<g id="a_node2"><a xlink:href="classamr__wind_1_1_field_fill_patch_ops_base.html" target="_top" xlink:title="Abstract interface for classes that handle fill patch and physical boundary condition operations for ...">
<polygon fill="#ffffff" stroke="#000000" points="0,-78.5 0,-108.5 124,-108.5 124,-78.5 0,-78.5"/>
<text text-anchor="start" x="8" y="-96.5" font-family="Helvetica,sans-Serif" font-size="10.00" fill="#000000">amr_wind::FieldFillPatch</text>
<text text-anchor="middle" x="62" y="-85.5" font-family="Helvetica,sans-Serif" font-size="10.00" fill="#000000">OpsBase</text>
</a>
</g>
</g>
<!-- Node5&#45;&gt;Node4 -->
<g id="edge1" class="edge">
<title>Node5&#45;&gt;Node4</title>
<path fill="none" stroke="#191970" d="M94.2691,-73.0367C115.157,-59.7907 141.9072,-42.8272 160.9375,-30.7592"/>
<polygon fill="#191970" stroke="#191970" points="92.2863,-70.1496 85.7156,-78.4608 96.0352,-76.0611 92.2863,-70.1496"/>
</g>
<!-- Node6 -->
<g id="node3" class="node">
<title>Node6</title>
<g id="a_node3"><a xlink:href="classamr__wind_1_1_field.html" target="_top" xlink:title="Computational fieldThis is an abstraction of a collection of MultiFabs over multiple levels...">
<polygon fill="#ffffff" stroke="#000000" points="142,-84 142,-103 228,-103 228,-84 142,-84"/>
<text text-anchor="middle" x="185" y="-91" font-family="Helvetica,sans-Serif" font-size="10.00" fill="#000000">amr_wind::Field</text>
</a>
</g>
</g>
<!-- Node6&#45;&gt;Node4 -->
<g id="edge2" class="edge">
<title>Node6&#45;&gt;Node4</title>
<path fill="none" stroke="#9a32cd" stroke-dasharray="5,2" d="M185,-73.8751C185,-60.5215 185,-43.1052 185,-30.7824"/>
<polygon fill="#9a32cd" stroke="#9a32cd" points="181.5001,-73.9356 185,-83.9357 188.5001,-73.9357 181.5001,-73.9356"/>
<text text-anchor="middle" x="202.5" y="-52" font-family="Helvetica,sans-Serif" font-size="10.00" fill="#000000"> m_field</text>
</g>
<!-- Node7 -->
<g id="node4" class="node">
<title>Node7</title>
<g id="a_node4"><a xlink:title="STL class. ">
<polygon fill="#ffffff" stroke="#bfbfbf" points="162,-318 162,-337 222,-337 222,-318 162,-318"/>
<text text-anchor="middle" x="192" y="-325" font-family="Helvetica,sans-Serif" font-size="10.00" fill="#000000">std::string</text>
</a>
</g>
</g>
<!-- Node7&#45;&gt;Node6 -->
<g id="edge3" class="edge">
<title>Node7&#45;&gt;Node6</title>
<path fill="none" stroke="#9a32cd" stroke-dasharray="5,2" d="M193.9519,-307.5788C194.3425,-303.1141 194.7187,-298.3978 195,-294 199.4292,-224.7569 199.6664,-207.3718 201,-138 201.094,-133.112 202.0802,-131.7681 201,-127 199.0632,-118.4511 194.6687,-109.5308 190.9743,-103.0464"/>
<polygon fill="#9a32cd" stroke="#9a32cd" points="190.4392,-307.5531 192.9967,-317.8346 197.409,-308.2023 190.4392,-307.5531"/>
<text text-anchor="middle" x="220.5" y="-202.5" font-family="Helvetica,sans-Serif" font-size="10.00" fill="#000000"> m_name</text>
</g>
<!-- Node10 -->
<g id="node7" class="node">
<title>Node10</title>
<polygon fill="#ffffff" stroke="#bfbfbf" points="76,-234.5 76,-264.5 186,-264.5 186,-234.5 76,-234.5"/>
<text text-anchor="start" x="84" y="-252.5" font-family="Helvetica,sans-Serif" font-size="10.00" fill="#000000">std::unordered_map</text>
<text text-anchor="middle" x="131" y="-241.5" font-family="Helvetica,sans-Serif" font-size="10.00" fill="#000000">&lt; std::string, size_t &gt;</text>
</g>
<!-- Node7&#45;&gt;Node10 -->
<g id="edge7" class="edge">
<title>Node7&#45;&gt;Node10</title>
<path fill="none" stroke="#9a32cd" stroke-dasharray="5,2" d="M178.1941,-309.8466C167.5811,-296.2759 153.0706,-277.7214 142.9516,-264.7824"/>
<polygon fill="#9a32cd" stroke="#9a32cd" points="175.6028,-312.2146 184.5202,-317.9357 181.1168,-307.9023 175.6028,-312.2146"/>
<text text-anchor="middle" x="178.5" y="-286" font-family="Helvetica,sans-Serif" font-size="10.00" fill="#000000"> keys</text>
</g>
<!-- Node8 -->
<g id="node5" class="node">
<title>Node8</title>
<g id="a_node5"><a xlink:title="STL class. ">
<polygon fill="#ffffff" stroke="#bfbfbf" points="144.5,-390.5 144.5,-420.5 239.5,-420.5 239.5,-390.5 144.5,-390.5"/>
<text text-anchor="start" x="152.5" y="-408.5" font-family="Helvetica,sans-Serif" font-size="10.00" fill="#000000">std::basic_string&lt;</text>
<text text-anchor="middle" x="192" y="-397.5" font-family="Helvetica,sans-Serif" font-size="10.00" fill="#000000"> char &gt;</text>
</a>
</g>
</g>
<!-- Node8&#45;&gt;Node7 -->
<g id="edge4" class="edge">
<title>Node8&#45;&gt;Node7</title>
<path fill="none" stroke="#191970" d="M192,-380.3962C192,-365.6331 192,-347.8138 192,-337.0839"/>
<polygon fill="#191970" stroke="#191970" points="188.5001,-380.4608 192,-390.4608 195.5001,-380.4609 188.5001,-380.4608"/>
</g>
<!-- Node9 -->
<g id="node6" class="node">
<title>Node9</title>
<g id="a_node6"><a xlink:href="classamr__wind_1_1_field_repo.html" target="_top" xlink:title="Field RepositoryFieldRepo is a database that manages handling of fields used during a simulation...">
<polygon fill="#ffffff" stroke="#000000" points="78.5,-156.5 78.5,-175.5 187.5,-175.5 187.5,-156.5 78.5,-156.5"/>
<text text-anchor="middle" x="133" y="-163.5" font-family="Helvetica,sans-Serif" font-size="10.00" fill="#000000">amr_wind::FieldRepo</text>
</a>
</g>
</g>
<!-- Node9&#45;&gt;Node6 -->
<g id="edge5" class="edge">
<title>Node9&#45;&gt;Node6</title>
<path fill="none" stroke="#9a32cd" stroke-dasharray="5,2" d="M146.0921,-147.7466C156.2618,-133.5677 169.9617,-114.4668 178.0982,-103.1228"/>
<polygon fill="#9a32cd" stroke="#9a32cd" points="142.9972,-146.0564 140.013,-156.2223 148.6854,-150.1363 142.9972,-146.0564"/>
<text text-anchor="middle" x="179" y="-130" font-family="Helvetica,sans-Serif" font-size="10.00" fill="#000000"> m_repo</text>
</g>
<!-- Node10&#45;&gt;Node9 -->
<g id="edge6" class="edge">
<title>Node10&#45;&gt;Node9</title>
<path fill="none" stroke="#9a32cd" stroke-dasharray="5,2" d="M131.3582,-224.4039C131.5188,-214.8813 131.733,-203.9391 132,-194 132.1646,-187.8733 132.4094,-180.9946 132.6156,-175.5884"/>
<polygon fill="#9a32cd" stroke="#9a32cd" points="127.8584,-224.3685 131.1997,-234.4227 134.8575,-224.4793 127.8584,-224.3685"/>
<text text-anchor="middle" x="164" y="-208" font-family="Helvetica,sans-Serif" font-size="10.00" fill="#000000"> m_fid_map</text>
<text text-anchor="middle" x="164" y="-197" font-family="Helvetica,sans-Serif" font-size="10.00" fill="#000000">m_int_fid_map</text>
</g>
<!-- Node11 -->
<g id="node8" class="node">
<title>Node11</title>
<g id="a_node8"><a xlink:title="STL class. ">
<polygon fill="#ffffff" stroke="#bfbfbf" points="6.5,-312.5 6.5,-342.5 109.5,-342.5 109.5,-312.5 6.5,-312.5"/>
<text text-anchor="start" x="14.5" y="-330.5" font-family="Helvetica,sans-Serif" font-size="10.00" fill="#000000">std::unordered_map</text>
<text text-anchor="middle" x="58" y="-319.5" font-family="Helvetica,sans-Serif" font-size="10.00" fill="#000000">&lt; K, T &gt;</text>
</a>
</g>
</g>
<!-- Node11&#45;&gt;Node10 -->
<g id="edge8" class="edge">
<title>Node11&#45;&gt;Node10</title>
<path fill="none" stroke="#ffa500" stroke-dasharray="5,2" d="M52.5011,-302.225C52.3133,-295.5391 53.3716,-288.6254 57,-283 62.045,-275.1783 69.4072,-269.163 77.5565,-264.5426"/>
<polygon fill="#ffa500" stroke="#ffa500" points="49.041,-302.7776 53.6318,-312.3262 55.9976,-301.9988 49.041,-302.7776"/>
<text text-anchor="middle" x="105.5" y="-286" font-family="Helvetica,sans-Serif" font-size="10.00" fill="#000000"> &lt; std::string, size_t &gt;</text>
</g>
<!-- Node12 -->
<g id="node9" class="node">
<title>Node12</title>
<polygon fill="#ffffff" stroke="#bfbfbf" points="29.5,-396 29.5,-415 58.5,-415 58.5,-396 29.5,-396"/>
<text text-anchor="middle" x="44" y="-403" font-family="Helvetica,sans-Serif" font-size="10.00" fill="#000000">K</text>
</g>
<!-- Node12&#45;&gt;Node11 -->
<g id="edge9" class="edge">
<title>Node12&#45;&gt;Node11</title>
<path fill="none" stroke="#9a32cd" stroke-dasharray="5,2" d="M42.9813,-385.5823C42.9663,-377.8425 43.4201,-368.944 45,-361 46.2412,-354.7589 48.5571,-348.173 50.8943,-342.5078"/>
<polygon fill="#9a32cd" stroke="#9a32cd" points="39.4898,-385.9462 43.2621,-395.8467 46.4872,-385.7547 39.4898,-385.9462"/>
<text text-anchor="middle" x="57.5" y="-364" font-family="Helvetica,sans-Serif" font-size="10.00" fill="#000000"> keys</text>
</g>
<!-- Node13 -->
<g id="node10" class="node">
<title>Node13</title>
<polygon fill="#ffffff" stroke="#bfbfbf" points="77.5,-396 77.5,-415 106.5,-415 106.5,-396 77.5,-396"/>
<text text-anchor="middle" x="92" y="-403" font-family="Helvetica,sans-Serif" font-size="10.00" fill="#000000">T</text>
</g>
<!-- Node13&#45;&gt;Node11 -->
<g id="edge10" class="edge">
<title>Node13&#45;&gt;Node11</title>
<path fill="none" stroke="#9a32cd" stroke-dasharray="5,2" d="M83.7927,-386.6714C77.9293,-373.2202 70.1405,-355.3517 64.6615,-342.7824"/>
<polygon fill="#9a32cd" stroke="#9a32cd" points="80.6266,-388.1673 87.8309,-395.9357 87.0435,-385.3701 80.6266,-388.1673"/>
<text text-anchor="middle" x="99.5" y="-364" font-family="Helvetica,sans-Serif" font-size="10.00" fill="#000000"> elements</text>
</g>
<!-- Node14 -->
<g id="node11" class="node">
<title>Node14</title>
<g id="a_node11"><a xlink:href="classamr__wind_1_1_sim_time.html" target="_top" xlink:title="Time manager for simulations. ">
<polygon fill="#ffffff" stroke="#000000" points="246,-84 246,-103 350,-103 350,-84 246,-84"/>
<text text-anchor="middle" x="298" y="-91" font-family="Helvetica,sans-Serif" font-size="10.00" fill="#000000">amr_wind::SimTime</text>
</a>
</g>
</g>
<!-- Node14&#45;&gt;Node4 -->
<g id="edge11" class="edge">
<title>Node14&#45;&gt;Node4</title>
<path fill="none" stroke="#9a32cd" stroke-dasharray="5,2" d="M275.7219,-78.1222C255.8636,-64.4147 226.956,-44.4607 207.1398,-30.7824"/>
<polygon fill="#9a32cd" stroke="#9a32cd" points="273.9259,-81.1353 284.144,-83.9357 277.9025,-75.3745 273.9259,-81.1353"/>
<text text-anchor="middle" x="266" y="-52" font-family="Helvetica,sans-Serif" font-size="10.00" fill="#000000"> m_time</text>
</g>
</g>
</svg>
