<?xml version="1.0" encoding="UTF-8" standalone="no"?>
<!DOCTYPE svg PUBLIC "-//W3C//DTD SVG 1.1//EN"
 "http://www.w3.org/Graphics/SVG/1.1/DTD/svg11.dtd">
<!-- Generated by graphviz version 2.40.1 (20161225.0304)
 -->
<!-- Title: incflo Pages: 1 -->
<!--zoomable 619 -->
<svg id="main" version="1.1" xmlns="http://www.w3.org/2000/svg" xmlns:xlink="http://www.w3.org/1999/xlink" xml:space="preserve" onload="init(evt)">
<style type="text/css"><![CDATA[
.edge:hover path { stroke: red; }
.edge:hover polygon { stroke: red; fill: red; }
]]></style>
<script type="text/javascript"><![CDATA[
var edges = document.getElementsByTagName('g');
if (edges && edges.length) {
  for (var i=0;i<edges.length;i++) {
    if (edges[i].id.substr(0,4)=='edge') {
      edges[i].setAttribute('class','edge');
    }
  }
}
]]></script>
        <defs>
                <circle id="rim" cx="0" cy="0" r="7"/>
                <circle id="rim2" cx="0" cy="0" r="3.5"/>
                <g id="zoomPlus">
                        <use xlink:href="#rim" fill="#404040">
                                <set attributeName="fill" to="#808080" begin="zoomplus.mouseover" end="zoomplus.mouseout"/>
                        </use>
                        <path d="M-4,0h8M0,-4v8" fill="none" stroke="white" stroke-width="1.5" pointer-events="none"/>
                </g>
                <g id="zoomMin">
                        <use xlink:href="#rim" fill="#404040">
                                <set attributeName="fill" to="#808080" begin="zoomminus.mouseover" end="zoomminus.mouseout"/>
                        </use>
                        <path d="M-4,0h8" fill="none" stroke="white" stroke-width="1.5" pointer-events="none"/>
                </g>
                <g id="dirArrow">
                        <path fill="none" stroke="white" stroke-width="1.5" d="M0,-3.0v7 M-2.5,-0.5L0,-3.0L2.5,-0.5"/>
                </g>
               <g id="resetDef">
                       <use xlink:href="#rim2" fill="#404040">
                               <set attributeName="fill" to="#808080" begin="reset.mouseover" end="reset.mouseout"/>
                       </use>
               </g>
        </defs>

<script type="text/javascript">
var viewWidth = 2154;
var viewHeight = 619;
var sectionId = 'dynsection-1';
</script>
<script xlink:href="svgpan.js"/>
<svg id="graph" class="graph">
<g id="viewport">
<title>incflo</title>
<polygon fill="#ffffff" stroke="transparent" points="-4,4 -4,-615 2150,-615 2150,4 -4,4"/>
<!-- Node2 -->
<g id="node1" class="node">
<title>Node2</title>
<polygon fill="#bfbfbf" stroke="#000000" points="1845,-446.5 1845,-465.5 1885,-465.5 1885,-446.5 1845,-446.5"/>
<text text-anchor="middle" x="1865" y="-453.5" font-family="Helvetica,sans-Serif" font-size="10.00" fill="#000000">incflo</text>
</g>
<!-- Node3 -->
<g id="node2" class="node">
<title>Node3</title>
<polygon fill="#ffffff" stroke="#bfbfbf" points="1569,-497.5 1569,-516.5 1658,-516.5 1658,-497.5 1569,-497.5"/>
<text text-anchor="middle" x="1613.5" y="-504.5" font-family="Helvetica,sans-Serif" font-size="10.00" fill="#000000">amrex::AmrCore</text>
</g>
<!-- Node3&#45;&gt;Node2 -->
<g id="edge1" class="edge">
<title>Node3&#45;&gt;Node2</title>
<path fill="none" stroke="#191970" d="M1668.1701,-499.5352C1697.8417,-495.1373 1735.0838,-489.0555 1768,-482 1794.7646,-476.263 1825.1838,-467.7839 1844.7085,-462.0837"/>
<polygon fill="#191970" stroke="#191970" points="1667.3992,-496.1106 1658.0102,-501.0195 1668.4111,-503.0371 1667.3992,-496.1106"/>
</g>
<!-- Node4 -->
<g id="node3" class="node">
<title>Node4</title>
<g id="a_node3"><a xlink:href="classamr__wind_1_1_c_f_d_sim.html" target="_top" xlink:title="Data structures for a CFD simulationCFDSim represents the amr&#45;wind execution environment and manages ...">
<polygon fill="#ffffff" stroke="#000000" points="1562,-340.5 1562,-359.5 1665,-359.5 1665,-340.5 1562,-340.5"/>
<text text-anchor="middle" x="1613.5" y="-347.5" font-family="Helvetica,sans-Serif" font-size="10.00" fill="#000000">amr_wind::CFDSim</text>
</a>
</g>
</g>
<!-- Node4&#45;&gt;Node2 -->
<g id="edge2" class="edge">
<title>Node4&#45;&gt;Node2</title>
<path fill="none" stroke="#9a32cd" stroke-dasharray="5,2" d="M1644.145,-363.9397C1670.8025,-376.0523 1706.2051,-392.1016 1713,-395 1759.8167,-414.9699 1815.477,-436.8365 1844.7247,-448.1839"/>
<polygon fill="#9a32cd" stroke="#9a32cd" points="1645.3407,-360.6387 1634.7887,-359.687 1642.4441,-367.0113 1645.3407,-360.6387"/>
<text text-anchor="middle" x="1740.5" y="-421" font-family="Helvetica,sans-Serif" font-size="10.00" fill="#000000"> m_sim</text>
</g>
<!-- Node6 -->
<g id="node5" class="node">
<title>Node6</title>
<g id="a_node5"><a xlink:href="classamr__wind_1_1_i_o_manager.html" target="_top" xlink:title="Input/Output managerThis class contains infrastructure to output solution fields during the simulatio...">
<polygon fill="#ffffff" stroke="#000000" points="1808.5,-130.5 1808.5,-149.5 1921.5,-149.5 1921.5,-130.5 1808.5,-130.5"/>
<text text-anchor="middle" x="1865" y="-137.5" font-family="Helvetica,sans-Serif" font-size="10.00" fill="#000000">amr_wind::IOManager</text>
</a>
</g>
</g>
<!-- Node4&#45;&gt;Node6 -->
<g id="edge5" class="edge">
<title>Node4&#45;&gt;Node6</title>
<path fill="none" stroke="#9a32cd" stroke-dasharray="5,2" d="M1625.9926,-331.9904C1643.506,-307.5935 1677.2434,-263.5829 1713,-233 1755.7881,-196.4029 1814.5626,-164.8371 1844.9663,-149.6461"/>
<polygon fill="#9a32cd" stroke="#9a32cd" points="1623.0237,-330.1267 1620.1044,-340.3115 1628.7378,-334.1702 1623.0237,-330.1267"/>
<text text-anchor="middle" x="1740.5" y="-236" font-family="Helvetica,sans-Serif" font-size="10.00" fill="#000000"> m_sim</text>
</g>
<!-- Node15 -->
<g id="node14" class="node">
<title>Node15</title>
<g id="a_node14"><a xlink:href="classamr__wind_1_1_post_process_manager.html" target="_top" xlink:title="A collection of post&#45;processing instances that are active during a simulation. ">
<polygon fill="#ffffff" stroke="#000000" points="1786,-390.5 1786,-409.5 1944,-409.5 1944,-390.5 1786,-390.5"/>
<text text-anchor="middle" x="1865" y="-397.5" font-family="Helvetica,sans-Serif" font-size="10.00" fill="#000000">amr_wind::PostProcessManager</text>
</a>
</g>
</g>
<!-- Node4&#45;&gt;Node15 -->
<g id="edge16" class="edge">
<title>Node4&#45;&gt;Node15</title>
<path fill="none" stroke="#9a32cd" stroke-dasharray="5,2" d="M1671.3897,-361.5089C1715.4559,-370.2696 1775.394,-382.1857 1816.8534,-390.4281"/>
<polygon fill="#9a32cd" stroke="#9a32cd" points="1671.8878,-358.0395 1661.3972,-359.5223 1670.5228,-364.9051 1671.8878,-358.0395"/>
<text text-anchor="middle" x="1740.5" y="-383" font-family="Helvetica,sans-Serif" font-size="10.00" fill="#000000"> m_sim</text>
</g>
<!-- Node16 -->
<g id="node15" class="node">
<title>Node16</title>
<g id="a_node15"><a xlink:href="classamr__wind_1_1pde_1_1_p_d_e_mgr.html" target="_top" xlink:title="PDE systems manager. ">
<polygon fill="#ffffff" stroke="#000000" points="1803,-222.5 1803,-241.5 1927,-241.5 1927,-222.5 1803,-222.5"/>
<text text-anchor="middle" x="1865" y="-229.5" font-family="Helvetica,sans-Serif" font-size="10.00" fill="#000000">amr_wind::pde::PDEMgr</text>
</a>
</g>
</g>
<!-- Node4&#45;&gt;Node16 -->
<g id="edge27" class="edge">
<title>Node4&#45;&gt;Node16</title>
<path fill="none" stroke="#9a32cd" stroke-dasharray="5,2" d="M1640.7292,-335.6742C1660.588,-325.3843 1688.2433,-311.38 1713,-300 1737.0741,-288.9338 1743.7557,-287.6883 1768,-277 1794.839,-265.1678 1825.4979,-250.7996 1845.038,-241.5328"/>
<polygon fill="#9a32cd" stroke="#9a32cd" points="1638.907,-332.6769 1631.6535,-340.3995 1642.1396,-338.8858 1638.907,-332.6769"/>
<text text-anchor="middle" x="1740.5" y="-303" font-family="Helvetica,sans-Serif" font-size="10.00" fill="#000000"> m_sim</text>
</g>
<!-- Node5 -->
<g id="node4" class="node">
<title>Node5</title>
<polygon fill="#ffffff" stroke="#bfbfbf" points="2017,-299 2017,-329 2124,-329 2124,-299 2017,-299"/>
<text text-anchor="start" x="2025" y="-317" font-family="Helvetica,sans-Serif" font-size="10.00" fill="#000000">std::unique_ptr&lt; amr</text>
<text text-anchor="middle" x="2070.5" y="-306" font-family="Helvetica,sans-Serif" font-size="10.00" fill="#000000">_wind::IOManager &gt;</text>
</g>
<!-- Node5&#45;&gt;Node4 -->
<g id="edge3" class="edge">
<title>Node5&#45;&gt;Node4</title>
<path fill="none" stroke="#9a32cd" stroke-dasharray="5,2" d="M2006.8638,-315.7171C1949.1421,-317.6107 1861.747,-321.3162 1786,-328 1745.2502,-331.5957 1699.3111,-337.5484 1665.0924,-342.3557"/>
<polygon fill="#9a32cd" stroke="#9a32cd" points="2007.0479,-319.2131 2016.931,-315.3953 2006.8243,-312.2166 2007.0479,-319.2131"/>
<text text-anchor="middle" x="1865" y="-331" font-family="Helvetica,sans-Serif" font-size="10.00" fill="#000000"> m_io_mgr</text>
</g>
<!-- Node6&#45;&gt;Node5 -->
<g id="edge4" class="edge">
<title>Node6&#45;&gt;Node5</title>
<path fill="none" stroke="#9a32cd" stroke-dasharray="5,2" d="M1884.4648,-156.4812C1924.274,-190.1882 2014.4659,-266.5551 2052.7651,-298.9836"/>
<polygon fill="#9a32cd" stroke="#9a32cd" points="1886.2347,-153.3937 1876.3413,-149.6028 1881.7114,-158.7359 1886.2347,-153.3937"/>
<text text-anchor="middle" x="1969.5" y="-236" font-family="Helvetica,sans-Serif" font-size="10.00" fill="#000000"> ptr</text>
</g>
<!-- Node7 -->
<g id="node6" class="node">
<title>Node7</title>
<polygon fill="#ffffff" stroke="#bfbfbf" points="410,-76.5 410,-95.5 521,-95.5 521,-76.5 410,-76.5"/>
<text text-anchor="middle" x="465.5" y="-83.5" font-family="Helvetica,sans-Serif" font-size="10.00" fill="#000000">std::set&lt; std::string &gt;</text>
</g>
<!-- Node7&#45;&gt;Node6 -->
<g id="edge6" class="edge">
<title>Node7&#45;&gt;Node6</title>
<path fill="none" stroke="#9a32cd" stroke-dasharray="5,2" d="M531.3696,-86C588.4186,-86 673.1572,-86 747,-86 747,-86 747,-86 1613.5,-86 1697.2343,-86 1793.2261,-114.9679 1838.6014,-130.4702"/>
<polygon fill="#9a32cd" stroke="#9a32cd" points="531.0485,-82.5001 521.0484,-86 531.0484,-89.5001 531.0485,-82.5001"/>
<text text-anchor="middle" x="1190.5" y="-100" font-family="Helvetica,sans-Serif" font-size="10.00" fill="#000000"> m_chkvars</text>
<text text-anchor="middle" x="1190.5" y="-89" font-family="Helvetica,sans-Serif" font-size="10.00" fill="#000000">m_pltvars_default</text>
</g>
<!-- Node8 -->
<g id="node7" class="node">
<title>Node8</title>
<g id="a_node7"><a xlink:title="STL class. ">
<polygon fill="#ffffff" stroke="#bfbfbf" points="195.5,-114.5 195.5,-133.5 255.5,-133.5 255.5,-114.5 195.5,-114.5"/>
<text text-anchor="middle" x="225.5" y="-121.5" font-family="Helvetica,sans-Serif" font-size="10.00" fill="#000000">std::string</text>
</a>
</g>
</g>
<!-- Node8&#45;&gt;Node6 -->
<g id="edge11" class="edge">
<title>Node8&#45;&gt;Node6</title>
<path fill="none" stroke="#9a32cd" stroke-dasharray="5,2" d="M246.7863,-108.5228C287.2492,-80.6762 378.9698,-25 465.5,-25 465.5,-25 465.5,-25 1613.5,-25 1714.3238,-25 1818.9711,-102.3849 1853.3233,-130.1952"/>
<polygon fill="#9a32cd" stroke="#9a32cd" points="244.6873,-105.7198 238.5096,-114.3272 248.7066,-111.4509 244.6873,-105.7198"/>
<text text-anchor="middle" x="1040" y="-50" font-family="Helvetica,sans-Serif" font-size="10.00" fill="#000000"> m_chk_prefix</text>
<text text-anchor="middle" x="1040" y="-39" font-family="Helvetica,sans-Serif" font-size="10.00" fill="#000000">m_plt_prefix</text>
<text text-anchor="middle" x="1040" y="-28" font-family="Helvetica,sans-Serif" font-size="10.00" fill="#000000">m_restart_file</text>
</g>
<!-- Node8&#45;&gt;Node7 -->
<g id="edge7" class="edge">
<title>Node8&#45;&gt;Node7</title>
<path fill="none" stroke="#9a32cd" stroke-dasharray="5,2" d="M256.688,-110.7585C268.4868,-106.2904 282.1668,-101.7447 295,-99 332.7391,-90.9286 376.1169,-87.7023 409.6746,-86.4818"/>
<polygon fill="#9a32cd" stroke="#9a32cd" points="255.3088,-107.5399 247.2794,-114.4522 257.8668,-114.0557 255.3088,-107.5399"/>
<text text-anchor="middle" x="343.5" y="-102" font-family="Helvetica,sans-Serif" font-size="10.00" fill="#000000"> keys</text>
</g>
<!-- Node8&#45;&gt;Node16 -->
<g id="edge28" class="edge">
<title>Node8&#45;&gt;Node16</title>
<path fill="none" stroke="#9a32cd" stroke-dasharray="5,2" d="M265.5793,-124.5702C397.7143,-126.3993 831.6296,-132 1190.5,-132 1190.5,-132 1190.5,-132 1613.5,-132 1710.7654,-132 1815.1711,-197.3824 1851.5755,-222.4116"/>
<polygon fill="#9a32cd" stroke="#9a32cd" points="265.5634,-121.0698 255.5156,-124.4301 265.4659,-128.0691 265.5634,-121.0698"/>
<text text-anchor="middle" x="1040" y="-135" font-family="Helvetica,sans-Serif" font-size="10.00" fill="#000000"> m_scheme</text>
</g>
<!-- Node18 -->
<g id="node17" class="node">
<title>Node18</title>
<polygon fill="#ffffff" stroke="#bfbfbf" points="414,-205 414,-235 517,-235 517,-205 414,-205"/>
<text text-anchor="start" x="422" y="-223" font-family="Helvetica,sans-Serif" font-size="10.00" fill="#000000">std::unordered_map</text>
<text text-anchor="middle" x="465.5" y="-212" font-family="Helvetica,sans-Serif" font-size="10.00" fill="#000000">&lt; std::string, int &gt;</text>
</g>
<!-- Node8&#45;&gt;Node18 -->
<g id="edge21" class="edge">
<title>Node8&#45;&gt;Node18</title>
<path fill="none" stroke="#9a32cd" stroke-dasharray="5,2" d="M258.8286,-137.3314C303.1073,-155.0429 381.1343,-186.2537 427.6037,-204.8415"/>
<polygon fill="#9a32cd" stroke="#9a32cd" points="259.9742,-134.0201 249.3895,-133.5558 257.3744,-140.5195 259.9742,-134.0201"/>
<text text-anchor="middle" x="343.5" y="-192" font-family="Helvetica,sans-Serif" font-size="10.00" fill="#000000"> keys</text>
</g>
<!-- Node30 -->
<g id="node29" class="node">
<title>Node30</title>
<polygon fill="#ffffff" stroke="#bfbfbf" points="410.5,-361 410.5,-391 520.5,-391 520.5,-361 410.5,-361"/>
<text text-anchor="start" x="418.5" y="-379" font-family="Helvetica,sans-Serif" font-size="10.00" fill="#000000">std::unordered_map</text>
<text text-anchor="middle" x="465.5" y="-368" font-family="Helvetica,sans-Serif" font-size="10.00" fill="#000000">&lt; std::string, size_t &gt;</text>
</g>
<!-- Node8&#45;&gt;Node30 -->
<g id="edge42" class="edge">
<title>Node8&#45;&gt;Node30</title>
<path fill="none" stroke="#9a32cd" stroke-dasharray="5,2" d="M231.2291,-143.3143C240.4181,-171.2357 260.9599,-222.9263 295,-254 329.5673,-285.555 360.408,-260.4665 392,-295 409.6462,-314.2891 392.58,-331.5064 410,-351 413.4504,-354.8612 417.6133,-358.1601 422.0895,-360.9707"/>
<polygon fill="#9a32cd" stroke="#9a32cd" points="234.5,-142.0477 228.1649,-133.5554 227.8215,-144.1447 234.5,-142.0477"/>
<text text-anchor="middle" x="343.5" y="-298" font-family="Helvetica,sans-Serif" font-size="10.00" fill="#000000"> keys</text>
</g>
<!-- Node9 -->
<g id="node8" class="node">
<title>Node9</title>
<g id="a_node8"><a xlink:title="STL class. ">
<polygon fill="#ffffff" stroke="#bfbfbf" points="0,-109 0,-139 95,-139 95,-109 0,-109"/>
<text text-anchor="start" x="8" y="-127" font-family="Helvetica,sans-Serif" font-size="10.00" fill="#000000">std::basic_string&lt;</text>
<text text-anchor="middle" x="47.5" y="-116" font-family="Helvetica,sans-Serif" font-size="10.00" fill="#000000"> char &gt;</text>
</a>
</g>
</g>
<!-- Node9&#45;&gt;Node8 -->
<g id="edge8" class="edge">
<title>Node9&#45;&gt;Node8</title>
<path fill="none" stroke="#191970" d="M105.5446,-124C135.493,-124 170.7833,-124 195.3,-124"/>
<polygon fill="#191970" stroke="#191970" points="105.2008,-120.5001 95.2007,-124 105.2007,-127.5001 105.2008,-120.5001"/>
</g>
<!-- Node10 -->
<g id="node9" class="node">
<title>Node10</title>
<g id="a_node9"><a xlink:title="STL class. ">
<polygon fill="#ffffff" stroke="#bfbfbf" points="188.5,-.5 188.5,-19.5 262.5,-19.5 262.5,-.5 188.5,-.5"/>
<text text-anchor="middle" x="225.5" y="-7.5" font-family="Helvetica,sans-Serif" font-size="10.00" fill="#000000">std::set&lt; K &gt;</text>
</a>
</g>
</g>
<!-- Node10&#45;&gt;Node7 -->
<g id="edge9" class="edge">
<title>Node10&#45;&gt;Node7</title>
<path fill="none" stroke="#ffa500" stroke-dasharray="5,2" d="M265.6128,-22.7024C313.47,-37.8572 392.3885,-62.848 435.3506,-76.4527"/>
<polygon fill="#ffa500" stroke="#ffa500" points="266.4862,-19.3077 255.8962,-19.6255 264.3729,-25.9811 266.4862,-19.3077"/>
<text text-anchor="middle" x="343.5" y="-65" font-family="Helvetica,sans-Serif" font-size="10.00" fill="#000000"> &lt; std::string &gt;</text>
</g>
<!-- Node11 -->
<g id="node10" class="node">
<title>Node11</title>
<polygon fill="#ffffff" stroke="#bfbfbf" points="33,-60.5 33,-79.5 62,-79.5 62,-60.5 33,-60.5"/>
<text text-anchor="middle" x="47.5" y="-67.5" font-family="Helvetica,sans-Serif" font-size="10.00" fill="#000000">K</text>
</g>
<!-- Node11&#45;&gt;Node10 -->
<g id="edge10" class="edge">
<title>Node11&#45;&gt;Node10</title>
<path fill="none" stroke="#9a32cd" stroke-dasharray="5,2" d="M71.7186,-61.8364C104.3876,-50.8244 162.4659,-31.2474 197.137,-19.5606"/>
<polygon fill="#9a32cd" stroke="#9a32cd" points="70.4246,-58.579 62.0665,-65.0899 72.6606,-65.2123 70.4246,-58.579"/>
<text text-anchor="middle" x="134.5" y="-51" font-family="Helvetica,sans-Serif" font-size="10.00" fill="#000000"> keys</text>
</g>
<!-- Node19 -->
<g id="node18" class="node">
<title>Node19</title>
<g id="a_node18"><a xlink:title="STL class. ">
<polygon fill="#ffffff" stroke="#bfbfbf" points="174,-266 174,-296 277,-296 277,-266 174,-266"/>
<text text-anchor="start" x="182" y="-284" font-family="Helvetica,sans-Serif" font-size="10.00" fill="#000000">std::unordered_map</text>
<text text-anchor="middle" x="225.5" y="-273" font-family="Helvetica,sans-Serif" font-size="10.00" fill="#000000">&lt; K, T &gt;</text>
</a>
</g>
</g>
<!-- Node11&#45;&gt;Node19 -->
<g id="edge23" class="edge">
<title>Node11&#45;&gt;Node19</title>
<path fill="none" stroke="#9a32cd" stroke-dasharray="5,2" d="M71.2289,-81.9724C79.2663,-86.6572 87.9776,-92.4786 95,-99 151.6952,-151.6507 199.1034,-232.4219 217.4042,-265.7802"/>
<polygon fill="#9a32cd" stroke="#9a32cd" points="72.6924,-78.7826 62.245,-77.021 69.3136,-84.9132 72.6924,-78.7826"/>
<text text-anchor="middle" x="134.5" y="-172" font-family="Helvetica,sans-Serif" font-size="10.00" fill="#000000"> keys</text>
</g>
<!-- Node12 -->
<g id="node11" class="node">
<title>Node12</title>
<g id="a_node11"><a xlink:title="STL class. ">
<polygon fill="#ffffff" stroke="#bfbfbf" points="987.5,-478.5 987.5,-497.5 1092.5,-497.5 1092.5,-478.5 987.5,-478.5"/>
<text text-anchor="middle" x="1040" y="-485.5" font-family="Helvetica,sans-Serif" font-size="10.00" fill="#000000">std::unique_ptr&lt; T &gt;</text>
</a>
</g>
</g>
<!-- Node12&#45;&gt;Node5 -->
<g id="edge12" class="edge">
<title>Node12&#45;&gt;Node5</title>
<path fill="none" stroke="#ffa500" stroke-dasharray="5,2" d="M1072.3252,-501.3326C1087.4948,-507.1602 1105.9509,-513.6453 1123,-518 1221.693,-543.2082 1247.6386,-553 1349.5,-553 1349.5,-553 1349.5,-553 1865,-553 1943.9912,-553 1941.7305,-485.6801 1977,-415 1985.7044,-397.5563 1983.093,-390.4361 1995,-375 2009.2034,-356.5869 2030.0332,-340.2995 2046.218,-329.1967"/>
<polygon fill="#ffa500" stroke="#ffa500" points="1073.4666,-498.0207 1062.8791,-497.6269 1070.9102,-504.5372 1073.4666,-498.0207"/>
<text text-anchor="middle" x="1613.5" y="-556" font-family="Helvetica,sans-Serif" font-size="10.00" fill="#000000"> &lt; amr_wind::IOManager &gt;</text>
</g>
<!-- Node14 -->
<g id="node13" class="node">
<title>Node14</title>
<polygon fill="#ffffff" stroke="#bfbfbf" points="1995,-385 1995,-415 2146,-415 2146,-385 1995,-385"/>
<text text-anchor="start" x="2003" y="-403" font-family="Helvetica,sans-Serif" font-size="10.00" fill="#000000">std::unique_ptr&lt; amr</text>
<text text-anchor="middle" x="2070.5" y="-392" font-family="Helvetica,sans-Serif" font-size="10.00" fill="#000000">_wind::PostProcessManager &gt;</text>
</g>
<!-- Node12&#45;&gt;Node14 -->
<g id="edge17" class="edge">
<title>Node12&#45;&gt;Node14</title>
<path fill="none" stroke="#ffa500" stroke-dasharray="5,2" d="M1053.0801,-505.7384C1067.842,-524.3137 1093.6568,-552.728 1123,-567 1214.4825,-611.4955 1247.7705,-600 1349.5,-600 1349.5,-600 1349.5,-600 1865,-600 1916.8935,-600 1936.4367,-599.366 1977,-567 2028.6864,-525.7587 2056.5152,-447.7228 2066.3454,-415.017"/>
<polygon fill="#ffa500" stroke="#ffa500" points="1055.8021,-503.5367 1046.928,-497.7487 1050.2558,-507.8074 1055.8021,-503.5367"/>
<text text-anchor="middle" x="1613.5" y="-603" font-family="Helvetica,sans-Serif" font-size="10.00" fill="#000000"> &lt; amr_wind::PostProcessManager &gt;</text>
</g>
<!-- Node21 -->
<g id="node20" class="node">
<title>Node21</title>
<polygon fill="#ffffff" stroke="#bfbfbf" points="1288.5,-312 1288.5,-342 1410.5,-342 1410.5,-312 1288.5,-312"/>
<text text-anchor="start" x="1296.5" y="-330" font-family="Helvetica,sans-Serif" font-size="10.00" fill="#000000">std::unique_ptr&lt; amr</text>
<text text-anchor="middle" x="1349.5" y="-319" font-family="Helvetica,sans-Serif" font-size="10.00" fill="#000000">_wind::pde::PDEBase &gt;</text>
</g>
<!-- Node12&#45;&gt;Node21 -->
<g id="edge33" class="edge">
<title>Node12&#45;&gt;Node21</title>
<path fill="none" stroke="#ffa500" stroke-dasharray="5,2" d="M1068.1687,-474.088C1083.9507,-466.8162 1104.1883,-458.342 1123,-453 1181.412,-436.4125 1213.6494,-473.4745 1258,-432 1284.6187,-407.1074 1251.6386,-379.1058 1276,-352 1279.5138,-348.0904 1283.6628,-344.7918 1288.1719,-342.0088"/>
<polygon fill="#ffa500" stroke="#ffa500" points="1066.525,-470.9933 1058.9704,-478.4216 1069.5085,-477.3257 1066.525,-470.9933"/>
<text text-anchor="middle" x="1190.5" y="-456" font-family="Helvetica,sans-Serif" font-size="10.00" fill="#000000"> &lt; amr_wind::pde::PDEBase &gt;</text>
</g>
<!-- Node26 -->
<g id="node25" class="node">
<title>Node26</title>
<polygon fill="#ffffff" stroke="#bfbfbf" points="1276,-399.5 1276,-440.5 1423,-440.5 1423,-399.5 1276,-399.5"/>
<text text-anchor="start" x="1284" y="-428.5" font-family="Helvetica,sans-Serif" font-size="10.00" fill="#000000">std::unique_ptr&lt; amr</text>
<text text-anchor="start" x="1284" y="-417.5" font-family="Helvetica,sans-Serif" font-size="10.00" fill="#000000">_wind::turbulence::Turbulence</text>
<text text-anchor="middle" x="1349.5" y="-406.5" font-family="Helvetica,sans-Serif" font-size="10.00" fill="#000000">Model &gt;</text>
</g>
<!-- Node12&#45;&gt;Node26 -->
<g id="edge39" class="edge">
<title>Node12&#45;&gt;Node26</title>
<path fill="none" stroke="#ffa500" stroke-dasharray="5,2" d="M1103.1489,-491.7234C1148.1313,-492.0129 1209.0433,-487.4886 1258,-466 1267.8011,-461.698 1266.9147,-455.6591 1276,-450 1281.3813,-446.648 1287.2019,-443.532 1293.13,-440.6754"/>
<polygon fill="#ffa500" stroke="#ffa500" points="1102.9906,-488.2208 1092.9404,-491.5739 1102.8881,-495.2201 1102.9906,-488.2208"/>
<text text-anchor="start" x="1137.5" y="-506" font-family="Helvetica,sans-Serif" font-size="10.00" fill="#000000"> &lt; amr_wind::turbulence</text>
<text text-anchor="middle" x="1190.5" y="-495" font-family="Helvetica,sans-Serif" font-size="10.00" fill="#000000">::TurbulenceModel &gt;</text>
</g>
<!-- Node13 -->
<g id="node12" class="node">
<title>Node13</title>
<polygon fill="#ffffff" stroke="#bfbfbf" points="33,-377.5 33,-396.5 62,-396.5 62,-377.5 33,-377.5"/>
<text text-anchor="middle" x="47.5" y="-384.5" font-family="Helvetica,sans-Serif" font-size="10.00" fill="#000000">T</text>
</g>
<!-- Node13&#45;&gt;Node12 -->
<g id="edge13" class="edge">
<title>Node13&#45;&gt;Node12</title>
<path fill="none" stroke="#9a32cd" stroke-dasharray="5,2" d="M65.5022,-403.1301C96.064,-428.7804 161.0744,-476 225.5,-476 225.5,-476 225.5,-476 747,-476 831.1299,-476 928.7341,-481.0002 987.3618,-484.5452"/>
<polygon fill="#9a32cd" stroke="#9a32cd" points="67.688,-400.3936 57.8248,-396.5246 63.1225,-405.6998 67.688,-400.3936"/>
<text text-anchor="middle" x="465.5" y="-479" font-family="Helvetica,sans-Serif" font-size="10.00" fill="#000000"> ptr</text>
</g>
<!-- Node13&#45;&gt;Node19 -->
<g id="edge24" class="edge">
<title>Node13&#45;&gt;Node19</title>
<path fill="none" stroke="#9a32cd" stroke-dasharray="5,2" d="M70.691,-373.1896C104.0595,-353.3185 165.3973,-316.7915 200.0029,-296.1837"/>
<polygon fill="#9a32cd" stroke="#9a32cd" points="68.8676,-370.2018 62.0665,-378.3256 72.4492,-376.2162 68.8676,-370.2018"/>
<text text-anchor="middle" x="134.5" y="-350" font-family="Helvetica,sans-Serif" font-size="10.00" fill="#000000"> elements</text>
</g>
<!-- Node14&#45;&gt;Node4 -->
<g id="edge14" class="edge">
<title>Node14&#45;&gt;Node4</title>
<path fill="none" stroke="#9a32cd" stroke-dasharray="5,2" d="M2006.2599,-382.5016C1986.434,-377.7144 1964.4386,-373.0189 1944,-370 1846.0475,-355.5317 1730.283,-351.4789 1665.0221,-350.3756"/>
<polygon fill="#9a32cd" stroke="#9a32cd" points="2005.5579,-385.9332 2016.1049,-384.9281 2007.2331,-379.1366 2005.5579,-385.9332"/>
<text text-anchor="middle" x="1865" y="-373" font-family="Helvetica,sans-Serif" font-size="10.00" fill="#000000"> m_post_mgr</text>
</g>
<!-- Node15&#45;&gt;Node14 -->
<g id="edge15" class="edge">
<title>Node15&#45;&gt;Node14</title>
<path fill="none" stroke="#9a32cd" stroke-dasharray="5,2" d="M1954.3781,-400C1967.8432,-400 1981.6199,-400 1994.762,-400"/>
<polygon fill="#9a32cd" stroke="#9a32cd" points="1954.1578,-396.5001 1944.1577,-400 1954.1577,-403.5001 1954.1578,-396.5001"/>
<text text-anchor="middle" x="1969.5" y="-403" font-family="Helvetica,sans-Serif" font-size="10.00" fill="#000000"> ptr</text>
</g>
<!-- Node16&#45;&gt;Node4 -->
<g id="edge18" class="edge">
<title>Node16&#45;&gt;Node4</title>
<path fill="none" stroke="#9a32cd" stroke-dasharray="5,2" d="M1792.9644,-240.8031C1766.8409,-245.8568 1737.7008,-253.7437 1713,-266 1674.118,-285.2929 1637.5902,-322.8965 1621.7565,-340.4924"/>
<polygon fill="#9a32cd" stroke="#9a32cd" points="1793.6062,-244.2438 1802.8133,-239.0017 1792.3467,-237.3581 1793.6062,-244.2438"/>
<text text-anchor="middle" x="1740.5" y="-269" font-family="Helvetica,sans-Serif" font-size="10.00" fill="#000000"> m_pde_mgr</text>
</g>
<!-- Node17 -->
<g id="node16" class="node">
<title>Node17</title>
<g id="a_node16"><a xlink:href="classamr__wind_1_1_coll_mgr.html" target="_top" xlink:title="amr_wind::CollMgr\&lt;\l PDEMgr, PDEBase \&gt;">
<polygon fill="#ffffff" stroke="#000000" points="982,-162 982,-192 1098,-192 1098,-162 982,-162"/>
<text text-anchor="start" x="990" y="-180" font-family="Helvetica,sans-Serif" font-size="10.00" fill="#000000">amr_wind::CollMgr&lt;</text>
<text text-anchor="middle" x="1040" y="-169" font-family="Helvetica,sans-Serif" font-size="10.00" fill="#000000"> PDEMgr, PDEBase &gt;</text>
</a>
</g>
</g>
<!-- Node17&#45;&gt;Node16 -->
<g id="edge19" class="edge">
<title>Node17&#45;&gt;Node16</title>
<path fill="none" stroke="#191970" d="M1108.606,-170.0925C1238.8176,-158.8052 1530.0449,-142.3098 1768,-192 1797.065,-198.0694 1828.4424,-212.6262 1847.4042,-222.4017"/>
<polygon fill="#191970" stroke="#191970" points="1108.0383,-166.629 1098.3856,-170.9967 1108.6552,-173.6018 1108.0383,-166.629"/>
</g>
<!-- Node18&#45;&gt;Node17 -->
<g id="edge20" class="edge">
<title>Node18&#45;&gt;Node17</title>
<path fill="none" stroke="#9a32cd" stroke-dasharray="5,2" d="M527.1424,-204.419C567.4848,-195.0233 621.5151,-183.9448 670,-179 779.7578,-167.8061 908.7817,-170.732 981.818,-173.8701"/>
<polygon fill="#9a32cd" stroke="#9a32cd" points="526.1214,-201.0637 517.1924,-206.7667 527.729,-207.8766 526.1214,-201.0637"/>
<text text-anchor="middle" x="747" y="-182" font-family="Helvetica,sans-Serif" font-size="10.00" fill="#000000"> m_obj_map</text>
</g>
<!-- Node20 -->
<g id="node19" class="node">
<title>Node20</title>
<g id="a_node19"><a xlink:href="classamr__wind_1_1_coll_mgr.html" target="_top" xlink:title="Interface to manage objects of sub&#45;classes based on factory registrationProvides boiler&#45;plate code to...">
<polygon fill="#ffffff" stroke="#000000" points="687.5,-199.5 687.5,-240.5 806.5,-240.5 806.5,-199.5 687.5,-199.5"/>
<text text-anchor="start" x="695.5" y="-228.5" font-family="Helvetica,sans-Serif" font-size="10.00" fill="#000000">amr_wind::CollMgr&lt;</text>
<text text-anchor="start" x="695.5" y="-217.5" font-family="Helvetica,sans-Serif" font-size="10.00" fill="#000000"> Collection, Type, allow</text>
<text text-anchor="middle" x="747" y="-206.5" font-family="Helvetica,sans-Serif" font-size="10.00" fill="#000000">_duplicates &gt;</text>
</a>
</g>
</g>
<!-- Node18&#45;&gt;Node20 -->
<g id="edge26" class="edge">
<title>Node18&#45;&gt;Node20</title>
<path fill="none" stroke="#9a32cd" stroke-dasharray="5,2" d="M527.3106,-220C574.9253,-220 640.3529,-220 687.4033,-220"/>
<polygon fill="#9a32cd" stroke="#9a32cd" points="527.1315,-216.5001 517.1314,-220 527.1314,-223.5001 527.1315,-216.5001"/>
<text text-anchor="middle" x="595.5" y="-223" font-family="Helvetica,sans-Serif" font-size="10.00" fill="#000000"> m_obj_map</text>
</g>
<!-- Node32 -->
<g id="node31" class="node">
<title>Node32</title>
<g id="a_node31"><a xlink:href="classamr__wind_1_1_coll_mgr.html" target="_top" xlink:title="amr_wind::CollMgr\&lt;\l PhysicsMgr, Physics \&gt;">
<polygon fill="#ffffff" stroke="#000000" points="979,-222 979,-252 1101,-252 1101,-222 979,-222"/>
<text text-anchor="start" x="987" y="-240" font-family="Helvetica,sans-Serif" font-size="10.00" fill="#000000">amr_wind::CollMgr&lt;</text>
<text text-anchor="middle" x="1040" y="-229" font-family="Helvetica,sans-Serif" font-size="10.00" fill="#000000"> PhysicsMgr, Physics &gt;</text>
</a>
</g>
</g>
<!-- Node18&#45;&gt;Node32 -->
<g id="edge46" class="edge">
<title>Node18&#45;&gt;Node32</title>
<path fill="none" stroke="#9a32cd" stroke-dasharray="5,2" d="M527.1557,-232.9904C531.1572,-233.7074 535.1314,-234.385 539,-235 722.5492,-264.181 771.6169,-260.2269 957,-247 964.0938,-246.4939 971.5128,-245.8151 978.8727,-245.0484"/>
<polygon fill="#9a32cd" stroke="#9a32cd" points="527.6682,-229.5258 517.1971,-231.1405 526.3896,-236.4081 527.6682,-229.5258"/>
<text text-anchor="middle" x="747" y="-261" font-family="Helvetica,sans-Serif" font-size="10.00" fill="#000000"> m_obj_map</text>
</g>
<!-- Node19&#45;&gt;Node18 -->
<g id="edge22" class="edge">
<title>Node19&#45;&gt;Node18</title>
<path fill="none" stroke="#ffa500" stroke-dasharray="5,2" d="M256.8421,-260.6856C268.4146,-254.0547 281.9068,-247.2986 295,-243 333.5948,-230.329 379.3023,-224.6297 413.6727,-222.0708"/>
<polygon fill="#ffa500" stroke="#ffa500" points="254.8274,-257.8113 248.017,-265.9272 258.4021,-263.8297 254.8274,-257.8113"/>
<text text-anchor="middle" x="343.5" y="-246" font-family="Helvetica,sans-Serif" font-size="10.00" fill="#000000"> &lt; std::string, int &gt;</text>
</g>
<!-- Node19&#45;&gt;Node30 -->
<g id="edge43" class="edge">
<title>Node19&#45;&gt;Node30</title>
<path fill="none" stroke="#ffa500" stroke-dasharray="5,2" d="M273.1085,-299.845C318.3191,-317.7409 385.42,-344.3017 427.2526,-360.8604"/>
<polygon fill="#ffa500" stroke="#ffa500" points="274.115,-296.4793 263.5287,-296.053 271.5386,-302.9879 274.115,-296.4793"/>
<text text-anchor="middle" x="343.5" y="-349" font-family="Helvetica,sans-Serif" font-size="10.00" fill="#000000"> &lt; std::string, size_t &gt;</text>
</g>
<!-- Node20&#45;&gt;Node17 -->
<g id="edge25" class="edge">
<title>Node20&#45;&gt;Node17</title>
<path fill="none" stroke="#ffa500" stroke-dasharray="5,2" d="M816.8103,-209.7548C867.2082,-202.3585 934.4691,-192.4875 981.9362,-185.5213"/>
<polygon fill="#ffa500" stroke="#ffa500" points="816.0319,-206.3315 806.6461,-211.2465 817.0483,-213.2573 816.0319,-206.3315"/>
<text text-anchor="middle" x="899.5" y="-208" font-family="Helvetica,sans-Serif" font-size="10.00" fill="#000000"> &lt; PDEMgr, PDEBase &gt;</text>
</g>
<!-- Node20&#45;&gt;Node32 -->
<g id="edge47" class="edge">
<title>Node20&#45;&gt;Node32</title>
<path fill="none" stroke="#ffa500" stroke-dasharray="5,2" d="M816.9155,-224.0565C866.2451,-226.9187 931.6907,-230.7158 978.9259,-233.4565"/>
<polygon fill="#ffa500" stroke="#ffa500" points="816.8321,-220.5459 806.6461,-223.4607 816.4265,-227.5341 816.8321,-220.5459"/>
<text text-anchor="middle" x="899.5" y="-235" font-family="Helvetica,sans-Serif" font-size="10.00" fill="#000000"> &lt; PhysicsMgr, Physics &gt;</text>
</g>
<!-- Node21&#45;&gt;Node16 -->
<g id="edge29" class="edge">
<title>Node21&#45;&gt;Node16</title>
<path fill="none" stroke="#9a32cd" stroke-dasharray="5,2" d="M1416.2796,-309.4312C1488.8249,-290.9782 1608.3756,-262.4067 1713,-246 1742.3223,-241.4018 1775.0814,-238.1473 1802.6575,-235.941"/>
<polygon fill="#9a32cd" stroke="#9a32cd" points="1415.1837,-306.0987 1406.3615,-311.9655 1416.9167,-312.8808 1415.1837,-306.0987"/>
<text text-anchor="middle" x="1613.5" y="-284" font-family="Helvetica,sans-Serif" font-size="10.00" fill="#000000"> m_icns</text>
</g>
<!-- Node22 -->
<g id="node21" class="node">
<title>Node22</title>
<g id="a_node21"><a xlink:href="classamr__wind_1_1pde_1_1_p_d_e_base.html" target="_top" xlink:title="Abstract interface defining a PDE and its solution process withn AMR&#45;WindThe exact behavior is implem...">
<polygon fill="#ffffff" stroke="#000000" points="975,-317.5 975,-336.5 1105,-336.5 1105,-317.5 975,-317.5"/>
<text text-anchor="middle" x="1040" y="-324.5" font-family="Helvetica,sans-Serif" font-size="10.00" fill="#000000">amr_wind::pde::PDEBase</text>
</a>
</g>
</g>
<!-- Node22&#45;&gt;Node21 -->
<g id="edge30" class="edge">
<title>Node22&#45;&gt;Node21</title>
<path fill="none" stroke="#9a32cd" stroke-dasharray="5,2" d="M1115.3016,-327C1168.3989,-327 1238.6196,-327 1288.278,-327"/>
<polygon fill="#9a32cd" stroke="#9a32cd" points="1115.2588,-323.5001 1105.2588,-327 1115.2588,-330.5001 1115.2588,-323.5001"/>
<text text-anchor="middle" x="1190.5" y="-330" font-family="Helvetica,sans-Serif" font-size="10.00" fill="#000000"> ptr</text>
</g>
<!-- Node23 -->
<g id="node22" class="node">
<title>Node23</title>
<g id="a_node22"><a xlink:href="structamr__wind_1_1_factory.html" target="_top" xlink:title="amr_wind::Factory\&lt;\l PDEBase, CFDSim &amp;,\l const int \&gt;">
<polygon fill="#ffffff" stroke="#000000" points="687,-306.5 687,-347.5 807,-347.5 807,-306.5 687,-306.5"/>
<text text-anchor="start" x="695" y="-335.5" font-family="Helvetica,sans-Serif" font-size="10.00" fill="#000000">amr_wind::Factory&lt;</text>
<text text-anchor="start" x="695" y="-324.5" font-family="Helvetica,sans-Serif" font-size="10.00" fill="#000000"> PDEBase, CFDSim &amp;,</text>
<text text-anchor="middle" x="747" y="-313.5" font-family="Helvetica,sans-Serif" font-size="10.00" fill="#000000"> const int &gt;</text>
</a>
</g>
</g>
<!-- Node23&#45;&gt;Node22 -->
<g id="edge31" class="edge">
<title>Node23&#45;&gt;Node22</title>
<path fill="none" stroke="#191970" d="M817.6345,-327C865.4849,-327 928.2486,-327 974.8896,-327"/>
<polygon fill="#191970" stroke="#191970" points="817.3546,-323.5001 807.3545,-327 817.3545,-330.5001 817.3546,-323.5001"/>
</g>
<!-- Node24 -->
<g id="node23" class="node">
<title>Node24</title>
<g id="a_node23"><a xlink:href="structamr__wind_1_1_factory.html" target="_top" xlink:title="Runtime selection of options based on string keyword lookupFactory provides an automated way to regis...">
<polygon fill="#ffffff" stroke="#000000" points="413.5,-312 413.5,-342 517.5,-342 517.5,-312 413.5,-312"/>
<text text-anchor="start" x="421.5" y="-330" font-family="Helvetica,sans-Serif" font-size="10.00" fill="#000000">amr_wind::Factory&lt;</text>
<text text-anchor="middle" x="465.5" y="-319" font-family="Helvetica,sans-Serif" font-size="10.00" fill="#000000"> Base, Args &gt;</text>
</a>
</g>
</g>
<!-- Node24&#45;&gt;Node23 -->
<g id="edge32" class="edge">
<title>Node24&#45;&gt;Node23</title>
<path fill="none" stroke="#ffa500" stroke-dasharray="5,2" d="M527.9109,-327C575.2315,-327 639.8873,-327 686.6854,-327"/>
<polygon fill="#ffa500" stroke="#ffa500" points="527.7883,-323.5001 517.7883,-327 527.7882,-330.5001 527.7883,-323.5001"/>
<text text-anchor="start" x="539" y="-341" font-family="Helvetica,sans-Serif" font-size="10.00" fill="#000000"> &lt; PDEBase, CFDSim &amp;,</text>
<text text-anchor="middle" x="595.5" y="-330" font-family="Helvetica,sans-Serif" font-size="10.00" fill="#000000"> const int &gt;</text>
</g>
<!-- Node28 -->
<g id="node27" class="node">
<title>Node28</title>
<g id="a_node27"><a xlink:href="structamr__wind_1_1_factory.html" target="_top" xlink:title="amr_wind::Factory\&lt;\l TurbulenceModel, CFDSim &amp;\&gt;">
<polygon fill="#ffffff" stroke="#000000" points="670,-405 670,-435 824,-435 824,-405 670,-405"/>
<text text-anchor="start" x="678" y="-423" font-family="Helvetica,sans-Serif" font-size="10.00" fill="#000000">amr_wind::Factory&lt;</text>
<text text-anchor="middle" x="747" y="-412" font-family="Helvetica,sans-Serif" font-size="10.00" fill="#000000"> TurbulenceModel, CFDSim &amp;&gt;</text>
</a>
</g>
</g>
<!-- Node24&#45;&gt;Node28 -->
<g id="edge38" class="edge">
<title>Node24&#45;&gt;Node28</title>
<path fill="none" stroke="#ffa500" stroke-dasharray="5,2" d="M517.2365,-345.5086C524.5324,-348.0582 531.9472,-350.6172 539,-353 593.6325,-371.4577 656.717,-391.617 698.9567,-404.9502"/>
<polygon fill="#ffa500" stroke="#ffa500" points="518.0014,-342.0677 507.4066,-342.0552 515.6812,-348.672 518.0014,-342.0677"/>
<text text-anchor="start" x="550.5" y="-405" font-family="Helvetica,sans-Serif" font-size="10.00" fill="#000000"> &lt; TurbulenceModel,</text>
<text text-anchor="middle" x="595.5" y="-394" font-family="Helvetica,sans-Serif" font-size="10.00" fill="#000000"> CFDSim &amp;&gt;</text>
</g>
<!-- Node25 -->
<g id="node24" class="node">
<title>Node25</title>
<g id="a_node24"><a xlink:href="classamr__wind_1_1_sim_time.html" target="_top" xlink:title="Time manager for simulations. ">
<polygon fill="#ffffff" stroke="#000000" points="1297.5,-459.5 1297.5,-478.5 1401.5,-478.5 1401.5,-459.5 1297.5,-459.5"/>
<text text-anchor="middle" x="1349.5" y="-466.5" font-family="Helvetica,sans-Serif" font-size="10.00" fill="#000000">amr_wind::SimTime</text>
</a>
</g>
</g>
<!-- Node25&#45;&gt;Node2 -->
<g id="edge48" class="edge">
<title>Node25&#45;&gt;Node2</title>
<path fill="none" stroke="#9a32cd" stroke-dasharray="5,2" d="M1411.9418,-467.4253C1528.2947,-464.4911 1772.9829,-458.3205 1844.7868,-456.5097"/>
<polygon fill="#9a32cd" stroke="#9a32cd" points="1411.6743,-463.9309 1401.7658,-467.6819 1411.8509,-470.9286 1411.6743,-463.9309"/>
<text text-anchor="middle" x="1613.5" y="-468" font-family="Helvetica,sans-Serif" font-size="10.00" fill="#000000"> m_time</text>
</g>
<!-- Node25&#45;&gt;Node4 -->
<g id="edge34" class="edge">
<title>Node25&#45;&gt;Node4</title>
<path fill="none" stroke="#9a32cd" stroke-dasharray="5,2" d="M1400.7965,-456.8073C1408.2985,-454.7161 1415.8883,-452.4274 1423,-450 1443.8216,-442.893 1496.7018,-424.5949 1514,-411 1524.4832,-402.7611 1521.605,-395.35 1532,-387 1547.1434,-374.8358 1566.9294,-365.7292 1583.2138,-359.5945"/>
<polygon fill="#9a32cd" stroke="#9a32cd" points="1399.7776,-453.4569 1391.0323,-459.4378 1401.5985,-460.2159 1399.7776,-453.4569"/>
<text text-anchor="middle" x="1477.5" y="-447" font-family="Helvetica,sans-Serif" font-size="10.00" fill="#000000"> m_time</text>
</g>
<!-- Node26&#45;&gt;Node4 -->
<g id="edge35" class="edge">
<title>Node26&#45;&gt;Node4</title>
<path fill="none" stroke="#9a32cd" stroke-dasharray="5,2" d="M1432.9407,-397.8756C1481.6058,-384.9719 1540.503,-369.3553 1577.4963,-359.5464"/>
<polygon fill="#9a32cd" stroke="#9a32cd" points="1431.8076,-394.555 1423.0387,-400.5011 1433.6018,-401.3212 1431.8076,-394.555"/>
<text text-anchor="middle" x="1477.5" y="-399" font-family="Helvetica,sans-Serif" font-size="10.00" fill="#000000"> m_turbulence</text>
</g>
<!-- Node27 -->
<g id="node26" class="node">
<title>Node27</title>
<g id="a_node26"><a xlink:href="classamr__wind_1_1turbulence_1_1_turbulence_model.html" target="_top" xlink:title="Abstract representation of a turbulence modelThis class is an abstract representation of a turbulence...">
<polygon fill="#ffffff" stroke="#000000" points="985,-405 985,-435 1095,-435 1095,-405 985,-405"/>
<text text-anchor="start" x="993" y="-423" font-family="Helvetica,sans-Serif" font-size="10.00" fill="#000000">amr_wind::turbulence</text>
<text text-anchor="middle" x="1040" y="-412" font-family="Helvetica,sans-Serif" font-size="10.00" fill="#000000">::TurbulenceModel</text>
</a>
</g>
</g>
<!-- Node27&#45;&gt;Node26 -->
<g id="edge36" class="edge">
<title>Node27&#45;&gt;Node26</title>
<path fill="none" stroke="#9a32cd" stroke-dasharray="5,2" d="M1105.357,-420C1155.2145,-420 1223.9123,-420 1275.7372,-420"/>
<polygon fill="#9a32cd" stroke="#9a32cd" points="1105.3324,-416.5001 1095.3324,-420 1105.3324,-423.5001 1105.3324,-416.5001"/>
<text text-anchor="middle" x="1190.5" y="-423" font-family="Helvetica,sans-Serif" font-size="10.00" fill="#000000"> ptr</text>
</g>
<!-- Node28&#45;&gt;Node27 -->
<g id="edge37" class="edge">
<title>Node28&#45;&gt;Node27</title>
<path fill="none" stroke="#191970" d="M834.6095,-420C883.4052,-420 942.6581,-420 984.9575,-420"/>
<polygon fill="#191970" stroke="#191970" points="834.3656,-416.5001 824.3656,-420 834.3655,-423.5001 834.3656,-416.5001"/>
</g>
<!-- Node29 -->
<g id="node28" class="node">
<title>Node29</title>
<g id="a_node28"><a xlink:href="classamr__wind_1_1_field_repo.html" target="_top" xlink:title="Field RepositoryFieldRepo is a database that manages handling of fields used during a simulation...">
<polygon fill="#ffffff" stroke="#000000" points="1295,-361.5 1295,-380.5 1404,-380.5 1404,-361.5 1295,-361.5"/>
<text text-anchor="middle" x="1349.5" y="-368.5" font-family="Helvetica,sans-Serif" font-size="10.00" fill="#000000">amr_wind::FieldRepo</text>
</a>
</g>
</g>
<!-- Node29&#45;&gt;Node2 -->
<g id="edge49" class="edge">
<title>Node29&#45;&gt;Node2</title>
<path fill="none" stroke="#9a32cd" stroke-dasharray="5,2" d="M1414.1512,-377.2812C1444.5324,-380.5361 1481.2037,-384.9003 1514,-390 1603.0567,-403.8479 1624.4054,-412.4514 1713,-429 1760.1599,-437.809 1815.6835,-447.4997 1844.8178,-452.5322"/>
<polygon fill="#9a32cd" stroke="#9a32cd" points="1414.416,-373.7898 1404.1038,-376.2204 1413.681,-380.7511 1414.416,-373.7898"/>
<text text-anchor="middle" x="1613.5" y="-429" font-family="Helvetica,sans-Serif" font-size="10.00" fill="#000000"> m_repo</text>
</g>
<!-- Node29&#45;&gt;Node4 -->
<g id="edge40" class="edge">
<title>Node29&#45;&gt;Node4</title>
<path fill="none" stroke="#9a32cd" stroke-dasharray="5,2" d="M1394.6825,-359.1606C1409.3494,-355.8465 1425.768,-352.69 1441,-351 1481.3326,-346.5252 1527.2962,-346.5072 1561.6304,-347.4818"/>
<polygon fill="#9a32cd" stroke="#9a32cd" points="1393.7833,-355.7764 1384.8445,-361.464 1395.3791,-362.592 1393.7833,-355.7764"/>
<text text-anchor="middle" x="1477.5" y="-354" font-family="Helvetica,sans-Serif" font-size="10.00" fill="#000000"> m_repo</text>
</g>
<!-- Node30&#45;&gt;Node29 -->
<g id="edge41" class="edge">
<title>Node30&#45;&gt;Node29</title>
<path fill="none" stroke="#9a32cd" stroke-dasharray="5,2" d="M530.9476,-375.6298C698.3535,-374.683 1139.8249,-372.1859 1294.7884,-371.3095"/>
<polygon fill="#9a32cd" stroke="#9a32cd" points="530.7782,-372.1306 520.7982,-375.6872 530.8178,-379.1305 530.7782,-372.1306"/>
<text text-anchor="middle" x="899.5" y="-388" font-family="Helvetica,sans-Serif" font-size="10.00" fill="#000000"> m_fid_map</text>
<text text-anchor="middle" x="899.5" y="-377" font-family="Helvetica,sans-Serif" font-size="10.00" fill="#000000">m_int_fid_map</text>
</g>
<!-- Node31 -->
<g id="node30" class="node">
<title>Node31</title>
<g id="a_node30"><a xlink:href="classamr__wind_1_1_physics_mgr.html" target="_top" xlink:title="A collection of Physics models instances that are active during a simulation. ">
<polygon fill="#ffffff" stroke="#000000" points="1291.5,-208.5 1291.5,-227.5 1407.5,-227.5 1407.5,-208.5 1291.5,-208.5"/>
<text text-anchor="middle" x="1349.5" y="-215.5" font-family="Helvetica,sans-Serif" font-size="10.00" fill="#000000">amr_wind::PhysicsMgr</text>
</a>
</g>
</g>
<!-- Node31&#45;&gt;Node4 -->
<g id="edge44" class="edge">
<title>Node31&#45;&gt;Node4</title>
<path fill="none" stroke="#9a32cd" stroke-dasharray="5,2" d="M1377.9605,-232.2303C1432.0959,-259.2979 1548.581,-317.5405 1594.415,-340.4575"/>
<polygon fill="#9a32cd" stroke="#9a32cd" points="1379.4221,-229.048 1368.9126,-227.7063 1376.2916,-235.309 1379.4221,-229.048"/>
<text text-anchor="middle" x="1477.5" y="-303" font-family="Helvetica,sans-Serif" font-size="10.00" fill="#000000"> m_physics_mgr</text>
</g>
<!-- Node32&#45;&gt;Node31 -->
<g id="edge45" class="edge">
<title>Node32&#45;&gt;Node31</title>
<path fill="none" stroke="#191970" d="M1111.4477,-232.6139C1166.052,-229.2618 1240.369,-224.6995 1291.3606,-221.5691"/>
<polygon fill="#191970" stroke="#191970" points="1110.914,-229.14 1101.1472,-233.2462 1111.3429,-236.1268 1110.914,-229.14"/>
</g>
</g>
</svg>
        <g id="navigator" transform="translate(0 0)" fill="#404254">
                <rect fill="#f2f5e9" fill-opacity="0.5" stroke="#606060" stroke-width=".5" x="0" y="0" width="60" height="60"/>
                <use id="zoomplus" xlink:href="#zoomPlus" x="17" y="9" onmousedown="handleZoom(evt,'in')"/>
                <use id="zoomminus" xlink:href="#zoomMin" x="42" y="9" onmousedown="handleZoom(evt,'out')"/>
                <use id="reset" xlink:href="#resetDef" x="30" y="36" onmousedown="handleReset()"/>
                <g id="arrowUp" xlink:href="#dirArrow" transform="translate(30 24)" onmousedown="handlePan(0,-1)">
                  <use xlink:href="#rim" fill="#404040">
                        <set attributeName="fill" to="#808080" begin="arrowUp.mouseover" end="arrowUp.mouseout"/>
                  </use>
                  <path fill="none" stroke="white" stroke-width="1.5" d="M0,-3.0v7 M-2.5,-0.5L0,-3.0L2.5,-0.5"/>
                </g>
                <g id="arrowRight" xlink:href="#dirArrow" transform="rotate(90) translate(36 -43)" onmousedown="handlePan(1,0)">
                  <use xlink:href="#rim" fill="#404040">
                        <set attributeName="fill" to="#808080" begin="arrowRight.mouseover" end="arrowRight.mouseout"/>
                  </use>
                  <path fill="none" stroke="white" stroke-width="1.5" d="M0,-3.0v7 M-2.5,-0.5L0,-3.0L2.5,-0.5"/>
                </g>
                <g id="arrowDown" xlink:href="#dirArrow" transform="rotate(180) translate(-30 -48)" onmousedown="handlePan(0,1)">
                  <use xlink:href="#rim" fill="#404040">
                        <set attributeName="fill" to="#808080" begin="arrowDown.mouseover" end="arrowDown.mouseout"/>
                  </use>
                  <path fill="none" stroke="white" stroke-width="1.5" d="M0,-3.0v7 M-2.5,-0.5L0,-3.0L2.5,-0.5"/>
                </g>
                <g id="arrowLeft" xlink:href="#dirArrow" transform="rotate(270) translate(-36 17)" onmousedown="handlePan(-1,0)">
                  <use xlink:href="#rim" fill="#404040">
                        <set attributeName="fill" to="#808080" begin="arrowLeft.mouseover" end="arrowLeft.mouseout"/>
                  </use>
                  <path fill="none" stroke="white" stroke-width="1.5" d="M0,-3.0v7 M-2.5,-0.5L0,-3.0L2.5,-0.5"/>
                </g>
        </g>
        <svg viewBox="0 0 15 15" width="100%" height="30px" preserveAspectRatio="xMaxYMin meet">
         <g id="arrow_out" transform="scale(0.3 0.3)">
          <a xlink:href="classincflo__coll__graph_org.svg" target="_base">
           <rect id="button" ry="5" rx="5" y="6" x="6" height="38" width="38"
                fill="#f2f5e9" fill-opacity="0.5" stroke="#606060" stroke-width="1.0"/>
           <path id="arrow"
             d="M 11.500037,31.436501 C 11.940474,20.09759 22.043105,11.32322 32.158766,21.979434 L 37.068811,17.246167 C 37.068811,17.246167 37.088388,32 37.088388,32 L 22.160133,31.978069 C 22.160133,31.978069 26.997745,27.140456 26.997745,27.140456 C 18.528582,18.264221 13.291696,25.230495 11.500037,31.436501 z"
             style="fill:#404040;"/>
          </a>
         </g>
        </svg>
</svg>
