<?xml version="1.0" encoding="UTF-8" standalone="no"?>
<!DOCTYPE svg PUBLIC "-//W3C//DTD SVG 1.1//EN"
 "http://www.w3.org/Graphics/SVG/1.1/DTD/svg11.dtd">
<!-- Generated by graphviz version 2.40.1 (20161225.0304)
 -->
<!-- Title: compute_gradient.cpp Pages: 1 -->
<svg width="1237pt" height="196pt"
 viewBox="0.00 0.00 1237.00 196.00" xmlns="http://www.w3.org/2000/svg" xmlns:xlink="http://www.w3.org/1999/xlink">
<g id="graph0" class="graph" transform="scale(1 1) rotate(0) translate(4 192)">
<title>compute_gradient.cpp</title>
<polygon fill="#ffffff" stroke="transparent" points="-4,4 -4,-192 1233,-192 1233,4 -4,4"/>
<!-- Node0 -->
<g id="node1" class="node">
<title>Node0</title>
<polygon fill="#bfbfbf" stroke="#000000" points="480,-168.5 480,-187.5 593,-187.5 593,-168.5 480,-168.5"/>
<text text-anchor="middle" x="536.5" y="-175.5" font-family="Helvetica,sans-Serif" font-size="10.00" fill="#000000">compute_gradient.cpp</text>
</g>
<!-- Node1 -->
<g id="node2" class="node">
<title>Node1</title>
<g id="a_node2"><a xlink:href="derive___k_8_h.html" target="_top" xlink:title="amr&#45;wind/derive/derive_K.H">
<polygon fill="#ffffff" stroke="#000000" points="280,-112.5 280,-131.5 417,-131.5 417,-112.5 280,-112.5"/>
<text text-anchor="middle" x="348.5" y="-119.5" font-family="Helvetica,sans-Serif" font-size="10.00" fill="#000000">amr&#45;wind/derive/derive_K.H</text>
</a>
</g>
</g>
<!-- Node0&#45;&gt;Node1 -->
<g id="edge1" class="edge">
<title>Node0&#45;&gt;Node1</title>
<path fill="none" stroke="#191970" d="M504.1816,-168.3733C472.6494,-158.9807 424.5379,-144.6496 390.1499,-134.4064"/>
<polygon fill="#191970" stroke="#191970" points="390.9797,-131.0016 380.3966,-131.5011 388.9813,-137.7103 390.9797,-131.0016"/>
</g>
<!-- Node13 -->
<g id="node14" class="node">
<title>Node13</title>
<g id="a_node14"><a xlink:href="_field_repo_8_h.html" target="_top" xlink:title="amr&#45;wind/core/FieldRepo.H">
<polygon fill="#ffffff" stroke="#000000" points="704.5,-112.5 704.5,-131.5 840.5,-131.5 840.5,-112.5 704.5,-112.5"/>
<text text-anchor="middle" x="772.5" y="-119.5" font-family="Helvetica,sans-Serif" font-size="10.00" fill="#000000">amr&#45;wind/core/FieldRepo.H</text>
</a>
</g>
</g>
<!-- Node0&#45;&gt;Node13 -->
<g id="edge13" class="edge">
<title>Node0&#45;&gt;Node13</title>
<path fill="none" stroke="#191970" d="M576.8017,-168.4369C617.1064,-158.8731 679.1821,-144.1432 722.5818,-133.845"/>
<polygon fill="#191970" stroke="#191970" points="723.4428,-137.238 732.3645,-131.5237 721.8266,-130.4271 723.4428,-137.238"/>
</g>
<!-- Node2 -->
<g id="node3" class="node">
<title>Node2</title>
<g id="a_node3"><a xlink:href="_field_8_h.html" target="_top" xlink:title="amr&#45;wind/core/Field.H">
<polygon fill="#ffffff" stroke="#000000" points="340,-56.5 340,-75.5 453,-75.5 453,-56.5 340,-56.5"/>
<text text-anchor="middle" x="396.5" y="-63.5" font-family="Helvetica,sans-Serif" font-size="10.00" fill="#000000">amr&#45;wind/core/Field.H</text>
</a>
</g>
</g>
<!-- Node1&#45;&gt;Node2 -->
<g id="edge2" class="edge">
<title>Node1&#45;&gt;Node2</title>
<path fill="none" stroke="#191970" d="M356.861,-112.2455C363.675,-104.2958 373.4681,-92.8706 381.6152,-83.3656"/>
<polygon fill="#191970" stroke="#191970" points="384.3843,-85.513 388.2349,-75.6427 379.0695,-80.9575 384.3843,-85.513"/>
</g>
<!-- Node11 -->
<g id="node12" class="node">
<title>Node11</title>
<polygon fill="#ffffff" stroke="#bfbfbf" points="146,-56.5 146,-75.5 259,-75.5 259,-56.5 146,-56.5"/>
<text text-anchor="middle" x="202.5" y="-63.5" font-family="Helvetica,sans-Serif" font-size="10.00" fill="#000000">AMReX_FArrayBox.H</text>
</g>
<!-- Node1&#45;&gt;Node11 -->
<g id="edge11" class="edge">
<title>Node1&#45;&gt;Node11</title>
<path fill="none" stroke="#191970" d="M323.4017,-112.3733C299.5445,-103.2226 263.4665,-89.3844 236.929,-79.2057"/>
<polygon fill="#191970" stroke="#191970" points="237.861,-75.8145 227.2708,-75.5011 235.3541,-82.3503 237.861,-75.8145"/>
</g>
<!-- Node12 -->
<g id="node13" class="node">
<title>Node12</title>
<polygon fill="#ffffff" stroke="#bfbfbf" points="277.5,-56.5 277.5,-75.5 321.5,-75.5 321.5,-56.5 277.5,-56.5"/>
<text text-anchor="middle" x="299.5" y="-63.5" font-family="Helvetica,sans-Serif" font-size="10.00" fill="#000000">cmath</text>
</g>
<!-- Node1&#45;&gt;Node12 -->
<g id="edge12" class="edge">
<title>Node1&#45;&gt;Node12</title>
<path fill="none" stroke="#191970" d="M339.9649,-112.2455C333.0088,-104.2958 323.0117,-92.8706 314.6949,-83.3656"/>
<polygon fill="#191970" stroke="#191970" points="317.1564,-80.8637 307.9373,-75.6427 311.8884,-85.4732 317.1564,-80.8637"/>
</g>
<!-- Node3 -->
<g id="node4" class="node">
<title>Node3</title>
<polygon fill="#ffffff" stroke="#bfbfbf" points="1022,-.5 1022,-19.5 1063,-19.5 1063,-.5 1022,-.5"/>
<text text-anchor="middle" x="1042.5" y="-7.5" font-family="Helvetica,sans-Serif" font-size="10.00" fill="#000000">string</text>
</g>
<!-- Node2&#45;&gt;Node3 -->
<g id="edge3" class="edge">
<title>Node2&#45;&gt;Node3</title>
<path fill="none" stroke="#191970" d="M453.2484,-61.8076C577.1881,-52.5894 868.8573,-30.5423 967.5,-20 982.0321,-18.4469 998.0988,-16.355 1011.6213,-14.4859"/>
<polygon fill="#191970" stroke="#191970" points="1012.4272,-17.9071 1021.8427,-13.0493 1011.4529,-10.9753 1012.4272,-17.9071"/>
</g>
<!-- Node4 -->
<g id="node5" class="node">
<title>Node4</title>
<polygon fill="#ffffff" stroke="#bfbfbf" points="366.5,-.5 366.5,-19.5 418.5,-19.5 418.5,-.5 366.5,-.5"/>
<text text-anchor="middle" x="392.5" y="-7.5" font-family="Helvetica,sans-Serif" font-size="10.00" fill="#000000">memory</text>
</g>
<!-- Node2&#45;&gt;Node4 -->
<g id="edge4" class="edge">
<title>Node2&#45;&gt;Node4</title>
<path fill="none" stroke="#191970" d="M395.8033,-56.2455C395.2813,-48.9382 394.5496,-38.6944 393.9075,-29.7046"/>
<polygon fill="#191970" stroke="#191970" points="397.3924,-29.3679 393.1888,-19.6427 390.4102,-29.8667 397.3924,-29.3679"/>
</g>
<!-- Node5 -->
<g id="node6" class="node">
<title>Node5</title>
<polygon fill="#ffffff" stroke="#bfbfbf" points="437,-.5 437,-19.5 520,-19.5 520,-.5 437,-.5"/>
<text text-anchor="middle" x="478.5" y="-7.5" font-family="Helvetica,sans-Serif" font-size="10.00" fill="#000000">unordered_map</text>
</g>
<!-- Node2&#45;&gt;Node5 -->
<g id="edge5" class="edge">
<title>Node2&#45;&gt;Node5</title>
<path fill="none" stroke="#191970" d="M410.7833,-56.2455C423.247,-47.7337 441.5451,-35.2375 455.9792,-25.3801"/>
<polygon fill="#191970" stroke="#191970" points="458.0962,-28.1726 464.3804,-19.6427 454.1485,-22.392 458.0962,-28.1726"/>
</g>
<!-- Node6 -->
<g id="node7" class="node">
<title>Node6</title>
<polygon fill="#ffffff" stroke="#bfbfbf" points="538.5,-.5 538.5,-19.5 642.5,-19.5 642.5,-.5 538.5,-.5"/>
<text text-anchor="middle" x="590.5" y="-7.5" font-family="Helvetica,sans-Serif" font-size="10.00" fill="#000000">AMReX_MultiFab.H</text>
</g>
<!-- Node2&#45;&gt;Node6 -->
<g id="edge6" class="edge">
<title>Node2&#45;&gt;Node6</title>
<path fill="none" stroke="#191970" d="M429.8498,-56.3733C462.528,-46.9404 512.4618,-32.5265 547.977,-22.2747"/>
<polygon fill="#191970" stroke="#191970" points="548.9484,-25.6373 557.5854,-19.5011 547.007,-18.9119 548.9484,-25.6373"/>
</g>
<!-- Node7 -->
<g id="node8" class="node">
<title>Node7</title>
<polygon fill="#ffffff" stroke="#bfbfbf" points="0,-.5 0,-19.5 99,-19.5 99,-.5 0,-.5"/>
<text text-anchor="middle" x="49.5" y="-7.5" font-family="Helvetica,sans-Serif" font-size="10.00" fill="#000000">AMReX_BCRec.H</text>
</g>
<!-- Node2&#45;&gt;Node7 -->
<g id="edge7" class="edge">
<title>Node2&#45;&gt;Node7</title>
<path fill="none" stroke="#191970" d="M339.9804,-57.2243C283.8598,-48.4608 195.0861,-34.4646 109.0947,-20.2507"/>
<polygon fill="#191970" stroke="#191970" points="109.6044,-16.7875 99.1669,-18.6066 108.4607,-23.6934 109.6044,-16.7875"/>
</g>
<!-- Node8 -->
<g id="node9" class="node">
<title>Node8</title>
<polygon fill="#ffffff" stroke="#bfbfbf" points="117,-.5 117,-19.5 202,-19.5 202,-.5 117,-.5"/>
<text text-anchor="middle" x="159.5" y="-7.5" font-family="Helvetica,sans-Serif" font-size="10.00" fill="#000000">AMReX_Gpu.H</text>
</g>
<!-- Node2&#45;&gt;Node8 -->
<g id="edge8" class="edge">
<title>Node2&#45;&gt;Node8</title>
<path fill="none" stroke="#191970" d="M356.0275,-56.4369C315.552,-46.8731 253.2133,-32.1432 209.6297,-21.845"/>
<polygon fill="#191970" stroke="#191970" points="210.3424,-18.4171 199.8055,-19.5237 208.7327,-25.2295 210.3424,-18.4171"/>
</g>
<!-- Node9 -->
<g id="node10" class="node">
<title>Node9</title>
<g id="a_node10"><a xlink:href="incflo__enums_8_h.html" target="_top" xlink:title="amr&#45;wind/incflo_enums.H">
<polygon fill="#ffffff" stroke="#000000" points="220.5,-.5 220.5,-19.5 348.5,-19.5 348.5,-.5 220.5,-.5"/>
<text text-anchor="middle" x="284.5" y="-7.5" font-family="Helvetica,sans-Serif" font-size="10.00" fill="#000000">amr&#45;wind/incflo_enums.H</text>
</a>
</g>
</g>
<!-- Node2&#45;&gt;Node9 -->
<g id="edge9" class="edge">
<title>Node2&#45;&gt;Node9</title>
<path fill="none" stroke="#191970" d="M377.2465,-56.3733C359.4288,-47.4644 332.7253,-34.1127 312.5406,-24.0203"/>
<polygon fill="#191970" stroke="#191970" points="314.0118,-20.8428 303.5022,-19.5011 310.8813,-27.1038 314.0118,-20.8428"/>
</g>
<!-- Node10 -->
<g id="node11" class="node">
<title>Node10</title>
<g id="a_node11"><a xlink:href="_field_desc_types_8_h.html" target="_top" xlink:title="amr&#45;wind/core/FieldDescTypes.H">
<polygon fill="#ffffff" stroke="#000000" points="795,-.5 795,-19.5 958,-19.5 958,-.5 795,-.5"/>
<text text-anchor="middle" x="876.5" y="-7.5" font-family="Helvetica,sans-Serif" font-size="10.00" fill="#000000">amr&#45;wind/core/FieldDescTypes.H</text>
</a>
</g>
</g>
<!-- Node2&#45;&gt;Node10 -->
<g id="edge10" class="edge">
<title>Node2&#45;&gt;Node10</title>
<path fill="none" stroke="#191970" d="M453.4472,-59.3562C535.2347,-49.8143 686.8499,-32.1258 784.6179,-20.7196"/>
<polygon fill="#191970" stroke="#191970" points="785.2629,-24.1682 794.7899,-19.5328 784.4517,-17.2153 785.2629,-24.1682"/>
</g>
<!-- Node13&#45;&gt;Node2 -->
<g id="edge21" class="edge">
<title>Node13&#45;&gt;Node2</title>
<path fill="none" stroke="#191970" d="M708.2905,-112.4369C639.9198,-102.254 532.2276,-86.2147 462.9954,-75.9036"/>
<polygon fill="#191970" stroke="#191970" points="463.4757,-72.4366 453.0692,-74.4252 462.4445,-79.3602 463.4757,-72.4366"/>
</g>
<!-- Node13&#45;&gt;Node3 -->
<g id="edge14" class="edge">
<title>Node13&#45;&gt;Node3</title>
<path fill="none" stroke="#191970" d="M840.7479,-118.7104C945.9426,-112.9325 1137.8039,-99.3089 1158.5,-76 1186.427,-44.5473 1116.4182,-24.5142 1073.3255,-15.5208"/>
<polygon fill="#191970" stroke="#191970" points="1073.7761,-12.0419 1063.2851,-13.5211 1072.4088,-18.907 1073.7761,-12.0419"/>
</g>
<!-- Node13&#45;&gt;Node5 -->
<g id="edge15" class="edge">
<title>Node13&#45;&gt;Node5</title>
<path fill="none" stroke="#191970" d="M704.2079,-114.4257C643.1766,-106.6919 559.1049,-93.3677 530.5,-76 511.884,-64.6972 497.2956,-44.1304 488.3685,-28.9492"/>
<polygon fill="#191970" stroke="#191970" points="491.2552,-26.9386 483.3343,-19.9022 485.1384,-30.3423 491.2552,-26.9386"/>
</g>
<!-- Node13&#45;&gt;Node6 -->
<g id="edge31" class="edge">
<title>Node13&#45;&gt;Node6</title>
<path fill="none" stroke="#191970" d="M704.4302,-117.9939C643.0109,-112.7887 559.2123,-101.1804 538.5,-76 524.3735,-58.8261 545.5096,-38.7026 564.9215,-25.2319"/>
<polygon fill="#191970" stroke="#191970" points="566.8727,-28.1378 573.3061,-19.7198 563.0274,-22.2885 566.8727,-28.1378"/>
</g>
<!-- Node13&#45;&gt;Node10 -->
<g id="edge16" class="edge">
<title>Node13&#45;&gt;Node10</title>
<path fill="none" stroke="#191970" d="M800.3391,-112.4333C818.0992,-105.0249 840.3579,-93.1119 854.5,-76 865.4283,-62.7767 871.0023,-43.9105 873.7993,-29.7332"/>
<polygon fill="#191970" stroke="#191970" points="877.3021,-30.0057 875.4963,-19.5659 870.3976,-28.8532 877.3021,-30.0057"/>
</g>
<!-- Node14 -->
<g id="node15" class="node">
<title>Node14</title>
<g id="a_node15"><a xlink:href="_field_utils_8_h.html" target="_top" xlink:title="amr&#45;wind/core/FieldUtils.H">
<polygon fill="#ffffff" stroke="#000000" points="548,-56.5 548,-75.5 681,-75.5 681,-56.5 548,-56.5"/>
<text text-anchor="middle" x="614.5" y="-63.5" font-family="Helvetica,sans-Serif" font-size="10.00" fill="#000000">amr&#45;wind/core/FieldUtils.H</text>
</a>
</g>
</g>
<!-- Node13&#45;&gt;Node14 -->
<g id="edge17" class="edge">
<title>Node13&#45;&gt;Node14</title>
<path fill="none" stroke="#191970" d="M745.3388,-112.3733C719.2933,-103.1419 679.7884,-89.1402 651.0021,-78.9375"/>
<polygon fill="#191970" stroke="#191970" points="651.9015,-75.5429 641.3067,-75.5011 649.563,-82.1408 651.9015,-75.5429"/>
</g>
<!-- Node16 -->
<g id="node17" class="node">
<title>Node16</title>
<g id="a_node17"><a xlink:href="_int_field_8_h.html" target="_top" xlink:title="amr&#45;wind/core/IntField.H">
<polygon fill="#ffffff" stroke="#000000" points="1025.5,-56.5 1025.5,-75.5 1149.5,-75.5 1149.5,-56.5 1025.5,-56.5"/>
<text text-anchor="middle" x="1087.5" y="-63.5" font-family="Helvetica,sans-Serif" font-size="10.00" fill="#000000">amr&#45;wind/core/IntField.H</text>
</a>
</g>
</g>
<!-- Node13&#45;&gt;Node16 -->
<g id="edge22" class="edge">
<title>Node13&#45;&gt;Node16</title>
<path fill="none" stroke="#191970" d="M826.2925,-112.4369C880.9951,-102.712 965.7435,-87.6456 1023.7773,-77.3285"/>
<polygon fill="#191970" stroke="#191970" points="1024.6964,-80.7201 1033.9294,-75.5237 1023.4711,-73.8281 1024.6964,-80.7201"/>
</g>
<!-- Node17 -->
<g id="node18" class="node">
<title>Node17</title>
<polygon fill="#ffffff" stroke="#bfbfbf" points="1122,-.5 1122,-19.5 1229,-19.5 1229,-.5 1122,-.5"/>
<text text-anchor="middle" x="1175.5" y="-7.5" font-family="Helvetica,sans-Serif" font-size="10.00" fill="#000000">AMReX_iMultiFab.H</text>
</g>
<!-- Node13&#45;&gt;Node17 -->
<g id="edge32" class="edge">
<title>Node13&#45;&gt;Node17</title>
<path fill="none" stroke="#191970" d="M840.6467,-119.0865C949.7442,-113.7153 1153.6395,-100.4976 1175.5,-76 1186.4429,-63.737 1185.1231,-44.496 1181.8469,-29.9464"/>
<polygon fill="#191970" stroke="#191970" points="1185.1256,-28.6638 1179.1309,-19.928 1178.3694,-30.4955 1185.1256,-28.6638"/>
</g>
<!-- Node18 -->
<g id="node19" class="node">
<title>Node18</title>
<g id="a_node19"><a xlink:href="_scratch_field_8_h.html" target="_top" xlink:title="amr&#45;wind/core/ScratchField.H">
<polygon fill="#ffffff" stroke="#000000" points="699.5,-56.5 699.5,-75.5 845.5,-75.5 845.5,-56.5 699.5,-56.5"/>
<text text-anchor="middle" x="772.5" y="-63.5" font-family="Helvetica,sans-Serif" font-size="10.00" fill="#000000">amr&#45;wind/core/ScratchField.H</text>
</a>
</g>
</g>
<!-- Node13&#45;&gt;Node18 -->
<g id="edge26" class="edge">
<title>Node13&#45;&gt;Node18</title>
<path fill="none" stroke="#191970" d="M772.5,-112.2455C772.5,-104.9382 772.5,-94.6944 772.5,-85.7046"/>
<polygon fill="#191970" stroke="#191970" points="776.0001,-85.6426 772.5,-75.6427 769.0001,-85.6427 776.0001,-85.6426"/>
</g>
<!-- Node19 -->
<g id="node20" class="node">
<title>Node19</title>
<polygon fill="#ffffff" stroke="#bfbfbf" points="901.5,-56.5 901.5,-75.5 1007.5,-75.5 1007.5,-56.5 901.5,-56.5"/>
<text text-anchor="middle" x="954.5" y="-63.5" font-family="Helvetica,sans-Serif" font-size="10.00" fill="#000000">AMReX_AmrCore.H</text>
</g>
<!-- Node13&#45;&gt;Node19 -->
<g id="edge30" class="edge">
<title>Node13&#45;&gt;Node19</title>
<path fill="none" stroke="#191970" d="M803.7869,-112.3733C834.1818,-103.021 880.4893,-88.7725 913.75,-78.5385"/>
<polygon fill="#191970" stroke="#191970" points="915.0929,-81.7873 923.6214,-75.5011 913.0342,-75.0968 915.0929,-81.7873"/>
</g>
<!-- Node14&#45;&gt;Node6 -->
<g id="edge19" class="edge">
<title>Node14&#45;&gt;Node6</title>
<path fill="none" stroke="#191970" d="M610.3195,-56.2455C607.119,-48.7776 602.604,-38.2427 598.6916,-29.1137"/>
<polygon fill="#191970" stroke="#191970" points="601.7888,-27.4554 594.6326,-19.6427 595.3548,-30.2129 601.7888,-27.4554"/>
</g>
<!-- Node14&#45;&gt;Node10 -->
<g id="edge18" class="edge">
<title>Node14&#45;&gt;Node10</title>
<path fill="none" stroke="#191970" d="M659.2417,-56.4369C704.2694,-46.8127 773.7728,-31.957 821.9927,-21.6504"/>
<polygon fill="#191970" stroke="#191970" points="822.8953,-25.0366 831.9428,-19.5237 821.4321,-18.1912 822.8953,-25.0366"/>
</g>
<!-- Node15 -->
<g id="node16" class="node">
<title>Node15</title>
<polygon fill="#ffffff" stroke="#bfbfbf" points="660.5,-.5 660.5,-19.5 776.5,-19.5 776.5,-.5 660.5,-.5"/>
<text text-anchor="middle" x="718.5" y="-7.5" font-family="Helvetica,sans-Serif" font-size="10.00" fill="#000000">AMReX_Interpolater.H</text>
</g>
<!-- Node14&#45;&gt;Node15 -->
<g id="edge20" class="edge">
<title>Node14&#45;&gt;Node15</title>
<path fill="none" stroke="#191970" d="M632.6154,-56.2455C648.945,-47.4527 673.171,-34.4079 691.7339,-24.4125"/>
<polygon fill="#191970" stroke="#191970" points="693.4468,-27.4654 700.5922,-19.6427 690.1281,-21.3021 693.4468,-27.4654"/>
</g>
<!-- Node16&#45;&gt;Node3 -->
<g id="edge23" class="edge">
<title>Node16&#45;&gt;Node3</title>
<path fill="none" stroke="#191970" d="M1079.6616,-56.2455C1073.338,-48.3761 1064.2776,-37.101 1056.6864,-27.6542"/>
<polygon fill="#191970" stroke="#191970" points="1059.2408,-25.2454 1050.2486,-19.6427 1053.7842,-29.6302 1059.2408,-25.2454"/>
</g>
<!-- Node16&#45;&gt;Node10 -->
<g id="edge24" class="edge">
<title>Node16&#45;&gt;Node10</title>
<path fill="none" stroke="#191970" d="M1051.2278,-56.3733C1015.5342,-46.9001 960.9121,-32.4032 922.2549,-22.1435"/>
<polygon fill="#191970" stroke="#191970" points="922.8621,-18.6835 912.2989,-19.5011 921.0664,-25.4493 922.8621,-18.6835"/>
</g>
<!-- Node16&#45;&gt;Node17 -->
<g id="edge25" class="edge">
<title>Node16&#45;&gt;Node17</title>
<path fill="none" stroke="#191970" d="M1102.8284,-56.2455C1116.3303,-47.6534 1136.2122,-35.0014 1151.7686,-25.1018"/>
<polygon fill="#191970" stroke="#191970" points="1153.7897,-27.9643 1160.3472,-19.6427 1150.0315,-22.0587 1153.7897,-27.9643"/>
</g>
<!-- Node18&#45;&gt;Node3 -->
<g id="edge27" class="edge">
<title>Node18&#45;&gt;Node3</title>
<path fill="none" stroke="#191970" d="M818.6079,-56.4369C873.7779,-44.9942 964.603,-26.1564 1011.8284,-16.3615"/>
<polygon fill="#191970" stroke="#191970" points="1012.6802,-19.7594 1021.761,-14.3014 1011.2586,-12.9053 1012.6802,-19.7594"/>
</g>
<!-- Node18&#45;&gt;Node6 -->
<g id="edge29" class="edge">
<title>Node18&#45;&gt;Node6</title>
<path fill="none" stroke="#191970" d="M741.2131,-56.3733C710.8182,-47.021 664.5107,-32.7725 631.25,-22.5385"/>
<polygon fill="#191970" stroke="#191970" points="631.9658,-19.0968 621.3786,-19.5011 629.9071,-25.7873 631.9658,-19.0968"/>
</g>
<!-- Node18&#45;&gt;Node10 -->
<g id="edge28" class="edge">
<title>Node18&#45;&gt;Node10</title>
<path fill="none" stroke="#191970" d="M790.6154,-56.2455C806.945,-47.4527 831.171,-34.4079 849.7339,-24.4125"/>
<polygon fill="#191970" stroke="#191970" points="851.4468,-27.4654 858.5922,-19.6427 848.1281,-21.3021 851.4468,-27.4654"/>
</g>
</g>
</svg>
