<?xml version="1.0" encoding="UTF-8" standalone="no"?>
<!DOCTYPE svg PUBLIC "-//W3C//DTD SVG 1.1//EN"
 "http://www.w3.org/Graphics/SVG/1.1/DTD/svg11.dtd">
<!-- Generated by graphviz version 2.40.1 (20161225.0304)
 -->
<!-- Title: compute_gradient.cpp Pages: 1 -->
<!--zoomable 196 -->
<svg id="main" version="1.1" xmlns="http://www.w3.org/2000/svg" xmlns:xlink="http://www.w3.org/1999/xlink" xml:space="preserve" onload="init(evt)">
<style type="text/css"><![CDATA[
.edge:hover path { stroke: red; }
.edge:hover polygon { stroke: red; fill: red; }
]]></style>
<script type="text/javascript"><![CDATA[
var edges = document.getElementsByTagName('g');
if (edges && edges.length) {
  for (var i=0;i<edges.length;i++) {
    if (edges[i].id.substr(0,4)=='edge') {
      edges[i].setAttribute('class','edge');
    }
  }
}
]]></script>
        <defs>
                <circle id="rim" cx="0" cy="0" r="7"/>
                <circle id="rim2" cx="0" cy="0" r="3.5"/>
                <g id="zoomPlus">
                        <use xlink:href="#rim" fill="#404040">
                                <set attributeName="fill" to="#808080" begin="zoomplus.mouseover" end="zoomplus.mouseout"/>
                        </use>
                        <path d="M-4,0h8M0,-4v8" fill="none" stroke="white" stroke-width="1.5" pointer-events="none"/>
                </g>
                <g id="zoomMin">
                        <use xlink:href="#rim" fill="#404040">
                                <set attributeName="fill" to="#808080" begin="zoomminus.mouseover" end="zoomminus.mouseout"/>
                        </use>
                        <path d="M-4,0h8" fill="none" stroke="white" stroke-width="1.5" pointer-events="none"/>
                </g>
                <g id="dirArrow">
                        <path fill="none" stroke="white" stroke-width="1.5" d="M0,-3.0v7 M-2.5,-0.5L0,-3.0L2.5,-0.5"/>
                </g>
               <g id="resetDef">
                       <use xlink:href="#rim2" fill="#404040">
                               <set attributeName="fill" to="#808080" begin="reset.mouseover" end="reset.mouseout"/>
                       </use>
               </g>
        </defs>

<script type="text/javascript">
var viewWidth = 1410;
var viewHeight = 196;
var sectionId = 'dynsection-0';
</script>
<script xlink:href="svgpan.js"/>
<svg id="graph" class="graph">
<g id="viewport">
<title>compute_gradient.cpp</title>
<polygon fill="#ffffff" stroke="transparent" points="-4,4 -4,-192 1405.5,-192 1405.5,4 -4,4"/>
<!-- Node0 -->
<g id="node1" class="node">
<title>Node0</title>
<polygon fill="#bfbfbf" stroke="#000000" points="530.5,-168.5 530.5,-187.5 643.5,-187.5 643.5,-168.5 530.5,-168.5"/>
<text text-anchor="middle" x="587" y="-175.5" font-family="Helvetica,sans-Serif" font-size="10.00" fill="#000000">compute_gradient.cpp</text>
</g>
<!-- Node1 -->
<g id="node2" class="node">
<title>Node1</title>
<g id="a_node2"><a xlink:href="derive___k_8_h.html" target="_top" xlink:title="amr&#45;wind/derive/derive_K.H">
<polygon fill="#ffffff" stroke="#000000" points="362.5,-112.5 362.5,-131.5 499.5,-131.5 499.5,-112.5 362.5,-112.5"/>
<text text-anchor="middle" x="431" y="-119.5" font-family="Helvetica,sans-Serif" font-size="10.00" fill="#000000">amr&#45;wind/derive/derive_K.H</text>
</a>
</g>
</g>
<!-- Node0&#45;&gt;Node1 -->
<g id="edge1" class="edge">
<title>Node0&#45;&gt;Node1</title>
<path fill="none" stroke="#191970" d="M560.1826,-168.3733C534.4668,-159.1419 495.462,-145.1402 467.0401,-134.9375"/>
<polygon fill="#191970" stroke="#191970" points="468.0619,-131.5857 457.4674,-131.5011 465.6968,-138.174 468.0619,-131.5857"/>
</g>
<!-- Node13 -->
<g id="node14" class="node">
<title>Node13</title>
<g id="a_node14"><a xlink:href="_field_repo_8_h.html" target="_top" xlink:title="amr&#45;wind/core/FieldRepo.H">
<polygon fill="#ffffff" stroke="#000000" points="743,-112.5 743,-131.5 879,-131.5 879,-112.5 743,-112.5"/>
<text text-anchor="middle" x="811" y="-119.5" font-family="Helvetica,sans-Serif" font-size="10.00" fill="#000000">amr&#45;wind/core/FieldRepo.H</text>
</a>
</g>
</g>
<!-- Node0&#45;&gt;Node13 -->
<g id="edge13" class="edge">
<title>Node0&#45;&gt;Node13</title>
<path fill="none" stroke="#191970" d="M625.2525,-168.4369C663.3467,-158.9133 721.9313,-144.2672 763.0987,-133.9753"/>
<polygon fill="#191970" stroke="#191970" points="764.0528,-137.3446 772.9053,-131.5237 762.355,-130.5536 764.0528,-137.3446"/>
</g>
<!-- Node2 -->
<g id="node3" class="node">
<title>Node2</title>
<g id="a_node3"><a xlink:href="_field_8_h.html" target="_top" xlink:title="amr&#45;wind/core/Field.H">
<polygon fill="#ffffff" stroke="#000000" points="422.5,-56.5 422.5,-75.5 535.5,-75.5 535.5,-56.5 422.5,-56.5"/>
<text text-anchor="middle" x="479" y="-63.5" font-family="Helvetica,sans-Serif" font-size="10.00" fill="#000000">amr&#45;wind/core/Field.H</text>
</a>
</g>
</g>
<!-- Node1&#45;&gt;Node2 -->
<g id="edge2" class="edge">
<title>Node1&#45;&gt;Node2</title>
<path fill="none" stroke="#191970" d="M439.361,-112.2455C446.175,-104.2958 455.9681,-92.8706 464.1152,-83.3656"/>
<polygon fill="#191970" stroke="#191970" points="466.8843,-85.513 470.7349,-75.6427 461.5695,-80.9575 466.8843,-85.513"/>
</g>
<!-- Node11 -->
<g id="node12" class="node">
<title>Node11</title>
<polygon fill="#ffffff" stroke="#bfbfbf" points="228.5,-56.5 228.5,-75.5 341.5,-75.5 341.5,-56.5 228.5,-56.5"/>
<text text-anchor="middle" x="285" y="-63.5" font-family="Helvetica,sans-Serif" font-size="10.00" fill="#000000">AMReX_FArrayBox.H</text>
</g>
<!-- Node1&#45;&gt;Node11 -->
<g id="edge11" class="edge">
<title>Node1&#45;&gt;Node11</title>
<path fill="none" stroke="#191970" d="M405.9017,-112.3733C382.0445,-103.2226 345.9665,-89.3844 319.429,-79.2057"/>
<polygon fill="#191970" stroke="#191970" points="320.361,-75.8145 309.7708,-75.5011 317.8541,-82.3503 320.361,-75.8145"/>
</g>
<!-- Node12 -->
<g id="node13" class="node">
<title>Node12</title>
<polygon fill="#ffffff" stroke="#bfbfbf" points="360,-56.5 360,-75.5 404,-75.5 404,-56.5 360,-56.5"/>
<text text-anchor="middle" x="382" y="-63.5" font-family="Helvetica,sans-Serif" font-size="10.00" fill="#000000">cmath</text>
</g>
<!-- Node1&#45;&gt;Node12 -->
<g id="edge12" class="edge">
<title>Node1&#45;&gt;Node12</title>
<path fill="none" stroke="#191970" d="M422.4649,-112.2455C415.5088,-104.2958 405.5117,-92.8706 397.1949,-83.3656"/>
<polygon fill="#191970" stroke="#191970" points="399.6564,-80.8637 390.4373,-75.6427 394.3884,-85.4732 399.6564,-80.8637"/>
</g>
<!-- Node3 -->
<g id="node4" class="node">
<title>Node3</title>
<polygon fill="#ffffff" stroke="#bfbfbf" points="1235.5,-.5 1235.5,-19.5 1276.5,-19.5 1276.5,-.5 1235.5,-.5"/>
<text text-anchor="middle" x="1256" y="-7.5" font-family="Helvetica,sans-Serif" font-size="10.00" fill="#000000">string</text>
</g>
<!-- Node2&#45;&gt;Node3 -->
<g id="edge3" class="edge">
<title>Node2&#45;&gt;Node3</title>
<path fill="none" stroke="#191970" d="M535.6268,-62.4734C566.4827,-60.5542 605.3396,-58.1411 640,-56 897.1327,-40.1162 968.0443,-68.9296 1225.1923,-19.6423"/>
<polygon fill="#191970" stroke="#191970" points="1226.0536,-23.0406 1235.2051,-17.702 1224.7218,-16.1685 1226.0536,-23.0406"/>
</g>
<!-- Node4 -->
<g id="node5" class="node">
<title>Node4</title>
<polygon fill="#ffffff" stroke="#bfbfbf" points="146,-.5 146,-19.5 198,-19.5 198,-.5 146,-.5"/>
<text text-anchor="middle" x="172" y="-7.5" font-family="Helvetica,sans-Serif" font-size="10.00" fill="#000000">memory</text>
</g>
<!-- Node2&#45;&gt;Node4 -->
<g id="edge4" class="edge">
<title>Node2&#45;&gt;Node4</title>
<path fill="none" stroke="#191970" d="M422.456,-57.1944C359.4005,-47.25 260.359,-31.229 208.0969,-20.0237"/>
<polygon fill="#191970" stroke="#191970" points="208.8132,-16.5976 198.2927,-17.85 207.298,-23.4316 208.8132,-16.5976"/>
</g>
<!-- Node5 -->
<g id="node6" class="node">
<title>Node5</title>
<polygon fill="#ffffff" stroke="#bfbfbf" points="436.5,-.5 436.5,-19.5 519.5,-19.5 519.5,-.5 436.5,-.5"/>
<text text-anchor="middle" x="478" y="-7.5" font-family="Helvetica,sans-Serif" font-size="10.00" fill="#000000">unordered_map</text>
</g>
<!-- Node2&#45;&gt;Node5 -->
<g id="edge5" class="edge">
<title>Node2&#45;&gt;Node5</title>
<path fill="none" stroke="#191970" d="M478.8258,-56.2455C478.6953,-48.9382 478.5124,-38.6944 478.3519,-29.7046"/>
<polygon fill="#191970" stroke="#191970" points="481.8503,-29.5786 478.1722,-19.6427 474.8514,-29.7036 481.8503,-29.5786"/>
</g>
<!-- Node6 -->
<g id="node7" class="node">
<title>Node6</title>
<polygon fill="#ffffff" stroke="#bfbfbf" points="538,-.5 538,-19.5 642,-19.5 642,-.5 538,-.5"/>
<text text-anchor="middle" x="590" y="-7.5" font-family="Helvetica,sans-Serif" font-size="10.00" fill="#000000">AMReX_MultiFab.H</text>
</g>
<!-- Node2&#45;&gt;Node6 -->
<g id="edge6" class="edge">
<title>Node2&#45;&gt;Node6</title>
<path fill="none" stroke="#191970" d="M498.0816,-56.3733C515.7402,-47.4644 542.2053,-34.1127 562.2098,-24.0203"/>
<polygon fill="#191970" stroke="#191970" points="563.8158,-27.1303 571.1674,-19.5011 560.6628,-20.8806 563.8158,-27.1303"/>
</g>
<!-- Node7 -->
<g id="node8" class="node">
<title>Node7</title>
<polygon fill="#ffffff" stroke="#bfbfbf" points="216.5,-.5 216.5,-19.5 315.5,-19.5 315.5,-.5 216.5,-.5"/>
<text text-anchor="middle" x="266" y="-7.5" font-family="Helvetica,sans-Serif" font-size="10.00" fill="#000000">AMReX_BCRec.H</text>
</g>
<!-- Node2&#45;&gt;Node7 -->
<g id="edge7" class="edge">
<title>Node2&#45;&gt;Node7</title>
<path fill="none" stroke="#191970" d="M442.384,-56.3733C406.352,-46.9001 351.2122,-32.4032 312.1886,-22.1435"/>
<polygon fill="#191970" stroke="#191970" points="312.6995,-18.6589 302.1382,-19.5011 310.9196,-25.4289 312.6995,-18.6589"/>
</g>
<!-- Node8 -->
<g id="node9" class="node">
<title>Node8</title>
<polygon fill="#ffffff" stroke="#bfbfbf" points="333.5,-.5 333.5,-19.5 418.5,-19.5 418.5,-.5 333.5,-.5"/>
<text text-anchor="middle" x="376" y="-7.5" font-family="Helvetica,sans-Serif" font-size="10.00" fill="#000000">AMReX_Gpu.H</text>
</g>
<!-- Node2&#45;&gt;Node8 -->
<g id="edge8" class="edge">
<title>Node2&#45;&gt;Node8</title>
<path fill="none" stroke="#191970" d="M461.0588,-56.2455C444.96,-47.4928 421.1121,-34.527 402.7609,-24.5496"/>
<polygon fill="#191970" stroke="#191970" points="404.1929,-21.3444 393.7356,-19.6427 400.8493,-27.4942 404.1929,-21.3444"/>
</g>
<!-- Node9 -->
<g id="node10" class="node">
<title>Node9</title>
<g id="a_node10"><a xlink:href="incflo__enums_8_h.html" target="_top" xlink:title="amr&#45;wind/incflo_enums.H">
<polygon fill="#ffffff" stroke="#000000" points="0,-.5 0,-19.5 128,-19.5 128,-.5 0,-.5"/>
<text text-anchor="middle" x="64" y="-7.5" font-family="Helvetica,sans-Serif" font-size="10.00" fill="#000000">amr&#45;wind/incflo_enums.H</text>
</a>
</g>
</g>
<!-- Node2&#45;&gt;Node9 -->
<g id="edge9" class="edge">
<title>Node2&#45;&gt;Node9</title>
<path fill="none" stroke="#191970" d="M422.4856,-57.3587C419.2774,-56.8926 416.0984,-56.4368 413,-56 293.7351,-39.1885 261.3072,-36.5284 138.2883,-20.1636"/>
<polygon fill="#191970" stroke="#191970" points="138.4659,-16.6563 128.0909,-18.8033 137.5403,-23.5949 138.4659,-16.6563"/>
</g>
<!-- Node10 -->
<g id="node11" class="node">
<title>Node10</title>
<g id="a_node11"><a xlink:href="_field_desc_types_8_h.html" target="_top" xlink:title="amr&#45;wind/core/FieldDescTypes.H">
<polygon fill="#ffffff" stroke="#000000" points="794.5,-.5 794.5,-19.5 957.5,-19.5 957.5,-.5 794.5,-.5"/>
<text text-anchor="middle" x="876" y="-7.5" font-family="Helvetica,sans-Serif" font-size="10.00" fill="#000000">amr&#45;wind/core/FieldDescTypes.H</text>
</a>
</g>
</g>
<!-- Node2&#45;&gt;Node10 -->
<g id="edge10" class="edge">
<title>Node2&#45;&gt;Node10</title>
<path fill="none" stroke="#191970" d="M535.8804,-57.9766C604.8242,-48.2515 721.3273,-31.8178 798.4555,-20.9383"/>
<polygon fill="#191970" stroke="#191970" points="799.1851,-24.3701 808.5982,-19.5076 798.2073,-17.4387 799.1851,-24.3701"/>
</g>
<!-- Node13&#45;&gt;Node2 -->
<g id="edge21" class="edge">
<title>Node13&#45;&gt;Node2</title>
<path fill="none" stroke="#191970" d="M754.3044,-112.4369C696.4109,-102.6717 606.5872,-87.5207 545.4034,-77.2006"/>
<polygon fill="#191970" stroke="#191970" points="545.9046,-73.7358 535.4618,-75.5237 544.7403,-80.6383 545.9046,-73.7358"/>
</g>
<!-- Node13&#45;&gt;Node3 -->
<g id="edge14" class="edge">
<title>Node13&#45;&gt;Node3</title>
<path fill="none" stroke="#191970" d="M879.2276,-119.9471C998.5716,-115.6471 1234.9925,-103.7004 1260,-76 1271.1419,-63.6583 1268.3953,-44.1541 1263.9094,-29.5433"/>
<polygon fill="#191970" stroke="#191970" points="1267.1466,-28.1998 1260.5093,-19.9416 1260.5481,-30.5364 1267.1466,-28.1998"/>
</g>
<!-- Node13&#45;&gt;Node5 -->
<g id="edge15" class="edge">
<title>Node13&#45;&gt;Node5</title>
<path fill="none" stroke="#191970" d="M756.0085,-112.4341C716.2054,-104.7094 661.466,-92.4228 615,-76 574.6975,-61.7556 530.5735,-39.1288 503.5832,-24.4205"/>
<polygon fill="#191970" stroke="#191970" points="505.2332,-21.3336 494.7854,-19.575 501.8562,-27.4651 505.2332,-21.3336"/>
</g>
<!-- Node13&#45;&gt;Node6 -->
<g id="edge33" class="edge">
<title>Node13&#45;&gt;Node6</title>
<path fill="none" stroke="#191970" d="M742.987,-114.2138C709.7575,-107.9055 670.4731,-96.5195 640,-76 622.198,-64.0128 608.1544,-43.5599 599.5401,-28.5925"/>
<polygon fill="#191970" stroke="#191970" points="602.5441,-26.7909 594.6783,-19.693 596.401,-30.1469 602.5441,-26.7909"/>
</g>
<!-- Node13&#45;&gt;Node10 -->
<g id="edge16" class="edge">
<title>Node13&#45;&gt;Node10</title>
<path fill="none" stroke="#191970" d="M812.214,-112.444C814.2442,-99.0487 819.2184,-74.2817 830,-56 836.5889,-44.8277 846.5236,-34.4219 855.4762,-26.3433"/>
<polygon fill="#191970" stroke="#191970" points="857.9936,-28.7948 863.2977,-19.6232 853.4318,-23.4853 857.9936,-28.7948"/>
</g>
<!-- Node14 -->
<g id="node15" class="node">
<title>Node14</title>
<g id="a_node15"><a xlink:href="_field_utils_8_h.html" target="_top" xlink:title="amr&#45;wind/core/FieldUtils.H">
<polygon fill="#ffffff" stroke="#000000" points="649.5,-56.5 649.5,-75.5 782.5,-75.5 782.5,-56.5 649.5,-56.5"/>
<text text-anchor="middle" x="716" y="-63.5" font-family="Helvetica,sans-Serif" font-size="10.00" fill="#000000">amr&#45;wind/core/FieldUtils.H</text>
</a>
</g>
</g>
<!-- Node13&#45;&gt;Node14 -->
<g id="edge17" class="edge">
<title>Node13&#45;&gt;Node14</title>
<path fill="none" stroke="#191970" d="M794.4523,-112.2455C779.7401,-103.5731 758.0112,-90.7645 741.1495,-80.825"/>
<polygon fill="#191970" stroke="#191970" points="742.7502,-77.7057 732.3581,-75.6427 739.1954,-83.736 742.7502,-77.7057"/>
</g>
<!-- Node16 -->
<g id="node17" class="node">
<title>Node16</title>
<g id="a_node17"><a xlink:href="_int_field_8_h.html" target="_top" xlink:title="amr&#45;wind/core/IntField.H">
<polygon fill="#ffffff" stroke="#000000" points="1127,-56.5 1127,-75.5 1251,-75.5 1251,-56.5 1127,-56.5"/>
<text text-anchor="middle" x="1189" y="-63.5" font-family="Helvetica,sans-Serif" font-size="10.00" fill="#000000">amr&#45;wind/core/IntField.H</text>
</a>
</g>
</g>
<!-- Node13&#45;&gt;Node16 -->
<g id="edge22" class="edge">
<title>Node13&#45;&gt;Node16</title>
<path fill="none" stroke="#191970" d="M875.551,-112.4369C942.5771,-102.5071 1047.1933,-87.0084 1116.8909,-76.6828"/>
<polygon fill="#191970" stroke="#191970" points="1117.5331,-80.126 1126.9122,-75.1982 1116.5072,-73.2016 1117.5331,-80.126"/>
</g>
<!-- Node17 -->
<g id="node18" class="node">
<title>Node17</title>
<polygon fill="#ffffff" stroke="#bfbfbf" points="1294.5,-.5 1294.5,-19.5 1401.5,-19.5 1401.5,-.5 1294.5,-.5"/>
<text text-anchor="middle" x="1348" y="-7.5" font-family="Helvetica,sans-Serif" font-size="10.00" fill="#000000">AMReX_iMultiFab.H</text>
</g>
<!-- Node13&#45;&gt;Node17 -->
<g id="edge34" class="edge">
<title>Node13&#45;&gt;Node17</title>
<path fill="none" stroke="#191970" d="M879.2099,-120.5864C990.997,-117.3896 1207.7083,-107.2481 1277,-76 1300.8179,-65.2589 1321.8594,-43.2724 1334.7323,-27.6302"/>
<polygon fill="#191970" stroke="#191970" points="1337.5445,-29.7168 1341.0093,-19.7045 1332.057,-25.3708 1337.5445,-29.7168"/>
</g>
<!-- Node18 -->
<g id="node19" class="node">
<title>Node18</title>
<g id="a_node19"><a xlink:href="_scratch_field_8_h.html" target="_top" xlink:title="amr&#45;wind/core/ScratchField.H">
<polygon fill="#ffffff" stroke="#000000" points="839,-56.5 839,-75.5 985,-75.5 985,-56.5 839,-56.5"/>
<text text-anchor="middle" x="912" y="-63.5" font-family="Helvetica,sans-Serif" font-size="10.00" fill="#000000">amr&#45;wind/core/ScratchField.H</text>
</a>
</g>
</g>
<!-- Node13&#45;&gt;Node18 -->
<g id="edge26" class="edge">
<title>Node13&#45;&gt;Node18</title>
<path fill="none" stroke="#191970" d="M828.5929,-112.2455C844.379,-103.4928 867.7639,-90.527 885.7587,-80.5496"/>
<polygon fill="#191970" stroke="#191970" points="887.5603,-83.5528 894.6087,-75.6427 884.1659,-77.4308 887.5603,-83.5528"/>
</g>
<!-- Node21 -->
<g id="node22" class="node">
<title>Node21</title>
<polygon fill="#ffffff" stroke="#bfbfbf" points="1003,-56.5 1003,-75.5 1109,-75.5 1109,-56.5 1003,-56.5"/>
<text text-anchor="middle" x="1056" y="-63.5" font-family="Helvetica,sans-Serif" font-size="10.00" fill="#000000">AMReX_AmrCore.H</text>
</g>
<!-- Node13&#45;&gt;Node21 -->
<g id="edge32" class="edge">
<title>Node13&#45;&gt;Node21</title>
<path fill="none" stroke="#191970" d="M852.8386,-112.4369C894.7685,-102.8529 959.3948,-88.0812 1004.4624,-77.78"/>
<polygon fill="#191970" stroke="#191970" points="1005.3653,-81.164 1014.3339,-75.5237 1003.8054,-74.34 1005.3653,-81.164"/>
</g>
<!-- Node14&#45;&gt;Node6 -->
<g id="edge19" class="edge">
<title>Node14&#45;&gt;Node6</title>
<path fill="none" stroke="#191970" d="M694.3398,-56.3733C674.0228,-47.3435 643.436,-33.7494 620.625,-23.6111"/>
<polygon fill="#191970" stroke="#191970" points="621.9372,-20.3642 611.3775,-19.5011 619.0941,-26.7609 621.9372,-20.3642"/>
</g>
<!-- Node14&#45;&gt;Node10 -->
<g id="edge18" class="edge">
<title>Node14&#45;&gt;Node10</title>
<path fill="none" stroke="#191970" d="M743.505,-56.3733C769.8802,-47.1419 809.8851,-33.1402 839.0358,-22.9375"/>
<polygon fill="#191970" stroke="#191970" points="840.5716,-26.1082 848.8539,-19.5011 838.2591,-19.5012 840.5716,-26.1082"/>
</g>
<!-- Node15 -->
<g id="node16" class="node">
<title>Node15</title>
<polygon fill="#ffffff" stroke="#bfbfbf" points="660,-.5 660,-19.5 776,-19.5 776,-.5 660,-.5"/>
<text text-anchor="middle" x="718" y="-7.5" font-family="Helvetica,sans-Serif" font-size="10.00" fill="#000000">AMReX_Interpolater.H</text>
</g>
<!-- Node14&#45;&gt;Node15 -->
<g id="edge20" class="edge">
<title>Node14&#45;&gt;Node15</title>
<path fill="none" stroke="#191970" d="M716.3484,-56.2455C716.6093,-48.9382 716.9752,-38.6944 717.2963,-29.7046"/>
<polygon fill="#191970" stroke="#191970" points="720.7964,-29.7613 717.6556,-19.6427 713.8008,-29.5113 720.7964,-29.7613"/>
</g>
<!-- Node16&#45;&gt;Node3 -->
<g id="edge23" class="edge">
<title>Node16&#45;&gt;Node3</title>
<path fill="none" stroke="#191970" d="M1200.6705,-56.2455C1210.5661,-47.9746 1224.9627,-35.9416 1236.5901,-26.2232"/>
<polygon fill="#191970" stroke="#191970" points="1239.035,-28.7413 1244.4632,-19.6427 1234.5458,-23.3703 1239.035,-28.7413"/>
</g>
<!-- Node16&#45;&gt;Node10 -->
<g id="edge24" class="edge">
<title>Node16&#45;&gt;Node10</title>
<path fill="none" stroke="#191970" d="M1135.549,-56.4369C1081.1937,-46.712 996.9835,-31.6456 939.3181,-21.3285"/>
<polygon fill="#191970" stroke="#191970" points="939.6906,-17.8396 929.2305,-19.5237 938.4578,-24.7302 939.6906,-17.8396"/>
</g>
<!-- Node16&#45;&gt;Node17 -->
<g id="edge25" class="edge">
<title>Node16&#45;&gt;Node17</title>
<path fill="none" stroke="#191970" d="M1216.3331,-56.3733C1242.5434,-47.1419 1282.2984,-33.1402 1311.2668,-22.9375"/>
<polygon fill="#191970" stroke="#191970" points="1312.7542,-26.1244 1321.0236,-19.5011 1310.4288,-19.5219 1312.7542,-26.1244"/>
</g>
<!-- Node18&#45;&gt;Node3 -->
<g id="edge27" class="edge">
<title>Node18&#45;&gt;Node3</title>
<path fill="none" stroke="#191970" d="M985.3508,-56.7751C1058.9858,-47.2587 1168.3812,-32.3621 1225.7327,-19.6369"/>
<polygon fill="#191970" stroke="#191970" points="1226.5339,-23.044 1235.4812,-17.3698 1224.9483,-16.2259 1226.5339,-23.044"/>
</g>
<!-- Node18&#45;&gt;Node6 -->
<g id="edge29" class="edge">
<title>Node18&#45;&gt;Node6</title>
<path fill="none" stroke="#191970" d="M857.0121,-56.4369C800.1291,-46.5442 711.4637,-31.1241 652.0929,-20.7988"/>
<polygon fill="#191970" stroke="#191970" points="652.5467,-17.3252 642.0948,-19.06 651.3472,-24.2217 652.5467,-17.3252"/>
</g>
<!-- Node18&#45;&gt;Node10 -->
<g id="edge28" class="edge">
<title>Node18&#45;&gt;Node10</title>
<path fill="none" stroke="#191970" d="M905.7293,-56.2455C900.7736,-48.5367 893.717,-37.5598 887.7224,-28.2348"/>
<polygon fill="#191970" stroke="#191970" points="890.5506,-26.1618 882.1989,-19.6427 884.6624,-29.9471 890.5506,-26.1618"/>
</g>
<!-- Node19 -->
<g id="node20" class="node">
<title>Node19</title>
<polygon fill="#ffffff" stroke="#bfbfbf" points="975.5,-.5 975.5,-19.5 1070.5,-19.5 1070.5,-.5 975.5,-.5"/>
<text text-anchor="middle" x="1023" y="-7.5" font-family="Helvetica,sans-Serif" font-size="10.00" fill="#000000">AMReX_Vector.H</text>
</g>
<!-- Node18&#45;&gt;Node19 -->
<g id="edge30" class="edge">
<title>Node18&#45;&gt;Node19</title>
<path fill="none" stroke="#191970" d="M931.0816,-56.3733C948.7402,-47.4644 975.2053,-34.1127 995.2098,-24.0203"/>
<polygon fill="#191970" stroke="#191970" points="996.8158,-27.1303 1004.1674,-19.5011 993.6628,-20.8806 996.8158,-27.1303"/>
</g>
<!-- Node20 -->
<g id="node21" class="node">
<title>Node20</title>
<polygon fill="#ffffff" stroke="#bfbfbf" points="1089,-.5 1089,-19.5 1217,-19.5 1217,-.5 1089,-.5"/>
<text text-anchor="middle" x="1153" y="-7.5" font-family="Helvetica,sans-Serif" font-size="10.00" fill="#000000">AMReX_PhysBCFunct.H</text>
</g>
<!-- Node18&#45;&gt;Node20 -->
<g id="edge31" class="edge">
<title>Node18&#45;&gt;Node20</title>
<path fill="none" stroke="#191970" d="M953.1555,-56.4369C994.3142,-46.8731 1057.705,-32.1432 1102.0242,-21.845"/>
<polygon fill="#191970" stroke="#191970" points="1103.0659,-25.1963 1112.0142,-19.5237 1101.4815,-18.3779 1103.0659,-25.1963"/>
</g>
</g>
</svg>
        <g id="navigator" transform="translate(0 0)" fill="#404254">
                <rect fill="#f2f5e9" fill-opacity="0.5" stroke="#606060" stroke-width=".5" x="0" y="0" width="60" height="60"/>
                <use id="zoomplus" xlink:href="#zoomPlus" x="17" y="9" onmousedown="handleZoom(evt,'in')"/>
                <use id="zoomminus" xlink:href="#zoomMin" x="42" y="9" onmousedown="handleZoom(evt,'out')"/>
                <use id="reset" xlink:href="#resetDef" x="30" y="36" onmousedown="handleReset()"/>
                <g id="arrowUp" xlink:href="#dirArrow" transform="translate(30 24)" onmousedown="handlePan(0,-1)">
                  <use xlink:href="#rim" fill="#404040">
                        <set attributeName="fill" to="#808080" begin="arrowUp.mouseover" end="arrowUp.mouseout"/>
                  </use>
                  <path fill="none" stroke="white" stroke-width="1.5" d="M0,-3.0v7 M-2.5,-0.5L0,-3.0L2.5,-0.5"/>
                </g>
                <g id="arrowRight" xlink:href="#dirArrow" transform="rotate(90) translate(36 -43)" onmousedown="handlePan(1,0)">
                  <use xlink:href="#rim" fill="#404040">
                        <set attributeName="fill" to="#808080" begin="arrowRight.mouseover" end="arrowRight.mouseout"/>
                  </use>
                  <path fill="none" stroke="white" stroke-width="1.5" d="M0,-3.0v7 M-2.5,-0.5L0,-3.0L2.5,-0.5"/>
                </g>
                <g id="arrowDown" xlink:href="#dirArrow" transform="rotate(180) translate(-30 -48)" onmousedown="handlePan(0,1)">
                  <use xlink:href="#rim" fill="#404040">
                        <set attributeName="fill" to="#808080" begin="arrowDown.mouseover" end="arrowDown.mouseout"/>
                  </use>
                  <path fill="none" stroke="white" stroke-width="1.5" d="M0,-3.0v7 M-2.5,-0.5L0,-3.0L2.5,-0.5"/>
                </g>
                <g id="arrowLeft" xlink:href="#dirArrow" transform="rotate(270) translate(-36 17)" onmousedown="handlePan(-1,0)">
                  <use xlink:href="#rim" fill="#404040">
                        <set attributeName="fill" to="#808080" begin="arrowLeft.mouseover" end="arrowLeft.mouseout"/>
                  </use>
                  <path fill="none" stroke="white" stroke-width="1.5" d="M0,-3.0v7 M-2.5,-0.5L0,-3.0L2.5,-0.5"/>
                </g>
        </g>
        <svg viewBox="0 0 15 15" width="100%" height="30px" preserveAspectRatio="xMaxYMin meet">
         <g id="arrow_out" transform="scale(0.3 0.3)">
          <a xlink:href="compute__gradient_8cpp__incl_org.svg" target="_base">
           <rect id="button" ry="5" rx="5" y="6" x="6" height="38" width="38"
                fill="#f2f5e9" fill-opacity="0.5" stroke="#606060" stroke-width="1.0"/>
           <path id="arrow"
             d="M 11.500037,31.436501 C 11.940474,20.09759 22.043105,11.32322 32.158766,21.979434 L 37.068811,17.246167 C 37.068811,17.246167 37.088388,32 37.088388,32 L 22.160133,31.978069 C 22.160133,31.978069 26.997745,27.140456 26.997745,27.140456 C 18.528582,18.264221 13.291696,25.230495 11.500037,31.436501 z"
             style="fill:#404040;"/>
          </a>
         </g>
        </svg>
</svg>
