<?xml version="1.0" encoding="UTF-8" standalone="no"?>
<!DOCTYPE svg PUBLIC "-//W3C//DTD SVG 1.1//EN"
 "http://www.w3.org/Graphics/SVG/1.1/DTD/svg11.dtd">
<!-- Generated by graphviz version 2.40.1 (20161225.0304)
 -->
<!-- Title: console_io.cpp Pages: 1 -->
<svg width="302pt" height="151pt"
 viewBox="0.00 0.00 302.00 151.00" xmlns="http://www.w3.org/2000/svg" xmlns:xlink="http://www.w3.org/1999/xlink">
<g id="graph0" class="graph" transform="scale(1 1) rotate(0) translate(4 147)">
<title>console_io.cpp</title>
<polygon fill="#ffffff" stroke="transparent" points="-4,4 -4,-147 298,-147 298,4 -4,4"/>
<!-- Node0 -->
<g id="node1" class="node">
<title>Node0</title>
<polygon fill="#bfbfbf" stroke="#000000" points="86,-123.5 86,-142.5 168,-142.5 168,-123.5 86,-123.5"/>
<text text-anchor="middle" x="127" y="-130.5" font-family="Helvetica,sans-Serif" font-size="10.00" fill="#000000">console_io.cpp</text>
</g>
<!-- Node1 -->
<g id="node2" class="node">
<title>Node1</title>
<polygon fill="#ffffff" stroke="#bfbfbf" points="0,-62 0,-81 46,-81 46,-62 0,-62"/>
<text text-anchor="middle" x="23" y="-69" font-family="Helvetica,sans-Serif" font-size="10.00" fill="#000000">chrono</text>
</g>
<!-- Node0&#45;&gt;Node1 -->
<g id="edge1" class="edge">
<title>Node0&#45;&gt;Node1</title>
<path fill="none" stroke="#191970" d="M110.75,-123.3906C93.8831,-113.4165 67.2901,-97.6908 47.7965,-86.1633"/>
<polygon fill="#191970" stroke="#191970" points="49.5251,-83.1194 39.1359,-81.0419 45.962,-89.1447 49.5251,-83.1194"/>
</g>
<!-- Node2 -->
<g id="node3" class="node">
<title>Node2</title>
<polygon fill="#ffffff" stroke="#bfbfbf" points="64.5,-62 64.5,-81 105.5,-81 105.5,-62 64.5,-62"/>
<text text-anchor="middle" x="85" y="-69" font-family="Helvetica,sans-Serif" font-size="10.00" fill="#000000">ctime</text>
</g>
<!-- Node0&#45;&gt;Node2 -->
<g id="edge2" class="edge">
<title>Node0&#45;&gt;Node2</title>
<path fill="none" stroke="#191970" d="M120.4375,-123.3906C114.3092,-114.417 105.0015,-100.7879 97.4628,-89.7491"/>
<polygon fill="#191970" stroke="#191970" points="100.185,-87.529 91.655,-81.2449 94.4044,-91.4768 100.185,-87.529"/>
</g>
<!-- Node3 -->
<g id="node4" class="node">
<title>Node3</title>
<g id="a_node4"><a xlink:href="console__io_8_h.html" target="_top" xlink:title="amr&#45;wind/utilities\l/console_io.H">
<polygon fill="#ffffff" stroke="#000000" points="124,-56.5 124,-86.5 214,-86.5 214,-56.5 124,-56.5"/>
<text text-anchor="start" x="132" y="-74.5" font-family="Helvetica,sans-Serif" font-size="10.00" fill="#000000">amr&#45;wind/utilities</text>
<text text-anchor="middle" x="169" y="-63.5" font-family="Helvetica,sans-Serif" font-size="10.00" fill="#000000">/console_io.H</text>
</a>
</g>
</g>
<!-- Node0&#45;&gt;Node3 -->
<g id="edge3" class="edge">
<title>Node0&#45;&gt;Node3</title>
<path fill="none" stroke="#191970" d="M133.5625,-123.3906C138.773,-115.761 146.2819,-104.7658 153.0477,-94.8588"/>
<polygon fill="#191970" stroke="#191970" points="155.9763,-96.7765 158.7256,-86.5446 150.1957,-92.8287 155.9763,-96.7765"/>
</g>
<!-- Node6 -->
<g id="node7" class="node">
<title>Node6</title>
<polygon fill="#ffffff" stroke="#bfbfbf" points="232,-62 232,-81 294,-81 294,-62 232,-62"/>
<text text-anchor="middle" x="263" y="-69" font-family="Helvetica,sans-Serif" font-size="10.00" fill="#000000">AMReX.H</text>
</g>
<!-- Node0&#45;&gt;Node6 -->
<g id="edge6" class="edge">
<title>Node0&#45;&gt;Node6</title>
<path fill="none" stroke="#191970" d="M148.25,-123.3906C170.9055,-113.1457 206.9798,-96.8326 232.6291,-85.2339"/>
<polygon fill="#191970" stroke="#191970" points="234.2297,-88.3514 241.8992,-81.0419 231.3454,-81.9732 234.2297,-88.3514"/>
</g>
<!-- Node4 -->
<g id="node5" class="node">
<title>Node4</title>
<polygon fill="#ffffff" stroke="#bfbfbf" points="95,-.5 95,-19.5 149,-19.5 149,-.5 95,-.5"/>
<text text-anchor="middle" x="122" y="-7.5" font-family="Helvetica,sans-Serif" font-size="10.00" fill="#000000">iostream</text>
</g>
<!-- Node3&#45;&gt;Node4 -->
<g id="edge4" class="edge">
<title>Node3&#45;&gt;Node4</title>
<path fill="none" stroke="#191970" d="M157.382,-56.2977C150.79,-47.672 142.5052,-36.8312 135.6099,-27.8087"/>
<polygon fill="#191970" stroke="#191970" points="138.3783,-25.6671 129.5253,-19.8469 132.8165,-29.9176 138.3783,-25.6671"/>
</g>
<!-- Node5 -->
<g id="node6" class="node">
<title>Node5</title>
<polygon fill="#ffffff" stroke="#bfbfbf" points="167,-.5 167,-19.5 263,-19.5 263,-.5 167,-.5"/>
<text text-anchor="middle" x="215" y="-7.5" font-family="Helvetica,sans-Serif" font-size="10.00" fill="#000000">AMReX_MLMG.H</text>
</g>
<!-- Node3&#45;&gt;Node5 -->
<g id="edge5" class="edge">
<title>Node3&#45;&gt;Node5</title>
<path fill="none" stroke="#191970" d="M180.3708,-56.2977C186.7561,-47.7609 194.7641,-37.0545 201.4705,-28.0883"/>
<polygon fill="#191970" stroke="#191970" points="204.4479,-29.9511 207.6348,-19.8469 198.8425,-25.7584 204.4479,-29.9511"/>
</g>
</g>
</svg>
