<?xml version="1.0" encoding="UTF-8" standalone="no"?>
<!DOCTYPE svg PUBLIC "-//W3C//DTD SVG 1.1//EN"
 "http://www.w3.org/Graphics/SVG/1.1/DTD/svg11.dtd">
<!-- Generated by graphviz version 2.40.1 (20161225.0304)
 -->
<!-- Title: derive.cpp Pages: 1 -->
<svg width="2206pt" height="341pt"
 viewBox="0.00 0.00 2206.12 341.00" xmlns="http://www.w3.org/2000/svg" xmlns:xlink="http://www.w3.org/1999/xlink">
<g id="graph0" class="graph" transform="scale(1 1) rotate(0) translate(4 337)">
<title>derive.cpp</title>
<polygon fill="#ffffff" stroke="transparent" points="-4,4 -4,-337 2202.1182,-337 2202.1182,4 -4,4"/>
<!-- Node0 -->
<g id="node1" class="node">
<title>Node0</title>
<polygon fill="#bfbfbf" stroke="#000000" points="1285.6182,-313.5 1285.6182,-332.5 1347.6182,-332.5 1347.6182,-313.5 1285.6182,-313.5"/>
<text text-anchor="middle" x="1316.6182" y="-320.5" font-family="Helvetica,sans-Serif" font-size="10.00" fill="#000000">derive.cpp</text>
</g>
<!-- Node1 -->
<g id="node2" class="node">
<title>Node1</title>
<polygon fill="#ffffff" stroke="#bfbfbf" points="1168.6182,-257.5 1168.6182,-276.5 1252.6182,-276.5 1252.6182,-257.5 1168.6182,-257.5"/>
<text text-anchor="middle" x="1210.6182" y="-264.5" font-family="Helvetica,sans-Serif" font-size="10.00" fill="#000000">AMReX_Box.H</text>
</g>
<!-- Node0&#45;&gt;Node1 -->
<g id="edge1" class="edge">
<title>Node0&#45;&gt;Node1</title>
<path fill="none" stroke="#191970" d="M1298.1544,-313.2455C1281.5108,-304.4527 1256.8189,-291.4079 1237.899,-281.4125"/>
<polygon fill="#191970" stroke="#191970" points="1239.3473,-278.2193 1228.8704,-276.6427 1236.0774,-284.4086 1239.3473,-278.2193"/>
</g>
<!-- Node2 -->
<g id="node3" class="node">
<title>Node2</title>
<g id="a_node3"><a xlink:href="incflo_8_h.html" target="_top" xlink:title="amr&#45;wind/incflo.H">
<polygon fill="#ffffff" stroke="#000000" points="1270.1182,-257.5 1270.1182,-276.5 1363.1182,-276.5 1363.1182,-257.5 1270.1182,-257.5"/>
<text text-anchor="middle" x="1316.6182" y="-264.5" font-family="Helvetica,sans-Serif" font-size="10.00" fill="#000000">amr&#45;wind/incflo.H</text>
</a>
</g>
</g>
<!-- Node0&#45;&gt;Node2 -->
<g id="edge2" class="edge">
<title>Node0&#45;&gt;Node2</title>
<path fill="none" stroke="#191970" d="M1316.6182,-313.2455C1316.6182,-305.9382 1316.6182,-295.6944 1316.6182,-286.7046"/>
<polygon fill="#191970" stroke="#191970" points="1320.1183,-286.6426 1316.6182,-276.6427 1313.1183,-286.6427 1320.1183,-286.6426"/>
</g>
<!-- Node7 -->
<g id="node8" class="node">
<title>Node7</title>
<polygon fill="#ffffff" stroke="#bfbfbf" points="2067.1182,-196 2067.1182,-215 2198.1182,-215 2198.1182,-196 2067.1182,-196"/>
<text text-anchor="middle" x="2132.6182" y="-203" font-family="Helvetica,sans-Serif" font-size="10.00" fill="#000000">AMReX_NodalProjector.H</text>
</g>
<!-- Node0&#45;&gt;Node7 -->
<g id="edge70" class="edge">
<title>Node0&#45;&gt;Node7</title>
<path fill="none" stroke="#191970" d="M1347.9154,-319.2729C1449.7237,-307.0187 1780.6072,-266.1662 2052.6182,-221 2060.0902,-219.7593 2067.9359,-218.3596 2075.6722,-216.9217"/>
<polygon fill="#191970" stroke="#191970" points="2076.5625,-220.3155 2085.7387,-215.0196 2075.2627,-213.4372 2076.5625,-220.3155"/>
</g>
<!-- Node3 -->
<g id="node4" class="node">
<title>Node3</title>
<polygon fill="#ffffff" stroke="#bfbfbf" points="1085.6182,-62 1085.6182,-81 1191.6182,-81 1191.6182,-62 1085.6182,-62"/>
<text text-anchor="middle" x="1138.6182" y="-69" font-family="Helvetica,sans-Serif" font-size="10.00" fill="#000000">AMReX_AmrCore.H</text>
</g>
<!-- Node2&#45;&gt;Node3 -->
<g id="edge3" class="edge">
<title>Node2&#45;&gt;Node3</title>
<path fill="none" stroke="#191970" d="M1269.8882,-257.4891C1213.6981,-245.8317 1126.2867,-226.8979 1121.6182,-221 1091.4666,-182.9081 1114.0954,-121.2614 1128.7306,-90.387"/>
<polygon fill="#191970" stroke="#191970" points="1131.9919,-91.6886 1133.2996,-81.1748 1125.7208,-88.5783 1131.9919,-91.6886"/>
</g>
<!-- Node4 -->
<g id="node5" class="node">
<title>Node4</title>
<polygon fill="#ffffff" stroke="#bfbfbf" points="1257.1182,-196 1257.1182,-215 1376.1182,-215 1376.1182,-196 1257.1182,-196"/>
<text text-anchor="middle" x="1316.6182" y="-203" font-family="Helvetica,sans-Serif" font-size="10.00" fill="#000000">AMReX_MultiFabUtil.H</text>
</g>
<!-- Node2&#45;&gt;Node4 -->
<g id="edge4" class="edge">
<title>Node2&#45;&gt;Node4</title>
<path fill="none" stroke="#191970" d="M1316.6182,-257.3906C1316.6182,-248.8657 1316.6182,-236.1392 1316.6182,-225.4235"/>
<polygon fill="#191970" stroke="#191970" points="1320.1183,-225.2448 1316.6182,-215.2449 1313.1183,-225.2449 1320.1183,-225.2448"/>
</g>
<!-- Node5 -->
<g id="node6" class="node">
<title>Node5</title>
<polygon fill="#ffffff" stroke="#bfbfbf" points="1394.6182,-196 1394.6182,-215 1510.6182,-215 1510.6182,-196 1394.6182,-196"/>
<text text-anchor="middle" x="1452.6182" y="-203" font-family="Helvetica,sans-Serif" font-size="10.00" fill="#000000">AMReX_ParmParse.H</text>
</g>
<!-- Node2&#45;&gt;Node5 -->
<g id="edge5" class="edge">
<title>Node2&#45;&gt;Node5</title>
<path fill="none" stroke="#191970" d="M1337.8682,-257.3906C1360.5237,-247.1457 1396.5981,-230.8326 1422.2473,-219.2339"/>
<polygon fill="#191970" stroke="#191970" points="1423.8479,-222.3514 1431.5174,-215.0419 1420.9636,-215.9732 1423.8479,-222.3514"/>
</g>
<!-- Node6 -->
<g id="node7" class="node">
<title>Node6</title>
<polygon fill="#ffffff" stroke="#bfbfbf" points="325.1182,-.5 325.1182,-19.5 432.1182,-19.5 432.1182,-.5 325.1182,-.5"/>
<text text-anchor="middle" x="378.6182" y="-7.5" font-family="Helvetica,sans-Serif" font-size="10.00" fill="#000000">AMReX_iMultiFab.H</text>
</g>
<!-- Node2&#45;&gt;Node6 -->
<g id="edge6" class="edge">
<title>Node2&#45;&gt;Node6</title>
<path fill="none" stroke="#191970" d="M1269.8625,-258.1526C1267.0776,-257.7333 1264.3137,-257.3445 1261.6182,-257 1048.0932,-229.7084 992.7748,-242.7882 778.6182,-221 432.1652,-185.7521 219.0173,-362.9687 6.6182,-87 -1.7851,-76.0816 -2.5068,-66.3229 6.6182,-56 26.645,-33.3443 213.6861,-19.3383 314.6659,-13.3645"/>
<polygon fill="#191970" stroke="#191970" points="314.9753,-16.8525 324.7551,-12.7774 314.5686,-9.8644 314.9753,-16.8525"/>
</g>
<!-- Node2&#45;&gt;Node7 -->
<g id="edge7" class="edge">
<title>Node2&#45;&gt;Node7</title>
<path fill="none" stroke="#191970" d="M1363.315,-266.1686C1480.0017,-263.6386 1793.543,-254.0539 2052.6182,-221 2061.0909,-219.919 2070.0168,-218.4858 2078.711,-216.9266"/>
<polygon fill="#191970" stroke="#191970" points="2079.5802,-220.325 2088.7696,-215.0519 2078.2976,-213.4435 2079.5802,-220.325"/>
</g>
<!-- Node8 -->
<g id="node9" class="node">
<title>Node8</title>
<g id="a_node9"><a xlink:href="incflo__enums_8_h.html" target="_top" xlink:title="amr&#45;wind/incflo_enums.H">
<polygon fill="#ffffff" stroke="#000000" points="1665.6182,-.5 1665.6182,-19.5 1793.6182,-19.5 1793.6182,-.5 1665.6182,-.5"/>
<text text-anchor="middle" x="1729.6182" y="-7.5" font-family="Helvetica,sans-Serif" font-size="10.00" fill="#000000">amr&#45;wind/incflo_enums.H</text>
</a>
</g>
</g>
<!-- Node2&#45;&gt;Node8 -->
<g id="edge8" class="edge">
<title>Node2&#45;&gt;Node8</title>
<path fill="none" stroke="#191970" d="M1363.1585,-262.7209C1507.4507,-248.3628 1942.2437,-196.5215 2019.6182,-87 2027.5681,-75.7472 2028.565,-66.4777 2019.6182,-56 2016.0894,-51.8673 1888.5254,-32.8212 1803.7759,-20.5692"/>
<polygon fill="#191970" stroke="#191970" points="1804.0614,-17.0742 1793.664,-19.1101 1803.0616,-24.0024 1804.0614,-17.0742"/>
</g>
<!-- Node9 -->
<g id="node10" class="node">
<title>Node9</title>
<g id="a_node10"><a xlink:href="_c_f_d_sim_8_h.html" target="_top" xlink:title="amr&#45;wind/CFDSim.H">
<polygon fill="#ffffff" stroke="#000000" points="1130.6182,-196 1130.6182,-215 1238.6182,-215 1238.6182,-196 1130.6182,-196"/>
<text text-anchor="middle" x="1184.6182" y="-203" font-family="Helvetica,sans-Serif" font-size="10.00" fill="#000000">amr&#45;wind/CFDSim.H</text>
</a>
</g>
</g>
<!-- Node2&#45;&gt;Node9 -->
<g id="edge9" class="edge">
<title>Node2&#45;&gt;Node9</title>
<path fill="none" stroke="#191970" d="M1295.9932,-257.3906C1274.1009,-247.1908 1239.299,-230.9763 1214.4255,-219.3875"/>
<polygon fill="#191970" stroke="#191970" points="1215.641,-216.0926 1205.0984,-215.0419 1212.6847,-222.4377 1215.641,-216.0926"/>
</g>
<!-- Node10 -->
<g id="node11" class="node">
<title>Node10</title>
<g id="a_node11"><a xlink:href="_sim_time_8_h.html" target="_top" xlink:title="amr&#45;wind/core/SimTime.H">
<polygon fill="#ffffff" stroke="#000000" points="269.1182,-129 269.1182,-148 400.1182,-148 400.1182,-129 269.1182,-129"/>
<text text-anchor="middle" x="334.6182" y="-136" font-family="Helvetica,sans-Serif" font-size="10.00" fill="#000000">amr&#45;wind/core/SimTime.H</text>
</a>
</g>
</g>
<!-- Node2&#45;&gt;Node10 -->
<g id="edge67" class="edge">
<title>Node2&#45;&gt;Node10</title>
<path fill="none" stroke="#191970" d="M1269.8387,-258.3214C1267.0597,-257.8597 1264.3037,-257.4155 1261.6182,-257 946.4561,-208.2397 568.767,-164.4972 410.3667,-146.8127"/>
<polygon fill="#191970" stroke="#191970" points="410.5794,-143.3149 400.2533,-145.6858 409.8042,-150.2718 410.5794,-143.3149"/>
</g>
<!-- Node14 -->
<g id="node15" class="node">
<title>Node14</title>
<g id="a_node15"><a xlink:href="_field_repo_8_h.html" target="_top" xlink:title="amr&#45;wind/core/FieldRepo.H">
<polygon fill="#ffffff" stroke="#000000" points="906.6182,-129 906.6182,-148 1042.6182,-148 1042.6182,-129 906.6182,-129"/>
<text text-anchor="middle" x="974.6182" y="-136" font-family="Helvetica,sans-Serif" font-size="10.00" fill="#000000">amr&#45;wind/core/FieldRepo.H</text>
</a>
</g>
</g>
<!-- Node2&#45;&gt;Node14 -->
<g id="edge68" class="edge">
<title>Node2&#45;&gt;Node14</title>
<path fill="none" stroke="#191970" d="M1269.9299,-258.1055C1205.6729,-245.7877 1096.9178,-224.6345 1088.6182,-221 1050.8836,-204.4752 1013.4006,-173.9276 992.2082,-154.9987"/>
<polygon fill="#191970" stroke="#191970" points="994.4187,-152.2779 984.6675,-148.1348 989.7067,-157.4546 994.4187,-152.2779"/>
</g>
<!-- Node39 -->
<g id="node40" class="node">
<title>Node39</title>
<g id="a_node40"><a xlink:href="incflo__prob___i_8_h.html" target="_top" xlink:title="amr&#45;wind/prob/incflo\l_prob_I.H">
<polygon fill="#ffffff" stroke="#000000" points="1528.6182,-190.5 1528.6182,-220.5 1632.6182,-220.5 1632.6182,-190.5 1528.6182,-190.5"/>
<text text-anchor="start" x="1536.6182" y="-208.5" font-family="Helvetica,sans-Serif" font-size="10.00" fill="#000000">amr&#45;wind/prob/incflo</text>
<text text-anchor="middle" x="1580.6182" y="-197.5" font-family="Helvetica,sans-Serif" font-size="10.00" fill="#000000">_prob_I.H</text>
</a>
</g>
</g>
<!-- Node2&#45;&gt;Node39 -->
<g id="edge69" class="edge">
<title>Node2&#45;&gt;Node39</title>
<path fill="none" stroke="#191970" d="M1360.2535,-257.4561C1399.2437,-248.8511 1458.1816,-235.6553 1518.3415,-221.2762"/>
<polygon fill="#191970" stroke="#191970" points="1519.4891,-224.6003 1528.3969,-218.8643 1517.8564,-217.7933 1519.4891,-224.6003"/>
</g>
<!-- Node9&#45;&gt;Node3 -->
<g id="edge10" class="edge">
<title>Node9&#45;&gt;Node3</title>
<path fill="none" stroke="#191970" d="M1181.31,-195.8631C1173.7841,-173.9398 1155.2626,-119.9858 1145.2685,-90.8727"/>
<polygon fill="#191970" stroke="#191970" points="1148.4538,-89.3714 1141.8965,-81.0496 1141.833,-91.6443 1148.4538,-89.3714"/>
</g>
<!-- Node9&#45;&gt;Node10 -->
<g id="edge11" class="edge">
<title>Node9&#45;&gt;Node10</title>
<path fill="none" stroke="#191970" d="M1130.4784,-201.2325C983.9109,-189.6795 579.0913,-157.7702 410.179,-144.456"/>
<polygon fill="#191970" stroke="#191970" points="410.3708,-140.9603 400.1267,-143.6636 409.8207,-147.9387 410.3708,-140.9603"/>
</g>
<!-- Node9&#45;&gt;Node14 -->
<g id="edge15" class="edge">
<title>Node9&#45;&gt;Node14</title>
<path fill="none" stroke="#191970" d="M1154.5303,-195.9005C1117.6502,-184.134 1055.0424,-164.1591 1014.265,-151.1492"/>
<polygon fill="#191970" stroke="#191970" points="1015.241,-147.7868 1004.6503,-148.0817 1013.1133,-154.4557 1015.241,-147.7868"/>
</g>
<!-- Node29 -->
<g id="node30" class="node">
<title>Node29</title>
<g id="a_node30"><a xlink:href="_p_d_e_base_8_h.html" target="_top" xlink:title="amr&#45;wind/equation_systems\l/PDEBase.H">
<polygon fill="#ffffff" stroke="#000000" points="1336.1182,-123.5 1336.1182,-153.5 1475.1182,-153.5 1475.1182,-123.5 1336.1182,-123.5"/>
<text text-anchor="start" x="1344.1182" y="-141.5" font-family="Helvetica,sans-Serif" font-size="10.00" fill="#000000">amr&#45;wind/equation_systems</text>
<text text-anchor="middle" x="1405.6182" y="-130.5" font-family="Helvetica,sans-Serif" font-size="10.00" fill="#000000">/PDEBase.H</text>
</a>
</g>
</g>
<!-- Node9&#45;&gt;Node29 -->
<g id="edge45" class="edge">
<title>Node9&#45;&gt;Node29</title>
<path fill="none" stroke="#191970" d="M1216.2821,-195.9005C1250.0934,-185.6501 1304.4525,-169.1702 1346.2703,-156.4924"/>
<polygon fill="#191970" stroke="#191970" points="1347.5144,-159.7726 1356.0688,-153.5218 1345.4835,-153.0736 1347.5144,-159.7726"/>
</g>
<!-- Node37 -->
<g id="node38" class="node">
<title>Node37</title>
<g id="a_node38"><a xlink:href="_physics_8_h.html" target="_top" xlink:title="amr&#45;wind/core/Physics.H">
<polygon fill="#ffffff" stroke="#000000" points="1493.1182,-129 1493.1182,-148 1620.1182,-148 1620.1182,-129 1493.1182,-129"/>
<text text-anchor="middle" x="1556.6182" y="-136" font-family="Helvetica,sans-Serif" font-size="10.00" fill="#000000">amr&#45;wind/core/Physics.H</text>
</a>
</g>
</g>
<!-- Node9&#45;&gt;Node37 -->
<g id="edge62" class="edge">
<title>Node9&#45;&gt;Node37</title>
<path fill="none" stroke="#191970" d="M1221.1387,-195.9254C1229.7868,-193.822 1239.0013,-191.7136 1247.6182,-190 1351.6826,-169.3048 1379.2359,-173.0266 1483.6182,-154 1490.2124,-152.798 1497.1226,-151.4489 1503.9518,-150.0611"/>
<polygon fill="#191970" stroke="#191970" points="1504.7697,-153.4661 1513.8533,-148.0128 1503.3516,-146.6112 1504.7697,-153.4661"/>
</g>
<!-- Node11 -->
<g id="node12" class="node">
<title>Node11</title>
<polygon fill="#ffffff" stroke="#bfbfbf" points="288.1182,-62 288.1182,-81 381.1182,-81 381.1182,-62 288.1182,-62"/>
<text text-anchor="middle" x="334.6182" y="-69" font-family="Helvetica,sans-Serif" font-size="10.00" fill="#000000">AMReX_REAL.H</text>
</g>
<!-- Node10&#45;&gt;Node11 -->
<g id="edge12" class="edge">
<title>Node10&#45;&gt;Node11</title>
<path fill="none" stroke="#191970" d="M334.6182,-128.9005C334.6182,-119.149 334.6182,-103.7597 334.6182,-91.3695"/>
<polygon fill="#191970" stroke="#191970" points="338.1183,-91.0816 334.6182,-81.0817 331.1183,-91.0817 338.1183,-91.0816"/>
</g>
<!-- Node12 -->
<g id="node13" class="node">
<title>Node12</title>
<polygon fill="#ffffff" stroke="#bfbfbf" points="15.6182,-62 15.6182,-81 141.6182,-81 141.6182,-62 15.6182,-62"/>
<text text-anchor="middle" x="78.6182" y="-69" font-family="Helvetica,sans-Serif" font-size="10.00" fill="#000000">AMReX_GpuQualifiers.H</text>
</g>
<!-- Node10&#45;&gt;Node12 -->
<g id="edge13" class="edge">
<title>Node10&#45;&gt;Node12</title>
<path fill="none" stroke="#191970" d="M298.2115,-128.9717C252.7529,-117.0743 174.9273,-96.7059 125.1768,-83.6852"/>
<polygon fill="#191970" stroke="#191970" points="125.8742,-80.2499 115.3138,-81.1039 124.1018,-87.0219 125.8742,-80.2499"/>
</g>
<!-- Node13 -->
<g id="node14" class="node">
<title>Node13</title>
<polygon fill="#ffffff" stroke="#bfbfbf" points="159.6182,-62 159.6182,-81 269.6182,-81 269.6182,-62 159.6182,-62"/>
<text text-anchor="middle" x="214.6182" y="-69" font-family="Helvetica,sans-Serif" font-size="10.00" fill="#000000">AMReX_Extension.H</text>
</g>
<!-- Node10&#45;&gt;Node13 -->
<g id="edge14" class="edge">
<title>Node10&#45;&gt;Node13</title>
<path fill="none" stroke="#191970" d="M317.4252,-128.9005C297.3756,-117.7062 264.0194,-99.0823 240.758,-86.0947"/>
<polygon fill="#191970" stroke="#191970" points="242.2169,-82.9007 231.7794,-81.0817 238.8044,-89.0126 242.2169,-82.9007"/>
</g>
<!-- Node14&#45;&gt;Node3 -->
<g id="edge42" class="edge">
<title>Node14&#45;&gt;Node3</title>
<path fill="none" stroke="#191970" d="M998.1154,-128.9005C1026.369,-117.3579 1073.9574,-97.9163 1105.8199,-84.8993"/>
<polygon fill="#191970" stroke="#191970" points="1107.231,-88.1037 1115.1646,-81.0817 1104.5836,-81.6236 1107.231,-88.1037"/>
</g>
<!-- Node14&#45;&gt;Node6 -->
<g id="edge44" class="edge">
<title>Node14&#45;&gt;Node6</title>
<path fill="none" stroke="#191970" d="M906.5902,-135.3862C769.289,-128.6262 468.6537,-111.2419 428.6182,-87 406.8617,-73.8262 392.8013,-47.1586 385.2958,-28.9376"/>
<polygon fill="#191970" stroke="#191970" points="388.5584,-27.6704 381.7091,-19.5872 382.0227,-30.1774 388.5584,-27.6704"/>
</g>
<!-- Node15 -->
<g id="node16" class="node">
<title>Node15</title>
<polygon fill="#ffffff" stroke="#bfbfbf" points="1038.1182,-.5 1038.1182,-19.5 1079.1182,-19.5 1079.1182,-.5 1038.1182,-.5"/>
<text text-anchor="middle" x="1058.6182" y="-7.5" font-family="Helvetica,sans-Serif" font-size="10.00" fill="#000000">string</text>
</g>
<!-- Node14&#45;&gt;Node15 -->
<g id="edge16" class="edge">
<title>Node14&#45;&gt;Node15</title>
<path fill="none" stroke="#191970" d="M991.8987,-128.9222C1006.4968,-119.9495 1026.8534,-105.2076 1038.6182,-87 1049.8244,-69.657 1054.7629,-46.3102 1056.9324,-29.8864"/>
<polygon fill="#191970" stroke="#191970" points="1060.4296,-30.1017 1058.035,-19.7811 1053.4709,-29.3424 1060.4296,-30.1017"/>
</g>
<!-- Node16 -->
<g id="node17" class="node">
<title>Node16</title>
<polygon fill="#ffffff" stroke="#bfbfbf" points="1430.1182,-.5 1430.1182,-19.5 1513.1182,-19.5 1513.1182,-.5 1430.1182,-.5"/>
<text text-anchor="middle" x="1471.6182" y="-7.5" font-family="Helvetica,sans-Serif" font-size="10.00" fill="#000000">unordered_map</text>
</g>
<!-- Node14&#45;&gt;Node16 -->
<g id="edge17" class="edge">
<title>Node14&#45;&gt;Node16</title>
<path fill="none" stroke="#191970" d="M1042.8298,-134.0259C1139.8289,-126.9167 1312.226,-111.3075 1369.6182,-87 1390.007,-78.3647 1391.0066,-69.4202 1408.6182,-56 1422.1402,-45.6961 1437.5493,-34.4367 1449.7435,-25.6364"/>
<polygon fill="#191970" stroke="#191970" points="1451.9065,-28.392 1457.9816,-19.7119 1447.8195,-22.709 1451.9065,-28.392"/>
</g>
<!-- Node17 -->
<g id="node18" class="node">
<title>Node17</title>
<g id="a_node18"><a xlink:href="_field_desc_types_8_h.html" target="_top" xlink:title="amr&#45;wind/core/FieldDescTypes.H">
<polygon fill="#ffffff" stroke="#000000" points="588.1182,-.5 588.1182,-19.5 751.1182,-19.5 751.1182,-.5 588.1182,-.5"/>
<text text-anchor="middle" x="669.6182" y="-7.5" font-family="Helvetica,sans-Serif" font-size="10.00" fill="#000000">amr&#45;wind/core/FieldDescTypes.H</text>
</a>
</g>
</g>
<!-- Node14&#45;&gt;Node17 -->
<g id="edge18" class="edge">
<title>Node14&#45;&gt;Node17</title>
<path fill="none" stroke="#191970" d="M942.108,-128.93C910.9964,-119.435 862.969,-103.8923 822.6182,-87 776.8283,-67.8307 725.6984,-40.9199 695.6633,-24.5149"/>
<polygon fill="#191970" stroke="#191970" points="697.1358,-21.3304 686.6864,-19.5809 693.764,-27.4649 697.1358,-21.3304"/>
</g>
<!-- Node18 -->
<g id="node19" class="node">
<title>Node18</title>
<g id="a_node19"><a xlink:href="_field_utils_8_h.html" target="_top" xlink:title="amr&#45;wind/core/FieldUtils.H">
<polygon fill="#ffffff" stroke="#000000" points="438.1182,-62 438.1182,-81 571.1182,-81 571.1182,-62 438.1182,-62"/>
<text text-anchor="middle" x="504.6182" y="-69" font-family="Helvetica,sans-Serif" font-size="10.00" fill="#000000">amr&#45;wind/core/FieldUtils.H</text>
</a>
</g>
</g>
<!-- Node14&#45;&gt;Node18 -->
<g id="edge19" class="edge">
<title>Node14&#45;&gt;Node18</title>
<path fill="none" stroke="#191970" d="M906.4218,-131.0796C827.6917,-122.1672 694.417,-106.017 580.6182,-87 573.4958,-85.8098 566.0225,-84.4381 558.6579,-83.0131"/>
<polygon fill="#191970" stroke="#191970" points="559.2147,-79.5555 548.7256,-81.0491 557.8567,-86.4226 559.2147,-79.5555"/>
</g>
<!-- Node19 -->
<g id="node20" class="node">
<title>Node19</title>
<polygon fill="#ffffff" stroke="#bfbfbf" points="769.6182,-.5 769.6182,-19.5 873.6182,-19.5 873.6182,-.5 769.6182,-.5"/>
<text text-anchor="middle" x="821.6182" y="-7.5" font-family="Helvetica,sans-Serif" font-size="10.00" fill="#000000">AMReX_MultiFab.H</text>
</g>
<!-- Node14&#45;&gt;Node19 -->
<g id="edge43" class="edge">
<title>Node14&#45;&gt;Node19</title>
<path fill="none" stroke="#191970" d="M917.956,-128.9416C891.3349,-121.6763 861.2182,-109.0012 841.6182,-87 827.5251,-71.1802 823.1404,-46.672 821.8895,-29.5679"/>
<polygon fill="#191970" stroke="#191970" points="825.3856,-29.3996 821.4495,-19.5631 818.3924,-29.7072 825.3856,-29.3996"/>
</g>
<!-- Node21 -->
<g id="node22" class="node">
<title>Node21</title>
<g id="a_node22"><a xlink:href="_field_8_h.html" target="_top" xlink:title="amr&#45;wind/core/Field.H">
<polygon fill="#ffffff" stroke="#000000" points="1248.1182,-62 1248.1182,-81 1361.1182,-81 1361.1182,-62 1248.1182,-62"/>
<text text-anchor="middle" x="1304.6182" y="-69" font-family="Helvetica,sans-Serif" font-size="10.00" fill="#000000">amr&#45;wind/core/Field.H</text>
</a>
</g>
</g>
<!-- Node14&#45;&gt;Node21 -->
<g id="edge23" class="edge">
<title>Node14&#45;&gt;Node21</title>
<path fill="none" stroke="#191970" d="M1021.5487,-128.9717C1081.0886,-116.8833 1183.7019,-96.0497 1247.662,-83.0638"/>
<polygon fill="#191970" stroke="#191970" points="1248.4791,-86.4694 1257.5828,-81.0496 1247.0863,-79.6094 1248.4791,-86.4694"/>
</g>
<!-- Node25 -->
<g id="node26" class="node">
<title>Node25</title>
<g id="a_node26"><a xlink:href="_int_field_8_h.html" target="_top" xlink:title="amr&#45;wind/core/IntField.H">
<polygon fill="#ffffff" stroke="#000000" points="589.6182,-62 589.6182,-81 713.6182,-81 713.6182,-62 589.6182,-62"/>
<text text-anchor="middle" x="651.6182" y="-69" font-family="Helvetica,sans-Serif" font-size="10.00" fill="#000000">amr&#45;wind/core/IntField.H</text>
</a>
</g>
</g>
<!-- Node14&#45;&gt;Node25 -->
<g id="edge32" class="edge">
<title>Node14&#45;&gt;Node25</title>
<path fill="none" stroke="#191970" d="M928.6832,-128.9717C870.5262,-116.9082 770.3828,-96.1354 707.7533,-83.1441"/>
<polygon fill="#191970" stroke="#191970" points="708.1584,-79.6537 697.656,-81.0496 706.7366,-86.5078 708.1584,-79.6537"/>
</g>
<!-- Node26 -->
<g id="node27" class="node">
<title>Node26</title>
<g id="a_node27"><a xlink:href="_scratch_field_8_h.html" target="_top" xlink:title="amr&#45;wind/core/ScratchField.H">
<polygon fill="#ffffff" stroke="#000000" points="883.6182,-62 883.6182,-81 1029.6182,-81 1029.6182,-62 883.6182,-62"/>
<text text-anchor="middle" x="956.6182" y="-69" font-family="Helvetica,sans-Serif" font-size="10.00" fill="#000000">amr&#45;wind/core/ScratchField.H</text>
</a>
</g>
</g>
<!-- Node14&#45;&gt;Node26 -->
<g id="edge36" class="edge">
<title>Node14&#45;&gt;Node26</title>
<path fill="none" stroke="#191970" d="M972.0393,-128.9005C969.3927,-119.0495 965.2005,-103.4451 961.8547,-90.9912"/>
<polygon fill="#191970" stroke="#191970" points="965.1672,-89.8311 959.1924,-81.0817 958.4069,-91.6473 965.1672,-89.8311"/>
</g>
<!-- Node18&#45;&gt;Node17 -->
<g id="edge20" class="edge">
<title>Node18&#45;&gt;Node17</title>
<path fill="none" stroke="#191970" d="M530.3995,-61.8906C558.3703,-51.4652 603.2001,-34.7559 634.4042,-23.1252"/>
<polygon fill="#191970" stroke="#191970" points="635.8702,-26.3141 644.018,-19.5419 633.4253,-19.7549 635.8702,-26.3141"/>
</g>
<!-- Node18&#45;&gt;Node19 -->
<g id="edge21" class="edge">
<title>Node18&#45;&gt;Node19</title>
<path fill="none" stroke="#191970" d="M550.8186,-61.9808C560.6503,-59.9822 570.9741,-57.9038 580.6182,-56 641.8704,-43.9087 711.9866,-30.5836 760.7369,-21.4013"/>
<polygon fill="#191970" stroke="#191970" points="761.6243,-24.7958 770.8045,-19.5067 760.3297,-17.9165 761.6243,-24.7958"/>
</g>
<!-- Node20 -->
<g id="node21" class="node">
<title>Node20</title>
<polygon fill="#ffffff" stroke="#bfbfbf" points="450.6182,-.5 450.6182,-19.5 566.6182,-19.5 566.6182,-.5 450.6182,-.5"/>
<text text-anchor="middle" x="508.6182" y="-7.5" font-family="Helvetica,sans-Serif" font-size="10.00" fill="#000000">AMReX_Interpolater.H</text>
</g>
<!-- Node18&#45;&gt;Node20 -->
<g id="edge22" class="edge">
<title>Node18&#45;&gt;Node20</title>
<path fill="none" stroke="#191970" d="M505.2432,-61.8906C505.7977,-53.3657 506.6254,-40.6392 507.3224,-29.9235"/>
<polygon fill="#191970" stroke="#191970" points="510.8279,-29.951 507.9844,-19.7449 503.8427,-29.4966 510.8279,-29.951"/>
</g>
<!-- Node21&#45;&gt;Node8 -->
<g id="edge30" class="edge">
<title>Node21&#45;&gt;Node8</title>
<path fill="none" stroke="#191970" d="M1361.2842,-62.9956C1376.6413,-60.7069 1393.2646,-58.2442 1408.6182,-56 1493.0903,-43.6528 1590.1171,-29.7934 1655.1875,-20.5453"/>
<polygon fill="#191970" stroke="#191970" points="1655.9414,-23.9735 1665.3497,-19.1016 1654.9568,-17.0431 1655.9414,-23.9735"/>
</g>
<!-- Node21&#45;&gt;Node15 -->
<g id="edge24" class="edge">
<title>Node21&#45;&gt;Node15</title>
<path fill="none" stroke="#191970" d="M1262.0462,-61.924C1212.5589,-50.7074 1132.9302,-32.3764 1088.9811,-20.1669"/>
<polygon fill="#191970" stroke="#191970" points="1089.7095,-16.7351 1079.1329,-17.3553 1087.7878,-23.4662 1089.7095,-16.7351"/>
</g>
<!-- Node21&#45;&gt;Node16 -->
<g id="edge26" class="edge">
<title>Node21&#45;&gt;Node16</title>
<path fill="none" stroke="#191970" d="M1330.712,-61.8906C1359.0218,-51.4652 1404.395,-34.7559 1435.9774,-23.1252"/>
<polygon fill="#191970" stroke="#191970" points="1437.5333,-26.2821 1445.7077,-19.5419 1435.1143,-19.7133 1437.5333,-26.2821"/>
</g>
<!-- Node21&#45;&gt;Node17 -->
<g id="edge31" class="edge">
<title>Node21&#45;&gt;Node17</title>
<path fill="none" stroke="#191970" d="M1248.034,-62.3706C1232.6766,-60.0832 1216.0328,-57.7773 1200.6182,-56 1008.9365,-33.8991 957.6248,-38.5533 761.5168,-20.0589"/>
<polygon fill="#191970" stroke="#191970" points="761.7462,-16.565 751.4597,-19.1022 761.0833,-23.5335 761.7462,-16.565"/>
</g>
<!-- Node21&#45;&gt;Node19 -->
<g id="edge27" class="edge">
<title>Node21&#45;&gt;Node19</title>
<path fill="none" stroke="#191970" d="M1247.9945,-62.6911C1232.6372,-60.403 1216.0034,-58.0167 1200.6182,-56 1062.7562,-37.9288 1025.1834,-39.4318 883.7518,-20.1015"/>
<polygon fill="#191970" stroke="#191970" points="884.2199,-16.6331 873.8358,-18.7356 883.2646,-23.5676 884.2199,-16.6331"/>
</g>
<!-- Node22 -->
<g id="node23" class="node">
<title>Node22</title>
<polygon fill="#ffffff" stroke="#bfbfbf" points="1531.6182,-.5 1531.6182,-19.5 1583.6182,-19.5 1583.6182,-.5 1531.6182,-.5"/>
<text text-anchor="middle" x="1557.6182" y="-7.5" font-family="Helvetica,sans-Serif" font-size="10.00" fill="#000000">memory</text>
</g>
<!-- Node21&#45;&gt;Node22 -->
<g id="edge25" class="edge">
<title>Node21&#45;&gt;Node22</title>
<path fill="none" stroke="#191970" d="M1347.1479,-61.9085C1390.9834,-51.905 1461.2476,-35.5426 1521.6182,-20 1521.7164,-19.9747 1521.8147,-19.9494 1521.9131,-19.924"/>
<polygon fill="#191970" stroke="#191970" points="1522.5344,-23.3803 1531.3031,-17.4338 1520.74,-16.6142 1522.5344,-23.3803"/>
</g>
<!-- Node23 -->
<g id="node24" class="node">
<title>Node23</title>
<polygon fill="#ffffff" stroke="#bfbfbf" points="1210.1182,-.5 1210.1182,-19.5 1309.1182,-19.5 1309.1182,-.5 1210.1182,-.5"/>
<text text-anchor="middle" x="1259.6182" y="-7.5" font-family="Helvetica,sans-Serif" font-size="10.00" fill="#000000">AMReX_BCRec.H</text>
</g>
<!-- Node21&#45;&gt;Node23 -->
<g id="edge28" class="edge">
<title>Node21&#45;&gt;Node23</title>
<path fill="none" stroke="#191970" d="M1297.587,-61.8906C1290.9553,-52.8273 1280.8486,-39.0149 1272.7295,-27.9188"/>
<polygon fill="#191970" stroke="#191970" points="1275.4784,-25.7484 1266.7486,-19.7449 1269.8291,-29.882 1275.4784,-25.7484"/>
</g>
<!-- Node24 -->
<g id="node25" class="node">
<title>Node24</title>
<polygon fill="#ffffff" stroke="#bfbfbf" points="1327.1182,-.5 1327.1182,-19.5 1412.1182,-19.5 1412.1182,-.5 1327.1182,-.5"/>
<text text-anchor="middle" x="1369.6182" y="-7.5" font-family="Helvetica,sans-Serif" font-size="10.00" fill="#000000">AMReX_Gpu.H</text>
</g>
<!-- Node21&#45;&gt;Node24 -->
<g id="edge29" class="edge">
<title>Node21&#45;&gt;Node24</title>
<path fill="none" stroke="#191970" d="M1314.7745,-61.8906C1324.6381,-52.5581 1339.8238,-38.1902 1351.7169,-26.9374"/>
<polygon fill="#191970" stroke="#191970" points="1354.4603,-29.1601 1359.3188,-19.7449 1349.6493,-24.0753 1354.4603,-29.1601"/>
</g>
<!-- Node25&#45;&gt;Node6 -->
<g id="edge35" class="edge">
<title>Node25&#45;&gt;Node6</title>
<path fill="none" stroke="#191970" d="M609.2615,-61.9581C561.2425,-51.1406 482.9172,-33.4959 431.0732,-21.8168"/>
<polygon fill="#191970" stroke="#191970" points="431.599,-18.3476 421.0743,-19.5643 430.0606,-25.1765 431.599,-18.3476"/>
</g>
<!-- Node25&#45;&gt;Node15 -->
<g id="edge33" class="edge">
<title>Node25&#45;&gt;Node15</title>
<path fill="none" stroke="#191970" d="M713.6403,-66.5909C786.8253,-60.0056 912.1552,-46.2455 1028.3309,-19.6687"/>
<polygon fill="#191970" stroke="#191970" points="1029.1578,-23.0699 1038.1058,-17.3968 1027.5731,-16.2517 1029.1578,-23.0699"/>
</g>
<!-- Node25&#45;&gt;Node17 -->
<g id="edge34" class="edge">
<title>Node25&#45;&gt;Node17</title>
<path fill="none" stroke="#191970" d="M654.4307,-61.8906C656.9521,-53.276 660.7292,-40.3708 663.8858,-29.5858"/>
<polygon fill="#191970" stroke="#191970" points="667.3161,-30.3254 666.7661,-19.7449 660.5979,-28.3591 667.3161,-30.3254"/>
</g>
<!-- Node26&#45;&gt;Node15 -->
<g id="edge37" class="edge">
<title>Node26&#45;&gt;Node15</title>
<path fill="none" stroke="#191970" d="M972.5557,-61.8906C989.0234,-51.9616 1014.944,-36.333 1034.0386,-24.8201"/>
<polygon fill="#191970" stroke="#191970" points="1036.0361,-27.7027 1042.7926,-19.5419 1032.4216,-21.7081 1036.0361,-27.7027"/>
</g>
<!-- Node26&#45;&gt;Node17 -->
<g id="edge38" class="edge">
<title>Node26&#45;&gt;Node17</title>
<path fill="none" stroke="#191970" d="M912.0894,-61.9581C861.3975,-51.0956 778.5791,-33.3488 724.0834,-21.6711"/>
<polygon fill="#191970" stroke="#191970" points="724.763,-18.2373 714.2515,-19.5643 723.2962,-25.082 724.763,-18.2373"/>
</g>
<!-- Node26&#45;&gt;Node19 -->
<g id="edge39" class="edge">
<title>Node26&#45;&gt;Node19</title>
<path fill="none" stroke="#191970" d="M935.5245,-61.8906C913.0356,-51.6457 877.2265,-35.3326 851.7659,-23.7339"/>
<polygon fill="#191970" stroke="#191970" points="853.1151,-20.5025 842.5639,-19.5419 850.2131,-26.8727 853.1151,-20.5025"/>
</g>
<!-- Node27 -->
<g id="node28" class="node">
<title>Node27</title>
<polygon fill="#ffffff" stroke="#bfbfbf" points="1097.1182,-.5 1097.1182,-19.5 1192.1182,-19.5 1192.1182,-.5 1097.1182,-.5"/>
<text text-anchor="middle" x="1144.6182" y="-7.5" font-family="Helvetica,sans-Serif" font-size="10.00" fill="#000000">AMReX_Vector.H</text>
</g>
<!-- Node26&#45;&gt;Node27 -->
<g id="edge40" class="edge">
<title>Node26&#45;&gt;Node27</title>
<path fill="none" stroke="#191970" d="M985.9932,-61.8906C1018.2769,-51.3298 1070.2718,-34.3208 1105.8729,-22.6747"/>
<polygon fill="#191970" stroke="#191970" points="1107.0333,-25.9776 1115.4495,-19.5419 1104.8569,-19.3246 1107.0333,-25.9776"/>
</g>
<!-- Node28 -->
<g id="node29" class="node">
<title>Node28</title>
<polygon fill="#ffffff" stroke="#bfbfbf" points="891.6182,-.5 891.6182,-19.5 1019.6182,-19.5 1019.6182,-.5 891.6182,-.5"/>
<text text-anchor="middle" x="955.6182" y="-7.5" font-family="Helvetica,sans-Serif" font-size="10.00" fill="#000000">AMReX_PhysBCFunct.H</text>
</g>
<!-- Node26&#45;&gt;Node28 -->
<g id="edge41" class="edge">
<title>Node26&#45;&gt;Node28</title>
<path fill="none" stroke="#191970" d="M956.462,-61.8906C956.3234,-53.3657 956.1164,-40.6392 955.9422,-29.9235"/>
<polygon fill="#191970" stroke="#191970" points="959.4389,-29.6866 955.7767,-19.7449 952.4398,-29.8005 959.4389,-29.6866"/>
</g>
<!-- Node29&#45;&gt;Node8 -->
<g id="edge61" class="edge">
<title>Node29&#45;&gt;Node8</title>
<path fill="none" stroke="#191970" d="M1475.3348,-124.5115C1478.1309,-123.9931 1480.9003,-123.4873 1483.6182,-123 1533.4594,-114.0638 1670.9397,-120.8279 1708.6182,-87 1724.5948,-72.6562 1728.9244,-47.4661 1729.8531,-29.815"/>
<polygon fill="#191970" stroke="#191970" points="1733.3541,-29.7995 1730.0633,-19.7287 1726.3556,-29.6536 1733.3541,-29.7995"/>
</g>
<!-- Node29&#45;&gt;Node15 -->
<g id="edge46" class="edge">
<title>Node29&#45;&gt;Node15</title>
<path fill="none" stroke="#191970" d="M1335.7986,-123.3967C1304.9209,-115.1182 1268.841,-103.187 1238.6182,-87 1219.4046,-76.7094 1219.7839,-66.3798 1200.6182,-56 1156.8949,-32.3203 1139.6261,-36.0463 1088.7361,-20.2319"/>
<polygon fill="#191970" stroke="#191970" points="1089.7844,-16.8926 1079.193,-17.1619 1087.6406,-23.5563 1089.7844,-16.8926"/>
</g>
<!-- Node29&#45;&gt;Node17 -->
<g id="edge60" class="edge">
<title>Node29&#45;&gt;Node17</title>
<path fill="none" stroke="#191970" d="M1336.0205,-134.4907C1195.057,-126.0319 885.3516,-105.605 840.6182,-87 820.8098,-78.7615 822.2991,-66.5485 803.6182,-56 777.2199,-41.0937 745.1793,-29.878 719.0488,-22.2545"/>
<polygon fill="#191970" stroke="#191970" points="719.9227,-18.8644 709.3474,-19.5084 718.0161,-25.5998 719.9227,-18.8644"/>
</g>
<!-- Node30 -->
<g id="node31" class="node">
<title>Node30</title>
<g id="a_node31"><a xlink:href="_factory_8_h.html" target="_top" xlink:title="amr&#45;wind/core/Factory.H">
<polygon fill="#ffffff" stroke="#000000" points="1757.1182,-62 1757.1182,-81 1882.1182,-81 1882.1182,-62 1757.1182,-62"/>
<text text-anchor="middle" x="1819.6182" y="-69" font-family="Helvetica,sans-Serif" font-size="10.00" fill="#000000">amr&#45;wind/core/Factory.H</text>
</a>
</g>
</g>
<!-- Node29&#45;&gt;Node30 -->
<g id="edge47" class="edge">
<title>Node29&#45;&gt;Node30</title>
<path fill="none" stroke="#191970" d="M1475.3224,-124.4402C1478.122,-123.9416 1480.8954,-123.4594 1483.6182,-123 1598.2165,-103.666 1628.044,-106.4761 1742.6182,-87 1749.7348,-85.7903 1757.2007,-84.4181 1764.5672,-83.0023"/>
<polygon fill="#191970" stroke="#191970" points="1765.3675,-86.4122 1774.5087,-81.0559 1764.0225,-79.5426 1765.3675,-86.4122"/>
</g>
<!-- Node34 -->
<g id="node35" class="node">
<title>Node34</title>
<g id="a_node35"><a xlink:href="_coll_mgr_8_h.html" target="_top" xlink:title="amr&#45;wind/core/CollMgr.H">
<polygon fill="#ffffff" stroke="#000000" points="1418.1182,-62 1418.1182,-81 1543.1182,-81 1543.1182,-62 1418.1182,-62"/>
<text text-anchor="middle" x="1480.6182" y="-69" font-family="Helvetica,sans-Serif" font-size="10.00" fill="#000000">amr&#45;wind/core/CollMgr.H</text>
</a>
</g>
</g>
<!-- Node29&#45;&gt;Node34 -->
<g id="edge53" class="edge">
<title>Node29&#45;&gt;Node34</title>
<path fill="none" stroke="#191970" d="M1422.6369,-123.2967C1434.4357,-112.7564 1450.1366,-98.7303 1462.2239,-87.9323"/>
<polygon fill="#191970" stroke="#191970" points="1464.7965,-90.3273 1469.9224,-81.055 1460.133,-85.107 1464.7965,-90.3273"/>
</g>
<!-- Node35 -->
<g id="node36" class="node">
<title>Node35</title>
<g id="a_node36"><a xlink:href="_p_d_e_fields_8_h.html" target="_top" xlink:title="amr&#45;wind/equation_systems\l/PDEFields.H">
<polygon fill="#ffffff" stroke="#000000" points="1561.1182,-56.5 1561.1182,-86.5 1700.1182,-86.5 1700.1182,-56.5 1561.1182,-56.5"/>
<text text-anchor="start" x="1569.1182" y="-74.5" font-family="Helvetica,sans-Serif" font-size="10.00" fill="#000000">amr&#45;wind/equation_systems</text>
<text text-anchor="middle" x="1630.6182" y="-63.5" font-family="Helvetica,sans-Serif" font-size="10.00" fill="#000000">/PDEFields.H</text>
</a>
</g>
</g>
<!-- Node29&#45;&gt;Node35 -->
<g id="edge58" class="edge">
<title>Node29&#45;&gt;Node35</title>
<path fill="none" stroke="#191970" d="M1456.1126,-123.4639C1489.8654,-113.4131 1534.4474,-100.1375 1570.1007,-89.5208"/>
<polygon fill="#191970" stroke="#191970" points="1571.3184,-92.8101 1579.9036,-86.6017 1569.3206,-86.1013 1571.3184,-92.8101"/>
</g>
<!-- Node30&#45;&gt;Node16 -->
<g id="edge49" class="edge">
<title>Node30&#45;&gt;Node16</title>
<path fill="none" stroke="#191970" d="M1762.6151,-61.9972C1704.9375,-52.2958 1612.932,-36.5857 1523.4082,-20.1157"/>
<polygon fill="#191970" stroke="#191970" points="1523.8216,-16.633 1513.3526,-18.2605 1522.5516,-23.5168 1523.8216,-16.633"/>
</g>
<!-- Node30&#45;&gt;Node22 -->
<g id="edge48" class="edge">
<title>Node30&#45;&gt;Node22</title>
<path fill="none" stroke="#191970" d="M1774.2189,-61.9721C1730.4216,-52.608 1662.0404,-37.5366 1593.9848,-20.2567"/>
<polygon fill="#191970" stroke="#191970" points="1594.5044,-16.777 1583.9492,-17.6916 1592.7709,-23.559 1594.5044,-16.777"/>
</g>
<!-- Node31 -->
<g id="node32" class="node">
<title>Node31</title>
<polygon fill="#ffffff" stroke="#bfbfbf" points="1811.6182,-.5 1811.6182,-19.5 1865.6182,-19.5 1865.6182,-.5 1811.6182,-.5"/>
<text text-anchor="middle" x="1838.6182" y="-7.5" font-family="Helvetica,sans-Serif" font-size="10.00" fill="#000000">iostream</text>
</g>
<!-- Node30&#45;&gt;Node31 -->
<g id="edge50" class="edge">
<title>Node30&#45;&gt;Node31</title>
<path fill="none" stroke="#191970" d="M1822.587,-61.8906C1825.2484,-53.276 1829.2354,-40.3708 1832.5673,-29.5858"/>
<polygon fill="#191970" stroke="#191970" points="1835.9998,-30.3324 1835.6076,-19.7449 1829.3117,-28.2661 1835.9998,-30.3324"/>
</g>
<!-- Node32 -->
<g id="node33" class="node">
<title>Node32</title>
<polygon fill="#ffffff" stroke="#bfbfbf" points="1884.1182,-.5 1884.1182,-19.5 1971.1182,-19.5 1971.1182,-.5 1884.1182,-.5"/>
<text text-anchor="middle" x="1927.6182" y="-7.5" font-family="Helvetica,sans-Serif" font-size="10.00" fill="#000000">AMReX_Print.H</text>
</g>
<!-- Node30&#45;&gt;Node32 -->
<g id="edge51" class="edge">
<title>Node30&#45;&gt;Node32</title>
<path fill="none" stroke="#191970" d="M1836.4932,-61.8906C1854.0881,-51.8713 1881.8748,-36.0483 1902.1423,-24.5071"/>
<polygon fill="#191970" stroke="#191970" points="1903.9038,-27.5318 1910.8617,-19.5419 1900.4399,-21.4489 1903.9038,-27.5318"/>
</g>
<!-- Node33 -->
<g id="node34" class="node">
<title>Node33</title>
<polygon fill="#ffffff" stroke="#bfbfbf" points="1989.6182,-.5 1989.6182,-19.5 2051.6182,-19.5 2051.6182,-.5 1989.6182,-.5"/>
<text text-anchor="middle" x="2020.6182" y="-7.5" font-family="Helvetica,sans-Serif" font-size="10.00" fill="#000000">AMReX.H</text>
</g>
<!-- Node30&#45;&gt;Node33 -->
<g id="edge52" class="edge">
<title>Node30&#45;&gt;Node33</title>
<path fill="none" stroke="#191970" d="M1851.0245,-61.8906C1885.688,-51.2846 1941.6063,-34.1753 1979.6807,-22.5257"/>
<polygon fill="#191970" stroke="#191970" points="1980.8942,-25.8146 1989.4325,-19.5419 1978.846,-19.1209 1980.8942,-25.8146"/>
</g>
<!-- Node34&#45;&gt;Node15 -->
<g id="edge54" class="edge">
<title>Node34&#45;&gt;Node15</title>
<path fill="none" stroke="#191970" d="M1418.1153,-62.6408C1402.2969,-60.4348 1385.3366,-58.1007 1369.6182,-56 1247.5611,-39.6877 1212.427,-48.2809 1089.1915,-20.0149"/>
<polygon fill="#191970" stroke="#191970" points="1089.9106,-16.5888 1079.3774,-17.7296 1088.323,-23.4064 1089.9106,-16.5888"/>
</g>
<!-- Node34&#45;&gt;Node16 -->
<g id="edge56" class="edge">
<title>Node34&#45;&gt;Node16</title>
<path fill="none" stroke="#191970" d="M1479.212,-61.8906C1477.9644,-53.3657 1476.102,-40.6392 1474.5339,-29.9235"/>
<polygon fill="#191970" stroke="#191970" points="1477.9555,-29.1326 1473.0443,-19.7449 1471.0293,-30.1463 1477.9555,-29.1326"/>
</g>
<!-- Node34&#45;&gt;Node22 -->
<g id="edge55" class="edge">
<title>Node34&#45;&gt;Node22</title>
<path fill="none" stroke="#191970" d="M1492.6495,-61.8906C1504.6289,-52.3227 1523.2348,-37.4621 1537.4707,-26.0919"/>
<polygon fill="#191970" stroke="#191970" points="1540.0421,-28.5175 1545.6715,-19.5419 1535.6735,-23.0479 1540.0421,-28.5175"/>
</g>
<!-- Node34&#45;&gt;Node27 -->
<g id="edge57" class="edge">
<title>Node34&#45;&gt;Node27</title>
<path fill="none" stroke="#191970" d="M1428.4869,-61.9581C1367.1606,-50.7332 1265.6715,-32.1571 1202.1108,-20.5232"/>
<polygon fill="#191970" stroke="#191970" points="1202.714,-17.0755 1192.2473,-18.7178 1201.4537,-23.9611 1202.714,-17.0755"/>
</g>
<!-- Node36 -->
<g id="node37" class="node">
<title>Node36</title>
<polygon fill="#ffffff" stroke="#bfbfbf" points="1602.1182,-.5 1602.1182,-19.5 1647.1182,-19.5 1647.1182,-.5 1602.1182,-.5"/>
<text text-anchor="middle" x="1624.6182" y="-7.5" font-family="Helvetica,sans-Serif" font-size="10.00" fill="#000000">iosfwd</text>
</g>
<!-- Node35&#45;&gt;Node36 -->
<g id="edge59" class="edge">
<title>Node35&#45;&gt;Node36</title>
<path fill="none" stroke="#191970" d="M1629.1351,-56.2977C1628.363,-48.3834 1627.4089,-38.6043 1626.5769,-30.0759"/>
<polygon fill="#191970" stroke="#191970" points="1630.0335,-29.4598 1625.5789,-19.8469 1623.0665,-30.1396 1630.0335,-29.4598"/>
</g>
<!-- Node37&#45;&gt;Node19 -->
<g id="edge65" class="edge">
<title>Node37&#45;&gt;Node19</title>
<path fill="none" stroke="#191970" d="M1517.0262,-128.963C1506.2463,-126.6763 1494.532,-124.4727 1483.6182,-123 1416.4423,-113.9351 933.6608,-120.2979 874.6182,-87 852.0619,-74.279 837.0332,-47.4998 828.9116,-29.1304"/>
<polygon fill="#191970" stroke="#191970" points="832.067,-27.6013 825.0146,-19.6947 825.597,-30.2735 832.067,-27.6013"/>
</g>
<!-- Node37&#45;&gt;Node30 -->
<g id="edge63" class="edge">
<title>Node37&#45;&gt;Node30</title>
<path fill="none" stroke="#191970" d="M1594.0204,-128.9717C1640.8196,-117.0495 1721.0097,-96.6208 1772.1063,-83.6038"/>
<polygon fill="#191970" stroke="#191970" points="1773.0928,-86.9643 1781.9193,-81.1039 1771.3647,-80.181 1773.0928,-86.9643"/>
</g>
<!-- Node37&#45;&gt;Node34 -->
<g id="edge64" class="edge">
<title>Node37&#45;&gt;Node34</title>
<path fill="none" stroke="#191970" d="M1545.7293,-128.9005C1533.652,-118.2535 1513.9511,-100.8856 1499.3783,-88.0385"/>
<polygon fill="#191970" stroke="#191970" points="1501.3028,-85.0692 1491.487,-81.0817 1496.6737,-90.3201 1501.3028,-85.0692"/>
</g>
<!-- Node38 -->
<g id="node39" class="node">
<title>Node38</title>
<polygon fill="#ffffff" stroke="#bfbfbf" points="1900.6182,-62 1900.6182,-81 2010.6182,-81 2010.6182,-62 1900.6182,-62"/>
<text text-anchor="middle" x="1955.6182" y="-69" font-family="Helvetica,sans-Serif" font-size="10.00" fill="#000000">AMReX_Geometry.H</text>
</g>
<!-- Node37&#45;&gt;Node38 -->
<g id="edge66" class="edge">
<title>Node37&#45;&gt;Node38</title>
<path fill="none" stroke="#191970" d="M1620.1864,-130.3677C1687.7775,-121.3384 1797.6677,-105.5634 1891.6182,-87 1897.0858,-85.9197 1902.7918,-84.6887 1908.4473,-83.4037"/>
<polygon fill="#191970" stroke="#191970" points="1909.5683,-86.7361 1918.5099,-81.0531 1907.9759,-79.9196 1909.5683,-86.7361"/>
</g>
</g>
</svg>
