<?xml version="1.0" encoding="UTF-8" standalone="no"?>
<!DOCTYPE svg PUBLIC "-//W3C//DTD SVG 1.1//EN"
 "http://www.w3.org/Graphics/SVG/1.1/DTD/svg11.dtd">
<!-- Generated by graphviz version 2.40.1 (20161225.0304)
 -->
<!-- Title: derive_K.H Pages: 1 -->
<svg width="844pt" height="84pt"
 viewBox="0.00 0.00 844.00 84.00" xmlns="http://www.w3.org/2000/svg" xmlns:xlink="http://www.w3.org/1999/xlink">
<g id="graph0" class="graph" transform="scale(1 1) rotate(0) translate(4 80)">
<title>derive_K.H</title>
<polygon fill="#ffffff" stroke="transparent" points="-4,4 -4,-80 840,-80 840,4 -4,4"/>
<!-- Node12 -->
<g id="node1" class="node">
<title>Node12</title>
<polygon fill="#bfbfbf" stroke="#000000" points="430,-56.5 430,-75.5 495,-75.5 495,-56.5 430,-56.5"/>
<text text-anchor="middle" x="462.5" y="-63.5" font-family="Helvetica,sans-Serif" font-size="10.00" fill="#000000">derive_K.H</text>
</g>
<!-- Node13 -->
<g id="node2" class="node">
<title>Node13</title>
<g id="a_node2"><a xlink:href="compute__curvature_8cpp.html" target="_top" xlink:title="compute_curvature.cpp">
<polygon fill="#ffffff" stroke="#000000" points="0,-.5 0,-19.5 119,-19.5 119,-.5 0,-.5"/>
<text text-anchor="middle" x="59.5" y="-7.5" font-family="Helvetica,sans-Serif" font-size="10.00" fill="#000000">compute_curvature.cpp</text>
</a>
</g>
</g>
<!-- Node12&#45;&gt;Node13 -->
<g id="edge1" class="edge">
<title>Node12&#45;&gt;Node13</title>
<path fill="none" stroke="#191970" d="M419.5988,-60.2425C355.8569,-51.6579 232.3816,-34.9124 127.5,-20 124.7828,-19.6137 122.005,-19.216 119.1994,-18.8123"/>
<polygon fill="#191970" stroke="#191970" points="419.298,-63.7335 429.6755,-61.5986 420.2317,-56.796 419.298,-63.7335"/>
</g>
<!-- Node14 -->
<g id="node3" class="node">
<title>Node14</title>
<g id="a_node3"><a xlink:href="compute__gradient_8cpp.html" target="_top" xlink:title="compute_gradient.cpp">
<polygon fill="#ffffff" stroke="#000000" points="137,-.5 137,-19.5 250,-19.5 250,-.5 137,-.5"/>
<text text-anchor="middle" x="193.5" y="-7.5" font-family="Helvetica,sans-Serif" font-size="10.00" fill="#000000">compute_gradient.cpp</text>
</a>
</g>
</g>
<!-- Node12&#45;&gt;Node14 -->
<g id="edge2" class="edge">
<title>Node12&#45;&gt;Node14</title>
<path fill="none" stroke="#191970" d="M419.7803,-57.1067C370.5662,-46.8614 290.0074,-30.0908 239.4633,-19.5686"/>
<polygon fill="#191970" stroke="#191970" points="419.2808,-60.5777 429.7843,-59.1893 420.7075,-53.7246 419.2808,-60.5777"/>
</g>
<!-- Node15 -->
<g id="node4" class="node">
<title>Node15</title>
<g id="a_node4"><a xlink:href="compute__laplacian_8cpp.html" target="_top" xlink:title="compute_laplacian.cpp">
<polygon fill="#ffffff" stroke="#000000" points="268.5,-.5 268.5,-19.5 384.5,-19.5 384.5,-.5 268.5,-.5"/>
<text text-anchor="middle" x="326.5" y="-7.5" font-family="Helvetica,sans-Serif" font-size="10.00" fill="#000000">compute_laplacian.cpp</text>
</a>
</g>
</g>
<!-- Node12&#45;&gt;Node15 -->
<g id="edge3" class="edge">
<title>Node12&#45;&gt;Node15</title>
<path fill="none" stroke="#191970" d="M429.7601,-52.5189C404.9917,-42.3201 371.595,-28.5685 349.5742,-19.5011"/>
<polygon fill="#191970" stroke="#191970" points="428.5413,-55.8021 439.1208,-56.3733 431.2066,-49.3293 428.5413,-55.8021"/>
</g>
<!-- Node16 -->
<g id="node5" class="node">
<title>Node16</title>
<g id="a_node5"><a xlink:href="compute__strainrate_8cpp.html" target="_top" xlink:title="compute_strainrate.cpp">
<polygon fill="#ffffff" stroke="#000000" points="403,-.5 403,-19.5 522,-19.5 522,-.5 403,-.5"/>
<text text-anchor="middle" x="462.5" y="-7.5" font-family="Helvetica,sans-Serif" font-size="10.00" fill="#000000">compute_strainrate.cpp</text>
</a>
</g>
</g>
<!-- Node12&#45;&gt;Node16 -->
<g id="edge4" class="edge">
<title>Node12&#45;&gt;Node16</title>
<path fill="none" stroke="#191970" d="M462.5,-46.1575C462.5,-37.155 462.5,-26.9199 462.5,-19.6427"/>
<polygon fill="#191970" stroke="#191970" points="459.0001,-46.2455 462.5,-56.2455 466.0001,-46.2456 459.0001,-46.2455"/>
</g>
<!-- Node17 -->
<g id="node6" class="node">
<title>Node17</title>
<g id="a_node6"><a xlink:href="field__algebra_8cpp.html" target="_top" xlink:title="field_algebra.cpp">
<polygon fill="#ffffff" stroke="#000000" points="540.5,-.5 540.5,-19.5 630.5,-19.5 630.5,-.5 540.5,-.5"/>
<text text-anchor="middle" x="585.5" y="-7.5" font-family="Helvetica,sans-Serif" font-size="10.00" fill="#000000">field_algebra.cpp</text>
</a>
</g>
</g>
<!-- Node12&#45;&gt;Node17 -->
<g id="edge5" class="edge">
<title>Node12&#45;&gt;Node17</title>
<path fill="none" stroke="#191970" d="M493.0065,-52.1109C515.3112,-41.9559 544.9799,-28.4482 564.6315,-19.5011"/>
<polygon fill="#191970" stroke="#191970" points="491.2953,-49.0442 483.6445,-56.3733 494.1959,-55.415 491.2953,-49.0442"/>
</g>
<!-- Node18 -->
<g id="node7" class="node">
<title>Node18</title>
<g id="a_node7"><a xlink:href="_smagorinsky_8cpp.html" target="_top" xlink:title="Smagorinsky.cpp">
<polygon fill="#ffffff" stroke="#000000" points="648.5,-.5 648.5,-19.5 740.5,-19.5 740.5,-.5 648.5,-.5"/>
<text text-anchor="middle" x="694.5" y="-7.5" font-family="Helvetica,sans-Serif" font-size="10.00" fill="#000000">Smagorinsky.cpp</text>
</a>
</g>
</g>
<!-- Node12&#45;&gt;Node18 -->
<g id="edge6" class="edge">
<title>Node12&#45;&gt;Node18</title>
<path fill="none" stroke="#191970" d="M505.0762,-55.723C547.854,-45.3973 613.2527,-29.6114 654.9307,-19.5512"/>
<polygon fill="#191970" stroke="#191970" points="504.1474,-52.3466 495.2479,-58.0953 505.79,-59.1511 504.1474,-52.3466"/>
</g>
<!-- Node19 -->
<g id="node8" class="node">
<title>Node19</title>
<g id="a_node8"><a xlink:href="_a_b_l_stats_8cpp.html" target="_top" xlink:title="ABLStats.cpp">
<polygon fill="#ffffff" stroke="#000000" points="759,-.5 759,-19.5 836,-19.5 836,-.5 759,-.5"/>
<text text-anchor="middle" x="797.5" y="-7.5" font-family="Helvetica,sans-Serif" font-size="10.00" fill="#000000">ABLStats.cpp</text>
</a>
</g>
</g>
<!-- Node12&#45;&gt;Node19 -->
<g id="edge7" class="edge">
<title>Node12&#45;&gt;Node19</title>
<path fill="none" stroke="#191970" d="M505.2406,-59.7836C561.4071,-51.4694 663.0688,-35.9209 749.5,-20 752.5137,-19.4449 755.629,-18.8481 758.7578,-18.2324"/>
<polygon fill="#191970" stroke="#191970" points="504.6786,-56.3285 495.2964,-61.2503 505.7001,-63.2536 504.6786,-56.3285"/>
</g>
</g>
</svg>
