<?xml version="1.0" encoding="UTF-8" standalone="no"?>
<!DOCTYPE svg PUBLIC "-//W3C//DTD SVG 1.1//EN"
 "http://www.w3.org/Graphics/SVG/1.1/DTD/svg11.dtd">
<!-- Generated by graphviz version 2.40.1 (20161225.0304)
 -->
<!-- Title: derive.cpp Pages: 1 -->
<svg width="2206pt" height="341pt"
 viewBox="0.00 0.00 2206.14 341.00" xmlns="http://www.w3.org/2000/svg" xmlns:xlink="http://www.w3.org/1999/xlink">
<g id="graph0" class="graph" transform="scale(1 1) rotate(0) translate(4 337)">
<title>derive.cpp</title>
<polygon fill="#ffffff" stroke="transparent" points="-4,4 -4,-337 2202.1394,-337 2202.1394,4 -4,4"/>
<!-- Node0 -->
<g id="node1" class="node">
<title>Node0</title>
<polygon fill="#bfbfbf" stroke="#000000" points="1262.6394,-313.5 1262.6394,-332.5 1324.6394,-332.5 1324.6394,-313.5 1262.6394,-313.5"/>
<text text-anchor="middle" x="1293.6394" y="-320.5" font-family="Helvetica,sans-Serif" font-size="10.00" fill="#000000">derive.cpp</text>
</g>
<!-- Node1 -->
<g id="node2" class="node">
<title>Node1</title>
<polygon fill="#ffffff" stroke="#bfbfbf" points="1145.6394,-257.5 1145.6394,-276.5 1229.6394,-276.5 1229.6394,-257.5 1145.6394,-257.5"/>
<text text-anchor="middle" x="1187.6394" y="-264.5" font-family="Helvetica,sans-Serif" font-size="10.00" fill="#000000">AMReX_Box.H</text>
</g>
<!-- Node0&#45;&gt;Node1 -->
<g id="edge1" class="edge">
<title>Node0&#45;&gt;Node1</title>
<path fill="none" stroke="#191970" d="M1275.1756,-313.2455C1258.5319,-304.4527 1233.8401,-291.4079 1214.9202,-281.4125"/>
<polygon fill="#191970" stroke="#191970" points="1216.3685,-278.2193 1205.8916,-276.6427 1213.0986,-284.4086 1216.3685,-278.2193"/>
</g>
<!-- Node2 -->
<g id="node3" class="node">
<title>Node2</title>
<g id="a_node3"><a xlink:href="incflo_8_h.html" target="_top" xlink:title="amr&#45;wind/incflo.H">
<polygon fill="#ffffff" stroke="#000000" points="1247.1394,-257.5 1247.1394,-276.5 1340.1394,-276.5 1340.1394,-257.5 1247.1394,-257.5"/>
<text text-anchor="middle" x="1293.6394" y="-264.5" font-family="Helvetica,sans-Serif" font-size="10.00" fill="#000000">amr&#45;wind/incflo.H</text>
</a>
</g>
</g>
<!-- Node0&#45;&gt;Node2 -->
<g id="edge2" class="edge">
<title>Node0&#45;&gt;Node2</title>
<path fill="none" stroke="#191970" d="M1293.6394,-313.2455C1293.6394,-305.9382 1293.6394,-295.6944 1293.6394,-286.7046"/>
<polygon fill="#191970" stroke="#191970" points="1297.1395,-286.6426 1293.6394,-276.6427 1290.1395,-286.6427 1297.1395,-286.6426"/>
</g>
<!-- Node7 -->
<g id="node8" class="node">
<title>Node7</title>
<polygon fill="#ffffff" stroke="#bfbfbf" points="2067.1394,-196 2067.1394,-215 2198.1394,-215 2198.1394,-196 2067.1394,-196"/>
<text text-anchor="middle" x="2132.6394" y="-203" font-family="Helvetica,sans-Serif" font-size="10.00" fill="#000000">AMReX_NodalProjector.H</text>
</g>
<!-- Node0&#45;&gt;Node7 -->
<g id="edge68" class="edge">
<title>Node0&#45;&gt;Node7</title>
<path fill="none" stroke="#191970" d="M1324.8231,-319.4647C1428.5294,-307.5679 1771.2064,-267.1348 2052.6394,-221 2060.1139,-219.7747 2067.961,-218.384 2075.6981,-216.9506"/>
<polygon fill="#191970" stroke="#191970" points="2076.5871,-220.3448 2085.7652,-215.0521 2075.2898,-213.466 2076.5871,-220.3448"/>
</g>
<!-- Node3 -->
<g id="node4" class="node">
<title>Node3</title>
<polygon fill="#ffffff" stroke="#bfbfbf" points="1047.6394,-62 1047.6394,-81 1153.6394,-81 1153.6394,-62 1047.6394,-62"/>
<text text-anchor="middle" x="1100.6394" y="-69" font-family="Helvetica,sans-Serif" font-size="10.00" fill="#000000">AMReX_AmrCore.H</text>
</g>
<!-- Node2&#45;&gt;Node3 -->
<g id="edge3" class="edge">
<title>Node2&#45;&gt;Node3</title>
<path fill="none" stroke="#191970" d="M1246.9093,-257.4891C1190.7192,-245.8317 1103.3078,-226.8979 1098.6394,-221 1068.8084,-183.3132 1083.178,-121.9295 1093.4135,-90.8465"/>
<polygon fill="#191970" stroke="#191970" points="1096.7881,-91.799 1096.7823,-81.2042 1090.1798,-89.4902 1096.7881,-91.799"/>
</g>
<!-- Node4 -->
<g id="node5" class="node">
<title>Node4</title>
<polygon fill="#ffffff" stroke="#bfbfbf" points="1234.1394,-196 1234.1394,-215 1353.1394,-215 1353.1394,-196 1234.1394,-196"/>
<text text-anchor="middle" x="1293.6394" y="-203" font-family="Helvetica,sans-Serif" font-size="10.00" fill="#000000">AMReX_MultiFabUtil.H</text>
</g>
<!-- Node2&#45;&gt;Node4 -->
<g id="edge4" class="edge">
<title>Node2&#45;&gt;Node4</title>
<path fill="none" stroke="#191970" d="M1293.6394,-257.3906C1293.6394,-248.8657 1293.6394,-236.1392 1293.6394,-225.4235"/>
<polygon fill="#191970" stroke="#191970" points="1297.1395,-225.2448 1293.6394,-215.2449 1290.1395,-225.2449 1297.1395,-225.2448"/>
</g>
<!-- Node5 -->
<g id="node6" class="node">
<title>Node5</title>
<polygon fill="#ffffff" stroke="#bfbfbf" points="1371.6394,-196 1371.6394,-215 1487.6394,-215 1487.6394,-196 1371.6394,-196"/>
<text text-anchor="middle" x="1429.6394" y="-203" font-family="Helvetica,sans-Serif" font-size="10.00" fill="#000000">AMReX_ParmParse.H</text>
</g>
<!-- Node2&#45;&gt;Node5 -->
<g id="edge5" class="edge">
<title>Node2&#45;&gt;Node5</title>
<path fill="none" stroke="#191970" d="M1314.8894,-257.3906C1337.5449,-247.1457 1373.6192,-230.8326 1399.2684,-219.2339"/>
<polygon fill="#191970" stroke="#191970" points="1400.869,-222.3514 1408.5386,-215.0419 1397.9848,-215.9732 1400.869,-222.3514"/>
</g>
<!-- Node6 -->
<g id="node7" class="node">
<title>Node6</title>
<polygon fill="#ffffff" stroke="#bfbfbf" points="356.1394,-.5 356.1394,-19.5 463.1394,-19.5 463.1394,-.5 356.1394,-.5"/>
<text text-anchor="middle" x="409.6394" y="-7.5" font-family="Helvetica,sans-Serif" font-size="10.00" fill="#000000">AMReX_iMultiFab.H</text>
</g>
<!-- Node2&#45;&gt;Node6 -->
<g id="edge6" class="edge">
<title>Node2&#45;&gt;Node6</title>
<path fill="none" stroke="#191970" d="M1246.8829,-258.1586C1244.0981,-257.7378 1241.3346,-257.3471 1238.6394,-257 1030.4148,-230.1861 976.4553,-242.734 767.6394,-221 426.059,-185.4475 216.1012,-359.1523 6.6394,-87 -1.764,-76.0816 -2.5339,-66.28 6.6394,-56 28.7819,-31.1863 237.6868,-17.9455 345.6675,-12.7096"/>
<polygon fill="#191970" stroke="#191970" points="345.9703,-16.1992 355.7926,-12.2277 345.6375,-9.2071 345.9703,-16.1992"/>
</g>
<!-- Node2&#45;&gt;Node7 -->
<g id="edge7" class="edge">
<title>Node2&#45;&gt;Node7</title>
<path fill="none" stroke="#191970" d="M1340.4763,-266.29C1459.7499,-264.021 1784.4848,-254.9553 2052.6394,-221 2061.1131,-219.927 2070.0395,-218.498 2078.7339,-216.9406"/>
<polygon fill="#191970" stroke="#191970" points="2079.6027,-220.3391 2088.7926,-215.067 2078.3208,-213.4574 2079.6027,-220.3391"/>
</g>
<!-- Node8 -->
<g id="node9" class="node">
<title>Node8</title>
<g id="a_node9"><a xlink:href="incflo__enums_8_h.html" target="_top" xlink:title="amr&#45;wind/incflo_enums.H">
<polygon fill="#ffffff" stroke="#000000" points="1703.6394,-.5 1703.6394,-19.5 1831.6394,-19.5 1831.6394,-.5 1703.6394,-.5"/>
<text text-anchor="middle" x="1767.6394" y="-7.5" font-family="Helvetica,sans-Serif" font-size="10.00" fill="#000000">amr&#45;wind/incflo_enums.H</text>
</a>
</g>
</g>
<!-- Node2&#45;&gt;Node8 -->
<g id="edge8" class="edge">
<title>Node2&#45;&gt;Node8</title>
<path fill="none" stroke="#191970" d="M1340.3255,-263.065C1487.786,-249.5447 1938.627,-199.4873 2019.6394,-87 2027.6912,-75.8199 2028.4637,-66.581 2019.6394,-56 2013.8414,-49.0479 1913.4555,-32.3277 1841.1618,-21.0793"/>
<polygon fill="#191970" stroke="#191970" points="1841.578,-17.6021 1831.1601,-19.53 1840.5064,-24.5196 1841.578,-17.6021"/>
</g>
<!-- Node9 -->
<g id="node10" class="node">
<title>Node9</title>
<g id="a_node10"><a xlink:href="_c_f_d_sim_8_h.html" target="_top" xlink:title="amr&#45;wind/CFDSim.H">
<polygon fill="#ffffff" stroke="#000000" points="1107.6394,-196 1107.6394,-215 1215.6394,-215 1215.6394,-196 1107.6394,-196"/>
<text text-anchor="middle" x="1161.6394" y="-203" font-family="Helvetica,sans-Serif" font-size="10.00" fill="#000000">amr&#45;wind/CFDSim.H</text>
</a>
</g>
</g>
<!-- Node2&#45;&gt;Node9 -->
<g id="edge9" class="edge">
<title>Node2&#45;&gt;Node9</title>
<path fill="none" stroke="#191970" d="M1273.0144,-257.3906C1251.1221,-247.1908 1216.3201,-230.9763 1191.4466,-219.3875"/>
<polygon fill="#191970" stroke="#191970" points="1192.6621,-216.0926 1182.1195,-215.0419 1189.7059,-222.4377 1192.6621,-216.0926"/>
</g>
<!-- Node10 -->
<g id="node11" class="node">
<title>Node10</title>
<g id="a_node11"><a xlink:href="_sim_time_8_h.html" target="_top" xlink:title="amr&#45;wind/core/SimTime.H">
<polygon fill="#ffffff" stroke="#000000" points="269.1394,-129 269.1394,-148 400.1394,-148 400.1394,-129 269.1394,-129"/>
<text text-anchor="middle" x="334.6394" y="-136" font-family="Helvetica,sans-Serif" font-size="10.00" fill="#000000">amr&#45;wind/core/SimTime.H</text>
</a>
</g>
</g>
<!-- Node2&#45;&gt;Node10 -->
<g id="edge65" class="edge">
<title>Node2&#45;&gt;Node10</title>
<path fill="none" stroke="#191970" d="M1246.8582,-258.3316C1244.0797,-257.8674 1241.3242,-257.4198 1238.6394,-257 932.6993,-209.1654 566.4362,-165.2387 410.7053,-147.1813"/>
<polygon fill="#191970" stroke="#191970" points="410.6435,-143.6508 400.3073,-145.9778 409.8386,-150.6044 410.6435,-143.6508"/>
</g>
<!-- Node14 -->
<g id="node15" class="node">
<title>Node14</title>
<g id="a_node15"><a xlink:href="_field_repo_8_h.html" target="_top" xlink:title="amr&#45;wind/core/FieldRepo.H">
<polygon fill="#ffffff" stroke="#000000" points="882.6394,-129 882.6394,-148 1018.6394,-148 1018.6394,-129 882.6394,-129"/>
<text text-anchor="middle" x="950.6394" y="-136" font-family="Helvetica,sans-Serif" font-size="10.00" fill="#000000">amr&#45;wind/core/FieldRepo.H</text>
</a>
</g>
</g>
<!-- Node2&#45;&gt;Node14 -->
<g id="edge66" class="edge">
<title>Node2&#45;&gt;Node14</title>
<path fill="none" stroke="#191970" d="M1246.9531,-258.1009C1182.6985,-245.7775 1073.9464,-224.6173 1065.6394,-221 1027.6529,-204.4586 989.8159,-173.9162 968.4113,-154.9929"/>
<polygon fill="#191970" stroke="#191970" points="970.5666,-152.2237 960.7941,-148.1312 965.8815,-157.4247 970.5666,-152.2237"/>
</g>
<!-- Node38 -->
<g id="node39" class="node">
<title>Node38</title>
<g id="a_node39"><a xlink:href="incflo__prob___i_8_h.html" target="_top" xlink:title="amr&#45;wind/prob/incflo\l_prob_I.H">
<polygon fill="#ffffff" stroke="#000000" points="1505.6394,-190.5 1505.6394,-220.5 1609.6394,-220.5 1609.6394,-190.5 1505.6394,-190.5"/>
<text text-anchor="start" x="1513.6394" y="-208.5" font-family="Helvetica,sans-Serif" font-size="10.00" fill="#000000">amr&#45;wind/prob/incflo</text>
<text text-anchor="middle" x="1557.6394" y="-197.5" font-family="Helvetica,sans-Serif" font-size="10.00" fill="#000000">_prob_I.H</text>
</a>
</g>
</g>
<!-- Node2&#45;&gt;Node38 -->
<g id="edge67" class="edge">
<title>Node2&#45;&gt;Node38</title>
<path fill="none" stroke="#191970" d="M1337.2747,-257.4561C1376.2648,-248.8511 1435.2028,-235.6553 1495.3626,-221.2762"/>
<polygon fill="#191970" stroke="#191970" points="1496.5102,-224.6003 1505.418,-218.8643 1494.8775,-217.7933 1496.5102,-224.6003"/>
</g>
<!-- Node9&#45;&gt;Node3 -->
<g id="edge10" class="edge">
<title>Node9&#45;&gt;Node3</title>
<path fill="none" stroke="#191970" d="M1157.2524,-195.8631C1147.2284,-173.8432 1122.4946,-119.5098 1109.2838,-90.4894"/>
<polygon fill="#191970" stroke="#191970" points="1112.3153,-88.7009 1104.9866,-81.0496 1105.9443,-91.6011 1112.3153,-88.7009"/>
</g>
<!-- Node9&#45;&gt;Node10 -->
<g id="edge11" class="edge">
<title>Node9&#45;&gt;Node10</title>
<path fill="none" stroke="#191970" d="M1107.3776,-201.1039C964.123,-189.4981 575.4785,-158.0118 410.4229,-144.6397"/>
<polygon fill="#191970" stroke="#191970" points="410.6039,-141.1429 400.3539,-143.8239 410.0386,-148.1201 410.6039,-141.1429"/>
</g>
<!-- Node9&#45;&gt;Node14 -->
<g id="edge15" class="edge">
<title>Node9&#45;&gt;Node14</title>
<path fill="none" stroke="#191970" d="M1131.4082,-195.9005C1094.3525,-184.134 1031.4465,-164.1591 990.4749,-151.1492"/>
<polygon fill="#191970" stroke="#191970" points="991.4048,-147.7723 980.8144,-148.0817 989.2862,-154.444 991.4048,-147.7723"/>
</g>
<!-- Node27 -->
<g id="node28" class="node">
<title>Node27</title>
<g id="a_node28"><a xlink:href="_p_d_e_base_8_h.html" target="_top" xlink:title="amr&#45;wind/equation_systems\l/PDEBase.H">
<polygon fill="#ffffff" stroke="#000000" points="1417.1394,-123.5 1417.1394,-153.5 1556.1394,-153.5 1556.1394,-123.5 1417.1394,-123.5"/>
<text text-anchor="start" x="1425.1394" y="-141.5" font-family="Helvetica,sans-Serif" font-size="10.00" fill="#000000">amr&#45;wind/equation_systems</text>
<text text-anchor="middle" x="1486.6394" y="-130.5" font-family="Helvetica,sans-Serif" font-size="10.00" fill="#000000">/PDEBase.H</text>
</a>
</g>
</g>
<!-- Node9&#45;&gt;Node27 -->
<g id="edge43" class="edge">
<title>Node9&#45;&gt;Node27</title>
<path fill="none" stroke="#191970" d="M1199.2157,-195.9475C1207.5682,-193.91 1216.3909,-191.8243 1224.6394,-190 1285.6587,-176.5044 1355.0682,-162.9408 1407.1096,-153.1234"/>
<polygon fill="#191970" stroke="#191970" points="1407.7677,-156.5611 1416.9484,-151.2729 1406.4737,-149.6817 1407.7677,-156.5611"/>
</g>
<!-- Node36 -->
<g id="node37" class="node">
<title>Node36</title>
<g id="a_node37"><a xlink:href="_physics_8_h.html" target="_top" xlink:title="amr&#45;wind/core/Physics.H">
<polygon fill="#ffffff" stroke="#000000" points="1574.1394,-129 1574.1394,-148 1701.1394,-148 1701.1394,-129 1574.1394,-129"/>
<text text-anchor="middle" x="1637.6394" y="-136" font-family="Helvetica,sans-Serif" font-size="10.00" fill="#000000">amr&#45;wind/core/Physics.H</text>
</a>
</g>
</g>
<!-- Node9&#45;&gt;Node36 -->
<g id="edge60" class="edge">
<title>Node9&#45;&gt;Node36</title>
<path fill="none" stroke="#191970" d="M1196.78,-195.9602C1205.8083,-193.7561 1215.5416,-191.5932 1224.6394,-190 1374.3173,-163.788 1414.5609,-177.8125 1564.6394,-154 1571.7652,-152.8694 1579.2451,-151.4972 1586.588,-150.042"/>
<polygon fill="#191970" stroke="#191970" points="1587.3738,-153.4538 1596.4698,-148.0212 1585.9713,-146.5958 1587.3738,-153.4538"/>
</g>
<!-- Node11 -->
<g id="node12" class="node">
<title>Node11</title>
<polygon fill="#ffffff" stroke="#bfbfbf" points="288.1394,-62 288.1394,-81 381.1394,-81 381.1394,-62 288.1394,-62"/>
<text text-anchor="middle" x="334.6394" y="-69" font-family="Helvetica,sans-Serif" font-size="10.00" fill="#000000">AMReX_REAL.H</text>
</g>
<!-- Node10&#45;&gt;Node11 -->
<g id="edge12" class="edge">
<title>Node10&#45;&gt;Node11</title>
<path fill="none" stroke="#191970" d="M334.6394,-128.9005C334.6394,-119.149 334.6394,-103.7597 334.6394,-91.3695"/>
<polygon fill="#191970" stroke="#191970" points="338.1395,-91.0816 334.6394,-81.0817 331.1395,-91.0817 338.1395,-91.0816"/>
</g>
<!-- Node12 -->
<g id="node13" class="node">
<title>Node12</title>
<polygon fill="#ffffff" stroke="#bfbfbf" points="15.6394,-62 15.6394,-81 141.6394,-81 141.6394,-62 15.6394,-62"/>
<text text-anchor="middle" x="78.6394" y="-69" font-family="Helvetica,sans-Serif" font-size="10.00" fill="#000000">AMReX_GpuQualifiers.H</text>
</g>
<!-- Node10&#45;&gt;Node12 -->
<g id="edge13" class="edge">
<title>Node10&#45;&gt;Node12</title>
<path fill="none" stroke="#191970" d="M298.2327,-128.9717C252.774,-117.0743 174.9485,-96.7059 125.1979,-83.6852"/>
<polygon fill="#191970" stroke="#191970" points="125.8953,-80.2499 115.3349,-81.1039 124.1229,-87.0219 125.8953,-80.2499"/>
</g>
<!-- Node13 -->
<g id="node14" class="node">
<title>Node13</title>
<polygon fill="#ffffff" stroke="#bfbfbf" points="159.6394,-62 159.6394,-81 269.6394,-81 269.6394,-62 159.6394,-62"/>
<text text-anchor="middle" x="214.6394" y="-69" font-family="Helvetica,sans-Serif" font-size="10.00" fill="#000000">AMReX_Extension.H</text>
</g>
<!-- Node10&#45;&gt;Node13 -->
<g id="edge14" class="edge">
<title>Node10&#45;&gt;Node13</title>
<path fill="none" stroke="#191970" d="M317.4463,-128.9005C297.3967,-117.7062 264.0405,-99.0823 240.7792,-86.0947"/>
<polygon fill="#191970" stroke="#191970" points="242.2381,-82.9007 231.8005,-81.0817 238.8256,-89.0126 242.2381,-82.9007"/>
</g>
<!-- Node14&#45;&gt;Node3 -->
<g id="edge40" class="edge">
<title>Node14&#45;&gt;Node3</title>
<path fill="none" stroke="#191970" d="M972.1307,-128.9005C997.7496,-117.4574 1040.7492,-98.2509 1069.8841,-85.2374"/>
<polygon fill="#191970" stroke="#191970" points="1071.4847,-88.3557 1079.1879,-81.0817 1068.6299,-81.9643 1071.4847,-88.3557"/>
</g>
<!-- Node14&#45;&gt;Node6 -->
<g id="edge42" class="edge">
<title>Node14&#45;&gt;Node6</title>
<path fill="none" stroke="#191970" d="M882.4964,-134.744C755.4115,-127.2529 491.8616,-109.246 456.6394,-87 435.6079,-73.7167 422.5818,-47.2768 415.7232,-29.1186"/>
<polygon fill="#191970" stroke="#191970" points="418.9824,-27.8354 412.3837,-19.5464 412.3731,-30.1413 418.9824,-27.8354"/>
</g>
<!-- Node15 -->
<g id="node16" class="node">
<title>Node15</title>
<polygon fill="#ffffff" stroke="#bfbfbf" points="1037.1394,-.5 1037.1394,-19.5 1078.1394,-19.5 1078.1394,-.5 1037.1394,-.5"/>
<text text-anchor="middle" x="1057.6394" y="-7.5" font-family="Helvetica,sans-Serif" font-size="10.00" fill="#000000">string</text>
</g>
<!-- Node14&#45;&gt;Node15 -->
<g id="edge16" class="edge">
<title>Node14&#45;&gt;Node15</title>
<path fill="none" stroke="#191970" d="M960.6278,-128.9931C971.0215,-118.9248 987.5734,-102.3893 1000.6394,-87 1017.0169,-67.7103 1034.06,-44.1526 1045.1932,-28.2127"/>
<polygon fill="#191970" stroke="#191970" points="1048.2039,-30.0127 1051.0157,-19.7977 1042.4475,-26.0297 1048.2039,-30.0127"/>
</g>
<!-- Node16 -->
<g id="node17" class="node">
<title>Node16</title>
<polygon fill="#ffffff" stroke="#bfbfbf" points="1355.1394,-.5 1355.1394,-19.5 1438.1394,-19.5 1438.1394,-.5 1355.1394,-.5"/>
<text text-anchor="middle" x="1396.6394" y="-7.5" font-family="Helvetica,sans-Serif" font-size="10.00" fill="#000000">unordered_map</text>
</g>
<!-- Node14&#45;&gt;Node16 -->
<g id="edge17" class="edge">
<title>Node14&#45;&gt;Node16</title>
<path fill="none" stroke="#191970" d="M1018.8361,-134.0395C1130.5504,-126.1575 1342.8811,-108.5465 1369.6394,-87 1386.8273,-73.1598 1393.0949,-47.6518 1395.3679,-29.8006"/>
<polygon fill="#191970" stroke="#191970" points="1398.8744,-29.8997 1396.3444,-19.6114 1391.9063,-29.2319 1398.8744,-29.8997"/>
</g>
<!-- Node17 -->
<g id="node18" class="node">
<title>Node17</title>
<g id="a_node18"><a xlink:href="_field_desc_types_8_h.html" target="_top" xlink:title="amr&#45;wind/core/FieldDescTypes.H">
<polygon fill="#ffffff" stroke="#000000" points="691.1394,-.5 691.1394,-19.5 854.1394,-19.5 854.1394,-.5 691.1394,-.5"/>
<text text-anchor="middle" x="772.6394" y="-7.5" font-family="Helvetica,sans-Serif" font-size="10.00" fill="#000000">amr&#45;wind/core/FieldDescTypes.H</text>
</a>
</g>
</g>
<!-- Node14&#45;&gt;Node17 -->
<g id="edge18" class="edge">
<title>Node14&#45;&gt;Node17</title>
<path fill="none" stroke="#191970" d="M882.576,-136.2058C755.8281,-131.229 493.9372,-117.3565 466.6394,-87 457.4268,-76.7552 457.6503,-66.4414 466.6394,-56 473.7267,-47.7676 594.041,-31.5717 681.6568,-20.7637"/>
<polygon fill="#191970" stroke="#191970" points="682.1338,-24.2315 691.6328,-19.5389 681.2807,-17.2837 682.1338,-24.2315"/>
</g>
<!-- Node18 -->
<g id="node19" class="node">
<title>Node18</title>
<g id="a_node19"><a xlink:href="_field_utils_8_h.html" target="_top" xlink:title="amr&#45;wind/core/FieldUtils.H">
<polygon fill="#ffffff" stroke="#000000" points="618.1394,-62 618.1394,-81 751.1394,-81 751.1394,-62 618.1394,-62"/>
<text text-anchor="middle" x="684.6394" y="-69" font-family="Helvetica,sans-Serif" font-size="10.00" fill="#000000">amr&#45;wind/core/FieldUtils.H</text>
</a>
</g>
</g>
<!-- Node14&#45;&gt;Node18 -->
<g id="edge19" class="edge">
<title>Node14&#45;&gt;Node18</title>
<path fill="none" stroke="#191970" d="M912.8105,-128.9717C865.4775,-117.0495 784.3727,-96.6208 732.6932,-83.6038"/>
<polygon fill="#191970" stroke="#191970" points="733.3204,-80.1525 722.7684,-81.1039 731.6106,-86.9405 733.3204,-80.1525"/>
</g>
<!-- Node19 -->
<g id="node20" class="node">
<title>Node19</title>
<polygon fill="#ffffff" stroke="#bfbfbf" points="872.6394,-.5 872.6394,-19.5 976.6394,-19.5 976.6394,-.5 872.6394,-.5"/>
<text text-anchor="middle" x="924.6394" y="-7.5" font-family="Helvetica,sans-Serif" font-size="10.00" fill="#000000">AMReX_MultiFab.H</text>
</g>
<!-- Node14&#45;&gt;Node19 -->
<g id="edge41" class="edge">
<title>Node14&#45;&gt;Node19</title>
<path fill="none" stroke="#191970" d="M900.5643,-128.9682C876.9223,-121.685 850.8327,-108.9863 836.6394,-87 829.1669,-75.4246 829.5018,-67.7849 836.6394,-56 845.8219,-40.8386 861.8241,-30.4355 877.6865,-23.4143"/>
<polygon fill="#191970" stroke="#191970" points="879.0018,-26.6579 886.9573,-19.6607 876.3747,-20.1695 879.0018,-26.6579"/>
</g>
<!-- Node21 -->
<g id="node22" class="node">
<title>Node21</title>
<g id="a_node22"><a xlink:href="_field_8_h.html" target="_top" xlink:title="amr&#45;wind/core/Field.H">
<polygon fill="#ffffff" stroke="#000000" points="1248.1394,-62 1248.1394,-81 1361.1394,-81 1361.1394,-62 1248.1394,-62"/>
<text text-anchor="middle" x="1304.6394" y="-69" font-family="Helvetica,sans-Serif" font-size="10.00" fill="#000000">amr&#45;wind/core/Field.H</text>
</a>
</g>
</g>
<!-- Node14&#45;&gt;Node21 -->
<g id="edge23" class="edge">
<title>Node14&#45;&gt;Node21</title>
<path fill="none" stroke="#191970" d="M1000.983,-128.9717C1064.9844,-116.8584 1175.3823,-95.9639 1243.9638,-82.9838"/>
<polygon fill="#191970" stroke="#191970" points="1245.0085,-86.3483 1254.1831,-81.0496 1243.7067,-79.4704 1245.0085,-86.3483"/>
</g>
<!-- Node25 -->
<g id="node26" class="node">
<title>Node25</title>
<g id="a_node26"><a xlink:href="_int_field_8_h.html" target="_top" xlink:title="amr&#45;wind/core/IntField.H">
<polygon fill="#ffffff" stroke="#000000" points="475.6394,-62 475.6394,-81 599.6394,-81 599.6394,-62 475.6394,-62"/>
<text text-anchor="middle" x="537.6394" y="-69" font-family="Helvetica,sans-Serif" font-size="10.00" fill="#000000">amr&#45;wind/core/IntField.H</text>
</a>
</g>
</g>
<!-- Node14&#45;&gt;Node25 -->
<g id="edge32" class="edge">
<title>Node14&#45;&gt;Node25</title>
<path fill="none" stroke="#191970" d="M882.6116,-129.5927C813.4375,-120.222 703.2678,-104.4346 608.6394,-87 602.3695,-85.8448 595.8086,-84.5418 589.3157,-83.1942"/>
<polygon fill="#191970" stroke="#191970" points="589.7287,-79.7041 579.2203,-81.0549 588.2774,-86.552 589.7287,-79.7041"/>
</g>
<!-- Node26 -->
<g id="node27" class="node">
<title>Node26</title>
<g id="a_node27"><a xlink:href="_scratch_field_8_h.html" target="_top" xlink:title="amr&#45;wind/core/ScratchField.H">
<polygon fill="#ffffff" stroke="#000000" points="845.6394,-62 845.6394,-81 991.6394,-81 991.6394,-62 845.6394,-62"/>
<text text-anchor="middle" x="918.6394" y="-69" font-family="Helvetica,sans-Serif" font-size="10.00" fill="#000000">amr&#45;wind/core/ScratchField.H</text>
</a>
</g>
</g>
<!-- Node14&#45;&gt;Node26 -->
<g id="edge36" class="edge">
<title>Node14&#45;&gt;Node26</title>
<path fill="none" stroke="#191970" d="M946.0545,-128.9005C941.2545,-118.8505 933.5945,-102.8122 927.59,-90.2403"/>
<polygon fill="#191970" stroke="#191970" points="930.6838,-88.5968 923.2157,-81.0817 924.3673,-91.6137 930.6838,-88.5968"/>
</g>
<!-- Node18&#45;&gt;Node17 -->
<g id="edge20" class="edge">
<title>Node18&#45;&gt;Node17</title>
<path fill="none" stroke="#191970" d="M698.3894,-61.8906C712.3384,-52.1421 734.1492,-36.8994 750.5291,-25.4521"/>
<polygon fill="#191970" stroke="#191970" points="752.7942,-28.1392 758.9859,-19.5419 748.7843,-22.4015 752.7942,-28.1392"/>
</g>
<!-- Node18&#45;&gt;Node19 -->
<g id="edge21" class="edge">
<title>Node18&#45;&gt;Node19</title>
<path fill="none" stroke="#191970" d="M721.876,-61.9581C763.7387,-51.2308 831.8022,-33.7895 877.3809,-22.11"/>
<polygon fill="#191970" stroke="#191970" points="878.4972,-25.4371 887.3153,-19.5643 876.7595,-18.6562 878.4972,-25.4371"/>
</g>
<!-- Node20 -->
<g id="node21" class="node">
<title>Node20</title>
<polygon fill="#ffffff" stroke="#bfbfbf" points="556.6394,-.5 556.6394,-19.5 672.6394,-19.5 672.6394,-.5 556.6394,-.5"/>
<text text-anchor="middle" x="614.6394" y="-7.5" font-family="Helvetica,sans-Serif" font-size="10.00" fill="#000000">AMReX_Interpolater.H</text>
</g>
<!-- Node18&#45;&gt;Node20 -->
<g id="edge22" class="edge">
<title>Node18&#45;&gt;Node20</title>
<path fill="none" stroke="#191970" d="M673.7019,-61.8906C662.9773,-52.4683 646.4107,-37.9134 633.5492,-26.6137"/>
<polygon fill="#191970" stroke="#191970" points="635.5536,-23.7158 625.7311,-19.7449 630.9335,-28.9745 635.5536,-23.7158"/>
</g>
<!-- Node21&#45;&gt;Node8 -->
<g id="edge30" class="edge">
<title>Node21&#45;&gt;Node8</title>
<path fill="none" stroke="#191970" d="M1361.2809,-62.8241C1376.6382,-60.5357 1393.2676,-58.1161 1408.6394,-56 1531.9084,-39.0308 1565.3612,-36.6625 1693.2757,-20.0354"/>
<polygon fill="#191970" stroke="#191970" points="1694.0051,-23.47 1703.4686,-18.7064 1693.1,-16.5288 1694.0051,-23.47"/>
</g>
<!-- Node21&#45;&gt;Node15 -->
<g id="edge24" class="edge">
<title>Node21&#45;&gt;Node15</title>
<path fill="none" stroke="#191970" d="M1266.3166,-61.9581C1217.1636,-49.7196 1132.9132,-28.7423 1087.9698,-17.5519"/>
<polygon fill="#191970" stroke="#191970" points="1088.7673,-14.1437 1078.2179,-15.1238 1087.0759,-20.9363 1088.7673,-14.1437"/>
</g>
<!-- Node21&#45;&gt;Node16 -->
<g id="edge26" class="edge">
<title>Node21&#45;&gt;Node16</title>
<path fill="none" stroke="#191970" d="M1319.0144,-61.8906C1333.7325,-52.0519 1356.8226,-36.6167 1373.9983,-25.1351"/>
<polygon fill="#191970" stroke="#191970" points="1375.9969,-28.0091 1382.3653,-19.5419 1372.1066,-22.1896 1375.9969,-28.0091"/>
</g>
<!-- Node21&#45;&gt;Node17 -->
<g id="edge31" class="edge">
<title>Node21&#45;&gt;Node17</title>
<path fill="none" stroke="#191970" d="M1247.9581,-64.9476C1156.3094,-54.3528 974.7421,-33.3634 864.459,-20.6145"/>
<polygon fill="#191970" stroke="#191970" points="864.6795,-17.1168 854.3437,-19.4451 863.8756,-24.0704 864.6795,-17.1168"/>
</g>
<!-- Node21&#45;&gt;Node19 -->
<g id="edge27" class="edge">
<title>Node21&#45;&gt;Node19</title>
<path fill="none" stroke="#191970" d="M1263.0606,-61.9333C1253.4255,-59.8527 1243.1949,-57.7522 1233.6394,-56 1148.4892,-40.3856 1049.3983,-26.3599 986.8522,-18.0119"/>
<polygon fill="#191970" stroke="#191970" points="987.1285,-14.5179 976.7548,-16.6712 986.2071,-21.457 987.1285,-14.5179"/>
</g>
<!-- Node22 -->
<g id="node23" class="node">
<title>Node22</title>
<polygon fill="#ffffff" stroke="#bfbfbf" points="1519.6394,-.5 1519.6394,-19.5 1571.6394,-19.5 1571.6394,-.5 1519.6394,-.5"/>
<text text-anchor="middle" x="1545.6394" y="-7.5" font-family="Helvetica,sans-Serif" font-size="10.00" fill="#000000">memory</text>
</g>
<!-- Node21&#45;&gt;Node22 -->
<g id="edge25" class="edge">
<title>Node21&#45;&gt;Node22</title>
<path fill="none" stroke="#191970" d="M1344.0137,-61.9161C1385.3407,-51.7849 1452.1673,-35.1988 1509.6394,-20 1509.7373,-19.9741 1509.8355,-19.9481 1509.9338,-19.9221"/>
<polygon fill="#191970" stroke="#191970" points="1510.5693,-23.3758 1519.3138,-17.3938 1508.7475,-16.617 1510.5693,-23.3758"/>
</g>
<!-- Node23 -->
<g id="node24" class="node">
<title>Node23</title>
<polygon fill="#ffffff" stroke="#bfbfbf" points="1135.1394,-.5 1135.1394,-19.5 1234.1394,-19.5 1234.1394,-.5 1135.1394,-.5"/>
<text text-anchor="middle" x="1184.6394" y="-7.5" font-family="Helvetica,sans-Serif" font-size="10.00" fill="#000000">AMReX_BCRec.H</text>
</g>
<!-- Node21&#45;&gt;Node23 -->
<g id="edge28" class="edge">
<title>Node21&#45;&gt;Node23</title>
<path fill="none" stroke="#191970" d="M1285.8894,-61.8906C1266.1634,-51.7811 1234.9082,-35.7628 1212.3393,-24.1962"/>
<polygon fill="#191970" stroke="#191970" points="1213.7534,-20.9881 1203.2577,-19.5419 1210.5607,-27.2176 1213.7534,-20.9881"/>
</g>
<!-- Node24 -->
<g id="node25" class="node">
<title>Node24</title>
<polygon fill="#ffffff" stroke="#bfbfbf" points="1252.1394,-.5 1252.1394,-19.5 1337.1394,-19.5 1337.1394,-.5 1252.1394,-.5"/>
<text text-anchor="middle" x="1294.6394" y="-7.5" font-family="Helvetica,sans-Serif" font-size="10.00" fill="#000000">AMReX_Gpu.H</text>
</g>
<!-- Node21&#45;&gt;Node24 -->
<g id="edge29" class="edge">
<title>Node21&#45;&gt;Node24</title>
<path fill="none" stroke="#191970" d="M1303.0769,-61.8906C1301.6907,-53.3657 1299.6213,-40.6392 1297.879,-29.9235"/>
<polygon fill="#191970" stroke="#191970" points="1301.2835,-29.0535 1296.2239,-19.7449 1294.3743,-30.177 1301.2835,-29.0535"/>
</g>
<!-- Node25&#45;&gt;Node6 -->
<g id="edge35" class="edge">
<title>Node25&#45;&gt;Node6</title>
<path fill="none" stroke="#191970" d="M517.6394,-61.8906C496.4105,-51.6908 462.6631,-35.4763 438.5434,-23.8875"/>
<polygon fill="#191970" stroke="#191970" points="440.0283,-20.7179 429.4989,-19.5419 436.9967,-27.0275 440.0283,-20.7179"/>
</g>
<!-- Node25&#45;&gt;Node15 -->
<g id="edge33" class="edge">
<title>Node25&#45;&gt;Node15</title>
<path fill="none" stroke="#191970" d="M577.2859,-61.9667C587.4598,-59.7624 598.4178,-57.5979 608.6394,-56 774.9374,-30.0035 818.4646,-39.5821 985.6394,-20 999.1529,-18.4171 1014.0542,-16.3938 1026.7776,-14.5819"/>
<polygon fill="#191970" stroke="#191970" points="1027.4776,-18.0172 1036.8747,-13.1238 1026.4771,-11.089 1027.4776,-18.0172"/>
</g>
<!-- Node25&#45;&gt;Node17 -->
<g id="edge34" class="edge">
<title>Node25&#45;&gt;Node17</title>
<path fill="none" stroke="#191970" d="M574.1003,-61.9581C615.0908,-51.2308 681.7363,-33.7895 726.3654,-22.11"/>
<polygon fill="#191970" stroke="#191970" points="727.3049,-25.4821 736.0929,-19.5643 725.5326,-18.7101 727.3049,-25.4821"/>
</g>
<!-- Node26&#45;&gt;Node15 -->
<g id="edge37" class="edge">
<title>Node26&#45;&gt;Node15</title>
<path fill="none" stroke="#191970" d="M940.3581,-61.8906C963.7842,-51.5259 1001.2478,-34.9502 1027.5139,-23.3289"/>
<polygon fill="#191970" stroke="#191970" points="1029.251,-26.3877 1036.9798,-19.1408 1026.4187,-19.9862 1029.251,-26.3877"/>
</g>
<!-- Node26&#45;&gt;Node17 -->
<g id="edge38" class="edge">
<title>Node26&#45;&gt;Node17</title>
<path fill="none" stroke="#191970" d="M895.8269,-61.8906C871.2912,-51.5554 832.0951,-35.0447 804.5183,-23.4284"/>
<polygon fill="#191970" stroke="#191970" points="805.8662,-20.1984 795.2917,-19.5419 803.1487,-26.6495 805.8662,-20.1984"/>
</g>
<!-- Node26&#45;&gt;Node19 -->
<g id="edge39" class="edge">
<title>Node26&#45;&gt;Node19</title>
<path fill="none" stroke="#191970" d="M919.5769,-61.8906C920.4086,-53.3657 921.6502,-40.6392 922.6956,-29.9235"/>
<polygon fill="#191970" stroke="#191970" points="926.201,-30.0375 923.6886,-19.7449 919.2341,-29.3577 926.201,-30.0375"/>
</g>
<!-- Node27&#45;&gt;Node8 -->
<g id="edge59" class="edge">
<title>Node27&#45;&gt;Node8</title>
<path fill="none" stroke="#191970" d="M1556.1458,-123.5626C1618.7833,-109.9172 1702.0607,-91.2397 1708.6394,-87 1731.214,-72.4517 1748.5581,-46.1496 1758.4284,-28.3825"/>
<polygon fill="#191970" stroke="#191970" points="1761.5359,-29.9933 1763.1287,-19.5188 1755.3516,-26.7138 1761.5359,-29.9933"/>
</g>
<!-- Node27&#45;&gt;Node15 -->
<g id="edge44" class="edge">
<title>Node27&#45;&gt;Node15</title>
<path fill="none" stroke="#191970" d="M1417.0186,-127.8313C1366.7877,-119.2221 1297.7044,-105.4968 1238.6394,-87 1223.5033,-82.26 1135.0084,-43.8459 1087.6028,-23.1303"/>
<polygon fill="#191970" stroke="#191970" points="1088.7164,-19.7973 1078.1519,-18.997 1085.9115,-26.2108 1088.7164,-19.7973"/>
</g>
<!-- Node27&#45;&gt;Node17 -->
<g id="edge58" class="edge">
<title>Node27&#45;&gt;Node17</title>
<path fill="none" stroke="#191970" d="M1417.1032,-136.0372C1259.971,-130.0379 887.2047,-113.2093 836.6394,-87 811.784,-74.1168 792.872,-46.9678 782.2627,-28.6018"/>
<polygon fill="#191970" stroke="#191970" points="785.2451,-26.7616 777.3607,-19.6844 779.1108,-30.1337 785.2451,-26.7616"/>
</g>
<!-- Node28 -->
<g id="node29" class="node">
<title>Node28</title>
<g id="a_node29"><a xlink:href="_factory_8_h.html" target="_top" xlink:title="amr&#45;wind/core/Factory.H">
<polygon fill="#ffffff" stroke="#000000" points="1757.1394,-62 1757.1394,-81 1882.1394,-81 1882.1394,-62 1757.1394,-62"/>
<text text-anchor="middle" x="1819.6394" y="-69" font-family="Helvetica,sans-Serif" font-size="10.00" fill="#000000">amr&#45;wind/core/Factory.H</text>
</a>
</g>
</g>
<!-- Node27&#45;&gt;Node28 -->
<g id="edge45" class="edge">
<title>Node27&#45;&gt;Node28</title>
<path fill="none" stroke="#191970" d="M1556.1782,-124.5131C1607.6661,-114.1564 1679.529,-99.7 1742.6394,-87 1748.9558,-85.7289 1755.5638,-84.399 1762.1403,-83.0753"/>
<polygon fill="#191970" stroke="#191970" points="1763.2901,-86.4141 1772.4028,-81.0096 1761.9087,-79.5518 1763.2901,-86.4141"/>
</g>
<!-- Node32 -->
<g id="node33" class="node">
<title>Node32</title>
<g id="a_node33"><a xlink:href="_coll_mgr_8_h.html" target="_top" xlink:title="amr&#45;wind/core/CollMgr.H">
<polygon fill="#ffffff" stroke="#000000" points="1575.1394,-62 1575.1394,-81 1700.1394,-81 1700.1394,-62 1575.1394,-62"/>
<text text-anchor="middle" x="1637.6394" y="-69" font-family="Helvetica,sans-Serif" font-size="10.00" fill="#000000">amr&#45;wind/core/CollMgr.H</text>
</a>
</g>
</g>
<!-- Node27&#45;&gt;Node32 -->
<g id="edge51" class="edge">
<title>Node27&#45;&gt;Node32</title>
<path fill="none" stroke="#191970" d="M1520.5267,-123.4639C1546.3191,-112.0196 1581.5339,-96.3945 1606.5965,-85.274"/>
<polygon fill="#191970" stroke="#191970" points="1608.2736,-88.359 1615.9947,-81.1039 1605.4346,-81.9605 1608.2736,-88.359"/>
</g>
<!-- Node34 -->
<g id="node35" class="node">
<title>Node34</title>
<g id="a_node35"><a xlink:href="_p_d_e_fields_8_h.html" target="_top" xlink:title="amr&#45;wind/equation_systems\l/PDEFields.H">
<polygon fill="#ffffff" stroke="#000000" points="1418.1394,-56.5 1418.1394,-86.5 1557.1394,-86.5 1557.1394,-56.5 1418.1394,-56.5"/>
<text text-anchor="start" x="1426.1394" y="-74.5" font-family="Helvetica,sans-Serif" font-size="10.00" fill="#000000">amr&#45;wind/equation_systems</text>
<text text-anchor="middle" x="1487.6394" y="-63.5" font-family="Helvetica,sans-Serif" font-size="10.00" fill="#000000">/PDEFields.H</text>
</a>
</g>
</g>
<!-- Node27&#45;&gt;Node34 -->
<g id="edge56" class="edge">
<title>Node27&#45;&gt;Node34</title>
<path fill="none" stroke="#191970" d="M1486.8663,-123.2967C1486.9826,-115.5013 1487.1274,-105.7991 1487.2602,-96.9064"/>
<polygon fill="#191970" stroke="#191970" points="1490.7636,-96.6943 1487.4133,-86.6432 1483.7644,-96.5898 1490.7636,-96.6943"/>
</g>
<!-- Node28&#45;&gt;Node16 -->
<g id="edge47" class="edge">
<title>Node28&#45;&gt;Node16</title>
<path fill="none" stroke="#191970" d="M1757.1222,-62.7457C1741.3041,-60.5374 1724.3475,-58.1759 1708.6394,-56 1595.3961,-40.3133 1564.2306,-39.5649 1448.3259,-20.2154"/>
<polygon fill="#191970" stroke="#191970" points="1448.7879,-16.744 1438.3462,-18.5386 1447.628,-23.6473 1448.7879,-16.744"/>
</g>
<!-- Node28&#45;&gt;Node22 -->
<g id="edge46" class="edge">
<title>Node28&#45;&gt;Node22</title>
<path fill="none" stroke="#191970" d="M1770.9006,-61.9797C1724.6248,-52.7205 1652.9103,-37.803 1581.9653,-20.2208"/>
<polygon fill="#191970" stroke="#191970" points="1582.5126,-16.75 1571.9625,-17.7225 1580.8163,-23.5414 1582.5126,-16.75"/>
</g>
<!-- Node29 -->
<g id="node30" class="node">
<title>Node29</title>
<polygon fill="#ffffff" stroke="#bfbfbf" points="2035.6394,-.5 2035.6394,-19.5 2089.6394,-19.5 2089.6394,-.5 2035.6394,-.5"/>
<text text-anchor="middle" x="2062.6394" y="-7.5" font-family="Helvetica,sans-Serif" font-size="10.00" fill="#000000">iostream</text>
</g>
<!-- Node28&#45;&gt;Node29 -->
<g id="edge48" class="edge">
<title>Node28&#45;&gt;Node29</title>
<path fill="none" stroke="#191970" d="M1859.4042,-61.9457C1899.1017,-52.3322 1962.0935,-36.8745 2025.7314,-20.1922"/>
<polygon fill="#191970" stroke="#191970" points="2026.7531,-23.5426 2035.5339,-17.614 2024.9725,-16.7728 2026.7531,-23.5426"/>
</g>
<!-- Node30 -->
<g id="node31" class="node">
<title>Node30</title>
<polygon fill="#ffffff" stroke="#bfbfbf" points="1850.1394,-.5 1850.1394,-19.5 1937.1394,-19.5 1937.1394,-.5 1850.1394,-.5"/>
<text text-anchor="middle" x="1893.6394" y="-7.5" font-family="Helvetica,sans-Serif" font-size="10.00" fill="#000000">AMReX_Print.H</text>
</g>
<!-- Node28&#45;&gt;Node30 -->
<g id="edge49" class="edge">
<title>Node28&#45;&gt;Node30</title>
<path fill="none" stroke="#191970" d="M1831.2019,-61.8906C1842.6472,-52.3786 1860.3867,-37.6357 1874.0363,-26.2917"/>
<polygon fill="#191970" stroke="#191970" points="1876.4602,-28.8283 1881.9138,-19.7449 1871.986,-23.4447 1876.4602,-28.8283"/>
</g>
<!-- Node31 -->
<g id="node32" class="node">
<title>Node31</title>
<polygon fill="#ffffff" stroke="#bfbfbf" points="1955.6394,-.5 1955.6394,-19.5 2017.6394,-19.5 2017.6394,-.5 1955.6394,-.5"/>
<text text-anchor="middle" x="1986.6394" y="-7.5" font-family="Helvetica,sans-Serif" font-size="10.00" fill="#000000">AMReX.H</text>
</g>
<!-- Node28&#45;&gt;Node31 -->
<g id="edge50" class="edge">
<title>Node28&#45;&gt;Node31</title>
<path fill="none" stroke="#191970" d="M1845.7331,-61.8906C1874.0429,-51.4652 1919.4162,-34.7559 1950.9985,-23.1252"/>
<polygon fill="#191970" stroke="#191970" points="1952.5545,-26.2821 1960.7288,-19.5419 1950.1354,-19.7133 1952.5545,-26.2821"/>
</g>
<!-- Node32&#45;&gt;Node15 -->
<g id="edge52" class="edge">
<title>Node32&#45;&gt;Node15</title>
<path fill="none" stroke="#191970" d="M1597.8205,-61.9588C1587.3972,-59.728 1576.1378,-57.5528 1565.6394,-56 1371.5419,-27.2923 1320.5787,-42.2852 1125.6394,-20 1113.4766,-18.6096 1100.1412,-16.7275 1088.5265,-14.9712"/>
<polygon fill="#191970" stroke="#191970" points="1088.8438,-11.4788 1078.4267,-13.4113 1087.7753,-18.3968 1088.8438,-11.4788"/>
</g>
<!-- Node32&#45;&gt;Node16 -->
<g id="edge54" class="edge">
<title>Node32&#45;&gt;Node16</title>
<path fill="none" stroke="#191970" d="M1600.2475,-61.9581C1558.2104,-51.2308 1489.8634,-33.7895 1444.0948,-22.11"/>
<polygon fill="#191970" stroke="#191970" points="1444.6738,-18.6457 1434.1189,-19.5643 1442.943,-25.4283 1444.6738,-18.6457"/>
</g>
<!-- Node32&#45;&gt;Node22 -->
<g id="edge53" class="edge">
<title>Node32&#45;&gt;Node22</title>
<path fill="none" stroke="#191970" d="M1623.2644,-61.8906C1608.5462,-52.0519 1585.4561,-36.6167 1568.2804,-25.1351"/>
<polygon fill="#191970" stroke="#191970" points="1570.1721,-22.1896 1559.9134,-19.5419 1566.2819,-28.0091 1570.1721,-22.1896"/>
</g>
<!-- Node33 -->
<g id="node34" class="node">
<title>Node33</title>
<polygon fill="#ffffff" stroke="#bfbfbf" points="1590.1394,-.5 1590.1394,-19.5 1685.1394,-19.5 1685.1394,-.5 1590.1394,-.5"/>
<text text-anchor="middle" x="1637.6394" y="-7.5" font-family="Helvetica,sans-Serif" font-size="10.00" fill="#000000">AMReX_Vector.H</text>
</g>
<!-- Node32&#45;&gt;Node33 -->
<g id="edge55" class="edge">
<title>Node32&#45;&gt;Node33</title>
<path fill="none" stroke="#191970" d="M1637.6394,-61.8906C1637.6394,-53.3657 1637.6394,-40.6392 1637.6394,-29.9235"/>
<polygon fill="#191970" stroke="#191970" points="1641.1395,-29.7448 1637.6394,-19.7449 1634.1395,-29.7449 1641.1395,-29.7448"/>
</g>
<!-- Node35 -->
<g id="node36" class="node">
<title>Node35</title>
<polygon fill="#ffffff" stroke="#bfbfbf" points="1456.1394,-.5 1456.1394,-19.5 1501.1394,-19.5 1501.1394,-.5 1456.1394,-.5"/>
<text text-anchor="middle" x="1478.6394" y="-7.5" font-family="Helvetica,sans-Serif" font-size="10.00" fill="#000000">iosfwd</text>
</g>
<!-- Node34&#45;&gt;Node35 -->
<g id="edge57" class="edge">
<title>Node34&#45;&gt;Node35</title>
<path fill="none" stroke="#191970" d="M1485.4146,-56.2977C1484.2434,-48.2945 1482.7932,-38.3843 1481.5353,-29.7889"/>
<polygon fill="#191970" stroke="#191970" points="1484.9916,-29.2347 1480.0804,-19.8469 1478.0653,-30.2484 1484.9916,-29.2347"/>
</g>
<!-- Node36&#45;&gt;Node19 -->
<g id="edge63" class="edge">
<title>Node36&#45;&gt;Node19</title>
<path fill="none" stroke="#191970" d="M1596.0809,-128.9307C1585.8389,-126.7786 1574.8725,-124.6473 1564.6394,-123 1420.7224,-99.8334 1379.9263,-122.8717 1238.6394,-87 1203.2815,-78.0229 1197.6051,-66.4003 1162.6394,-56 1104.0798,-38.5819 1035.3993,-26.126 986.9088,-18.6057"/>
<polygon fill="#191970" stroke="#191970" points="987.2922,-15.1237 976.8788,-17.0758 986.2367,-22.0437 987.2922,-15.1237"/>
</g>
<!-- Node36&#45;&gt;Node28 -->
<g id="edge61" class="edge">
<title>Node36&#45;&gt;Node28</title>
<path fill="none" stroke="#191970" d="M1663.7155,-128.9005C1695.3404,-117.2584 1748.7938,-97.5805 1784.1518,-84.5641"/>
<polygon fill="#191970" stroke="#191970" points="1785.4364,-87.8209 1793.6116,-81.0817 1783.0181,-81.2519 1785.4364,-87.8209"/>
</g>
<!-- Node36&#45;&gt;Node32 -->
<g id="edge62" class="edge">
<title>Node36&#45;&gt;Node32</title>
<path fill="none" stroke="#191970" d="M1637.6394,-128.9005C1637.6394,-119.149 1637.6394,-103.7597 1637.6394,-91.3695"/>
<polygon fill="#191970" stroke="#191970" points="1641.1395,-91.0816 1637.6394,-81.0817 1634.1395,-91.0817 1641.1395,-91.0816"/>
</g>
<!-- Node37 -->
<g id="node38" class="node">
<title>Node37</title>
<polygon fill="#ffffff" stroke="#bfbfbf" points="1900.6394,-62 1900.6394,-81 2010.6394,-81 2010.6394,-62 1900.6394,-62"/>
<text text-anchor="middle" x="1955.6394" y="-69" font-family="Helvetica,sans-Serif" font-size="10.00" fill="#000000">AMReX_Geometry.H</text>
</g>
<!-- Node36&#45;&gt;Node37 -->
<g id="edge64" class="edge">
<title>Node36&#45;&gt;Node37</title>
<path fill="none" stroke="#191970" d="M1687.4002,-128.9843C1738.6937,-119.041 1820.9257,-102.726 1891.6394,-87 1896.6717,-85.8809 1901.9169,-84.6751 1907.144,-83.4478"/>
<polygon fill="#191970" stroke="#191970" points="1908.1929,-86.7961 1917.1126,-81.0786 1906.5742,-79.9858 1908.1929,-86.7961"/>
</g>
</g>
</svg>
