<?xml version="1.0" encoding="UTF-8" standalone="no"?>
<!DOCTYPE svg PUBLIC "-//W3C//DTD SVG 1.1//EN"
 "http://www.w3.org/Graphics/SVG/1.1/DTD/svg11.dtd">
<!-- Generated by graphviz version 2.40.1 (20161225.0304)
 -->
<!-- Title: diffusion.H Pages: 1 -->
<svg width="1411pt" height="196pt"
 viewBox="0.00 0.00 1410.50 196.00" xmlns="http://www.w3.org/2000/svg" xmlns:xlink="http://www.w3.org/1999/xlink">
<g id="graph0" class="graph" transform="scale(1 1) rotate(0) translate(4 192)">
<title>diffusion.H</title>
<polygon fill="#ffffff" stroke="transparent" points="-4,4 -4,-192 1406.5,-192 1406.5,4 -4,4"/>
<!-- Node0 -->
<g id="node1" class="node">
<title>Node0</title>
<polygon fill="#bfbfbf" stroke="#000000" points="492.5,-168.5 492.5,-187.5 556.5,-187.5 556.5,-168.5 492.5,-168.5"/>
<text text-anchor="middle" x="524.5" y="-175.5" font-family="Helvetica,sans-Serif" font-size="10.00" fill="#000000">diffusion.H</text>
</g>
<!-- Node1 -->
<g id="node2" class="node">
<title>Node1</title>
<polygon fill="#ffffff" stroke="#bfbfbf" points="409.5,-112.5 409.5,-131.5 505.5,-131.5 505.5,-112.5 409.5,-112.5"/>
<text text-anchor="middle" x="457.5" y="-119.5" font-family="Helvetica,sans-Serif" font-size="10.00" fill="#000000">AMReX_MLMG.H</text>
</g>
<!-- Node0&#45;&gt;Node1 -->
<g id="edge1" class="edge">
<title>Node0&#45;&gt;Node1</title>
<path fill="none" stroke="#191970" d="M512.8295,-168.2455C502.9339,-159.9746 488.5373,-147.9416 476.9099,-138.2232"/>
<polygon fill="#191970" stroke="#191970" points="478.9542,-135.3703 469.0368,-131.6427 474.465,-140.7413 478.9542,-135.3703"/>
</g>
<!-- Node2 -->
<g id="node3" class="node">
<title>Node2</title>
<g id="a_node3"><a xlink:href="_field_repo_8_h.html" target="_top" xlink:title="amr&#45;wind/core/FieldRepo.H">
<polygon fill="#ffffff" stroke="#000000" points="523.5,-112.5 523.5,-131.5 659.5,-131.5 659.5,-112.5 523.5,-112.5"/>
<text text-anchor="middle" x="591.5" y="-119.5" font-family="Helvetica,sans-Serif" font-size="10.00" fill="#000000">amr&#45;wind/core/FieldRepo.H</text>
</a>
</g>
</g>
<!-- Node0&#45;&gt;Node2 -->
<g id="edge2" class="edge">
<title>Node0&#45;&gt;Node2</title>
<path fill="none" stroke="#191970" d="M536.1705,-168.2455C546.0661,-159.9746 560.4627,-147.9416 572.0901,-138.2232"/>
<polygon fill="#191970" stroke="#191970" points="574.535,-140.7413 579.9632,-131.6427 570.0458,-135.3703 574.535,-140.7413"/>
</g>
<!-- Node3 -->
<g id="node4" class="node">
<title>Node3</title>
<polygon fill="#ffffff" stroke="#bfbfbf" points="125,-.5 125,-19.5 166,-19.5 166,-.5 125,-.5"/>
<text text-anchor="middle" x="145.5" y="-7.5" font-family="Helvetica,sans-Serif" font-size="10.00" fill="#000000">string</text>
</g>
<!-- Node2&#45;&gt;Node3 -->
<g id="edge3" class="edge">
<title>Node2&#45;&gt;Node3</title>
<path fill="none" stroke="#191970" d="M527.9379,-112.4799C461.2684,-102.2462 361.0553,-86.0923 323.5,-76 270.3405,-61.7144 210.7825,-37.9775 175.8006,-23.2016"/>
<polygon fill="#191970" stroke="#191970" points="176.761,-19.8063 166.1893,-19.1056 174.0165,-26.246 176.761,-19.8063"/>
</g>
<!-- Node4 -->
<g id="node5" class="node">
<title>Node4</title>
<polygon fill="#ffffff" stroke="#bfbfbf" points="882,-.5 882,-19.5 965,-19.5 965,-.5 882,-.5"/>
<text text-anchor="middle" x="923.5" y="-7.5" font-family="Helvetica,sans-Serif" font-size="10.00" fill="#000000">unordered_map</text>
</g>
<!-- Node2&#45;&gt;Node4 -->
<g id="edge4" class="edge">
<title>Node2&#45;&gt;Node4</title>
<path fill="none" stroke="#191970" d="M631.0158,-112.4426C665.0935,-103.886 715.4621,-90.4845 758.5,-76 805.9342,-60.0359 859.5065,-37.8024 892.3915,-23.6551"/>
<polygon fill="#191970" stroke="#191970" points="894.1151,-26.723 901.9033,-19.54 891.3356,-20.2984 894.1151,-26.723"/>
</g>
<!-- Node5 -->
<g id="node6" class="node">
<title>Node5</title>
<g id="a_node6"><a xlink:href="_field_desc_types_8_h.html" target="_top" xlink:title="amr&#45;wind/core/FieldDescTypes.H">
<polygon fill="#ffffff" stroke="#000000" points="444,-.5 444,-19.5 607,-19.5 607,-.5 444,-.5"/>
<text text-anchor="middle" x="525.5" y="-7.5" font-family="Helvetica,sans-Serif" font-size="10.00" fill="#000000">amr&#45;wind/core/FieldDescTypes.H</text>
</a>
</g>
</g>
<!-- Node2&#45;&gt;Node5 -->
<g id="edge5" class="edge">
<title>Node2&#45;&gt;Node5</title>
<path fill="none" stroke="#191970" d="M585.8729,-112.4509C574.9136,-93.8533 550.5399,-52.4919 536.3407,-28.3964"/>
<polygon fill="#191970" stroke="#191970" points="539.2052,-26.3633 531.1129,-19.5249 533.1745,-29.9172 539.2052,-26.3633"/>
</g>
<!-- Node6 -->
<g id="node7" class="node">
<title>Node6</title>
<g id="a_node7"><a xlink:href="_field_utils_8_h.html" target="_top" xlink:title="amr&#45;wind/core/FieldUtils.H">
<polygon fill="#ffffff" stroke="#000000" points="588,-56.5 588,-75.5 721,-75.5 721,-56.5 588,-56.5"/>
<text text-anchor="middle" x="654.5" y="-63.5" font-family="Helvetica,sans-Serif" font-size="10.00" fill="#000000">amr&#45;wind/core/FieldUtils.H</text>
</a>
</g>
</g>
<!-- Node2&#45;&gt;Node6 -->
<g id="edge6" class="edge">
<title>Node2&#45;&gt;Node6</title>
<path fill="none" stroke="#191970" d="M602.4738,-112.2455C611.6882,-104.0549 625.0532,-92.1749 635.9297,-82.5069"/>
<polygon fill="#191970" stroke="#191970" points="638.5032,-84.9023 643.652,-75.6427 633.8526,-79.6704 638.5032,-84.9023"/>
</g>
<!-- Node7 -->
<g id="node8" class="node">
<title>Node7</title>
<polygon fill="#ffffff" stroke="#bfbfbf" points="759.5,-.5 759.5,-19.5 863.5,-19.5 863.5,-.5 759.5,-.5"/>
<text text-anchor="middle" x="811.5" y="-7.5" font-family="Helvetica,sans-Serif" font-size="10.00" fill="#000000">AMReX_MultiFab.H</text>
</g>
<!-- Node2&#45;&gt;Node7 -->
<g id="edge30" class="edge">
<title>Node2&#45;&gt;Node7</title>
<path fill="none" stroke="#191970" d="M633.2683,-112.4415C661.7547,-104.9174 699.7437,-92.8682 730.5,-76 754.8789,-62.6295 779.1029,-41.6088 794.6175,-26.8925"/>
<polygon fill="#191970" stroke="#191970" points="797.1446,-29.3174 801.8915,-19.8454 792.2739,-24.2899 797.1446,-29.3174"/>
</g>
<!-- Node9 -->
<g id="node10" class="node">
<title>Node9</title>
<g id="a_node10"><a xlink:href="_field_8_h.html" target="_top" xlink:title="amr&#45;wind/core/Field.H">
<polygon fill="#ffffff" stroke="#000000" points="863,-56.5 863,-75.5 976,-75.5 976,-56.5 863,-56.5"/>
<text text-anchor="middle" x="919.5" y="-63.5" font-family="Helvetica,sans-Serif" font-size="10.00" fill="#000000">amr&#45;wind/core/Field.H</text>
</a>
</g>
</g>
<!-- Node2&#45;&gt;Node9 -->
<g id="edge10" class="edge">
<title>Node2&#45;&gt;Node9</title>
<path fill="none" stroke="#191970" d="M647.5125,-112.4369C704.5906,-102.6918 793.0842,-87.5832 853.5224,-77.2645"/>
<polygon fill="#191970" stroke="#191970" points="854.4502,-80.6568 863.7185,-75.5237 853.2721,-73.7566 854.4502,-80.6568"/>
</g>
<!-- Node14 -->
<g id="node15" class="node">
<title>Node14</title>
<g id="a_node15"><a xlink:href="_int_field_8_h.html" target="_top" xlink:title="amr&#45;wind/core/IntField.H">
<polygon fill="#ffffff" stroke="#000000" points="94.5,-56.5 94.5,-75.5 218.5,-75.5 218.5,-56.5 94.5,-56.5"/>
<text text-anchor="middle" x="156.5" y="-63.5" font-family="Helvetica,sans-Serif" font-size="10.00" fill="#000000">amr&#45;wind/core/IntField.H</text>
</a>
</g>
</g>
<!-- Node2&#45;&gt;Node14 -->
<g id="edge19" class="edge">
<title>Node2&#45;&gt;Node14</title>
<path fill="none" stroke="#191970" d="M523.4805,-113.1612C520.4456,-112.7684 517.4412,-112.38 514.5,-112 415.5789,-99.2213 301.2693,-84.5501 228.9493,-75.2799"/>
<polygon fill="#191970" stroke="#191970" points="228.9545,-71.752 218.5907,-73.9522 228.0646,-78.6952 228.9545,-71.752"/>
</g>
<!-- Node15 -->
<g id="node16" class="node">
<title>Node15</title>
<polygon fill="#ffffff" stroke="#bfbfbf" points="0,-.5 0,-19.5 107,-19.5 107,-.5 0,-.5"/>
<text text-anchor="middle" x="53.5" y="-7.5" font-family="Helvetica,sans-Serif" font-size="10.00" fill="#000000">AMReX_iMultiFab.H</text>
</g>
<!-- Node2&#45;&gt;Node15 -->
<g id="edge31" class="edge">
<title>Node2&#45;&gt;Node15</title>
<path fill="none" stroke="#191970" d="M523.4997,-112.9986C520.4596,-112.6498 517.4489,-112.3151 514.5,-112 419.373,-101.8369 164.3757,-130.1393 85.5,-76 69.9551,-65.3302 61.6872,-44.9248 57.4787,-29.6146"/>
<polygon fill="#191970" stroke="#191970" points="60.8098,-28.4943 55.0857,-19.5789 54.0007,-30.118 60.8098,-28.4943"/>
</g>
<!-- Node16 -->
<g id="node17" class="node">
<title>Node16</title>
<g id="a_node17"><a xlink:href="_scratch_field_8_h.html" target="_top" xlink:title="amr&#45;wind/core/ScratchField.H">
<polygon fill="#ffffff" stroke="#000000" points="332.5,-56.5 332.5,-75.5 478.5,-75.5 478.5,-56.5 332.5,-56.5"/>
<text text-anchor="middle" x="405.5" y="-63.5" font-family="Helvetica,sans-Serif" font-size="10.00" fill="#000000">amr&#45;wind/core/ScratchField.H</text>
</a>
</g>
</g>
<!-- Node2&#45;&gt;Node16 -->
<g id="edge23" class="edge">
<title>Node2&#45;&gt;Node16</title>
<path fill="none" stroke="#191970" d="M559.5255,-112.3733C528.3287,-102.9807 480.729,-88.6496 446.7068,-78.4064"/>
<polygon fill="#191970" stroke="#191970" points="447.6418,-75.0327 437.0573,-75.5011 445.6237,-81.7355 447.6418,-75.0327"/>
</g>
<!-- Node19 -->
<g id="node20" class="node">
<title>Node19</title>
<polygon fill="#ffffff" stroke="#bfbfbf" points="994.5,-56.5 994.5,-75.5 1100.5,-75.5 1100.5,-56.5 994.5,-56.5"/>
<text text-anchor="middle" x="1047.5" y="-63.5" font-family="Helvetica,sans-Serif" font-size="10.00" fill="#000000">AMReX_AmrCore.H</text>
</g>
<!-- Node2&#45;&gt;Node19 -->
<g id="edge29" class="edge">
<title>Node2&#45;&gt;Node19</title>
<path fill="none" stroke="#191970" d="M659.5933,-114.9633C736.0782,-106.8535 864.1725,-92.6555 984.3111,-76.1174"/>
<polygon fill="#191970" stroke="#191970" points="984.9977,-79.5558 994.4231,-74.7171 984.0375,-72.622 984.9977,-79.5558"/>
</g>
<!-- Node6&#45;&gt;Node5 -->
<g id="edge7" class="edge">
<title>Node6&#45;&gt;Node5</title>
<path fill="none" stroke="#191970" d="M632.3241,-56.3733C611.5234,-47.3435 580.2083,-33.7494 556.8542,-23.6111"/>
<polygon fill="#191970" stroke="#191970" points="557.9532,-20.2727 547.3865,-19.5011 555.1657,-26.6938 557.9532,-20.2727"/>
</g>
<!-- Node6&#45;&gt;Node7 -->
<g id="edge8" class="edge">
<title>Node6&#45;&gt;Node7</title>
<path fill="none" stroke="#191970" d="M681.4893,-56.3733C707.3699,-47.1419 746.6248,-33.1402 775.2289,-22.9375"/>
<polygon fill="#191970" stroke="#191970" points="776.62,-26.1573 784.8629,-19.5011 774.2683,-19.5642 776.62,-26.1573"/>
</g>
<!-- Node8 -->
<g id="node9" class="node">
<title>Node8</title>
<polygon fill="#ffffff" stroke="#bfbfbf" points="625.5,-.5 625.5,-19.5 741.5,-19.5 741.5,-.5 625.5,-.5"/>
<text text-anchor="middle" x="683.5" y="-7.5" font-family="Helvetica,sans-Serif" font-size="10.00" fill="#000000">AMReX_Interpolater.H</text>
</g>
<!-- Node6&#45;&gt;Node8 -->
<g id="edge9" class="edge">
<title>Node6&#45;&gt;Node8</title>
<path fill="none" stroke="#191970" d="M659.5514,-56.2455C663.5019,-48.617 669.1097,-37.7881 673.9058,-28.5267"/>
<polygon fill="#191970" stroke="#191970" points="677.0159,-30.1321 678.5065,-19.6427 670.7999,-26.9131 677.0159,-30.1321"/>
</g>
<!-- Node9&#45;&gt;Node3 -->
<g id="edge11" class="edge">
<title>Node9&#45;&gt;Node3</title>
<path fill="none" stroke="#191970" d="M862.9176,-62.9044C703.6922,-54.1428 258.5345,-29.2822 176.3952,-19.2126"/>
<polygon fill="#191970" stroke="#191970" points="176.7031,-15.7198 166.2951,-17.701 175.6669,-22.6427 176.7031,-15.7198"/>
</g>
<!-- Node9&#45;&gt;Node4 -->
<g id="edge13" class="edge">
<title>Node9&#45;&gt;Node4</title>
<path fill="none" stroke="#191970" d="M920.1967,-56.2455C920.7187,-48.9382 921.4504,-38.6944 922.0925,-29.7046"/>
<polygon fill="#191970" stroke="#191970" points="925.5898,-29.8667 922.8112,-19.6427 918.6076,-29.3679 925.5898,-29.8667"/>
</g>
<!-- Node9&#45;&gt;Node5 -->
<g id="edge18" class="edge">
<title>Node9&#45;&gt;Node5</title>
<path fill="none" stroke="#191970" d="M862.6298,-57.9169C794.2046,-48.1915 679.0156,-31.8195 602.6255,-20.962"/>
<polygon fill="#191970" stroke="#191970" points="602.9717,-17.4761 592.5787,-19.534 601.9866,-24.4065 602.9717,-17.4761"/>
</g>
<!-- Node9&#45;&gt;Node7 -->
<g id="edge14" class="edge">
<title>Node9&#45;&gt;Node7</title>
<path fill="none" stroke="#191970" d="M900.6878,-56.2455C883.6527,-47.4125 858.3425,-34.2887 839.0319,-24.2758"/>
<polygon fill="#191970" stroke="#191970" points="840.5853,-21.1388 830.0966,-19.6427 837.363,-27.353 840.5853,-21.1388"/>
</g>
<!-- Node10 -->
<g id="node11" class="node">
<title>Node10</title>
<polygon fill="#ffffff" stroke="#bfbfbf" points="983.5,-.5 983.5,-19.5 1035.5,-19.5 1035.5,-.5 983.5,-.5"/>
<text text-anchor="middle" x="1009.5" y="-7.5" font-family="Helvetica,sans-Serif" font-size="10.00" fill="#000000">memory</text>
</g>
<!-- Node9&#45;&gt;Node10 -->
<g id="edge12" class="edge">
<title>Node9&#45;&gt;Node10</title>
<path fill="none" stroke="#191970" d="M935.1768,-56.2455C948.9856,-47.6534 969.3193,-35.0014 985.2292,-25.1018"/>
<polygon fill="#191970" stroke="#191970" points="987.3613,-27.8974 994.0028,-19.6427 983.6632,-21.954 987.3613,-27.8974"/>
</g>
<!-- Node11 -->
<g id="node12" class="node">
<title>Node11</title>
<polygon fill="#ffffff" stroke="#bfbfbf" points="1054,-.5 1054,-19.5 1153,-19.5 1153,-.5 1054,-.5"/>
<text text-anchor="middle" x="1103.5" y="-7.5" font-family="Helvetica,sans-Serif" font-size="10.00" fill="#000000">AMReX_BCRec.H</text>
</g>
<!-- Node9&#45;&gt;Node11 -->
<g id="edge15" class="edge">
<title>Node9&#45;&gt;Node11</title>
<path fill="none" stroke="#191970" d="M951.1307,-56.3733C981.8596,-47.021 1028.676,-32.7725 1062.3022,-22.5385"/>
<polygon fill="#191970" stroke="#191970" points="1063.7344,-25.7612 1072.282,-19.5011 1061.6962,-19.0644 1063.7344,-25.7612"/>
</g>
<!-- Node12 -->
<g id="node13" class="node">
<title>Node12</title>
<polygon fill="#ffffff" stroke="#bfbfbf" points="1171,-.5 1171,-19.5 1256,-19.5 1256,-.5 1171,-.5"/>
<text text-anchor="middle" x="1213.5" y="-7.5" font-family="Helvetica,sans-Serif" font-size="10.00" fill="#000000">AMReX_Gpu.H</text>
</g>
<!-- Node9&#45;&gt;Node12 -->
<g id="edge16" class="edge">
<title>Node9&#45;&gt;Node12</title>
<path fill="none" stroke="#191970" d="M970.2485,-56.4932C1017.2125,-47.6728 1089.2629,-34.084 1160.8342,-20.313"/>
<polygon fill="#191970" stroke="#191970" points="1161.7697,-23.6973 1170.9273,-18.3692 1160.4458,-16.8236 1161.7697,-23.6973"/>
</g>
<!-- Node13 -->
<g id="node14" class="node">
<title>Node13</title>
<g id="a_node14"><a xlink:href="incflo__enums_8_h.html" target="_top" xlink:title="amr&#45;wind/incflo_enums.H">
<polygon fill="#ffffff" stroke="#000000" points="1274.5,-.5 1274.5,-19.5 1402.5,-19.5 1402.5,-.5 1274.5,-.5"/>
<text text-anchor="middle" x="1338.5" y="-7.5" font-family="Helvetica,sans-Serif" font-size="10.00" fill="#000000">amr&#45;wind/incflo_enums.H</text>
</a>
</g>
</g>
<!-- Node9&#45;&gt;Node13 -->
<g id="edge17" class="edge">
<title>Node9&#45;&gt;Node13</title>
<path fill="none" stroke="#191970" d="M976.0135,-57.3519C979.2218,-56.8875 982.4012,-56.4339 985.5,-56 1106.6016,-39.0427 1139.4701,-36.6302 1264.4512,-20.1288"/>
<polygon fill="#191970" stroke="#191970" points="1264.956,-23.5926 1274.41,-18.81 1264.037,-16.6532 1264.956,-23.5926"/>
</g>
<!-- Node14&#45;&gt;Node3 -->
<g id="edge20" class="edge">
<title>Node14&#45;&gt;Node3</title>
<path fill="none" stroke="#191970" d="M154.5839,-56.2455C153.1486,-48.9382 151.1364,-38.6944 149.3705,-29.7046"/>
<polygon fill="#191970" stroke="#191970" points="152.756,-28.7805 147.3941,-19.6427 145.8873,-30.1298 152.756,-28.7805"/>
</g>
<!-- Node14&#45;&gt;Node5 -->
<g id="edge21" class="edge">
<title>Node14&#45;&gt;Node5</title>
<path fill="none" stroke="#191970" d="M218.6786,-56.5637C283.247,-46.7647 384.1931,-31.445 452.5047,-21.0779"/>
<polygon fill="#191970" stroke="#191970" points="453.396,-24.4828 462.7577,-19.5219 452.3457,-17.562 453.396,-24.4828"/>
</g>
<!-- Node14&#45;&gt;Node15 -->
<g id="edge22" class="edge">
<title>Node14&#45;&gt;Node15</title>
<path fill="none" stroke="#191970" d="M138.5588,-56.2455C122.46,-47.4928 98.6121,-34.527 80.2609,-24.5496"/>
<polygon fill="#191970" stroke="#191970" points="81.6929,-21.3444 71.2356,-19.6427 78.3493,-27.4942 81.6929,-21.3444"/>
</g>
<!-- Node16&#45;&gt;Node3 -->
<g id="edge24" class="edge">
<title>Node16&#45;&gt;Node3</title>
<path fill="none" stroke="#191970" d="M347.383,-56.4396C302.8885,-48.6509 239.8735,-36.6115 175.9106,-19.8454"/>
<polygon fill="#191970" stroke="#191970" points="176.6185,-16.4121 166.055,-17.2259 174.8204,-23.1772 176.6185,-16.4121"/>
</g>
<!-- Node16&#45;&gt;Node5 -->
<g id="edge25" class="edge">
<title>Node16&#45;&gt;Node5</title>
<path fill="none" stroke="#191970" d="M426.1287,-56.3733C445.3919,-47.3838 474.3486,-33.8706 496.0419,-23.7471"/>
<polygon fill="#191970" stroke="#191970" points="497.5587,-26.9017 505.1405,-19.5011 494.5985,-20.5584 497.5587,-26.9017"/>
</g>
<!-- Node16&#45;&gt;Node7 -->
<g id="edge26" class="edge">
<title>Node16&#45;&gt;Node7</title>
<path fill="none" stroke="#191970" d="M478.6132,-56.8965C546.2557,-48.3267 649.8706,-34.8267 749.35,-20.1385"/>
<polygon fill="#191970" stroke="#191970" points="749.8941,-23.5962 759.2727,-18.6674 748.8675,-16.6719 749.8941,-23.5962"/>
</g>
<!-- Node17 -->
<g id="node18" class="node">
<title>Node17</title>
<polygon fill="#ffffff" stroke="#bfbfbf" points="184,-.5 184,-19.5 279,-19.5 279,-.5 184,-.5"/>
<text text-anchor="middle" x="231.5" y="-7.5" font-family="Helvetica,sans-Serif" font-size="10.00" fill="#000000">AMReX_Vector.H</text>
</g>
<!-- Node16&#45;&gt;Node17 -->
<g id="edge27" class="edge">
<title>Node16&#45;&gt;Node17</title>
<path fill="none" stroke="#191970" d="M375.5883,-56.3733C346.6548,-47.0613 302.6389,-32.8953 270.8707,-22.671"/>
<polygon fill="#191970" stroke="#191970" points="271.6128,-19.2331 261.0213,-19.5011 269.4682,-25.8965 271.6128,-19.2331"/>
</g>
<!-- Node18 -->
<g id="node19" class="node">
<title>Node18</title>
<polygon fill="#ffffff" stroke="#bfbfbf" points="297.5,-.5 297.5,-19.5 425.5,-19.5 425.5,-.5 297.5,-.5"/>
<text text-anchor="middle" x="361.5" y="-7.5" font-family="Helvetica,sans-Serif" font-size="10.00" fill="#000000">AMReX_PhysBCFunct.H</text>
</g>
<!-- Node16&#45;&gt;Node18 -->
<g id="edge28" class="edge">
<title>Node16&#45;&gt;Node18</title>
<path fill="none" stroke="#191970" d="M397.8358,-56.2455C391.6527,-48.3761 382.7937,-37.101 375.3711,-27.6542"/>
<polygon fill="#191970" stroke="#191970" points="378.0068,-25.3435 369.0764,-19.6427 372.5025,-29.6683 378.0068,-25.3435"/>
</g>
</g>
</svg>
