<?xml version="1.0" encoding="UTF-8" standalone="no"?>
<!DOCTYPE svg PUBLIC "-//W3C//DTD SVG 1.1//EN"
 "http://www.w3.org/Graphics/SVG/1.1/DTD/svg11.dtd">
<!-- Generated by graphviz version 2.40.1 (20161225.0304)
 -->
<!-- Title: equation_systems Pages: 1 -->
<svg width="670pt" height="473pt"
 viewBox="0.00 0.00 670.00 473.19" xmlns="http://www.w3.org/2000/svg" xmlns:xlink="http://www.w3.org/1999/xlink">
<g id="graph0" class="graph" transform="scale(1 1) rotate(0) translate(4 469.1895)">
<title>equation_systems</title>
<polygon fill="#ffffff" stroke="transparent" points="-4,4 -4,-469.1895 666,-469.1895 666,4 -4,4"/>
<g id="clust1" class="cluster">
<title>clusterdir_d85575251dd712327fe3cf057fa568b4</title>
<g id="a_clust1"><a xlink:href="dir_d85575251dd712327fe3cf057fa568b4.html" target="_top" xlink:title="amr&#45;wind">
<polygon fill="#ddddee" stroke="#000000" points="8,-344 8,-431 510,-431 510,-344 8,-344"/>
<text text-anchor="middle" x="259" y="-419" font-family="Helvetica,sans-Serif" font-size="10.00" fill="#000000">amr&#45;wind</text>
</a>
</g>
</g>
<g id="clust2" class="cluster">
<title>clusterdir_4bb30ed846ea1df1fc4d16874a455d91</title>
<g id="a_clust2"><a xlink:href="dir_4bb30ed846ea1df1fc4d16874a455d91.html" target="_top">
<polygon fill="#eeeeff" stroke="#000000" points="16,-352 16,-404 502,-404 502,-352 16,-352"/>
</a>
</g>
</g>
<!-- dir_4bb30ed846ea1df1fc4d16874a455d91 -->
<g id="node1" class="node">
<title>dir_4bb30ed846ea1df1fc4d16874a455d91</title>
<text text-anchor="middle" x="72" y="-375.5" font-family="Helvetica,sans-Serif" font-size="10.00" fill="#000000">equation_systems</text>
</g>
<!-- dir_9ff815a534beac751fa88e427dbab695 -->
<g id="node7" class="node">
<title>dir_9ff815a534beac751fa88e427dbab695</title>
<g id="a_node7"><a xlink:href="dir_9ff815a534beac751fa88e427dbab695.html" target="_top" xlink:title="turbulence">
<polygon fill="#ffffff" stroke="#ff0000" points="662,-396 600,-396 600,-360 662,-360 662,-396"/>
<text text-anchor="middle" x="631" y="-375.5" font-family="Helvetica,sans-Serif" font-size="10.00" fill="#000000">turbulence</text>
</a>
</g>
</g>
<!-- dir_4bb30ed846ea1df1fc4d16874a455d91&#45;&gt;dir_9ff815a534beac751fa88e427dbab695 -->
<g id="edge29" class="edge">
<title>dir_4bb30ed846ea1df1fc4d16874a455d91&#45;&gt;dir_9ff815a534beac751fa88e427dbab695</title>
<path fill="none" stroke="#000000" d="M82.6803,-396.2516C93.95,-413.5106 113.4688,-438.3106 138,-449 183.2261,-468.7072 538.3184,-471.928 582,-449 599.4612,-439.8348 611.9232,-421.3148 619.9093,-405.4877"/>
<polygon fill="#000000" stroke="#000000" points="623.2391,-406.6296 624.308,-396.0888 616.8991,-403.6624 623.2391,-406.6296"/>
<g id="a_edge29&#45;headlabel"><a xlink:href="dir_000002_000021.html" target="_top" xlink:title="2">
<text text-anchor="middle" x="624.2871" y="-408.5888" font-family="Helvetica,sans-Serif" font-size="10.00" fill="#000000">2</text>
</a>
</g>
</g>
<!-- dir_35ffb1505af3943bdf99903da87524fe -->
<g id="node8" class="node">
<title>dir_35ffb1505af3943bdf99903da87524fe</title>
<g id="a_node8"><a xlink:href="dir_35ffb1505af3943bdf99903da87524fe.html" target="_top" xlink:title="convection">
<polygon fill="none" stroke="#000000" points="582,-396 518,-396 518,-360 582,-360 582,-396"/>
<text text-anchor="middle" x="550" y="-375.5" font-family="Helvetica,sans-Serif" font-size="10.00" fill="#000000">convection</text>
</a>
</g>
</g>
<!-- dir_4bb30ed846ea1df1fc4d16874a455d91&#45;&gt;dir_35ffb1505af3943bdf99903da87524fe -->
<g id="edge30" class="edge">
<title>dir_4bb30ed846ea1df1fc4d16874a455d91&#45;&gt;dir_35ffb1505af3943bdf99903da87524fe</title>
<path fill="none" stroke="#000000" d="M82.6803,-396.2516C93.95,-413.5106 113.4688,-438.3106 138,-449 174.568,-464.9344 461.3424,-466.8791 497,-449 515.2761,-439.8362 528.8613,-421.0489 537.7001,-405.1014"/>
<polygon fill="#000000" stroke="#000000" points="540.8542,-406.622 542.3553,-396.1341 534.6414,-403.3968 540.8542,-406.622"/>
<g id="a_edge30&#45;headlabel"><a xlink:href="dir_000002_000015.html" target="_top" xlink:title="3">
<text text-anchor="middle" x="541.718" y="-408.6205" font-family="Helvetica,sans-Serif" font-size="10.00" fill="#000000">3</text>
</a>
</g>
</g>
<!-- dir_ebb19deee3cd40f4ac122fef25c04ca8 -->
<g id="node10" class="node">
<title>dir_ebb19deee3cd40f4ac122fef25c04ca8</title>
<g id="a_node10"><a xlink:href="dir_ebb19deee3cd40f4ac122fef25c04ca8.html" target="_top" xlink:title="boundary_conditions">
<polygon fill="none" stroke="#000000" points="300,-180 194,-180 194,-144 300,-144 300,-180"/>
<text text-anchor="middle" x="247" y="-159.5" font-family="Helvetica,sans-Serif" font-size="10.00" fill="#000000">boundary_conditions</text>
</a>
</g>
</g>
<!-- dir_4bb30ed846ea1df1fc4d16874a455d91&#45;&gt;dir_ebb19deee3cd40f4ac122fef25c04ca8 -->
<g id="edge31" class="edge">
<title>dir_4bb30ed846ea1df1fc4d16874a455d91&#45;&gt;dir_ebb19deee3cd40f4ac122fef25c04ca8</title>
<path fill="none" stroke="#000000" d="M86.6194,-359.9555C117.566,-321.7585 189.7989,-232.6025 225.8088,-188.1559"/>
<polygon fill="#000000" stroke="#000000" points="228.7235,-190.1183 232.2991,-180.1451 223.2845,-185.7117 228.7235,-190.1183"/>
<g id="a_edge31&#45;headlabel"><a xlink:href="dir_000002_000006.html" target="_top" xlink:title="1">
<text text-anchor="middle" x="228.6668" y="-192.1986" font-family="Helvetica,sans-Serif" font-size="10.00" fill="#000000">1</text>
</a>
</g>
</g>
<!-- dir_e4cd57caa88bf1f4e1bf9521bc47c3c0 -->
<g id="node11" class="node">
<title>dir_e4cd57caa88bf1f4e1bf9521bc47c3c0</title>
<g id="a_node11"><a xlink:href="dir_e4cd57caa88bf1f4e1bf9521bc47c3c0.html" target="_top" xlink:title="utilities">
<polygon fill="#ffffff" stroke="#ff0000" points="287,-324 233,-324 233,-288 287,-288 287,-324"/>
<text text-anchor="middle" x="260" y="-303.5" font-family="Helvetica,sans-Serif" font-size="10.00" fill="#000000">utilities</text>
</a>
</g>
</g>
<!-- dir_4bb30ed846ea1df1fc4d16874a455d91&#45;&gt;dir_e4cd57caa88bf1f4e1bf9521bc47c3c0 -->
<g id="edge32" class="edge">
<title>dir_4bb30ed846ea1df1fc4d16874a455d91&#45;&gt;dir_e4cd57caa88bf1f4e1bf9521bc47c3c0</title>
<path fill="none" stroke="#000000" d="M99.0767,-359.9259C108.3037,-354.2939 118.8554,-348.4101 129,-344 159.5797,-330.7062 196.152,-320.54 222.8732,-314.0828"/>
<polygon fill="#000000" stroke="#000000" points="224.0248,-317.4074 232.9565,-311.7088 222.4205,-310.5937 224.0248,-317.4074"/>
<g id="a_edge32&#45;headlabel"><a xlink:href="dir_000002_000005.html" target="_top" xlink:title="10">
<text text-anchor="middle" x="221.1765" y="-318.4949" font-family="Helvetica,sans-Serif" font-size="10.00" fill="#000000">10</text>
</a>
</g>
</g>
<!-- dir_a816a247b59c90f95e41afe29b966a18 -->
<g id="node13" class="node">
<title>dir_a816a247b59c90f95e41afe29b966a18</title>
<g id="a_node13"><a xlink:href="dir_a816a247b59c90f95e41afe29b966a18.html" target="_top" xlink:title="diffusion">
<polygon fill="none" stroke="#000000" points="193,-36 139,-36 139,0 193,0 193,-36"/>
<text text-anchor="middle" x="166" y="-15.5" font-family="Helvetica,sans-Serif" font-size="10.00" fill="#000000">diffusion</text>
</a>
</g>
</g>
<!-- dir_4bb30ed846ea1df1fc4d16874a455d91&#45;&gt;dir_a816a247b59c90f95e41afe29b966a18 -->
<g id="edge33" class="edge">
<title>dir_4bb30ed846ea1df1fc4d16874a455d91&#45;&gt;dir_a816a247b59c90f95e41afe29b966a18</title>
<path fill="none" stroke="#000000" d="M59.4149,-359.8478C42.3566,-333.4241 14,-282.2435 14,-234 14,-234 14,-234 14,-162 14,-98.5382 84.6908,-54.6632 129.6556,-33.1743"/>
<polygon fill="#000000" stroke="#000000" points="131.2208,-36.3066 138.8254,-28.9296 128.2803,-29.9542 131.2208,-36.3066"/>
<g id="a_edge33&#45;headlabel"><a xlink:href="dir_000002_000014.html" target="_top" xlink:title="1">
<text text-anchor="middle" x="129.1514" y="-37.8932" font-family="Helvetica,sans-Serif" font-size="10.00" fill="#000000">1</text>
</a>
</g>
</g>
<!-- dir_70329d5a297148af2b67b1d844b9f654 -->
<g id="node2" class="node">
<title>dir_70329d5a297148af2b67b1d844b9f654</title>
<g id="a_node2"><a xlink:href="dir_70329d5a297148af2b67b1d844b9f654.html" target="_top" xlink:title="density">
<polygon fill="#ffffff" stroke="#000000" points="264,-396 210,-396 210,-360 264,-360 264,-396"/>
<text text-anchor="middle" x="237" y="-375.5" font-family="Helvetica,sans-Serif" font-size="10.00" fill="#000000">density</text>
</a>
</g>
</g>
<!-- dir_3d3615e9a999cab4f3407307569d6ced -->
<g id="node14" class="node">
<title>dir_3d3615e9a999cab4f3407307569d6ced</title>
<g id="a_node14"><a xlink:href="dir_3d3615e9a999cab4f3407307569d6ced.html" target="_top" xlink:title="core">
<polygon fill="none" stroke="#000000" points="418,-252 364,-252 364,-216 418,-216 418,-252"/>
<text text-anchor="middle" x="391" y="-231.5" font-family="Helvetica,sans-Serif" font-size="10.00" fill="#000000">core</text>
</a>
</g>
</g>
<!-- dir_70329d5a297148af2b67b1d844b9f654&#45;&gt;dir_3d3615e9a999cab4f3407307569d6ced -->
<g id="edge5" class="edge">
<title>dir_70329d5a297148af2b67b1d844b9f654&#45;&gt;dir_3d3615e9a999cab4f3407307569d6ced</title>
<path fill="none" stroke="#000000" d="M253.3639,-359.8124C259.1423,-354.1728 265.9639,-348.3132 273,-344 295.532,-330.1877 308.0456,-340.1054 329,-324 350.6881,-307.3306 367.6116,-280.8932 378.2587,-260.9761"/>
<polygon fill="#000000" stroke="#000000" points="381.3786,-262.5623 382.839,-252.0686 375.1534,-259.3612 381.3786,-262.5623"/>
<g id="a_edge5&#45;headlabel"><a xlink:href="dir_000012_000009.html" target="_top" xlink:title="4">
<text text-anchor="middle" x="382.2599" y="-264.5574" font-family="Helvetica,sans-Serif" font-size="10.00" fill="#000000">4</text>
</a>
</g>
</g>
<!-- dir_4012ff34c1bb5bd303e44a1c9cef6c8a -->
<g id="node3" class="node">
<title>dir_4012ff34c1bb5bd303e44a1c9cef6c8a</title>
<g id="a_node3"><a xlink:href="dir_4012ff34c1bb5bd303e44a1c9cef6c8a.html" target="_top" xlink:title="icns">
<polygon fill="#ffffff" stroke="#ff0000" points="192,-396 138,-396 138,-360 192,-360 192,-396"/>
<text text-anchor="middle" x="165" y="-375.5" font-family="Helvetica,sans-Serif" font-size="10.00" fill="#000000">icns</text>
</a>
</g>
</g>
<!-- dir_4012ff34c1bb5bd303e44a1c9cef6c8a&#45;&gt;dir_35ffb1505af3943bdf99903da87524fe -->
<g id="edge20" class="edge">
<title>dir_4012ff34c1bb5bd303e44a1c9cef6c8a&#45;&gt;dir_35ffb1505af3943bdf99903da87524fe</title>
<path fill="none" stroke="#000000" d="M170.7294,-396.0384C177.2342,-413.1355 189.6695,-437.8155 210,-449 237.94,-464.3707 468.4938,-463.2933 497,-449 515.2761,-439.8362 528.8613,-421.0489 537.7001,-405.1014"/>
<polygon fill="#000000" stroke="#000000" points="540.8542,-406.622 542.3553,-396.1341 534.6414,-403.3968 540.8542,-406.622"/>
<g id="a_edge20&#45;headlabel"><a xlink:href="dir_000003_000015.html" target="_top" xlink:title="1">
<text text-anchor="middle" x="541.718" y="-408.6205" font-family="Helvetica,sans-Serif" font-size="10.00" fill="#000000">1</text>
</a>
</g>
</g>
<!-- dir_0c368f76a33d967d5b838b5681461de6 -->
<g id="node9" class="node">
<title>dir_0c368f76a33d967d5b838b5681461de6</title>
<g id="a_node9"><a xlink:href="dir_0c368f76a33d967d5b838b5681461de6.html" target="_top" xlink:title="wind_energy">
<polygon fill="none" stroke="#000000" points="201.5,-108 130.5,-108 130.5,-72 201.5,-72 201.5,-108"/>
<text text-anchor="middle" x="166" y="-87.5" font-family="Helvetica,sans-Serif" font-size="10.00" fill="#000000">wind_energy</text>
</a>
</g>
</g>
<!-- dir_4012ff34c1bb5bd303e44a1c9cef6c8a&#45;&gt;dir_0c368f76a33d967d5b838b5681461de6 -->
<g id="edge21" class="edge">
<title>dir_4012ff34c1bb5bd303e44a1c9cef6c8a&#45;&gt;dir_0c368f76a33d967d5b838b5681461de6</title>
<path fill="none" stroke="#000000" d="M165.0626,-359.9843C165.2316,-311.2939 165.6986,-176.7961 165.9026,-118.0573"/>
<polygon fill="#000000" stroke="#000000" points="169.4026,-118.021 165.9375,-108.0089 162.4027,-117.9966 169.4026,-118.021"/>
<g id="a_edge21&#45;headlabel"><a xlink:href="dir_000003_000001.html" target="_top" xlink:title="2">
<text text-anchor="middle" x="172.2295" y="-119.1254" font-family="Helvetica,sans-Serif" font-size="10.00" fill="#000000">2</text>
</a>
</g>
</g>
<!-- dir_4012ff34c1bb5bd303e44a1c9cef6c8a&#45;&gt;dir_e4cd57caa88bf1f4e1bf9521bc47c3c0 -->
<g id="edge22" class="edge">
<title>dir_4012ff34c1bb5bd303e44a1c9cef6c8a&#45;&gt;dir_e4cd57caa88bf1f4e1bf9521bc47c3c0</title>
<path fill="none" stroke="#000000" d="M183.0971,-359.6707C188.6515,-354.3901 194.9092,-348.7713 201,-344 208.2474,-338.3227 216.3567,-332.6862 224.1876,-327.561"/>
<polygon fill="#000000" stroke="#000000" points="226.3141,-330.3556 232.85,-322.0169 222.5406,-324.4597 226.3141,-330.3556"/>
<g id="a_edge22&#45;headlabel"><a xlink:href="dir_000003_000005.html" target="_top" xlink:title="8">
<text text-anchor="middle" x="224.817" y="-332.1847" font-family="Helvetica,sans-Serif" font-size="10.00" fill="#000000">8</text>
</a>
</g>
</g>
<!-- dir_7f7a014517bfe31ea45620a6a947e37b -->
<g id="node12" class="node">
<title>dir_7f7a014517bfe31ea45620a6a947e37b</title>
<g id="a_node12"><a xlink:href="dir_7f7a014517bfe31ea45620a6a947e37b.html" target="_top" xlink:title="fvm">
<polygon fill="none" stroke="#000000" points="450,-36 396,-36 396,0 450,0 450,-36"/>
<text text-anchor="middle" x="423" y="-15.5" font-family="Helvetica,sans-Serif" font-size="10.00" fill="#000000">fvm</text>
</a>
</g>
</g>
<!-- dir_4012ff34c1bb5bd303e44a1c9cef6c8a&#45;&gt;dir_7f7a014517bfe31ea45620a6a947e37b -->
<g id="edge23" class="edge">
<title>dir_4012ff34c1bb5bd303e44a1c9cef6c8a&#45;&gt;dir_7f7a014517bfe31ea45620a6a947e37b</title>
<path fill="none" stroke="#000000" d="M176.3043,-359.7615C187.8621,-341.3572 206.5453,-312.2679 224,-288 259.6667,-238.4112 272.5215,-228.9947 309,-180 343.9177,-133.1016 382.7369,-77.0441 404.8747,-44.6781"/>
<polygon fill="#000000" stroke="#000000" points="407.9116,-46.4372 410.6592,-36.2048 402.1303,-42.4904 407.9116,-46.4372"/>
<g id="a_edge23&#45;headlabel"><a xlink:href="dir_000003_000011.html" target="_top" xlink:title="1">
<text text-anchor="middle" x="408.2299" y="-48.5067" font-family="Helvetica,sans-Serif" font-size="10.00" fill="#000000">1</text>
</a>
</g>
</g>
<!-- dir_4012ff34c1bb5bd303e44a1c9cef6c8a&#45;&gt;dir_3d3615e9a999cab4f3407307569d6ced -->
<g id="edge24" class="edge">
<title>dir_4012ff34c1bb5bd303e44a1c9cef6c8a&#45;&gt;dir_3d3615e9a999cab4f3407307569d6ced</title>
<path fill="none" stroke="#000000" d="M180.3269,-359.9517C186.224,-354.0463 193.3833,-347.9863 201,-344 239.2286,-323.9924 258.5164,-345.3708 296,-324 314.8558,-313.2496 313.4585,-303.1516 329,-288 339.1808,-278.0746 350.8256,-267.6976 361.2538,-258.7232"/>
<polygon fill="#000000" stroke="#000000" points="363.6077,-261.3157 368.9467,-252.1645 359.0662,-255.9889 363.6077,-261.3157"/>
<g id="a_edge24&#45;headlabel"><a xlink:href="dir_000003_000009.html" target="_top" xlink:title="16">
<text text-anchor="middle" x="362.7144" y="-263.3084" font-family="Helvetica,sans-Serif" font-size="10.00" fill="#000000">16</text>
</a>
</g>
</g>
<!-- dir_9f8434f21d2c2598f33c85a8b98c6d56 -->
<g id="node4" class="node">
<title>dir_9f8434f21d2c2598f33c85a8b98c6d56</title>
<g id="a_node4"><a xlink:href="dir_9f8434f21d2c2598f33c85a8b98c6d56.html" target="_top" xlink:title="sdr">
<polygon fill="#ffffff" stroke="#000000" points="336,-396 282,-396 282,-360 336,-360 336,-396"/>
<text text-anchor="middle" x="309" y="-375.5" font-family="Helvetica,sans-Serif" font-size="10.00" fill="#000000">sdr</text>
</a>
</g>
</g>
<!-- dir_9f8434f21d2c2598f33c85a8b98c6d56&#45;&gt;dir_3d3615e9a999cab4f3407307569d6ced -->
<g id="edge25" class="edge">
<title>dir_9f8434f21d2c2598f33c85a8b98c6d56&#45;&gt;dir_3d3615e9a999cab4f3407307569d6ced</title>
<path fill="none" stroke="#000000" d="M327.9934,-359.934C333.4628,-354.7663 339.4509,-349.1419 345,-344 354.6928,-335.0185 360.1292,-335.2876 367,-324 378.5102,-305.0904 384.5732,-280.6688 387.7234,-262.0374"/>
<polygon fill="#000000" stroke="#000000" points="391.1933,-262.4991 389.2254,-252.0886 384.2717,-261.4541 391.1933,-262.4991"/>
<g id="a_edge25&#45;headlabel"><a xlink:href="dir_000027_000009.html" target="_top" xlink:title="4">
<text text-anchor="middle" x="393.4642" y="-263.9772" font-family="Helvetica,sans-Serif" font-size="10.00" fill="#000000">4</text>
</a>
</g>
</g>
<!-- dir_c96908905c9887b0bdc2167e5354d30c -->
<g id="node5" class="node">
<title>dir_c96908905c9887b0bdc2167e5354d30c</title>
<g id="a_node5"><a xlink:href="dir_c96908905c9887b0bdc2167e5354d30c.html" target="_top" xlink:title="temperature">
<polygon fill="#ffffff" stroke="#000000" points="422,-396 354,-396 354,-360 422,-360 422,-396"/>
<text text-anchor="middle" x="388" y="-375.5" font-family="Helvetica,sans-Serif" font-size="10.00" fill="#000000">temperature</text>
</a>
</g>
</g>
<!-- dir_c96908905c9887b0bdc2167e5354d30c&#45;&gt;dir_3d3615e9a999cab4f3407307569d6ced -->
<g id="edge8" class="edge">
<title>dir_c96908905c9887b0bdc2167e5354d30c&#45;&gt;dir_3d3615e9a999cab4f3407307569d6ced</title>
<path fill="none" stroke="#000000" d="M395.2439,-359.8366C398.9712,-349.513 403.1188,-336.2403 405,-324 407.4305,-308.1857 407.024,-303.8715 405,-288 403.9146,-279.4887 401.9038,-270.4011 399.738,-262.1555"/>
<polygon fill="#000000" stroke="#000000" points="403.0363,-260.9542 396.9698,-252.2681 396.2955,-262.8414 403.0363,-260.9542"/>
<g id="a_edge8&#45;headlabel"><a xlink:href="dir_000028_000009.html" target="_top" xlink:title="4">
<text text-anchor="middle" x="406.7395" y="-261.1502" font-family="Helvetica,sans-Serif" font-size="10.00" fill="#000000">4</text>
</a>
</g>
</g>
<!-- dir_be932497d8c26b6aa8596ee64638838f -->
<g id="node6" class="node">
<title>dir_be932497d8c26b6aa8596ee64638838f</title>
<g id="a_node6"><a xlink:href="dir_be932497d8c26b6aa8596ee64638838f.html" target="_top" xlink:title="tke">
<polygon fill="#ffffff" stroke="#ff0000" points="494,-396 440,-396 440,-360 494,-360 494,-396"/>
<text text-anchor="middle" x="467" y="-375.5" font-family="Helvetica,sans-Serif" font-size="10.00" fill="#000000">tke</text>
</a>
</g>
</g>
<!-- dir_be932497d8c26b6aa8596ee64638838f&#45;&gt;dir_9ff815a534beac751fa88e427dbab695 -->
<g id="edge6" class="edge">
<title>dir_be932497d8c26b6aa8596ee64638838f&#45;&gt;dir_9ff815a534beac751fa88e427dbab695</title>
<path fill="none" stroke="#000000" d="M474.1695,-396.1121C482.0551,-413.2651 496.5287,-437.9866 518,-449 543.3092,-461.982 556.8142,-462.2197 582,-449 599.4612,-439.8348 611.9232,-421.3148 619.9093,-405.4877"/>
<polygon fill="#000000" stroke="#000000" points="623.2391,-406.6296 624.308,-396.0888 616.8991,-403.6624 623.2391,-406.6296"/>
<g id="a_edge6&#45;headlabel"><a xlink:href="dir_000019_000021.html" target="_top" xlink:title="1">
<text text-anchor="middle" x="624.2871" y="-408.5888" font-family="Helvetica,sans-Serif" font-size="10.00" fill="#000000">1</text>
</a>
</g>
</g>
<!-- dir_be932497d8c26b6aa8596ee64638838f&#45;&gt;dir_3d3615e9a999cab4f3407307569d6ced -->
<g id="edge7" class="edge">
<title>dir_be932497d8c26b6aa8596ee64638838f&#45;&gt;dir_3d3615e9a999cab4f3407307569d6ced</title>
<path fill="none" stroke="#000000" d="M457.3745,-359.7623C444.2403,-334.8764 420.599,-290.0822 405.3642,-261.2165"/>
<polygon fill="#000000" stroke="#000000" points="408.3103,-259.2998 400.5473,-252.0896 402.1196,-262.5671 408.3103,-259.2998"/>
<g id="a_edge7&#45;headlabel"><a xlink:href="dir_000019_000009.html" target="_top" xlink:title="5">
<text text-anchor="middle" x="412.4991" y="-258.6536" font-family="Helvetica,sans-Serif" font-size="10.00" fill="#000000">5</text>
</a>
</g>
</g>
<!-- dir_9ff815a534beac751fa88e427dbab695&#45;&gt;dir_be932497d8c26b6aa8596ee64638838f -->
<g id="edge1" class="edge">
<title>dir_9ff815a534beac751fa88e427dbab695&#45;&gt;dir_be932497d8c26b6aa8596ee64638838f</title>
<path fill="none" stroke="#000000" d="M624.308,-396.0888C616.8808,-413.2242 603.0852,-437.9326 582,-449 556.8142,-462.2197 543.3092,-461.982 518,-449 500.2191,-439.8795 487.2371,-421.3582 478.8215,-405.5193"/>
<polygon fill="#000000" stroke="#000000" points="481.7397,-403.5245 474.1695,-396.1121 475.4649,-406.6274 481.7397,-403.5245"/>
<g id="a_edge1&#45;headlabel"><a xlink:href="dir_000021_000019.html" target="_top" xlink:title="1">
<text text-anchor="middle" x="485.8781" y="-402.9881" font-family="Helvetica,sans-Serif" font-size="10.00" fill="#000000">1</text>
</a>
</g>
</g>
<!-- dir_9ff815a534beac751fa88e427dbab695&#45;&gt;dir_e4cd57caa88bf1f4e1bf9521bc47c3c0 -->
<g id="edge2" class="edge">
<title>dir_9ff815a534beac751fa88e427dbab695&#45;&gt;dir_e4cd57caa88bf1f4e1bf9521bc47c3c0</title>
<path fill="none" stroke="#000000" d="M614.2485,-359.909C607.6106,-353.8498 599.5282,-347.7005 591,-344 539.0339,-321.451 372.8237,-311.1621 297.6075,-307.5726"/>
<polygon fill="#000000" stroke="#000000" points="297.3457,-304.0568 287.1946,-307.0909 297.0222,-311.0493 297.3457,-304.0568"/>
<g id="a_edge2&#45;headlabel"><a xlink:href="dir_000021_000005.html" target="_top" xlink:title="1">
<text text-anchor="middle" x="301.0677" y="-298.8866" font-family="Helvetica,sans-Serif" font-size="10.00" fill="#000000">1</text>
</a>
</g>
</g>
<!-- dir_9ff815a534beac751fa88e427dbab695&#45;&gt;dir_7f7a014517bfe31ea45620a6a947e37b -->
<g id="edge3" class="edge">
<title>dir_9ff815a534beac751fa88e427dbab695&#45;&gt;dir_7f7a014517bfe31ea45620a6a947e37b</title>
<path fill="none" stroke="#000000" d="M629.5496,-359.8284C627.4993,-332.5296 624,-279.3034 624,-234 624,-234 624,-234 624,-162 624,-82.2239 518.0739,-42.3865 460.0147,-26.5429"/>
<polygon fill="#000000" stroke="#000000" points="460.6685,-23.0961 450.1078,-23.9451 458.893,-29.8671 460.6685,-23.0961"/>
<g id="a_edge3&#45;headlabel"><a xlink:href="dir_000021_000011.html" target="_top" xlink:title="3">
<text text-anchor="middle" x="464.8657" y="-18.7613" font-family="Helvetica,sans-Serif" font-size="10.00" fill="#000000">3</text>
</a>
</g>
</g>
<!-- dir_9ff815a534beac751fa88e427dbab695&#45;&gt;dir_3d3615e9a999cab4f3407307569d6ced -->
<g id="edge4" class="edge">
<title>dir_9ff815a534beac751fa88e427dbab695&#45;&gt;dir_3d3615e9a999cab4f3407307569d6ced</title>
<path fill="none" stroke="#000000" d="M611.284,-359.8776C605.0106,-354.4897 597.9031,-348.7599 591,-344 536.6724,-306.5391 468.3947,-271.2682 427.3049,-251.1898"/>
<polygon fill="#000000" stroke="#000000" points="428.742,-247.9969 418.2172,-246.7805 425.6863,-254.2947 428.742,-247.9969"/>
<g id="a_edge4&#45;headlabel"><a xlink:href="dir_000021_000009.html" target="_top" xlink:title="5">
<text text-anchor="middle" x="433.2155" y="-244.5115" font-family="Helvetica,sans-Serif" font-size="10.00" fill="#000000">5</text>
</a>
</g>
</g>
<!-- dir_35ffb1505af3943bdf99903da87524fe&#45;&gt;dir_e4cd57caa88bf1f4e1bf9521bc47c3c0 -->
<g id="edge9" class="edge">
<title>dir_35ffb1505af3943bdf99903da87524fe&#45;&gt;dir_e4cd57caa88bf1f4e1bf9521bc47c3c0</title>
<path fill="none" stroke="#000000" d="M530.7784,-359.754C523.5249,-353.83 514.8706,-347.8089 506,-344 469.1956,-328.1969 356.7078,-315.3556 297.4391,-309.4728"/>
<polygon fill="#000000" stroke="#000000" points="297.6597,-305.9778 287.3668,-308.4893 296.9793,-312.9446 297.6597,-305.9778"/>
<g id="a_edge9&#45;headlabel"><a xlink:href="dir_000015_000005.html" target="_top" xlink:title="4">
<text text-anchor="middle" x="301.5132" y="-301.0012" font-family="Helvetica,sans-Serif" font-size="10.00" fill="#000000">4</text>
</a>
</g>
</g>
<!-- dir_35ffb1505af3943bdf99903da87524fe&#45;&gt;dir_3d3615e9a999cab4f3407307569d6ced -->
<g id="edge10" class="edge">
<title>dir_35ffb1505af3943bdf99903da87524fe&#45;&gt;dir_3d3615e9a999cab4f3407307569d6ced</title>
<path fill="none" stroke="#000000" d="M529.8625,-359.7623C501.6676,-334.2272 450.3287,-287.7316 418.5938,-258.9906"/>
<polygon fill="#000000" stroke="#000000" points="420.7355,-256.2082 410.974,-252.0896 416.0365,-261.3967 420.7355,-256.2082"/>
<g id="a_edge10&#45;headlabel"><a xlink:href="dir_000015_000009.html" target="_top" xlink:title="4">
<text text-anchor="middle" x="425.3058" y="-254.0167" font-family="Helvetica,sans-Serif" font-size="10.00" fill="#000000">4</text>
</a>
</g>
</g>
<!-- dir_0c368f76a33d967d5b838b5681461de6&#45;&gt;dir_4bb30ed846ea1df1fc4d16874a455d91 -->
<g id="edge16" class="edge">
<title>dir_0c368f76a33d967d5b838b5681461de6&#45;&gt;dir_4bb30ed846ea1df1fc4d16874a455d91</title>
<path fill="none" stroke="#000000" d="M135.756,-108.2198C123.248,-117.3613 109.8575,-129.5733 102,-144 65.6367,-210.7646 66.2336,-303.7322 69.3103,-349.8041"/>
<polygon fill="#000000" stroke="#000000" points="65.833,-350.2366 70.0803,-359.9428 72.8129,-349.7065 65.833,-350.2366"/>
<g id="a_edge16&#45;headlabel"><a xlink:href="dir_000001_000002.html" target="_top" xlink:title="2">
<text text-anchor="middle" x="62.7298" y="-344.3673" font-family="Helvetica,sans-Serif" font-size="10.00" fill="#000000">2</text>
</a>
</g>
</g>
<!-- dir_0c368f76a33d967d5b838b5681461de6&#45;&gt;dir_4012ff34c1bb5bd303e44a1c9cef6c8a -->
<g id="edge12" class="edge">
<title>dir_0c368f76a33d967d5b838b5681461de6&#45;&gt;dir_4012ff34c1bb5bd303e44a1c9cef6c8a</title>
<path fill="none" stroke="#000000" d="M141.4199,-108.2228C130.8518,-117.5978 119.6457,-129.9979 114,-144 85.1133,-215.6426 125.0145,-306.5416 149.0755,-351.015"/>
<polygon fill="#000000" stroke="#000000" points="146.0255,-352.7321 153.939,-359.7769 152.1459,-349.3348 146.0255,-352.7321"/>
<g id="a_edge12&#45;headlabel"><a xlink:href="dir_000001_000003.html" target="_top" xlink:title="2">
<text text-anchor="middle" x="141.7986" y="-348.4672" font-family="Helvetica,sans-Serif" font-size="10.00" fill="#000000">2</text>
</a>
</g>
</g>
<!-- dir_0c368f76a33d967d5b838b5681461de6&#45;&gt;dir_e4cd57caa88bf1f4e1bf9521bc47c3c0 -->
<g id="edge11" class="edge">
<title>dir_0c368f76a33d967d5b838b5681461de6&#45;&gt;dir_e4cd57caa88bf1f4e1bf9521bc47c3c0</title>
<path fill="none" stroke="#000000" d="M168.0419,-108.0897C170.5405,-126.6293 175.6431,-156.0524 185,-180 199.2746,-216.5339 223.5347,-254.7335 240.5895,-279.3595"/>
<polygon fill="#000000" stroke="#000000" points="237.9012,-281.6213 246.5151,-287.7899 243.6281,-277.596 237.9012,-281.6213"/>
<g id="a_edge11&#45;headlabel"><a xlink:href="dir_000001_000005.html" target="_top" xlink:title="19">
<text text-anchor="middle" x="233.5113" y="-277.8131" font-family="Helvetica,sans-Serif" font-size="10.00" fill="#000000">19</text>
</a>
</g>
</g>
<!-- dir_0c368f76a33d967d5b838b5681461de6&#45;&gt;dir_7f7a014517bfe31ea45620a6a947e37b -->
<g id="edge13" class="edge">
<title>dir_0c368f76a33d967d5b838b5681461de6&#45;&gt;dir_7f7a014517bfe31ea45620a6a947e37b</title>
<path fill="none" stroke="#000000" d="M201.7347,-79.9887C250.2788,-66.3888 336.643,-42.1934 385.8897,-28.3967"/>
<polygon fill="#000000" stroke="#000000" points="387.123,-31.686 395.8081,-25.618 385.2346,-24.9455 387.123,-31.686"/>
<g id="a_edge13&#45;headlabel"><a xlink:href="dir_000001_000011.html" target="_top" xlink:title="1">
<text text-anchor="middle" x="384.4276" y="-32.8896" font-family="Helvetica,sans-Serif" font-size="10.00" fill="#000000">1</text>
</a>
</g>
</g>
<!-- dir_0c368f76a33d967d5b838b5681461de6&#45;&gt;dir_a816a247b59c90f95e41afe29b966a18 -->
<g id="edge14" class="edge">
<title>dir_0c368f76a33d967d5b838b5681461de6&#45;&gt;dir_a816a247b59c90f95e41afe29b966a18</title>
<path fill="none" stroke="#000000" d="M166,-71.8314C166,-64.131 166,-54.9743 166,-46.4166"/>
<polygon fill="#000000" stroke="#000000" points="169.5001,-46.4132 166,-36.4133 162.5001,-46.4133 169.5001,-46.4132"/>
<g id="a_edge14&#45;headlabel"><a xlink:href="dir_000001_000014.html" target="_top" xlink:title="1">
<text text-anchor="middle" x="172.3393" y="-47.5079" font-family="Helvetica,sans-Serif" font-size="10.00" fill="#000000">1</text>
</a>
</g>
</g>
<!-- dir_0c368f76a33d967d5b838b5681461de6&#45;&gt;dir_3d3615e9a999cab4f3407307569d6ced -->
<g id="edge15" class="edge">
<title>dir_0c368f76a33d967d5b838b5681461de6&#45;&gt;dir_3d3615e9a999cab4f3407307569d6ced</title>
<path fill="none" stroke="#000000" d="M201.7045,-98.4409C232.0529,-106.7479 275.8478,-121.4907 309,-144 334.401,-161.2465 357.3755,-187.8954 372.4999,-207.7251"/>
<polygon fill="#000000" stroke="#000000" points="369.7041,-209.8308 378.4853,-215.7587 375.3174,-205.6486 369.7041,-209.8308"/>
<g id="a_edge15&#45;headlabel"><a xlink:href="dir_000001_000009.html" target="_top" xlink:title="7">
<text text-anchor="middle" x="365.2797" y="-206.1446" font-family="Helvetica,sans-Serif" font-size="10.00" fill="#000000">7</text>
</a>
</g>
</g>
<!-- dir_ebb19deee3cd40f4ac122fef25c04ca8&#45;&gt;dir_0c368f76a33d967d5b838b5681461de6 -->
<g id="edge17" class="edge">
<title>dir_ebb19deee3cd40f4ac122fef25c04ca8&#45;&gt;dir_0c368f76a33d967d5b838b5681461de6</title>
<path fill="none" stroke="#000000" d="M226.5603,-143.8314C216.6795,-135.0485 204.6676,-124.3712 193.955,-114.8489"/>
<polygon fill="#000000" stroke="#000000" points="196.2326,-112.1906 186.4332,-108.1628 191.582,-117.4224 196.2326,-112.1906"/>
<g id="a_edge17&#45;headlabel"><a xlink:href="dir_000006_000001.html" target="_top" xlink:title="1">
<text text-anchor="middle" x="200.8055" y="-109.9566" font-family="Helvetica,sans-Serif" font-size="10.00" fill="#000000">1</text>
</a>
</g>
</g>
<!-- dir_ebb19deee3cd40f4ac122fef25c04ca8&#45;&gt;dir_3d3615e9a999cab4f3407307569d6ced -->
<g id="edge18" class="edge">
<title>dir_ebb19deee3cd40f4ac122fef25c04ca8&#45;&gt;dir_3d3615e9a999cab4f3407307569d6ced</title>
<path fill="none" stroke="#000000" d="M289.1092,-180.0826C309.9082,-189.9958 334.693,-202.342 354.657,-212.7178"/>
<polygon fill="#000000" stroke="#000000" points="353.2625,-215.9386 363.7444,-217.4817 356.5127,-209.7388 353.2625,-215.9386"/>
<g id="a_edge18&#45;headlabel"><a xlink:href="dir_000006_000009.html" target="_top" xlink:title="4">
<text text-anchor="middle" x="348.7606" y="-214.2843" font-family="Helvetica,sans-Serif" font-size="10.00" fill="#000000">4</text>
</a>
</g>
</g>
<!-- dir_e4cd57caa88bf1f4e1bf9521bc47c3c0&#45;&gt;dir_3d3615e9a999cab4f3407307569d6ced -->
<g id="edge19" class="edge">
<title>dir_e4cd57caa88bf1f4e1bf9521bc47c3c0&#45;&gt;dir_3d3615e9a999cab4f3407307569d6ced</title>
<path fill="none" stroke="#000000" d="M287.1433,-291.0816C306.8158,-280.2692 333.6157,-265.5395 355.0636,-253.7513"/>
<polygon fill="#000000" stroke="#000000" points="356.8137,-256.7833 363.8915,-248.8993 353.4421,-250.6488 356.8137,-256.7833"/>
<g id="a_edge19&#45;headlabel"><a xlink:href="dir_000005_000009.html" target="_top" xlink:title="8">
<text text-anchor="middle" x="355.0311" y="-258.5028" font-family="Helvetica,sans-Serif" font-size="10.00" fill="#000000">8</text>
</a>
</g>
</g>
<!-- dir_7f7a014517bfe31ea45620a6a947e37b&#45;&gt;dir_3d3615e9a999cab4f3407307569d6ced -->
<g id="edge26" class="edge">
<title>dir_7f7a014517bfe31ea45620a6a947e37b&#45;&gt;dir_3d3615e9a999cab4f3407307569d6ced</title>
<path fill="none" stroke="#000000" d="M424.956,-36.3308C427.6444,-66.7297 430.809,-129.2542 418,-180 415.6889,-189.1561 411.6604,-198.5557 407.4096,-206.8934"/>
<polygon fill="#000000" stroke="#000000" points="404.2783,-205.3258 402.5955,-215.7861 410.4341,-208.6583 404.2783,-205.3258"/>
<g id="a_edge26&#45;headlabel"><a xlink:href="dir_000011_000009.html" target="_top" xlink:title="1">
<text text-anchor="middle" x="403.4926" y="-198.313" font-family="Helvetica,sans-Serif" font-size="10.00" fill="#000000">1</text>
</a>
</g>
</g>
<!-- dir_a816a247b59c90f95e41afe29b966a18&#45;&gt;dir_3d3615e9a999cab4f3407307569d6ced -->
<g id="edge27" class="edge">
<title>dir_a816a247b59c90f95e41afe29b966a18&#45;&gt;dir_3d3615e9a999cab4f3407307569d6ced</title>
<path fill="none" stroke="#000000" d="M193.0343,-32.1811C230.2915,-52.7803 297.8164,-94.0302 342,-144 358.4579,-162.6132 371.5418,-187.7027 380.0351,-206.663"/>
<polygon fill="#000000" stroke="#000000" points="376.8703,-208.1628 384.0516,-215.9526 383.2955,-205.3848 376.8703,-208.1628"/>
<g id="a_edge27&#45;headlabel"><a xlink:href="dir_000014_000009.html" target="_top" xlink:title="1">
<text text-anchor="middle" x="372.8377" y="-203.4902" font-family="Helvetica,sans-Serif" font-size="10.00" fill="#000000">1</text>
</a>
</g>
</g>
<!-- dir_3d3615e9a999cab4f3407307569d6ced&#45;&gt;dir_ebb19deee3cd40f4ac122fef25c04ca8 -->
<g id="edge28" class="edge">
<title>dir_3d3615e9a999cab4f3407307569d6ced&#45;&gt;dir_ebb19deee3cd40f4ac122fef25c04ca8</title>
<path fill="none" stroke="#000000" d="M363.7796,-222.9078C341.8555,-212.7992 310.9279,-197.5514 286.3503,-184.8412"/>
<polygon fill="#000000" stroke="#000000" points="287.7591,-181.6287 277.2737,-180.1102 284.5236,-187.836 287.7591,-181.6287"/>
<g id="a_edge28&#45;headlabel"><a xlink:href="dir_000009_000006.html" target="_top" xlink:title="1">
<text text-anchor="middle" x="292.259" y="-178.2723" font-family="Helvetica,sans-Serif" font-size="10.00" fill="#000000">1</text>
</a>
</g>
</g>
</g>
</svg>
