<?xml version="1.0" encoding="UTF-8" standalone="no"?>
<!DOCTYPE svg PUBLIC "-//W3C//DTD SVG 1.1//EN"
 "http://www.w3.org/Graphics/SVG/1.1/DTD/svg11.dtd">
<!-- Generated by graphviz version 2.40.1 (20161225.0304)
 -->
<!-- Title: turbulence Pages: 1 -->
<svg width="362pt" height="303pt"
 viewBox="0.00 0.00 362.00 303.00" xmlns="http://www.w3.org/2000/svg" xmlns:xlink="http://www.w3.org/1999/xlink">
<g id="graph0" class="graph" transform="scale(1 1) rotate(0) translate(4 299)">
<title>turbulence</title>
<polygon fill="#ffffff" stroke="transparent" points="-4,4 -4,-299 358,-299 358,4 -4,4"/>
<g id="clust1" class="cluster">
<title>clusterdir_d85575251dd712327fe3cf057fa568b4</title>
<g id="a_clust1"><a xlink:href="dir_d85575251dd712327fe3cf057fa568b4.html" target="_top" xlink:title="amr&#45;wind">
<polygon fill="#ddddee" stroke="#000000" points="8,-128 8,-287 102,-287 102,-128 8,-128"/>
<text text-anchor="middle" x="55" y="-275" font-family="Helvetica,sans-Serif" font-size="10.00" fill="#000000">amr&#45;wind</text>
</a>
</g>
</g>
<g id="clust2" class="cluster">
<title>clusterdir_9ff815a534beac751fa88e427dbab695</title>
<g id="a_clust2"><a xlink:href="dir_9ff815a534beac751fa88e427dbab695.html" target="_top">
<polygon fill="#eeeeff" stroke="#000000" points="16,-136 16,-260 94,-260 94,-136 16,-136"/>
</a>
</g>
</g>
<!-- dir_9ff815a534beac751fa88e427dbab695 -->
<g id="node1" class="node">
<title>dir_9ff815a534beac751fa88e427dbab695</title>
<text text-anchor="middle" x="55" y="-231.5" font-family="Helvetica,sans-Serif" font-size="10.00" fill="#000000">turbulence</text>
</g>
<!-- dir_d4759c65d88ac8462151b54b86eeee49 -->
<g id="node2" class="node">
<title>dir_d4759c65d88ac8462151b54b86eeee49</title>
<g id="a_node2"><a xlink:href="dir_d4759c65d88ac8462151b54b86eeee49.html" target="_top" xlink:title="LES">
<polygon fill="#ffffff" stroke="#000000" points="86,-180 32,-180 32,-144 86,-144 86,-180"/>
<text text-anchor="middle" x="59" y="-159.5" font-family="Helvetica,sans-Serif" font-size="10.00" fill="#000000">LES</text>
</a>
</g>
</g>
<!-- dir_9ff815a534beac751fa88e427dbab695&#45;&gt;dir_d4759c65d88ac8462151b54b86eeee49 -->
<g id="edge2" class="edge">
<title>dir_9ff815a534beac751fa88e427dbab695&#45;&gt;dir_d4759c65d88ac8462151b54b86eeee49</title>
<path fill="none" stroke="#000000" d="M56.0094,-215.8314C56.4372,-208.131 56.9459,-198.9743 57.4213,-190.4166"/>
<polygon fill="#000000" stroke="#000000" points="60.9169,-190.592 57.977,-180.4133 53.9276,-190.2037 60.9169,-190.592"/>
<g id="a_edge2&#45;headlabel"><a xlink:href="dir_000021_000027.html" target="_top" xlink:title="1">
<text text-anchor="middle" x="63.5525" y="-191.8386" font-family="Helvetica,sans-Serif" font-size="10.00" fill="#000000">1</text>
</a>
</g>
</g>
<!-- dir_e4cd57caa88bf1f4e1bf9521bc47c3c0 -->
<g id="node3" class="node">
<title>dir_e4cd57caa88bf1f4e1bf9521bc47c3c0</title>
<g id="a_node3"><a xlink:href="dir_e4cd57caa88bf1f4e1bf9521bc47c3c0.html" target="_top" xlink:title="utilities">
<polygon fill="#ffffff" stroke="#ff0000" points="251,-108 197,-108 197,-72 251,-72 251,-108"/>
<text text-anchor="middle" x="224" y="-87.5" font-family="Helvetica,sans-Serif" font-size="10.00" fill="#000000">utilities</text>
</a>
</g>
</g>
<!-- dir_9ff815a534beac751fa88e427dbab695&#45;&gt;dir_e4cd57caa88bf1f4e1bf9521bc47c3c0 -->
<g id="edge1" class="edge">
<title>dir_9ff815a534beac751fa88e427dbab695&#45;&gt;dir_e4cd57caa88bf1f4e1bf9521bc47c3c0</title>
<path fill="none" stroke="#000000" d="M86.3351,-227.6229C128.1404,-218.4431 198.792,-200.354 215,-180 228.6182,-162.8983 230.0863,-137.7803 228.5918,-118.4226"/>
<polygon fill="#000000" stroke="#000000" points="232.0581,-117.9198 227.5151,-108.3484 225.0977,-118.6638 232.0581,-117.9198"/>
<g id="a_edge1&#45;headlabel"><a xlink:href="dir_000021_000005.html" target="_top" xlink:title="1">
<text text-anchor="middle" x="235.2632" y="-118.6923" font-family="Helvetica,sans-Serif" font-size="10.00" fill="#000000">1</text>
</a>
</g>
</g>
<!-- dir_7b7e55eaa727ae9c717abfc097345a8f -->
<g id="node7" class="node">
<title>dir_7b7e55eaa727ae9c717abfc097345a8f</title>
<g id="a_node7"><a xlink:href="dir_7b7e55eaa727ae9c717abfc097345a8f.html" target="_top" xlink:title="transport_models">
<polygon fill="none" stroke="#000000" points="354,-180 262,-180 262,-144 354,-144 354,-180"/>
<text text-anchor="middle" x="308" y="-159.5" font-family="Helvetica,sans-Serif" font-size="10.00" fill="#000000">transport_models</text>
</a>
</g>
</g>
<!-- dir_9ff815a534beac751fa88e427dbab695&#45;&gt;dir_7b7e55eaa727ae9c717abfc097345a8f -->
<g id="edge3" class="edge">
<title>dir_9ff815a534beac751fa88e427dbab695&#45;&gt;dir_7b7e55eaa727ae9c717abfc097345a8f</title>
<path fill="none" stroke="#000000" d="M86.1378,-225.48C124.3302,-214.9854 191.0221,-196.5161 248,-180 249.2632,-179.6338 250.541,-179.2621 251.8292,-178.8861"/>
<polygon fill="#000000" stroke="#000000" points="253.2313,-182.1221 261.8378,-175.9432 251.2566,-175.4064 253.2313,-182.1221"/>
<g id="a_edge3&#45;headlabel"><a xlink:href="dir_000021_000010.html" target="_top" xlink:title="2">
<text text-anchor="middle" x="250.5836" y="-183.36" font-family="Helvetica,sans-Serif" font-size="10.00" fill="#000000">2</text>
</a>
</g>
</g>
<!-- dir_7f7a014517bfe31ea45620a6a947e37b -->
<g id="node4" class="node">
<title>dir_7f7a014517bfe31ea45620a6a947e37b</title>
<g id="a_node4"><a xlink:href="dir_7f7a014517bfe31ea45620a6a947e37b.html" target="_top" xlink:title="fvm">
<polygon fill="none" stroke="#000000" points="141,-108 87,-108 87,-72 141,-72 141,-108"/>
<text text-anchor="middle" x="114" y="-87.5" font-family="Helvetica,sans-Serif" font-size="10.00" fill="#000000">fvm</text>
</a>
</g>
</g>
<!-- dir_d4759c65d88ac8462151b54b86eeee49&#45;&gt;dir_7f7a014517bfe31ea45620a6a947e37b -->
<g id="edge5" class="edge">
<title>dir_d4759c65d88ac8462151b54b86eeee49&#45;&gt;dir_7f7a014517bfe31ea45620a6a947e37b</title>
<path fill="none" stroke="#000000" d="M72.8788,-143.8314C79.2136,-135.5386 86.8384,-125.557 93.7926,-116.4533"/>
<polygon fill="#000000" stroke="#000000" points="96.6452,-118.4847 99.9343,-108.4133 91.0825,-114.2353 96.6452,-118.4847"/>
<g id="a_edge5&#45;headlabel"><a xlink:href="dir_000027_000011.html" target="_top" xlink:title="3">
<text text-anchor="middle" x="96.7195" y="-120.5647" font-family="Helvetica,sans-Serif" font-size="10.00" fill="#000000">3</text>
</a>
</g>
</g>
<!-- dir_3d3615e9a999cab4f3407307569d6ced -->
<g id="node5" class="node">
<title>dir_3d3615e9a999cab4f3407307569d6ced</title>
<g id="a_node5"><a xlink:href="dir_3d3615e9a999cab4f3407307569d6ced.html" target="_top" xlink:title="core">
<polygon fill="none" stroke="#000000" points="196,-36 142,-36 142,0 196,0 196,-36"/>
<text text-anchor="middle" x="169" y="-15.5" font-family="Helvetica,sans-Serif" font-size="10.00" fill="#000000">core</text>
</a>
</g>
</g>
<!-- dir_d4759c65d88ac8462151b54b86eeee49&#45;&gt;dir_3d3615e9a999cab4f3407307569d6ced -->
<g id="edge6" class="edge">
<title>dir_d4759c65d88ac8462151b54b86eeee49&#45;&gt;dir_3d3615e9a999cab4f3407307569d6ced</title>
<path fill="none" stroke="#000000" d="M58.6883,-143.7327C59.2398,-124.2384 62.7477,-93.2902 78,-72 91.3625,-53.3477 113.3472,-40.042 132.36,-31.3058"/>
<polygon fill="#000000" stroke="#000000" points="133.9017,-34.4522 141.6863,-27.2653 131.119,-28.0291 133.9017,-34.4522"/>
<g id="a_edge6&#45;headlabel"><a xlink:href="dir_000027_000009.html" target="_top" xlink:title="1">
<text text-anchor="middle" x="131.732" y="-35.9864" font-family="Helvetica,sans-Serif" font-size="10.00" fill="#000000">1</text>
</a>
</g>
</g>
<!-- dir_4bb30ed846ea1df1fc4d16874a455d91 -->
<g id="node6" class="node">
<title>dir_4bb30ed846ea1df1fc4d16874a455d91</title>
<g id="a_node6"><a xlink:href="dir_4bb30ed846ea1df1fc4d16874a455d91.html" target="_top" xlink:title="equation_systems">
<polygon fill="#ffffff" stroke="#ff0000" points="206,-180 110,-180 110,-144 206,-144 206,-180"/>
<text text-anchor="middle" x="158" y="-159.5" font-family="Helvetica,sans-Serif" font-size="10.00" fill="#000000">equation_systems</text>
</a>
</g>
</g>
<!-- dir_d4759c65d88ac8462151b54b86eeee49&#45;&gt;dir_4bb30ed846ea1df1fc4d16874a455d91 -->
<g id="edge7" class="edge">
<title>dir_d4759c65d88ac8462151b54b86eeee49&#45;&gt;dir_4bb30ed846ea1df1fc4d16874a455d91</title>
<path fill="none" stroke="#000000" d="M86.0703,-162C90.6727,-162 95.2752,-162 99.8776,-162"/>
<polygon fill="#000000" stroke="#000000" points="99.9533,-165.5001 109.9532,-162 99.9532,-158.5001 99.9533,-165.5001"/>
<g id="a_edge7&#45;headlabel"><a xlink:href="dir_000027_000002.html" target="_top" xlink:title="2">
<text text-anchor="middle" x="96.3586" y="-165.8393" font-family="Helvetica,sans-Serif" font-size="10.00" fill="#000000">2</text>
</a>
</g>
</g>
<!-- dir_e4cd57caa88bf1f4e1bf9521bc47c3c0&#45;&gt;dir_3d3615e9a999cab4f3407307569d6ced -->
<g id="edge4" class="edge">
<title>dir_e4cd57caa88bf1f4e1bf9521bc47c3c0&#45;&gt;dir_3d3615e9a999cab4f3407307569d6ced</title>
<path fill="none" stroke="#000000" d="M210.1212,-71.8314C203.7864,-63.5386 196.1616,-53.557 189.2074,-44.4533"/>
<polygon fill="#000000" stroke="#000000" points="191.9175,-42.2353 183.0657,-36.4133 186.3548,-46.4847 191.9175,-42.2353"/>
<g id="a_edge4&#45;headlabel"><a xlink:href="dir_000005_000009.html" target="_top" xlink:title="8">
<text text-anchor="middle" x="196.3558" y="-40.8683" font-family="Helvetica,sans-Serif" font-size="10.00" fill="#000000">8</text>
</a>
</g>
</g>
<!-- dir_7f7a014517bfe31ea45620a6a947e37b&#45;&gt;dir_3d3615e9a999cab4f3407307569d6ced -->
<g id="edge8" class="edge">
<title>dir_7f7a014517bfe31ea45620a6a947e37b&#45;&gt;dir_3d3615e9a999cab4f3407307569d6ced</title>
<path fill="none" stroke="#000000" d="M127.8788,-71.8314C134.2136,-63.5386 141.8384,-53.557 148.7926,-44.4533"/>
<polygon fill="#000000" stroke="#000000" points="151.6452,-46.4847 154.9343,-36.4133 146.0825,-42.2353 151.6452,-46.4847"/>
<g id="a_edge8&#45;headlabel"><a xlink:href="dir_000011_000009.html" target="_top" xlink:title="1">
<text text-anchor="middle" x="151.7195" y="-48.5647" font-family="Helvetica,sans-Serif" font-size="10.00" fill="#000000">1</text>
</a>
</g>
</g>
<!-- dir_4bb30ed846ea1df1fc4d16874a455d91&#45;&gt;dir_9ff815a534beac751fa88e427dbab695 -->
<g id="edge9" class="edge">
<title>dir_4bb30ed846ea1df1fc4d16874a455d91&#45;&gt;dir_9ff815a534beac751fa88e427dbab695</title>
<path fill="none" stroke="#000000" d="M132.0171,-180.1628C119.0879,-189.2007 103.2876,-200.2456 89.3706,-209.9739"/>
<polygon fill="#000000" stroke="#000000" points="87.1821,-207.2334 80.9912,-215.8314 91.1926,-212.9707 87.1821,-207.2334"/>
<g id="a_edge9&#45;headlabel"><a xlink:href="dir_000002_000021.html" target="_top" xlink:title="2">
<text text-anchor="middle" x="88.5015" y="-200.3469" font-family="Helvetica,sans-Serif" font-size="10.00" fill="#000000">2</text>
</a>
</g>
</g>
<!-- dir_4bb30ed846ea1df1fc4d16874a455d91&#45;&gt;dir_e4cd57caa88bf1f4e1bf9521bc47c3c0 -->
<g id="edge10" class="edge">
<title>dir_4bb30ed846ea1df1fc4d16874a455d91&#45;&gt;dir_e4cd57caa88bf1f4e1bf9521bc47c3c0</title>
<path fill="none" stroke="#000000" d="M174.6546,-143.8314C182.4114,-135.3694 191.7802,-125.1489 200.261,-115.8971"/>
<polygon fill="#000000" stroke="#000000" points="202.9439,-118.1499 207.1212,-108.4133 197.7838,-113.4198 202.9439,-118.1499"/>
<g id="a_edge10&#45;headlabel"><a xlink:href="dir_000002_000005.html" target="_top" xlink:title="10">
<text text-anchor="middle" x="202.608" y="-120.2182" font-family="Helvetica,sans-Serif" font-size="10.00" fill="#000000">10</text>
</a>
</g>
</g>
<!-- dir_4bb30ed846ea1df1fc4d16874a455d91&#45;&gt;dir_7f7a014517bfe31ea45620a6a947e37b -->
<g id="edge11" class="edge">
<title>dir_4bb30ed846ea1df1fc4d16874a455d91&#45;&gt;dir_7f7a014517bfe31ea45620a6a947e37b</title>
<path fill="none" stroke="#000000" d="M146.8969,-143.8314C141.9326,-135.7079 135.9778,-125.9637 130.5072,-117.0118"/>
<polygon fill="#000000" stroke="#000000" points="133.4536,-115.121 125.2526,-108.4133 127.4806,-118.7712 133.4536,-115.121"/>
<g id="a_edge11&#45;headlabel"><a xlink:href="dir_000002_000011.html" target="_top" xlink:title="1">
<text text-anchor="middle" x="137.7507" y="-114.2077" font-family="Helvetica,sans-Serif" font-size="10.00" fill="#000000">1</text>
</a>
</g>
</g>
<!-- dir_4bb30ed846ea1df1fc4d16874a455d91&#45;&gt;dir_3d3615e9a999cab4f3407307569d6ced -->
<g id="edge12" class="edge">
<title>dir_4bb30ed846ea1df1fc4d16874a455d91&#45;&gt;dir_3d3615e9a999cab4f3407307569d6ced</title>
<path fill="none" stroke="#000000" d="M159.3932,-143.7623C161.2694,-119.201 164.6269,-75.2474 166.8341,-46.3541"/>
<polygon fill="#000000" stroke="#000000" points="170.3462,-46.3272 167.6182,-36.0896 163.3666,-45.794 170.3462,-46.3272"/>
<g id="a_edge12&#45;headlabel"><a xlink:href="dir_000002_000009.html" target="_top" xlink:title="47">
<text text-anchor="middle" x="172.9036" y="-47.6276" font-family="Helvetica,sans-Serif" font-size="10.00" fill="#000000">47</text>
</a>
</g>
</g>
<!-- dir_7b7e55eaa727ae9c717abfc097345a8f&#45;&gt;dir_3d3615e9a999cab4f3407307569d6ced -->
<g id="edge13" class="edge">
<title>dir_7b7e55eaa727ae9c717abfc097345a8f&#45;&gt;dir_3d3615e9a999cab4f3407307569d6ced</title>
<path fill="none" stroke="#000000" d="M301.7678,-143.9768C294.29,-124.4074 280.1844,-93.1264 260,-72 244.6543,-55.9381 223.5022,-43.0016 205.4529,-33.8217"/>
<polygon fill="#000000" stroke="#000000" points="206.8652,-30.6163 196.3443,-29.367 203.7898,-36.9046 206.8652,-30.6163"/>
<g id="a_edge13&#45;headlabel"><a xlink:href="dir_000010_000009.html" target="_top" xlink:title="2">
<text text-anchor="middle" x="211.3417" y="-27.1449" font-family="Helvetica,sans-Serif" font-size="10.00" fill="#000000">2</text>
</a>
</g>
</g>
</g>
</svg>
