<?xml version="1.0" encoding="UTF-8" standalone="no"?>
<!DOCTYPE svg PUBLIC "-//W3C//DTD SVG 1.1//EN"
 "http://www.w3.org/Graphics/SVG/1.1/DTD/svg11.dtd">
<!-- Generated by graphviz version 2.40.1 (20161225.0304)
 -->
<!-- Title: amr&#45;wind Pages: 1 -->
<svg width="722pt" height="580pt"
 viewBox="0.00 0.00 722.00 580.00" xmlns="http://www.w3.org/2000/svg" xmlns:xlink="http://www.w3.org/1999/xlink">
<g id="graph0" class="graph" transform="scale(1 1) rotate(0) translate(4 576)">
<title>amr&#45;wind</title>
<polygon fill="#ffffff" stroke="transparent" points="-4,4 -4,-576 718,-576 718,4 -4,4"/>
<g id="clust1" class="cluster">
<title>clusterdir_d85575251dd712327fe3cf057fa568b4</title>
<g id="a_clust1"><a xlink:href="dir_d85575251dd712327fe3cf057fa568b4.html" target="_top">
<polygon fill="#eeeeff" stroke="#000000" points="8,-8 8,-564 706,-564 706,-8 8,-8"/>
</a>
</g>
</g>
<!-- dir_d85575251dd712327fe3cf057fa568b4 -->
<g id="node1" class="node">
<title>dir_d85575251dd712327fe3cf057fa568b4</title>
<text text-anchor="middle" x="359" y="-535.5" font-family="Helvetica,sans-Serif" font-size="10.00" fill="#000000">amr&#45;wind</text>
</g>
<!-- dir_35ffb1505af3943bdf99903da87524fe -->
<g id="node3" class="node">
<title>dir_35ffb1505af3943bdf99903da87524fe</title>
<g id="a_node3"><a xlink:href="dir_35ffb1505af3943bdf99903da87524fe.html" target="_top" xlink:title="convection">
<polygon fill="#ffffff" stroke="#000000" points="442,-484 378,-484 378,-448 442,-448 442,-484"/>
<text text-anchor="middle" x="410" y="-463.5" font-family="Helvetica,sans-Serif" font-size="10.00" fill="#000000">convection</text>
</a>
</g>
</g>
<!-- dir_d85575251dd712327fe3cf057fa568b4&#45;&gt;dir_35ffb1505af3943bdf99903da87524fe -->
<g id="edge11" class="edge">
<title>dir_d85575251dd712327fe3cf057fa568b4&#45;&gt;dir_35ffb1505af3943bdf99903da87524fe</title>
<path fill="none" stroke="#000000" d="M371.8695,-519.8314C377.6835,-511.6232 384.6696,-501.7606 391.0646,-492.7323"/>
<polygon fill="#000000" stroke="#000000" points="394.0331,-494.5966 396.9573,-484.4133 388.321,-490.5505 394.0331,-494.5966"/>
<g id="a_edge11&#45;headlabel"><a xlink:href="dir_000000_000015.html" target="_top" xlink:title="6">
<text text-anchor="middle" x="394.2723" y="-496.671" font-family="Helvetica,sans-Serif" font-size="10.00" fill="#000000">6</text>
</a>
</g>
</g>
<!-- dir_3d3615e9a999cab4f3407307569d6ced -->
<g id="node4" class="node">
<title>dir_3d3615e9a999cab4f3407307569d6ced</title>
<g id="a_node4"><a xlink:href="dir_3d3615e9a999cab4f3407307569d6ced.html" target="_top" xlink:title="core">
<polygon fill="#ffffff" stroke="#000000" points="437,-412 383,-412 383,-376 437,-376 437,-412"/>
<text text-anchor="middle" x="410" y="-391.5" font-family="Helvetica,sans-Serif" font-size="10.00" fill="#000000">core</text>
</a>
</g>
</g>
<!-- dir_d85575251dd712327fe3cf057fa568b4&#45;&gt;dir_3d3615e9a999cab4f3407307569d6ced -->
<g id="edge16" class="edge">
<title>dir_d85575251dd712327fe3cf057fa568b4&#45;&gt;dir_3d3615e9a999cab4f3407307569d6ced</title>
<path fill="none" stroke="#000000" d="M358.2303,-519.7275C358.0763,-501.0424 359.6109,-471.5052 369,-448 372.9298,-438.1619 379.1639,-428.567 385.5964,-420.2603"/>
<polygon fill="#000000" stroke="#000000" points="388.388,-422.3756 392.017,-412.4217 382.9727,-417.9399 388.388,-422.3756"/>
<g id="a_edge16&#45;headlabel"><a xlink:href="dir_000000_000009.html" target="_top" xlink:title="115">
<text text-anchor="middle" x="388.3067" y="-424.4555" font-family="Helvetica,sans-Serif" font-size="10.00" fill="#000000">115</text>
</a>
</g>
</g>
<!-- dir_a816a247b59c90f95e41afe29b966a18 -->
<g id="node6" class="node">
<title>dir_a816a247b59c90f95e41afe29b966a18</title>
<g id="a_node6"><a xlink:href="dir_a816a247b59c90f95e41afe29b966a18.html" target="_top" xlink:title="diffusion">
<polygon fill="#ffffff" stroke="#000000" points="334,-124 280,-124 280,-88 334,-88 334,-124"/>
<text text-anchor="middle" x="307" y="-103.5" font-family="Helvetica,sans-Serif" font-size="10.00" fill="#000000">diffusion</text>
</a>
</g>
</g>
<!-- dir_d85575251dd712327fe3cf057fa568b4&#45;&gt;dir_a816a247b59c90f95e41afe29b966a18 -->
<g id="edge14" class="edge">
<title>dir_d85575251dd712327fe3cf057fa568b4&#45;&gt;dir_a816a247b59c90f95e41afe29b966a18</title>
<path fill="none" stroke="#000000" d="M352.9307,-519.729C337.8693,-474.2385 299.7903,-358.2486 297,-340 291.0632,-301.1736 299.7818,-187.6857 304.4174,-134.3344"/>
<polygon fill="#000000" stroke="#000000" points="307.9183,-134.4771 305.3112,-124.208 300.9454,-133.8615 307.9183,-134.4771"/>
<g id="a_edge14&#45;headlabel"><a xlink:href="dir_000000_000014.html" target="_top" xlink:title="3">
<text text-anchor="middle" x="310.4306" y="-135.8074" font-family="Helvetica,sans-Serif" font-size="10.00" fill="#000000">3</text>
</a>
</g>
</g>
<!-- dir_4bb30ed846ea1df1fc4d16874a455d91 -->
<g id="node7" class="node">
<title>dir_4bb30ed846ea1df1fc4d16874a455d91</title>
<g id="a_node7"><a xlink:href="dir_4bb30ed846ea1df1fc4d16874a455d91.html" target="_top" xlink:title="equation_systems">
<polygon fill="#ffffff" stroke="#ff0000" points="452,-196 356,-196 356,-160 452,-160 452,-196"/>
<text text-anchor="middle" x="404" y="-175.5" font-family="Helvetica,sans-Serif" font-size="10.00" fill="#000000">equation_systems</text>
</a>
</g>
</g>
<!-- dir_d85575251dd712327fe3cf057fa568b4&#45;&gt;dir_4bb30ed846ea1df1fc4d16874a455d91 -->
<g id="edge15" class="edge">
<title>dir_d85575251dd712327fe3cf057fa568b4&#45;&gt;dir_4bb30ed846ea1df1fc4d16874a455d91</title>
<path fill="none" stroke="#000000" d="M387.2696,-537.2176C456.0183,-534.6896 629.0956,-524.367 667,-484 694.5493,-454.6608 677,-434.2462 677,-394 677,-394 677,-394 677,-322 677,-225.6488 542.3184,-193.6073 462.1508,-183.0695"/>
<polygon fill="#000000" stroke="#000000" points="462.5334,-179.5902 452.1785,-181.832 461.6714,-186.5369 462.5334,-179.5902"/>
<g id="a_edge15&#45;headlabel"><a xlink:href="dir_000000_000002.html" target="_top" xlink:title="9">
<text text-anchor="middle" x="466.4503" y="-174.7151" font-family="Helvetica,sans-Serif" font-size="10.00" fill="#000000">9</text>
</a>
</g>
</g>
<!-- dir_629222d9fcf2f4ceefae477297f2ec84 -->
<g id="node10" class="node">
<title>dir_629222d9fcf2f4ceefae477297f2ec84</title>
<g id="a_node10"><a xlink:href="dir_629222d9fcf2f4ceefae477297f2ec84.html" target="_top" xlink:title="overset">
<polygon fill="#ffffff" stroke="#000000" points="658,-484 604,-484 604,-448 658,-448 658,-484"/>
<text text-anchor="middle" x="631" y="-463.5" font-family="Helvetica,sans-Serif" font-size="10.00" fill="#000000">overset</text>
</a>
</g>
</g>
<!-- dir_d85575251dd712327fe3cf057fa568b4&#45;&gt;dir_629222d9fcf2f4ceefae477297f2ec84 -->
<g id="edge9" class="edge">
<title>dir_d85575251dd712327fe3cf057fa568b4&#45;&gt;dir_629222d9fcf2f4ceefae477297f2ec84</title>
<path fill="none" stroke="#000000" d="M387.2277,-533.7828C430.3787,-526.8613 515.2337,-511.3769 594.1837,-483.8672"/>
<polygon fill="#000000" stroke="#000000" points="595.5314,-487.1026 603.7792,-480.4525 593.1845,-480.5078 595.5314,-487.1026"/>
<g id="a_edge9&#45;headlabel"><a xlink:href="dir_000000_000028.html" target="_top" xlink:title="2">
<text text-anchor="middle" x="593.0967" y="-488.4827" font-family="Helvetica,sans-Serif" font-size="10.00" fill="#000000">2</text>
</a>
</g>
</g>
<!-- dir_363965ad9f416a72819c4d9abdf3e48c -->
<g id="node12" class="node">
<title>dir_363965ad9f416a72819c4d9abdf3e48c</title>
<g id="a_node12"><a xlink:href="dir_363965ad9f416a72819c4d9abdf3e48c.html" target="_top" xlink:title="prob">
<polygon fill="#ffffff" stroke="#000000" points="320,-484 266,-484 266,-448 320,-448 320,-484"/>
<text text-anchor="middle" x="293" y="-463.5" font-family="Helvetica,sans-Serif" font-size="10.00" fill="#000000">prob</text>
</a>
</g>
</g>
<!-- dir_d85575251dd712327fe3cf057fa568b4&#45;&gt;dir_363965ad9f416a72819c4d9abdf3e48c -->
<g id="edge10" class="edge">
<title>dir_d85575251dd712327fe3cf057fa568b4&#45;&gt;dir_363965ad9f416a72819c4d9abdf3e48c</title>
<path fill="none" stroke="#000000" d="M342.3454,-519.8314C334.5886,-511.3694 325.2198,-501.1489 316.739,-491.8971"/>
<polygon fill="#000000" stroke="#000000" points="319.2162,-489.4198 309.8788,-484.4133 314.0561,-494.1499 319.2162,-489.4198"/>
<g id="a_edge10&#45;headlabel"><a xlink:href="dir_000000_000017.html" target="_top" xlink:title="1">
<text text-anchor="middle" x="323.7381" y="-487.651" font-family="Helvetica,sans-Serif" font-size="10.00" fill="#000000">1</text>
</a>
</g>
</g>
<!-- dir_9ff815a534beac751fa88e427dbab695 -->
<g id="node16" class="node">
<title>dir_9ff815a534beac751fa88e427dbab695</title>
<g id="a_node16"><a xlink:href="dir_9ff815a534beac751fa88e427dbab695.html" target="_top" xlink:title="turbulence">
<polygon fill="#ffffff" stroke="#ff0000" points="479,-124 417,-124 417,-88 479,-88 479,-124"/>
<text text-anchor="middle" x="448" y="-103.5" font-family="Helvetica,sans-Serif" font-size="10.00" fill="#000000">turbulence</text>
</a>
</g>
</g>
<!-- dir_d85575251dd712327fe3cf057fa568b4&#45;&gt;dir_9ff815a534beac751fa88e427dbab695 -->
<g id="edge8" class="edge">
<title>dir_d85575251dd712327fe3cf057fa568b4&#45;&gt;dir_9ff815a534beac751fa88e427dbab695</title>
<path fill="none" stroke="#000000" d="M387.1054,-537.2124C457.2856,-534.6501 637.5526,-524.2134 679,-484 708.2769,-455.5947 697,-434.7922 697,-394 697,-394 697,-394 697,-250 697,-155.0445 559.6259,-121.7034 488.9517,-110.8337"/>
<polygon fill="#000000" stroke="#000000" points="489.4328,-107.3669 479.0326,-109.3883 488.4234,-114.2937 489.4328,-107.3669"/>
<g id="a_edge8&#45;headlabel"><a xlink:href="dir_000000_000021.html" target="_top" xlink:title="5">
<text text-anchor="middle" x="493.3992" y="-102.5755" font-family="Helvetica,sans-Serif" font-size="10.00" fill="#000000">5</text>
</a>
</g>
</g>
<!-- dir_e4cd57caa88bf1f4e1bf9521bc47c3c0 -->
<g id="node17" class="node">
<title>dir_e4cd57caa88bf1f4e1bf9521bc47c3c0</title>
<g id="a_node17"><a xlink:href="dir_e4cd57caa88bf1f4e1bf9521bc47c3c0.html" target="_top" xlink:title="utilities">
<polygon fill="#ffffff" stroke="#ff0000" points="182,-52 128,-52 128,-16 182,-16 182,-52"/>
<text text-anchor="middle" x="155" y="-31.5" font-family="Helvetica,sans-Serif" font-size="10.00" fill="#000000">utilities</text>
</a>
</g>
</g>
<!-- dir_d85575251dd712327fe3cf057fa568b4&#45;&gt;dir_e4cd57caa88bf1f4e1bf9521bc47c3c0 -->
<g id="edge13" class="edge">
<title>dir_d85575251dd712327fe3cf057fa568b4&#45;&gt;dir_e4cd57caa88bf1f4e1bf9521bc47c3c0</title>
<path fill="none" stroke="#000000" d="M330.8771,-537.2929C261.594,-534.9283 85.5208,-524.9339 47,-484 19.4187,-454.6909 37,-434.2462 37,-394 37,-394 37,-394 37,-178 37,-125.4093 84.6689,-81.4986 119.4111,-56.4792"/>
<polygon fill="#000000" stroke="#000000" points="121.7334,-59.1265 127.9284,-50.5316 117.7257,-53.3873 121.7334,-59.1265"/>
<g id="a_edge13&#45;headlabel"><a xlink:href="dir_000000_000005.html" target="_top" xlink:title="52">
<text text-anchor="middle" x="120.4117" y="-61.0124" font-family="Helvetica,sans-Serif" font-size="10.00" fill="#000000">52</text>
</a>
</g>
</g>
<!-- dir_0c368f76a33d967d5b838b5681461de6 -->
<g id="node18" class="node">
<title>dir_0c368f76a33d967d5b838b5681461de6</title>
<g id="a_node18"><a xlink:href="dir_0c368f76a33d967d5b838b5681461de6.html" target="_top" xlink:title="wind_energy">
<polygon fill="#ffffff" stroke="#000000" points="285.5,-268 214.5,-268 214.5,-232 285.5,-232 285.5,-268"/>
<text text-anchor="middle" x="250" y="-247.5" font-family="Helvetica,sans-Serif" font-size="10.00" fill="#000000">wind_energy</text>
</a>
</g>
</g>
<!-- dir_d85575251dd712327fe3cf057fa568b4&#45;&gt;dir_0c368f76a33d967d5b838b5681461de6 -->
<g id="edge12" class="edge">
<title>dir_d85575251dd712327fe3cf057fa568b4&#45;&gt;dir_0c368f76a33d967d5b838b5681461de6</title>
<path fill="none" stroke="#000000" d="M330.6206,-531.448C306.4726,-524.2297 273.2037,-510.0241 257,-484 216.8567,-419.5273 231.5888,-324.4968 242.4731,-277.8726"/>
<polygon fill="#000000" stroke="#000000" points="245.8728,-278.7043 244.8513,-268.1588 239.0736,-277.0396 245.8728,-278.7043"/>
<g id="a_edge12&#45;headlabel"><a xlink:href="dir_000000_000001.html" target="_top" xlink:title="6">
<text text-anchor="middle" x="247.7759" y="-280.3709" font-family="Helvetica,sans-Serif" font-size="10.00" fill="#000000">6</text>
</a>
</g>
</g>
<!-- dir_ebb19deee3cd40f4ac122fef25c04ca8 -->
<g id="node2" class="node">
<title>dir_ebb19deee3cd40f4ac122fef25c04ca8</title>
<g id="a_node2"><a xlink:href="dir_ebb19deee3cd40f4ac122fef25c04ca8.html" target="_top" xlink:title="boundary_conditions">
<polygon fill="#ffffff" stroke="#000000" points="412,-340 306,-340 306,-304 412,-304 412,-340"/>
<text text-anchor="middle" x="359" y="-319.5" font-family="Helvetica,sans-Serif" font-size="10.00" fill="#000000">boundary_conditions</text>
</a>
</g>
</g>
<!-- dir_ebb19deee3cd40f4ac122fef25c04ca8&#45;&gt;dir_3d3615e9a999cab4f3407307569d6ced -->
<g id="edge33" class="edge">
<title>dir_ebb19deee3cd40f4ac122fef25c04ca8&#45;&gt;dir_3d3615e9a999cab4f3407307569d6ced</title>
<path fill="none" stroke="#000000" d="M378.0187,-340.4133C384.5756,-348.569 391.6739,-358.3212 397.6047,-367.257"/>
<polygon fill="#000000" stroke="#000000" points="394.7494,-369.2889 403.0829,-375.8314 400.6483,-365.52 394.7494,-369.2889"/>
<g id="a_edge33&#45;headlabel"><a xlink:href="dir_000006_000009.html" target="_top" xlink:title="4">
<text text-anchor="middle" x="390.4215" y="-365.2885" font-family="Helvetica,sans-Serif" font-size="10.00" fill="#000000">4</text>
</a>
</g>
</g>
<!-- dir_ebb19deee3cd40f4ac122fef25c04ca8&#45;&gt;dir_0c368f76a33d967d5b838b5681461de6 -->
<g id="edge32" class="edge">
<title>dir_ebb19deee3cd40f4ac122fef25c04ca8&#45;&gt;dir_0c368f76a33d967d5b838b5681461de6</title>
<path fill="none" stroke="#000000" d="M331.4947,-303.8314C317.682,-294.7074 300.7744,-283.539 285.9471,-273.7449"/>
<polygon fill="#000000" stroke="#000000" points="287.7696,-270.7541 277.4965,-268.1628 283.9114,-276.5949 287.7696,-270.7541"/>
<g id="a_edge32&#45;headlabel"><a xlink:href="dir_000006_000001.html" target="_top" xlink:title="1">
<text text-anchor="middle" x="292.3338" y="-267.8662" font-family="Helvetica,sans-Serif" font-size="10.00" fill="#000000">1</text>
</a>
</g>
</g>
<!-- dir_35ffb1505af3943bdf99903da87524fe&#45;&gt;dir_3d3615e9a999cab4f3407307569d6ced -->
<g id="edge24" class="edge">
<title>dir_35ffb1505af3943bdf99903da87524fe&#45;&gt;dir_3d3615e9a999cab4f3407307569d6ced</title>
<path fill="none" stroke="#000000" d="M410,-447.8314C410,-440.131 410,-430.9743 410,-422.4166"/>
<polygon fill="#000000" stroke="#000000" points="413.5001,-422.4132 410,-412.4133 406.5001,-422.4133 413.5001,-422.4132"/>
<g id="a_edge24&#45;headlabel"><a xlink:href="dir_000015_000009.html" target="_top" xlink:title="4">
<text text-anchor="middle" x="416.3393" y="-423.5079" font-family="Helvetica,sans-Serif" font-size="10.00" fill="#000000">4</text>
</a>
</g>
</g>
<!-- dir_35ffb1505af3943bdf99903da87524fe&#45;&gt;dir_e4cd57caa88bf1f4e1bf9521bc47c3c0 -->
<g id="edge23" class="edge">
<title>dir_35ffb1505af3943bdf99903da87524fe&#45;&gt;dir_e4cd57caa88bf1f4e1bf9521bc47c3c0</title>
<path fill="none" stroke="#000000" d="M381.3313,-447.8987C335.4417,-417.1748 246.5418,-350.0892 206,-268 201.419,-258.7243 173.1292,-122.406 160.7689,-62.2127"/>
<polygon fill="#000000" stroke="#000000" points="164.161,-61.3308 158.7234,-52.2377 157.3037,-62.737 164.161,-61.3308"/>
<g id="a_edge23&#45;headlabel"><a xlink:href="dir_000015_000005.html" target="_top" xlink:title="4">
<text text-anchor="middle" x="167.6644" y="-61.7818" font-family="Helvetica,sans-Serif" font-size="10.00" fill="#000000">4</text>
</a>
</g>
</g>
<!-- dir_3d3615e9a999cab4f3407307569d6ced&#45;&gt;dir_ebb19deee3cd40f4ac122fef25c04ca8 -->
<g id="edge50" class="edge">
<title>dir_3d3615e9a999cab4f3407307569d6ced&#45;&gt;dir_ebb19deee3cd40f4ac122fef25c04ca8</title>
<path fill="none" stroke="#000000" d="M391.1782,-375.8314C384.6323,-367.7079 377.5279,-357.9637 371.5739,-349.0118"/>
<polygon fill="#000000" stroke="#000000" points="374.4075,-346.9464 366.0667,-340.4133 368.5129,-350.7219 374.4075,-346.9464"/>
<g id="a_edge50&#45;headlabel"><a xlink:href="dir_000009_000006.html" target="_top" xlink:title="1">
<text text-anchor="middle" x="378.7371" y="-345.9421" font-family="Helvetica,sans-Serif" font-size="10.00" fill="#000000">1</text>
</a>
</g>
</g>
<!-- dir_63a0b6c750cdf58b4c6ba486311e48e1 -->
<g id="node5" class="node">
<title>dir_63a0b6c750cdf58b4c6ba486311e48e1</title>
<g id="a_node5"><a xlink:href="dir_63a0b6c750cdf58b4c6ba486311e48e1.html" target="_top" xlink:title="derive">
<polygon fill="#ffffff" stroke="#000000" points="514,-484 460,-484 460,-448 514,-448 514,-484"/>
<text text-anchor="middle" x="487" y="-463.5" font-family="Helvetica,sans-Serif" font-size="10.00" fill="#000000">derive</text>
</a>
</g>
</g>
<!-- dir_63a0b6c750cdf58b4c6ba486311e48e1&#45;&gt;dir_3d3615e9a999cab4f3407307569d6ced -->
<g id="edge34" class="edge">
<title>dir_63a0b6c750cdf58b4c6ba486311e48e1&#45;&gt;dir_3d3615e9a999cab4f3407307569d6ced</title>
<path fill="none" stroke="#000000" d="M467.5696,-447.8314C458.268,-439.1337 446.9796,-428.5783 436.8714,-419.1265"/>
<polygon fill="#000000" stroke="#000000" points="439.1189,-416.4363 429.4241,-412.1628 434.3379,-421.5493 439.1189,-416.4363"/>
<g id="a_edge34&#45;headlabel"><a xlink:href="dir_000013_000009.html" target="_top" xlink:title="1">
<text text-anchor="middle" x="443.6837" y="-414.3175" font-family="Helvetica,sans-Serif" font-size="10.00" fill="#000000">1</text>
</a>
</g>
</g>
<!-- dir_a816a247b59c90f95e41afe29b966a18&#45;&gt;dir_3d3615e9a999cab4f3407307569d6ced -->
<g id="edge41" class="edge">
<title>dir_a816a247b59c90f95e41afe29b966a18&#45;&gt;dir_3d3615e9a999cab4f3407307569d6ced</title>
<path fill="none" stroke="#000000" d="M313.8902,-124.0545C321.2143,-142.566 333.5738,-171.9671 347,-196 375.3784,-246.7971 403.7848,-248.4184 421,-304 427.2582,-324.2054 423.9157,-347.9961 419.3272,-366.0412"/>
<polygon fill="#000000" stroke="#000000" points="415.9563,-365.0993 416.6241,-375.6731 422.696,-366.9908 415.9563,-365.0993"/>
<g id="a_edge41&#45;headlabel"><a xlink:href="dir_000014_000009.html" target="_top" xlink:title="1">
<text text-anchor="middle" x="414.1939" y="-358.3713" font-family="Helvetica,sans-Serif" font-size="10.00" fill="#000000">1</text>
</a>
</g>
</g>
<!-- dir_4bb30ed846ea1df1fc4d16874a455d91&#45;&gt;dir_ebb19deee3cd40f4ac122fef25c04ca8 -->
<g id="edge45" class="edge">
<title>dir_4bb30ed846ea1df1fc4d16874a455d91&#45;&gt;dir_ebb19deee3cd40f4ac122fef25c04ca8</title>
<path fill="none" stroke="#000000" d="M398.347,-196.0896C390.6623,-220.6805 376.8422,-264.905 367.7959,-293.8531"/>
<polygon fill="#000000" stroke="#000000" points="364.3414,-293.1735 364.6993,-303.7623 371.0228,-295.2615 364.3414,-293.1735"/>
<g id="a_edge45&#45;headlabel"><a xlink:href="dir_000002_000006.html" target="_top" xlink:title="1">
<text text-anchor="middle" x="362.7035" y="-286.3957" font-family="Helvetica,sans-Serif" font-size="10.00" fill="#000000">1</text>
</a>
</g>
</g>
<!-- dir_4bb30ed846ea1df1fc4d16874a455d91&#45;&gt;dir_35ffb1505af3943bdf99903da87524fe -->
<g id="edge43" class="edge">
<title>dir_4bb30ed846ea1df1fc4d16874a455d91&#45;&gt;dir_35ffb1505af3943bdf99903da87524fe</title>
<path fill="none" stroke="#000000" d="M416.9747,-196.0802C423.5227,-206.1621 430.9233,-219.2306 435,-232 459.376,-308.3525 469.226,-335.2898 446,-412 443.0436,-421.7645 437.6748,-431.3771 431.97,-439.7238"/>
<polygon fill="#000000" stroke="#000000" points="429.0586,-437.7761 425.9905,-447.9169 434.7129,-441.9027 429.0586,-437.7761"/>
<g id="a_edge43&#45;headlabel"><a xlink:href="dir_000002_000015.html" target="_top" xlink:title="3">
<text text-anchor="middle" x="428.8842" y="-430.6987" font-family="Helvetica,sans-Serif" font-size="10.00" fill="#000000">3</text>
</a>
</g>
</g>
<!-- dir_4bb30ed846ea1df1fc4d16874a455d91&#45;&gt;dir_3d3615e9a999cab4f3407307569d6ced -->
<g id="edge49" class="edge">
<title>dir_4bb30ed846ea1df1fc4d16874a455d91&#45;&gt;dir_3d3615e9a999cab4f3407307569d6ced</title>
<path fill="none" stroke="#000000" d="M412.5303,-196.0524C425.5953,-226.051 447.8636,-288.0132 436,-340 433.9144,-349.1394 430.0765,-358.534 425.9781,-366.8724"/>
<polygon fill="#000000" stroke="#000000" points="422.8583,-365.2853 421.3196,-375.7678 429.0595,-368.5328 422.8583,-365.2853"/>
<g id="a_edge49&#45;headlabel"><a xlink:href="dir_000002_000009.html" target="_top" xlink:title="47">
<text text-anchor="middle" x="422.0107" y="-358.2838" font-family="Helvetica,sans-Serif" font-size="10.00" fill="#000000">47</text>
</a>
</g>
</g>
<!-- dir_4bb30ed846ea1df1fc4d16874a455d91&#45;&gt;dir_a816a247b59c90f95e41afe29b966a18 -->
<g id="edge48" class="edge">
<title>dir_4bb30ed846ea1df1fc4d16874a455d91&#45;&gt;dir_a816a247b59c90f95e41afe29b966a18</title>
<path fill="none" stroke="#000000" d="M379.5228,-159.8314C367.4605,-150.8779 352.746,-139.9558 339.7314,-130.2955"/>
<polygon fill="#000000" stroke="#000000" points="341.5852,-127.3127 331.4694,-124.1628 337.413,-132.9335 341.5852,-127.3127"/>
<g id="a_edge48&#45;headlabel"><a xlink:href="dir_000002_000014.html" target="_top" xlink:title="1">
<text text-anchor="middle" x="346.1638" y="-124.6752" font-family="Helvetica,sans-Serif" font-size="10.00" fill="#000000">1</text>
</a>
</g>
</g>
<!-- dir_7f7a014517bfe31ea45620a6a947e37b -->
<g id="node8" class="node">
<title>dir_7f7a014517bfe31ea45620a6a947e37b</title>
<g id="a_node8"><a xlink:href="dir_7f7a014517bfe31ea45620a6a947e37b.html" target="_top" xlink:title="fvm">
<polygon fill="#ffffff" stroke="#000000" points="425,-52 371,-52 371,-16 425,-16 425,-52"/>
<text text-anchor="middle" x="398" y="-31.5" font-family="Helvetica,sans-Serif" font-size="10.00" fill="#000000">fvm</text>
</a>
</g>
</g>
<!-- dir_4bb30ed846ea1df1fc4d16874a455d91&#45;&gt;dir_7f7a014517bfe31ea45620a6a947e37b -->
<g id="edge47" class="edge">
<title>dir_4bb30ed846ea1df1fc4d16874a455d91&#45;&gt;dir_7f7a014517bfe31ea45620a6a947e37b</title>
<path fill="none" stroke="#000000" d="M403.2401,-159.7623C402.2167,-135.201 400.3853,-91.2474 399.1814,-62.3541"/>
<polygon fill="#000000" stroke="#000000" points="402.6671,-61.9352 398.7537,-52.0896 395.6732,-62.2267 402.6671,-61.9352"/>
<g id="a_edge47&#45;headlabel"><a xlink:href="dir_000002_000011.html" target="_top" xlink:title="1">
<text text-anchor="middle" x="405.6535" y="-62.9085" font-family="Helvetica,sans-Serif" font-size="10.00" fill="#000000">1</text>
</a>
</g>
</g>
<!-- dir_4bb30ed846ea1df1fc4d16874a455d91&#45;&gt;dir_9ff815a534beac751fa88e427dbab695 -->
<g id="edge42" class="edge">
<title>dir_4bb30ed846ea1df1fc4d16874a455d91&#45;&gt;dir_9ff815a534beac751fa88e427dbab695</title>
<path fill="none" stroke="#000000" d="M409.1507,-159.8314C413.3668,-151.6232 419.1958,-141.7606 425.1165,-132.7323"/>
<polygon fill="#000000" stroke="#000000" points="428.0442,-134.6511 430.7714,-124.4133 422.2551,-130.7158 428.0442,-134.6511"/>
<g id="a_edge42&#45;headlabel"><a xlink:href="dir_000002_000021.html" target="_top" xlink:title="2">
<text text-anchor="middle" x="428.3716" y="-136.72" font-family="Helvetica,sans-Serif" font-size="10.00" fill="#000000">2</text>
</a>
</g>
</g>
<!-- dir_4bb30ed846ea1df1fc4d16874a455d91&#45;&gt;dir_e4cd57caa88bf1f4e1bf9521bc47c3c0 -->
<g id="edge46" class="edge">
<title>dir_4bb30ed846ea1df1fc4d16874a455d91&#45;&gt;dir_e4cd57caa88bf1f4e1bf9521bc47c3c0</title>
<path fill="none" stroke="#000000" d="M396.2611,-159.64C386.7023,-139.1669 368.5189,-106.5056 343,-88 297.6053,-55.0809 232.5535,-42.162 192.0899,-37.1383"/>
<polygon fill="#000000" stroke="#000000" points="192.4439,-33.656 182.1111,-35.9978 191.649,-40.6108 192.4439,-33.656"/>
<g id="a_edge46&#45;headlabel"><a xlink:href="dir_000002_000005.html" target="_top" xlink:title="10">
<text text-anchor="middle" x="196.3376" y="-28.7432" font-family="Helvetica,sans-Serif" font-size="10.00" fill="#000000">10</text>
</a>
</g>
</g>
<!-- dir_4bb30ed846ea1df1fc4d16874a455d91&#45;&gt;dir_0c368f76a33d967d5b838b5681461de6 -->
<g id="edge44" class="edge">
<title>dir_4bb30ed846ea1df1fc4d16874a455d91&#45;&gt;dir_0c368f76a33d967d5b838b5681461de6</title>
<path fill="none" stroke="#000000" d="M371.194,-196.1185C348.9492,-207.0172 319.3734,-220.8466 294.9595,-231.7659"/>
<polygon fill="#000000" stroke="#000000" points="293.2597,-228.691 285.5393,-235.9468 296.0994,-235.0892 293.2597,-228.691"/>
<g id="a_edge44&#45;headlabel"><a xlink:href="dir_000002_000001.html" target="_top" xlink:title="2">
<text text-anchor="middle" x="295.3935" y="-222.1377" font-family="Helvetica,sans-Serif" font-size="10.00" fill="#000000">2</text>
</a>
</g>
</g>
<!-- dir_7f7a014517bfe31ea45620a6a947e37b&#45;&gt;dir_3d3615e9a999cab4f3407307569d6ced -->
<g id="edge40" class="edge">
<title>dir_7f7a014517bfe31ea45620a6a947e37b&#45;&gt;dir_3d3615e9a999cab4f3407307569d6ced</title>
<path fill="none" stroke="#000000" d="M425.185,-43.7025C445.4381,-52.3019 472.2151,-66.812 488,-88 512.6651,-121.1078 511,-136.7145 511,-178 511,-250 511,-250 511,-250 511,-299.0549 471.2284,-343.2483 441.5999,-369.3647"/>
<polygon fill="#000000" stroke="#000000" points="439.2576,-366.7625 433.9356,-375.9237 443.809,-372.0809 439.2576,-366.7625"/>
<g id="a_edge40&#45;headlabel"><a xlink:href="dir_000011_000009.html" target="_top" xlink:title="1">
<text text-anchor="middle" x="440.1426" y="-359.7682" font-family="Helvetica,sans-Serif" font-size="10.00" fill="#000000">1</text>
</a>
</g>
</g>
<!-- dir_2635c1cadbb62984b11c32cfeb0f45eb -->
<g id="node9" class="node">
<title>dir_2635c1cadbb62984b11c32cfeb0f45eb</title>
<g id="a_node9"><a xlink:href="dir_2635c1cadbb62984b11c32cfeb0f45eb.html" target="_top" xlink:title="mms">
<polygon fill="#ffffff" stroke="#000000" points="586,-484 532,-484 532,-448 586,-448 586,-484"/>
<text text-anchor="middle" x="559" y="-463.5" font-family="Helvetica,sans-Serif" font-size="10.00" fill="#000000">mms</text>
</a>
</g>
</g>
<!-- dir_2635c1cadbb62984b11c32cfeb0f45eb&#45;&gt;dir_3d3615e9a999cab4f3407307569d6ced -->
<g id="edge26" class="edge">
<title>dir_2635c1cadbb62984b11c32cfeb0f45eb&#45;&gt;dir_3d3615e9a999cab4f3407307569d6ced</title>
<path fill="none" stroke="#000000" d="M531.8989,-452.3847C528.9,-450.8974 525.8877,-449.4118 523,-448 497.3622,-435.4659 468.3104,-421.5899 446.0843,-411.0427"/>
<polygon fill="#000000" stroke="#000000" points="447.542,-407.8604 437.0066,-406.7398 444.5437,-414.1858 447.542,-407.8604"/>
<g id="a_edge26&#45;headlabel"><a xlink:href="dir_000024_000009.html" target="_top" xlink:title="3">
<text text-anchor="middle" x="452.0063" y="-404.3343" font-family="Helvetica,sans-Serif" font-size="10.00" fill="#000000">3</text>
</a>
</g>
</g>
<!-- dir_2635c1cadbb62984b11c32cfeb0f45eb&#45;&gt;dir_4bb30ed846ea1df1fc4d16874a455d91 -->
<g id="edge25" class="edge">
<title>dir_2635c1cadbb62984b11c32cfeb0f45eb&#45;&gt;dir_4bb30ed846ea1df1fc4d16874a455d91</title>
<path fill="none" stroke="#000000" d="M551.5682,-447.7564C534.8642,-407.5089 492.1088,-308.6008 445,-232 439.2653,-222.6752 432.2864,-212.9989 425.724,-204.4571"/>
<polygon fill="#000000" stroke="#000000" points="428.2884,-202.0555 419.3619,-196.3485 422.7812,-206.3765 428.2884,-202.0555"/>
<g id="a_edge25&#45;headlabel"><a xlink:href="dir_000024_000002.html" target="_top" xlink:title="1">
<text text-anchor="middle" x="432.741" y="-200.6309" font-family="Helvetica,sans-Serif" font-size="10.00" fill="#000000">1</text>
</a>
</g>
</g>
<!-- dir_629222d9fcf2f4ceefae477297f2ec84&#45;&gt;dir_3d3615e9a999cab4f3407307569d6ced -->
<g id="edge22" class="edge">
<title>dir_629222d9fcf2f4ceefae477297f2ec84&#45;&gt;dir_3d3615e9a999cab4f3407307569d6ced</title>
<path fill="none" stroke="#000000" d="M603.7136,-451.7224C600.8041,-450.3913 597.8623,-449.1228 595,-448 545.0336,-428.3997 485.0447,-412.1597 447.2144,-402.765"/>
<polygon fill="#000000" stroke="#000000" points="447.7044,-399.2816 437.1586,-400.2997 446.0375,-406.0802 447.7044,-399.2816"/>
<g id="a_edge22&#45;headlabel"><a xlink:href="dir_000028_000009.html" target="_top" xlink:title="3">
<text text-anchor="middle" x="451.8717" y="-394.8798" font-family="Helvetica,sans-Serif" font-size="10.00" fill="#000000">3</text>
</a>
</g>
</g>
<!-- dir_629222d9fcf2f4ceefae477297f2ec84&#45;&gt;dir_4bb30ed846ea1df1fc4d16874a455d91 -->
<g id="edge21" class="edge">
<title>dir_629222d9fcf2f4ceefae477297f2ec84&#45;&gt;dir_4bb30ed846ea1df1fc4d16874a455d91</title>
<path fill="none" stroke="#000000" d="M619.1918,-447.9432C592.5389,-407.6574 524.8863,-308.0034 459,-232 450.4402,-222.1258 440.4074,-211.9269 431.2711,-203.0881"/>
<polygon fill="#000000" stroke="#000000" points="433.5119,-200.3886 423.8595,-196.0202 428.681,-205.4544 433.5119,-200.3886"/>
<g id="a_edge21&#45;headlabel"><a xlink:href="dir_000028_000002.html" target="_top" xlink:title="1">
<text text-anchor="middle" x="438.0727" y="-198.3145" font-family="Helvetica,sans-Serif" font-size="10.00" fill="#000000">1</text>
</a>
</g>
</g>
<!-- dir_f2c65bfcbdc19ebacbfc0bbbfb0d01b6 -->
<g id="node11" class="node">
<title>dir_f2c65bfcbdc19ebacbfc0bbbfb0d01b6</title>
<g id="a_node11"><a xlink:href="dir_f2c65bfcbdc19ebacbfc0bbbfb0d01b6.html" target="_top" xlink:title="physics">
<polygon fill="#ffffff" stroke="#ff0000" points="110,-484 56,-484 56,-448 110,-448 110,-484"/>
<text text-anchor="middle" x="83" y="-463.5" font-family="Helvetica,sans-Serif" font-size="10.00" fill="#000000">physics</text>
</a>
</g>
</g>
<!-- dir_f2c65bfcbdc19ebacbfc0bbbfb0d01b6&#45;&gt;dir_3d3615e9a999cab4f3407307569d6ced -->
<g id="edge20" class="edge">
<title>dir_f2c65bfcbdc19ebacbfc0bbbfb0d01b6&#45;&gt;dir_3d3615e9a999cab4f3407307569d6ced</title>
<path fill="none" stroke="#000000" d="M110.0802,-456.7876C119.4887,-453.7635 130.1503,-450.5322 140,-448 222.2961,-426.8428 320.4808,-409.032 372.8126,-400.1208"/>
<polygon fill="#000000" stroke="#000000" points="373.6782,-403.5243 382.9555,-398.4076 372.5123,-396.622 373.6782,-403.5243"/>
<g id="a_edge20&#45;headlabel"><a xlink:href="dir_000007_000009.html" target="_top" xlink:title="19">
<text text-anchor="middle" x="370.6066" y="-404.4225" font-family="Helvetica,sans-Serif" font-size="10.00" fill="#000000">19</text>
</a>
</g>
</g>
<!-- dir_f2c65bfcbdc19ebacbfc0bbbfb0d01b6&#45;&gt;dir_7f7a014517bfe31ea45620a6a947e37b -->
<g id="edge19" class="edge">
<title>dir_f2c65bfcbdc19ebacbfc0bbbfb0d01b6&#45;&gt;dir_7f7a014517bfe31ea45620a6a947e37b</title>
<path fill="none" stroke="#000000" d="M85.8053,-447.6829C95.9908,-387.3606 136.5231,-192.8109 249,-88 279.9692,-59.1415 327.5295,-45.4662 360.554,-39.1476"/>
<polygon fill="#000000" stroke="#000000" points="361.4903,-42.5363 370.726,-37.3446 360.2686,-35.6437 361.4903,-42.5363"/>
<g id="a_edge19&#45;headlabel"><a xlink:href="dir_000007_000011.html" target="_top" xlink:title="1">
<text text-anchor="middle" x="358.4464" y="-43.4592" font-family="Helvetica,sans-Serif" font-size="10.00" fill="#000000">1</text>
</a>
</g>
</g>
<!-- dir_f2c65bfcbdc19ebacbfc0bbbfb0d01b6&#45;&gt;dir_e4cd57caa88bf1f4e1bf9521bc47c3c0 -->
<g id="edge18" class="edge">
<title>dir_f2c65bfcbdc19ebacbfc0bbbfb0d01b6&#45;&gt;dir_e4cd57caa88bf1f4e1bf9521bc47c3c0</title>
<path fill="none" stroke="#000000" d="M84.2432,-447.8247C86.0006,-420.5213 89,-367.2893 89,-322 89,-322 89,-322 89,-178 89,-133.829 114.9805,-88.3999 134.3407,-60.6791"/>
<polygon fill="#000000" stroke="#000000" points="137.3522,-62.4863 140.3525,-52.3251 131.6705,-58.3975 137.3522,-62.4863"/>
<g id="a_edge18&#45;headlabel"><a xlink:href="dir_000007_000005.html" target="_top" xlink:title="4">
<text text-anchor="middle" x="137.5572" y="-64.5624" font-family="Helvetica,sans-Serif" font-size="10.00" fill="#000000">4</text>
</a>
</g>
</g>
<!-- dir_f2c65bfcbdc19ebacbfc0bbbfb0d01b6&#45;&gt;dir_0c368f76a33d967d5b838b5681461de6 -->
<g id="edge17" class="edge">
<title>dir_f2c65bfcbdc19ebacbfc0bbbfb0d01b6&#45;&gt;dir_0c368f76a33d967d5b838b5681461de6</title>
<path fill="none" stroke="#000000" d="M96.971,-447.6999C110.8833,-429.4947 132.8668,-400.7773 152,-376 178.6305,-341.5138 209.5155,-301.8609 229.384,-276.3959"/>
<polygon fill="#000000" stroke="#000000" points="232.2843,-278.3686 235.6777,-268.3318 226.7659,-274.0618 232.2843,-278.3686"/>
<g id="a_edge17&#45;headlabel"><a xlink:href="dir_000007_000001.html" target="_top" xlink:title="1">
<text text-anchor="middle" x="232.311" y="-280.4491" font-family="Helvetica,sans-Serif" font-size="10.00" fill="#000000">1</text>
</a>
</g>
</g>
<!-- dir_d599e6111b2fbf4fd47cd3a4f2a09da4 -->
<g id="node13" class="node">
<title>dir_d599e6111b2fbf4fd47cd3a4f2a09da4</title>
<g id="a_node13"><a xlink:href="dir_d599e6111b2fbf4fd47cd3a4f2a09da4.html" target="_top" xlink:title="projection">
<polygon fill="#ffffff" stroke="#000000" points="207.5,-484 148.5,-484 148.5,-448 207.5,-448 207.5,-484"/>
<text text-anchor="middle" x="178" y="-463.5" font-family="Helvetica,sans-Serif" font-size="10.00" fill="#000000">projection</text>
</a>
</g>
</g>
<!-- dir_d599e6111b2fbf4fd47cd3a4f2a09da4&#45;&gt;dir_3d3615e9a999cab4f3407307569d6ced -->
<g id="edge7" class="edge">
<title>dir_d599e6111b2fbf4fd47cd3a4f2a09da4&#45;&gt;dir_3d3615e9a999cab4f3407307569d6ced</title>
<path fill="none" stroke="#000000" d="M207.6549,-453.3577C212.4193,-451.4747 217.3216,-449.6234 222,-448 273.6117,-430.09 334.5989,-413.3649 372.7962,-403.4082"/>
<polygon fill="#000000" stroke="#000000" points="374.1342,-406.6774 382.9387,-400.784 372.3808,-399.9005 374.1342,-406.6774"/>
<g id="a_edge7&#45;headlabel"><a xlink:href="dir_000016_000009.html" target="_top" xlink:title="2">
<text text-anchor="middle" x="371.3653" y="-407.8264" font-family="Helvetica,sans-Serif" font-size="10.00" fill="#000000">2</text>
</a>
</g>
</g>
<!-- dir_d599e6111b2fbf4fd47cd3a4f2a09da4&#45;&gt;dir_e4cd57caa88bf1f4e1bf9521bc47c3c0 -->
<g id="edge6" class="edge">
<title>dir_d599e6111b2fbf4fd47cd3a4f2a09da4&#45;&gt;dir_e4cd57caa88bf1f4e1bf9521bc47c3c0</title>
<path fill="none" stroke="#000000" d="M176.3485,-447.8544C171.8023,-396.8783 159.1651,-248.0066 155,-124 154.3094,-103.4379 154.3292,-80.2183 154.5113,-62.5147"/>
<polygon fill="#000000" stroke="#000000" points="158.0139,-62.321 154.6408,-52.2775 151.0145,-62.2324 158.0139,-62.321"/>
<g id="a_edge6&#45;headlabel"><a xlink:href="dir_000016_000005.html" target="_top" xlink:title="1">
<text text-anchor="middle" x="160.8076" y="-63.4513" font-family="Helvetica,sans-Serif" font-size="10.00" fill="#000000">1</text>
</a>
</g>
</g>
<!-- dir_073a3c37bc9e3eb3e412aa8cf4eda4c3 -->
<g id="node14" class="node">
<title>dir_073a3c37bc9e3eb3e412aa8cf4eda4c3</title>
<g id="a_node14"><a xlink:href="dir_073a3c37bc9e3eb3e412aa8cf4eda4c3.html" target="_top" xlink:title="setup">
<polygon fill="#ffffff" stroke="#000000" points="133,-556 79,-556 79,-520 133,-520 133,-556"/>
<text text-anchor="middle" x="106" y="-535.5" font-family="Helvetica,sans-Serif" font-size="10.00" fill="#000000">setup</text>
</a>
</g>
</g>
<!-- dir_073a3c37bc9e3eb3e412aa8cf4eda4c3&#45;&gt;dir_3d3615e9a999cab4f3407307569d6ced -->
<g id="edge39" class="edge">
<title>dir_073a3c37bc9e3eb3e412aa8cf4eda4c3&#45;&gt;dir_3d3615e9a999cab4f3407307569d6ced</title>
<path fill="none" stroke="#000000" d="M133.157,-527.3231C156.3654,-517.6177 190.1615,-502.0788 217,-484 236.8368,-470.6377 236.4373,-460.2158 257,-448 293.821,-426.1254 340.8745,-411.1862 373.0173,-402.6604"/>
<polygon fill="#000000" stroke="#000000" points="374.0858,-405.9995 382.8975,-400.117 372.3407,-399.2205 374.0858,-405.9995"/>
<g id="a_edge39&#45;headlabel"><a xlink:href="dir_000018_000009.html" target="_top" xlink:title="1">
<text text-anchor="middle" x="371.3125" y="-407.1452" font-family="Helvetica,sans-Serif" font-size="10.00" fill="#000000">1</text>
</a>
</g>
</g>
<!-- dir_073a3c37bc9e3eb3e412aa8cf4eda4c3&#45;&gt;dir_f2c65bfcbdc19ebacbfc0bbbfb0d01b6 -->
<g id="edge36" class="edge">
<title>dir_073a3c37bc9e3eb3e412aa8cf4eda4c3&#45;&gt;dir_f2c65bfcbdc19ebacbfc0bbbfb0d01b6</title>
<path fill="none" stroke="#000000" d="M100.1961,-519.8314C97.7092,-512.0463 94.7469,-502.7729 91.9875,-494.1347"/>
<polygon fill="#000000" stroke="#000000" points="95.2591,-492.874 88.882,-484.4133 88.591,-495.0041 95.2591,-492.874"/>
<g id="a_edge36&#45;headlabel"><a xlink:href="dir_000018_000007.html" target="_top" xlink:title="1">
<text text-anchor="middle" x="99.0574" y="-492.9342" font-family="Helvetica,sans-Serif" font-size="10.00" fill="#000000">1</text>
</a>
</g>
</g>
<!-- dir_073a3c37bc9e3eb3e412aa8cf4eda4c3&#45;&gt;dir_e4cd57caa88bf1f4e1bf9521bc47c3c0 -->
<g id="edge38" class="edge">
<title>dir_073a3c37bc9e3eb3e412aa8cf4eda4c3&#45;&gt;dir_e4cd57caa88bf1f4e1bf9521bc47c3c0</title>
<path fill="none" stroke="#000000" d="M78.8584,-525.0487C62.6458,-515.8744 43.1061,-502.0023 32,-484 10.7084,-449.4875 17,-434.5518 17,-394 17,-394 17,-394 17,-178 17,-137.4482 7.1009,-120.0075 32,-88 52.9155,-61.1133 90.0048,-47.3285 118.0031,-40.4474"/>
<polygon fill="#000000" stroke="#000000" points="118.8813,-43.8372 127.8601,-38.2131 117.3338,-37.0104 118.8813,-43.8372"/>
<g id="a_edge38&#45;headlabel"><a xlink:href="dir_000018_000005.html" target="_top" xlink:title="2">
<text text-anchor="middle" x="116.0032" y="-44.9008" font-family="Helvetica,sans-Serif" font-size="10.00" fill="#000000">2</text>
</a>
</g>
</g>
<!-- dir_073a3c37bc9e3eb3e412aa8cf4eda4c3&#45;&gt;dir_0c368f76a33d967d5b838b5681461de6 -->
<g id="edge37" class="edge">
<title>dir_073a3c37bc9e3eb3e412aa8cf4eda4c3&#45;&gt;dir_0c368f76a33d967d5b838b5681461de6</title>
<path fill="none" stroke="#000000" d="M112.0153,-519.7519C118.2877,-501.3401 128.7586,-472.2452 140,-448 155.591,-414.3736 207.868,-322.9048 234.3473,-277.0152"/>
<polygon fill="#000000" stroke="#000000" points="237.4603,-278.6233 239.4322,-268.2136 231.3991,-275.1215 237.4603,-278.6233"/>
<g id="a_edge37&#45;headlabel"><a xlink:href="dir_000018_000001.html" target="_top" xlink:title="1">
<text text-anchor="middle" x="238.1206" y="-280.6561" font-family="Helvetica,sans-Serif" font-size="10.00" fill="#000000">1</text>
</a>
</g>
</g>
<!-- dir_7b7e55eaa727ae9c717abfc097345a8f -->
<g id="node15" class="node">
<title>dir_7b7e55eaa727ae9c717abfc097345a8f</title>
<g id="a_node15"><a xlink:href="dir_7b7e55eaa727ae9c717abfc097345a8f.html" target="_top" xlink:title="transport_models">
<polygon fill="#ffffff" stroke="#000000" points="557,-52 465,-52 465,-16 557,-16 557,-52"/>
<text text-anchor="middle" x="511" y="-31.5" font-family="Helvetica,sans-Serif" font-size="10.00" fill="#000000">transport_models</text>
</a>
</g>
</g>
<!-- dir_7b7e55eaa727ae9c717abfc097345a8f&#45;&gt;dir_3d3615e9a999cab4f3407307569d6ced -->
<g id="edge51" class="edge">
<title>dir_7b7e55eaa727ae9c717abfc097345a8f&#45;&gt;dir_3d3615e9a999cab4f3407307569d6ced</title>
<path fill="none" stroke="#000000" d="M515.144,-52.0735C521.0021,-79.2472 531,-132.3156 531,-178 531,-250 531,-250 531,-250 531,-294.331 516.7442,-306.2509 488,-340 476.3262,-353.7064 460.4001,-365.5534 445.9816,-374.6297"/>
<polygon fill="#000000" stroke="#000000" points="443.9928,-371.7423 437.2504,-379.9149 447.6177,-377.7306 443.9928,-371.7423"/>
<g id="a_edge51&#45;headlabel"><a xlink:href="dir_000010_000009.html" target="_top" xlink:title="2">
<text text-anchor="middle" x="445.5976" y="-364.952" font-family="Helvetica,sans-Serif" font-size="10.00" fill="#000000">2</text>
</a>
</g>
</g>
<!-- dir_9ff815a534beac751fa88e427dbab695&#45;&gt;dir_3d3615e9a999cab4f3407307569d6ced -->
<g id="edge3" class="edge">
<title>dir_9ff815a534beac751fa88e427dbab695&#45;&gt;dir_3d3615e9a999cab4f3407307569d6ced</title>
<path fill="none" stroke="#000000" d="M453.5446,-124.2988C456.3965,-134.6647 459.5681,-147.9347 461,-160 470.4802,-239.8839 468.301,-263.9766 442,-340 438.7555,-349.3781 433.7703,-358.9171 428.6932,-367.3159"/>
<polygon fill="#000000" stroke="#000000" points="425.6348,-365.603 423.2259,-375.9204 431.543,-369.3571 425.6348,-365.603"/>
<g id="a_edge3&#45;headlabel"><a xlink:href="dir_000021_000009.html" target="_top" xlink:title="5">
<text text-anchor="middle" x="425.166" y="-358.5464" font-family="Helvetica,sans-Serif" font-size="10.00" fill="#000000">5</text>
</a>
</g>
</g>
<!-- dir_9ff815a534beac751fa88e427dbab695&#45;&gt;dir_4bb30ed846ea1df1fc4d16874a455d91 -->
<g id="edge4" class="edge">
<title>dir_9ff815a534beac751fa88e427dbab695&#45;&gt;dir_4bb30ed846ea1df1fc4d16874a455d91</title>
<path fill="none" stroke="#000000" d="M442.7235,-124.4133C438.4755,-132.654 432.6298,-142.5245 426.7074,-151.536"/>
<polygon fill="#000000" stroke="#000000" points="423.7937,-149.5965 421.0555,-159.8314 429.5786,-153.538 423.7937,-149.5965"/>
<g id="a_edge4&#45;headlabel"><a xlink:href="dir_000021_000002.html" target="_top" xlink:title="2">
<text text-anchor="middle" x="423.4713" y="-142.5272" font-family="Helvetica,sans-Serif" font-size="10.00" fill="#000000">2</text>
</a>
</g>
</g>
<!-- dir_9ff815a534beac751fa88e427dbab695&#45;&gt;dir_7f7a014517bfe31ea45620a6a947e37b -->
<g id="edge2" class="edge">
<title>dir_9ff815a534beac751fa88e427dbab695&#45;&gt;dir_7f7a014517bfe31ea45620a6a947e37b</title>
<path fill="none" stroke="#000000" d="M435.3829,-87.8314C429.6828,-79.6232 422.8337,-69.7606 416.5641,-60.7323"/>
<polygon fill="#000000" stroke="#000000" points="419.3658,-58.6306 410.787,-52.4133 413.6162,-62.6234 419.3658,-58.6306"/>
<g id="a_edge2&#45;headlabel"><a xlink:href="dir_000021_000011.html" target="_top" xlink:title="3">
<text text-anchor="middle" x="423.7482" y="-57.4636" font-family="Helvetica,sans-Serif" font-size="10.00" fill="#000000">3</text>
</a>
</g>
</g>
<!-- dir_9ff815a534beac751fa88e427dbab695&#45;&gt;dir_7b7e55eaa727ae9c717abfc097345a8f -->
<g id="edge5" class="edge">
<title>dir_9ff815a534beac751fa88e427dbab695&#45;&gt;dir_7b7e55eaa727ae9c717abfc097345a8f</title>
<path fill="none" stroke="#000000" d="M463.8976,-87.8314C471.2278,-79.454 480.066,-69.3531 488.0969,-60.1749"/>
<polygon fill="#000000" stroke="#000000" points="490.9373,-62.2438 494.8884,-52.4133 485.6693,-57.6343 490.9373,-62.2438"/>
<g id="a_edge5&#45;headlabel"><a xlink:href="dir_000021_000010.html" target="_top" xlink:title="2">
<text text-anchor="middle" x="490.7071" y="-64.3187" font-family="Helvetica,sans-Serif" font-size="10.00" fill="#000000">2</text>
</a>
</g>
</g>
<!-- dir_9ff815a534beac751fa88e427dbab695&#45;&gt;dir_e4cd57caa88bf1f4e1bf9521bc47c3c0 -->
<g id="edge1" class="edge">
<title>dir_9ff815a534beac751fa88e427dbab695&#45;&gt;dir_e4cd57caa88bf1f4e1bf9521bc47c3c0</title>
<path fill="none" stroke="#000000" d="M416.741,-98.2846C403.8207,-95.0976 388.6893,-91.3678 375,-88 310.6537,-72.1699 235.7073,-53.7853 191.9884,-43.0663"/>
<polygon fill="#000000" stroke="#000000" points="192.6432,-39.6233 182.0974,-40.6414 190.9764,-46.4219 192.6432,-39.6233"/>
<g id="a_edge1&#45;headlabel"><a xlink:href="dir_000021_000005.html" target="_top" xlink:title="1">
<text text-anchor="middle" x="196.8105" y="-35.2215" font-family="Helvetica,sans-Serif" font-size="10.00" fill="#000000">1</text>
</a>
</g>
</g>
<!-- dir_e4cd57caa88bf1f4e1bf9521bc47c3c0&#45;&gt;dir_3d3615e9a999cab4f3407307569d6ced -->
<g id="edge35" class="edge">
<title>dir_e4cd57caa88bf1f4e1bf9521bc47c3c0&#45;&gt;dir_3d3615e9a999cab4f3407307569d6ced</title>
<path fill="none" stroke="#000000" d="M155.9885,-52.295C158.8141,-93.062 169.2687,-193.6264 206,-268 224.5719,-305.6045 232.7318,-315.8194 267,-340 299.338,-362.8186 342.5313,-377.3774 372.9561,-385.5559"/>
<polygon fill="#000000" stroke="#000000" points="372.1928,-388.9735 382.7505,-388.0875 373.9446,-382.1963 372.1928,-388.9735"/>
<g id="a_edge35&#45;headlabel"><a xlink:href="dir_000005_000009.html" target="_top" xlink:title="8">
<text text-anchor="middle" x="368.002" y="-388.3229" font-family="Helvetica,sans-Serif" font-size="10.00" fill="#000000">8</text>
</a>
</g>
</g>
<!-- dir_0c368f76a33d967d5b838b5681461de6&#45;&gt;dir_3d3615e9a999cab4f3407307569d6ced -->
<g id="edge30" class="edge">
<title>dir_0c368f76a33d967d5b838b5681461de6&#45;&gt;dir_3d3615e9a999cab4f3407307569d6ced</title>
<path fill="none" stroke="#000000" d="M255.5358,-268.015C262.4338,-287.8696 275.9454,-319.6794 297,-340 318.4506,-360.7029 349.3381,-374.7194 373.4008,-383.2731"/>
<polygon fill="#000000" stroke="#000000" points="372.3212,-386.6028 382.9156,-386.5008 374.57,-379.9738 372.3212,-386.6028"/>
<g id="a_edge30&#45;headlabel"><a xlink:href="dir_000001_000009.html" target="_top" xlink:title="7">
<text text-anchor="middle" x="368.005" y="-385.6368" font-family="Helvetica,sans-Serif" font-size="10.00" fill="#000000">7</text>
</a>
</g>
</g>
<!-- dir_0c368f76a33d967d5b838b5681461de6&#45;&gt;dir_a816a247b59c90f95e41afe29b966a18 -->
<g id="edge29" class="edge">
<title>dir_0c368f76a33d967d5b838b5681461de6&#45;&gt;dir_a816a247b59c90f95e41afe29b966a18</title>
<path fill="none" stroke="#000000" d="M257.2191,-231.7623C267.0269,-206.9846 284.6467,-162.4714 296.0774,-133.5939"/>
<polygon fill="#000000" stroke="#000000" points="299.4133,-134.6759 299.8395,-124.0896 292.9047,-132.0995 299.4133,-134.6759"/>
<g id="a_edge29&#45;headlabel"><a xlink:href="dir_000001_000014.html" target="_top" xlink:title="1">
<text text-anchor="middle" x="300.7303" y="-136.5631" font-family="Helvetica,sans-Serif" font-size="10.00" fill="#000000">1</text>
</a>
</g>
</g>
<!-- dir_0c368f76a33d967d5b838b5681461de6&#45;&gt;dir_4bb30ed846ea1df1fc4d16874a455d91 -->
<g id="edge31" class="edge">
<title>dir_0c368f76a33d967d5b838b5681461de6&#45;&gt;dir_4bb30ed846ea1df1fc4d16874a455d91</title>
<path fill="none" stroke="#000000" d="M282.9083,-231.8314C302.4791,-222.2446 327.6982,-210.4008 350.0836,-200.2655"/>
<polygon fill="#000000" stroke="#000000" points="351.7959,-203.3331 359.4791,-196.038 348.9236,-196.9495 351.7959,-203.3331"/>
<g id="a_edge31&#45;headlabel"><a xlink:href="dir_000001_000002.html" target="_top" xlink:title="2">
<text text-anchor="middle" x="349.6829" y="-204.8973" font-family="Helvetica,sans-Serif" font-size="10.00" fill="#000000">2</text>
</a>
</g>
</g>
<!-- dir_0c368f76a33d967d5b838b5681461de6&#45;&gt;dir_7f7a014517bfe31ea45620a6a947e37b -->
<g id="edge28" class="edge">
<title>dir_0c368f76a33d967d5b838b5681461de6&#45;&gt;dir_7f7a014517bfe31ea45620a6a947e37b</title>
<path fill="none" stroke="#000000" d="M246.9752,-231.8102C242.6434,-199.3746 238.4398,-130.9346 271,-88 292.4978,-59.6525 331.7859,-46.0222 360.9929,-39.5734"/>
<polygon fill="#000000" stroke="#000000" points="361.7492,-42.9914 370.8576,-37.5796 360.3624,-36.1302 361.7492,-42.9914"/>
<g id="a_edge28&#45;headlabel"><a xlink:href="dir_000001_000011.html" target="_top" xlink:title="1">
<text text-anchor="middle" x="358.7883" y="-43.9865" font-family="Helvetica,sans-Serif" font-size="10.00" fill="#000000">1</text>
</a>
</g>
</g>
<!-- dir_0c368f76a33d967d5b838b5681461de6&#45;&gt;dir_e4cd57caa88bf1f4e1bf9521bc47c3c0 -->
<g id="edge27" class="edge">
<title>dir_0c368f76a33d967d5b838b5681461de6&#45;&gt;dir_e4cd57caa88bf1f4e1bf9521bc47c3c0</title>
<path fill="none" stroke="#000000" d="M246.8286,-231.8304C240.9053,-200.8644 226.3161,-136.5107 200,-88 194.6201,-78.0827 187.2569,-68.2856 180.0445,-59.8154"/>
<polygon fill="#000000" stroke="#000000" points="182.4964,-57.3048 173.2455,-52.1403 177.2567,-61.9465 182.4964,-57.3048"/>
<g id="a_edge27&#45;headlabel"><a xlink:href="dir_000001_000005.html" target="_top" xlink:title="19">
<text text-anchor="middle" x="187.0052" y="-55.6128" font-family="Helvetica,sans-Serif" font-size="10.00" fill="#000000">19</text>
</a>
</g>
</g>
</g>
</svg>
