<?xml version="1.0" encoding="UTF-8" standalone="no"?>
<!DOCTYPE svg PUBLIC "-//W3C//DTD SVG 1.1//EN"
 "http://www.w3.org/Graphics/SVG/1.1/DTD/svg11.dtd">
<!-- Generated by graphviz version 2.40.1 (20161225.0304)
 -->
<!-- Title: equation_systems Pages: 1 -->
<!--zoomable 472 -->
<svg id="main" version="1.1" xmlns="http://www.w3.org/2000/svg" xmlns:xlink="http://www.w3.org/1999/xlink" xml:space="preserve" onload="init(evt)">
<style type="text/css"><![CDATA[
.edge:hover path { stroke: red; }
.edge:hover polygon { stroke: red; fill: red; }
]]></style>
<script type="text/javascript"><![CDATA[
var edges = document.getElementsByTagName('g');
if (edges && edges.length) {
  for (var i=0;i<edges.length;i++) {
    if (edges[i].id.substr(0,4)=='edge') {
      edges[i].setAttribute('class','edge');
    }
  }
}
]]></script>
        <defs>
                <circle id="rim" cx="0" cy="0" r="7"/>
                <circle id="rim2" cx="0" cy="0" r="3.5"/>
                <g id="zoomPlus">
                        <use xlink:href="#rim" fill="#404040">
                                <set attributeName="fill" to="#808080" begin="zoomplus.mouseover" end="zoomplus.mouseout"/>
                        </use>
                        <path d="M-4,0h8M0,-4v8" fill="none" stroke="white" stroke-width="1.5" pointer-events="none"/>
                </g>
                <g id="zoomMin">
                        <use xlink:href="#rim" fill="#404040">
                                <set attributeName="fill" to="#808080" begin="zoomminus.mouseover" end="zoomminus.mouseout"/>
                        </use>
                        <path d="M-4,0h8" fill="none" stroke="white" stroke-width="1.5" pointer-events="none"/>
                </g>
                <g id="dirArrow">
                        <path fill="none" stroke="white" stroke-width="1.5" d="M0,-3.0v7 M-2.5,-0.5L0,-3.0L2.5,-0.5"/>
                </g>
               <g id="resetDef">
                       <use xlink:href="#rim2" fill="#404040">
                               <set attributeName="fill" to="#808080" begin="reset.mouseover" end="reset.mouseout"/>
                       </use>
               </g>
        </defs>

<script type="text/javascript">
var viewWidth = 742;
var viewHeight = 472;
var sectionId = 'dynsection-0';
</script>
<script xlink:href="svgpan.js"/>
<svg id="graph" class="graph">
<g id="viewport">
<title>equation_systems</title>
<polygon fill="#ffffff" stroke="transparent" points="-4,4 -4,-468.3691 738,-468.3691 738,4 -4,4"/>
<g id="clust1" class="cluster">
<title>clusterdir_d85575251dd712327fe3cf057fa568b4</title>
<g id="a_clust1"><a xlink:href="dir_d85575251dd712327fe3cf057fa568b4.html" target="_top" xlink:title="amr&#45;wind">
<polygon fill="#ddddee" stroke="#000000" points="8,-344 8,-431 582,-431 582,-344 8,-344"/>
<text text-anchor="middle" x="295" y="-419" font-family="Helvetica,sans-Serif" font-size="10.00" fill="#000000">amr&#45;wind</text>
</a>
</g>
</g>
<g id="clust2" class="cluster">
<title>clusterdir_4bb30ed846ea1df1fc4d16874a455d91</title>
<g id="a_clust2"><a xlink:href="dir_4bb30ed846ea1df1fc4d16874a455d91.html" target="_top">
<polygon fill="#eeeeff" stroke="#000000" points="16,-352 16,-404 574,-404 574,-352 16,-352"/>
</a>
</g>
</g>
<!-- dir_4bb30ed846ea1df1fc4d16874a455d91 -->
<g id="node1" class="node">
<title>dir_4bb30ed846ea1df1fc4d16874a455d91</title>
<text text-anchor="middle" x="72" y="-375.5" font-family="Helvetica,sans-Serif" font-size="10.00" fill="#000000">equation_systems</text>
</g>
<!-- dir_9ff815a534beac751fa88e427dbab695 -->
<g id="node8" class="node">
<title>dir_9ff815a534beac751fa88e427dbab695</title>
<g id="a_node8"><a xlink:href="dir_9ff815a534beac751fa88e427dbab695.html" target="_top" xlink:title="turbulence">
<polygon fill="#ffffff" stroke="#ff0000" points="734,-396 672,-396 672,-360 734,-360 734,-396"/>
<text text-anchor="middle" x="703" y="-375.5" font-family="Helvetica,sans-Serif" font-size="10.00" fill="#000000">turbulence</text>
</a>
</g>
</g>
<!-- dir_4bb30ed846ea1df1fc4d16874a455d91&#45;&gt;dir_9ff815a534beac751fa88e427dbab695 -->
<g id="edge29" class="edge">
<title>dir_4bb30ed846ea1df1fc4d16874a455d91&#45;&gt;dir_9ff815a534beac751fa88e427dbab695</title>
<path fill="none" stroke="#000000" d="M82.6803,-396.2516C93.95,-413.5106 113.4688,-438.3106 138,-449 164.2801,-460.4515 628.6174,-462.323 654,-449 671.4612,-439.8348 683.9232,-421.3148 691.9093,-405.4877"/>
<polygon fill="#000000" stroke="#000000" points="695.2391,-406.6296 696.308,-396.0888 688.8991,-403.6624 695.2391,-406.6296"/>
<g id="a_edge29&#45;headlabel"><a xlink:href="dir_000002_000021.html" target="_top" xlink:title="2">
<text text-anchor="middle" x="696.2871" y="-408.5888" font-family="Helvetica,sans-Serif" font-size="10.00" fill="#000000">2</text>
</a>
</g>
</g>
<!-- dir_35ffb1505af3943bdf99903da87524fe -->
<g id="node9" class="node">
<title>dir_35ffb1505af3943bdf99903da87524fe</title>
<g id="a_node9"><a xlink:href="dir_35ffb1505af3943bdf99903da87524fe.html" target="_top" xlink:title="convection">
<polygon fill="none" stroke="#000000" points="654,-396 590,-396 590,-360 654,-360 654,-396"/>
<text text-anchor="middle" x="622" y="-375.5" font-family="Helvetica,sans-Serif" font-size="10.00" fill="#000000">convection</text>
</a>
</g>
</g>
<!-- dir_4bb30ed846ea1df1fc4d16874a455d91&#45;&gt;dir_35ffb1505af3943bdf99903da87524fe -->
<g id="edge30" class="edge">
<title>dir_4bb30ed846ea1df1fc4d16874a455d91&#45;&gt;dir_35ffb1505af3943bdf99903da87524fe</title>
<path fill="none" stroke="#000000" d="M82.6803,-396.2516C93.95,-413.5106 113.4688,-438.3106 138,-449 181.902,-468.1302 526.1911,-470.4649 569,-449 587.2761,-439.8362 600.8613,-421.0489 609.7001,-405.1014"/>
<polygon fill="#000000" stroke="#000000" points="612.8542,-406.622 614.3553,-396.1341 606.6414,-403.3968 612.8542,-406.622"/>
<g id="a_edge30&#45;headlabel"><a xlink:href="dir_000002_000015.html" target="_top" xlink:title="3">
<text text-anchor="middle" x="613.718" y="-408.6205" font-family="Helvetica,sans-Serif" font-size="10.00" fill="#000000">3</text>
</a>
</g>
</g>
<!-- dir_ebb19deee3cd40f4ac122fef25c04ca8 -->
<g id="node11" class="node">
<title>dir_ebb19deee3cd40f4ac122fef25c04ca8</title>
<g id="a_node11"><a xlink:href="dir_ebb19deee3cd40f4ac122fef25c04ca8.html" target="_top" xlink:title="boundary_conditions">
<polygon fill="none" stroke="#000000" points="302,-180 196,-180 196,-144 302,-144 302,-180"/>
<text text-anchor="middle" x="249" y="-159.5" font-family="Helvetica,sans-Serif" font-size="10.00" fill="#000000">boundary_conditions</text>
</a>
</g>
</g>
<!-- dir_4bb30ed846ea1df1fc4d16874a455d91&#45;&gt;dir_ebb19deee3cd40f4ac122fef25c04ca8 -->
<g id="edge31" class="edge">
<title>dir_4bb30ed846ea1df1fc4d16874a455d91&#45;&gt;dir_ebb19deee3cd40f4ac122fef25c04ca8</title>
<path fill="none" stroke="#000000" d="M86.7865,-359.9555C118.0868,-321.7585 191.1452,-232.6025 227.5667,-188.1559"/>
<polygon fill="#000000" stroke="#000000" points="230.5,-190.0983 234.1311,-180.1451 225.0857,-185.6615 230.5,-190.0983"/>
<g id="a_edge31&#45;headlabel"><a xlink:href="dir_000002_000006.html" target="_top" xlink:title="1">
<text text-anchor="middle" x="230.4178" y="-192.1782" font-family="Helvetica,sans-Serif" font-size="10.00" fill="#000000">1</text>
</a>
</g>
</g>
<!-- dir_e4cd57caa88bf1f4e1bf9521bc47c3c0 -->
<g id="node12" class="node">
<title>dir_e4cd57caa88bf1f4e1bf9521bc47c3c0</title>
<g id="a_node12"><a xlink:href="dir_e4cd57caa88bf1f4e1bf9521bc47c3c0.html" target="_top" xlink:title="utilities">
<polygon fill="#ffffff" stroke="#ff0000" points="565,-324 511,-324 511,-288 565,-288 565,-324"/>
<text text-anchor="middle" x="538" y="-303.5" font-family="Helvetica,sans-Serif" font-size="10.00" fill="#000000">utilities</text>
</a>
</g>
</g>
<!-- dir_4bb30ed846ea1df1fc4d16874a455d91&#45;&gt;dir_e4cd57caa88bf1f4e1bf9521bc47c3c0 -->
<g id="edge32" class="edge">
<title>dir_4bb30ed846ea1df1fc4d16874a455d91&#45;&gt;dir_e4cd57caa88bf1f4e1bf9521bc47c3c0</title>
<path fill="none" stroke="#000000" d="M96.9334,-359.8476C106.5075,-353.7817 117.8261,-347.644 129,-344 197.5823,-321.6343 413.2042,-310.8863 500.6281,-307.3619"/>
<polygon fill="#000000" stroke="#000000" points="501.0237,-310.8491 510.8782,-306.9583 500.7482,-303.8545 501.0237,-310.8491"/>
<g id="a_edge32&#45;headlabel"><a xlink:href="dir_000002_000005.html" target="_top" xlink:title="10">
<text text-anchor="middle" x="497.5435" y="-311.3275" font-family="Helvetica,sans-Serif" font-size="10.00" fill="#000000">10</text>
</a>
</g>
</g>
<!-- dir_a816a247b59c90f95e41afe29b966a18 -->
<g id="node14" class="node">
<title>dir_a816a247b59c90f95e41afe29b966a18</title>
<g id="a_node14"><a xlink:href="dir_a816a247b59c90f95e41afe29b966a18.html" target="_top" xlink:title="diffusion">
<polygon fill="none" stroke="#000000" points="276,-36 222,-36 222,0 276,0 276,-36"/>
<text text-anchor="middle" x="249" y="-15.5" font-family="Helvetica,sans-Serif" font-size="10.00" fill="#000000">diffusion</text>
</a>
</g>
</g>
<!-- dir_4bb30ed846ea1df1fc4d16874a455d91&#45;&gt;dir_a816a247b59c90f95e41afe29b966a18 -->
<g id="edge33" class="edge">
<title>dir_4bb30ed846ea1df1fc4d16874a455d91&#45;&gt;dir_a816a247b59c90f95e41afe29b966a18</title>
<path fill="none" stroke="#000000" d="M68.2704,-359.9053C62.9981,-332.7046 54,-279.6021 54,-234 54,-234 54,-234 54,-162 54,-84.1864 155.7235,-43.6572 212.2289,-27.1465"/>
<polygon fill="#000000" stroke="#000000" points="213.2078,-30.507 221.8861,-24.4294 211.3119,-23.7687 213.2078,-30.507"/>
<g id="a_edge33&#45;headlabel"><a xlink:href="dir_000002_000014.html" target="_top" xlink:title="1">
<text text-anchor="middle" x="210.5165" y="-31.7137" font-family="Helvetica,sans-Serif" font-size="10.00" fill="#000000">1</text>
</a>
</g>
</g>
<!-- dir_70329d5a297148af2b67b1d844b9f654 -->
<g id="node2" class="node">
<title>dir_70329d5a297148af2b67b1d844b9f654</title>
<g id="a_node2"><a xlink:href="dir_70329d5a297148af2b67b1d844b9f654.html" target="_top" xlink:title="density">
<polygon fill="#ffffff" stroke="#000000" points="422,-396 368,-396 368,-360 422,-360 422,-396"/>
<text text-anchor="middle" x="395" y="-375.5" font-family="Helvetica,sans-Serif" font-size="10.00" fill="#000000">density</text>
</a>
</g>
</g>
<!-- dir_3d3615e9a999cab4f3407307569d6ced -->
<g id="node15" class="node">
<title>dir_3d3615e9a999cab4f3407307569d6ced</title>
<g id="a_node15"><a xlink:href="dir_3d3615e9a999cab4f3407307569d6ced.html" target="_top" xlink:title="core">
<polygon fill="none" stroke="#000000" points="434,-252 380,-252 380,-216 434,-216 434,-252"/>
<text text-anchor="middle" x="407" y="-231.5" font-family="Helvetica,sans-Serif" font-size="10.00" fill="#000000">core</text>
</a>
</g>
</g>
<!-- dir_70329d5a297148af2b67b1d844b9f654&#45;&gt;dir_3d3615e9a999cab4f3407307569d6ced -->
<g id="edge5" class="edge">
<title>dir_70329d5a297148af2b67b1d844b9f654&#45;&gt;dir_3d3615e9a999cab4f3407307569d6ced</title>
<path fill="none" stroke="#000000" d="M396.5198,-359.7623C398.5666,-335.201 402.2294,-291.2474 404.6372,-262.3541"/>
<polygon fill="#000000" stroke="#000000" points="408.1499,-262.3458 405.4925,-252.0896 401.1741,-261.7644 408.1499,-262.3458"/>
<g id="a_edge5&#45;headlabel"><a xlink:href="dir_000012_000009.html" target="_top" xlink:title="4">
<text text-anchor="middle" x="410.6809" y="-263.6637" font-family="Helvetica,sans-Serif" font-size="10.00" fill="#000000">4</text>
</a>
</g>
</g>
<!-- dir_4012ff34c1bb5bd303e44a1c9cef6c8a -->
<g id="node3" class="node">
<title>dir_4012ff34c1bb5bd303e44a1c9cef6c8a</title>
<g id="a_node3"><a xlink:href="dir_4012ff34c1bb5bd303e44a1c9cef6c8a.html" target="_top" xlink:title="icns">
<polygon fill="#ffffff" stroke="#ff0000" points="192,-396 138,-396 138,-360 192,-360 192,-396"/>
<text text-anchor="middle" x="165" y="-375.5" font-family="Helvetica,sans-Serif" font-size="10.00" fill="#000000">icns</text>
</a>
</g>
</g>
<!-- dir_4012ff34c1bb5bd303e44a1c9cef6c8a&#45;&gt;dir_35ffb1505af3943bdf99903da87524fe -->
<g id="edge20" class="edge">
<title>dir_4012ff34c1bb5bd303e44a1c9cef6c8a&#45;&gt;dir_35ffb1505af3943bdf99903da87524fe</title>
<path fill="none" stroke="#000000" d="M170.7294,-396.0384C177.2342,-413.1355 189.6695,-437.8155 210,-449 244.9493,-468.2268 533.3424,-466.8791 569,-449 587.2761,-439.8362 600.8613,-421.0489 609.7001,-405.1014"/>
<polygon fill="#000000" stroke="#000000" points="612.8542,-406.622 614.3553,-396.1341 606.6414,-403.3968 612.8542,-406.622"/>
<g id="a_edge20&#45;headlabel"><a xlink:href="dir_000003_000015.html" target="_top" xlink:title="1">
<text text-anchor="middle" x="613.718" y="-408.6205" font-family="Helvetica,sans-Serif" font-size="10.00" fill="#000000">1</text>
</a>
</g>
</g>
<!-- dir_0c368f76a33d967d5b838b5681461de6 -->
<g id="node10" class="node">
<title>dir_0c368f76a33d967d5b838b5681461de6</title>
<g id="a_node10"><a xlink:href="dir_0c368f76a33d967d5b838b5681461de6.html" target="_top" xlink:title="wind_energy">
<polygon fill="none" stroke="#000000" points="284.5,-108 213.5,-108 213.5,-72 284.5,-72 284.5,-108"/>
<text text-anchor="middle" x="249" y="-87.5" font-family="Helvetica,sans-Serif" font-size="10.00" fill="#000000">wind_energy</text>
</a>
</g>
</g>
<!-- dir_4012ff34c1bb5bd303e44a1c9cef6c8a&#45;&gt;dir_0c368f76a33d967d5b838b5681461de6 -->
<g id="edge21" class="edge">
<title>dir_4012ff34c1bb5bd303e44a1c9cef6c8a&#45;&gt;dir_0c368f76a33d967d5b838b5681461de6</title>
<path fill="none" stroke="#000000" d="M159.2975,-359.7111C147.3665,-317.6485 124.3916,-212.4089 169,-144 177.7846,-130.5285 191.2268,-119.5681 204.5996,-111.1294"/>
<polygon fill="#000000" stroke="#000000" points="206.5161,-114.062 213.3278,-105.9471 202.9423,-108.043 206.5161,-114.062"/>
<g id="a_edge21&#45;headlabel"><a xlink:href="dir_000003_000001.html" target="_top" xlink:title="2">
<text text-anchor="middle" x="204.8748" y="-115.8385" font-family="Helvetica,sans-Serif" font-size="10.00" fill="#000000">2</text>
</a>
</g>
</g>
<!-- dir_4012ff34c1bb5bd303e44a1c9cef6c8a&#45;&gt;dir_e4cd57caa88bf1f4e1bf9521bc47c3c0 -->
<g id="edge22" class="edge">
<title>dir_4012ff34c1bb5bd303e44a1c9cef6c8a&#45;&gt;dir_e4cd57caa88bf1f4e1bf9521bc47c3c0</title>
<path fill="none" stroke="#000000" d="M179.7741,-359.8994C185.7156,-353.8392 193.0463,-347.6917 201,-344 214.4736,-337.7462 416.1754,-317.7333 500.9302,-309.5441"/>
<polygon fill="#000000" stroke="#000000" points="501.2847,-313.0262 510.9028,-308.5829 500.6131,-306.0585 501.2847,-313.0262"/>
<g id="a_edge22&#45;headlabel"><a xlink:href="dir_000003_000005.html" target="_top" xlink:title="8">
<text text-anchor="middle" x="497.979" y="-313.6971" font-family="Helvetica,sans-Serif" font-size="10.00" fill="#000000">8</text>
</a>
</g>
</g>
<!-- dir_7f7a014517bfe31ea45620a6a947e37b -->
<g id="node13" class="node">
<title>dir_7f7a014517bfe31ea45620a6a947e37b</title>
<g id="a_node13"><a xlink:href="dir_7f7a014517bfe31ea45620a6a947e37b.html" target="_top" xlink:title="fvm">
<polygon fill="none" stroke="#000000" points="452,-36 398,-36 398,0 452,0 452,-36"/>
<text text-anchor="middle" x="425" y="-15.5" font-family="Helvetica,sans-Serif" font-size="10.00" fill="#000000">fvm</text>
</a>
</g>
</g>
<!-- dir_4012ff34c1bb5bd303e44a1c9cef6c8a&#45;&gt;dir_7f7a014517bfe31ea45620a6a947e37b -->
<g id="edge23" class="edge">
<title>dir_4012ff34c1bb5bd303e44a1c9cef6c8a&#45;&gt;dir_7f7a014517bfe31ea45620a6a947e37b</title>
<path fill="none" stroke="#000000" d="M178.6221,-359.8096C204.6059,-325.0495 262.9429,-246.7085 311,-180 345.1768,-132.5589 384.2392,-76.6796 406.6239,-44.4945"/>
<polygon fill="#000000" stroke="#000000" points="409.6447,-46.2808 412.4774,-36.0716 403.8964,-42.286 409.6447,-46.2808"/>
<g id="a_edge23&#45;headlabel"><a xlink:href="dir_000003_000011.html" target="_top" xlink:title="1">
<text text-anchor="middle" x="409.9249" y="-48.3528" font-family="Helvetica,sans-Serif" font-size="10.00" fill="#000000">1</text>
</a>
</g>
</g>
<!-- dir_4012ff34c1bb5bd303e44a1c9cef6c8a&#45;&gt;dir_3d3615e9a999cab4f3407307569d6ced -->
<g id="edge24" class="edge">
<title>dir_4012ff34c1bb5bd303e44a1c9cef6c8a&#45;&gt;dir_3d3615e9a999cab4f3407307569d6ced</title>
<path fill="none" stroke="#000000" d="M180.2807,-359.8623C186.1734,-353.9486 193.3418,-347.9061 201,-344 243.7078,-322.2166 264.3091,-345.8163 307,-324 327.7162,-313.4134 327.7801,-303.6432 345,-288 355.6926,-278.2864 367.6205,-267.8137 378.136,-258.7001"/>
<polygon fill="#000000" stroke="#000000" points="380.5777,-261.216 385.8582,-252.0308 376.0023,-255.9183 380.5777,-261.216"/>
<g id="a_edge24&#45;headlabel"><a xlink:href="dir_000003_000009.html" target="_top" xlink:title="16">
<text text-anchor="middle" x="379.7131" y="-263.2143" font-family="Helvetica,sans-Serif" font-size="10.00" fill="#000000">16</text>
</a>
</g>
</g>
<!-- dir_ce0741f9b73f67c263a459724eeecf8b -->
<g id="node4" class="node">
<title>dir_ce0741f9b73f67c263a459724eeecf8b</title>
<g id="a_node4"><a xlink:href="dir_ce0741f9b73f67c263a459724eeecf8b.html" target="_top" xlink:title="levelset">
<polygon fill="#ffffff" stroke="#000000" points="350,-396 296,-396 296,-360 350,-360 350,-396"/>
<text text-anchor="middle" x="323" y="-375.5" font-family="Helvetica,sans-Serif" font-size="10.00" fill="#000000">levelset</text>
</a>
</g>
</g>
<!-- dir_9f8434f21d2c2598f33c85a8b98c6d56 -->
<g id="node5" class="node">
<title>dir_9f8434f21d2c2598f33c85a8b98c6d56</title>
<g id="a_node5"><a xlink:href="dir_9f8434f21d2c2598f33c85a8b98c6d56.html" target="_top" xlink:title="sdr">
<polygon fill="#ffffff" stroke="#000000" points="494,-396 440,-396 440,-360 494,-360 494,-396"/>
<text text-anchor="middle" x="467" y="-375.5" font-family="Helvetica,sans-Serif" font-size="10.00" fill="#000000">sdr</text>
</a>
</g>
</g>
<!-- dir_9f8434f21d2c2598f33c85a8b98c6d56&#45;&gt;dir_3d3615e9a999cab4f3407307569d6ced -->
<g id="edge25" class="edge">
<title>dir_9f8434f21d2c2598f33c85a8b98c6d56&#45;&gt;dir_3d3615e9a999cab4f3407307569d6ced</title>
<path fill="none" stroke="#000000" d="M459.401,-359.7623C449.0769,-334.9846 430.5297,-290.4714 418.4975,-261.5939"/>
<polygon fill="#000000" stroke="#000000" points="421.6143,-259.9742 414.5373,-252.0896 415.1528,-262.6666 421.6143,-259.9742"/>
<g id="a_edge25&#45;headlabel"><a xlink:href="dir_000029_000009.html" target="_top" xlink:title="4">
<text text-anchor="middle" x="425.6177" y="-259.7003" font-family="Helvetica,sans-Serif" font-size="10.00" fill="#000000">4</text>
</a>
</g>
</g>
<!-- dir_c96908905c9887b0bdc2167e5354d30c -->
<g id="node6" class="node">
<title>dir_c96908905c9887b0bdc2167e5354d30c</title>
<g id="a_node6"><a xlink:href="dir_c96908905c9887b0bdc2167e5354d30c.html" target="_top" xlink:title="temperature">
<polygon fill="#ffffff" stroke="#000000" points="278,-396 210,-396 210,-360 278,-360 278,-396"/>
<text text-anchor="middle" x="244" y="-375.5" font-family="Helvetica,sans-Serif" font-size="10.00" fill="#000000">temperature</text>
</a>
</g>
</g>
<!-- dir_c96908905c9887b0bdc2167e5354d30c&#45;&gt;dir_3d3615e9a999cab4f3407307569d6ced -->
<g id="edge8" class="edge">
<title>dir_c96908905c9887b0bdc2167e5354d30c&#45;&gt;dir_3d3615e9a999cab4f3407307569d6ced</title>
<path fill="none" stroke="#000000" d="M264.0014,-359.896C270.9338,-354.262 278.9845,-348.3846 287,-344 310.9221,-330.9142 323.2899,-340.4977 345,-324 366.7792,-307.4498 383.6912,-280.9973 394.3108,-261.0443"/>
<polygon fill="#000000" stroke="#000000" points="397.4385,-262.6153 398.8772,-252.1186 391.2067,-259.4271 397.4385,-262.6153"/>
<g id="a_edge8&#45;headlabel"><a xlink:href="dir_000030_000009.html" target="_top" xlink:title="4">
<text text-anchor="middle" x="398.329" y="-264.6086" font-family="Helvetica,sans-Serif" font-size="10.00" fill="#000000">4</text>
</a>
</g>
</g>
<!-- dir_be932497d8c26b6aa8596ee64638838f -->
<g id="node7" class="node">
<title>dir_be932497d8c26b6aa8596ee64638838f</title>
<g id="a_node7"><a xlink:href="dir_be932497d8c26b6aa8596ee64638838f.html" target="_top" xlink:title="tke">
<polygon fill="#ffffff" stroke="#ff0000" points="566,-396 512,-396 512,-360 566,-360 566,-396"/>
<text text-anchor="middle" x="539" y="-375.5" font-family="Helvetica,sans-Serif" font-size="10.00" fill="#000000">tke</text>
</a>
</g>
</g>
<!-- dir_be932497d8c26b6aa8596ee64638838f&#45;&gt;dir_9ff815a534beac751fa88e427dbab695 -->
<g id="edge6" class="edge">
<title>dir_be932497d8c26b6aa8596ee64638838f&#45;&gt;dir_9ff815a534beac751fa88e427dbab695</title>
<path fill="none" stroke="#000000" d="M546.1695,-396.1121C554.0551,-413.2651 568.5287,-437.9866 590,-449 615.3092,-461.982 628.8142,-462.2197 654,-449 671.4612,-439.8348 683.9232,-421.3148 691.9093,-405.4877"/>
<polygon fill="#000000" stroke="#000000" points="695.2391,-406.6296 696.308,-396.0888 688.8991,-403.6624 695.2391,-406.6296"/>
<g id="a_edge6&#45;headlabel"><a xlink:href="dir_000019_000021.html" target="_top" xlink:title="1">
<text text-anchor="middle" x="696.2871" y="-408.5888" font-family="Helvetica,sans-Serif" font-size="10.00" fill="#000000">1</text>
</a>
</g>
</g>
<!-- dir_be932497d8c26b6aa8596ee64638838f&#45;&gt;dir_3d3615e9a999cab4f3407307569d6ced -->
<g id="edge7" class="edge">
<title>dir_be932497d8c26b6aa8596ee64638838f&#45;&gt;dir_3d3615e9a999cab4f3407307569d6ced</title>
<path fill="none" stroke="#000000" d="M522.2821,-359.7623C499.0733,-334.4436 456.975,-288.5182 430.5813,-259.7251"/>
<polygon fill="#000000" stroke="#000000" points="432.9195,-257.0961 423.5821,-252.0896 427.7594,-261.8262 432.9195,-257.0961"/>
<g id="a_edge7&#45;headlabel"><a xlink:href="dir_000019_000009.html" target="_top" xlink:title="5">
<text text-anchor="middle" x="437.4414" y="-255.3273" font-family="Helvetica,sans-Serif" font-size="10.00" fill="#000000">5</text>
</a>
</g>
</g>
<!-- dir_9ff815a534beac751fa88e427dbab695&#45;&gt;dir_be932497d8c26b6aa8596ee64638838f -->
<g id="edge1" class="edge">
<title>dir_9ff815a534beac751fa88e427dbab695&#45;&gt;dir_be932497d8c26b6aa8596ee64638838f</title>
<path fill="none" stroke="#000000" d="M696.308,-396.0888C688.8808,-413.2242 675.0852,-437.9326 654,-449 628.8142,-462.2197 615.3092,-461.982 590,-449 572.2191,-439.8795 559.2371,-421.3582 550.8215,-405.5193"/>
<polygon fill="#000000" stroke="#000000" points="553.7397,-403.5245 546.1695,-396.1121 547.4649,-406.6274 553.7397,-403.5245"/>
<g id="a_edge1&#45;headlabel"><a xlink:href="dir_000021_000019.html" target="_top" xlink:title="1">
<text text-anchor="middle" x="557.8781" y="-402.9881" font-family="Helvetica,sans-Serif" font-size="10.00" fill="#000000">1</text>
</a>
</g>
</g>
<!-- dir_9ff815a534beac751fa88e427dbab695&#45;&gt;dir_e4cd57caa88bf1f4e1bf9521bc47c3c0 -->
<g id="edge2" class="edge">
<title>dir_9ff815a534beac751fa88e427dbab695&#45;&gt;dir_e4cd57caa88bf1f4e1bf9521bc47c3c0</title>
<path fill="none" stroke="#000000" d="M684.6554,-359.6718C678.2241,-354.0229 670.6793,-348.1933 663,-344 635.3551,-328.9044 600.9207,-319.0045 575.1972,-313.1053"/>
<polygon fill="#000000" stroke="#000000" points="575.6191,-309.6147 565.1015,-310.8917 574.1198,-316.4523 575.6191,-309.6147"/>
<g id="a_edge2&#45;headlabel"><a xlink:href="dir_000021_000005.html" target="_top" xlink:title="1">
<text text-anchor="middle" x="579.7383" y="-305.1111" font-family="Helvetica,sans-Serif" font-size="10.00" fill="#000000">1</text>
</a>
</g>
</g>
<!-- dir_9ff815a534beac751fa88e427dbab695&#45;&gt;dir_7f7a014517bfe31ea45620a6a947e37b -->
<g id="edge3" class="edge">
<title>dir_9ff815a534beac751fa88e427dbab695&#45;&gt;dir_7f7a014517bfe31ea45620a6a947e37b</title>
<path fill="none" stroke="#000000" d="M702.5856,-359.8157C701.9998,-332.5008 701,-279.2544 701,-234 701,-234 701,-234 701,-162 701,-55.5369 537.5839,-27.654 462.24,-20.4562"/>
<polygon fill="#000000" stroke="#000000" points="462.4883,-16.9646 452.2193,-19.5718 461.8728,-23.9375 462.4883,-16.9646"/>
<g id="a_edge3&#45;headlabel"><a xlink:href="dir_000021_000011.html" target="_top" xlink:title="3">
<text text-anchor="middle" x="466.3186" y="-11.9522" font-family="Helvetica,sans-Serif" font-size="10.00" fill="#000000">3</text>
</a>
</g>
</g>
<!-- dir_9ff815a534beac751fa88e427dbab695&#45;&gt;dir_3d3615e9a999cab4f3407307569d6ced -->
<g id="edge4" class="edge">
<title>dir_9ff815a534beac751fa88e427dbab695&#45;&gt;dir_3d3615e9a999cab4f3407307569d6ced</title>
<path fill="none" stroke="#000000" d="M687.156,-359.7512C668.5082,-339.38 635.6633,-306.8121 601,-288 550.4023,-260.5401 484.6305,-246.0641 444.1397,-239.2301"/>
<polygon fill="#000000" stroke="#000000" points="444.5979,-235.7588 434.1671,-237.6156 443.4792,-242.6688 444.5979,-235.7588"/>
<g id="a_edge4&#45;headlabel"><a xlink:href="dir_000021_000009.html" target="_top" xlink:title="5">
<text text-anchor="middle" x="448.6" y="-231.0304" font-family="Helvetica,sans-Serif" font-size="10.00" fill="#000000">5</text>
</a>
</g>
</g>
<!-- dir_35ffb1505af3943bdf99903da87524fe&#45;&gt;dir_e4cd57caa88bf1f4e1bf9521bc47c3c0 -->
<g id="edge9" class="edge">
<title>dir_35ffb1505af3943bdf99903da87524fe&#45;&gt;dir_e4cd57caa88bf1f4e1bf9521bc47c3c0</title>
<path fill="none" stroke="#000000" d="M600.8033,-359.8314C590.5566,-351.0485 578.0997,-340.3712 566.9903,-330.8489"/>
<polygon fill="#000000" stroke="#000000" points="569.0603,-328.0134 559.19,-324.1628 564.5048,-333.3282 569.0603,-328.0134"/>
<g id="a_edge9&#45;headlabel"><a xlink:href="dir_000015_000005.html" target="_top" xlink:title="4">
<text text-anchor="middle" x="573.6373" y="-325.697" font-family="Helvetica,sans-Serif" font-size="10.00" fill="#000000">4</text>
</a>
</g>
</g>
<!-- dir_35ffb1505af3943bdf99903da87524fe&#45;&gt;dir_3d3615e9a999cab4f3407307569d6ced -->
<g id="edge10" class="edge">
<title>dir_35ffb1505af3943bdf99903da87524fe&#45;&gt;dir_3d3615e9a999cab4f3407307569d6ced</title>
<path fill="none" stroke="#000000" d="M616.8528,-359.8116C610.196,-339.4958 596.6796,-306.9787 574,-288 536.7793,-256.8531 481.2279,-243.5604 444.564,-237.962"/>
<polygon fill="#000000" stroke="#000000" points="444.6841,-234.4445 434.2944,-236.5192 443.7102,-241.3765 444.6841,-234.4445"/>
<g id="a_edge10&#45;headlabel"><a xlink:href="dir_000015_000009.html" target="_top" xlink:title="4">
<text text-anchor="middle" x="448.6387" y="-229.6329" font-family="Helvetica,sans-Serif" font-size="10.00" fill="#000000">4</text>
</a>
</g>
</g>
<!-- dir_0c368f76a33d967d5b838b5681461de6&#45;&gt;dir_4bb30ed846ea1df1fc4d16874a455d91 -->
<g id="edge16" class="edge">
<title>dir_0c368f76a33d967d5b838b5681461de6&#45;&gt;dir_4bb30ed846ea1df1fc4d16874a455d91</title>
<path fill="none" stroke="#000000" d="M213.1073,-101.6761C191.7787,-110.2934 165.7141,-124.0262 149,-144 97.6921,-205.3144 80.2582,-301.8584 74.5859,-349.4858"/>
<polygon fill="#000000" stroke="#000000" points="71.0784,-349.3626 73.464,-359.6854 78.0364,-350.128 71.0784,-349.3626"/>
<g id="a_edge16&#45;headlabel"><a xlink:href="dir_000001_000002.html" target="_top" xlink:title="2">
<text text-anchor="middle" x="68.6491" y="-342.9792" font-family="Helvetica,sans-Serif" font-size="10.00" fill="#000000">2</text>
</a>
</g>
</g>
<!-- dir_0c368f76a33d967d5b838b5681461de6&#45;&gt;dir_4012ff34c1bb5bd303e44a1c9cef6c8a -->
<g id="edge12" class="edge">
<title>dir_0c368f76a33d967d5b838b5681461de6&#45;&gt;dir_4012ff34c1bb5bd303e44a1c9cef6c8a</title>
<path fill="none" stroke="#000000" d="M219.7902,-108.0479C207.5348,-117.2295 194.4276,-129.5215 187,-144 152.5148,-211.2219 156.405,-303.6139 161.1991,-349.6019"/>
<polygon fill="#000000" stroke="#000000" points="157.7433,-350.1899 162.3502,-359.7307 164.6985,-349.3994 157.7433,-350.1899"/>
<g id="a_edge12&#45;headlabel"><a xlink:href="dir_000001_000003.html" target="_top" xlink:title="2">
<text text-anchor="middle" x="154.5164" y="-344.4388" font-family="Helvetica,sans-Serif" font-size="10.00" fill="#000000">2</text>
</a>
</g>
</g>
<!-- dir_0c368f76a33d967d5b838b5681461de6&#45;&gt;dir_e4cd57caa88bf1f4e1bf9521bc47c3c0 -->
<g id="edge11" class="edge">
<title>dir_0c368f76a33d967d5b838b5681461de6&#45;&gt;dir_e4cd57caa88bf1f4e1bf9521bc47c3c0</title>
<path fill="none" stroke="#000000" d="M282.5586,-108.1777C300.7194,-118.2881 323.3865,-131.3527 343,-144 389.0267,-173.6792 400.8039,-181.0888 443,-216 467.8129,-236.5291 494.2741,-261.9175 512.9506,-280.4897"/>
<polygon fill="#000000" stroke="#000000" points="510.9072,-283.3965 520.4508,-287.9979 515.8597,-278.4494 510.9072,-283.3965"/>
<g id="a_edge11&#45;headlabel"><a xlink:href="dir_000001_000005.html" target="_top" xlink:title="19">
<text text-anchor="middle" x="506.3581" y="-280.36" font-family="Helvetica,sans-Serif" font-size="10.00" fill="#000000">19</text>
</a>
</g>
</g>
<!-- dir_0c368f76a33d967d5b838b5681461de6&#45;&gt;dir_7f7a014517bfe31ea45620a6a947e37b -->
<g id="edge13" class="edge">
<title>dir_0c368f76a33d967d5b838b5681461de6&#45;&gt;dir_7f7a014517bfe31ea45620a6a947e37b</title>
<path fill="none" stroke="#000000" d="M284.6162,-75.4297C314.7979,-63.0827 357.9052,-45.4479 388.3714,-32.9844"/>
<polygon fill="#000000" stroke="#000000" points="389.8562,-36.1586 397.7865,-29.1328 387.2057,-29.6798 389.8562,-36.1586"/>
<g id="a_edge13&#45;headlabel"><a xlink:href="dir_000001_000011.html" target="_top" xlink:title="1">
<text text-anchor="middle" x="387.6043" y="-37.6475" font-family="Helvetica,sans-Serif" font-size="10.00" fill="#000000">1</text>
</a>
</g>
</g>
<!-- dir_0c368f76a33d967d5b838b5681461de6&#45;&gt;dir_a816a247b59c90f95e41afe29b966a18 -->
<g id="edge14" class="edge">
<title>dir_0c368f76a33d967d5b838b5681461de6&#45;&gt;dir_a816a247b59c90f95e41afe29b966a18</title>
<path fill="none" stroke="#000000" d="M249,-71.8314C249,-64.131 249,-54.9743 249,-46.4166"/>
<polygon fill="#000000" stroke="#000000" points="252.5001,-46.4132 249,-36.4133 245.5001,-46.4133 252.5001,-46.4132"/>
<g id="a_edge14&#45;headlabel"><a xlink:href="dir_000001_000014.html" target="_top" xlink:title="1">
<text text-anchor="middle" x="255.3393" y="-47.5079" font-family="Helvetica,sans-Serif" font-size="10.00" fill="#000000">1</text>
</a>
</g>
</g>
<!-- dir_0c368f76a33d967d5b838b5681461de6&#45;&gt;dir_3d3615e9a999cab4f3407307569d6ced -->
<g id="edge15" class="edge">
<title>dir_0c368f76a33d967d5b838b5681461de6&#45;&gt;dir_3d3615e9a999cab4f3407307569d6ced</title>
<path fill="none" stroke="#000000" d="M270.1176,-108.0576C282.1862,-118.4607 297.5501,-131.8455 311,-144 334.8358,-165.54 361.4526,-190.5728 380.6028,-208.7614"/>
<polygon fill="#000000" stroke="#000000" points="378.4089,-211.5052 388.0662,-215.8626 383.2341,-206.4339 378.4089,-211.5052"/>
<g id="a_edge15&#45;headlabel"><a xlink:href="dir_000001_000009.html" target="_top" xlink:title="7">
<text text-anchor="middle" x="373.8476" y="-208.5843" font-family="Helvetica,sans-Serif" font-size="10.00" fill="#000000">7</text>
</a>
</g>
</g>
<!-- dir_ebb19deee3cd40f4ac122fef25c04ca8&#45;&gt;dir_0c368f76a33d967d5b838b5681461de6 -->
<g id="edge17" class="edge">
<title>dir_ebb19deee3cd40f4ac122fef25c04ca8&#45;&gt;dir_0c368f76a33d967d5b838b5681461de6</title>
<path fill="none" stroke="#000000" d="M249,-143.8314C249,-136.131 249,-126.9743 249,-118.4166"/>
<polygon fill="#000000" stroke="#000000" points="252.5001,-118.4132 249,-108.4133 245.5001,-118.4133 252.5001,-118.4132"/>
<g id="a_edge17&#45;headlabel"><a xlink:href="dir_000006_000001.html" target="_top" xlink:title="1">
<text text-anchor="middle" x="255.3393" y="-119.5079" font-family="Helvetica,sans-Serif" font-size="10.00" fill="#000000">1</text>
</a>
</g>
</g>
<!-- dir_ebb19deee3cd40f4ac122fef25c04ca8&#45;&gt;dir_3d3615e9a999cab4f3407307569d6ced -->
<g id="edge18" class="edge">
<title>dir_ebb19deee3cd40f4ac122fef25c04ca8&#45;&gt;dir_3d3615e9a999cab4f3407307569d6ced</title>
<path fill="none" stroke="#000000" d="M294.6377,-180.088C318.7887,-190.6228 347.9723,-203.9037 370.5951,-214.6477"/>
<polygon fill="#000000" stroke="#000000" points="369.3241,-217.9196 379.855,-219.0816 372.3472,-211.6061 369.3241,-217.9196"/>
<g id="a_edge18&#45;headlabel"><a xlink:href="dir_000006_000009.html" target="_top" xlink:title="4">
<text text-anchor="middle" x="364.8558" y="-216.4282" font-family="Helvetica,sans-Serif" font-size="10.00" fill="#000000">4</text>
</a>
</g>
</g>
<!-- dir_e4cd57caa88bf1f4e1bf9521bc47c3c0&#45;&gt;dir_3d3615e9a999cab4f3407307569d6ced -->
<g id="edge19" class="edge">
<title>dir_e4cd57caa88bf1f4e1bf9521bc47c3c0&#45;&gt;dir_3d3615e9a999cab4f3407307569d6ced</title>
<path fill="none" stroke="#000000" d="M510.8567,-291.0816C491.1842,-280.2692 464.3843,-265.5395 442.9364,-253.7513"/>
<polygon fill="#000000" stroke="#000000" points="444.5579,-250.6488 434.1085,-248.8993 441.1863,-256.7833 444.5579,-250.6488"/>
<g id="a_edge19&#45;headlabel"><a xlink:href="dir_000005_000009.html" target="_top" xlink:title="8">
<text text-anchor="middle" x="449.0756" y="-247.3919" font-family="Helvetica,sans-Serif" font-size="10.00" fill="#000000">8</text>
</a>
</g>
</g>
<!-- dir_7f7a014517bfe31ea45620a6a947e37b&#45;&gt;dir_3d3615e9a999cab4f3407307569d6ced -->
<g id="edge26" class="edge">
<title>dir_7f7a014517bfe31ea45620a6a947e37b&#45;&gt;dir_3d3615e9a999cab4f3407307569d6ced</title>
<path fill="none" stroke="#000000" d="M425.6461,-36.0783C426.4506,-66.1142 426.9689,-128.1286 420,-180 418.8625,-188.4669 416.9553,-197.5408 414.9475,-205.7875"/>
<polygon fill="#000000" stroke="#000000" points="411.5037,-205.1262 412.4008,-215.683 418.2828,-206.871 411.5037,-205.1262"/>
<g id="a_edge26&#45;headlabel"><a xlink:href="dir_000011_000009.html" target="_top" xlink:title="1">
<text text-anchor="middle" x="409.6499" y="-198.4374" font-family="Helvetica,sans-Serif" font-size="10.00" fill="#000000">1</text>
</a>
</g>
</g>
<!-- dir_a816a247b59c90f95e41afe29b966a18&#45;&gt;dir_3d3615e9a999cab4f3407307569d6ced -->
<g id="edge27" class="edge">
<title>dir_a816a247b59c90f95e41afe29b966a18&#45;&gt;dir_3d3615e9a999cab4f3407307569d6ced</title>
<path fill="none" stroke="#000000" d="M264.8103,-36.1766C273.6242,-46.5044 284.6711,-59.7768 294,-72 329.3708,-118.3447 367.6002,-174.5839 389.2907,-207.1345"/>
<polygon fill="#000000" stroke="#000000" points="386.505,-209.2665 394.9538,-215.6594 392.3357,-205.3931 386.505,-209.2665"/>
<g id="a_edge27&#45;headlabel"><a xlink:href="dir_000014_000009.html" target="_top" xlink:title="1">
<text text-anchor="middle" x="382.151" y="-205.3434" font-family="Helvetica,sans-Serif" font-size="10.00" fill="#000000">1</text>
</a>
</g>
</g>
<!-- dir_3d3615e9a999cab4f3407307569d6ced&#45;&gt;dir_ebb19deee3cd40f4ac122fef25c04ca8 -->
<g id="edge28" class="edge">
<title>dir_3d3615e9a999cab4f3407307569d6ced&#45;&gt;dir_ebb19deee3cd40f4ac122fef25c04ca8</title>
<path fill="none" stroke="#000000" d="M379.8247,-223.8369C355.5687,-213.6327 319.8552,-197.5751 291.8119,-184.3805"/>
<polygon fill="#000000" stroke="#000000" points="293.159,-181.1459 282.6233,-180.0282 290.1624,-187.4721 293.159,-181.1459"/>
<g id="a_edge28&#45;headlabel"><a xlink:href="dir_000009_000006.html" target="_top" xlink:title="1">
<text text-anchor="middle" x="297.623" y="-177.6186" font-family="Helvetica,sans-Serif" font-size="10.00" fill="#000000">1</text>
</a>
</g>
</g>
</g>
</svg>
        <g id="navigator" transform="translate(0 0)" fill="#404254">
                <rect fill="#f2f5e9" fill-opacity="0.5" stroke="#606060" stroke-width=".5" x="0" y="0" width="60" height="60"/>
                <use id="zoomplus" xlink:href="#zoomPlus" x="17" y="9" onmousedown="handleZoom(evt,'in')"/>
                <use id="zoomminus" xlink:href="#zoomMin" x="42" y="9" onmousedown="handleZoom(evt,'out')"/>
                <use id="reset" xlink:href="#resetDef" x="30" y="36" onmousedown="handleReset()"/>
                <g id="arrowUp" xlink:href="#dirArrow" transform="translate(30 24)" onmousedown="handlePan(0,-1)">
                  <use xlink:href="#rim" fill="#404040">
                        <set attributeName="fill" to="#808080" begin="arrowUp.mouseover" end="arrowUp.mouseout"/>
                  </use>
                  <path fill="none" stroke="white" stroke-width="1.5" d="M0,-3.0v7 M-2.5,-0.5L0,-3.0L2.5,-0.5"/>
                </g>
                <g id="arrowRight" xlink:href="#dirArrow" transform="rotate(90) translate(36 -43)" onmousedown="handlePan(1,0)">
                  <use xlink:href="#rim" fill="#404040">
                        <set attributeName="fill" to="#808080" begin="arrowRight.mouseover" end="arrowRight.mouseout"/>
                  </use>
                  <path fill="none" stroke="white" stroke-width="1.5" d="M0,-3.0v7 M-2.5,-0.5L0,-3.0L2.5,-0.5"/>
                </g>
                <g id="arrowDown" xlink:href="#dirArrow" transform="rotate(180) translate(-30 -48)" onmousedown="handlePan(0,1)">
                  <use xlink:href="#rim" fill="#404040">
                        <set attributeName="fill" to="#808080" begin="arrowDown.mouseover" end="arrowDown.mouseout"/>
                  </use>
                  <path fill="none" stroke="white" stroke-width="1.5" d="M0,-3.0v7 M-2.5,-0.5L0,-3.0L2.5,-0.5"/>
                </g>
                <g id="arrowLeft" xlink:href="#dirArrow" transform="rotate(270) translate(-36 17)" onmousedown="handlePan(-1,0)">
                  <use xlink:href="#rim" fill="#404040">
                        <set attributeName="fill" to="#808080" begin="arrowLeft.mouseover" end="arrowLeft.mouseout"/>
                  </use>
                  <path fill="none" stroke="white" stroke-width="1.5" d="M0,-3.0v7 M-2.5,-0.5L0,-3.0L2.5,-0.5"/>
                </g>
        </g>
        <svg viewBox="0 0 15 15" width="100%" height="30px" preserveAspectRatio="xMaxYMin meet">
         <g id="arrow_out" transform="scale(0.3 0.3)">
          <a xlink:href="dir_4bb30ed846ea1df1fc4d16874a455d91_dep_org.svg" target="_base">
           <rect id="button" ry="5" rx="5" y="6" x="6" height="38" width="38"
                fill="#f2f5e9" fill-opacity="0.5" stroke="#606060" stroke-width="1.0"/>
           <path id="arrow"
             d="M 11.500037,31.436501 C 11.940474,20.09759 22.043105,11.32322 32.158766,21.979434 L 37.068811,17.246167 C 37.068811,17.246167 37.088388,32 37.088388,32 L 22.160133,31.978069 C 22.160133,31.978069 26.997745,27.140456 26.997745,27.140456 C 18.528582,18.264221 13.291696,25.230495 11.500037,31.436501 z"
             style="fill:#404040;"/>
          </a>
         </g>
        </svg>
</svg>
