<?xml version="1.0" encoding="UTF-8" standalone="no"?>
<!DOCTYPE svg PUBLIC "-//W3C//DTD SVG 1.1//EN"
 "http://www.w3.org/Graphics/SVG/1.1/DTD/svg11.dtd">
<!-- Generated by graphviz version 2.40.1 (20161225.0304)
 -->
<!-- Title: amr&#45;wind Pages: 1 -->
<svg width="612pt" height="508pt"
 viewBox="0.00 0.00 612.00 508.00" xmlns="http://www.w3.org/2000/svg" xmlns:xlink="http://www.w3.org/1999/xlink">
<g id="graph0" class="graph" transform="scale(1 1) rotate(0) translate(4 504)">
<title>amr&#45;wind</title>
<polygon fill="#ffffff" stroke="transparent" points="-4,4 -4,-504 608,-504 608,4 -4,4"/>
<g id="clust1" class="cluster">
<title>clusterdir_d85575251dd712327fe3cf057fa568b4</title>
<g id="a_clust1"><a xlink:href="dir_d85575251dd712327fe3cf057fa568b4.html" target="_top">
<polygon fill="#eeeeff" stroke="#000000" points="8,-8 8,-492 596,-492 596,-8 8,-8"/>
</a>
</g>
</g>
<!-- dir_d85575251dd712327fe3cf057fa568b4 -->
<g id="node1" class="node">
<title>dir_d85575251dd712327fe3cf057fa568b4</title>
<text text-anchor="middle" x="313" y="-463.5" font-family="Helvetica,sans-Serif" font-size="10.00" fill="#000000">amr&#45;wind</text>
</g>
<!-- dir_35ffb1505af3943bdf99903da87524fe -->
<g id="node3" class="node">
<title>dir_35ffb1505af3943bdf99903da87524fe</title>
<g id="a_node3"><a xlink:href="dir_35ffb1505af3943bdf99903da87524fe.html" target="_top" xlink:title="convection">
<polygon fill="#ffffff" stroke="#000000" points="368,-268 304,-268 304,-232 368,-232 368,-268"/>
<text text-anchor="middle" x="336" y="-247.5" font-family="Helvetica,sans-Serif" font-size="10.00" fill="#000000">convection</text>
</a>
</g>
</g>
<!-- dir_d85575251dd712327fe3cf057fa568b4&#45;&gt;dir_35ffb1505af3943bdf99903da87524fe -->
<g id="edge10" class="edge">
<title>dir_d85575251dd712327fe3cf057fa568b4&#45;&gt;dir_35ffb1505af3943bdf99903da87524fe</title>
<path fill="none" stroke="#000000" d="M313.0896,-447.9128C313.4676,-417.8642 315.2222,-355.8318 323,-304 324.2678,-295.5516 326.215,-286.4835 328.2196,-278.2363"/>
<polygon fill="#000000" stroke="#000000" points="331.6642,-278.892 330.7425,-268.3374 324.8811,-277.1631 331.6642,-278.892"/>
<g id="a_edge10&#45;headlabel"><a xlink:href="dir_000000_000014.html" target="_top" xlink:title="6">
<text text-anchor="middle" x="333.5278" y="-280.5765" font-family="Helvetica,sans-Serif" font-size="10.00" fill="#000000">6</text>
</a>
</g>
</g>
<!-- dir_3d3615e9a999cab4f3407307569d6ced -->
<g id="node4" class="node">
<title>dir_3d3615e9a999cab4f3407307569d6ced</title>
<g id="a_node4"><a xlink:href="dir_3d3615e9a999cab4f3407307569d6ced.html" target="_top" xlink:title="core">
<polygon fill="#ffffff" stroke="#000000" points="332,-124 278,-124 278,-88 332,-88 332,-124"/>
<text text-anchor="middle" x="305" y="-103.5" font-family="Helvetica,sans-Serif" font-size="10.00" fill="#000000">core</text>
</a>
</g>
</g>
<!-- dir_d85575251dd712327fe3cf057fa568b4&#45;&gt;dir_3d3615e9a999cab4f3407307569d6ced -->
<g id="edge15" class="edge">
<title>dir_d85575251dd712327fe3cf057fa568b4&#45;&gt;dir_3d3615e9a999cab4f3407307569d6ced</title>
<path fill="none" stroke="#000000" d="M341.035,-461.1219C387.3117,-452.5574 476.8784,-433.6565 500,-412 583.2745,-334.0023 622.2695,-247.4634 549,-160 522.8601,-128.7963 403.9469,-114.3238 342.3077,-108.8199"/>
<polygon fill="#000000" stroke="#000000" points="342.4769,-105.3216 332.2141,-107.9532 341.878,-112.2959 342.4769,-105.3216"/>
<g id="a_edge15&#45;headlabel"><a xlink:href="dir_000000_000009.html" target="_top" xlink:title="101">
<text text-anchor="middle" x="346.3012" y="-100.3002" font-family="Helvetica,sans-Serif" font-size="10.00" fill="#000000">101</text>
</a>
</g>
</g>
<!-- dir_a816a247b59c90f95e41afe29b966a18 -->
<g id="node6" class="node">
<title>dir_a816a247b59c90f95e41afe29b966a18</title>
<g id="a_node6"><a xlink:href="dir_a816a247b59c90f95e41afe29b966a18.html" target="_top" xlink:title="diffusion">
<polygon fill="#ffffff" stroke="#000000" points="266,-196 212,-196 212,-160 266,-160 266,-196"/>
<text text-anchor="middle" x="239" y="-175.5" font-family="Helvetica,sans-Serif" font-size="10.00" fill="#000000">diffusion</text>
</a>
</g>
</g>
<!-- dir_d85575251dd712327fe3cf057fa568b4&#45;&gt;dir_a816a247b59c90f95e41afe29b966a18 -->
<g id="edge13" class="edge">
<title>dir_d85575251dd712327fe3cf057fa568b4&#45;&gt;dir_a816a247b59c90f95e41afe29b966a18</title>
<path fill="none" stroke="#000000" d="M311.069,-447.9205C305.8104,-400.1715 290.5824,-271.6453 275,-232 271.268,-222.5049 265.6723,-212.971 259.9982,-204.6137"/>
<polygon fill="#000000" stroke="#000000" points="262.7853,-202.4939 254.1316,-196.3813 257.0847,-206.5563 262.7853,-202.4939"/>
<g id="a_edge13&#45;headlabel"><a xlink:href="dir_000000_000013.html" target="_top" xlink:title="3">
<text text-anchor="middle" x="267.1836" y="-201.2735" font-family="Helvetica,sans-Serif" font-size="10.00" fill="#000000">3</text>
</a>
</g>
</g>
<!-- dir_4bb30ed846ea1df1fc4d16874a455d91 -->
<g id="node7" class="node">
<title>dir_4bb30ed846ea1df1fc4d16874a455d91</title>
<g id="a_node7"><a xlink:href="dir_4bb30ed846ea1df1fc4d16874a455d91.html" target="_top" xlink:title="equation_systems">
<polygon fill="#ffffff" stroke="#ff0000" points="428,-340 332,-340 332,-304 428,-304 428,-340"/>
<text text-anchor="middle" x="380" y="-319.5" font-family="Helvetica,sans-Serif" font-size="10.00" fill="#000000">equation_systems</text>
</a>
</g>
</g>
<!-- dir_d85575251dd712327fe3cf057fa568b4&#45;&gt;dir_4bb30ed846ea1df1fc4d16874a455d91 -->
<g id="edge14" class="edge">
<title>dir_d85575251dd712327fe3cf057fa568b4&#45;&gt;dir_4bb30ed846ea1df1fc4d16874a455d91</title>
<path fill="none" stroke="#000000" d="M317.4522,-447.8271C322.3754,-429.2211 331.1986,-399.7461 343,-376 347.6548,-366.634 353.7446,-357.0232 359.6361,-348.5541"/>
<polygon fill="#000000" stroke="#000000" points="362.6454,-350.364 365.6354,-340.1998 356.9595,-346.2809 362.6454,-350.364"/>
<g id="a_edge14&#45;headlabel"><a xlink:href="dir_000000_000002.html" target="_top" xlink:title="6">
<text text-anchor="middle" x="362.8549" y="-352.4398" font-family="Helvetica,sans-Serif" font-size="10.00" fill="#000000">6</text>
</a>
</g>
</g>
<!-- dir_629222d9fcf2f4ceefae477297f2ec84 -->
<g id="node9" class="node">
<title>dir_629222d9fcf2f4ceefae477297f2ec84</title>
<g id="a_node9"><a xlink:href="dir_629222d9fcf2f4ceefae477297f2ec84.html" target="_top" xlink:title="overset">
<polygon fill="#ffffff" stroke="#000000" points="478,-412 424,-412 424,-376 478,-376 478,-412"/>
<text text-anchor="middle" x="451" y="-391.5" font-family="Helvetica,sans-Serif" font-size="10.00" fill="#000000">overset</text>
</a>
</g>
</g>
<!-- dir_d85575251dd712327fe3cf057fa568b4&#45;&gt;dir_629222d9fcf2f4ceefae477297f2ec84 -->
<g id="edge8" class="edge">
<title>dir_d85575251dd712327fe3cf057fa568b4&#45;&gt;dir_629222d9fcf2f4ceefae477297f2ec84</title>
<path fill="none" stroke="#000000" d="M341.2594,-451.256C362.467,-440.1911 391.6746,-424.9524 414.6259,-412.9778"/>
<polygon fill="#000000" stroke="#000000" points="416.472,-415.9624 423.7189,-408.2336 413.234,-409.7563 416.472,-415.9624"/>
<g id="a_edge8&#45;headlabel"><a xlink:href="dir_000000_000022.html" target="_top" xlink:title="2">
<text text-anchor="middle" x="414.5985" y="-417.6423" font-family="Helvetica,sans-Serif" font-size="10.00" fill="#000000">2</text>
</a>
</g>
</g>
<!-- dir_363965ad9f416a72819c4d9abdf3e48c -->
<g id="node11" class="node">
<title>dir_363965ad9f416a72819c4d9abdf3e48c</title>
<g id="a_node11"><a xlink:href="dir_363965ad9f416a72819c4d9abdf3e48c.html" target="_top" xlink:title="prob">
<polygon fill="#ffffff" stroke="#000000" points="254,-412 200,-412 200,-376 254,-376 254,-412"/>
<text text-anchor="middle" x="227" y="-391.5" font-family="Helvetica,sans-Serif" font-size="10.00" fill="#000000">prob</text>
</a>
</g>
</g>
<!-- dir_d85575251dd712327fe3cf057fa568b4&#45;&gt;dir_363965ad9f416a72819c4d9abdf3e48c -->
<g id="edge9" class="edge">
<title>dir_d85575251dd712327fe3cf057fa568b4&#45;&gt;dir_363965ad9f416a72819c4d9abdf3e48c</title>
<path fill="none" stroke="#000000" d="M291.2986,-447.8314C280.8079,-439.0485 268.0545,-428.3712 256.6806,-418.8489"/>
<polygon fill="#000000" stroke="#000000" points="258.6089,-415.8986 248.6945,-412.1628 254.1153,-421.2659 258.6089,-415.8986"/>
<g id="a_edge9&#45;headlabel"><a xlink:href="dir_000000_000016.html" target="_top" xlink:title="1">
<text text-anchor="middle" x="263.1877" y="-413.529" font-family="Helvetica,sans-Serif" font-size="10.00" fill="#000000">1</text>
</a>
</g>
</g>
<!-- dir_9ff815a534beac751fa88e427dbab695 -->
<g id="node15" class="node">
<title>dir_9ff815a534beac751fa88e427dbab695</title>
<g id="a_node15"><a xlink:href="dir_9ff815a534beac751fa88e427dbab695.html" target="_top" xlink:title="turbulence">
<polygon fill="#ffffff" stroke="#ff0000" points="528,-268 466,-268 466,-232 528,-232 528,-268"/>
<text text-anchor="middle" x="497" y="-247.5" font-family="Helvetica,sans-Serif" font-size="10.00" fill="#000000">turbulence</text>
</a>
</g>
</g>
<!-- dir_d85575251dd712327fe3cf057fa568b4&#45;&gt;dir_9ff815a534beac751fa88e427dbab695 -->
<g id="edge7" class="edge">
<title>dir_d85575251dd712327fe3cf057fa568b4&#45;&gt;dir_9ff815a534beac751fa88e427dbab695</title>
<path fill="none" stroke="#000000" d="M341.1976,-461.2188C385.6596,-453.0606 468.88,-435.0716 487,-412 517.0476,-373.7413 511.1162,-313.4091 504.0675,-278.1745"/>
<polygon fill="#000000" stroke="#000000" points="507.4222,-277.1289 501.8827,-268.0977 500.5811,-278.6122 507.4222,-277.1289"/>
<g id="a_edge7&#45;headlabel"><a xlink:href="dir_000000_000018.html" target="_top" xlink:title="4">
<text text-anchor="middle" x="510.9586" y="-277.5403" font-family="Helvetica,sans-Serif" font-size="10.00" fill="#000000">4</text>
</a>
</g>
</g>
<!-- dir_e4cd57caa88bf1f4e1bf9521bc47c3c0 -->
<g id="node16" class="node">
<title>dir_e4cd57caa88bf1f4e1bf9521bc47c3c0</title>
<g id="a_node16"><a xlink:href="dir_e4cd57caa88bf1f4e1bf9521bc47c3c0.html" target="_top" xlink:title="utilities">
<polygon fill="#ffffff" stroke="#ff0000" points="174,-196 120,-196 120,-160 174,-160 174,-196"/>
<text text-anchor="middle" x="147" y="-175.5" font-family="Helvetica,sans-Serif" font-size="10.00" fill="#000000">utilities</text>
</a>
</g>
</g>
<!-- dir_d85575251dd712327fe3cf057fa568b4&#45;&gt;dir_e4cd57caa88bf1f4e1bf9521bc47c3c0 -->
<g id="edge12" class="edge">
<title>dir_d85575251dd712327fe3cf057fa568b4&#45;&gt;dir_e4cd57caa88bf1f4e1bf9521bc47c3c0</title>
<path fill="none" stroke="#000000" d="M284.971,-462.3566C236.2228,-455.3823 139.091,-438.4471 119,-412 106.7676,-395.8977 130.1263,-265.1157 141.4009,-206.379"/>
<polygon fill="#000000" stroke="#000000" points="144.8887,-206.777 143.3541,-196.2939 138.0165,-205.4459 144.8887,-206.777"/>
<g id="a_edge12&#45;headlabel"><a xlink:href="dir_000000_000005.html" target="_top" xlink:title="38">
<text text-anchor="middle" x="146.9928" y="-208.3459" font-family="Helvetica,sans-Serif" font-size="10.00" fill="#000000">38</text>
</a>
</g>
</g>
<!-- dir_0c368f76a33d967d5b838b5681461de6 -->
<g id="node17" class="node">
<title>dir_0c368f76a33d967d5b838b5681461de6</title>
<g id="a_node17"><a xlink:href="dir_0c368f76a33d967d5b838b5681461de6.html" target="_top" xlink:title="wind_energy">
<polygon fill="#ffffff" stroke="#000000" points="265.5,-268 194.5,-268 194.5,-232 265.5,-232 265.5,-268"/>
<text text-anchor="middle" x="230" y="-247.5" font-family="Helvetica,sans-Serif" font-size="10.00" fill="#000000">wind_energy</text>
</a>
</g>
</g>
<!-- dir_d85575251dd712327fe3cf057fa568b4&#45;&gt;dir_0c368f76a33d967d5b838b5681461de6 -->
<g id="edge11" class="edge">
<title>dir_d85575251dd712327fe3cf057fa568b4&#45;&gt;dir_0c368f76a33d967d5b838b5681461de6</title>
<path fill="none" stroke="#000000" d="M304.0235,-447.6863C299.0665,-437.3156 292.9332,-424.046 288,-412 268.9987,-365.602 249.9825,-310.4106 239.1381,-277.8987"/>
<polygon fill="#000000" stroke="#000000" points="242.3848,-276.5695 235.9148,-268.1797 235.7407,-278.7731 242.3848,-276.5695"/>
<g id="a_edge11&#45;headlabel"><a xlink:href="dir_000000_000001.html" target="_top" xlink:title="4">
<text text-anchor="middle" x="246.2113" y="-276.5876" font-family="Helvetica,sans-Serif" font-size="10.00" fill="#000000">4</text>
</a>
</g>
</g>
<!-- dir_ebb19deee3cd40f4ac122fef25c04ca8 -->
<g id="node2" class="node">
<title>dir_ebb19deee3cd40f4ac122fef25c04ca8</title>
<g id="a_node2"><a xlink:href="dir_ebb19deee3cd40f4ac122fef25c04ca8.html" target="_top" xlink:title="boundary_conditions">
<polygon fill="#ffffff" stroke="#000000" points="358,-52 252,-52 252,-16 358,-16 358,-52"/>
<text text-anchor="middle" x="305" y="-31.5" font-family="Helvetica,sans-Serif" font-size="10.00" fill="#000000">boundary_conditions</text>
</a>
</g>
</g>
<!-- dir_ebb19deee3cd40f4ac122fef25c04ca8&#45;&gt;dir_3d3615e9a999cab4f3407307569d6ced -->
<g id="edge29" class="edge">
<title>dir_ebb19deee3cd40f4ac122fef25c04ca8&#45;&gt;dir_3d3615e9a999cab4f3407307569d6ced</title>
<path fill="none" stroke="#000000" d="M310.976,-52.4133C311.7071,-60.0593 311.9203,-69.1084 311.6155,-77.5726"/>
<polygon fill="#000000" stroke="#000000" points="308.1048,-77.6264 310.9524,-87.8314 315.0902,-78.078 308.1048,-77.6264"/>
<g id="a_edge29&#45;headlabel"><a xlink:href="dir_000006_000009.html" target="_top" xlink:title="4">
<text text-anchor="middle" x="305.5032" y="-71.3562" font-family="Helvetica,sans-Serif" font-size="10.00" fill="#000000">4</text>
</a>
</g>
</g>
<!-- dir_35ffb1505af3943bdf99903da87524fe&#45;&gt;dir_3d3615e9a999cab4f3407307569d6ced -->
<g id="edge22" class="edge">
<title>dir_35ffb1505af3943bdf99903da87524fe&#45;&gt;dir_3d3615e9a999cab4f3407307569d6ced</title>
<path fill="none" stroke="#000000" d="M320.0095,-231.9169C312.3462,-222.0371 303.9834,-209.1563 300,-196 293.8967,-175.8422 295.5927,-152.0045 298.5742,-133.9274"/>
<polygon fill="#000000" stroke="#000000" points="302.0288,-134.4943 300.4291,-124.021 295.1484,-133.206 302.0288,-134.4943"/>
<g id="a_edge22&#45;headlabel"><a xlink:href="dir_000014_000009.html" target="_top" xlink:title="4">
<text text-anchor="middle" x="304.1582" y="-136.05" font-family="Helvetica,sans-Serif" font-size="10.00" fill="#000000">4</text>
</a>
</g>
</g>
<!-- dir_35ffb1505af3943bdf99903da87524fe&#45;&gt;dir_e4cd57caa88bf1f4e1bf9521bc47c3c0 -->
<g id="edge21" class="edge">
<title>dir_35ffb1505af3943bdf99903da87524fe&#45;&gt;dir_e4cd57caa88bf1f4e1bf9521bc47c3c0</title>
<path fill="none" stroke="#000000" d="M303.9387,-237.7862C270.5342,-225.0606 218.2889,-205.1577 183.366,-191.8537"/>
<polygon fill="#000000" stroke="#000000" points="184.5962,-188.5771 174.0053,-188.2877 182.1042,-195.1185 184.5962,-188.5771"/>
<g id="a_edge21&#45;headlabel"><a xlink:href="dir_000014_000005.html" target="_top" xlink:title="4">
<text text-anchor="middle" x="188.9661" y="-184.7034" font-family="Helvetica,sans-Serif" font-size="10.00" fill="#000000">4</text>
</a>
</g>
</g>
<!-- dir_3d3615e9a999cab4f3407307569d6ced&#45;&gt;dir_ebb19deee3cd40f4ac122fef25c04ca8 -->
<g id="edge44" class="edge">
<title>dir_3d3615e9a999cab4f3407307569d6ced&#45;&gt;dir_ebb19deee3cd40f4ac122fef25c04ca8</title>
<path fill="none" stroke="#000000" d="M299.0476,-87.8314C298.2972,-80.131 298.0763,-70.9743 298.3849,-62.4166"/>
<polygon fill="#000000" stroke="#000000" points="301.8792,-62.6161 299.024,-52.4133 294.8935,-62.1697 301.8792,-62.6161"/>
<g id="a_edge44&#45;headlabel"><a xlink:href="dir_000009_000006.html" target="_top" xlink:title="1">
<text text-anchor="middle" x="304.4836" y="-63.8844" font-family="Helvetica,sans-Serif" font-size="10.00" fill="#000000">1</text>
</a>
</g>
</g>
<!-- dir_63a0b6c750cdf58b4c6ba486311e48e1 -->
<g id="node5" class="node">
<title>dir_63a0b6c750cdf58b4c6ba486311e48e1</title>
<g id="a_node5"><a xlink:href="dir_63a0b6c750cdf58b4c6ba486311e48e1.html" target="_top" xlink:title="derive">
<polygon fill="#ffffff" stroke="#000000" points="528,-196 474,-196 474,-160 528,-160 528,-196"/>
<text text-anchor="middle" x="501" y="-175.5" font-family="Helvetica,sans-Serif" font-size="10.00" fill="#000000">derive</text>
</a>
</g>
</g>
<!-- dir_63a0b6c750cdf58b4c6ba486311e48e1&#45;&gt;dir_3d3615e9a999cab4f3407307569d6ced -->
<g id="edge30" class="edge">
<title>dir_63a0b6c750cdf58b4c6ba486311e48e1&#45;&gt;dir_3d3615e9a999cab4f3407307569d6ced</title>
<path fill="none" stroke="#000000" d="M473.778,-165.6932C469.2036,-163.7277 464.4858,-161.7629 460,-160 420.0346,-144.2933 373.4128,-128.367 341.8188,-117.9219"/>
<polygon fill="#000000" stroke="#000000" points="342.7095,-114.5305 332.1166,-114.7305 340.5222,-121.18 342.7095,-114.5305"/>
<g id="a_edge30&#45;headlabel"><a xlink:href="dir_000010_000009.html" target="_top" xlink:title="6">
<text text-anchor="middle" x="347.0113" y="-110.4565" font-family="Helvetica,sans-Serif" font-size="10.00" fill="#000000">6</text>
</a>
</g>
</g>
<!-- dir_a816a247b59c90f95e41afe29b966a18&#45;&gt;dir_3d3615e9a999cab4f3407307569d6ced -->
<g id="edge36" class="edge">
<title>dir_a816a247b59c90f95e41afe29b966a18&#45;&gt;dir_3d3615e9a999cab4f3407307569d6ced</title>
<path fill="none" stroke="#000000" d="M255.6546,-159.8314C263.4114,-151.3694 272.7802,-141.1489 281.261,-131.8971"/>
<polygon fill="#000000" stroke="#000000" points="283.9439,-134.1499 288.1212,-124.4133 278.7838,-129.4198 283.9439,-134.1499"/>
<g id="a_edge36&#45;headlabel"><a xlink:href="dir_000013_000009.html" target="_top" xlink:title="1">
<text text-anchor="middle" x="283.608" y="-136.2182" font-family="Helvetica,sans-Serif" font-size="10.00" fill="#000000">1</text>
</a>
</g>
</g>
<!-- dir_4bb30ed846ea1df1fc4d16874a455d91&#45;&gt;dir_ebb19deee3cd40f4ac122fef25c04ca8 -->
<g id="edge40" class="edge">
<title>dir_4bb30ed846ea1df1fc4d16874a455d91&#45;&gt;dir_ebb19deee3cd40f4ac122fef25c04ca8</title>
<path fill="none" stroke="#000000" d="M428.371,-311.8129C469.5599,-302.0414 524.0666,-286.1254 537,-268 564.8804,-228.9272 561.5397,-201.2529 537,-160 500.6918,-98.9635 423.3444,-65.6541 367.9379,-48.8677"/>
<polygon fill="#000000" stroke="#000000" points="368.7892,-45.4701 358.2087,-46.0203 366.823,-52.1883 368.7892,-45.4701"/>
<g id="a_edge40&#45;headlabel"><a xlink:href="dir_000002_000006.html" target="_top" xlink:title="1">
<text text-anchor="middle" x="373.0366" y="-41.2547" font-family="Helvetica,sans-Serif" font-size="10.00" fill="#000000">1</text>
</a>
</g>
</g>
<!-- dir_4bb30ed846ea1df1fc4d16874a455d91&#45;&gt;dir_35ffb1505af3943bdf99903da87524fe -->
<g id="edge38" class="edge">
<title>dir_4bb30ed846ea1df1fc4d16874a455d91&#45;&gt;dir_35ffb1505af3943bdf99903da87524fe</title>
<path fill="none" stroke="#000000" d="M368.8969,-303.8314C363.9326,-295.7079 357.9778,-285.9637 352.5072,-277.0118"/>
<polygon fill="#000000" stroke="#000000" points="355.4536,-275.121 347.2526,-268.4133 349.4806,-278.7712 355.4536,-275.121"/>
<g id="a_edge38&#45;headlabel"><a xlink:href="dir_000002_000014.html" target="_top" xlink:title="3">
<text text-anchor="middle" x="359.7507" y="-274.2077" font-family="Helvetica,sans-Serif" font-size="10.00" fill="#000000">3</text>
</a>
</g>
</g>
<!-- dir_4bb30ed846ea1df1fc4d16874a455d91&#45;&gt;dir_3d3615e9a999cab4f3407307569d6ced -->
<g id="edge43" class="edge">
<title>dir_4bb30ed846ea1df1fc4d16874a455d91&#45;&gt;dir_3d3615e9a999cab4f3407307569d6ced</title>
<path fill="none" stroke="#000000" d="M391.6093,-303.6713C402.1844,-284.4053 414.1661,-253.9091 400,-232 378.8297,-199.2583 343.7987,-226.884 320,-196 306.5392,-178.5317 303.2828,-153.4458 303.113,-134.1937"/>
<polygon fill="#000000" stroke="#000000" points="306.6126,-134.2444 303.2911,-124.1837 299.6137,-134.1199 306.6126,-134.2444"/>
<g id="a_edge43&#45;headlabel"><a xlink:href="dir_000002_000009.html" target="_top" xlink:title="43">
<text text-anchor="middle" x="309.3876" y="-135.3889" font-family="Helvetica,sans-Serif" font-size="10.00" fill="#000000">43</text>
</a>
</g>
</g>
<!-- dir_4bb30ed846ea1df1fc4d16874a455d91&#45;&gt;dir_a816a247b59c90f95e41afe29b966a18 -->
<g id="edge42" class="edge">
<title>dir_4bb30ed846ea1df1fc4d16874a455d91&#45;&gt;dir_a816a247b59c90f95e41afe29b966a18</title>
<path fill="none" stroke="#000000" d="M389.3206,-303.6605C397.807,-284.1044 406.9313,-253.1038 392,-232 388.4834,-227.0296 319.9085,-204.1355 275.7706,-189.7996"/>
<polygon fill="#000000" stroke="#000000" points="276.806,-186.456 266.2141,-186.7052 274.6496,-193.1156 276.806,-186.456"/>
<g id="a_edge42&#45;headlabel"><a xlink:href="dir_000002_000013.html" target="_top" xlink:title="1">
<text text-anchor="middle" x="281.1004" y="-182.3621" font-family="Helvetica,sans-Serif" font-size="10.00" fill="#000000">1</text>
</a>
</g>
</g>
<!-- dir_4bb30ed846ea1df1fc4d16874a455d91&#45;&gt;dir_9ff815a534beac751fa88e427dbab695 -->
<g id="edge37" class="edge">
<title>dir_4bb30ed846ea1df1fc4d16874a455d91&#45;&gt;dir_9ff815a534beac751fa88e427dbab695</title>
<path fill="none" stroke="#000000" d="M409.524,-303.8314C424.4891,-294.6221 442.8386,-283.3301 458.8603,-273.4706"/>
<polygon fill="#000000" stroke="#000000" points="460.8032,-276.3847 467.4854,-268.1628 457.1345,-270.423 460.8032,-276.3847"/>
<g id="a_edge37&#45;headlabel"><a xlink:href="dir_000002_000018.html" target="_top" xlink:title="1">
<text text-anchor="middle" x="459.2298" y="-278.1866" font-family="Helvetica,sans-Serif" font-size="10.00" fill="#000000">1</text>
</a>
</g>
</g>
<!-- dir_4bb30ed846ea1df1fc4d16874a455d91&#45;&gt;dir_e4cd57caa88bf1f4e1bf9521bc47c3c0 -->
<g id="edge41" class="edge">
<title>dir_4bb30ed846ea1df1fc4d16874a455d91&#45;&gt;dir_e4cd57caa88bf1f4e1bf9521bc47c3c0</title>
<path fill="none" stroke="#000000" d="M385.3478,-303.8099C390.0174,-283.7982 393.7197,-251.8483 377,-232 326.1224,-171.6021 279.3673,-216.1117 203,-196 196.7785,-194.3615 190.2277,-192.4394 183.8864,-190.4724"/>
<polygon fill="#000000" stroke="#000000" points="184.762,-187.0781 174.1714,-187.3789 182.638,-193.7481 184.762,-187.0781"/>
<g id="a_edge41&#45;headlabel"><a xlink:href="dir_000002_000005.html" target="_top" xlink:title="9">
<text text-anchor="middle" x="189.0486" y="-182.9633" font-family="Helvetica,sans-Serif" font-size="10.00" fill="#000000">9</text>
</a>
</g>
</g>
<!-- dir_4bb30ed846ea1df1fc4d16874a455d91&#45;&gt;dir_0c368f76a33d967d5b838b5681461de6 -->
<g id="edge39" class="edge">
<title>dir_4bb30ed846ea1df1fc4d16874a455d91&#45;&gt;dir_0c368f76a33d967d5b838b5681461de6</title>
<path fill="none" stroke="#000000" d="M336.1963,-303.8314C315.555,-294.3663 291.1303,-282.7012 270.873,-272.6524"/>
<polygon fill="#000000" stroke="#000000" points="272.3973,-269.5015 261.8874,-268.1628 269.2686,-275.7634 272.3973,-269.5015"/>
<g id="a_edge39&#45;headlabel"><a xlink:href="dir_000002_000001.html" target="_top" xlink:title="1">
<text text-anchor="middle" x="276.8819" y="-266.0682" font-family="Helvetica,sans-Serif" font-size="10.00" fill="#000000">1</text>
</a>
</g>
</g>
<!-- dir_2635c1cadbb62984b11c32cfeb0f45eb -->
<g id="node8" class="node">
<title>dir_2635c1cadbb62984b11c32cfeb0f45eb</title>
<g id="a_node8"><a xlink:href="dir_2635c1cadbb62984b11c32cfeb0f45eb.html" target="_top" xlink:title="mms">
<polygon fill="#ffffff" stroke="#000000" points="406,-412 352,-412 352,-376 406,-376 406,-412"/>
<text text-anchor="middle" x="379" y="-391.5" font-family="Helvetica,sans-Serif" font-size="10.00" fill="#000000">mms</text>
</a>
</g>
</g>
<!-- dir_2635c1cadbb62984b11c32cfeb0f45eb&#45;&gt;dir_3d3615e9a999cab4f3407307569d6ced -->
<g id="edge24" class="edge">
<title>dir_2635c1cadbb62984b11c32cfeb0f45eb&#45;&gt;dir_3d3615e9a999cab4f3407307569d6ced</title>
<path fill="none" stroke="#000000" d="M406.047,-376.5819C417.9085,-367.3071 430.5755,-354.7593 437,-340 443.3858,-325.3296 440.0445,-319.7077 437,-304 430.4356,-270.1321 431.459,-257.2943 408,-232 383.4007,-205.4761 358.777,-223.2634 335,-196 326.7858,-186.5813 317.7679,-156.702 311.7858,-133.9302"/>
<polygon fill="#000000" stroke="#000000" points="315.1321,-132.8885 309.2647,-124.0667 308.3502,-134.622 315.1321,-132.8885"/>
<g id="a_edge24&#45;headlabel"><a xlink:href="dir_000020_000009.html" target="_top" xlink:title="3">
<text text-anchor="middle" x="318.7731" y="-133.168" font-family="Helvetica,sans-Serif" font-size="10.00" fill="#000000">3</text>
</a>
</g>
</g>
<!-- dir_2635c1cadbb62984b11c32cfeb0f45eb&#45;&gt;dir_4bb30ed846ea1df1fc4d16874a455d91 -->
<g id="edge23" class="edge">
<title>dir_2635c1cadbb62984b11c32cfeb0f45eb&#45;&gt;dir_4bb30ed846ea1df1fc4d16874a455d91</title>
<path fill="none" stroke="#000000" d="M379.2523,-375.8314C379.3593,-368.131 379.4865,-358.9743 379.6053,-350.4166"/>
<polygon fill="#000000" stroke="#000000" points="383.1049,-350.4609 379.7443,-340.4133 376.1056,-350.3637 383.1049,-350.4609"/>
<g id="a_edge23&#45;headlabel"><a xlink:href="dir_000020_000002.html" target="_top" xlink:title="1">
<text text-anchor="middle" x="385.8941" y="-351.5946" font-family="Helvetica,sans-Serif" font-size="10.00" fill="#000000">1</text>
</a>
</g>
</g>
<!-- dir_629222d9fcf2f4ceefae477297f2ec84&#45;&gt;dir_3d3615e9a999cab4f3407307569d6ced -->
<g id="edge20" class="edge">
<title>dir_629222d9fcf2f4ceefae477297f2ec84&#45;&gt;dir_3d3615e9a999cab4f3407307569d6ced</title>
<path fill="none" stroke="#000000" d="M468.4071,-375.9861C506.8096,-334.0544 591.23,-228.3021 537,-160 513.1057,-129.9053 401.6403,-115.047 342.3395,-109.1633"/>
<polygon fill="#000000" stroke="#000000" points="342.5401,-105.6666 332.2524,-108.1992 341.874,-112.6349 342.5401,-105.6666"/>
<g id="a_edge20&#45;headlabel"><a xlink:href="dir_000022_000009.html" target="_top" xlink:title="2">
<text text-anchor="middle" x="346.3885" y="-100.6822" font-family="Helvetica,sans-Serif" font-size="10.00" fill="#000000">2</text>
</a>
</g>
</g>
<!-- dir_629222d9fcf2f4ceefae477297f2ec84&#45;&gt;dir_4bb30ed846ea1df1fc4d16874a455d91 -->
<g id="edge19" class="edge">
<title>dir_629222d9fcf2f4ceefae477297f2ec84&#45;&gt;dir_4bb30ed846ea1df1fc4d16874a455d91</title>
<path fill="none" stroke="#000000" d="M433.0837,-375.8314C424.6558,-367.2848 414.459,-356.9443 405.264,-347.6198"/>
<polygon fill="#000000" stroke="#000000" points="407.6711,-345.0761 398.1575,-340.4133 402.6869,-349.9912 407.6711,-345.0761"/>
<g id="a_edge19&#45;headlabel"><a xlink:href="dir_000022_000002.html" target="_top" xlink:title="1">
<text text-anchor="middle" x="412.2167" y="-343.142" font-family="Helvetica,sans-Serif" font-size="10.00" fill="#000000">1</text>
</a>
</g>
</g>
<!-- dir_f2c65bfcbdc19ebacbfc0bbbfb0d01b6 -->
<g id="node10" class="node">
<title>dir_f2c65bfcbdc19ebacbfc0bbbfb0d01b6</title>
<g id="a_node10"><a xlink:href="dir_f2c65bfcbdc19ebacbfc0bbbfb0d01b6.html" target="_top" xlink:title="physics">
<polygon fill="#ffffff" stroke="#000000" points="228,-340 174,-340 174,-304 228,-304 228,-340"/>
<text text-anchor="middle" x="201" y="-319.5" font-family="Helvetica,sans-Serif" font-size="10.00" fill="#000000">physics</text>
</a>
</g>
</g>
<!-- dir_f2c65bfcbdc19ebacbfc0bbbfb0d01b6&#45;&gt;dir_3d3615e9a999cab4f3407307569d6ced -->
<g id="edge18" class="edge">
<title>dir_f2c65bfcbdc19ebacbfc0bbbfb0d01b6&#45;&gt;dir_3d3615e9a999cab4f3407307569d6ced</title>
<path fill="none" stroke="#000000" d="M173.9582,-314.2972C132.0753,-302.0997 55.5245,-278.6352 48,-268 38.7588,-254.9386 44.0693,-247.5097 48,-232 56.9407,-196.7224 58.2186,-182.2727 87,-160 115.0276,-138.3106 213.1738,-120.1956 267.7244,-111.5152"/>
<polygon fill="#000000" stroke="#000000" points="268.3586,-114.9587 277.6979,-109.956 267.2773,-108.0427 268.3586,-114.9587"/>
<g id="a_edge18&#45;headlabel"><a xlink:href="dir_000007_000009.html" target="_top" xlink:title="10">
<text text-anchor="middle" x="265.2456" y="-115.819" font-family="Helvetica,sans-Serif" font-size="10.00" fill="#000000">10</text>
</a>
</g>
</g>
<!-- dir_f2c65bfcbdc19ebacbfc0bbbfb0d01b6&#45;&gt;dir_e4cd57caa88bf1f4e1bf9521bc47c3c0 -->
<g id="edge17" class="edge">
<title>dir_f2c65bfcbdc19ebacbfc0bbbfb0d01b6&#45;&gt;dir_e4cd57caa88bf1f4e1bf9521bc47c3c0</title>
<path fill="none" stroke="#000000" d="M194.1609,-303.7623C184.8692,-278.9846 168.1768,-234.4714 157.3477,-205.5939"/>
<polygon fill="#000000" stroke="#000000" points="160.5721,-204.224 153.7836,-196.0896 154.0178,-206.6819 160.5721,-204.224"/>
<g id="a_edge17&#45;headlabel"><a xlink:href="dir_000007_000005.html" target="_top" xlink:title="3">
<text text-anchor="middle" x="164.4926" y="-204.0928" font-family="Helvetica,sans-Serif" font-size="10.00" fill="#000000">3</text>
</a>
</g>
</g>
<!-- dir_f2c65bfcbdc19ebacbfc0bbbfb0d01b6&#45;&gt;dir_0c368f76a33d967d5b838b5681461de6 -->
<g id="edge16" class="edge">
<title>dir_f2c65bfcbdc19ebacbfc0bbbfb0d01b6&#45;&gt;dir_0c368f76a33d967d5b838b5681461de6</title>
<path fill="none" stroke="#000000" d="M208.3179,-303.8314C211.4876,-295.9617 215.27,-286.5712 218.7813,-277.8533"/>
<polygon fill="#000000" stroke="#000000" points="222.0939,-278.9968 222.5835,-268.4133 215.6008,-276.3815 222.0939,-278.9968"/>
<g id="a_edge16&#45;headlabel"><a xlink:href="dir_000007_000001.html" target="_top" xlink:title="1">
<text text-anchor="middle" x="223.3847" y="-280.8919" font-family="Helvetica,sans-Serif" font-size="10.00" fill="#000000">1</text>
</a>
</g>
</g>
<!-- dir_d599e6111b2fbf4fd47cd3a4f2a09da4 -->
<g id="node12" class="node">
<title>dir_d599e6111b2fbf4fd47cd3a4f2a09da4</title>
<g id="a_node12"><a xlink:href="dir_d599e6111b2fbf4fd47cd3a4f2a09da4.html" target="_top" xlink:title="projection">
<polygon fill="#ffffff" stroke="#000000" points="115.5,-268 56.5,-268 56.5,-232 115.5,-232 115.5,-268"/>
<text text-anchor="middle" x="86" y="-247.5" font-family="Helvetica,sans-Serif" font-size="10.00" fill="#000000">projection</text>
</a>
</g>
</g>
<!-- dir_d599e6111b2fbf4fd47cd3a4f2a09da4&#45;&gt;dir_3d3615e9a999cab4f3407307569d6ced -->
<g id="edge6" class="edge">
<title>dir_d599e6111b2fbf4fd47cd3a4f2a09da4&#45;&gt;dir_3d3615e9a999cab4f3407307569d6ced</title>
<path fill="none" stroke="#000000" d="M86.0222,-231.8754C87.0497,-211.6183 91.8554,-179.1548 111,-160 132.9197,-138.0686 217.6049,-120.6037 267.551,-111.9452"/>
<polygon fill="#000000" stroke="#000000" points="268.3727,-115.3559 277.6466,-110.2328 267.2021,-108.4545 268.3727,-115.3559"/>
<g id="a_edge6&#45;headlabel"><a xlink:href="dir_000015_000009.html" target="_top" xlink:title="1">
<text text-anchor="middle" x="265.3035" y="-116.2562" font-family="Helvetica,sans-Serif" font-size="10.00" fill="#000000">1</text>
</a>
</g>
</g>
<!-- dir_d599e6111b2fbf4fd47cd3a4f2a09da4&#45;&gt;dir_e4cd57caa88bf1f4e1bf9521bc47c3c0 -->
<g id="edge5" class="edge">
<title>dir_d599e6111b2fbf4fd47cd3a4f2a09da4&#45;&gt;dir_e4cd57caa88bf1f4e1bf9521bc47c3c0</title>
<path fill="none" stroke="#000000" d="M101.3929,-231.8314C108.4904,-223.454 117.048,-213.3531 124.824,-204.1749"/>
<polygon fill="#000000" stroke="#000000" points="127.6061,-206.3056 131.3999,-196.4133 122.2652,-201.7807 127.6061,-206.3056"/>
<g id="a_edge5&#45;headlabel"><a xlink:href="dir_000015_000005.html" target="_top" xlink:title="1">
<text text-anchor="middle" x="127.4488" y="-208.3836" font-family="Helvetica,sans-Serif" font-size="10.00" fill="#000000">1</text>
</a>
</g>
</g>
<!-- dir_073a3c37bc9e3eb3e412aa8cf4eda4c3 -->
<g id="node13" class="node">
<title>dir_073a3c37bc9e3eb3e412aa8cf4eda4c3</title>
<g id="a_node13"><a xlink:href="dir_073a3c37bc9e3eb3e412aa8cf4eda4c3.html" target="_top" xlink:title="setup">
<polygon fill="#ffffff" stroke="#000000" points="182,-412 128,-412 128,-376 182,-376 182,-412"/>
<text text-anchor="middle" x="155" y="-391.5" font-family="Helvetica,sans-Serif" font-size="10.00" fill="#000000">setup</text>
</a>
</g>
</g>
<!-- dir_073a3c37bc9e3eb3e412aa8cf4eda4c3&#45;&gt;dir_3d3615e9a999cab4f3407307569d6ced -->
<g id="edge35" class="edge">
<title>dir_073a3c37bc9e3eb3e412aa8cf4eda4c3&#45;&gt;dir_3d3615e9a999cab4f3407307569d6ced</title>
<path fill="none" stroke="#000000" d="M129.4866,-375.871C101.178,-354.02 57.105,-314.3965 39,-268 21.3833,-222.8547 19.8449,-194.3784 54,-160 83.5489,-130.258 205.2056,-115.0679 267.6466,-109.1034"/>
<polygon fill="#000000" stroke="#000000" points="268.2241,-112.565 277.8596,-108.1598 267.58,-105.5947 268.2241,-112.565"/>
<g id="a_edge35&#45;headlabel"><a xlink:href="dir_000017_000009.html" target="_top" xlink:title="1">
<text text-anchor="middle" x="264.9059" y="-113.2229" font-family="Helvetica,sans-Serif" font-size="10.00" fill="#000000">1</text>
</a>
</g>
</g>
<!-- dir_073a3c37bc9e3eb3e412aa8cf4eda4c3&#45;&gt;dir_f2c65bfcbdc19ebacbfc0bbbfb0d01b6 -->
<g id="edge32" class="edge">
<title>dir_073a3c37bc9e3eb3e412aa8cf4eda4c3&#45;&gt;dir_f2c65bfcbdc19ebacbfc0bbbfb0d01b6</title>
<path fill="none" stroke="#000000" d="M166.6077,-375.8314C171.7978,-367.7079 178.0232,-357.9637 183.7425,-349.0118"/>
<polygon fill="#000000" stroke="#000000" points="186.8015,-350.7246 189.236,-340.4133 180.9026,-346.9559 186.8015,-350.7246"/>
<g id="a_edge32&#45;headlabel"><a xlink:href="dir_000017_000007.html" target="_top" xlink:title="1">
<text text-anchor="middle" x="187.2589" y="-352.7824" font-family="Helvetica,sans-Serif" font-size="10.00" fill="#000000">1</text>
</a>
</g>
</g>
<!-- dir_073a3c37bc9e3eb3e412aa8cf4eda4c3&#45;&gt;dir_e4cd57caa88bf1f4e1bf9521bc47c3c0 -->
<g id="edge34" class="edge">
<title>dir_073a3c37bc9e3eb3e412aa8cf4eda4c3&#45;&gt;dir_e4cd57caa88bf1f4e1bf9521bc47c3c0</title>
<path fill="none" stroke="#000000" d="M154.3317,-375.9555C152.9405,-338.3938 149.7242,-251.5541 148.0522,-206.4103"/>
<polygon fill="#000000" stroke="#000000" points="151.5399,-206.0086 147.672,-196.1451 144.5446,-206.2678 151.5399,-206.0086"/>
<g id="a_edge34&#45;headlabel"><a xlink:href="dir_000017_000005.html" target="_top" xlink:title="2">
<text text-anchor="middle" x="154.5101" y="-206.9957" font-family="Helvetica,sans-Serif" font-size="10.00" fill="#000000">2</text>
</a>
</g>
</g>
<!-- dir_073a3c37bc9e3eb3e412aa8cf4eda4c3&#45;&gt;dir_0c368f76a33d967d5b838b5681461de6 -->
<g id="edge33" class="edge">
<title>dir_073a3c37bc9e3eb3e412aa8cf4eda4c3&#45;&gt;dir_0c368f76a33d967d5b838b5681461de6</title>
<path fill="none" stroke="#000000" d="M182.4147,-379.6811C203.8256,-367.8596 230.9358,-351.2545 237,-340 247.2241,-321.0251 244.4425,-296.4624 239.6784,-277.7923"/>
<polygon fill="#000000" stroke="#000000" points="243.0196,-276.7464 236.8978,-268.0992 236.291,-278.6766 243.0196,-276.7464"/>
<g id="a_edge33&#45;headlabel"><a xlink:href="dir_000017_000001.html" target="_top" xlink:title="1">
<text text-anchor="middle" x="246.74" y="-276.9187" font-family="Helvetica,sans-Serif" font-size="10.00" fill="#000000">1</text>
</a>
</g>
</g>
<!-- dir_7b7e55eaa727ae9c717abfc097345a8f -->
<g id="node14" class="node">
<title>dir_7b7e55eaa727ae9c717abfc097345a8f</title>
<g id="a_node14"><a xlink:href="dir_7b7e55eaa727ae9c717abfc097345a8f.html" target="_top" xlink:title="transport_models">
<polygon fill="#ffffff" stroke="#000000" points="436,-196 344,-196 344,-160 436,-160 436,-196"/>
<text text-anchor="middle" x="390" y="-175.5" font-family="Helvetica,sans-Serif" font-size="10.00" fill="#000000">transport_models</text>
</a>
</g>
</g>
<!-- dir_7b7e55eaa727ae9c717abfc097345a8f&#45;&gt;dir_3d3615e9a999cab4f3407307569d6ced -->
<g id="edge45" class="edge">
<title>dir_7b7e55eaa727ae9c717abfc097345a8f&#45;&gt;dir_3d3615e9a999cab4f3407307569d6ced</title>
<path fill="none" stroke="#000000" d="M368.5509,-159.8314C358.1822,-151.0485 345.5771,-140.3712 334.3354,-130.8489"/>
<polygon fill="#000000" stroke="#000000" points="336.3349,-127.9556 326.4422,-124.1628 331.8105,-133.297 336.3349,-127.9556"/>
<g id="a_edge45&#45;headlabel"><a xlink:href="dir_000011_000009.html" target="_top" xlink:title="2">
<text text-anchor="middle" x="340.9129" y="-125.6125" font-family="Helvetica,sans-Serif" font-size="10.00" fill="#000000">2</text>
</a>
</g>
</g>
<!-- dir_9ff815a534beac751fa88e427dbab695&#45;&gt;dir_3d3615e9a999cab4f3407307569d6ced -->
<g id="edge3" class="edge">
<title>dir_9ff815a534beac751fa88e427dbab695&#45;&gt;dir_3d3615e9a999cab4f3407307569d6ced</title>
<path fill="none" stroke="#000000" d="M485.9126,-231.5802C479.6935,-221.1763 471.8348,-207.9088 465,-196 455.8891,-180.1254 458.8098,-172.0126 445,-160 415.5094,-134.3472 372.4969,-120.215 341.9426,-112.911"/>
<polygon fill="#000000" stroke="#000000" points="342.6211,-109.4761 332.0959,-110.689 341.0801,-116.3044 342.6211,-109.4761"/>
<g id="a_edge3&#45;headlabel"><a xlink:href="dir_000018_000009.html" target="_top" xlink:title="5">
<text text-anchor="middle" x="346.7525" y="-104.9977" font-family="Helvetica,sans-Serif" font-size="10.00" fill="#000000">5</text>
</a>
</g>
</g>
<!-- dir_9ff815a534beac751fa88e427dbab695&#45;&gt;dir_63a0b6c750cdf58b4c6ba486311e48e1 -->
<g id="edge1" class="edge">
<title>dir_9ff815a534beac751fa88e427dbab695&#45;&gt;dir_63a0b6c750cdf58b4c6ba486311e48e1</title>
<path fill="none" stroke="#000000" d="M498.0094,-231.8314C498.4372,-224.131 498.9459,-214.9743 499.4213,-206.4166"/>
<polygon fill="#000000" stroke="#000000" points="502.9169,-206.592 499.977,-196.4133 495.9276,-206.2037 502.9169,-206.592"/>
<g id="a_edge1&#45;headlabel"><a xlink:href="dir_000018_000010.html" target="_top" xlink:title="1">
<text text-anchor="middle" x="505.5525" y="-207.8386" font-family="Helvetica,sans-Serif" font-size="10.00" fill="#000000">1</text>
</a>
</g>
</g>
<!-- dir_9ff815a534beac751fa88e427dbab695&#45;&gt;dir_7b7e55eaa727ae9c717abfc097345a8f -->
<g id="edge4" class="edge">
<title>dir_9ff815a534beac751fa88e427dbab695&#45;&gt;dir_7b7e55eaa727ae9c717abfc097345a8f</title>
<path fill="none" stroke="#000000" d="M469.9994,-231.8314C456.5669,-222.7927 440.1527,-211.7476 425.6961,-202.0198"/>
<polygon fill="#000000" stroke="#000000" points="427.2425,-198.8418 416.992,-196.1628 423.3346,-204.6494 427.2425,-198.8418"/>
<g id="a_edge4&#45;headlabel"><a xlink:href="dir_000018_000011.html" target="_top" xlink:title="2">
<text text-anchor="middle" x="431.8099" y="-195.9929" font-family="Helvetica,sans-Serif" font-size="10.00" fill="#000000">2</text>
</a>
</g>
</g>
<!-- dir_9ff815a534beac751fa88e427dbab695&#45;&gt;dir_e4cd57caa88bf1f4e1bf9521bc47c3c0 -->
<g id="edge2" class="edge">
<title>dir_9ff815a534beac751fa88e427dbab695&#45;&gt;dir_e4cd57caa88bf1f4e1bf9521bc47c3c0</title>
<path fill="none" stroke="#000000" d="M465.8845,-244.5203C395.5244,-232.0955 228.3218,-202.3666 203,-196 196.7606,-194.4312 190.2006,-192.5445 183.8558,-190.5912"/>
<polygon fill="#000000" stroke="#000000" points="184.7298,-187.1965 174.1394,-187.5033 182.6096,-193.8678 184.7298,-187.1965"/>
<g id="a_edge2&#45;headlabel"><a xlink:href="dir_000018_000005.html" target="_top" xlink:title="1">
<text text-anchor="middle" x="189.0155" y="-183.0793" font-family="Helvetica,sans-Serif" font-size="10.00" fill="#000000">1</text>
</a>
</g>
</g>
<!-- dir_e4cd57caa88bf1f4e1bf9521bc47c3c0&#45;&gt;dir_3d3615e9a999cab4f3407307569d6ced -->
<g id="edge31" class="edge">
<title>dir_e4cd57caa88bf1f4e1bf9521bc47c3c0&#45;&gt;dir_3d3615e9a999cab4f3407307569d6ced</title>
<path fill="none" stroke="#000000" d="M174.1612,-165.6228C200.2412,-153.7382 239.8162,-135.704 268.6121,-122.5818"/>
<polygon fill="#000000" stroke="#000000" points="270.281,-125.6677 277.9293,-118.336 267.3783,-119.2979 270.281,-125.6677"/>
<g id="a_edge31&#45;headlabel"><a xlink:href="dir_000005_000009.html" target="_top" xlink:title="8">
<text text-anchor="middle" x="268.1873" y="-127.2418" font-family="Helvetica,sans-Serif" font-size="10.00" fill="#000000">8</text>
</a>
</g>
</g>
<!-- dir_0c368f76a33d967d5b838b5681461de6&#45;&gt;dir_3d3615e9a999cab4f3407307569d6ced -->
<g id="edge27" class="edge">
<title>dir_0c368f76a33d967d5b838b5681461de6&#45;&gt;dir_3d3615e9a999cab4f3407307569d6ced</title>
<path fill="none" stroke="#000000" d="M216.2388,-231.6655C203.8018,-212.667 189.3688,-182.6402 203,-160 217.1075,-136.5688 245.1698,-122.7723 268.2946,-114.9976"/>
<polygon fill="#000000" stroke="#000000" points="269.3401,-118.3379 277.8479,-112.0237 267.2595,-111.6542 269.3401,-118.3379"/>
<g id="a_edge27&#45;headlabel"><a xlink:href="dir_000001_000009.html" target="_top" xlink:title="4">
<text text-anchor="middle" x="266.7518" y="-119.6172" font-family="Helvetica,sans-Serif" font-size="10.00" fill="#000000">4</text>
</a>
</g>
</g>
<!-- dir_0c368f76a33d967d5b838b5681461de6&#45;&gt;dir_a816a247b59c90f95e41afe29b966a18 -->
<g id="edge26" class="edge">
<title>dir_0c368f76a33d967d5b838b5681461de6&#45;&gt;dir_a816a247b59c90f95e41afe29b966a18</title>
<path fill="none" stroke="#000000" d="M232.2711,-231.8314C233.2336,-224.131 234.3782,-214.9743 235.4479,-206.4166"/>
<polygon fill="#000000" stroke="#000000" points="238.9309,-206.7702 236.6983,-196.4133 231.9849,-205.9019 238.9309,-206.7702"/>
<g id="a_edge26&#45;headlabel"><a xlink:href="dir_000001_000013.html" target="_top" xlink:title="1">
<text text-anchor="middle" x="241.3025" y="-208.1892" font-family="Helvetica,sans-Serif" font-size="10.00" fill="#000000">1</text>
</a>
</g>
</g>
<!-- dir_0c368f76a33d967d5b838b5681461de6&#45;&gt;dir_4bb30ed846ea1df1fc4d16874a455d91 -->
<g id="edge28" class="edge">
<title>dir_0c368f76a33d967d5b838b5681461de6&#45;&gt;dir_4bb30ed846ea1df1fc4d16874a455d91</title>
<path fill="none" stroke="#000000" d="M265.5743,-264.4215C287.6295,-274.3873 315.9411,-287.8493 338.9316,-299.2507"/>
<polygon fill="#000000" stroke="#000000" points="337.591,-302.4934 348.1011,-303.8314 340.7193,-296.2313 337.591,-302.4934"/>
<g id="a_edge28&#45;headlabel"><a xlink:href="dir_000001_000002.html" target="_top" xlink:title="1">
<text text-anchor="middle" x="333.1065" y="-300.927" font-family="Helvetica,sans-Serif" font-size="10.00" fill="#000000">1</text>
</a>
</g>
</g>
<!-- dir_0c368f76a33d967d5b838b5681461de6&#45;&gt;dir_e4cd57caa88bf1f4e1bf9521bc47c3c0 -->
<g id="edge25" class="edge">
<title>dir_0c368f76a33d967d5b838b5681461de6&#45;&gt;dir_e4cd57caa88bf1f4e1bf9521bc47c3c0</title>
<path fill="none" stroke="#000000" d="M209.0556,-231.8314C198.9309,-223.0485 186.6223,-212.3712 175.6452,-202.8489"/>
<polygon fill="#000000" stroke="#000000" points="177.7851,-200.0718 167.9377,-196.1628 173.1981,-205.3595 177.7851,-200.0718"/>
<g id="a_edge25&#45;headlabel"><a xlink:href="dir_000001_000005.html" target="_top" xlink:title="7">
<text text-anchor="middle" x="182.3609" y="-197.7825" font-family="Helvetica,sans-Serif" font-size="10.00" fill="#000000">7</text>
</a>
</g>
</g>
</g>
</svg>
