<?xml version="1.0" encoding="UTF-8" standalone="no"?>
<!DOCTYPE svg PUBLIC "-//W3C//DTD SVG 1.1//EN"
 "http://www.w3.org/Graphics/SVG/1.1/DTD/svg11.dtd">
<!-- Generated by graphviz version 2.40.1 (20161225.0304)
 -->
<!-- Title: equation_systems Pages: 1 -->
<!--zoomable 411 -->
<svg id="main" version="1.1" xmlns="http://www.w3.org/2000/svg" xmlns:xlink="http://www.w3.org/1999/xlink" xml:space="preserve" onload="init(evt)">
<style type="text/css"><![CDATA[
.edge:hover path { stroke: red; }
.edge:hover polygon { stroke: red; fill: red; }
]]></style>
<script type="text/javascript"><![CDATA[
var edges = document.getElementsByTagName('g');
if (edges && edges.length) {
  for (var i=0;i<edges.length;i++) {
    if (edges[i].id.substr(0,4)=='edge') {
      edges[i].setAttribute('class','edge');
    }
  }
}
]]></script>
        <defs>
                <circle id="rim" cx="0" cy="0" r="7"/>
                <circle id="rim2" cx="0" cy="0" r="3.5"/>
                <g id="zoomPlus">
                        <use xlink:href="#rim" fill="#404040">
                                <set attributeName="fill" to="#808080" begin="zoomplus.mouseover" end="zoomplus.mouseout"/>
                        </use>
                        <path d="M-4,0h8M0,-4v8" fill="none" stroke="white" stroke-width="1.5" pointer-events="none"/>
                </g>
                <g id="zoomMin">
                        <use xlink:href="#rim" fill="#404040">
                                <set attributeName="fill" to="#808080" begin="zoomminus.mouseover" end="zoomminus.mouseout"/>
                        </use>
                        <path d="M-4,0h8" fill="none" stroke="white" stroke-width="1.5" pointer-events="none"/>
                </g>
                <g id="dirArrow">
                        <path fill="none" stroke="white" stroke-width="1.5" d="M0,-3.0v7 M-2.5,-0.5L0,-3.0L2.5,-0.5"/>
                </g>
               <g id="resetDef">
                       <use xlink:href="#rim2" fill="#404040">
                               <set attributeName="fill" to="#808080" begin="reset.mouseover" end="reset.mouseout"/>
                       </use>
               </g>
        </defs>

<script type="text/javascript">
var viewWidth = 666;
var viewHeight = 411;
var sectionId = 'dynsection-0';
</script>
<script xlink:href="svgpan.js"/>
<svg id="graph" class="graph">
<g id="viewport">
<title>equation_systems</title>
<polygon fill="#ffffff" stroke="transparent" points="-4,4 -4,-407 662.2379,-407 662.2379,4 -4,4"/>
<g id="clust1" class="cluster">
<title>clusterdir_d85575251dd712327fe3cf057fa568b4</title>
<g id="a_clust1"><a xlink:href="dir_d85575251dd712327fe3cf057fa568b4.html" target="_top" xlink:title="amr&#45;wind">
<polygon fill="#ddddee" stroke="#000000" points="8,-272 8,-359 510,-359 510,-272 8,-272"/>
<text text-anchor="middle" x="259" y="-347" font-family="Helvetica,sans-Serif" font-size="10.00" fill="#000000">amr&#45;wind</text>
</a>
</g>
</g>
<g id="clust2" class="cluster">
<title>clusterdir_4bb30ed846ea1df1fc4d16874a455d91</title>
<g id="a_clust2"><a xlink:href="dir_4bb30ed846ea1df1fc4d16874a455d91.html" target="_top">
<polygon fill="#eeeeff" stroke="#000000" points="16,-280 16,-332 502,-332 502,-280 16,-280"/>
</a>
</g>
</g>
<!-- dir_4bb30ed846ea1df1fc4d16874a455d91 -->
<g id="node1" class="node">
<title>dir_4bb30ed846ea1df1fc4d16874a455d91</title>
<text text-anchor="middle" x="446" y="-303.5" font-family="Helvetica,sans-Serif" font-size="10.00" fill="#000000">equation_systems</text>
</g>
<!-- dir_9ff815a534beac751fa88e427dbab695 -->
<g id="node7" class="node">
<title>dir_9ff815a534beac751fa88e427dbab695</title>
<g id="a_node7"><a xlink:href="dir_9ff815a534beac751fa88e427dbab695.html" target="_top" xlink:title="turbulence">
<polygon fill="#ffffff" stroke="#ff0000" points="460,-252 398,-252 398,-216 460,-216 460,-252"/>
<text text-anchor="middle" x="429" y="-231.5" font-family="Helvetica,sans-Serif" font-size="10.00" fill="#000000">turbulence</text>
</a>
</g>
</g>
<!-- dir_4bb30ed846ea1df1fc4d16874a455d91&#45;&gt;dir_9ff815a534beac751fa88e427dbab695 -->
<g id="edge22" class="edge">
<title>dir_4bb30ed846ea1df1fc4d16874a455d91&#45;&gt;dir_9ff815a534beac751fa88e427dbab695</title>
<path fill="none" stroke="#000000" d="M441.7102,-287.8314C439.892,-280.131 437.7301,-270.9743 435.7095,-262.4166"/>
<polygon fill="#000000" stroke="#000000" points="439.0519,-261.3414 433.3476,-252.4133 432.2392,-262.95 439.0519,-261.3414"/>
<g id="a_edge22&#45;headlabel"><a xlink:href="dir_000002_000018.html" target="_top" xlink:title="1">
<text text-anchor="middle" x="442.6412" y="-261.6874" font-family="Helvetica,sans-Serif" font-size="10.00" fill="#000000">1</text>
</a>
</g>
</g>
<!-- dir_35ffb1505af3943bdf99903da87524fe -->
<g id="node8" class="node">
<title>dir_35ffb1505af3943bdf99903da87524fe</title>
<g id="a_node8"><a xlink:href="dir_35ffb1505af3943bdf99903da87524fe.html" target="_top" xlink:title="convection">
<polygon fill="none" stroke="#000000" points="380,-252 316,-252 316,-216 380,-216 380,-252"/>
<text text-anchor="middle" x="348" y="-231.5" font-family="Helvetica,sans-Serif" font-size="10.00" fill="#000000">convection</text>
</a>
</g>
</g>
<!-- dir_4bb30ed846ea1df1fc4d16874a455d91&#45;&gt;dir_35ffb1505af3943bdf99903da87524fe -->
<g id="edge23" class="edge">
<title>dir_4bb30ed846ea1df1fc4d16874a455d91&#45;&gt;dir_35ffb1505af3943bdf99903da87524fe</title>
<path fill="none" stroke="#000000" d="M421.2705,-287.8314C409.0838,-278.8779 394.2177,-267.9558 381.0688,-258.2955"/>
<polygon fill="#000000" stroke="#000000" points="382.8527,-255.263 372.7216,-252.1628 378.7082,-260.9042 382.8527,-255.263"/>
<g id="a_edge23&#45;headlabel"><a xlink:href="dir_000002_000014.html" target="_top" xlink:title="3">
<text text-anchor="middle" x="387.4306" y="-252.6032" font-family="Helvetica,sans-Serif" font-size="10.00" fill="#000000">3</text>
</a>
</g>
</g>
<!-- dir_ebb19deee3cd40f4ac122fef25c04ca8 -->
<g id="node10" class="node">
<title>dir_ebb19deee3cd40f4ac122fef25c04ca8</title>
<g id="a_node10"><a xlink:href="dir_ebb19deee3cd40f4ac122fef25c04ca8.html" target="_top" xlink:title="boundary_conditions">
<polygon fill="none" stroke="#000000" points="389,-36 283,-36 283,0 389,0 389,-36"/>
<text text-anchor="middle" x="336" y="-15.5" font-family="Helvetica,sans-Serif" font-size="10.00" fill="#000000">boundary_conditions</text>
</a>
</g>
</g>
<!-- dir_4bb30ed846ea1df1fc4d16874a455d91&#45;&gt;dir_ebb19deee3cd40f4ac122fef25c04ca8 -->
<g id="edge24" class="edge">
<title>dir_4bb30ed846ea1df1fc4d16874a455d91&#45;&gt;dir_ebb19deee3cd40f4ac122fef25c04ca8</title>
<path fill="none" stroke="#000000" d="M463.2635,-287.5761C471.2389,-277.7997 479.848,-265.1148 484,-252 498.71,-205.5358 489.5366,-186.1101 465,-144 440.7248,-102.3385 398.9654,-65.1992 369.547,-42.2209"/>
<polygon fill="#000000" stroke="#000000" points="371.6655,-39.4348 361.6015,-36.1233 367.4038,-44.9881 371.6655,-39.4348"/>
<g id="a_edge24&#45;headlabel"><a xlink:href="dir_000002_000006.html" target="_top" xlink:title="1">
<text text-anchor="middle" x="376.2457" y="-36.8708" font-family="Helvetica,sans-Serif" font-size="10.00" fill="#000000">1</text>
</a>
</g>
</g>
<!-- dir_e4cd57caa88bf1f4e1bf9521bc47c3c0 -->
<g id="node11" class="node">
<title>dir_e4cd57caa88bf1f4e1bf9521bc47c3c0</title>
<g id="a_node11"><a xlink:href="dir_e4cd57caa88bf1f4e1bf9521bc47c3c0.html" target="_top" xlink:title="utilities">
<polygon fill="#ffffff" stroke="#ff0000" points="456,-180 402,-180 402,-144 456,-144 456,-180"/>
<text text-anchor="middle" x="429" y="-159.5" font-family="Helvetica,sans-Serif" font-size="10.00" fill="#000000">utilities</text>
</a>
</g>
</g>
<!-- dir_4bb30ed846ea1df1fc4d16874a455d91&#45;&gt;dir_e4cd57caa88bf1f4e1bf9521bc47c3c0 -->
<g id="edge25" class="edge">
<title>dir_4bb30ed846ea1df1fc4d16874a455d91&#45;&gt;dir_e4cd57caa88bf1f4e1bf9521bc47c3c0</title>
<path fill="none" stroke="#000000" d="M456.689,-287.8608C466.0808,-269.5339 477.0869,-240.5035 469,-216 465.7092,-206.0288 459.7884,-196.3944 453.4936,-188.0924"/>
<polygon fill="#000000" stroke="#000000" points="456.172,-185.8384 447.1576,-180.2714 450.7328,-190.2448 456.172,-185.8384"/>
<g id="a_edge25&#45;headlabel"><a xlink:href="dir_000002_000005.html" target="_top" xlink:title="9">
<text text-anchor="middle" x="460.6408" y="-184.3442" font-family="Helvetica,sans-Serif" font-size="10.00" fill="#000000">9</text>
</a>
</g>
</g>
<!-- dir_a816a247b59c90f95e41afe29b966a18 -->
<g id="node12" class="node">
<title>dir_a816a247b59c90f95e41afe29b966a18</title>
<g id="a_node12"><a xlink:href="dir_a816a247b59c90f95e41afe29b966a18.html" target="_top" xlink:title="diffusion">
<polygon fill="none" stroke="#000000" points="608,-252 554,-252 554,-216 608,-216 608,-252"/>
<text text-anchor="middle" x="581" y="-231.5" font-family="Helvetica,sans-Serif" font-size="10.00" fill="#000000">diffusion</text>
</a>
</g>
</g>
<!-- dir_4bb30ed846ea1df1fc4d16874a455d91&#45;&gt;dir_a816a247b59c90f95e41afe29b966a18 -->
<g id="edge26" class="edge">
<title>dir_4bb30ed846ea1df1fc4d16874a455d91&#45;&gt;dir_a816a247b59c90f95e41afe29b966a18</title>
<path fill="none" stroke="#000000" d="M480.0662,-287.8314C499.8453,-277.2825 524.7483,-264.0009 544.8691,-253.2698"/>
<polygon fill="#000000" stroke="#000000" points="546.5652,-256.3319 553.7417,-248.5378 543.2711,-250.1555 546.5652,-256.3319"/>
<g id="a_edge26&#45;headlabel"><a xlink:href="dir_000002_000013.html" target="_top" xlink:title="1">
<text text-anchor="middle" x="544.7296" y="-258.0287" font-family="Helvetica,sans-Serif" font-size="10.00" fill="#000000">1</text>
</a>
</g>
</g>
<!-- dir_70329d5a297148af2b67b1d844b9f654 -->
<g id="node2" class="node">
<title>dir_70329d5a297148af2b67b1d844b9f654</title>
<g id="a_node2"><a xlink:href="dir_70329d5a297148af2b67b1d844b9f654.html" target="_top" xlink:title="density">
<polygon fill="#ffffff" stroke="#000000" points="78,-324 24,-324 24,-288 78,-288 78,-324"/>
<text text-anchor="middle" x="51" y="-303.5" font-family="Helvetica,sans-Serif" font-size="10.00" fill="#000000">density</text>
</a>
</g>
</g>
<!-- dir_3d3615e9a999cab4f3407307569d6ced -->
<g id="node13" class="node">
<title>dir_3d3615e9a999cab4f3407307569d6ced</title>
<g id="a_node13"><a xlink:href="dir_3d3615e9a999cab4f3407307569d6ced.html" target="_top" xlink:title="core">
<polygon fill="none" stroke="#000000" points="363,-108 309,-108 309,-72 363,-72 363,-108"/>
<text text-anchor="middle" x="336" y="-87.5" font-family="Helvetica,sans-Serif" font-size="10.00" fill="#000000">core</text>
</a>
</g>
</g>
<!-- dir_70329d5a297148af2b67b1d844b9f654&#45;&gt;dir_3d3615e9a999cab4f3407307569d6ced -->
<g id="edge3" class="edge">
<title>dir_70329d5a297148af2b67b1d844b9f654&#45;&gt;dir_3d3615e9a999cab4f3407307569d6ced</title>
<path fill="none" stroke="#000000" d="M64.9786,-287.983C90.936,-255.5198 149.6395,-186.627 212,-144 239.0384,-125.5177 273.4248,-111.1448 299.1249,-101.8901"/>
<polygon fill="#000000" stroke="#000000" points="300.583,-105.0879 308.8628,-98.4775 298.2679,-98.4818 300.583,-105.0879"/>
<g id="a_edge3&#45;headlabel"><a xlink:href="dir_000012_000009.html" target="_top" xlink:title="4">
<text text-anchor="middle" x="298.1297" y="-106.4561" font-family="Helvetica,sans-Serif" font-size="10.00" fill="#000000">4</text>
</a>
</g>
</g>
<!-- dir_4012ff34c1bb5bd303e44a1c9cef6c8a -->
<g id="node3" class="node">
<title>dir_4012ff34c1bb5bd303e44a1c9cef6c8a</title>
<g id="a_node3"><a xlink:href="dir_4012ff34c1bb5bd303e44a1c9cef6c8a.html" target="_top" xlink:title="icns">
<polygon fill="#ffffff" stroke="#ff0000" points="380,-324 326,-324 326,-288 380,-288 380,-324"/>
<text text-anchor="middle" x="353" y="-303.5" font-family="Helvetica,sans-Serif" font-size="10.00" fill="#000000">icns</text>
</a>
</g>
</g>
<!-- dir_4012ff34c1bb5bd303e44a1c9cef6c8a&#45;&gt;dir_35ffb1505af3943bdf99903da87524fe -->
<g id="edge15" class="edge">
<title>dir_4012ff34c1bb5bd303e44a1c9cef6c8a&#45;&gt;dir_35ffb1505af3943bdf99903da87524fe</title>
<path fill="none" stroke="#000000" d="M351.7383,-287.8314C351.2035,-280.131 350.5677,-270.9743 349.9734,-262.4166"/>
<polygon fill="#000000" stroke="#000000" points="353.4632,-262.1467 349.2787,-252.4133 346.48,-262.6317 353.4632,-262.1467"/>
<g id="a_edge15&#45;headlabel"><a xlink:href="dir_000003_000014.html" target="_top" xlink:title="1">
<text text-anchor="middle" x="356.5445" y="-263.0361" font-family="Helvetica,sans-Serif" font-size="10.00" fill="#000000">1</text>
</a>
</g>
</g>
<!-- dir_0c368f76a33d967d5b838b5681461de6 -->
<g id="node9" class="node">
<title>dir_0c368f76a33d967d5b838b5681461de6</title>
<g id="a_node9"><a xlink:href="dir_0c368f76a33d967d5b838b5681461de6.html" target="_top" xlink:title="wind_energy">
<polygon fill="none" stroke="#000000" points="616.5,-403 545.5,-403 545.5,-367 616.5,-367 616.5,-403"/>
<text text-anchor="middle" x="581" y="-382.5" font-family="Helvetica,sans-Serif" font-size="10.00" fill="#000000">wind_energy</text>
</a>
</g>
</g>
<!-- dir_4012ff34c1bb5bd303e44a1c9cef6c8a&#45;&gt;dir_0c368f76a33d967d5b838b5681461de6 -->
<g id="edge16" class="edge">
<title>dir_4012ff34c1bb5bd303e44a1c9cef6c8a&#45;&gt;dir_0c368f76a33d967d5b838b5681461de6</title>
<path fill="none" stroke="#000000" d="M352.986,-324.2505C357.5072,-336.1497 366.9488,-350.9196 380,-359 404.7497,-374.3233 483.7938,-380.8112 535.1862,-383.4066"/>
<polygon fill="#000000" stroke="#000000" points="535.2332,-386.9126 545.3875,-383.8892 535.5641,-379.9205 535.2332,-386.9126"/>
<g id="a_edge16&#45;headlabel"><a xlink:href="dir_000003_000001.html" target="_top" xlink:title="1">
<text text-anchor="middle" x="531.5085" y="-387.079" font-family="Helvetica,sans-Serif" font-size="10.00" fill="#000000">1</text>
</a>
</g>
</g>
<!-- dir_4012ff34c1bb5bd303e44a1c9cef6c8a&#45;&gt;dir_e4cd57caa88bf1f4e1bf9521bc47c3c0 -->
<g id="edge17" class="edge">
<title>dir_4012ff34c1bb5bd303e44a1c9cef6c8a&#45;&gt;dir_e4cd57caa88bf1f4e1bf9521bc47c3c0</title>
<path fill="none" stroke="#000000" d="M332.33,-287.7985C313.7549,-269.1699 291.5873,-239.6771 307,-216 325.6259,-187.3869 363.2482,-173.8213 391.8168,-167.461"/>
<polygon fill="#000000" stroke="#000000" points="392.7709,-170.8391 401.8805,-165.4292 391.3856,-163.9775 392.7709,-170.8391"/>
<g id="a_edge17&#45;headlabel"><a xlink:href="dir_000003_000005.html" target="_top" xlink:title="7">
<text text-anchor="middle" x="389.8093" y="-171.8335" font-family="Helvetica,sans-Serif" font-size="10.00" fill="#000000">7</text>
</a>
</g>
</g>
<!-- dir_4012ff34c1bb5bd303e44a1c9cef6c8a&#45;&gt;dir_3d3615e9a999cab4f3407307569d6ced -->
<g id="edge18" class="edge">
<title>dir_4012ff34c1bb5bd303e44a1c9cef6c8a&#45;&gt;dir_3d3615e9a999cab4f3407307569d6ced</title>
<path fill="none" stroke="#000000" d="M333.9669,-287.9786C317.9329,-272.7462 297.5117,-253.2042 297,-252 277.7454,-206.6849 301.3318,-150.0183 319.3051,-117.124"/>
<polygon fill="#000000" stroke="#000000" points="322.5277,-118.5365 324.417,-108.1114 316.4389,-115.0829 322.5277,-118.5365"/>
<g id="a_edge18&#45;headlabel"><a xlink:href="dir_000003_000009.html" target="_top" xlink:title="13">
<text text-anchor="middle" x="323.224" y="-120.5639" font-family="Helvetica,sans-Serif" font-size="10.00" fill="#000000">13</text>
</a>
</g>
</g>
<!-- dir_9f8434f21d2c2598f33c85a8b98c6d56 -->
<g id="node4" class="node">
<title>dir_9f8434f21d2c2598f33c85a8b98c6d56</title>
<g id="a_node4"><a xlink:href="dir_9f8434f21d2c2598f33c85a8b98c6d56.html" target="_top" xlink:title="sdr">
<polygon fill="#ffffff" stroke="#000000" points="150,-324 96,-324 96,-288 150,-288 150,-324"/>
<text text-anchor="middle" x="123" y="-303.5" font-family="Helvetica,sans-Serif" font-size="10.00" fill="#000000">sdr</text>
</a>
</g>
</g>
<!-- dir_9f8434f21d2c2598f33c85a8b98c6d56&#45;&gt;dir_3d3615e9a999cab4f3407307569d6ced -->
<g id="edge19" class="edge">
<title>dir_9f8434f21d2c2598f33c85a8b98c6d56&#45;&gt;dir_3d3615e9a999cab4f3407307569d6ced</title>
<path fill="none" stroke="#000000" d="M134.0867,-287.7741C154.1176,-255.875 198.9367,-189.0396 249,-144 264.2768,-130.2562 283.4956,-117.9142 299.9818,-108.5103"/>
<polygon fill="#000000" stroke="#000000" points="301.778,-111.5162 308.8172,-103.5979 298.3765,-105.3983 301.778,-111.5162"/>
<g id="a_edge19&#45;headlabel"><a xlink:href="dir_000022_000009.html" target="_top" xlink:title="4">
<text text-anchor="middle" x="300.016" y="-113.2444" font-family="Helvetica,sans-Serif" font-size="10.00" fill="#000000">4</text>
</a>
</g>
</g>
<!-- dir_c96908905c9887b0bdc2167e5354d30c -->
<g id="node5" class="node">
<title>dir_c96908905c9887b0bdc2167e5354d30c</title>
<g id="a_node5"><a xlink:href="dir_c96908905c9887b0bdc2167e5354d30c.html" target="_top" xlink:title="temperature">
<polygon fill="#ffffff" stroke="#000000" points="236,-324 168,-324 168,-288 236,-288 236,-324"/>
<text text-anchor="middle" x="202" y="-303.5" font-family="Helvetica,sans-Serif" font-size="10.00" fill="#000000">temperature</text>
</a>
</g>
</g>
<!-- dir_c96908905c9887b0bdc2167e5354d30c&#45;&gt;dir_3d3615e9a999cab4f3407307569d6ced -->
<g id="edge5" class="edge">
<title>dir_c96908905c9887b0bdc2167e5354d30c&#45;&gt;dir_3d3615e9a999cab4f3407307569d6ced</title>
<path fill="none" stroke="#000000" d="M207.6086,-287.7006C217.8169,-256.262 241.6012,-190.8598 276,-144 283.8524,-133.3031 294.1044,-123.1316 303.9066,-114.5603"/>
<polygon fill="#000000" stroke="#000000" points="306.2344,-117.1757 311.6169,-108.0499 301.7183,-111.8273 306.2344,-117.1757"/>
<g id="a_edge5&#45;headlabel"><a xlink:href="dir_000024_000009.html" target="_top" xlink:title="4">
<text text-anchor="middle" x="305.3197" y="-119.1641" font-family="Helvetica,sans-Serif" font-size="10.00" fill="#000000">4</text>
</a>
</g>
</g>
<!-- dir_be932497d8c26b6aa8596ee64638838f -->
<g id="node6" class="node">
<title>dir_be932497d8c26b6aa8596ee64638838f</title>
<g id="a_node6"><a xlink:href="dir_be932497d8c26b6aa8596ee64638838f.html" target="_top" xlink:title="tke">
<polygon fill="#ffffff" stroke="#000000" points="308,-324 254,-324 254,-288 308,-288 308,-324"/>
<text text-anchor="middle" x="281" y="-303.5" font-family="Helvetica,sans-Serif" font-size="10.00" fill="#000000">tke</text>
</a>
</g>
</g>
<!-- dir_be932497d8c26b6aa8596ee64638838f&#45;&gt;dir_3d3615e9a999cab4f3407307569d6ced -->
<g id="edge4" class="edge">
<title>dir_be932497d8c26b6aa8596ee64638838f&#45;&gt;dir_3d3615e9a999cab4f3407307569d6ced</title>
<path fill="none" stroke="#000000" d="M278.2715,-287.6667C274.4693,-256.731 270.0979,-192.7703 290,-144 294.1609,-133.8037 301.0276,-124.1419 308.2021,-115.8852"/>
<polygon fill="#000000" stroke="#000000" points="310.8779,-118.1467 315.0967,-108.4281 305.7381,-113.3946 310.8779,-118.1467"/>
<g id="a_edge4&#45;headlabel"><a xlink:href="dir_000025_000009.html" target="_top" xlink:title="4">
<text text-anchor="middle" x="310.5224" y="-120.2136" font-family="Helvetica,sans-Serif" font-size="10.00" fill="#000000">4</text>
</a>
</g>
</g>
<!-- dir_9ff815a534beac751fa88e427dbab695&#45;&gt;dir_e4cd57caa88bf1f4e1bf9521bc47c3c0 -->
<g id="edge1" class="edge">
<title>dir_9ff815a534beac751fa88e427dbab695&#45;&gt;dir_e4cd57caa88bf1f4e1bf9521bc47c3c0</title>
<path fill="none" stroke="#000000" d="M429,-215.8314C429,-208.131 429,-198.9743 429,-190.4166"/>
<polygon fill="#000000" stroke="#000000" points="432.5001,-190.4132 429,-180.4133 425.5001,-190.4133 432.5001,-190.4132"/>
<g id="a_edge1&#45;headlabel"><a xlink:href="dir_000018_000005.html" target="_top" xlink:title="1">
<text text-anchor="middle" x="435.3393" y="-191.5079" font-family="Helvetica,sans-Serif" font-size="10.00" fill="#000000">1</text>
</a>
</g>
</g>
<!-- dir_9ff815a534beac751fa88e427dbab695&#45;&gt;dir_3d3615e9a999cab4f3407307569d6ced -->
<g id="edge2" class="edge">
<title>dir_9ff815a534beac751fa88e427dbab695&#45;&gt;dir_3d3615e9a999cab4f3407307569d6ced</title>
<path fill="none" stroke="#000000" d="M416.5629,-215.5764C409.5779,-205.1714 400.7361,-191.904 393,-180 379.2684,-158.8704 364.0074,-134.7384 352.7345,-116.7852"/>
<polygon fill="#000000" stroke="#000000" points="355.5095,-114.6222 347.2324,-108.0087 349.5787,-118.3405 355.5095,-114.6222"/>
<g id="a_edge2&#45;headlabel"><a xlink:href="dir_000018_000009.html" target="_top" xlink:title="5">
<text text-anchor="middle" x="359.8244" y="-113.6597" font-family="Helvetica,sans-Serif" font-size="10.00" fill="#000000">5</text>
</a>
</g>
</g>
<!-- dir_35ffb1505af3943bdf99903da87524fe&#45;&gt;dir_e4cd57caa88bf1f4e1bf9521bc47c3c0 -->
<g id="edge6" class="edge">
<title>dir_35ffb1505af3943bdf99903da87524fe&#45;&gt;dir_e4cd57caa88bf1f4e1bf9521bc47c3c0</title>
<path fill="none" stroke="#000000" d="M368.4397,-215.8314C378.3205,-207.0485 390.3324,-196.3712 401.045,-186.8489"/>
<polygon fill="#000000" stroke="#000000" points="403.418,-189.4224 408.5668,-180.1628 398.7674,-184.1906 403.418,-189.4224"/>
<g id="a_edge6&#45;headlabel"><a xlink:href="dir_000014_000005.html" target="_top" xlink:title="4">
<text text-anchor="middle" x="402.6177" y="-191.4326" font-family="Helvetica,sans-Serif" font-size="10.00" fill="#000000">4</text>
</a>
</g>
</g>
<!-- dir_35ffb1505af3943bdf99903da87524fe&#45;&gt;dir_3d3615e9a999cab4f3407307569d6ced -->
<g id="edge7" class="edge">
<title>dir_35ffb1505af3943bdf99903da87524fe&#45;&gt;dir_3d3615e9a999cab4f3407307569d6ced</title>
<path fill="none" stroke="#000000" d="M346.4802,-215.7623C344.4334,-191.201 340.7706,-147.2474 338.3628,-118.3541"/>
<polygon fill="#000000" stroke="#000000" points="341.8259,-117.7644 337.5075,-108.0896 334.8501,-118.3458 341.8259,-117.7644"/>
<g id="a_edge7&#45;headlabel"><a xlink:href="dir_000014_000009.html" target="_top" xlink:title="4">
<text text-anchor="middle" x="344.9538" y="-118.6108" font-family="Helvetica,sans-Serif" font-size="10.00" fill="#000000">4</text>
</a>
</g>
</g>
<!-- dir_0c368f76a33d967d5b838b5681461de6&#45;&gt;dir_4bb30ed846ea1df1fc4d16874a455d91 -->
<g id="edge12" class="edge">
<title>dir_0c368f76a33d967d5b838b5681461de6&#45;&gt;dir_4bb30ed846ea1df1fc4d16874a455d91</title>
<path fill="none" stroke="#000000" d="M550.0283,-366.8758C530.9058,-355.6856 506.1862,-341.2201 485.6421,-329.198"/>
<polygon fill="#000000" stroke="#000000" points="487.2262,-326.0697 476.8276,-324.0399 483.6907,-332.1113 487.2262,-326.0697"/>
<g id="a_edge12&#45;headlabel"><a xlink:href="dir_000001_000002.html" target="_top" xlink:title="1">
<text text-anchor="middle" x="491.7626" y="-322.9347" font-family="Helvetica,sans-Serif" font-size="10.00" fill="#000000">1</text>
</a>
</g>
</g>
<!-- dir_0c368f76a33d967d5b838b5681461de6&#45;&gt;dir_4012ff34c1bb5bd303e44a1c9cef6c8a -->
<g id="edge9" class="edge">
<title>dir_0c368f76a33d967d5b838b5681461de6&#45;&gt;dir_4012ff34c1bb5bd303e44a1c9cef6c8a</title>
<path fill="none" stroke="#000000" d="M545.1491,-383.2645C499.0011,-380.5778 422.3098,-374.0509 398,-359 388.0076,-352.8134 380.1312,-342.7056 373.6935,-332.9671"/>
<polygon fill="#000000" stroke="#000000" points="376.4774,-330.8215 368.1664,-324.2505 370.5657,-334.5701 376.4774,-330.8215"/>
<g id="a_edge9&#45;headlabel"><a xlink:href="dir_000001_000003.html" target="_top" xlink:title="1">
<text text-anchor="middle" x="380.8001" y="-329.8368" font-family="Helvetica,sans-Serif" font-size="10.00" fill="#000000">1</text>
</a>
</g>
</g>
<!-- dir_0c368f76a33d967d5b838b5681461de6&#45;&gt;dir_e4cd57caa88bf1f4e1bf9521bc47c3c0 -->
<g id="edge8" class="edge">
<title>dir_0c368f76a33d967d5b838b5681461de6&#45;&gt;dir_e4cd57caa88bf1f4e1bf9521bc47c3c0</title>
<path fill="none" stroke="#000000" d="M593.2864,-366.9603C614.2715,-333.6909 651.5623,-261.8872 617,-216 598.8797,-191.9423 515.6094,-175.2978 466.174,-167.3436"/>
<polygon fill="#000000" stroke="#000000" points="466.5951,-163.867 456.1742,-165.7786 465.5127,-170.7828 466.5951,-163.867"/>
<g id="a_edge8&#45;headlabel"><a xlink:href="dir_000001_000005.html" target="_top" xlink:title="7">
<text text-anchor="middle" x="470.5855" y="-159.1176" font-family="Helvetica,sans-Serif" font-size="10.00" fill="#000000">7</text>
</a>
</g>
</g>
<!-- dir_0c368f76a33d967d5b838b5681461de6&#45;&gt;dir_a816a247b59c90f95e41afe29b966a18 -->
<g id="edge10" class="edge">
<title>dir_0c368f76a33d967d5b838b5681461de6&#45;&gt;dir_a816a247b59c90f95e41afe29b966a18</title>
<path fill="none" stroke="#000000" d="M581,-366.7859C581,-340.824 581,-292.9387 581,-262.3233"/>
<polygon fill="#000000" stroke="#000000" points="584.5001,-262.2787 581,-252.2787 577.5001,-262.2788 584.5001,-262.2787"/>
<g id="a_edge10&#45;headlabel"><a xlink:href="dir_000001_000013.html" target="_top" xlink:title="1">
<text text-anchor="middle" x="587.3393" y="-263.3733" font-family="Helvetica,sans-Serif" font-size="10.00" fill="#000000">1</text>
</a>
</g>
</g>
<!-- dir_0c368f76a33d967d5b838b5681461de6&#45;&gt;dir_3d3615e9a999cab4f3407307569d6ced -->
<g id="edge11" class="edge">
<title>dir_0c368f76a33d967d5b838b5681461de6&#45;&gt;dir_3d3615e9a999cab4f3407307569d6ced</title>
<path fill="none" stroke="#000000" d="M616.5794,-370.546C621.0396,-367.3569 625.06,-363.5396 628,-359 662.6166,-305.5491 669.6793,-270.6569 637,-216 581.3959,-123.0007 440.8566,-98.6329 373.338,-92.2558"/>
<polygon fill="#000000" stroke="#000000" points="373.4162,-88.7497 363.1528,-91.3791 372.8158,-95.7239 373.4162,-88.7497"/>
<g id="a_edge11&#45;headlabel"><a xlink:href="dir_000001_000009.html" target="_top" xlink:title="4">
<text text-anchor="middle" x="377.241" y="-83.7291" font-family="Helvetica,sans-Serif" font-size="10.00" fill="#000000">4</text>
</a>
</g>
</g>
<!-- dir_ebb19deee3cd40f4ac122fef25c04ca8&#45;&gt;dir_3d3615e9a999cab4f3407307569d6ced -->
<g id="edge13" class="edge">
<title>dir_ebb19deee3cd40f4ac122fef25c04ca8&#45;&gt;dir_3d3615e9a999cab4f3407307569d6ced</title>
<path fill="none" stroke="#000000" d="M341.976,-36.4133C342.7071,-44.0593 342.9203,-53.1084 342.6155,-61.5726"/>
<polygon fill="#000000" stroke="#000000" points="339.1048,-61.6264 341.9524,-71.8314 346.0902,-62.078 339.1048,-61.6264"/>
<g id="a_edge13&#45;headlabel"><a xlink:href="dir_000006_000009.html" target="_top" xlink:title="4">
<text text-anchor="middle" x="336.5032" y="-55.3562" font-family="Helvetica,sans-Serif" font-size="10.00" fill="#000000">4</text>
</a>
</g>
</g>
<!-- dir_e4cd57caa88bf1f4e1bf9521bc47c3c0&#45;&gt;dir_3d3615e9a999cab4f3407307569d6ced -->
<g id="edge14" class="edge">
<title>dir_e4cd57caa88bf1f4e1bf9521bc47c3c0&#45;&gt;dir_3d3615e9a999cab4f3407307569d6ced</title>
<path fill="none" stroke="#000000" d="M405.5322,-143.8314C393.9673,-134.8779 379.8596,-123.9558 367.3817,-114.2955"/>
<polygon fill="#000000" stroke="#000000" points="369.5102,-111.5171 359.4603,-108.1628 365.225,-117.0521 369.5102,-111.5171"/>
<g id="a_edge14&#45;headlabel"><a xlink:href="dir_000005_000009.html" target="_top" xlink:title="8">
<text text-anchor="middle" x="374.0906" y="-108.9725" font-family="Helvetica,sans-Serif" font-size="10.00" fill="#000000">8</text>
</a>
</g>
</g>
<!-- dir_a816a247b59c90f95e41afe29b966a18&#45;&gt;dir_3d3615e9a999cab4f3407307569d6ced -->
<g id="edge20" class="edge">
<title>dir_a816a247b59c90f95e41afe29b966a18&#45;&gt;dir_3d3615e9a999cab4f3407307569d6ced</title>
<path fill="none" stroke="#000000" d="M560.8132,-215.6458C538.5583,-196.0771 501.1069,-165.0658 465,-144 435.4337,-126.7502 399.3069,-112.1219 372.8135,-102.4595"/>
<polygon fill="#000000" stroke="#000000" points="373.7597,-99.0807 363.1651,-99.0044 371.3997,-105.6709 373.7597,-99.0807"/>
<g id="a_edge20&#45;headlabel"><a xlink:href="dir_000013_000009.html" target="_top" xlink:title="1">
<text text-anchor="middle" x="378.1011" y="-95.1195" font-family="Helvetica,sans-Serif" font-size="10.00" fill="#000000">1</text>
</a>
</g>
</g>
<!-- dir_3d3615e9a999cab4f3407307569d6ced&#45;&gt;dir_ebb19deee3cd40f4ac122fef25c04ca8 -->
<g id="edge21" class="edge">
<title>dir_3d3615e9a999cab4f3407307569d6ced&#45;&gt;dir_ebb19deee3cd40f4ac122fef25c04ca8</title>
<path fill="none" stroke="#000000" d="M330.0476,-71.8314C329.2972,-64.131 329.0763,-54.9743 329.3849,-46.4166"/>
<polygon fill="#000000" stroke="#000000" points="332.8792,-46.6161 330.024,-36.4133 325.8935,-46.1697 332.8792,-46.6161"/>
<g id="a_edge21&#45;headlabel"><a xlink:href="dir_000009_000006.html" target="_top" xlink:title="1">
<text text-anchor="middle" x="335.4836" y="-47.8844" font-family="Helvetica,sans-Serif" font-size="10.00" fill="#000000">1</text>
</a>
</g>
</g>
</g>
</svg>
        <g id="navigator" transform="translate(0 0)" fill="#404254">
                <rect fill="#f2f5e9" fill-opacity="0.5" stroke="#606060" stroke-width=".5" x="0" y="0" width="60" height="60"/>
                <use id="zoomplus" xlink:href="#zoomPlus" x="17" y="9" onmousedown="handleZoom(evt,'in')"/>
                <use id="zoomminus" xlink:href="#zoomMin" x="42" y="9" onmousedown="handleZoom(evt,'out')"/>
                <use id="reset" xlink:href="#resetDef" x="30" y="36" onmousedown="handleReset()"/>
                <g id="arrowUp" xlink:href="#dirArrow" transform="translate(30 24)" onmousedown="handlePan(0,-1)">
                  <use xlink:href="#rim" fill="#404040">
                        <set attributeName="fill" to="#808080" begin="arrowUp.mouseover" end="arrowUp.mouseout"/>
                  </use>
                  <path fill="none" stroke="white" stroke-width="1.5" d="M0,-3.0v7 M-2.5,-0.5L0,-3.0L2.5,-0.5"/>
                </g>
                <g id="arrowRight" xlink:href="#dirArrow" transform="rotate(90) translate(36 -43)" onmousedown="handlePan(1,0)">
                  <use xlink:href="#rim" fill="#404040">
                        <set attributeName="fill" to="#808080" begin="arrowRight.mouseover" end="arrowRight.mouseout"/>
                  </use>
                  <path fill="none" stroke="white" stroke-width="1.5" d="M0,-3.0v7 M-2.5,-0.5L0,-3.0L2.5,-0.5"/>
                </g>
                <g id="arrowDown" xlink:href="#dirArrow" transform="rotate(180) translate(-30 -48)" onmousedown="handlePan(0,1)">
                  <use xlink:href="#rim" fill="#404040">
                        <set attributeName="fill" to="#808080" begin="arrowDown.mouseover" end="arrowDown.mouseout"/>
                  </use>
                  <path fill="none" stroke="white" stroke-width="1.5" d="M0,-3.0v7 M-2.5,-0.5L0,-3.0L2.5,-0.5"/>
                </g>
                <g id="arrowLeft" xlink:href="#dirArrow" transform="rotate(270) translate(-36 17)" onmousedown="handlePan(-1,0)">
                  <use xlink:href="#rim" fill="#404040">
                        <set attributeName="fill" to="#808080" begin="arrowLeft.mouseover" end="arrowLeft.mouseout"/>
                  </use>
                  <path fill="none" stroke="white" stroke-width="1.5" d="M0,-3.0v7 M-2.5,-0.5L0,-3.0L2.5,-0.5"/>
                </g>
        </g>
        <svg viewBox="0 0 15 15" width="100%" height="30px" preserveAspectRatio="xMaxYMin meet">
         <g id="arrow_out" transform="scale(0.3 0.3)">
          <a xlink:href="dir_4bb30ed846ea1df1fc4d16874a455d91_dep_org.svg" target="_base">
           <rect id="button" ry="5" rx="5" y="6" x="6" height="38" width="38"
                fill="#f2f5e9" fill-opacity="0.5" stroke="#606060" stroke-width="1.0"/>
           <path id="arrow"
             d="M 11.500037,31.436501 C 11.940474,20.09759 22.043105,11.32322 32.158766,21.979434 L 37.068811,17.246167 C 37.068811,17.246167 37.088388,32 37.088388,32 L 22.160133,31.978069 C 22.160133,31.978069 26.997745,27.140456 26.997745,27.140456 C 18.528582,18.264221 13.291696,25.230495 11.500037,31.436501 z"
             style="fill:#404040;"/>
          </a>
         </g>
        </svg>
</svg>
