<?xml version="1.0" encoding="UTF-8" standalone="no"?>
<!DOCTYPE svg PUBLIC "-//W3C//DTD SVG 1.1//EN"
 "http://www.w3.org/Graphics/SVG/1.1/DTD/svg11.dtd">
<!-- Generated by graphviz version 2.40.1 (20161225.0304)
 -->
<!-- Title: equation_systems Pages: 1 -->
<svg width="626pt" height="411pt"
 viewBox="0.00 0.00 626.02 411.00" xmlns="http://www.w3.org/2000/svg" xmlns:xlink="http://www.w3.org/1999/xlink">
<g id="graph0" class="graph" transform="scale(1 1) rotate(0) translate(4 407)">
<title>equation_systems</title>
<polygon fill="#ffffff" stroke="transparent" points="-4,4 -4,-407 622.0197,-407 622.0197,4 -4,4"/>
<g id="clust1" class="cluster">
<title>clusterdir_d85575251dd712327fe3cf057fa568b4</title>
<g id="a_clust1"><a xlink:href="dir_d85575251dd712327fe3cf057fa568b4.html" target="_top" xlink:title="amr&#45;wind">
<polygon fill="#ddddee" stroke="#000000" points="8,-272 8,-359 510,-359 510,-272 8,-272"/>
<text text-anchor="middle" x="259" y="-347" font-family="Helvetica,sans-Serif" font-size="10.00" fill="#000000">amr&#45;wind</text>
</a>
</g>
</g>
<g id="clust2" class="cluster">
<title>clusterdir_4bb30ed846ea1df1fc4d16874a455d91</title>
<g id="a_clust2"><a xlink:href="dir_4bb30ed846ea1df1fc4d16874a455d91.html" target="_top">
<polygon fill="#eeeeff" stroke="#000000" points="16,-280 16,-332 502,-332 502,-280 16,-280"/>
</a>
</g>
</g>
<!-- dir_4bb30ed846ea1df1fc4d16874a455d91 -->
<g id="node1" class="node">
<title>dir_4bb30ed846ea1df1fc4d16874a455d91</title>
<text text-anchor="middle" x="446" y="-303.5" font-family="Helvetica,sans-Serif" font-size="10.00" fill="#000000">equation_systems</text>
</g>
<!-- dir_9ff815a534beac751fa88e427dbab695 -->
<g id="node7" class="node">
<title>dir_9ff815a534beac751fa88e427dbab695</title>
<g id="a_node7"><a xlink:href="dir_9ff815a534beac751fa88e427dbab695.html" target="_top" xlink:title="turbulence">
<polygon fill="#ffffff" stroke="#ff0000" points="418,-252 356,-252 356,-216 418,-216 418,-252"/>
<text text-anchor="middle" x="387" y="-231.5" font-family="Helvetica,sans-Serif" font-size="10.00" fill="#000000">turbulence</text>
</a>
</g>
</g>
<!-- dir_4bb30ed846ea1df1fc4d16874a455d91&#45;&gt;dir_9ff815a534beac751fa88e427dbab695 -->
<g id="edge24" class="edge">
<title>dir_4bb30ed846ea1df1fc4d16874a455d91&#45;&gt;dir_9ff815a534beac751fa88e427dbab695</title>
<path fill="none" stroke="#000000" d="M431.1118,-287.8314C424.247,-279.454 415.9699,-269.3531 408.4489,-260.1749"/>
<polygon fill="#000000" stroke="#000000" points="411.1341,-257.9297 402.0886,-252.4133 405.7197,-262.3665 411.1341,-257.9297"/>
<g id="a_edge24&#45;headlabel"><a xlink:href="dir_000002_000021.html" target="_top" xlink:title="2">
<text text-anchor="middle" x="415.6085" y="-256.4104" font-family="Helvetica,sans-Serif" font-size="10.00" fill="#000000">2</text>
</a>
</g>
</g>
<!-- dir_35ffb1505af3943bdf99903da87524fe -->
<g id="node8" class="node">
<title>dir_35ffb1505af3943bdf99903da87524fe</title>
<g id="a_node8"><a xlink:href="dir_35ffb1505af3943bdf99903da87524fe.html" target="_top" xlink:title="convection">
<polygon fill="none" stroke="#000000" points="338,-252 274,-252 274,-216 338,-216 338,-252"/>
<text text-anchor="middle" x="306" y="-231.5" font-family="Helvetica,sans-Serif" font-size="10.00" fill="#000000">convection</text>
</a>
</g>
</g>
<!-- dir_4bb30ed846ea1df1fc4d16874a455d91&#45;&gt;dir_35ffb1505af3943bdf99903da87524fe -->
<g id="edge25" class="edge">
<title>dir_4bb30ed846ea1df1fc4d16874a455d91&#45;&gt;dir_35ffb1505af3943bdf99903da87524fe</title>
<path fill="none" stroke="#000000" d="M417.056,-287.9102C408.169,-282.5809 398.2832,-276.8754 389,-272 381.0682,-267.8343 363.953,-259.9361 347.3132,-252.4148"/>
<polygon fill="#000000" stroke="#000000" points="348.7344,-249.2164 338.1792,-248.3012 345.8599,-255.599 348.7344,-249.2164"/>
<g id="a_edge25&#45;headlabel"><a xlink:href="dir_000002_000015.html" target="_top" xlink:title="3">
<text text-anchor="middle" x="353.1779" y="-245.6035" font-family="Helvetica,sans-Serif" font-size="10.00" fill="#000000">3</text>
</a>
</g>
</g>
<!-- dir_ebb19deee3cd40f4ac122fef25c04ca8 -->
<g id="node10" class="node">
<title>dir_ebb19deee3cd40f4ac122fef25c04ca8</title>
<g id="a_node10"><a xlink:href="dir_ebb19deee3cd40f4ac122fef25c04ca8.html" target="_top" xlink:title="boundary_conditions">
<polygon fill="none" stroke="#000000" points="337,-36 231,-36 231,0 337,0 337,-36"/>
<text text-anchor="middle" x="284" y="-15.5" font-family="Helvetica,sans-Serif" font-size="10.00" fill="#000000">boundary_conditions</text>
</a>
</g>
</g>
<!-- dir_4bb30ed846ea1df1fc4d16874a455d91&#45;&gt;dir_ebb19deee3cd40f4ac122fef25c04ca8 -->
<g id="edge26" class="edge">
<title>dir_4bb30ed846ea1df1fc4d16874a455d91&#45;&gt;dir_ebb19deee3cd40f4ac122fef25c04ca8</title>
<path fill="none" stroke="#000000" d="M449.865,-287.8933C453.0353,-269.3402 455.8502,-239.9066 448,-216 423.638,-141.8093 355.9823,-76.5509 315.5832,-42.6648"/>
<polygon fill="#000000" stroke="#000000" points="317.5857,-39.7795 307.6446,-36.1153 313.1309,-45.179 317.5857,-39.7795"/>
<g id="a_edge26&#45;headlabel"><a xlink:href="dir_000002_000006.html" target="_top" xlink:title="1">
<text text-anchor="middle" x="322.1653" y="-37.377" font-family="Helvetica,sans-Serif" font-size="10.00" fill="#000000">1</text>
</a>
</g>
</g>
<!-- dir_e4cd57caa88bf1f4e1bf9521bc47c3c0 -->
<g id="node11" class="node">
<title>dir_e4cd57caa88bf1f4e1bf9521bc47c3c0</title>
<g id="a_node11"><a xlink:href="dir_e4cd57caa88bf1f4e1bf9521bc47c3c0.html" target="_top" xlink:title="utilities">
<polygon fill="#ffffff" stroke="#ff0000" points="366,-180 312,-180 312,-144 366,-144 366,-180"/>
<text text-anchor="middle" x="339" y="-159.5" font-family="Helvetica,sans-Serif" font-size="10.00" fill="#000000">utilities</text>
</a>
</g>
</g>
<!-- dir_4bb30ed846ea1df1fc4d16874a455d91&#45;&gt;dir_e4cd57caa88bf1f4e1bf9521bc47c3c0 -->
<g id="edge27" class="edge">
<title>dir_4bb30ed846ea1df1fc4d16874a455d91&#45;&gt;dir_e4cd57caa88bf1f4e1bf9521bc47c3c0</title>
<path fill="none" stroke="#000000" d="M446.2503,-287.7763C445.6464,-268.3192 442.094,-237.4027 427,-216 414.332,-198.0373 393.6089,-184.893 375.4542,-176.0725"/>
<polygon fill="#000000" stroke="#000000" points="376.7995,-172.839 366.2508,-171.8514 373.8813,-179.2017 376.7995,-172.839"/>
<g id="a_edge27&#45;headlabel"><a xlink:href="dir_000002_000005.html" target="_top" xlink:title="9">
<text text-anchor="middle" x="381.2505" y="-169.2567" font-family="Helvetica,sans-Serif" font-size="10.00" fill="#000000">9</text>
</a>
</g>
</g>
<!-- dir_a816a247b59c90f95e41afe29b966a18 -->
<g id="node12" class="node">
<title>dir_a816a247b59c90f95e41afe29b966a18</title>
<g id="a_node12"><a xlink:href="dir_a816a247b59c90f95e41afe29b966a18.html" target="_top" xlink:title="diffusion">
<polygon fill="none" stroke="#000000" points="566,-252 512,-252 512,-216 566,-216 566,-252"/>
<text text-anchor="middle" x="539" y="-231.5" font-family="Helvetica,sans-Serif" font-size="10.00" fill="#000000">diffusion</text>
</a>
</g>
</g>
<!-- dir_4bb30ed846ea1df1fc4d16874a455d91&#45;&gt;dir_a816a247b59c90f95e41afe29b966a18 -->
<g id="edge28" class="edge">
<title>dir_4bb30ed846ea1df1fc4d16874a455d91&#45;&gt;dir_a816a247b59c90f95e41afe29b966a18</title>
<path fill="none" stroke="#000000" d="M469.4678,-287.8314C481.0327,-278.8779 495.1404,-267.9558 507.6183,-258.2955"/>
<polygon fill="#000000" stroke="#000000" points="509.775,-261.0521 515.5397,-252.1628 505.4898,-255.5171 509.775,-261.0521"/>
<g id="a_edge28&#45;headlabel"><a xlink:href="dir_000002_000014.html" target="_top" xlink:title="1">
<text text-anchor="middle" x="508.6708" y="-262.9977" font-family="Helvetica,sans-Serif" font-size="10.00" fill="#000000">1</text>
</a>
</g>
</g>
<!-- dir_70329d5a297148af2b67b1d844b9f654 -->
<g id="node2" class="node">
<title>dir_70329d5a297148af2b67b1d844b9f654</title>
<g id="a_node2"><a xlink:href="dir_70329d5a297148af2b67b1d844b9f654.html" target="_top" xlink:title="density">
<polygon fill="#ffffff" stroke="#000000" points="78,-324 24,-324 24,-288 78,-288 78,-324"/>
<text text-anchor="middle" x="51" y="-303.5" font-family="Helvetica,sans-Serif" font-size="10.00" fill="#000000">density</text>
</a>
</g>
</g>
<!-- dir_3d3615e9a999cab4f3407307569d6ced -->
<g id="node13" class="node">
<title>dir_3d3615e9a999cab4f3407307569d6ced</title>
<g id="a_node13"><a xlink:href="dir_3d3615e9a999cab4f3407307569d6ced.html" target="_top" xlink:title="core">
<polygon fill="none" stroke="#000000" points="311,-108 257,-108 257,-72 311,-72 311,-108"/>
<text text-anchor="middle" x="284" y="-87.5" font-family="Helvetica,sans-Serif" font-size="10.00" fill="#000000">core</text>
</a>
</g>
</g>
<!-- dir_70329d5a297148af2b67b1d844b9f654&#45;&gt;dir_3d3615e9a999cab4f3407307569d6ced -->
<g id="edge4" class="edge">
<title>dir_70329d5a297148af2b67b1d844b9f654&#45;&gt;dir_3d3615e9a999cab4f3407307569d6ced</title>
<path fill="none" stroke="#000000" d="M61.1161,-287.7774C79.9061,-255.2896 123.0448,-186.7698 175,-144 196.5884,-126.2283 225.0036,-112.3947 247.4088,-103.1795"/>
<polygon fill="#000000" stroke="#000000" points="248.9223,-106.3442 256.919,-99.3941 246.3336,-99.8404 248.9223,-106.3442"/>
<g id="a_edge4&#45;headlabel"><a xlink:href="dir_000012_000009.html" target="_top" xlink:title="4">
<text text-anchor="middle" x="246.6326" y="-107.8114" font-family="Helvetica,sans-Serif" font-size="10.00" fill="#000000">4</text>
</a>
</g>
</g>
<!-- dir_4012ff34c1bb5bd303e44a1c9cef6c8a -->
<g id="node3" class="node">
<title>dir_4012ff34c1bb5bd303e44a1c9cef6c8a</title>
<g id="a_node3"><a xlink:href="dir_4012ff34c1bb5bd303e44a1c9cef6c8a.html" target="_top" xlink:title="icns">
<polygon fill="#ffffff" stroke="#ff0000" points="308,-324 254,-324 254,-288 308,-288 308,-324"/>
<text text-anchor="middle" x="281" y="-303.5" font-family="Helvetica,sans-Serif" font-size="10.00" fill="#000000">icns</text>
</a>
</g>
</g>
<!-- dir_4012ff34c1bb5bd303e44a1c9cef6c8a&#45;&gt;dir_35ffb1505af3943bdf99903da87524fe -->
<g id="edge17" class="edge">
<title>dir_4012ff34c1bb5bd303e44a1c9cef6c8a&#45;&gt;dir_35ffb1505af3943bdf99903da87524fe</title>
<path fill="none" stroke="#000000" d="M287.3086,-287.8314C290.0117,-280.0463 293.2316,-270.7729 296.231,-262.1347"/>
<polygon fill="#000000" stroke="#000000" points="299.6327,-263.0081 299.6065,-252.4133 293.02,-260.7119 299.6327,-263.0081"/>
<g id="a_edge17&#45;headlabel"><a xlink:href="dir_000003_000015.html" target="_top" xlink:title="1">
<text text-anchor="middle" x="301.1359" y="-264.8351" font-family="Helvetica,sans-Serif" font-size="10.00" fill="#000000">1</text>
</a>
</g>
</g>
<!-- dir_0c368f76a33d967d5b838b5681461de6 -->
<g id="node9" class="node">
<title>dir_0c368f76a33d967d5b838b5681461de6</title>
<g id="a_node9"><a xlink:href="dir_0c368f76a33d967d5b838b5681461de6.html" target="_top" xlink:title="wind_energy">
<polygon fill="none" stroke="#000000" points="574.5,-403 503.5,-403 503.5,-367 574.5,-367 574.5,-403"/>
<text text-anchor="middle" x="539" y="-382.5" font-family="Helvetica,sans-Serif" font-size="10.00" fill="#000000">wind_energy</text>
</a>
</g>
</g>
<!-- dir_4012ff34c1bb5bd303e44a1c9cef6c8a&#45;&gt;dir_0c368f76a33d967d5b838b5681461de6 -->
<g id="edge18" class="edge">
<title>dir_4012ff34c1bb5bd303e44a1c9cef6c8a&#45;&gt;dir_0c368f76a33d967d5b838b5681461de6</title>
<path fill="none" stroke="#000000" d="M280.8429,-324.0666C285.3041,-336.0438 294.7814,-350.9798 308,-359 337.7321,-377.0397 434.6568,-382.5638 493.1985,-384.2547"/>
<polygon fill="#000000" stroke="#000000" points="493.2169,-387.7563 503.3053,-384.5197 493.4005,-380.7587 493.2169,-387.7563"/>
<g id="a_edge18&#45;headlabel"><a xlink:href="dir_000003_000001.html" target="_top" xlink:title="1">
<text text-anchor="middle" x="489.5492" y="-388.0005" font-family="Helvetica,sans-Serif" font-size="10.00" fill="#000000">1</text>
</a>
</g>
</g>
<!-- dir_4012ff34c1bb5bd303e44a1c9cef6c8a&#45;&gt;dir_e4cd57caa88bf1f4e1bf9521bc47c3c0 -->
<g id="edge19" class="edge">
<title>dir_4012ff34c1bb5bd303e44a1c9cef6c8a&#45;&gt;dir_e4cd57caa88bf1f4e1bf9521bc47c3c0</title>
<path fill="none" stroke="#000000" d="M271.4012,-287.7784C262.8533,-268.8721 253.352,-238.9194 265,-216 273.1153,-200.0318 288.4126,-187.6621 303.002,-178.8153"/>
<polygon fill="#000000" stroke="#000000" points="304.9479,-181.7356 311.9239,-173.7615 301.4978,-175.6449 304.9479,-181.7356"/>
<g id="a_edge19&#45;headlabel"><a xlink:href="dir_000003_000005.html" target="_top" xlink:title="7">
<text text-anchor="middle" x="303.2196" y="-183.4777" font-family="Helvetica,sans-Serif" font-size="10.00" fill="#000000">7</text>
</a>
</g>
</g>
<!-- dir_4012ff34c1bb5bd303e44a1c9cef6c8a&#45;&gt;dir_3d3615e9a999cab4f3407307569d6ced -->
<g id="edge20" class="edge">
<title>dir_4012ff34c1bb5bd303e44a1c9cef6c8a&#45;&gt;dir_3d3615e9a999cab4f3407307569d6ced</title>
<path fill="none" stroke="#000000" d="M267.4284,-287.6562C246.6899,-257.2386 211.5624,-194.6879 232,-144 236.3225,-133.2796 243.9044,-123.4983 251.9639,-115.2948"/>
<polygon fill="#000000" stroke="#000000" points="254.573,-117.644 259.4199,-108.2228 249.7558,-112.5652 254.573,-117.644"/>
<g id="a_edge20&#45;headlabel"><a xlink:href="dir_000003_000009.html" target="_top" xlink:title="13">
<text text-anchor="middle" x="253.9189" y="-119.6777" font-family="Helvetica,sans-Serif" font-size="10.00" fill="#000000">13</text>
</a>
</g>
</g>
<!-- dir_9f8434f21d2c2598f33c85a8b98c6d56 -->
<g id="node4" class="node">
<title>dir_9f8434f21d2c2598f33c85a8b98c6d56</title>
<g id="a_node4"><a xlink:href="dir_9f8434f21d2c2598f33c85a8b98c6d56.html" target="_top" xlink:title="sdr">
<polygon fill="#ffffff" stroke="#000000" points="150,-324 96,-324 96,-288 150,-288 150,-324"/>
<text text-anchor="middle" x="123" y="-303.5" font-family="Helvetica,sans-Serif" font-size="10.00" fill="#000000">sdr</text>
</a>
</g>
</g>
<!-- dir_9f8434f21d2c2598f33c85a8b98c6d56&#45;&gt;dir_3d3615e9a999cab4f3407307569d6ced -->
<g id="edge21" class="edge">
<title>dir_9f8434f21d2c2598f33c85a8b98c6d56&#45;&gt;dir_3d3615e9a999cab4f3407307569d6ced</title>
<path fill="none" stroke="#000000" d="M128.4491,-287.9254C138.7841,-255.9692 163.772,-188.6591 203,-144 215.5872,-129.6701 232.8174,-117.4805 248.1511,-108.3289"/>
<polygon fill="#000000" stroke="#000000" points="249.982,-111.3136 256.9107,-103.2984 246.4959,-105.2434 249.982,-111.3136"/>
<g id="a_edge21&#45;headlabel"><a xlink:href="dir_000027_000009.html" target="_top" xlink:title="4">
<text text-anchor="middle" x="248.2788" y="-113.0658" font-family="Helvetica,sans-Serif" font-size="10.00" fill="#000000">4</text>
</a>
</g>
</g>
<!-- dir_c96908905c9887b0bdc2167e5354d30c -->
<g id="node5" class="node">
<title>dir_c96908905c9887b0bdc2167e5354d30c</title>
<g id="a_node5"><a xlink:href="dir_c96908905c9887b0bdc2167e5354d30c.html" target="_top" xlink:title="temperature">
<polygon fill="#ffffff" stroke="#000000" points="236,-324 168,-324 168,-288 236,-288 236,-324"/>
<text text-anchor="middle" x="202" y="-303.5" font-family="Helvetica,sans-Serif" font-size="10.00" fill="#000000">temperature</text>
</a>
</g>
</g>
<!-- dir_c96908905c9887b0bdc2167e5354d30c&#45;&gt;dir_3d3615e9a999cab4f3407307569d6ced -->
<g id="edge7" class="edge">
<title>dir_c96908905c9887b0bdc2167e5354d30c&#45;&gt;dir_3d3615e9a999cab4f3407307569d6ced</title>
<path fill="none" stroke="#000000" d="M200.0115,-287.7274C197.4562,-256.3293 195.9704,-190.9866 221,-144 227.5304,-131.7408 238.0789,-121.0558 248.6923,-112.4982"/>
<polygon fill="#000000" stroke="#000000" points="250.9062,-115.2119 256.7555,-106.3781 246.674,-109.6361 250.9062,-115.2119"/>
<g id="a_edge7&#45;headlabel"><a xlink:href="dir_000028_000009.html" target="_top" xlink:title="4">
<text text-anchor="middle" x="249.7595" y="-117.1467" font-family="Helvetica,sans-Serif" font-size="10.00" fill="#000000">4</text>
</a>
</g>
</g>
<!-- dir_be932497d8c26b6aa8596ee64638838f -->
<g id="node6" class="node">
<title>dir_be932497d8c26b6aa8596ee64638838f</title>
<g id="a_node6"><a xlink:href="dir_be932497d8c26b6aa8596ee64638838f.html" target="_top" xlink:title="tke">
<polygon fill="#ffffff" stroke="#ff0000" points="380,-324 326,-324 326,-288 380,-288 380,-324"/>
<text text-anchor="middle" x="353" y="-303.5" font-family="Helvetica,sans-Serif" font-size="10.00" fill="#000000">tke</text>
</a>
</g>
</g>
<!-- dir_be932497d8c26b6aa8596ee64638838f&#45;&gt;dir_9ff815a534beac751fa88e427dbab695 -->
<g id="edge5" class="edge">
<title>dir_be932497d8c26b6aa8596ee64638838f&#45;&gt;dir_9ff815a534beac751fa88e427dbab695</title>
<path fill="none" stroke="#000000" d="M355.6272,-287.8314C358.64,-279.7925 362.9792,-270.1666 367.5409,-261.2918"/>
<polygon fill="#000000" stroke="#000000" points="370.6629,-262.8763 372.3288,-252.4133 364.5016,-259.5537 370.6629,-262.8763"/>
<g id="a_edge5&#45;headlabel"><a xlink:href="dir_000019_000021.html" target="_top" xlink:title="1">
<text text-anchor="middle" x="371.4558" y="-264.8878" font-family="Helvetica,sans-Serif" font-size="10.00" fill="#000000">1</text>
</a>
</g>
</g>
<!-- dir_be932497d8c26b6aa8596ee64638838f&#45;&gt;dir_3d3615e9a999cab4f3407307569d6ced -->
<g id="edge6" class="edge">
<title>dir_be932497d8c26b6aa8596ee64638838f&#45;&gt;dir_3d3615e9a999cab4f3407307569d6ced</title>
<path fill="none" stroke="#000000" d="M336.5745,-287.9115C330.7919,-282.2786 323.9836,-276.3979 317,-272 296.047,-258.805 279.0184,-272.4113 265,-252 237.3493,-211.7398 255.5811,-152.195 270.4216,-117.6253"/>
<polygon fill="#000000" stroke="#000000" points="273.7679,-118.717 274.6698,-108.1606 267.3817,-115.8505 273.7679,-118.717"/>
<g id="a_edge6&#45;headlabel"><a xlink:href="dir_000019_000009.html" target="_top" xlink:title="5">
<text text-anchor="middle" x="274.8863" y="-120.659" font-family="Helvetica,sans-Serif" font-size="10.00" fill="#000000">5</text>
</a>
</g>
</g>
<!-- dir_9ff815a534beac751fa88e427dbab695&#45;&gt;dir_be932497d8c26b6aa8596ee64638838f -->
<g id="edge1" class="edge">
<title>dir_9ff815a534beac751fa88e427dbab695&#45;&gt;dir_be932497d8c26b6aa8596ee64638838f</title>
<path fill="none" stroke="#000000" d="M384.2809,-252.4133C381.2414,-260.484 376.8866,-270.1182 372.3205,-278.9775"/>
<polygon fill="#000000" stroke="#000000" points="369.2107,-277.3703 367.532,-287.8314 375.3679,-280.7004 369.2107,-277.3703"/>
<g id="a_edge1&#45;headlabel"><a xlink:href="dir_000021_000019.html" target="_top" xlink:title="1">
<text text-anchor="middle" x="368.4232" y="-270.3579" font-family="Helvetica,sans-Serif" font-size="10.00" fill="#000000">1</text>
</a>
</g>
</g>
<!-- dir_9ff815a534beac751fa88e427dbab695&#45;&gt;dir_e4cd57caa88bf1f4e1bf9521bc47c3c0 -->
<g id="edge2" class="edge">
<title>dir_9ff815a534beac751fa88e427dbab695&#45;&gt;dir_e4cd57caa88bf1f4e1bf9521bc47c3c0</title>
<path fill="none" stroke="#000000" d="M374.8876,-215.8314C369.4719,-207.7079 362.9758,-197.9637 357.0079,-189.0118"/>
<polygon fill="#000000" stroke="#000000" points="359.7347,-186.7923 351.2755,-180.4133 353.9104,-190.6753 359.7347,-186.7923"/>
<g id="a_edge2&#45;headlabel"><a xlink:href="dir_000021_000005.html" target="_top" xlink:title="1">
<text text-anchor="middle" x="364.091" y="-185.7083" font-family="Helvetica,sans-Serif" font-size="10.00" fill="#000000">1</text>
</a>
</g>
</g>
<!-- dir_9ff815a534beac751fa88e427dbab695&#45;&gt;dir_3d3615e9a999cab4f3407307569d6ced -->
<g id="edge3" class="edge">
<title>dir_9ff815a534beac751fa88e427dbab695&#45;&gt;dir_3d3615e9a999cab4f3407307569d6ced</title>
<path fill="none" stroke="#000000" d="M388.9863,-215.8406C390.1681,-196.4385 389.2515,-165.5687 375,-144 362.2644,-124.7255 340.0823,-111.3569 320.8076,-102.7429"/>
<polygon fill="#000000" stroke="#000000" points="321.9225,-99.4153 311.3468,-98.7786 319.2171,-105.8714 321.9225,-99.4153"/>
<g id="a_edge3&#45;headlabel"><a xlink:href="dir_000021_000009.html" target="_top" xlink:title="5">
<text text-anchor="middle" x="326.3351" y="-95.6858" font-family="Helvetica,sans-Serif" font-size="10.00" fill="#000000">5</text>
</a>
</g>
</g>
<!-- dir_35ffb1505af3943bdf99903da87524fe&#45;&gt;dir_e4cd57caa88bf1f4e1bf9521bc47c3c0 -->
<g id="edge8" class="edge">
<title>dir_35ffb1505af3943bdf99903da87524fe&#45;&gt;dir_e4cd57caa88bf1f4e1bf9521bc47c3c0</title>
<path fill="none" stroke="#000000" d="M314.3273,-215.8314C317.973,-207.8771 322.3309,-198.369 326.3627,-189.5723"/>
<polygon fill="#000000" stroke="#000000" points="329.5757,-190.9622 330.5606,-180.4133 323.2123,-188.0456 329.5757,-190.9622"/>
<g id="a_edge8&#45;headlabel"><a xlink:href="dir_000015_000005.html" target="_top" xlink:title="4">
<text text-anchor="middle" x="330.6591" y="-192.9129" font-family="Helvetica,sans-Serif" font-size="10.00" fill="#000000">4</text>
</a>
</g>
</g>
<!-- dir_35ffb1505af3943bdf99903da87524fe&#45;&gt;dir_3d3615e9a999cab4f3407307569d6ced -->
<g id="edge9" class="edge">
<title>dir_35ffb1505af3943bdf99903da87524fe&#45;&gt;dir_3d3615e9a999cab4f3407307569d6ced</title>
<path fill="none" stroke="#000000" d="M303.2137,-215.7623C299.4613,-191.201 292.7461,-147.2474 288.3319,-118.3541"/>
<polygon fill="#000000" stroke="#000000" points="291.7339,-117.4463 286.7637,-108.0896 284.8142,-118.5035 291.7339,-117.4463"/>
<g id="a_edge9&#45;headlabel"><a xlink:href="dir_000015_000009.html" target="_top" xlink:title="4">
<text text-anchor="middle" x="295.0834" y="-118.0709" font-family="Helvetica,sans-Serif" font-size="10.00" fill="#000000">4</text>
</a>
</g>
</g>
<!-- dir_0c368f76a33d967d5b838b5681461de6&#45;&gt;dir_4bb30ed846ea1df1fc4d16874a455d91 -->
<g id="edge14" class="edge">
<title>dir_0c368f76a33d967d5b838b5681461de6&#45;&gt;dir_4bb30ed846ea1df1fc4d16874a455d91</title>
<path fill="none" stroke="#000000" d="M517.4302,-366.6772C504.8707,-356.0085 488.8663,-342.4133 475.1915,-330.7971"/>
<polygon fill="#000000" stroke="#000000" points="477.3402,-328.03 467.4529,-324.2234 472.8083,-333.365 477.3402,-328.03"/>
<g id="a_edge14&#45;headlabel"><a xlink:href="dir_000001_000002.html" target="_top" xlink:title="1">
<text text-anchor="middle" x="481.918" y="-325.6933" font-family="Helvetica,sans-Serif" font-size="10.00" fill="#000000">1</text>
</a>
</g>
</g>
<!-- dir_0c368f76a33d967d5b838b5681461de6&#45;&gt;dir_4012ff34c1bb5bd303e44a1c9cef6c8a -->
<g id="edge11" class="edge">
<title>dir_0c368f76a33d967d5b838b5681461de6&#45;&gt;dir_4012ff34c1bb5bd303e44a1c9cef6c8a</title>
<path fill="none" stroke="#000000" d="M503.4845,-384.2045C450.7832,-382.4555 355.4437,-376.8647 326,-359 315.7763,-352.7968 307.7905,-342.4567 301.2996,-332.5482"/>
<polygon fill="#000000" stroke="#000000" points="304.2503,-330.6656 295.9615,-324.0666 298.326,-334.3943 304.2503,-330.6656"/>
<g id="a_edge11&#45;headlabel"><a xlink:href="dir_000001_000003.html" target="_top" xlink:title="1">
<text text-anchor="middle" x="308.5679" y="-329.6955" font-family="Helvetica,sans-Serif" font-size="10.00" fill="#000000">1</text>
</a>
</g>
</g>
<!-- dir_0c368f76a33d967d5b838b5681461de6&#45;&gt;dir_e4cd57caa88bf1f4e1bf9521bc47c3c0 -->
<g id="edge10" class="edge">
<title>dir_0c368f76a33d967d5b838b5681461de6&#45;&gt;dir_e4cd57caa88bf1f4e1bf9521bc47c3c0</title>
<path fill="none" stroke="#000000" d="M551.5232,-366.7768C572.898,-333.2054 610.8056,-260.9238 575,-216 550.5957,-185.3809 436.7106,-170.7278 376.517,-165.0191"/>
<polygon fill="#000000" stroke="#000000" points="376.5629,-161.5089 366.2863,-164.0861 375.927,-168.4799 376.5629,-161.5089"/>
<g id="a_edge10&#45;headlabel"><a xlink:href="dir_000001_000005.html" target="_top" xlink:title="16">
<text text-anchor="middle" x="380.4005" y="-156.5077" font-family="Helvetica,sans-Serif" font-size="10.00" fill="#000000">16</text>
</a>
</g>
</g>
<!-- dir_0c368f76a33d967d5b838b5681461de6&#45;&gt;dir_a816a247b59c90f95e41afe29b966a18 -->
<g id="edge12" class="edge">
<title>dir_0c368f76a33d967d5b838b5681461de6&#45;&gt;dir_a816a247b59c90f95e41afe29b966a18</title>
<path fill="none" stroke="#000000" d="M539,-366.7859C539,-340.824 539,-292.9387 539,-262.3233"/>
<polygon fill="#000000" stroke="#000000" points="542.5001,-262.2787 539,-252.2787 535.5001,-262.2788 542.5001,-262.2787"/>
<g id="a_edge12&#45;headlabel"><a xlink:href="dir_000001_000014.html" target="_top" xlink:title="1">
<text text-anchor="middle" x="545.3393" y="-263.3733" font-family="Helvetica,sans-Serif" font-size="10.00" fill="#000000">1</text>
</a>
</g>
</g>
<!-- dir_0c368f76a33d967d5b838b5681461de6&#45;&gt;dir_3d3615e9a999cab4f3407307569d6ced -->
<g id="edge13" class="edge">
<title>dir_0c368f76a33d967d5b838b5681461de6&#45;&gt;dir_3d3615e9a999cab4f3407307569d6ced</title>
<path fill="none" stroke="#000000" d="M574.8528,-370.9843C579.5977,-367.7156 583.8878,-363.7591 587,-359 621.8533,-305.7031 630.3863,-269.5993 596,-216 535.5174,-121.7233 390.6079,-97.987 321.6719,-92.0109"/>
<polygon fill="#000000" stroke="#000000" points="321.5281,-88.4889 311.285,-91.1961 320.9807,-95.4675 321.5281,-88.4889"/>
<g id="a_edge13&#45;headlabel"><a xlink:href="dir_000001_000009.html" target="_top" xlink:title="4">
<text text-anchor="middle" x="325.3337" y="-83.4393" font-family="Helvetica,sans-Serif" font-size="10.00" fill="#000000">4</text>
</a>
</g>
</g>
<!-- dir_ebb19deee3cd40f4ac122fef25c04ca8&#45;&gt;dir_3d3615e9a999cab4f3407307569d6ced -->
<g id="edge15" class="edge">
<title>dir_ebb19deee3cd40f4ac122fef25c04ca8&#45;&gt;dir_3d3615e9a999cab4f3407307569d6ced</title>
<path fill="none" stroke="#000000" d="M289.976,-36.4133C290.7071,-44.0593 290.9203,-53.1084 290.6155,-61.5726"/>
<polygon fill="#000000" stroke="#000000" points="287.1048,-61.6264 289.9524,-71.8314 294.0902,-62.078 287.1048,-61.6264"/>
<g id="a_edge15&#45;headlabel"><a xlink:href="dir_000006_000009.html" target="_top" xlink:title="4">
<text text-anchor="middle" x="284.5032" y="-55.3562" font-family="Helvetica,sans-Serif" font-size="10.00" fill="#000000">4</text>
</a>
</g>
</g>
<!-- dir_e4cd57caa88bf1f4e1bf9521bc47c3c0&#45;&gt;dir_3d3615e9a999cab4f3407307569d6ced -->
<g id="edge16" class="edge">
<title>dir_e4cd57caa88bf1f4e1bf9521bc47c3c0&#45;&gt;dir_3d3615e9a999cab4f3407307569d6ced</title>
<path fill="none" stroke="#000000" d="M325.1212,-143.8314C318.7864,-135.5386 311.1616,-125.557 304.2074,-116.4533"/>
<polygon fill="#000000" stroke="#000000" points="306.9175,-114.2353 298.0657,-108.4133 301.3548,-118.4847 306.9175,-114.2353"/>
<g id="a_edge16&#45;headlabel"><a xlink:href="dir_000005_000009.html" target="_top" xlink:title="8">
<text text-anchor="middle" x="311.3558" y="-112.8683" font-family="Helvetica,sans-Serif" font-size="10.00" fill="#000000">8</text>
</a>
</g>
</g>
<!-- dir_a816a247b59c90f95e41afe29b966a18&#45;&gt;dir_3d3615e9a999cab4f3407307569d6ced -->
<g id="edge22" class="edge">
<title>dir_a816a247b59c90f95e41afe29b966a18&#45;&gt;dir_3d3615e9a999cab4f3407307569d6ced</title>
<path fill="none" stroke="#000000" d="M511.9128,-215.8657C483.3487,-197.0306 436.782,-167.1352 395,-144 370.6663,-130.5261 342.4743,-116.834 320.5914,-106.6085"/>
<polygon fill="#000000" stroke="#000000" points="321.8683,-103.3426 311.324,-102.3085 318.922,-109.6924 321.8683,-103.3426"/>
<g id="a_edge22&#45;headlabel"><a xlink:href="dir_000014_000009.html" target="_top" xlink:title="1">
<text text-anchor="middle" x="326.324" y="-99.7799" font-family="Helvetica,sans-Serif" font-size="10.00" fill="#000000">1</text>
</a>
</g>
</g>
<!-- dir_3d3615e9a999cab4f3407307569d6ced&#45;&gt;dir_ebb19deee3cd40f4ac122fef25c04ca8 -->
<g id="edge23" class="edge">
<title>dir_3d3615e9a999cab4f3407307569d6ced&#45;&gt;dir_ebb19deee3cd40f4ac122fef25c04ca8</title>
<path fill="none" stroke="#000000" d="M278.0476,-71.8314C277.2972,-64.131 277.0763,-54.9743 277.3849,-46.4166"/>
<polygon fill="#000000" stroke="#000000" points="280.8792,-46.6161 278.024,-36.4133 273.8935,-46.1697 280.8792,-46.6161"/>
<g id="a_edge23&#45;headlabel"><a xlink:href="dir_000009_000006.html" target="_top" xlink:title="1">
<text text-anchor="middle" x="283.4836" y="-47.8844" font-family="Helvetica,sans-Serif" font-size="10.00" fill="#000000">1</text>
</a>
</g>
</g>
</g>
</svg>
