<?xml version="1.0" encoding="UTF-8" standalone="no"?>
<!DOCTYPE svg PUBLIC "-//W3C//DTD SVG 1.1//EN"
 "http://www.w3.org/Graphics/SVG/1.1/DTD/svg11.dtd">
<!-- Generated by graphviz version 2.40.1 (20161225.0304)
 -->
<!-- Title: multiphase_physics Pages: 1 -->
<svg width="144pt" height="223pt"
 viewBox="0.00 0.00 144.00 223.00" xmlns="http://www.w3.org/2000/svg" xmlns:xlink="http://www.w3.org/1999/xlink">
<g id="graph0" class="graph" transform="scale(1 1) rotate(0) translate(4 219)">
<title>multiphase_physics</title>
<polygon fill="#ffffff" stroke="transparent" points="-4,4 -4,-219 140,-219 140,4 -4,4"/>
<g id="clust1" class="cluster">
<title>clusterdir_d85575251dd712327fe3cf057fa568b4</title>
<g id="a_clust1"><a xlink:href="dir_d85575251dd712327fe3cf057fa568b4.html" target="_top" xlink:title="amr&#45;wind">
<polygon fill="#ddddee" stroke="#000000" points="8,-136 8,-207 128,-207 128,-136 8,-136"/>
<text text-anchor="middle" x="68" y="-195" font-family="Helvetica,sans-Serif" font-size="10.00" fill="#000000">amr&#45;wind</text>
</a>
</g>
</g>
<!-- dir_22989c2cd059a3c167de71a175e55e01 -->
<g id="node1" class="node">
<title>dir_22989c2cd059a3c167de71a175e55e01</title>
<g id="a_node1"><a xlink:href="dir_22989c2cd059a3c167de71a175e55e01.html" target="_top" xlink:title="multiphase_physics">
<polygon fill="#eeeeff" stroke="#000000" points="119.5,-180 16.5,-180 16.5,-144 119.5,-144 119.5,-180"/>
<text text-anchor="middle" x="68" y="-159.5" font-family="Helvetica,sans-Serif" font-size="10.00" fill="#000000">multiphase_physics</text>
</a>
</g>
</g>
<!-- dir_7f7a014517bfe31ea45620a6a947e37b -->
<g id="node2" class="node">
<title>dir_7f7a014517bfe31ea45620a6a947e37b</title>
<g id="a_node2"><a xlink:href="dir_7f7a014517bfe31ea45620a6a947e37b.html" target="_top" xlink:title="fvm">
<polygon fill="none" stroke="#000000" points="67,-108 13,-108 13,-72 67,-72 67,-108"/>
<text text-anchor="middle" x="40" y="-87.5" font-family="Helvetica,sans-Serif" font-size="10.00" fill="#000000">fvm</text>
</a>
</g>
</g>
<!-- dir_22989c2cd059a3c167de71a175e55e01&#45;&gt;dir_7f7a014517bfe31ea45620a6a947e37b -->
<g id="edge1" class="edge">
<title>dir_22989c2cd059a3c167de71a175e55e01&#45;&gt;dir_7f7a014517bfe31ea45620a6a947e37b</title>
<path fill="none" stroke="#000000" d="M60.9344,-143.8314C57.874,-135.9617 54.2221,-126.5712 50.8318,-117.8533"/>
<polygon fill="#000000" stroke="#000000" points="54.0473,-116.4647 47.1607,-108.4133 47.5232,-119.0019 54.0473,-116.4647"/>
<g id="a_edge1&#45;headlabel"><a xlink:href="dir_000025_000011.html" target="_top" xlink:title="1">
<text text-anchor="middle" x="57.9963" y="-116.2859" font-family="Helvetica,sans-Serif" font-size="10.00" fill="#000000">1</text>
</a>
</g>
</g>
<!-- dir_3d3615e9a999cab4f3407307569d6ced -->
<g id="node3" class="node">
<title>dir_3d3615e9a999cab4f3407307569d6ced</title>
<g id="a_node3"><a xlink:href="dir_3d3615e9a999cab4f3407307569d6ced.html" target="_top" xlink:title="core">
<polygon fill="none" stroke="#000000" points="94,-36 40,-36 40,0 94,0 94,-36"/>
<text text-anchor="middle" x="67" y="-15.5" font-family="Helvetica,sans-Serif" font-size="10.00" fill="#000000">core</text>
</a>
</g>
</g>
<!-- dir_22989c2cd059a3c167de71a175e55e01&#45;&gt;dir_3d3615e9a999cab4f3407307569d6ced -->
<g id="edge2" class="edge">
<title>dir_22989c2cd059a3c167de71a175e55e01&#45;&gt;dir_3d3615e9a999cab4f3407307569d6ced</title>
<path fill="none" stroke="#000000" d="M71.415,-143.5804C73.1709,-133.1767 75.1226,-119.9092 76,-108 77.1756,-92.0432 77.3197,-87.9455 76,-72 75.3055,-63.6085 74.0138,-54.5578 72.6214,-46.3092"/>
<polygon fill="#000000" stroke="#000000" points="76.0544,-45.6235 70.8413,-36.3999 69.1647,-46.8612 76.0544,-45.6235"/>
<g id="a_edge2&#45;headlabel"><a xlink:href="dir_000025_000009.html" target="_top" xlink:title="7">
<text text-anchor="middle" x="79.4844" y="-46.1595" font-family="Helvetica,sans-Serif" font-size="10.00" fill="#000000">7</text>
</a>
</g>
</g>
<!-- dir_7f7a014517bfe31ea45620a6a947e37b&#45;&gt;dir_3d3615e9a999cab4f3407307569d6ced -->
<g id="edge3" class="edge">
<title>dir_7f7a014517bfe31ea45620a6a947e37b&#45;&gt;dir_3d3615e9a999cab4f3407307569d6ced</title>
<path fill="none" stroke="#000000" d="M46.8132,-71.8314C49.7644,-63.9617 53.2858,-54.5712 56.555,-45.8533"/>
<polygon fill="#000000" stroke="#000000" points="59.8609,-47.0055 60.095,-36.4133 53.3066,-44.5476 59.8609,-47.0055"/>
<g id="a_edge3&#45;headlabel"><a xlink:href="dir_000011_000009.html" target="_top" xlink:title="1">
<text text-anchor="middle" x="61.2573" y="-48.8682" font-family="Helvetica,sans-Serif" font-size="10.00" fill="#000000">1</text>
</a>
</g>
</g>
</g>
</svg>
