<?xml version="1.0" encoding="UTF-8" standalone="no"?>
<!DOCTYPE svg PUBLIC "-//W3C//DTD SVG 1.1//EN"
 "http://www.w3.org/Graphics/SVG/1.1/DTD/svg11.dtd">
<!-- Generated by graphviz version 2.40.1 (20161225.0304)
 -->
<!-- Title: physics Pages: 1 -->
<svg width="220pt" height="303pt"
 viewBox="0.00 0.00 220.00 303.00" xmlns="http://www.w3.org/2000/svg" xmlns:xlink="http://www.w3.org/1999/xlink">
<g id="graph0" class="graph" transform="scale(1 1) rotate(0) translate(4 299)">
<title>physics</title>
<polygon fill="#ffffff" stroke="transparent" points="-4,4 -4,-299 216,-299 216,4 -4,4"/>
<g id="clust1" class="cluster">
<title>clusterdir_d85575251dd712327fe3cf057fa568b4</title>
<g id="a_clust1"><a xlink:href="dir_d85575251dd712327fe3cf057fa568b4.html" target="_top" xlink:title="amr&#45;wind">
<polygon fill="#ddddee" stroke="#000000" points="36,-200 36,-287 204,-287 204,-200 36,-200"/>
<text text-anchor="middle" x="120" y="-275" font-family="Helvetica,sans-Serif" font-size="10.00" fill="#000000">amr&#45;wind</text>
</a>
</g>
</g>
<g id="clust2" class="cluster">
<title>clusterdir_f2c65bfcbdc19ebacbfc0bbbfb0d01b6</title>
<g id="a_clust2"><a xlink:href="dir_f2c65bfcbdc19ebacbfc0bbbfb0d01b6.html" target="_top">
<polygon fill="#eeeeff" stroke="#000000" points="44,-208 44,-260 196,-260 196,-208 44,-208"/>
</a>
</g>
</g>
<!-- dir_f2c65bfcbdc19ebacbfc0bbbfb0d01b6 -->
<g id="node1" class="node">
<title>dir_f2c65bfcbdc19ebacbfc0bbbfb0d01b6</title>
<text text-anchor="middle" x="79" y="-231.5" font-family="Helvetica,sans-Serif" font-size="10.00" fill="#000000">physics</text>
</g>
<!-- dir_0c368f76a33d967d5b838b5681461de6 -->
<g id="node3" class="node">
<title>dir_0c368f76a33d967d5b838b5681461de6</title>
<g id="a_node3"><a xlink:href="dir_0c368f76a33d967d5b838b5681461de6.html" target="_top" xlink:title="wind_energy">
<polygon fill="none" stroke="#000000" points="119.5,-180 48.5,-180 48.5,-144 119.5,-144 119.5,-180"/>
<text text-anchor="middle" x="84" y="-159.5" font-family="Helvetica,sans-Serif" font-size="10.00" fill="#000000">wind_energy</text>
</a>
</g>
</g>
<!-- dir_f2c65bfcbdc19ebacbfc0bbbfb0d01b6&#45;&gt;dir_0c368f76a33d967d5b838b5681461de6 -->
<g id="edge1" class="edge">
<title>dir_f2c65bfcbdc19ebacbfc0bbbfb0d01b6&#45;&gt;dir_0c368f76a33d967d5b838b5681461de6</title>
<path fill="none" stroke="#000000" d="M80.2617,-215.8314C80.7965,-208.131 81.4323,-198.9743 82.0266,-190.4166"/>
<polygon fill="#000000" stroke="#000000" points="85.52,-190.6317 82.7213,-180.4133 78.5368,-190.1467 85.52,-190.6317"/>
<g id="a_edge1&#45;headlabel"><a xlink:href="dir_000007_000001.html" target="_top" xlink:title="1">
<text text-anchor="middle" x="88.1035" y="-191.9144" font-family="Helvetica,sans-Serif" font-size="10.00" fill="#000000">1</text>
</a>
</g>
</g>
<!-- dir_e4cd57caa88bf1f4e1bf9521bc47c3c0 -->
<g id="node4" class="node">
<title>dir_e4cd57caa88bf1f4e1bf9521bc47c3c0</title>
<g id="a_node4"><a xlink:href="dir_e4cd57caa88bf1f4e1bf9521bc47c3c0.html" target="_top" xlink:title="utilities">
<polygon fill="#ffffff" stroke="#ff0000" points="54,-108 0,-108 0,-72 54,-72 54,-108"/>
<text text-anchor="middle" x="27" y="-87.5" font-family="Helvetica,sans-Serif" font-size="10.00" fill="#000000">utilities</text>
</a>
</g>
</g>
<!-- dir_f2c65bfcbdc19ebacbfc0bbbfb0d01b6&#45;&gt;dir_e4cd57caa88bf1f4e1bf9521bc47c3c0 -->
<g id="edge2" class="edge">
<title>dir_f2c65bfcbdc19ebacbfc0bbbfb0d01b6&#45;&gt;dir_e4cd57caa88bf1f4e1bf9521bc47c3c0</title>
<path fill="none" stroke="#000000" d="M62.4794,-215.853C54.397,-205.9557 45.2916,-193.0786 40,-180 32.0308,-160.3038 28.8478,-136.4423 27.6211,-118.2389"/>
<polygon fill="#000000" stroke="#000000" points="31.1164,-118.0546 27.1036,-108.2491 24.1258,-118.4168 31.1164,-118.0546"/>
<g id="a_edge2&#45;headlabel"><a xlink:href="dir_000007_000005.html" target="_top" xlink:title="4">
<text text-anchor="middle" x="34.1378" y="-118.9975" font-family="Helvetica,sans-Serif" font-size="10.00" fill="#000000">4</text>
</a>
</g>
</g>
<!-- dir_e037da66ad872c58acfc861df6f5c212 -->
<g id="node2" class="node">
<title>dir_e037da66ad872c58acfc861df6f5c212</title>
<g id="a_node2"><a xlink:href="dir_e037da66ad872c58acfc861df6f5c212.html" target="_top" xlink:title="multiphase">
<polygon fill="#ffffff" stroke="#000000" points="188,-252 124,-252 124,-216 188,-216 188,-252"/>
<text text-anchor="middle" x="156" y="-231.5" font-family="Helvetica,sans-Serif" font-size="10.00" fill="#000000">multiphase</text>
</a>
</g>
</g>
<!-- dir_7f7a014517bfe31ea45620a6a947e37b -->
<g id="node5" class="node">
<title>dir_7f7a014517bfe31ea45620a6a947e37b</title>
<g id="a_node5"><a xlink:href="dir_7f7a014517bfe31ea45620a6a947e37b.html" target="_top" xlink:title="fvm">
<polygon fill="none" stroke="#000000" points="164,-108 110,-108 110,-72 164,-72 164,-108"/>
<text text-anchor="middle" x="137" y="-87.5" font-family="Helvetica,sans-Serif" font-size="10.00" fill="#000000">fvm</text>
</a>
</g>
</g>
<!-- dir_e037da66ad872c58acfc861df6f5c212&#45;&gt;dir_7f7a014517bfe31ea45620a6a947e37b -->
<g id="edge3" class="edge">
<title>dir_e037da66ad872c58acfc861df6f5c212&#45;&gt;dir_7f7a014517bfe31ea45620a6a947e37b</title>
<path fill="none" stroke="#000000" d="M153.5936,-215.7623C150.3529,-191.201 144.5535,-147.2474 140.7412,-118.3541"/>
<polygon fill="#000000" stroke="#000000" points="144.1649,-117.5458 139.3868,-108.0896 137.2251,-118.4616 144.1649,-117.5458"/>
<g id="a_edge3&#45;headlabel"><a xlink:href="dir_000025_000011.html" target="_top" xlink:title="1">
<text text-anchor="middle" x="147.4499" y="-118.2382" font-family="Helvetica,sans-Serif" font-size="10.00" fill="#000000">1</text>
</a>
</g>
</g>
<!-- dir_3d3615e9a999cab4f3407307569d6ced -->
<g id="node6" class="node">
<title>dir_3d3615e9a999cab4f3407307569d6ced</title>
<g id="a_node6"><a xlink:href="dir_3d3615e9a999cab4f3407307569d6ced.html" target="_top" xlink:title="core">
<polygon fill="none" stroke="#000000" points="136,-36 82,-36 82,0 136,0 136,-36"/>
<text text-anchor="middle" x="109" y="-15.5" font-family="Helvetica,sans-Serif" font-size="10.00" fill="#000000">core</text>
</a>
</g>
</g>
<!-- dir_e037da66ad872c58acfc861df6f5c212&#45;&gt;dir_3d3615e9a999cab4f3407307569d6ced -->
<g id="edge4" class="edge">
<title>dir_e037da66ad872c58acfc861df6f5c212&#45;&gt;dir_3d3615e9a999cab4f3407307569d6ced</title>
<path fill="none" stroke="#000000" d="M163.7032,-215.9874C175.7334,-184.9817 195.403,-120.2147 173,-72 166.8381,-58.7387 155.638,-47.5619 144.3101,-38.8788"/>
<polygon fill="#000000" stroke="#000000" points="146.2766,-35.9822 136.1093,-33.0028 142.1995,-41.6723 146.2766,-35.9822"/>
<g id="a_edge4&#45;headlabel"><a xlink:href="dir_000025_000009.html" target="_top" xlink:title="7">
<text text-anchor="middle" x="150.8523" y="-33.2678" font-family="Helvetica,sans-Serif" font-size="10.00" fill="#000000">7</text>
</a>
</g>
</g>
<!-- dir_0c368f76a33d967d5b838b5681461de6&#45;&gt;dir_e4cd57caa88bf1f4e1bf9521bc47c3c0 -->
<g id="edge5" class="edge">
<title>dir_0c368f76a33d967d5b838b5681461de6&#45;&gt;dir_e4cd57caa88bf1f4e1bf9521bc47c3c0</title>
<path fill="none" stroke="#000000" d="M69.6165,-143.8314C63.0514,-135.5386 55.1493,-125.557 47.9422,-116.4533"/>
<polygon fill="#000000" stroke="#000000" points="50.5284,-114.0813 41.5772,-108.4133 45.0401,-118.4262 50.5284,-114.0813"/>
<g id="a_edge5&#45;headlabel"><a xlink:href="dir_000001_000005.html" target="_top" xlink:title="19">
<text text-anchor="middle" x="54.9857" y="-112.6373" font-family="Helvetica,sans-Serif" font-size="10.00" fill="#000000">19</text>
</a>
</g>
</g>
<!-- dir_0c368f76a33d967d5b838b5681461de6&#45;&gt;dir_7f7a014517bfe31ea45620a6a947e37b -->
<g id="edge6" class="edge">
<title>dir_0c368f76a33d967d5b838b5681461de6&#45;&gt;dir_7f7a014517bfe31ea45620a6a947e37b</title>
<path fill="none" stroke="#000000" d="M97.3741,-143.8314C103.4162,-135.6232 110.6763,-125.7606 117.3221,-116.7323"/>
<polygon fill="#000000" stroke="#000000" points="120.3363,-118.5415 123.4458,-108.4133 114.6989,-114.3918 120.3363,-118.5415"/>
<g id="a_edge6&#45;headlabel"><a xlink:href="dir_000001_000011.html" target="_top" xlink:title="1">
<text text-anchor="middle" x="120.4919" y="-120.6195" font-family="Helvetica,sans-Serif" font-size="10.00" fill="#000000">1</text>
</a>
</g>
</g>
<!-- dir_0c368f76a33d967d5b838b5681461de6&#45;&gt;dir_3d3615e9a999cab4f3407307569d6ced -->
<g id="edge7" class="edge">
<title>dir_0c368f76a33d967d5b838b5681461de6&#45;&gt;dir_3d3615e9a999cab4f3407307569d6ced</title>
<path fill="none" stroke="#000000" d="M87.1663,-143.7623C91.4492,-119.0928 99.1285,-74.8598 104.1436,-45.9731"/>
<polygon fill="#000000" stroke="#000000" points="107.5973,-46.541 105.8594,-36.0896 100.7004,-45.3435 107.5973,-46.541"/>
<g id="a_edge7&#45;headlabel"><a xlink:href="dir_000001_000009.html" target="_top" xlink:title="7">
<text text-anchor="middle" x="109.7799" y="-48.0682" font-family="Helvetica,sans-Serif" font-size="10.00" fill="#000000">7</text>
</a>
</g>
</g>
<!-- dir_e4cd57caa88bf1f4e1bf9521bc47c3c0&#45;&gt;dir_3d3615e9a999cab4f3407307569d6ced -->
<g id="edge8" class="edge">
<title>dir_e4cd57caa88bf1f4e1bf9521bc47c3c0&#45;&gt;dir_3d3615e9a999cab4f3407307569d6ced</title>
<path fill="none" stroke="#000000" d="M47.6921,-71.8314C57.6948,-63.0485 69.855,-52.3712 80.6999,-42.8489"/>
<polygon fill="#000000" stroke="#000000" points="83.1094,-45.3909 88.3146,-36.1628 78.4908,-40.1308 83.1094,-45.3909"/>
<g id="a_edge8&#45;headlabel"><a xlink:href="dir_000005_000009.html" target="_top" xlink:title="8">
<text text-anchor="middle" x="82.2817" y="-47.3962" font-family="Helvetica,sans-Serif" font-size="10.00" fill="#000000">8</text>
</a>
</g>
</g>
<!-- dir_7f7a014517bfe31ea45620a6a947e37b&#45;&gt;dir_3d3615e9a999cab4f3407307569d6ced -->
<g id="edge9" class="edge">
<title>dir_7f7a014517bfe31ea45620a6a947e37b&#45;&gt;dir_3d3615e9a999cab4f3407307569d6ced</title>
<path fill="none" stroke="#000000" d="M129.9344,-71.8314C126.874,-63.9617 123.2221,-54.5712 119.8318,-45.8533"/>
<polygon fill="#000000" stroke="#000000" points="123.0473,-44.4647 116.1607,-36.4133 116.5232,-47.0019 123.0473,-44.4647"/>
<g id="a_edge9&#45;headlabel"><a xlink:href="dir_000011_000009.html" target="_top" xlink:title="1">
<text text-anchor="middle" x="126.9963" y="-44.2859" font-family="Helvetica,sans-Serif" font-size="10.00" fill="#000000">1</text>
</a>
</g>
</g>
</g>
</svg>
