<?xml version="1.0" encoding="UTF-8" standalone="no"?>
<!DOCTYPE svg PUBLIC "-//W3C//DTD SVG 1.1//EN"
 "http://www.w3.org/Graphics/SVG/1.1/DTD/svg11.dtd">
<!-- Generated by graphviz version 2.40.1 (20161225.0304)
 -->
<!-- Title: wind_energy Pages: 1 -->
<svg width="188pt" height="295pt"
 viewBox="0.00 0.00 188.31 295.00" xmlns="http://www.w3.org/2000/svg" xmlns:xlink="http://www.w3.org/1999/xlink">
<g id="graph0" class="graph" transform="scale(1 1) rotate(0) translate(4 291)">
<title>wind_energy</title>
<polygon fill="#ffffff" stroke="transparent" points="-4,4 -4,-291 184.3095,-291 184.3095,4 -4,4"/>
<g id="clust1" class="cluster">
<title>clusterdir_d85575251dd712327fe3cf057fa568b4</title>
<g id="a_clust1"><a xlink:href="dir_d85575251dd712327fe3cf057fa568b4.html" target="_top" xlink:title="amr&#45;wind">
<polygon fill="#ddddee" stroke="#000000" points="74,-208 74,-279 162,-279 162,-208 74,-208"/>
<text text-anchor="middle" x="118" y="-267" font-family="Helvetica,sans-Serif" font-size="10.00" fill="#000000">amr&#45;wind</text>
</a>
</g>
</g>
<!-- dir_0c368f76a33d967d5b838b5681461de6 -->
<g id="node1" class="node">
<title>dir_0c368f76a33d967d5b838b5681461de6</title>
<g id="a_node1"><a xlink:href="dir_0c368f76a33d967d5b838b5681461de6.html" target="_top" xlink:title="wind_energy">
<polygon fill="#eeeeff" stroke="#000000" points="153.5,-252 82.5,-252 82.5,-216 153.5,-216 153.5,-252"/>
<text text-anchor="middle" x="118" y="-231.5" font-family="Helvetica,sans-Serif" font-size="10.00" fill="#000000">wind_energy</text>
</a>
</g>
</g>
<!-- dir_e4cd57caa88bf1f4e1bf9521bc47c3c0 -->
<g id="node2" class="node">
<title>dir_e4cd57caa88bf1f4e1bf9521bc47c3c0</title>
<g id="a_node2"><a xlink:href="dir_e4cd57caa88bf1f4e1bf9521bc47c3c0.html" target="_top" xlink:title="utilities">
<polygon fill="#ffffff" stroke="#ff0000" points="54,-108 0,-108 0,-72 54,-72 54,-108"/>
<text text-anchor="middle" x="27" y="-87.5" font-family="Helvetica,sans-Serif" font-size="10.00" fill="#000000">utilities</text>
</a>
</g>
</g>
<!-- dir_0c368f76a33d967d5b838b5681461de6&#45;&gt;dir_e4cd57caa88bf1f4e1bf9521bc47c3c0 -->
<g id="edge1" class="edge">
<title>dir_0c368f76a33d967d5b838b5681461de6&#45;&gt;dir_e4cd57caa88bf1f4e1bf9521bc47c3c0</title>
<path fill="none" stroke="#000000" d="M82.0698,-223.685C60.8353,-215.5323 35.6893,-201.8089 23,-180 12.1822,-161.4076 14.1422,-136.8165 18.2729,-118.0381"/>
<polygon fill="#000000" stroke="#000000" points="21.6827,-118.8301 20.7237,-108.2787 14.8935,-117.1251 21.6827,-118.8301"/>
<g id="a_edge1&#45;headlabel"><a xlink:href="dir_000001_000005.html" target="_top" xlink:title="7">
<text text-anchor="middle" x="23.561" y="-120.5079" font-family="Helvetica,sans-Serif" font-size="10.00" fill="#000000">7</text>
</a>
</g>
</g>
<!-- dir_a816a247b59c90f95e41afe29b966a18 -->
<g id="node3" class="node">
<title>dir_a816a247b59c90f95e41afe29b966a18</title>
<g id="a_node3"><a xlink:href="dir_a816a247b59c90f95e41afe29b966a18.html" target="_top" xlink:title="diffusion">
<polygon fill="none" stroke="#000000" points="164,-108 110,-108 110,-72 164,-72 164,-108"/>
<text text-anchor="middle" x="137" y="-87.5" font-family="Helvetica,sans-Serif" font-size="10.00" fill="#000000">diffusion</text>
</a>
</g>
</g>
<!-- dir_0c368f76a33d967d5b838b5681461de6&#45;&gt;dir_a816a247b59c90f95e41afe29b966a18 -->
<g id="edge2" class="edge">
<title>dir_0c368f76a33d967d5b838b5681461de6&#45;&gt;dir_a816a247b59c90f95e41afe29b966a18</title>
<path fill="none" stroke="#000000" d="M126.0917,-215.9165C130.2561,-205.6179 134.8918,-192.3436 137,-180 140.5019,-159.4961 140.3617,-135.9793 139.4203,-118.1277"/>
<polygon fill="#000000" stroke="#000000" points="142.9089,-117.8356 138.7756,-108.0802 135.9233,-118.2839 142.9089,-117.8356"/>
<g id="a_edge2&#45;headlabel"><a xlink:href="dir_000001_000013.html" target="_top" xlink:title="1">
<text text-anchor="middle" x="145.9724" y="-118.741" font-family="Helvetica,sans-Serif" font-size="10.00" fill="#000000">1</text>
</a>
</g>
</g>
<!-- dir_3d3615e9a999cab4f3407307569d6ced -->
<g id="node4" class="node">
<title>dir_3d3615e9a999cab4f3407307569d6ced</title>
<g id="a_node4"><a xlink:href="dir_3d3615e9a999cab4f3407307569d6ced.html" target="_top" xlink:title="core">
<polygon fill="none" stroke="#000000" points="136,-36 82,-36 82,0 136,0 136,-36"/>
<text text-anchor="middle" x="109" y="-15.5" font-family="Helvetica,sans-Serif" font-size="10.00" fill="#000000">core</text>
</a>
</g>
</g>
<!-- dir_0c368f76a33d967d5b838b5681461de6&#45;&gt;dir_3d3615e9a999cab4f3407307569d6ced -->
<g id="edge3" class="edge">
<title>dir_0c368f76a33d967d5b838b5681461de6&#45;&gt;dir_3d3615e9a999cab4f3407307569d6ced</title>
<path fill="none" stroke="#000000" d="M133.3095,-215.5245C156.6968,-184.9176 196.2794,-122.1009 173,-72 166.8381,-58.7387 155.638,-47.5619 144.3101,-38.8788"/>
<polygon fill="#000000" stroke="#000000" points="146.2766,-35.9822 136.1093,-33.0028 142.1995,-41.6723 146.2766,-35.9822"/>
<g id="a_edge3&#45;headlabel"><a xlink:href="dir_000001_000009.html" target="_top" xlink:title="4">
<text text-anchor="middle" x="150.8523" y="-33.2678" font-family="Helvetica,sans-Serif" font-size="10.00" fill="#000000">4</text>
</a>
</g>
</g>
<!-- dir_4bb30ed846ea1df1fc4d16874a455d91 -->
<g id="node5" class="node">
<title>dir_4bb30ed846ea1df1fc4d16874a455d91</title>
<g id="a_node5"><a xlink:href="dir_4bb30ed846ea1df1fc4d16874a455d91.html" target="_top" xlink:title="equation_systems">
<polygon fill="#ffffff" stroke="#ff0000" points="128,-180 32,-180 32,-144 128,-144 128,-180"/>
<text text-anchor="middle" x="80" y="-159.5" font-family="Helvetica,sans-Serif" font-size="10.00" fill="#000000">equation_systems</text>
</a>
</g>
</g>
<!-- dir_0c368f76a33d967d5b838b5681461de6&#45;&gt;dir_4bb30ed846ea1df1fc4d16874a455d91 -->
<g id="edge4" class="edge">
<title>dir_0c368f76a33d967d5b838b5681461de6&#45;&gt;dir_4bb30ed846ea1df1fc4d16874a455d91</title>
<path fill="none" stroke="#000000" d="M108.411,-215.8314C104.1683,-207.7925 99.0879,-198.1666 94.404,-189.2918"/>
<polygon fill="#000000" stroke="#000000" points="97.4811,-187.6235 89.7181,-180.4133 91.2904,-190.8908 97.4811,-187.6235"/>
<g id="a_edge4&#45;headlabel"><a xlink:href="dir_000001_000002.html" target="_top" xlink:title="1">
<text text-anchor="middle" x="101.6699" y="-186.9772" font-family="Helvetica,sans-Serif" font-size="10.00" fill="#000000">1</text>
</a>
</g>
</g>
<!-- dir_e4cd57caa88bf1f4e1bf9521bc47c3c0&#45;&gt;dir_3d3615e9a999cab4f3407307569d6ced -->
<g id="edge5" class="edge">
<title>dir_e4cd57caa88bf1f4e1bf9521bc47c3c0&#45;&gt;dir_3d3615e9a999cab4f3407307569d6ced</title>
<path fill="none" stroke="#000000" d="M47.6921,-71.8314C57.6948,-63.0485 69.855,-52.3712 80.6999,-42.8489"/>
<polygon fill="#000000" stroke="#000000" points="83.1094,-45.3909 88.3146,-36.1628 78.4908,-40.1308 83.1094,-45.3909"/>
<g id="a_edge5&#45;headlabel"><a xlink:href="dir_000005_000009.html" target="_top" xlink:title="8">
<text text-anchor="middle" x="82.2817" y="-47.3962" font-family="Helvetica,sans-Serif" font-size="10.00" fill="#000000">8</text>
</a>
</g>
</g>
<!-- dir_a816a247b59c90f95e41afe29b966a18&#45;&gt;dir_3d3615e9a999cab4f3407307569d6ced -->
<g id="edge6" class="edge">
<title>dir_a816a247b59c90f95e41afe29b966a18&#45;&gt;dir_3d3615e9a999cab4f3407307569d6ced</title>
<path fill="none" stroke="#000000" d="M129.9344,-71.8314C126.874,-63.9617 123.2221,-54.5712 119.8318,-45.8533"/>
<polygon fill="#000000" stroke="#000000" points="123.0473,-44.4647 116.1607,-36.4133 116.5232,-47.0019 123.0473,-44.4647"/>
<g id="a_edge6&#45;headlabel"><a xlink:href="dir_000013_000009.html" target="_top" xlink:title="1">
<text text-anchor="middle" x="126.9963" y="-44.2859" font-family="Helvetica,sans-Serif" font-size="10.00" fill="#000000">1</text>
</a>
</g>
</g>
<!-- dir_4bb30ed846ea1df1fc4d16874a455d91&#45;&gt;dir_e4cd57caa88bf1f4e1bf9521bc47c3c0 -->
<g id="edge7" class="edge">
<title>dir_4bb30ed846ea1df1fc4d16874a455d91&#45;&gt;dir_e4cd57caa88bf1f4e1bf9521bc47c3c0</title>
<path fill="none" stroke="#000000" d="M66.6259,-143.8314C60.5838,-135.6232 53.3237,-125.7606 46.6779,-116.7323"/>
<polygon fill="#000000" stroke="#000000" points="49.3011,-114.3918 40.5542,-108.4133 43.6637,-118.5415 49.3011,-114.3918"/>
<g id="a_edge7&#45;headlabel"><a xlink:href="dir_000002_000005.html" target="_top" xlink:title="9">
<text text-anchor="middle" x="53.7186" y="-113.1035" font-family="Helvetica,sans-Serif" font-size="10.00" fill="#000000">9</text>
</a>
</g>
</g>
<!-- dir_4bb30ed846ea1df1fc4d16874a455d91&#45;&gt;dir_a816a247b59c90f95e41afe29b966a18 -->
<g id="edge8" class="edge">
<title>dir_4bb30ed846ea1df1fc4d16874a455d91&#45;&gt;dir_a816a247b59c90f95e41afe29b966a18</title>
<path fill="none" stroke="#000000" d="M94.3835,-143.8314C100.9486,-135.5386 108.8507,-125.557 116.0578,-116.4533"/>
<polygon fill="#000000" stroke="#000000" points="118.9599,-118.4262 122.4228,-108.4133 113.4716,-114.0813 118.9599,-118.4262"/>
<g id="a_edge8&#45;headlabel"><a xlink:href="dir_000002_000013.html" target="_top" xlink:title="1">
<text text-anchor="middle" x="118.9549" y="-120.5069" font-family="Helvetica,sans-Serif" font-size="10.00" fill="#000000">1</text>
</a>
</g>
</g>
<!-- dir_4bb30ed846ea1df1fc4d16874a455d91&#45;&gt;dir_3d3615e9a999cab4f3407307569d6ced -->
<g id="edge9" class="edge">
<title>dir_4bb30ed846ea1df1fc4d16874a455d91&#45;&gt;dir_3d3615e9a999cab4f3407307569d6ced</title>
<path fill="none" stroke="#000000" d="M83.6729,-143.7623C88.641,-119.0928 97.5491,-74.8598 103.3665,-45.9731"/>
<polygon fill="#000000" stroke="#000000" points="106.8137,-46.5838 105.357,-36.0896 99.9515,-45.2018 106.8137,-46.5838"/>
<g id="a_edge9&#45;headlabel"><a xlink:href="dir_000002_000009.html" target="_top" xlink:title="43">
<text text-anchor="middle" x="108.8875" y="-48.1682" font-family="Helvetica,sans-Serif" font-size="10.00" fill="#000000">43</text>
</a>
</g>
</g>
</g>
</svg>
