<?xml version="1.0" encoding="UTF-8" standalone="no"?>
<!DOCTYPE svg PUBLIC "-//W3C//DTD SVG 1.1//EN"
 "http://www.w3.org/Graphics/SVG/1.1/DTD/svg11.dtd">
<!-- Generated by graphviz version 2.40.1 (20161225.0304)
 -->
<!-- Title: field_ops.H Pages: 1 -->
<svg width="891pt" height="207pt"
 viewBox="0.00 0.00 890.50 207.00" xmlns="http://www.w3.org/2000/svg" xmlns:xlink="http://www.w3.org/1999/xlink">
<g id="graph0" class="graph" transform="scale(1 1) rotate(0) translate(4 203)">
<title>field_ops.H</title>
<polygon fill="#ffffff" stroke="transparent" points="-4,4 -4,-203 886.5,-203 886.5,4 -4,4"/>
<!-- Node10 -->
<g id="node1" class="node">
<title>Node10</title>
<polygon fill="#bfbfbf" stroke="#000000" points="349,-179.5 349,-198.5 415,-198.5 415,-179.5 349,-179.5"/>
<text text-anchor="middle" x="382" y="-186.5" font-family="Helvetica,sans-Serif" font-size="10.00" fill="#000000">field_ops.H</text>
</g>
<!-- Node11 -->
<g id="node2" class="node">
<title>Node11</title>
<g id="a_node2"><a xlink:href="icns__ops_8cpp.html" target="_top" xlink:title="icns_ops.cpp">
<polygon fill="#ffffff" stroke="#000000" points="0,-118 0,-137 74,-137 74,-118 0,-118"/>
<text text-anchor="middle" x="37" y="-125" font-family="Helvetica,sans-Serif" font-size="10.00" fill="#000000">icns_ops.cpp</text>
</a>
</g>
</g>
<!-- Node10&#45;&gt;Node11 -->
<g id="edge1" class="edge">
<title>Node10&#45;&gt;Node11</title>
<path fill="none" stroke="#191970" d="M338.9007,-184.7306C280.3792,-178.3993 172.7799,-164.8592 83,-143 76.4495,-141.4051 69.5009,-139.2934 63.0427,-137.1435"/>
<polygon fill="#191970" stroke="#191970" points="338.5826,-188.2164 348.8966,-185.7933 339.3227,-181.2556 338.5826,-188.2164"/>
</g>
<!-- Node12 -->
<g id="node3" class="node">
<title>Node12</title>
<g id="a_node3"><a xlink:href="_t_k_e_8_h.html" target="_top" xlink:title="TKE.H">
<polygon fill="#ffffff" stroke="#000000" points="92.5,-118 92.5,-137 139.5,-137 139.5,-118 92.5,-118"/>
<text text-anchor="middle" x="116" y="-125" font-family="Helvetica,sans-Serif" font-size="10.00" fill="#000000">TKE.H</text>
</a>
</g>
</g>
<!-- Node10&#45;&gt;Node12 -->
<g id="edge2" class="edge">
<title>Node10&#45;&gt;Node12</title>
<path fill="none" stroke="#191970" d="M338.7916,-183.8929C291.1756,-177.4907 212.7513,-164.644 148,-143 143.1993,-141.3953 138.1908,-139.2283 133.6002,-137.0239"/>
<polygon fill="#191970" stroke="#191970" points="338.3879,-187.3699 348.7579,-185.1991 339.2976,-180.4292 338.3879,-187.3699"/>
</g>
<!-- Node15 -->
<g id="node6" class="node">
<title>Node15</title>
<g id="a_node6"><a xlink:href="incflo__advance_8cpp.html" target="_top" xlink:title="incflo_advance.cpp">
<polygon fill="#ffffff" stroke="#000000" points="157.5,-118 157.5,-137 258.5,-137 258.5,-118 157.5,-118"/>
<text text-anchor="middle" x="208" y="-125" font-family="Helvetica,sans-Serif" font-size="10.00" fill="#000000">incflo_advance.cpp</text>
</a>
</g>
</g>
<!-- Node10&#45;&gt;Node15 -->
<g id="edge5" class="edge">
<title>Node10&#45;&gt;Node15</title>
<path fill="none" stroke="#191970" d="M345.0791,-175.9504C312.0932,-164.2916 264.5434,-147.4852 234.9966,-137.0419"/>
<polygon fill="#191970" stroke="#191970" points="344.2177,-179.3581 354.8125,-179.3906 346.5505,-172.7582 344.2177,-179.3581"/>
</g>
<!-- Node16 -->
<g id="node7" class="node">
<title>Node16</title>
<g id="a_node7"><a xlink:href="_tioga_interface_8cpp.html" target="_top" xlink:title="TiogaInterface.cpp">
<polygon fill="#ffffff" stroke="#000000" points="277,-118 277,-137 375,-137 375,-118 277,-118"/>
<text text-anchor="middle" x="326" y="-125" font-family="Helvetica,sans-Serif" font-size="10.00" fill="#000000">TiogaInterface.cpp</text>
</a>
</g>
</g>
<!-- Node10&#45;&gt;Node16 -->
<g id="edge6" class="edge">
<title>Node10&#45;&gt;Node16</title>
<path fill="none" stroke="#191970" d="M366.4299,-171.9007C356.2553,-160.7268 343.3332,-146.5356 334.8734,-137.2449"/>
<polygon fill="#191970" stroke="#191970" points="363.9294,-174.3531 373.25,-179.3906 369.1052,-169.6402 363.9294,-174.3531"/>
</g>
<!-- Node17 -->
<g id="node8" class="node">
<title>Node17</title>
<g id="a_node8"><a xlink:href="_zalesak_disk_8cpp.html" target="_top" xlink:title="ZalesakDisk.cpp">
<polygon fill="#ffffff" stroke="#000000" points="393,-118 393,-137 483,-137 483,-118 393,-118"/>
<text text-anchor="middle" x="438" y="-125" font-family="Helvetica,sans-Serif" font-size="10.00" fill="#000000">ZalesakDisk.cpp</text>
</a>
</g>
</g>
<!-- Node10&#45;&gt;Node17 -->
<g id="edge7" class="edge">
<title>Node10&#45;&gt;Node17</title>
<path fill="none" stroke="#191970" d="M397.5701,-171.9007C407.7447,-160.7268 420.6668,-146.5356 429.1266,-137.2449"/>
<polygon fill="#191970" stroke="#191970" points="394.8948,-169.6402 390.75,-179.3906 400.0706,-174.3531 394.8948,-169.6402"/>
</g>
<!-- Node18 -->
<g id="node9" class="node">
<title>Node18</title>
<g id="a_node9"><a xlink:href="incflo__apply__nodal__projection_8cpp.html" target="_top" xlink:title="incflo_apply_nodal\l_projection.cpp">
<polygon fill="#ffffff" stroke="#000000" points="501.5,-112.5 501.5,-142.5 598.5,-142.5 598.5,-112.5 501.5,-112.5"/>
<text text-anchor="start" x="509.5" y="-130.5" font-family="Helvetica,sans-Serif" font-size="10.00" fill="#000000">incflo_apply_nodal</text>
<text text-anchor="middle" x="550" y="-119.5" font-family="Helvetica,sans-Serif" font-size="10.00" fill="#000000">_projection.cpp</text>
</a>
</g>
</g>
<!-- Node10&#45;&gt;Node18 -->
<g id="edge8" class="edge">
<title>Node10&#45;&gt;Node18</title>
<path fill="none" stroke="#191970" d="M417.9613,-175.8356C444.6442,-166.0678 481.0688,-152.7338 508.9026,-142.5446"/>
<polygon fill="#191970" stroke="#191970" points="416.4374,-172.6662 408.25,-179.3906 418.8438,-179.2396 416.4374,-172.6662"/>
</g>
<!-- Node19 -->
<g id="node10" class="node">
<title>Node19</title>
<g id="a_node10"><a xlink:href="_laminar_model_8cpp.html" target="_top" xlink:title="LaminarModel.cpp">
<polygon fill="#ffffff" stroke="#000000" points="617,-118 617,-137 713,-137 713,-118 617,-118"/>
<text text-anchor="middle" x="665" y="-125" font-family="Helvetica,sans-Serif" font-size="10.00" fill="#000000">LaminarModel.cpp</text>
</a>
</g>
</g>
<!-- Node10&#45;&gt;Node19 -->
<g id="edge9" class="edge">
<title>Node10&#45;&gt;Node19</title>
<path fill="none" stroke="#191970" d="M425.3938,-180.9225C470.8292,-172.2795 544.1742,-157.8032 607,-143 614.7102,-141.1833 622.9543,-139.0792 630.7357,-137.0184"/>
<polygon fill="#191970" stroke="#191970" points="424.4766,-177.5339 415.3024,-182.8335 425.779,-184.4117 424.4766,-177.5339"/>
</g>
<!-- Node20 -->
<g id="node11" class="node">
<title>Node20</title>
<g id="a_node11"><a xlink:href="_turb_model_base_8_h.html" target="_top" xlink:title="TurbModelBase.H">
<polygon fill="#ffffff" stroke="#000000" points="731.5,-118 731.5,-137 826.5,-137 826.5,-118 731.5,-118"/>
<text text-anchor="middle" x="779" y="-125" font-family="Helvetica,sans-Serif" font-size="10.00" fill="#000000">TurbModelBase.H</text>
</a>
</g>
</g>
<!-- Node10&#45;&gt;Node20 -->
<g id="edge10" class="edge">
<title>Node10&#45;&gt;Node20</title>
<path fill="none" stroke="#191970" d="M425.3181,-184.9762C490.2242,-178.5338 616.3775,-164.41 722,-143 730.1411,-141.3498 738.8369,-139.1921 746.9213,-137.0133"/>
<polygon fill="#191970" stroke="#191970" points="424.6729,-181.5225 415.0617,-185.9806 425.3553,-188.4892 424.6729,-181.5225"/>
</g>
<!-- Node13 -->
<g id="node4" class="node">
<title>Node13</title>
<g id="a_node4"><a xlink:href="_t_k_e_8cpp.html" target="_top" xlink:title="TKE.cpp">
<polygon fill="#ffffff" stroke="#000000" points="88.5,-56.5 88.5,-75.5 143.5,-75.5 143.5,-56.5 88.5,-56.5"/>
<text text-anchor="middle" x="116" y="-63.5" font-family="Helvetica,sans-Serif" font-size="10.00" fill="#000000">TKE.cpp</text>
</a>
</g>
</g>
<!-- Node12&#45;&gt;Node13 -->
<g id="edge3" class="edge">
<title>Node12&#45;&gt;Node13</title>
<path fill="none" stroke="#191970" d="M116,-107.7462C116,-97.0519 116,-84.314 116,-75.7449"/>
<polygon fill="#191970" stroke="#191970" points="112.5001,-107.8906 116,-117.8906 119.5001,-107.8907 112.5001,-107.8906"/>
</g>
<!-- Node14 -->
<g id="node5" class="node">
<title>Node14</title>
<g id="a_node5"><a xlink:href="_one_eq_ksgs_8cpp.html" target="_top" xlink:title="OneEqKsgs.cpp">
<polygon fill="#ffffff" stroke="#000000" points="378,-.5 378,-19.5 466,-19.5 466,-.5 378,-.5"/>
<text text-anchor="middle" x="422" y="-7.5" font-family="Helvetica,sans-Serif" font-size="10.00" fill="#000000">OneEqKsgs.cpp</text>
</a>
</g>
</g>
<!-- Node12&#45;&gt;Node14 -->
<g id="edge4" class="edge">
<title>Node12&#45;&gt;Node14</title>
<path fill="none" stroke="#191970" d="M144.4084,-113.5686C145.6177,-113.0298 146.8185,-112.5047 148,-112 236.2213,-74.3133 343.5246,-36.6773 393.6482,-19.5587"/>
<polygon fill="#191970" stroke="#191970" points="142.7557,-110.4769 135.1547,-117.8576 145.6994,-116.8279 142.7557,-110.4769"/>
</g>
<!-- Node21 -->
<g id="node12" class="node">
<title>Node21</title>
<g id="a_node12"><a xlink:href="_one_eq_ksgs_8_h.html" target="_top" xlink:title="OneEqKsgs.H">
<polygon fill="#ffffff" stroke="#000000" points="483,-56.5 483,-75.5 563,-75.5 563,-56.5 483,-56.5"/>
<text text-anchor="middle" x="523" y="-63.5" font-family="Helvetica,sans-Serif" font-size="10.00" fill="#000000">OneEqKsgs.H</text>
</a>
</g>
</g>
<!-- Node20&#45;&gt;Node21 -->
<g id="edge11" class="edge">
<title>Node20&#45;&gt;Node21</title>
<path fill="none" stroke="#191970" d="M734.74,-115.286C730.4404,-114.1532 726.1399,-113.0409 722,-112 667.1493,-98.2081 603.3984,-83.7456 563.1302,-74.8019"/>
<polygon fill="#191970" stroke="#191970" points="734.13,-118.7456 744.6944,-117.9427 735.9351,-111.9823 734.13,-118.7456"/>
</g>
<!-- Node22 -->
<g id="node13" class="node">
<title>Node22</title>
<g id="a_node13"><a xlink:href="_smagorinsky_8_h.html" target="_top" xlink:title="Smagorinsky.H">
<polygon fill="#ffffff" stroke="#000000" points="737,-56.5 737,-75.5 821,-75.5 821,-56.5 737,-56.5"/>
<text text-anchor="middle" x="779" y="-63.5" font-family="Helvetica,sans-Serif" font-size="10.00" fill="#000000">Smagorinsky.H</text>
</a>
</g>
</g>
<!-- Node20&#45;&gt;Node22 -->
<g id="edge13" class="edge">
<title>Node20&#45;&gt;Node22</title>
<path fill="none" stroke="#191970" d="M779,-107.7462C779,-97.0519 779,-84.314 779,-75.7449"/>
<polygon fill="#191970" stroke="#191970" points="775.5001,-107.8906 779,-117.8906 782.5001,-107.8907 775.5001,-107.8906"/>
</g>
<!-- Node21&#45;&gt;Node14 -->
<g id="edge12" class="edge">
<title>Node21&#45;&gt;Node14</title>
<path fill="none" stroke="#191970" d="M496.5281,-51.3225C478.4875,-41.3198 455.1123,-28.3593 439.3913,-19.6427"/>
<polygon fill="#191970" stroke="#191970" points="494.9643,-54.4574 505.4071,-56.2455 498.3587,-48.3354 494.9643,-54.4574"/>
</g>
<!-- Node23 -->
<g id="node14" class="node">
<title>Node23</title>
<g id="a_node14"><a xlink:href="_smagorinsky_8cpp.html" target="_top" xlink:title="Smagorinsky.cpp">
<polygon fill="#ffffff" stroke="#000000" points="677,-.5 677,-19.5 769,-19.5 769,-.5 677,-.5"/>
<text text-anchor="middle" x="723" y="-7.5" font-family="Helvetica,sans-Serif" font-size="10.00" fill="#000000">Smagorinsky.cpp</text>
</a>
</g>
</g>
<!-- Node22&#45;&gt;Node23 -->
<g id="edge14" class="edge">
<title>Node22&#45;&gt;Node23</title>
<path fill="none" stroke="#191970" d="M762.0751,-49.0751C752.4402,-39.4402 740.7196,-27.7196 732.6427,-19.6427"/>
<polygon fill="#191970" stroke="#191970" points="759.6996,-51.6493 769.2455,-56.2455 764.6493,-46.6996 759.6996,-51.6493"/>
</g>
<!-- Node24 -->
<g id="node15" class="node">
<title>Node24</title>
<g id="a_node15"><a xlink:href="turbulence__utils_8_h.html" target="_top" xlink:title="turbulence_utils.H">
<polygon fill="#ffffff" stroke="#000000" points="787.5,-.5 787.5,-19.5 882.5,-19.5 882.5,-.5 787.5,-.5"/>
<text text-anchor="middle" x="835" y="-7.5" font-family="Helvetica,sans-Serif" font-size="10.00" fill="#000000">turbulence_utils.H</text>
</a>
</g>
</g>
<!-- Node22&#45;&gt;Node24 -->
<g id="edge15" class="edge">
<title>Node22&#45;&gt;Node24</title>
<path fill="none" stroke="#191970" d="M795.9249,-49.0751C805.5598,-39.4402 817.2804,-27.7196 825.3573,-19.6427"/>
<polygon fill="#191970" stroke="#191970" points="793.3507,-46.6996 788.7545,-56.2455 798.3004,-51.6493 793.3507,-46.6996"/>
</g>
</g>
</svg>
