<?xml version="1.0" encoding="UTF-8" standalone="no"?>
<!DOCTYPE svg PUBLIC "-//W3C//DTD SVG 1.1//EN"
 "http://www.w3.org/Graphics/SVG/1.1/DTD/svg11.dtd">
<!-- Generated by graphviz version 2.40.1 (20161225.0304)
 -->
<!-- Title: field_ops.H Pages: 1 -->
<svg width="393pt" height="196pt"
 viewBox="0.00 0.00 393.00 196.00" xmlns="http://www.w3.org/2000/svg" xmlns:xlink="http://www.w3.org/1999/xlink">
<g id="graph0" class="graph" transform="scale(1 1) rotate(0) translate(4 192)">
<title>field_ops.H</title>
<polygon fill="#ffffff" stroke="transparent" points="-4,4 -4,-192 389,-192 389,4 -4,4"/>
<!-- Node2 -->
<g id="node1" class="node">
<title>Node2</title>
<polygon fill="#bfbfbf" stroke="#000000" points="134.5,-168.5 134.5,-187.5 200.5,-187.5 200.5,-168.5 134.5,-168.5"/>
<text text-anchor="middle" x="167.5" y="-175.5" font-family="Helvetica,sans-Serif" font-size="10.00" fill="#000000">field_ops.H</text>
</g>
<!-- Node3 -->
<g id="node2" class="node">
<title>Node3</title>
<g id="a_node2"><a xlink:href="incflo__advance_8cpp.html" target="_top" xlink:title="incflo_advance.cpp">
<polygon fill="#ffffff" stroke="#000000" points="0,-112.5 0,-131.5 101,-131.5 101,-112.5 0,-112.5"/>
<text text-anchor="middle" x="50.5" y="-119.5" font-family="Helvetica,sans-Serif" font-size="10.00" fill="#000000">incflo_advance.cpp</text>
</a>
</g>
</g>
<!-- Node2&#45;&gt;Node3 -->
<g id="edge1" class="edge">
<title>Node2&#45;&gt;Node3</title>
<path fill="none" stroke="#191970" d="M138.1958,-163.9741C117.012,-153.8348 88.9597,-140.408 70.3506,-131.5011"/>
<polygon fill="#191970" stroke="#191970" points="136.8559,-167.2129 147.387,-168.3733 139.878,-160.8989 136.8559,-167.2129"/>
</g>
<!-- Node4 -->
<g id="node3" class="node">
<title>Node4</title>
<g id="a_node3"><a xlink:href="_laminar_model_8cpp.html" target="_top" xlink:title="LaminarModel.cpp">
<polygon fill="#ffffff" stroke="#000000" points="119.5,-112.5 119.5,-131.5 215.5,-131.5 215.5,-112.5 119.5,-112.5"/>
<text text-anchor="middle" x="167.5" y="-119.5" font-family="Helvetica,sans-Serif" font-size="10.00" fill="#000000">LaminarModel.cpp</text>
</a>
</g>
</g>
<!-- Node2&#45;&gt;Node4 -->
<g id="edge2" class="edge">
<title>Node2&#45;&gt;Node4</title>
<path fill="none" stroke="#191970" d="M167.5,-158.1575C167.5,-149.155 167.5,-138.9199 167.5,-131.6427"/>
<polygon fill="#191970" stroke="#191970" points="164.0001,-158.2455 167.5,-168.2455 171.0001,-158.2456 164.0001,-158.2455"/>
</g>
<!-- Node5 -->
<g id="node4" class="node">
<title>Node5</title>
<g id="a_node4"><a xlink:href="_turb_model_base_8_h.html" target="_top" xlink:title="TurbModelBase.H">
<polygon fill="#ffffff" stroke="#000000" points="234,-112.5 234,-131.5 329,-131.5 329,-112.5 234,-112.5"/>
<text text-anchor="middle" x="281.5" y="-119.5" font-family="Helvetica,sans-Serif" font-size="10.00" fill="#000000">TurbModelBase.H</text>
</a>
</g>
</g>
<!-- Node2&#45;&gt;Node5 -->
<g id="edge3" class="edge">
<title>Node2&#45;&gt;Node5</title>
<path fill="none" stroke="#191970" d="M196.3321,-163.8368C216.9395,-153.7139 244.1082,-140.3679 262.1584,-131.5011"/>
<polygon fill="#191970" stroke="#191970" points="194.5297,-160.8227 187.0973,-168.3733 197.616,-167.1056 194.5297,-160.8227"/>
</g>
<!-- Node6 -->
<g id="node5" class="node">
<title>Node6</title>
<g id="a_node5"><a xlink:href="_smagorinsky_8_h.html" target="_top" xlink:title="Smagorinsky.H">
<polygon fill="#ffffff" stroke="#000000" points="239.5,-56.5 239.5,-75.5 323.5,-75.5 323.5,-56.5 239.5,-56.5"/>
<text text-anchor="middle" x="281.5" y="-63.5" font-family="Helvetica,sans-Serif" font-size="10.00" fill="#000000">Smagorinsky.H</text>
</a>
</g>
</g>
<!-- Node5&#45;&gt;Node6 -->
<g id="edge4" class="edge">
<title>Node5&#45;&gt;Node6</title>
<path fill="none" stroke="#191970" d="M281.5,-102.1575C281.5,-93.155 281.5,-82.9199 281.5,-75.6427"/>
<polygon fill="#191970" stroke="#191970" points="278.0001,-102.2455 281.5,-112.2455 285.0001,-102.2456 278.0001,-102.2455"/>
</g>
<!-- Node7 -->
<g id="node6" class="node">
<title>Node7</title>
<g id="a_node6"><a xlink:href="_smagorinsky_8cpp.html" target="_top" xlink:title="Smagorinsky.cpp">
<polygon fill="#ffffff" stroke="#000000" points="179.5,-.5 179.5,-19.5 271.5,-19.5 271.5,-.5 179.5,-.5"/>
<text text-anchor="middle" x="225.5" y="-7.5" font-family="Helvetica,sans-Serif" font-size="10.00" fill="#000000">Smagorinsky.cpp</text>
</a>
</g>
</g>
<!-- Node6&#45;&gt;Node7 -->
<g id="edge5" class="edge">
<title>Node6&#45;&gt;Node7</title>
<path fill="none" stroke="#191970" d="M264.5751,-49.0751C254.9402,-39.4402 243.2196,-27.7196 235.1427,-19.6427"/>
<polygon fill="#191970" stroke="#191970" points="262.1996,-51.6493 271.7455,-56.2455 267.1493,-46.6996 262.1996,-51.6493"/>
</g>
<!-- Node8 -->
<g id="node7" class="node">
<title>Node8</title>
<g id="a_node7"><a xlink:href="turbulence__utils_8_h.html" target="_top" xlink:title="turbulence_utils.H">
<polygon fill="#ffffff" stroke="#000000" points="290,-.5 290,-19.5 385,-19.5 385,-.5 290,-.5"/>
<text text-anchor="middle" x="337.5" y="-7.5" font-family="Helvetica,sans-Serif" font-size="10.00" fill="#000000">turbulence_utils.H</text>
</a>
</g>
</g>
<!-- Node6&#45;&gt;Node8 -->
<g id="edge6" class="edge">
<title>Node6&#45;&gt;Node8</title>
<path fill="none" stroke="#191970" d="M298.4249,-49.0751C308.0598,-39.4402 319.7804,-27.7196 327.8573,-19.6427"/>
<polygon fill="#191970" stroke="#191970" points="295.8507,-46.6996 291.2545,-56.2455 300.8004,-51.6493 295.8507,-46.6996"/>
</g>
</g>
</svg>
