<?xml version="1.0" encoding="UTF-8" standalone="no"?>
<!DOCTYPE svg PUBLIC "-//W3C//DTD SVG 1.1//EN"
 "http://www.w3.org/Graphics/SVG/1.1/DTD/svg11.dtd">
<!-- Generated by graphviz version 2.40.1 (20161225.0304)
 -->
<!-- Title: field_ops.H Pages: 1 -->
<svg width="456pt" height="196pt"
 viewBox="0.00 0.00 456.00 196.00" xmlns="http://www.w3.org/2000/svg" xmlns:xlink="http://www.w3.org/1999/xlink">
<g id="graph0" class="graph" transform="scale(1 1) rotate(0) translate(4 192)">
<title>field_ops.H</title>
<polygon fill="#ffffff" stroke="transparent" points="-4,4 -4,-192 452,-192 452,4 -4,4"/>
<!-- Node10 -->
<g id="node1" class="node">
<title>Node10</title>
<polygon fill="#bfbfbf" stroke="#000000" points="144.5,-168.5 144.5,-187.5 210.5,-187.5 210.5,-168.5 144.5,-168.5"/>
<text text-anchor="middle" x="177.5" y="-175.5" font-family="Helvetica,sans-Serif" font-size="10.00" fill="#000000">field_ops.H</text>
</g>
<!-- Node11 -->
<g id="node2" class="node">
<title>Node11</title>
<g id="a_node2"><a xlink:href="_t_k_e_8_h.html" target="_top" xlink:title="TKE.H">
<polygon fill="#ffffff" stroke="#000000" points="4,-112.5 4,-131.5 51,-131.5 51,-112.5 4,-112.5"/>
<text text-anchor="middle" x="27.5" y="-119.5" font-family="Helvetica,sans-Serif" font-size="10.00" fill="#000000">TKE.H</text>
</a>
</g>
</g>
<!-- Node10&#45;&gt;Node11 -->
<g id="edge1" class="edge">
<title>Node10&#45;&gt;Node11</title>
<path fill="none" stroke="#191970" d="M142.2962,-164.8572C114.333,-154.4176 75.9797,-140.0991 51.465,-130.9469"/>
<polygon fill="#191970" stroke="#191970" points="141.1215,-168.1546 151.7141,-168.3733 143.5698,-161.5967 141.1215,-168.1546"/>
</g>
<!-- Node14 -->
<g id="node5" class="node">
<title>Node14</title>
<g id="a_node5"><a xlink:href="incflo__advance_8cpp.html" target="_top" xlink:title="incflo_advance.cpp">
<polygon fill="#ffffff" stroke="#000000" points="69,-112.5 69,-131.5 170,-131.5 170,-112.5 69,-112.5"/>
<text text-anchor="middle" x="119.5" y="-119.5" font-family="Helvetica,sans-Serif" font-size="10.00" fill="#000000">incflo_advance.cpp</text>
</a>
</g>
</g>
<!-- Node10&#45;&gt;Node14 -->
<g id="edge4" class="edge">
<title>Node10&#45;&gt;Node14</title>
<path fill="none" stroke="#191970" d="M159.9707,-161.0751C149.9917,-151.4402 137.8524,-139.7196 129.4871,-131.6427"/>
<polygon fill="#191970" stroke="#191970" points="157.772,-163.8175 167.3972,-168.2455 162.6342,-158.7817 157.772,-163.8175"/>
</g>
<!-- Node15 -->
<g id="node6" class="node">
<title>Node15</title>
<g id="a_node6"><a xlink:href="_laminar_model_8cpp.html" target="_top" xlink:title="LaminarModel.cpp">
<polygon fill="#ffffff" stroke="#000000" points="188.5,-112.5 188.5,-131.5 284.5,-131.5 284.5,-112.5 188.5,-112.5"/>
<text text-anchor="middle" x="236.5" y="-119.5" font-family="Helvetica,sans-Serif" font-size="10.00" fill="#000000">LaminarModel.cpp</text>
</a>
</g>
</g>
<!-- Node10&#45;&gt;Node15 -->
<g id="edge5" class="edge">
<title>Node10&#45;&gt;Node15</title>
<path fill="none" stroke="#191970" d="M195.0307,-161.3607C205.2377,-151.6727 217.7469,-139.7995 226.3408,-131.6427"/>
<polygon fill="#191970" stroke="#191970" points="192.6206,-158.8227 187.777,-168.2455 197.4396,-163.8998 192.6206,-158.8227"/>
</g>
<!-- Node16 -->
<g id="node7" class="node">
<title>Node16</title>
<g id="a_node7"><a xlink:href="_turb_model_base_8_h.html" target="_top" xlink:title="TurbModelBase.H">
<polygon fill="#ffffff" stroke="#000000" points="303,-112.5 303,-131.5 398,-131.5 398,-112.5 303,-112.5"/>
<text text-anchor="middle" x="350.5" y="-119.5" font-family="Helvetica,sans-Serif" font-size="10.00" fill="#000000">TurbModelBase.H</text>
</a>
</g>
</g>
<!-- Node10&#45;&gt;Node16 -->
<g id="edge6" class="edge">
<title>Node10&#45;&gt;Node16</title>
<path fill="none" stroke="#191970" d="M217.0723,-165.1905C248.7671,-154.9309 292.5168,-140.7691 321.1483,-131.5011"/>
<polygon fill="#191970" stroke="#191970" points="215.6758,-161.9636 207.2398,-168.3733 217.8316,-168.6234 215.6758,-161.9636"/>
</g>
<!-- Node12 -->
<g id="node3" class="node">
<title>Node12</title>
<g id="a_node3"><a xlink:href="_t_k_e_8cpp.html" target="_top" xlink:title="TKE.cpp">
<polygon fill="#ffffff" stroke="#000000" points="0,-56.5 0,-75.5 55,-75.5 55,-56.5 0,-56.5"/>
<text text-anchor="middle" x="27.5" y="-63.5" font-family="Helvetica,sans-Serif" font-size="10.00" fill="#000000">TKE.cpp</text>
</a>
</g>
</g>
<!-- Node11&#45;&gt;Node12 -->
<g id="edge2" class="edge">
<title>Node11&#45;&gt;Node12</title>
<path fill="none" stroke="#191970" d="M27.5,-102.1575C27.5,-93.155 27.5,-82.9199 27.5,-75.6427"/>
<polygon fill="#191970" stroke="#191970" points="24.0001,-102.2455 27.5,-112.2455 31.0001,-102.2456 24.0001,-102.2455"/>
</g>
<!-- Node13 -->
<g id="node4" class="node">
<title>Node13</title>
<g id="a_node4"><a xlink:href="_one_eq_ksgs_8cpp.html" target="_top" xlink:title="OneEqKsgs.cpp">
<polygon fill="#ffffff" stroke="#000000" points="113.5,-.5 113.5,-19.5 201.5,-19.5 201.5,-.5 113.5,-.5"/>
<text text-anchor="middle" x="157.5" y="-7.5" font-family="Helvetica,sans-Serif" font-size="10.00" fill="#000000">OneEqKsgs.cpp</text>
</a>
</g>
</g>
<!-- Node11&#45;&gt;Node13 -->
<g id="edge3" class="edge">
<title>Node11&#45;&gt;Node13</title>
<path fill="none" stroke="#191970" d="M46.3369,-105.7713C73.862,-82.0573 124.2099,-38.6807 146.4443,-19.5249"/>
<polygon fill="#191970" stroke="#191970" points="43.8753,-103.2722 38.5837,-112.4509 48.4443,-108.5755 43.8753,-103.2722"/>
</g>
<!-- Node17 -->
<g id="node8" class="node">
<title>Node17</title>
<g id="a_node8"><a xlink:href="_one_eq_ksgs_8_h.html" target="_top" xlink:title="OneEqKsgs.H">
<polygon fill="#ffffff" stroke="#000000" points="167.5,-56.5 167.5,-75.5 247.5,-75.5 247.5,-56.5 167.5,-56.5"/>
<text text-anchor="middle" x="207.5" y="-63.5" font-family="Helvetica,sans-Serif" font-size="10.00" fill="#000000">OneEqKsgs.H</text>
</a>
</g>
</g>
<!-- Node16&#45;&gt;Node17 -->
<g id="edge7" class="edge">
<title>Node16&#45;&gt;Node17</title>
<path fill="none" stroke="#191970" d="M316.4202,-108.6541C290.3427,-98.4419 255.0185,-84.6086 231.7618,-75.5011"/>
<polygon fill="#191970" stroke="#191970" points="315.3297,-111.9858 325.9174,-112.3733 317.8822,-105.4677 315.3297,-111.9858"/>
</g>
<!-- Node18 -->
<g id="node9" class="node">
<title>Node18</title>
<g id="a_node9"><a xlink:href="_smagorinsky_8_h.html" target="_top" xlink:title="Smagorinsky.H">
<polygon fill="#ffffff" stroke="#000000" points="308.5,-56.5 308.5,-75.5 392.5,-75.5 392.5,-56.5 308.5,-56.5"/>
<text text-anchor="middle" x="350.5" y="-63.5" font-family="Helvetica,sans-Serif" font-size="10.00" fill="#000000">Smagorinsky.H</text>
</a>
</g>
</g>
<!-- Node16&#45;&gt;Node18 -->
<g id="edge9" class="edge">
<title>Node16&#45;&gt;Node18</title>
<path fill="none" stroke="#191970" d="M350.5,-102.1575C350.5,-93.155 350.5,-82.9199 350.5,-75.6427"/>
<polygon fill="#191970" stroke="#191970" points="347.0001,-102.2455 350.5,-112.2455 354.0001,-102.2456 347.0001,-102.2455"/>
</g>
<!-- Node17&#45;&gt;Node13 -->
<g id="edge8" class="edge">
<title>Node17&#45;&gt;Node13</title>
<path fill="none" stroke="#191970" d="M191.8753,-48.5004C183.3727,-38.9775 173.1782,-27.5596 166.1095,-19.6427"/>
<polygon fill="#191970" stroke="#191970" points="189.5197,-51.1172 198.7907,-56.2455 194.7413,-46.4551 189.5197,-51.1172"/>
</g>
<!-- Node19 -->
<g id="node10" class="node">
<title>Node19</title>
<g id="a_node10"><a xlink:href="_smagorinsky_8cpp.html" target="_top" xlink:title="Smagorinsky.cpp">
<polygon fill="#ffffff" stroke="#000000" points="242.5,-.5 242.5,-19.5 334.5,-19.5 334.5,-.5 242.5,-.5"/>
<text text-anchor="middle" x="288.5" y="-7.5" font-family="Helvetica,sans-Serif" font-size="10.00" fill="#000000">Smagorinsky.cpp</text>
</a>
</g>
</g>
<!-- Node18&#45;&gt;Node19 -->
<g id="edge10" class="edge">
<title>Node18&#45;&gt;Node19</title>
<path fill="none" stroke="#191970" d="M332.0779,-49.3607C321.3519,-39.6727 308.2066,-27.7995 299.1758,-19.6427"/>
<polygon fill="#191970" stroke="#191970" points="329.9334,-52.14 339.7004,-56.2455 334.6254,-46.9453 329.9334,-52.14"/>
</g>
<!-- Node20 -->
<g id="node11" class="node">
<title>Node20</title>
<g id="a_node11"><a xlink:href="turbulence__utils_8_h.html" target="_top" xlink:title="turbulence_utils.H">
<polygon fill="#ffffff" stroke="#000000" points="353,-.5 353,-19.5 448,-19.5 448,-.5 353,-.5"/>
<text text-anchor="middle" x="400.5" y="-7.5" font-family="Helvetica,sans-Serif" font-size="10.00" fill="#000000">turbulence_utils.H</text>
</a>
</g>
</g>
<!-- Node18&#45;&gt;Node20 -->
<g id="edge11" class="edge">
<title>Node18&#45;&gt;Node20</title>
<path fill="none" stroke="#191970" d="M366.1247,-48.5004C374.6273,-38.9775 384.8218,-27.5596 391.8905,-19.6427"/>
<polygon fill="#191970" stroke="#191970" points="363.2587,-46.4551 359.2093,-56.2455 368.4803,-51.1172 363.2587,-46.4551"/>
</g>
</g>
</svg>
