<?xml version="1.0" encoding="UTF-8" standalone="no"?>
<!DOCTYPE svg PUBLIC "-//W3C//DTD SVG 1.1//EN"
 "http://www.w3.org/Graphics/SVG/1.1/DTD/svg11.dtd">
<!-- Generated by graphviz version 2.40.1 (20161225.0304)
 -->
<!-- Title: fvm.H Pages: 1 -->
<!--zoomable 308 -->
<svg id="main" version="1.1" xmlns="http://www.w3.org/2000/svg" xmlns:xlink="http://www.w3.org/1999/xlink" xml:space="preserve" onload="init(evt)">
<style type="text/css"><![CDATA[
.edge:hover path { stroke: red; }
.edge:hover polygon { stroke: red; fill: red; }
]]></style>
<script type="text/javascript"><![CDATA[
var edges = document.getElementsByTagName('g');
if (edges && edges.length) {
  for (var i=0;i<edges.length;i++) {
    if (edges[i].id.substr(0,4)=='edge') {
      edges[i].setAttribute('class','edge');
    }
  }
}
]]></script>
        <defs>
                <circle id="rim" cx="0" cy="0" r="7"/>
                <circle id="rim2" cx="0" cy="0" r="3.5"/>
                <g id="zoomPlus">
                        <use xlink:href="#rim" fill="#404040">
                                <set attributeName="fill" to="#808080" begin="zoomplus.mouseover" end="zoomplus.mouseout"/>
                        </use>
                        <path d="M-4,0h8M0,-4v8" fill="none" stroke="white" stroke-width="1.5" pointer-events="none"/>
                </g>
                <g id="zoomMin">
                        <use xlink:href="#rim" fill="#404040">
                                <set attributeName="fill" to="#808080" begin="zoomminus.mouseover" end="zoomminus.mouseout"/>
                        </use>
                        <path d="M-4,0h8" fill="none" stroke="white" stroke-width="1.5" pointer-events="none"/>
                </g>
                <g id="dirArrow">
                        <path fill="none" stroke="white" stroke-width="1.5" d="M0,-3.0v7 M-2.5,-0.5L0,-3.0L2.5,-0.5"/>
                </g>
               <g id="resetDef">
                       <use xlink:href="#rim2" fill="#404040">
                               <set attributeName="fill" to="#808080" begin="reset.mouseover" end="reset.mouseout"/>
                       </use>
               </g>
        </defs>

<script type="text/javascript">
var viewWidth = 1836;
var viewHeight = 308;
var sectionId = 'dynsection-0';
</script>
<script xlink:href="svgpan.js"/>
<svg id="graph" class="graph">
<g id="viewport">
<title>fvm.H</title>
<polygon fill="#ffffff" stroke="transparent" points="-4,4 -4,-304 1831.5,-304 1831.5,4 -4,4"/>
<!-- Node0 -->
<g id="node1" class="node">
<title>Node0</title>
<polygon fill="#bfbfbf" stroke="#000000" points="1442.5,-280.5 1442.5,-299.5 1486.5,-299.5 1486.5,-280.5 1442.5,-280.5"/>
<text text-anchor="middle" x="1464.5" y="-287.5" font-family="Helvetica,sans-Serif" font-size="10.00" fill="#000000">fvm.H</text>
</g>
<!-- Node1 -->
<g id="node2" class="node">
<title>Node1</title>
<g id="a_node2"><a xlink:href="curvature_8_h.html" target="_top" xlink:title="amr&#45;wind/fvm/curvature.H">
<polygon fill="#ffffff" stroke="#000000" points="1399.5,-224.5 1399.5,-243.5 1529.5,-243.5 1529.5,-224.5 1399.5,-224.5"/>
<text text-anchor="middle" x="1464.5" y="-231.5" font-family="Helvetica,sans-Serif" font-size="10.00" fill="#000000">amr&#45;wind/fvm/curvature.H</text>
</a>
</g>
</g>
<!-- Node0&#45;&gt;Node1 -->
<g id="edge1" class="edge">
<title>Node0&#45;&gt;Node1</title>
<path fill="none" stroke="#191970" d="M1464.5,-280.2455C1464.5,-272.9382 1464.5,-262.6944 1464.5,-253.7046"/>
<polygon fill="#191970" stroke="#191970" points="1468.0001,-253.6426 1464.5,-243.6427 1461.0001,-253.6427 1468.0001,-253.6426"/>
</g>
<!-- Node27 -->
<g id="node28" class="node">
<title>Node27</title>
<g id="a_node28"><a xlink:href="divergence_8_h.html" target="_top" xlink:title="amr&#45;wind/fvm/divergence.H">
<polygon fill="#ffffff" stroke="#000000" points="1548,-224.5 1548,-243.5 1685,-243.5 1685,-224.5 1548,-224.5"/>
<text text-anchor="middle" x="1616.5" y="-231.5" font-family="Helvetica,sans-Serif" font-size="10.00" fill="#000000">amr&#45;wind/fvm/divergence.H</text>
</a>
</g>
</g>
<!-- Node0&#45;&gt;Node27 -->
<g id="edge39" class="edge">
<title>Node0&#45;&gt;Node27</title>
<path fill="none" stroke="#191970" d="M1486.6021,-281.8571C1511.3838,-272.727 1551.9176,-257.7935 1581.1204,-247.0346"/>
<polygon fill="#191970" stroke="#191970" points="1582.3769,-250.3017 1590.5504,-243.5604 1579.957,-243.7333 1582.3769,-250.3017"/>
</g>
<!-- Node29 -->
<g id="node30" class="node">
<title>Node29</title>
<g id="a_node30"><a xlink:href="gradient_8_h.html" target="_top" xlink:title="amr&#45;wind/fvm/gradient.H">
<polygon fill="#ffffff" stroke="#000000" points="1703.5,-224.5 1703.5,-243.5 1827.5,-243.5 1827.5,-224.5 1703.5,-224.5"/>
<text text-anchor="middle" x="1765.5" y="-231.5" font-family="Helvetica,sans-Serif" font-size="10.00" fill="#000000">amr&#45;wind/fvm/gradient.H</text>
</a>
</g>
</g>
<!-- Node0&#45;&gt;Node29 -->
<g id="edge44" class="edge">
<title>Node0&#45;&gt;Node29</title>
<path fill="none" stroke="#191970" d="M1486.6332,-285.8822C1531.9603,-277.4492 1636.7481,-257.9538 1704.1782,-245.4087"/>
<polygon fill="#191970" stroke="#191970" points="1705.0632,-248.8042 1714.2543,-243.5341 1703.7828,-241.9223 1705.0632,-248.8042"/>
</g>
<!-- Node30 -->
<g id="node31" class="node">
<title>Node30</title>
<g id="a_node31"><a xlink:href="laplacian_8_h.html" target="_top" xlink:title="amr&#45;wind/fvm/laplacian.H">
<polygon fill="#ffffff" stroke="#000000" points="1105.5,-224.5 1105.5,-243.5 1233.5,-243.5 1233.5,-224.5 1105.5,-224.5"/>
<text text-anchor="middle" x="1169.5" y="-231.5" font-family="Helvetica,sans-Serif" font-size="10.00" fill="#000000">amr&#45;wind/fvm/laplacian.H</text>
</a>
</g>
</g>
<!-- Node0&#45;&gt;Node30 -->
<g id="edge49" class="edge">
<title>Node0&#45;&gt;Node30</title>
<path fill="none" stroke="#191970" d="M1442.3271,-285.7909C1397.6549,-277.3108 1295.4832,-257.9155 1229.6334,-245.4152"/>
<polygon fill="#191970" stroke="#191970" points="1230.2695,-241.9735 1219.7921,-243.547 1228.9639,-248.8507 1230.2695,-241.9735"/>
</g>
<!-- Node31 -->
<g id="node32" class="node">
<title>Node31</title>
<g id="a_node32"><a xlink:href="strainrate_8_h.html" target="_top" xlink:title="amr&#45;wind/fvm/strainrate.H">
<polygon fill="#ffffff" stroke="#000000" points="1251.5,-224.5 1251.5,-243.5 1381.5,-243.5 1381.5,-224.5 1251.5,-224.5"/>
<text text-anchor="middle" x="1316.5" y="-231.5" font-family="Helvetica,sans-Serif" font-size="10.00" fill="#000000">amr&#45;wind/fvm/strainrate.H</text>
</a>
</g>
</g>
<!-- Node0&#45;&gt;Node31 -->
<g id="edge51" class="edge">
<title>Node0&#45;&gt;Node31</title>
<path fill="none" stroke="#191970" d="M1442.3429,-281.6162C1418.2502,-272.5001 1379.4235,-257.8089 1351.2627,-247.1535"/>
<polygon fill="#191970" stroke="#191970" points="1352.3799,-243.8341 1341.7884,-243.5686 1349.9026,-250.3811 1352.3799,-243.8341"/>
</g>
<!-- Node2 -->
<g id="node3" class="node">
<title>Node2</title>
<g id="a_node3"><a xlink:href="fvm__utils_8_h.html" target="_top" xlink:title="amr&#45;wind/fvm/fvm_utils.H">
<polygon fill="#ffffff" stroke="#000000" points="1365,-168.5 1365,-187.5 1494,-187.5 1494,-168.5 1365,-168.5"/>
<text text-anchor="middle" x="1429.5" y="-175.5" font-family="Helvetica,sans-Serif" font-size="10.00" fill="#000000">amr&#45;wind/fvm/fvm_utils.H</text>
</a>
</g>
</g>
<!-- Node1&#45;&gt;Node2 -->
<g id="edge2" class="edge">
<title>Node1&#45;&gt;Node2</title>
<path fill="none" stroke="#191970" d="M1458.4035,-224.2455C1453.5855,-216.5367 1446.7249,-205.5598 1440.8968,-196.2348"/>
<polygon fill="#191970" stroke="#191970" points="1443.7947,-194.2677 1435.5267,-187.6427 1437.8587,-197.9777 1443.7947,-194.2677"/>
</g>
<!-- Node3 -->
<g id="node4" class="node">
<title>Node3</title>
<g id="a_node4"><a xlink:href="_field_repo_8_h.html" target="_top" xlink:title="amr&#45;wind/core/FieldRepo.H">
<polygon fill="#ffffff" stroke="#000000" points="791.5,-112.5 791.5,-131.5 927.5,-131.5 927.5,-112.5 791.5,-112.5"/>
<text text-anchor="middle" x="859.5" y="-119.5" font-family="Helvetica,sans-Serif" font-size="10.00" fill="#000000">amr&#45;wind/core/FieldRepo.H</text>
</a>
</g>
</g>
<!-- Node2&#45;&gt;Node3 -->
<g id="edge3" class="edge">
<title>Node2&#45;&gt;Node3</title>
<path fill="none" stroke="#191970" d="M1364.9455,-171.6578C1259.6947,-161.3174 1051.4896,-140.8621 937.906,-129.703"/>
<polygon fill="#191970" stroke="#191970" points="938.1801,-126.2132 927.8858,-128.7186 937.4956,-133.1797 938.1801,-126.2132"/>
</g>
<!-- Node21 -->
<g id="node22" class="node">
<title>Node21</title>
<g id="a_node22"><a xlink:href="stencils_8_h.html" target="_top" xlink:title="Second&#45;order finite volume discretization stencil coefficients. ">
<polygon fill="#ffffff" stroke="#000000" points="1362,-112.5 1362,-131.5 1485,-131.5 1485,-112.5 1362,-112.5"/>
<text text-anchor="middle" x="1423.5" y="-119.5" font-family="Helvetica,sans-Serif" font-size="10.00" fill="#000000">amr&#45;wind/fvm/stencils.H</text>
</a>
</g>
</g>
<!-- Node2&#45;&gt;Node21 -->
<g id="edge33" class="edge">
<title>Node2&#45;&gt;Node21</title>
<path fill="none" stroke="#191970" d="M1428.4549,-168.2455C1427.672,-160.9382 1426.5744,-150.6944 1425.6112,-141.7046"/>
<polygon fill="#191970" stroke="#191970" points="1429.0786,-141.2129 1424.5331,-131.6427 1422.1185,-141.9587 1429.0786,-141.2129"/>
</g>
<!-- Node26 -->
<g id="node27" class="node">
<title>Node26</title>
<polygon fill="#ffffff" stroke="#bfbfbf" points="1503,-112.5 1503,-131.5 1598,-131.5 1598,-112.5 1503,-112.5"/>
<text text-anchor="middle" x="1550.5" y="-119.5" font-family="Helvetica,sans-Serif" font-size="10.00" fill="#000000">AMReX_MFIter.H</text>
</g>
<!-- Node2&#45;&gt;Node26 -->
<g id="edge38" class="edge">
<title>Node2&#45;&gt;Node26</title>
<path fill="none" stroke="#191970" d="M1450.3006,-168.3733C1469.7243,-159.3838 1498.9224,-145.8706 1520.7964,-135.7471"/>
<polygon fill="#191970" stroke="#191970" points="1522.3656,-138.8776 1529.9708,-131.5011 1519.4255,-132.5249 1522.3656,-138.8776"/>
</g>
<!-- Node4 -->
<g id="node5" class="node">
<title>Node4</title>
<polygon fill="#ffffff" stroke="#bfbfbf" points="1101,-.5 1101,-19.5 1142,-19.5 1142,-.5 1101,-.5"/>
<text text-anchor="middle" x="1121.5" y="-7.5" font-family="Helvetica,sans-Serif" font-size="10.00" fill="#000000">string</text>
</g>
<!-- Node3&#45;&gt;Node4 -->
<g id="edge4" class="edge">
<title>Node3&#45;&gt;Node4</title>
<path fill="none" stroke="#191970" d="M927.7572,-118.153C1027.4978,-111.8251 1203.3635,-97.7145 1222.5,-76 1228.377,-69.3312 1227.3095,-63.4753 1222.5,-56 1218.3268,-49.5136 1179.8611,-33.1454 1151.6337,-21.7946"/>
<polygon fill="#191970" stroke="#191970" points="1152.7345,-18.4656 1142.1493,-18.0133 1150.1421,-24.9678 1152.7345,-18.4656"/>
</g>
<!-- Node5 -->
<g id="node6" class="node">
<title>Node5</title>
<polygon fill="#ffffff" stroke="#bfbfbf" points="0,-.5 0,-19.5 83,-19.5 83,-.5 0,-.5"/>
<text text-anchor="middle" x="41.5" y="-7.5" font-family="Helvetica,sans-Serif" font-size="10.00" fill="#000000">unordered_map</text>
</g>
<!-- Node3&#45;&gt;Node5 -->
<g id="edge5" class="edge">
<title>Node3&#45;&gt;Node5</title>
<path fill="none" stroke="#191970" d="M791.1286,-117.0472C700.2715,-110.052 534.8623,-95.8775 394.5,-76 262.0836,-57.2478 227.5806,-46.3905 93.0916,-20.2993"/>
<polygon fill="#191970" stroke="#191970" points="93.7154,-16.8551 83.2329,-18.3941 92.3871,-23.728 93.7154,-16.8551"/>
</g>
<!-- Node6 -->
<g id="node7" class="node">
<title>Node6</title>
<g id="a_node7"><a xlink:href="_field_desc_types_8_h.html" target="_top" xlink:title="amr&#45;wind/core/FieldDescTypes.H">
<polygon fill="#ffffff" stroke="#000000" points="795,-.5 795,-19.5 958,-19.5 958,-.5 795,-.5"/>
<text text-anchor="middle" x="876.5" y="-7.5" font-family="Helvetica,sans-Serif" font-size="10.00" fill="#000000">amr&#45;wind/core/FieldDescTypes.H</text>
</a>
</g>
</g>
<!-- Node3&#45;&gt;Node6 -->
<g id="edge6" class="edge">
<title>Node3&#45;&gt;Node6</title>
<path fill="none" stroke="#191970" d="M860.9494,-112.4509C863.7221,-94.184 869.8282,-53.9553 873.5102,-29.6976"/>
<polygon fill="#191970" stroke="#191970" points="877.0139,-29.9369 875.0543,-19.5249 870.0931,-28.8864 877.0139,-29.9369"/>
</g>
<!-- Node7 -->
<g id="node8" class="node">
<title>Node7</title>
<g id="a_node8"><a xlink:href="_field_utils_8_h.html" target="_top" xlink:title="amr&#45;wind/core/FieldUtils.H">
<polygon fill="#ffffff" stroke="#000000" points="574,-56.5 574,-75.5 707,-75.5 707,-56.5 574,-56.5"/>
<text text-anchor="middle" x="640.5" y="-63.5" font-family="Helvetica,sans-Serif" font-size="10.00" fill="#000000">amr&#45;wind/core/FieldUtils.H</text>
</a>
</g>
</g>
<!-- Node3&#45;&gt;Node7 -->
<g id="edge7" class="edge">
<title>Node3&#45;&gt;Node7</title>
<path fill="none" stroke="#191970" d="M821.8526,-112.3733C784.648,-102.8598 727.6297,-88.2797 687.4784,-78.0127"/>
<polygon fill="#191970" stroke="#191970" points="688.2116,-74.5877 677.6562,-75.5011 686.4773,-81.3695 688.2116,-74.5877"/>
</g>
<!-- Node8 -->
<g id="node9" class="node">
<title>Node8</title>
<polygon fill="#ffffff" stroke="#bfbfbf" points="538.5,-.5 538.5,-19.5 642.5,-19.5 642.5,-.5 538.5,-.5"/>
<text text-anchor="middle" x="590.5" y="-7.5" font-family="Helvetica,sans-Serif" font-size="10.00" fill="#000000">AMReX_MultiFab.H</text>
</g>
<!-- Node3&#45;&gt;Node8 -->
<g id="edge31" class="edge">
<title>Node3&#45;&gt;Node8</title>
<path fill="none" stroke="#191970" d="M791.1765,-115.9995C708.6748,-108.0499 579.0799,-93.0296 564.5,-76 552.4484,-61.9235 563.5461,-41.5933 574.7438,-27.2239"/>
<polygon fill="#191970" stroke="#191970" points="577.4376,-29.4586 581.1742,-19.5445 572.0706,-24.9646 577.4376,-29.4586"/>
</g>
<!-- Node10 -->
<g id="node11" class="node">
<title>Node10</title>
<g id="a_node11"><a xlink:href="_field_8_h.html" target="_top" xlink:title="amr&#45;wind/core/Field.H">
<polygon fill="#ffffff" stroke="#000000" points="404,-56.5 404,-75.5 517,-75.5 517,-56.5 404,-56.5"/>
<text text-anchor="middle" x="460.5" y="-63.5" font-family="Helvetica,sans-Serif" font-size="10.00" fill="#000000">amr&#45;wind/core/Field.H</text>
</a>
</g>
</g>
<!-- Node3&#45;&gt;Node10 -->
<g id="edge11" class="edge">
<title>Node3&#45;&gt;Node10</title>
<path fill="none" stroke="#191970" d="M791.6539,-112.4969C725.324,-103.2033 621.4685,-88.6446 531.5,-76 530.0362,-75.7943 528.5554,-75.5861 527.0624,-75.3762"/>
<polygon fill="#191970" stroke="#191970" points="527.4709,-71.8993 517.0808,-73.9722 526.4958,-78.831 527.4709,-71.8993"/>
</g>
<!-- Node15 -->
<g id="node16" class="node">
<title>Node15</title>
<g id="a_node16"><a xlink:href="_int_field_8_h.html" target="_top" xlink:title="amr&#45;wind/core/IntField.H">
<polygon fill="#ffffff" stroke="#000000" points="887.5,-56.5 887.5,-75.5 1011.5,-75.5 1011.5,-56.5 887.5,-56.5"/>
<text text-anchor="middle" x="949.5" y="-63.5" font-family="Helvetica,sans-Serif" font-size="10.00" fill="#000000">amr&#45;wind/core/IntField.H</text>
</a>
</g>
</g>
<!-- Node3&#45;&gt;Node15 -->
<g id="edge20" class="edge">
<title>Node3&#45;&gt;Node15</title>
<path fill="none" stroke="#191970" d="M875.1768,-112.2455C888.9856,-103.6534 909.3193,-91.0014 925.2292,-81.1018"/>
<polygon fill="#191970" stroke="#191970" points="927.3613,-83.8974 934.0028,-75.6427 923.6632,-77.954 927.3613,-83.8974"/>
</g>
<!-- Node16 -->
<g id="node17" class="node">
<title>Node16</title>
<polygon fill="#ffffff" stroke="#bfbfbf" points="976,-.5 976,-19.5 1083,-19.5 1083,-.5 976,-.5"/>
<text text-anchor="middle" x="1029.5" y="-7.5" font-family="Helvetica,sans-Serif" font-size="10.00" fill="#000000">AMReX_iMultiFab.H</text>
</g>
<!-- Node3&#45;&gt;Node16 -->
<g id="edge32" class="edge">
<title>Node3&#45;&gt;Node16</title>
<path fill="none" stroke="#191970" d="M916.6932,-112.4559C957.223,-104.4826 1006.7457,-91.8728 1020.5,-76 1031.2563,-63.5869 1032.8475,-44.6319 1032.1325,-30.215"/>
<polygon fill="#191970" stroke="#191970" points="1035.5806,-29.4822 1031.1956,-19.8375 1028.609,-30.1117 1035.5806,-29.4822"/>
</g>
<!-- Node17 -->
<g id="node18" class="node">
<title>Node17</title>
<g id="a_node18"><a xlink:href="_scratch_field_8_h.html" target="_top" xlink:title="amr&#45;wind/core/ScratchField.H">
<polygon fill="#ffffff" stroke="#000000" points="1067.5,-56.5 1067.5,-75.5 1213.5,-75.5 1213.5,-56.5 1067.5,-56.5"/>
<text text-anchor="middle" x="1140.5" y="-63.5" font-family="Helvetica,sans-Serif" font-size="10.00" fill="#000000">amr&#45;wind/core/ScratchField.H</text>
</a>
</g>
</g>
<!-- Node3&#45;&gt;Node17 -->
<g id="edge24" class="edge">
<title>Node3&#45;&gt;Node17</title>
<path fill="none" stroke="#191970" d="M907.4863,-112.4369C955.9814,-102.7724 1030.9473,-87.8326 1082.6879,-77.5213"/>
<polygon fill="#191970" stroke="#191970" points="1083.5885,-80.9107 1092.7116,-75.5237 1082.2203,-74.0457 1083.5885,-80.9107"/>
</g>
<!-- Node20 -->
<g id="node21" class="node">
<title>Node20</title>
<polygon fill="#ffffff" stroke="#bfbfbf" points="725.5,-56.5 725.5,-75.5 831.5,-75.5 831.5,-56.5 725.5,-56.5"/>
<text text-anchor="middle" x="778.5" y="-63.5" font-family="Helvetica,sans-Serif" font-size="10.00" fill="#000000">AMReX_AmrCore.H</text>
</g>
<!-- Node3&#45;&gt;Node20 -->
<g id="edge30" class="edge">
<title>Node3&#45;&gt;Node20</title>
<path fill="none" stroke="#191970" d="M845.3909,-112.2455C833.0791,-103.7337 815.0042,-91.2375 800.7462,-81.3801"/>
<polygon fill="#191970" stroke="#191970" points="802.6634,-78.4506 792.4474,-75.6427 798.6826,-84.2085 802.6634,-78.4506"/>
</g>
<!-- Node7&#45;&gt;Node6 -->
<g id="edge8" class="edge">
<title>Node7&#45;&gt;Node6</title>
<path fill="none" stroke="#191970" d="M680.8017,-56.4369C721.1064,-46.8731 783.1821,-32.1432 826.5818,-21.845"/>
<polygon fill="#191970" stroke="#191970" points="827.4428,-25.238 836.3645,-19.5237 825.8266,-18.4271 827.4428,-25.238"/>
</g>
<!-- Node7&#45;&gt;Node8 -->
<g id="edge9" class="edge">
<title>Node7&#45;&gt;Node8</title>
<path fill="none" stroke="#191970" d="M631.7907,-56.2455C624.6927,-48.2958 614.4916,-36.8706 606.005,-27.3656"/>
<polygon fill="#191970" stroke="#191970" points="608.3805,-24.771 599.1095,-19.6427 603.1589,-29.4331 608.3805,-24.771"/>
</g>
<!-- Node9 -->
<g id="node10" class="node">
<title>Node9</title>
<polygon fill="#ffffff" stroke="#bfbfbf" points="660.5,-.5 660.5,-19.5 776.5,-19.5 776.5,-.5 660.5,-.5"/>
<text text-anchor="middle" x="718.5" y="-7.5" font-family="Helvetica,sans-Serif" font-size="10.00" fill="#000000">AMReX_Interpolater.H</text>
</g>
<!-- Node7&#45;&gt;Node9 -->
<g id="edge10" class="edge">
<title>Node7&#45;&gt;Node9</title>
<path fill="none" stroke="#191970" d="M654.0866,-56.2455C665.8305,-47.814 683.0199,-35.4729 696.6882,-25.6598"/>
<polygon fill="#191970" stroke="#191970" points="698.9871,-28.3179 705.0691,-19.6427 694.9046,-22.6316 698.9871,-28.3179"/>
</g>
<!-- Node10&#45;&gt;Node4 -->
<g id="edge12" class="edge">
<title>Node10&#45;&gt;Node4</title>
<path fill="none" stroke="#191970" d="M517.1491,-60.2663C532.5063,-58.7902 549.1338,-57.2634 564.5,-56 795.1654,-37.0355 859.3702,-64.6813 1090.6318,-19.6681"/>
<polygon fill="#191970" stroke="#191970" points="1091.5671,-23.0512 1100.7014,-17.6831 1090.2132,-16.1833 1091.5671,-23.0512"/>
</g>
<!-- Node10&#45;&gt;Node5 -->
<g id="edge14" class="edge">
<title>Node10&#45;&gt;Node5</title>
<path fill="none" stroke="#191970" d="M403.7383,-60.2318C333.1845,-52.7709 208.8791,-38.6733 93.2839,-20.2039"/>
<polygon fill="#191970" stroke="#191970" points="93.63,-16.7146 83.2003,-18.5779 92.5156,-23.6253 93.63,-16.7146"/>
</g>
<!-- Node10&#45;&gt;Node6 -->
<g id="edge19" class="edge">
<title>Node10&#45;&gt;Node6</title>
<path fill="none" stroke="#191970" d="M517.0365,-58.3893C589.011,-48.7004 713.8325,-31.8975 795.7993,-20.8636"/>
<polygon fill="#191970" stroke="#191970" points="796.3814,-24.3169 805.825,-19.5139 795.4474,-17.3794 796.3814,-24.3169"/>
</g>
<!-- Node10&#45;&gt;Node8 -->
<g id="edge15" class="edge">
<title>Node10&#45;&gt;Node8</title>
<path fill="none" stroke="#191970" d="M482.8478,-56.3733C503.9033,-47.3032 535.6495,-33.6279 559.2175,-23.4755"/>
<polygon fill="#191970" stroke="#191970" points="560.6444,-26.6719 568.4438,-19.5011 557.875,-20.243 560.6444,-26.6719"/>
</g>
<!-- Node11 -->
<g id="node12" class="node">
<title>Node11</title>
<polygon fill="#ffffff" stroke="#bfbfbf" points="350.5,-.5 350.5,-19.5 402.5,-19.5 402.5,-.5 350.5,-.5"/>
<text text-anchor="middle" x="376.5" y="-7.5" font-family="Helvetica,sans-Serif" font-size="10.00" fill="#000000">memory</text>
</g>
<!-- Node10&#45;&gt;Node11 -->
<g id="edge13" class="edge">
<title>Node10&#45;&gt;Node11</title>
<path fill="none" stroke="#191970" d="M445.8683,-56.2455C433.1006,-47.7337 414.3562,-35.2375 399.5701,-25.3801"/>
<polygon fill="#191970" stroke="#191970" points="401.226,-22.2775 390.964,-19.6427 397.3431,-28.1019 401.226,-22.2775"/>
</g>
<!-- Node12 -->
<g id="node13" class="node">
<title>Node12</title>
<polygon fill="#ffffff" stroke="#bfbfbf" points="421,-.5 421,-19.5 520,-19.5 520,-.5 421,-.5"/>
<text text-anchor="middle" x="470.5" y="-7.5" font-family="Helvetica,sans-Serif" font-size="10.00" fill="#000000">AMReX_BCRec.H</text>
</g>
<!-- Node10&#45;&gt;Node12 -->
<g id="edge16" class="edge">
<title>Node10&#45;&gt;Node12</title>
<path fill="none" stroke="#191970" d="M462.2419,-56.2455C463.5467,-48.9382 465.376,-38.6944 466.9813,-29.7046"/>
<polygon fill="#191970" stroke="#191970" points="470.4656,-30.1022 468.7781,-19.6427 463.5746,-28.8717 470.4656,-30.1022"/>
</g>
<!-- Node13 -->
<g id="node14" class="node">
<title>Node13</title>
<polygon fill="#ffffff" stroke="#bfbfbf" points="101,-.5 101,-19.5 186,-19.5 186,-.5 101,-.5"/>
<text text-anchor="middle" x="143.5" y="-7.5" font-family="Helvetica,sans-Serif" font-size="10.00" fill="#000000">AMReX_Gpu.H</text>
</g>
<!-- Node10&#45;&gt;Node13 -->
<g id="edge17" class="edge">
<title>Node10&#45;&gt;Node13</title>
<path fill="none" stroke="#191970" d="M403.8421,-56.4706C352.3524,-47.741 274.0196,-34.2883 196.0548,-20.0762"/>
<polygon fill="#191970" stroke="#191970" points="196.5217,-16.6036 186.0554,-18.2488 195.2632,-23.4896 196.5217,-16.6036"/>
</g>
<!-- Node14 -->
<g id="node15" class="node">
<title>Node14</title>
<g id="a_node15"><a xlink:href="incflo__enums_8_h.html" target="_top" xlink:title="amr&#45;wind/incflo_enums.H">
<polygon fill="#ffffff" stroke="#000000" points="204.5,-.5 204.5,-19.5 332.5,-19.5 332.5,-.5 204.5,-.5"/>
<text text-anchor="middle" x="268.5" y="-7.5" font-family="Helvetica,sans-Serif" font-size="10.00" fill="#000000">amr&#45;wind/incflo_enums.H</text>
</a>
</g>
</g>
<!-- Node10&#45;&gt;Node14 -->
<g id="edge18" class="edge">
<title>Node10&#45;&gt;Node14</title>
<path fill="none" stroke="#191970" d="M427.494,-56.3733C395.2909,-46.9807 346.1558,-32.6496 311.0361,-22.4064"/>
<polygon fill="#191970" stroke="#191970" points="311.6553,-18.9412 301.0753,-19.5011 309.6953,-25.6612 311.6553,-18.9412"/>
</g>
<!-- Node15&#45;&gt;Node4 -->
<g id="edge21" class="edge">
<title>Node15&#45;&gt;Node4</title>
<path fill="none" stroke="#191970" d="M979.1686,-56.4698C1006.0041,-47.8318 1046.8447,-34.6419 1091.3109,-20.0439"/>
<polygon fill="#191970" stroke="#191970" points="1092.4435,-23.3559 1100.8508,-16.9086 1090.2579,-16.7058 1092.4435,-23.3559"/>
</g>
<!-- Node15&#45;&gt;Node6 -->
<g id="edge22" class="edge">
<title>Node15&#45;&gt;Node6</title>
<path fill="none" stroke="#191970" d="M936.7844,-56.2455C925.898,-47.8943 910.0117,-35.7076 897.28,-25.9408"/>
<polygon fill="#191970" stroke="#191970" points="899.1346,-22.9523 889.0699,-19.6427 894.8739,-28.5063 899.1346,-22.9523"/>
</g>
<!-- Node15&#45;&gt;Node16 -->
<g id="edge23" class="edge">
<title>Node15&#45;&gt;Node16</title>
<path fill="none" stroke="#191970" d="M963.4349,-56.2455C975.5947,-47.7337 993.4464,-35.2375 1007.5285,-25.3801"/>
<polygon fill="#191970" stroke="#191970" points="1009.5395,-28.2447 1015.7248,-19.6427 1005.5253,-22.51 1009.5395,-28.2447"/>
</g>
<!-- Node17&#45;&gt;Node4 -->
<g id="edge25" class="edge">
<title>Node17&#45;&gt;Node4</title>
<path fill="none" stroke="#191970" d="M1137.1905,-56.2455C1134.6567,-48.7776 1131.0823,-38.2427 1127.985,-29.1137"/>
<polygon fill="#191970" stroke="#191970" points="1131.2991,-27.9879 1124.7716,-19.6427 1124.6702,-30.237 1131.2991,-27.9879"/>
</g>
<!-- Node17&#45;&gt;Node6 -->
<g id="edge26" class="edge">
<title>Node17&#45;&gt;Node6</title>
<path fill="none" stroke="#191970" d="M1095.4167,-56.4369C1050.0454,-46.8127 980.0114,-31.957 931.4234,-21.6504"/>
<polygon fill="#191970" stroke="#191970" points="931.9059,-18.175 921.3973,-19.5237 930.4534,-25.0226 931.9059,-18.175"/>
</g>
<!-- Node17&#45;&gt;Node8 -->
<g id="edge27" class="edge">
<title>Node17&#45;&gt;Node8</title>
<path fill="none" stroke="#191970" d="M1067.0457,-59.7144C955.0583,-50.0295 745.6701,-31.4952 652.6663,-20.0565"/>
<polygon fill="#191970" stroke="#191970" points="653.0682,-16.5796 642.7088,-18.8009 652.1923,-23.5246 653.0682,-16.5796"/>
</g>
<!-- Node18 -->
<g id="node19" class="node">
<title>Node18</title>
<polygon fill="#ffffff" stroke="#bfbfbf" points="1160,-.5 1160,-19.5 1255,-19.5 1255,-.5 1160,-.5"/>
<text text-anchor="middle" x="1207.5" y="-7.5" font-family="Helvetica,sans-Serif" font-size="10.00" fill="#000000">AMReX_Vector.H</text>
</g>
<!-- Node17&#45;&gt;Node18 -->
<g id="edge28" class="edge">
<title>Node17&#45;&gt;Node18</title>
<path fill="none" stroke="#191970" d="M1152.1705,-56.2455C1162.0661,-47.9746 1176.4627,-35.9416 1188.0901,-26.2232"/>
<polygon fill="#191970" stroke="#191970" points="1190.535,-28.7413 1195.9632,-19.6427 1186.0458,-23.3703 1190.535,-28.7413"/>
</g>
<!-- Node19 -->
<g id="node20" class="node">
<title>Node19</title>
<polygon fill="#ffffff" stroke="#bfbfbf" points="1273.5,-.5 1273.5,-19.5 1401.5,-19.5 1401.5,-.5 1273.5,-.5"/>
<text text-anchor="middle" x="1337.5" y="-7.5" font-family="Helvetica,sans-Serif" font-size="10.00" fill="#000000">AMReX_PhysBCFunct.H</text>
</g>
<!-- Node17&#45;&gt;Node19 -->
<g id="edge29" class="edge">
<title>Node17&#45;&gt;Node19</title>
<path fill="none" stroke="#191970" d="M1174.3655,-56.3733C1207.549,-46.9404 1258.255,-32.5265 1294.3194,-22.2747"/>
<polygon fill="#191970" stroke="#191970" points="1295.4145,-25.6021 1304.0764,-19.5011 1293.5005,-18.8689 1295.4145,-25.6021"/>
</g>
<!-- Node22 -->
<g id="node23" class="node">
<title>Node22</title>
<polygon fill="#ffffff" stroke="#bfbfbf" points="1270,-56.5 1270,-75.5 1363,-75.5 1363,-56.5 1270,-56.5"/>
<text text-anchor="middle" x="1316.5" y="-63.5" font-family="Helvetica,sans-Serif" font-size="10.00" fill="#000000">AMReX_REAL.H</text>
</g>
<!-- Node21&#45;&gt;Node22 -->
<g id="edge34" class="edge">
<title>Node21&#45;&gt;Node22</title>
<path fill="none" stroke="#191970" d="M1404.862,-112.2455C1388.0614,-103.4527 1363.1366,-90.4079 1344.0382,-80.4125"/>
<polygon fill="#191970" stroke="#191970" points="1345.4073,-77.1787 1334.9244,-75.6427 1342.1614,-83.3807 1345.4073,-77.1787"/>
</g>
<!-- Node23 -->
<g id="node24" class="node">
<title>Node23</title>
<polygon fill="#ffffff" stroke="#bfbfbf" points="1381.5,-56.5 1381.5,-75.5 1465.5,-75.5 1465.5,-56.5 1381.5,-56.5"/>
<text text-anchor="middle" x="1423.5" y="-63.5" font-family="Helvetica,sans-Serif" font-size="10.00" fill="#000000">AMReX_Box.H</text>
</g>
<!-- Node21&#45;&gt;Node23 -->
<g id="edge35" class="edge">
<title>Node21&#45;&gt;Node23</title>
<path fill="none" stroke="#191970" d="M1423.5,-112.2455C1423.5,-104.9382 1423.5,-94.6944 1423.5,-85.7046"/>
<polygon fill="#191970" stroke="#191970" points="1427.0001,-85.6426 1423.5,-75.6427 1420.0001,-85.6427 1427.0001,-85.6426"/>
</g>
<!-- Node24 -->
<g id="node25" class="node">
<title>Node24</title>
<polygon fill="#ffffff" stroke="#bfbfbf" points="1483.5,-56.5 1483.5,-75.5 1597.5,-75.5 1597.5,-56.5 1483.5,-56.5"/>
<text text-anchor="middle" x="1540.5" y="-63.5" font-family="Helvetica,sans-Serif" font-size="10.00" fill="#000000">AMReX_Orientation.H</text>
</g>
<!-- Node21&#45;&gt;Node24 -->
<g id="edge36" class="edge">
<title>Node21&#45;&gt;Node24</title>
<path fill="none" stroke="#191970" d="M1443.613,-112.3733C1462.3103,-103.4241 1490.3744,-89.9917 1511.4934,-79.8835"/>
<polygon fill="#191970" stroke="#191970" points="1513.1405,-82.9755 1520.6494,-75.5011 1510.1183,-76.6614 1513.1405,-82.9755"/>
</g>
<!-- Node25 -->
<g id="node26" class="node">
<title>Node25</title>
<polygon fill="#ffffff" stroke="#bfbfbf" points="1615.5,-56.5 1615.5,-75.5 1725.5,-75.5 1725.5,-56.5 1615.5,-56.5"/>
<text text-anchor="middle" x="1670.5" y="-63.5" font-family="Helvetica,sans-Serif" font-size="10.00" fill="#000000">AMReX_Geometry.H</text>
</g>
<!-- Node21&#45;&gt;Node25 -->
<g id="edge37" class="edge">
<title>Node21&#45;&gt;Node25</title>
<path fill="none" stroke="#191970" d="M1465.6802,-112.4369C1507.9523,-102.8529 1573.1062,-88.0812 1618.5417,-77.78"/>
<polygon fill="#191970" stroke="#191970" points="1619.5152,-81.1482 1628.4938,-75.5237 1617.9674,-74.3215 1619.5152,-81.1482"/>
</g>
<!-- Node27&#45;&gt;Node2 -->
<g id="edge40" class="edge">
<title>Node27&#45;&gt;Node2</title>
<path fill="none" stroke="#191970" d="M1584.3536,-224.3733C1552.9891,-214.9807 1505.1335,-200.6496 1470.9284,-190.4064"/>
<polygon fill="#191970" stroke="#191970" points="1471.8107,-187.0171 1461.227,-187.5011 1469.8025,-193.7229 1471.8107,-187.0171"/>
</g>
<!-- Node27&#45;&gt;Node25 -->
<g id="edge42" class="edge">
<title>Node27&#45;&gt;Node25</title>
<path fill="none" stroke="#191970" d="M1619.1791,-224.1137C1622.7258,-211.1664 1629.2614,-187.787 1635.5,-168 1644.6622,-138.9403 1656.3207,-105.6044 1663.5984,-85.1745"/>
<polygon fill="#191970" stroke="#191970" points="1666.983,-86.1041 1667.0579,-75.5096 1660.3925,-83.745 1666.983,-86.1041"/>
</g>
<!-- Node27&#45;&gt;Node26 -->
<g id="edge43" class="edge">
<title>Node27&#45;&gt;Node26</title>
<path fill="none" stroke="#191970" d="M1610.8729,-224.4509C1599.9136,-205.8533 1575.5399,-164.4919 1561.3407,-140.3964"/>
<polygon fill="#191970" stroke="#191970" points="1564.2052,-138.3633 1556.1129,-131.5249 1558.1745,-141.9172 1564.2052,-138.3633"/>
</g>
<!-- Node28 -->
<g id="node29" class="node">
<title>Node28</title>
<polygon fill="#ffffff" stroke="#bfbfbf" points="1645,-168.5 1645,-187.5 1740,-187.5 1740,-168.5 1645,-168.5"/>
<text text-anchor="middle" x="1692.5" y="-175.5" font-family="Helvetica,sans-Serif" font-size="10.00" fill="#000000">AMReX_Array4.H</text>
</g>
<!-- Node27&#45;&gt;Node28 -->
<g id="edge41" class="edge">
<title>Node27&#45;&gt;Node28</title>
<path fill="none" stroke="#191970" d="M1629.7382,-224.2455C1641.181,-215.814 1657.9296,-203.4729 1671.2475,-193.6598"/>
<polygon fill="#191970" stroke="#191970" points="1673.4391,-196.3924 1679.4135,-187.6427 1669.2867,-190.757 1673.4391,-196.3924"/>
</g>
<!-- Node29&#45;&gt;Node2 -->
<g id="edge45" class="edge">
<title>Node29&#45;&gt;Node2</title>
<path fill="none" stroke="#191970" d="M1708.1213,-224.4369C1649.5303,-214.6717 1558.6244,-199.5207 1496.7034,-189.2006"/>
<polygon fill="#191970" stroke="#191970" points="1497.0814,-185.7154 1486.642,-187.5237 1495.9305,-192.6201 1497.0814,-185.7154"/>
</g>
<!-- Node29&#45;&gt;Node25 -->
<g id="edge47" class="edge">
<title>Node29&#45;&gt;Node25</title>
<path fill="none" stroke="#191970" d="M1768.4044,-224.1788C1771.7936,-210.8998 1776.0386,-186.7271 1768.5,-168 1753.4721,-130.668 1717.5261,-99.3341 1693.6009,-81.6169"/>
<polygon fill="#191970" stroke="#191970" points="1695.555,-78.7111 1685.3912,-75.7196 1691.4711,-84.3964 1695.555,-78.7111"/>
</g>
<!-- Node29&#45;&gt;Node26 -->
<g id="edge48" class="edge">
<title>Node29&#45;&gt;Node26</title>
<path fill="none" stroke="#191970" d="M1766.0859,-224.4271C1766.4056,-210.0836 1764.754,-183.0921 1749.5,-168 1729.7675,-148.477 1659.7406,-135.6285 1608.317,-128.5926"/>
<polygon fill="#191970" stroke="#191970" points="1608.6744,-125.1094 1598.3007,-127.2627 1607.753,-132.0485 1608.6744,-125.1094"/>
</g>
<!-- Node29&#45;&gt;Node28 -->
<g id="edge46" class="edge">
<title>Node29&#45;&gt;Node28</title>
<path fill="none" stroke="#191970" d="M1752.7844,-224.2455C1741.898,-215.8943 1726.0117,-203.7076 1713.28,-193.9408"/>
<polygon fill="#191970" stroke="#191970" points="1715.1346,-190.9523 1705.0699,-187.6427 1710.8739,-196.5063 1715.1346,-190.9523"/>
</g>
<!-- Node30&#45;&gt;Node2 -->
<g id="edge50" class="edge">
<title>Node30&#45;&gt;Node2</title>
<path fill="none" stroke="#191970" d="M1213.9002,-224.4369C1258.5841,-214.8127 1327.557,-199.957 1375.4088,-189.6504"/>
<polygon fill="#191970" stroke="#191970" points="1376.2441,-193.0508 1385.283,-187.5237 1374.7702,-186.2078 1376.2441,-193.0508"/>
</g>
<!-- Node31&#45;&gt;Node2 -->
<g id="edge52" class="edge">
<title>Node31&#45;&gt;Node2</title>
<path fill="none" stroke="#191970" d="M1335.9254,-224.3733C1353.9021,-215.4644 1380.8441,-202.1127 1401.209,-192.0203"/>
<polygon fill="#191970" stroke="#191970" points="1402.9222,-195.0776 1410.3281,-187.5011 1399.8139,-188.8055 1402.9222,-195.0776"/>
</g>
</g>
</svg>
        <g id="navigator" transform="translate(0 0)" fill="#404254">
                <rect fill="#f2f5e9" fill-opacity="0.5" stroke="#606060" stroke-width=".5" x="0" y="0" width="60" height="60"/>
                <use id="zoomplus" xlink:href="#zoomPlus" x="17" y="9" onmousedown="handleZoom(evt,'in')"/>
                <use id="zoomminus" xlink:href="#zoomMin" x="42" y="9" onmousedown="handleZoom(evt,'out')"/>
                <use id="reset" xlink:href="#resetDef" x="30" y="36" onmousedown="handleReset()"/>
                <g id="arrowUp" xlink:href="#dirArrow" transform="translate(30 24)" onmousedown="handlePan(0,-1)">
                  <use xlink:href="#rim" fill="#404040">
                        <set attributeName="fill" to="#808080" begin="arrowUp.mouseover" end="arrowUp.mouseout"/>
                  </use>
                  <path fill="none" stroke="white" stroke-width="1.5" d="M0,-3.0v7 M-2.5,-0.5L0,-3.0L2.5,-0.5"/>
                </g>
                <g id="arrowRight" xlink:href="#dirArrow" transform="rotate(90) translate(36 -43)" onmousedown="handlePan(1,0)">
                  <use xlink:href="#rim" fill="#404040">
                        <set attributeName="fill" to="#808080" begin="arrowRight.mouseover" end="arrowRight.mouseout"/>
                  </use>
                  <path fill="none" stroke="white" stroke-width="1.5" d="M0,-3.0v7 M-2.5,-0.5L0,-3.0L2.5,-0.5"/>
                </g>
                <g id="arrowDown" xlink:href="#dirArrow" transform="rotate(180) translate(-30 -48)" onmousedown="handlePan(0,1)">
                  <use xlink:href="#rim" fill="#404040">
                        <set attributeName="fill" to="#808080" begin="arrowDown.mouseover" end="arrowDown.mouseout"/>
                  </use>
                  <path fill="none" stroke="white" stroke-width="1.5" d="M0,-3.0v7 M-2.5,-0.5L0,-3.0L2.5,-0.5"/>
                </g>
                <g id="arrowLeft" xlink:href="#dirArrow" transform="rotate(270) translate(-36 17)" onmousedown="handlePan(-1,0)">
                  <use xlink:href="#rim" fill="#404040">
                        <set attributeName="fill" to="#808080" begin="arrowLeft.mouseover" end="arrowLeft.mouseout"/>
                  </use>
                  <path fill="none" stroke="white" stroke-width="1.5" d="M0,-3.0v7 M-2.5,-0.5L0,-3.0L2.5,-0.5"/>
                </g>
        </g>
        <svg viewBox="0 0 15 15" width="100%" height="30px" preserveAspectRatio="xMaxYMin meet">
         <g id="arrow_out" transform="scale(0.3 0.3)">
          <a xlink:href="fvm_8_h__incl_org.svg" target="_base">
           <rect id="button" ry="5" rx="5" y="6" x="6" height="38" width="38"
                fill="#f2f5e9" fill-opacity="0.5" stroke="#606060" stroke-width="1.0"/>
           <path id="arrow"
             d="M 11.500037,31.436501 C 11.940474,20.09759 22.043105,11.32322 32.158766,21.979434 L 37.068811,17.246167 C 37.068811,17.246167 37.088388,32 37.088388,32 L 22.160133,31.978069 C 22.160133,31.978069 26.997745,27.140456 26.997745,27.140456 C 18.528582,18.264221 13.291696,25.230495 11.500037,31.436501 z"
             style="fill:#404040;"/>
          </a>
         </g>
        </svg>
</svg>
