<?xml version="1.0" encoding="UTF-8" standalone="no"?>
<!DOCTYPE svg PUBLIC "-//W3C//DTD SVG 1.1//EN"
 "http://www.w3.org/Graphics/SVG/1.1/DTD/svg11.dtd">
<!-- Generated by graphviz version 2.40.1 (20161225.0304)
 -->
<!-- Title: fvm_utils.H Pages: 1 -->
<svg width="570pt" height="140pt"
 viewBox="0.00 0.00 570.00 140.00" xmlns="http://www.w3.org/2000/svg" xmlns:xlink="http://www.w3.org/1999/xlink">
<g id="graph0" class="graph" transform="scale(1 1) rotate(0) translate(4 136)">
<title>fvm_utils.H</title>
<polygon fill="#ffffff" stroke="transparent" points="-4,4 -4,-136 566,-136 566,4 -4,4"/>
<!-- Node25 -->
<g id="node1" class="node">
<title>Node25</title>
<polygon fill="#bfbfbf" stroke="#000000" points="218.5,-112.5 218.5,-131.5 285.5,-131.5 285.5,-112.5 218.5,-112.5"/>
<text text-anchor="middle" x="252" y="-119.5" font-family="Helvetica,sans-Serif" font-size="10.00" fill="#000000">fvm_utils.H</text>
</g>
<!-- Node26 -->
<g id="node2" class="node">
<title>Node26</title>
<g id="a_node2"><a xlink:href="divergence_8_h.html" target="_top" xlink:title="divergence.H">
<polygon fill="#ffffff" stroke="#000000" points="0,-56.5 0,-75.5 74,-75.5 74,-56.5 0,-56.5"/>
<text text-anchor="middle" x="37" y="-63.5" font-family="Helvetica,sans-Serif" font-size="10.00" fill="#000000">divergence.H</text>
</a>
</g>
</g>
<!-- Node25&#45;&gt;Node26 -->
<g id="edge1" class="edge">
<title>Node25&#45;&gt;Node26</title>
<path fill="none" stroke="#191970" d="M208.4918,-110.6676C168.8387,-100.3394 110.9215,-85.254 73.5936,-75.5314"/>
<polygon fill="#191970" stroke="#191970" points="207.8469,-114.1164 218.4063,-113.25 209.6113,-107.3424 207.8469,-114.1164"/>
</g>
<!-- Node29 -->
<g id="node5" class="node">
<title>Node29</title>
<g id="a_node5"><a xlink:href="curvature_8_h.html" target="_top" xlink:title="curvature.H">
<polygon fill="#ffffff" stroke="#000000" points="92,-56.5 92,-75.5 160,-75.5 160,-56.5 92,-56.5"/>
<text text-anchor="middle" x="126" y="-63.5" font-family="Helvetica,sans-Serif" font-size="10.00" fill="#000000">curvature.H</text>
</a>
</g>
</g>
<!-- Node25&#45;&gt;Node29 -->
<g id="edge4" class="edge">
<title>Node25&#45;&gt;Node29</title>
<path fill="none" stroke="#191970" d="M221.0564,-108.2473C198.1735,-98.0771 167.5986,-84.4883 147.3775,-75.5011"/>
<polygon fill="#191970" stroke="#191970" points="219.7802,-111.5102 230.3398,-112.3733 222.6232,-105.1135 219.7802,-111.5102"/>
</g>
<!-- Node30 -->
<g id="node6" class="node">
<title>Node30</title>
<g id="a_node6"><a xlink:href="gradient_8_h.html" target="_top" xlink:title="gradient.H">
<polygon fill="#ffffff" stroke="#000000" points="262,-56.5 262,-75.5 324,-75.5 324,-56.5 262,-56.5"/>
<text text-anchor="middle" x="293" y="-63.5" font-family="Helvetica,sans-Serif" font-size="10.00" fill="#000000">gradient.H</text>
</a>
</g>
</g>
<!-- Node25&#45;&gt;Node30 -->
<g id="edge6" class="edge">
<title>Node25&#45;&gt;Node30</title>
<path fill="none" stroke="#191970" d="M265.2364,-103.9209C272.1211,-94.5176 280.2609,-83.3997 285.9402,-75.6427"/>
<polygon fill="#191970" stroke="#191970" points="262.2251,-102.1093 259.1417,-112.2455 267.8731,-106.2445 262.2251,-102.1093"/>
</g>
<!-- Node34 -->
<g id="node10" class="node">
<title>Node34</title>
<g id="a_node10"><a xlink:href="laplacian_8_h.html" target="_top" xlink:title="laplacian.H">
<polygon fill="#ffffff" stroke="#000000" points="178.5,-56.5 178.5,-75.5 243.5,-75.5 243.5,-56.5 178.5,-56.5"/>
<text text-anchor="middle" x="211" y="-63.5" font-family="Helvetica,sans-Serif" font-size="10.00" fill="#000000">laplacian.H</text>
</a>
</g>
</g>
<!-- Node25&#45;&gt;Node34 -->
<g id="edge11" class="edge">
<title>Node25&#45;&gt;Node34</title>
<path fill="none" stroke="#191970" d="M238.7636,-103.9209C231.8789,-94.5176 223.7391,-83.3997 218.0598,-75.6427"/>
<polygon fill="#191970" stroke="#191970" points="236.1269,-106.2445 244.8583,-112.2455 241.7749,-102.1093 236.1269,-106.2445"/>
</g>
<!-- Node35 -->
<g id="node11" class="node">
<title>Node35</title>
<g id="a_node11"><a xlink:href="strainrate_8_h.html" target="_top" xlink:title="strainrate.H">
<polygon fill="#ffffff" stroke="#000000" points="342,-56.5 342,-75.5 410,-75.5 410,-56.5 342,-56.5"/>
<text text-anchor="middle" x="376" y="-63.5" font-family="Helvetica,sans-Serif" font-size="10.00" fill="#000000">strainrate.H</text>
</a>
</g>
</g>
<!-- Node25&#45;&gt;Node35 -->
<g id="edge13" class="edge">
<title>Node25&#45;&gt;Node35</title>
<path fill="none" stroke="#191970" d="M282.4524,-108.2473C304.9722,-98.0771 335.0617,-84.4883 354.9618,-75.5011"/>
<polygon fill="#191970" stroke="#191970" points="280.9895,-105.0675 273.3164,-112.3733 283.8706,-111.4471 280.9895,-105.0675"/>
</g>
<!-- Node37 -->
<g id="node13" class="node">
<title>Node37</title>
<g id="a_node13"><a xlink:href="vorticity__mag_8_h.html" target="_top" xlink:title="vorticity_mag.H">
<polygon fill="#ffffff" stroke="#000000" points="428,-56.5 428,-75.5 514,-75.5 514,-56.5 428,-56.5"/>
<text text-anchor="middle" x="471" y="-63.5" font-family="Helvetica,sans-Serif" font-size="10.00" fill="#000000">vorticity_mag.H</text>
</a>
</g>
</g>
<!-- Node25&#45;&gt;Node37 -->
<g id="edge17" class="edge">
<title>Node25&#45;&gt;Node37</title>
<path fill="none" stroke="#191970" d="M295.562,-110.8609C335.9086,-100.5439 395.2855,-85.3608 433.5519,-75.5758"/>
<polygon fill="#191970" stroke="#191970" points="294.56,-107.5044 285.7388,-113.3727 296.2942,-114.2862 294.56,-107.5044"/>
</g>
<!-- Node27 -->
<g id="node3" class="node">
<title>Node27</title>
<g id="a_node3"><a xlink:href="icns__ops_8cpp.html" target="_top" xlink:title="icns_ops.cpp">
<polygon fill="#ffffff" stroke="#000000" points="0,-.5 0,-19.5 74,-19.5 74,-.5 0,-.5"/>
<text text-anchor="middle" x="37" y="-7.5" font-family="Helvetica,sans-Serif" font-size="10.00" fill="#000000">icns_ops.cpp</text>
</a>
</g>
</g>
<!-- Node26&#45;&gt;Node27 -->
<g id="edge2" class="edge">
<title>Node26&#45;&gt;Node27</title>
<path fill="none" stroke="#191970" d="M37,-46.1575C37,-37.155 37,-26.9199 37,-19.6427"/>
<polygon fill="#191970" stroke="#191970" points="33.5001,-46.2455 37,-56.2455 40.5001,-46.2456 33.5001,-46.2455"/>
</g>
<!-- Node28 -->
<g id="node4" class="node">
<title>Node28</title>
<g id="a_node4"><a xlink:href="fvm_8_h.html" target="_top" xlink:title="fvm.H">
<polygon fill="#ffffff" stroke="#000000" points="98,-.5 98,-19.5 142,-19.5 142,-.5 98,-.5"/>
<text text-anchor="middle" x="120" y="-7.5" font-family="Helvetica,sans-Serif" font-size="10.00" fill="#000000">fvm.H</text>
</a>
</g>
</g>
<!-- Node26&#45;&gt;Node28 -->
<g id="edge3" class="edge">
<title>Node26&#45;&gt;Node28</title>
<path fill="none" stroke="#191970" d="M59.988,-50.49C74.6322,-40.6096 93.1444,-28.1194 105.7082,-19.6427"/>
<polygon fill="#191970" stroke="#191970" points="57.7896,-47.7511 51.4575,-56.2455 61.7047,-53.5539 57.7896,-47.7511"/>
</g>
<!-- Node29&#45;&gt;Node28 -->
<g id="edge5" class="edge">
<title>Node29&#45;&gt;Node28</title>
<path fill="none" stroke="#191970" d="M123.874,-46.1575C122.9095,-37.155 121.8128,-26.9199 121.0331,-19.6427"/>
<polygon fill="#191970" stroke="#191970" points="120.4094,-46.6753 124.9549,-56.2455 127.3695,-45.9296 120.4094,-46.6753"/>
</g>
<!-- Node30&#45;&gt;Node28 -->
<g id="edge7" class="edge">
<title>Node30&#45;&gt;Node28</title>
<path fill="none" stroke="#191970" d="M253.5051,-53.2155C219.0384,-42.0587 170.2723,-26.2731 142.2157,-17.1912"/>
<polygon fill="#191970" stroke="#191970" points="252.6684,-56.6234 263.2602,-56.3733 254.8242,-49.9636 252.6684,-56.6234"/>
</g>
<!-- Node31 -->
<g id="node7" class="node">
<title>Node31</title>
<g id="a_node7"><a xlink:href="_zalesak_disk_8cpp.html" target="_top" xlink:title="ZalesakDisk.cpp">
<polygon fill="#ffffff" stroke="#000000" points="160,-.5 160,-19.5 250,-19.5 250,-.5 160,-.5"/>
<text text-anchor="middle" x="205" y="-7.5" font-family="Helvetica,sans-Serif" font-size="10.00" fill="#000000">ZalesakDisk.cpp</text>
</a>
</g>
</g>
<!-- Node30&#45;&gt;Node31 -->
<g id="edge8" class="edge">
<title>Node30&#45;&gt;Node31</title>
<path fill="none" stroke="#191970" d="M269.0655,-50.769C253.4717,-40.8456 233.599,-28.1994 220.1528,-19.6427"/>
<polygon fill="#191970" stroke="#191970" points="267.3559,-53.8296 277.6716,-56.2455 271.114,-47.9239 267.3559,-53.8296"/>
</g>
<!-- Node32 -->
<g id="node8" class="node">
<title>Node32</title>
<g id="a_node8"><a xlink:href="_one_eq_ksgs_8cpp.html" target="_top" xlink:title="OneEqKsgs.cpp">
<polygon fill="#ffffff" stroke="#000000" points="364,-.5 364,-19.5 452,-19.5 452,-.5 364,-.5"/>
<text text-anchor="middle" x="408" y="-7.5" font-family="Helvetica,sans-Serif" font-size="10.00" fill="#000000">OneEqKsgs.cpp</text>
</a>
</g>
</g>
<!-- Node30&#45;&gt;Node32 -->
<g id="edge9" class="edge">
<title>Node30&#45;&gt;Node32</title>
<path fill="none" stroke="#191970" d="M321.8033,-51.9741C342.625,-41.8348 370.1978,-28.408 388.4888,-19.5011"/>
<polygon fill="#191970" stroke="#191970" points="320.2276,-48.8484 312.7692,-56.3733 323.2922,-55.1419 320.2276,-48.8484"/>
</g>
<!-- Node33 -->
<g id="node9" class="node">
<title>Node33</title>
<g id="a_node9"><a xlink:href="_a_b_l_stats_8cpp.html" target="_top" xlink:title="ABLStats.cpp">
<polygon fill="#ffffff" stroke="#000000" points="268.5,-.5 268.5,-19.5 345.5,-19.5 345.5,-.5 268.5,-.5"/>
<text text-anchor="middle" x="307" y="-7.5" font-family="Helvetica,sans-Serif" font-size="10.00" fill="#000000">ABLStats.cpp</text>
</a>
</g>
</g>
<!-- Node30&#45;&gt;Node33 -->
<g id="edge10" class="edge">
<title>Node30&#45;&gt;Node33</title>
<path fill="none" stroke="#191970" d="M297.8865,-46.4538C300.1549,-37.3803 302.75,-26.9998 304.5893,-19.6427"/>
<polygon fill="#191970" stroke="#191970" points="294.4685,-45.6952 295.4386,-56.2455 301.2595,-47.393 294.4685,-45.6952"/>
</g>
<!-- Node34&#45;&gt;Node28 -->
<g id="edge12" class="edge">
<title>Node34&#45;&gt;Node28</title>
<path fill="none" stroke="#191970" d="M186.2496,-50.769C170.1242,-40.8456 149.574,-28.1994 135.6693,-19.6427"/>
<polygon fill="#191970" stroke="#191970" points="184.7981,-53.9853 195.149,-56.2455 188.4668,-48.0237 184.7981,-53.9853"/>
</g>
<!-- Node35&#45;&gt;Node28 -->
<g id="edge14" class="edge">
<title>Node35&#45;&gt;Node28</title>
<path fill="none" stroke="#191970" d="M331.5855,-55.7649C250.6139,-38.7831 227.6997,-39.8841 151,-20 148.1535,-19.2621 145.1843,-18.4113 142.2598,-17.524"/>
<polygon fill="#191970" stroke="#191970" points="331.2461,-59.2709 341.7555,-57.9281 332.7025,-52.4241 331.2461,-59.2709"/>
</g>
<!-- Node35&#45;&gt;Node32 -->
<g id="edge15" class="edge">
<title>Node35&#45;&gt;Node32</title>
<path fill="none" stroke="#191970" d="M386.6645,-47.3372C391.9654,-38.0605 398.1487,-27.2398 402.4899,-19.6427"/>
<polygon fill="#191970" stroke="#191970" points="383.4966,-45.8266 381.574,-56.2455 389.5743,-49.2996 383.4966,-45.8266"/>
</g>
<!-- Node36 -->
<g id="node12" class="node">
<title>Node36</title>
<g id="a_node12"><a xlink:href="_smagorinsky_8cpp.html" target="_top" xlink:title="Smagorinsky.cpp">
<polygon fill="#ffffff" stroke="#000000" points="470,-.5 470,-19.5 562,-19.5 562,-.5 470,-.5"/>
<text text-anchor="middle" x="516" y="-7.5" font-family="Helvetica,sans-Serif" font-size="10.00" fill="#000000">Smagorinsky.cpp</text>
</a>
</g>
</g>
<!-- Node35&#45;&gt;Node36 -->
<g id="edge16" class="edge">
<title>Node35&#45;&gt;Node36</title>
<path fill="none" stroke="#191970" d="M409.3649,-52.6541C434.8952,-42.4419 469.4784,-28.6086 492.2472,-19.5011"/>
<polygon fill="#191970" stroke="#191970" points="408.0517,-49.4096 400.0669,-56.3733 410.6515,-55.909 408.0517,-49.4096"/>
</g>
</g>
</svg>
