<?xml version="1.0" encoding="UTF-8" standalone="no"?>
<!DOCTYPE svg PUBLIC "-//W3C//DTD SVG 1.1//EN"
 "http://www.w3.org/Graphics/SVG/1.1/DTD/svg11.dtd">
<!-- Generated by graphviz version 2.40.1 (20161225.0304)
 -->
<!-- Title: gradient.H Pages: 1 -->
<svg width="1507pt" height="252pt"
 viewBox="0.00 0.00 1507.00 252.00" xmlns="http://www.w3.org/2000/svg" xmlns:xlink="http://www.w3.org/1999/xlink">
<g id="graph0" class="graph" transform="scale(1 1) rotate(0) translate(4 248)">
<title>gradient.H</title>
<polygon fill="#ffffff" stroke="transparent" points="-4,4 -4,-248 1503,-248 1503,4 -4,4"/>
<!-- Node0 -->
<g id="node1" class="node">
<title>Node0</title>
<polygon fill="#bfbfbf" stroke="#000000" points="1325.5,-224.5 1325.5,-243.5 1387.5,-243.5 1387.5,-224.5 1325.5,-224.5"/>
<text text-anchor="middle" x="1356.5" y="-231.5" font-family="Helvetica,sans-Serif" font-size="10.00" fill="#000000">gradient.H</text>
</g>
<!-- Node1 -->
<g id="node2" class="node">
<title>Node1</title>
<g id="a_node2"><a xlink:href="fvm__utils_8_h.html" target="_top" xlink:title="amr&#45;wind/fvm/fvm_utils.H">
<polygon fill="#ffffff" stroke="#000000" points="1144,-168.5 1144,-187.5 1273,-187.5 1273,-168.5 1144,-168.5"/>
<text text-anchor="middle" x="1208.5" y="-175.5" font-family="Helvetica,sans-Serif" font-size="10.00" fill="#000000">amr&#45;wind/fvm/fvm_utils.H</text>
</a>
</g>
</g>
<!-- Node0&#45;&gt;Node1 -->
<g id="edge1" class="edge">
<title>Node0&#45;&gt;Node1</title>
<path fill="none" stroke="#191970" d="M1331.0579,-224.3733C1306.7674,-215.1822 1269.9792,-201.2624 1243.0457,-191.0713"/>
<polygon fill="#191970" stroke="#191970" points="1244.2016,-187.7666 1233.6101,-187.5011 1241.7243,-194.3136 1244.2016,-187.7666"/>
</g>
<!-- Node24 -->
<g id="node25" class="node">
<title>Node24</title>
<polygon fill="#ffffff" stroke="#bfbfbf" points="1340.5,-56.5 1340.5,-75.5 1450.5,-75.5 1450.5,-56.5 1340.5,-56.5"/>
<text text-anchor="middle" x="1395.5" y="-63.5" font-family="Helvetica,sans-Serif" font-size="10.00" fill="#000000">AMReX_Geometry.H</text>
</g>
<!-- Node0&#45;&gt;Node24 -->
<g id="edge39" class="edge">
<title>Node0&#45;&gt;Node24</title>
<path fill="none" stroke="#191970" d="M1358.7086,-224.4862C1364.9002,-197.8144 1382.5205,-121.9117 1390.9279,-85.695"/>
<polygon fill="#191970" stroke="#191970" points="1394.3665,-86.3603 1393.2185,-75.8279 1387.5478,-84.7774 1394.3665,-86.3603"/>
</g>
<!-- Node25 -->
<g id="node26" class="node">
<title>Node25</title>
<polygon fill="#ffffff" stroke="#bfbfbf" points="1252,-112.5 1252,-131.5 1347,-131.5 1347,-112.5 1252,-112.5"/>
<text text-anchor="middle" x="1299.5" y="-119.5" font-family="Helvetica,sans-Serif" font-size="10.00" fill="#000000">AMReX_MFIter.H</text>
</g>
<!-- Node0&#45;&gt;Node25 -->
<g id="edge40" class="edge">
<title>Node0&#45;&gt;Node25</title>
<path fill="none" stroke="#191970" d="M1351.6402,-224.4509C1342.2174,-205.936 1321.3122,-164.8591 1309.0265,-140.7187"/>
<polygon fill="#191970" stroke="#191970" points="1312.0025,-138.8496 1304.3475,-131.5249 1305.7639,-142.0246 1312.0025,-138.8496"/>
</g>
<!-- Node26 -->
<g id="node27" class="node">
<title>Node26</title>
<polygon fill="#ffffff" stroke="#bfbfbf" points="1404,-168.5 1404,-187.5 1499,-187.5 1499,-168.5 1404,-168.5"/>
<text text-anchor="middle" x="1451.5" y="-175.5" font-family="Helvetica,sans-Serif" font-size="10.00" fill="#000000">AMReX_Array4.H</text>
</g>
<!-- Node0&#45;&gt;Node26 -->
<g id="edge38" class="edge">
<title>Node0&#45;&gt;Node26</title>
<path fill="none" stroke="#191970" d="M1373.0477,-224.2455C1387.7599,-215.5731 1409.4888,-202.7645 1426.3505,-192.825"/>
<polygon fill="#191970" stroke="#191970" points="1428.3046,-195.736 1435.1419,-187.6427 1424.7498,-189.7057 1428.3046,-195.736"/>
</g>
<!-- Node2 -->
<g id="node3" class="node">
<title>Node2</title>
<g id="a_node3"><a xlink:href="_field_repo_8_h.html" target="_top" xlink:title="amr&#45;wind/core/FieldRepo.H">
<polygon fill="#ffffff" stroke="#000000" points="512.5,-112.5 512.5,-131.5 648.5,-131.5 648.5,-112.5 512.5,-112.5"/>
<text text-anchor="middle" x="580.5" y="-119.5" font-family="Helvetica,sans-Serif" font-size="10.00" fill="#000000">amr&#45;wind/core/FieldRepo.H</text>
</a>
</g>
</g>
<!-- Node1&#45;&gt;Node2 -->
<g id="edge2" class="edge">
<title>Node1&#45;&gt;Node2</title>
<path fill="none" stroke="#191970" d="M1143.9516,-172.2441C1027.9602,-161.9009 784.6973,-140.2087 659.1646,-129.0147"/>
<polygon fill="#191970" stroke="#191970" points="659.1334,-125.4981 648.8621,-128.096 658.5116,-132.4704 659.1334,-125.4981"/>
</g>
<!-- Node20 -->
<g id="node21" class="node">
<title>Node20</title>
<g id="a_node21"><a xlink:href="stencils_8_h.html" target="_top" xlink:title="Second&#45;order finite volume discretization stencil coefficients. ">
<polygon fill="#ffffff" stroke="#000000" points="1111,-112.5 1111,-131.5 1234,-131.5 1234,-112.5 1111,-112.5"/>
<text text-anchor="middle" x="1172.5" y="-119.5" font-family="Helvetica,sans-Serif" font-size="10.00" fill="#000000">amr&#45;wind/fvm/stencils.H</text>
</a>
</g>
</g>
<!-- Node1&#45;&gt;Node20 -->
<g id="edge32" class="edge">
<title>Node1&#45;&gt;Node20</title>
<path fill="none" stroke="#191970" d="M1202.2293,-168.2455C1197.2736,-160.5367 1190.217,-149.5598 1184.2224,-140.2348"/>
<polygon fill="#191970" stroke="#191970" points="1187.0506,-138.1618 1178.6989,-131.6427 1181.1624,-141.9471 1187.0506,-138.1618"/>
</g>
<!-- Node1&#45;&gt;Node25 -->
<g id="edge37" class="edge">
<title>Node1&#45;&gt;Node25</title>
<path fill="none" stroke="#191970" d="M1224.351,-168.2455C1238.3132,-159.6534 1258.8728,-147.0014 1274.9596,-137.1018"/>
<polygon fill="#191970" stroke="#191970" points="1277.1484,-139.8645 1283.8307,-131.6427 1273.4797,-133.9029 1277.1484,-139.8645"/>
</g>
<!-- Node3 -->
<g id="node4" class="node">
<title>Node3</title>
<polygon fill="#ffffff" stroke="#bfbfbf" points="125,-.5 125,-19.5 166,-19.5 166,-.5 125,-.5"/>
<text text-anchor="middle" x="145.5" y="-7.5" font-family="Helvetica,sans-Serif" font-size="10.00" fill="#000000">string</text>
</g>
<!-- Node2&#45;&gt;Node3 -->
<g id="edge3" class="edge">
<title>Node2&#45;&gt;Node3</title>
<path fill="none" stroke="#191970" d="M529.009,-112.483C491.7748,-104.7821 440.6415,-92.5037 397.5,-76 379.6745,-69.1809 377.5001,-62.3439 359.5,-56 283.8262,-29.3297 257.9981,-40.3164 175.8114,-19.7589"/>
<polygon fill="#191970" stroke="#191970" points="176.6095,-16.3502 166.0519,-17.2375 174.8585,-23.1277 176.6095,-16.3502"/>
</g>
<!-- Node4 -->
<g id="node5" class="node">
<title>Node4</title>
<polygon fill="#ffffff" stroke="#bfbfbf" points="882,-.5 882,-19.5 965,-19.5 965,-.5 882,-.5"/>
<text text-anchor="middle" x="923.5" y="-7.5" font-family="Helvetica,sans-Serif" font-size="10.00" fill="#000000">unordered_map</text>
</g>
<!-- Node2&#45;&gt;Node4 -->
<g id="edge4" class="edge">
<title>Node2&#45;&gt;Node4</title>
<path fill="none" stroke="#191970" d="M635.6776,-112.4898C676.3253,-104.7219 732.6245,-92.3578 780.5,-76 822.3933,-61.6861 868.4959,-39.0777 896.7257,-24.3924"/>
<polygon fill="#191970" stroke="#191970" points="898.7059,-27.3056 905.9294,-19.555 895.4492,-21.1093 898.7059,-27.3056"/>
</g>
<!-- Node5 -->
<g id="node6" class="node">
<title>Node5</title>
<g id="a_node6"><a xlink:href="_field_desc_types_8_h.html" target="_top" xlink:title="amr&#45;wind/core/FieldDescTypes.H">
<polygon fill="#ffffff" stroke="#000000" points="444,-.5 444,-19.5 607,-19.5 607,-.5 444,-.5"/>
<text text-anchor="middle" x="525.5" y="-7.5" font-family="Helvetica,sans-Serif" font-size="10.00" fill="#000000">amr&#45;wind/core/FieldDescTypes.H</text>
</a>
</g>
</g>
<!-- Node2&#45;&gt;Node5 -->
<g id="edge5" class="edge">
<title>Node2&#45;&gt;Node5</title>
<path fill="none" stroke="#191970" d="M578.8896,-112.1678C576.4459,-98.8762 571.0448,-74.6895 561.5,-56 556.2967,-45.8114 548.6883,-35.6696 541.8051,-27.5119"/>
<polygon fill="#191970" stroke="#191970" points="544.2602,-25.0039 535.0257,-19.8102 539.0058,-29.629 544.2602,-25.0039"/>
</g>
<!-- Node6 -->
<g id="node7" class="node">
<title>Node6</title>
<g id="a_node7"><a xlink:href="_field_utils_8_h.html" target="_top" xlink:title="amr&#45;wind/core/FieldUtils.H">
<polygon fill="#ffffff" stroke="#000000" points="613,-56.5 613,-75.5 746,-75.5 746,-56.5 613,-56.5"/>
<text text-anchor="middle" x="679.5" y="-63.5" font-family="Helvetica,sans-Serif" font-size="10.00" fill="#000000">amr&#45;wind/core/FieldUtils.H</text>
</a>
</g>
</g>
<!-- Node2&#45;&gt;Node6 -->
<g id="edge6" class="edge">
<title>Node2&#45;&gt;Node6</title>
<path fill="none" stroke="#191970" d="M597.7445,-112.2455C613.0761,-103.5731 635.7199,-90.7645 653.2916,-80.825"/>
<polygon fill="#191970" stroke="#191970" points="655.4724,-83.6126 662.4531,-75.6427 652.0259,-77.5198 655.4724,-83.6126"/>
</g>
<!-- Node7 -->
<g id="node8" class="node">
<title>Node7</title>
<polygon fill="#ffffff" stroke="#bfbfbf" points="759.5,-.5 759.5,-19.5 863.5,-19.5 863.5,-.5 759.5,-.5"/>
<text text-anchor="middle" x="811.5" y="-7.5" font-family="Helvetica,sans-Serif" font-size="10.00" fill="#000000">AMReX_MultiFab.H</text>
</g>
<!-- Node2&#45;&gt;Node7 -->
<g id="edge30" class="edge">
<title>Node2&#45;&gt;Node7</title>
<path fill="none" stroke="#191970" d="M648.722,-113.6681C682.4811,-107.2168 722.701,-95.8677 754.5,-76 773.8522,-63.909 790.1748,-43.178 800.3272,-28.1716"/>
<polygon fill="#191970" stroke="#191970" points="803.3189,-29.9908 805.8231,-19.6962 797.4457,-26.1823 803.3189,-29.9908"/>
</g>
<!-- Node9 -->
<g id="node10" class="node">
<title>Node9</title>
<g id="a_node10"><a xlink:href="_field_8_h.html" target="_top" xlink:title="amr&#45;wind/core/Field.H">
<polygon fill="#ffffff" stroke="#000000" points="863,-56.5 863,-75.5 976,-75.5 976,-56.5 863,-56.5"/>
<text text-anchor="middle" x="919.5" y="-63.5" font-family="Helvetica,sans-Serif" font-size="10.00" fill="#000000">amr&#45;wind/core/Field.H</text>
</a>
</g>
</g>
<!-- Node2&#45;&gt;Node9 -->
<g id="edge10" class="edge">
<title>Node2&#45;&gt;Node9</title>
<path fill="none" stroke="#191970" d="M638.391,-112.4369C697.8635,-102.6125 790.3356,-87.3369 852.8292,-77.0135"/>
<polygon fill="#191970" stroke="#191970" points="853.6809,-80.4203 862.9767,-75.3372 852.5399,-73.5139 853.6809,-80.4203"/>
</g>
<!-- Node14 -->
<g id="node15" class="node">
<title>Node14</title>
<g id="a_node15"><a xlink:href="_int_field_8_h.html" target="_top" xlink:title="amr&#45;wind/core/IntField.H">
<polygon fill="#ffffff" stroke="#000000" points="226.5,-56.5 226.5,-75.5 350.5,-75.5 350.5,-56.5 226.5,-56.5"/>
<text text-anchor="middle" x="288.5" y="-63.5" font-family="Helvetica,sans-Serif" font-size="10.00" fill="#000000">amr&#45;wind/core/IntField.H</text>
</a>
</g>
</g>
<!-- Node2&#45;&gt;Node14 -->
<g id="edge19" class="edge">
<title>Node2&#45;&gt;Node14</title>
<path fill="none" stroke="#191970" d="M530.6352,-112.4369C480.1367,-102.7522 402.0165,-87.7703 348.2395,-77.4569"/>
<polygon fill="#191970" stroke="#191970" points="348.6394,-73.9699 338.1591,-75.5237 347.3209,-80.8446 348.6394,-73.9699"/>
</g>
<!-- Node15 -->
<g id="node16" class="node">
<title>Node15</title>
<polygon fill="#ffffff" stroke="#bfbfbf" points="0,-.5 0,-19.5 107,-19.5 107,-.5 0,-.5"/>
<text text-anchor="middle" x="53.5" y="-7.5" font-family="Helvetica,sans-Serif" font-size="10.00" fill="#000000">AMReX_iMultiFab.H</text>
</g>
<!-- Node2&#45;&gt;Node15 -->
<g id="edge31" class="edge">
<title>Node2&#45;&gt;Node15</title>
<path fill="none" stroke="#191970" d="M512.3544,-118.9447C386.7143,-112.82 128.1712,-97.7397 93.5,-76 76.5295,-65.359 65.7385,-44.6379 59.6971,-29.2389"/>
<polygon fill="#191970" stroke="#191970" points="62.9192,-27.8547 56.2559,-19.6176 56.3281,-30.2122 62.9192,-27.8547"/>
</g>
<!-- Node16 -->
<g id="node17" class="node">
<title>Node16</title>
<g id="a_node17"><a xlink:href="_scratch_field_8_h.html" target="_top" xlink:title="amr&#45;wind/core/ScratchField.H">
<polygon fill="#ffffff" stroke="#000000" points="406.5,-56.5 406.5,-75.5 552.5,-75.5 552.5,-56.5 406.5,-56.5"/>
<text text-anchor="middle" x="479.5" y="-63.5" font-family="Helvetica,sans-Serif" font-size="10.00" fill="#000000">amr&#45;wind/core/ScratchField.H</text>
</a>
</g>
</g>
<!-- Node2&#45;&gt;Node16 -->
<g id="edge23" class="edge">
<title>Node2&#45;&gt;Node16</title>
<path fill="none" stroke="#191970" d="M562.9071,-112.2455C547.121,-103.4928 523.7361,-90.527 505.7413,-80.5496"/>
<polygon fill="#191970" stroke="#191970" points="507.3341,-77.4308 496.8913,-75.6427 503.9397,-83.5528 507.3341,-77.4308"/>
</g>
<!-- Node19 -->
<g id="node20" class="node">
<title>Node19</title>
<polygon fill="#ffffff" stroke="#bfbfbf" points="102.5,-56.5 102.5,-75.5 208.5,-75.5 208.5,-56.5 102.5,-56.5"/>
<text text-anchor="middle" x="155.5" y="-63.5" font-family="Helvetica,sans-Serif" font-size="10.00" fill="#000000">AMReX_AmrCore.H</text>
</g>
<!-- Node2&#45;&gt;Node19 -->
<g id="edge29" class="edge">
<title>Node2&#45;&gt;Node19</title>
<path fill="none" stroke="#191970" d="M512.1654,-114.0402C441.3397,-105.6316 327.1601,-91.6341 218.7196,-76.1383"/>
<polygon fill="#191970" stroke="#191970" points="218.9777,-72.6396 208.5818,-74.6828 217.9829,-79.5685 218.9777,-72.6396"/>
</g>
<!-- Node6&#45;&gt;Node5 -->
<g id="edge7" class="edge">
<title>Node6&#45;&gt;Node5</title>
<path fill="none" stroke="#191970" d="M653.0265,-56.3733C627.6403,-47.1419 589.1355,-33.1402 561.078,-22.9375"/>
<polygon fill="#191970" stroke="#191970" points="562.2222,-19.6293 551.6281,-19.5011 559.8299,-26.2079 562.2222,-19.6293"/>
</g>
<!-- Node6&#45;&gt;Node7 -->
<g id="edge8" class="edge">
<title>Node6&#45;&gt;Node7</title>
<path fill="none" stroke="#191970" d="M702.1916,-56.3733C723.5711,-47.3032 755.8057,-33.6279 779.7362,-23.4755"/>
<polygon fill="#191970" stroke="#191970" points="781.2656,-26.6287 789.1045,-19.5011 778.5317,-20.1846 781.2656,-26.6287"/>
</g>
<!-- Node8 -->
<g id="node9" class="node">
<title>Node8</title>
<polygon fill="#ffffff" stroke="#bfbfbf" points="625.5,-.5 625.5,-19.5 741.5,-19.5 741.5,-.5 625.5,-.5"/>
<text text-anchor="middle" x="683.5" y="-7.5" font-family="Helvetica,sans-Serif" font-size="10.00" fill="#000000">AMReX_Interpolater.H</text>
</g>
<!-- Node6&#45;&gt;Node8 -->
<g id="edge9" class="edge">
<title>Node6&#45;&gt;Node8</title>
<path fill="none" stroke="#191970" d="M680.1967,-56.2455C680.7187,-48.9382 681.4504,-38.6944 682.0925,-29.7046"/>
<polygon fill="#191970" stroke="#191970" points="685.5898,-29.8667 682.8112,-19.6427 678.6076,-29.3679 685.5898,-29.8667"/>
</g>
<!-- Node9&#45;&gt;Node3 -->
<g id="edge11" class="edge">
<title>Node9&#45;&gt;Node3</title>
<path fill="none" stroke="#191970" d="M862.7203,-62.5378C702.0843,-52.7371 251.6495,-25.2142 176.6683,-18.7978"/>
<polygon fill="#191970" stroke="#191970" points="176.6078,-15.272 166.2951,-17.701 175.8716,-22.2332 176.6078,-15.272"/>
</g>
<!-- Node9&#45;&gt;Node4 -->
<g id="edge13" class="edge">
<title>Node9&#45;&gt;Node4</title>
<path fill="none" stroke="#191970" d="M920.1967,-56.2455C920.7187,-48.9382 921.4504,-38.6944 922.0925,-29.7046"/>
<polygon fill="#191970" stroke="#191970" points="925.5898,-29.8667 922.8112,-19.6427 918.6076,-29.3679 925.5898,-29.8667"/>
</g>
<!-- Node9&#45;&gt;Node5 -->
<g id="edge18" class="edge">
<title>Node9&#45;&gt;Node5</title>
<path fill="none" stroke="#191970" d="M862.6298,-57.9169C794.2046,-48.1915 679.0156,-31.8195 602.6255,-20.962"/>
<polygon fill="#191970" stroke="#191970" points="602.9717,-17.4761 592.5787,-19.534 601.9866,-24.4065 602.9717,-17.4761"/>
</g>
<!-- Node9&#45;&gt;Node7 -->
<g id="edge14" class="edge">
<title>Node9&#45;&gt;Node7</title>
<path fill="none" stroke="#191970" d="M900.6878,-56.2455C883.6527,-47.4125 858.3425,-34.2887 839.0319,-24.2758"/>
<polygon fill="#191970" stroke="#191970" points="840.5853,-21.1388 830.0966,-19.6427 837.363,-27.353 840.5853,-21.1388"/>
</g>
<!-- Node10 -->
<g id="node11" class="node">
<title>Node10</title>
<polygon fill="#ffffff" stroke="#bfbfbf" points="1129.5,-.5 1129.5,-19.5 1181.5,-19.5 1181.5,-.5 1129.5,-.5"/>
<text text-anchor="middle" x="1155.5" y="-7.5" font-family="Helvetica,sans-Serif" font-size="10.00" fill="#000000">memory</text>
</g>
<!-- Node9&#45;&gt;Node10 -->
<g id="edge12" class="edge">
<title>Node9&#45;&gt;Node10</title>
<path fill="none" stroke="#191970" d="M964.3714,-56.4489C1003.0615,-48.0523 1060.6382,-35.1744 1119.354,-20.2052"/>
<polygon fill="#191970" stroke="#191970" points="1120.3519,-23.5626 1129.1677,-17.6862 1118.6115,-16.7824 1120.3519,-23.5626"/>
</g>
<!-- Node11 -->
<g id="node12" class="node">
<title>Node11</title>
<polygon fill="#ffffff" stroke="#bfbfbf" points="1200,-.5 1200,-19.5 1299,-19.5 1299,-.5 1200,-.5"/>
<text text-anchor="middle" x="1249.5" y="-7.5" font-family="Helvetica,sans-Serif" font-size="10.00" fill="#000000">AMReX_BCRec.H</text>
</g>
<!-- Node9&#45;&gt;Node11 -->
<g id="edge15" class="edge">
<title>Node9&#45;&gt;Node11</title>
<path fill="none" stroke="#191970" d="M975.8541,-56.4369C1035.3684,-46.3375 1128.8303,-30.4773 1189.6387,-20.1583"/>
<polygon fill="#191970" stroke="#191970" points="1190.5781,-23.549 1199.8515,-18.4252 1189.4069,-16.6477 1190.5781,-23.549"/>
</g>
<!-- Node12 -->
<g id="node13" class="node">
<title>Node12</title>
<polygon fill="#ffffff" stroke="#bfbfbf" points="1317,-.5 1317,-19.5 1402,-19.5 1402,-.5 1317,-.5"/>
<text text-anchor="middle" x="1359.5" y="-7.5" font-family="Helvetica,sans-Serif" font-size="10.00" fill="#000000">AMReX_Gpu.H</text>
</g>
<!-- Node9&#45;&gt;Node12 -->
<g id="edge16" class="edge">
<title>Node9&#45;&gt;Node12</title>
<path fill="none" stroke="#191970" d="M976.0051,-57.2904C979.2156,-56.8417 982.3977,-56.4083 985.5,-56 1125.0648,-37.6323 1163.4194,-41.4279 1306.9192,-19.9784"/>
<polygon fill="#191970" stroke="#191970" points="1307.6145,-23.4131 1316.9799,-18.4593 1306.5694,-16.4916 1307.6145,-23.4131"/>
</g>
<!-- Node13 -->
<g id="node14" class="node">
<title>Node13</title>
<g id="a_node14"><a xlink:href="incflo__enums_8_h.html" target="_top" xlink:title="amr&#45;wind/incflo_enums.H">
<polygon fill="#ffffff" stroke="#000000" points="983.5,-.5 983.5,-19.5 1111.5,-19.5 1111.5,-.5 983.5,-.5"/>
<text text-anchor="middle" x="1047.5" y="-7.5" font-family="Helvetica,sans-Serif" font-size="10.00" fill="#000000">amr&#45;wind/incflo_enums.H</text>
</a>
</g>
</g>
<!-- Node9&#45;&gt;Node13 -->
<g id="edge17" class="edge">
<title>Node9&#45;&gt;Node13</title>
<path fill="none" stroke="#191970" d="M941.504,-56.3733C962.1435,-47.3435 993.2158,-33.7494 1016.3889,-23.6111"/>
<polygon fill="#191970" stroke="#191970" points="1018.0245,-26.7159 1025.7831,-19.5011 1015.2187,-20.3028 1018.0245,-26.7159"/>
</g>
<!-- Node14&#45;&gt;Node3 -->
<g id="edge20" class="edge">
<title>Node14&#45;&gt;Node3</title>
<path fill="none" stroke="#191970" d="M263.9174,-56.3733C239.4175,-46.7789 201.759,-32.0315 175.5092,-21.7519"/>
<polygon fill="#191970" stroke="#191970" points="176.6463,-18.4384 166.0586,-18.0509 174.0938,-24.9564 176.6463,-18.4384"/>
</g>
<!-- Node14&#45;&gt;Node5 -->
<g id="edge21" class="edge">
<title>Node14&#45;&gt;Node5</title>
<path fill="none" stroke="#191970" d="M328.9725,-56.4369C369.448,-46.8731 431.7867,-32.1432 475.3703,-21.845"/>
<polygon fill="#191970" stroke="#191970" points="476.2673,-25.2295 485.1945,-19.5237 474.6576,-18.4171 476.2673,-25.2295"/>
</g>
<!-- Node14&#45;&gt;Node15 -->
<g id="edge22" class="edge">
<title>Node14&#45;&gt;Node15</title>
<path fill="none" stroke="#191970" d="M248.3691,-56.4369C208.2351,-46.8731 146.4225,-32.1432 103.2067,-21.845"/>
<polygon fill="#191970" stroke="#191970" points="104.0044,-18.4372 93.4654,-19.5237 102.3817,-25.2465 104.0044,-18.4372"/>
</g>
<!-- Node16&#45;&gt;Node3 -->
<g id="edge24" class="edge">
<title>Node16&#45;&gt;Node3</title>
<path fill="none" stroke="#191970" d="M406.7685,-56.4584C335.6222,-46.8782 231.2442,-32.1071 175.7884,-19.6534"/>
<polygon fill="#191970" stroke="#191970" points="176.5576,-16.2389 166.0219,-17.3567 174.9551,-23.053 176.5576,-16.2389"/>
</g>
<!-- Node16&#45;&gt;Node5 -->
<g id="edge25" class="edge">
<title>Node16&#45;&gt;Node5</title>
<path fill="none" stroke="#191970" d="M487.5126,-56.2455C493.9768,-48.3761 503.2385,-37.101 510.9983,-27.6542"/>
<polygon fill="#191970" stroke="#191970" points="513.9364,-29.5916 517.5792,-19.6427 508.5273,-25.1484 513.9364,-29.5916"/>
</g>
<!-- Node16&#45;&gt;Node7 -->
<g id="edge26" class="edge">
<title>Node16&#45;&gt;Node7</title>
<path fill="none" stroke="#191970" d="M536.1956,-56.4369C595.4926,-46.435 688.2866,-30.783 749.495,-20.4587"/>
<polygon fill="#191970" stroke="#191970" points="750.134,-23.9004 759.4125,-18.7858 748.9697,-16.9979 750.134,-23.9004"/>
</g>
<!-- Node17 -->
<g id="node18" class="node">
<title>Node17</title>
<polygon fill="#ffffff" stroke="#bfbfbf" points="331,-.5 331,-19.5 426,-19.5 426,-.5 331,-.5"/>
<text text-anchor="middle" x="378.5" y="-7.5" font-family="Helvetica,sans-Serif" font-size="10.00" fill="#000000">AMReX_Vector.H</text>
</g>
<!-- Node16&#45;&gt;Node17 -->
<g id="edge27" class="edge">
<title>Node16&#45;&gt;Node17</title>
<path fill="none" stroke="#191970" d="M461.9071,-56.2455C446.121,-47.4928 422.7361,-34.527 404.7413,-24.5496"/>
<polygon fill="#191970" stroke="#191970" points="406.3341,-21.4308 395.8913,-19.6427 402.9397,-27.5528 406.3341,-21.4308"/>
</g>
<!-- Node18 -->
<g id="node19" class="node">
<title>Node18</title>
<polygon fill="#ffffff" stroke="#bfbfbf" points="184.5,-.5 184.5,-19.5 312.5,-19.5 312.5,-.5 184.5,-.5"/>
<text text-anchor="middle" x="248.5" y="-7.5" font-family="Helvetica,sans-Serif" font-size="10.00" fill="#000000">AMReX_PhysBCFunct.H</text>
</g>
<!-- Node16&#45;&gt;Node18 -->
<g id="edge28" class="edge">
<title>Node16&#45;&gt;Node18</title>
<path fill="none" stroke="#191970" d="M440.0522,-56.4369C400.6844,-46.8932 340.0966,-32.2052 297.6292,-21.9101"/>
<polygon fill="#191970" stroke="#191970" points="298.3283,-18.4783 287.7851,-19.5237 296.679,-25.2812 298.3283,-18.4783"/>
</g>
<!-- Node21 -->
<g id="node22" class="node">
<title>Node21</title>
<polygon fill="#ffffff" stroke="#bfbfbf" points="1229,-56.5 1229,-75.5 1322,-75.5 1322,-56.5 1229,-56.5"/>
<text text-anchor="middle" x="1275.5" y="-63.5" font-family="Helvetica,sans-Serif" font-size="10.00" fill="#000000">AMReX_REAL.H</text>
</g>
<!-- Node20&#45;&gt;Node21 -->
<g id="edge33" class="edge">
<title>Node20&#45;&gt;Node21</title>
<path fill="none" stroke="#191970" d="M1190.4412,-112.2455C1206.54,-103.4928 1230.3879,-90.527 1248.7391,-80.5496"/>
<polygon fill="#191970" stroke="#191970" points="1250.6507,-83.4942 1257.7644,-75.6427 1247.3071,-77.3444 1250.6507,-83.4942"/>
</g>
<!-- Node22 -->
<g id="node23" class="node">
<title>Node22</title>
<polygon fill="#ffffff" stroke="#bfbfbf" points="994.5,-56.5 994.5,-75.5 1078.5,-75.5 1078.5,-56.5 994.5,-56.5"/>
<text text-anchor="middle" x="1036.5" y="-63.5" font-family="Helvetica,sans-Serif" font-size="10.00" fill="#000000">AMReX_Box.H</text>
</g>
<!-- Node20&#45;&gt;Node22 -->
<g id="edge34" class="edge">
<title>Node20&#45;&gt;Node22</title>
<path fill="none" stroke="#191970" d="M1149.1208,-112.3733C1126.9955,-103.2629 1093.5866,-89.5062 1068.8981,-79.3404"/>
<polygon fill="#191970" stroke="#191970" points="1070.1536,-76.0723 1059.5742,-75.5011 1067.4883,-82.5451 1070.1536,-76.0723"/>
</g>
<!-- Node23 -->
<g id="node24" class="node">
<title>Node23</title>
<polygon fill="#ffffff" stroke="#bfbfbf" points="1096.5,-56.5 1096.5,-75.5 1210.5,-75.5 1210.5,-56.5 1096.5,-56.5"/>
<text text-anchor="middle" x="1153.5" y="-63.5" font-family="Helvetica,sans-Serif" font-size="10.00" fill="#000000">AMReX_Orientation.H</text>
</g>
<!-- Node20&#45;&gt;Node23 -->
<g id="edge35" class="edge">
<title>Node20&#45;&gt;Node23</title>
<path fill="none" stroke="#191970" d="M1169.1905,-112.2455C1166.6567,-104.7776 1163.0823,-94.2427 1159.985,-85.1137"/>
<polygon fill="#191970" stroke="#191970" points="1163.2991,-83.9879 1156.7716,-75.6427 1156.6702,-86.237 1163.2991,-83.9879"/>
</g>
<!-- Node20&#45;&gt;Node24 -->
<g id="edge36" class="edge">
<title>Node20&#45;&gt;Node24</title>
<path fill="none" stroke="#191970" d="M1210.5817,-112.4369C1248.5059,-102.9133 1306.8289,-88.2672 1347.8126,-77.9753"/>
<polygon fill="#191970" stroke="#191970" points="1348.729,-81.3539 1357.5754,-75.5237 1347.024,-74.5647 1348.729,-81.3539"/>
</g>
</g>
</svg>
