<?xml version="1.0" encoding="UTF-8" standalone="no"?>
<!DOCTYPE svg PUBLIC "-//W3C//DTD SVG 1.1//EN"
 "http://www.w3.org/Graphics/SVG/1.1/DTD/svg11.dtd">
<!-- Generated by graphviz version 2.40.1 (20161225.0304)
 -->
<!-- Title: ABL Pages: 1 -->
<svg width="465pt" height="231pt"
 viewBox="0.00 0.00 465.00 231.00" xmlns="http://www.w3.org/2000/svg" xmlns:xlink="http://www.w3.org/1999/xlink">
<g id="graph0" class="graph" transform="scale(1 1) rotate(0) translate(4 227)">
<title>ABL</title>
<polygon fill="#ffffff" stroke="transparent" points="-4,4 -4,-227 461,-227 461,4 -4,4"/>
<!-- Node5 -->
<g id="node1" class="node">
<title>Node5</title>
<g id="a_node1"><a xlink:href="group__field__bc.html" target="_top" xlink:title="Boundary conditions managment. ">
<polygon fill="#ffffff" stroke="#000000" points="352,-189 352,-219 457,-219 457,-189 352,-189"/>
<text text-anchor="start" x="360" y="-207" font-family="Helvetica,sans-Serif" font-size="10.00" fill="#000000">Boundary conditions</text>
<text text-anchor="middle" x="404.5" y="-196" font-family="Helvetica,sans-Serif" font-size="10.00" fill="#000000"> management</text>
</a>
</g>
</g>
<!-- Node0 -->
<g id="node2" class="node">
<title>Node0</title>
<polygon fill="#bfbfbf" stroke="#000000" points="150,-60.5 150,-79.5 185,-79.5 185,-60.5 150,-60.5"/>
<text text-anchor="middle" x="167.5" y="-67.5" font-family="Helvetica,sans-Serif" font-size="10.00" fill="#000000">ABL</text>
</g>
<!-- Node0&#45;&gt;Node5 -->
<g id="edge5" class="edge">
<title>Node0&#45;&gt;Node5</title>
<path fill="none" stroke="#ffa500" stroke-dasharray="5,2" d="M169.3089,-79.6164C174.0229,-103.6093 187.4073,-165.1106 203,-178 244.1877,-212.0471 307.1959,-214.9021 351.7731,-211.5596"/>
<text text-anchor="middle" x="268.5" y="-215" font-family="Helvetica,sans-Serif" font-size="10.00" fill="#000000">amr_wind::ABLVelWallFunc</text>
</g>
<!-- Node3 -->
<g id="node4" class="node">
<title>Node3</title>
<g id="a_node4"><a xlink:href="group__icns__src.html" target="_top" xlink:title="Source terms used with incompressible Navier&#45;Stokes momentum equation. ">
<polygon fill="#ffffff" stroke="#000000" points="353,-83.5 353,-102.5 456,-102.5 456,-83.5 353,-83.5"/>
<text text-anchor="middle" x="404.5" y="-90.5" font-family="Helvetica,sans-Serif" font-size="10.00" fill="#000000">ICNS Source terms</text>
</a>
</g>
</g>
<!-- Node0&#45;&gt;Node3 -->
<g id="edge3" class="edge">
<title>Node0&#45;&gt;Node3</title>
<path fill="none" stroke="#ffa500" stroke-dasharray="5,2" d="M185.3135,-71.7287C220.4076,-75.1345 299.6721,-82.8268 352.6313,-87.9663"/>
<text text-anchor="start" x="218" y="-166" font-family="Helvetica,sans-Serif" font-size="10.00" fill="#000000">amr_wind::pde::icns</text>
<text text-anchor="middle" x="268.5" y="-155" font-family="Helvetica,sans-Serif" font-size="10.00" fill="#000000">::ABLForcing</text>
<text text-anchor="start" x="218" y="-144" font-family="Helvetica,sans-Serif" font-size="10.00" fill="#000000">amr_wind::pde::icns</text>
<text text-anchor="middle" x="268.5" y="-133" font-family="Helvetica,sans-Serif" font-size="10.00" fill="#000000">::BoussinesqBuoyancy</text>
<text text-anchor="start" x="218" y="-122" font-family="Helvetica,sans-Serif" font-size="10.00" fill="#000000">amr_wind::pde::icns</text>
<text text-anchor="middle" x="268.5" y="-111" font-family="Helvetica,sans-Serif" font-size="10.00" fill="#000000">::CoriolisForcing</text>
<text text-anchor="start" x="218" y="-100" font-family="Helvetica,sans-Serif" font-size="10.00" fill="#000000">amr_wind::pde::icns</text>
<text text-anchor="middle" x="268.5" y="-89" font-family="Helvetica,sans-Serif" font-size="10.00" fill="#000000">::GeostrophicForcing</text>
</g>
<!-- Node4 -->
<g id="node5" class="node">
<title>Node4</title>
<g id="a_node5"><a xlink:href="group__statistics.html" target="_top" xlink:title="Field statistics. ">
<polygon fill="#ffffff" stroke="#000000" points="364.5,-38.5 364.5,-57.5 444.5,-57.5 444.5,-38.5 364.5,-38.5"/>
<text text-anchor="middle" x="404.5" y="-45.5" font-family="Helvetica,sans-Serif" font-size="10.00" fill="#000000">Field statistics</text>
</a>
</g>
</g>
<!-- Node0&#45;&gt;Node4 -->
<g id="edge4" class="edge">
<title>Node0&#45;&gt;Node4</title>
<path fill="none" stroke="#ffa500" stroke-dasharray="5,2" d="M179.8992,-60.4545C186.3994,-56.0458 194.7174,-51.2885 203,-49 257.2886,-34.0002 322.9902,-37.4718 364.277,-42.114"/>
<text text-anchor="middle" x="268.5" y="-63" font-family="Helvetica,sans-Serif" font-size="10.00" fill="#000000">amr_wind::FPlaneAveraging</text>
<text text-anchor="middle" x="268.5" y="-52" font-family="Helvetica,sans-Serif" font-size="10.00" fill="#000000">amr_wind::VelPlaneAveraging</text>
</g>
<!-- Node2 -->
<g id="node6" class="node">
<title>Node2</title>
<g id="a_node6"><a xlink:href="group__abl__istats.html" target="_top" xlink:title="ABLStats contains functions to compute and statistics for ABL simulations. ">
<polygon fill="#ffffff" stroke="#000000" points="364.5,-.5 364.5,-19.5 444.5,-19.5 444.5,-.5 364.5,-.5"/>
<text text-anchor="middle" x="404.5" y="-7.5" font-family="Helvetica,sans-Serif" font-size="10.00" fill="#000000">ABL Statistics</text>
</a>
</g>
</g>
<!-- Node0&#45;&gt;Node2 -->
<g id="edge2" class="edge">
<title>Node0&#45;&gt;Node2</title>
<path fill="none" stroke="#000000" d="M181.129,-52.3102C187.1131,-45.796 194.6744,-39.0307 203,-35 254.5582,-10.039 321.8516,-6.6936 364.1295,-7.5796"/>
<polygon fill="#000000" stroke="#000000" points="178.2393,-50.307 174.4537,-60.2025 183.5839,-54.8275 178.2393,-50.307"/>
</g>
<!-- Node1 -->
<g id="node3" class="node">
<title>Node1</title>
<g id="a_node3"><a xlink:href="group__wind.html" target="_top" xlink:title="Wind energy modeling. ">
<polygon fill="#ffffff" stroke="#000000" points="0,-60.5 0,-79.5 113,-79.5 113,-60.5 0,-60.5"/>
<text text-anchor="middle" x="56.5" y="-67.5" font-family="Helvetica,sans-Serif" font-size="10.00" fill="#000000">Wind energy modeling</text>
</a>
</g>
</g>
<!-- Node1&#45;&gt;Node0 -->
<g id="edge1" class="edge">
<title>Node1&#45;&gt;Node0</title>
<path fill="none" stroke="#000000" d="M123.4606,-70C133.0923,-70 142.2424,-70 149.6813,-70"/>
<polygon fill="#000000" stroke="#000000" points="123.3007,-66.5001 113.3007,-70 123.3006,-73.5001 123.3007,-66.5001"/>
</g>
</g>
</svg>
