<?xml version="1.0" encoding="UTF-8" standalone="no"?>
<!DOCTYPE svg PUBLIC "-//W3C//DTD SVG 1.1//EN"
 "http://www.w3.org/Graphics/SVG/1.1/DTD/svg11.dtd">
<!-- Generated by graphviz version 2.40.1 (20161225.0304)
 -->
<!-- Title: Turbulence models Pages: 1 -->
<svg width="325pt" height="119pt"
 viewBox="0.00 0.00 325.00 119.00" xmlns="http://www.w3.org/2000/svg" xmlns:xlink="http://www.w3.org/1999/xlink">
<g id="graph0" class="graph" transform="scale(1 1) rotate(0) translate(4 115)">
<title>Turbulence models</title>
<polygon fill="#ffffff" stroke="transparent" points="-4,4 -4,-115 321,-115 321,4 -4,4"/>
<!-- Node0 -->
<g id="node1" class="node">
<title>Node0</title>
<polygon fill="#bfbfbf" stroke="#000000" points="0,-33.5 0,-52.5 99,-52.5 99,-33.5 0,-33.5"/>
<text text-anchor="middle" x="49.5" y="-40.5" font-family="Helvetica,sans-Serif" font-size="10.00" fill="#000000">Turbulence models</text>
</g>
<!-- Node1 -->
<g id="node2" class="node">
<title>Node1</title>
<g id="a_node2"><a xlink:href="group__tke__src.html" target="_top" xlink:title="Source terms used with TKE transport equation. ">
<polygon fill="#ffffff" stroke="#000000" points="219,-67.5 219,-86.5 317,-86.5 317,-67.5 219,-67.5"/>
<text text-anchor="middle" x="268" y="-74.5" font-family="Helvetica,sans-Serif" font-size="10.00" fill="#000000">TKE Source terms</text>
</a>
</g>
</g>
<!-- Node0&#45;&gt;Node1 -->
<g id="edge1" class="edge">
<title>Node0&#45;&gt;Node1</title>
<path fill="none" stroke="#ffa500" stroke-dasharray="5,2" d="M99.2348,-52.0233C105.2162,-53.0548 111.2426,-54.069 117,-55 150.9981,-60.4974 189.4058,-66.0847 218.9773,-70.253"/>
<text text-anchor="start" x="117" y="-103" font-family="Helvetica,sans-Serif" font-size="10.00" fill="#000000">amr_wind::pde::tke</text>
<text text-anchor="middle" x="159" y="-92" font-family="Helvetica,sans-Serif" font-size="10.00" fill="#000000">::KsgsM84Src</text>
<text text-anchor="start" x="117" y="-81" font-family="Helvetica,sans-Serif" font-size="10.00" fill="#000000">amr_wind::pde::tke</text>
<text text-anchor="middle" x="159" y="-70" font-family="Helvetica,sans-Serif" font-size="10.00" fill="#000000">::KsgsS94Src</text>
</g>
<!-- Node2 -->
<g id="node3" class="node">
<title>Node2</title>
<g id="a_node3"><a xlink:href="group__we__abl.html" target="_top" xlink:title="Atmospheric boundary layer (ABL) modeling. ">
<polygon fill="#ffffff" stroke="#000000" points="250.5,-.5 250.5,-19.5 285.5,-19.5 285.5,-.5 250.5,-.5"/>
<text text-anchor="middle" x="268" y="-7.5" font-family="Helvetica,sans-Serif" font-size="10.00" fill="#000000">ABL</text>
</a>
</g>
</g>
<!-- Node0&#45;&gt;Node2 -->
<g id="edge2" class="edge">
<title>Node0&#45;&gt;Node2</title>
<path fill="none" stroke="#ffa500" stroke-dasharray="5,2" d="M64.6163,-33.4678C77.8551,-25.712 97.909,-15.3626 117,-11 164.025,-.2541 221.4584,-4.4388 250.0449,-7.6428"/>
<text text-anchor="start" x="117" y="-47" font-family="Helvetica,sans-Serif" font-size="10.00" fill="#000000">amr_wind::pde::tke</text>
<text text-anchor="middle" x="159" y="-36" font-family="Helvetica,sans-Serif" font-size="10.00" fill="#000000">::KsgsM84Src</text>
<text text-anchor="start" x="117" y="-25" font-family="Helvetica,sans-Serif" font-size="10.00" fill="#000000">amr_wind::pde::tke</text>
<text text-anchor="middle" x="159" y="-14" font-family="Helvetica,sans-Serif" font-size="10.00" fill="#000000">::KsgsS94Src</text>
</g>
</g>
</svg>
