<?xml version="1.0" encoding="UTF-8" standalone="no"?>
<!DOCTYPE svg PUBLIC "-//W3C//DTD SVG 1.1//EN"
 "http://www.w3.org/Graphics/SVG/1.1/DTD/svg11.dtd">
<!-- Generated by graphviz version 2.40.1 (20161225.0304)
 -->
<!-- Title: Equation Systems Pages: 1 -->
<svg width="255pt" height="127pt"
 viewBox="0.00 0.00 255.00 126.50" xmlns="http://www.w3.org/2000/svg" xmlns:xlink="http://www.w3.org/1999/xlink">
<g id="graph0" class="graph" transform="scale(1 1) rotate(0) translate(4 122.5)">
<title>Equation Systems</title>
<polygon fill="#ffffff" stroke="transparent" points="-4,4 -4,-122.5 251,-122.5 251,4 -4,4"/>
<!-- Node2 -->
<g id="node1" class="node">
<title>Node2</title>
<g id="a_node1"><a xlink:href="group__pdeop.html" target="_top" xlink:title="PDE Operators. ">
<polygon fill="#ffffff" stroke="#000000" points="148.5,-99 148.5,-118 231.5,-118 231.5,-99 148.5,-99"/>
<text text-anchor="middle" x="190" y="-106" font-family="Helvetica,sans-Serif" font-size="10.00" fill="#000000">PDE Operators</text>
</a>
</g>
</g>
<!-- Node0 -->
<g id="node2" class="node">
<title>Node0</title>
<polygon fill="#bfbfbf" stroke="#000000" points="0,-55 0,-74 97,-74 97,-55 0,-55"/>
<text text-anchor="middle" x="48.5" y="-62" font-family="Helvetica,sans-Serif" font-size="10.00" fill="#000000">Equation Systems</text>
</g>
<!-- Node0&#45;&gt;Node2 -->
<g id="edge2" class="edge">
<title>Node0&#45;&gt;Node2</title>
<path fill="none" stroke="#000000" d="M88.7904,-77.0285C111.2188,-84.0027 138.6949,-92.5465 159.3565,-98.9713"/>
<polygon fill="#000000" stroke="#000000" points="89.7917,-73.6746 79.2034,-74.0473 87.7131,-80.3589 89.7917,-73.6746"/>
</g>
<!-- Node1 -->
<g id="node3" class="node">
<title>Node1</title>
<g id="a_node3"><a xlink:href="group__icns.html" target="_top" xlink:title="Incompressible Navier&#45;Stokes equation system. ">
<polygon fill="#ffffff" stroke="#000000" points="133,-49.5 133,-79.5 247,-79.5 247,-49.5 133,-49.5"/>
<text text-anchor="start" x="141" y="-67.5" font-family="Helvetica,sans-Serif" font-size="10.00" fill="#000000">Incompressible Navier</text>
<text text-anchor="middle" x="190" y="-56.5" font-family="Helvetica,sans-Serif" font-size="10.00" fill="#000000">&#45;Stokes</text>
</a>
</g>
</g>
<!-- Node0&#45;&gt;Node1 -->
<g id="edge1" class="edge">
<title>Node0&#45;&gt;Node1</title>
<path fill="none" stroke="#000000" d="M107.3624,-64.5C115.8193,-64.5 124.5095,-64.5 132.9308,-64.5"/>
<polygon fill="#000000" stroke="#000000" points="107.1963,-61.0001 97.1963,-64.5 107.1962,-68.0001 107.1963,-61.0001"/>
</g>
<!-- Node3 -->
<g id="node4" class="node">
<title>Node3</title>
<g id="a_node4"><a xlink:href="group__temp__eqn.html" target="_top" xlink:title="Temperature transport equation ">
<polygon fill="#ffffff" stroke="#000000" points="133.5,-.5 133.5,-30.5 246.5,-30.5 246.5,-.5 133.5,-.5"/>
<text text-anchor="start" x="141.5" y="-18.5" font-family="Helvetica,sans-Serif" font-size="10.00" fill="#000000">Temperature transport</text>
<text text-anchor="middle" x="190" y="-7.5" font-family="Helvetica,sans-Serif" font-size="10.00" fill="#000000"> equation</text>
</a>
</g>
</g>
<!-- Node0&#45;&gt;Node3 -->
<g id="edge3" class="edge">
<title>Node0&#45;&gt;Node3</title>
<path fill="none" stroke="#000000" d="M85.748,-51.6014C104.4134,-45.1378 127.1236,-37.2735 146.5769,-30.537"/>
<polygon fill="#000000" stroke="#000000" points="84.4227,-48.3564 76.1185,-54.936 86.7133,-54.971 84.4227,-48.3564"/>
</g>
</g>
</svg>
