<?xml version="1.0" encoding="UTF-8" standalone="no"?>
<!DOCTYPE svg PUBLIC "-//W3C//DTD SVG 1.1//EN"
 "http://www.w3.org/Graphics/SVG/1.1/DTD/svg11.dtd">
<!-- Generated by graphviz version 2.40.1 (20161225.0304)
 -->
<!-- Title: TKE Source terms Pages: 1 -->
<svg width="488pt" height="119pt"
 viewBox="0.00 0.00 488.00 119.00" xmlns="http://www.w3.org/2000/svg" xmlns:xlink="http://www.w3.org/1999/xlink">
<g id="graph0" class="graph" transform="scale(1 1) rotate(0) translate(4 115)">
<title>TKE Source terms</title>
<polygon fill="#ffffff" stroke="transparent" points="-4,4 -4,-115 484,-115 484,4 -4,4"/>
<!-- Node2 -->
<g id="node1" class="node">
<title>Node2</title>
<g id="a_node1"><a xlink:href="group__turb__model.html" target="_top" xlink:title="Turbulence models available in AMR&#45;Wind. ">
<polygon fill="#ffffff" stroke="#000000" points="381,-67.5 381,-86.5 480,-86.5 480,-67.5 381,-67.5"/>
<text text-anchor="middle" x="430.5" y="-74.5" font-family="Helvetica,sans-Serif" font-size="10.00" fill="#000000">Turbulence models</text>
</a>
</g>
</g>
<!-- Node0 -->
<g id="node2" class="node">
<title>Node0</title>
<polygon fill="#bfbfbf" stroke="#000000" points="163,-33.5 163,-52.5 261,-52.5 261,-33.5 163,-33.5"/>
<text text-anchor="middle" x="212" y="-40.5" font-family="Helvetica,sans-Serif" font-size="10.00" fill="#000000">TKE Source terms</text>
</g>
<!-- Node0&#45;&gt;Node2 -->
<g id="edge2" class="edge">
<title>Node0&#45;&gt;Node2</title>
<path fill="none" stroke="#ffa500" stroke-dasharray="5,2" d="M261.0011,-51.9688C267.0577,-53.0206 273.1676,-54.0545 279,-55 312.9749,-60.5078 351.3447,-66.0729 380.9689,-70.228"/>
<text text-anchor="start" x="279" y="-103" font-family="Helvetica,sans-Serif" font-size="10.00" fill="#000000">amr_wind::pde::tke</text>
<text text-anchor="middle" x="321" y="-92" font-family="Helvetica,sans-Serif" font-size="10.00" fill="#000000">::KsgsM84Src</text>
<text text-anchor="start" x="279" y="-81" font-family="Helvetica,sans-Serif" font-size="10.00" fill="#000000">amr_wind::pde::tke</text>
<text text-anchor="middle" x="321" y="-70" font-family="Helvetica,sans-Serif" font-size="10.00" fill="#000000">::KsgsS94Src</text>
</g>
<!-- Node3 -->
<g id="node4" class="node">
<title>Node3</title>
<g id="a_node4"><a xlink:href="group__we__abl.html" target="_top" xlink:title="Atmospheric boundary layer (ABL) modeling. ">
<polygon fill="#ffffff" stroke="#000000" points="413,-.5 413,-19.5 448,-19.5 448,-.5 413,-.5"/>
<text text-anchor="middle" x="430.5" y="-7.5" font-family="Helvetica,sans-Serif" font-size="10.00" fill="#000000">ABL</text>
</a>
</g>
</g>
<!-- Node0&#45;&gt;Node3 -->
<g id="edge3" class="edge">
<title>Node0&#45;&gt;Node3</title>
<path fill="none" stroke="#ffa500" stroke-dasharray="5,2" d="M226.9943,-33.4682C240.1288,-25.7126 260.0306,-15.3634 279,-11 326.4215,-.092 384.4223,-4.4272 412.9469,-7.671"/>
<text text-anchor="start" x="279" y="-47" font-family="Helvetica,sans-Serif" font-size="10.00" fill="#000000">amr_wind::pde::tke</text>
<text text-anchor="middle" x="321" y="-36" font-family="Helvetica,sans-Serif" font-size="10.00" fill="#000000">::KsgsM84Src</text>
<text text-anchor="start" x="279" y="-25" font-family="Helvetica,sans-Serif" font-size="10.00" fill="#000000">amr_wind::pde::tke</text>
<text text-anchor="middle" x="321" y="-14" font-family="Helvetica,sans-Serif" font-size="10.00" fill="#000000">::KsgsS94Src</text>
</g>
<!-- Node1 -->
<g id="node3" class="node">
<title>Node1</title>
<g id="a_node3"><a xlink:href="group__tke__eqn.html" target="_top" xlink:title="TKE transport equation ">
<polygon fill="#ffffff" stroke="#000000" points="0,-28 0,-58 126,-58 126,-28 0,-28"/>
<text text-anchor="start" x="8" y="-46" font-family="Helvetica,sans-Serif" font-size="10.00" fill="#000000">Turbulent Kinetic Energy</text>
<text text-anchor="middle" x="63" y="-35" font-family="Helvetica,sans-Serif" font-size="10.00" fill="#000000"> (TKE) transport equation</text>
</a>
</g>
</g>
<!-- Node1&#45;&gt;Node0 -->
<g id="edge1" class="edge">
<title>Node1&#45;&gt;Node0</title>
<path fill="none" stroke="#000000" d="M136.2748,-43C145.2409,-43 154.2308,-43 162.7246,-43"/>
<polygon fill="#000000" stroke="#000000" points="136.1894,-39.5001 126.1894,-43 136.1894,-46.5001 136.1894,-39.5001"/>
</g>
</g>
</svg>
