<?xml version="1.0" encoding="UTF-8" standalone="no"?>
<!DOCTYPE svg PUBLIC "-//W3C//DTD SVG 1.1//EN"
 "http://www.w3.org/Graphics/SVG/1.1/DTD/svg11.dtd">
<!-- Generated by graphviz version 2.40.1 (20161225.0304)
 -->
<!-- Title: Equation Systems Pages: 1 -->
<svg width="267pt" height="286pt"
 viewBox="0.00 0.00 267.00 285.50" xmlns="http://www.w3.org/2000/svg" xmlns:xlink="http://www.w3.org/1999/xlink">
<g id="graph0" class="graph" transform="scale(1 1) rotate(0) translate(4 281.5)">
<title>Equation Systems</title>
<polygon fill="#ffffff" stroke="transparent" points="-4,4 -4,-281.5 263,-281.5 263,4 -4,4"/>
<!-- Node3 -->
<g id="node1" class="node">
<title>Node3</title>
<g id="a_node1"><a xlink:href="group__pdeop.html" target="_top" xlink:title="PDE Operators. ">
<polygon fill="#ffffff" stroke="#000000" points="154.5,-258 154.5,-277 237.5,-277 237.5,-258 154.5,-258"/>
<text text-anchor="middle" x="196" y="-265" font-family="Helvetica,sans-Serif" font-size="10.00" fill="#000000">PDE Operators</text>
</a>
</g>
</g>
<!-- Node0 -->
<g id="node2" class="node">
<title>Node0</title>
<polygon fill="#bfbfbf" stroke="#000000" points="0,-137 0,-156 97,-156 97,-137 0,-137"/>
<text text-anchor="middle" x="48.5" y="-144" font-family="Helvetica,sans-Serif" font-size="10.00" fill="#000000">Equation Systems</text>
</g>
<!-- Node0&#45;&gt;Node3 -->
<g id="edge3" class="edge">
<title>Node0&#45;&gt;Node3</title>
<path fill="none" stroke="#000000" d="M59.0868,-165.0247C73.1118,-187.9342 99.9732,-226.5806 133,-248.5 139.4726,-252.7957 146.9517,-256.15 154.4459,-258.7597"/>
<polygon fill="#000000" stroke="#000000" points="61.9987,-163.0734 53.8815,-156.2644 55.9809,-166.6492 61.9987,-163.0734"/>
</g>
<!-- Node1 -->
<g id="node3" class="node">
<title>Node1</title>
<g id="a_node3"><a xlink:href="group__icns.html" target="_top" xlink:title="Incompressible Navier&#45;Stokes equation system. ">
<polygon fill="#ffffff" stroke="#000000" points="139,-208.5 139,-238.5 253,-238.5 253,-208.5 139,-208.5"/>
<text text-anchor="start" x="147" y="-226.5" font-family="Helvetica,sans-Serif" font-size="10.00" fill="#000000">Incompressible Navier</text>
<text text-anchor="middle" x="196" y="-215.5" font-family="Helvetica,sans-Serif" font-size="10.00" fill="#000000">&#45;Stokes</text>
</a>
</g>
</g>
<!-- Node0&#45;&gt;Node1 -->
<g id="edge1" class="edge">
<title>Node0&#45;&gt;Node1</title>
<path fill="none" stroke="#000000" d="M70.5429,-162.0066C87.2001,-173.303 110.8967,-188.4915 133,-199.5 139.3908,-202.683 146.3131,-205.7117 153.1505,-208.479"/>
<polygon fill="#000000" stroke="#000000" points="72.2917,-158.9616 62.0679,-156.1824 68.3271,-164.7307 72.2917,-158.9616"/>
</g>
<!-- Node6 -->
<g id="node4" class="node">
<title>Node6</title>
<g id="a_node4"><a xlink:href="group__tke__eqn.html" target="_top" xlink:title="TKE transport equation ">
<polygon fill="#ffffff" stroke="#000000" points="133,-159.5 133,-189.5 259,-189.5 259,-159.5 133,-159.5"/>
<text text-anchor="start" x="141" y="-177.5" font-family="Helvetica,sans-Serif" font-size="10.00" fill="#000000">Turbulent Kinetic Energy</text>
<text text-anchor="middle" x="196" y="-166.5" font-family="Helvetica,sans-Serif" font-size="10.00" fill="#000000"> (TKE) transport equation</text>
</a>
</g>
</g>
<!-- Node0&#45;&gt;Node6 -->
<g id="edge6" class="edge">
<title>Node0&#45;&gt;Node6</title>
<path fill="none" stroke="#000000" d="M107.2988,-157.6618C115.7088,-159.2583 124.3895,-160.9062 132.8784,-162.5176"/>
<polygon fill="#000000" stroke="#000000" points="107.6831,-154.1723 97.2058,-155.7458 106.3776,-161.0495 107.6831,-154.1723"/>
</g>
<!-- Node4 -->
<g id="node5" class="node">
<title>Node4</title>
<g id="a_node5"><a xlink:href="group__sdr__eqn.html" target="_top" xlink:title="SDR transport equation ">
<polygon fill="#ffffff" stroke="#000000" points="139.5,-99 139.5,-140 252.5,-140 252.5,-99 139.5,-99"/>
<text text-anchor="start" x="147.5" y="-128" font-family="Helvetica,sans-Serif" font-size="10.00" fill="#000000">Specific Dissipation</text>
<text text-anchor="start" x="147.5" y="-117" font-family="Helvetica,sans-Serif" font-size="10.00" fill="#000000"> Rate (SDR) transport</text>
<text text-anchor="middle" x="196" y="-106" font-family="Helvetica,sans-Serif" font-size="10.00" fill="#000000"> equation</text>
</a>
</g>
</g>
<!-- Node0&#45;&gt;Node4 -->
<g id="edge4" class="edge">
<title>Node0&#45;&gt;Node4</title>
<path fill="none" stroke="#000000" d="M107.2152,-135.7521C117.8253,-133.8099 128.869,-131.7884 139.4167,-129.8576"/>
<polygon fill="#000000" stroke="#000000" points="106.4121,-132.3409 97.2058,-137.5844 107.6726,-139.2265 106.4121,-132.3409"/>
</g>
<!-- Node5 -->
<g id="node6" class="node">
<title>Node5</title>
<g id="a_node6"><a xlink:href="group__temp__eqn.html" target="_top" xlink:title="Temperature transport equation ">
<polygon fill="#ffffff" stroke="#000000" points="139.5,-49.5 139.5,-79.5 252.5,-79.5 252.5,-49.5 139.5,-49.5"/>
<text text-anchor="start" x="147.5" y="-67.5" font-family="Helvetica,sans-Serif" font-size="10.00" fill="#000000">Temperature transport</text>
<text text-anchor="middle" x="196" y="-56.5" font-family="Helvetica,sans-Serif" font-size="10.00" fill="#000000"> equation</text>
</a>
</g>
</g>
<!-- Node0&#45;&gt;Node5 -->
<g id="edge5" class="edge">
<title>Node0&#45;&gt;Node5</title>
<path fill="none" stroke="#000000" d="M69.2514,-130.6435C85.8904,-118.3954 110.1559,-101.5561 133,-89.5 139.7644,-85.93 147.1553,-82.5612 154.4184,-79.5216"/>
<polygon fill="#000000" stroke="#000000" points="66.7689,-128.129 60.8496,-136.9161 70.9566,-133.7382 66.7689,-128.129"/>
</g>
<!-- Node2 -->
<g id="node7" class="node">
<title>Node2</title>
<g id="a_node7"><a xlink:href="group__levelset.html" target="_top" xlink:title="Levelset transport\l equation">
<polygon fill="#ffffff" stroke="#000000" points="148.5,-.5 148.5,-30.5 243.5,-30.5 243.5,-.5 148.5,-.5"/>
<text text-anchor="start" x="156.5" y="-18.5" font-family="Helvetica,sans-Serif" font-size="10.00" fill="#000000">Levelset transport</text>
<text text-anchor="middle" x="196" y="-7.5" font-family="Helvetica,sans-Serif" font-size="10.00" fill="#000000"> equation</text>
</a>
</g>
</g>
<!-- Node0&#45;&gt;Node2 -->
<g id="edge2" class="edge">
<title>Node0&#45;&gt;Node2</title>
<path fill="none" stroke="#000000" d="M59.0109,-128.0435C73.1211,-104.7428 100.2416,-64.777 133,-40.5 138.1052,-36.7166 143.8598,-33.417 149.7627,-30.5653"/>
<polygon fill="#000000" stroke="#000000" points="55.8445,-126.5228 53.7817,-136.9149 61.8749,-130.0774 55.8445,-126.5228"/>
</g>
</g>
</svg>
