<?xml version="1.0" encoding="UTF-8" standalone="no"?>
<!DOCTYPE svg PUBLIC "-//W3C//DTD SVG 1.1//EN"
 "http://www.w3.org/Graphics/SVG/1.1/DTD/svg11.dtd">
<!-- Generated by graphviz version 2.40.1 (20161225.0304)
 -->
<!-- Title: Turbulence models Pages: 1 -->
<svg width="335pt" height="168pt"
 viewBox="0.00 0.00 335.00 168.04" xmlns="http://www.w3.org/2000/svg" xmlns:xlink="http://www.w3.org/1999/xlink">
<g id="graph0" class="graph" transform="scale(1 1) rotate(0) translate(4 164.0429)">
<title>Turbulence models</title>
<polygon fill="#ffffff" stroke="transparent" points="-4,4 -4,-164.0429 331,-164.0429 331,4 -4,4"/>
<!-- Node0 -->
<g id="node1" class="node">
<title>Node0</title>
<polygon fill="#bfbfbf" stroke="#000000" points="0,-55.5429 0,-74.5429 99,-74.5429 99,-55.5429 0,-55.5429"/>
<text text-anchor="middle" x="49.5" y="-62.5429" font-family="Helvetica,sans-Serif" font-size="10.00" fill="#000000">Turbulence models</text>
</g>
<!-- Node1 -->
<g id="node2" class="node">
<title>Node1</title>
<g id="a_node2"><a xlink:href="group__tke__src.html" target="_top" xlink:title="Source terms used with TKE transport equation. ">
<polygon fill="#ffffff" stroke="#000000" points="229,-111.5429 229,-130.5429 327,-130.5429 327,-111.5429 229,-111.5429"/>
<text text-anchor="middle" x="278" y="-118.5429" font-family="Helvetica,sans-Serif" font-size="10.00" fill="#000000">TKE Source terms</text>
</a>
</g>
</g>
<!-- Node0&#45;&gt;Node1 -->
<g id="edge1" class="edge">
<title>Node0&#45;&gt;Node1</title>
<path fill="none" stroke="#ffa500" stroke-dasharray="5,2" d="M64.7019,-74.5436C77.9943,-82.3919 98.0786,-93.1649 117,-99.0429 153.5051,-110.3835 196.4711,-115.8824 228.8315,-118.5465"/>
<text text-anchor="start" x="122" y="-152.0429" font-family="Helvetica,sans-Serif" font-size="10.00" fill="#000000">amr_wind::pde::tke</text>
<text text-anchor="middle" x="164" y="-141.0429" font-family="Helvetica,sans-Serif" font-size="10.00" fill="#000000">::KsgsM84Src</text>
<text text-anchor="start" x="122" y="-130.0429" font-family="Helvetica,sans-Serif" font-size="10.00" fill="#000000">amr_wind::pde::tke</text>
<text text-anchor="middle" x="164" y="-119.0429" font-family="Helvetica,sans-Serif" font-size="10.00" fill="#000000">::KsgsS94Src</text>
</g>
<!-- Node2 -->
<g id="node3" class="node">
<title>Node2</title>
<g id="a_node3"><a xlink:href="group__we__abl.html" target="_top" xlink:title="Atmospheric boundary layer (ABL) modeling. ">
<polygon fill="#ffffff" stroke="#000000" points="260.5,-.5429 260.5,-19.5429 295.5,-19.5429 295.5,-.5429 260.5,-.5429"/>
<text text-anchor="middle" x="278" y="-7.5429" font-family="Helvetica,sans-Serif" font-size="10.00" fill="#000000">ABL</text>
</a>
</g>
</g>
<!-- Node0&#45;&gt;Node2 -->
<g id="edge2" class="edge">
<title>Node0&#45;&gt;Node2</title>
<path fill="none" stroke="#ffa500" stroke-dasharray="5,2" d="M57.8616,-55.1025C69.5353,-42.079 92.1033,-19.8631 117,-11.0429 166.5331,6.5053 230.1428,-1.1811 260.4406,-6.5027"/>
<text text-anchor="start" x="117" y="-91.0429" font-family="Helvetica,sans-Serif" font-size="10.00" fill="#000000">amr_wind::pde::tke</text>
<text text-anchor="middle" x="164" y="-80.0429" font-family="Helvetica,sans-Serif" font-size="10.00" fill="#000000">::KsgsM84Src</text>
<text text-anchor="start" x="117" y="-69.0429" font-family="Helvetica,sans-Serif" font-size="10.00" fill="#000000">amr_wind::pde::tke</text>
<text text-anchor="middle" x="164" y="-58.0429" font-family="Helvetica,sans-Serif" font-size="10.00" fill="#000000">::KsgsS94Src</text>
<text text-anchor="start" x="117" y="-47.0429" font-family="Helvetica,sans-Serif" font-size="10.00" fill="#000000">amr_wind::turbulence</text>
<text text-anchor="middle" x="164" y="-36.0429" font-family="Helvetica,sans-Serif" font-size="10.00" fill="#000000">::OneEqKsgsM84</text>
<text text-anchor="start" x="117" y="-25.0429" font-family="Helvetica,sans-Serif" font-size="10.00" fill="#000000">amr_wind::turbulence</text>
<text text-anchor="middle" x="164" y="-14.0429" font-family="Helvetica,sans-Serif" font-size="10.00" fill="#000000">::OneEqKsgsS94</text>
</g>
</g>
</svg>
