<?xml version="1.0" encoding="UTF-8" standalone="no"?>
<!DOCTYPE svg PUBLIC "-//W3C//DTD SVG 1.1//EN"
 "http://www.w3.org/Graphics/SVG/1.1/DTD/svg11.dtd">
<!-- Generated by graphviz version 2.40.1 (20161225.0304)
 -->
<!-- Title: Field statistics Pages: 1 -->
<svg width="384pt" height="29pt"
 viewBox="0.00 0.00 384.00 29.00" xmlns="http://www.w3.org/2000/svg" xmlns:xlink="http://www.w3.org/1999/xlink">
<g id="graph0" class="graph" transform="scale(1 1) rotate(0) translate(4 25)">
<title>Field statistics</title>
<polygon fill="#ffffff" stroke="transparent" points="-4,4 -4,-25 380,-25 380,4 -4,4"/>
<!-- Node1 -->
<g id="node1" class="node">
<title>Node1</title>
<g id="a_node1"><a xlink:href="group__utilities.html" target="_top" xlink:title="Utilities. ">
<polygon fill="#ffffff" stroke="#000000" points="0,-.5 0,-19.5 50,-19.5 50,-.5 0,-.5"/>
<text text-anchor="middle" x="25" y="-7.5" font-family="Helvetica,sans-Serif" font-size="10.00" fill="#000000">Utilities</text>
</a>
</g>
</g>
<!-- Node0 -->
<g id="node3" class="node">
<title>Node0</title>
<polygon fill="#bfbfbf" stroke="#000000" points="87,-.5 87,-19.5 167,-19.5 167,-.5 87,-.5"/>
<text text-anchor="middle" x="127" y="-7.5" font-family="Helvetica,sans-Serif" font-size="10.00" fill="#000000">Field statistics</text>
</g>
<!-- Node1&#45;&gt;Node0 -->
<g id="edge1" class="edge">
<title>Node1&#45;&gt;Node0</title>
<path fill="none" stroke="#000000" d="M60.3096,-10C68.9169,-10 78.1848,-10 86.9934,-10"/>
<polygon fill="#000000" stroke="#000000" points="60.2135,-6.5001 50.2135,-10 60.2135,-13.5001 60.2135,-6.5001"/>
</g>
<!-- Node2 -->
<g id="node2" class="node">
<title>Node2</title>
<g id="a_node2"><a xlink:href="group__we__abl.html" target="_top" xlink:title="Atmospheric boundary layer (ABL) modeling. ">
<polygon fill="#ffffff" stroke="#000000" points="341,-.5 341,-19.5 376,-19.5 376,-.5 341,-.5"/>
<text text-anchor="middle" x="358.5" y="-7.5" font-family="Helvetica,sans-Serif" font-size="10.00" fill="#000000">ABL</text>
</a>
</g>
</g>
<!-- Node0&#45;&gt;Node2 -->
<g id="edge2" class="edge">
<title>Node0&#45;&gt;Node2</title>
<path fill="none" stroke="#ffa500" stroke-dasharray="5,2" d="M167.0599,-10C218.0478,-10 303.9288,-10 340.8063,-10"/>
<text text-anchor="middle" x="254" y="-13" font-family="Helvetica,sans-Serif" font-size="10.00" fill="#000000">amr_wind::FieldPlaneAveraging</text>
</g>
</g>
</svg>
