<?xml version="1.0" encoding="UTF-8" standalone="no"?>
<!DOCTYPE svg PUBLIC "-//W3C//DTD SVG 1.1//EN"
 "http://www.w3.org/Graphics/SVG/1.1/DTD/svg11.dtd">
<!-- Generated by graphviz version 2.40.1 (20161225.0304)
 -->
<!-- Title: icns.H Pages: 1 -->
<svg width="287pt" height="140pt"
 viewBox="0.00 0.00 286.51 140.00" xmlns="http://www.w3.org/2000/svg" xmlns:xlink="http://www.w3.org/1999/xlink">
<g id="graph0" class="graph" transform="scale(1 1) rotate(0) translate(4 136)">
<title>icns.H</title>
<polygon fill="#ffffff" stroke="transparent" points="-4,4 -4,-136 282.5059,-136 282.5059,4 -4,4"/>
<!-- Node57 -->
<g id="node1" class="node">
<title>Node57</title>
<polygon fill="#bfbfbf" stroke="#000000" points="83.0059,-112.5 83.0059,-131.5 128.0059,-131.5 128.0059,-112.5 83.0059,-112.5"/>
<text text-anchor="middle" x="105.5059" y="-119.5" font-family="Helvetica,sans-Serif" font-size="10.00" fill="#000000">icns.H</text>
</g>
<!-- Node58 -->
<g id="node2" class="node">
<title>Node58</title>
<g id="a_node2"><a xlink:href="icns_8cpp.html" target="_top" xlink:title="icns.cpp">
<polygon fill="#ffffff" stroke="#000000" points="80.0059,-.5 80.0059,-19.5 133.0059,-19.5 133.0059,-.5 80.0059,-.5"/>
<text text-anchor="middle" x="106.5059" y="-7.5" font-family="Helvetica,sans-Serif" font-size="10.00" fill="#000000">icns.cpp</text>
</a>
</g>
</g>
<!-- Node57&#45;&gt;Node58 -->
<g id="edge1" class="edge">
<title>Node57&#45;&gt;Node58</title>
<path fill="none" stroke="#191970" d="M73.0227,-114.9423C36.621,-105.4116 -14.9224,-86.0743 4.5059,-56 21.0553,-30.382 55.6694,-18.8849 79.9663,-13.8237"/>
<polygon fill="#191970" stroke="#191970" points="72.2683,-118.3612 82.8168,-117.3712 73.9533,-111.567 72.2683,-118.3612"/>
</g>
<!-- Node59 -->
<g id="node3" class="node">
<title>Node59</title>
<g id="a_node3"><a xlink:href="icns__ops_8_h.html" target="_top" xlink:title="icns_ops.H">
<polygon fill="#ffffff" stroke="#000000" points="208.5059,-56.5 208.5059,-75.5 274.5059,-75.5 274.5059,-56.5 208.5059,-56.5"/>
<text text-anchor="middle" x="241.5059" y="-63.5" font-family="Helvetica,sans-Serif" font-size="10.00" fill="#000000">icns_ops.H</text>
</a>
</g>
</g>
<!-- Node57&#45;&gt;Node59 -->
<g id="edge2" class="edge">
<title>Node57&#45;&gt;Node59</title>
<path fill="none" stroke="#191970" d="M137.6072,-108.7818C162.356,-98.5911 195.9991,-84.7381 218.2124,-75.5914"/>
<polygon fill="#191970" stroke="#191970" points="136.1833,-105.5829 128.2692,-112.6269 138.8486,-112.0557 136.1833,-105.5829"/>
</g>
<!-- Node61 -->
<g id="node5" class="node">
<title>Node61</title>
<g id="a_node5"><a xlink:href="icns__diffusion_8_h.html" target="_top" xlink:title="icns_diffusion.H">
<polygon fill="#ffffff" stroke="#000000" points="14.0059,-56.5 14.0059,-75.5 101.0059,-75.5 101.0059,-56.5 14.0059,-56.5"/>
<text text-anchor="middle" x="57.5059" y="-63.5" font-family="Helvetica,sans-Serif" font-size="10.00" fill="#000000">icns_diffusion.H</text>
</a>
</g>
</g>
<!-- Node57&#45;&gt;Node61 -->
<g id="edge5" class="edge">
<title>Node57&#45;&gt;Node61</title>
<path fill="none" stroke="#191970" d="M90.5062,-104.5004C82.3437,-94.9775 72.557,-83.5596 65.771,-75.6427"/>
<polygon fill="#191970" stroke="#191970" points="87.9795,-106.9307 97.1449,-112.2455 93.2943,-102.3752 87.9795,-106.9307"/>
</g>
<!-- Node62 -->
<g id="node6" class="node">
<title>Node62</title>
<g id="a_node6"><a xlink:href="icns__bcop_8_h.html" target="_top" xlink:title="icns_bcop.H">
<polygon fill="#ffffff" stroke="#000000" points="119.0059,-56.5 119.0059,-75.5 190.0059,-75.5 190.0059,-56.5 119.0059,-56.5"/>
<text text-anchor="middle" x="154.5059" y="-63.5" font-family="Helvetica,sans-Serif" font-size="10.00" fill="#000000">icns_bcop.H</text>
</a>
</g>
</g>
<!-- Node57&#45;&gt;Node62 -->
<g id="edge7" class="edge">
<title>Node57&#45;&gt;Node62</title>
<path fill="none" stroke="#191970" d="M120.818,-104.5004C129.1506,-94.9775 139.1412,-83.5596 146.0685,-75.6427"/>
<polygon fill="#191970" stroke="#191970" points="117.9921,-102.415 114.041,-112.2455 123.2601,-107.0245 117.9921,-102.415"/>
</g>
<!-- Node59&#45;&gt;Node58 -->
<g id="edge3" class="edge">
<title>Node59&#45;&gt;Node58</title>
<path fill="none" stroke="#191970" d="M209.0067,-52.5189C184.4204,-42.3201 151.2693,-28.5685 129.4103,-19.5011"/>
<polygon fill="#191970" stroke="#191970" points="207.7206,-55.7745 218.2985,-56.3733 210.4028,-49.3087 207.7206,-55.7745"/>
</g>
<!-- Node60 -->
<g id="node4" class="node">
<title>Node60</title>
<g id="a_node4"><a xlink:href="icns__ops_8cpp.html" target="_top" xlink:title="icns_ops.cpp">
<polygon fill="#ffffff" stroke="#000000" points="204.5059,-.5 204.5059,-19.5 278.5059,-19.5 278.5059,-.5 204.5059,-.5"/>
<text text-anchor="middle" x="241.5059" y="-7.5" font-family="Helvetica,sans-Serif" font-size="10.00" fill="#000000">icns_ops.cpp</text>
</a>
</g>
</g>
<!-- Node59&#45;&gt;Node60 -->
<g id="edge4" class="edge">
<title>Node59&#45;&gt;Node60</title>
<path fill="none" stroke="#191970" d="M241.5059,-46.1575C241.5059,-37.155 241.5059,-26.9199 241.5059,-19.6427"/>
<polygon fill="#191970" stroke="#191970" points="238.006,-46.2455 241.5059,-56.2455 245.006,-46.2456 238.006,-46.2455"/>
</g>
<!-- Node61&#45;&gt;Node58 -->
<g id="edge6" class="edge">
<title>Node61&#45;&gt;Node58</title>
<path fill="none" stroke="#191970" d="M72.818,-48.5004C81.1506,-38.9775 91.1412,-27.5596 98.0685,-19.6427"/>
<polygon fill="#191970" stroke="#191970" points="69.9921,-46.415 66.041,-56.2455 75.2601,-51.0245 69.9921,-46.415"/>
</g>
<!-- Node62&#45;&gt;Node58 -->
<g id="edge8" class="edge">
<title>Node62&#45;&gt;Node58</title>
<path fill="none" stroke="#191970" d="M139.5062,-48.5004C131.3437,-38.9775 121.557,-27.5596 114.771,-19.6427"/>
<polygon fill="#191970" stroke="#191970" points="136.9795,-50.9307 146.1449,-56.2455 142.2943,-46.3752 136.9795,-50.9307"/>
</g>
</g>
</svg>
