<?xml version="1.0" encoding="UTF-8" standalone="no"?>
<!DOCTYPE svg PUBLIC "-//W3C//DTD SVG 1.1//EN"
 "http://www.w3.org/Graphics/SVG/1.1/DTD/svg11.dtd">
<!-- Generated by graphviz version 2.40.1 (20161225.0304)
 -->
<!-- Title: incflo_mol_fluxes.cpp Pages: 1 -->
<svg width="1411pt" height="274pt"
 viewBox="0.00 0.00 1410.50 274.00" xmlns="http://www.w3.org/2000/svg" xmlns:xlink="http://www.w3.org/1999/xlink">
<g id="graph0" class="graph" transform="scale(1 1) rotate(0) translate(4 270)">
<title>incflo_mol_fluxes.cpp</title>
<polygon fill="#ffffff" stroke="transparent" points="-4,4 -4,-270 1406.5,-270 1406.5,4 -4,4"/>
<!-- Node0 -->
<g id="node1" class="node">
<title>Node0</title>
<polygon fill="#bfbfbf" stroke="#000000" points="571.5,-246.5 571.5,-265.5 682.5,-265.5 682.5,-246.5 571.5,-246.5"/>
<text text-anchor="middle" x="627" y="-253.5" font-family="Helvetica,sans-Serif" font-size="10.00" fill="#000000">incflo_mol_fluxes.cpp</text>
</g>
<!-- Node1 -->
<g id="node2" class="node">
<title>Node1</title>
<polygon fill="#ffffff" stroke="#bfbfbf" points="375,-185 375,-204 485,-204 485,-185 375,-185"/>
<text text-anchor="middle" x="430" y="-192" font-family="Helvetica,sans-Serif" font-size="10.00" fill="#000000">AMReX_Geometry.H</text>
</g>
<!-- Node0&#45;&gt;Node1 -->
<g id="edge1" class="edge">
<title>Node0&#45;&gt;Node1</title>
<path fill="none" stroke="#191970" d="M596.2188,-246.3906C562.2451,-235.7846 507.4396,-218.6753 470.1228,-207.0257"/>
<polygon fill="#191970" stroke="#191970" points="471.1538,-203.681 460.5651,-204.0419 469.0677,-210.3629 471.1538,-203.681"/>
</g>
<!-- Node2 -->
<g id="node3" class="node">
<title>Node2</title>
<g id="a_node3"><a xlink:href="incflo__convection___k_8_h.html" target="_top" xlink:title="amr&#45;wind/convection\l/incflo_convection_K.H">
<polygon fill="#ffffff" stroke="#000000" points="503,-179.5 503,-209.5 621,-209.5 621,-179.5 503,-179.5"/>
<text text-anchor="start" x="511" y="-197.5" font-family="Helvetica,sans-Serif" font-size="10.00" fill="#000000">amr&#45;wind/convection</text>
<text text-anchor="middle" x="562" y="-186.5" font-family="Helvetica,sans-Serif" font-size="10.00" fill="#000000">/incflo_convection_K.H</text>
</a>
</g>
</g>
<!-- Node0&#45;&gt;Node2 -->
<g id="edge2" class="edge">
<title>Node0&#45;&gt;Node2</title>
<path fill="none" stroke="#191970" d="M616.8438,-246.3906C608.4541,-238.4527 596.2141,-226.8718 585.4249,-216.6635"/>
<polygon fill="#191970" stroke="#191970" points="587.5702,-213.875 577.9008,-209.5446 582.7593,-218.9598 587.5702,-213.875"/>
</g>
<!-- Node4 -->
<g id="node5" class="node">
<title>Node4</title>
<g id="a_node5"><a xlink:href="_m_o_l_8_h.html" target="_top" xlink:title="amr&#45;wind/convection\l/MOL.H">
<polygon fill="#ffffff" stroke="#000000" points="639.5,-179.5 639.5,-209.5 746.5,-209.5 746.5,-179.5 639.5,-179.5"/>
<text text-anchor="start" x="647.5" y="-197.5" font-family="Helvetica,sans-Serif" font-size="10.00" fill="#000000">amr&#45;wind/convection</text>
<text text-anchor="middle" x="693" y="-186.5" font-family="Helvetica,sans-Serif" font-size="10.00" fill="#000000">/MOL.H</text>
</a>
</g>
</g>
<!-- Node0&#45;&gt;Node4 -->
<g id="edge4" class="edge">
<title>Node0&#45;&gt;Node4</title>
<path fill="none" stroke="#191970" d="M637.3125,-246.3906C645.914,-238.3756 658.5012,-226.6466 669.5334,-216.3666"/>
<polygon fill="#191970" stroke="#191970" points="671.9245,-218.9225 676.8546,-209.5446 667.1524,-213.8012 671.9245,-218.9225"/>
</g>
<!-- Node23 -->
<g id="node24" class="node">
<title>Node23</title>
<g id="a_node24"><a xlink:href="bc__ops_8_h.html" target="_top" xlink:title="Boundary condition utilities. ">
<polygon fill="#ffffff" stroke="#000000" points="984,-112.5 984,-142.5 1074,-142.5 1074,-112.5 984,-112.5"/>
<text text-anchor="start" x="992" y="-130.5" font-family="Helvetica,sans-Serif" font-size="10.00" fill="#000000">amr&#45;wind/utilities</text>
<text text-anchor="middle" x="1029" y="-119.5" font-family="Helvetica,sans-Serif" font-size="10.00" fill="#000000">/bc_ops.H</text>
</a>
</g>
</g>
<!-- Node0&#45;&gt;Node23 -->
<g id="edge35" class="edge">
<title>Node0&#45;&gt;Node23</title>
<path fill="none" stroke="#191970" d="M656.8869,-246.4466C724.1673,-224.9403 888.3391,-172.4625 974.37,-144.9626"/>
<polygon fill="#191970" stroke="#191970" points="975.4991,-148.2762 983.9586,-141.8976 973.3677,-141.6086 975.4991,-148.2762"/>
</g>
<!-- Node3 -->
<g id="node4" class="node">
<title>Node3</title>
<polygon fill="#ffffff" stroke="#bfbfbf" points="493.5,-118 493.5,-137 606.5,-137 606.5,-118 493.5,-118"/>
<text text-anchor="middle" x="550" y="-125" font-family="Helvetica,sans-Serif" font-size="10.00" fill="#000000">AMReX_FArrayBox.H</text>
</g>
<!-- Node2&#45;&gt;Node3 -->
<g id="edge3" class="edge">
<title>Node2&#45;&gt;Node3</title>
<path fill="none" stroke="#191970" d="M559.277,-179.2967C557.5707,-169.7699 555.3544,-157.3954 553.5159,-147.1306"/>
<polygon fill="#191970" stroke="#191970" points="556.9196,-146.2813 551.7113,-137.055 550.0292,-147.5154 556.9196,-146.2813"/>
</g>
<!-- Node5 -->
<g id="node6" class="node">
<title>Node5</title>
<g id="a_node6"><a xlink:href="_field_repo_8_h.html" target="_top" xlink:title="amr&#45;wind/core/FieldRepo.H">
<polygon fill="#ffffff" stroke="#000000" points="625,-118 625,-137 761,-137 761,-118 625,-118"/>
<text text-anchor="middle" x="693" y="-125" font-family="Helvetica,sans-Serif" font-size="10.00" fill="#000000">amr&#45;wind/core/FieldRepo.H</text>
</a>
</g>
</g>
<!-- Node4&#45;&gt;Node5 -->
<g id="edge5" class="edge">
<title>Node4&#45;&gt;Node5</title>
<path fill="none" stroke="#191970" d="M693,-179.2967C693,-169.7699 693,-157.3954 693,-147.1306"/>
<polygon fill="#191970" stroke="#191970" points="696.5001,-147.0549 693,-137.055 689.5001,-147.055 696.5001,-147.0549"/>
</g>
<!-- Node6 -->
<g id="node7" class="node">
<title>Node6</title>
<polygon fill="#ffffff" stroke="#bfbfbf" points="822.5,-.5 822.5,-19.5 863.5,-19.5 863.5,-.5 822.5,-.5"/>
<text text-anchor="middle" x="843" y="-7.5" font-family="Helvetica,sans-Serif" font-size="10.00" fill="#000000">string</text>
</g>
<!-- Node5&#45;&gt;Node6 -->
<g id="edge6" class="edge">
<title>Node5&#45;&gt;Node6</title>
<path fill="none" stroke="#191970" d="M761.1747,-118.4048C810.9616,-110.2014 872.3764,-96.2855 888,-76 900.7991,-59.3818 882.7662,-39.3618 865.8658,-25.7606"/>
<polygon fill="#191970" stroke="#191970" points="867.8827,-22.8975 857.8003,-19.6423 863.6522,-28.4745 867.8827,-22.8975"/>
</g>
<!-- Node7 -->
<g id="node8" class="node">
<title>Node7</title>
<polygon fill="#ffffff" stroke="#bfbfbf" points="881.5,-.5 881.5,-19.5 964.5,-19.5 964.5,-.5 881.5,-.5"/>
<text text-anchor="middle" x="923" y="-7.5" font-family="Helvetica,sans-Serif" font-size="10.00" fill="#000000">unordered_map</text>
</g>
<!-- Node5&#45;&gt;Node7 -->
<g id="edge7" class="edge">
<title>Node5&#45;&gt;Node7</title>
<path fill="none" stroke="#191970" d="M761.1968,-118.5515C815.1194,-110.129 884.6006,-95.8372 905,-76 917.349,-63.9914 921.483,-44.4062 922.7467,-29.6834"/>
<polygon fill="#191970" stroke="#191970" points="926.2481,-29.738 923.242,-19.5786 919.2565,-29.3952 926.2481,-29.738"/>
</g>
<!-- Node8 -->
<g id="node9" class="node">
<title>Node8</title>
<g id="a_node9"><a xlink:href="_field_desc_types_8_h.html" target="_top" xlink:title="amr&#45;wind/core/FieldDescTypes.H">
<polygon fill="#ffffff" stroke="#000000" points="516.5,-.5 516.5,-19.5 679.5,-19.5 679.5,-.5 516.5,-.5"/>
<text text-anchor="middle" x="598" y="-7.5" font-family="Helvetica,sans-Serif" font-size="10.00" fill="#000000">amr&#45;wind/core/FieldDescTypes.H</text>
</a>
</g>
</g>
<!-- Node5&#45;&gt;Node8 -->
<g id="edge8" class="edge">
<title>Node5&#45;&gt;Node8</title>
<path fill="none" stroke="#191970" d="M669.421,-117.9564C651.5549,-109.5234 627.8003,-95.5173 614,-76 604.4395,-62.4789 600.5534,-43.9276 598.9932,-29.9357"/>
<polygon fill="#191970" stroke="#191970" points="602.4742,-29.5592 598.1765,-19.8752 595.4971,-30.1256 602.4742,-29.5592"/>
</g>
<!-- Node9 -->
<g id="node10" class="node">
<title>Node9</title>
<g id="a_node10"><a xlink:href="_field_utils_8_h.html" target="_top" xlink:title="amr&#45;wind/core/FieldUtils.H">
<polygon fill="#ffffff" stroke="#000000" points="403.5,-56.5 403.5,-75.5 536.5,-75.5 536.5,-56.5 403.5,-56.5"/>
<text text-anchor="middle" x="470" y="-63.5" font-family="Helvetica,sans-Serif" font-size="10.00" fill="#000000">amr&#45;wind/core/FieldUtils.H</text>
</a>
</g>
</g>
<!-- Node5&#45;&gt;Node9 -->
<g id="edge9" class="edge">
<title>Node5&#45;&gt;Node9</title>
<path fill="none" stroke="#191970" d="M658.1563,-117.8906C619.3714,-107.1944 556.6023,-89.8836 514.3441,-78.2294"/>
<polygon fill="#191970" stroke="#191970" points="515.1697,-74.8265 504.5991,-75.5419 513.3087,-81.5746 515.1697,-74.8265"/>
</g>
<!-- Node10 -->
<g id="node11" class="node">
<title>Node10</title>
<polygon fill="#ffffff" stroke="#bfbfbf" points="260,-.5 260,-19.5 364,-19.5 364,-.5 260,-.5"/>
<text text-anchor="middle" x="312" y="-7.5" font-family="Helvetica,sans-Serif" font-size="10.00" fill="#000000">AMReX_MultiFab.H</text>
</g>
<!-- Node5&#45;&gt;Node10 -->
<g id="edge33" class="edge">
<title>Node5&#45;&gt;Node10</title>
<path fill="none" stroke="#191970" d="M648.9988,-117.9339C637.9386,-115.7564 626.0664,-113.6126 615,-112 572.4846,-105.8048 258.9316,-107.7632 230,-76 211.123,-55.2755 244.3113,-35.6901 273.9463,-23.3199"/>
<polygon fill="#191970" stroke="#191970" points="275.378,-26.5171 283.3728,-19.5648 272.7874,-20.0141 275.378,-26.5171"/>
</g>
<!-- Node12 -->
<g id="node13" class="node">
<title>Node12</title>
<g id="a_node13"><a xlink:href="_field_8_h.html" target="_top" xlink:title="amr&#45;wind/core/Field.H">
<polygon fill="#ffffff" stroke="#000000" points="973.5,-56.5 973.5,-75.5 1086.5,-75.5 1086.5,-56.5 973.5,-56.5"/>
<text text-anchor="middle" x="1030" y="-63.5" font-family="Helvetica,sans-Serif" font-size="10.00" fill="#000000">amr&#45;wind/core/Field.H</text>
</a>
</g>
</g>
<!-- Node5&#45;&gt;Node12 -->
<g id="edge13" class="edge">
<title>Node5&#45;&gt;Node12</title>
<path fill="none" stroke="#191970" d="M745.2865,-117.9581C805.3914,-106.9894 903.9607,-89.0012 967.9127,-77.3305"/>
<polygon fill="#191970" stroke="#191970" points="968.659,-80.7522 977.8681,-75.5137 967.4022,-73.8659 968.659,-80.7522"/>
</g>
<!-- Node17 -->
<g id="node18" class="node">
<title>Node17</title>
<g id="a_node18"><a xlink:href="_int_field_8_h.html" target="_top" xlink:title="amr&#45;wind/core/IntField.H">
<polygon fill="#ffffff" stroke="#000000" points="631,-56.5 631,-75.5 755,-75.5 755,-56.5 631,-56.5"/>
<text text-anchor="middle" x="693" y="-63.5" font-family="Helvetica,sans-Serif" font-size="10.00" fill="#000000">amr&#45;wind/core/IntField.H</text>
</a>
</g>
</g>
<!-- Node5&#45;&gt;Node17 -->
<g id="edge22" class="edge">
<title>Node5&#45;&gt;Node17</title>
<path fill="none" stroke="#191970" d="M693,-117.8906C693,-109.3657 693,-96.6392 693,-85.9235"/>
<polygon fill="#191970" stroke="#191970" points="696.5001,-85.7448 693,-75.7449 689.5001,-85.7449 696.5001,-85.7448"/>
</g>
<!-- Node18 -->
<g id="node19" class="node">
<title>Node18</title>
<polygon fill="#ffffff" stroke="#bfbfbf" points="697.5,-.5 697.5,-19.5 804.5,-19.5 804.5,-.5 697.5,-.5"/>
<text text-anchor="middle" x="751" y="-7.5" font-family="Helvetica,sans-Serif" font-size="10.00" fill="#000000">AMReX_iMultiFab.H</text>
</g>
<!-- Node5&#45;&gt;Node18 -->
<g id="edge34" class="edge">
<title>Node5&#45;&gt;Node18</title>
<path fill="none" stroke="#191970" d="M670.4139,-117.849C643.5634,-104.968 604.4596,-80.8769 622,-56 631.3035,-42.8051 667.0381,-30.6647 698.5433,-22.1731"/>
<polygon fill="#191970" stroke="#191970" points="699.7955,-25.4635 708.5849,-19.5476 698.0247,-18.6911 699.7955,-25.4635"/>
</g>
<!-- Node19 -->
<g id="node20" class="node">
<title>Node19</title>
<g id="a_node20"><a xlink:href="_scratch_field_8_h.html" target="_top" xlink:title="amr&#45;wind/core/ScratchField.H">
<polygon fill="#ffffff" stroke="#000000" points="239,-56.5 239,-75.5 385,-75.5 385,-56.5 239,-56.5"/>
<text text-anchor="middle" x="312" y="-63.5" font-family="Helvetica,sans-Serif" font-size="10.00" fill="#000000">amr&#45;wind/core/ScratchField.H</text>
</a>
</g>
</g>
<!-- Node5&#45;&gt;Node19 -->
<g id="edge26" class="edge">
<title>Node5&#45;&gt;Node19</title>
<path fill="none" stroke="#191970" d="M646.871,-117.9724C636.4088,-115.9121 625.3355,-113.8105 615,-112 539.0429,-98.6944 451.9748,-85.7108 390.7217,-76.9492"/>
<polygon fill="#191970" stroke="#191970" points="391.1321,-73.4724 380.7382,-75.5259 390.144,-80.4024 391.1321,-73.4724"/>
</g>
<!-- Node22 -->
<g id="node23" class="node">
<title>Node22</title>
<polygon fill="#ffffff" stroke="#bfbfbf" points="773,-56.5 773,-75.5 879,-75.5 879,-56.5 773,-56.5"/>
<text text-anchor="middle" x="826" y="-63.5" font-family="Helvetica,sans-Serif" font-size="10.00" fill="#000000">AMReX_AmrCore.H</text>
</g>
<!-- Node5&#45;&gt;Node22 -->
<g id="edge32" class="edge">
<title>Node5&#45;&gt;Node22</title>
<path fill="none" stroke="#191970" d="M713.7813,-117.8906C735.8394,-107.6908 770.905,-91.4763 795.9669,-79.8875"/>
<polygon fill="#191970" stroke="#191970" points="797.7571,-82.9158 805.3647,-75.5419 794.8191,-76.5622 797.7571,-82.9158"/>
</g>
<!-- Node9&#45;&gt;Node8 -->
<g id="edge10" class="edge">
<title>Node9&#45;&gt;Node8</title>
<path fill="none" stroke="#191970" d="M492.004,-56.3733C512.6435,-47.3435 543.7158,-33.7494 566.8889,-23.6111"/>
<polygon fill="#191970" stroke="#191970" points="568.5245,-26.7159 576.2831,-19.5011 565.7187,-20.3028 568.5245,-26.7159"/>
</g>
<!-- Node9&#45;&gt;Node10 -->
<g id="edge11" class="edge">
<title>Node9&#45;&gt;Node10</title>
<path fill="none" stroke="#191970" d="M442.8388,-56.3733C416.7933,-47.1419 377.2884,-33.1402 348.5021,-22.9375"/>
<polygon fill="#191970" stroke="#191970" points="349.4015,-19.5429 338.8067,-19.5011 347.063,-26.1408 349.4015,-19.5429"/>
</g>
<!-- Node11 -->
<g id="node12" class="node">
<title>Node11</title>
<polygon fill="#ffffff" stroke="#bfbfbf" points="382,-.5 382,-19.5 498,-19.5 498,-.5 382,-.5"/>
<text text-anchor="middle" x="440" y="-7.5" font-family="Helvetica,sans-Serif" font-size="10.00" fill="#000000">AMReX_Interpolater.H</text>
</g>
<!-- Node9&#45;&gt;Node11 -->
<g id="edge12" class="edge">
<title>Node9&#45;&gt;Node11</title>
<path fill="none" stroke="#191970" d="M464.7744,-56.2455C460.6877,-48.617 454.8865,-37.7881 449.925,-28.5267"/>
<polygon fill="#191970" stroke="#191970" points="452.9732,-26.8047 445.1657,-19.6427 446.8028,-30.1103 452.9732,-26.8047"/>
</g>
<!-- Node12&#45;&gt;Node6 -->
<g id="edge14" class="edge">
<title>Node12&#45;&gt;Node6</title>
<path fill="none" stroke="#191970" d="M995.3327,-56.4319C965.292,-48.0246 920.4517,-35.1992 873.323,-20.328"/>
<polygon fill="#191970" stroke="#191970" points="874.1442,-16.9166 863.5539,-17.226 872.0257,-23.5884 874.1442,-16.9166"/>
</g>
<!-- Node12&#45;&gt;Node7 -->
<g id="edge16" class="edge">
<title>Node12&#45;&gt;Node7</title>
<path fill="none" stroke="#191970" d="M1011.362,-56.2455C994.5614,-47.4527 969.6366,-34.4079 950.5382,-24.4125"/>
<polygon fill="#191970" stroke="#191970" points="951.9073,-21.1787 941.4244,-19.6427 948.6614,-27.3807 951.9073,-21.1787"/>
</g>
<!-- Node12&#45;&gt;Node8 -->
<g id="edge21" class="edge">
<title>Node12&#45;&gt;Node8</title>
<path fill="none" stroke="#191970" d="M973.0793,-58.6214C898.4778,-48.9508 767.0667,-31.9161 681.2741,-20.7948"/>
<polygon fill="#191970" stroke="#191970" points="681.6714,-17.3171 671.3044,-19.5024 680.7715,-24.259 681.6714,-17.3171"/>
</g>
<!-- Node12&#45;&gt;Node10 -->
<g id="edge17" class="edge">
<title>Node12&#45;&gt;Node10</title>
<path fill="none" stroke="#191970" d="M973.3396,-62.0031C947.3377,-60.1706 916.1047,-57.9719 888,-56 662.3563,-40.1682 602.5846,-46.4043 374.1475,-20.0401"/>
<polygon fill="#191970" stroke="#191970" points="374.5359,-16.5618 364.1986,-18.8837 373.7276,-23.515 374.5359,-16.5618"/>
</g>
<!-- Node13 -->
<g id="node14" class="node">
<title>Node13</title>
<polygon fill="#ffffff" stroke="#bfbfbf" points="983,-.5 983,-19.5 1035,-19.5 1035,-.5 983,-.5"/>
<text text-anchor="middle" x="1009" y="-7.5" font-family="Helvetica,sans-Serif" font-size="10.00" fill="#000000">memory</text>
</g>
<!-- Node12&#45;&gt;Node13 -->
<g id="edge15" class="edge">
<title>Node12&#45;&gt;Node13</title>
<path fill="none" stroke="#191970" d="M1026.3421,-56.2455C1023.5416,-48.7776 1019.591,-38.2427 1016.1676,-29.1137"/>
<polygon fill="#191970" stroke="#191970" points="1019.4045,-27.777 1012.616,-19.6427 1012.8501,-30.2349 1019.4045,-27.777"/>
</g>
<!-- Node14 -->
<g id="node15" class="node">
<title>Node14</title>
<polygon fill="#ffffff" stroke="#bfbfbf" points="1303.5,-.5 1303.5,-19.5 1402.5,-19.5 1402.5,-.5 1303.5,-.5"/>
<text text-anchor="middle" x="1353" y="-7.5" font-family="Helvetica,sans-Serif" font-size="10.00" fill="#000000">AMReX_BCRec.H</text>
</g>
<!-- Node12&#45;&gt;Node14 -->
<g id="edge18" class="edge">
<title>Node12&#45;&gt;Node14</title>
<path fill="none" stroke="#191970" d="M1085.1587,-56.4369C1143.07,-46.3965 1233.8211,-30.6626 1293.3611,-20.3399"/>
<polygon fill="#191970" stroke="#191970" points="1294.1136,-23.7617 1303.3687,-18.6048 1292.9177,-16.8646 1294.1136,-23.7617"/>
</g>
<!-- Node15 -->
<g id="node16" class="node">
<title>Node15</title>
<polygon fill="#ffffff" stroke="#bfbfbf" points="1053.5,-.5 1053.5,-19.5 1138.5,-19.5 1138.5,-.5 1053.5,-.5"/>
<text text-anchor="middle" x="1096" y="-7.5" font-family="Helvetica,sans-Serif" font-size="10.00" fill="#000000">AMReX_Gpu.H</text>
</g>
<!-- Node12&#45;&gt;Node15 -->
<g id="edge19" class="edge">
<title>Node12&#45;&gt;Node15</title>
<path fill="none" stroke="#191970" d="M1041.4963,-56.2455C1051.2442,-47.9746 1065.4259,-35.9416 1076.8798,-26.2232"/>
<polygon fill="#191970" stroke="#191970" points="1079.2747,-28.7813 1084.6354,-19.6427 1074.7459,-23.4437 1079.2747,-28.7813"/>
</g>
<!-- Node16 -->
<g id="node17" class="node">
<title>Node16</title>
<g id="a_node17"><a xlink:href="incflo__enums_8_h.html" target="_top" xlink:title="amr&#45;wind/incflo_enums.H">
<polygon fill="#ffffff" stroke="#000000" points="1157,-.5 1157,-19.5 1285,-19.5 1285,-.5 1157,-.5"/>
<text text-anchor="middle" x="1221" y="-7.5" font-family="Helvetica,sans-Serif" font-size="10.00" fill="#000000">amr&#45;wind/incflo_enums.H</text>
</a>
</g>
</g>
<!-- Node12&#45;&gt;Node16 -->
<g id="edge20" class="edge">
<title>Node12&#45;&gt;Node16</title>
<path fill="none" stroke="#191970" d="M1062.8341,-56.3733C1094.8695,-46.9807 1143.7487,-32.6496 1178.6855,-22.4064"/>
<polygon fill="#191970" stroke="#191970" points="1179.9831,-25.6733 1188.5944,-19.5011 1178.0136,-18.9561 1179.9831,-25.6733"/>
</g>
<!-- Node17&#45;&gt;Node6 -->
<g id="edge23" class="edge">
<title>Node17&#45;&gt;Node6</title>
<path fill="none" stroke="#191970" d="M718.7859,-56.3733C744.8968,-46.6252 785.256,-31.5578 812.8355,-21.2614"/>
<polygon fill="#191970" stroke="#191970" points="814.2239,-24.4791 822.3682,-17.7026 811.7756,-17.9212 814.2239,-24.4791"/>
</g>
<!-- Node17&#45;&gt;Node8 -->
<g id="edge24" class="edge">
<title>Node17&#45;&gt;Node8</title>
<path fill="none" stroke="#191970" d="M676.4523,-56.2455C661.7401,-47.5731 640.0112,-34.7645 623.1495,-24.825"/>
<polygon fill="#191970" stroke="#191970" points="624.7502,-21.7057 614.3581,-19.6427 621.1954,-27.736 624.7502,-21.7057"/>
</g>
<!-- Node17&#45;&gt;Node18 -->
<g id="edge25" class="edge">
<title>Node17&#45;&gt;Node18</title>
<path fill="none" stroke="#191970" d="M703.1028,-56.2455C711.5028,-48.1352 723.6494,-36.4075 733.6084,-26.7919"/>
<polygon fill="#191970" stroke="#191970" points="736.25,-29.1066 741.0129,-19.6427 731.3878,-24.0707 736.25,-29.1066"/>
</g>
<!-- Node19&#45;&gt;Node6 -->
<g id="edge27" class="edge">
<title>Node19&#45;&gt;Node6</title>
<path fill="none" stroke="#191970" d="M385.3029,-56.9293C388.2394,-56.6076 391.147,-56.2964 394,-56 576.6396,-37.0234 628.1556,-57.0854 812.1846,-19.6975"/>
<polygon fill="#191970" stroke="#191970" points="813.1041,-23.0816 822.1916,-17.6348 811.6909,-16.2257 813.1041,-23.0816"/>
</g>
<!-- Node19&#45;&gt;Node8 -->
<g id="edge28" class="edge">
<title>Node19&#45;&gt;Node8</title>
<path fill="none" stroke="#191970" d="M360.8402,-56.4369C410.301,-46.7522 486.816,-31.7703 539.488,-21.4569"/>
<polygon fill="#191970" stroke="#191970" points="540.2202,-24.8801 549.3613,-19.5237 538.875,-18.0105 540.2202,-24.8801"/>
</g>
<!-- Node19&#45;&gt;Node10 -->
<g id="edge29" class="edge">
<title>Node19&#45;&gt;Node10</title>
<path fill="none" stroke="#191970" d="M312,-56.2455C312,-48.9382 312,-38.6944 312,-29.7046"/>
<polygon fill="#191970" stroke="#191970" points="315.5001,-29.6426 312,-19.6427 308.5001,-29.6427 315.5001,-29.6426"/>
</g>
<!-- Node20 -->
<g id="node21" class="node">
<title>Node20</title>
<polygon fill="#ffffff" stroke="#bfbfbf" points="146.5,-.5 146.5,-19.5 241.5,-19.5 241.5,-.5 146.5,-.5"/>
<text text-anchor="middle" x="194" y="-7.5" font-family="Helvetica,sans-Serif" font-size="10.00" fill="#000000">AMReX_Vector.H</text>
</g>
<!-- Node19&#45;&gt;Node20 -->
<g id="edge30" class="edge">
<title>Node19&#45;&gt;Node20</title>
<path fill="none" stroke="#191970" d="M291.7151,-56.3733C272.8579,-47.4241 244.554,-33.9917 223.2545,-23.8835"/>
<polygon fill="#191970" stroke="#191970" points="224.5551,-20.6266 214.0202,-19.5011 221.5539,-26.9506 224.5551,-20.6266"/>
</g>
<!-- Node21 -->
<g id="node22" class="node">
<title>Node21</title>
<polygon fill="#ffffff" stroke="#bfbfbf" points="0,-.5 0,-19.5 128,-19.5 128,-.5 0,-.5"/>
<text text-anchor="middle" x="64" y="-7.5" font-family="Helvetica,sans-Serif" font-size="10.00" fill="#000000">AMReX_PhysBCFunct.H</text>
</g>
<!-- Node19&#45;&gt;Node21 -->
<g id="edge31" class="edge">
<title>Node19&#45;&gt;Node21</title>
<path fill="none" stroke="#191970" d="M269.6491,-56.4369C227.2058,-46.8529 161.7881,-32.0812 116.1687,-21.78"/>
<polygon fill="#191970" stroke="#191970" points="116.7016,-18.3123 106.1763,-19.5237 115.1597,-25.1404 116.7016,-18.3123"/>
</g>
<!-- Node23&#45;&gt;Node14 -->
<g id="edge36" class="edge">
<title>Node23&#45;&gt;Node14</title>
<path fill="none" stroke="#191970" d="M1070.3639,-112.4992C1134.3583,-89.2914 1256.2942,-45.0708 1316.9191,-23.0849"/>
<polygon fill="#191970" stroke="#191970" points="1318.2458,-26.3269 1326.4535,-19.6272 1315.8593,-19.7462 1318.2458,-26.3269"/>
</g>
</g>
</svg>
