<?xml version="1.0" encoding="UTF-8" standalone="no"?>
<!DOCTYPE svg PUBLIC "-//W3C//DTD SVG 1.1//EN"
 "http://www.w3.org/Graphics/SVG/1.1/DTD/svg11.dtd">
<!-- Generated by graphviz version 2.40.1 (20161225.0304)
 -->
<!-- Title: incflo_godunov_advection.cpp Pages: 1 -->
<svg width="1546pt" height="341pt"
 viewBox="0.00 0.00 1545.50 341.00" xmlns="http://www.w3.org/2000/svg" xmlns:xlink="http://www.w3.org/1999/xlink">
<g id="graph0" class="graph" transform="scale(1 1) rotate(0) translate(4 337)">
<title>incflo_godunov_advection.cpp</title>
<polygon fill="#ffffff" stroke="transparent" points="-4,4 -4,-337 1541.5,-337 1541.5,4 -4,4"/>
<!-- Node0 -->
<g id="node1" class="node">
<title>Node0</title>
<polygon fill="#bfbfbf" stroke="#000000" points="269,-313.5 269,-332.5 417,-332.5 417,-313.5 269,-313.5"/>
<text text-anchor="middle" x="343" y="-320.5" font-family="Helvetica,sans-Serif" font-size="10.00" fill="#000000">incflo_godunov_advection.cpp</text>
</g>
<!-- Node1 -->
<g id="node2" class="node">
<title>Node1</title>
<g id="a_node2"><a xlink:href="incflo__godunov__plm_8_h.html" target="_top" xlink:title="amr&#45;wind/convection\l/incflo_godunov_plm.H">
<polygon fill="#ffffff" stroke="#000000" points="108,-123.5 108,-153.5 224,-153.5 224,-123.5 108,-123.5"/>
<text text-anchor="start" x="116" y="-141.5" font-family="Helvetica,sans-Serif" font-size="10.00" fill="#000000">amr&#45;wind/convection</text>
<text text-anchor="middle" x="166" y="-130.5" font-family="Helvetica,sans-Serif" font-size="10.00" fill="#000000">/incflo_godunov_plm.H</text>
</a>
</g>
</g>
<!-- Node0&#45;&gt;Node1 -->
<g id="edge1" class="edge">
<title>Node0&#45;&gt;Node1</title>
<path fill="none" stroke="#191970" d="M333.7329,-313.3402C306.5355,-284.9903 226.4154,-201.4753 187.585,-160.9996"/>
<polygon fill="#191970" stroke="#191970" points="190.0656,-158.5296 180.617,-153.7363 185.0142,-163.3756 190.0656,-158.5296"/>
</g>
<!-- Node6 -->
<g id="node7" class="node">
<title>Node6</title>
<g id="a_node7"><a xlink:href="incflo__godunov__ppm_8_h.html" target="_top" xlink:title="amr&#45;wind/convection\l/incflo_godunov_ppm.H">
<polygon fill="#ffffff" stroke="#000000" points="242.5,-123.5 242.5,-153.5 361.5,-153.5 361.5,-123.5 242.5,-123.5"/>
<text text-anchor="start" x="250.5" y="-141.5" font-family="Helvetica,sans-Serif" font-size="10.00" fill="#000000">amr&#45;wind/convection</text>
<text text-anchor="middle" x="302" y="-130.5" font-family="Helvetica,sans-Serif" font-size="10.00" fill="#000000">/incflo_godunov_ppm.H</text>
</a>
</g>
</g>
<!-- Node0&#45;&gt;Node6 -->
<g id="edge6" class="edge">
<title>Node0&#45;&gt;Node6</title>
<path fill="none" stroke="#191970" d="M337.658,-313.4413C332.8149,-304.3468 325.8615,-290.1395 322,-277 310.6914,-238.5204 305.6508,-192.0736 303.4969,-163.937"/>
<polygon fill="#191970" stroke="#191970" points="306.9744,-163.4923 302.7838,-153.7615 299.9915,-163.9818 306.9744,-163.4923"/>
</g>
<!-- Node7 -->
<g id="node8" class="node">
<title>Node7</title>
<g id="a_node8"><a xlink:href="_godunov_8_h.html" target="_top" xlink:title="amr&#45;wind/convection\l/Godunov.H">
<polygon fill="#ffffff" stroke="#000000" points="330.5,-246.5 330.5,-276.5 437.5,-276.5 437.5,-246.5 330.5,-246.5"/>
<text text-anchor="start" x="338.5" y="-264.5" font-family="Helvetica,sans-Serif" font-size="10.00" fill="#000000">amr&#45;wind/convection</text>
<text text-anchor="middle" x="384" y="-253.5" font-family="Helvetica,sans-Serif" font-size="10.00" fill="#000000">/Godunov.H</text>
</a>
</g>
</g>
<!-- Node0&#45;&gt;Node7 -->
<g id="edge9" class="edge">
<title>Node0&#45;&gt;Node7</title>
<path fill="none" stroke="#191970" d="M349.4063,-313.3906C354.4413,-305.838 361.6749,-294.9876 368.2271,-285.1593"/>
<polygon fill="#191970" stroke="#191970" points="371.3354,-286.8066 373.9703,-276.5446 365.511,-282.9236 371.3354,-286.8066"/>
</g>
<!-- Node24 -->
<g id="node25" class="node">
<title>Node24</title>
<polygon fill="#ffffff" stroke="#bfbfbf" points="456,-252 456,-271 566,-271 566,-252 456,-252"/>
<text text-anchor="middle" x="511" y="-259" font-family="Helvetica,sans-Serif" font-size="10.00" fill="#000000">AMReX_Geometry.H</text>
</g>
<!-- Node0&#45;&gt;Node24 -->
<g id="edge40" class="edge">
<title>Node0&#45;&gt;Node24</title>
<path fill="none" stroke="#191970" d="M369.25,-313.3906C397.7293,-302.9652 443.3743,-286.2559 475.1457,-274.6252"/>
<polygon fill="#191970" stroke="#191970" points="476.7469,-277.7663 484.9343,-271.0419 474.3406,-271.1929 476.7469,-277.7663"/>
</g>
<!-- Node2 -->
<g id="node3" class="node">
<title>Node2</title>
<g id="a_node3"><a xlink:href="incflo__convection___k_8_h.html" target="_top" xlink:title="amr&#45;wind/convection\l/incflo_convection_K.H">
<polygon fill="#ffffff" stroke="#000000" points="0,-56.5 0,-86.5 118,-86.5 118,-56.5 0,-56.5"/>
<text text-anchor="start" x="8" y="-74.5" font-family="Helvetica,sans-Serif" font-size="10.00" fill="#000000">amr&#45;wind/convection</text>
<text text-anchor="middle" x="59" y="-63.5" font-family="Helvetica,sans-Serif" font-size="10.00" fill="#000000">/incflo_convection_K.H</text>
</a>
</g>
</g>
<!-- Node1&#45;&gt;Node2 -->
<g id="edge2" class="edge">
<title>Node1&#45;&gt;Node2</title>
<path fill="none" stroke="#191970" d="M141.9871,-123.4639C127.2225,-114.2188 108.1005,-102.2452 91.9339,-92.1222"/>
<polygon fill="#191970" stroke="#191970" points="93.636,-89.0584 83.303,-86.7177 89.921,-94.9913 93.636,-89.0584"/>
</g>
<!-- Node4 -->
<g id="node5" class="node">
<title>Node4</title>
<polygon fill="#ffffff" stroke="#bfbfbf" points="136.5,-62 136.5,-81 221.5,-81 221.5,-62 136.5,-62"/>
<text text-anchor="middle" x="179" y="-69" font-family="Helvetica,sans-Serif" font-size="10.00" fill="#000000">AMReX_Gpu.H</text>
</g>
<!-- Node1&#45;&gt;Node4 -->
<g id="edge4" class="edge">
<title>Node1&#45;&gt;Node4</title>
<path fill="none" stroke="#191970" d="M168.9499,-123.2967C170.7984,-113.7699 173.1994,-101.3954 175.1911,-91.1306"/>
<polygon fill="#191970" stroke="#191970" points="178.6771,-91.5386 177.1461,-81.055 171.8053,-90.2052 178.6771,-91.5386"/>
</g>
<!-- Node5 -->
<g id="node6" class="node">
<title>Node5</title>
<polygon fill="#ffffff" stroke="#bfbfbf" points="239.5,-62 239.5,-81 338.5,-81 338.5,-62 239.5,-62"/>
<text text-anchor="middle" x="289" y="-69" font-family="Helvetica,sans-Serif" font-size="10.00" fill="#000000">AMReX_BCRec.H</text>
</g>
<!-- Node1&#45;&gt;Node5 -->
<g id="edge5" class="edge">
<title>Node1&#45;&gt;Node5</title>
<path fill="none" stroke="#191970" d="M193.6036,-123.4639C214.1485,-112.2728 242.0327,-97.0838 262.3465,-86.0186"/>
<polygon fill="#191970" stroke="#191970" points="264.2615,-88.9611 271.3689,-81.1039 260.913,-82.8139 264.2615,-88.9611"/>
</g>
<!-- Node3 -->
<g id="node4" class="node">
<title>Node3</title>
<polygon fill="#ffffff" stroke="#bfbfbf" points="2.5,-.5 2.5,-19.5 115.5,-19.5 115.5,-.5 2.5,-.5"/>
<text text-anchor="middle" x="59" y="-7.5" font-family="Helvetica,sans-Serif" font-size="10.00" fill="#000000">AMReX_FArrayBox.H</text>
</g>
<!-- Node2&#45;&gt;Node3 -->
<g id="edge3" class="edge">
<title>Node2&#45;&gt;Node3</title>
<path fill="none" stroke="#191970" d="M59,-56.2977C59,-48.3834 59,-38.6043 59,-30.0759"/>
<polygon fill="#191970" stroke="#191970" points="62.5001,-29.8469 59,-19.8469 55.5001,-29.847 62.5001,-29.8469"/>
</g>
<!-- Node6&#45;&gt;Node4 -->
<g id="edge7" class="edge">
<title>Node6&#45;&gt;Node4</title>
<path fill="none" stroke="#191970" d="M274.3964,-123.4639C253.8515,-112.2728 225.9673,-97.0838 205.6535,-86.0186"/>
<polygon fill="#191970" stroke="#191970" points="207.087,-82.8139 196.6311,-81.1039 203.7385,-88.9611 207.087,-82.8139"/>
</g>
<!-- Node6&#45;&gt;Node5 -->
<g id="edge8" class="edge">
<title>Node6&#45;&gt;Node5</title>
<path fill="none" stroke="#191970" d="M299.0501,-123.2967C297.2016,-113.7699 294.8006,-101.3954 292.8089,-91.1306"/>
<polygon fill="#191970" stroke="#191970" points="296.1947,-90.2052 290.8539,-81.055 289.3229,-91.5386 296.1947,-90.2052"/>
</g>
<!-- Node8 -->
<g id="node9" class="node">
<title>Node8</title>
<g id="a_node9"><a xlink:href="_field_repo_8_h.html" target="_top" xlink:title="amr&#45;wind/core/FieldRepo.H">
<polygon fill="#ffffff" stroke="#000000" points="798,-190.5 798,-209.5 934,-209.5 934,-190.5 798,-190.5"/>
<text text-anchor="middle" x="866" y="-197.5" font-family="Helvetica,sans-Serif" font-size="10.00" fill="#000000">amr&#45;wind/core/FieldRepo.H</text>
</a>
</g>
</g>
<!-- Node7&#45;&gt;Node8 -->
<g id="edge10" class="edge">
<title>Node7&#45;&gt;Node8</title>
<path fill="none" stroke="#191970" d="M437.5139,-247.8246C440.7147,-247.1651 443.8945,-246.55 447,-246 564.8877,-225.1207 703.2197,-212.1414 787.7205,-205.4919"/>
<polygon fill="#191970" stroke="#191970" points="788.0548,-208.9766 797.7536,-204.7123 787.5125,-201.9976 788.0548,-208.9766"/>
</g>
<!-- Node9 -->
<g id="node10" class="node">
<title>Node9</title>
<polygon fill="#ffffff" stroke="#bfbfbf" points="674.5,-62 674.5,-81 715.5,-81 715.5,-62 674.5,-62"/>
<text text-anchor="middle" x="695" y="-69" font-family="Helvetica,sans-Serif" font-size="10.00" fill="#000000">string</text>
</g>
<!-- Node8&#45;&gt;Node9 -->
<g id="edge11" class="edge">
<title>Node8&#45;&gt;Node9</title>
<path fill="none" stroke="#191970" d="M808.3179,-190.4314C767.8313,-182.4843 718.5884,-169.9196 705,-154 690.2703,-136.7434 689.8634,-109.5575 691.7411,-91.1523"/>
<polygon fill="#191970" stroke="#191970" points="695.2114,-91.6069 693.0585,-81.2331 688.2723,-90.6852 695.2114,-91.6069"/>
</g>
<!-- Node10 -->
<g id="node11" class="node">
<title>Node10</title>
<polygon fill="#ffffff" stroke="#bfbfbf" points="356.5,-62 356.5,-81 439.5,-81 439.5,-62 356.5,-62"/>
<text text-anchor="middle" x="398" y="-69" font-family="Helvetica,sans-Serif" font-size="10.00" fill="#000000">unordered_map</text>
</g>
<!-- Node8&#45;&gt;Node10 -->
<g id="edge12" class="edge">
<title>Node8&#45;&gt;Node10</title>
<path fill="none" stroke="#191970" d="M797.7759,-194.2474C713.4852,-186.5335 575.2963,-171.735 527,-154 484.3272,-138.33 441.1051,-106.7841 417.1073,-87.5632"/>
<polygon fill="#191970" stroke="#191970" points="419.1341,-84.6997 409.1725,-81.0917 414.7098,-90.1243 419.1341,-84.6997"/>
</g>
<!-- Node11 -->
<g id="node12" class="node">
<title>Node11</title>
<g id="a_node12"><a xlink:href="_field_desc_types_8_h.html" target="_top" xlink:title="amr&#45;wind/core/FieldDescTypes.H">
<polygon fill="#ffffff" stroke="#000000" points="733.5,-62 733.5,-81 896.5,-81 896.5,-62 733.5,-62"/>
<text text-anchor="middle" x="815" y="-69" font-family="Helvetica,sans-Serif" font-size="10.00" fill="#000000">amr&#45;wind/core/FieldDescTypes.H</text>
</a>
</g>
</g>
<!-- Node8&#45;&gt;Node11 -->
<g id="edge13" class="edge">
<title>Node8&#45;&gt;Node11</title>
<path fill="none" stroke="#191970" d="M864.5952,-190.2063C862.2309,-175.2681 856.7344,-146.0917 847,-123 842.0421,-111.239 834.6022,-99.0659 828.1435,-89.5094"/>
<polygon fill="#191970" stroke="#191970" points="830.9646,-87.4361 822.3649,-81.2476 825.2284,-91.4481 830.9646,-87.4361"/>
</g>
<!-- Node12 -->
<g id="node13" class="node">
<title>Node12</title>
<g id="a_node13"><a xlink:href="_field_utils_8_h.html" target="_top" xlink:title="amr&#45;wind/core/FieldUtils.H">
<polygon fill="#ffffff" stroke="#000000" points="1058.5,-129 1058.5,-148 1191.5,-148 1191.5,-129 1058.5,-129"/>
<text text-anchor="middle" x="1125" y="-136" font-family="Helvetica,sans-Serif" font-size="10.00" fill="#000000">amr&#45;wind/core/FieldUtils.H</text>
</a>
</g>
</g>
<!-- Node8&#45;&gt;Node12 -->
<g id="edge14" class="edge">
<title>Node8&#45;&gt;Node12</title>
<path fill="none" stroke="#191970" d="M906.1846,-190.4581C951.6461,-179.6632 1025.7402,-162.0694 1074.9273,-150.3899"/>
<polygon fill="#191970" stroke="#191970" points="1075.8003,-153.78 1084.7212,-148.0643 1074.1831,-146.9693 1075.8003,-153.78"/>
</g>
<!-- Node13 -->
<g id="node14" class="node">
<title>Node13</title>
<polygon fill="#ffffff" stroke="#bfbfbf" points="1174,-62 1174,-81 1278,-81 1278,-62 1174,-62"/>
<text text-anchor="middle" x="1226" y="-69" font-family="Helvetica,sans-Serif" font-size="10.00" fill="#000000">AMReX_MultiFab.H</text>
</g>
<!-- Node8&#45;&gt;Node13 -->
<g id="edge38" class="edge">
<title>Node8&#45;&gt;Node13</title>
<path fill="none" stroke="#191970" d="M934.0385,-194.581C1026.065,-186.6614 1181.0735,-171.0069 1201,-154 1219.1757,-138.4874 1224.4041,-110.2335 1225.7653,-91.1656"/>
<polygon fill="#191970" stroke="#191970" points="1229.2624,-91.3051 1226.1885,-81.166 1222.2687,-91.009 1229.2624,-91.3051"/>
</g>
<!-- Node15 -->
<g id="node16" class="node">
<title>Node15</title>
<g id="a_node16"><a xlink:href="_field_8_h.html" target="_top" xlink:title="amr&#45;wind/core/Field.H">
<polygon fill="#ffffff" stroke="#000000" points="535.5,-129 535.5,-148 648.5,-148 648.5,-129 535.5,-129"/>
<text text-anchor="middle" x="592" y="-136" font-family="Helvetica,sans-Serif" font-size="10.00" fill="#000000">amr&#45;wind/core/Field.H</text>
</a>
</g>
</g>
<!-- Node8&#45;&gt;Node15 -->
<g id="edge18" class="edge">
<title>Node8&#45;&gt;Node15</title>
<path fill="none" stroke="#191970" d="M823.4881,-190.4581C775.2932,-179.6406 696.681,-161.9959 644.6471,-150.3168"/>
<polygon fill="#191970" stroke="#191970" points="645.1354,-146.8394 634.6116,-148.0643 643.6023,-153.6694 645.1354,-146.8394"/>
</g>
<!-- Node18 -->
<g id="node19" class="node">
<title>Node18</title>
<g id="a_node19"><a xlink:href="_int_field_8_h.html" target="_top" xlink:title="amr&#45;wind/core/IntField.H">
<polygon fill="#ffffff" stroke="#000000" points="714,-129 714,-148 838,-148 838,-129 714,-129"/>
<text text-anchor="middle" x="776" y="-136" font-family="Helvetica,sans-Serif" font-size="10.00" fill="#000000">amr&#45;wind/core/IntField.H</text>
</a>
</g>
</g>
<!-- Node8&#45;&gt;Node18 -->
<g id="edge27" class="edge">
<title>Node8&#45;&gt;Node18</title>
<path fill="none" stroke="#191970" d="M851.9375,-190.3906C837.6714,-180.6421 815.365,-165.3994 798.6128,-153.9521"/>
<polygon fill="#191970" stroke="#191970" points="800.1949,-150.7941 789.9638,-148.0419 796.2455,-156.5736 800.1949,-150.7941"/>
</g>
<!-- Node19 -->
<g id="node20" class="node">
<title>Node19</title>
<polygon fill="#ffffff" stroke="#bfbfbf" points="1430.5,-62 1430.5,-81 1537.5,-81 1537.5,-62 1430.5,-62"/>
<text text-anchor="middle" x="1484" y="-69" font-family="Helvetica,sans-Serif" font-size="10.00" fill="#000000">AMReX_iMultiFab.H</text>
</g>
<!-- Node8&#45;&gt;Node19 -->
<g id="edge39" class="edge">
<title>Node8&#45;&gt;Node19</title>
<path fill="none" stroke="#191970" d="M934.1179,-194.5107C1022.5921,-186.8192 1171.8791,-171.7665 1224,-154 1249.8296,-145.1954 1251.7244,-133.2877 1277,-123 1278.8784,-122.2354 1375.1864,-98.3845 1435.7606,-83.4128"/>
<polygon fill="#191970" stroke="#191970" points="1436.6542,-86.7974 1445.5225,-81.0005 1434.9748,-80.0018 1436.6542,-86.7974"/>
</g>
<!-- Node20 -->
<g id="node21" class="node">
<title>Node20</title>
<g id="a_node21"><a xlink:href="_scratch_field_8_h.html" target="_top" xlink:title="amr&#45;wind/core/ScratchField.H">
<polygon fill="#ffffff" stroke="#000000" points="894,-129 894,-148 1040,-148 1040,-129 894,-129"/>
<text text-anchor="middle" x="967" y="-136" font-family="Helvetica,sans-Serif" font-size="10.00" fill="#000000">amr&#45;wind/core/ScratchField.H</text>
</a>
</g>
</g>
<!-- Node8&#45;&gt;Node20 -->
<g id="edge31" class="edge">
<title>Node8&#45;&gt;Node20</title>
<path fill="none" stroke="#191970" d="M881.7813,-190.3906C898.0875,-180.4616 923.754,-164.833 942.6614,-153.3201"/>
<polygon fill="#191970" stroke="#191970" points="944.6087,-156.2322 951.3296,-148.0419 940.9681,-150.2533 944.6087,-156.2322"/>
</g>
<!-- Node23 -->
<g id="node24" class="node">
<title>Node23</title>
<polygon fill="#ffffff" stroke="#bfbfbf" points="1286,-129 1286,-148 1392,-148 1392,-129 1286,-129"/>
<text text-anchor="middle" x="1339" y="-136" font-family="Helvetica,sans-Serif" font-size="10.00" fill="#000000">AMReX_AmrCore.H</text>
</g>
<!-- Node8&#45;&gt;Node23 -->
<g id="edge37" class="edge">
<title>Node8&#45;&gt;Node23</title>
<path fill="none" stroke="#191970" d="M934.2218,-194.6731C1015.1664,-187.7991 1154.0209,-174.2618 1272,-154 1278.2548,-152.9258 1284.8009,-151.6294 1291.2474,-150.2494"/>
<polygon fill="#191970" stroke="#191970" points="1292.2356,-153.6153 1301.2398,-148.032 1290.719,-146.7816 1292.2356,-153.6153"/>
</g>
<!-- Node12&#45;&gt;Node11 -->
<g id="edge15" class="edge">
<title>Node12&#45;&gt;Node11</title>
<path fill="none" stroke="#191970" d="M1080.9138,-128.9717C1025.2916,-116.9501 929.6525,-96.2797 869.5041,-83.2799"/>
<polygon fill="#191970" stroke="#191970" points="869.9498,-79.7955 859.436,-81.1039 868.471,-86.6375 869.9498,-79.7955"/>
</g>
<!-- Node12&#45;&gt;Node13 -->
<g id="edge16" class="edge">
<title>Node12&#45;&gt;Node13</title>
<path fill="none" stroke="#191970" d="M1139.4708,-128.9005C1156.1209,-117.8554 1183.674,-99.5776 1203.2114,-86.6172"/>
<polygon fill="#191970" stroke="#191970" points="1205.1576,-89.5263 1211.556,-81.0817 1201.288,-83.693 1205.1576,-89.5263"/>
</g>
<!-- Node14 -->
<g id="node15" class="node">
<title>Node14</title>
<polygon fill="#ffffff" stroke="#bfbfbf" points="1296,-62 1296,-81 1412,-81 1412,-62 1296,-62"/>
<text text-anchor="middle" x="1354" y="-69" font-family="Helvetica,sans-Serif" font-size="10.00" fill="#000000">AMReX_Interpolater.H</text>
</g>
<!-- Node12&#45;&gt;Node14 -->
<g id="edge17" class="edge">
<title>Node12&#45;&gt;Node14</title>
<path fill="none" stroke="#191970" d="M1157.8101,-128.9005C1198.2821,-117.0594 1267.1665,-96.9054 1311.6094,-83.9025"/>
<polygon fill="#191970" stroke="#191970" points="1312.6359,-87.249 1321.2507,-81.0817 1310.6703,-80.5306 1312.6359,-87.249"/>
</g>
<!-- Node15&#45;&gt;Node4 -->
<g id="edge24" class="edge">
<title>Node15&#45;&gt;Node4</title>
<path fill="none" stroke="#191970" d="M535.3951,-133.1702C463.7355,-125.8017 336.752,-110.6683 230,-87 225.8836,-86.0873 221.6169,-85.0086 217.3839,-83.8517"/>
<polygon fill="#191970" stroke="#191970" points="218.2324,-80.4539 207.6545,-81.0521 216.2967,-87.181 218.2324,-80.4539"/>
</g>
<!-- Node15&#45;&gt;Node5 -->
<g id="edge23" class="edge">
<title>Node15&#45;&gt;Node5</title>
<path fill="none" stroke="#191970" d="M543.2346,-128.9374C493.8684,-119.0857 415.4078,-102.9581 348,-87 343.4107,-85.9135 338.6328,-84.736 333.8707,-83.5321"/>
<polygon fill="#191970" stroke="#191970" points="334.74,-80.1418 324.1836,-81.0442 332.9987,-86.9218 334.74,-80.1418"/>
</g>
<!-- Node15&#45;&gt;Node9 -->
<g id="edge19" class="edge">
<title>Node15&#45;&gt;Node9</title>
<path fill="none" stroke="#191970" d="M606.7574,-128.9005C623.7372,-117.8554 651.8359,-99.5776 671.7601,-86.6172"/>
<polygon fill="#191970" stroke="#191970" points="673.7959,-89.4684 680.27,-81.0817 669.9789,-83.6005 673.7959,-89.4684"/>
</g>
<!-- Node15&#45;&gt;Node10 -->
<g id="edge21" class="edge">
<title>Node15&#45;&gt;Node10</title>
<path fill="none" stroke="#191970" d="M564.2045,-128.9005C530.3504,-117.2086 473.0293,-97.4122 435.3453,-84.3976"/>
<polygon fill="#191970" stroke="#191970" points="436.3387,-81.0379 425.7439,-81.0817 434.0535,-87.6544 436.3387,-81.0379"/>
</g>
<!-- Node15&#45;&gt;Node11 -->
<g id="edge26" class="edge">
<title>Node15&#45;&gt;Node11</title>
<path fill="none" stroke="#191970" d="M623.9505,-128.9005C663.2792,-117.0843 730.1599,-96.9901 773.447,-83.9845"/>
<polygon fill="#191970" stroke="#191970" points="774.5388,-87.3111 783.1088,-81.0817 772.5246,-80.6072 774.5388,-87.3111"/>
</g>
<!-- Node15&#45;&gt;Node13 -->
<g id="edge22" class="edge">
<title>Node15&#45;&gt;Node13</title>
<path fill="none" stroke="#191970" d="M648.5379,-130.0873C666.5563,-127.5828 686.5917,-124.9811 705,-123 908.8922,-101.0567 962.6642,-120.373 1165,-87 1170.8016,-86.0431 1176.8595,-84.8036 1182.8096,-83.4426"/>
<polygon fill="#191970" stroke="#191970" points="1183.7575,-86.8144 1192.6572,-81.0658 1182.1151,-80.0098 1183.7575,-86.8144"/>
</g>
<!-- Node16 -->
<g id="node17" class="node">
<title>Node16</title>
<polygon fill="#ffffff" stroke="#bfbfbf" points="458,-62 458,-81 510,-81 510,-62 458,-62"/>
<text text-anchor="middle" x="484" y="-69" font-family="Helvetica,sans-Serif" font-size="10.00" fill="#000000">memory</text>
</g>
<!-- Node15&#45;&gt;Node16 -->
<g id="edge20" class="edge">
<title>Node15&#45;&gt;Node16</title>
<path fill="none" stroke="#191970" d="M576.5262,-128.9005C558.642,-117.8057 528.9938,-99.4128 508.0862,-86.4424"/>
<polygon fill="#191970" stroke="#191970" points="509.7878,-83.3792 499.4451,-81.0817 506.0976,-89.3275 509.7878,-83.3792"/>
</g>
<!-- Node17 -->
<g id="node18" class="node">
<title>Node17</title>
<g id="a_node18"><a xlink:href="incflo__enums_8_h.html" target="_top" xlink:title="amr&#45;wind/incflo_enums.H">
<polygon fill="#ffffff" stroke="#000000" points="528,-62 528,-81 656,-81 656,-62 528,-62"/>
<text text-anchor="middle" x="592" y="-69" font-family="Helvetica,sans-Serif" font-size="10.00" fill="#000000">amr&#45;wind/incflo_enums.H</text>
</a>
</g>
</g>
<!-- Node15&#45;&gt;Node17 -->
<g id="edge25" class="edge">
<title>Node15&#45;&gt;Node17</title>
<path fill="none" stroke="#191970" d="M592,-128.9005C592,-119.149 592,-103.7597 592,-91.3695"/>
<polygon fill="#191970" stroke="#191970" points="595.5001,-91.0816 592,-81.0817 588.5001,-91.0817 595.5001,-91.0816"/>
</g>
<!-- Node18&#45;&gt;Node9 -->
<g id="edge28" class="edge">
<title>Node18&#45;&gt;Node9</title>
<path fill="none" stroke="#191970" d="M764.3947,-128.9005C751.4025,-118.1539 730.1327,-100.5603 714.5602,-87.6794"/>
<polygon fill="#191970" stroke="#191970" points="716.5202,-84.7585 706.5838,-81.0817 712.0586,-90.1524 716.5202,-84.7585"/>
</g>
<!-- Node18&#45;&gt;Node11 -->
<g id="edge29" class="edge">
<title>Node18&#45;&gt;Node11</title>
<path fill="none" stroke="#191970" d="M781.5877,-128.9005C787.4957,-118.751 796.9587,-102.4941 804.3082,-89.8679"/>
<polygon fill="#191970" stroke="#191970" points="807.4167,-91.4849 809.4226,-81.0817 801.367,-87.9634 807.4167,-91.4849"/>
</g>
<!-- Node18&#45;&gt;Node19 -->
<g id="edge30" class="edge">
<title>Node18&#45;&gt;Node19</title>
<path fill="none" stroke="#191970" d="M837.2954,-128.9703C852.8306,-126.779 869.5065,-124.6196 885,-123 1122.4649,-98.176 1185.0722,-123.6596 1421,-87 1427.2085,-86.0353 1433.7026,-84.7551 1440.0629,-83.3427"/>
<polygon fill="#191970" stroke="#191970" points="1440.9497,-86.7298 1449.8875,-81.0407 1439.3527,-79.9143 1440.9497,-86.7298"/>
</g>
<!-- Node20&#45;&gt;Node9 -->
<g id="edge32" class="edge">
<title>Node20&#45;&gt;Node9</title>
<path fill="none" stroke="#191970" d="M898.635,-128.9577C849.4133,-120.8901 781.9312,-107.3495 725,-87 723.5854,-86.4944 722.1534,-85.9347 720.7217,-85.3368"/>
<polygon fill="#191970" stroke="#191970" points="722.0051,-82.0731 711.4642,-81.0054 719.0386,-88.4135 722.0051,-82.0731"/>
</g>
<!-- Node20&#45;&gt;Node11 -->
<g id="edge33" class="edge">
<title>Node20&#45;&gt;Node11</title>
<path fill="none" stroke="#191970" d="M945.2221,-128.9005C919.2616,-117.4574 875.6887,-98.2509 846.1654,-85.2374"/>
<polygon fill="#191970" stroke="#191970" points="847.2997,-81.9125 836.7375,-81.0817 844.4763,-88.3178 847.2997,-81.9125"/>
</g>
<!-- Node20&#45;&gt;Node13 -->
<g id="edge34" class="edge">
<title>Node20&#45;&gt;Node13</title>
<path fill="none" stroke="#191970" d="M1003.8333,-128.9717C1049.8247,-117.0743 1128.5623,-96.7059 1178.8959,-83.6852"/>
<polygon fill="#191970" stroke="#191970" points="1180.0697,-86.9969 1188.8744,-81.1039 1178.3165,-80.22 1180.0697,-86.9969"/>
</g>
<!-- Node21 -->
<g id="node22" class="node">
<title>Node21</title>
<polygon fill="#ffffff" stroke="#bfbfbf" points="914.5,-62 914.5,-81 1009.5,-81 1009.5,-62 914.5,-62"/>
<text text-anchor="middle" x="962" y="-69" font-family="Helvetica,sans-Serif" font-size="10.00" fill="#000000">AMReX_Vector.H</text>
</g>
<!-- Node20&#45;&gt;Node21 -->
<g id="edge35" class="edge">
<title>Node20&#45;&gt;Node21</title>
<path fill="none" stroke="#191970" d="M966.2836,-128.9005C965.5559,-119.149 964.4074,-103.7597 963.4828,-91.3695"/>
<polygon fill="#191970" stroke="#191970" points="966.9496,-90.7934 962.715,-81.0817 959.969,-91.3144 966.9496,-90.7934"/>
</g>
<!-- Node22 -->
<g id="node23" class="node">
<title>Node22</title>
<polygon fill="#ffffff" stroke="#bfbfbf" points="1028,-62 1028,-81 1156,-81 1156,-62 1028,-62"/>
<text text-anchor="middle" x="1092" y="-69" font-family="Helvetica,sans-Serif" font-size="10.00" fill="#000000">AMReX_PhysBCFunct.H</text>
</g>
<!-- Node20&#45;&gt;Node22 -->
<g id="edge36" class="edge">
<title>Node20&#45;&gt;Node22</title>
<path fill="none" stroke="#191970" d="M984.9095,-128.9005C1005.8873,-117.6564 1040.8496,-98.9166 1065.0935,-85.9219"/>
<polygon fill="#191970" stroke="#191970" points="1066.9635,-88.8907 1074.1238,-81.0817 1063.6565,-82.7211 1066.9635,-88.8907"/>
</g>
</g>
</svg>
