<?xml version="1.0" encoding="UTF-8" standalone="no"?>
<!DOCTYPE svg PUBLIC "-//W3C//DTD SVG 1.1//EN"
 "http://www.w3.org/Graphics/SVG/1.1/DTD/svg11.dtd">
<!-- Generated by graphviz version 2.40.1 (20161225.0304)
 -->
<!-- Title: incflo_godunov_predict.cpp Pages: 1 -->
<svg width="1342pt" height="341pt"
 viewBox="0.00 0.00 1341.50 341.00" xmlns="http://www.w3.org/2000/svg" xmlns:xlink="http://www.w3.org/1999/xlink">
<g id="graph0" class="graph" transform="scale(1 1) rotate(0) translate(4 337)">
<title>incflo_godunov_predict.cpp</title>
<polygon fill="#ffffff" stroke="transparent" points="-4,4 -4,-337 1337.5,-337 1337.5,4 -4,4"/>
<!-- Node0 -->
<g id="node1" class="node">
<title>Node0</title>
<polygon fill="#bfbfbf" stroke="#000000" points="265.5,-313.5 265.5,-332.5 400.5,-332.5 400.5,-313.5 265.5,-313.5"/>
<text text-anchor="middle" x="333" y="-320.5" font-family="Helvetica,sans-Serif" font-size="10.00" fill="#000000">incflo_godunov_predict.cpp</text>
</g>
<!-- Node1 -->
<g id="node2" class="node">
<title>Node1</title>
<g id="a_node2"><a xlink:href="incflo__godunov__plm_8_h.html" target="_top" xlink:title="amr&#45;wind/convection\l/incflo_godunov_plm.H">
<polygon fill="#ffffff" stroke="#000000" points="95,-123.5 95,-153.5 211,-153.5 211,-123.5 95,-123.5"/>
<text text-anchor="start" x="103" y="-141.5" font-family="Helvetica,sans-Serif" font-size="10.00" fill="#000000">amr&#45;wind/convection</text>
<text text-anchor="middle" x="153" y="-130.5" font-family="Helvetica,sans-Serif" font-size="10.00" fill="#000000">/incflo_godunov_plm.H</text>
</a>
</g>
</g>
<!-- Node0&#45;&gt;Node1 -->
<g id="edge1" class="edge">
<title>Node0&#45;&gt;Node1</title>
<path fill="none" stroke="#191970" d="M323.5759,-313.3402C295.9174,-284.9903 214.4393,-201.4753 174.9508,-160.9996"/>
<polygon fill="#191970" stroke="#191970" points="177.3532,-158.45 167.8647,-153.7363 172.3427,-163.3383 177.3532,-158.45"/>
</g>
<!-- Node5 -->
<g id="node6" class="node">
<title>Node5</title>
<polygon fill="#ffffff" stroke="#bfbfbf" points="239.5,-62 239.5,-81 338.5,-81 338.5,-62 239.5,-62"/>
<text text-anchor="middle" x="289" y="-69" font-family="Helvetica,sans-Serif" font-size="10.00" fill="#000000">AMReX_BCRec.H</text>
</g>
<!-- Node0&#45;&gt;Node5 -->
<g id="edge9" class="edge">
<title>Node0&#45;&gt;Node5</title>
<path fill="none" stroke="#191970" d="M337.9087,-313.1832C352.286,-282.9535 391.2531,-189.3136 358,-123 349.9752,-106.9968 334.3569,-94.6956 320.0066,-86.135"/>
<polygon fill="#191970" stroke="#191970" points="321.2933,-82.846 310.8521,-81.0484 317.8934,-88.9649 321.2933,-82.846"/>
</g>
<!-- Node6 -->
<g id="node7" class="node">
<title>Node6</title>
<g id="a_node7"><a xlink:href="incflo__godunov__ppm_8_h.html" target="_top" xlink:title="amr&#45;wind/convection\l/incflo_godunov_ppm.H">
<polygon fill="#ffffff" stroke="#000000" points="229.5,-123.5 229.5,-153.5 348.5,-153.5 348.5,-123.5 229.5,-123.5"/>
<text text-anchor="start" x="237.5" y="-141.5" font-family="Helvetica,sans-Serif" font-size="10.00" fill="#000000">amr&#45;wind/convection</text>
<text text-anchor="middle" x="289" y="-130.5" font-family="Helvetica,sans-Serif" font-size="10.00" fill="#000000">/incflo_godunov_ppm.H</text>
</a>
</g>
</g>
<!-- Node0&#45;&gt;Node6 -->
<g id="edge6" class="edge">
<title>Node0&#45;&gt;Node6</title>
<path fill="none" stroke="#191970" d="M330.6963,-313.3402C324.0759,-285.5797 304.841,-204.924 294.9809,-163.579"/>
<polygon fill="#191970" stroke="#191970" points="298.358,-162.6516 292.6336,-153.7363 291.5489,-164.2755 298.358,-162.6516"/>
</g>
<!-- Node7 -->
<g id="node8" class="node">
<title>Node7</title>
<g id="a_node8"><a xlink:href="_godunov_8_h.html" target="_top" xlink:title="amr&#45;wind/convection\l/Godunov.H">
<polygon fill="#ffffff" stroke="#000000" points="563.5,-246.5 563.5,-276.5 670.5,-276.5 670.5,-246.5 563.5,-246.5"/>
<text text-anchor="start" x="571.5" y="-264.5" font-family="Helvetica,sans-Serif" font-size="10.00" fill="#000000">amr&#45;wind/convection</text>
<text text-anchor="middle" x="617" y="-253.5" font-family="Helvetica,sans-Serif" font-size="10.00" fill="#000000">/Godunov.H</text>
</a>
</g>
</g>
<!-- Node0&#45;&gt;Node7 -->
<g id="edge10" class="edge">
<title>Node0&#45;&gt;Node7</title>
<path fill="none" stroke="#191970" d="M377.0634,-313.4581C424.2671,-303.2362 499.6225,-286.918 553.2833,-275.2978"/>
<polygon fill="#191970" stroke="#191970" points="554.3421,-278.6497 563.3748,-273.1125 552.8606,-271.8083 554.3421,-278.6497"/>
</g>
<!-- Node2 -->
<g id="node3" class="node">
<title>Node2</title>
<g id="a_node3"><a xlink:href="incflo__convection___k_8_h.html" target="_top" xlink:title="amr&#45;wind/convection\l/incflo_convection_K.H">
<polygon fill="#ffffff" stroke="#000000" points="0,-56.5 0,-86.5 118,-86.5 118,-56.5 0,-56.5"/>
<text text-anchor="start" x="8" y="-74.5" font-family="Helvetica,sans-Serif" font-size="10.00" fill="#000000">amr&#45;wind/convection</text>
<text text-anchor="middle" x="59" y="-63.5" font-family="Helvetica,sans-Serif" font-size="10.00" fill="#000000">/incflo_convection_K.H</text>
</a>
</g>
</g>
<!-- Node1&#45;&gt;Node2 -->
<g id="edge2" class="edge">
<title>Node1&#45;&gt;Node2</title>
<path fill="none" stroke="#191970" d="M131.6699,-123.2967C118.9303,-114.2163 102.5611,-102.5488 88.5848,-92.587"/>
<polygon fill="#191970" stroke="#191970" points="90.4203,-89.5973 80.2456,-86.6432 86.3574,-95.2975 90.4203,-89.5973"/>
</g>
<!-- Node4 -->
<g id="node5" class="node">
<title>Node4</title>
<polygon fill="#ffffff" stroke="#bfbfbf" points="136.5,-62 136.5,-81 221.5,-81 221.5,-62 136.5,-62"/>
<text text-anchor="middle" x="179" y="-69" font-family="Helvetica,sans-Serif" font-size="10.00" fill="#000000">AMReX_Gpu.H</text>
</g>
<!-- Node1&#45;&gt;Node4 -->
<g id="edge4" class="edge">
<title>Node1&#45;&gt;Node4</title>
<path fill="none" stroke="#191970" d="M158.8998,-123.2967C162.6754,-113.5672 167.6037,-100.8675 171.6353,-90.4784"/>
<polygon fill="#191970" stroke="#191970" points="174.9372,-91.6439 175.2921,-81.055 168.4114,-89.1114 174.9372,-91.6439"/>
</g>
<!-- Node1&#45;&gt;Node5 -->
<g id="edge5" class="edge">
<title>Node1&#45;&gt;Node5</title>
<path fill="none" stroke="#191970" d="M183.5211,-123.4639C206.5457,-112.1209 237.9072,-96.6707 260.4394,-85.5703"/>
<polygon fill="#191970" stroke="#191970" points="262.0817,-88.6629 269.5055,-81.1039 258.9882,-82.3836 262.0817,-88.6629"/>
</g>
<!-- Node3 -->
<g id="node4" class="node">
<title>Node3</title>
<polygon fill="#ffffff" stroke="#bfbfbf" points="2.5,-.5 2.5,-19.5 115.5,-19.5 115.5,-.5 2.5,-.5"/>
<text text-anchor="middle" x="59" y="-7.5" font-family="Helvetica,sans-Serif" font-size="10.00" fill="#000000">AMReX_FArrayBox.H</text>
</g>
<!-- Node2&#45;&gt;Node3 -->
<g id="edge3" class="edge">
<title>Node2&#45;&gt;Node3</title>
<path fill="none" stroke="#191970" d="M59,-56.2977C59,-48.3834 59,-38.6043 59,-30.0759"/>
<polygon fill="#191970" stroke="#191970" points="62.5001,-29.8469 59,-19.8469 55.5001,-29.847 62.5001,-29.8469"/>
</g>
<!-- Node6&#45;&gt;Node4 -->
<g id="edge7" class="edge">
<title>Node6&#45;&gt;Node4</title>
<path fill="none" stroke="#191970" d="M264.3139,-123.4639C246.1898,-112.4247 221.6791,-97.4954 203.58,-86.4715"/>
<polygon fill="#191970" stroke="#191970" points="205.1288,-83.3167 194.7676,-81.1039 201.4874,-89.2951 205.1288,-83.3167"/>
</g>
<!-- Node6&#45;&gt;Node5 -->
<g id="edge8" class="edge">
<title>Node6&#45;&gt;Node5</title>
<path fill="none" stroke="#191970" d="M289,-123.2967C289,-113.7699 289,-101.3954 289,-91.1306"/>
<polygon fill="#191970" stroke="#191970" points="292.5001,-91.0549 289,-81.055 285.5001,-91.055 292.5001,-91.0549"/>
</g>
<!-- Node8 -->
<g id="node9" class="node">
<title>Node8</title>
<g id="a_node9"><a xlink:href="_field_repo_8_h.html" target="_top" xlink:title="amr&#45;wind/core/FieldRepo.H">
<polygon fill="#ffffff" stroke="#000000" points="708,-190.5 708,-209.5 844,-209.5 844,-190.5 708,-190.5"/>
<text text-anchor="middle" x="776" y="-197.5" font-family="Helvetica,sans-Serif" font-size="10.00" fill="#000000">amr&#45;wind/core/FieldRepo.H</text>
</a>
</g>
</g>
<!-- Node7&#45;&gt;Node8 -->
<g id="edge11" class="edge">
<title>Node7&#45;&gt;Node8</title>
<path fill="none" stroke="#191970" d="M655.8958,-246.4554C682.1926,-236.284 716.5917,-222.9787 741.8332,-213.2155"/>
<polygon fill="#191970" stroke="#191970" points="743.2966,-216.4022 751.3606,-209.5303 740.7714,-209.8735 743.2966,-216.4022"/>
</g>
<!-- Node9 -->
<g id="node10" class="node">
<title>Node9</title>
<polygon fill="#ffffff" stroke="#bfbfbf" points="1137.5,-62 1137.5,-81 1178.5,-81 1178.5,-62 1137.5,-62"/>
<text text-anchor="middle" x="1158" y="-69" font-family="Helvetica,sans-Serif" font-size="10.00" fill="#000000">string</text>
</g>
<!-- Node8&#45;&gt;Node9 -->
<g id="edge12" class="edge">
<title>Node8&#45;&gt;Node9</title>
<path fill="none" stroke="#191970" d="M844.0293,-198.3984C969.2685,-194.7425 1226.0467,-183.6776 1253,-154 1278.7494,-125.6479 1224.6656,-97.4333 1188.0242,-82.4671"/>
<polygon fill="#191970" stroke="#191970" points="1189.2751,-79.1981 1178.6885,-78.7816 1186.7047,-85.7091 1189.2751,-79.1981"/>
</g>
<!-- Node10 -->
<g id="node11" class="node">
<title>Node10</title>
<polygon fill="#ffffff" stroke="#bfbfbf" points="573.5,-62 573.5,-81 656.5,-81 656.5,-62 573.5,-62"/>
<text text-anchor="middle" x="615" y="-69" font-family="Helvetica,sans-Serif" font-size="10.00" fill="#000000">unordered_map</text>
</g>
<!-- Node8&#45;&gt;Node10 -->
<g id="edge13" class="edge">
<title>Node8&#45;&gt;Node10</title>
<path fill="none" stroke="#191970" d="M722.6494,-190.4857C683.8095,-182.4074 635.8527,-169.6458 623,-154 608.7034,-136.5965 608.898,-109.6354 611.2083,-91.3089"/>
<polygon fill="#191970" stroke="#191970" points="614.7056,-91.6003 612.8095,-81.1765 607.7914,-90.5076 614.7056,-91.6003"/>
</g>
<!-- Node11 -->
<g id="node12" class="node">
<title>Node11</title>
<g id="a_node12"><a xlink:href="_field_desc_types_8_h.html" target="_top" xlink:title="amr&#45;wind/core/FieldDescTypes.H">
<polygon fill="#ffffff" stroke="#000000" points="797.5,-62 797.5,-81 960.5,-81 960.5,-62 797.5,-62"/>
<text text-anchor="middle" x="879" y="-69" font-family="Helvetica,sans-Serif" font-size="10.00" fill="#000000">amr&#45;wind/core/FieldDescTypes.H</text>
</a>
</g>
</g>
<!-- Node8&#45;&gt;Node11 -->
<g id="edge14" class="edge">
<title>Node8&#45;&gt;Node11</title>
<path fill="none" stroke="#191970" d="M776.2799,-190.0095C777.1909,-174.2886 780.9297,-143.4628 796,-123 808.2185,-106.4095 827.535,-93.9665 844.4598,-85.4711"/>
<polygon fill="#191970" stroke="#191970" points="846.021,-88.6044 853.5561,-81.1563 843.021,-82.2798 846.021,-88.6044"/>
</g>
<!-- Node12 -->
<g id="node13" class="node">
<title>Node12</title>
<g id="a_node13"><a xlink:href="_field_utils_8_h.html" target="_top" xlink:title="amr&#45;wind/core/FieldUtils.H">
<polygon fill="#ffffff" stroke="#000000" points="804.5,-129 804.5,-148 937.5,-148 937.5,-129 804.5,-129"/>
<text text-anchor="middle" x="871" y="-136" font-family="Helvetica,sans-Serif" font-size="10.00" fill="#000000">amr&#45;wind/core/FieldUtils.H</text>
</a>
</g>
</g>
<!-- Node8&#45;&gt;Node12 -->
<g id="edge15" class="edge">
<title>Node8&#45;&gt;Node12</title>
<path fill="none" stroke="#191970" d="M790.8438,-190.3906C806.0418,-180.5519 829.8848,-165.1167 847.6206,-153.6351"/>
<polygon fill="#191970" stroke="#191970" points="849.768,-156.4144 856.2605,-148.0419 845.9639,-150.5382 849.768,-156.4144"/>
</g>
<!-- Node13 -->
<g id="node14" class="node">
<title>Node13</title>
<polygon fill="#ffffff" stroke="#bfbfbf" points="675,-62 675,-81 779,-81 779,-62 675,-62"/>
<text text-anchor="middle" x="727" y="-69" font-family="Helvetica,sans-Serif" font-size="10.00" fill="#000000">AMReX_MultiFab.H</text>
</g>
<!-- Node8&#45;&gt;Node13 -->
<g id="edge37" class="edge">
<title>Node8&#45;&gt;Node13</title>
<path fill="none" stroke="#191970" d="M726.0685,-190.4252C689.4558,-182.2713 644.2512,-169.4382 633,-154 624.8853,-142.8654 625.978,-134.854 633,-123 643.6605,-105.0038 663.0822,-92.8823 681.5159,-84.9461"/>
<polygon fill="#191970" stroke="#191970" points="683.0153,-88.1165 691.0138,-81.1686 680.4283,-81.6121 683.0153,-88.1165"/>
</g>
<!-- Node15 -->
<g id="node16" class="node">
<title>Node15</title>
<g id="a_node16"><a xlink:href="_field_8_h.html" target="_top" xlink:title="amr&#45;wind/core/Field.H">
<polygon fill="#ffffff" stroke="#000000" points="434.5,-129 434.5,-148 547.5,-148 547.5,-129 434.5,-129"/>
<text text-anchor="middle" x="491" y="-136" font-family="Helvetica,sans-Serif" font-size="10.00" fill="#000000">amr&#45;wind/core/Field.H</text>
</a>
</g>
</g>
<!-- Node8&#45;&gt;Node15 -->
<g id="edge19" class="edge">
<title>Node8&#45;&gt;Node15</title>
<path fill="none" stroke="#191970" d="M731.3151,-190.4384C688.0159,-181.163 620.4954,-166.6719 562,-154 556.3125,-152.7679 550.3696,-151.4766 544.4479,-150.1875"/>
<polygon fill="#191970" stroke="#191970" points="545.0671,-146.7403 534.5512,-148.0308 543.5766,-153.5798 545.0671,-146.7403"/>
</g>
<!-- Node18 -->
<g id="node19" class="node">
<title>Node18</title>
<g id="a_node19"><a xlink:href="_int_field_8_h.html" target="_top" xlink:title="amr&#45;wind/core/IntField.H">
<polygon fill="#ffffff" stroke="#000000" points="1120,-129 1120,-148 1244,-148 1244,-129 1120,-129"/>
<text text-anchor="middle" x="1182" y="-136" font-family="Helvetica,sans-Serif" font-size="10.00" fill="#000000">amr&#45;wind/core/IntField.H</text>
</a>
</g>
</g>
<!-- Node8&#45;&gt;Node18 -->
<g id="edge28" class="edge">
<title>Node8&#45;&gt;Node18</title>
<path fill="none" stroke="#191970" d="M844.2559,-192.2195C912.1248,-184.1091 1019.0953,-170.3158 1111,-154 1117.3587,-152.8711 1124.0132,-151.574 1130.591,-150.221"/>
<polygon fill="#191970" stroke="#191970" points="1131.7485,-153.554 1140.8107,-148.0651 1130.3036,-146.7047 1131.7485,-153.554"/>
</g>
<!-- Node19 -->
<g id="node20" class="node">
<title>Node19</title>
<polygon fill="#ffffff" stroke="#bfbfbf" points="1226.5,-62 1226.5,-81 1333.5,-81 1333.5,-62 1226.5,-62"/>
<text text-anchor="middle" x="1280" y="-69" font-family="Helvetica,sans-Serif" font-size="10.00" fill="#000000">AMReX_iMultiFab.H</text>
</g>
<!-- Node8&#45;&gt;Node19 -->
<g id="edge38" class="edge">
<title>Node8&#45;&gt;Node19</title>
<path fill="none" stroke="#191970" d="M844.118,-198.323C972.4912,-194.4957 1240.0915,-183.0891 1270,-154 1286.5135,-137.9389 1286.3183,-109.8206 1283.8329,-90.9326"/>
<polygon fill="#191970" stroke="#191970" points="1287.283,-90.3426 1282.2139,-81.0391 1280.3749,-91.4731 1287.283,-90.3426"/>
</g>
<!-- Node20 -->
<g id="node21" class="node">
<title>Node20</title>
<g id="a_node21"><a xlink:href="_scratch_field_8_h.html" target="_top" xlink:title="amr&#45;wind/core/ScratchField.H">
<polygon fill="#ffffff" stroke="#000000" points="956,-129 956,-148 1102,-148 1102,-129 956,-129"/>
<text text-anchor="middle" x="1029" y="-136" font-family="Helvetica,sans-Serif" font-size="10.00" fill="#000000">amr&#45;wind/core/ScratchField.H</text>
</a>
</g>
</g>
<!-- Node8&#45;&gt;Node20 -->
<g id="edge32" class="edge">
<title>Node8&#45;&gt;Node20</title>
<path fill="none" stroke="#191970" d="M815.2537,-190.4581C859.5694,-179.6857 931.7376,-162.1428 979.786,-150.4631"/>
<polygon fill="#191970" stroke="#191970" points="980.764,-153.8274 989.6543,-148.0643 979.1105,-147.0254 980.764,-153.8274"/>
</g>
<!-- Node21 -->
<g id="node22" class="node">
<title>Node21</title>
<polygon fill="#ffffff" stroke="#bfbfbf" points="642,-129 642,-148 748,-148 748,-129 642,-129"/>
<text text-anchor="middle" x="695" y="-136" font-family="Helvetica,sans-Serif" font-size="10.00" fill="#000000">AMReX_AmrCore.H</text>
</g>
<!-- Node8&#45;&gt;Node21 -->
<g id="edge36" class="edge">
<title>Node8&#45;&gt;Node21</title>
<path fill="none" stroke="#191970" d="M763.3438,-190.3906C750.6232,-180.7324 730.7996,-165.6812 715.7716,-154.271"/>
<polygon fill="#191970" stroke="#191970" points="717.6484,-151.3015 707.5674,-148.0419 713.4154,-156.8766 717.6484,-151.3015"/>
</g>
<!-- Node12&#45;&gt;Node11 -->
<g id="edge16" class="edge">
<title>Node12&#45;&gt;Node11</title>
<path fill="none" stroke="#191970" d="M872.1462,-128.9005C873.3106,-119.149 875.1481,-103.7597 876.6275,-91.3695"/>
<polygon fill="#191970" stroke="#191970" points="880.1455,-91.4261 877.8559,-81.0817 873.1949,-90.5961 880.1455,-91.4261"/>
</g>
<!-- Node12&#45;&gt;Node13 -->
<g id="edge17" class="edge">
<title>Node12&#45;&gt;Node13</title>
<path fill="none" stroke="#191970" d="M850.3683,-128.9005C825.8811,-117.5072 784.8532,-98.4178 756.8907,-85.4075"/>
<polygon fill="#191970" stroke="#191970" points="758.1366,-82.1269 747.5934,-81.0817 755.1836,-88.4736 758.1366,-82.1269"/>
</g>
<!-- Node14 -->
<g id="node15" class="node">
<title>Node14</title>
<polygon fill="#ffffff" stroke="#bfbfbf" points="979,-62 979,-81 1095,-81 1095,-62 979,-62"/>
<text text-anchor="middle" x="1037" y="-69" font-family="Helvetica,sans-Serif" font-size="10.00" fill="#000000">AMReX_Interpolater.H</text>
</g>
<!-- Node12&#45;&gt;Node14 -->
<g id="edge18" class="edge">
<title>Node12&#45;&gt;Node14</title>
<path fill="none" stroke="#191970" d="M894.7838,-128.9005C923.3819,-117.3579 971.5506,-97.9163 1003.8017,-84.8993"/>
<polygon fill="#191970" stroke="#191970" points="1005.2972,-88.0701 1013.2604,-81.0817 1002.6772,-81.5789 1005.2972,-88.0701"/>
</g>
<!-- Node15&#45;&gt;Node4 -->
<g id="edge25" class="edge">
<title>Node15&#45;&gt;Node4</title>
<path fill="none" stroke="#191970" d="M434.3794,-129.0176C381.267,-119.7245 299.788,-104.4436 230,-87 226.1704,-86.0428 222.201,-84.9742 218.2448,-83.858"/>
<polygon fill="#191970" stroke="#191970" points="219.105,-80.4631 208.5248,-81.0214 217.1439,-87.1828 219.105,-80.4631"/>
</g>
<!-- Node15&#45;&gt;Node5 -->
<g id="edge24" class="edge">
<title>Node15&#45;&gt;Node5</title>
<path fill="none" stroke="#191970" d="M462.0583,-128.9005C426.6582,-117.1589 366.6149,-97.2436 327.3855,-84.2318"/>
<polygon fill="#191970" stroke="#191970" points="328.4814,-80.9079 317.888,-81.0817 326.2776,-87.5519 328.4814,-80.9079"/>
</g>
<!-- Node15&#45;&gt;Node9 -->
<g id="edge20" class="edge">
<title>Node15&#45;&gt;Node9</title>
<path fill="none" stroke="#191970" d="M547.6184,-131.8941C573.6118,-128.9708 604.8498,-125.6115 633,-123 842.0463,-103.6069 897.3697,-124.153 1104,-87 1111.8094,-85.5958 1120.1086,-83.5188 1127.7977,-81.3385"/>
<polygon fill="#191970" stroke="#191970" points="1128.8767,-84.6691 1137.4618,-78.4604 1126.8788,-77.9603 1128.8767,-84.6691"/>
</g>
<!-- Node15&#45;&gt;Node10 -->
<g id="edge22" class="edge">
<title>Node15&#45;&gt;Node10</title>
<path fill="none" stroke="#191970" d="M508.7662,-128.9005C529.5762,-117.6564 564.2588,-98.9166 588.3087,-85.9219"/>
<polygon fill="#191970" stroke="#191970" points="590.1327,-88.9147 597.2668,-81.0817 586.8051,-82.7561 590.1327,-88.9147"/>
</g>
<!-- Node15&#45;&gt;Node11 -->
<g id="edge27" class="edge">
<title>Node15&#45;&gt;Node11</title>
<path fill="none" stroke="#191970" d="M546.1789,-128.9717C616.6155,-116.8087 738.3231,-95.7921 813.4206,-82.8243"/>
<polygon fill="#191970" stroke="#191970" points="814.4391,-86.2003 823.6977,-81.0496 813.2479,-79.3024 814.4391,-86.2003"/>
</g>
<!-- Node15&#45;&gt;Node13 -->
<g id="edge23" class="edge">
<title>Node15&#45;&gt;Node13</title>
<path fill="none" stroke="#191970" d="M524.5624,-128.9717C566.2946,-117.124 637.6164,-96.8758 683.503,-83.8487"/>
<polygon fill="#191970" stroke="#191970" points="684.5073,-87.202 693.1713,-81.1039 682.5955,-80.4681 684.5073,-87.202"/>
</g>
<!-- Node16 -->
<g id="node17" class="node">
<title>Node16</title>
<polygon fill="#ffffff" stroke="#bfbfbf" points="357,-62 357,-81 409,-81 409,-62 357,-62"/>
<text text-anchor="middle" x="383" y="-69" font-family="Helvetica,sans-Serif" font-size="10.00" fill="#000000">memory</text>
</g>
<!-- Node15&#45;&gt;Node16 -->
<g id="edge21" class="edge">
<title>Node15&#45;&gt;Node16</title>
<path fill="none" stroke="#191970" d="M475.5262,-128.9005C457.642,-117.8057 427.9938,-99.4128 407.0862,-86.4424"/>
<polygon fill="#191970" stroke="#191970" points="408.7878,-83.3792 398.4451,-81.0817 405.0976,-89.3275 408.7878,-83.3792"/>
</g>
<!-- Node17 -->
<g id="node18" class="node">
<title>Node17</title>
<g id="a_node18"><a xlink:href="incflo__enums_8_h.html" target="_top" xlink:title="amr&#45;wind/incflo_enums.H">
<polygon fill="#ffffff" stroke="#000000" points="427,-62 427,-81 555,-81 555,-62 427,-62"/>
<text text-anchor="middle" x="491" y="-69" font-family="Helvetica,sans-Serif" font-size="10.00" fill="#000000">amr&#45;wind/incflo_enums.H</text>
</a>
</g>
</g>
<!-- Node15&#45;&gt;Node17 -->
<g id="edge26" class="edge">
<title>Node15&#45;&gt;Node17</title>
<path fill="none" stroke="#191970" d="M491,-128.9005C491,-119.149 491,-103.7597 491,-91.3695"/>
<polygon fill="#191970" stroke="#191970" points="494.5001,-91.0816 491,-81.0817 487.5001,-91.0817 494.5001,-91.0816"/>
</g>
<!-- Node18&#45;&gt;Node9 -->
<g id="edge29" class="edge">
<title>Node18&#45;&gt;Node9</title>
<path fill="none" stroke="#191970" d="M1178.5614,-128.9005C1174.997,-118.95 1169.3299,-103.1292 1164.8471,-90.6147"/>
<polygon fill="#191970" stroke="#191970" points="1168.0995,-89.3156 1161.4322,-81.0817 1161.5096,-91.6762 1168.0995,-89.3156"/>
</g>
<!-- Node18&#45;&gt;Node11 -->
<g id="edge30" class="edge">
<title>Node18&#45;&gt;Node11</title>
<path fill="none" stroke="#191970" d="M1138.9093,-128.9717C1084.543,-116.9501 991.0636,-96.2797 932.2733,-83.2799"/>
<polygon fill="#191970" stroke="#191970" points="932.9525,-79.8456 922.4327,-81.1039 931.4411,-86.6805 932.9525,-79.8456"/>
</g>
<!-- Node18&#45;&gt;Node19 -->
<g id="edge31" class="edge">
<title>Node18&#45;&gt;Node19</title>
<path fill="none" stroke="#191970" d="M1196.041,-128.9005C1212.1238,-117.9052 1238.6906,-99.7422 1257.6316,-86.7927"/>
<polygon fill="#191970" stroke="#191970" points="1259.7052,-89.6148 1265.985,-81.0817 1255.7545,-83.8362 1259.7052,-89.6148"/>
</g>
<!-- Node20&#45;&gt;Node9 -->
<g id="edge33" class="edge">
<title>Node20&#45;&gt;Node9</title>
<path fill="none" stroke="#191970" d="M1047.4826,-128.9005C1069.2275,-117.6067 1105.5323,-98.7506 1130.564,-85.7497"/>
<polygon fill="#191970" stroke="#191970" points="1132.2905,-88.797 1139.5517,-81.0817 1129.0641,-82.5849 1132.2905,-88.797"/>
</g>
<!-- Node20&#45;&gt;Node11 -->
<g id="edge34" class="edge">
<title>Node20&#45;&gt;Node11</title>
<path fill="none" stroke="#191970" d="M1007.5087,-128.9005C981.8897,-117.4574 938.8901,-98.2509 909.7553,-85.2374"/>
<polygon fill="#191970" stroke="#191970" points="911.0095,-81.9643 900.4515,-81.0817 908.1546,-88.3557 911.0095,-81.9643"/>
</g>
<!-- Node20&#45;&gt;Node13 -->
<g id="edge35" class="edge">
<title>Node20&#45;&gt;Node13</title>
<path fill="none" stroke="#191970" d="M982.4392,-128.9922C934.0101,-118.9898 856.0396,-102.5681 789,-87 784.2514,-85.8973 779.3065,-84.7165 774.3725,-83.5169"/>
<polygon fill="#191970" stroke="#191970" points="774.8731,-80.0358 764.3266,-81.0472 773.2019,-86.8334 774.8731,-80.0358"/>
</g>
</g>
</svg>
