<?xml version="1.0" encoding="UTF-8" standalone="no"?>
<!DOCTYPE svg PUBLIC "-//W3C//DTD SVG 1.1//EN"
 "http://www.w3.org/Graphics/SVG/1.1/DTD/svg11.dtd">
<!-- Generated by graphviz version 2.40.1 (20161225.0304)
 -->
<!-- Title: incflo_tagging.cpp Pages: 1 -->
<svg width="2199pt" height="352pt"
 viewBox="0.00 0.00 2198.50 352.00" xmlns="http://www.w3.org/2000/svg" xmlns:xlink="http://www.w3.org/1999/xlink">
<g id="graph0" class="graph" transform="scale(1 1) rotate(0) translate(4 348)">
<title>incflo_tagging.cpp</title>
<polygon fill="#ffffff" stroke="transparent" points="-4,4 -4,-348 2194.5,-348 2194.5,4 -4,4"/>
<!-- Node0 -->
<g id="node1" class="node">
<title>Node0</title>
<polygon fill="#bfbfbf" stroke="#000000" points="1618.5,-324.5 1618.5,-343.5 1713.5,-343.5 1713.5,-324.5 1618.5,-324.5"/>
<text text-anchor="middle" x="1666" y="-331.5" font-family="Helvetica,sans-Serif" font-size="10.00" fill="#000000">incflo_tagging.cpp</text>
</g>
<!-- Node1 -->
<g id="node2" class="node">
<title>Node1</title>
<g id="a_node2"><a xlink:href="incflo_8_h.html" target="_top" xlink:title="amr&#45;wind/incflo.H">
<polygon fill="#ffffff" stroke="#000000" points="1305.5,-263 1305.5,-282 1398.5,-282 1398.5,-263 1305.5,-263"/>
<text text-anchor="middle" x="1352" y="-270" font-family="Helvetica,sans-Serif" font-size="10.00" fill="#000000">amr&#45;wind/incflo.H</text>
</a>
</g>
</g>
<!-- Node0&#45;&gt;Node1 -->
<g id="edge1" class="edge">
<title>Node0&#45;&gt;Node1</title>
<path fill="none" stroke="#191970" d="M1618.3102,-324.6595C1562.0333,-313.6371 1468.5569,-295.3288 1408.6456,-283.5946"/>
<polygon fill="#191970" stroke="#191970" points="1409.0848,-280.1142 1398.5985,-281.6268 1407.7393,-286.9837 1409.0848,-280.1142"/>
</g>
<!-- Node39 -->
<g id="node40" class="node">
<title>Node39</title>
<g id="a_node40"><a xlink:href="_refinement_criteria_8_h.html" target="_top" xlink:title="amr&#45;wind/utilities\l/tagging/RefinementCriteria.H">
<polygon fill="#ffffff" stroke="#000000" points="1907,-257.5 1907,-287.5 2053,-287.5 2053,-257.5 1907,-257.5"/>
<text text-anchor="start" x="1915" y="-275.5" font-family="Helvetica,sans-Serif" font-size="10.00" fill="#000000">amr&#45;wind/utilities</text>
<text text-anchor="middle" x="1980" y="-264.5" font-family="Helvetica,sans-Serif" font-size="10.00" fill="#000000">/tagging/RefinementCriteria.H</text>
</a>
</g>
</g>
<!-- Node0&#45;&gt;Node39 -->
<g id="edge69" class="edge">
<title>Node0&#45;&gt;Node39</title>
<path fill="none" stroke="#191970" d="M1713.6898,-324.6595C1762.182,-315.1618 1838.294,-300.2545 1896.7526,-288.8048"/>
<polygon fill="#191970" stroke="#191970" points="1897.5715,-292.211 1906.7123,-286.8541 1896.226,-285.3415 1897.5715,-292.211"/>
</g>
<!-- Node2 -->
<g id="node3" class="node">
<title>Node2</title>
<polygon fill="#ffffff" stroke="#bfbfbf" points="1927,-62 1927,-81 2033,-81 2033,-62 1927,-62"/>
<text text-anchor="middle" x="1980" y="-69" font-family="Helvetica,sans-Serif" font-size="10.00" fill="#000000">AMReX_AmrCore.H</text>
</g>
<!-- Node1&#45;&gt;Node2 -->
<g id="edge2" class="edge">
<title>Node1&#45;&gt;Node2</title>
<path fill="none" stroke="#191970" d="M1367.025,-262.7379C1393.766,-245.7496 1451.8132,-210.5989 1505,-190 1544.8616,-174.5619 1815.4154,-110.2066 1929.4643,-83.3515"/>
<polygon fill="#191970" stroke="#191970" points="1930.4199,-86.7223 1939.3524,-81.0248 1928.8165,-79.9084 1930.4199,-86.7223"/>
</g>
<!-- Node3 -->
<g id="node4" class="node">
<title>Node3</title>
<polygon fill="#ffffff" stroke="#bfbfbf" points="1636.5,-196 1636.5,-215 1755.5,-215 1755.5,-196 1636.5,-196"/>
<text text-anchor="middle" x="1696" y="-203" font-family="Helvetica,sans-Serif" font-size="10.00" fill="#000000">AMReX_MultiFabUtil.H</text>
</g>
<!-- Node1&#45;&gt;Node3 -->
<g id="edge3" class="edge">
<title>Node1&#45;&gt;Node3</title>
<path fill="none" stroke="#191970" d="M1398.8117,-264.2608C1453.6181,-254.4925 1547.0737,-237.4557 1627,-221 1632.7779,-219.8104 1638.8174,-218.5214 1644.8169,-217.2121"/>
<polygon fill="#191970" stroke="#191970" points="1645.812,-220.5768 1654.8226,-215.0036 1644.3032,-213.7413 1645.812,-220.5768"/>
</g>
<!-- Node4 -->
<g id="node5" class="node">
<title>Node4</title>
<polygon fill="#ffffff" stroke="#bfbfbf" points="142,-196 142,-215 258,-215 258,-196 142,-196"/>
<text text-anchor="middle" x="200" y="-203" font-family="Helvetica,sans-Serif" font-size="10.00" fill="#000000">AMReX_ParmParse.H</text>
</g>
<!-- Node1&#45;&gt;Node4 -->
<g id="edge4" class="edge">
<title>Node1&#45;&gt;Node4</title>
<path fill="none" stroke="#191970" d="M1305.4696,-271.301C1125.7146,-266.5107 476.5135,-247.7054 272,-221 264.4185,-220.01 256.4505,-218.6368 248.6901,-217.1135"/>
<polygon fill="#191970" stroke="#191970" points="249.1589,-213.6365 238.6579,-215.0439 247.7446,-220.4922 249.1589,-213.6365"/>
</g>
<!-- Node5 -->
<g id="node6" class="node">
<title>Node5</title>
<polygon fill="#ffffff" stroke="#bfbfbf" points="1879.5,-.5 1879.5,-19.5 1986.5,-19.5 1986.5,-.5 1879.5,-.5"/>
<text text-anchor="middle" x="1933" y="-7.5" font-family="Helvetica,sans-Serif" font-size="10.00" fill="#000000">AMReX_iMultiFab.H</text>
</g>
<!-- Node1&#45;&gt;Node5 -->
<g id="edge5" class="edge">
<title>Node1&#45;&gt;Node5</title>
<path fill="none" stroke="#191970" d="M1398.8316,-268.5698C1491.7792,-260.4544 1696.4147,-240.9297 1764,-221 1895.5592,-182.2055 1969.0473,-203.1496 2042,-87 2049.3281,-75.3327 2049.6164,-67.4812 2042,-56 2031.4616,-40.1142 2014.2375,-29.7009 1996.5605,-22.88"/>
<polygon fill="#191970" stroke="#191970" points="1997.3279,-19.4407 1986.733,-19.4482 1995.0201,-26.0494 1997.3279,-19.4407"/>
</g>
<!-- Node6 -->
<g id="node7" class="node">
<title>Node6</title>
<polygon fill="#ffffff" stroke="#bfbfbf" points="314.5,-196 314.5,-215 445.5,-215 445.5,-196 314.5,-196"/>
<text text-anchor="middle" x="380" y="-203" font-family="Helvetica,sans-Serif" font-size="10.00" fill="#000000">AMReX_NodalProjector.H</text>
</g>
<!-- Node1&#45;&gt;Node6 -->
<g id="edge6" class="edge">
<title>Node1&#45;&gt;Node6</title>
<path fill="none" stroke="#191970" d="M1305.3701,-272.0015C1172.655,-270.1111 781.6884,-261.2666 460,-221 451.3307,-219.9148 442.1883,-218.4512 433.3058,-216.8548"/>
<polygon fill="#191970" stroke="#191970" points="433.8992,-213.4052 423.4265,-215.0092 432.6136,-220.2862 433.8992,-213.4052"/>
</g>
<!-- Node7 -->
<g id="node8" class="node">
<title>Node7</title>
<g id="a_node8"><a xlink:href="incflo__enums_8_h.html" target="_top" xlink:title="amr&#45;wind/incflo_enums.H">
<polygon fill="#ffffff" stroke="#000000" points="326,-.5 326,-19.5 454,-19.5 454,-.5 326,-.5"/>
<text text-anchor="middle" x="390" y="-7.5" font-family="Helvetica,sans-Serif" font-size="10.00" fill="#000000">amr&#45;wind/incflo_enums.H</text>
</a>
</g>
</g>
<!-- Node1&#45;&gt;Node7 -->
<g id="edge7" class="edge">
<title>Node1&#45;&gt;Node7</title>
<path fill="none" stroke="#191970" d="M1305.3941,-265.0434C1246.3233,-255.4676 1141.4159,-238.0443 1052,-221 766.9551,-166.6653 626.5772,-283.4374 413,-87 397.1636,-72.4345 392.0606,-47.4743 390.5062,-29.9291"/>
<polygon fill="#191970" stroke="#191970" points="393.984,-29.4383 389.9199,-19.654 386.9953,-29.8371 393.984,-29.4383"/>
</g>
<!-- Node8 -->
<g id="node9" class="node">
<title>Node8</title>
<g id="a_node9"><a xlink:href="_c_f_d_sim_8_h.html" target="_top" xlink:title="amr&#45;wind/CFDSim.H">
<polygon fill="#ffffff" stroke="#000000" points="1061,-196 1061,-215 1169,-215 1169,-196 1061,-196"/>
<text text-anchor="middle" x="1115" y="-203" font-family="Helvetica,sans-Serif" font-size="10.00" fill="#000000">amr&#45;wind/CFDSim.H</text>
</a>
</g>
</g>
<!-- Node1&#45;&gt;Node8 -->
<g id="edge8" class="edge">
<title>Node1&#45;&gt;Node8</title>
<path fill="none" stroke="#191970" d="M1318.2954,-262.9717C1276.3863,-251.124 1204.7623,-230.8758 1158.6813,-217.8487"/>
<polygon fill="#191970" stroke="#191970" points="1159.5471,-214.4564 1148.9721,-215.1039 1157.6428,-221.1924 1159.5471,-214.4564"/>
</g>
<!-- Node9 -->
<g id="node10" class="node">
<title>Node9</title>
<g id="a_node10"><a xlink:href="_sim_time_8_h.html" target="_top" xlink:title="amr&#45;wind/core/SimTime.H">
<polygon fill="#ffffff" stroke="#000000" points="220.5,-129 220.5,-148 351.5,-148 351.5,-129 220.5,-129"/>
<text text-anchor="middle" x="286" y="-136" font-family="Helvetica,sans-Serif" font-size="10.00" fill="#000000">amr&#45;wind/core/SimTime.H</text>
</a>
</g>
</g>
<!-- Node1&#45;&gt;Node9 -->
<g id="edge66" class="edge">
<title>Node1&#45;&gt;Node9</title>
<path fill="none" stroke="#191970" d="M1305.2341,-271.7595C1106.9255,-268.4217 343.8395,-253.5018 305,-221 287.0029,-205.9396 284.0642,-177.5738 284.4011,-158.3577"/>
<polygon fill="#191970" stroke="#191970" points="287.9017,-158.428 284.8888,-148.2706 280.9098,-158.0899 287.9017,-158.428"/>
</g>
<!-- Node13 -->
<g id="node14" class="node">
<title>Node13</title>
<g id="a_node14"><a xlink:href="_field_repo_8_h.html" target="_top" xlink:title="amr&#45;wind/core/FieldRepo.H">
<polygon fill="#ffffff" stroke="#000000" points="1284,-129 1284,-148 1420,-148 1420,-129 1284,-129"/>
<text text-anchor="middle" x="1352" y="-136" font-family="Helvetica,sans-Serif" font-size="10.00" fill="#000000">amr&#45;wind/core/FieldRepo.H</text>
</a>
</g>
</g>
<!-- Node1&#45;&gt;Node13 -->
<g id="edge67" class="edge">
<title>Node1&#45;&gt;Node13</title>
<path fill="none" stroke="#191970" d="M1352,-262.8631C1352,-241.0364 1352,-187.4605 1352,-158.2589"/>
<polygon fill="#191970" stroke="#191970" points="1355.5001,-158.0496 1352,-148.0496 1348.5001,-158.0497 1355.5001,-158.0496"/>
</g>
<!-- Node38 -->
<g id="node39" class="node">
<title>Node38</title>
<g id="a_node39"><a xlink:href="incflo__prob___i_8_h.html" target="_top" xlink:title="amr&#45;wind/prob/incflo\l_prob_I.H">
<polygon fill="#ffffff" stroke="#000000" points="1514,-190.5 1514,-220.5 1618,-220.5 1618,-190.5 1514,-190.5"/>
<text text-anchor="start" x="1522" y="-208.5" font-family="Helvetica,sans-Serif" font-size="10.00" fill="#000000">amr&#45;wind/prob/incflo</text>
<text text-anchor="middle" x="1566" y="-197.5" font-family="Helvetica,sans-Serif" font-size="10.00" fill="#000000">_prob_I.H</text>
</a>
</g>
</g>
<!-- Node1&#45;&gt;Node38 -->
<g id="edge68" class="edge">
<title>Node1&#45;&gt;Node38</title>
<path fill="none" stroke="#191970" d="M1382.661,-262.9005C1415.3322,-252.6717 1467.8166,-236.2397 1508.2754,-223.5727"/>
<polygon fill="#191970" stroke="#191970" points="1509.5226,-226.8498 1518.02,-220.5218 1507.4311,-220.1695 1509.5226,-226.8498"/>
</g>
<!-- Node8&#45;&gt;Node2 -->
<g id="edge9" class="edge">
<title>Node8&#45;&gt;Node2</title>
<path fill="none" stroke="#191970" d="M1169.1302,-199.6565C1246.1208,-190.8314 1383.0199,-173.0941 1429,-154 1450.7582,-144.9645 1449.8963,-131.1541 1472,-123 1654.8358,-55.5513 1716.2666,-115.8462 1909,-87 1916.1201,-85.9343 1923.5937,-84.5736 1930.9093,-83.1024"/>
<polygon fill="#191970" stroke="#191970" points="1931.6686,-86.5194 1940.7394,-81.0449 1930.2344,-79.6679 1931.6686,-86.5194"/>
</g>
<!-- Node8&#45;&gt;Node9 -->
<g id="edge10" class="edge">
<title>Node8&#45;&gt;Node9</title>
<path fill="none" stroke="#191970" d="M1060.9268,-201.1298C917.5207,-189.5397 527.1937,-157.9933 361.7436,-144.6216"/>
<polygon fill="#191970" stroke="#191970" points="361.901,-141.123 351.6515,-143.806 361.337,-148.1003 361.901,-141.123"/>
</g>
<!-- Node8&#45;&gt;Node13 -->
<g id="edge14" class="edge">
<title>Node8&#45;&gt;Node13</title>
<path fill="none" stroke="#191970" d="M1148.7046,-195.9717C1190.6137,-184.124 1262.2377,-163.8758 1308.3187,-150.8487"/>
<polygon fill="#191970" stroke="#191970" points="1309.3572,-154.1924 1318.0279,-148.1039 1307.4529,-147.4564 1309.3572,-154.1924"/>
</g>
<!-- Node28 -->
<g id="node29" class="node">
<title>Node28</title>
<g id="a_node29"><a xlink:href="_p_d_e_base_8_h.html" target="_top" xlink:title="amr&#45;wind/equation_systems\l/PDEBase.H">
<polygon fill="#ffffff" stroke="#000000" points="746.5,-123.5 746.5,-153.5 885.5,-153.5 885.5,-123.5 746.5,-123.5"/>
<text text-anchor="start" x="754.5" y="-141.5" font-family="Helvetica,sans-Serif" font-size="10.00" fill="#000000">amr&#45;wind/equation_systems</text>
<text text-anchor="middle" x="816" y="-130.5" font-family="Helvetica,sans-Serif" font-size="10.00" fill="#000000">/PDEBase.H</text>
</a>
</g>
</g>
<!-- Node8&#45;&gt;Node28 -->
<g id="edge44" class="edge">
<title>Node8&#45;&gt;Node28</title>
<path fill="none" stroke="#191970" d="M1072.4781,-195.9717C1025.9369,-185.5427 950.3478,-168.6047 893.2598,-155.8124"/>
<polygon fill="#191970" stroke="#191970" points="893.7106,-152.3267 883.1873,-153.5553 892.18,-159.1573 893.7106,-152.3267"/>
</g>
<!-- Node36 -->
<g id="node37" class="node">
<title>Node36</title>
<g id="a_node37"><a xlink:href="_physics_8_h.html" target="_top" xlink:title="amr&#45;wind/core/Physics.H">
<polygon fill="#ffffff" stroke="#000000" points="903.5,-129 903.5,-148 1030.5,-148 1030.5,-129 903.5,-129"/>
<text text-anchor="middle" x="967" y="-136" font-family="Helvetica,sans-Serif" font-size="10.00" fill="#000000">amr&#45;wind/core/Physics.H</text>
</a>
</g>
</g>
<!-- Node8&#45;&gt;Node36 -->
<g id="edge61" class="edge">
<title>Node8&#45;&gt;Node36</title>
<path fill="none" stroke="#191970" d="M1093.7952,-195.9005C1068.5179,-184.4574 1026.0916,-165.2509 997.3452,-152.2374"/>
<polygon fill="#191970" stroke="#191970" points="998.7189,-149.0173 988.1655,-148.0817 995.832,-155.3943 998.7189,-149.0173"/>
</g>
<!-- Node10 -->
<g id="node11" class="node">
<title>Node10</title>
<polygon fill="#ffffff" stroke="#bfbfbf" points="272.5,-62 272.5,-81 365.5,-81 365.5,-62 272.5,-62"/>
<text text-anchor="middle" x="319" y="-69" font-family="Helvetica,sans-Serif" font-size="10.00" fill="#000000">AMReX_REAL.H</text>
</g>
<!-- Node9&#45;&gt;Node10 -->
<g id="edge11" class="edge">
<title>Node9&#45;&gt;Node10</title>
<path fill="none" stroke="#191970" d="M290.7281,-128.9005C295.6781,-118.8505 303.5776,-102.8122 309.7697,-90.2403"/>
<polygon fill="#191970" stroke="#191970" points="313.0019,-91.5991 314.2807,-81.0817 306.7223,-88.5061 313.0019,-91.5991"/>
</g>
<!-- Node11 -->
<g id="node12" class="node">
<title>Node11</title>
<polygon fill="#ffffff" stroke="#bfbfbf" points="0,-62 0,-81 126,-81 126,-62 0,-62"/>
<text text-anchor="middle" x="63" y="-69" font-family="Helvetica,sans-Serif" font-size="10.00" fill="#000000">AMReX_GpuQualifiers.H</text>
</g>
<!-- Node9&#45;&gt;Node11 -->
<g id="edge12" class="edge">
<title>Node9&#45;&gt;Node11</title>
<path fill="none" stroke="#191970" d="M254.0495,-128.9005C214.7208,-117.0843 147.8401,-96.9901 104.553,-83.9845"/>
<polygon fill="#191970" stroke="#191970" points="105.4754,-80.6072 94.8912,-81.0817 103.4612,-87.3111 105.4754,-80.6072"/>
</g>
<!-- Node12 -->
<g id="node13" class="node">
<title>Node12</title>
<polygon fill="#ffffff" stroke="#bfbfbf" points="144,-62 144,-81 254,-81 254,-62 144,-62"/>
<text text-anchor="middle" x="199" y="-69" font-family="Helvetica,sans-Serif" font-size="10.00" fill="#000000">AMReX_Extension.H</text>
</g>
<!-- Node9&#45;&gt;Node12 -->
<g id="edge13" class="edge">
<title>Node9&#45;&gt;Node12</title>
<path fill="none" stroke="#191970" d="M273.535,-128.9005C259.4513,-118.0544 236.3112,-100.2339 219.5461,-87.3229"/>
<polygon fill="#191970" stroke="#191970" points="221.5003,-84.4102 211.4419,-81.0817 217.2292,-89.9562 221.5003,-84.4102"/>
</g>
<!-- Node13&#45;&gt;Node2 -->
<g id="edge41" class="edge">
<title>Node13&#45;&gt;Node2</title>
<path fill="none" stroke="#191970" d="M1397.3963,-128.9822C1409.2666,-126.751 1422.0777,-124.5698 1434,-123 1645.6624,-95.1302 1701.9457,-119.1524 1913,-87 1919.6613,-85.9852 1926.6419,-84.6645 1933.4772,-83.2221"/>
<polygon fill="#191970" stroke="#191970" points="1934.3249,-86.6193 1943.3336,-81.0432 1932.8139,-79.7843 1934.3249,-86.6193"/>
</g>
<!-- Node13&#45;&gt;Node5 -->
<g id="edge43" class="edge">
<title>Node13&#45;&gt;Node5</title>
<path fill="none" stroke="#191970" d="M1397.8319,-128.9481C1409.5813,-126.7443 1422.2258,-124.5845 1434,-123 1532.3256,-109.7678 1792.9,-136.2931 1879,-87 1901.6109,-74.055 1917.0147,-47.331 1925.411,-29.035"/>
<polygon fill="#191970" stroke="#191970" points="1928.7153,-30.2107 1929.4514,-19.6415 1922.2849,-27.4448 1928.7153,-30.2107"/>
</g>
<!-- Node14 -->
<g id="node15" class="node">
<title>Node14</title>
<polygon fill="#ffffff" stroke="#bfbfbf" points="1234.5,-.5 1234.5,-19.5 1275.5,-19.5 1275.5,-.5 1234.5,-.5"/>
<text text-anchor="middle" x="1255" y="-7.5" font-family="Helvetica,sans-Serif" font-size="10.00" fill="#000000">string</text>
</g>
<!-- Node13&#45;&gt;Node14 -->
<g id="edge15" class="edge">
<title>Node13&#45;&gt;Node14</title>
<path fill="none" stroke="#191970" d="M1326.1221,-128.8434C1307.5904,-120.5707 1283.5976,-106.8245 1270,-87 1258.4832,-70.2092 1255.3021,-46.7696 1254.6485,-30.1731"/>
<polygon fill="#191970" stroke="#191970" points="1258.1456,-29.9006 1254.5285,-19.9423 1251.1461,-29.9828 1258.1456,-29.9006"/>
</g>
<!-- Node15 -->
<g id="node16" class="node">
<title>Node15</title>
<polygon fill="#ffffff" stroke="#bfbfbf" points="800.5,-.5 800.5,-19.5 883.5,-19.5 883.5,-.5 800.5,-.5"/>
<text text-anchor="middle" x="842" y="-7.5" font-family="Helvetica,sans-Serif" font-size="10.00" fill="#000000">unordered_map</text>
</g>
<!-- Node13&#45;&gt;Node15 -->
<g id="edge16" class="edge">
<title>Node13&#45;&gt;Node15</title>
<path fill="none" stroke="#191970" d="M1283.9776,-130.4406C1211.0617,-121.0952 1100.5779,-104.6938 1062,-87 1042.1885,-77.9134 1043.4726,-65.7919 1024,-56 1001.3969,-44.6339 939.2683,-30.135 893.8705,-20.4837"/>
<polygon fill="#191970" stroke="#191970" points="894.3881,-17.0161 883.8816,-18.3806 892.9459,-23.8659 894.3881,-17.0161"/>
</g>
<!-- Node16 -->
<g id="node17" class="node">
<title>Node16</title>
<g id="a_node17"><a xlink:href="_field_desc_types_8_h.html" target="_top" xlink:title="amr&#45;wind/core/FieldDescTypes.H">
<polygon fill="#ffffff" stroke="#000000" points="1562.5,-.5 1562.5,-19.5 1725.5,-19.5 1725.5,-.5 1562.5,-.5"/>
<text text-anchor="middle" x="1644" y="-7.5" font-family="Helvetica,sans-Serif" font-size="10.00" fill="#000000">amr&#45;wind/core/FieldDescTypes.H</text>
</a>
</g>
</g>
<!-- Node13&#45;&gt;Node16 -->
<g id="edge17" class="edge">
<title>Node13&#45;&gt;Node16</title>
<path fill="none" stroke="#191970" d="M1395.016,-128.9434C1442.9481,-117.9376 1517.1163,-99.7395 1543,-87 1551.7916,-82.6729 1597.0725,-47.2284 1623.9287,-25.9675"/>
<polygon fill="#191970" stroke="#191970" points="1626.2713,-28.5768 1631.9312,-19.6204 1621.9214,-23.0923 1626.2713,-28.5768"/>
</g>
<!-- Node17 -->
<g id="node18" class="node">
<title>Node17</title>
<g id="a_node18"><a xlink:href="_field_utils_8_h.html" target="_top" xlink:title="amr&#45;wind/core/FieldUtils.H">
<polygon fill="#ffffff" stroke="#000000" points="1737.5,-62 1737.5,-81 1870.5,-81 1870.5,-62 1737.5,-62"/>
<text text-anchor="middle" x="1804" y="-69" font-family="Helvetica,sans-Serif" font-size="10.00" fill="#000000">amr&#45;wind/core/FieldUtils.H</text>
</a>
</g>
</g>
<!-- Node13&#45;&gt;Node17 -->
<g id="edge18" class="edge">
<title>Node13&#45;&gt;Node17</title>
<path fill="none" stroke="#191970" d="M1399.6059,-128.9595C1410.8592,-126.8547 1422.8335,-124.7372 1434,-123 1564.078,-102.764 1598.0708,-108.17 1728,-87 1735.2186,-85.8238 1742.795,-84.4491 1750.2526,-83.0129"/>
<polygon fill="#191970" stroke="#191970" points="1751.1704,-86.3994 1760.3035,-81.0293 1749.8151,-79.5318 1751.1704,-86.3994"/>
</g>
<!-- Node18 -->
<g id="node19" class="node">
<title>Node18</title>
<polygon fill="#ffffff" stroke="#bfbfbf" points="1440,-.5 1440,-19.5 1544,-19.5 1544,-.5 1440,-.5"/>
<text text-anchor="middle" x="1492" y="-7.5" font-family="Helvetica,sans-Serif" font-size="10.00" fill="#000000">AMReX_MultiFab.H</text>
</g>
<!-- Node13&#45;&gt;Node18 -->
<g id="edge42" class="edge">
<title>Node13&#45;&gt;Node18</title>
<path fill="none" stroke="#191970" d="M1393.5025,-128.9907C1417.9587,-121.4044 1447.7768,-108.4008 1467,-87 1481.4074,-70.9605 1487.525,-46.4958 1490.1145,-29.462"/>
<polygon fill="#191970" stroke="#191970" points="1493.5917,-29.8614 1491.3583,-19.5047 1486.6457,-28.9937 1493.5917,-29.8614"/>
</g>
<!-- Node20 -->
<g id="node21" class="node">
<title>Node20</title>
<g id="a_node21"><a xlink:href="_field_8_h.html" target="_top" xlink:title="amr&#45;wind/core/Field.H">
<polygon fill="#ffffff" stroke="#000000" points="1071.5,-62 1071.5,-81 1184.5,-81 1184.5,-62 1071.5,-62"/>
<text text-anchor="middle" x="1128" y="-69" font-family="Helvetica,sans-Serif" font-size="10.00" fill="#000000">amr&#45;wind/core/Field.H</text>
</a>
</g>
</g>
<!-- Node13&#45;&gt;Node20 -->
<g id="edge22" class="edge">
<title>Node13&#45;&gt;Node20</title>
<path fill="none" stroke="#191970" d="M1319.9063,-128.9005C1280.4011,-117.0843 1213.2205,-96.9901 1169.7394,-83.9845"/>
<polygon fill="#191970" stroke="#191970" points="1170.6178,-80.5941 1160.0342,-81.0817 1168.6118,-87.3006 1170.6178,-80.5941"/>
</g>
<!-- Node24 -->
<g id="node25" class="node">
<title>Node24</title>
<g id="a_node25"><a xlink:href="_int_field_8_h.html" target="_top" xlink:title="amr&#45;wind/core/IntField.H">
<polygon fill="#ffffff" stroke="#000000" points="1595,-62 1595,-81 1719,-81 1719,-62 1595,-62"/>
<text text-anchor="middle" x="1657" y="-69" font-family="Helvetica,sans-Serif" font-size="10.00" fill="#000000">amr&#45;wind/core/IntField.H</text>
</a>
</g>
</g>
<!-- Node13&#45;&gt;Node24 -->
<g id="edge31" class="edge">
<title>Node13&#45;&gt;Node24</title>
<path fill="none" stroke="#191970" d="M1395.3752,-128.9717C1450.1002,-116.9501 1544.1967,-96.2797 1603.375,-83.2799"/>
<polygon fill="#191970" stroke="#191970" points="1604.2645,-86.6681 1613.2807,-81.1039 1602.7626,-79.8311 1604.2645,-86.6681"/>
</g>
<!-- Node25 -->
<g id="node26" class="node">
<title>Node25</title>
<g id="a_node26"><a xlink:href="_scratch_field_8_h.html" target="_top" xlink:title="amr&#45;wind/core/ScratchField.H">
<polygon fill="#ffffff" stroke="#000000" points="1279,-62 1279,-81 1425,-81 1425,-62 1279,-62"/>
<text text-anchor="middle" x="1352" y="-69" font-family="Helvetica,sans-Serif" font-size="10.00" fill="#000000">amr&#45;wind/core/ScratchField.H</text>
</a>
</g>
</g>
<!-- Node13&#45;&gt;Node25 -->
<g id="edge35" class="edge">
<title>Node13&#45;&gt;Node25</title>
<path fill="none" stroke="#191970" d="M1352,-128.9005C1352,-119.149 1352,-103.7597 1352,-91.3695"/>
<polygon fill="#191970" stroke="#191970" points="1355.5001,-91.0816 1352,-81.0817 1348.5001,-91.0817 1355.5001,-91.0816"/>
</g>
<!-- Node17&#45;&gt;Node16 -->
<g id="edge19" class="edge">
<title>Node17&#45;&gt;Node16</title>
<path fill="none" stroke="#191970" d="M1779,-61.8906C1751.9942,-51.5103 1708.7815,-34.9004 1678.5406,-23.2766"/>
<polygon fill="#191970" stroke="#191970" points="1679.4144,-19.8628 1668.8244,-19.5419 1676.9029,-26.3968 1679.4144,-19.8628"/>
</g>
<!-- Node17&#45;&gt;Node18 -->
<g id="edge20" class="edge">
<title>Node17&#45;&gt;Node18</title>
<path fill="none" stroke="#191970" d="M1757.3896,-61.9273C1747.6799,-59.9519 1737.5083,-57.8962 1728,-56 1667.9967,-44.0337 1599.3384,-30.6904 1551.6062,-21.4698"/>
<polygon fill="#191970" stroke="#191970" points="1552.2312,-18.0259 1541.749,-19.5667 1550.9042,-24.8989 1552.2312,-18.0259"/>
</g>
<!-- Node19 -->
<g id="node20" class="node">
<title>Node19</title>
<polygon fill="#ffffff" stroke="#bfbfbf" points="1745,-.5 1745,-19.5 1861,-19.5 1861,-.5 1745,-.5"/>
<text text-anchor="middle" x="1803" y="-7.5" font-family="Helvetica,sans-Serif" font-size="10.00" fill="#000000">AMReX_Interpolater.H</text>
</g>
<!-- Node17&#45;&gt;Node19 -->
<g id="edge21" class="edge">
<title>Node17&#45;&gt;Node19</title>
<path fill="none" stroke="#191970" d="M1803.8438,-61.8906C1803.7051,-53.3657 1803.4982,-40.6392 1803.324,-29.9235"/>
<polygon fill="#191970" stroke="#191970" points="1806.8207,-29.6866 1803.1585,-19.7449 1799.8216,-29.8005 1806.8207,-29.6866"/>
</g>
<!-- Node20&#45;&gt;Node7 -->
<g id="edge29" class="edge">
<title>Node20&#45;&gt;Node7</title>
<path fill="none" stroke="#191970" d="M1071.4358,-62.1895C1056.0785,-59.9023 1039.4296,-57.6419 1024,-56 778.832,-29.9104 713.3138,-44.5716 464.1486,-20.0457"/>
<polygon fill="#191970" stroke="#191970" points="464.3606,-16.5496 454.063,-19.0416 463.6671,-23.5152 464.3606,-16.5496"/>
</g>
<!-- Node20&#45;&gt;Node14 -->
<g id="edge23" class="edge">
<title>Node20&#45;&gt;Node14</title>
<path fill="none" stroke="#191970" d="M1147.8438,-61.8906C1168.8136,-51.7359 1202.0944,-35.6196 1226.0036,-24.0416"/>
<polygon fill="#191970" stroke="#191970" points="1227.8208,-27.0504 1235.2956,-19.5419 1224.7699,-20.7502 1227.8208,-27.0504"/>
</g>
<!-- Node20&#45;&gt;Node15 -->
<g id="edge25" class="edge">
<title>Node20&#45;&gt;Node15</title>
<path fill="none" stroke="#191970" d="M1084.4502,-61.9627C1075.3798,-59.9847 1065.879,-57.919 1057,-56 1001.0992,-43.9181 936.9862,-30.2217 893.4221,-20.9391"/>
<polygon fill="#191970" stroke="#191970" points="894.1392,-17.5134 883.6295,-18.8531 892.6808,-24.3598 894.1392,-17.5134"/>
</g>
<!-- Node20&#45;&gt;Node16 -->
<g id="edge30" class="edge">
<title>Node20&#45;&gt;Node16</title>
<path fill="none" stroke="#191970" d="M1184.6971,-64.7425C1273.8448,-54.1173 1447.5714,-33.4115 1553.9436,-20.7335"/>
<polygon fill="#191970" stroke="#191970" points="1554.5068,-24.1912 1564.0223,-19.5322 1553.6783,-17.2404 1554.5068,-24.1912"/>
</g>
<!-- Node20&#45;&gt;Node18 -->
<g id="edge26" class="edge">
<title>Node20&#45;&gt;Node18</title>
<path fill="none" stroke="#191970" d="M1184.4756,-61.9581C1250.8592,-50.7422 1360.6827,-32.1868 1429.5508,-20.5512"/>
<polygon fill="#191970" stroke="#191970" points="1430.5444,-23.933 1439.8216,-18.8159 1429.3782,-17.0308 1430.5444,-23.933"/>
</g>
<!-- Node21 -->
<g id="node22" class="node">
<title>Node21</title>
<polygon fill="#ffffff" stroke="#bfbfbf" points="730,-.5 730,-19.5 782,-19.5 782,-.5 730,-.5"/>
<text text-anchor="middle" x="756" y="-7.5" font-family="Helvetica,sans-Serif" font-size="10.00" fill="#000000">memory</text>
</g>
<!-- Node20&#45;&gt;Node21 -->
<g id="edge24" class="edge">
<title>Node20&#45;&gt;Node21</title>
<path fill="none" stroke="#191970" d="M1071.4379,-63.047C987.6965,-50.5075 836.5463,-27.7721 792.3663,-19.8506"/>
<polygon fill="#191970" stroke="#191970" points="792.766,-16.363 782.2826,-17.8955 791.4335,-23.2351 792.766,-16.363"/>
</g>
<!-- Node22 -->
<g id="node23" class="node">
<title>Node22</title>
<polygon fill="#ffffff" stroke="#bfbfbf" points="1117.5,-.5 1117.5,-19.5 1216.5,-19.5 1216.5,-.5 1117.5,-.5"/>
<text text-anchor="middle" x="1167" y="-7.5" font-family="Helvetica,sans-Serif" font-size="10.00" fill="#000000">AMReX_BCRec.H</text>
</g>
<!-- Node20&#45;&gt;Node22 -->
<g id="edge27" class="edge">
<title>Node20&#45;&gt;Node22</title>
<path fill="none" stroke="#191970" d="M1134.0938,-61.8906C1139.7843,-52.917 1148.4272,-39.2879 1155.4274,-28.2491"/>
<polygon fill="#191970" stroke="#191970" points="1158.4207,-30.0644 1160.8203,-19.7449 1152.5091,-26.3155 1158.4207,-30.0644"/>
</g>
<!-- Node23 -->
<g id="node24" class="node">
<title>Node23</title>
<polygon fill="#ffffff" stroke="#bfbfbf" points="901.5,-.5 901.5,-19.5 986.5,-19.5 986.5,-.5 901.5,-.5"/>
<text text-anchor="middle" x="944" y="-7.5" font-family="Helvetica,sans-Serif" font-size="10.00" fill="#000000">AMReX_Gpu.H</text>
</g>
<!-- Node20&#45;&gt;Node23 -->
<g id="edge28" class="edge">
<title>Node20&#45;&gt;Node23</title>
<path fill="none" stroke="#191970" d="M1099.25,-61.8906C1067.7883,-51.3749 1017.1992,-34.466 982.3686,-22.8243"/>
<polygon fill="#191970" stroke="#191970" points="983.1419,-19.3925 972.5481,-19.5419 980.9228,-26.0315 983.1419,-19.3925"/>
</g>
<!-- Node24&#45;&gt;Node5 -->
<g id="edge34" class="edge">
<title>Node24&#45;&gt;Node5</title>
<path fill="none" stroke="#191970" d="M1699.8222,-61.9581C1748.47,-51.1181 1827.885,-33.4224 1880.2958,-21.7439"/>
<polygon fill="#191970" stroke="#191970" points="1881.078,-25.1555 1890.0774,-19.5643 1879.5555,-18.3231 1881.078,-25.1555"/>
</g>
<!-- Node24&#45;&gt;Node14 -->
<g id="edge32" class="edge">
<title>Node24&#45;&gt;Node14</title>
<path fill="none" stroke="#191970" d="M1594.8161,-66.4205C1522.531,-59.7305 1399.6579,-45.931 1285.4739,-19.7158"/>
<polygon fill="#191970" stroke="#191970" points="1286.0473,-16.2556 1275.5136,-17.3918 1284.4567,-23.0725 1286.0473,-16.2556"/>
</g>
<!-- Node24&#45;&gt;Node16 -->
<g id="edge33" class="edge">
<title>Node24&#45;&gt;Node16</title>
<path fill="none" stroke="#191970" d="M1654.9688,-61.8906C1653.1478,-53.276 1650.4198,-40.3708 1648.1401,-29.5858"/>
<polygon fill="#191970" stroke="#191970" points="1651.5524,-28.8048 1646.0599,-19.7449 1644.7038,-30.2525 1651.5524,-28.8048"/>
</g>
<!-- Node25&#45;&gt;Node14 -->
<g id="edge36" class="edge">
<title>Node25&#45;&gt;Node14</title>
<path fill="none" stroke="#191970" d="M1336.8438,-61.8906C1321.3257,-52.0519 1296.9807,-36.6167 1278.8716,-25.1351"/>
<polygon fill="#191970" stroke="#191970" points="1280.3696,-21.9407 1270.0498,-19.5419 1276.6213,-27.8526 1280.3696,-21.9407"/>
</g>
<!-- Node25&#45;&gt;Node16 -->
<g id="edge37" class="edge">
<title>Node25&#45;&gt;Node16</title>
<path fill="none" stroke="#191970" d="M1397.3046,-61.9581C1448.8796,-51.0956 1533.1408,-33.3488 1588.586,-21.6711"/>
<polygon fill="#191970" stroke="#191970" points="1589.5251,-25.0502 1598.5891,-19.5643 1588.0824,-18.2004 1589.5251,-25.0502"/>
</g>
<!-- Node25&#45;&gt;Node18 -->
<g id="edge38" class="edge">
<title>Node25&#45;&gt;Node18</title>
<path fill="none" stroke="#191970" d="M1373.875,-61.8906C1397.2996,-51.6005 1434.6596,-35.1888 1461.0841,-23.5809"/>
<polygon fill="#191970" stroke="#191970" points="1462.5307,-26.7683 1470.2786,-19.5419 1459.7154,-20.3594 1462.5307,-26.7683"/>
</g>
<!-- Node26 -->
<g id="node27" class="node">
<title>Node26</title>
<polygon fill="#ffffff" stroke="#bfbfbf" points="1004.5,-.5 1004.5,-19.5 1099.5,-19.5 1099.5,-.5 1004.5,-.5"/>
<text text-anchor="middle" x="1052" y="-7.5" font-family="Helvetica,sans-Serif" font-size="10.00" fill="#000000">AMReX_Vector.H</text>
</g>
<!-- Node25&#45;&gt;Node26 -->
<g id="edge39" class="edge">
<title>Node25&#45;&gt;Node26</title>
<path fill="none" stroke="#191970" d="M1305.4542,-61.9581C1252.3562,-51.073 1165.537,-33.2751 1108.578,-21.5985"/>
<polygon fill="#191970" stroke="#191970" points="1109.1542,-18.1439 1098.655,-19.5643 1107.7484,-25.0013 1109.1542,-18.1439"/>
</g>
<!-- Node27 -->
<g id="node28" class="node">
<title>Node27</title>
<polygon fill="#ffffff" stroke="#bfbfbf" points="1294,-.5 1294,-19.5 1422,-19.5 1422,-.5 1294,-.5"/>
<text text-anchor="middle" x="1358" y="-7.5" font-family="Helvetica,sans-Serif" font-size="10.00" fill="#000000">AMReX_PhysBCFunct.H</text>
</g>
<!-- Node25&#45;&gt;Node27 -->
<g id="edge40" class="edge">
<title>Node25&#45;&gt;Node27</title>
<path fill="none" stroke="#191970" d="M1352.9375,-61.8906C1353.7692,-53.3657 1355.0108,-40.6392 1356.0562,-29.9235"/>
<polygon fill="#191970" stroke="#191970" points="1359.5617,-30.0375 1357.0493,-19.7449 1352.5947,-29.3577 1359.5617,-30.0375"/>
</g>
<!-- Node28&#45;&gt;Node7 -->
<g id="edge60" class="edge">
<title>Node28&#45;&gt;Node7</title>
<path fill="none" stroke="#191970" d="M746.3116,-128.8148C704.8922,-121.2228 652.1871,-108.2747 609,-87 589.1372,-77.2153 589.8316,-65.8479 570,-56 537.0128,-39.6194 497.6411,-28.6998 464.1434,-21.6285"/>
<polygon fill="#191970" stroke="#191970" points="464.4466,-18.1186 453.9497,-19.5557 463.0517,-24.9782 464.4466,-18.1186"/>
</g>
<!-- Node28&#45;&gt;Node14 -->
<g id="edge45" class="edge">
<title>Node28&#45;&gt;Node14</title>
<path fill="none" stroke="#191970" d="M885.6938,-124.3767C888.4962,-123.8956 891.2731,-123.4345 894,-123 1026.1815,-101.9407 1075.9473,-151.9162 1193,-87 1217.0617,-73.6556 1235.301,-46.8286 1245.5742,-28.6381"/>
<polygon fill="#191970" stroke="#191970" points="1248.8009,-30.0273 1250.4484,-19.5613 1242.6338,-26.7156 1248.8009,-30.0273"/>
</g>
<!-- Node28&#45;&gt;Node16 -->
<g id="edge59" class="edge">
<title>Node28&#45;&gt;Node16</title>
<path fill="none" stroke="#191970" d="M885.6667,-124.1912C888.4767,-123.7615 891.2625,-123.3617 894,-123 1132.4603,-91.4931 1198.7018,-136.9077 1434,-87 1500.8527,-72.8203 1575.0342,-41.7464 1614.8736,-23.7077"/>
<polygon fill="#191970" stroke="#191970" points="1616.3683,-26.8728 1624.0044,-19.5284 1613.4549,-20.5079 1616.3683,-26.8728"/>
</g>
<!-- Node29 -->
<g id="node30" class="node">
<title>Node29</title>
<g id="a_node30"><a xlink:href="_factory_8_h.html" target="_top" xlink:title="amr&#45;wind/core/Factory.H">
<polygon fill="#ffffff" stroke="#000000" points="618.5,-62 618.5,-81 743.5,-81 743.5,-62 618.5,-62"/>
<text text-anchor="middle" x="681" y="-69" font-family="Helvetica,sans-Serif" font-size="10.00" fill="#000000">amr&#45;wind/core/Factory.H</text>
</a>
</g>
</g>
<!-- Node28&#45;&gt;Node29 -->
<g id="edge46" class="edge">
<title>Node28&#45;&gt;Node29</title>
<path fill="none" stroke="#191970" d="M785.7034,-123.4639C762.848,-112.1209 731.7171,-96.6707 709.3506,-85.5703"/>
<polygon fill="#191970" stroke="#191970" points="710.8647,-82.4144 700.3512,-81.1039 707.7527,-88.6847 710.8647,-82.4144"/>
</g>
<!-- Node33 -->
<g id="node34" class="node">
<title>Node33</title>
<g id="a_node34"><a xlink:href="_coll_mgr_8_h.html" target="_top" xlink:title="amr&#45;wind/core/CollMgr.H">
<polygon fill="#ffffff" stroke="#000000" points="761.5,-62 761.5,-81 886.5,-81 886.5,-62 761.5,-62"/>
<text text-anchor="middle" x="824" y="-69" font-family="Helvetica,sans-Serif" font-size="10.00" fill="#000000">amr&#45;wind/core/CollMgr.H</text>
</a>
</g>
</g>
<!-- Node28&#45;&gt;Node33 -->
<g id="edge52" class="edge">
<title>Node28&#45;&gt;Node33</title>
<path fill="none" stroke="#191970" d="M817.8153,-123.2967C818.9528,-113.7699 820.4304,-101.3954 821.656,-91.1306"/>
<polygon fill="#191970" stroke="#191970" points="825.1487,-91.3994 822.8591,-81.055 818.1981,-90.5694 825.1487,-91.3994"/>
</g>
<!-- Node34 -->
<g id="node35" class="node">
<title>Node34</title>
<g id="a_node35"><a xlink:href="_p_d_e_fields_8_h.html" target="_top" xlink:title="amr&#45;wind/equation_systems\l/PDEFields.H">
<polygon fill="#ffffff" stroke="#000000" points="422.5,-56.5 422.5,-86.5 561.5,-86.5 561.5,-56.5 422.5,-56.5"/>
<text text-anchor="start" x="430.5" y="-74.5" font-family="Helvetica,sans-Serif" font-size="10.00" fill="#000000">amr&#45;wind/equation_systems</text>
<text text-anchor="middle" x="492" y="-63.5" font-family="Helvetica,sans-Serif" font-size="10.00" fill="#000000">/PDEFields.H</text>
</a>
</g>
</g>
<!-- Node28&#45;&gt;Node34 -->
<g id="edge57" class="edge">
<title>Node28&#45;&gt;Node34</title>
<path fill="none" stroke="#191970" d="M746.4939,-124.1268C695.1178,-113.5028 625.0771,-99.019 571.4786,-87.9354"/>
<polygon fill="#191970" stroke="#191970" points="572.1717,-84.5047 561.6701,-85.9071 570.7541,-91.3597 572.1717,-84.5047"/>
</g>
<!-- Node29&#45;&gt;Node15 -->
<g id="edge48" class="edge">
<title>Node29&#45;&gt;Node15</title>
<path fill="none" stroke="#191970" d="M706.1563,-61.8906C733.449,-51.4652 777.192,-34.7559 807.6397,-23.1252"/>
<polygon fill="#191970" stroke="#191970" points="808.9277,-26.3799 817.0204,-19.5419 806.4298,-19.8408 808.9277,-26.3799"/>
</g>
<!-- Node29&#45;&gt;Node21 -->
<g id="edge47" class="edge">
<title>Node29&#45;&gt;Node21</title>
<path fill="none" stroke="#191970" d="M692.7188,-61.8906C704.3188,-52.3786 722.2979,-37.6357 736.1321,-26.2917"/>
<polygon fill="#191970" stroke="#191970" points="738.6026,-28.7921 744.116,-19.7449 734.164,-23.3792 738.6026,-28.7921"/>
</g>
<!-- Node30 -->
<g id="node31" class="node">
<title>Node30</title>
<polygon fill="#ffffff" stroke="#bfbfbf" points="552,-.5 552,-19.5 606,-19.5 606,-.5 552,-.5"/>
<text text-anchor="middle" x="579" y="-7.5" font-family="Helvetica,sans-Serif" font-size="10.00" fill="#000000">iostream</text>
</g>
<!-- Node29&#45;&gt;Node30 -->
<g id="edge49" class="edge">
<title>Node29&#45;&gt;Node30</title>
<path fill="none" stroke="#191970" d="M665.0625,-61.8906C648.5949,-51.9616 622.6742,-36.333 603.5796,-24.8201"/>
<polygon fill="#191970" stroke="#191970" points="605.1966,-21.7081 594.8256,-19.5419 601.5822,-27.7027 605.1966,-21.7081"/>
</g>
<!-- Node31 -->
<g id="node32" class="node">
<title>Node31</title>
<polygon fill="#ffffff" stroke="#bfbfbf" points="624.5,-.5 624.5,-19.5 711.5,-19.5 711.5,-.5 624.5,-.5"/>
<text text-anchor="middle" x="668" y="-7.5" font-family="Helvetica,sans-Serif" font-size="10.00" fill="#000000">AMReX_Print.H</text>
</g>
<!-- Node29&#45;&gt;Node31 -->
<g id="edge50" class="edge">
<title>Node29&#45;&gt;Node31</title>
<path fill="none" stroke="#191970" d="M678.9688,-61.8906C677.1478,-53.276 674.4198,-40.3708 672.1401,-29.5858"/>
<polygon fill="#191970" stroke="#191970" points="675.5524,-28.8048 670.0599,-19.7449 668.7038,-30.2525 675.5524,-28.8048"/>
</g>
<!-- Node32 -->
<g id="node33" class="node">
<title>Node32</title>
<polygon fill="#ffffff" stroke="#bfbfbf" points="472,-.5 472,-19.5 534,-19.5 534,-.5 472,-.5"/>
<text text-anchor="middle" x="503" y="-7.5" font-family="Helvetica,sans-Serif" font-size="10.00" fill="#000000">AMReX.H</text>
</g>
<!-- Node29&#45;&gt;Node32 -->
<g id="edge51" class="edge">
<title>Node29&#45;&gt;Node32</title>
<path fill="none" stroke="#191970" d="M653.1875,-61.8906C622.7517,-51.3749 573.8123,-34.466 540.1174,-22.8243"/>
<polygon fill="#191970" stroke="#191970" points="541.212,-19.4995 530.6172,-19.5419 538.926,-26.1157 541.212,-19.4995"/>
</g>
<!-- Node33&#45;&gt;Node14 -->
<g id="edge53" class="edge">
<title>Node33&#45;&gt;Node14</title>
<path fill="none" stroke="#191970" d="M864.6042,-61.9939C874.814,-59.8149 885.7762,-57.6553 896,-56 1037.9427,-33.0183 1079.4489,-50.6058 1224.0451,-19.7738"/>
<polygon fill="#191970" stroke="#191970" points="1225.1499,-23.1154 1234.178,-17.5707 1223.6627,-16.2752 1225.1499,-23.1154"/>
</g>
<!-- Node33&#45;&gt;Node15 -->
<g id="edge55" class="edge">
<title>Node33&#45;&gt;Node15</title>
<path fill="none" stroke="#191970" d="M826.8125,-61.8906C829.3339,-53.276 833.111,-40.3708 836.2676,-29.5858"/>
<polygon fill="#191970" stroke="#191970" points="839.6979,-30.3254 839.1478,-19.7449 832.9797,-28.3591 839.6979,-30.3254"/>
</g>
<!-- Node33&#45;&gt;Node21 -->
<g id="edge54" class="edge">
<title>Node33&#45;&gt;Node21</title>
<path fill="none" stroke="#191970" d="M813.375,-61.8906C802.9569,-52.4683 786.8636,-37.9134 774.3696,-26.6137"/>
<polygon fill="#191970" stroke="#191970" points="776.5392,-23.8568 766.7748,-19.7449 771.8438,-29.0484 776.5392,-23.8568"/>
</g>
<!-- Node33&#45;&gt;Node26 -->
<g id="edge56" class="edge">
<title>Node33&#45;&gt;Node26</title>
<path fill="none" stroke="#191970" d="M859.625,-61.8906C899.3631,-51.1718 963.7268,-33.8105 1006.9349,-22.1557"/>
<polygon fill="#191970" stroke="#191970" points="1007.8818,-25.5255 1016.6252,-19.5419 1006.0587,-18.767 1007.8818,-25.5255"/>
</g>
<!-- Node35 -->
<g id="node36" class="node">
<title>Node35</title>
<polygon fill="#ffffff" stroke="#bfbfbf" points="262.5,-.5 262.5,-19.5 307.5,-19.5 307.5,-.5 262.5,-.5"/>
<text text-anchor="middle" x="285" y="-7.5" font-family="Helvetica,sans-Serif" font-size="10.00" fill="#000000">iosfwd</text>
</g>
<!-- Node34&#45;&gt;Node35 -->
<g id="edge58" class="edge">
<title>Node34&#45;&gt;Node35</title>
<path fill="none" stroke="#191970" d="M439.8616,-56.4032C407.2752,-46.911 364.2014,-34.2618 317.4287,-20.0971"/>
<polygon fill="#191970" stroke="#191970" points="318.2967,-16.703 307.7112,-17.1485 316.2641,-23.4014 318.2967,-16.703"/>
</g>
<!-- Node36&#45;&gt;Node18 -->
<g id="edge64" class="edge">
<title>Node36&#45;&gt;Node18</title>
<path fill="none" stroke="#191970" d="M1030.7829,-134.2806C1150.4482,-125.9551 1399.7088,-106.5214 1434,-87 1457.3166,-73.7262 1474.1754,-46.8814 1483.5207,-28.6677"/>
<polygon fill="#191970" stroke="#191970" points="1486.7147,-30.1026 1487.9328,-19.578 1480.4174,-27.0458 1486.7147,-30.1026"/>
</g>
<!-- Node36&#45;&gt;Node29 -->
<g id="edge62" class="edge">
<title>Node36&#45;&gt;Node29</title>
<path fill="none" stroke="#191970" d="M926.3269,-128.9717C875.223,-116.9998 787.5048,-96.4504 731.974,-83.4415"/>
<polygon fill="#191970" stroke="#191970" points="732.5306,-79.9772 721.9958,-81.1039 730.9339,-86.7926 732.5306,-79.9772"/>
</g>
<!-- Node36&#45;&gt;Node33 -->
<g id="edge63" class="edge">
<title>Node36&#45;&gt;Node33</title>
<path fill="none" stroke="#191970" d="M946.5116,-128.9005C922.1944,-117.5072 881.4514,-98.4178 853.6831,-85.4075"/>
<polygon fill="#191970" stroke="#191970" points="854.9907,-82.1551 844.4504,-81.0817 852.0208,-88.4938 854.9907,-82.1551"/>
</g>
<!-- Node37 -->
<g id="node38" class="node">
<title>Node37</title>
<polygon fill="#ffffff" stroke="#bfbfbf" points="905,-62 905,-81 1015,-81 1015,-62 905,-62"/>
<text text-anchor="middle" x="960" y="-69" font-family="Helvetica,sans-Serif" font-size="10.00" fill="#000000">AMReX_Geometry.H</text>
</g>
<!-- Node36&#45;&gt;Node37 -->
<g id="edge65" class="edge">
<title>Node36&#45;&gt;Node37</title>
<path fill="none" stroke="#191970" d="M965.9971,-128.9005C964.9783,-119.149 963.3704,-103.7597 962.0759,-91.3695"/>
<polygon fill="#191970" stroke="#191970" points="965.5213,-90.6638 961.0011,-81.0817 958.5592,-91.3912 965.5213,-90.6638"/>
</g>
<!-- Node39&#45;&gt;Node2 -->
<g id="edge70" class="edge">
<title>Node39&#45;&gt;Node2</title>
<path fill="none" stroke="#191970" d="M1980,-257.3923C1980,-221.5844 1980,-131.5545 1980,-91.386"/>
<polygon fill="#191970" stroke="#191970" points="1983.5001,-91.2562 1980,-81.2562 1976.5001,-91.2562 1983.5001,-91.2562"/>
</g>
<!-- Node40 -->
<g id="node41" class="node">
<title>Node40</title>
<polygon fill="#ffffff" stroke="#bfbfbf" points="2089.5,-196 2089.5,-215 2190.5,-215 2190.5,-196 2089.5,-196"/>
<text text-anchor="middle" x="2140" y="-203" font-family="Helvetica,sans-Serif" font-size="10.00" fill="#000000">AMReX_TagBox.H</text>
</g>
<!-- Node39&#45;&gt;Node40 -->
<g id="edge71" class="edge">
<title>Node39&#45;&gt;Node40</title>
<path fill="none" stroke="#191970" d="M2015.9071,-257.4639C2043.4786,-245.9183 2081.2117,-230.1176 2107.8094,-218.9798"/>
<polygon fill="#191970" stroke="#191970" points="2109.1932,-222.1949 2117.0653,-215.1039 2106.4894,-215.7381 2109.1932,-222.1949"/>
</g>
</g>
</svg>
