<?xml version="1.0" encoding="UTF-8" standalone="no"?>
<!DOCTYPE svg PUBLIC "-//W3C//DTD SVG 1.1//EN"
 "http://www.w3.org/Graphics/SVG/1.1/DTD/svg11.dtd">
<!-- Generated by graphviz version 2.40.1 (20161225.0304)
 -->
<!-- Title: incflo_convection_K.H Pages: 1 -->
<svg width="621pt" height="140pt"
 viewBox="0.00 0.00 621.00 140.00" xmlns="http://www.w3.org/2000/svg" xmlns:xlink="http://www.w3.org/1999/xlink">
<g id="graph0" class="graph" transform="scale(1 1) rotate(0) translate(4 136)">
<title>incflo_convection_K.H</title>
<polygon fill="#ffffff" stroke="transparent" points="-4,4 -4,-136 617,-136 617,4 -4,4"/>
<!-- Node2 -->
<g id="node1" class="node">
<title>Node2</title>
<polygon fill="#bfbfbf" stroke="#000000" points="299.5,-112.5 299.5,-131.5 414.5,-131.5 414.5,-112.5 299.5,-112.5"/>
<text text-anchor="middle" x="357" y="-119.5" font-family="Helvetica,sans-Serif" font-size="10.00" fill="#000000">incflo_convection_K.H</text>
</g>
<!-- Node3 -->
<g id="node2" class="node">
<title>Node3</title>
<g id="a_node2"><a xlink:href="incflo__godunov__plm_8_h.html" target="_top" xlink:title="incflo_godunov_plm.H">
<polygon fill="#ffffff" stroke="#000000" points="97.5,-56.5 97.5,-75.5 210.5,-75.5 210.5,-56.5 97.5,-56.5"/>
<text text-anchor="middle" x="154" y="-63.5" font-family="Helvetica,sans-Serif" font-size="10.00" fill="#000000">incflo_godunov_plm.H</text>
</a>
</g>
</g>
<!-- Node2&#45;&gt;Node3 -->
<g id="edge1" class="edge">
<title>Node2&#45;&gt;Node3</title>
<path fill="none" stroke="#191970" d="M312.0073,-109.5882C274.7109,-99.2996 222.4744,-84.8895 188.4416,-75.5011"/>
<polygon fill="#191970" stroke="#191970" points="311.5324,-113.0879 322.1031,-112.3733 313.3939,-106.3399 311.5324,-113.0879"/>
</g>
<!-- Node6 -->
<g id="node5" class="node">
<title>Node6</title>
<g id="a_node5"><a xlink:href="incflo__godunov__plm_8cpp.html" target="_top" xlink:title="incflo_godunov_plm.cpp">
<polygon fill="#ffffff" stroke="#000000" points="229,-56.5 229,-75.5 351,-75.5 351,-56.5 229,-56.5"/>
<text text-anchor="middle" x="290" y="-63.5" font-family="Helvetica,sans-Serif" font-size="10.00" fill="#000000">incflo_godunov_plm.cpp</text>
</a>
</g>
</g>
<!-- Node2&#45;&gt;Node6 -->
<g id="edge4" class="edge">
<title>Node2&#45;&gt;Node6</title>
<path fill="none" stroke="#191970" d="M337.4324,-105.645C325.7802,-95.9058 311.3916,-83.8795 301.5368,-75.6427"/>
<polygon fill="#191970" stroke="#191970" points="335.4121,-108.5179 345.3295,-112.2455 339.9012,-103.1469 335.4121,-108.5179"/>
</g>
<!-- Node7 -->
<g id="node6" class="node">
<title>Node7</title>
<g id="a_node6"><a xlink:href="incflo__mol__fluxes_8cpp.html" target="_top" xlink:title="incflo_mol_fluxes.cpp">
<polygon fill="#ffffff" stroke="#000000" points="369.5,-56.5 369.5,-75.5 480.5,-75.5 480.5,-56.5 369.5,-56.5"/>
<text text-anchor="middle" x="425" y="-63.5" font-family="Helvetica,sans-Serif" font-size="10.00" fill="#000000">incflo_mol_fluxes.cpp</text>
</a>
</g>
</g>
<!-- Node2&#45;&gt;Node7 -->
<g id="edge5" class="edge">
<title>Node2&#45;&gt;Node7</title>
<path fill="none" stroke="#191970" d="M376.8596,-105.645C388.6858,-95.9058 403.2892,-83.8795 413.291,-75.6427"/>
<polygon fill="#191970" stroke="#191970" points="374.339,-103.1867 368.8447,-112.2455 378.789,-108.5902 374.339,-103.1867"/>
</g>
<!-- Node8 -->
<g id="node7" class="node">
<title>Node8</title>
<g id="a_node7"><a xlink:href="incflo__mol__predict_8cpp.html" target="_top" xlink:title="incflo_mol_predict.cpp">
<polygon fill="#ffffff" stroke="#000000" points="499,-56.5 499,-75.5 613,-75.5 613,-56.5 499,-56.5"/>
<text text-anchor="middle" x="556" y="-63.5" font-family="Helvetica,sans-Serif" font-size="10.00" fill="#000000">incflo_mol_predict.cpp</text>
</a>
</g>
</g>
<!-- Node2&#45;&gt;Node8 -->
<g id="edge6" class="edge">
<title>Node2&#45;&gt;Node8</title>
<path fill="none" stroke="#191970" d="M401.1062,-109.5882C437.6677,-99.2996 488.8748,-84.8895 522.2371,-75.5011"/>
<polygon fill="#191970" stroke="#191970" points="399.8873,-106.2952 391.2093,-112.3733 401.7836,-113.0335 399.8873,-106.2952"/>
</g>
<!-- Node4 -->
<g id="node3" class="node">
<title>Node4</title>
<g id="a_node3"><a xlink:href="incflo__godunov__advection_8cpp.html" target="_top" xlink:title="incflo_godunov_advection.cpp">
<polygon fill="#ffffff" stroke="#000000" points="0,-.5 0,-19.5 148,-19.5 148,-.5 0,-.5"/>
<text text-anchor="middle" x="74" y="-7.5" font-family="Helvetica,sans-Serif" font-size="10.00" fill="#000000">incflo_godunov_advection.cpp</text>
</a>
</g>
</g>
<!-- Node3&#45;&gt;Node4 -->
<g id="edge2" class="edge">
<title>Node3&#45;&gt;Node4</title>
<path fill="none" stroke="#191970" d="M131.8429,-50.49C117.728,-40.6096 99.8849,-28.1194 87.7752,-19.6427"/>
<polygon fill="#191970" stroke="#191970" points="129.8656,-53.3782 140.0651,-56.2455 133.8799,-47.6436 129.8656,-53.3782"/>
</g>
<!-- Node5 -->
<g id="node4" class="node">
<title>Node5</title>
<g id="a_node4"><a xlink:href="incflo__godunov__predict_8cpp.html" target="_top" xlink:title="incflo_godunov_predict.cpp">
<polygon fill="#ffffff" stroke="#000000" points="166.5,-.5 166.5,-19.5 301.5,-19.5 301.5,-.5 166.5,-.5"/>
<text text-anchor="middle" x="234" y="-7.5" font-family="Helvetica,sans-Serif" font-size="10.00" fill="#000000">incflo_godunov_predict.cpp</text>
</a>
</g>
</g>
<!-- Node3&#45;&gt;Node5 -->
<g id="edge3" class="edge">
<title>Node3&#45;&gt;Node5</title>
<path fill="none" stroke="#191970" d="M176.1571,-50.49C190.272,-40.6096 208.1151,-28.1194 220.2248,-19.6427"/>
<polygon fill="#191970" stroke="#191970" points="174.1201,-47.6436 167.9349,-56.2455 178.1344,-53.3782 174.1201,-47.6436"/>
</g>
</g>
</svg>
