<?xml version="1.0" encoding="UTF-8" standalone="no"?>
<!DOCTYPE svg PUBLIC "-//W3C//DTD SVG 1.1//EN"
 "http://www.w3.org/Graphics/SVG/1.1/DTD/svg11.dtd">
<!-- Generated by graphviz version 2.40.1 (20161225.0304)
 -->
<!-- Title: incflo.cpp Pages: 1 -->
<svg width="2915pt" height="553pt"
 viewBox="0.00 0.00 2914.56 553.00" xmlns="http://www.w3.org/2000/svg" xmlns:xlink="http://www.w3.org/1999/xlink">
<g id="graph0" class="graph" transform="scale(1 1) rotate(0) translate(4 549)">
<title>incflo.cpp</title>
<polygon fill="#ffffff" stroke="transparent" points="-4,4 -4,-549 2910.5623,-549 2910.5623,4 -4,4"/>
<!-- Node0 -->
<g id="node1" class="node">
<title>Node0</title>
<polygon fill="#bfbfbf" stroke="#000000" points="2370.0623,-525.5 2370.0623,-544.5 2429.0623,-544.5 2429.0623,-525.5 2370.0623,-525.5"/>
<text text-anchor="middle" x="2399.5623" y="-532.5" font-family="Helvetica,sans-Serif" font-size="10.00" fill="#000000">incflo.cpp</text>
</g>
<!-- Node1 -->
<g id="node2" class="node">
<title>Node1</title>
<g id="a_node2"><a xlink:href="incflo_8_h.html" target="_top" xlink:title="amr&#45;wind/incflo.H">
<polygon fill="#ffffff" stroke="#000000" points="606.0623,-263 606.0623,-282 699.0623,-282 699.0623,-263 606.0623,-263"/>
<text text-anchor="middle" x="652.5623" y="-270" font-family="Helvetica,sans-Serif" font-size="10.00" fill="#000000">amr&#45;wind/incflo.H</text>
</a>
</g>
</g>
<!-- Node0&#45;&gt;Node1 -->
<g id="edge1" class="edge">
<title>Node0&#45;&gt;Node1</title>
<path fill="none" stroke="#191970" d="M2369.6166,-534.3382C2233.6123,-530.8819 1660.8874,-511.4651 1201.5623,-422 1007.1339,-384.1302 780.4584,-313.8619 691.3433,-285.1846"/>
<polygon fill="#191970" stroke="#191970" points="692.2543,-281.8009 681.6626,-282.0585 690.1032,-288.4622 692.2543,-281.8009"/>
</g>
<!-- Node28 -->
<g id="node26" class="node">
<title>Node28</title>
<g id="a_node26"><a xlink:href="_p_d_e_base_8_h.html" target="_top" xlink:title="amr&#45;wind/equation_systems\l/PDEBase.H">
<polygon fill="#ffffff" stroke="#000000" points="2089.0623,-123.5 2089.0623,-153.5 2228.0623,-153.5 2228.0623,-123.5 2089.0623,-123.5"/>
<text text-anchor="start" x="2097.0623" y="-141.5" font-family="Helvetica,sans-Serif" font-size="10.00" fill="#000000">amr&#45;wind/equation_systems</text>
<text text-anchor="middle" x="2158.5623" y="-130.5" font-family="Helvetica,sans-Serif" font-size="10.00" fill="#000000">/PDEBase.H</text>
</a>
</g>
</g>
<!-- Node0&#45;&gt;Node28 -->
<g id="edge105" class="edge">
<title>Node0&#45;&gt;Node28</title>
<path fill="none" stroke="#191970" d="M2399.5623,-525.3281C2399.5623,-503.9175 2399.5623,-450.895 2399.5623,-406.5 2399.5623,-406.5 2399.5623,-406.5 2399.5623,-272.5 2399.5623,-197.2123 2308.6119,-163.856 2238.4562,-149.3252"/>
<polygon fill="#191970" stroke="#191970" points="2238.7579,-145.8173 2228.2695,-147.3152 2237.4028,-152.6849 2238.7579,-145.8173"/>
</g>
<!-- Node39 -->
<g id="node33" class="node">
<title>Node39</title>
<g id="a_node33"><a xlink:href="_a_b_l_8_h.html" target="_top" xlink:title="amr&#45;wind/wind_energy\l/ABL.H">
<polygon fill="#ffffff" stroke="#000000" points="1771.5623,-458.5 1771.5623,-488.5 1885.5623,-488.5 1885.5623,-458.5 1771.5623,-458.5"/>
<text text-anchor="start" x="1779.5623" y="-476.5" font-family="Helvetica,sans-Serif" font-size="10.00" fill="#000000">amr&#45;wind/wind_energy</text>
<text text-anchor="middle" x="1828.5623" y="-465.5" font-family="Helvetica,sans-Serif" font-size="10.00" fill="#000000">/ABL.H</text>
</a>
</g>
</g>
<!-- Node0&#45;&gt;Node39 -->
<g id="edge62" class="edge">
<title>Node0&#45;&gt;Node39</title>
<path fill="none" stroke="#191970" d="M2369.6668,-531.7801C2281.3939,-522.2726 2020.3077,-494.1521 1895.9219,-480.755"/>
<polygon fill="#191970" stroke="#191970" points="1896.0799,-477.2519 1885.7625,-479.6608 1895.3302,-484.2116 1896.0799,-477.2519"/>
</g>
<!-- Node57 -->
<g id="node45" class="node">
<title>Node57</title>
<g id="a_node45"><a xlink:href="_post_processing_8_h.html" target="_top" xlink:title="amr&#45;wind/utilities\l/PostProcessing.H">
<polygon fill="#ffffff" stroke="#000000" points="2627.0623,-324.5 2627.0623,-354.5 2726.0623,-354.5 2726.0623,-324.5 2627.0623,-324.5"/>
<text text-anchor="start" x="2635.0623" y="-342.5" font-family="Helvetica,sans-Serif" font-size="10.00" fill="#000000">amr&#45;wind/utilities</text>
<text text-anchor="middle" x="2676.5623" y="-331.5" font-family="Helvetica,sans-Serif" font-size="10.00" fill="#000000">/PostProcessing.H</text>
</a>
</g>
</g>
<!-- Node0&#45;&gt;Node57 -->
<g id="edge111" class="edge">
<title>Node0&#45;&gt;Node57</title>
<path fill="none" stroke="#191970" d="M2411.9705,-525.307C2431.0204,-510.5004 2468.7185,-481.4935 2501.5623,-458 2550.9457,-422.6757 2609.6061,-383.506 2644.9168,-360.2216"/>
<polygon fill="#191970" stroke="#191970" points="2646.943,-363.0781 2653.3711,-354.6561 2643.094,-357.2312 2646.943,-363.0781"/>
</g>
<!-- Node61 -->
<g id="node46" class="node">
<title>Node61</title>
<g id="a_node46"><a xlink:href="_refinement_criteria_8_h.html" target="_top" xlink:title="amr&#45;wind/utilities\l/tagging/RefinementCriteria.H">
<polygon fill="#ffffff" stroke="#000000" points="327.5623,-458.5 327.5623,-488.5 473.5623,-488.5 473.5623,-458.5 327.5623,-458.5"/>
<text text-anchor="start" x="335.5623" y="-476.5" font-family="Helvetica,sans-Serif" font-size="10.00" fill="#000000">amr&#45;wind/utilities</text>
<text text-anchor="middle" x="400.5623" y="-465.5" font-family="Helvetica,sans-Serif" font-size="10.00" fill="#000000">/tagging/RefinementCriteria.H</text>
</a>
</g>
</g>
<!-- Node0&#45;&gt;Node61 -->
<g id="edge102" class="edge">
<title>Node0&#45;&gt;Node61</title>
<path fill="none" stroke="#191970" d="M2369.8658,-534.1625C2213.1476,-529.7329 1466.3537,-508.5021 855.5623,-489 725.7365,-484.8548 575.0884,-479.644 483.8531,-476.4441"/>
<polygon fill="#191970" stroke="#191970" points="483.964,-472.9459 473.8473,-476.0928 483.7184,-479.9416 483.964,-472.9459"/>
</g>
<!-- Node63 -->
<g id="node48" class="node">
<title>Node63</title>
<g id="a_node48"><a xlink:href="_i_o_manager_8_h.html" target="_top" xlink:title="amr&#45;wind/utilities\l/IOManager.H">
<polygon fill="#ffffff" stroke="#000000" points="2568.5623,-56.5 2568.5623,-86.5 2658.5623,-86.5 2658.5623,-56.5 2568.5623,-56.5"/>
<text text-anchor="start" x="2576.5623" y="-74.5" font-family="Helvetica,sans-Serif" font-size="10.00" fill="#000000">amr&#45;wind/utilities</text>
<text text-anchor="middle" x="2613.5623" y="-63.5" font-family="Helvetica,sans-Serif" font-size="10.00" fill="#000000">/IOManager.H</text>
</a>
</g>
</g>
<!-- Node0&#45;&gt;Node63 -->
<g id="edge106" class="edge">
<title>Node0&#45;&gt;Node63</title>
<path fill="none" stroke="#191970" d="M2429.2562,-533.3166C2532.3519,-526.6734 2868.5623,-497.9951 2868.5623,-406.5 2868.5623,-406.5 2868.5623,-406.5 2868.5623,-272.5 2868.5623,-171.347 2743.2727,-113.2428 2668.3372,-87.537"/>
<polygon fill="#191970" stroke="#191970" points="2669.158,-84.121 2658.5642,-84.2695 2666.9384,-90.7598 2669.158,-84.121"/>
</g>
<!-- Node65 -->
<g id="node50" class="node">
<title>Node65</title>
<g id="a_node50"><a xlink:href="_overset_manager_8_h.html" target="_top" xlink:title="amr&#45;wind/overset/Overset\lManager.H">
<polygon fill="#ffffff" stroke="#000000" points="2614.0623,-391.5 2614.0623,-421.5 2743.0623,-421.5 2743.0623,-391.5 2614.0623,-391.5"/>
<text text-anchor="start" x="2622.0623" y="-409.5" font-family="Helvetica,sans-Serif" font-size="10.00" fill="#000000">amr&#45;wind/overset/Overset</text>
<text text-anchor="middle" x="2678.5623" y="-398.5" font-family="Helvetica,sans-Serif" font-size="10.00" fill="#000000">Manager.H</text>
</a>
</g>
</g>
<!-- Node0&#45;&gt;Node65 -->
<g id="edge112" class="edge">
<title>Node0&#45;&gt;Node65</title>
<path fill="none" stroke="#191970" d="M2420.5327,-525.3416C2466.2438,-504.2883 2575.6128,-453.9158 2636.2587,-425.9839"/>
<polygon fill="#191970" stroke="#191970" points="2637.9377,-429.0641 2645.5565,-421.7016 2635.0094,-422.706 2637.9377,-429.0641"/>
</g>
<!-- Node2 -->
<g id="node3" class="node">
<title>Node2</title>
<polygon fill="#ffffff" stroke="#bfbfbf" points="14.5623,-62 14.5623,-81 120.5623,-81 120.5623,-62 14.5623,-62"/>
<text text-anchor="middle" x="67.5623" y="-69" font-family="Helvetica,sans-Serif" font-size="10.00" fill="#000000">AMReX_AmrCore.H</text>
</g>
<!-- Node1&#45;&gt;Node2 -->
<g id="edge2" class="edge">
<title>Node1&#45;&gt;Node2</title>
<path fill="none" stroke="#191970" d="M605.8899,-265.4103C565.9906,-258.0885 507.8574,-244.3702 461.5623,-221 441.796,-211.0218 442.0267,-200.555 422.5623,-190 322.8008,-135.9023 193.9192,-100.4624 122.0905,-83.403"/>
<polygon fill="#191970" stroke="#191970" points="122.4518,-79.8929 111.917,-81.0193 120.8549,-86.7083 122.4518,-79.8929"/>
</g>
<!-- Node3 -->
<g id="node4" class="node">
<title>Node3</title>
<polygon fill="#ffffff" stroke="#bfbfbf" points="593.0623,-196 593.0623,-215 712.0623,-215 712.0623,-196 593.0623,-196"/>
<text text-anchor="middle" x="652.5623" y="-203" font-family="Helvetica,sans-Serif" font-size="10.00" fill="#000000">AMReX_MultiFabUtil.H</text>
</g>
<!-- Node1&#45;&gt;Node3 -->
<g id="edge3" class="edge">
<title>Node1&#45;&gt;Node3</title>
<path fill="none" stroke="#191970" d="M652.5623,-262.9005C652.5623,-253.149 652.5623,-237.7597 652.5623,-225.3695"/>
<polygon fill="#191970" stroke="#191970" points="656.0624,-225.0816 652.5623,-215.0817 649.0624,-225.0817 656.0624,-225.0816"/>
</g>
<!-- Node4 -->
<g id="node5" class="node">
<title>Node4</title>
<polygon fill="#ffffff" stroke="#bfbfbf" points="72.5623,-196 72.5623,-215 188.5623,-215 188.5623,-196 72.5623,-196"/>
<text text-anchor="middle" x="130.5623" y="-203" font-family="Helvetica,sans-Serif" font-size="10.00" fill="#000000">AMReX_ParmParse.H</text>
</g>
<!-- Node1&#45;&gt;Node4 -->
<g id="edge4" class="edge">
<title>Node1&#45;&gt;Node4</title>
<path fill="none" stroke="#191970" d="M606.0362,-268.6917C524.1372,-261.6505 349.0185,-245.0853 202.5623,-221 195.7807,-219.8847 188.6729,-218.5545 181.6747,-217.1487"/>
<polygon fill="#191970" stroke="#191970" points="182.0529,-213.6528 171.5508,-215.0513 180.6328,-220.5073 182.0529,-213.6528"/>
</g>
<!-- Node5 -->
<g id="node6" class="node">
<title>Node5</title>
<polygon fill="#ffffff" stroke="#bfbfbf" points="95.0623,-.5 95.0623,-19.5 202.0623,-19.5 202.0623,-.5 95.0623,-.5"/>
<text text-anchor="middle" x="148.5623" y="-7.5" font-family="Helvetica,sans-Serif" font-size="10.00" fill="#000000">AMReX_iMultiFab.H</text>
</g>
<!-- Node1&#45;&gt;Node5 -->
<g id="edge5" class="edge">
<title>Node1&#45;&gt;Node5</title>
<path fill="none" stroke="#191970" d="M606.0092,-271.0671C533.4531,-267.7542 389.6762,-256.8358 273.5623,-221 241.7503,-211.182 23.0653,-115.3203 5.5623,-87 -16.7885,-50.8357 36.7925,-30.5606 84.6158,-20.0031"/>
<polygon fill="#191970" stroke="#191970" points="85.6311,-23.3666 94.704,-17.8955 84.1995,-16.5146 85.6311,-23.3666"/>
</g>
<!-- Node6 -->
<g id="node7" class="node">
<title>Node6</title>
<polygon fill="#ffffff" stroke="#bfbfbf" points="283.0623,-196 283.0623,-215 414.0623,-215 414.0623,-196 283.0623,-196"/>
<text text-anchor="middle" x="348.5623" y="-203" font-family="Helvetica,sans-Serif" font-size="10.00" fill="#000000">AMReX_NodalProjector.H</text>
</g>
<!-- Node1&#45;&gt;Node6 -->
<g id="edge6" class="edge">
<title>Node1&#45;&gt;Node6</title>
<path fill="none" stroke="#191970" d="M609.3294,-262.9717C554.7837,-250.9501 460.9958,-230.2797 402.0115,-217.2799"/>
<polygon fill="#191970" stroke="#191970" points="402.6573,-213.8383 392.1383,-215.1039 401.1506,-220.6743 402.6573,-213.8383"/>
</g>
<!-- Node7 -->
<g id="node8" class="node">
<title>Node7</title>
<g id="a_node8"><a xlink:href="incflo__enums_8_h.html" target="_top" xlink:title="amr&#45;wind/incflo_enums.H">
<polygon fill="#ffffff" stroke="#000000" points="1524.5623,-.5 1524.5623,-19.5 1652.5623,-19.5 1652.5623,-.5 1524.5623,-.5"/>
<text text-anchor="middle" x="1588.5623" y="-7.5" font-family="Helvetica,sans-Serif" font-size="10.00" fill="#000000">amr&#45;wind/incflo_enums.H</text>
</a>
</g>
</g>
<!-- Node1&#45;&gt;Node7 -->
<g id="edge7" class="edge">
<title>Node1&#45;&gt;Node7</title>
<path fill="none" stroke="#191970" d="M676.051,-262.8614C694.723,-254.2133 720.4603,-239.9636 737.5623,-221 791.886,-160.7631 748.3567,-101.4198 815.5623,-56 844.2217,-36.631 1326.5404,-18.6703 1514.4569,-12.3753"/>
<polygon fill="#191970" stroke="#191970" points="1514.6477,-15.871 1524.5256,-12.0398 1514.4145,-8.8749 1514.6477,-15.871"/>
</g>
<!-- Node8 -->
<g id="node9" class="node">
<title>Node8</title>
<g id="a_node9"><a xlink:href="_c_f_d_sim_8_h.html" target="_top" xlink:title="amr&#45;wind/CFDSim.H">
<polygon fill="#ffffff" stroke="#000000" points="1637.5623,-196 1637.5623,-215 1745.5623,-215 1745.5623,-196 1637.5623,-196"/>
<text text-anchor="middle" x="1691.5623" y="-203" font-family="Helvetica,sans-Serif" font-size="10.00" fill="#000000">amr&#45;wind/CFDSim.H</text>
</a>
</g>
</g>
<!-- Node1&#45;&gt;Node8 -->
<g id="edge8" class="edge">
<title>Node1&#45;&gt;Node8</title>
<path fill="none" stroke="#191970" d="M699.5385,-271.5387C836.9459,-268.3792 1249.9031,-256.4064 1590.5623,-221 1602.4865,-219.7607 1615.1533,-218.0955 1627.3397,-216.3158"/>
<polygon fill="#191970" stroke="#191970" points="1628.0667,-219.746 1637.4365,-214.8007 1627.0278,-212.8235 1628.0667,-219.746"/>
</g>
<!-- Node9 -->
<g id="node10" class="node">
<title>Node9</title>
<g id="a_node10"><a xlink:href="_sim_time_8_h.html" target="_top" xlink:title="amr&#45;wind/core/SimTime.H">
<polygon fill="#ffffff" stroke="#000000" points="1078.0623,-129 1078.0623,-148 1209.0623,-148 1209.0623,-129 1078.0623,-129"/>
<text text-anchor="middle" x="1143.5623" y="-136" font-family="Helvetica,sans-Serif" font-size="10.00" fill="#000000">amr&#45;wind/core/SimTime.H</text>
</a>
</g>
</g>
<!-- Node1&#45;&gt;Node9 -->
<g id="edge59" class="edge">
<title>Node1&#45;&gt;Node9</title>
<path fill="none" stroke="#191970" d="M687.4802,-262.9705C774.6595,-239.1782 1001.8103,-177.1859 1098.7079,-150.7413"/>
<polygon fill="#191970" stroke="#191970" points="1099.7683,-154.08 1108.494,-148.0706 1097.9253,-147.327 1099.7683,-154.08"/>
</g>
<!-- Node13 -->
<g id="node14" class="node">
<title>Node13</title>
<g id="a_node14"><a xlink:href="_field_repo_8_h.html" target="_top" xlink:title="amr&#45;wind/core/FieldRepo.H">
<polygon fill="#ffffff" stroke="#000000" points="547.5623,-129 547.5623,-148 683.5623,-148 683.5623,-129 547.5623,-129"/>
<text text-anchor="middle" x="615.5623" y="-136" font-family="Helvetica,sans-Serif" font-size="10.00" fill="#000000">amr&#45;wind/core/FieldRepo.H</text>
</a>
</g>
</g>
<!-- Node1&#45;&gt;Node13 -->
<g id="edge60" class="edge">
<title>Node1&#45;&gt;Node13</title>
<path fill="none" stroke="#191970" d="M674.4144,-262.9516C690.7127,-254.5159 711.7797,-240.5086 721.5623,-221 727.7382,-208.6839 728.8723,-201.6787 721.5623,-190 709.8015,-171.2107 689.01,-159.101 668.938,-151.3825"/>
<polygon fill="#191970" stroke="#191970" points="670.0891,-148.0772 659.4943,-148.0367 667.7514,-154.6754 670.0891,-148.0772"/>
</g>
<!-- Node38 -->
<g id="node32" class="node">
<title>Node38</title>
<g id="a_node32"><a xlink:href="incflo__prob___i_8_h.html" target="_top" xlink:title="amr&#45;wind/prob/incflo\l_prob_I.H">
<polygon fill="#ffffff" stroke="#000000" points="470.5623,-190.5 470.5623,-220.5 574.5623,-220.5 574.5623,-190.5 470.5623,-190.5"/>
<text text-anchor="start" x="478.5623" y="-208.5" font-family="Helvetica,sans-Serif" font-size="10.00" fill="#000000">amr&#45;wind/prob/incflo</text>
<text text-anchor="middle" x="522.5623" y="-197.5" font-family="Helvetica,sans-Serif" font-size="10.00" fill="#000000">_prob_I.H</text>
</a>
</g>
</g>
<!-- Node1&#45;&gt;Node38 -->
<g id="edge61" class="edge">
<title>Node1&#45;&gt;Node38</title>
<path fill="none" stroke="#191970" d="M633.9365,-262.9005C614.8867,-253.0826 584.7485,-237.5498 560.6246,-225.1167"/>
<polygon fill="#191970" stroke="#191970" points="562.2014,-221.9919 551.709,-220.5218 558.9945,-228.2141 562.2014,-221.9919"/>
</g>
<!-- Node8&#45;&gt;Node2 -->
<g id="edge9" class="edge">
<title>Node8&#45;&gt;Node2</title>
<path fill="none" stroke="#191970" d="M1637.457,-195.9921C1622.3255,-193.6616 1605.8408,-191.4287 1590.5623,-190 1357.6638,-168.2209 767.9148,-199.9727 538.5623,-154 500.3604,-146.3426 494.3883,-132.3391 456.5623,-123 329.614,-91.657 294.0331,-105.3194 164.5623,-87 153.638,-85.4543 142.0403,-83.6999 130.8072,-81.941"/>
<polygon fill="#191970" stroke="#191970" points="131.0473,-78.4356 120.6233,-80.3304 129.9538,-85.3497 131.0473,-78.4356"/>
</g>
<!-- Node8&#45;&gt;Node9 -->
<g id="edge10" class="edge">
<title>Node8&#45;&gt;Node9</title>
<path fill="none" stroke="#191970" d="M1637.3651,-196.7991C1622.233,-194.4742 1605.7709,-192.0424 1590.5623,-190 1460.2872,-172.5053 1308.1531,-155.7593 1219.1772,-146.336"/>
<polygon fill="#191970" stroke="#191970" points="1219.4886,-142.8495 1209.1762,-145.2795 1218.7532,-149.8108 1219.4886,-142.8495"/>
</g>
<!-- Node8&#45;&gt;Node13 -->
<g id="edge14" class="edge">
<title>Node8&#45;&gt;Node13</title>
<path fill="none" stroke="#191970" d="M1637.4387,-196.1785C1622.3071,-193.8493 1605.8268,-191.5705 1590.5623,-190 1417.162,-172.1597 893.0491,-149.7438 693.6837,-141.6199"/>
<polygon fill="#191970" stroke="#191970" points="693.7167,-138.1185 683.5827,-141.2092 693.4322,-145.1127 693.7167,-138.1185"/>
</g>
<!-- Node8&#45;&gt;Node28 -->
<g id="edge41" class="edge">
<title>Node8&#45;&gt;Node28</title>
<path fill="none" stroke="#191970" d="M1745.8457,-199.4345C1819.1945,-190.9903 1954.2391,-174.5692 2078.7692,-154.2422"/>
<polygon fill="#191970" stroke="#191970" points="2079.5625,-157.6589 2088.8619,-152.5823 2078.4264,-150.7517 2079.5625,-157.6589"/>
</g>
<!-- Node36 -->
<g id="node30" class="node">
<title>Node36</title>
<g id="a_node30"><a xlink:href="_physics_8_h.html" target="_top" xlink:title="amr&#45;wind/core/Physics.H">
<polygon fill="#ffffff" stroke="#000000" points="1944.0623,-129 1944.0623,-148 2071.0623,-148 2071.0623,-129 1944.0623,-129"/>
<text text-anchor="middle" x="2007.5623" y="-136" font-family="Helvetica,sans-Serif" font-size="10.00" fill="#000000">amr&#45;wind/core/Physics.H</text>
</a>
</g>
</g>
<!-- Node8&#45;&gt;Node36 -->
<g id="edge54" class="edge">
<title>Node8&#45;&gt;Node36</title>
<path fill="none" stroke="#191970" d="M1736.9938,-195.9681C1786.0042,-185.6719 1866.3315,-168.758 1935.5623,-154 1941.3304,-152.7704 1947.3574,-151.4807 1953.3626,-150.1925"/>
<polygon fill="#191970" stroke="#191970" points="1954.3569,-153.5588 1963.3989,-148.0368 1952.8869,-146.7149 1954.3569,-153.5588"/>
</g>
<!-- Node10 -->
<g id="node11" class="node">
<title>Node10</title>
<polygon fill="#ffffff" stroke="#bfbfbf" points="1097.0623,-62 1097.0623,-81 1190.0623,-81 1190.0623,-62 1097.0623,-62"/>
<text text-anchor="middle" x="1143.5623" y="-69" font-family="Helvetica,sans-Serif" font-size="10.00" fill="#000000">AMReX_REAL.H</text>
</g>
<!-- Node9&#45;&gt;Node10 -->
<g id="edge11" class="edge">
<title>Node9&#45;&gt;Node10</title>
<path fill="none" stroke="#191970" d="M1143.5623,-128.9005C1143.5623,-119.149 1143.5623,-103.7597 1143.5623,-91.3695"/>
<polygon fill="#191970" stroke="#191970" points="1147.0624,-91.0816 1143.5623,-81.0817 1140.0624,-91.0817 1147.0624,-91.0816"/>
</g>
<!-- Node11 -->
<g id="node12" class="node">
<title>Node11</title>
<polygon fill="#ffffff" stroke="#bfbfbf" points="952.5623,-62 952.5623,-81 1078.5623,-81 1078.5623,-62 952.5623,-62"/>
<text text-anchor="middle" x="1015.5623" y="-69" font-family="Helvetica,sans-Serif" font-size="10.00" fill="#000000">AMReX_GpuQualifiers.H</text>
</g>
<!-- Node9&#45;&gt;Node11 -->
<g id="edge12" class="edge">
<title>Node9&#45;&gt;Node11</title>
<path fill="none" stroke="#191970" d="M1125.223,-128.9005C1103.6467,-117.6067 1067.6232,-98.7506 1042.7857,-85.7497"/>
<polygon fill="#191970" stroke="#191970" points="1044.3504,-82.6183 1033.8676,-81.0817 1041.1041,-88.8201 1044.3504,-82.6183"/>
</g>
<!-- Node12 -->
<g id="node13" class="node">
<title>Node12</title>
<polygon fill="#ffffff" stroke="#bfbfbf" points="824.5623,-62 824.5623,-81 934.5623,-81 934.5623,-62 824.5623,-62"/>
<text text-anchor="middle" x="879.5623" y="-69" font-family="Helvetica,sans-Serif" font-size="10.00" fill="#000000">AMReX_Extension.H</text>
</g>
<!-- Node9&#45;&gt;Node12 -->
<g id="edge13" class="edge">
<title>Node9&#45;&gt;Node12</title>
<path fill="none" stroke="#191970" d="M1106.0179,-128.9717C1059.0408,-117.0495 978.5458,-96.6208 927.2549,-83.6038"/>
<polygon fill="#191970" stroke="#191970" points="927.9583,-80.1714 917.4046,-81.1039 926.2364,-86.9563 927.9583,-80.1714"/>
</g>
<!-- Node13&#45;&gt;Node2 -->
<g id="edge38" class="edge">
<title>Node13&#45;&gt;Node2</title>
<path fill="none" stroke="#191970" d="M564.2674,-128.9476C551.6421,-126.795 538.1374,-124.6591 525.5623,-123 352.5489,-100.1728 306.8578,-114.7304 134.5623,-87 128.1418,-85.9666 121.4204,-84.6713 114.8167,-83.2723"/>
<polygon fill="#191970" stroke="#191970" points="115.1166,-79.7541 104.5966,-81.0112 113.6044,-86.5888 115.1166,-79.7541"/>
</g>
<!-- Node13&#45;&gt;Node5 -->
<g id="edge40" class="edge">
<title>Node13&#45;&gt;Node5</title>
<path fill="none" stroke="#191970" d="M563.2984,-128.9359C550.9479,-126.832 537.8089,-124.7209 525.5623,-123 452.5116,-112.735 257.8379,-126.5414 195.5623,-87 174.5627,-73.6665 161.5289,-47.2386 154.6599,-29.0969"/>
<polygon fill="#191970" stroke="#191970" points="157.9204,-27.8175 151.3142,-19.5344 151.3131,-30.1293 157.9204,-27.8175"/>
</g>
<!-- Node14 -->
<g id="node15" class="node">
<title>Node14</title>
<polygon fill="#ffffff" stroke="#bfbfbf" points="1675.0623,-.5 1675.0623,-19.5 1716.0623,-19.5 1716.0623,-.5 1675.0623,-.5"/>
<text text-anchor="middle" x="1695.5623" y="-7.5" font-family="Helvetica,sans-Serif" font-size="10.00" fill="#000000">string</text>
</g>
<!-- Node13&#45;&gt;Node14 -->
<g id="edge15" class="edge">
<title>Node13&#45;&gt;Node14</title>
<path fill="none" stroke="#191970" d="M632.6328,-128.8513C650.1769,-118.8022 678.158,-102.4041 701.5623,-87 721.242,-74.0473 722.2886,-63.6775 744.5623,-56 937.3649,10.4572 1460.319,-53.0229 1661.5623,-20 1662.6552,-19.8207 1663.7625,-19.6171 1664.8768,-19.3936"/>
<polygon fill="#191970" stroke="#191970" points="1666.0019,-22.7222 1674.8929,-16.9602 1664.3493,-15.92 1666.0019,-22.7222"/>
</g>
<!-- Node15 -->
<g id="node16" class="node">
<title>Node15</title>
<polygon fill="#ffffff" stroke="#bfbfbf" points="2211.0623,-.5 2211.0623,-19.5 2294.0623,-19.5 2294.0623,-.5 2211.0623,-.5"/>
<text text-anchor="middle" x="2252.5623" y="-7.5" font-family="Helvetica,sans-Serif" font-size="10.00" fill="#000000">unordered_map</text>
</g>
<!-- Node13&#45;&gt;Node15 -->
<g id="edge16" class="edge">
<title>Node13&#45;&gt;Node15</title>
<path fill="none" stroke="#191970" d="M638.0121,-128.9838C688.3019,-107.7017 806.3314,-57.9617 815.5623,-56 1099.5529,4.3514 1831.6204,-35.0537 2121.5623,-20 2147.7719,-18.6392 2176.8852,-16.4815 2200.9972,-14.5181"/>
<polygon fill="#191970" stroke="#191970" points="2201.3239,-18.0032 2211.0017,-13.6915 2200.7474,-11.0269 2201.3239,-18.0032"/>
</g>
<!-- Node16 -->
<g id="node17" class="node">
<title>Node16</title>
<g id="a_node17"><a xlink:href="_field_desc_types_8_h.html" target="_top" xlink:title="amr&#45;wind/core/FieldDescTypes.H">
<polygon fill="#ffffff" stroke="#000000" points="614.0623,-.5 614.0623,-19.5 777.0623,-19.5 777.0623,-.5 614.0623,-.5"/>
<text text-anchor="middle" x="695.5623" y="-7.5" font-family="Helvetica,sans-Serif" font-size="10.00" fill="#000000">amr&#45;wind/core/FieldDescTypes.H</text>
</a>
</g>
</g>
<!-- Node13&#45;&gt;Node16 -->
<g id="edge17" class="edge">
<title>Node13&#45;&gt;Node16</title>
<path fill="none" stroke="#191970" d="M558.7993,-128.9548C497.0737,-118.0004 405.7835,-99.8902 395.5623,-87 387.0019,-76.2043 386.5886,-66.4546 395.5623,-56 402.5052,-47.9114 520.5709,-31.6651 606.4819,-20.8084"/>
<polygon fill="#191970" stroke="#191970" points="607.0414,-24.2656 616.5264,-19.545 606.1678,-17.3204 607.0414,-24.2656"/>
</g>
<!-- Node17 -->
<g id="node18" class="node">
<title>Node17</title>
<g id="a_node18"><a xlink:href="_field_utils_8_h.html" target="_top" xlink:title="amr&#45;wind/core/FieldUtils.H">
<polygon fill="#ffffff" stroke="#ff0000" points="215.0623,-62 215.0623,-81 348.0623,-81 348.0623,-62 215.0623,-62"/>
<text text-anchor="middle" x="281.5623" y="-69" font-family="Helvetica,sans-Serif" font-size="10.00" fill="#000000">amr&#45;wind/core/FieldUtils.H</text>
</a>
</g>
</g>
<!-- Node13&#45;&gt;Node17 -->
<g id="edge18" class="edge">
<title>Node13&#45;&gt;Node17</title>
<path fill="none" stroke="#191970" d="M568.063,-128.9717C507.8014,-116.8833 403.9443,-96.0497 339.209,-83.0638"/>
<polygon fill="#191970" stroke="#191970" points="339.661,-79.5849 329.1679,-81.0496 338.2842,-86.4481 339.661,-79.5849"/>
</g>
<!-- Node18 -->
<g id="node19" class="node">
<title>Node18</title>
<polygon fill="#ffffff" stroke="#bfbfbf" points="491.5623,-.5 491.5623,-19.5 595.5623,-19.5 595.5623,-.5 491.5623,-.5"/>
<text text-anchor="middle" x="543.5623" y="-7.5" font-family="Helvetica,sans-Serif" font-size="10.00" fill="#000000">AMReX_MultiFab.H</text>
</g>
<!-- Node13&#45;&gt;Node18 -->
<g id="edge39" class="edge">
<title>Node13&#45;&gt;Node18</title>
<path fill="none" stroke="#191970" d="M563.2942,-128.9658C550.9438,-126.8607 537.806,-124.7415 525.5623,-123 454.7157,-112.923 253.2504,-140.3539 205.5623,-87 196.3807,-76.7275 196.5006,-66.3785 205.5623,-56 223.3952,-35.5758 388.6869,-20.8326 481.336,-14.0946"/>
<polygon fill="#191970" stroke="#191970" points="481.7135,-17.5766 491.4377,-13.3707 481.2131,-10.5945 481.7135,-17.5766"/>
</g>
<!-- Node20 -->
<g id="node20" class="node">
<title>Node20</title>
<g id="a_node20"><a xlink:href="_field_8_h.html" target="_top" xlink:title="amr&#45;wind/core/Field.H">
<polygon fill="#ffffff" stroke="#ff0000" points="1532.0623,-62 1532.0623,-81 1645.0623,-81 1645.0623,-62 1532.0623,-62"/>
<text text-anchor="middle" x="1588.5623" y="-69" font-family="Helvetica,sans-Serif" font-size="10.00" fill="#000000">amr&#45;wind/core/Field.H</text>
</a>
</g>
</g>
<!-- Node13&#45;&gt;Node20 -->
<g id="edge21" class="edge">
<title>Node13&#45;&gt;Node20</title>
<path fill="none" stroke="#191970" d="M683.7816,-136.1664C865.9097,-129.6902 1360.713,-110.4182 1522.5623,-87 1529.2931,-86.0261 1536.3478,-84.7022 1543.2374,-83.2359"/>
<polygon fill="#191970" stroke="#191970" points="1544.1653,-86.6148 1553.1562,-81.0099 1542.6324,-79.7847 1544.1653,-86.6148"/>
</g>
<!-- Node24 -->
<g id="node23" class="node">
<title>Node24</title>
<g id="a_node23"><a xlink:href="_int_field_8_h.html" target="_top" xlink:title="amr&#45;wind/core/IntField.H">
<polygon fill="#ffffff" stroke="#000000" points="404.5623,-62 404.5623,-81 528.5623,-81 528.5623,-62 404.5623,-62"/>
<text text-anchor="middle" x="466.5623" y="-69" font-family="Helvetica,sans-Serif" font-size="10.00" fill="#000000">amr&#45;wind/core/IntField.H</text>
</a>
</g>
</g>
<!-- Node13&#45;&gt;Node24 -->
<g id="edge29" class="edge">
<title>Node13&#45;&gt;Node24</title>
<path fill="none" stroke="#191970" d="M594.2143,-128.9005C568.7661,-117.4574 526.0532,-98.2509 497.1126,-85.2374"/>
<polygon fill="#191970" stroke="#191970" points="498.4266,-81.9907 487.8708,-81.0817 495.5557,-88.3749 498.4266,-81.9907"/>
</g>
<!-- Node25 -->
<g id="node24" class="node">
<title>Node25</title>
<g id="a_node24"><a xlink:href="_scratch_field_8_h.html" target="_top" xlink:title="amr&#45;wind/core/ScratchField.H">
<polygon fill="#ffffff" stroke="#ff0000" points="546.5623,-62 546.5623,-81 692.5623,-81 692.5623,-62 546.5623,-62"/>
<text text-anchor="middle" x="619.5623" y="-69" font-family="Helvetica,sans-Serif" font-size="10.00" fill="#000000">amr&#45;wind/core/ScratchField.H</text>
</a>
</g>
</g>
<!-- Node13&#45;&gt;Node25 -->
<g id="edge33" class="edge">
<title>Node13&#45;&gt;Node25</title>
<path fill="none" stroke="#191970" d="M616.1354,-128.9005C616.7176,-119.149 617.6364,-103.7597 618.3761,-91.3695"/>
<polygon fill="#191970" stroke="#191970" points="621.888,-91.2725 618.9903,-81.0817 614.9005,-90.8553 621.888,-91.2725"/>
</g>
<!-- Node17&#45;&gt;Node16 -->
<g id="edge19" class="edge">
<title>Node17&#45;&gt;Node16</title>
<path fill="none" stroke="#191970" d="M329.0313,-61.99C340.0219,-59.9068 351.6842,-57.7909 362.5623,-56 445.6825,-42.3155 540.9334,-29.4389 608.2115,-20.8095"/>
<polygon fill="#191970" stroke="#191970" points="608.8703,-24.2539 618.346,-19.5146 607.983,-17.3103 608.8703,-24.2539"/>
</g>
<!-- Node17&#45;&gt;Node18 -->
<g id="edge20" class="edge">
<title>Node17&#45;&gt;Node18</title>
<path fill="none" stroke="#191970" d="M322.2124,-61.9581C368.2005,-51.1632 443.1528,-33.5694 492.9096,-21.8899"/>
<polygon fill="#191970" stroke="#191970" points="493.8814,-25.257 502.8169,-19.5643 492.2817,-18.4422 493.8814,-25.257"/>
</g>
<!-- Node20&#45;&gt;Node7 -->
<g id="edge27" class="edge">
<title>Node20&#45;&gt;Node7</title>
<path fill="none" stroke="#191970" d="M1588.5623,-61.8906C1588.5623,-53.3657 1588.5623,-40.6392 1588.5623,-29.9235"/>
<polygon fill="#191970" stroke="#191970" points="1592.0624,-29.7448 1588.5623,-19.7449 1585.0624,-29.7449 1592.0624,-29.7448"/>
</g>
<!-- Node20&#45;&gt;Node14 -->
<g id="edge22" class="edge">
<title>Node20&#45;&gt;Node14</title>
<path fill="none" stroke="#191970" d="M1605.2811,-61.8906C1622.6345,-51.9165 1649.9946,-36.1908 1670.0505,-24.6633"/>
<polygon fill="#191970" stroke="#191970" points="1672.0352,-27.5596 1678.961,-19.5419 1668.5469,-21.4907 1672.0352,-27.5596"/>
</g>
<!-- Node20&#45;&gt;Node15 -->
<g id="edge24" class="edge">
<title>Node20&#45;&gt;Node15</title>
<path fill="none" stroke="#191970" d="M1645.1746,-66.2565C1772.0983,-54.5008 2077.863,-26.1807 2200.4419,-14.8274"/>
<polygon fill="#191970" stroke="#191970" points="2201.0495,-18.2862 2210.684,-13.8788 2200.4038,-11.316 2201.0495,-18.2862"/>
</g>
<!-- Node20&#45;&gt;Node16 -->
<g id="edge28" class="edge">
<title>Node20&#45;&gt;Node16</title>
<path fill="none" stroke="#191970" d="M1553.1573,-61.9824C1543.3169,-59.6667 1532.5811,-57.4437 1522.5623,-56 1383.0496,-35.8959 972.225,-19.6067 787.4437,-13.0794"/>
<polygon fill="#191970" stroke="#191970" points="787.3261,-9.5732 777.2093,-12.7197 787.0801,-16.5689 787.3261,-9.5732"/>
</g>
<!-- Node20&#45;&gt;Node18 -->
<g id="edge25" class="edge">
<title>Node20&#45;&gt;Node18</title>
<path fill="none" stroke="#191970" d="M1553.5153,-61.955C1543.5819,-59.6092 1532.7092,-57.3777 1522.5623,-56 1118.4013,-1.1236 1011.4114,-60.5468 605.5623,-20 605.4606,-19.9898 605.3588,-19.9796 605.2569,-19.9693"/>
<polygon fill="#191970" stroke="#191970" points="605.9319,-16.5239 595.5978,-18.8599 605.1331,-23.4782 605.9319,-16.5239"/>
</g>
<!-- Node21 -->
<g id="node21" class="node">
<title>Node21</title>
<polygon fill="#ffffff" stroke="#bfbfbf" points="2758.5623,-.5 2758.5623,-19.5 2810.5623,-19.5 2810.5623,-.5 2758.5623,-.5"/>
<text text-anchor="middle" x="2784.5623" y="-7.5" font-family="Helvetica,sans-Serif" font-size="10.00" fill="#000000">memory</text>
</g>
<!-- Node20&#45;&gt;Node21 -->
<g id="edge23" class="edge">
<title>Node20&#45;&gt;Node21</title>
<path fill="none" stroke="#191970" d="M1645.4514,-67.0221C1689.4241,-63.6658 1751.8245,-59.131 1806.5623,-56 2175.6388,-34.8888 2268.454,-40.5467 2637.5623,-20 2675.322,-17.8981 2718.4961,-14.8887 2748.237,-12.7211"/>
<polygon fill="#191970" stroke="#191970" points="2748.8346,-16.1867 2758.5515,-11.9638 2748.322,-9.2055 2748.8346,-16.1867"/>
</g>
<!-- Node23 -->
<g id="node22" class="node">
<title>Node23</title>
<polygon fill="#ffffff" stroke="#bfbfbf" points="1738.0623,-.5 1738.0623,-19.5 1823.0623,-19.5 1823.0623,-.5 1738.0623,-.5"/>
<text text-anchor="middle" x="1780.5623" y="-7.5" font-family="Helvetica,sans-Serif" font-size="10.00" fill="#000000">AMReX_Gpu.H</text>
</g>
<!-- Node20&#45;&gt;Node23 -->
<g id="edge26" class="edge">
<title>Node20&#45;&gt;Node23</title>
<path fill="none" stroke="#191970" d="M1618.5623,-61.8906C1651.5328,-51.3298 1704.634,-34.3208 1740.9926,-22.6747"/>
<polygon fill="#191970" stroke="#191970" points="1742.3173,-25.9256 1750.773,-19.5419 1740.1819,-19.2592 1742.3173,-25.9256"/>
</g>
<!-- Node24&#45;&gt;Node5 -->
<g id="edge32" class="edge">
<title>Node24&#45;&gt;Node5</title>
<path fill="none" stroke="#191970" d="M417.2237,-61.9581C360.7409,-51.0345 268.2604,-33.1492 207.8959,-21.4749"/>
<polygon fill="#191970" stroke="#191970" points="208.2377,-17.9762 197.755,-19.5137 206.9085,-24.8489 208.2377,-17.9762"/>
</g>
<!-- Node24&#45;&gt;Node14 -->
<g id="edge30" class="edge">
<title>Node24&#45;&gt;Node14</title>
<path fill="none" stroke="#191970" d="M504.294,-61.9212C514.9802,-59.5751 526.6694,-57.3519 537.5623,-56 1033.5686,5.5588 1168.0579,-99.1527 1661.5623,-20 1662.6558,-19.8246 1663.7637,-19.6244 1664.8784,-19.4039"/>
<polygon fill="#191970" stroke="#191970" points="1665.9979,-22.7342 1674.8969,-16.9846 1664.3547,-15.9298 1665.9979,-22.7342"/>
</g>
<!-- Node24&#45;&gt;Node16 -->
<g id="edge31" class="edge">
<title>Node24&#45;&gt;Node16</title>
<path fill="none" stroke="#191970" d="M502.3436,-61.8906C542.256,-51.1718 606.902,-33.8105 650.2995,-22.1557"/>
<polygon fill="#191970" stroke="#191970" points="651.2824,-25.5159 660.0323,-19.5419 649.4667,-18.7554 651.2824,-25.5159"/>
</g>
<!-- Node25&#45;&gt;Node14 -->
<g id="edge34" class="edge">
<title>Node25&#45;&gt;Node14</title>
<path fill="none" stroke="#191970" d="M666.3489,-61.9365C679.3208,-59.6206 693.4436,-57.409 706.5623,-56 1128.8793,-10.6411 1242.3685,-88.4517 1661.5623,-20 1662.6553,-19.8215 1663.7628,-19.6187 1664.8771,-19.3958"/>
<polygon fill="#191970" stroke="#191970" points="1666.001,-22.7248 1674.8938,-16.9654 1664.3504,-15.9221 1666.001,-22.7248"/>
</g>
<!-- Node25&#45;&gt;Node16 -->
<g id="edge35" class="edge">
<title>Node25&#45;&gt;Node16</title>
<path fill="none" stroke="#191970" d="M631.4373,-61.8906C643.192,-52.3786 661.4109,-37.6357 675.4295,-26.2917"/>
<polygon fill="#191970" stroke="#191970" points="677.9479,-28.7562 683.5199,-19.7449 673.5445,-23.3146 677.9479,-28.7562"/>
</g>
<!-- Node25&#45;&gt;Node18 -->
<g id="edge36" class="edge">
<title>Node25&#45;&gt;Node18</title>
<path fill="none" stroke="#191970" d="M607.6873,-61.8906C595.9326,-52.3786 577.7137,-37.6357 563.6952,-26.2917"/>
<polygon fill="#191970" stroke="#191970" points="565.5801,-23.3146 555.6047,-19.7449 561.1767,-28.7562 565.5801,-23.3146"/>
</g>
<!-- Node26 -->
<g id="node25" class="node">
<title>Node26</title>
<polygon fill="#ffffff" stroke="#bfbfbf" points="2017.0623,-.5 2017.0623,-19.5 2112.0623,-19.5 2112.0623,-.5 2017.0623,-.5"/>
<text text-anchor="middle" x="2064.5623" y="-7.5" font-family="Helvetica,sans-Serif" font-size="10.00" fill="#000000">AMReX_Vector.H</text>
</g>
<!-- Node25&#45;&gt;Node26 -->
<g id="edge37" class="edge">
<title>Node25&#45;&gt;Node26</title>
<path fill="none" stroke="#191970" d="M687.242,-61.9762C705.7906,-59.6751 725.9227,-57.461 744.5623,-56 1226.903,-18.1926 1349.0928,-38.4177 1832.5623,-20 1891.9259,-17.7386 1959.8164,-14.7673 2006.7489,-12.6526"/>
<polygon fill="#191970" stroke="#191970" points="2007.1933,-16.1362 2017.025,-12.1882 2006.8772,-9.1433 2007.1933,-16.1362"/>
</g>
<!-- Node28&#45;&gt;Node7 -->
<g id="edge53" class="edge">
<title>Node28&#45;&gt;Node7</title>
<path fill="none" stroke="#191970" d="M2118.133,-123.4497C2095.4716,-114.2725 2067.1155,-101.5272 2043.5623,-87 2025.0113,-75.558 2025.6795,-64.3882 2005.5623,-56 1865.7183,2.3103 1817.0464,-37.6346 1666.5623,-20 1665.3038,-19.8525 1664.034,-19.7026 1662.7554,-19.5506"/>
<polygon fill="#191970" stroke="#191970" points="1663.1695,-16.0752 1652.8219,-18.3506 1662.3299,-23.0247 1663.1695,-16.0752"/>
</g>
<!-- Node28&#45;&gt;Node14 -->
<g id="edge42" class="edge">
<title>Node28&#45;&gt;Node14</title>
<path fill="none" stroke="#191970" d="M2137.8059,-123.409C2105.4079,-99.8821 2046.2201,-57.0254 2043.5623,-56 1912.5087,-5.4362 1867.2292,-47.921 1729.5623,-20 1728.4769,-19.7799 1727.3761,-19.5412 1726.2673,-19.2878"/>
<polygon fill="#191970" stroke="#191970" points="1726.8357,-15.8198 1716.2781,-16.7072 1725.0848,-22.5973 1726.8357,-15.8198"/>
</g>
<!-- Node28&#45;&gt;Node16 -->
<g id="edge52" class="edge">
<title>Node28&#45;&gt;Node16</title>
<path fill="none" stroke="#191970" d="M2097.6144,-123.4574C2068.6939,-114.9695 2034.2686,-102.8502 2005.5623,-87 1986.4817,-76.4647 1987.9593,-63.6827 1967.5623,-56 1912.5688,-35.2864 1070.5033,-17.2316 787.5204,-11.7219"/>
<polygon fill="#191970" stroke="#191970" points="787.3539,-8.2181 777.2878,-11.5234 787.218,-15.2168 787.3539,-8.2181"/>
</g>
<!-- Node29 -->
<g id="node27" class="node">
<title>Node29</title>
<g id="a_node27"><a xlink:href="_factory_8_h.html" target="_top" xlink:title="amr&#45;wind/core/Factory.H">
<polygon fill="#ffffff" stroke="#ff0000" points="2677.0623,-62 2677.0623,-81 2802.0623,-81 2802.0623,-62 2677.0623,-62"/>
<text text-anchor="middle" x="2739.5623" y="-69" font-family="Helvetica,sans-Serif" font-size="10.00" fill="#000000">amr&#45;wind/core/Factory.H</text>
</a>
</g>
</g>
<!-- Node28&#45;&gt;Node29 -->
<g id="edge43" class="edge">
<title>Node28&#45;&gt;Node29</title>
<path fill="none" stroke="#191970" d="M2228.4473,-133.9009C2326.8367,-126.8653 2511.6141,-111.5973 2667.5623,-87 2674.4359,-85.9158 2681.6409,-84.5922 2688.7258,-83.1798"/>
<polygon fill="#191970" stroke="#191970" points="2689.8821,-86.5149 2698.9674,-81.0646 2688.4662,-79.6596 2689.8821,-86.5149"/>
</g>
<!-- Node33 -->
<g id="node28" class="node">
<title>Node33</title>
<g id="a_node28"><a xlink:href="_coll_mgr_8_h.html" target="_top" xlink:title="amr&#45;wind/core/CollMgr.H">
<polygon fill="#ffffff" stroke="#000000" points="2096.0623,-62 2096.0623,-81 2221.0623,-81 2221.0623,-62 2096.0623,-62"/>
<text text-anchor="middle" x="2158.5623" y="-69" font-family="Helvetica,sans-Serif" font-size="10.00" fill="#000000">amr&#45;wind/core/CollMgr.H</text>
</a>
</g>
</g>
<!-- Node28&#45;&gt;Node33 -->
<g id="edge46" class="edge">
<title>Node28&#45;&gt;Node33</title>
<path fill="none" stroke="#191970" d="M2158.5623,-123.2967C2158.5623,-113.7699 2158.5623,-101.3954 2158.5623,-91.1306"/>
<polygon fill="#191970" stroke="#191970" points="2162.0624,-91.0549 2158.5623,-81.055 2155.0624,-91.055 2162.0624,-91.0549"/>
</g>
<!-- Node34 -->
<g id="node29" class="node">
<title>Node34</title>
<g id="a_node29"><a xlink:href="_p_d_e_fields_8_h.html" target="_top" xlink:title="amr&#45;wind/equation_systems\l/PDEFields.H">
<polygon fill="#ffffff" stroke="#ff0000" points="2239.0623,-56.5 2239.0623,-86.5 2378.0623,-86.5 2378.0623,-56.5 2239.0623,-56.5"/>
<text text-anchor="start" x="2247.0623" y="-74.5" font-family="Helvetica,sans-Serif" font-size="10.00" fill="#000000">amr&#45;wind/equation_systems</text>
<text text-anchor="middle" x="2308.5623" y="-63.5" font-family="Helvetica,sans-Serif" font-size="10.00" fill="#000000">/PDEFields.H</text>
</a>
</g>
</g>
<!-- Node28&#45;&gt;Node34 -->
<g id="edge51" class="edge">
<title>Node28&#45;&gt;Node34</title>
<path fill="none" stroke="#191970" d="M2192.2252,-123.4639C2213.8617,-113.7996 2242.1729,-101.154 2265.4491,-90.7572"/>
<polygon fill="#191970" stroke="#191970" points="2267.0494,-93.8758 2274.7526,-86.6017 2264.1946,-87.4844 2267.0494,-93.8758"/>
</g>
<!-- Node29&#45;&gt;Node15 -->
<g id="edge45" class="edge">
<title>Node29&#45;&gt;Node15</title>
<path fill="none" stroke="#191970" d="M2698.578,-61.9232C2688.4762,-59.7714 2677.6588,-57.642 2667.5623,-56 2537.6301,-34.8693 2383.2102,-20.5703 2304.425,-14.0435"/>
<polygon fill="#191970" stroke="#191970" points="2304.5322,-10.5407 2294.2795,-13.2115 2303.96,-17.5172 2304.5322,-10.5407"/>
</g>
<!-- Node29&#45;&gt;Node21 -->
<g id="edge44" class="edge">
<title>Node29&#45;&gt;Node21</title>
<path fill="none" stroke="#191970" d="M2746.5936,-61.8906C2753.2253,-52.8273 2763.3319,-39.0149 2771.451,-27.9188"/>
<polygon fill="#191970" stroke="#191970" points="2774.3514,-29.882 2777.4319,-19.7449 2768.7022,-25.7484 2774.3514,-29.882"/>
</g>
<!-- Node33&#45;&gt;Node14 -->
<g id="edge47" class="edge">
<title>Node33&#45;&gt;Node14</title>
<path fill="none" stroke="#191970" d="M2115.1202,-61.9916C2104.2018,-59.8126 2092.4832,-57.6537 2081.5623,-56 1926.0743,-32.4556 1883.8732,-50.3152 1729.5623,-20 1728.4756,-19.7865 1727.3736,-19.5536 1726.2638,-19.3051"/>
<polygon fill="#191970" stroke="#191970" points="1726.8254,-15.8361 1716.2699,-16.7484 1725.0905,-22.6177 1726.8254,-15.8361"/>
</g>
<!-- Node33&#45;&gt;Node15 -->
<g id="edge49" class="edge">
<title>Node33&#45;&gt;Node15</title>
<path fill="none" stroke="#191970" d="M2173.2498,-61.8906C2188.2879,-52.0519 2211.88,-36.6167 2229.4291,-25.1351"/>
<polygon fill="#191970" stroke="#191970" points="2231.526,-27.9457 2237.978,-19.5419 2227.6936,-22.088 2231.526,-27.9457"/>
</g>
<!-- Node33&#45;&gt;Node21 -->
<g id="edge48" class="edge">
<title>Node33&#45;&gt;Node21</title>
<path fill="none" stroke="#191970" d="M2198.3825,-61.9675C2208.8058,-59.7365 2220.0648,-57.5591 2230.5623,-56 2331.1635,-41.0587 2641.6201,-19.5405 2748.2015,-12.402"/>
<polygon fill="#191970" stroke="#191970" points="2748.6998,-15.8766 2758.4444,-11.7182 2748.2335,-8.8921 2748.6998,-15.8766"/>
</g>
<!-- Node33&#45;&gt;Node26 -->
<g id="edge50" class="edge">
<title>Node33&#45;&gt;Node26</title>
<path fill="none" stroke="#191970" d="M2143.8748,-61.8906C2128.8367,-52.0519 2105.2447,-36.6167 2087.6956,-25.1351"/>
<polygon fill="#191970" stroke="#191970" points="2089.4311,-22.088 2079.1467,-19.5419 2085.5986,-27.9457 2089.4311,-22.088"/>
</g>
<!-- Node36&#45;&gt;Node18 -->
<g id="edge57" class="edge">
<title>Node36&#45;&gt;Node18</title>
<path fill="none" stroke="#191970" d="M1999.855,-128.9645C1982.9089,-108.1236 1943.2272,-60.0449 1934.5623,-56 1867.635,-24.7574 679.1001,-26.8957 605.5623,-20 605.4605,-19.9905 605.3587,-19.9808 605.2568,-19.9712"/>
<polygon fill="#191970" stroke="#191970" points="605.9166,-16.5228 595.5934,-18.9062 605.1497,-23.4807 605.9166,-16.5228"/>
</g>
<!-- Node36&#45;&gt;Node29 -->
<g id="edge55" class="edge">
<title>Node36&#45;&gt;Node29</title>
<path fill="none" stroke="#191970" d="M2047.1566,-128.9791C2057.9365,-126.6924 2069.6501,-124.4848 2080.5623,-123 2339.5548,-87.7596 2408.6197,-122.6056 2667.5623,-87 2675.0488,-85.9706 2682.9161,-84.5903 2690.5893,-83.0761"/>
<polygon fill="#191970" stroke="#191970" points="2691.4306,-86.4763 2700.5164,-81.0266 2690.0152,-79.6209 2691.4306,-86.4763"/>
</g>
<!-- Node36&#45;&gt;Node33 -->
<g id="edge56" class="edge">
<title>Node36&#45;&gt;Node33</title>
<path fill="none" stroke="#191970" d="M2029.1969,-128.9005C2054.9867,-117.4574 2098.2729,-98.2509 2127.602,-85.2374"/>
<polygon fill="#191970" stroke="#191970" points="2129.2468,-88.3367 2136.9678,-81.0817 2126.4077,-81.9383 2129.2468,-88.3367"/>
</g>
<!-- Node37 -->
<g id="node31" class="node">
<title>Node37</title>
<polygon fill="#ffffff" stroke="#bfbfbf" points="1815.5623,-62 1815.5623,-81 1925.5623,-81 1925.5623,-62 1815.5623,-62"/>
<text text-anchor="middle" x="1870.5623" y="-69" font-family="Helvetica,sans-Serif" font-size="10.00" fill="#000000">AMReX_Geometry.H</text>
</g>
<!-- Node36&#45;&gt;Node37 -->
<g id="edge58" class="edge">
<title>Node36&#45;&gt;Node37</title>
<path fill="none" stroke="#191970" d="M1987.9336,-128.9005C1964.7384,-117.5569 1925.9438,-98.5844 1899.3492,-85.5783"/>
<polygon fill="#191970" stroke="#191970" points="1900.6756,-82.3308 1890.1547,-81.0817 1897.6003,-88.6191 1900.6756,-82.3308"/>
</g>
<!-- Node39&#45;&gt;Node9 -->
<g id="edge92" class="edge">
<title>Node39&#45;&gt;Node9</title>
<path fill="none" stroke="#191970" d="M1771.4432,-467.0436C1619.2659,-449.076 1215.5623,-396.079 1215.5623,-339.5 1215.5623,-339.5 1215.5623,-339.5 1215.5623,-272.5 1215.5623,-225.9606 1181.4449,-179.9975 1160.1809,-155.8702"/>
<polygon fill="#191970" stroke="#191970" points="1162.5926,-153.3202 1153.2726,-148.2815 1157.4162,-158.0325 1162.5926,-153.3202"/>
</g>
<!-- Node39&#45;&gt;Node21 -->
<g id="edge63" class="edge">
<title>Node39&#45;&gt;Node21</title>
<path fill="none" stroke="#191970" d="M1885.5916,-473.1751C2075.2129,-471.7043 2676.8586,-463.7608 2752.5623,-422 2855.9562,-364.9644 2906.5623,-323.582 2906.5623,-205.5 2906.5623,-205.5 2906.5623,-205.5 2906.5623,-138.5 2906.5623,-97.1517 2892.1076,-85.9139 2863.5623,-56 2850.6779,-42.4978 2832.9612,-31.694 2817.5703,-23.9585"/>
<polygon fill="#191970" stroke="#191970" points="2818.8824,-20.7063 2808.3518,-19.5419 2815.8579,-27.0191 2818.8824,-20.7063"/>
</g>
<!-- Node39&#45;&gt;Node36 -->
<g id="edge64" class="edge">
<title>Node39&#45;&gt;Node36</title>
<path fill="none" stroke="#191970" d="M1885.6027,-471.2062C2023.1021,-464.1286 2361.5623,-436.8226 2361.5623,-339.5 2361.5623,-339.5 2361.5623,-339.5 2361.5623,-272.5 2361.5623,-239.8537 2148.2599,-177.1486 2052.803,-150.7214"/>
<polygon fill="#191970" stroke="#191970" points="2053.6965,-147.3372 2043.126,-148.0549 2051.8369,-154.0857 2053.6965,-147.3372"/>
</g>
<!-- Node40 -->
<g id="node34" class="node">
<title>Node40</title>
<g id="a_node34"><a xlink:href="_a_b_l_field_init_8_h.html" target="_top" xlink:title="amr&#45;wind/wind_energy\l/ABLFieldInit.H">
<polygon fill="#ffffff" stroke="#000000" points="1411.5623,-123.5 1411.5623,-153.5 1525.5623,-153.5 1525.5623,-123.5 1411.5623,-123.5"/>
<text text-anchor="start" x="1419.5623" y="-141.5" font-family="Helvetica,sans-Serif" font-size="10.00" fill="#000000">amr&#45;wind/wind_energy</text>
<text text-anchor="middle" x="1468.5623" y="-130.5" font-family="Helvetica,sans-Serif" font-size="10.00" fill="#000000">/ABLFieldInit.H</text>
</a>
</g>
</g>
<!-- Node39&#45;&gt;Node40 -->
<g id="edge65" class="edge">
<title>Node39&#45;&gt;Node40</title>
<path fill="none" stroke="#191970" d="M1771.5228,-465.5694C1665.2365,-449.1817 1447.5623,-407.3388 1447.5623,-339.5 1447.5623,-339.5 1447.5623,-339.5 1447.5623,-272.5 1447.5623,-234.2118 1456.034,-190.5037 1462.2158,-163.7065"/>
<polygon fill="#191970" stroke="#191970" points="1465.6983,-164.1908 1464.6124,-153.6517 1458.8891,-162.5677 1465.6983,-164.1908"/>
</g>
<!-- Node44 -->
<g id="node38" class="node">
<title>Node44</title>
<g id="a_node38"><a xlink:href="_a_b_l_wall_function_8_h.html" target="_top" xlink:title="amr&#45;wind/wind_energy\l/ABLWallFunction.H">
<polygon fill="#ffffff" stroke="#000000" points="1686.5623,-324.5 1686.5623,-354.5 1800.5623,-354.5 1800.5623,-324.5 1686.5623,-324.5"/>
<text text-anchor="start" x="1694.5623" y="-342.5" font-family="Helvetica,sans-Serif" font-size="10.00" fill="#000000">amr&#45;wind/wind_energy</text>
<text text-anchor="middle" x="1743.5623" y="-331.5" font-family="Helvetica,sans-Serif" font-size="10.00" fill="#000000">/ABLWallFunction.H</text>
</a>
</g>
</g>
<!-- Node39&#45;&gt;Node44 -->
<g id="edge74" class="edge">
<title>Node39&#45;&gt;Node44</title>
<path fill="none" stroke="#191970" d="M1801.4078,-458.4502C1787.7794,-449.5544 1772.168,-437.0767 1762.5623,-422 1751.6784,-404.9171 1747.0066,-382.3182 1745.0127,-365.0928"/>
<polygon fill="#191970" stroke="#191970" points="1748.4543,-364.2976 1744.0508,-354.6612 1741.4839,-364.9404 1748.4543,-364.2976"/>
</g>
<!-- Node45 -->
<g id="node39" class="node">
<title>Node45</title>
<g id="a_node39"><a xlink:href="_field_plane_averaging_8_h.html" target="_top" xlink:title="amr&#45;wind/utilities\l/FieldPlaneAveraging.H">
<polygon fill="#ffffff" stroke="#000000" points="1561.0623,-257.5 1561.0623,-287.5 1680.0623,-287.5 1680.0623,-257.5 1561.0623,-257.5"/>
<text text-anchor="start" x="1569.0623" y="-275.5" font-family="Helvetica,sans-Serif" font-size="10.00" fill="#000000">amr&#45;wind/utilities</text>
<text text-anchor="middle" x="1620.5623" y="-264.5" font-family="Helvetica,sans-Serif" font-size="10.00" fill="#000000">/FieldPlaneAveraging.H</text>
</a>
</g>
</g>
<!-- Node39&#45;&gt;Node45 -->
<g id="edge93" class="edge">
<title>Node39&#45;&gt;Node45</title>
<path fill="none" stroke="#191970" d="M1790.0977,-458.4174C1748.4016,-440.1204 1682.8391,-405.3433 1645.5623,-355 1633.0981,-338.1668 1626.7903,-315.0818 1623.6327,-297.6116"/>
<polygon fill="#191970" stroke="#191970" points="1627.0634,-296.8975 1622.0469,-287.5656 1620.149,-297.989 1627.0634,-296.8975"/>
</g>
<!-- Node49 -->
<g id="node42" class="node">
<title>Node49</title>
<g id="a_node42"><a xlink:href="_a_b_l_boundary_plane_8_h.html" target="_top" xlink:title="amr&#45;wind/wind_energy\l/ABLBoundaryPlane.H">
<polygon fill="#ffffff" stroke="#000000" points="1857.0623,-257.5 1857.0623,-287.5 1972.0623,-287.5 1972.0623,-257.5 1857.0623,-257.5"/>
<text text-anchor="start" x="1865.0623" y="-275.5" font-family="Helvetica,sans-Serif" font-size="10.00" fill="#000000">amr&#45;wind/wind_energy</text>
<text text-anchor="middle" x="1914.5623" y="-264.5" font-family="Helvetica,sans-Serif" font-size="10.00" fill="#000000">/ABLBoundaryPlane.H</text>
</a>
</g>
</g>
<!-- Node39&#45;&gt;Node49 -->
<g id="edge85" class="edge">
<title>Node39&#45;&gt;Node49</title>
<path fill="none" stroke="#191970" d="M1856.9692,-458.3678C1870.5922,-449.596 1885.8152,-437.2564 1894.5623,-422 1916.9322,-382.9833 1918.2883,-329.0284 1916.7581,-297.741"/>
<polygon fill="#191970" stroke="#191970" points="1920.2463,-297.4421 1916.1262,-287.6812 1913.2601,-297.881 1920.2463,-297.4421"/>
</g>
<!-- Node54 -->
<g id="node44" class="node">
<title>Node54</title>
<g id="a_node44"><a xlink:href="_a_b_l_stats_8_h.html" target="_top" xlink:title="amr&#45;wind/wind_energy\l/ABLStats.H">
<polygon fill="#ffffff" stroke="#ff0000" points="1771.5623,-391.5 1771.5623,-421.5 1885.5623,-421.5 1885.5623,-391.5 1771.5623,-391.5"/>
<text text-anchor="start" x="1779.5623" y="-409.5" font-family="Helvetica,sans-Serif" font-size="10.00" fill="#000000">amr&#45;wind/wind_energy</text>
<text text-anchor="middle" x="1828.5623" y="-398.5" font-family="Helvetica,sans-Serif" font-size="10.00" fill="#000000">/ABLStats.H</text>
</a>
</g>
</g>
<!-- Node39&#45;&gt;Node54 -->
<g id="edge94" class="edge">
<title>Node39&#45;&gt;Node54</title>
<path fill="none" stroke="#191970" d="M1828.5623,-458.2967C1828.5623,-450.5013 1828.5623,-440.7991 1828.5623,-431.9064"/>
<polygon fill="#191970" stroke="#191970" points="1832.0624,-431.6431 1828.5623,-421.6432 1825.0624,-431.6432 1832.0624,-431.6431"/>
</g>
<!-- Node40&#45;&gt;Node10 -->
<g id="edge71" class="edge">
<title>Node40&#45;&gt;Node10</title>
<path fill="none" stroke="#191970" d="M1411.3424,-128.9284C1356.6914,-119.4608 1272.1404,-103.9625 1199.5623,-87 1195.1895,-85.978 1190.6442,-84.8428 1186.1186,-83.6646"/>
<polygon fill="#191970" stroke="#191970" points="1186.882,-80.2458 1176.3172,-81.0439 1185.0738,-87.0083 1186.882,-80.2458"/>
</g>
<!-- Node40&#45;&gt;Node20 -->
<g id="edge66" class="edge">
<title>Node40&#45;&gt;Node20</title>
<path fill="none" stroke="#191970" d="M1495.4927,-123.4639C1515.5364,-112.2728 1542.7406,-97.0838 1562.5589,-86.0186"/>
<polygon fill="#191970" stroke="#191970" points="1564.3362,-89.0349 1571.3613,-81.1039 1560.9237,-82.923 1564.3362,-89.0349"/>
</g>
<!-- Node40&#45;&gt;Node23 -->
<g id="edge73" class="edge">
<title>Node40&#45;&gt;Node23</title>
<path fill="none" stroke="#191970" d="M1525.7133,-127.0212C1563.2432,-118.4389 1612.9116,-105.0696 1654.5623,-87 1693.5597,-70.0815 1734.9005,-42.7752 1759.188,-25.6359"/>
<polygon fill="#191970" stroke="#191970" points="1761.5211,-28.2704 1767.621,-19.6078 1757.4503,-22.5758 1761.5211,-28.2704"/>
</g>
<!-- Node40&#45;&gt;Node26 -->
<g id="edge72" class="edge">
<title>Node40&#45;&gt;Node26</title>
<path fill="none" stroke="#191970" d="M1525.9183,-126.4183C1572.1453,-116.471 1638.7402,-101.6672 1696.5623,-87 1745.7963,-74.5113 1757.0558,-67.3604 1806.5623,-56 1874.7435,-40.3543 1954.0888,-26.9094 2006.5951,-18.6653"/>
<polygon fill="#191970" stroke="#191970" points="2007.3853,-22.0845 2016.7272,-17.0866 2006.3076,-15.1679 2007.3853,-22.0845"/>
</g>
<!-- Node40&#45;&gt;Node37 -->
<g id="edge70" class="edge">
<title>Node40&#45;&gt;Node37</title>
<path fill="none" stroke="#191970" d="M1525.7322,-128.9717C1599.5856,-116.6628 1727.8421,-95.2867 1805.3954,-82.3611"/>
<polygon fill="#191970" stroke="#191970" points="1806.2367,-85.7693 1815.5253,-80.6728 1805.0859,-78.8645 1806.2367,-85.7693"/>
</g>
<!-- Node41 -->
<g id="node35" class="node">
<title>Node41</title>
<polygon fill="#ffffff" stroke="#bfbfbf" points="1423.5623,-62 1423.5623,-81 1513.5623,-81 1513.5623,-62 1423.5623,-62"/>
<text text-anchor="middle" x="1468.5623" y="-69" font-family="Helvetica,sans-Serif" font-size="10.00" fill="#000000">AMReX_Array.H</text>
</g>
<!-- Node40&#45;&gt;Node41 -->
<g id="edge67" class="edge">
<title>Node40&#45;&gt;Node41</title>
<path fill="none" stroke="#191970" d="M1468.5623,-123.2967C1468.5623,-113.7699 1468.5623,-101.3954 1468.5623,-91.1306"/>
<polygon fill="#191970" stroke="#191970" points="1472.0624,-91.0549 1468.5623,-81.055 1465.0624,-91.055 1472.0624,-91.0549"/>
</g>
<!-- Node42 -->
<g id="node36" class="node">
<title>Node42</title>
<polygon fill="#ffffff" stroke="#bfbfbf" points="1208.0623,-62 1208.0623,-81 1303.0623,-81 1303.0623,-62 1208.0623,-62"/>
<text text-anchor="middle" x="1255.5623" y="-69" font-family="Helvetica,sans-Serif" font-size="10.00" fill="#000000">AMReX_Array4.H</text>
</g>
<!-- Node40&#45;&gt;Node42 -->
<g id="edge68" class="edge">
<title>Node40&#45;&gt;Node42</title>
<path fill="none" stroke="#191970" d="M1420.761,-123.4639C1382.9784,-111.5792 1330.8619,-95.1858 1295.3353,-84.0108"/>
<polygon fill="#191970" stroke="#191970" points="1296.3701,-80.6672 1285.7806,-81.0053 1294.2696,-87.3447 1296.3701,-80.6672"/>
</g>
<!-- Node43 -->
<g id="node37" class="node">
<title>Node43</title>
<polygon fill="#ffffff" stroke="#bfbfbf" points="1321.5623,-62 1321.5623,-81 1405.5623,-81 1405.5623,-62 1321.5623,-62"/>
<text text-anchor="middle" x="1363.5623" y="-69" font-family="Helvetica,sans-Serif" font-size="10.00" fill="#000000">AMReX_Box.H</text>
</g>
<!-- Node40&#45;&gt;Node43 -->
<g id="edge69" class="edge">
<title>Node40&#45;&gt;Node43</title>
<path fill="none" stroke="#191970" d="M1444.9983,-123.4639C1427.8568,-112.526 1404.7302,-97.769 1387.5021,-86.7759"/>
<polygon fill="#191970" stroke="#191970" points="1388.926,-83.5326 1378.6132,-81.1039 1385.1605,-89.4336 1388.926,-83.5326"/>
</g>
<!-- Node44&#45;&gt;Node8 -->
<g id="edge75" class="edge">
<title>Node44&#45;&gt;Node8</title>
<path fill="none" stroke="#191970" d="M1737.6983,-324.389C1728.1782,-299.8564 1709.3777,-251.4088 1698.9555,-224.5517"/>
<polygon fill="#191970" stroke="#191970" points="1702.17,-223.1606 1695.2893,-215.1042 1695.6442,-225.6931 1702.17,-223.1606"/>
</g>
<!-- Node44&#45;&gt;Node45 -->
<g id="edge76" class="edge">
<title>Node44&#45;&gt;Node45</title>
<path fill="none" stroke="#191970" d="M1715.9587,-324.4639C1698.672,-315.0475 1676.1892,-302.8008 1657.392,-292.5617"/>
<polygon fill="#191970" stroke="#191970" points="1658.9553,-289.4277 1648.4994,-287.7177 1655.6068,-295.5749 1658.9553,-289.4277"/>
</g>
<!-- Node47 -->
<g id="node41" class="node">
<title>Node47</title>
<g id="a_node41"><a xlink:href="_field_b_c_ops_8_h.html" target="_top" xlink:title="amr&#45;wind/core/FieldBCOps.H">
<polygon fill="#ffffff" stroke="#ff0000" points="1781.0623,-129 1781.0623,-148 1926.0623,-148 1926.0623,-129 1781.0623,-129"/>
<text text-anchor="middle" x="1853.5623" y="-136" font-family="Helvetica,sans-Serif" font-size="10.00" fill="#000000">amr&#45;wind/core/FieldBCOps.H</text>
</a>
</g>
</g>
<!-- Node44&#45;&gt;Node47 -->
<g id="edge81" class="edge">
<title>Node44&#45;&gt;Node47</title>
<path fill="none" stroke="#191970" d="M1751.8302,-324.3923C1771.6364,-288.201 1821.7551,-196.6205 1843.376,-157.1131"/>
<polygon fill="#191970" stroke="#191970" points="1846.4926,-158.7088 1848.2231,-148.2562 1840.352,-155.3482 1846.4926,-158.7088"/>
</g>
<!-- Node45&#45;&gt;Node8 -->
<g id="edge78" class="edge">
<title>Node45&#45;&gt;Node8</title>
<path fill="none" stroke="#191970" d="M1636.6733,-257.2967C1647.8428,-246.7564 1662.7064,-232.7303 1674.149,-221.9323"/>
<polygon fill="#191970" stroke="#191970" points="1676.566,-224.4638 1681.4369,-215.055 1671.7618,-219.3727 1676.566,-224.4638"/>
</g>
<!-- Node45&#45;&gt;Node9 -->
<g id="edge80" class="edge">
<title>Node45&#45;&gt;Node9</title>
<path fill="none" stroke="#191970" d="M1566.7716,-257.389C1471.5009,-230.6253 1274.9118,-175.399 1187.326,-150.7942"/>
<polygon fill="#191970" stroke="#191970" points="1188.022,-147.3543 1177.4481,-148.0193 1186.1288,-154.0934 1188.022,-147.3543"/>
</g>
<!-- Node45&#45;&gt;Node20 -->
<g id="edge79" class="edge">
<title>Node45&#45;&gt;Node20</title>
<path fill="none" stroke="#191970" d="M1618.1571,-257.3923C1612.4564,-221.5844 1598.1232,-131.5545 1591.7283,-91.386"/>
<polygon fill="#191970" stroke="#191970" points="1595.1443,-90.5815 1590.1155,-81.2562 1588.2314,-91.6821 1595.1443,-90.5815"/>
</g>
<!-- Node46 -->
<g id="node40" class="node">
<title>Node46</title>
<g id="a_node40"><a xlink:href="_direction_selector_8_h.html" target="_top" xlink:title="amr&#45;wind/utilities\l/DirectionSelector.H">
<polygon fill="#ffffff" stroke="#000000" points="1476.0623,-190.5 1476.0623,-220.5 1581.0623,-220.5 1581.0623,-190.5 1476.0623,-190.5"/>
<text text-anchor="start" x="1484.0623" y="-208.5" font-family="Helvetica,sans-Serif" font-size="10.00" fill="#000000">amr&#45;wind/utilities</text>
<text text-anchor="middle" x="1528.5623" y="-197.5" font-family="Helvetica,sans-Serif" font-size="10.00" fill="#000000">/DirectionSelector.H</text>
</a>
</g>
</g>
<!-- Node45&#45;&gt;Node46 -->
<g id="edge77" class="edge">
<title>Node45&#45;&gt;Node46</title>
<path fill="none" stroke="#191970" d="M1599.6861,-257.2967C1587.2175,-248.2163 1571.1965,-236.5488 1557.5176,-226.587"/>
<polygon fill="#191970" stroke="#191970" points="1559.4999,-223.7009 1549.3559,-220.6432 1555.3791,-229.3594 1559.4999,-223.7009"/>
</g>
<!-- Node47&#45;&gt;Node16 -->
<g id="edge82" class="edge">
<title>Node47&#45;&gt;Node16</title>
<path fill="none" stroke="#191970" d="M1836.3973,-128.9788C1802.7367,-110.8617 1725.1795,-71.8261 1654.5623,-56 1571.5149,-37.3882 1010.5931,-19.1952 787.1484,-12.5988"/>
<polygon fill="#191970" stroke="#191970" points="787.1865,-9.0985 777.0879,-12.3029 786.9807,-16.0955 787.1865,-9.0985"/>
</g>
<!-- Node47&#45;&gt;Node23 -->
<g id="edge83" class="edge">
<title>Node47&#45;&gt;Node23</title>
<path fill="none" stroke="#191970" d="M1842.4429,-128.8801C1831.902,-119.2313 1816.2752,-103.4754 1806.5623,-87 1795.8497,-68.8289 1788.7821,-45.6212 1784.7557,-29.4565"/>
<polygon fill="#191970" stroke="#191970" points="1788.1232,-28.485 1782.4466,-19.5392 1781.3055,-30.0724 1788.1232,-28.485"/>
</g>
<!-- Node47&#45;&gt;Node37 -->
<g id="edge84" class="edge">
<title>Node47&#45;&gt;Node37</title>
<path fill="none" stroke="#191970" d="M1855.998,-128.9005C1858.4975,-119.0495 1862.4569,-103.4451 1865.6168,-90.9912"/>
<polygon fill="#191970" stroke="#191970" points="1869.0642,-91.6353 1868.1312,-81.0817 1862.2792,-89.9137 1869.0642,-91.6353"/>
</g>
<!-- Node49&#45;&gt;Node8 -->
<g id="edge87" class="edge">
<title>Node49&#45;&gt;Node8</title>
<path fill="none" stroke="#191970" d="M1864.5168,-257.4639C1824.9603,-245.5792 1770.3971,-229.1858 1733.2026,-218.0108"/>
<polygon fill="#191970" stroke="#191970" points="1733.7835,-214.5308 1723.1993,-215.0053 1731.7693,-221.2348 1733.7835,-214.5308"/>
</g>
<!-- Node49&#45;&gt;Node20 -->
<g id="edge86" class="edge">
<title>Node49&#45;&gt;Node20</title>
<path fill="none" stroke="#191970" d="M1890.0593,-257.3923C1829.4794,-220.0409 1673.2124,-123.6922 1612.8548,-86.4779"/>
<polygon fill="#191970" stroke="#191970" points="1614.3696,-83.3001 1604.0206,-81.031 1610.6958,-89.2586 1614.3696,-83.3001"/>
</g>
<!-- Node49&#45;&gt;Node23 -->
<g id="edge88" class="edge">
<title>Node49&#45;&gt;Node23</title>
<path fill="none" stroke="#191970" d="M1972.1651,-257.8946C2111.4028,-221.2812 2450.305,-123.6774 2387.5623,-56 2368.8333,-35.798 1977.8514,-17.9855 1833.5006,-12.0744"/>
<polygon fill="#191970" stroke="#191970" points="1833.2704,-8.5623 1823.1365,-11.6532 1832.9861,-15.5565 1833.2704,-8.5623"/>
</g>
<!-- Node50 -->
<g id="node43" class="node">
<title>Node50</title>
<g id="a_node43"><a xlink:href="nc__interface_8_h.html" target="_top" xlink:title="Interface to NetCDF library. ">
<polygon fill="#ffffff" stroke="#ff0000" points="2435.0623,-56.5 2435.0623,-86.5 2550.0623,-86.5 2550.0623,-56.5 2435.0623,-56.5"/>
<text text-anchor="start" x="2443.0623" y="-74.5" font-family="Helvetica,sans-Serif" font-size="10.00" fill="#000000">amr&#45;wind/utilities</text>
<text text-anchor="middle" x="2492.5623" y="-63.5" font-family="Helvetica,sans-Serif" font-size="10.00" fill="#000000">/ncutils/nc_interface.H</text>
</a>
</g>
</g>
<!-- Node49&#45;&gt;Node50 -->
<g id="edge89" class="edge">
<title>Node49&#45;&gt;Node50</title>
<path fill="none" stroke="#191970" d="M1972.1988,-268.4806C2064.6807,-261.4167 2241.7012,-245.1924 2299.5623,-221 2370.8784,-191.1819 2438.5358,-127.9726 2471.5519,-94.0829"/>
<polygon fill="#191970" stroke="#191970" points="2474.4043,-96.1659 2478.8086,-86.5299 2469.3564,-91.3162 2474.4043,-96.1659"/>
</g>
<!-- Node50&#45;&gt;Node14 -->
<g id="edge90" class="edge">
<title>Node50&#45;&gt;Node14</title>
<path fill="none" stroke="#191970" d="M2434.9139,-62.0167C2419.5612,-59.7579 2402.9625,-57.5546 2387.5623,-56 2096.1616,-26.5832 2018.2046,-69.6526 1729.5623,-20 1728.4708,-19.8122 1727.3648,-19.6015 1726.2515,-19.3718"/>
<polygon fill="#191970" stroke="#191970" points="1726.7872,-15.8993 1716.2405,-16.908 1725.1143,-22.6964 1726.7872,-15.8993"/>
</g>
<!-- Node50&#45;&gt;Node15 -->
<g id="edge91" class="edge">
<title>Node50&#45;&gt;Node15</title>
<path fill="none" stroke="#191970" d="M2434.7709,-56.691C2393.3904,-46.0872 2338.3684,-31.9878 2299.6526,-22.0669"/>
<polygon fill="#191970" stroke="#191970" points="2300.2414,-18.6047 2289.6855,-19.5128 2298.5037,-25.3857 2300.2414,-18.6047"/>
</g>
<!-- Node54&#45;&gt;Node8 -->
<g id="edge96" class="edge">
<title>Node54&#45;&gt;Node8</title>
<path fill="none" stroke="#191970" d="M1827.5743,-391.309C1825.9021,-374.0459 1821.4337,-345.4837 1809.5623,-324 1785.3614,-280.2037 1740.2636,-241.6683 1713.3747,-221.1606"/>
<polygon fill="#191970" stroke="#191970" points="1715.4395,-218.3344 1705.3339,-215.1519 1711.2493,-223.9417 1715.4395,-218.3344"/>
</g>
<!-- Node54&#45;&gt;Node21 -->
<g id="edge95" class="edge">
<title>Node54&#45;&gt;Node21</title>
<path fill="none" stroke="#191970" d="M1885.7178,-396.8452C2078.3112,-363.0397 2697.8526,-243.5237 2811.5623,-87 2824.4885,-69.2068 2811.8067,-44.6761 2799.8227,-28.1236"/>
<polygon fill="#191970" stroke="#191970" points="2802.2962,-25.6017 2793.4037,-19.842 2796.7636,-29.89 2802.2962,-25.6017"/>
</g>
<!-- Node54&#45;&gt;Node44 -->
<g id="edge101" class="edge">
<title>Node54&#45;&gt;Node44</title>
<path fill="none" stroke="#191970" d="M1809.2745,-391.2967C1797.8633,-382.302 1783.2316,-370.7687 1770.6728,-360.8694"/>
<polygon fill="#191970" stroke="#191970" points="1772.7941,-358.0849 1762.7738,-354.6432 1768.4607,-363.5824 1772.7941,-358.0849"/>
</g>
<!-- Node54&#45;&gt;Node45 -->
<g id="edge97" class="edge">
<title>Node54&#45;&gt;Node45</title>
<path fill="none" stroke="#191970" d="M1771.3749,-396.0662C1741.2409,-388.4457 1704.9573,-375.7155 1677.5623,-355 1657.342,-339.7099 1641.6825,-315.1212 1631.9376,-296.7595"/>
<polygon fill="#191970" stroke="#191970" points="1635.0389,-295.1364 1627.388,-287.8073 1628.7985,-298.3079 1635.0389,-295.1364"/>
</g>
<!-- Node54&#45;&gt;Node57 -->
<g id="edge98" class="edge">
<title>Node54&#45;&gt;Node57</title>
<path fill="none" stroke="#191970" d="M1885.8422,-404.0195C2041.8954,-397.0569 2472.2445,-376.4371 2612.5623,-355 2613.8655,-354.8009 2615.1811,-354.5883 2616.5054,-354.3638"/>
<polygon fill="#191970" stroke="#191970" points="2617.5838,-357.7226 2626.7658,-352.4367 2616.2916,-350.8428 2617.5838,-357.7226"/>
</g>
<!-- Node57&#45;&gt;Node21 -->
<g id="edge99" class="edge">
<title>Node57&#45;&gt;Node21</title>
<path fill="none" stroke="#191970" d="M2699.9322,-324.3768C2729.1712,-304.2512 2778.7683,-265.9304 2806.5623,-221 2846.1514,-157.0022 2877.8599,-123.4854 2844.5623,-56 2838.083,-42.8681 2825.8561,-32.4457 2814.1216,-24.8651"/>
<polygon fill="#191970" stroke="#191970" points="2815.7275,-21.7475 2805.3475,-19.6244 2812.1379,-27.7572 2815.7275,-21.7475"/>
</g>
<!-- Node57&#45;&gt;Node29 -->
<g id="edge100" class="edge">
<title>Node57&#45;&gt;Node29</title>
<path fill="none" stroke="#191970" d="M2680.13,-324.3233C2690.8972,-278.52 2723.0589,-141.7051 2735.0177,-90.8328"/>
<polygon fill="#191970" stroke="#191970" points="2738.426,-91.6282 2737.3074,-81.0926 2731.6118,-90.0262 2738.426,-91.6282"/>
</g>
<!-- Node61&#45;&gt;Node2 -->
<g id="edge103" class="edge">
<title>Node61&#45;&gt;Node2</title>
<path fill="none" stroke="#191970" d="M327.2305,-461.2053C223.0162,-441.621 44.5623,-399.3477 44.5623,-339.5 44.5623,-339.5 44.5623,-339.5 44.5623,-205.5 44.5623,-164.1928 55.3102,-116.7421 62.1116,-90.85"/>
<polygon fill="#191970" stroke="#191970" points="65.5016,-91.7216 64.7421,-81.1541 58.7458,-89.8888 65.5016,-91.7216"/>
</g>
<!-- Node62 -->
<g id="node47" class="node">
<title>Node62</title>
<polygon fill="#ffffff" stroke="#bfbfbf" points="350.0623,-397 350.0623,-416 451.0623,-416 451.0623,-397 350.0623,-397"/>
<text text-anchor="middle" x="400.5623" y="-404" font-family="Helvetica,sans-Serif" font-size="10.00" fill="#000000">AMReX_TagBox.H</text>
</g>
<!-- Node61&#45;&gt;Node62 -->
<g id="edge104" class="edge">
<title>Node61&#45;&gt;Node62</title>
<path fill="none" stroke="#191970" d="M400.5623,-458.2967C400.5623,-448.7699 400.5623,-436.3954 400.5623,-426.1306"/>
<polygon fill="#191970" stroke="#191970" points="404.0624,-426.0549 400.5623,-416.055 397.0624,-426.055 404.0624,-426.0549"/>
</g>
<!-- Node63&#45;&gt;Node14 -->
<g id="edge107" class="edge">
<title>Node63&#45;&gt;Node14</title>
<path fill="none" stroke="#191970" d="M2568.3657,-57.6883C2565.4031,-57.0433 2562.4503,-56.4703 2559.5623,-56 2195.1275,3.3487 2093.8015,-80.5382 1729.5623,-20 1728.4698,-19.8184 1727.3628,-19.6129 1726.2488,-19.3878"/>
<polygon fill="#191970" stroke="#191970" points="1726.7785,-15.9145 1716.234,-16.9462 1725.1204,-22.7153 1726.7785,-15.9145"/>
</g>
<!-- Node63&#45;&gt;Node15 -->
<g id="edge108" class="edge">
<title>Node63&#45;&gt;Node15</title>
<path fill="none" stroke="#191970" d="M2568.2984,-58.0424C2565.3522,-57.3107 2562.4216,-56.6218 2559.5623,-56 2470.7,-36.676 2365.6036,-22.8412 2304.2808,-15.6548"/>
<polygon fill="#191970" stroke="#191970" points="2304.4254,-12.1482 2294.0892,-14.4745 2303.6201,-19.1017 2304.4254,-12.1482"/>
</g>
<!-- Node63&#45;&gt;Node26 -->
<g id="edge110" class="edge">
<title>Node63&#45;&gt;Node26</title>
<path fill="none" stroke="#191970" d="M2568.3365,-57.8545C2565.381,-57.1687 2562.4379,-56.5414 2559.5623,-56 2517.5304,-48.0866 2243.8116,-24.8486 2122.3999,-14.7624"/>
<polygon fill="#191970" stroke="#191970" points="2122.4368,-11.2536 2112.1817,-13.9147 2121.858,-18.2296 2122.4368,-11.2536"/>
</g>
<!-- Node64 -->
<g id="node49" class="node">
<title>Node64</title>
<polygon fill="#ffffff" stroke="#bfbfbf" points="2598.5623,-.5 2598.5623,-19.5 2628.5623,-19.5 2628.5623,-.5 2598.5623,-.5"/>
<text text-anchor="middle" x="2613.5623" y="-7.5" font-family="Helvetica,sans-Serif" font-size="10.00" fill="#000000">set</text>
</g>
<!-- Node63&#45;&gt;Node64 -->
<g id="edge109" class="edge">
<title>Node63&#45;&gt;Node64</title>
<path fill="none" stroke="#191970" d="M2613.5623,-56.2977C2613.5623,-48.3834 2613.5623,-38.6043 2613.5623,-30.0759"/>
<polygon fill="#191970" stroke="#191970" points="2617.0624,-29.8469 2613.5623,-19.8469 2610.0624,-29.847 2617.0624,-29.8469"/>
</g>
<!-- Node65&#45;&gt;Node29 -->
<g id="edge113" class="edge">
<title>Node65&#45;&gt;Node29</title>
<path fill="none" stroke="#191970" d="M2701.1448,-391.3552C2713.1086,-382.1908 2727.0498,-369.4886 2735.5623,-355 2754.6227,-322.5585 2754.5623,-310.1265 2754.5623,-272.5 2754.5623,-272.5 2754.5623,-272.5 2754.5623,-205.5 2754.5623,-164.7168 2747.6153,-117.3825 2743.1767,-91.302"/>
<polygon fill="#191970" stroke="#191970" points="2746.5811,-90.4525 2741.4016,-81.21 2739.6869,-91.6652 2746.5811,-90.4525"/>
</g>
</g>
</svg>
