<?xml version="1.0" encoding="UTF-8" standalone="no"?>
<!DOCTYPE svg PUBLIC "-//W3C//DTD SVG 1.1//EN"
 "http://www.w3.org/Graphics/SVG/1.1/DTD/svg11.dtd">
<!-- Generated by graphviz version 2.40.1 (20161225.0304)
 -->
<!-- Title: Graphical Class Hierarchy Pages: 1 -->
<svg width="340pt" height="142pt"
 viewBox="0.00 0.00 340.00 142.00" xmlns="http://www.w3.org/2000/svg" xmlns:xlink="http://www.w3.org/1999/xlink">
<g id="graph0" class="graph" transform="scale(1 1) rotate(0) translate(4 138)">
<title>Graphical Class Hierarchy</title>
<polygon fill="#ffffff" stroke="transparent" points="-4,4 -4,-138 336,-138 336,4 -4,4"/>
<!-- Node0 -->
<g id="node1" class="node">
<title>Node0</title>
<g id="a_node1"><a xlink:href="structamr__wind_1_1pde_1_1_scalar_transport.html" target="_top" xlink:title="Characteristics of a scalar transport equationThis class defines common characteristics of a scalar t...">
<polygon fill="#ffffff" stroke="#000000" points="0,-57.5 0,-76.5 155,-76.5 155,-57.5 0,-57.5"/>
<text text-anchor="middle" x="77.5" y="-64.5" font-family="Helvetica,sans-Serif" font-size="10.00" fill="#000000">amr_wind::pde::ScalarTransport</text>
</a>
</g>
</g>
<!-- Node1 -->
<g id="node2" class="node">
<title>Node1</title>
<g id="a_node2"><a xlink:href="structamr__wind_1_1pde_1_1_density.html" target="_top" xlink:title="amr_wind::pde::Density">
<polygon fill="#ffffff" stroke="#000000" points="201.5,-114.5 201.5,-133.5 321.5,-133.5 321.5,-114.5 201.5,-114.5"/>
<text text-anchor="middle" x="261.5" y="-121.5" font-family="Helvetica,sans-Serif" font-size="10.00" fill="#000000">amr_wind::pde::Density</text>
</a>
</g>
</g>
<!-- Node0&#45;&gt;Node1 -->
<g id="edge1" class="edge">
<title>Node0&#45;&gt;Node1</title>
<path fill="none" stroke="#191970" d="M114.0855,-79.8677C136.2394,-87.5047 165.1231,-97.1889 191,-105 201.8006,-108.2602 213.6123,-111.55 224.4268,-114.4548"/>
<polygon fill="#191970" stroke="#191970" points="115.01,-76.4839 104.4152,-76.5169 112.7181,-83.0981 115.01,-76.4839"/>
</g>
<!-- Node2 -->
<g id="node3" class="node">
<title>Node2</title>
<g id="a_node3"><a xlink:href="structamr__wind_1_1pde_1_1_s_d_r.html" target="_top" xlink:title="amr_wind::pde::SDR">
<polygon fill="#ffffff" stroke="#000000" points="207.5,-76.5 207.5,-95.5 315.5,-95.5 315.5,-76.5 207.5,-76.5"/>
<text text-anchor="middle" x="261.5" y="-83.5" font-family="Helvetica,sans-Serif" font-size="10.00" fill="#000000">amr_wind::pde::SDR</text>
</a>
</g>
</g>
<!-- Node0&#45;&gt;Node2 -->
<g id="edge2" class="edge">
<title>Node0&#45;&gt;Node2</title>
<path fill="none" stroke="#191970" d="M165.6144,-76.0988C179.8836,-77.5722 194.2778,-79.0586 207.4205,-80.4157"/>
<polygon fill="#191970" stroke="#191970" points="165.5725,-72.5759 155.2659,-75.0302 164.8534,-79.5389 165.5725,-72.5759"/>
</g>
<!-- Node3 -->
<g id="node4" class="node">
<title>Node3</title>
<g id="a_node4"><a xlink:href="structamr__wind_1_1pde_1_1_temperature.html" target="_top" xlink:title="Characteristics of temperature transport equation. ">
<polygon fill="#ffffff" stroke="#000000" points="191,-38.5 191,-57.5 332,-57.5 332,-38.5 191,-38.5"/>
<text text-anchor="middle" x="261.5" y="-45.5" font-family="Helvetica,sans-Serif" font-size="10.00" fill="#000000">amr_wind::pde::Temperature</text>
</a>
</g>
</g>
<!-- Node0&#45;&gt;Node3 -->
<g id="edge3" class="edge">
<title>Node0&#45;&gt;Node3</title>
<path fill="none" stroke="#191970" d="M165.2545,-57.9384C173.7976,-57.0562 182.3896,-56.169 190.735,-55.3073"/>
<polygon fill="#191970" stroke="#191970" points="164.8534,-54.4611 155.2659,-58.9698 165.5725,-61.4241 164.8534,-54.4611"/>
</g>
<!-- Node4 -->
<g id="node5" class="node">
<title>Node4</title>
<g id="a_node5"><a xlink:href="structamr__wind_1_1pde_1_1_t_k_e.html" target="_top" xlink:title="amr_wind::pde::TKE">
<polygon fill="#ffffff" stroke="#000000" points="208.5,-.5 208.5,-19.5 314.5,-19.5 314.5,-.5 208.5,-.5"/>
<text text-anchor="middle" x="261.5" y="-7.5" font-family="Helvetica,sans-Serif" font-size="10.00" fill="#000000">amr_wind::pde::TKE</text>
</a>
</g>
</g>
<!-- Node0&#45;&gt;Node4 -->
<g id="edge4" class="edge">
<title>Node0&#45;&gt;Node4</title>
<path fill="none" stroke="#191970" d="M114.0855,-54.1323C136.2394,-46.4953 165.1231,-36.8111 191,-29 201.8006,-25.7398 213.6123,-22.45 224.4268,-19.5452"/>
<polygon fill="#191970" stroke="#191970" points="112.7181,-50.9019 104.4152,-57.4831 115.01,-57.5161 112.7181,-50.9019"/>
</g>
</g>
</svg>
