<?xml version="1.0" encoding="UTF-8" standalone="no"?>
<!DOCTYPE svg PUBLIC "-//W3C//DTD SVG 1.1//EN"
 "http://www.w3.org/Graphics/SVG/1.1/DTD/svg11.dtd">
<!-- Generated by graphviz version 2.40.1 (20161225.0304)
 -->
<!-- Title: Graphical Class Hierarchy Pages: 1 -->
<svg width="445pt" height="142pt"
 viewBox="0.00 0.00 445.00 142.00" xmlns="http://www.w3.org/2000/svg" xmlns:xlink="http://www.w3.org/1999/xlink">
<g id="graph0" class="graph" transform="scale(1 1) rotate(0) translate(4 138)">
<title>Graphical Class Hierarchy</title>
<polygon fill="#ffffff" stroke="transparent" points="-4,4 -4,-138 441,-138 441,4 -4,4"/>
<!-- Node0 -->
<g id="node1" class="node">
<title>Node0</title>
<g id="a_node1"><a xlink:href="classamr__wind_1_1_b_c_iface.html" target="_top" xlink:title="Abstract class that defines the interface for processing BCsThis class defines the infrastructure to ...">
<polygon fill="#ffffff" stroke="#000000" points="0,-57.5 0,-76.5 101,-76.5 101,-57.5 0,-57.5"/>
<text text-anchor="middle" x="50.5" y="-64.5" font-family="Helvetica,sans-Serif" font-size="10.00" fill="#000000">amr_wind::BCIface</text>
</a>
</g>
</g>
<!-- Node1 -->
<g id="node2" class="node">
<title>Node1</title>
<g id="a_node2"><a xlink:href="classamr__wind_1_1_b_c_fill_patch_extrap.html" target="_top" xlink:title="Default BC that can be applied on any fieldThis operator is used to initialize defaults for any field...">
<polygon fill="#ffffff" stroke="#000000" points="137,-114.5 137,-133.5 283,-133.5 283,-114.5 137,-114.5"/>
<text text-anchor="middle" x="210" y="-121.5" font-family="Helvetica,sans-Serif" font-size="10.00" fill="#000000">amr_wind::BCFillPatchExtrap</text>
</a>
</g>
</g>
<!-- Node0&#45;&gt;Node1 -->
<g id="edge1" class="edge">
<title>Node0&#45;&gt;Node1</title>
<path fill="none" stroke="#191970" d="M78.9148,-80.8523C95.5761,-88.6268 117.1826,-98.1172 137,-105 147.1442,-108.5232 158.2796,-111.7387 168.7304,-114.4822"/>
<polygon fill="#191970" stroke="#191970" points="80.2634,-77.6185 69.7272,-76.5058 77.2699,-83.9461 80.2634,-77.6185"/>
</g>
<!-- Node2 -->
<g id="node3" class="node">
<title>Node2</title>
<g id="a_node3"><a xlink:href="classamr__wind_1_1_b_c_scalar.html" target="_top" xlink:title="Boundary condition initialization for scalar transport variables. ">
<polygon fill="#ffffff" stroke="#000000" points="156.5,-76.5 156.5,-95.5 263.5,-95.5 263.5,-76.5 156.5,-76.5"/>
<text text-anchor="middle" x="210" y="-83.5" font-family="Helvetica,sans-Serif" font-size="10.00" fill="#000000">amr_wind::BCScalar</text>
</a>
</g>
</g>
<!-- Node0&#45;&gt;Node2 -->
<g id="edge2" class="edge">
<title>Node0&#45;&gt;Node2</title>
<path fill="none" stroke="#191970" d="M111.4508,-74.2606C126.2099,-76.0187 141.8799,-77.8854 156.2785,-79.6006"/>
<polygon fill="#191970" stroke="#191970" points="111.7492,-70.7715 101.4053,-73.064 110.9211,-77.7223 111.7492,-70.7715"/>
</g>
<!-- Node4 -->
<g id="node5" class="node">
<title>Node4</title>
<g id="a_node5"><a xlink:href="classamr__wind_1_1_b_c_src_term.html" target="_top" xlink:title="Specialization for source termsSets a default first&#45;order extrapolation for non&#45;periodic BCs and a no...">
<polygon fill="#ffffff" stroke="#000000" points="152,-38.5 152,-57.5 268,-57.5 268,-38.5 152,-38.5"/>
<text text-anchor="middle" x="210" y="-45.5" font-family="Helvetica,sans-Serif" font-size="10.00" fill="#000000">amr_wind::BCSrcTerm</text>
</a>
</g>
</g>
<!-- Node0&#45;&gt;Node4 -->
<g id="edge4" class="edge">
<title>Node0&#45;&gt;Node4</title>
<path fill="none" stroke="#191970" d="M111.3799,-59.7479C124.6462,-58.1675 138.6517,-56.4992 151.8104,-54.9317"/>
<polygon fill="#191970" stroke="#191970" points="110.9211,-56.2777 101.4053,-60.936 111.7492,-63.2285 110.9211,-56.2777"/>
</g>
<!-- Node5 -->
<g id="node6" class="node">
<title>Node5</title>
<g id="a_node6"><a xlink:href="classamr__wind_1_1_b_c_velocity.html" target="_top" xlink:title="Boundary condition initialization for velocity (ICNS momentum) field. ">
<polygon fill="#ffffff" stroke="#000000" points="153,-.5 153,-19.5 267,-19.5 267,-.5 153,-.5"/>
<text text-anchor="middle" x="210" y="-7.5" font-family="Helvetica,sans-Serif" font-size="10.00" fill="#000000">amr_wind::BCVelocity</text>
</a>
</g>
</g>
<!-- Node0&#45;&gt;Node5 -->
<g id="edge5" class="edge">
<title>Node0&#45;&gt;Node5</title>
<path fill="none" stroke="#191970" d="M78.9148,-53.1477C95.5761,-45.3732 117.1826,-35.8828 137,-29 147.1442,-25.4768 158.2796,-22.2613 168.7304,-19.5178"/>
<polygon fill="#191970" stroke="#191970" points="77.2699,-50.0539 69.7272,-57.4942 80.2634,-56.3815 77.2699,-50.0539"/>
</g>
<!-- Node3 -->
<g id="node4" class="node">
<title>Node3</title>
<g id="a_node4"><a xlink:href="classamr__wind_1_1_b_c_pressure.html" target="_top" xlink:title="Specialization of BC initialization for pressure. ">
<polygon fill="#ffffff" stroke="#000000" points="319,-76.5 319,-95.5 437,-95.5 437,-76.5 319,-76.5"/>
<text text-anchor="middle" x="378" y="-83.5" font-family="Helvetica,sans-Serif" font-size="10.00" fill="#000000">amr_wind::BCPressure</text>
</a>
</g>
</g>
<!-- Node2&#45;&gt;Node3 -->
<g id="edge3" class="edge">
<title>Node2&#45;&gt;Node3</title>
<path fill="none" stroke="#191970" d="M273.6948,-86C288.4917,-86 304.1828,-86 318.7778,-86"/>
<polygon fill="#191970" stroke="#191970" points="273.6182,-82.5001 263.6182,-86 273.6181,-89.5001 273.6182,-82.5001"/>
</g>
</g>
</svg>
