<?xml version="1.0" encoding="UTF-8" standalone="no"?>
<!DOCTYPE svg PUBLIC "-//W3C//DTD SVG 1.1//EN"
 "http://www.w3.org/Graphics/SVG/1.1/DTD/svg11.dtd">
<!-- Generated by graphviz version 2.40.1 (20161225.0304)
 -->
<!-- Title: io_utils.H Pages: 1 -->
<svg width="357pt" height="84pt"
 viewBox="0.00 0.00 356.50 84.00" xmlns="http://www.w3.org/2000/svg" xmlns:xlink="http://www.w3.org/1999/xlink">
<g id="graph0" class="graph" transform="scale(1 1) rotate(0) translate(4 80)">
<title>io_utils.H</title>
<polygon fill="#ffffff" stroke="transparent" points="-4,4 -4,-80 352.5,-80 352.5,4 -4,4"/>
<!-- Node0 -->
<g id="node1" class="node">
<title>Node0</title>
<polygon fill="#bfbfbf" stroke="#000000" points="115,-56.5 115,-75.5 173,-75.5 173,-56.5 115,-56.5"/>
<text text-anchor="middle" x="144" y="-63.5" font-family="Helvetica,sans-Serif" font-size="10.00" fill="#000000">io_utils.H</text>
</g>
<!-- Node1 -->
<g id="node2" class="node">
<title>Node1</title>
<polygon fill="#ffffff" stroke="#bfbfbf" points="0,-.5 0,-19.5 46,-19.5 46,-.5 0,-.5"/>
<text text-anchor="middle" x="23" y="-7.5" font-family="Helvetica,sans-Serif" font-size="10.00" fill="#000000">chrono</text>
</g>
<!-- Node0&#45;&gt;Node1 -->
<g id="edge1" class="edge">
<title>Node0&#45;&gt;Node1</title>
<path fill="none" stroke="#191970" d="M123.1994,-56.3733C103.7757,-47.3838 74.5776,-33.8706 52.7036,-23.7471"/>
<polygon fill="#191970" stroke="#191970" points="54.0745,-20.5249 43.5292,-19.5011 51.1344,-26.8776 54.0745,-20.5249"/>
</g>
<!-- Node2 -->
<g id="node3" class="node">
<title>Node2</title>
<polygon fill="#ffffff" stroke="#bfbfbf" points="64.5,-.5 64.5,-19.5 105.5,-19.5 105.5,-.5 64.5,-.5"/>
<text text-anchor="middle" x="85" y="-7.5" font-family="Helvetica,sans-Serif" font-size="10.00" fill="#000000">ctime</text>
</g>
<!-- Node0&#45;&gt;Node2 -->
<g id="edge2" class="edge">
<title>Node0&#45;&gt;Node2</title>
<path fill="none" stroke="#191970" d="M133.723,-56.2455C125.1782,-48.1352 112.8222,-36.4075 102.6915,-26.7919"/>
<polygon fill="#191970" stroke="#191970" points="104.8218,-23.9884 95.1592,-19.6427 100.0028,-29.0655 104.8218,-23.9884"/>
</g>
<!-- Node3 -->
<g id="node4" class="node">
<title>Node3</title>
<polygon fill="#ffffff" stroke="#bfbfbf" points="123.5,-.5 123.5,-19.5 164.5,-19.5 164.5,-.5 123.5,-.5"/>
<text text-anchor="middle" x="144" y="-7.5" font-family="Helvetica,sans-Serif" font-size="10.00" fill="#000000">string</text>
</g>
<!-- Node0&#45;&gt;Node3 -->
<g id="edge3" class="edge">
<title>Node0&#45;&gt;Node3</title>
<path fill="none" stroke="#191970" d="M144,-56.2455C144,-48.9382 144,-38.6944 144,-29.7046"/>
<polygon fill="#191970" stroke="#191970" points="147.5001,-29.6426 144,-19.6427 140.5001,-29.6427 147.5001,-29.6426"/>
</g>
<!-- Node4 -->
<g id="node5" class="node">
<title>Node4</title>
<polygon fill="#ffffff" stroke="#bfbfbf" points="183,-.5 183,-19.5 235,-19.5 235,-.5 183,-.5"/>
<text text-anchor="middle" x="209" y="-7.5" font-family="Helvetica,sans-Serif" font-size="10.00" fill="#000000">sstream</text>
</g>
<!-- Node0&#45;&gt;Node4 -->
<g id="edge4" class="edge">
<title>Node0&#45;&gt;Node4</title>
<path fill="none" stroke="#191970" d="M155.3221,-56.2455C164.9223,-47.9746 178.8892,-35.9416 190.1695,-26.2232"/>
<polygon fill="#191970" stroke="#191970" points="192.516,-28.8214 197.8076,-19.6427 187.947,-23.5182 192.516,-28.8214"/>
</g>
<!-- Node5 -->
<g id="node6" class="node">
<title>Node5</title>
<polygon fill="#ffffff" stroke="#bfbfbf" points="253.5,-.5 253.5,-19.5 348.5,-19.5 348.5,-.5 253.5,-.5"/>
<text text-anchor="middle" x="301" y="-7.5" font-family="Helvetica,sans-Serif" font-size="10.00" fill="#000000">AMReX_Vector.H</text>
</g>
<!-- Node0&#45;&gt;Node5 -->
<g id="edge5" class="edge">
<title>Node0&#45;&gt;Node5</title>
<path fill="none" stroke="#191970" d="M170.9893,-56.3733C196.8699,-47.1419 236.1248,-33.1402 264.7289,-22.9375"/>
<polygon fill="#191970" stroke="#191970" points="266.12,-26.1573 274.3629,-19.5011 263.7683,-19.5642 266.12,-26.1573"/>
</g>
</g>
</svg>
