<?xml version="1.0" encoding="UTF-8" standalone="no"?>
<!DOCTYPE svg PUBLIC "-//W3C//DTD SVG 1.1//EN"
 "http://www.w3.org/Graphics/SVG/1.1/DTD/svg11.dtd">
<!-- Generated by graphviz version 2.40.1 (20161225.0304)
 -->
<!-- Title: io_utils.H Pages: 1 -->
<svg width="281pt" height="84pt"
 viewBox="0.00 0.00 281.00 84.00" xmlns="http://www.w3.org/2000/svg" xmlns:xlink="http://www.w3.org/1999/xlink">
<g id="graph0" class="graph" transform="scale(1 1) rotate(0) translate(4 80)">
<title>io_utils.H</title>
<polygon fill="#ffffff" stroke="transparent" points="-4,4 -4,-80 277,-80 277,4 -4,4"/>
<!-- Node6 -->
<g id="node1" class="node">
<title>Node6</title>
<polygon fill="#bfbfbf" stroke="#000000" points="110.5,-56.5 110.5,-75.5 168.5,-75.5 168.5,-56.5 110.5,-56.5"/>
<text text-anchor="middle" x="139.5" y="-63.5" font-family="Helvetica,sans-Serif" font-size="10.00" fill="#000000">io_utils.H</text>
</g>
<!-- Node7 -->
<g id="node2" class="node">
<title>Node7</title>
<g id="a_node2"><a xlink:href="_i_o_manager_8cpp.html" target="_top" xlink:title="IOManager.cpp">
<polygon fill="#ffffff" stroke="#000000" points="0,-.5 0,-19.5 83,-19.5 83,-.5 0,-.5"/>
<text text-anchor="middle" x="41.5" y="-7.5" font-family="Helvetica,sans-Serif" font-size="10.00" fill="#000000">IOManager.cpp</text>
</a>
</g>
</g>
<!-- Node6&#45;&gt;Node7 -->
<g id="edge1" class="edge">
<title>Node6&#45;&gt;Node7</title>
<path fill="none" stroke="#191970" d="M113.3314,-51.0465C95.8942,-41.0824 73.4889,-28.2794 58.3747,-19.6427"/>
<polygon fill="#191970" stroke="#191970" points="112.0108,-54.323 122.4297,-56.2455 115.4838,-48.2453 112.0108,-54.323"/>
</g>
<!-- Node8 -->
<g id="node3" class="node">
<title>Node8</title>
<g id="a_node3"><a xlink:href="_sampling_8cpp.html" target="_top" xlink:title="Sampling.cpp">
<polygon fill="#ffffff" stroke="#000000" points="101.5,-.5 101.5,-19.5 177.5,-19.5 177.5,-.5 101.5,-.5"/>
<text text-anchor="middle" x="139.5" y="-7.5" font-family="Helvetica,sans-Serif" font-size="10.00" fill="#000000">Sampling.cpp</text>
</a>
</g>
</g>
<!-- Node6&#45;&gt;Node8 -->
<g id="edge2" class="edge">
<title>Node6&#45;&gt;Node8</title>
<path fill="none" stroke="#191970" d="M139.5,-46.1575C139.5,-37.155 139.5,-26.9199 139.5,-19.6427"/>
<polygon fill="#191970" stroke="#191970" points="136.0001,-46.2455 139.5,-56.2455 143.0001,-46.2456 136.0001,-46.2455"/>
</g>
<!-- Node9 -->
<g id="node4" class="node">
<title>Node9</title>
<g id="a_node4"><a xlink:href="_a_b_l_stats_8cpp.html" target="_top" xlink:title="ABLStats.cpp">
<polygon fill="#ffffff" stroke="#000000" points="196,-.5 196,-19.5 273,-19.5 273,-.5 196,-.5"/>
<text text-anchor="middle" x="234.5" y="-7.5" font-family="Helvetica,sans-Serif" font-size="10.00" fill="#000000">ABLStats.cpp</text>
</a>
</g>
</g>
<!-- Node6&#45;&gt;Node9 -->
<g id="edge3" class="edge">
<title>Node6&#45;&gt;Node9</title>
<path fill="none" stroke="#191970" d="M164.8676,-51.0465C181.771,-41.0824 203.4904,-28.2794 218.1419,-19.6427"/>
<polygon fill="#191970" stroke="#191970" points="162.8851,-48.1522 156.0477,-56.2455 166.4398,-54.1825 162.8851,-48.1522"/>
</g>
</g>
</svg>
