<?xml version="1.0" encoding="UTF-8" standalone="no"?>
<!DOCTYPE svg PUBLIC "-//W3C//DTD SVG 1.1//EN"
 "http://www.w3.org/Graphics/SVG/1.1/DTD/svg11.dtd">
<!-- Generated by graphviz version 2.40.1 (20161225.0304)
 -->
<!-- Title: mac_projection.H Pages: 1 -->
<!--zoomable 196 -->
<svg id="main" version="1.1" xmlns="http://www.w3.org/2000/svg" xmlns:xlink="http://www.w3.org/1999/xlink" xml:space="preserve" onload="init(evt)">
<style type="text/css"><![CDATA[
.edge:hover path { stroke: red; }
.edge:hover polygon { stroke: red; fill: red; }
]]></style>
<script type="text/javascript"><![CDATA[
var edges = document.getElementsByTagName('g');
if (edges && edges.length) {
  for (var i=0;i<edges.length;i++) {
    if (edges[i].id.substr(0,4)=='edge') {
      edges[i].setAttribute('class','edge');
    }
  }
}
]]></script>
        <defs>
                <circle id="rim" cx="0" cy="0" r="7"/>
                <circle id="rim2" cx="0" cy="0" r="3.5"/>
                <g id="zoomPlus">
                        <use xlink:href="#rim" fill="#404040">
                                <set attributeName="fill" to="#808080" begin="zoomplus.mouseover" end="zoomplus.mouseout"/>
                        </use>
                        <path d="M-4,0h8M0,-4v8" fill="none" stroke="white" stroke-width="1.5" pointer-events="none"/>
                </g>
                <g id="zoomMin">
                        <use xlink:href="#rim" fill="#404040">
                                <set attributeName="fill" to="#808080" begin="zoomminus.mouseover" end="zoomminus.mouseout"/>
                        </use>
                        <path d="M-4,0h8" fill="none" stroke="white" stroke-width="1.5" pointer-events="none"/>
                </g>
                <g id="dirArrow">
                        <path fill="none" stroke="white" stroke-width="1.5" d="M0,-3.0v7 M-2.5,-0.5L0,-3.0L2.5,-0.5"/>
                </g>
               <g id="resetDef">
                       <use xlink:href="#rim2" fill="#404040">
                               <set attributeName="fill" to="#808080" begin="reset.mouseover" end="reset.mouseout"/>
                       </use>
               </g>
        </defs>

<script type="text/javascript">
var viewWidth = 1153;
var viewHeight = 196;
var sectionId = 'dynsection-0';
</script>
<script xlink:href="svgpan.js"/>
<svg id="graph" class="graph">
<g id="viewport">
<title>mac_projection.H</title>
<polygon fill="#ffffff" stroke="transparent" points="-4,4 -4,-192 1149,-192 1149,4 -4,4"/>
<!-- Node0 -->
<g id="node1" class="node">
<title>Node0</title>
<polygon fill="#bfbfbf" stroke="#000000" points="387,-168.5 387,-187.5 480,-187.5 480,-168.5 387,-168.5"/>
<text text-anchor="middle" x="433.5" y="-175.5" font-family="Helvetica,sans-Serif" font-size="10.00" fill="#000000">mac_projection.H</text>
</g>
<!-- Node1 -->
<g id="node2" class="node">
<title>Node1</title>
<g id="a_node2"><a xlink:href="_field_repo_8_h.html" target="_top" xlink:title="amr&#45;wind/core/FieldRepo.H">
<polygon fill="#ffffff" stroke="#000000" points="365.5,-112.5 365.5,-131.5 501.5,-131.5 501.5,-112.5 365.5,-112.5"/>
<text text-anchor="middle" x="433.5" y="-119.5" font-family="Helvetica,sans-Serif" font-size="10.00" fill="#000000">amr&#45;wind/core/FieldRepo.H</text>
</a>
</g>
</g>
<!-- Node0&#45;&gt;Node1 -->
<g id="edge1" class="edge">
<title>Node0&#45;&gt;Node1</title>
<path fill="none" stroke="#191970" d="M433.5,-168.2455C433.5,-160.9382 433.5,-150.6944 433.5,-141.7046"/>
<polygon fill="#191970" stroke="#191970" points="437.0001,-141.6426 433.5,-131.6427 430.0001,-141.6427 437.0001,-141.6426"/>
</g>
<!-- Node2 -->
<g id="node3" class="node">
<title>Node2</title>
<polygon fill="#ffffff" stroke="#bfbfbf" points="128,-.5 128,-19.5 169,-19.5 169,-.5 128,-.5"/>
<text text-anchor="middle" x="148.5" y="-7.5" font-family="Helvetica,sans-Serif" font-size="10.00" fill="#000000">string</text>
</g>
<!-- Node1&#45;&gt;Node2 -->
<g id="edge2" class="edge">
<title>Node1&#45;&gt;Node2</title>
<path fill="none" stroke="#191970" d="M365.4674,-117.5674C271.1419,-110.7183 110.1677,-96.211 92.5,-76 77.3558,-58.6758 100.364,-38.4631 121.3015,-25.0155"/>
<polygon fill="#191970" stroke="#191970" points="123.3136,-27.8881 130.0306,-19.6946 119.6702,-21.9109 123.3136,-27.8881"/>
</g>
<!-- Node3 -->
<g id="node4" class="node">
<title>Node3</title>
<polygon fill="#ffffff" stroke="#bfbfbf" points="625,-.5 625,-19.5 708,-19.5 708,-.5 625,-.5"/>
<text text-anchor="middle" x="666.5" y="-7.5" font-family="Helvetica,sans-Serif" font-size="10.00" fill="#000000">unordered_map</text>
</g>
<!-- Node1&#45;&gt;Node3 -->
<g id="edge3" class="edge">
<title>Node1&#45;&gt;Node3</title>
<path fill="none" stroke="#191970" d="M501.8697,-112.5617C534.6174,-105.8719 573.3799,-94.6421 604.5,-76 624.8267,-63.8236 642.7094,-43.1078 653.9802,-28.1283"/>
<polygon fill="#191970" stroke="#191970" points="657.0749,-29.8222 660.1062,-19.6703 651.4057,-25.7161 657.0749,-29.8222"/>
</g>
<!-- Node4 -->
<g id="node5" class="node">
<title>Node4</title>
<g id="a_node5"><a xlink:href="_field_desc_types_8_h.html" target="_top" xlink:title="amr&#45;wind/core/FieldDescTypes.H">
<polygon fill="#ffffff" stroke="#000000" points="187,-.5 187,-19.5 350,-19.5 350,-.5 187,-.5"/>
<text text-anchor="middle" x="268.5" y="-7.5" font-family="Helvetica,sans-Serif" font-size="10.00" fill="#000000">amr&#45;wind/core/FieldDescTypes.H</text>
</a>
</g>
</g>
<!-- Node1&#45;&gt;Node4 -->
<g id="edge4" class="edge">
<title>Node1&#45;&gt;Node4</title>
<path fill="none" stroke="#191970" d="M374.692,-112.4979C334.2244,-104.6612 285.513,-92.2073 272.5,-76 262.1912,-63.1607 262.1787,-43.9892 264.1608,-29.6122"/>
<polygon fill="#191970" stroke="#191970" points="267.6117,-30.197 265.9278,-19.7368 260.7211,-28.964 267.6117,-30.197"/>
</g>
<!-- Node5 -->
<g id="node6" class="node">
<title>Node5</title>
<g id="a_node6"><a xlink:href="_field_utils_8_h.html" target="_top" xlink:title="amr&#45;wind/core/FieldUtils.H">
<polygon fill="#ffffff" stroke="#000000" points="446,-56.5 446,-75.5 579,-75.5 579,-56.5 446,-56.5"/>
<text text-anchor="middle" x="512.5" y="-63.5" font-family="Helvetica,sans-Serif" font-size="10.00" fill="#000000">amr&#45;wind/core/FieldUtils.H</text>
</a>
</g>
</g>
<!-- Node1&#45;&gt;Node5 -->
<g id="edge5" class="edge">
<title>Node1&#45;&gt;Node5</title>
<path fill="none" stroke="#191970" d="M447.2607,-112.2455C459.1552,-103.814 476.565,-91.4729 490.4085,-81.6598"/>
<polygon fill="#191970" stroke="#191970" points="492.7628,-84.2811 498.8969,-75.6427 488.7146,-78.5704 492.7628,-84.2811"/>
</g>
<!-- Node6 -->
<g id="node7" class="node">
<title>Node6</title>
<polygon fill="#ffffff" stroke="#bfbfbf" points="502.5,-.5 502.5,-19.5 606.5,-19.5 606.5,-.5 502.5,-.5"/>
<text text-anchor="middle" x="554.5" y="-7.5" font-family="Helvetica,sans-Serif" font-size="10.00" fill="#000000">AMReX_MultiFab.H</text>
</g>
<!-- Node1&#45;&gt;Node6 -->
<g id="edge27" class="edge">
<title>Node1&#45;&gt;Node6</title>
<path fill="none" stroke="#191970" d="M490.4227,-112.4259C529.5384,-104.5525 576.4958,-92.0842 588.5,-76 600.0785,-60.4862 586.3693,-40.4593 573.0584,-26.5544"/>
<polygon fill="#191970" stroke="#191970" points="575.4656,-24.0131 565.8675,-19.5268 570.573,-29.0193 575.4656,-24.0131"/>
</g>
<!-- Node8 -->
<g id="node9" class="node">
<title>Node8</title>
<g id="a_node9"><a xlink:href="_field_8_h.html" target="_top" xlink:title="amr&#45;wind/core/Field.H">
<polygon fill="#ffffff" stroke="#000000" points="674,-56.5 674,-75.5 787,-75.5 787,-56.5 674,-56.5"/>
<text text-anchor="middle" x="730.5" y="-63.5" font-family="Helvetica,sans-Serif" font-size="10.00" fill="#000000">amr&#45;wind/core/Field.H</text>
</a>
</g>
</g>
<!-- Node1&#45;&gt;Node8 -->
<g id="edge9" class="edge">
<title>Node1&#45;&gt;Node8</title>
<path fill="none" stroke="#191970" d="M484.2187,-112.4369C535.6886,-102.7321 615.3702,-87.708 670.0784,-77.3926"/>
<polygon fill="#191970" stroke="#191970" points="670.8122,-80.816 679.9905,-75.5237 669.5152,-73.9372 670.8122,-80.816"/>
</g>
<!-- Node13 -->
<g id="node14" class="node">
<title>Node13</title>
<g id="a_node14"><a xlink:href="_int_field_8_h.html" target="_top" xlink:title="amr&#45;wind/core/IntField.H">
<polygon fill="#ffffff" stroke="#000000" points="101.5,-56.5 101.5,-75.5 225.5,-75.5 225.5,-56.5 101.5,-56.5"/>
<text text-anchor="middle" x="163.5" y="-63.5" font-family="Helvetica,sans-Serif" font-size="10.00" fill="#000000">amr&#45;wind/core/IntField.H</text>
</a>
</g>
</g>
<!-- Node1&#45;&gt;Node13 -->
<g id="edge18" class="edge">
<title>Node1&#45;&gt;Node13</title>
<path fill="none" stroke="#191970" d="M387.3921,-112.4369C340.8925,-102.7925 269.0641,-87.8948 219.36,-77.5858"/>
<polygon fill="#191970" stroke="#191970" points="219.9201,-74.1275 209.4177,-75.5237 218.4985,-80.9817 219.9201,-74.1275"/>
</g>
<!-- Node14 -->
<g id="node15" class="node">
<title>Node14</title>
<polygon fill="#ffffff" stroke="#bfbfbf" points="0,-.5 0,-19.5 107,-19.5 107,-.5 0,-.5"/>
<text text-anchor="middle" x="53.5" y="-7.5" font-family="Helvetica,sans-Serif" font-size="10.00" fill="#000000">AMReX_iMultiFab.H</text>
</g>
<!-- Node1&#45;&gt;Node14 -->
<g id="edge28" class="edge">
<title>Node1&#45;&gt;Node14</title>
<path fill="none" stroke="#191970" d="M365.3558,-116.5366C270.2214,-108.3799 106.6998,-92.2327 84.5,-76 69.5341,-65.0568 61.546,-45.0341 57.45,-29.9017"/>
<polygon fill="#191970" stroke="#191970" points="60.8057,-28.8815 55.1112,-19.9471 53.9913,-30.4826 60.8057,-28.8815"/>
</g>
<!-- Node15 -->
<g id="node16" class="node">
<title>Node15</title>
<g id="a_node16"><a xlink:href="_scratch_field_8_h.html" target="_top" xlink:title="amr&#45;wind/core/ScratchField.H">
<polygon fill="#ffffff" stroke="#000000" points="281.5,-56.5 281.5,-75.5 427.5,-75.5 427.5,-56.5 281.5,-56.5"/>
<text text-anchor="middle" x="354.5" y="-63.5" font-family="Helvetica,sans-Serif" font-size="10.00" fill="#000000">amr&#45;wind/core/ScratchField.H</text>
</a>
</g>
</g>
<!-- Node1&#45;&gt;Node15 -->
<g id="edge22" class="edge">
<title>Node1&#45;&gt;Node15</title>
<path fill="none" stroke="#191970" d="M419.7393,-112.2455C407.8448,-103.814 390.435,-91.4729 376.5915,-81.6598"/>
<polygon fill="#191970" stroke="#191970" points="378.2854,-78.5704 368.1031,-75.6427 374.2372,-84.2811 378.2854,-78.5704"/>
</g>
<!-- Node16 -->
<g id="node17" class="node">
<title>Node16</title>
<polygon fill="#ffffff" stroke="#bfbfbf" points="805.5,-56.5 805.5,-75.5 911.5,-75.5 911.5,-56.5 805.5,-56.5"/>
<text text-anchor="middle" x="858.5" y="-63.5" font-family="Helvetica,sans-Serif" font-size="10.00" fill="#000000">AMReX_AmrCore.H</text>
</g>
<!-- Node1&#45;&gt;Node16 -->
<g id="edge26" class="edge">
<title>Node1&#45;&gt;Node16</title>
<path fill="none" stroke="#191970" d="M501.8346,-114.0402C572.6603,-105.6316 686.8399,-91.6341 795.2804,-76.1383"/>
<polygon fill="#191970" stroke="#191970" points="796.0171,-79.5685 805.4182,-74.6828 795.0223,-72.6396 796.0171,-79.5685"/>
</g>
<!-- Node5&#45;&gt;Node4 -->
<g id="edge6" class="edge">
<title>Node5&#45;&gt;Node4</title>
<path fill="none" stroke="#191970" d="M470.8321,-56.4369C429.0734,-46.8529 364.7109,-32.0812 319.8272,-21.78"/>
<polygon fill="#191970" stroke="#191970" points="320.5255,-18.3494 309.996,-19.5237 318.9596,-25.172 320.5255,-18.3494"/>
</g>
<!-- Node5&#45;&gt;Node6 -->
<g id="edge7" class="edge">
<title>Node5&#45;&gt;Node6</title>
<path fill="none" stroke="#191970" d="M519.8158,-56.2455C525.7179,-48.3761 534.1742,-37.101 541.2594,-27.6542"/>
<polygon fill="#191970" stroke="#191970" points="544.068,-29.7427 547.268,-19.6427 538.4679,-25.5427 544.068,-29.7427"/>
</g>
<!-- Node7 -->
<g id="node8" class="node">
<title>Node7</title>
<polygon fill="#ffffff" stroke="#bfbfbf" points="368.5,-.5 368.5,-19.5 484.5,-19.5 484.5,-.5 368.5,-.5"/>
<text text-anchor="middle" x="426.5" y="-7.5" font-family="Helvetica,sans-Serif" font-size="10.00" fill="#000000">AMReX_Interpolater.H</text>
</g>
<!-- Node5&#45;&gt;Node7 -->
<g id="edge8" class="edge">
<title>Node5&#45;&gt;Node7</title>
<path fill="none" stroke="#191970" d="M497.5199,-56.2455C484.3249,-47.6534 464.8949,-35.0014 449.6921,-25.1018"/>
<polygon fill="#191970" stroke="#191970" points="451.5983,-22.1665 441.3084,-19.6427 447.7785,-28.0325 451.5983,-22.1665"/>
</g>
<!-- Node8&#45;&gt;Node2 -->
<g id="edge10" class="edge">
<title>Node8&#45;&gt;Node2</title>
<path fill="none" stroke="#191970" d="M673.5287,-62.0266C548.6652,-53.2124 256.5082,-31.9774 179.4259,-19.4926"/>
<polygon fill="#191970" stroke="#191970" points="179.7735,-15.9982 169.3069,-17.6419 178.514,-22.884 179.7735,-15.9982"/>
</g>
<!-- Node8&#45;&gt;Node3 -->
<g id="edge12" class="edge">
<title>Node8&#45;&gt;Node3</title>
<path fill="none" stroke="#191970" d="M719.3521,-56.2455C709.9913,-48.0549 696.4142,-36.1749 685.3651,-26.5069"/>
<polygon fill="#191970" stroke="#191970" points="687.3508,-23.5937 677.5202,-19.6427 682.7412,-28.8618 687.3508,-23.5937"/>
</g>
<!-- Node8&#45;&gt;Node4 -->
<g id="edge17" class="edge">
<title>Node8&#45;&gt;Node4</title>
<path fill="none" stroke="#191970" d="M673.8497,-59.1333C594.8063,-49.5523 450.6485,-32.0786 357.2647,-20.7594"/>
<polygon fill="#191970" stroke="#191970" points="357.6132,-17.2761 347.2646,-19.5472 356.7708,-24.2252 357.6132,-17.2761"/>
</g>
<!-- Node8&#45;&gt;Node6 -->
<g id="edge13" class="edge">
<title>Node8&#45;&gt;Node6</title>
<path fill="none" stroke="#191970" d="M700.2445,-56.3733C670.8517,-47.021 626.0708,-32.7725 593.9066,-22.5385"/>
<polygon fill="#191970" stroke="#191970" points="594.9512,-19.198 584.3607,-19.5011 592.8287,-25.8685 594.9512,-19.198"/>
</g>
<!-- Node9 -->
<g id="node10" class="node">
<title>Node9</title>
<polygon fill="#ffffff" stroke="#bfbfbf" points="975.5,-.5 975.5,-19.5 1027.5,-19.5 1027.5,-.5 975.5,-.5"/>
<text text-anchor="middle" x="1001.5" y="-7.5" font-family="Helvetica,sans-Serif" font-size="10.00" fill="#000000">memory</text>
</g>
<!-- Node8&#45;&gt;Node9 -->
<g id="edge11" class="edge">
<title>Node8&#45;&gt;Node9</title>
<path fill="none" stroke="#191970" d="M786.5812,-56.4675C832.3324,-48.3733 898.8191,-35.8909 965.3732,-20.128"/>
<polygon fill="#191970" stroke="#191970" points="966.2799,-23.51 975.1907,-17.7787 964.6507,-16.7022 966.2799,-23.51"/>
</g>
<!-- Node10 -->
<g id="node11" class="node">
<title>Node10</title>
<polygon fill="#ffffff" stroke="#bfbfbf" points="1046,-.5 1046,-19.5 1145,-19.5 1145,-.5 1046,-.5"/>
<text text-anchor="middle" x="1095.5" y="-7.5" font-family="Helvetica,sans-Serif" font-size="10.00" fill="#000000">AMReX_BCRec.H</text>
</g>
<!-- Node8&#45;&gt;Node10 -->
<g id="edge14" class="edge">
<title>Node8&#45;&gt;Node10</title>
<path fill="none" stroke="#191970" d="M787.0248,-57.43C790.2303,-56.9458 793.4059,-56.4665 796.5,-56 900.0301,-40.3921 928.3493,-37.1946 1035.9714,-20.0609"/>
<polygon fill="#191970" stroke="#191970" points="1036.6132,-23.5029 1045.9368,-18.4708 1035.5102,-16.5903 1036.6132,-23.5029"/>
</g>
<!-- Node11 -->
<g id="node12" class="node">
<title>Node11</title>
<polygon fill="#ffffff" stroke="#bfbfbf" points="726,-.5 726,-19.5 811,-19.5 811,-.5 726,-.5"/>
<text text-anchor="middle" x="768.5" y="-7.5" font-family="Helvetica,sans-Serif" font-size="10.00" fill="#000000">AMReX_Gpu.H</text>
</g>
<!-- Node8&#45;&gt;Node11 -->
<g id="edge15" class="edge">
<title>Node8&#45;&gt;Node11</title>
<path fill="none" stroke="#191970" d="M737.1191,-56.2455C742.4046,-48.4564 749.9541,-37.3308 756.3238,-27.9439"/>
<polygon fill="#191970" stroke="#191970" points="759.2379,-29.8827 761.9568,-19.6427 753.4455,-25.9522 759.2379,-29.8827"/>
</g>
<!-- Node12 -->
<g id="node13" class="node">
<title>Node12</title>
<g id="a_node13"><a xlink:href="incflo__enums_8_h.html" target="_top" xlink:title="amr&#45;wind/incflo_enums.H">
<polygon fill="#ffffff" stroke="#000000" points="829.5,-.5 829.5,-19.5 957.5,-19.5 957.5,-.5 829.5,-.5"/>
<text text-anchor="middle" x="893.5" y="-7.5" font-family="Helvetica,sans-Serif" font-size="10.00" fill="#000000">amr&#45;wind/incflo_enums.H</text>
</a>
</g>
</g>
<!-- Node8&#45;&gt;Node12 -->
<g id="edge16" class="edge">
<title>Node8&#45;&gt;Node12</title>
<path fill="none" stroke="#191970" d="M758.5207,-56.3733C785.5078,-47.1016 826.5017,-33.0178 856.2311,-22.804"/>
<polygon fill="#191970" stroke="#191970" points="857.5248,-26.0605 865.8449,-19.5011 855.2503,-19.4403 857.5248,-26.0605"/>
</g>
<!-- Node13&#45;&gt;Node2 -->
<g id="edge19" class="edge">
<title>Node13&#45;&gt;Node2</title>
<path fill="none" stroke="#191970" d="M160.8872,-56.2455C158.9084,-48.8579 156.1256,-38.4689 153.6988,-29.4087"/>
<polygon fill="#191970" stroke="#191970" points="157.0511,-28.3966 151.0829,-19.6427 150.2895,-30.2078 157.0511,-28.3966"/>
</g>
<!-- Node13&#45;&gt;Node4 -->
<g id="edge20" class="edge">
<title>Node13&#45;&gt;Node4</title>
<path fill="none" stroke="#191970" d="M181.7896,-56.2455C198.2762,-47.4527 222.7352,-34.4079 241.4765,-24.4125"/>
<polygon fill="#191970" stroke="#191970" points="243.2435,-27.4368 250.42,-19.6427 239.9494,-21.2604 243.2435,-27.4368"/>
</g>
<!-- Node13&#45;&gt;Node14 -->
<g id="edge21" class="edge">
<title>Node13&#45;&gt;Node14</title>
<path fill="none" stroke="#191970" d="M144.3395,-56.2455C126.9889,-47.4125 101.2099,-34.2887 81.5417,-24.2758"/>
<polygon fill="#191970" stroke="#191970" points="82.9405,-21.0605 72.441,-19.6427 79.7647,-27.2986 82.9405,-21.0605"/>
</g>
<!-- Node15&#45;&gt;Node2 -->
<g id="edge23" class="edge">
<title>Node15&#45;&gt;Node2</title>
<path fill="none" stroke="#191970" d="M314.7992,-56.42C281.0896,-48.1081 231.2399,-35.4008 178.8989,-19.9769"/>
<polygon fill="#191970" stroke="#191970" points="179.6827,-16.5586 169.1,-17.0657 177.6892,-23.2688 179.6827,-16.5586"/>
</g>
<!-- Node15&#45;&gt;Node4 -->
<g id="edge24" class="edge">
<title>Node15&#45;&gt;Node4</title>
<path fill="none" stroke="#191970" d="M339.5199,-56.2455C326.3249,-47.6534 306.8949,-35.0014 291.6921,-25.1018"/>
<polygon fill="#191970" stroke="#191970" points="293.5983,-22.1665 283.3084,-19.6427 289.7785,-28.0325 293.5983,-22.1665"/>
</g>
<!-- Node15&#45;&gt;Node6 -->
<g id="edge25" class="edge">
<title>Node15&#45;&gt;Node6</title>
<path fill="none" stroke="#191970" d="M388.8812,-56.3733C422.5701,-46.9404 474.0482,-32.5265 510.6618,-22.2747"/>
<polygon fill="#191970" stroke="#191970" points="511.8815,-25.5679 520.5674,-19.5011 509.994,-18.8271 511.8815,-25.5679"/>
</g>
</g>
</svg>
        <g id="navigator" transform="translate(0 0)" fill="#404254">
                <rect fill="#f2f5e9" fill-opacity="0.5" stroke="#606060" stroke-width=".5" x="0" y="0" width="60" height="60"/>
                <use id="zoomplus" xlink:href="#zoomPlus" x="17" y="9" onmousedown="handleZoom(evt,'in')"/>
                <use id="zoomminus" xlink:href="#zoomMin" x="42" y="9" onmousedown="handleZoom(evt,'out')"/>
                <use id="reset" xlink:href="#resetDef" x="30" y="36" onmousedown="handleReset()"/>
                <g id="arrowUp" xlink:href="#dirArrow" transform="translate(30 24)" onmousedown="handlePan(0,-1)">
                  <use xlink:href="#rim" fill="#404040">
                        <set attributeName="fill" to="#808080" begin="arrowUp.mouseover" end="arrowUp.mouseout"/>
                  </use>
                  <path fill="none" stroke="white" stroke-width="1.5" d="M0,-3.0v7 M-2.5,-0.5L0,-3.0L2.5,-0.5"/>
                </g>
                <g id="arrowRight" xlink:href="#dirArrow" transform="rotate(90) translate(36 -43)" onmousedown="handlePan(1,0)">
                  <use xlink:href="#rim" fill="#404040">
                        <set attributeName="fill" to="#808080" begin="arrowRight.mouseover" end="arrowRight.mouseout"/>
                  </use>
                  <path fill="none" stroke="white" stroke-width="1.5" d="M0,-3.0v7 M-2.5,-0.5L0,-3.0L2.5,-0.5"/>
                </g>
                <g id="arrowDown" xlink:href="#dirArrow" transform="rotate(180) translate(-30 -48)" onmousedown="handlePan(0,1)">
                  <use xlink:href="#rim" fill="#404040">
                        <set attributeName="fill" to="#808080" begin="arrowDown.mouseover" end="arrowDown.mouseout"/>
                  </use>
                  <path fill="none" stroke="white" stroke-width="1.5" d="M0,-3.0v7 M-2.5,-0.5L0,-3.0L2.5,-0.5"/>
                </g>
                <g id="arrowLeft" xlink:href="#dirArrow" transform="rotate(270) translate(-36 17)" onmousedown="handlePan(-1,0)">
                  <use xlink:href="#rim" fill="#404040">
                        <set attributeName="fill" to="#808080" begin="arrowLeft.mouseover" end="arrowLeft.mouseout"/>
                  </use>
                  <path fill="none" stroke="white" stroke-width="1.5" d="M0,-3.0v7 M-2.5,-0.5L0,-3.0L2.5,-0.5"/>
                </g>
        </g>
        <svg viewBox="0 0 15 15" width="100%" height="30px" preserveAspectRatio="xMaxYMin meet">
         <g id="arrow_out" transform="scale(0.3 0.3)">
          <a xlink:href="mac__projection_8_h__incl_org.svg" target="_base">
           <rect id="button" ry="5" rx="5" y="6" x="6" height="38" width="38"
                fill="#f2f5e9" fill-opacity="0.5" stroke="#606060" stroke-width="1.0"/>
           <path id="arrow"
             d="M 11.500037,31.436501 C 11.940474,20.09759 22.043105,11.32322 32.158766,21.979434 L 37.068811,17.246167 C 37.068811,17.246167 37.088388,32 37.088388,32 L 22.160133,31.978069 C 22.160133,31.978069 26.997745,27.140456 26.997745,27.140456 C 18.528582,18.264221 13.291696,25.230495 11.500037,31.436501 z"
             style="fill:#404040;"/>
          </a>
         </g>
        </svg>
</svg>
