<?xml version="1.0" encoding="UTF-8" standalone="no"?>
<!DOCTYPE svg PUBLIC "-//W3C//DTD SVG 1.1//EN"
 "http://www.w3.org/Graphics/SVG/1.1/DTD/svg11.dtd">
<!-- Generated by graphviz version 2.40.1 (20161225.0304)
 -->
<!-- Title: main.cpp Pages: 1 -->
<!--zoomable 352 -->
<svg id="main" version="1.1" xmlns="http://www.w3.org/2000/svg" xmlns:xlink="http://www.w3.org/1999/xlink" xml:space="preserve" onload="init(evt)">
<style type="text/css"><![CDATA[
.edge:hover path { stroke: red; }
.edge:hover polygon { stroke: red; fill: red; }
]]></style>
<script type="text/javascript"><![CDATA[
var edges = document.getElementsByTagName('g');
if (edges && edges.length) {
  for (var i=0;i<edges.length;i++) {
    if (edges[i].id.substr(0,4)=='edge') {
      edges[i].setAttribute('class','edge');
    }
  }
}
]]></script>
        <defs>
                <circle id="rim" cx="0" cy="0" r="7"/>
                <circle id="rim2" cx="0" cy="0" r="3.5"/>
                <g id="zoomPlus">
                        <use xlink:href="#rim" fill="#404040">
                                <set attributeName="fill" to="#808080" begin="zoomplus.mouseover" end="zoomplus.mouseout"/>
                        </use>
                        <path d="M-4,0h8M0,-4v8" fill="none" stroke="white" stroke-width="1.5" pointer-events="none"/>
                </g>
                <g id="zoomMin">
                        <use xlink:href="#rim" fill="#404040">
                                <set attributeName="fill" to="#808080" begin="zoomminus.mouseover" end="zoomminus.mouseout"/>
                        </use>
                        <path d="M-4,0h8" fill="none" stroke="white" stroke-width="1.5" pointer-events="none"/>
                </g>
                <g id="dirArrow">
                        <path fill="none" stroke="white" stroke-width="1.5" d="M0,-3.0v7 M-2.5,-0.5L0,-3.0L2.5,-0.5"/>
                </g>
               <g id="resetDef">
                       <use xlink:href="#rim2" fill="#404040">
                               <set attributeName="fill" to="#808080" begin="reset.mouseover" end="reset.mouseout"/>
                       </use>
               </g>
        </defs>

<script type="text/javascript">
var viewWidth = 2255;
var viewHeight = 352;
var sectionId = 'dynsection-0';
</script>
<script xlink:href="svgpan.js"/>
<svg id="graph" class="graph">
<g id="viewport">
<title>main.cpp</title>
<polygon fill="#ffffff" stroke="transparent" points="-4,4 -4,-348 2250.5,-348 2250.5,4 -4,4"/>
<!-- Node0 -->
<g id="node1" class="node">
<title>Node0</title>
<polygon fill="#bfbfbf" stroke="#000000" points="1704.5,-324.5 1704.5,-343.5 1760.5,-343.5 1760.5,-324.5 1704.5,-324.5"/>
<text text-anchor="middle" x="1732.5" y="-331.5" font-family="Helvetica,sans-Serif" font-size="10.00" fill="#000000">main.cpp</text>
</g>
<!-- Node1 -->
<g id="node2" class="node">
<title>Node1</title>
<g id="a_node2"><a xlink:href="incflo_8_h.html" target="_top" xlink:title="amr&#45;wind/incflo.H">
<polygon fill="#ffffff" stroke="#000000" points="1296,-263 1296,-282 1389,-282 1389,-263 1296,-263"/>
<text text-anchor="middle" x="1342.5" y="-270" font-family="Helvetica,sans-Serif" font-size="10.00" fill="#000000">amr&#45;wind/incflo.H</text>
</a>
</g>
</g>
<!-- Node0&#45;&gt;Node1 -->
<g id="edge1" class="edge">
<title>Node0&#45;&gt;Node1</title>
<path fill="none" stroke="#191970" d="M1704.4522,-329.5771C1640.6757,-319.52 1483.7631,-294.7761 1399.0028,-281.4101"/>
<polygon fill="#191970" stroke="#191970" points="1399.4581,-277.9387 1389.0349,-279.8382 1398.3677,-284.8532 1399.4581,-277.9387"/>
</g>
<!-- Node38 -->
<g id="node39" class="node">
<title>Node38</title>
<g id="a_node39"><a xlink:href="console__io_8_h.html" target="_top" xlink:title="amr&#45;wind/utilities\l/console_io.H">
<polygon fill="#ffffff" stroke="#000000" points="2077.5,-257.5 2077.5,-287.5 2167.5,-287.5 2167.5,-257.5 2077.5,-257.5"/>
<text text-anchor="start" x="2085.5" y="-275.5" font-family="Helvetica,sans-Serif" font-size="10.00" fill="#000000">amr&#45;wind/utilities</text>
<text text-anchor="middle" x="2122.5" y="-264.5" font-family="Helvetica,sans-Serif" font-size="10.00" fill="#000000">/console_io.H</text>
</a>
</g>
</g>
<!-- Node0&#45;&gt;Node38 -->
<g id="edge67" class="edge">
<title>Node0&#45;&gt;Node38</title>
<path fill="none" stroke="#191970" d="M1760.5478,-329.5771C1824.66,-319.4671 1982.8912,-294.5152 2067.3295,-281.2"/>
<polygon fill="#191970" stroke="#191970" points="2067.9171,-284.6506 2077.2498,-279.6356 2066.8266,-277.7361 2067.9171,-284.6506"/>
</g>
<!-- Node2 -->
<g id="node3" class="node">
<title>Node2</title>
<polygon fill="#ffffff" stroke="#bfbfbf" points="709.5,-62 709.5,-81 815.5,-81 815.5,-62 709.5,-62"/>
<text text-anchor="middle" x="762.5" y="-69" font-family="Helvetica,sans-Serif" font-size="10.00" fill="#000000">AMReX_AmrCore.H</text>
</g>
<!-- Node1&#45;&gt;Node2 -->
<g id="edge2" class="edge">
<title>Node1&#45;&gt;Node2</title>
<path fill="none" stroke="#191970" d="M1295.8131,-270.2367C1230.6238,-265.9653 1109.3286,-253.9487 1011.5,-221 952.1351,-201.0059 941.2481,-186.1728 887.5,-154 850.5416,-131.8772 809.0729,-103.8402 784.4068,-86.8065"/>
<polygon fill="#191970" stroke="#191970" points="786.3311,-83.8818 776.1189,-81.0601 782.3426,-89.6344 786.3311,-83.8818"/>
</g>
<!-- Node3 -->
<g id="node4" class="node">
<title>Node3</title>
<polygon fill="#ffffff" stroke="#bfbfbf" points="1147,-196 1147,-215 1266,-215 1266,-196 1147,-196"/>
<text text-anchor="middle" x="1206.5" y="-203" font-family="Helvetica,sans-Serif" font-size="10.00" fill="#000000">AMReX_MultiFabUtil.H</text>
</g>
<!-- Node1&#45;&gt;Node3 -->
<g id="edge3" class="edge">
<title>Node1&#45;&gt;Node3</title>
<path fill="none" stroke="#191970" d="M1323.0145,-262.9005C1299.9887,-251.5569 1261.4772,-232.5844 1235.0768,-219.5783"/>
<polygon fill="#191970" stroke="#191970" points="1236.4666,-216.3613 1225.9493,-215.0817 1233.3731,-222.6407 1236.4666,-216.3613"/>
</g>
<!-- Node4 -->
<g id="node5" class="node">
<title>Node4</title>
<polygon fill="#ffffff" stroke="#bfbfbf" points="1284.5,-196 1284.5,-215 1400.5,-215 1400.5,-196 1284.5,-196"/>
<text text-anchor="middle" x="1342.5" y="-203" font-family="Helvetica,sans-Serif" font-size="10.00" fill="#000000">AMReX_ParmParse.H</text>
</g>
<!-- Node1&#45;&gt;Node4 -->
<g id="edge4" class="edge">
<title>Node1&#45;&gt;Node4</title>
<path fill="none" stroke="#191970" d="M1342.5,-262.9005C1342.5,-253.149 1342.5,-237.7597 1342.5,-225.3695"/>
<polygon fill="#191970" stroke="#191970" points="1346.0001,-225.0816 1342.5,-215.0817 1339.0001,-225.0817 1346.0001,-225.0816"/>
</g>
<!-- Node5 -->
<g id="node6" class="node">
<title>Node5</title>
<polygon fill="#ffffff" stroke="#bfbfbf" points="0,-.5 0,-19.5 107,-19.5 107,-.5 0,-.5"/>
<text text-anchor="middle" x="53.5" y="-7.5" font-family="Helvetica,sans-Serif" font-size="10.00" fill="#000000">AMReX_iMultiFab.H</text>
</g>
<!-- Node1&#45;&gt;Node5 -->
<g id="edge5" class="edge">
<title>Node1&#45;&gt;Node5</title>
<path fill="none" stroke="#191970" d="M1295.8523,-270.464C1192.6336,-265.5529 937.2684,-251.1662 725.5,-221 428.3108,-178.6657 268.1454,-306.6221 63.5,-87 49.403,-71.8713 48.6096,-47.2259 50.2381,-29.9009"/>
<polygon fill="#191970" stroke="#191970" points="53.7398,-30.1111 51.5425,-19.7466 46.7968,-29.2192 53.7398,-30.1111"/>
</g>
<!-- Node6 -->
<g id="node7" class="node">
<title>Node6</title>
<polygon fill="#ffffff" stroke="#bfbfbf" points="1419,-196 1419,-215 1550,-215 1550,-196 1419,-196"/>
<text text-anchor="middle" x="1484.5" y="-203" font-family="Helvetica,sans-Serif" font-size="10.00" fill="#000000">AMReX_NodalProjector.H</text>
</g>
<!-- Node1&#45;&gt;Node6 -->
<g id="edge6" class="edge">
<title>Node1&#45;&gt;Node6</title>
<path fill="none" stroke="#191970" d="M1362.8451,-262.9005C1386.9923,-251.5072 1427.4504,-232.4178 1455.0245,-219.4075"/>
<polygon fill="#191970" stroke="#191970" points="1456.6423,-222.5142 1464.1926,-215.0817 1453.6552,-216.1835 1456.6423,-222.5142"/>
</g>
<!-- Node7 -->
<g id="node8" class="node">
<title>Node7</title>
<g id="a_node8"><a xlink:href="incflo__enums_8_h.html" target="_top" xlink:title="amr&#45;wind/incflo_enums.H">
<polygon fill="#ffffff" stroke="#000000" points="1369.5,-.5 1369.5,-19.5 1497.5,-19.5 1497.5,-.5 1369.5,-.5"/>
<text text-anchor="middle" x="1433.5" y="-7.5" font-family="Helvetica,sans-Serif" font-size="10.00" fill="#000000">amr&#45;wind/incflo_enums.H</text>
</a>
</g>
</g>
<!-- Node1&#45;&gt;Node7 -->
<g id="edge7" class="edge">
<title>Node1&#45;&gt;Node7</title>
<path fill="none" stroke="#191970" d="M1389.209,-268.7537C1477.7032,-261.1808 1662.6801,-242.895 1681.5,-221 1729.302,-165.3876 1728.3882,-112.385 1681.5,-56 1675.8042,-49.1505 1577.1214,-32.419 1505.9823,-21.1382"/>
<polygon fill="#191970" stroke="#191970" points="1506.124,-17.6173 1495.7006,-19.5152 1505.0325,-24.5317 1506.124,-17.6173"/>
</g>
<!-- Node8 -->
<g id="node9" class="node">
<title>Node8</title>
<g id="a_node9"><a xlink:href="_c_f_d_sim_8_h.html" target="_top" xlink:title="amr&#45;wind/CFDSim.H">
<polygon fill="#ffffff" stroke="#000000" points="1020.5,-196 1020.5,-215 1128.5,-215 1128.5,-196 1020.5,-196"/>
<text text-anchor="middle" x="1074.5" y="-203" font-family="Helvetica,sans-Serif" font-size="10.00" fill="#000000">amr&#45;wind/CFDSim.H</text>
</a>
</g>
</g>
<!-- Node1&#45;&gt;Node8 -->
<g id="edge8" class="edge">
<title>Node1&#45;&gt;Node8</title>
<path fill="none" stroke="#191970" d="M1304.3867,-262.9717C1256.6979,-251.0495 1174.9833,-230.6208 1122.9151,-217.6038"/>
<polygon fill="#191970" stroke="#191970" points="1123.466,-214.1339 1112.9157,-215.1039 1121.7682,-220.9248 1123.466,-214.1339"/>
</g>
<!-- Node9 -->
<g id="node10" class="node">
<title>Node9</title>
<g id="a_node10"><a xlink:href="_sim_time_8_h.html" target="_top" xlink:title="amr&#45;wind/core/SimTime.H">
<polygon fill="#ffffff" stroke="#000000" points="1729,-129 1729,-148 1860,-148 1860,-129 1729,-129"/>
<text text-anchor="middle" x="1794.5" y="-136" font-family="Helvetica,sans-Serif" font-size="10.00" fill="#000000">amr&#45;wind/core/SimTime.H</text>
</a>
</g>
</g>
<!-- Node1&#45;&gt;Node9 -->
<g id="edge64" class="edge">
<title>Node1&#45;&gt;Node9</title>
<path fill="none" stroke="#191970" d="M1389.14,-269.8252C1475.9175,-264.2346 1658.4541,-249.4112 1714.5,-221 1743.9956,-206.0479 1768.8332,-175.8731 1782.6798,-156.4559"/>
<polygon fill="#191970" stroke="#191970" points="1785.6155,-158.3638 1788.4063,-148.1431 1779.8509,-154.3926 1785.6155,-158.3638"/>
</g>
<!-- Node13 -->
<g id="node14" class="node">
<title>Node13</title>
<g id="a_node14"><a xlink:href="_field_repo_8_h.html" target="_top" xlink:title="amr&#45;wind/core/FieldRepo.H">
<polygon fill="#ffffff" stroke="#000000" points="562.5,-129 562.5,-148 698.5,-148 698.5,-129 562.5,-129"/>
<text text-anchor="middle" x="630.5" y="-136" font-family="Helvetica,sans-Serif" font-size="10.00" fill="#000000">amr&#45;wind/core/FieldRepo.H</text>
</a>
</g>
</g>
<!-- Node1&#45;&gt;Node13 -->
<g id="edge65" class="edge">
<title>Node1&#45;&gt;Node13</title>
<path fill="none" stroke="#191970" d="M1295.6431,-269.9656C1183.3703,-263.5713 901.5549,-245.5283 810.5,-221 752.2467,-205.3078 689.2687,-172.3582 655.4216,-153.1876"/>
<polygon fill="#191970" stroke="#191970" points="657.0915,-150.1106 646.6756,-148.1717 653.609,-156.1829 657.0915,-150.1106"/>
</g>
<!-- Node37 -->
<g id="node38" class="node">
<title>Node37</title>
<g id="a_node38"><a xlink:href="incflo__prob___i_8_h.html" target="_top" xlink:title="amr&#45;wind/prob/incflo\l_prob_I.H">
<polygon fill="#ffffff" stroke="#000000" points="1568.5,-190.5 1568.5,-220.5 1672.5,-220.5 1672.5,-190.5 1568.5,-190.5"/>
<text text-anchor="start" x="1576.5" y="-208.5" font-family="Helvetica,sans-Serif" font-size="10.00" fill="#000000">amr&#45;wind/prob/incflo</text>
<text text-anchor="middle" x="1620.5" y="-197.5" font-family="Helvetica,sans-Serif" font-size="10.00" fill="#000000">_prob_I.H</text>
</a>
</g>
</g>
<!-- Node1&#45;&gt;Node37 -->
<g id="edge66" class="edge">
<title>Node1&#45;&gt;Node37</title>
<path fill="none" stroke="#191970" d="M1383.7434,-262.9165C1425.3832,-253.1952 1491.8041,-237.5645 1558.44,-221.2419"/>
<polygon fill="#191970" stroke="#191970" points="1559.3927,-224.6121 1568.2702,-218.8293 1557.7241,-217.8138 1559.3927,-224.6121"/>
</g>
<!-- Node8&#45;&gt;Node2 -->
<g id="edge9" class="edge">
<title>Node8&#45;&gt;Node2</title>
<path fill="none" stroke="#191970" d="M1052.0617,-195.8631C997.4187,-172.3946 857.3127,-112.2208 794.1814,-85.1067"/>
<polygon fill="#191970" stroke="#191970" points="795.3046,-81.78 784.735,-81.0496 792.5421,-88.2119 795.3046,-81.78"/>
</g>
<!-- Node8&#45;&gt;Node9 -->
<g id="edge10" class="edge">
<title>Node8&#45;&gt;Node9</title>
<path fill="none" stroke="#191970" d="M1108.9524,-195.9493C1118.165,-193.691 1128.159,-191.5049 1137.5,-190 1346.2478,-156.3695 1595.9907,-144.4561 1718.7558,-140.4308"/>
<polygon fill="#191970" stroke="#191970" points="1718.9216,-143.9273 1728.8047,-140.1097 1718.698,-136.9309 1718.9216,-143.9273"/>
</g>
<!-- Node8&#45;&gt;Node13 -->
<g id="edge14" class="edge">
<title>Node8&#45;&gt;Node13</title>
<path fill="none" stroke="#191970" d="M1020.0569,-197.2845C940.5678,-185.2895 792.5585,-162.9548 703.6384,-149.5366"/>
<polygon fill="#191970" stroke="#191970" points="704.0385,-146.0575 693.6281,-148.0261 702.9939,-152.9791 704.0385,-146.0575"/>
</g>
<!-- Node26 -->
<g id="node27" class="node">
<title>Node26</title>
<g id="a_node27"><a xlink:href="_p_d_e_base_8_h.html" target="_top" xlink:title="amr&#45;wind/equation_systems\l/PDEBase.H">
<polygon fill="#ffffff" stroke="#000000" points="1079,-123.5 1079,-153.5 1218,-153.5 1218,-123.5 1079,-123.5"/>
<text text-anchor="start" x="1087" y="-141.5" font-family="Helvetica,sans-Serif" font-size="10.00" fill="#000000">amr&#45;wind/equation_systems</text>
<text text-anchor="middle" x="1148.5" y="-130.5" font-family="Helvetica,sans-Serif" font-size="10.00" fill="#000000">/PDEBase.H</text>
</a>
</g>
</g>
<!-- Node8&#45;&gt;Node26 -->
<g id="edge42" class="edge">
<title>Node8&#45;&gt;Node26</title>
<path fill="none" stroke="#191970" d="M1085.1024,-195.9005C1095.3251,-186.6448 1111.1575,-172.3101 1124.4427,-160.2816"/>
<polygon fill="#191970" stroke="#191970" points="1126.8449,-162.8281 1131.9088,-153.5218 1122.1467,-157.639 1126.8449,-162.8281"/>
</g>
<!-- Node35 -->
<g id="node36" class="node">
<title>Node35</title>
<g id="a_node36"><a xlink:href="_physics_8_h.html" target="_top" xlink:title="amr&#45;wind/core/Physics.H">
<polygon fill="#ffffff" stroke="#000000" points="1236,-129 1236,-148 1363,-148 1363,-129 1236,-129"/>
<text text-anchor="middle" x="1299.5" y="-136" font-family="Helvetica,sans-Serif" font-size="10.00" fill="#000000">amr&#45;wind/core/Physics.H</text>
</a>
</g>
</g>
<!-- Node8&#45;&gt;Node35 -->
<g id="edge59" class="edge">
<title>Node8&#45;&gt;Node35</title>
<path fill="none" stroke="#191970" d="M1106.737,-195.9005C1146.4185,-184.0843 1213.899,-163.9901 1257.5743,-150.9845"/>
<polygon fill="#191970" stroke="#191970" points="1258.7376,-154.2901 1267.3228,-148.0817 1256.7398,-147.5812 1258.7376,-154.2901"/>
</g>
<!-- Node10 -->
<g id="node11" class="node">
<title>Node10</title>
<polygon fill="#ffffff" stroke="#bfbfbf" points="1729,-62 1729,-81 1822,-81 1822,-62 1729,-62"/>
<text text-anchor="middle" x="1775.5" y="-69" font-family="Helvetica,sans-Serif" font-size="10.00" fill="#000000">AMReX_REAL.H</text>
</g>
<!-- Node9&#45;&gt;Node10 -->
<g id="edge11" class="edge">
<title>Node9&#45;&gt;Node10</title>
<path fill="none" stroke="#191970" d="M1791.7778,-128.9005C1788.9842,-119.0495 1784.559,-103.4451 1781.0273,-90.9912"/>
<polygon fill="#191970" stroke="#191970" points="1784.3127,-89.7474 1778.2172,-81.0817 1777.5783,-91.6572 1784.3127,-89.7474"/>
</g>
<!-- Node11 -->
<g id="node12" class="node">
<title>Node11</title>
<polygon fill="#ffffff" stroke="#bfbfbf" points="1840.5,-62 1840.5,-81 1966.5,-81 1966.5,-62 1840.5,-62"/>
<text text-anchor="middle" x="1903.5" y="-69" font-family="Helvetica,sans-Serif" font-size="10.00" fill="#000000">AMReX_GpuQualifiers.H</text>
</g>
<!-- Node9&#45;&gt;Node11 -->
<g id="edge12" class="edge">
<title>Node9&#45;&gt;Node11</title>
<path fill="none" stroke="#191970" d="M1810.117,-128.9005C1828.1669,-117.8057 1858.0896,-99.4128 1879.1908,-86.4424"/>
<polygon fill="#191970" stroke="#191970" points="1881.2255,-89.3001 1887.9119,-81.0817 1877.5598,-83.3366 1881.2255,-89.3001"/>
</g>
<!-- Node12 -->
<g id="node13" class="node">
<title>Node12</title>
<polygon fill="#ffffff" stroke="#bfbfbf" points="1984.5,-62 1984.5,-81 2094.5,-81 2094.5,-62 1984.5,-62"/>
<text text-anchor="middle" x="2039.5" y="-69" font-family="Helvetica,sans-Serif" font-size="10.00" fill="#000000">AMReX_Extension.H</text>
</g>
<!-- Node9&#45;&gt;Node12 -->
<g id="edge13" class="edge">
<title>Node9&#45;&gt;Node12</title>
<path fill="none" stroke="#191970" d="M1829.3423,-128.9717C1872.7569,-117.0991 1947.0183,-96.7909 1994.6435,-83.7669"/>
<polygon fill="#191970" stroke="#191970" points="1995.6586,-87.1179 2004.3812,-81.1039 1993.8121,-80.3658 1995.6586,-87.1179"/>
</g>
<!-- Node13&#45;&gt;Node2 -->
<g id="edge39" class="edge">
<title>Node13&#45;&gt;Node2</title>
<path fill="none" stroke="#191970" d="M649.4124,-128.9005C671.663,-117.6067 708.8122,-98.7506 734.4259,-85.7497"/>
<polygon fill="#191970" stroke="#191970" points="736.2898,-88.7288 743.6227,-81.0817 733.1215,-82.4868 736.2898,-88.7288"/>
</g>
<!-- Node13&#45;&gt;Node5 -->
<g id="edge41" class="edge">
<title>Node13&#45;&gt;Node5</title>
<path fill="none" stroke="#191970" d="M562.4368,-135.7242C425.9158,-129.6235 128.4231,-113.447 90.5,-87 71.2685,-73.5883 61.6794,-47.3779 57.1575,-29.2901"/>
<polygon fill="#191970" stroke="#191970" points="60.5705,-28.5135 55.0008,-19.5008 53.7344,-30.0196 60.5705,-28.5135"/>
</g>
<!-- Node14 -->
<g id="node15" class="node">
<title>Node14</title>
<polygon fill="#ffffff" stroke="#bfbfbf" points="699,-.5 699,-19.5 740,-19.5 740,-.5 699,-.5"/>
<text text-anchor="middle" x="719.5" y="-7.5" font-family="Helvetica,sans-Serif" font-size="10.00" fill="#000000">string</text>
</g>
<!-- Node13&#45;&gt;Node14 -->
<g id="edge15" class="edge">
<title>Node13&#45;&gt;Node14</title>
<path fill="none" stroke="#191970" d="M637.1895,-128.8416C652.008,-107.4463 687.7983,-55.7715 706.9356,-28.1407"/>
<polygon fill="#191970" stroke="#191970" points="709.9164,-29.9841 712.7329,-19.7705 704.1618,-25.9984 709.9164,-29.9841"/>
</g>
<!-- Node15 -->
<g id="node16" class="node">
<title>Node15</title>
<polygon fill="#ffffff" stroke="#bfbfbf" points="1021,-.5 1021,-19.5 1104,-19.5 1104,-.5 1021,-.5"/>
<text text-anchor="middle" x="1062.5" y="-7.5" font-family="Helvetica,sans-Serif" font-size="10.00" fill="#000000">unordered_map</text>
</g>
<!-- Node13&#45;&gt;Node15 -->
<g id="edge16" class="edge">
<title>Node13&#45;&gt;Node15</title>
<path fill="none" stroke="#191970" d="M698.6904,-133.4964C806.2285,-125.0515 1005.7086,-106.9298 1031.5,-87 1049.3475,-73.2087 1056.9591,-47.4987 1060.1798,-29.5992"/>
<polygon fill="#191970" stroke="#191970" points="1063.6516,-30.0477 1061.6699,-19.6398 1056.7286,-29.0118 1063.6516,-30.0477"/>
</g>
<!-- Node16 -->
<g id="node17" class="node">
<title>Node16</title>
<g id="a_node17"><a xlink:href="_field_desc_types_8_h.html" target="_top" xlink:title="amr&#45;wind/core/FieldDescTypes.H">
<polygon fill="#ffffff" stroke="#000000" points="334,-.5 334,-19.5 497,-19.5 497,-.5 334,-.5"/>
<text text-anchor="middle" x="415.5" y="-7.5" font-family="Helvetica,sans-Serif" font-size="10.00" fill="#000000">amr&#45;wind/core/FieldDescTypes.H</text>
</a>
</g>
</g>
<!-- Node13&#45;&gt;Node16 -->
<g id="edge17" class="edge">
<title>Node13&#45;&gt;Node16</title>
<path fill="none" stroke="#191970" d="M562.2661,-129.3597C510.6304,-121.0008 445.612,-106.897 427.5,-87 413.5293,-71.6525 411.9928,-47.0506 413.0053,-29.7955"/>
<polygon fill="#191970" stroke="#191970" points="416.5042,-29.9668 413.9336,-19.6885 409.5335,-29.3264 416.5042,-29.9668"/>
</g>
<!-- Node17 -->
<g id="node18" class="node">
<title>Node17</title>
<g id="a_node18"><a xlink:href="_field_utils_8_h.html" target="_top" xlink:title="amr&#45;wind/core/FieldUtils.H">
<polygon fill="#ffffff" stroke="#000000" points="100,-62 100,-81 233,-81 233,-62 100,-62"/>
<text text-anchor="middle" x="166.5" y="-69" font-family="Helvetica,sans-Serif" font-size="10.00" fill="#000000">amr&#45;wind/core/FieldUtils.H</text>
</a>
</g>
</g>
<!-- Node13&#45;&gt;Node17 -->
<g id="edge18" class="edge">
<title>Node13&#45;&gt;Node17</title>
<path fill="none" stroke="#191970" d="M562.2998,-130.8959C484.6416,-121.9017 354.0739,-105.7592 242.5,-87 235.3788,-85.8027 227.9062,-84.4269 220.5419,-82.9999"/>
<polygon fill="#191970" stroke="#191970" points="221.0992,-79.5423 210.6099,-81.0342 219.7401,-86.4091 221.0992,-79.5423"/>
</g>
<!-- Node18 -->
<g id="node19" class="node">
<title>Node18</title>
<polygon fill="#ffffff" stroke="#bfbfbf" points="528.5,-.5 528.5,-19.5 632.5,-19.5 632.5,-.5 528.5,-.5"/>
<text text-anchor="middle" x="580.5" y="-7.5" font-family="Helvetica,sans-Serif" font-size="10.00" fill="#000000">AMReX_MultiFab.H</text>
</g>
<!-- Node13&#45;&gt;Node18 -->
<g id="edge40" class="edge">
<title>Node13&#45;&gt;Node18</title>
<path fill="none" stroke="#191970" d="M593.0893,-128.9683C558.0845,-119.2033 509.5674,-103.1978 498.5,-87 490.7273,-75.6241 491.5375,-67.8891 498.5,-56 507.1755,-41.186 522.5626,-30.7802 537.6825,-23.6608"/>
<polygon fill="#191970" stroke="#191970" points="539.2033,-26.8166 546.9998,-19.6426 536.4313,-20.3888 539.2033,-26.8166"/>
</g>
<!-- Node20 -->
<g id="node21" class="node">
<title>Node20</title>
<g id="a_node21"><a xlink:href="_field_8_h.html" target="_top" xlink:title="amr&#45;wind/core/Field.H">
<polygon fill="#ffffff" stroke="#000000" points="910,-62 910,-81 1023,-81 1023,-62 910,-62"/>
<text text-anchor="middle" x="966.5" y="-69" font-family="Helvetica,sans-Serif" font-size="10.00" fill="#000000">amr&#45;wind/core/Field.H</text>
</a>
</g>
</g>
<!-- Node13&#45;&gt;Node20 -->
<g id="edge22" class="edge">
<title>Node13&#45;&gt;Node20</title>
<path fill="none" stroke="#191970" d="M678.2838,-128.9717C738.9062,-116.8833 843.3852,-96.0497 908.5082,-83.0638"/>
<polygon fill="#191970" stroke="#191970" points="909.4869,-86.4377 918.6093,-81.0496 908.118,-79.5728 909.4869,-86.4377"/>
</g>
<!-- Node24 -->
<g id="node25" class="node">
<title>Node24</title>
<g id="a_node25"><a xlink:href="_int_field_8_h.html" target="_top" xlink:title="amr&#45;wind/core/IntField.H">
<polygon fill="#ffffff" stroke="#000000" points="251.5,-62 251.5,-81 375.5,-81 375.5,-62 251.5,-62"/>
<text text-anchor="middle" x="313.5" y="-69" font-family="Helvetica,sans-Serif" font-size="10.00" fill="#000000">amr&#45;wind/core/IntField.H</text>
</a>
</g>
</g>
<!-- Node13&#45;&gt;Node24 -->
<g id="edge31" class="edge">
<title>Node13&#45;&gt;Node24</title>
<path fill="none" stroke="#191970" d="M585.4183,-128.9717C528.3416,-116.9082 430.0584,-96.1354 368.5923,-83.1441"/>
<polygon fill="#191970" stroke="#191970" points="369.1902,-79.6932 358.6825,-81.0496 367.7426,-86.5419 369.1902,-79.6932"/>
</g>
<!-- Node25 -->
<g id="node26" class="node">
<title>Node25</title>
<g id="a_node26"><a xlink:href="_scratch_field_8_h.html" target="_top" xlink:title="amr&#45;wind/core/ScratchField.H">
<polygon fill="#ffffff" stroke="#000000" points="507.5,-62 507.5,-81 653.5,-81 653.5,-62 507.5,-62"/>
<text text-anchor="middle" x="580.5" y="-69" font-family="Helvetica,sans-Serif" font-size="10.00" fill="#000000">amr&#45;wind/core/ScratchField.H</text>
</a>
</g>
</g>
<!-- Node13&#45;&gt;Node25 -->
<g id="edge35" class="edge">
<title>Node13&#45;&gt;Node25</title>
<path fill="none" stroke="#191970" d="M623.3362,-128.9005C615.6134,-118.552 603.1524,-101.8542 593.6563,-89.1295"/>
<polygon fill="#191970" stroke="#191970" points="596.4364,-87.0027 587.6505,-81.0817 590.8264,-91.1893 596.4364,-87.0027"/>
</g>
<!-- Node17&#45;&gt;Node16 -->
<g id="edge19" class="edge">
<title>Node17&#45;&gt;Node16</title>
<path fill="none" stroke="#191970" d="M205.133,-61.9581C248.7481,-51.1857 319.7753,-33.6428 367.0641,-21.9631"/>
<polygon fill="#191970" stroke="#191970" points="367.9073,-25.3601 376.7763,-19.5643 366.2288,-18.5643 367.9073,-25.3601"/>
</g>
<!-- Node17&#45;&gt;Node18 -->
<g id="edge20" class="edge">
<title>Node17&#45;&gt;Node18</title>
<path fill="none" stroke="#191970" d="M210.6141,-61.9906C221.0443,-59.8845 232.1447,-57.7586 242.5,-56 255.9143,-53.7218 424.3033,-31.0023 518.2148,-18.3687"/>
<polygon fill="#191970" stroke="#191970" points="518.7285,-21.8312 528.1726,-17.0294 517.7953,-14.8937 518.7285,-21.8312"/>
</g>
<!-- Node19 -->
<g id="node20" class="node">
<title>Node19</title>
<polygon fill="#ffffff" stroke="#bfbfbf" points="125.5,-.5 125.5,-19.5 241.5,-19.5 241.5,-.5 125.5,-.5"/>
<text text-anchor="middle" x="183.5" y="-7.5" font-family="Helvetica,sans-Serif" font-size="10.00" fill="#000000">AMReX_Interpolater.H</text>
</g>
<!-- Node17&#45;&gt;Node19 -->
<g id="edge21" class="edge">
<title>Node17&#45;&gt;Node19</title>
<path fill="none" stroke="#191970" d="M169.1563,-61.8906C171.5375,-53.276 175.1048,-40.3708 178.086,-29.5858"/>
<polygon fill="#191970" stroke="#191970" points="181.5154,-30.3159 180.8063,-19.7449 174.7684,-28.4509 181.5154,-30.3159"/>
</g>
<!-- Node20&#45;&gt;Node7 -->
<g id="edge29" class="edge">
<title>Node20&#45;&gt;Node7</title>
<path fill="none" stroke="#191970" d="M1023.1392,-62.8064C1038.4964,-60.5181 1055.1264,-58.1028 1070.5,-56 1195.6121,-38.8868 1229.5014,-36.7641 1359.395,-19.9997"/>
<polygon fill="#191970" stroke="#191970" points="1359.8624,-23.4685 1369.3301,-18.7131 1358.9634,-16.5264 1359.8624,-23.4685"/>
</g>
<!-- Node20&#45;&gt;Node14 -->
<g id="edge23" class="edge">
<title>Node20&#45;&gt;Node14</title>
<path fill="none" stroke="#191970" d="M928.1773,-61.9581C879.0242,-49.7196 794.7739,-28.7423 749.8304,-17.5519"/>
<polygon fill="#191970" stroke="#191970" points="750.6279,-14.1437 740.0785,-15.1238 748.9366,-20.9363 750.6279,-14.1437"/>
</g>
<!-- Node20&#45;&gt;Node15 -->
<g id="edge25" class="edge">
<title>Node20&#45;&gt;Node15</title>
<path fill="none" stroke="#191970" d="M981.5,-61.8906C996.8581,-52.0519 1020.9521,-36.6167 1038.8745,-25.1351"/>
<polygon fill="#191970" stroke="#191970" points="1041.073,-27.8833 1047.6053,-19.5419 1037.297,-21.9891 1041.073,-27.8833"/>
</g>
<!-- Node20&#45;&gt;Node16 -->
<g id="edge30" class="edge">
<title>Node20&#45;&gt;Node16</title>
<path fill="none" stroke="#191970" d="M909.8659,-65.1788C814.6986,-54.5566 621.8832,-33.0355 507.2007,-20.2352"/>
<polygon fill="#191970" stroke="#191970" points="507.3618,-16.7315 497.0353,-19.1006 506.5853,-23.6883 507.3618,-16.7315"/>
</g>
<!-- Node20&#45;&gt;Node18 -->
<g id="edge26" class="edge">
<title>Node20&#45;&gt;Node18</title>
<path fill="none" stroke="#191970" d="M909.9589,-62.4915C838.6597,-51.1317 716.4904,-31.6669 642.6405,-19.9006"/>
<polygon fill="#191970" stroke="#191970" points="642.9772,-16.4102 632.551,-18.2931 641.8757,-23.323 642.9772,-16.4102"/>
</g>
<!-- Node21 -->
<g id="node22" class="node">
<title>Node21</title>
<polygon fill="#ffffff" stroke="#bfbfbf" points="1185.5,-.5 1185.5,-19.5 1237.5,-19.5 1237.5,-.5 1185.5,-.5"/>
<text text-anchor="middle" x="1211.5" y="-7.5" font-family="Helvetica,sans-Serif" font-size="10.00" fill="#000000">memory</text>
</g>
<!-- Node20&#45;&gt;Node21 -->
<g id="edge24" class="edge">
<title>Node20&#45;&gt;Node21</title>
<path fill="none" stroke="#191970" d="M1006.6552,-61.9754C1048.7989,-51.8925 1116.9376,-35.3454 1175.5,-20 1175.598,-19.9743 1175.6962,-19.9486 1175.7946,-19.9228"/>
<polygon fill="#191970" stroke="#191970" points="1176.4252,-23.3774 1185.178,-17.4076 1174.6128,-16.616 1176.4252,-23.3774"/>
</g>
<!-- Node22 -->
<g id="node23" class="node">
<title>Node22</title>
<polygon fill="#ffffff" stroke="#bfbfbf" points="904,-.5 904,-19.5 1003,-19.5 1003,-.5 904,-.5"/>
<text text-anchor="middle" x="953.5" y="-7.5" font-family="Helvetica,sans-Serif" font-size="10.00" fill="#000000">AMReX_BCRec.H</text>
</g>
<!-- Node20&#45;&gt;Node22 -->
<g id="edge27" class="edge">
<title>Node20&#45;&gt;Node22</title>
<path fill="none" stroke="#191970" d="M964.4688,-61.8906C962.6478,-53.276 959.9198,-40.3708 957.6401,-29.5858"/>
<polygon fill="#191970" stroke="#191970" points="961.0524,-28.8048 955.5599,-19.7449 954.2038,-30.2525 961.0524,-28.8048"/>
</g>
<!-- Node23 -->
<g id="node24" class="node">
<title>Node23</title>
<polygon fill="#ffffff" stroke="#bfbfbf" points="801,-.5 801,-19.5 886,-19.5 886,-.5 801,-.5"/>
<text text-anchor="middle" x="843.5" y="-7.5" font-family="Helvetica,sans-Serif" font-size="10.00" fill="#000000">AMReX_Gpu.H</text>
</g>
<!-- Node20&#45;&gt;Node23 -->
<g id="edge28" class="edge">
<title>Node20&#45;&gt;Node23</title>
<path fill="none" stroke="#191970" d="M947.2813,-61.8906C926.9719,-51.7359 894.7393,-35.6196 871.5832,-24.0416"/>
<polygon fill="#191970" stroke="#191970" points="873.0933,-20.8836 862.5838,-19.5419 869.9628,-27.1446 873.0933,-20.8836"/>
</g>
<!-- Node24&#45;&gt;Node5 -->
<g id="edge34" class="edge">
<title>Node24&#45;&gt;Node5</title>
<path fill="none" stroke="#191970" d="M273.1603,-61.9581C227.5232,-51.1632 153.143,-33.5694 103.766,-21.8899"/>
<polygon fill="#191970" stroke="#191970" points="104.4715,-18.4602 93.9344,-19.5643 102.8602,-25.2722 104.4715,-18.4602"/>
</g>
<!-- Node24&#45;&gt;Node14 -->
<g id="edge32" class="edge">
<title>Node24&#45;&gt;Node14</title>
<path fill="none" stroke="#191970" d="M375.6046,-62.0925C463.7706,-48.7373 621.9042,-24.7836 688.5445,-14.6891"/>
<polygon fill="#191970" stroke="#191970" points="689.4326,-18.0946 698.7956,-13.1363 688.3842,-11.1735 689.4326,-18.0946"/>
</g>
<!-- Node24&#45;&gt;Node16 -->
<g id="edge33" class="edge">
<title>Node24&#45;&gt;Node16</title>
<path fill="none" stroke="#191970" d="M329.4375,-61.8906C345.9051,-51.9616 371.8258,-36.333 390.9204,-24.8201"/>
<polygon fill="#191970" stroke="#191970" points="392.9178,-27.7027 399.6744,-19.5419 389.3034,-21.7081 392.9178,-27.7027"/>
</g>
<!-- Node25&#45;&gt;Node14 -->
<g id="edge36" class="edge">
<title>Node25&#45;&gt;Node14</title>
<path fill="none" stroke="#191970" d="M602.2188,-61.8906C625.6448,-51.5259 663.1084,-34.9502 689.3745,-23.3289"/>
<polygon fill="#191970" stroke="#191970" points="691.1117,-26.3877 698.8404,-19.1408 688.2793,-19.9862 691.1117,-26.3877"/>
</g>
<!-- Node25&#45;&gt;Node16 -->
<g id="edge37" class="edge">
<title>Node25&#45;&gt;Node16</title>
<path fill="none" stroke="#191970" d="M554.7188,-61.8906C526.748,-51.4652 481.9181,-34.7559 450.714,-23.1252"/>
<polygon fill="#191970" stroke="#191970" points="451.6929,-19.7549 441.1002,-19.5419 449.2481,-26.3141 451.6929,-19.7549"/>
</g>
<!-- Node25&#45;&gt;Node18 -->
<g id="edge38" class="edge">
<title>Node25&#45;&gt;Node18</title>
<path fill="none" stroke="#191970" d="M580.5,-61.8906C580.5,-53.3657 580.5,-40.6392 580.5,-29.9235"/>
<polygon fill="#191970" stroke="#191970" points="584.0001,-29.7448 580.5,-19.7449 577.0001,-29.7449 584.0001,-29.7448"/>
</g>
<!-- Node26&#45;&gt;Node7 -->
<g id="edge58" class="edge">
<title>Node26&#45;&gt;Node7</title>
<path fill="none" stroke="#191970" d="M1218.2405,-124.6771C1278.3364,-112.3806 1357.44,-95.1246 1370.5,-87 1393.8877,-72.4506 1412.5841,-46.1488 1423.3586,-28.3821"/>
<polygon fill="#191970" stroke="#191970" points="1426.5109,-29.9233 1428.5088,-19.5186 1420.4585,-26.4064 1426.5109,-29.9233"/>
</g>
<!-- Node26&#45;&gt;Node14 -->
<g id="edge43" class="edge">
<title>Node26&#45;&gt;Node14</title>
<path fill="none" stroke="#191970" d="M1078.8792,-127.8313C1028.6483,-119.2221 959.565,-105.4968 900.5,-87 885.3639,-82.26 796.869,-43.8459 749.4635,-23.1303"/>
<polygon fill="#191970" stroke="#191970" points="750.5771,-19.7973 740.0125,-18.997 747.7721,-26.2108 750.5771,-19.7973"/>
</g>
<!-- Node26&#45;&gt;Node16 -->
<g id="edge57" class="edge">
<title>Node26&#45;&gt;Node16</title>
<path fill="none" stroke="#191970" d="M1078.8897,-135.568C922.0495,-128.5925 550.6219,-109.8704 498.5,-87 468.9772,-74.0457 443.2129,-46.0816 428.5105,-27.6598"/>
<polygon fill="#191970" stroke="#191970" points="431.2664,-25.502 422.3865,-19.7228 425.7243,-29.7782 431.2664,-25.502"/>
</g>
<!-- Node27 -->
<g id="node28" class="node">
<title>Node27</title>
<g id="a_node28"><a xlink:href="_factory_8_h.html" target="_top" xlink:title="amr&#45;wind/core/Factory.H">
<polygon fill="#ffffff" stroke="#000000" points="1419,-62 1419,-81 1544,-81 1544,-62 1419,-62"/>
<text text-anchor="middle" x="1481.5" y="-69" font-family="Helvetica,sans-Serif" font-size="10.00" fill="#000000">amr&#45;wind/core/Factory.H</text>
</a>
</g>
</g>
<!-- Node26&#45;&gt;Node27 -->
<g id="edge44" class="edge">
<title>Node26&#45;&gt;Node27</title>
<path fill="none" stroke="#191970" d="M1218.0388,-124.5131C1269.5267,-114.1564 1341.3897,-99.7 1404.5,-87 1410.8165,-85.7289 1417.4244,-84.399 1424.001,-83.0753"/>
<polygon fill="#191970" stroke="#191970" points="1425.1507,-86.4141 1434.2634,-81.0096 1423.7694,-79.5518 1425.1507,-86.4141"/>
</g>
<!-- Node31 -->
<g id="node32" class="node">
<title>Node31</title>
<g id="a_node32"><a xlink:href="_coll_mgr_8_h.html" target="_top" xlink:title="amr&#45;wind/core/CollMgr.H">
<polygon fill="#ffffff" stroke="#000000" points="1237,-62 1237,-81 1362,-81 1362,-62 1237,-62"/>
<text text-anchor="middle" x="1299.5" y="-69" font-family="Helvetica,sans-Serif" font-size="10.00" fill="#000000">amr&#45;wind/core/CollMgr.H</text>
</a>
</g>
</g>
<!-- Node26&#45;&gt;Node31 -->
<g id="edge50" class="edge">
<title>Node26&#45;&gt;Node31</title>
<path fill="none" stroke="#191970" d="M1182.3873,-123.4639C1208.1797,-112.0196 1243.3945,-96.3945 1268.4571,-85.274"/>
<polygon fill="#191970" stroke="#191970" points="1270.1343,-88.359 1277.8553,-81.1039 1267.2952,-81.9605 1270.1343,-88.359"/>
</g>
<!-- Node33 -->
<g id="node34" class="node">
<title>Node33</title>
<g id="a_node34"><a xlink:href="_p_d_e_fields_8_h.html" target="_top" xlink:title="amr&#45;wind/equation_systems\l/PDEFields.H">
<polygon fill="#ffffff" stroke="#000000" points="1080,-56.5 1080,-86.5 1219,-86.5 1219,-56.5 1080,-56.5"/>
<text text-anchor="start" x="1088" y="-74.5" font-family="Helvetica,sans-Serif" font-size="10.00" fill="#000000">amr&#45;wind/equation_systems</text>
<text text-anchor="middle" x="1149.5" y="-63.5" font-family="Helvetica,sans-Serif" font-size="10.00" fill="#000000">/PDEFields.H</text>
</a>
</g>
</g>
<!-- Node26&#45;&gt;Node33 -->
<g id="edge55" class="edge">
<title>Node26&#45;&gt;Node33</title>
<path fill="none" stroke="#191970" d="M1148.7269,-123.2967C1148.8433,-115.5013 1148.9881,-105.7991 1149.1208,-96.9064"/>
<polygon fill="#191970" stroke="#191970" points="1152.6243,-96.6943 1149.274,-86.6432 1145.625,-96.5898 1152.6243,-96.6943"/>
</g>
<!-- Node27&#45;&gt;Node15 -->
<g id="edge46" class="edge">
<title>Node27&#45;&gt;Node15</title>
<path fill="none" stroke="#191970" d="M1418.9797,-62.7685C1403.1616,-60.5597 1386.2058,-58.1923 1370.5,-56 1259.0815,-40.4474 1228.3689,-39.4095 1114.3902,-20.254"/>
<polygon fill="#191970" stroke="#191970" points="1114.6516,-16.7486 1104.2079,-18.5321 1113.4843,-23.6506 1114.6516,-16.7486"/>
</g>
<!-- Node27&#45;&gt;Node21 -->
<g id="edge45" class="edge">
<title>Node27&#45;&gt;Node21</title>
<path fill="none" stroke="#191970" d="M1433.5859,-61.9155C1388.091,-52.6096 1317.5816,-37.6571 1247.682,-20.1931"/>
<polygon fill="#191970" stroke="#191970" points="1248.3774,-16.759 1237.8256,-17.7125 1246.669,-23.5473 1248.3774,-16.759"/>
</g>
<!-- Node28 -->
<g id="node29" class="node">
<title>Node28</title>
<polygon fill="#ffffff" stroke="#bfbfbf" points="1900.5,-.5 1900.5,-19.5 1954.5,-19.5 1954.5,-.5 1900.5,-.5"/>
<text text-anchor="middle" x="1927.5" y="-7.5" font-family="Helvetica,sans-Serif" font-size="10.00" fill="#000000">iostream</text>
</g>
<!-- Node27&#45;&gt;Node28 -->
<g id="edge47" class="edge">
<title>Node27&#45;&gt;Node28</title>
<path fill="none" stroke="#191970" d="M1522.8777,-61.9282C1532.8701,-59.8008 1543.5396,-57.6812 1553.5,-56 1675.9633,-35.3298 1822.4709,-20.0196 1890.0144,-13.487"/>
<polygon fill="#191970" stroke="#191970" points="1890.5405,-16.9527 1900.1609,-12.5145 1889.8726,-9.9846 1890.5405,-16.9527"/>
</g>
<!-- Node29 -->
<g id="node30" class="node">
<title>Node29</title>
<polygon fill="#ffffff" stroke="#bfbfbf" points="1596,-.5 1596,-19.5 1683,-19.5 1683,-.5 1596,-.5"/>
<text text-anchor="middle" x="1639.5" y="-7.5" font-family="Helvetica,sans-Serif" font-size="10.00" fill="#000000">AMReX_Print.H</text>
</g>
<!-- Node27&#45;&gt;Node29 -->
<g id="edge48" class="edge">
<title>Node27&#45;&gt;Node29</title>
<path fill="none" stroke="#191970" d="M1506.1875,-61.8906C1532.8557,-51.5103 1575.5282,-34.9004 1605.3911,-23.2766"/>
<polygon fill="#191970" stroke="#191970" points="1606.9365,-26.4309 1614.9859,-19.5419 1604.3973,-19.9076 1606.9365,-26.4309"/>
</g>
<!-- Node30 -->
<g id="node31" class="node">
<title>Node30</title>
<polygon fill="#ffffff" stroke="#bfbfbf" points="1515.5,-.5 1515.5,-19.5 1577.5,-19.5 1577.5,-.5 1515.5,-.5"/>
<text text-anchor="middle" x="1546.5" y="-7.5" font-family="Helvetica,sans-Serif" font-size="10.00" fill="#000000">AMReX.H</text>
</g>
<!-- Node27&#45;&gt;Node30 -->
<g id="edge49" class="edge">
<title>Node27&#45;&gt;Node30</title>
<path fill="none" stroke="#191970" d="M1491.6563,-61.8906C1501.5199,-52.5581 1516.7055,-38.1902 1528.5987,-26.9374"/>
<polygon fill="#191970" stroke="#191970" points="1531.3421,-29.1601 1536.2006,-19.7449 1526.5311,-24.0753 1531.3421,-29.1601"/>
</g>
<!-- Node31&#45;&gt;Node14 -->
<g id="edge51" class="edge">
<title>Node31&#45;&gt;Node14</title>
<path fill="none" stroke="#191970" d="M1259.6803,-61.9642C1249.2571,-59.7333 1237.9979,-57.5567 1227.5,-56 1035.1658,-27.4798 984.7579,-41.3825 791.5,-20 777.9766,-18.5037 763.0738,-16.4941 750.3519,-14.669"/>
<polygon fill="#191970" stroke="#191970" points="750.6575,-11.1766 740.2566,-13.1945 749.6458,-18.1031 750.6575,-11.1766"/>
</g>
<!-- Node31&#45;&gt;Node15 -->
<g id="edge53" class="edge">
<title>Node31&#45;&gt;Node15</title>
<path fill="none" stroke="#191970" d="M1262.7288,-61.9581C1221.3894,-51.2308 1154.1767,-33.7895 1109.1678,-22.11"/>
<polygon fill="#191970" stroke="#191970" points="1109.916,-18.6883 1099.3575,-19.5643 1108.1578,-25.4639 1109.916,-18.6883"/>
</g>
<!-- Node31&#45;&gt;Node21 -->
<g id="edge52" class="edge">
<title>Node31&#45;&gt;Node21</title>
<path fill="none" stroke="#191970" d="M1285.75,-61.8906C1271.8009,-52.1421 1249.9902,-36.8994 1233.6103,-25.4521"/>
<polygon fill="#191970" stroke="#191970" points="1235.3551,-22.4015 1225.1534,-19.5419 1231.3452,-28.1392 1235.3551,-22.4015"/>
</g>
<!-- Node32 -->
<g id="node33" class="node">
<title>Node32</title>
<polygon fill="#ffffff" stroke="#bfbfbf" points="1256,-.5 1256,-19.5 1351,-19.5 1351,-.5 1256,-.5"/>
<text text-anchor="middle" x="1303.5" y="-7.5" font-family="Helvetica,sans-Serif" font-size="10.00" fill="#000000">AMReX_Vector.H</text>
</g>
<!-- Node31&#45;&gt;Node32 -->
<g id="edge54" class="edge">
<title>Node31&#45;&gt;Node32</title>
<path fill="none" stroke="#191970" d="M1300.125,-61.8906C1300.6795,-53.3657 1301.5072,-40.6392 1302.2042,-29.9235"/>
<polygon fill="#191970" stroke="#191970" points="1305.7097,-29.951 1302.8662,-19.7449 1298.7244,-29.4966 1305.7097,-29.951"/>
</g>
<!-- Node34 -->
<g id="node35" class="node">
<title>Node34</title>
<polygon fill="#ffffff" stroke="#bfbfbf" points="1122,-.5 1122,-19.5 1167,-19.5 1167,-.5 1122,-.5"/>
<text text-anchor="middle" x="1144.5" y="-7.5" font-family="Helvetica,sans-Serif" font-size="10.00" fill="#000000">iosfwd</text>
</g>
<!-- Node33&#45;&gt;Node34 -->
<g id="edge56" class="edge">
<title>Node33&#45;&gt;Node34</title>
<path fill="none" stroke="#191970" d="M1148.264,-56.2977C1147.6206,-48.3834 1146.8256,-38.6043 1146.1322,-30.0759"/>
<polygon fill="#191970" stroke="#191970" points="1149.5995,-29.5304 1145.3006,-19.8469 1142.6225,-30.0977 1149.5995,-29.5304"/>
</g>
<!-- Node35&#45;&gt;Node18 -->
<g id="edge62" class="edge">
<title>Node35&#45;&gt;Node18</title>
<path fill="none" stroke="#191970" d="M1257.9415,-128.9307C1247.6995,-126.7786 1236.7332,-124.6473 1226.5,-123 1082.583,-99.8334 1041.787,-122.8717 900.5,-87 865.1422,-78.0229 859.4894,-66.3201 824.5,-56 763.7701,-38.0878 692.4051,-25.5871 642.6007,-18.1847"/>
<polygon fill="#191970" stroke="#191970" points="643.0256,-14.7097 632.6246,-16.7273 642.0136,-21.6362 643.0256,-14.7097"/>
</g>
<!-- Node35&#45;&gt;Node27 -->
<g id="edge60" class="edge">
<title>Node35&#45;&gt;Node27</title>
<path fill="none" stroke="#191970" d="M1325.5762,-128.9005C1357.2011,-117.2584 1410.6544,-97.5805 1446.0124,-84.5641"/>
<polygon fill="#191970" stroke="#191970" points="1447.297,-87.8209 1455.4722,-81.0817 1444.8787,-81.2519 1447.297,-87.8209"/>
</g>
<!-- Node35&#45;&gt;Node31 -->
<g id="edge61" class="edge">
<title>Node35&#45;&gt;Node31</title>
<path fill="none" stroke="#191970" d="M1299.5,-128.9005C1299.5,-119.149 1299.5,-103.7597 1299.5,-91.3695"/>
<polygon fill="#191970" stroke="#191970" points="1303.0001,-91.0816 1299.5,-81.0817 1296.0001,-91.0817 1303.0001,-91.0816"/>
</g>
<!-- Node36 -->
<g id="node37" class="node">
<title>Node36</title>
<polygon fill="#ffffff" stroke="#bfbfbf" points="1562.5,-62 1562.5,-81 1672.5,-81 1672.5,-62 1562.5,-62"/>
<text text-anchor="middle" x="1617.5" y="-69" font-family="Helvetica,sans-Serif" font-size="10.00" fill="#000000">AMReX_Geometry.H</text>
</g>
<!-- Node35&#45;&gt;Node36 -->
<g id="edge63" class="edge">
<title>Node35&#45;&gt;Node36</title>
<path fill="none" stroke="#191970" d="M1349.0515,-128.9196C1400.1324,-118.9249 1482.0323,-102.5695 1552.5,-87 1557.6082,-85.8714 1562.9336,-84.6594 1568.2412,-83.4285"/>
<polygon fill="#191970" stroke="#191970" points="1569.4273,-86.7454 1578.3643,-81.055 1567.8294,-79.9302 1569.4273,-86.7454"/>
</g>
<!-- Node38&#45;&gt;Node28 -->
<g id="edge68" class="edge">
<title>Node38&#45;&gt;Node28</title>
<path fill="none" stroke="#191970" d="M2126.4143,-257.4648C2135.482,-218.8796 2153.5308,-115.237 2103.5,-56 2085.7862,-35.0267 2010.9626,-21.325 1964.766,-14.6912"/>
<polygon fill="#191970" stroke="#191970" points="1965.1995,-11.2179 1954.8127,-13.3072 1964.2354,-18.1512 1965.1995,-11.2179"/>
</g>
<!-- Node39 -->
<g id="node40" class="node">
<title>Node39</title>
<polygon fill="#ffffff" stroke="#bfbfbf" points="2150.5,-196 2150.5,-215 2246.5,-215 2246.5,-196 2150.5,-196"/>
<text text-anchor="middle" x="2198.5" y="-203" font-family="Helvetica,sans-Serif" font-size="10.00" fill="#000000">AMReX_MLMG.H</text>
</g>
<!-- Node38&#45;&gt;Node39 -->
<g id="edge69" class="edge">
<title>Node38&#45;&gt;Node39</title>
<path fill="none" stroke="#191970" d="M2139.7456,-257.2967C2151.7017,-246.7564 2167.6119,-232.7303 2179.8604,-221.9323"/>
<polygon fill="#191970" stroke="#191970" points="2182.4748,-224.2934 2187.6615,-215.055 2177.8457,-219.0425 2182.4748,-224.2934"/>
</g>
</g>
</svg>
        <g id="navigator" transform="translate(0 0)" fill="#404254">
                <rect fill="#f2f5e9" fill-opacity="0.5" stroke="#606060" stroke-width=".5" x="0" y="0" width="60" height="60"/>
                <use id="zoomplus" xlink:href="#zoomPlus" x="17" y="9" onmousedown="handleZoom(evt,'in')"/>
                <use id="zoomminus" xlink:href="#zoomMin" x="42" y="9" onmousedown="handleZoom(evt,'out')"/>
                <use id="reset" xlink:href="#resetDef" x="30" y="36" onmousedown="handleReset()"/>
                <g id="arrowUp" xlink:href="#dirArrow" transform="translate(30 24)" onmousedown="handlePan(0,-1)">
                  <use xlink:href="#rim" fill="#404040">
                        <set attributeName="fill" to="#808080" begin="arrowUp.mouseover" end="arrowUp.mouseout"/>
                  </use>
                  <path fill="none" stroke="white" stroke-width="1.5" d="M0,-3.0v7 M-2.5,-0.5L0,-3.0L2.5,-0.5"/>
                </g>
                <g id="arrowRight" xlink:href="#dirArrow" transform="rotate(90) translate(36 -43)" onmousedown="handlePan(1,0)">
                  <use xlink:href="#rim" fill="#404040">
                        <set attributeName="fill" to="#808080" begin="arrowRight.mouseover" end="arrowRight.mouseout"/>
                  </use>
                  <path fill="none" stroke="white" stroke-width="1.5" d="M0,-3.0v7 M-2.5,-0.5L0,-3.0L2.5,-0.5"/>
                </g>
                <g id="arrowDown" xlink:href="#dirArrow" transform="rotate(180) translate(-30 -48)" onmousedown="handlePan(0,1)">
                  <use xlink:href="#rim" fill="#404040">
                        <set attributeName="fill" to="#808080" begin="arrowDown.mouseover" end="arrowDown.mouseout"/>
                  </use>
                  <path fill="none" stroke="white" stroke-width="1.5" d="M0,-3.0v7 M-2.5,-0.5L0,-3.0L2.5,-0.5"/>
                </g>
                <g id="arrowLeft" xlink:href="#dirArrow" transform="rotate(270) translate(-36 17)" onmousedown="handlePan(-1,0)">
                  <use xlink:href="#rim" fill="#404040">
                        <set attributeName="fill" to="#808080" begin="arrowLeft.mouseover" end="arrowLeft.mouseout"/>
                  </use>
                  <path fill="none" stroke="white" stroke-width="1.5" d="M0,-3.0v7 M-2.5,-0.5L0,-3.0L2.5,-0.5"/>
                </g>
        </g>
        <svg viewBox="0 0 15 15" width="100%" height="30px" preserveAspectRatio="xMaxYMin meet">
         <g id="arrow_out" transform="scale(0.3 0.3)">
          <a xlink:href="main_8cpp__incl_org.svg" target="_base">
           <rect id="button" ry="5" rx="5" y="6" x="6" height="38" width="38"
                fill="#f2f5e9" fill-opacity="0.5" stroke="#606060" stroke-width="1.0"/>
           <path id="arrow"
             d="M 11.500037,31.436501 C 11.940474,20.09759 22.043105,11.32322 32.158766,21.979434 L 37.068811,17.246167 C 37.068811,17.246167 37.088388,32 37.088388,32 L 22.160133,31.978069 C 22.160133,31.978069 26.997745,27.140456 26.997745,27.140456 C 18.528582,18.264221 13.291696,25.230495 11.500037,31.436501 z"
             style="fill:#404040;"/>
          </a>
         </g>
        </svg>
</svg>
