<?xml version="1.0" encoding="UTF-8" standalone="no"?>
<!DOCTYPE svg PUBLIC "-//W3C//DTD SVG 1.1//EN"
 "http://www.w3.org/Graphics/SVG/1.1/DTD/svg11.dtd">
<!-- Generated by graphviz version 2.40.1 (20161225.0304)
 -->
<!-- Title: main.cpp Pages: 1 -->
<svg width="2256pt" height="352pt"
 viewBox="0.00 0.00 2255.50 352.00" xmlns="http://www.w3.org/2000/svg" xmlns:xlink="http://www.w3.org/1999/xlink">
<g id="graph0" class="graph" transform="scale(1 1) rotate(0) translate(4 348)">
<title>main.cpp</title>
<polygon fill="#ffffff" stroke="transparent" points="-4,4 -4,-348 2251.5,-348 2251.5,4 -4,4"/>
<!-- Node0 -->
<g id="node1" class="node">
<title>Node0</title>
<polygon fill="#bfbfbf" stroke="#000000" points="1705.5,-324.5 1705.5,-343.5 1761.5,-343.5 1761.5,-324.5 1705.5,-324.5"/>
<text text-anchor="middle" x="1733.5" y="-331.5" font-family="Helvetica,sans-Serif" font-size="10.00" fill="#000000">main.cpp</text>
</g>
<!-- Node1 -->
<g id="node2" class="node">
<title>Node1</title>
<g id="a_node2"><a xlink:href="incflo_8_h.html" target="_top" xlink:title="amr&#45;wind/incflo.H">
<polygon fill="#ffffff" stroke="#000000" points="1297,-263 1297,-282 1390,-282 1390,-263 1297,-263"/>
<text text-anchor="middle" x="1343.5" y="-270" font-family="Helvetica,sans-Serif" font-size="10.00" fill="#000000">amr&#45;wind/incflo.H</text>
</a>
</g>
</g>
<!-- Node0&#45;&gt;Node1 -->
<g id="edge1" class="edge">
<title>Node0&#45;&gt;Node1</title>
<path fill="none" stroke="#191970" d="M1705.4522,-329.5771C1641.6757,-319.52 1484.7631,-294.7761 1400.0028,-281.4101"/>
<polygon fill="#191970" stroke="#191970" points="1400.4581,-277.9387 1390.0349,-279.8382 1399.3677,-284.8532 1400.4581,-277.9387"/>
</g>
<!-- Node39 -->
<g id="node40" class="node">
<title>Node39</title>
<g id="a_node40"><a xlink:href="console__io_8_h.html" target="_top" xlink:title="amr&#45;wind/utilities\l/console_io.H">
<polygon fill="#ffffff" stroke="#000000" points="2078.5,-257.5 2078.5,-287.5 2168.5,-287.5 2168.5,-257.5 2078.5,-257.5"/>
<text text-anchor="start" x="2086.5" y="-275.5" font-family="Helvetica,sans-Serif" font-size="10.00" fill="#000000">amr&#45;wind/utilities</text>
<text text-anchor="middle" x="2123.5" y="-264.5" font-family="Helvetica,sans-Serif" font-size="10.00" fill="#000000">/console_io.H</text>
</a>
</g>
</g>
<!-- Node0&#45;&gt;Node39 -->
<g id="edge69" class="edge">
<title>Node0&#45;&gt;Node39</title>
<path fill="none" stroke="#191970" d="M1761.5478,-329.5771C1825.66,-319.4671 1983.8912,-294.5152 2068.3295,-281.2"/>
<polygon fill="#191970" stroke="#191970" points="2068.9171,-284.6506 2078.2498,-279.6356 2067.8266,-277.7361 2068.9171,-284.6506"/>
</g>
<!-- Node2 -->
<g id="node3" class="node">
<title>Node2</title>
<polygon fill="#ffffff" stroke="#bfbfbf" points="710.5,-62 710.5,-81 816.5,-81 816.5,-62 710.5,-62"/>
<text text-anchor="middle" x="763.5" y="-69" font-family="Helvetica,sans-Serif" font-size="10.00" fill="#000000">AMReX_AmrCore.H</text>
</g>
<!-- Node1&#45;&gt;Node2 -->
<g id="edge2" class="edge">
<title>Node1&#45;&gt;Node2</title>
<path fill="none" stroke="#191970" d="M1296.8131,-270.2367C1231.6238,-265.9653 1110.3286,-253.9487 1012.5,-221 953.1351,-201.0059 942.2481,-186.1728 888.5,-154 851.5416,-131.8772 810.0729,-103.8402 785.4068,-86.8065"/>
<polygon fill="#191970" stroke="#191970" points="787.3311,-83.8818 777.1189,-81.0601 783.3426,-89.6344 787.3311,-83.8818"/>
</g>
<!-- Node3 -->
<g id="node4" class="node">
<title>Node3</title>
<polygon fill="#ffffff" stroke="#bfbfbf" points="1148,-196 1148,-215 1267,-215 1267,-196 1148,-196"/>
<text text-anchor="middle" x="1207.5" y="-203" font-family="Helvetica,sans-Serif" font-size="10.00" fill="#000000">AMReX_MultiFabUtil.H</text>
</g>
<!-- Node1&#45;&gt;Node3 -->
<g id="edge3" class="edge">
<title>Node1&#45;&gt;Node3</title>
<path fill="none" stroke="#191970" d="M1324.0145,-262.9005C1300.9887,-251.5569 1262.4772,-232.5844 1236.0768,-219.5783"/>
<polygon fill="#191970" stroke="#191970" points="1237.4666,-216.3613 1226.9493,-215.0817 1234.3731,-222.6407 1237.4666,-216.3613"/>
</g>
<!-- Node4 -->
<g id="node5" class="node">
<title>Node4</title>
<polygon fill="#ffffff" stroke="#bfbfbf" points="1285.5,-196 1285.5,-215 1401.5,-215 1401.5,-196 1285.5,-196"/>
<text text-anchor="middle" x="1343.5" y="-203" font-family="Helvetica,sans-Serif" font-size="10.00" fill="#000000">AMReX_ParmParse.H</text>
</g>
<!-- Node1&#45;&gt;Node4 -->
<g id="edge4" class="edge">
<title>Node1&#45;&gt;Node4</title>
<path fill="none" stroke="#191970" d="M1343.5,-262.9005C1343.5,-253.149 1343.5,-237.7597 1343.5,-225.3695"/>
<polygon fill="#191970" stroke="#191970" points="1347.0001,-225.0816 1343.5,-215.0817 1340.0001,-225.0817 1347.0001,-225.0816"/>
</g>
<!-- Node5 -->
<g id="node6" class="node">
<title>Node5</title>
<polygon fill="#ffffff" stroke="#bfbfbf" points="0,-.5 0,-19.5 107,-19.5 107,-.5 0,-.5"/>
<text text-anchor="middle" x="53.5" y="-7.5" font-family="Helvetica,sans-Serif" font-size="10.00" fill="#000000">AMReX_iMultiFab.H</text>
</g>
<!-- Node1&#45;&gt;Node5 -->
<g id="edge5" class="edge">
<title>Node1&#45;&gt;Node5</title>
<path fill="none" stroke="#191970" d="M1296.6826,-270.4915C1193.698,-265.6539 939.9162,-251.4349 729.5,-221 438.0049,-178.8377 302.2044,-280.8923 80.5,-87 63.9767,-72.5495 57.564,-47.3818 55.076,-29.7651"/>
<polygon fill="#191970" stroke="#191970" points="58.5409,-29.2544 53.9596,-19.7013 51.5836,-30.0263 58.5409,-29.2544"/>
</g>
<!-- Node6 -->
<g id="node7" class="node">
<title>Node6</title>
<polygon fill="#ffffff" stroke="#bfbfbf" points="1420,-196 1420,-215 1551,-215 1551,-196 1420,-196"/>
<text text-anchor="middle" x="1485.5" y="-203" font-family="Helvetica,sans-Serif" font-size="10.00" fill="#000000">AMReX_NodalProjector.H</text>
</g>
<!-- Node1&#45;&gt;Node6 -->
<g id="edge6" class="edge">
<title>Node1&#45;&gt;Node6</title>
<path fill="none" stroke="#191970" d="M1363.8451,-262.9005C1387.9923,-251.5072 1428.4504,-232.4178 1456.0245,-219.4075"/>
<polygon fill="#191970" stroke="#191970" points="1457.6423,-222.5142 1465.1926,-215.0817 1454.6552,-216.1835 1457.6423,-222.5142"/>
</g>
<!-- Node7 -->
<g id="node8" class="node">
<title>Node7</title>
<g id="a_node8"><a xlink:href="incflo__enums_8_h.html" target="_top" xlink:title="amr&#45;wind/incflo_enums.H">
<polygon fill="#ffffff" stroke="#000000" points="1337.5,-.5 1337.5,-19.5 1465.5,-19.5 1465.5,-.5 1337.5,-.5"/>
<text text-anchor="middle" x="1401.5" y="-7.5" font-family="Helvetica,sans-Serif" font-size="10.00" fill="#000000">amr&#45;wind/incflo_enums.H</text>
</a>
</g>
</g>
<!-- Node1&#45;&gt;Node7 -->
<g id="edge7" class="edge">
<title>Node1&#45;&gt;Node7</title>
<path fill="none" stroke="#191970" d="M1390.209,-268.7537C1478.7032,-261.1808 1663.6801,-242.895 1682.5,-221 1730.302,-165.3876 1729.9815,-111.8863 1682.5,-56 1679.1202,-52.0219 1557.8079,-33.2587 1475.6998,-20.9587"/>
<polygon fill="#191970" stroke="#191970" points="1476.0495,-17.4721 1465.6419,-19.4549 1475.0143,-24.3952 1476.0495,-17.4721"/>
</g>
<!-- Node8 -->
<g id="node9" class="node">
<title>Node8</title>
<g id="a_node9"><a xlink:href="_c_f_d_sim_8_h.html" target="_top" xlink:title="amr&#45;wind/CFDSim.H">
<polygon fill="#ffffff" stroke="#000000" points="1021.5,-196 1021.5,-215 1129.5,-215 1129.5,-196 1021.5,-196"/>
<text text-anchor="middle" x="1075.5" y="-203" font-family="Helvetica,sans-Serif" font-size="10.00" fill="#000000">amr&#45;wind/CFDSim.H</text>
</a>
</g>
</g>
<!-- Node1&#45;&gt;Node8 -->
<g id="edge8" class="edge">
<title>Node1&#45;&gt;Node8</title>
<path fill="none" stroke="#191970" d="M1305.3867,-262.9717C1257.6979,-251.0495 1175.9833,-230.6208 1123.9151,-217.6038"/>
<polygon fill="#191970" stroke="#191970" points="1124.466,-214.1339 1113.9157,-215.1039 1122.7682,-220.9248 1124.466,-214.1339"/>
</g>
<!-- Node9 -->
<g id="node10" class="node">
<title>Node9</title>
<g id="a_node10"><a xlink:href="_sim_time_8_h.html" target="_top" xlink:title="amr&#45;wind/core/SimTime.H">
<polygon fill="#ffffff" stroke="#000000" points="1730,-129 1730,-148 1861,-148 1861,-129 1730,-129"/>
<text text-anchor="middle" x="1795.5" y="-136" font-family="Helvetica,sans-Serif" font-size="10.00" fill="#000000">amr&#45;wind/core/SimTime.H</text>
</a>
</g>
</g>
<!-- Node1&#45;&gt;Node9 -->
<g id="edge66" class="edge">
<title>Node1&#45;&gt;Node9</title>
<path fill="none" stroke="#191970" d="M1390.14,-269.8252C1476.9175,-264.2346 1659.4541,-249.4112 1715.5,-221 1744.9956,-206.0479 1769.8332,-175.8731 1783.6798,-156.4559"/>
<polygon fill="#191970" stroke="#191970" points="1786.6155,-158.3638 1789.4063,-148.1431 1780.8509,-154.3926 1786.6155,-158.3638"/>
</g>
<!-- Node13 -->
<g id="node14" class="node">
<title>Node13</title>
<g id="a_node14"><a xlink:href="_field_repo_8_h.html" target="_top" xlink:title="amr&#45;wind/core/FieldRepo.H">
<polygon fill="#ffffff" stroke="#000000" points="595.5,-129 595.5,-148 731.5,-148 731.5,-129 595.5,-129"/>
<text text-anchor="middle" x="663.5" y="-136" font-family="Helvetica,sans-Serif" font-size="10.00" fill="#000000">amr&#45;wind/core/FieldRepo.H</text>
</a>
</g>
</g>
<!-- Node1&#45;&gt;Node13 -->
<g id="edge67" class="edge">
<title>Node1&#45;&gt;Node13</title>
<path fill="none" stroke="#191970" d="M1296.9454,-270.9374C1181.8025,-266.627 886.2887,-252.7227 793.5,-221 750.2485,-206.2131 706.7746,-174.3705 682.6735,-154.8553"/>
<polygon fill="#191970" stroke="#191970" points="684.6466,-151.9456 674.7069,-148.2776 680.1898,-157.3434 684.6466,-151.9456"/>
</g>
<!-- Node38 -->
<g id="node39" class="node">
<title>Node38</title>
<g id="a_node39"><a xlink:href="incflo__prob___i_8_h.html" target="_top" xlink:title="amr&#45;wind/prob/incflo\l_prob_I.H">
<polygon fill="#ffffff" stroke="#000000" points="1569.5,-190.5 1569.5,-220.5 1673.5,-220.5 1673.5,-190.5 1569.5,-190.5"/>
<text text-anchor="start" x="1577.5" y="-208.5" font-family="Helvetica,sans-Serif" font-size="10.00" fill="#000000">amr&#45;wind/prob/incflo</text>
<text text-anchor="middle" x="1621.5" y="-197.5" font-family="Helvetica,sans-Serif" font-size="10.00" fill="#000000">_prob_I.H</text>
</a>
</g>
</g>
<!-- Node1&#45;&gt;Node38 -->
<g id="edge68" class="edge">
<title>Node1&#45;&gt;Node38</title>
<path fill="none" stroke="#191970" d="M1384.1384,-262.9504C1427.5786,-252.7098 1498.4555,-235.9074 1559.5,-221 1559.601,-220.9753 1559.7022,-220.9506 1559.8034,-220.9259"/>
<polygon fill="#191970" stroke="#191970" points="1560.5385,-224.3494 1569.415,-218.5651 1558.8688,-217.5515 1560.5385,-224.3494"/>
</g>
<!-- Node8&#45;&gt;Node2 -->
<g id="edge9" class="edge">
<title>Node8&#45;&gt;Node2</title>
<path fill="none" stroke="#191970" d="M1053.0617,-195.8631C998.4187,-172.3946 858.3127,-112.2208 795.1814,-85.1067"/>
<polygon fill="#191970" stroke="#191970" points="796.3046,-81.78 785.735,-81.0496 793.5421,-88.2119 796.3046,-81.78"/>
</g>
<!-- Node8&#45;&gt;Node9 -->
<g id="edge10" class="edge">
<title>Node8&#45;&gt;Node9</title>
<path fill="none" stroke="#191970" d="M1109.9524,-195.9493C1119.165,-193.691 1129.159,-191.5049 1138.5,-190 1347.2478,-156.3695 1596.9907,-144.4561 1719.7558,-140.4308"/>
<polygon fill="#191970" stroke="#191970" points="1719.9216,-143.9273 1729.8047,-140.1097 1719.698,-136.9309 1719.9216,-143.9273"/>
</g>
<!-- Node8&#45;&gt;Node13 -->
<g id="edge14" class="edge">
<title>Node8&#45;&gt;Node13</title>
<path fill="none" stroke="#191970" d="M1021.2145,-196.672C946.9307,-184.5919 813.586,-162.9072 732.3613,-149.6983"/>
<polygon fill="#191970" stroke="#191970" points="732.6663,-146.202 722.2342,-148.0514 731.5427,-153.1113 732.6663,-146.202"/>
</g>
<!-- Node28 -->
<g id="node29" class="node">
<title>Node28</title>
<g id="a_node29"><a xlink:href="_p_d_e_base_8_h.html" target="_top" xlink:title="amr&#45;wind/equation_systems\l/PDEBase.H">
<polygon fill="#ffffff" stroke="#000000" points="1040,-123.5 1040,-153.5 1179,-153.5 1179,-123.5 1040,-123.5"/>
<text text-anchor="start" x="1048" y="-141.5" font-family="Helvetica,sans-Serif" font-size="10.00" fill="#000000">amr&#45;wind/equation_systems</text>
<text text-anchor="middle" x="1109.5" y="-130.5" font-family="Helvetica,sans-Serif" font-size="10.00" fill="#000000">/PDEBase.H</text>
</a>
</g>
</g>
<!-- Node8&#45;&gt;Node28 -->
<g id="edge44" class="edge">
<title>Node8&#45;&gt;Node28</title>
<path fill="none" stroke="#191970" d="M1080.3714,-195.9005C1084.761,-187.2503 1091.4019,-174.164 1097.2347,-162.6699"/>
<polygon fill="#191970" stroke="#191970" points="1100.4728,-164.0231 1101.877,-153.5218 1094.2305,-160.8554 1100.4728,-164.0231"/>
</g>
<!-- Node36 -->
<g id="node37" class="node">
<title>Node36</title>
<g id="a_node37"><a xlink:href="_physics_8_h.html" target="_top" xlink:title="amr&#45;wind/core/Physics.H">
<polygon fill="#ffffff" stroke="#000000" points="1197,-129 1197,-148 1324,-148 1324,-129 1197,-129"/>
<text text-anchor="middle" x="1260.5" y="-136" font-family="Helvetica,sans-Serif" font-size="10.00" fill="#000000">amr&#45;wind/core/Physics.H</text>
</a>
</g>
</g>
<!-- Node8&#45;&gt;Node36 -->
<g id="edge61" class="edge">
<title>Node8&#45;&gt;Node36</title>
<path fill="none" stroke="#191970" d="M1102.006,-195.9005C1134.1522,-184.2584 1188.4866,-164.5805 1224.4275,-151.5641"/>
<polygon fill="#191970" stroke="#191970" points="1225.8326,-154.7777 1234.0432,-148.0817 1223.449,-148.1961 1225.8326,-154.7777"/>
</g>
<!-- Node10 -->
<g id="node11" class="node">
<title>Node10</title>
<polygon fill="#ffffff" stroke="#bfbfbf" points="1730,-62 1730,-81 1823,-81 1823,-62 1730,-62"/>
<text text-anchor="middle" x="1776.5" y="-69" font-family="Helvetica,sans-Serif" font-size="10.00" fill="#000000">AMReX_REAL.H</text>
</g>
<!-- Node9&#45;&gt;Node10 -->
<g id="edge11" class="edge">
<title>Node9&#45;&gt;Node10</title>
<path fill="none" stroke="#191970" d="M1792.7778,-128.9005C1789.9842,-119.0495 1785.559,-103.4451 1782.0273,-90.9912"/>
<polygon fill="#191970" stroke="#191970" points="1785.3127,-89.7474 1779.2172,-81.0817 1778.5783,-91.6572 1785.3127,-89.7474"/>
</g>
<!-- Node11 -->
<g id="node12" class="node">
<title>Node11</title>
<polygon fill="#ffffff" stroke="#bfbfbf" points="1841.5,-62 1841.5,-81 1967.5,-81 1967.5,-62 1841.5,-62"/>
<text text-anchor="middle" x="1904.5" y="-69" font-family="Helvetica,sans-Serif" font-size="10.00" fill="#000000">AMReX_GpuQualifiers.H</text>
</g>
<!-- Node9&#45;&gt;Node11 -->
<g id="edge12" class="edge">
<title>Node9&#45;&gt;Node11</title>
<path fill="none" stroke="#191970" d="M1811.117,-128.9005C1829.1669,-117.8057 1859.0896,-99.4128 1880.1908,-86.4424"/>
<polygon fill="#191970" stroke="#191970" points="1882.2255,-89.3001 1888.9119,-81.0817 1878.5598,-83.3366 1882.2255,-89.3001"/>
</g>
<!-- Node12 -->
<g id="node13" class="node">
<title>Node12</title>
<polygon fill="#ffffff" stroke="#bfbfbf" points="1985.5,-62 1985.5,-81 2095.5,-81 2095.5,-62 1985.5,-62"/>
<text text-anchor="middle" x="2040.5" y="-69" font-family="Helvetica,sans-Serif" font-size="10.00" fill="#000000">AMReX_Extension.H</text>
</g>
<!-- Node9&#45;&gt;Node12 -->
<g id="edge13" class="edge">
<title>Node9&#45;&gt;Node12</title>
<path fill="none" stroke="#191970" d="M1830.3423,-128.9717C1873.7569,-117.0991 1948.0183,-96.7909 1995.6435,-83.7669"/>
<polygon fill="#191970" stroke="#191970" points="1996.6586,-87.1179 2005.3812,-81.1039 1994.8121,-80.3658 1996.6586,-87.1179"/>
</g>
<!-- Node13&#45;&gt;Node2 -->
<g id="edge41" class="edge">
<title>Node13&#45;&gt;Node2</title>
<path fill="none" stroke="#191970" d="M677.8276,-128.9005C694.2385,-117.9052 721.3475,-99.7422 740.6751,-86.7927"/>
<polygon fill="#191970" stroke="#191970" points="742.8395,-89.5556 749.199,-81.0817 738.9431,-83.7402 742.8395,-89.5556"/>
</g>
<!-- Node13&#45;&gt;Node5 -->
<g id="edge43" class="edge">
<title>Node13&#45;&gt;Node5</title>
<path fill="none" stroke="#191970" d="M595.4442,-134.9087C458.8647,-127.2891 160.8475,-108.4356 119.5,-87 94.3254,-73.9489 74.7042,-46.8432 63.6128,-28.5325"/>
<polygon fill="#191970" stroke="#191970" points="66.5106,-26.5517 58.4765,-19.6448 60.4499,-30.0543 66.5106,-26.5517"/>
</g>
<!-- Node14 -->
<g id="node15" class="node">
<title>Node14</title>
<polygon fill="#ffffff" stroke="#bfbfbf" points="710,-.5 710,-19.5 751,-19.5 751,-.5 710,-.5"/>
<text text-anchor="middle" x="730.5" y="-7.5" font-family="Helvetica,sans-Serif" font-size="10.00" fill="#000000">string</text>
</g>
<!-- Node13&#45;&gt;Node14 -->
<g id="edge15" class="edge">
<title>Node13&#45;&gt;Node14</title>
<path fill="none" stroke="#191970" d="M667.5434,-128.6454C674.0864,-112.9657 687.664,-81.5041 701.5,-56 706.6025,-46.5945 712.8715,-36.5003 718.2739,-28.171"/>
<polygon fill="#191970" stroke="#191970" points="721.3116,-29.9223 723.8967,-19.6477 715.4685,-26.0676 721.3116,-29.9223"/>
</g>
<!-- Node15 -->
<g id="node16" class="node">
<title>Node15</title>
<polygon fill="#ffffff" stroke="#bfbfbf" points="1102,-.5 1102,-19.5 1185,-19.5 1185,-.5 1102,-.5"/>
<text text-anchor="middle" x="1143.5" y="-7.5" font-family="Helvetica,sans-Serif" font-size="10.00" fill="#000000">unordered_map</text>
</g>
<!-- Node13&#45;&gt;Node15 -->
<g id="edge16" class="edge">
<title>Node13&#45;&gt;Node15</title>
<path fill="none" stroke="#191970" d="M731.8144,-133.2925C823.19,-125.5898 979.815,-109.5947 1032.5,-87 1052.8496,-78.2728 1053.4799,-68.8665 1071.5,-56 1086.8493,-45.0405 1104.7127,-33.6201 1118.8064,-24.9001"/>
<polygon fill="#191970" stroke="#191970" points="1120.7657,-27.8044 1127.4593,-19.5919 1117.1052,-21.8377 1120.7657,-27.8044"/>
</g>
<!-- Node16 -->
<g id="node17" class="node">
<title>Node16</title>
<g id="a_node17"><a xlink:href="_field_desc_types_8_h.html" target="_top" xlink:title="amr&#45;wind/core/FieldDescTypes.H">
<polygon fill="#ffffff" stroke="#000000" points="260,-.5 260,-19.5 423,-19.5 423,-.5 260,-.5"/>
<text text-anchor="middle" x="341.5" y="-7.5" font-family="Helvetica,sans-Serif" font-size="10.00" fill="#000000">amr&#45;wind/core/FieldDescTypes.H</text>
</a>
</g>
</g>
<!-- Node13&#45;&gt;Node16 -->
<g id="edge17" class="edge">
<title>Node13&#45;&gt;Node16</title>
<path fill="none" stroke="#191970" d="M595.3544,-136.9362C458.4192,-133.0871 160.2611,-120.8705 129.5,-87 120.2371,-76.8007 120.852,-66.7257 129.5,-56 138.4666,-44.8791 211.2706,-30.7825 269.0938,-21.1437"/>
<polygon fill="#191970" stroke="#191970" points="269.6659,-24.5967 278.9636,-19.517 268.5275,-17.6899 269.6659,-24.5967"/>
</g>
<!-- Node17 -->
<g id="node18" class="node">
<title>Node17</title>
<g id="a_node18"><a xlink:href="_field_utils_8_h.html" target="_top" xlink:title="amr&#45;wind/core/FieldUtils.H">
<polygon fill="#ffffff" stroke="#000000" points="281,-62 281,-81 414,-81 414,-62 281,-62"/>
<text text-anchor="middle" x="347.5" y="-69" font-family="Helvetica,sans-Serif" font-size="10.00" fill="#000000">amr&#45;wind/core/FieldUtils.H</text>
</a>
</g>
</g>
<!-- Node13&#45;&gt;Node17 -->
<g id="edge18" class="edge">
<title>Node13&#45;&gt;Node17</title>
<path fill="none" stroke="#191970" d="M618.5605,-128.9717C561.6639,-116.9082 463.6908,-96.1354 402.4185,-83.1441"/>
<polygon fill="#191970" stroke="#191970" points="403.0485,-79.7 392.54,-81.0496 401.5966,-86.5477 403.0485,-79.7"/>
</g>
<!-- Node18 -->
<g id="node19" class="node">
<title>Node18</title>
<polygon fill="#ffffff" stroke="#bfbfbf" points="587.5,-.5 587.5,-19.5 691.5,-19.5 691.5,-.5 587.5,-.5"/>
<text text-anchor="middle" x="639.5" y="-7.5" font-family="Helvetica,sans-Serif" font-size="10.00" fill="#000000">AMReX_MultiFab.H</text>
</g>
<!-- Node13&#45;&gt;Node18 -->
<g id="edge42" class="edge">
<title>Node13&#45;&gt;Node18</title>
<path fill="none" stroke="#191970" d="M661.6961,-128.8416C657.7696,-107.8184 648.3828,-57.5598 643.1614,-29.6038"/>
<polygon fill="#191970" stroke="#191970" points="646.6014,-28.9579 641.3248,-19.7705 639.7204,-30.2431 646.6014,-28.9579"/>
</g>
<!-- Node20 -->
<g id="node21" class="node">
<title>Node20</title>
<g id="a_node21"><a xlink:href="_field_8_h.html" target="_top" xlink:title="amr&#45;wind/core/Field.H">
<polygon fill="#ffffff" stroke="#000000" points="911,-62 911,-81 1024,-81 1024,-62 911,-62"/>
<text text-anchor="middle" x="967.5" y="-69" font-family="Helvetica,sans-Serif" font-size="10.00" fill="#000000">amr&#45;wind/core/Field.H</text>
</a>
</g>
</g>
<!-- Node13&#45;&gt;Node20 -->
<g id="edge22" class="edge">
<title>Node13&#45;&gt;Node20</title>
<path fill="none" stroke="#191970" d="M706.7329,-128.9717C761.2786,-116.9501 855.0665,-96.2797 914.0508,-83.2799"/>
<polygon fill="#191970" stroke="#191970" points="914.9117,-86.6743 923.924,-81.1039 913.405,-79.8383 914.9117,-86.6743"/>
</g>
<!-- Node24 -->
<g id="node25" class="node">
<title>Node24</title>
<g id="a_node25"><a xlink:href="_int_field_8_h.html" target="_top" xlink:title="amr&#45;wind/core/IntField.H">
<polygon fill="#ffffff" stroke="#000000" points="138.5,-62 138.5,-81 262.5,-81 262.5,-62 138.5,-62"/>
<text text-anchor="middle" x="200.5" y="-69" font-family="Helvetica,sans-Serif" font-size="10.00" fill="#000000">amr&#45;wind/core/IntField.H</text>
</a>
</g>
</g>
<!-- Node13&#45;&gt;Node24 -->
<g id="edge31" class="edge">
<title>Node13&#45;&gt;Node24</title>
<path fill="none" stroke="#191970" d="M595.2513,-131.3003C516.833,-122.6189 384.4226,-106.7077 271.5,-87 264.903,-85.8487 257.9894,-84.5084 251.1741,-83.1071"/>
<polygon fill="#191970" stroke="#191970" points="251.8148,-79.6653 241.3076,-81.0253 250.3695,-86.5145 251.8148,-79.6653"/>
</g>
<!-- Node25 -->
<g id="node26" class="node">
<title>Node25</title>
<g id="a_node26"><a xlink:href="_scratch_field_8_h.html" target="_top" xlink:title="amr&#45;wind/core/ScratchField.H">
<polygon fill="#ffffff" stroke="#000000" points="470.5,-62 470.5,-81 616.5,-81 616.5,-62 470.5,-62"/>
<text text-anchor="middle" x="543.5" y="-69" font-family="Helvetica,sans-Serif" font-size="10.00" fill="#000000">amr&#45;wind/core/ScratchField.H</text>
</a>
</g>
</g>
<!-- Node13&#45;&gt;Node25 -->
<g id="edge35" class="edge">
<title>Node13&#45;&gt;Node25</title>
<path fill="none" stroke="#191970" d="M646.3069,-128.9005C626.2573,-117.7062 592.9012,-99.0823 569.6398,-86.0947"/>
<polygon fill="#191970" stroke="#191970" points="571.0987,-82.9007 560.6612,-81.0817 567.6862,-89.0126 571.0987,-82.9007"/>
</g>
<!-- Node17&#45;&gt;Node16 -->
<g id="edge19" class="edge">
<title>Node17&#45;&gt;Node16</title>
<path fill="none" stroke="#191970" d="M346.5625,-61.8906C345.7308,-53.3657 344.4892,-40.6392 343.4438,-29.9235"/>
<polygon fill="#191970" stroke="#191970" points="346.9053,-29.3577 342.4507,-19.7449 339.9383,-30.0375 346.9053,-29.3577"/>
</g>
<!-- Node17&#45;&gt;Node18 -->
<g id="edge20" class="edge">
<title>Node17&#45;&gt;Node18</title>
<path fill="none" stroke="#191970" d="M392.8046,-61.9581C444.3796,-51.0956 528.6408,-33.3488 584.086,-21.6711"/>
<polygon fill="#191970" stroke="#191970" points="585.0251,-25.0502 594.0891,-19.5643 583.5824,-18.2004 585.0251,-25.0502"/>
</g>
<!-- Node19 -->
<g id="node20" class="node">
<title>Node19</title>
<polygon fill="#ffffff" stroke="#bfbfbf" points="125.5,-.5 125.5,-19.5 241.5,-19.5 241.5,-.5 125.5,-.5"/>
<text text-anchor="middle" x="183.5" y="-7.5" font-family="Helvetica,sans-Serif" font-size="10.00" fill="#000000">AMReX_Interpolater.H</text>
</g>
<!-- Node17&#45;&gt;Node19 -->
<g id="edge21" class="edge">
<title>Node17&#45;&gt;Node19</title>
<path fill="none" stroke="#191970" d="M321.875,-61.8906C294.0737,-51.4652 249.5156,-34.7559 218.5006,-23.1252"/>
<polygon fill="#191970" stroke="#191970" points="219.5373,-19.776 208.9451,-19.5419 217.0794,-26.3303 219.5373,-19.776"/>
</g>
<!-- Node20&#45;&gt;Node7 -->
<g id="edge29" class="edge">
<title>Node20&#45;&gt;Node7</title>
<path fill="none" stroke="#191970" d="M1024.1602,-62.9563C1039.5174,-60.6676 1056.1421,-58.2148 1071.5,-56 1159.3131,-43.3362 1260.3583,-29.335 1327.2594,-20.1447"/>
<polygon fill="#191970" stroke="#191970" points="1327.8551,-23.5958 1337.2861,-18.7682 1326.903,-16.6609 1327.8551,-23.5958"/>
</g>
<!-- Node20&#45;&gt;Node14 -->
<g id="edge23" class="edge">
<title>Node20&#45;&gt;Node14</title>
<path fill="none" stroke="#191970" d="M924.1743,-61.9616C884.0354,-52.8601 822.5117,-38.2406 760.9066,-20.2468"/>
<polygon fill="#191970" stroke="#191970" points="761.6037,-16.8034 751.022,-17.3303 759.6227,-23.5172 761.6037,-16.8034"/>
</g>
<!-- Node20&#45;&gt;Node15 -->
<g id="edge25" class="edge">
<title>Node20&#45;&gt;Node15</title>
<path fill="none" stroke="#191970" d="M995,-61.8906C1024.9647,-51.42 1073.0683,-34.6111 1106.3698,-22.9745"/>
<polygon fill="#191970" stroke="#191970" points="1107.9074,-26.1448 1116.1931,-19.5419 1105.5983,-19.5366 1107.9074,-26.1448"/>
</g>
<!-- Node20&#45;&gt;Node16 -->
<g id="edge30" class="edge">
<title>Node20&#45;&gt;Node16</title>
<path fill="none" stroke="#191970" d="M910.8628,-65.0897C884.8655,-62.2059 853.6298,-58.8234 825.5,-56 654.2171,-38.8081 608.6911,-37.6195 433.4264,-20.0774"/>
<polygon fill="#191970" stroke="#191970" points="433.6449,-16.5818 423.3451,-19.0647 432.9452,-23.5467 433.6449,-16.5818"/>
</g>
<!-- Node20&#45;&gt;Node18 -->
<g id="edge26" class="edge">
<title>Node20&#45;&gt;Node18</title>
<path fill="none" stroke="#191970" d="M916.6099,-61.9581C858.2305,-51.012 762.5679,-33.0752 700.3139,-21.4026"/>
<polygon fill="#191970" stroke="#191970" points="700.7134,-17.9166 690.2396,-19.5137 699.4233,-24.7967 700.7134,-17.9166"/>
</g>
<!-- Node21 -->
<g id="node22" class="node">
<title>Node21</title>
<polygon fill="#ffffff" stroke="#bfbfbf" points="1203.5,-.5 1203.5,-19.5 1255.5,-19.5 1255.5,-.5 1203.5,-.5"/>
<text text-anchor="middle" x="1229.5" y="-7.5" font-family="Helvetica,sans-Serif" font-size="10.00" fill="#000000">memory</text>
</g>
<!-- Node20&#45;&gt;Node21 -->
<g id="edge24" class="edge">
<title>Node20&#45;&gt;Node21</title>
<path fill="none" stroke="#191970" d="M1012.2443,-61.9523C1057.9456,-52.0484 1130.8798,-35.8228 1193.5,-20 1193.5983,-19.9752 1193.6967,-19.9503 1193.7952,-19.9253"/>
<polygon fill="#191970" stroke="#191970" points="1194.4067,-23.3834 1203.1918,-17.4611 1192.631,-16.6123 1194.4067,-23.3834"/>
</g>
<!-- Node22 -->
<g id="node23" class="node">
<title>Node22</title>
<polygon fill="#ffffff" stroke="#bfbfbf" points="985,-.5 985,-19.5 1084,-19.5 1084,-.5 985,-.5"/>
<text text-anchor="middle" x="1034.5" y="-7.5" font-family="Helvetica,sans-Serif" font-size="10.00" fill="#000000">AMReX_BCRec.H</text>
</g>
<!-- Node20&#45;&gt;Node22 -->
<g id="edge27" class="edge">
<title>Node20&#45;&gt;Node22</title>
<path fill="none" stroke="#191970" d="M977.9688,-61.8906C988.2337,-52.4683 1004.0903,-37.9134 1016.4006,-26.6137"/>
<polygon fill="#191970" stroke="#191970" points="1018.8834,-29.0856 1023.8837,-19.7449 1014.1499,-23.9287 1018.8834,-29.0856"/>
</g>
<!-- Node23 -->
<g id="node24" class="node">
<title>Node23</title>
<polygon fill="#ffffff" stroke="#bfbfbf" points="882,-.5 882,-19.5 967,-19.5 967,-.5 882,-.5"/>
<text text-anchor="middle" x="924.5" y="-7.5" font-family="Helvetica,sans-Serif" font-size="10.00" fill="#000000">AMReX_Gpu.H</text>
</g>
<!-- Node20&#45;&gt;Node23 -->
<g id="edge28" class="edge">
<title>Node20&#45;&gt;Node23</title>
<path fill="none" stroke="#191970" d="M960.7813,-61.8906C954.507,-52.917 944.9777,-39.2879 937.2596,-28.2491"/>
<polygon fill="#191970" stroke="#191970" points="939.9121,-25.9348 931.3135,-19.7449 934.1753,-29.9459 939.9121,-25.9348"/>
</g>
<!-- Node24&#45;&gt;Node5 -->
<g id="edge34" class="edge">
<title>Node24&#45;&gt;Node5</title>
<path fill="none" stroke="#191970" d="M177.5313,-61.8906C152.8276,-51.5554 113.363,-35.0447 85.5973,-23.4284"/>
<polygon fill="#191970" stroke="#191970" points="86.8835,-20.1727 76.3075,-19.5419 84.1818,-26.6303 86.8835,-20.1727"/>
</g>
<!-- Node24&#45;&gt;Node14 -->
<g id="edge32" class="edge">
<title>Node24&#45;&gt;Node14</title>
<path fill="none" stroke="#191970" d="M239.7622,-61.9659C250.0408,-59.735 261.1447,-57.5579 271.5,-56 457.4739,-28.0205 511.2518,-57.4836 699.7376,-19.6742"/>
<polygon fill="#191970" stroke="#191970" points="700.5957,-23.0712 709.6928,-17.6403 699.1945,-16.2129 700.5957,-23.0712"/>
</g>
<!-- Node24&#45;&gt;Node16 -->
<g id="edge33" class="edge">
<title>Node24&#45;&gt;Node16</title>
<path fill="none" stroke="#191970" d="M222.5313,-61.8906C246.1231,-51.6005 283.7501,-35.1888 310.3633,-23.5809"/>
<polygon fill="#191970" stroke="#191970" points="311.8567,-26.748 319.6235,-19.5419 309.0581,-20.3318 311.8567,-26.748"/>
</g>
<!-- Node25&#45;&gt;Node14 -->
<g id="edge36" class="edge">
<title>Node25&#45;&gt;Node14</title>
<path fill="none" stroke="#191970" d="M572.7389,-61.9552C602.3698,-52.2722 649.7845,-36.7501 700.0892,-20.1254"/>
<polygon fill="#191970" stroke="#191970" points="701.452,-23.3612 709.8475,-16.8986 699.2543,-16.7151 701.452,-23.3612"/>
</g>
<!-- Node25&#45;&gt;Node16 -->
<g id="edge37" class="edge">
<title>Node25&#45;&gt;Node16</title>
<path fill="none" stroke="#191970" d="M511.9375,-61.8906C477.1015,-51.2846 420.905,-34.1753 382.6412,-22.5257"/>
<polygon fill="#191970" stroke="#191970" points="383.4267,-19.1063 372.8409,-19.5419 381.3879,-25.8028 383.4267,-19.1063"/>
</g>
<!-- Node25&#45;&gt;Node18 -->
<g id="edge38" class="edge">
<title>Node25&#45;&gt;Node18</title>
<path fill="none" stroke="#191970" d="M558.5,-61.8906C573.8581,-52.0519 597.9521,-36.6167 615.8745,-25.1351"/>
<polygon fill="#191970" stroke="#191970" points="618.073,-27.8833 624.6053,-19.5419 614.297,-21.9891 618.073,-27.8833"/>
</g>
<!-- Node26 -->
<g id="node27" class="node">
<title>Node26</title>
<polygon fill="#ffffff" stroke="#bfbfbf" points="769,-.5 769,-19.5 864,-19.5 864,-.5 769,-.5"/>
<text text-anchor="middle" x="816.5" y="-7.5" font-family="Helvetica,sans-Serif" font-size="10.00" fill="#000000">AMReX_Vector.H</text>
</g>
<!-- Node25&#45;&gt;Node26 -->
<g id="edge39" class="edge">
<title>Node25&#45;&gt;Node26</title>
<path fill="none" stroke="#191970" d="M585.8567,-61.9581C633.8757,-51.1406 712.201,-33.4959 764.045,-21.8168"/>
<polygon fill="#191970" stroke="#191970" points="765.0576,-25.1765 774.0439,-19.5643 763.5192,-18.3476 765.0576,-25.1765"/>
</g>
<!-- Node27 -->
<g id="node28" class="node">
<title>Node27</title>
<polygon fill="#ffffff" stroke="#bfbfbf" points="441.5,-.5 441.5,-19.5 569.5,-19.5 569.5,-.5 441.5,-.5"/>
<text text-anchor="middle" x="505.5" y="-7.5" font-family="Helvetica,sans-Serif" font-size="10.00" fill="#000000">AMReX_PhysBCFunct.H</text>
</g>
<!-- Node25&#45;&gt;Node27 -->
<g id="edge40" class="edge">
<title>Node25&#45;&gt;Node27</title>
<path fill="none" stroke="#191970" d="M537.5625,-61.8906C532.0733,-53.0068 523.7647,-39.5601 516.981,-28.5811"/>
<polygon fill="#191970" stroke="#191970" points="519.7551,-26.4122 511.5212,-19.7449 513.8002,-30.0917 519.7551,-26.4122"/>
</g>
<!-- Node28&#45;&gt;Node7 -->
<g id="edge60" class="edge">
<title>Node28&#45;&gt;Node7</title>
<path fill="none" stroke="#191970" d="M1179.2391,-124.631C1182.029,-124.0795 1184.7909,-123.5342 1187.5,-123 1269.2541,-106.8794 1307.5659,-140.4419 1371.5,-87 1388.5568,-72.7424 1395.9562,-47.5341 1399.1401,-29.8553"/>
<polygon fill="#191970" stroke="#191970" points="1402.6336,-30.1592 1400.6548,-19.7508 1395.7109,-29.1215 1402.6336,-30.1592"/>
</g>
<!-- Node28&#45;&gt;Node14 -->
<g id="edge45" class="edge">
<title>Node28&#45;&gt;Node14</title>
<path fill="none" stroke="#191970" d="M1039.7297,-124.5259C998.9099,-115.5367 946.6794,-102.6219 901.5,-87 873.8675,-77.4454 800.8412,-43.3979 759.7156,-23.9272"/>
<polygon fill="#191970" stroke="#191970" points="761.0145,-20.6696 750.4795,-19.5456 758.0142,-26.994 761.0145,-20.6696"/>
</g>
<!-- Node28&#45;&gt;Node16 -->
<g id="edge59" class="edge">
<title>Node28&#45;&gt;Node16</title>
<path fill="none" stroke="#191970" d="M1039.927,-135.2696C883.6427,-127.6837 514.2591,-107.7953 461.5,-87 440.9003,-78.8805 440.8488,-68.3933 422.5,-56 405.3598,-44.423 385.1283,-32.9321 369.1726,-24.3308"/>
<polygon fill="#191970" stroke="#191970" points="370.7997,-21.232 360.328,-19.6217 367.5099,-27.4108 370.7997,-21.232"/>
</g>
<!-- Node29 -->
<g id="node30" class="node">
<title>Node29</title>
<g id="a_node30"><a xlink:href="_factory_8_h.html" target="_top" xlink:title="amr&#45;wind/core/Factory.H">
<polygon fill="#ffffff" stroke="#000000" points="1420,-62 1420,-81 1545,-81 1545,-62 1420,-62"/>
<text text-anchor="middle" x="1482.5" y="-69" font-family="Helvetica,sans-Serif" font-size="10.00" fill="#000000">amr&#45;wind/core/Factory.H</text>
</a>
</g>
</g>
<!-- Node28&#45;&gt;Node29 -->
<g id="edge46" class="edge">
<title>Node28&#45;&gt;Node29</title>
<path fill="none" stroke="#191970" d="M1179.2197,-124.5288C1182.015,-124.0056 1184.7833,-123.4941 1187.5,-123 1284.1161,-105.4276 1308.9058,-104.6922 1405.5,-87 1412.2589,-85.762 1419.3404,-84.4109 1426.3556,-83.039"/>
<polygon fill="#191970" stroke="#191970" points="1427.4098,-86.3984 1436.5409,-81.0251 1426.0519,-79.5314 1427.4098,-86.3984"/>
</g>
<!-- Node33 -->
<g id="node34" class="node">
<title>Node33</title>
<g id="a_node34"><a xlink:href="_coll_mgr_8_h.html" target="_top" xlink:title="amr&#45;wind/core/CollMgr.H">
<polygon fill="#ffffff" stroke="#000000" points="1081,-62 1081,-81 1206,-81 1206,-62 1081,-62"/>
<text text-anchor="middle" x="1143.5" y="-69" font-family="Helvetica,sans-Serif" font-size="10.00" fill="#000000">amr&#45;wind/core/CollMgr.H</text>
</a>
</g>
</g>
<!-- Node28&#45;&gt;Node33 -->
<g id="edge52" class="edge">
<title>Node28&#45;&gt;Node33</title>
<path fill="none" stroke="#191970" d="M1117.2151,-123.2967C1122.2039,-113.4658 1128.7315,-100.6026 1134.0336,-90.1545"/>
<polygon fill="#191970" stroke="#191970" points="1137.247,-91.5563 1138.6512,-81.055 1131.0047,-88.3886 1137.247,-91.5563"/>
</g>
<!-- Node34 -->
<g id="node35" class="node">
<title>Node34</title>
<g id="a_node35"><a xlink:href="_p_d_e_fields_8_h.html" target="_top" xlink:title="amr&#45;wind/equation_systems\l/PDEFields.H">
<polygon fill="#ffffff" stroke="#000000" points="1224,-56.5 1224,-86.5 1363,-86.5 1363,-56.5 1224,-56.5"/>
<text text-anchor="start" x="1232" y="-74.5" font-family="Helvetica,sans-Serif" font-size="10.00" fill="#000000">amr&#45;wind/equation_systems</text>
<text text-anchor="middle" x="1293.5" y="-63.5" font-family="Helvetica,sans-Serif" font-size="10.00" fill="#000000">/PDEFields.H</text>
</a>
</g>
</g>
<!-- Node28&#45;&gt;Node34 -->
<g id="edge57" class="edge">
<title>Node28&#45;&gt;Node34</title>
<path fill="none" stroke="#191970" d="M1150.7932,-123.4639C1177.9236,-113.5849 1213.6098,-100.5905 1242.5086,-90.0675"/>
<polygon fill="#191970" stroke="#191970" points="1243.8278,-93.312 1252.0267,-86.6017 1241.4327,-86.7345 1243.8278,-93.312"/>
</g>
<!-- Node29&#45;&gt;Node15 -->
<g id="edge48" class="edge">
<title>Node29&#45;&gt;Node15</title>
<path fill="none" stroke="#191970" d="M1427.7747,-61.9938C1371.9544,-52.2343 1282.5659,-36.4328 1195.314,-20.1295"/>
<polygon fill="#191970" stroke="#191970" points="1195.7111,-16.6431 1185.2377,-18.2427 1194.4226,-23.5235 1195.7111,-16.6431"/>
</g>
<!-- Node29&#45;&gt;Node21 -->
<g id="edge47" class="edge">
<title>Node29&#45;&gt;Node21</title>
<path fill="none" stroke="#191970" d="M1439.3365,-61.9231C1397.3171,-52.4616 1331.4342,-37.2619 1265.5545,-20.1971"/>
<polygon fill="#191970" stroke="#191970" points="1266.3968,-16.7998 1255.8374,-17.6663 1264.6324,-23.5738 1266.3968,-16.7998"/>
</g>
<!-- Node30 -->
<g id="node31" class="node">
<title>Node30</title>
<polygon fill="#ffffff" stroke="#bfbfbf" points="1882.5,-.5 1882.5,-19.5 1936.5,-19.5 1936.5,-.5 1882.5,-.5"/>
<text text-anchor="middle" x="1909.5" y="-7.5" font-family="Helvetica,sans-Serif" font-size="10.00" fill="#000000">iostream</text>
</g>
<!-- Node29&#45;&gt;Node30 -->
<g id="edge49" class="edge">
<title>Node29&#45;&gt;Node30</title>
<path fill="none" stroke="#191970" d="M1523.8856,-61.9745C1533.8777,-59.8454 1544.5451,-57.7134 1554.5,-56 1669.6633,-36.178 1807.171,-20.6579 1872.0695,-13.8141"/>
<polygon fill="#191970" stroke="#191970" points="1872.6353,-17.2741 1882.2168,-12.7525 1871.9069,-10.3121 1872.6353,-17.2741"/>
</g>
<!-- Node31 -->
<g id="node32" class="node">
<title>Node31</title>
<polygon fill="#ffffff" stroke="#bfbfbf" points="1484,-.5 1484,-19.5 1571,-19.5 1571,-.5 1484,-.5"/>
<text text-anchor="middle" x="1527.5" y="-7.5" font-family="Helvetica,sans-Serif" font-size="10.00" fill="#000000">AMReX_Print.H</text>
</g>
<!-- Node29&#45;&gt;Node31 -->
<g id="edge50" class="edge">
<title>Node29&#45;&gt;Node31</title>
<path fill="none" stroke="#191970" d="M1489.5313,-61.8906C1496.163,-52.8273 1506.2696,-39.0149 1514.3887,-27.9188"/>
<polygon fill="#191970" stroke="#191970" points="1517.2891,-29.882 1520.3696,-19.7449 1511.6399,-25.7484 1517.2891,-29.882"/>
</g>
<!-- Node32 -->
<g id="node33" class="node">
<title>Node32</title>
<polygon fill="#ffffff" stroke="#bfbfbf" points="1589.5,-.5 1589.5,-19.5 1651.5,-19.5 1651.5,-.5 1589.5,-.5"/>
<text text-anchor="middle" x="1620.5" y="-7.5" font-family="Helvetica,sans-Serif" font-size="10.00" fill="#000000">AMReX.H</text>
</g>
<!-- Node29&#45;&gt;Node32 -->
<g id="edge51" class="edge">
<title>Node29&#45;&gt;Node32</title>
<path fill="none" stroke="#191970" d="M1504.0625,-61.8906C1527.0512,-51.6457 1563.656,-35.3326 1589.6824,-23.7339"/>
<polygon fill="#191970" stroke="#191970" points="1591.3796,-26.8095 1599.0889,-19.5419 1588.5302,-20.4156 1591.3796,-26.8095"/>
</g>
<!-- Node33&#45;&gt;Node14 -->
<g id="edge53" class="edge">
<title>Node33&#45;&gt;Node14</title>
<path fill="none" stroke="#191970" d="M1080.991,-62.6861C1065.1727,-60.4791 1048.214,-58.1332 1032.5,-56 914.4262,-39.9713 880.398,-47.656 761.1414,-20.0413"/>
<polygon fill="#191970" stroke="#191970" points="761.7973,-16.6002 751.2617,-17.7189 760.1954,-23.4144 761.7973,-16.6002"/>
</g>
<!-- Node33&#45;&gt;Node15 -->
<g id="edge55" class="edge">
<title>Node33&#45;&gt;Node15</title>
<path fill="none" stroke="#191970" d="M1143.5,-61.8906C1143.5,-53.3657 1143.5,-40.6392 1143.5,-29.9235"/>
<polygon fill="#191970" stroke="#191970" points="1147.0001,-29.7448 1143.5,-19.7449 1140.0001,-29.7449 1147.0001,-29.7448"/>
</g>
<!-- Node33&#45;&gt;Node21 -->
<g id="edge54" class="edge">
<title>Node33&#45;&gt;Node21</title>
<path fill="none" stroke="#191970" d="M1156.9375,-61.8906C1170.5695,-52.1421 1191.8846,-36.8994 1207.8922,-25.4521"/>
<polygon fill="#191970" stroke="#191970" points="1210.0586,-28.2057 1216.1569,-19.5419 1205.9868,-22.5118 1210.0586,-28.2057"/>
</g>
<!-- Node33&#45;&gt;Node26 -->
<g id="edge56" class="edge">
<title>Node33&#45;&gt;Node26</title>
<path fill="none" stroke="#191970" d="M1092.765,-61.9581C1033.6291,-50.8362 936.1201,-32.4974 874.1646,-20.8452"/>
<polygon fill="#191970" stroke="#191970" points="874.6353,-17.3724 864.1607,-18.9637 873.3414,-24.2518 874.6353,-17.3724"/>
</g>
<!-- Node35 -->
<g id="node36" class="node">
<title>Node35</title>
<polygon fill="#ffffff" stroke="#bfbfbf" points="1274,-.5 1274,-19.5 1319,-19.5 1319,-.5 1274,-.5"/>
<text text-anchor="middle" x="1296.5" y="-7.5" font-family="Helvetica,sans-Serif" font-size="10.00" fill="#000000">iosfwd</text>
</g>
<!-- Node34&#45;&gt;Node35 -->
<g id="edge58" class="edge">
<title>Node34&#45;&gt;Node35</title>
<path fill="none" stroke="#191970" d="M1294.2416,-56.2977C1294.6276,-48.3834 1295.1047,-38.6043 1295.5207,-30.0759"/>
<polygon fill="#191970" stroke="#191970" points="1299.0282,-30.0056 1296.0197,-19.8469 1292.0365,-29.6645 1299.0282,-30.0056"/>
</g>
<!-- Node36&#45;&gt;Node18 -->
<g id="edge64" class="edge">
<title>Node36&#45;&gt;Node18</title>
<path fill="none" stroke="#191970" d="M1218.5389,-128.9603C1208.408,-126.8318 1197.5926,-124.7036 1187.5,-123 1061.1729,-101.6766 1025.4307,-119.4717 901.5,-87 866.2115,-77.7539 860.1862,-67.2975 825.5,-56 782.7117,-42.0636 733.205,-30.0108 696.0291,-21.7426"/>
<polygon fill="#191970" stroke="#191970" points="696.4047,-18.2417 685.8864,-19.5125 694.9015,-25.0784 696.4047,-18.2417"/>
</g>
<!-- Node36&#45;&gt;Node29 -->
<g id="edge62" class="edge">
<title>Node36&#45;&gt;Node29</title>
<path fill="none" stroke="#191970" d="M1292.3072,-128.9005C1331.4596,-117.0843 1398.0404,-96.9901 1441.1333,-83.9845"/>
<polygon fill="#191970" stroke="#191970" points="1442.1896,-87.3218 1450.7518,-81.0817 1440.167,-80.6203 1442.1896,-87.3218"/>
</g>
<!-- Node36&#45;&gt;Node33 -->
<g id="edge63" class="edge">
<title>Node36&#45;&gt;Node33</title>
<path fill="none" stroke="#191970" d="M1243.7368,-128.9005C1224.1884,-117.7062 1191.6661,-99.0823 1168.9863,-86.0947"/>
<polygon fill="#191970" stroke="#191970" points="1170.6493,-83.0138 1160.2322,-81.0817 1167.1707,-89.0883 1170.6493,-83.0138"/>
</g>
<!-- Node37 -->
<g id="node38" class="node">
<title>Node37</title>
<polygon fill="#ffffff" stroke="#bfbfbf" points="1563.5,-62 1563.5,-81 1673.5,-81 1673.5,-62 1563.5,-62"/>
<text text-anchor="middle" x="1618.5" y="-69" font-family="Helvetica,sans-Serif" font-size="10.00" fill="#000000">AMReX_Geometry.H</text>
</g>
<!-- Node36&#45;&gt;Node37 -->
<g id="edge65" class="edge">
<title>Node36&#45;&gt;Node37</title>
<path fill="none" stroke="#191970" d="M1320.7445,-128.9976C1380.1206,-119.3767 1473.3363,-103.5875 1553.5,-87 1558.8962,-85.8834 1564.5277,-84.6476 1570.1215,-83.3751"/>
<polygon fill="#191970" stroke="#191970" points="1571.1396,-86.732 1580.0903,-81.0631 1569.5581,-79.913 1571.1396,-86.732"/>
</g>
<!-- Node39&#45;&gt;Node30 -->
<g id="edge70" class="edge">
<title>Node39&#45;&gt;Node30</title>
<path fill="none" stroke="#191970" d="M2127.4968,-257.3943C2136.7608,-218.6413 2155.2375,-114.6328 2104.5,-56 2084.2069,-32.5491 1997.574,-19.4493 1946.8649,-13.6584"/>
<polygon fill="#191970" stroke="#191970" points="1946.9488,-10.1466 1936.6262,-12.5326 1946.1837,-17.1047 1946.9488,-10.1466"/>
</g>
<!-- Node40 -->
<g id="node41" class="node">
<title>Node40</title>
<polygon fill="#ffffff" stroke="#bfbfbf" points="2151.5,-196 2151.5,-215 2247.5,-215 2247.5,-196 2151.5,-196"/>
<text text-anchor="middle" x="2199.5" y="-203" font-family="Helvetica,sans-Serif" font-size="10.00" fill="#000000">AMReX_MLMG.H</text>
</g>
<!-- Node39&#45;&gt;Node40 -->
<g id="edge71" class="edge">
<title>Node39&#45;&gt;Node40</title>
<path fill="none" stroke="#191970" d="M2140.7456,-257.2967C2152.7017,-246.7564 2168.6119,-232.7303 2180.8604,-221.9323"/>
<polygon fill="#191970" stroke="#191970" points="2183.4748,-224.2934 2188.6615,-215.055 2178.8457,-219.0425 2183.4748,-224.2934"/>
</g>
</g>
</svg>
