<?xml version="1.0" encoding="UTF-8" standalone="no"?>
<!DOCTYPE svg PUBLIC "-//W3C//DTD SVG 1.1//EN"
 "http://www.w3.org/Graphics/SVG/1.1/DTD/svg11.dtd">
<!-- Generated by graphviz version 2.40.1 (20161225.0304)
 -->
<!-- Title: stencils.H Pages: 1 -->
<!--zoomable 196 -->
<svg id="main" version="1.1" xmlns="http://www.w3.org/2000/svg" xmlns:xlink="http://www.w3.org/1999/xlink" xml:space="preserve" onload="init(evt)">
<style type="text/css"><![CDATA[
.edge:hover path { stroke: red; }
.edge:hover polygon { stroke: red; fill: red; }
]]></style>
<script type="text/javascript"><![CDATA[
var edges = document.getElementsByTagName('g');
if (edges && edges.length) {
  for (var i=0;i<edges.length;i++) {
    if (edges[i].id.substr(0,4)=='edge') {
      edges[i].setAttribute('class','edge');
    }
  }
}
]]></script>
        <defs>
                <circle id="rim" cx="0" cy="0" r="7"/>
                <circle id="rim2" cx="0" cy="0" r="3.5"/>
                <g id="zoomPlus">
                        <use xlink:href="#rim" fill="#404040">
                                <set attributeName="fill" to="#808080" begin="zoomplus.mouseover" end="zoomplus.mouseout"/>
                        </use>
                        <path d="M-4,0h8M0,-4v8" fill="none" stroke="white" stroke-width="1.5" pointer-events="none"/>
                </g>
                <g id="zoomMin">
                        <use xlink:href="#rim" fill="#404040">
                                <set attributeName="fill" to="#808080" begin="zoomminus.mouseover" end="zoomminus.mouseout"/>
                        </use>
                        <path d="M-4,0h8" fill="none" stroke="white" stroke-width="1.5" pointer-events="none"/>
                </g>
                <g id="dirArrow">
                        <path fill="none" stroke="white" stroke-width="1.5" d="M0,-3.0v7 M-2.5,-0.5L0,-3.0L2.5,-0.5"/>
                </g>
               <g id="resetDef">
                       <use xlink:href="#rim2" fill="#404040">
                               <set attributeName="fill" to="#808080" begin="reset.mouseover" end="reset.mouseout"/>
                       </use>
               </g>
        </defs>

<script type="text/javascript">
var viewWidth = 527;
var viewHeight = 196;
var sectionId = 'dynsection-1';
</script>
<script xlink:href="svgpan.js"/>
<svg id="graph" class="graph">
<g id="viewport">
<title>stencils.H</title>
<polygon fill="#ffffff" stroke="transparent" points="-4,4 -4,-192 522.5,-192 522.5,4 -4,4"/>
<!-- Node5 -->
<g id="node1" class="node">
<title>Node5</title>
<polygon fill="#bfbfbf" stroke="#000000" points="222.5,-168.5 222.5,-187.5 283.5,-187.5 283.5,-168.5 222.5,-168.5"/>
<text text-anchor="middle" x="253" y="-175.5" font-family="Helvetica,sans-Serif" font-size="10.00" fill="#000000">stencils.H</text>
</g>
<!-- Node6 -->
<g id="node2" class="node">
<title>Node6</title>
<g id="a_node2"><a xlink:href="fvm__utils_8_h.html" target="_top" xlink:title="fvm_utils.H">
<polygon fill="#ffffff" stroke="#000000" points="219.5,-112.5 219.5,-131.5 286.5,-131.5 286.5,-112.5 219.5,-112.5"/>
<text text-anchor="middle" x="253" y="-119.5" font-family="Helvetica,sans-Serif" font-size="10.00" fill="#000000">fvm_utils.H</text>
</a>
</g>
</g>
<!-- Node5&#45;&gt;Node6 -->
<g id="edge1" class="edge">
<title>Node5&#45;&gt;Node6</title>
<path fill="none" stroke="#191970" d="M253,-158.1575C253,-149.155 253,-138.9199 253,-131.6427"/>
<polygon fill="#191970" stroke="#191970" points="249.5001,-158.2455 253,-168.2455 256.5001,-158.2456 249.5001,-158.2455"/>
</g>
<!-- Node7 -->
<g id="node3" class="node">
<title>Node7</title>
<g id="a_node3"><a xlink:href="curvature_8_h.html" target="_top" xlink:title="curvature.H">
<polygon fill="#ffffff" stroke="#000000" points="0,-56.5 0,-75.5 68,-75.5 68,-56.5 0,-56.5"/>
<text text-anchor="middle" x="34" y="-63.5" font-family="Helvetica,sans-Serif" font-size="10.00" fill="#000000">curvature.H</text>
</a>
</g>
</g>
<!-- Node6&#45;&gt;Node7 -->
<g id="edge2" class="edge">
<title>Node6&#45;&gt;Node7</title>
<path fill="none" stroke="#191970" d="M209.4242,-110.8573C167.8948,-100.2379 106.2124,-84.4653 68.138,-74.7293"/>
<polygon fill="#191970" stroke="#191970" points="208.7058,-114.2862 219.2612,-113.3727 210.44,-107.5044 208.7058,-114.2862"/>
</g>
<!-- Node9 -->
<g id="node5" class="node">
<title>Node9</title>
<g id="a_node5"><a xlink:href="divergence_8_h.html" target="_top" xlink:title="divergence.H">
<polygon fill="#ffffff" stroke="#000000" points="86,-56.5 86,-75.5 160,-75.5 160,-56.5 86,-56.5"/>
<text text-anchor="middle" x="123" y="-63.5" font-family="Helvetica,sans-Serif" font-size="10.00" fill="#000000">divergence.H</text>
</a>
</g>
</g>
<!-- Node6&#45;&gt;Node9 -->
<g id="edge4" class="edge">
<title>Node6&#45;&gt;Node9</title>
<path fill="none" stroke="#191970" d="M221.3898,-108.3833C197.7465,-98.1985 166.0124,-84.5284 145.0562,-75.5011"/>
<polygon fill="#191970" stroke="#191970" points="220.0834,-111.6314 230.6522,-112.3733 222.8528,-105.2025 220.0834,-111.6314"/>
</g>
<!-- Node10 -->
<g id="node6" class="node">
<title>Node10</title>
<g id="a_node6"><a xlink:href="gradient_8_h.html" target="_top" xlink:title="gradient.H">
<polygon fill="#ffffff" stroke="#000000" points="348,-56.5 348,-75.5 410,-75.5 410,-56.5 348,-56.5"/>
<text text-anchor="middle" x="379" y="-63.5" font-family="Helvetica,sans-Serif" font-size="10.00" fill="#000000">gradient.H</text>
</a>
</g>
</g>
<!-- Node6&#45;&gt;Node10 -->
<g id="edge6" class="edge">
<title>Node6&#45;&gt;Node10</title>
<path fill="none" stroke="#191970" d="M283.9436,-108.2473C306.8265,-98.0771 337.4014,-84.4883 357.6225,-75.5011"/>
<polygon fill="#191970" stroke="#191970" points="282.3768,-105.1135 274.6602,-112.3733 285.2198,-111.5102 282.3768,-105.1135"/>
</g>
<!-- Node13 -->
<g id="node9" class="node">
<title>Node13</title>
<g id="a_node9"><a xlink:href="laplacian_8_h.html" target="_top" xlink:title="laplacian.H">
<polygon fill="#ffffff" stroke="#000000" points="178.5,-56.5 178.5,-75.5 243.5,-75.5 243.5,-56.5 178.5,-56.5"/>
<text text-anchor="middle" x="211" y="-63.5" font-family="Helvetica,sans-Serif" font-size="10.00" fill="#000000">laplacian.H</text>
</a>
</g>
</g>
<!-- Node6&#45;&gt;Node13 -->
<g id="edge10" class="edge">
<title>Node6&#45;&gt;Node13</title>
<path fill="none" stroke="#191970" d="M239.6584,-104.2112C232.5604,-94.7472 224.1097,-83.4797 218.232,-75.6427"/>
<polygon fill="#191970" stroke="#191970" points="236.8841,-106.3455 245.6842,-112.2455 242.4841,-102.1455 236.8841,-106.3455"/>
</g>
<!-- Node14 -->
<g id="node10" class="node">
<title>Node14</title>
<g id="a_node10"><a xlink:href="strainrate_8_h.html" target="_top" xlink:title="strainrate.H">
<polygon fill="#ffffff" stroke="#000000" points="262,-56.5 262,-75.5 330,-75.5 330,-56.5 262,-56.5"/>
<text text-anchor="middle" x="296" y="-63.5" font-family="Helvetica,sans-Serif" font-size="10.00" fill="#000000">strainrate.H</text>
</a>
</g>
</g>
<!-- Node6&#45;&gt;Node14 -->
<g id="edge12" class="edge">
<title>Node6&#45;&gt;Node14</title>
<path fill="none" stroke="#191970" d="M266.6592,-104.2112C273.9263,-94.7472 282.5781,-83.4797 288.5958,-75.6427"/>
<polygon fill="#191970" stroke="#191970" points="263.8043,-102.1824 260.49,-112.2455 269.3564,-106.4456 263.8043,-102.1824"/>
</g>
<!-- Node16 -->
<g id="node12" class="node">
<title>Node16</title>
<g id="a_node12"><a xlink:href="vorticity__mag_8_h.html" target="_top" xlink:title="vorticity_mag.H">
<polygon fill="#ffffff" stroke="#000000" points="428,-56.5 428,-75.5 514,-75.5 514,-56.5 428,-56.5"/>
<text text-anchor="middle" x="471" y="-63.5" font-family="Helvetica,sans-Serif" font-size="10.00" fill="#000000">vorticity_mag.H</text>
</a>
</g>
</g>
<!-- Node6&#45;&gt;Node16 -->
<g id="edge16" class="edge">
<title>Node6&#45;&gt;Node16</title>
<path fill="none" stroke="#191970" d="M296.3631,-110.8609C336.5255,-100.5439 395.6312,-85.3608 433.7229,-75.5758"/>
<polygon fill="#191970" stroke="#191970" points="295.3995,-107.4947 286.5847,-113.3727 297.1411,-114.2746 295.3995,-107.4947"/>
</g>
<!-- Node8 -->
<g id="node4" class="node">
<title>Node8</title>
<g id="a_node4"><a xlink:href="fvm_8_h.html" target="_top" xlink:title="fvm.H">
<polygon fill="#ffffff" stroke="#000000" points="163,-.5 163,-19.5 207,-19.5 207,-.5 163,-.5"/>
<text text-anchor="middle" x="185" y="-7.5" font-family="Helvetica,sans-Serif" font-size="10.00" fill="#000000">fvm.H</text>
</a>
</g>
</g>
<!-- Node7&#45;&gt;Node8 -->
<g id="edge3" class="edge">
<title>Node7&#45;&gt;Node8</title>
<path fill="none" stroke="#191970" d="M69.6758,-52.7692C98.5556,-42.0588 138.327,-27.3092 162.8158,-18.2273"/>
<polygon fill="#191970" stroke="#191970" points="68.1168,-49.6144 59.9578,-56.3733 70.5509,-56.1776 68.1168,-49.6144"/>
</g>
<!-- Node9&#45;&gt;Node8 -->
<g id="edge5" class="edge">
<title>Node9&#45;&gt;Node8</title>
<path fill="none" stroke="#191970" d="M141.4221,-49.3607C152.1481,-39.6727 165.2934,-27.7995 174.3242,-19.6427"/>
<polygon fill="#191970" stroke="#191970" points="138.8746,-46.9453 133.7996,-56.2455 143.5666,-52.14 138.8746,-46.9453"/>
</g>
<!-- Node10&#45;&gt;Node8 -->
<g id="edge7" class="edge">
<title>Node10&#45;&gt;Node8</title>
<path fill="none" stroke="#191970" d="M338.1946,-54.9347C305.1508,-45.8659 257.4495,-32.5294 216,-20 213.1852,-19.1491 210.2348,-18.2313 207.3201,-17.3089"/>
<polygon fill="#191970" stroke="#191970" points="337.3866,-58.3422 347.9559,-57.6065 339.2347,-51.5905 337.3866,-58.3422"/>
</g>
<!-- Node11 -->
<g id="node7" class="node">
<title>Node11</title>
<g id="a_node7"><a xlink:href="_one_eq_ksgs_8cpp.html" target="_top" xlink:title="OneEqKsgs.cpp">
<polygon fill="#ffffff" stroke="#000000" points="335,-.5 335,-19.5 423,-19.5 423,-.5 335,-.5"/>
<text text-anchor="middle" x="379" y="-7.5" font-family="Helvetica,sans-Serif" font-size="10.00" fill="#000000">OneEqKsgs.cpp</text>
</a>
</g>
</g>
<!-- Node10&#45;&gt;Node11 -->
<g id="edge8" class="edge">
<title>Node10&#45;&gt;Node11</title>
<path fill="none" stroke="#191970" d="M379,-46.1575C379,-37.155 379,-26.9199 379,-19.6427"/>
<polygon fill="#191970" stroke="#191970" points="375.5001,-46.2455 379,-56.2455 382.5001,-46.2456 375.5001,-46.2455"/>
</g>
<!-- Node12 -->
<g id="node8" class="node">
<title>Node12</title>
<g id="a_node8"><a xlink:href="_a_b_l_stats_8cpp.html" target="_top" xlink:title="ABLStats.cpp">
<polygon fill="#ffffff" stroke="#000000" points="441.5,-.5 441.5,-19.5 518.5,-19.5 518.5,-.5 441.5,-.5"/>
<text text-anchor="middle" x="480" y="-7.5" font-family="Helvetica,sans-Serif" font-size="10.00" fill="#000000">ABLStats.cpp</text>
</a>
</g>
</g>
<!-- Node10&#45;&gt;Node12 -->
<g id="edge9" class="edge">
<title>Node10&#45;&gt;Node12</title>
<path fill="none" stroke="#191970" d="M405.4719,-51.3225C423.5125,-41.3198 446.8877,-28.3593 462.6087,-19.6427"/>
<polygon fill="#191970" stroke="#191970" points="403.6413,-48.3354 396.5929,-56.2455 407.0357,-54.4574 403.6413,-48.3354"/>
</g>
<!-- Node13&#45;&gt;Node8 -->
<g id="edge11" class="edge">
<title>Node13&#45;&gt;Node8</title>
<path fill="none" stroke="#191970" d="M202.1989,-47.0437C197.9225,-37.8331 192.967,-27.1598 189.477,-19.6427"/>
<polygon fill="#191970" stroke="#191970" points="199.0854,-48.6494 206.4711,-56.2455 205.4345,-45.7015 199.0854,-48.6494"/>
</g>
<!-- Node14&#45;&gt;Node8 -->
<g id="edge13" class="edge">
<title>Node14&#45;&gt;Node8</title>
<path fill="none" stroke="#191970" d="M267.9266,-51.8368C247.8615,-41.7139 221.4078,-28.3679 203.8326,-19.5011"/>
<polygon fill="#191970" stroke="#191970" points="266.4138,-54.9938 276.9184,-56.3733 269.5668,-48.7441 266.4138,-54.9938"/>
</g>
<!-- Node14&#45;&gt;Node11 -->
<g id="edge14" class="edge">
<title>Node14&#45;&gt;Node11</title>
<path fill="none" stroke="#191970" d="M318.988,-50.49C333.6322,-40.6096 352.1444,-28.1194 364.7082,-19.6427"/>
<polygon fill="#191970" stroke="#191970" points="316.7896,-47.7511 310.4575,-56.2455 320.7047,-53.5539 316.7896,-47.7511"/>
</g>
<!-- Node15 -->
<g id="node11" class="node">
<title>Node15</title>
<g id="a_node11"><a xlink:href="_smagorinsky_8cpp.html" target="_top" xlink:title="Smagorinsky.cpp">
<polygon fill="#ffffff" stroke="#000000" points="225,-.5 225,-19.5 317,-19.5 317,-.5 225,-.5"/>
<text text-anchor="middle" x="271" y="-7.5" font-family="Helvetica,sans-Serif" font-size="10.00" fill="#000000">Smagorinsky.cpp</text>
</a>
</g>
</g>
<!-- Node14&#45;&gt;Node15 -->
<g id="edge15" class="edge">
<title>Node14&#45;&gt;Node15</title>
<path fill="none" stroke="#191970" d="M287.5374,-47.0437C283.4255,-37.8331 278.6606,-27.1598 275.3048,-19.6427"/>
<polygon fill="#191970" stroke="#191970" points="284.3728,-48.541 291.6453,-56.2455 290.7648,-45.6874 284.3728,-48.541"/>
</g>
</g>
</svg>
        <g id="navigator" transform="translate(0 0)" fill="#404254">
                <rect fill="#f2f5e9" fill-opacity="0.5" stroke="#606060" stroke-width=".5" x="0" y="0" width="60" height="60"/>
                <use id="zoomplus" xlink:href="#zoomPlus" x="17" y="9" onmousedown="handleZoom(evt,'in')"/>
                <use id="zoomminus" xlink:href="#zoomMin" x="42" y="9" onmousedown="handleZoom(evt,'out')"/>
                <use id="reset" xlink:href="#resetDef" x="30" y="36" onmousedown="handleReset()"/>
                <g id="arrowUp" xlink:href="#dirArrow" transform="translate(30 24)" onmousedown="handlePan(0,-1)">
                  <use xlink:href="#rim" fill="#404040">
                        <set attributeName="fill" to="#808080" begin="arrowUp.mouseover" end="arrowUp.mouseout"/>
                  </use>
                  <path fill="none" stroke="white" stroke-width="1.5" d="M0,-3.0v7 M-2.5,-0.5L0,-3.0L2.5,-0.5"/>
                </g>
                <g id="arrowRight" xlink:href="#dirArrow" transform="rotate(90) translate(36 -43)" onmousedown="handlePan(1,0)">
                  <use xlink:href="#rim" fill="#404040">
                        <set attributeName="fill" to="#808080" begin="arrowRight.mouseover" end="arrowRight.mouseout"/>
                  </use>
                  <path fill="none" stroke="white" stroke-width="1.5" d="M0,-3.0v7 M-2.5,-0.5L0,-3.0L2.5,-0.5"/>
                </g>
                <g id="arrowDown" xlink:href="#dirArrow" transform="rotate(180) translate(-30 -48)" onmousedown="handlePan(0,1)">
                  <use xlink:href="#rim" fill="#404040">
                        <set attributeName="fill" to="#808080" begin="arrowDown.mouseover" end="arrowDown.mouseout"/>
                  </use>
                  <path fill="none" stroke="white" stroke-width="1.5" d="M0,-3.0v7 M-2.5,-0.5L0,-3.0L2.5,-0.5"/>
                </g>
                <g id="arrowLeft" xlink:href="#dirArrow" transform="rotate(270) translate(-36 17)" onmousedown="handlePan(-1,0)">
                  <use xlink:href="#rim" fill="#404040">
                        <set attributeName="fill" to="#808080" begin="arrowLeft.mouseover" end="arrowLeft.mouseout"/>
                  </use>
                  <path fill="none" stroke="white" stroke-width="1.5" d="M0,-3.0v7 M-2.5,-0.5L0,-3.0L2.5,-0.5"/>
                </g>
        </g>
        <svg viewBox="0 0 15 15" width="100%" height="30px" preserveAspectRatio="xMaxYMin meet">
         <g id="arrow_out" transform="scale(0.3 0.3)">
          <a xlink:href="stencils_8_h__dep__incl_org.svg" target="_base">
           <rect id="button" ry="5" rx="5" y="6" x="6" height="38" width="38"
                fill="#f2f5e9" fill-opacity="0.5" stroke="#606060" stroke-width="1.0"/>
           <path id="arrow"
             d="M 11.500037,31.436501 C 11.940474,20.09759 22.043105,11.32322 32.158766,21.979434 L 37.068811,17.246167 C 37.068811,17.246167 37.088388,32 37.088388,32 L 22.160133,31.978069 C 22.160133,31.978069 26.997745,27.140456 26.997745,27.140456 C 18.528582,18.264221 13.291696,25.230495 11.500037,31.436501 z"
             style="fill:#404040;"/>
          </a>
         </g>
        </svg>
</svg>
