<?xml version="1.0" encoding="UTF-8" standalone="no"?>
<!DOCTYPE svg PUBLIC "-//W3C//DTD SVG 1.1//EN"
 "http://www.w3.org/Graphics/SVG/1.1/DTD/svg11.dtd">
<!-- Generated by graphviz version 2.40.1 (20161225.0304)
 -->
<!-- Title: amr_wind::FieldInfo Pages: 1 -->
<svg width="377pt" height="262pt"
 viewBox="0.00 0.00 376.50 262.00" xmlns="http://www.w3.org/2000/svg" xmlns:xlink="http://www.w3.org/1999/xlink">
<g id="graph0" class="graph" transform="scale(1 1) rotate(0) translate(4 258)">
<title>amr_wind::FieldInfo</title>
<polygon fill="#ffffff" stroke="transparent" points="-4,4 -4,-258 372.5,-258 372.5,4 -4,4"/>
<!-- Node1 -->
<g id="node1" class="node">
<title>Node1</title>
<polygon fill="#bfbfbf" stroke="#000000" points="198,-.5 198,-19.5 300,-19.5 300,-.5 198,-.5"/>
<text text-anchor="middle" x="249" y="-7.5" font-family="Helvetica,sans-Serif" font-size="10.00" fill="#000000">amr_wind::FieldInfo</text>
</g>
<!-- Node2 -->
<g id="node2" class="node">
<title>Node2</title>
<polygon fill="#ffffff" stroke="#bfbfbf" points="107.5,-67.5 107.5,-97.5 264.5,-97.5 264.5,-67.5 107.5,-67.5"/>
<text text-anchor="start" x="115.5" y="-85.5" font-family="Helvetica,sans-Serif" font-size="10.00" fill="#000000">std::unique_ptr&lt; amr</text>
<text text-anchor="middle" x="186" y="-74.5" font-family="Helvetica,sans-Serif" font-size="10.00" fill="#000000">_wind::FieldFillPatchOpsBase &gt;</text>
</g>
<!-- Node2&#45;&gt;Node1 -->
<g id="edge1" class="edge">
<title>Node2&#45;&gt;Node1</title>
<path fill="none" stroke="#9a32cd" stroke-dasharray="5,2" d="M200.2125,-58.8375C204.8707,-51.8327 210.3194,-44.3454 216,-38 222.0139,-31.2824 229.6407,-24.7102 236.047,-19.6231"/>
<polygon fill="#9a32cd" stroke="#9a32cd" points="197.2199,-57.0206 194.777,-67.33 203.1157,-60.7942 197.2199,-57.0206"/>
<text text-anchor="middle" x="249.5" y="-41" font-family="Helvetica,sans-Serif" font-size="10.00" fill="#000000"> m_fillpatch_op</text>
</g>
<!-- Node3 -->
<g id="node3" class="node">
<title>Node3</title>
<g id="a_node3"><a xlink:href="classamr__wind_1_1_field_fill_patch_ops_base.html" target="_top" xlink:title="Abstract interface for classes that handle fill patch and physical boundary condition operations for ...">
<polygon fill="#ffffff" stroke="#000000" points="0,-156.5 0,-186.5 124,-186.5 124,-156.5 0,-156.5"/>
<text text-anchor="start" x="8" y="-174.5" font-family="Helvetica,sans-Serif" font-size="10.00" fill="#000000">amr_wind::FieldFillPatch</text>
<text text-anchor="middle" x="62" y="-163.5" font-family="Helvetica,sans-Serif" font-size="10.00" fill="#000000">OpsBase</text>
</a>
</g>
</g>
<!-- Node3&#45;&gt;Node2 -->
<g id="edge2" class="edge">
<title>Node3&#45;&gt;Node2</title>
<path fill="none" stroke="#9a32cd" stroke-dasharray="5,2" d="M91.2603,-150.4986C113.8634,-134.2755 144.6072,-112.2094 164.8619,-97.6717"/>
<polygon fill="#9a32cd" stroke="#9a32cd" points="89.1181,-147.7279 83.0349,-156.4024 93.1998,-153.4148 89.1181,-147.7279"/>
<text text-anchor="middle" x="146.5" y="-124.5" font-family="Helvetica,sans-Serif" font-size="10.00" fill="#000000"> ptr</text>
</g>
<!-- Node4 -->
<g id="node4" class="node">
<title>Node4</title>
<g id="a_node4"><a xlink:title="STL class. ">
<polygon fill="#ffffff" stroke="#bfbfbf" points="142.5,-162 142.5,-181 247.5,-181 247.5,-162 142.5,-162"/>
<text text-anchor="middle" x="195" y="-169" font-family="Helvetica,sans-Serif" font-size="10.00" fill="#000000">std::unique_ptr&lt; T &gt;</text>
</a>
</g>
</g>
<!-- Node4&#45;&gt;Node2 -->
<g id="edge3" class="edge">
<title>Node4&#45;&gt;Node2</title>
<path fill="none" stroke="#ffa500" stroke-dasharray="5,2" d="M193.016,-151.8808C191.3608,-135.5122 189.0362,-112.5251 187.5242,-97.5725"/>
<polygon fill="#ffa500" stroke="#ffa500" points="189.5484,-152.3783 194.0368,-161.9754 196.5129,-151.674 189.5484,-152.3783"/>
<text text-anchor="start" x="192" y="-130" font-family="Helvetica,sans-Serif" font-size="10.00" fill="#000000"> &lt; amr_wind::FieldFillPatch</text>
<text text-anchor="middle" x="252" y="-119" font-family="Helvetica,sans-Serif" font-size="10.00" fill="#000000">OpsBase &gt;</text>
</g>
<!-- Node5 -->
<g id="node5" class="node">
<title>Node5</title>
<polygon fill="#ffffff" stroke="#bfbfbf" points="180.5,-234.5 180.5,-253.5 209.5,-253.5 209.5,-234.5 180.5,-234.5"/>
<text text-anchor="middle" x="195" y="-241.5" font-family="Helvetica,sans-Serif" font-size="10.00" fill="#000000">T</text>
</g>
<!-- Node5&#45;&gt;Node4 -->
<g id="edge4" class="edge">
<title>Node5&#45;&gt;Node4</title>
<path fill="none" stroke="#9a32cd" stroke-dasharray="5,2" d="M195,-224.1054C195,-210.1237 195,-192.0346 195,-181.1228"/>
<polygon fill="#9a32cd" stroke="#9a32cd" points="191.5001,-224.2223 195,-234.2223 198.5001,-224.2224 191.5001,-224.2223"/>
<text text-anchor="middle" x="202.5" y="-208" font-family="Helvetica,sans-Serif" font-size="10.00" fill="#000000"> ptr</text>
</g>
<!-- Node6 -->
<g id="node6" class="node">
<title>Node6</title>
<g id="a_node6"><a xlink:title="STL class. ">
<polygon fill="#ffffff" stroke="#bfbfbf" points="287,-73 287,-92 347,-92 347,-73 287,-73"/>
<text text-anchor="middle" x="317" y="-80" font-family="Helvetica,sans-Serif" font-size="10.00" fill="#000000">std::string</text>
</a>
</g>
</g>
<!-- Node6&#45;&gt;Node1 -->
<g id="edge5" class="edge">
<title>Node6&#45;&gt;Node1</title>
<path fill="none" stroke="#9a32cd" stroke-dasharray="5,2" d="M304.6448,-64.4216C298.5471,-56.0224 290.8302,-46.1213 283,-38 276.631,-31.3942 268.7622,-24.829 262.1991,-19.7178"/>
<polygon fill="#9a32cd" stroke="#9a32cd" points="301.9273,-66.6411 310.5547,-72.7909 307.6454,-62.6033 301.9273,-66.6411"/>
<text text-anchor="middle" x="323" y="-41" font-family="Helvetica,sans-Serif" font-size="10.00" fill="#000000"> m_basename</text>
</g>
<!-- Node7 -->
<g id="node7" class="node">
<title>Node7</title>
<g id="a_node7"><a xlink:title="STL class. ">
<polygon fill="#ffffff" stroke="#bfbfbf" points="273.5,-156.5 273.5,-186.5 368.5,-186.5 368.5,-156.5 273.5,-156.5"/>
<text text-anchor="start" x="281.5" y="-174.5" font-family="Helvetica,sans-Serif" font-size="10.00" fill="#000000">std::basic_string&lt;</text>
<text text-anchor="middle" x="321" y="-163.5" font-family="Helvetica,sans-Serif" font-size="10.00" fill="#000000"> char &gt;</text>
</a>
</g>
</g>
<!-- Node7&#45;&gt;Node6 -->
<g id="edge6" class="edge">
<title>Node7&#45;&gt;Node6</title>
<path fill="none" stroke="#191970" d="M319.8684,-146.321C319.0639,-128.4221 318.0269,-105.3481 317.4458,-92.4182"/>
<polygon fill="#191970" stroke="#191970" points="316.3759,-146.5696 320.3215,-156.4024 323.3688,-146.2553 316.3759,-146.5696"/>
</g>
</g>
</svg>
