<?xml version="1.0" encoding="UTF-8" standalone="no"?>
<!DOCTYPE svg PUBLIC "-//W3C//DTD SVG 1.1//EN"
 "http://www.w3.org/Graphics/SVG/1.1/DTD/svg11.dtd">
<!-- Generated by graphviz version 2.40.1 (20161225.0304)
 -->
<!-- Title: amr_wind::pde::DiffusionOp&lt; PDE, Scheme, typename std::enable_if&lt; std::is_base_of&lt; ScalarTransport, PDE &gt;::value &gt;::type &gt; Pages: 1 -->
<!--zoomable 276 -->
<svg id="main" version="1.1" xmlns="http://www.w3.org/2000/svg" xmlns:xlink="http://www.w3.org/1999/xlink" xml:space="preserve" onload="init(evt)">
<style type="text/css"><![CDATA[
.edge:hover path { stroke: red; }
.edge:hover polygon { stroke: red; fill: red; }
]]></style>
<script type="text/javascript"><![CDATA[
var edges = document.getElementsByTagName('g');
if (edges && edges.length) {
  for (var i=0;i<edges.length;i++) {
    if (edges[i].id.substr(0,4)=='edge') {
      edges[i].setAttribute('class','edge');
    }
  }
}
]]></script>
        <defs>
                <circle id="rim" cx="0" cy="0" r="7"/>
                <circle id="rim2" cx="0" cy="0" r="3.5"/>
                <g id="zoomPlus">
                        <use xlink:href="#rim" fill="#404040">
                                <set attributeName="fill" to="#808080" begin="zoomplus.mouseover" end="zoomplus.mouseout"/>
                        </use>
                        <path d="M-4,0h8M0,-4v8" fill="none" stroke="white" stroke-width="1.5" pointer-events="none"/>
                </g>
                <g id="zoomMin">
                        <use xlink:href="#rim" fill="#404040">
                                <set attributeName="fill" to="#808080" begin="zoomminus.mouseover" end="zoomminus.mouseout"/>
                        </use>
                        <path d="M-4,0h8" fill="none" stroke="white" stroke-width="1.5" pointer-events="none"/>
                </g>
                <g id="dirArrow">
                        <path fill="none" stroke="white" stroke-width="1.5" d="M0,-3.0v7 M-2.5,-0.5L0,-3.0L2.5,-0.5"/>
                </g>
               <g id="resetDef">
                       <use xlink:href="#rim2" fill="#404040">
                               <set attributeName="fill" to="#808080" begin="reset.mouseover" end="reset.mouseout"/>
                       </use>
               </g>
        </defs>

<script type="text/javascript">
var viewWidth = 1896;
var viewHeight = 276;
var sectionId = 'dynsection-1';
</script>
<script xlink:href="svgpan.js"/>
<svg id="graph" class="graph">
<g id="viewport">
<title>amr_wind::pde::DiffusionOp&lt; PDE, Scheme, typename std::enable_if&lt; std::is_base_of&lt; ScalarTransport, PDE &gt;::value &gt;::type &gt;</title>
<polygon fill="#ffffff" stroke="transparent" points="-4,4 -4,-272 1892,-272 1892,4 -4,4"/>
<!-- Node3 -->
<g id="node1" class="node">
<title>Node3</title>
<polygon fill="#bfbfbf" stroke="#000000" points="1738,-93.5 1738,-156.5 1888,-156.5 1888,-93.5 1738,-93.5"/>
<text text-anchor="start" x="1746" y="-144.5" font-family="Helvetica,sans-Serif" font-size="10.00" fill="#000000">amr_wind::pde::Diffusion</text>
<text text-anchor="start" x="1746" y="-133.5" font-family="Helvetica,sans-Serif" font-size="10.00" fill="#000000">Op&lt; PDE, Scheme, typename</text>
<text text-anchor="start" x="1746" y="-122.5" font-family="Helvetica,sans-Serif" font-size="10.00" fill="#000000"> std::enable_if&lt; std::is</text>
<text text-anchor="start" x="1746" y="-111.5" font-family="Helvetica,sans-Serif" font-size="10.00" fill="#000000">_base_of&lt; ScalarTransport,</text>
<text text-anchor="middle" x="1813" y="-100.5" font-family="Helvetica,sans-Serif" font-size="10.00" fill="#000000"> PDE &gt;::value &gt;::type &gt;</text>
</g>
<!-- Node4 -->
<g id="node2" class="node">
<title>Node4</title>
<g id="a_node2"><a xlink:href="classamr__wind_1_1pde_1_1_diff_solver_iface.html" target="_top" xlink:title="amr_wind::pde::DiffSolver\lIface\&lt; PDE::MLDiffOp \&gt;">
<polygon fill="#ffffff" stroke="#000000" points="1571,-110 1571,-140 1701,-140 1701,-110 1571,-110"/>
<text text-anchor="start" x="1579" y="-128" font-family="Helvetica,sans-Serif" font-size="10.00" fill="#000000">amr_wind::pde::DiffSolver</text>
<text text-anchor="middle" x="1636" y="-117" font-family="Helvetica,sans-Serif" font-size="10.00" fill="#000000">Iface&lt; PDE::MLDiffOp &gt;</text>
</a>
</g>
</g>
<!-- Node4&#45;&gt;Node3 -->
<g id="edge1" class="edge">
<title>Node4&#45;&gt;Node3</title>
<path fill="none" stroke="#191970" d="M1711.3411,-125C1720.1058,-125 1729.0466,-125 1737.8093,-125"/>
<polygon fill="#191970" stroke="#191970" points="1711.1542,-121.5001 1701.1542,-125 1711.1542,-128.5001 1711.1542,-121.5001"/>
</g>
<!-- Node5 -->
<g id="node3" class="node">
<title>Node5</title>
<polygon fill="#ffffff" stroke="#bfbfbf" points="1185,-237 1185,-267 1296,-267 1296,-237 1185,-237"/>
<text text-anchor="start" x="1193" y="-255" font-family="Helvetica,sans-Serif" font-size="10.00" fill="#000000">std::unique_ptr&lt; PDE</text>
<text text-anchor="middle" x="1240.5" y="-244" font-family="Helvetica,sans-Serif" font-size="10.00" fill="#000000">::MLDiffOp &gt;</text>
</g>
<!-- Node5&#45;&gt;Node4 -->
<g id="edge2" class="edge">
<title>Node5&#45;&gt;Node4</title>
<path fill="none" stroke="#9a32cd" stroke-dasharray="5,2" d="M1306.3281,-247.4755C1371.4823,-241.0197 1472.8188,-225.5688 1553,-189 1579.4888,-176.919 1605.2885,-154.9393 1620.9133,-140.1533"/>
<polygon fill="#9a32cd" stroke="#9a32cd" points="1305.8159,-244.0083 1296.1907,-248.4362 1306.4764,-250.977 1305.8159,-244.0083"/>
<text text-anchor="middle" x="1379" y="-260" font-family="Helvetica,sans-Serif" font-size="10.00" fill="#000000"> m_applier</text>
<text text-anchor="middle" x="1379" y="-249" font-family="Helvetica,sans-Serif" font-size="10.00" fill="#000000">m_solver</text>
</g>
<!-- Node6 -->
<g id="node4" class="node">
<title>Node6</title>
<g id="a_node4"><a xlink:title="STL class. ">
<polygon fill="#ffffff" stroke="#bfbfbf" points="801,-203.5 801,-222.5 906,-222.5 906,-203.5 801,-203.5"/>
<text text-anchor="middle" x="853.5" y="-210.5" font-family="Helvetica,sans-Serif" font-size="10.00" fill="#000000">std::unique_ptr&lt; T &gt;</text>
</a>
</g>
</g>
<!-- Node6&#45;&gt;Node5 -->
<g id="edge3" class="edge">
<title>Node6&#45;&gt;Node5</title>
<path fill="none" stroke="#ffa500" stroke-dasharray="5,2" d="M903.5149,-224.5033C910.3724,-225.8277 917.3423,-227.0437 924,-228 1014.8188,-241.045 1121.3843,-247.2735 1184.7963,-250.0341"/>
<polygon fill="#ffa500" stroke="#ffa500" points="904.0925,-221.0493 893.5978,-222.5028 902.7083,-227.9111 904.0925,-221.0493"/>
<text text-anchor="middle" x="969.5" y="-241" font-family="Helvetica,sans-Serif" font-size="10.00" fill="#000000"> &lt; PDE::MLDiffOp &gt;</text>
</g>
<!-- Node18 -->
<g id="node16" class="node">
<title>Node18</title>
<polygon fill="#ffffff" stroke="#bfbfbf" points="1037.5,-203.5 1037.5,-222.5 1162.5,-222.5 1162.5,-203.5 1037.5,-203.5"/>
<text text-anchor="middle" x="1100" y="-210.5" font-family="Helvetica,sans-Serif" font-size="10.00" fill="#000000">std::unique_ptr&lt; LinOp &gt;</text>
</g>
<!-- Node6&#45;&gt;Node18 -->
<g id="edge22" class="edge">
<title>Node6&#45;&gt;Node18</title>
<path fill="none" stroke="#ffa500" stroke-dasharray="5,2" d="M916.2844,-213C953.4446,-213 1000.3533,-213 1037.469,-213"/>
<polygon fill="#ffa500" stroke="#ffa500" points="916.0781,-209.5001 906.0781,-213 916.0781,-216.5001 916.0781,-209.5001"/>
<text text-anchor="middle" x="969.5" y="-216" font-family="Helvetica,sans-Serif" font-size="10.00" fill="#000000"> &lt; LinOp &gt;</text>
</g>
<!-- Node7 -->
<g id="node5" class="node">
<title>Node7</title>
<polygon fill="#ffffff" stroke="#bfbfbf" points="33,-191.5 33,-210.5 62,-210.5 62,-191.5 33,-191.5"/>
<text text-anchor="middle" x="47.5" y="-198.5" font-family="Helvetica,sans-Serif" font-size="10.00" fill="#000000">T</text>
</g>
<!-- Node7&#45;&gt;Node6 -->
<g id="edge4" class="edge">
<title>Node7&#45;&gt;Node6</title>
<path fill="none" stroke="#9a32cd" stroke-dasharray="5,2" d="M72.3164,-203.5038C106.687,-206.7499 170.7413,-212 225.5,-212 225.5,-212 225.5,-212 674.5,-212 716.9199,-212 764.9937,-212.2843 800.6318,-212.5497"/>
<polygon fill="#9a32cd" stroke="#9a32cd" points="72.5402,-200.0092 62.2496,-202.5295 71.8659,-206.9766 72.5402,-200.0092"/>
<text text-anchor="middle" x="465" y="-215" font-family="Helvetica,sans-Serif" font-size="10.00" fill="#000000"> ptr</text>
</g>
<!-- Node13 -->
<g id="node11" class="node">
<title>Node13</title>
<g id="a_node11"><a xlink:title="STL class. ">
<polygon fill="#ffffff" stroke="#bfbfbf" points="174,-137 174,-167 277,-167 277,-137 174,-137"/>
<text text-anchor="start" x="182" y="-155" font-family="Helvetica,sans-Serif" font-size="10.00" fill="#000000">std::unordered_map</text>
<text text-anchor="middle" x="225.5" y="-144" font-family="Helvetica,sans-Serif" font-size="10.00" fill="#000000">&lt; K, T &gt;</text>
</a>
</g>
</g>
<!-- Node7&#45;&gt;Node13 -->
<g id="edge13" class="edge">
<title>Node7&#45;&gt;Node13</title>
<path fill="none" stroke="#9a32cd" stroke-dasharray="5,2" d="M71.8933,-194.285C98.0492,-187.0848 140.3478,-175.4408 173.9422,-166.1929"/>
<polygon fill="#9a32cd" stroke="#9a32cd" points="70.7789,-190.9615 62.0665,-196.9901 72.6368,-197.7104 70.7789,-190.9615"/>
<text text-anchor="middle" x="134.5" y="-185" font-family="Helvetica,sans-Serif" font-size="10.00" fill="#000000"> elements</text>
</g>
<!-- Node8 -->
<g id="node6" class="node">
<title>Node8</title>
<g id="a_node6"><a xlink:href="classamr__wind_1_1_field.html" target="_top" xlink:title="Computational fieldThis is an abstraction of a collection of MultiFabs over multiple levels...">
<polygon fill="#ffffff" stroke="#000000" points="810.5,-73.5 810.5,-92.5 896.5,-92.5 896.5,-73.5 810.5,-73.5"/>
<text text-anchor="middle" x="853.5" y="-80.5" font-family="Helvetica,sans-Serif" font-size="10.00" fill="#000000">amr_wind::Field</text>
</a>
</g>
</g>
<!-- Node8&#45;&gt;Node4 -->
<g id="edge5" class="edge">
<title>Node8&#45;&gt;Node4</title>
<path fill="none" stroke="#9a32cd" stroke-dasharray="5,2" d="M867.5647,-100.4446C880.4797,-114.9576 901.0517,-134.5567 924,-143 961.9568,-156.9654 974.5564,-143.2631 1015,-143 1254.1263,-141.4444 1314.4949,-153.2947 1553,-136 1558.7991,-135.5795 1564.8123,-135.0218 1570.8312,-134.3802"/>
<polygon fill="#9a32cd" stroke="#9a32cd" points="870.0365,-97.9491 860.8853,-92.61 864.7097,-102.4905 870.0365,-97.9491"/>
<text text-anchor="middle" x="1240.5" y="-149" font-family="Helvetica,sans-Serif" font-size="10.00" fill="#000000"> m_density</text>
</g>
<!-- Node16 -->
<g id="node14" class="node">
<title>Node16</title>
<g id="a_node14"><a xlink:href="structamr__wind_1_1pde_1_1_p_d_e_fields.html" target="_top" xlink:title="Collection of fields related to a PDEEvery PDE requires a common set of fields, e.g., the transported variable (scalar or vector), advection, diffusion, source, and effective viscosity fields. ">
<polygon fill="#ffffff" stroke="#000000" points="1033,-101.5 1033,-120.5 1167,-120.5 1167,-101.5 1033,-101.5"/>
<text text-anchor="middle" x="1100" y="-108.5" font-family="Helvetica,sans-Serif" font-size="10.00" fill="#000000">amr_wind::pde::PDEFields</text>
</a>
</g>
</g>
<!-- Node8&#45;&gt;Node16 -->
<g id="edge17" class="edge">
<title>Node8&#45;&gt;Node16</title>
<path fill="none" stroke="#9a32cd" stroke-dasharray="5,2" d="M906.981,-79.3198C938.5919,-78.1394 979.2948,-78.3522 1015,-84 1036.4108,-87.3867 1059.8246,-95.1442 1076.6474,-101.479"/>
<polygon fill="#9a32cd" stroke="#9a32cd" points="906.469,-75.8385 896.6297,-79.7676 906.7717,-82.832 906.469,-75.8385"/>
<text text-anchor="middle" x="969.5" y="-131" font-family="Helvetica,sans-Serif" font-size="10.00" fill="#000000"> src_term</text>
<text text-anchor="middle" x="969.5" y="-120" font-family="Helvetica,sans-Serif" font-size="10.00" fill="#000000">field</text>
<text text-anchor="middle" x="969.5" y="-109" font-family="Helvetica,sans-Serif" font-size="10.00" fill="#000000">diff_term</text>
<text text-anchor="middle" x="969.5" y="-98" font-family="Helvetica,sans-Serif" font-size="10.00" fill="#000000">mueff</text>
<text text-anchor="middle" x="969.5" y="-87" font-family="Helvetica,sans-Serif" font-size="10.00" fill="#000000">conv_term</text>
</g>
<!-- Node17 -->
<g id="node15" class="node">
<title>Node17</title>
<g id="a_node15"><a xlink:href="classamr__wind_1_1pde_1_1_diff_solver_iface.html" target="_top" xlink:title="Base class for all diffusion operatorsThis class provides the common operations for an implicit solut...">
<polygon fill="#ffffff" stroke="#000000" points="1314,-58 1314,-88 1444,-88 1444,-58 1314,-58"/>
<text text-anchor="start" x="1322" y="-76" font-family="Helvetica,sans-Serif" font-size="10.00" fill="#000000">amr_wind::pde::DiffSolver</text>
<text text-anchor="middle" x="1379" y="-65" font-family="Helvetica,sans-Serif" font-size="10.00" fill="#000000">Iface&lt; LinOp &gt;</text>
</a>
</g>
</g>
<!-- Node8&#45;&gt;Node17 -->
<g id="edge20" class="edge">
<title>Node8&#45;&gt;Node17</title>
<path fill="none" stroke="#9a32cd" stroke-dasharray="5,2" d="M906.9531,-76.3174C912.6998,-75.7832 918.4664,-75.3252 924,-75 1062.5926,-66.8561 1225.3391,-68.9515 1313.7544,-71.0656"/>
<polygon fill="#9a32cd" stroke="#9a32cd" points="906.2853,-72.8667 896.6853,-77.3488 906.985,-79.8317 906.2853,-72.8667"/>
<text text-anchor="middle" x="1100" y="-74" font-family="Helvetica,sans-Serif" font-size="10.00" fill="#000000"> m_density</text>
</g>
<!-- Node9 -->
<g id="node7" class="node">
<title>Node9</title>
<g id="a_node7"><a xlink:title="STL class. ">
<polygon fill="#ffffff" stroke="#bfbfbf" points="195.5,-73.5 195.5,-92.5 255.5,-92.5 255.5,-73.5 195.5,-73.5"/>
<text text-anchor="middle" x="225.5" y="-80.5" font-family="Helvetica,sans-Serif" font-size="10.00" fill="#000000">std::string</text>
</a>
</g>
</g>
<!-- Node9&#45;&gt;Node8 -->
<g id="edge6" class="edge">
<title>Node9&#45;&gt;Node8</title>
<path fill="none" stroke="#9a32cd" stroke-dasharray="5,2" d="M266.0417,-83C378.6794,-83 694.714,-83 810.3853,-83"/>
<polygon fill="#9a32cd" stroke="#9a32cd" points="265.7898,-79.5001 255.7897,-83 265.7897,-86.5001 265.7898,-79.5001"/>
<text text-anchor="middle" x="570" y="-86" font-family="Helvetica,sans-Serif" font-size="10.00" fill="#000000"> m_name</text>
</g>
<!-- Node12 -->
<g id="node10" class="node">
<title>Node12</title>
<polygon fill="#ffffff" stroke="#bfbfbf" points="410,-125 410,-155 520,-155 520,-125 410,-125"/>
<text text-anchor="start" x="418" y="-143" font-family="Helvetica,sans-Serif" font-size="10.00" fill="#000000">std::unordered_map</text>
<text text-anchor="middle" x="465" y="-132" font-family="Helvetica,sans-Serif" font-size="10.00" fill="#000000">&lt; std::string, size_t &gt;</text>
</g>
<!-- Node9&#45;&gt;Node12 -->
<g id="edge10" class="edge">
<title>Node9&#45;&gt;Node12</title>
<path fill="none" stroke="#9a32cd" stroke-dasharray="5,2" d="M265.6464,-92.5547C305.1605,-101.9589 365.8118,-116.3936 409.8401,-126.8722"/>
<polygon fill="#9a32cd" stroke="#9a32cd" points="266.3715,-89.1296 255.8328,-90.2191 264.7507,-95.9394 266.3715,-89.1296"/>
<text text-anchor="middle" x="343.5" y="-125" font-family="Helvetica,sans-Serif" font-size="10.00" fill="#000000"> keys</text>
</g>
<!-- Node15 -->
<g id="node13" class="node">
<title>Node15</title>
<g id="a_node13"><a xlink:href="structamr__wind_1_1_m_l_m_g_options.html" target="_top" xlink:title="Collection of solver options to control MLMG behavior. ">
<polygon fill="#ffffff" stroke="#000000" points="1036,-.5 1036,-19.5 1164,-19.5 1164,-.5 1036,-.5"/>
<text text-anchor="middle" x="1100" y="-7.5" font-family="Helvetica,sans-Serif" font-size="10.00" fill="#000000">amr_wind::MLMGOptions</text>
</a>
</g>
</g>
<!-- Node9&#45;&gt;Node15 -->
<g id="edge15" class="edge">
<title>Node9&#45;&gt;Node15</title>
<path fill="none" stroke="#9a32cd" stroke-dasharray="5,2" d="M256.2568,-69.4632C301.1956,-50.9492 387.8554,-20 465,-20 465,-20 465,-20 853.5,-20 915.4969,-20 986.1927,-16.8029 1035.9291,-14.0242"/>
<polygon fill="#9a32cd" stroke="#9a32cd" points="254.6657,-66.3351 246.7987,-73.4317 257.3741,-72.7899 254.6657,-66.3351"/>
<text text-anchor="middle" x="674.5" y="-23" font-family="Helvetica,sans-Serif" font-size="10.00" fill="#000000"> bottom_solver_type</text>
</g>
<!-- Node10 -->
<g id="node8" class="node">
<title>Node10</title>
<g id="a_node8"><a xlink:title="STL class. ">
<polygon fill="#ffffff" stroke="#bfbfbf" points="0,-68 0,-98 95,-98 95,-68 0,-68"/>
<text text-anchor="start" x="8" y="-86" font-family="Helvetica,sans-Serif" font-size="10.00" fill="#000000">std::basic_string&lt;</text>
<text text-anchor="middle" x="47.5" y="-75" font-family="Helvetica,sans-Serif" font-size="10.00" fill="#000000"> char &gt;</text>
</a>
</g>
</g>
<!-- Node10&#45;&gt;Node9 -->
<g id="edge7" class="edge">
<title>Node10&#45;&gt;Node9</title>
<path fill="none" stroke="#191970" d="M105.5446,-83C135.493,-83 170.7833,-83 195.3,-83"/>
<polygon fill="#191970" stroke="#191970" points="105.2008,-79.5001 95.2007,-83 105.2007,-86.5001 105.2008,-79.5001"/>
</g>
<!-- Node11 -->
<g id="node9" class="node">
<title>Node11</title>
<g id="a_node9"><a xlink:href="classamr__wind_1_1_field_repo.html" target="_top" xlink:title="Field RepositoryFieldRepo is a database that manages handling of fields used during a simulation...">
<polygon fill="#ffffff" stroke="#000000" points="620,-130.5 620,-149.5 729,-149.5 729,-130.5 620,-130.5"/>
<text text-anchor="middle" x="674.5" y="-137.5" font-family="Helvetica,sans-Serif" font-size="10.00" fill="#000000">amr_wind::FieldRepo</text>
</a>
</g>
</g>
<!-- Node11&#45;&gt;Node8 -->
<g id="edge8" class="edge">
<title>Node11&#45;&gt;Node8</title>
<path fill="none" stroke="#9a32cd" stroke-dasharray="5,2" d="M714.2436,-127.3442C747.2399,-116.837 793.4617,-102.1184 823.4417,-92.5716"/>
<polygon fill="#9a32cd" stroke="#9a32cd" points="712.9271,-124.0902 704.4606,-130.4595 715.0511,-130.7602 712.9271,-124.0902"/>
<text text-anchor="middle" x="765" y="-120" font-family="Helvetica,sans-Serif" font-size="10.00" fill="#000000"> m_repo</text>
</g>
<!-- Node11&#45;&gt;Node16 -->
<g id="edge18" class="edge">
<title>Node11&#45;&gt;Node16</title>
<path fill="none" stroke="#9a32cd" stroke-dasharray="5,2" d="M739.4459,-145.8305C808.3293,-150.6153 920.0864,-154.3733 1015,-139 1036.7787,-135.4725 1060.5493,-127.2433 1077.4012,-120.6137"/>
<polygon fill="#9a32cd" stroke="#9a32cd" points="739.4112,-142.3189 729.1846,-145.088 738.9059,-149.3007 739.4112,-142.3189"/>
<text text-anchor="middle" x="853.5" y="-154" font-family="Helvetica,sans-Serif" font-size="10.00" fill="#000000"> repo</text>
</g>
<!-- Node12&#45;&gt;Node11 -->
<g id="edge9" class="edge">
<title>Node12&#45;&gt;Node11</title>
<path fill="none" stroke="#9a32cd" stroke-dasharray="5,2" d="M530.3958,-140C559.1148,-140 592.452,-140 619.824,-140"/>
<polygon fill="#9a32cd" stroke="#9a32cd" points="530.0437,-136.5001 520.0437,-140 530.0436,-143.5001 530.0437,-136.5001"/>
<text text-anchor="middle" x="570" y="-154" font-family="Helvetica,sans-Serif" font-size="10.00" fill="#000000"> m_fid_map</text>
<text text-anchor="middle" x="570" y="-143" font-family="Helvetica,sans-Serif" font-size="10.00" fill="#000000">m_int_fid_map</text>
</g>
<!-- Node13&#45;&gt;Node12 -->
<g id="edge11" class="edge">
<title>Node13&#45;&gt;Node12</title>
<path fill="none" stroke="#ffa500" stroke-dasharray="5,2" d="M287.5442,-148.8913C325.3248,-146.9983 373.1761,-144.6008 409.6661,-142.7725"/>
<polygon fill="#ffa500" stroke="#ffa500" points="286.9854,-145.4148 277.1731,-149.411 287.3357,-152.4061 286.9854,-145.4148"/>
<text text-anchor="middle" x="343.5" y="-152" font-family="Helvetica,sans-Serif" font-size="10.00" fill="#000000"> &lt; std::string, size_t &gt;</text>
</g>
<!-- Node14 -->
<g id="node12" class="node">
<title>Node14</title>
<polygon fill="#ffffff" stroke="#bfbfbf" points="33,-142.5 33,-161.5 62,-161.5 62,-142.5 33,-142.5"/>
<text text-anchor="middle" x="47.5" y="-149.5" font-family="Helvetica,sans-Serif" font-size="10.00" fill="#000000">K</text>
</g>
<!-- Node14&#45;&gt;Node13 -->
<g id="edge12" class="edge">
<title>Node14&#45;&gt;Node13</title>
<path fill="none" stroke="#9a32cd" stroke-dasharray="5,2" d="M72.243,-152C98.425,-152 140.4972,-152 173.9422,-152"/>
<polygon fill="#9a32cd" stroke="#9a32cd" points="72.0665,-148.5001 62.0665,-152 72.0665,-155.5001 72.0665,-148.5001"/>
<text text-anchor="middle" x="134.5" y="-155" font-family="Helvetica,sans-Serif" font-size="10.00" fill="#000000"> keys</text>
</g>
<!-- Node15&#45;&gt;Node4 -->
<g id="edge14" class="edge">
<title>Node15&#45;&gt;Node4</title>
<path fill="none" stroke="#9a32cd" stroke-dasharray="5,2" d="M1174.2514,-7.4346C1210.9586,-6.9151 1255.8816,-7.3997 1296,-11 1413.794,-21.571 1445.8109,-30.0235 1553,-80 1572.6098,-89.143 1594.0642,-100.8214 1610.2472,-109.9897"/>
<polygon fill="#9a32cd" stroke="#9a32cd" points="1174.0661,-3.9371 1164.1268,-7.606 1174.1846,-10.9361 1174.0661,-3.9371"/>
<text text-anchor="middle" x="1379" y="-38" font-family="Helvetica,sans-Serif" font-size="10.00" fill="#000000"> m_options</text>
</g>
<!-- Node15&#45;&gt;Node17 -->
<g id="edge23" class="edge">
<title>Node15&#45;&gt;Node17</title>
<path fill="none" stroke="#9a32cd" stroke-dasharray="5,2" d="M1174.4997,-11.6635C1211.6342,-14.073 1256.8542,-19.4208 1296,-31 1316.9065,-37.1841 1338.8447,-48.5257 1354.9127,-57.8656"/>
<polygon fill="#9a32cd" stroke="#9a32cd" points="1174.4408,-8.154 1164.2521,-11.0591 1174.0286,-15.1419 1174.4408,-8.154"/>
<text text-anchor="middle" x="1240.5" y="-34" font-family="Helvetica,sans-Serif" font-size="10.00" fill="#000000"> m_options</text>
</g>
<!-- Node16&#45;&gt;Node4 -->
<g id="edge16" class="edge">
<title>Node16&#45;&gt;Node4</title>
<path fill="none" stroke="#9a32cd" stroke-dasharray="5,2" d="M1177.3795,-113.0211C1283.3748,-115.7896 1471.8392,-120.7122 1570.9512,-123.301"/>
<polygon fill="#9a32cd" stroke="#9a32cd" points="1177.1593,-109.5143 1167.0713,-112.7519 1176.9765,-116.5119 1177.1593,-109.5143"/>
<text text-anchor="middle" x="1379" y="-123" font-family="Helvetica,sans-Serif" font-size="10.00" fill="#000000"> m_pdefields</text>
</g>
<!-- Node16&#45;&gt;Node17 -->
<g id="edge24" class="edge">
<title>Node16&#45;&gt;Node17</title>
<path fill="none" stroke="#9a32cd" stroke-dasharray="5,2" d="M1177.3043,-100.4711C1220.2287,-94.6248 1273.0319,-87.4329 1313.8428,-81.8745"/>
<polygon fill="#9a32cd" stroke="#9a32cd" points="1176.6186,-97.0321 1167.1825,-101.8497 1177.5634,-103.968 1176.6186,-97.0321"/>
<text text-anchor="middle" x="1240.5" y="-102" font-family="Helvetica,sans-Serif" font-size="10.00" fill="#000000"> m_pdefields</text>
</g>
<!-- Node17&#45;&gt;Node4 -->
<g id="edge19" class="edge">
<title>Node17&#45;&gt;Node4</title>
<path fill="none" stroke="#ffa500" stroke-dasharray="5,2" d="M1454.4885,-82.3875C1485.2294,-86.8129 1520.9937,-92.7334 1553,-100 1565.1808,-102.7655 1578.1879,-106.3657 1590.2051,-109.9686"/>
<polygon fill="#ffa500" stroke="#ffa500" points="1454.6599,-78.8771 1444.2687,-80.9443 1453.681,-85.8083 1454.6599,-78.8771"/>
<text text-anchor="middle" x="1507.5" y="-103" font-family="Helvetica,sans-Serif" font-size="10.00" fill="#000000"> &lt; PDE::MLDiffOp &gt;</text>
</g>
<!-- Node18&#45;&gt;Node17 -->
<g id="edge21" class="edge">
<title>Node18&#45;&gt;Node17</title>
<path fill="none" stroke="#9a32cd" stroke-dasharray="5,2" d="M1172.767,-205.3184C1226.5871,-199.3218 1291.3365,-191.308 1296,-187 1324.0457,-161.0922 1290.1486,-132.8142 1314,-103 1318.8914,-96.8858 1325.3119,-91.964 1332.2125,-88.0181"/>
<polygon fill="#9a32cd" stroke="#9a32cd" points="1172.0713,-201.8739 1162.5162,-206.4512 1172.8402,-208.8316 1172.0713,-201.8739"/>
<text text-anchor="middle" x="1240.5" y="-217" font-family="Helvetica,sans-Serif" font-size="10.00" fill="#000000"> m_applier</text>
<text text-anchor="middle" x="1240.5" y="-206" font-family="Helvetica,sans-Serif" font-size="10.00" fill="#000000">m_solver</text>
</g>
</g>
</svg>
        <g id="navigator" transform="translate(0 0)" fill="#404254">
                <rect fill="#f2f5e9" fill-opacity="0.5" stroke="#606060" stroke-width=".5" x="0" y="0" width="60" height="60"/>
                <use id="zoomplus" xlink:href="#zoomPlus" x="17" y="9" onmousedown="handleZoom(evt,'in')"/>
                <use id="zoomminus" xlink:href="#zoomMin" x="42" y="9" onmousedown="handleZoom(evt,'out')"/>
                <use id="reset" xlink:href="#resetDef" x="30" y="36" onmousedown="handleReset()"/>
                <g id="arrowUp" xlink:href="#dirArrow" transform="translate(30 24)" onmousedown="handlePan(0,-1)">
                  <use xlink:href="#rim" fill="#404040">
                        <set attributeName="fill" to="#808080" begin="arrowUp.mouseover" end="arrowUp.mouseout"/>
                  </use>
                  <path fill="none" stroke="white" stroke-width="1.5" d="M0,-3.0v7 M-2.5,-0.5L0,-3.0L2.5,-0.5"/>
                </g>
                <g id="arrowRight" xlink:href="#dirArrow" transform="rotate(90) translate(36 -43)" onmousedown="handlePan(1,0)">
                  <use xlink:href="#rim" fill="#404040">
                        <set attributeName="fill" to="#808080" begin="arrowRight.mouseover" end="arrowRight.mouseout"/>
                  </use>
                  <path fill="none" stroke="white" stroke-width="1.5" d="M0,-3.0v7 M-2.5,-0.5L0,-3.0L2.5,-0.5"/>
                </g>
                <g id="arrowDown" xlink:href="#dirArrow" transform="rotate(180) translate(-30 -48)" onmousedown="handlePan(0,1)">
                  <use xlink:href="#rim" fill="#404040">
                        <set attributeName="fill" to="#808080" begin="arrowDown.mouseover" end="arrowDown.mouseout"/>
                  </use>
                  <path fill="none" stroke="white" stroke-width="1.5" d="M0,-3.0v7 M-2.5,-0.5L0,-3.0L2.5,-0.5"/>
                </g>
                <g id="arrowLeft" xlink:href="#dirArrow" transform="rotate(270) translate(-36 17)" onmousedown="handlePan(-1,0)">
                  <use xlink:href="#rim" fill="#404040">
                        <set attributeName="fill" to="#808080" begin="arrowLeft.mouseover" end="arrowLeft.mouseout"/>
                  </use>
                  <path fill="none" stroke="white" stroke-width="1.5" d="M0,-3.0v7 M-2.5,-0.5L0,-3.0L2.5,-0.5"/>
                </g>
        </g>
        <svg viewBox="0 0 15 15" width="100%" height="30px" preserveAspectRatio="xMaxYMin meet">
         <g id="arrow_out" transform="scale(0.3 0.3)">
          <a xlink:href="structamr__wind_1_1pde_1_1_diffusion_op_3_01_p_d_e_00_01_scheme_00_01typename_01std_1_1enable__ia3b47d48dd3bd61cc6b343de54a34cef_org.svg" target="_base">
           <rect id="button" ry="5" rx="5" y="6" x="6" height="38" width="38"
                fill="#f2f5e9" fill-opacity="0.5" stroke="#606060" stroke-width="1.0"/>
           <path id="arrow"
             d="M 11.500037,31.436501 C 11.940474,20.09759 22.043105,11.32322 32.158766,21.979434 L 37.068811,17.246167 C 37.068811,17.246167 37.088388,32 37.088388,32 L 22.160133,31.978069 C 22.160133,31.978069 26.997745,27.140456 26.997745,27.140456 C 18.528582,18.264221 13.291696,25.230495 11.500037,31.436501 z"
             style="fill:#404040;"/>
          </a>
         </g>
        </svg>
</svg>
