<?xml version="1.0" encoding="UTF-8" standalone="no"?>
<!DOCTYPE svg PUBLIC "-//W3C//DTD SVG 1.1//EN"
 "http://www.w3.org/Graphics/SVG/1.1/DTD/svg11.dtd">
<!-- Generated by graphviz version 2.40.1 (20161225.0304)
 -->
<!-- Title: amr_wind::pde::SrcTermOp&lt; ICNS &gt; Pages: 1 -->
<!--zoomable 675 -->
<svg id="main" version="1.1" xmlns="http://www.w3.org/2000/svg" xmlns:xlink="http://www.w3.org/1999/xlink" xml:space="preserve" onload="init(evt)">
<style type="text/css"><![CDATA[
.edge:hover path { stroke: red; }
.edge:hover polygon { stroke: red; fill: red; }
]]></style>
<script type="text/javascript"><![CDATA[
var edges = document.getElementsByTagName('g');
if (edges && edges.length) {
  for (var i=0;i<edges.length;i++) {
    if (edges[i].id.substr(0,4)=='edge') {
      edges[i].setAttribute('class','edge');
    }
  }
}
]]></script>
        <defs>
                <circle id="rim" cx="0" cy="0" r="7"/>
                <circle id="rim2" cx="0" cy="0" r="3.5"/>
                <g id="zoomPlus">
                        <use xlink:href="#rim" fill="#404040">
                                <set attributeName="fill" to="#808080" begin="zoomplus.mouseover" end="zoomplus.mouseout"/>
                        </use>
                        <path d="M-4,0h8M0,-4v8" fill="none" stroke="white" stroke-width="1.5" pointer-events="none"/>
                </g>
                <g id="zoomMin">
                        <use xlink:href="#rim" fill="#404040">
                                <set attributeName="fill" to="#808080" begin="zoomminus.mouseover" end="zoomminus.mouseout"/>
                        </use>
                        <path d="M-4,0h8" fill="none" stroke="white" stroke-width="1.5" pointer-events="none"/>
                </g>
                <g id="dirArrow">
                        <path fill="none" stroke="white" stroke-width="1.5" d="M0,-3.0v7 M-2.5,-0.5L0,-3.0L2.5,-0.5"/>
                </g>
               <g id="resetDef">
                       <use xlink:href="#rim2" fill="#404040">
                               <set attributeName="fill" to="#808080" begin="reset.mouseover" end="reset.mouseout"/>
                       </use>
               </g>
        </defs>

<script type="text/javascript">
var viewWidth = 389;
var viewHeight = 675;
var sectionId = 'dynsection-1';
</script>
<script xlink:href="svgpan.js"/>
<svg id="graph" class="graph">
<g id="viewport">
<title>amr_wind::pde::SrcTermOp&lt; ICNS &gt;</title>
<polygon fill="#ffffff" stroke="transparent" points="-4,4 -4,-671 384.989,-671 384.989,4 -4,4"/>
<!-- Node3 -->
<g id="node1" class="node">
<title>Node3</title>
<polygon fill="#bfbfbf" stroke="#000000" points="164.489,-.5 164.489,-30.5 301.489,-30.5 301.489,-.5 164.489,-.5"/>
<text text-anchor="start" x="172.489" y="-18.5" font-family="Helvetica,sans-Serif" font-size="10.00" fill="#000000">amr_wind::pde::SrcTermOp</text>
<text text-anchor="middle" x="232.989" y="-7.5" font-family="Helvetica,sans-Serif" font-size="10.00" fill="#000000">&lt; ICNS &gt;</text>
</g>
<!-- Node4 -->
<g id="node2" class="node">
<title>Node4</title>
<g id="a_node2"><a xlink:href="structamr__wind_1_1pde_1_1_src_term_op_base.html" target="_top" xlink:title="amr_wind::pde::SrcTermOp\lBase\&lt; ICNS \&gt;">
<polygon fill="#ffffff" stroke="#000000" points="67.489,-68.5 67.489,-98.5 204.489,-98.5 204.489,-68.5 67.489,-68.5"/>
<text text-anchor="start" x="75.489" y="-86.5" font-family="Helvetica,sans-Serif" font-size="10.00" fill="#000000">amr_wind::pde::SrcTermOp</text>
<text text-anchor="middle" x="135.989" y="-75.5" font-family="Helvetica,sans-Serif" font-size="10.00" fill="#000000">Base&lt; ICNS &gt;</text>
</a>
</g>
</g>
<!-- Node4&#45;&gt;Node3 -->
<g id="edge1" class="edge">
<title>Node4&#45;&gt;Node3</title>
<path fill="none" stroke="#191970" d="M165.8449,-62.5701C180.6109,-52.2187 198.0965,-39.9607 211.5218,-30.5492"/>
<polygon fill="#191970" stroke="#191970" points="163.6957,-59.8023 157.5165,-68.4086 167.7139,-65.5342 163.6957,-59.8023"/>
</g>
<!-- Node5 -->
<g id="node3" class="node">
<title>Node5</title>
<g id="a_node3"><a xlink:href="classamr__wind_1_1_field.html" target="_top" xlink:title="Computational fieldThis is an abstraction of a collection of MultiFabs over multiple levels...">
<polygon fill="#ffffff" stroke="#000000" points="143.989,-335.5 143.989,-354.5 229.989,-354.5 229.989,-335.5 143.989,-335.5"/>
<text text-anchor="middle" x="186.989" y="-342.5" font-family="Helvetica,sans-Serif" font-size="10.00" fill="#000000">amr_wind::Field</text>
</a>
</g>
</g>
<!-- Node5&#45;&gt;Node3 -->
<g id="edge17" class="edge">
<title>Node5&#45;&gt;Node3</title>
<path fill="none" stroke="#9a32cd" stroke-dasharray="5,2" d="M219.4058,-330.3902C225.7064,-326.6151 231.9193,-322.1396 236.989,-317 266.4569,-287.1263 281.989,-275.9618 281.989,-234 281.989,-234 281.989,-234 281.989,-83.5 281.989,-62.2552 266.0515,-43.1253 252.3551,-30.608"/>
<polygon fill="#9a32cd" stroke="#9a32cd" points="217.3225,-327.5406 210.2348,-335.4156 220.6864,-333.6794 217.3225,-327.5406"/>
<text text-anchor="middle" x="298.489" y="-159" font-family="Helvetica,sans-Serif" font-size="10.00" fill="#000000"> grad_p</text>
</g>
<!-- Node5&#45;&gt;Node4 -->
<g id="edge2" class="edge">
<title>Node5&#45;&gt;Node4</title>
<path fill="none" stroke="#9a32cd" stroke-dasharray="5,2" d="M133.8562,-336.7486C107.6216,-331.8246 79.3974,-324.9802 68.989,-317 24.4851,-282.8783 23.6773,-260.1216 8.989,-206 2.0035,-180.2607 -6.1391,-168.6209 7.989,-146 22.5302,-122.7178 48.5259,-107.8754 73.3091,-98.531"/>
<polygon fill="#9a32cd" stroke="#9a32cd" points="133.3092,-340.2063 143.7722,-338.5401 134.5538,-333.3179 133.3092,-340.2063"/>
<text text-anchor="middle" x="33.489" y="-198" font-family="Helvetica,sans-Serif" font-size="10.00" fill="#000000"> m_density</text>
</g>
<!-- Node13 -->
<g id="node11" class="node">
<title>Node13</title>
<g id="a_node11"><a xlink:href="structamr__wind_1_1pde_1_1_p_d_e_fields.html" target="_top" xlink:title="Collection of fields related to a PDEEvery PDE requires a common set of fields, e.g., the transported variable (scalar or vector), advection, diffusion, source, and effective viscosity fields. ">
<polygon fill="#ffffff" stroke="#000000" points="119.989,-224.5 119.989,-243.5 253.989,-243.5 253.989,-224.5 119.989,-224.5"/>
<text text-anchor="middle" x="186.989" y="-231.5" font-family="Helvetica,sans-Serif" font-size="10.00" fill="#000000">amr_wind::pde::PDEFields</text>
</a>
</g>
</g>
<!-- Node5&#45;&gt;Node13 -->
<g id="edge12" class="edge">
<title>Node5&#45;&gt;Node13</title>
<path fill="none" stroke="#9a32cd" stroke-dasharray="5,2" d="M186.989,-325.0467C186.989,-301.0543 186.989,-261.7599 186.989,-243.6699"/>
<polygon fill="#9a32cd" stroke="#9a32cd" points="183.4891,-325.1495 186.989,-335.1495 190.4891,-325.1495 183.4891,-325.1495"/>
<text text-anchor="middle" x="209.989" y="-309" font-family="Helvetica,sans-Serif" font-size="10.00" fill="#000000"> src_term</text>
<text text-anchor="middle" x="209.989" y="-298" font-family="Helvetica,sans-Serif" font-size="10.00" fill="#000000">field</text>
<text text-anchor="middle" x="209.989" y="-287" font-family="Helvetica,sans-Serif" font-size="10.00" fill="#000000">diff_term</text>
<text text-anchor="middle" x="209.989" y="-276" font-family="Helvetica,sans-Serif" font-size="10.00" fill="#000000">mueff</text>
<text text-anchor="middle" x="209.989" y="-265" font-family="Helvetica,sans-Serif" font-size="10.00" fill="#000000">conv_term</text>
</g>
<!-- Node14 -->
<g id="node12" class="node">
<title>Node14</title>
<g id="a_node12"><a xlink:href="structamr__wind_1_1pde_1_1_src_term_op_base.html" target="_top" xlink:title="Base implementation of source terms for a PDEHolds a collection of source terms that are initialized ...">
<polygon fill="#ffffff" stroke="#000000" points="17.489,-146.5 17.489,-176.5 154.489,-176.5 154.489,-146.5 17.489,-146.5"/>
<text text-anchor="start" x="25.489" y="-164.5" font-family="Helvetica,sans-Serif" font-size="10.00" fill="#000000">amr_wind::pde::SrcTermOp</text>
<text text-anchor="middle" x="85.989" y="-153.5" font-family="Helvetica,sans-Serif" font-size="10.00" fill="#000000">Base&lt; PDE &gt;</text>
</a>
</g>
</g>
<!-- Node5&#45;&gt;Node14 -->
<g id="edge15" class="edge">
<title>Node5&#45;&gt;Node14</title>
<path fill="none" stroke="#9a32cd" stroke-dasharray="5,2" d="M156.8079,-330.7102C126.4726,-314.4769 81.4956,-284.8398 61.989,-244 51.3168,-221.6562 64.5764,-193.6007 75.2186,-176.6357"/>
<polygon fill="#9a32cd" stroke="#9a32cd" points="155.2179,-333.8282 165.7078,-335.3154 158.4348,-327.6112 155.2179,-333.8282"/>
<text text-anchor="middle" x="86.489" y="-231.5" font-family="Helvetica,sans-Serif" font-size="10.00" fill="#000000"> m_density</text>
</g>
<!-- Node6 -->
<g id="node4" class="node">
<title>Node6</title>
<g id="a_node4"><a xlink:title="STL class. ">
<polygon fill="#ffffff" stroke="#bfbfbf" points="156.989,-564 156.989,-583 216.989,-583 216.989,-564 156.989,-564"/>
<text text-anchor="middle" x="186.989" y="-571" font-family="Helvetica,sans-Serif" font-size="10.00" fill="#000000">std::string</text>
</a>
</g>
</g>
<!-- Node6&#45;&gt;Node5 -->
<g id="edge3" class="edge">
<title>Node6&#45;&gt;Node5</title>
<path fill="none" stroke="#9a32cd" stroke-dasharray="5,2" d="M186.989,-553.8634C186.989,-506.8087 186.989,-388.9671 186.989,-354.5681"/>
<polygon fill="#9a32cd" stroke="#9a32cd" points="183.4891,-553.9725 186.989,-563.9726 190.4891,-553.9726 183.4891,-553.9725"/>
<text text-anchor="middle" x="207.489" y="-448.5" font-family="Helvetica,sans-Serif" font-size="10.00" fill="#000000"> m_name</text>
</g>
<!-- Node9 -->
<g id="node7" class="node">
<title>Node9</title>
<polygon fill="#ffffff" stroke="#bfbfbf" points="222.989,-480.5 222.989,-510.5 332.989,-510.5 332.989,-480.5 222.989,-480.5"/>
<text text-anchor="start" x="230.989" y="-498.5" font-family="Helvetica,sans-Serif" font-size="10.00" fill="#000000">std::unordered_map</text>
<text text-anchor="middle" x="277.989" y="-487.5" font-family="Helvetica,sans-Serif" font-size="10.00" fill="#000000">&lt; std::string, size_t &gt;</text>
</g>
<!-- Node6&#45;&gt;Node9 -->
<g id="edge7" class="edge">
<title>Node6&#45;&gt;Node9</title>
<path fill="none" stroke="#9a32cd" stroke-dasharray="5,2" d="M205.8013,-557.3752C221.7584,-543.6977 244.489,-524.2143 260.1596,-510.7824"/>
<polygon fill="#9a32cd" stroke="#9a32cd" points="203.4622,-554.7703 198.1474,-563.9357 208.0178,-560.0851 203.4622,-554.7703"/>
<text text-anchor="middle" x="250.489" y="-532" font-family="Helvetica,sans-Serif" font-size="10.00" fill="#000000"> keys</text>
</g>
<!-- Node7 -->
<g id="node5" class="node">
<title>Node7</title>
<g id="a_node5"><a xlink:title="STL class. ">
<polygon fill="#ffffff" stroke="#bfbfbf" points="139.489,-636.5 139.489,-666.5 234.489,-666.5 234.489,-636.5 139.489,-636.5"/>
<text text-anchor="start" x="147.489" y="-654.5" font-family="Helvetica,sans-Serif" font-size="10.00" fill="#000000">std::basic_string&lt;</text>
<text text-anchor="middle" x="186.989" y="-643.5" font-family="Helvetica,sans-Serif" font-size="10.00" fill="#000000"> char &gt;</text>
</a>
</g>
</g>
<!-- Node7&#45;&gt;Node6 -->
<g id="edge4" class="edge">
<title>Node7&#45;&gt;Node6</title>
<path fill="none" stroke="#191970" d="M186.989,-626.3962C186.989,-611.6331 186.989,-593.8138 186.989,-583.0839"/>
<polygon fill="#191970" stroke="#191970" points="183.4891,-626.4608 186.989,-636.4608 190.4891,-626.4609 183.4891,-626.4608"/>
</g>
<!-- Node8 -->
<g id="node6" class="node">
<title>Node8</title>
<g id="a_node6"><a xlink:href="classamr__wind_1_1_field_repo.html" target="_top" xlink:title="Field RepositoryFieldRepo is a database that manages handling of fields used during a simulation...">
<polygon fill="#ffffff" stroke="#000000" points="223.489,-402.5 223.489,-421.5 332.489,-421.5 332.489,-402.5 223.489,-402.5"/>
<text text-anchor="middle" x="277.989" y="-409.5" font-family="Helvetica,sans-Serif" font-size="10.00" fill="#000000">amr_wind::FieldRepo</text>
</a>
</g>
</g>
<!-- Node8&#45;&gt;Node5 -->
<g id="edge5" class="edge">
<title>Node8&#45;&gt;Node5</title>
<path fill="none" stroke="#9a32cd" stroke-dasharray="5,2" d="M256.4695,-396.1559C238.9262,-383.2395 214.7238,-365.4201 200.0029,-354.5817"/>
<polygon fill="#9a32cd" stroke="#9a32cd" points="254.823,-399.29 264.9509,-402.4005 258.9733,-393.653 254.823,-399.29"/>
<text text-anchor="middle" x="255.989" y="-376" font-family="Helvetica,sans-Serif" font-size="10.00" fill="#000000"> m_repo</text>
</g>
<!-- Node8&#45;&gt;Node13 -->
<g id="edge13" class="edge">
<title>Node8&#45;&gt;Node13</title>
<path fill="none" stroke="#9a32cd" stroke-dasharray="5,2" d="M279.3378,-392.1402C279.397,-385.9669 279.0913,-379.1653 277.989,-373 268.7334,-321.2297 271.1526,-301.9835 236.989,-262 230.2676,-254.1335 220.7554,-248.0375 211.8292,-243.5716"/>
<polygon fill="#9a32cd" stroke="#9a32cd" points="275.834,-392.1679 278.9307,-402.3001 282.8284,-392.4483 275.834,-392.1679"/>
<text text-anchor="middle" x="285.989" y="-342.5" font-family="Helvetica,sans-Serif" font-size="10.00" fill="#000000"> repo</text>
</g>
<!-- Node9&#45;&gt;Node8 -->
<g id="edge6" class="edge">
<title>Node9&#45;&gt;Node8</title>
<path fill="none" stroke="#9a32cd" stroke-dasharray="5,2" d="M277.989,-470.1022C277.989,-453.6775 277.989,-433.2426 277.989,-421.5023"/>
<polygon fill="#9a32cd" stroke="#9a32cd" points="274.4891,-470.1848 277.989,-480.1848 281.4891,-470.1848 274.4891,-470.1848"/>
<text text-anchor="middle" x="309.989" y="-454" font-family="Helvetica,sans-Serif" font-size="10.00" fill="#000000"> m_fid_map</text>
<text text-anchor="middle" x="309.989" y="-443" font-family="Helvetica,sans-Serif" font-size="10.00" fill="#000000">m_int_fid_map</text>
</g>
<!-- Node10 -->
<g id="node8" class="node">
<title>Node10</title>
<g id="a_node8"><a xlink:title="STL class. ">
<polygon fill="#ffffff" stroke="#bfbfbf" points="235.489,-558.5 235.489,-588.5 338.489,-588.5 338.489,-558.5 235.489,-558.5"/>
<text text-anchor="start" x="243.489" y="-576.5" font-family="Helvetica,sans-Serif" font-size="10.00" fill="#000000">std::unordered_map</text>
<text text-anchor="middle" x="286.989" y="-565.5" font-family="Helvetica,sans-Serif" font-size="10.00" fill="#000000">&lt; K, T &gt;</text>
</a>
</g>
</g>
<!-- Node10&#45;&gt;Node9 -->
<g id="edge8" class="edge">
<title>Node10&#45;&gt;Node9</title>
<path fill="none" stroke="#ffa500" stroke-dasharray="5,2" d="M284.0799,-548.2875C282.6527,-535.9187 280.9805,-521.4264 279.7497,-510.7592"/>
<polygon fill="#ffa500" stroke="#ffa500" points="280.6305,-548.9279 285.2537,-558.4608 287.5843,-548.1255 280.6305,-548.9279"/>
<text text-anchor="middle" x="332.489" y="-532" font-family="Helvetica,sans-Serif" font-size="10.00" fill="#000000"> &lt; std::string, size_t &gt;</text>
</g>
<!-- Node11 -->
<g id="node9" class="node">
<title>Node11</title>
<polygon fill="#ffffff" stroke="#bfbfbf" points="262.489,-642 262.489,-661 291.489,-661 291.489,-642 262.489,-642"/>
<text text-anchor="middle" x="276.989" y="-649" font-family="Helvetica,sans-Serif" font-size="10.00" fill="#000000">K</text>
</g>
<!-- Node11&#45;&gt;Node10 -->
<g id="edge9" class="edge">
<title>Node11&#45;&gt;Node10</title>
<path fill="none" stroke="#9a32cd" stroke-dasharray="5,2" d="M276.4201,-631.6592C276.4631,-623.9293 276.839,-615.0175 277.989,-607 278.8612,-600.9196 280.4671,-594.3663 282.0836,-588.6822"/>
<polygon fill="#9a32cd" stroke="#9a32cd" points="272.9232,-631.94 276.5441,-641.8968 279.9226,-631.8552 272.9232,-631.94"/>
<text text-anchor="middle" x="290.489" y="-610" font-family="Helvetica,sans-Serif" font-size="10.00" fill="#000000"> keys</text>
</g>
<!-- Node12 -->
<g id="node10" class="node">
<title>Node12</title>
<polygon fill="#ffffff" stroke="#bfbfbf" points="310.489,-642 310.489,-661 339.489,-661 339.489,-642 310.489,-642"/>
<text text-anchor="middle" x="324.989" y="-649" font-family="Helvetica,sans-Serif" font-size="10.00" fill="#000000">T</text>
</g>
<!-- Node12&#45;&gt;Node10 -->
<g id="edge10" class="edge">
<title>Node12&#45;&gt;Node10</title>
<path fill="none" stroke="#9a32cd" stroke-dasharray="5,2" d="M315.8161,-632.6714C309.263,-619.2202 300.5578,-601.3517 294.4343,-588.7824"/>
<polygon fill="#9a32cd" stroke="#9a32cd" points="312.8033,-634.4787 320.3295,-641.9357 319.0962,-631.4128 312.8033,-634.4787"/>
<text text-anchor="middle" x="330.489" y="-610" font-family="Helvetica,sans-Serif" font-size="10.00" fill="#000000"> elements</text>
</g>
<!-- Node13&#45;&gt;Node4 -->
<g id="edge11" class="edge">
<title>Node13&#45;&gt;Node4</title>
<path fill="none" stroke="#9a32cd" stroke-dasharray="5,2" d="M186.1051,-214.4067C184.3692,-190.3855 179.2256,-148.9361 163.989,-117 160.8557,-110.4324 156.1348,-104.0796 151.4577,-98.704"/>
<polygon fill="#9a32cd" stroke="#9a32cd" points="182.6119,-214.6267 186.7001,-224.401 189.5996,-214.2107 182.6119,-214.6267"/>
<text text-anchor="middle" x="195.489" y="-159" font-family="Helvetica,sans-Serif" font-size="10.00" fill="#000000"> fields</text>
</g>
<!-- Node13&#45;&gt;Node14 -->
<g id="edge16" class="edge">
<title>Node13&#45;&gt;Node14</title>
<path fill="none" stroke="#9a32cd" stroke-dasharray="5,2" d="M165.0497,-218.2515C147.8615,-205.9134 124.0969,-188.8547 107.1196,-176.668"/>
<polygon fill="#9a32cd" stroke="#9a32cd" points="163.203,-221.2342 173.3677,-224.2223 167.285,-215.5476 163.203,-221.2342"/>
<text text-anchor="middle" x="159.489" y="-198" font-family="Helvetica,sans-Serif" font-size="10.00" fill="#000000"> fields</text>
</g>
<!-- Node14&#45;&gt;Node4 -->
<g id="edge14" class="edge">
<title>Node14&#45;&gt;Node4</title>
<path fill="none" stroke="#ffa500" stroke-dasharray="5,2" d="M101.1968,-137.7759C109.3249,-125.096 119.0932,-109.8574 126.2075,-98.7592"/>
<polygon fill="#ffa500" stroke="#ffa500" points="98.0796,-136.1532 95.6295,-146.4608 103.9728,-139.9309 98.0796,-136.1532"/>
<text text-anchor="middle" x="136.989" y="-120" font-family="Helvetica,sans-Serif" font-size="10.00" fill="#000000"> &lt; ICNS &gt;</text>
</g>
</g>
</svg>
        <g id="navigator" transform="translate(0 0)" fill="#404254">
                <rect fill="#f2f5e9" fill-opacity="0.5" stroke="#606060" stroke-width=".5" x="0" y="0" width="60" height="60"/>
                <use id="zoomplus" xlink:href="#zoomPlus" x="17" y="9" onmousedown="handleZoom(evt,'in')"/>
                <use id="zoomminus" xlink:href="#zoomMin" x="42" y="9" onmousedown="handleZoom(evt,'out')"/>
                <use id="reset" xlink:href="#resetDef" x="30" y="36" onmousedown="handleReset()"/>
                <g id="arrowUp" xlink:href="#dirArrow" transform="translate(30 24)" onmousedown="handlePan(0,-1)">
                  <use xlink:href="#rim" fill="#404040">
                        <set attributeName="fill" to="#808080" begin="arrowUp.mouseover" end="arrowUp.mouseout"/>
                  </use>
                  <path fill="none" stroke="white" stroke-width="1.5" d="M0,-3.0v7 M-2.5,-0.5L0,-3.0L2.5,-0.5"/>
                </g>
                <g id="arrowRight" xlink:href="#dirArrow" transform="rotate(90) translate(36 -43)" onmousedown="handlePan(1,0)">
                  <use xlink:href="#rim" fill="#404040">
                        <set attributeName="fill" to="#808080" begin="arrowRight.mouseover" end="arrowRight.mouseout"/>
                  </use>
                  <path fill="none" stroke="white" stroke-width="1.5" d="M0,-3.0v7 M-2.5,-0.5L0,-3.0L2.5,-0.5"/>
                </g>
                <g id="arrowDown" xlink:href="#dirArrow" transform="rotate(180) translate(-30 -48)" onmousedown="handlePan(0,1)">
                  <use xlink:href="#rim" fill="#404040">
                        <set attributeName="fill" to="#808080" begin="arrowDown.mouseover" end="arrowDown.mouseout"/>
                  </use>
                  <path fill="none" stroke="white" stroke-width="1.5" d="M0,-3.0v7 M-2.5,-0.5L0,-3.0L2.5,-0.5"/>
                </g>
                <g id="arrowLeft" xlink:href="#dirArrow" transform="rotate(270) translate(-36 17)" onmousedown="handlePan(-1,0)">
                  <use xlink:href="#rim" fill="#404040">
                        <set attributeName="fill" to="#808080" begin="arrowLeft.mouseover" end="arrowLeft.mouseout"/>
                  </use>
                  <path fill="none" stroke="white" stroke-width="1.5" d="M0,-3.0v7 M-2.5,-0.5L0,-3.0L2.5,-0.5"/>
                </g>
        </g>
        <svg viewBox="0 0 15 15" width="100%" height="30px" preserveAspectRatio="xMaxYMin meet">
         <g id="arrow_out" transform="scale(0.3 0.3)">
          <a xlink:href="structamr__wind_1_1pde_1_1_src_term_op_3_01_i_c_n_s_01_4__coll__graph_org.svg" target="_base">
           <rect id="button" ry="5" rx="5" y="6" x="6" height="38" width="38"
                fill="#f2f5e9" fill-opacity="0.5" stroke="#606060" stroke-width="1.0"/>
           <path id="arrow"
             d="M 11.500037,31.436501 C 11.940474,20.09759 22.043105,11.32322 32.158766,21.979434 L 37.068811,17.246167 C 37.068811,17.246167 37.088388,32 37.088388,32 L 22.160133,31.978069 C 22.160133,31.978069 26.997745,27.140456 26.997745,27.140456 C 18.528582,18.264221 13.291696,25.230495 11.500037,31.436501 z"
             style="fill:#404040;"/>
          </a>
         </g>
        </svg>
</svg>
