<?xml version="1.0" encoding="UTF-8" standalone="no"?>
<!DOCTYPE svg PUBLIC "-//W3C//DTD SVG 1.1//EN"
 "http://www.w3.org/Graphics/SVG/1.1/DTD/svg11.dtd">
<!-- Generated by graphviz version 2.40.1 (20161225.0304)
 -->
<!-- Title: amr_wind::pde::AdvectionOp&lt; PDE, fvm::MOL, typename std::enable_if&lt; std::is_base_of&lt; ScalarTransport, PDE &gt;::value &gt;::type &gt; Pages: 1 -->
<!--zoomable 586 -->
<svg id="main" version="1.1" xmlns="http://www.w3.org/2000/svg" xmlns:xlink="http://www.w3.org/1999/xlink" xml:space="preserve" onload="init(evt)">
<style type="text/css"><![CDATA[
.edge:hover path { stroke: red; }
.edge:hover polygon { stroke: red; fill: red; }
]]></style>
<script type="text/javascript"><![CDATA[
var edges = document.getElementsByTagName('g');
if (edges && edges.length) {
  for (var i=0;i<edges.length;i++) {
    if (edges[i].id.substr(0,4)=='edge') {
      edges[i].setAttribute('class','edge');
    }
  }
}
]]></script>
        <defs>
                <circle id="rim" cx="0" cy="0" r="7"/>
                <circle id="rim2" cx="0" cy="0" r="3.5"/>
                <g id="zoomPlus">
                        <use xlink:href="#rim" fill="#404040">
                                <set attributeName="fill" to="#808080" begin="zoomplus.mouseover" end="zoomplus.mouseout"/>
                        </use>
                        <path d="M-4,0h8M0,-4v8" fill="none" stroke="white" stroke-width="1.5" pointer-events="none"/>
                </g>
                <g id="zoomMin">
                        <use xlink:href="#rim" fill="#404040">
                                <set attributeName="fill" to="#808080" begin="zoomminus.mouseover" end="zoomminus.mouseout"/>
                        </use>
                        <path d="M-4,0h8" fill="none" stroke="white" stroke-width="1.5" pointer-events="none"/>
                </g>
                <g id="dirArrow">
                        <path fill="none" stroke="white" stroke-width="1.5" d="M0,-3.0v7 M-2.5,-0.5L0,-3.0L2.5,-0.5"/>
                </g>
               <g id="resetDef">
                       <use xlink:href="#rim2" fill="#404040">
                               <set attributeName="fill" to="#808080" begin="reset.mouseover" end="reset.mouseout"/>
                       </use>
               </g>
        </defs>

<script type="text/javascript">
var viewWidth = 297;
var viewHeight = 586;
var sectionId = 'dynsection-0';
</script>
<script xlink:href="svgpan.js"/>
<svg id="graph" class="graph">
<g id="viewport">
<title>amr_wind::pde::AdvectionOp&lt; PDE, fvm::MOL, typename std::enable_if&lt; std::is_base_of&lt; ScalarTransport, PDE &gt;::value &gt;::type &gt;</title>
<polygon fill="#ffffff" stroke="transparent" points="-4,4 -4,-582 293,-582 293,4 -4,4"/>
<!-- Node1 -->
<g id="node1" class="node">
<title>Node1</title>
<polygon fill="#bfbfbf" stroke="#000000" points="0,-.5 0,-63.5 158,-63.5 158,-.5 0,-.5"/>
<text text-anchor="start" x="8" y="-51.5" font-family="Helvetica,sans-Serif" font-size="10.00" fill="#000000">amr_wind::pde::Advection</text>
<text text-anchor="start" x="8" y="-40.5" font-family="Helvetica,sans-Serif" font-size="10.00" fill="#000000">Op&lt; PDE, fvm::MOL, typename</text>
<text text-anchor="start" x="8" y="-29.5" font-family="Helvetica,sans-Serif" font-size="10.00" fill="#000000"> std::enable_if&lt; std::is_base</text>
<text text-anchor="start" x="8" y="-18.5" font-family="Helvetica,sans-Serif" font-size="10.00" fill="#000000">_of&lt; ScalarTransport, PDE &gt;::</text>
<text text-anchor="middle" x="79" y="-7.5" font-family="Helvetica,sans-Serif" font-size="10.00" fill="#000000">value &gt;::type &gt;</text>
</g>
<!-- Node2 -->
<g id="node2" class="node">
<title>Node2</title>
<g id="a_node2"><a xlink:href="classamr__wind_1_1_field.html" target="_top" xlink:title="Computational fieldThis is an abstraction of a collection of MultiFabs over multiple levels...">
<polygon fill="#ffffff" stroke="#000000" points="58,-246.5 58,-265.5 144,-265.5 144,-246.5 58,-246.5"/>
<text text-anchor="middle" x="101" y="-253.5" font-family="Helvetica,sans-Serif" font-size="10.00" fill="#000000">amr_wind::Field</text>
</a>
</g>
</g>
<!-- Node2&#45;&gt;Node1 -->
<g id="edge1" class="edge">
<title>Node2&#45;&gt;Node1</title>
<path fill="none" stroke="#9a32cd" stroke-dasharray="5,2" d="M93.7943,-236.949C86.6248,-216.8982 76.1158,-184.248 72,-155 69.275,-135.6352 71.1362,-130.5365 72,-111 72.6873,-95.4562 74.1317,-78.2423 75.531,-63.8613"/>
<polygon fill="#9a32cd" stroke="#9a32cd" points="90.5486,-238.2641 97.2797,-246.446 97.12,-235.8523 90.5486,-238.2641"/>
<text text-anchor="middle" x="89.5" y="-147" font-family="Helvetica,sans-Serif" font-size="10.00" fill="#000000"> density</text>
<text text-anchor="middle" x="89.5" y="-136" font-family="Helvetica,sans-Serif" font-size="10.00" fill="#000000">u_mac</text>
<text text-anchor="middle" x="89.5" y="-125" font-family="Helvetica,sans-Serif" font-size="10.00" fill="#000000">v_mac</text>
<text text-anchor="middle" x="89.5" y="-114" font-family="Helvetica,sans-Serif" font-size="10.00" fill="#000000">w_mac</text>
</g>
<!-- Node10 -->
<g id="node10" class="node">
<title>Node10</title>
<g id="a_node10"><a xlink:href="structamr__wind_1_1pde_1_1_p_d_e_fields.html" target="_top" xlink:title="Collection of fields related to a PDEEvery PDE requires a common set of fields, e.g., the transported variable (scalar or vector), advection, diffusion, source, and effective viscosity fields. ">
<polygon fill="#ffffff" stroke="#000000" points="116,-123.5 116,-142.5 250,-142.5 250,-123.5 116,-123.5"/>
<text text-anchor="middle" x="183" y="-130.5" font-family="Helvetica,sans-Serif" font-size="10.00" fill="#000000">amr_wind::pde::PDEFields</text>
</a>
</g>
</g>
<!-- Node2&#45;&gt;Node10 -->
<g id="edge11" class="edge">
<title>Node2&#45;&gt;Node10</title>
<path fill="none" stroke="#9a32cd" stroke-dasharray="5,2" d="M102.2954,-236.1955C104.3304,-218.24 109.5606,-191.7873 123,-173 132.6146,-159.5594 148.2663,-149.3447 161.1731,-142.6025"/>
<polygon fill="#9a32cd" stroke="#9a32cd" points="98.7905,-236.094 101.3807,-246.3673 105.7624,-236.721 98.7905,-236.094"/>
<text text-anchor="middle" x="146" y="-220" font-family="Helvetica,sans-Serif" font-size="10.00" fill="#000000"> src_term</text>
<text text-anchor="middle" x="146" y="-209" font-family="Helvetica,sans-Serif" font-size="10.00" fill="#000000">field</text>
<text text-anchor="middle" x="146" y="-198" font-family="Helvetica,sans-Serif" font-size="10.00" fill="#000000">diff_term</text>
<text text-anchor="middle" x="146" y="-187" font-family="Helvetica,sans-Serif" font-size="10.00" fill="#000000">mueff</text>
<text text-anchor="middle" x="146" y="-176" font-family="Helvetica,sans-Serif" font-size="10.00" fill="#000000">conv_term</text>
</g>
<!-- Node3 -->
<g id="node3" class="node">
<title>Node3</title>
<g id="a_node3"><a xlink:title="STL class. ">
<polygon fill="#ffffff" stroke="#bfbfbf" points="69,-475 69,-494 129,-494 129,-475 69,-475"/>
<text text-anchor="middle" x="99" y="-482" font-family="Helvetica,sans-Serif" font-size="10.00" fill="#000000">std::string</text>
</a>
</g>
</g>
<!-- Node3&#45;&gt;Node2 -->
<g id="edge2" class="edge">
<title>Node3&#45;&gt;Node2</title>
<path fill="none" stroke="#9a32cd" stroke-dasharray="5,2" d="M99.1719,-464.8634C99.5837,-417.8087 100.6152,-299.9671 100.9163,-265.5681"/>
<polygon fill="#9a32cd" stroke="#9a32cd" points="95.6711,-464.9423 99.0834,-474.9726 102.6709,-465.0036 95.6711,-464.9423"/>
<text text-anchor="middle" x="121.5" y="-359.5" font-family="Helvetica,sans-Serif" font-size="10.00" fill="#000000"> m_name</text>
</g>
<!-- Node6 -->
<g id="node6" class="node">
<title>Node6</title>
<polygon fill="#ffffff" stroke="#bfbfbf" points="127,-391.5 127,-421.5 237,-421.5 237,-391.5 127,-391.5"/>
<text text-anchor="start" x="135" y="-409.5" font-family="Helvetica,sans-Serif" font-size="10.00" fill="#000000">std::unordered_map</text>
<text text-anchor="middle" x="182" y="-398.5" font-family="Helvetica,sans-Serif" font-size="10.00" fill="#000000">&lt; std::string, size_t &gt;</text>
</g>
<!-- Node3&#45;&gt;Node6 -->
<g id="edge6" class="edge">
<title>Node3&#45;&gt;Node6</title>
<path fill="none" stroke="#9a32cd" stroke-dasharray="5,2" d="M116.5605,-467.9973C131.0926,-454.3407 151.5762,-435.0911 165.738,-421.7824"/>
<polygon fill="#9a32cd" stroke="#9a32cd" points="114.0677,-465.537 109.1774,-474.9357 118.8615,-470.638 114.0677,-465.537"/>
<text text-anchor="middle" x="158.5" y="-443" font-family="Helvetica,sans-Serif" font-size="10.00" fill="#000000"> keys</text>
</g>
<!-- Node4 -->
<g id="node4" class="node">
<title>Node4</title>
<g id="a_node4"><a xlink:title="STL class. ">
<polygon fill="#ffffff" stroke="#bfbfbf" points="51.5,-547.5 51.5,-577.5 146.5,-577.5 146.5,-547.5 51.5,-547.5"/>
<text text-anchor="start" x="59.5" y="-565.5" font-family="Helvetica,sans-Serif" font-size="10.00" fill="#000000">std::basic_string&lt;</text>
<text text-anchor="middle" x="99" y="-554.5" font-family="Helvetica,sans-Serif" font-size="10.00" fill="#000000"> char &gt;</text>
</a>
</g>
</g>
<!-- Node4&#45;&gt;Node3 -->
<g id="edge3" class="edge">
<title>Node4&#45;&gt;Node3</title>
<path fill="none" stroke="#191970" d="M99,-537.3962C99,-522.6331 99,-504.8138 99,-494.0839"/>
<polygon fill="#191970" stroke="#191970" points="95.5001,-537.4608 99,-547.4608 102.5001,-537.4609 95.5001,-537.4608"/>
</g>
<!-- Node5 -->
<g id="node5" class="node">
<title>Node5</title>
<g id="a_node5"><a xlink:href="classamr__wind_1_1_field_repo.html" target="_top" xlink:title="Field RepositoryFieldRepo is a database that manages handling of fields used during a simulation...">
<polygon fill="#ffffff" stroke="#000000" points="127.5,-313.5 127.5,-332.5 236.5,-332.5 236.5,-313.5 127.5,-313.5"/>
<text text-anchor="middle" x="182" y="-320.5" font-family="Helvetica,sans-Serif" font-size="10.00" fill="#000000">amr_wind::FieldRepo</text>
</a>
</g>
</g>
<!-- Node5&#45;&gt;Node2 -->
<g id="edge4" class="edge">
<title>Node5&#45;&gt;Node2</title>
<path fill="none" stroke="#9a32cd" stroke-dasharray="5,2" d="M152.4386,-308.4231C145.7334,-304.5008 138.8663,-299.9553 133,-295 122.83,-286.4094 113.4556,-274.2711 107.5174,-265.8265"/>
<polygon fill="#9a32cd" stroke="#9a32cd" points="150.928,-311.5872 161.3726,-313.3652 154.3164,-305.462 150.928,-311.5872"/>
<text text-anchor="middle" x="151" y="-287" font-family="Helvetica,sans-Serif" font-size="10.00" fill="#000000"> m_repo</text>
</g>
<!-- Node5&#45;&gt;Node10 -->
<g id="edge12" class="edge">
<title>Node5&#45;&gt;Node10</title>
<path fill="none" stroke="#9a32cd" stroke-dasharray="5,2" d="M182.1044,-303.1594C182.3164,-262.886 182.7904,-172.8318 182.9479,-142.8917"/>
<polygon fill="#9a32cd" stroke="#9a32cd" points="178.6037,-303.2983 182.051,-313.3167 185.6036,-303.3353 178.6037,-303.2983"/>
<text text-anchor="middle" x="194" y="-253.5" font-family="Helvetica,sans-Serif" font-size="10.00" fill="#000000"> repo</text>
</g>
<!-- Node6&#45;&gt;Node5 -->
<g id="edge5" class="edge">
<title>Node6&#45;&gt;Node5</title>
<path fill="none" stroke="#9a32cd" stroke-dasharray="5,2" d="M182,-381.1022C182,-364.6775 182,-344.2426 182,-332.5023"/>
<polygon fill="#9a32cd" stroke="#9a32cd" points="178.5001,-381.1848 182,-391.1848 185.5001,-381.1848 178.5001,-381.1848"/>
<text text-anchor="middle" x="214" y="-365" font-family="Helvetica,sans-Serif" font-size="10.00" fill="#000000"> m_fid_map</text>
<text text-anchor="middle" x="214" y="-354" font-family="Helvetica,sans-Serif" font-size="10.00" fill="#000000">m_int_fid_map</text>
</g>
<!-- Node7 -->
<g id="node7" class="node">
<title>Node7</title>
<g id="a_node7"><a xlink:title="STL class. ">
<polygon fill="#ffffff" stroke="#bfbfbf" points="147.5,-469.5 147.5,-499.5 250.5,-499.5 250.5,-469.5 147.5,-469.5"/>
<text text-anchor="start" x="155.5" y="-487.5" font-family="Helvetica,sans-Serif" font-size="10.00" fill="#000000">std::unordered_map</text>
<text text-anchor="middle" x="199" y="-476.5" font-family="Helvetica,sans-Serif" font-size="10.00" fill="#000000">&lt; K, T &gt;</text>
</a>
</g>
</g>
<!-- Node7&#45;&gt;Node6 -->
<g id="edge7" class="edge">
<title>Node7&#45;&gt;Node6</title>
<path fill="none" stroke="#ffa500" stroke-dasharray="5,2" d="M193.5865,-459.6616C190.8731,-447.2119 187.6741,-432.5342 185.3257,-421.7592"/>
<polygon fill="#ffa500" stroke="#ffa500" points="190.1729,-460.4355 195.7222,-469.4608 197.0124,-458.9448 190.1729,-460.4355"/>
<text text-anchor="middle" x="240.5" y="-443" font-family="Helvetica,sans-Serif" font-size="10.00" fill="#000000"> &lt; std::string, size_t &gt;</text>
</g>
<!-- Node8 -->
<g id="node8" class="node">
<title>Node8</title>
<polygon fill="#ffffff" stroke="#bfbfbf" points="174.5,-553 174.5,-572 203.5,-572 203.5,-553 174.5,-553"/>
<text text-anchor="middle" x="189" y="-560" font-family="Helvetica,sans-Serif" font-size="10.00" fill="#000000">K</text>
</g>
<!-- Node8&#45;&gt;Node7 -->
<g id="edge8" class="edge">
<title>Node8&#45;&gt;Node7</title>
<path fill="none" stroke="#9a32cd" stroke-dasharray="5,2" d="M188.4311,-542.6592C188.4741,-534.9293 188.85,-526.0175 190,-518 190.8721,-511.9196 192.4781,-505.3663 194.0946,-499.6822"/>
<polygon fill="#9a32cd" stroke="#9a32cd" points="184.9341,-542.94 188.555,-552.8968 191.9336,-542.8552 184.9341,-542.94"/>
<text text-anchor="middle" x="202.5" y="-521" font-family="Helvetica,sans-Serif" font-size="10.00" fill="#000000"> keys</text>
</g>
<!-- Node9 -->
<g id="node9" class="node">
<title>Node9</title>
<polygon fill="#ffffff" stroke="#bfbfbf" points="222.5,-553 222.5,-572 251.5,-572 251.5,-553 222.5,-553"/>
<text text-anchor="middle" x="237" y="-560" font-family="Helvetica,sans-Serif" font-size="10.00" fill="#000000">T</text>
</g>
<!-- Node9&#45;&gt;Node7 -->
<g id="edge9" class="edge">
<title>Node9&#45;&gt;Node7</title>
<path fill="none" stroke="#9a32cd" stroke-dasharray="5,2" d="M227.8271,-543.6714C221.2739,-530.2202 212.5688,-512.3517 206.4453,-499.7824"/>
<polygon fill="#9a32cd" stroke="#9a32cd" points="224.8142,-545.4787 232.3405,-552.9357 231.1072,-542.4128 224.8142,-545.4787"/>
<text text-anchor="middle" x="242.5" y="-521" font-family="Helvetica,sans-Serif" font-size="10.00" fill="#000000"> elements</text>
</g>
<!-- Node10&#45;&gt;Node1 -->
<g id="edge10" class="edge">
<title>Node10&#45;&gt;Node1</title>
<path fill="none" stroke="#9a32cd" stroke-dasharray="5,2" d="M165.6231,-116.1243C150.9229,-101.8482 129.4568,-81.0013 111.5719,-63.6323"/>
<polygon fill="#9a32cd" stroke="#9a32cd" points="163.4158,-118.8597 173.028,-123.3157 168.2926,-113.838 163.4158,-118.8597"/>
<text text-anchor="middle" x="154.5" y="-85" font-family="Helvetica,sans-Serif" font-size="10.00" fill="#000000"> fields</text>
</g>
</g>
</svg>
        <g id="navigator" transform="translate(0 0)" fill="#404254">
                <rect fill="#f2f5e9" fill-opacity="0.5" stroke="#606060" stroke-width=".5" x="0" y="0" width="60" height="60"/>
                <use id="zoomplus" xlink:href="#zoomPlus" x="17" y="9" onmousedown="handleZoom(evt,'in')"/>
                <use id="zoomminus" xlink:href="#zoomMin" x="42" y="9" onmousedown="handleZoom(evt,'out')"/>
                <use id="reset" xlink:href="#resetDef" x="30" y="36" onmousedown="handleReset()"/>
                <g id="arrowUp" xlink:href="#dirArrow" transform="translate(30 24)" onmousedown="handlePan(0,-1)">
                  <use xlink:href="#rim" fill="#404040">
                        <set attributeName="fill" to="#808080" begin="arrowUp.mouseover" end="arrowUp.mouseout"/>
                  </use>
                  <path fill="none" stroke="white" stroke-width="1.5" d="M0,-3.0v7 M-2.5,-0.5L0,-3.0L2.5,-0.5"/>
                </g>
                <g id="arrowRight" xlink:href="#dirArrow" transform="rotate(90) translate(36 -43)" onmousedown="handlePan(1,0)">
                  <use xlink:href="#rim" fill="#404040">
                        <set attributeName="fill" to="#808080" begin="arrowRight.mouseover" end="arrowRight.mouseout"/>
                  </use>
                  <path fill="none" stroke="white" stroke-width="1.5" d="M0,-3.0v7 M-2.5,-0.5L0,-3.0L2.5,-0.5"/>
                </g>
                <g id="arrowDown" xlink:href="#dirArrow" transform="rotate(180) translate(-30 -48)" onmousedown="handlePan(0,1)">
                  <use xlink:href="#rim" fill="#404040">
                        <set attributeName="fill" to="#808080" begin="arrowDown.mouseover" end="arrowDown.mouseout"/>
                  </use>
                  <path fill="none" stroke="white" stroke-width="1.5" d="M0,-3.0v7 M-2.5,-0.5L0,-3.0L2.5,-0.5"/>
                </g>
                <g id="arrowLeft" xlink:href="#dirArrow" transform="rotate(270) translate(-36 17)" onmousedown="handlePan(-1,0)">
                  <use xlink:href="#rim" fill="#404040">
                        <set attributeName="fill" to="#808080" begin="arrowLeft.mouseover" end="arrowLeft.mouseout"/>
                  </use>
                  <path fill="none" stroke="white" stroke-width="1.5" d="M0,-3.0v7 M-2.5,-0.5L0,-3.0L2.5,-0.5"/>
                </g>
        </g>
        <svg viewBox="0 0 15 15" width="100%" height="30px" preserveAspectRatio="xMaxYMin meet">
         <g id="arrow_out" transform="scale(0.3 0.3)">
          <a xlink:href="structamr__wind_1_1pde_1_1_advection_op_3_01_p_d_e_00_01fvm_1_1_m_o_l_00_01typename_01std_1_1ena277f0b7e98ca4fce1e4ee06e56fde370_org.svg" target="_base">
           <rect id="button" ry="5" rx="5" y="6" x="6" height="38" width="38"
                fill="#f2f5e9" fill-opacity="0.5" stroke="#606060" stroke-width="1.0"/>
           <path id="arrow"
             d="M 11.500037,31.436501 C 11.940474,20.09759 22.043105,11.32322 32.158766,21.979434 L 37.068811,17.246167 C 37.068811,17.246167 37.088388,32 37.088388,32 L 22.160133,31.978069 C 22.160133,31.978069 26.997745,27.140456 26.997745,27.140456 C 18.528582,18.264221 13.291696,25.230495 11.500037,31.436501 z"
             style="fill:#404040;"/>
          </a>
         </g>
        </svg>
</svg>
