<?xml version="1.0" encoding="UTF-8" standalone="no"?>
<!DOCTYPE svg PUBLIC "-//W3C//DTD SVG 1.1//EN"
 "http://www.w3.org/Graphics/SVG/1.1/DTD/svg11.dtd">
<!-- Generated by graphviz version 2.40.1 (20161225.0304)
 -->
<!-- Title: amr_wind::pde::ComputeRHSOp&lt; PDE, Scheme &gt; Pages: 1 -->
<svg width="299pt" height="529pt"
 viewBox="0.00 0.00 298.50 529.00" xmlns="http://www.w3.org/2000/svg" xmlns:xlink="http://www.w3.org/1999/xlink">
<g id="graph0" class="graph" transform="scale(1 1) rotate(0) translate(4 525)">
<title>amr_wind::pde::ComputeRHSOp&lt; PDE, Scheme &gt;</title>
<polygon fill="#ffffff" stroke="transparent" points="-4,4 -4,-525 294.5,-525 294.5,4 -4,4"/>
<!-- Node1 -->
<g id="node1" class="node">
<title>Node1</title>
<polygon fill="#bfbfbf" stroke="#000000" points="0,-.5 0,-30.5 161,-30.5 161,-.5 0,-.5"/>
<text text-anchor="start" x="8" y="-18.5" font-family="Helvetica,sans-Serif" font-size="10.00" fill="#000000">amr_wind::pde::ComputeRHSOp</text>
<text text-anchor="middle" x="80.5" y="-7.5" font-family="Helvetica,sans-Serif" font-size="10.00" fill="#000000">&lt; PDE, Scheme &gt;</text>
</g>
<!-- Node2 -->
<g id="node2" class="node">
<title>Node2</title>
<g id="a_node2"><a xlink:href="classamr__wind_1_1_field.html" target="_top" xlink:title="Computational fieldThis is an abstraction of a collection of MultiFabs over multiple levels...">
<polygon fill="#ffffff" stroke="#000000" points="59.5,-189.5 59.5,-208.5 145.5,-208.5 145.5,-189.5 59.5,-189.5"/>
<text text-anchor="middle" x="102.5" y="-196.5" font-family="Helvetica,sans-Serif" font-size="10.00" fill="#000000">amr_wind::Field</text>
</a>
</g>
</g>
<!-- Node2&#45;&gt;Node1 -->
<g id="edge1" class="edge">
<title>Node2&#45;&gt;Node1</title>
<path fill="none" stroke="#9a32cd" stroke-dasharray="5,2" d="M95.2943,-179.949C88.1248,-159.8982 77.6158,-127.248 73.5,-98 72.2613,-89.1978 73.0045,-86.8751 73.5,-78 74.4068,-61.7567 76.6293,-43.2491 78.3288,-30.6155"/>
<polygon fill="#9a32cd" stroke="#9a32cd" points="92.0486,-181.2641 98.7797,-189.446 98.62,-178.8523 92.0486,-181.2641"/>
<text text-anchor="middle" x="91" y="-85.5" font-family="Helvetica,sans-Serif" font-size="10.00" fill="#000000"> density</text>
</g>
<!-- Node10 -->
<g id="node10" class="node">
<title>Node10</title>
<g id="a_node10"><a xlink:href="structamr__wind_1_1pde_1_1_p_d_e_fields.html" target="_top" xlink:title="Collection of fields related to a PDEEvery PDE requires a common set of fields, e.g., the transported variable (scalar or vector), advection, diffusion, source, and effective viscosity fields. ">
<polygon fill="#ffffff" stroke="#000000" points="117.5,-78.5 117.5,-97.5 251.5,-97.5 251.5,-78.5 117.5,-78.5"/>
<text text-anchor="middle" x="184.5" y="-85.5" font-family="Helvetica,sans-Serif" font-size="10.00" fill="#000000">amr_wind::pde::PDEFields</text>
</a>
</g>
</g>
<!-- Node2&#45;&gt;Node10 -->
<g id="edge11" class="edge">
<title>Node2&#45;&gt;Node10</title>
<path fill="none" stroke="#9a32cd" stroke-dasharray="5,2" d="M103.1023,-179.2464C104.6407,-160.9343 109.5291,-133.896 124.5,-116 131.3594,-107.8004 141.1534,-101.863 150.8446,-97.6264"/>
<polygon fill="#9a32cd" stroke="#9a32cd" points="99.6007,-179.1754 102.5171,-189.3609 106.589,-179.5798 99.6007,-179.1754"/>
<text text-anchor="middle" x="147.5" y="-163" font-family="Helvetica,sans-Serif" font-size="10.00" fill="#000000"> src_term</text>
<text text-anchor="middle" x="147.5" y="-152" font-family="Helvetica,sans-Serif" font-size="10.00" fill="#000000">field</text>
<text text-anchor="middle" x="147.5" y="-141" font-family="Helvetica,sans-Serif" font-size="10.00" fill="#000000">diff_term</text>
<text text-anchor="middle" x="147.5" y="-130" font-family="Helvetica,sans-Serif" font-size="10.00" fill="#000000">mueff</text>
<text text-anchor="middle" x="147.5" y="-119" font-family="Helvetica,sans-Serif" font-size="10.00" fill="#000000">conv_term</text>
</g>
<!-- Node3 -->
<g id="node3" class="node">
<title>Node3</title>
<g id="a_node3"><a xlink:title="STL class. ">
<polygon fill="#ffffff" stroke="#bfbfbf" points="70.5,-418 70.5,-437 130.5,-437 130.5,-418 70.5,-418"/>
<text text-anchor="middle" x="100.5" y="-425" font-family="Helvetica,sans-Serif" font-size="10.00" fill="#000000">std::string</text>
</a>
</g>
</g>
<!-- Node3&#45;&gt;Node2 -->
<g id="edge2" class="edge">
<title>Node3&#45;&gt;Node2</title>
<path fill="none" stroke="#9a32cd" stroke-dasharray="5,2" d="M100.6719,-407.8634C101.0837,-360.8087 102.1152,-242.9671 102.4163,-208.5681"/>
<polygon fill="#9a32cd" stroke="#9a32cd" points="97.1711,-407.9423 100.5834,-417.9726 104.1709,-408.0036 97.1711,-407.9423"/>
<text text-anchor="middle" x="123" y="-302.5" font-family="Helvetica,sans-Serif" font-size="10.00" fill="#000000"> m_name</text>
</g>
<!-- Node6 -->
<g id="node6" class="node">
<title>Node6</title>
<polygon fill="#ffffff" stroke="#bfbfbf" points="128.5,-334.5 128.5,-364.5 238.5,-364.5 238.5,-334.5 128.5,-334.5"/>
<text text-anchor="start" x="136.5" y="-352.5" font-family="Helvetica,sans-Serif" font-size="10.00" fill="#000000">std::unordered_map</text>
<text text-anchor="middle" x="183.5" y="-341.5" font-family="Helvetica,sans-Serif" font-size="10.00" fill="#000000">&lt; std::string, size_t &gt;</text>
</g>
<!-- Node3&#45;&gt;Node6 -->
<g id="edge6" class="edge">
<title>Node3&#45;&gt;Node6</title>
<path fill="none" stroke="#9a32cd" stroke-dasharray="5,2" d="M118.0605,-410.9973C132.5926,-397.3407 153.0762,-378.0911 167.238,-364.7824"/>
<polygon fill="#9a32cd" stroke="#9a32cd" points="115.5677,-408.537 110.6774,-417.9357 120.3615,-413.638 115.5677,-408.537"/>
<text text-anchor="middle" x="160" y="-386" font-family="Helvetica,sans-Serif" font-size="10.00" fill="#000000"> keys</text>
</g>
<!-- Node4 -->
<g id="node4" class="node">
<title>Node4</title>
<g id="a_node4"><a xlink:title="STL class. ">
<polygon fill="#ffffff" stroke="#bfbfbf" points="53,-490.5 53,-520.5 148,-520.5 148,-490.5 53,-490.5"/>
<text text-anchor="start" x="61" y="-508.5" font-family="Helvetica,sans-Serif" font-size="10.00" fill="#000000">std::basic_string&lt;</text>
<text text-anchor="middle" x="100.5" y="-497.5" font-family="Helvetica,sans-Serif" font-size="10.00" fill="#000000"> char &gt;</text>
</a>
</g>
</g>
<!-- Node4&#45;&gt;Node3 -->
<g id="edge3" class="edge">
<title>Node4&#45;&gt;Node3</title>
<path fill="none" stroke="#191970" d="M100.5,-480.3962C100.5,-465.6331 100.5,-447.8138 100.5,-437.0839"/>
<polygon fill="#191970" stroke="#191970" points="97.0001,-480.4608 100.5,-490.4608 104.0001,-480.4609 97.0001,-480.4608"/>
</g>
<!-- Node5 -->
<g id="node5" class="node">
<title>Node5</title>
<g id="a_node5"><a xlink:href="classamr__wind_1_1_field_repo.html" target="_top" xlink:title="Field RepositoryFieldRepo is a database that manages handling of fields used during a simulation...">
<polygon fill="#ffffff" stroke="#000000" points="129,-256.5 129,-275.5 238,-275.5 238,-256.5 129,-256.5"/>
<text text-anchor="middle" x="183.5" y="-263.5" font-family="Helvetica,sans-Serif" font-size="10.00" fill="#000000">amr_wind::FieldRepo</text>
</a>
</g>
</g>
<!-- Node5&#45;&gt;Node2 -->
<g id="edge4" class="edge">
<title>Node5&#45;&gt;Node2</title>
<path fill="none" stroke="#9a32cd" stroke-dasharray="5,2" d="M153.9386,-251.4231C147.2334,-247.5008 140.3663,-242.9553 134.5,-238 124.33,-229.4094 114.9556,-217.2711 109.0174,-208.8265"/>
<polygon fill="#9a32cd" stroke="#9a32cd" points="152.428,-254.5872 162.8726,-256.3652 155.8164,-248.462 152.428,-254.5872"/>
<text text-anchor="middle" x="152.5" y="-230" font-family="Helvetica,sans-Serif" font-size="10.00" fill="#000000"> m_repo</text>
</g>
<!-- Node5&#45;&gt;Node10 -->
<g id="edge12" class="edge">
<title>Node5&#45;&gt;Node10</title>
<path fill="none" stroke="#9a32cd" stroke-dasharray="5,2" d="M183.6118,-246.1053C183.8262,-207.9283 184.2883,-125.6875 184.446,-97.6174"/>
<polygon fill="#9a32cd" stroke="#9a32cd" points="180.1101,-246.4104 183.5538,-256.4299 187.11,-246.4498 180.1101,-246.4104"/>
<text text-anchor="middle" x="195.5" y="-196.5" font-family="Helvetica,sans-Serif" font-size="10.00" fill="#000000"> repo</text>
</g>
<!-- Node6&#45;&gt;Node5 -->
<g id="edge5" class="edge">
<title>Node6&#45;&gt;Node5</title>
<path fill="none" stroke="#9a32cd" stroke-dasharray="5,2" d="M183.5,-324.1022C183.5,-307.6775 183.5,-287.2426 183.5,-275.5023"/>
<polygon fill="#9a32cd" stroke="#9a32cd" points="180.0001,-324.1848 183.5,-334.1848 187.0001,-324.1848 180.0001,-324.1848"/>
<text text-anchor="middle" x="215.5" y="-308" font-family="Helvetica,sans-Serif" font-size="10.00" fill="#000000"> m_fid_map</text>
<text text-anchor="middle" x="215.5" y="-297" font-family="Helvetica,sans-Serif" font-size="10.00" fill="#000000">m_int_fid_map</text>
</g>
<!-- Node7 -->
<g id="node7" class="node">
<title>Node7</title>
<g id="a_node7"><a xlink:title="STL class. ">
<polygon fill="#ffffff" stroke="#bfbfbf" points="149,-412.5 149,-442.5 252,-442.5 252,-412.5 149,-412.5"/>
<text text-anchor="start" x="157" y="-430.5" font-family="Helvetica,sans-Serif" font-size="10.00" fill="#000000">std::unordered_map</text>
<text text-anchor="middle" x="200.5" y="-419.5" font-family="Helvetica,sans-Serif" font-size="10.00" fill="#000000">&lt; K, T &gt;</text>
</a>
</g>
</g>
<!-- Node7&#45;&gt;Node6 -->
<g id="edge7" class="edge">
<title>Node7&#45;&gt;Node6</title>
<path fill="none" stroke="#ffa500" stroke-dasharray="5,2" d="M195.0865,-402.6616C192.3731,-390.2119 189.1741,-375.5342 186.8257,-364.7592"/>
<polygon fill="#ffa500" stroke="#ffa500" points="191.6729,-403.4355 197.2222,-412.4608 198.5124,-401.9448 191.6729,-403.4355"/>
<text text-anchor="middle" x="242" y="-386" font-family="Helvetica,sans-Serif" font-size="10.00" fill="#000000"> &lt; std::string, size_t &gt;</text>
</g>
<!-- Node8 -->
<g id="node8" class="node">
<title>Node8</title>
<polygon fill="#ffffff" stroke="#bfbfbf" points="176,-496 176,-515 205,-515 205,-496 176,-496"/>
<text text-anchor="middle" x="190.5" y="-503" font-family="Helvetica,sans-Serif" font-size="10.00" fill="#000000">K</text>
</g>
<!-- Node8&#45;&gt;Node7 -->
<g id="edge8" class="edge">
<title>Node8&#45;&gt;Node7</title>
<path fill="none" stroke="#9a32cd" stroke-dasharray="5,2" d="M189.9311,-485.6592C189.9741,-477.9293 190.35,-469.0175 191.5,-461 192.3721,-454.9196 193.9781,-448.3663 195.5946,-442.6822"/>
<polygon fill="#9a32cd" stroke="#9a32cd" points="186.4341,-485.94 190.055,-495.8968 193.4336,-485.8552 186.4341,-485.94"/>
<text text-anchor="middle" x="204" y="-464" font-family="Helvetica,sans-Serif" font-size="10.00" fill="#000000"> keys</text>
</g>
<!-- Node9 -->
<g id="node9" class="node">
<title>Node9</title>
<polygon fill="#ffffff" stroke="#bfbfbf" points="224,-496 224,-515 253,-515 253,-496 224,-496"/>
<text text-anchor="middle" x="238.5" y="-503" font-family="Helvetica,sans-Serif" font-size="10.00" fill="#000000">T</text>
</g>
<!-- Node9&#45;&gt;Node7 -->
<g id="edge9" class="edge">
<title>Node9&#45;&gt;Node7</title>
<path fill="none" stroke="#9a32cd" stroke-dasharray="5,2" d="M229.3271,-486.6714C222.7739,-473.2202 214.0688,-455.3517 207.9453,-442.7824"/>
<polygon fill="#9a32cd" stroke="#9a32cd" points="226.3142,-488.4787 233.8405,-495.9357 232.6072,-485.4128 226.3142,-488.4787"/>
<text text-anchor="middle" x="244" y="-464" font-family="Helvetica,sans-Serif" font-size="10.00" fill="#000000"> elements</text>
</g>
<!-- Node10&#45;&gt;Node1 -->
<g id="edge10" class="edge">
<title>Node10&#45;&gt;Node1</title>
<path fill="none" stroke="#9a32cd" stroke-dasharray="5,2" d="M161.909,-72.2515C144.2103,-59.9134 119.7398,-42.8547 102.2583,-30.668"/>
<polygon fill="#9a32cd" stroke="#9a32cd" points="160.2691,-75.3748 170.4741,-78.2223 164.2722,-69.6324 160.2691,-75.3748"/>
<text text-anchor="middle" x="156" y="-52" font-family="Helvetica,sans-Serif" font-size="10.00" fill="#000000"> fields</text>
</g>
</g>
</svg>
