<?xml version="1.0" encoding="UTF-8" standalone="no"?>
<!DOCTYPE svg PUBLIC "-//W3C//DTD SVG 1.1//EN"
 "http://www.w3.org/Graphics/SVG/1.1/DTD/svg11.dtd">
<!-- Generated by graphviz version 2.40.1 (20161225.0304)
 -->
<!-- Title: amr_wind::pde::BCOp&lt; ICNS &gt; Pages: 1 -->
<svg width="294pt" height="529pt"
 viewBox="0.00 0.00 294.00 529.00" xmlns="http://www.w3.org/2000/svg" xmlns:xlink="http://www.w3.org/1999/xlink">
<g id="graph0" class="graph" transform="scale(1 1) rotate(0) translate(4 525)">
<title>amr_wind::pde::BCOp&lt; ICNS &gt;</title>
<polygon fill="#ffffff" stroke="transparent" points="-4,4 -4,-525 290,-525 290,4 -4,4"/>
<!-- Node1 -->
<g id="node1" class="node">
<title>Node1</title>
<polygon fill="#bfbfbf" stroke="#000000" points="24.5,-.5 24.5,-30.5 137.5,-30.5 137.5,-.5 24.5,-.5"/>
<text text-anchor="start" x="32.5" y="-18.5" font-family="Helvetica,sans-Serif" font-size="10.00" fill="#000000">amr_wind::pde::BCOp</text>
<text text-anchor="middle" x="81" y="-7.5" font-family="Helvetica,sans-Serif" font-size="10.00" fill="#000000">&lt; ICNS &gt;</text>
</g>
<!-- Node2 -->
<g id="node2" class="node">
<title>Node2</title>
<g id="a_node2"><a xlink:href="classamr__wind_1_1_sim_time.html" target="_top" xlink:title="Time manager for simulations. ">
<polygon fill="#ffffff" stroke="#000000" points="0,-78.5 0,-97.5 104,-97.5 104,-78.5 0,-78.5"/>
<text text-anchor="middle" x="52" y="-85.5" font-family="Helvetica,sans-Serif" font-size="10.00" fill="#000000">amr_wind::SimTime</text>
</a>
</g>
</g>
<!-- Node2&#45;&gt;Node1 -->
<g id="edge1" class="edge">
<title>Node2&#45;&gt;Node1</title>
<path fill="none" stroke="#9a32cd" stroke-dasharray="5,2" d="M59.7025,-68.7439C64.4702,-56.8244 70.5053,-41.7366 74.9328,-30.668"/>
<polygon fill="#9a32cd" stroke="#9a32cd" points="56.3754,-67.6377 55.9111,-78.2223 62.8747,-70.2374 56.3754,-67.6377"/>
<text text-anchor="middle" x="86" y="-52" font-family="Helvetica,sans-Serif" font-size="10.00" fill="#000000"> m_time</text>
</g>
<!-- Node3 -->
<g id="node3" class="node">
<title>Node3</title>
<g id="a_node3"><a xlink:href="structamr__wind_1_1pde_1_1_p_d_e_fields.html" target="_top" xlink:title="Collection of fields related to a PDEEvery PDE requires a common set of fields, e.g., the transported variable (scalar or vector), advection, diffusion, source, and effective viscosity fields. ">
<polygon fill="#ffffff" stroke="#000000" points="122,-78.5 122,-97.5 256,-97.5 256,-78.5 122,-78.5"/>
<text text-anchor="middle" x="189" y="-85.5" font-family="Helvetica,sans-Serif" font-size="10.00" fill="#000000">amr_wind::pde::PDEFields</text>
</a>
</g>
</g>
<!-- Node3&#45;&gt;Node1 -->
<g id="edge2" class="edge">
<title>Node3&#45;&gt;Node1</title>
<path fill="none" stroke="#9a32cd" stroke-dasharray="5,2" d="M166.0442,-72.5898C147.6276,-60.2268 121.9156,-42.9665 103.5951,-30.668"/>
<polygon fill="#9a32cd" stroke="#9a32cd" points="164.1811,-75.5547 174.4346,-78.2223 168.0827,-69.7427 164.1811,-75.5547"/>
<text text-anchor="middle" x="165" y="-52" font-family="Helvetica,sans-Serif" font-size="10.00" fill="#000000"> m_fields</text>
</g>
<!-- Node4 -->
<g id="node4" class="node">
<title>Node4</title>
<g id="a_node4"><a xlink:href="classamr__wind_1_1_field.html" target="_top" xlink:title="Computational fieldThis is an abstraction of a collection of MultiFabs over multiple levels...">
<polygon fill="#ffffff" stroke="#000000" points="200,-189.5 200,-208.5 286,-208.5 286,-189.5 200,-189.5"/>
<text text-anchor="middle" x="243" y="-196.5" font-family="Helvetica,sans-Serif" font-size="10.00" fill="#000000">amr_wind::Field</text>
</a>
</g>
</g>
<!-- Node4&#45;&gt;Node3 -->
<g id="edge3" class="edge">
<title>Node4&#45;&gt;Node3</title>
<path fill="none" stroke="#9a32cd" stroke-dasharray="5,2" d="M233.7642,-180.0153C222.1419,-156.125 202.6243,-116.0054 193.7043,-97.6699"/>
<polygon fill="#9a32cd" stroke="#9a32cd" points="230.6858,-181.6883 238.2079,-189.1495 236.9805,-178.626 230.6858,-181.6883"/>
<text text-anchor="middle" x="251" y="-163" font-family="Helvetica,sans-Serif" font-size="10.00" fill="#000000"> src_term</text>
<text text-anchor="middle" x="251" y="-152" font-family="Helvetica,sans-Serif" font-size="10.00" fill="#000000">field</text>
<text text-anchor="middle" x="251" y="-141" font-family="Helvetica,sans-Serif" font-size="10.00" fill="#000000">diff_term</text>
<text text-anchor="middle" x="251" y="-130" font-family="Helvetica,sans-Serif" font-size="10.00" fill="#000000">mueff</text>
<text text-anchor="middle" x="251" y="-119" font-family="Helvetica,sans-Serif" font-size="10.00" fill="#000000">conv_term</text>
</g>
<!-- Node5 -->
<g id="node5" class="node">
<title>Node5</title>
<g id="a_node5"><a xlink:title="STL class. ">
<polygon fill="#ffffff" stroke="#bfbfbf" points="190,-418 190,-437 250,-437 250,-418 190,-418"/>
<text text-anchor="middle" x="220" y="-425" font-family="Helvetica,sans-Serif" font-size="10.00" fill="#000000">std::string</text>
</a>
</g>
</g>
<!-- Node5&#45;&gt;Node4 -->
<g id="edge4" class="edge">
<title>Node5&#45;&gt;Node4</title>
<path fill="none" stroke="#9a32cd" stroke-dasharray="5,2" d="M221.9766,-407.8634C226.7129,-360.8087 238.5744,-242.9671 242.0369,-208.5681"/>
<polygon fill="#9a32cd" stroke="#9a32cd" points="218.4782,-407.6723 220.959,-417.9726 225.443,-408.3734 218.4782,-407.6723"/>
<text text-anchor="middle" x="253.5" y="-302.5" font-family="Helvetica,sans-Serif" font-size="10.00" fill="#000000"> m_name</text>
</g>
<!-- Node8 -->
<g id="node8" class="node">
<title>Node8</title>
<polygon fill="#ffffff" stroke="#bfbfbf" points="104,-334.5 104,-364.5 214,-364.5 214,-334.5 104,-334.5"/>
<text text-anchor="start" x="112" y="-352.5" font-family="Helvetica,sans-Serif" font-size="10.00" fill="#000000">std::unordered_map</text>
<text text-anchor="middle" x="159" y="-341.5" font-family="Helvetica,sans-Serif" font-size="10.00" fill="#000000">&lt; std::string, size_t &gt;</text>
</g>
<!-- Node5&#45;&gt;Node8 -->
<g id="edge8" class="edge">
<title>Node5&#45;&gt;Node8</title>
<path fill="none" stroke="#9a32cd" stroke-dasharray="5,2" d="M206.1941,-409.8466C195.5811,-396.2759 181.0706,-377.7214 170.9516,-364.7824"/>
<polygon fill="#9a32cd" stroke="#9a32cd" points="203.6028,-412.2146 212.5202,-417.9357 209.1168,-407.9023 203.6028,-412.2146"/>
<text text-anchor="middle" x="206.5" y="-386" font-family="Helvetica,sans-Serif" font-size="10.00" fill="#000000"> keys</text>
</g>
<!-- Node6 -->
<g id="node6" class="node">
<title>Node6</title>
<g id="a_node6"><a xlink:title="STL class. ">
<polygon fill="#ffffff" stroke="#bfbfbf" points="172.5,-490.5 172.5,-520.5 267.5,-520.5 267.5,-490.5 172.5,-490.5"/>
<text text-anchor="start" x="180.5" y="-508.5" font-family="Helvetica,sans-Serif" font-size="10.00" fill="#000000">std::basic_string&lt;</text>
<text text-anchor="middle" x="220" y="-497.5" font-family="Helvetica,sans-Serif" font-size="10.00" fill="#000000"> char &gt;</text>
</a>
</g>
</g>
<!-- Node6&#45;&gt;Node5 -->
<g id="edge5" class="edge">
<title>Node6&#45;&gt;Node5</title>
<path fill="none" stroke="#191970" d="M220,-480.3962C220,-465.6331 220,-447.8138 220,-437.0839"/>
<polygon fill="#191970" stroke="#191970" points="216.5001,-480.4608 220,-490.4608 223.5001,-480.4609 216.5001,-480.4608"/>
</g>
<!-- Node7 -->
<g id="node7" class="node">
<title>Node7</title>
<g id="a_node7"><a xlink:href="classamr__wind_1_1_field_repo.html" target="_top" xlink:title="Field RepositoryFieldRepo is a database that manages handling of fields used during a simulation...">
<polygon fill="#ffffff" stroke="#000000" points="105.5,-256.5 105.5,-275.5 214.5,-275.5 214.5,-256.5 105.5,-256.5"/>
<text text-anchor="middle" x="160" y="-263.5" font-family="Helvetica,sans-Serif" font-size="10.00" fill="#000000">amr_wind::FieldRepo</text>
</a>
</g>
</g>
<!-- Node7&#45;&gt;Node3 -->
<g id="edge12" class="edge">
<title>Node7&#45;&gt;Node3</title>
<path fill="none" stroke="#9a32cd" stroke-dasharray="5,2" d="M161.8521,-246.4647C163.4348,-230.8653 165.939,-208.4721 169,-189 174.3019,-155.2726 182.8255,-115.6505 186.8121,-97.7043"/>
<polygon fill="#9a32cd" stroke="#9a32cd" points="158.3624,-246.1894 160.8677,-256.4837 165.3288,-246.8739 158.3624,-246.1894"/>
<text text-anchor="middle" x="180" y="-196.5" font-family="Helvetica,sans-Serif" font-size="10.00" fill="#000000"> repo</text>
</g>
<!-- Node7&#45;&gt;Node4 -->
<g id="edge6" class="edge">
<title>Node7&#45;&gt;Node4</title>
<path fill="none" stroke="#9a32cd" stroke-dasharray="5,2" d="M174.2184,-248.4964C180.4789,-241.3719 188.1807,-233.3404 196,-227 204.5578,-220.0608 215.0102,-213.6612 223.8832,-208.737"/>
<polygon fill="#9a32cd" stroke="#9a32cd" points="171.4094,-246.3974 167.6105,-256.2877 176.7479,-250.9251 171.4094,-246.3974"/>
<text text-anchor="middle" x="214" y="-230" font-family="Helvetica,sans-Serif" font-size="10.00" fill="#000000"> m_repo</text>
</g>
<!-- Node8&#45;&gt;Node7 -->
<g id="edge7" class="edge">
<title>Node8&#45;&gt;Node7</title>
<path fill="none" stroke="#9a32cd" stroke-dasharray="5,2" d="M159.3042,-324.1022C159.5009,-307.6775 159.7456,-287.2426 159.8862,-275.5023"/>
<polygon fill="#9a32cd" stroke="#9a32cd" points="155.8035,-324.1436 159.1834,-334.1848 162.803,-324.2275 155.8035,-324.1436"/>
<text text-anchor="middle" x="192" y="-308" font-family="Helvetica,sans-Serif" font-size="10.00" fill="#000000"> m_fid_map</text>
<text text-anchor="middle" x="192" y="-297" font-family="Helvetica,sans-Serif" font-size="10.00" fill="#000000">m_int_fid_map</text>
</g>
<!-- Node9 -->
<g id="node9" class="node">
<title>Node9</title>
<g id="a_node9"><a xlink:title="STL class. ">
<polygon fill="#ffffff" stroke="#bfbfbf" points="34.5,-412.5 34.5,-442.5 137.5,-442.5 137.5,-412.5 34.5,-412.5"/>
<text text-anchor="start" x="42.5" y="-430.5" font-family="Helvetica,sans-Serif" font-size="10.00" fill="#000000">std::unordered_map</text>
<text text-anchor="middle" x="86" y="-419.5" font-family="Helvetica,sans-Serif" font-size="10.00" fill="#000000">&lt; K, T &gt;</text>
</a>
</g>
</g>
<!-- Node9&#45;&gt;Node8 -->
<g id="edge9" class="edge">
<title>Node9&#45;&gt;Node8</title>
<path fill="none" stroke="#ffa500" stroke-dasharray="5,2" d="M80.5011,-402.225C80.3133,-395.5391 81.3716,-388.6254 85,-383 90.045,-375.1783 97.4072,-369.163 105.5565,-364.5426"/>
<polygon fill="#ffa500" stroke="#ffa500" points="77.041,-402.7776 81.6318,-412.3262 83.9976,-401.9988 77.041,-402.7776"/>
<text text-anchor="middle" x="133.5" y="-386" font-family="Helvetica,sans-Serif" font-size="10.00" fill="#000000"> &lt; std::string, size_t &gt;</text>
</g>
<!-- Node10 -->
<g id="node10" class="node">
<title>Node10</title>
<polygon fill="#ffffff" stroke="#bfbfbf" points="57.5,-496 57.5,-515 86.5,-515 86.5,-496 57.5,-496"/>
<text text-anchor="middle" x="72" y="-503" font-family="Helvetica,sans-Serif" font-size="10.00" fill="#000000">K</text>
</g>
<!-- Node10&#45;&gt;Node9 -->
<g id="edge10" class="edge">
<title>Node10&#45;&gt;Node9</title>
<path fill="none" stroke="#9a32cd" stroke-dasharray="5,2" d="M70.9813,-485.5823C70.9663,-477.8425 71.4201,-468.944 73,-461 74.2412,-454.7589 76.5571,-448.173 78.8943,-442.5078"/>
<polygon fill="#9a32cd" stroke="#9a32cd" points="67.4898,-485.9462 71.2621,-495.8467 74.4872,-485.7547 67.4898,-485.9462"/>
<text text-anchor="middle" x="85.5" y="-464" font-family="Helvetica,sans-Serif" font-size="10.00" fill="#000000"> keys</text>
</g>
<!-- Node11 -->
<g id="node11" class="node">
<title>Node11</title>
<polygon fill="#ffffff" stroke="#bfbfbf" points="105.5,-496 105.5,-515 134.5,-515 134.5,-496 105.5,-496"/>
<text text-anchor="middle" x="120" y="-503" font-family="Helvetica,sans-Serif" font-size="10.00" fill="#000000">T</text>
</g>
<!-- Node11&#45;&gt;Node9 -->
<g id="edge11" class="edge">
<title>Node11&#45;&gt;Node9</title>
<path fill="none" stroke="#9a32cd" stroke-dasharray="5,2" d="M111.7927,-486.6714C105.9293,-473.2202 98.1405,-455.3517 92.6615,-442.7824"/>
<polygon fill="#9a32cd" stroke="#9a32cd" points="108.6266,-488.1673 115.8309,-495.9357 115.0435,-485.3701 108.6266,-488.1673"/>
<text text-anchor="middle" x="127.5" y="-464" font-family="Helvetica,sans-Serif" font-size="10.00" fill="#000000"> elements</text>
</g>
</g>
</svg>
