<?xml version="1.0" encoding="UTF-8" standalone="no"?>
<!DOCTYPE svg PUBLIC "-//W3C//DTD SVG 1.1//EN"
 "http://www.w3.org/Graphics/SVG/1.1/DTD/svg11.dtd">
<!-- Generated by graphviz version 2.40.1 (20161225.0304)
 -->
<!-- Title: amr_wind::AMROversetInfo Pages: 1 -->
<svg width="295pt" height="316pt"
 viewBox="0.00 0.00 294.63 316.00" xmlns="http://www.w3.org/2000/svg" xmlns:xlink="http://www.w3.org/1999/xlink">
<g id="graph0" class="graph" transform="scale(1 1) rotate(0) translate(4 312)">
<title>amr_wind::AMROversetInfo</title>
<polygon fill="#ffffff" stroke="transparent" points="-4,4 -4,-312 290.6332,-312 290.6332,4 -4,4"/>
<!-- Node1 -->
<g id="node1" class="node">
<title>Node1</title>
<polygon fill="#bfbfbf" stroke="#000000" points="88.6332,-.5 88.6332,-19.5 226.6332,-19.5 226.6332,-.5 88.6332,-.5"/>
<text text-anchor="middle" x="157.6332" y="-7.5" font-family="Helvetica,sans-Serif" font-size="10.00" fill="#000000">amr_wind::AMROversetInfo</text>
</g>
<!-- Node2 -->
<g id="node2" class="node">
<title>Node2</title>
<polygon fill="#ffffff" stroke="#bfbfbf" points="2.1332,-67.5 2.1332,-97.5 121.1332,-97.5 121.1332,-67.5 2.1332,-67.5"/>
<text text-anchor="start" x="10.1332" y="-85.5" font-family="Helvetica,sans-Serif" font-size="10.00" fill="#000000">std::vector&lt; std::vector</text>
<text text-anchor="middle" x="61.6332" y="-74.5" font-family="Helvetica,sans-Serif" font-size="10.00" fill="#000000">&lt; int &gt; &gt;</text>
</g>
<!-- Node2&#45;&gt;Node1 -->
<g id="edge1" class="edge">
<title>Node2&#45;&gt;Node1</title>
<path fill="none" stroke="#9a32cd" stroke-dasharray="5,2" d="M80.6061,-59.4927C87.3951,-52.0877 95.4123,-44.202 103.6332,-38 113.2438,-30.7496 125.0034,-24.4041 135.0921,-19.5953"/>
<polygon fill="#9a32cd" stroke="#9a32cd" points="77.7639,-57.4237 73.7698,-67.2369 83.0117,-62.0563 77.7639,-57.4237"/>
<text text-anchor="middle" x="123.6332" y="-41" font-family="Helvetica,sans-Serif" font-size="10.00" fill="#000000"> gid_map</text>
</g>
<!-- Node3 -->
<g id="node3" class="node">
<title>Node3</title>
<polygon fill="#ffffff" stroke="#bfbfbf" points="111.6332,-154.5 111.6332,-173.5 203.6332,-173.5 203.6332,-154.5 111.6332,-154.5"/>
<text text-anchor="middle" x="157.6332" y="-161.5" font-family="Helvetica,sans-Serif" font-size="10.00" fill="#000000">std::vector&lt; int &gt;</text>
</g>
<!-- Node3&#45;&gt;Node1 -->
<g id="edge6" class="edge">
<title>Node3&#45;&gt;Node1</title>
<path fill="none" stroke="#9a32cd" stroke-dasharray="5,2" d="M157.6332,-144.0098C157.6332,-110.5317 157.6332,-44.3651 157.6332,-19.6297"/>
<polygon fill="#9a32cd" stroke="#9a32cd" points="154.1333,-144.3666 157.6332,-154.3666 161.1333,-144.3666 154.1333,-144.3666"/>
<text text-anchor="middle" x="176.6332" y="-80" font-family="Helvetica,sans-Serif" font-size="10.00" fill="#000000"> int_data</text>
</g>
<!-- Node3&#45;&gt;Node2 -->
<g id="edge2" class="edge">
<title>Node3&#45;&gt;Node2</title>
<path fill="none" stroke="#9a32cd" stroke-dasharray="5,2" d="M122.4697,-150.0519C114.8358,-146.1432 107.1147,-141.4454 100.6332,-136 87.7845,-125.2052 76.9064,-109.322 69.9302,-97.6654"/>
<polygon fill="#9a32cd" stroke="#9a32cd" points="121.116,-153.2838 131.6492,-154.4255 124.127,-146.9645 121.116,-153.2838"/>
<text text-anchor="middle" x="122.1332" y="-123.5" font-family="Helvetica,sans-Serif" font-size="10.00" fill="#000000"> elements</text>
</g>
<!-- Node4 -->
<g id="node4" class="node">
<title>Node4</title>
<g id="a_node4"><a xlink:title="STL class. ">
<polygon fill="#ffffff" stroke="#bfbfbf" points="114.1332,-221.5 114.1332,-240.5 201.1332,-240.5 201.1332,-221.5 114.1332,-221.5"/>
<text text-anchor="middle" x="157.6332" y="-228.5" font-family="Helvetica,sans-Serif" font-size="10.00" fill="#000000">std::vector&lt; T &gt;</text>
</a>
</g>
</g>
<!-- Node4&#45;&gt;Node2 -->
<g id="edge5" class="edge">
<title>Node4&#45;&gt;Node2</title>
<path fill="none" stroke="#ffa500" stroke-dasharray="5,2" d="M107.7989,-218.8671C68.2751,-208.1174 17.7313,-191.4576 5.6332,-174 -12.401,-147.9766 18.2113,-116.166 40.8142,-97.73"/>
<polygon fill="#ffa500" stroke="#ffa500" points="107.0161,-222.2805 117.5798,-221.4696 108.8161,-215.5159 107.0161,-222.2805"/>
<text text-anchor="middle" x="54.1332" y="-161.5" font-family="Helvetica,sans-Serif" font-size="10.00" fill="#000000"> &lt; std::vector&lt; int &gt; &gt;</text>
</g>
<!-- Node4&#45;&gt;Node3 -->
<g id="edge3" class="edge">
<title>Node4&#45;&gt;Node3</title>
<path fill="none" stroke="#ffa500" stroke-dasharray="5,2" d="M157.6332,-211.1079C157.6332,-198.714 157.6332,-183.3263 157.6332,-173.5817"/>
<polygon fill="#ffa500" stroke="#ffa500" points="154.1333,-211.4005 157.6332,-221.4005 161.1333,-211.4006 154.1333,-211.4005"/>
<text text-anchor="middle" x="173.6332" y="-195" font-family="Helvetica,sans-Serif" font-size="10.00" fill="#000000"> &lt; int &gt;</text>
</g>
<!-- Node6 -->
<g id="node6" class="node">
<title>Node6</title>
<polygon fill="#ffffff" stroke="#bfbfbf" points="176.6332,-116.5 176.6332,-135.5 286.6332,-135.5 286.6332,-116.5 176.6332,-116.5"/>
<text text-anchor="middle" x="231.6332" y="-123.5" font-family="Helvetica,sans-Serif" font-size="10.00" fill="#000000">std::vector&lt; double &gt;</text>
</g>
<!-- Node4&#45;&gt;Node6 -->
<g id="edge8" class="edge">
<title>Node4&#45;&gt;Node6</title>
<path fill="none" stroke="#ffa500" stroke-dasharray="5,2" d="M180.3727,-215.1599C185.0093,-211.4363 189.6747,-207.293 193.6332,-203 212.4292,-182.6155 223.9722,-151.2044 228.8794,-135.5507"/>
<polygon fill="#ffa500" stroke="#ffa500" points="178.066,-212.5167 172.2169,-221.3507 182.2983,-218.0923 178.066,-212.5167"/>
<text text-anchor="middle" x="227.6332" y="-195" font-family="Helvetica,sans-Serif" font-size="10.00" fill="#000000"> &lt; double &gt;</text>
</g>
<!-- Node5 -->
<g id="node5" class="node">
<title>Node5</title>
<polygon fill="#ffffff" stroke="#bfbfbf" points="143.1332,-288.5 143.1332,-307.5 172.1332,-307.5 172.1332,-288.5 143.1332,-288.5"/>
<text text-anchor="middle" x="157.6332" y="-295.5" font-family="Helvetica,sans-Serif" font-size="10.00" fill="#000000">T</text>
</g>
<!-- Node5&#45;&gt;Node4 -->
<g id="edge4" class="edge">
<title>Node5&#45;&gt;Node4</title>
<path fill="none" stroke="#9a32cd" stroke-dasharray="5,2" d="M157.6332,-278.1079C157.6332,-265.714 157.6332,-250.3263 157.6332,-240.5817"/>
<polygon fill="#9a32cd" stroke="#9a32cd" points="154.1333,-278.4005 157.6332,-288.4005 161.1333,-278.4006 154.1333,-278.4005"/>
<text text-anchor="middle" x="179.1332" y="-262" font-family="Helvetica,sans-Serif" font-size="10.00" fill="#000000"> elements</text>
</g>
<!-- Node6&#45;&gt;Node1 -->
<g id="edge7" class="edge">
<title>Node6&#45;&gt;Node1</title>
<path fill="none" stroke="#9a32cd" stroke-dasharray="5,2" d="M222.3003,-107.2371C216.2333,-95.4516 207.9324,-80.0627 199.6332,-67 188.6909,-49.7772 174.2796,-30.9233 165.4991,-19.7954"/>
<polygon fill="#9a32cd" stroke="#9a32cd" points="219.1795,-108.8217 226.8221,-116.1593 225.4234,-105.6572 219.1795,-108.8217"/>
<text text-anchor="middle" x="239.1332" y="-80" font-family="Helvetica,sans-Serif" font-size="10.00" fill="#000000"> real_data</text>
</g>
</g>
</svg>
