<?xml version="1.0" encoding="UTF-8" standalone="no"?>
<!DOCTYPE svg PUBLIC "-//W3C//DTD SVG 1.1//EN"
 "http://www.w3.org/Graphics/SVG/1.1/DTD/svg11.dtd">
<!-- Generated by graphviz version 2.40.1 (20161225.0304)
 -->
<!-- Title: amr_wind::pde::BCOp&lt; PDE, typename &gt; Pages: 1 -->
<svg width="121pt" height="117pt"
 viewBox="0.00 0.00 121.00 117.00" xmlns="http://www.w3.org/2000/svg" xmlns:xlink="http://www.w3.org/1999/xlink">
<g id="graph0" class="graph" transform="scale(1 1) rotate(0) translate(4 113)">
<title>amr_wind::pde::BCOp&lt; PDE, typename &gt;</title>
<polygon fill="#ffffff" stroke="transparent" points="-4,4 -4,-113 117,-113 117,4 -4,4"/>
<!-- Node0 -->
<g id="node1" class="node">
<title>Node0</title>
<polygon fill="#bfbfbf" stroke="#000000" points="0,-78.5 0,-108.5 113,-108.5 113,-78.5 0,-78.5"/>
<text text-anchor="start" x="8" y="-96.5" font-family="Helvetica,sans-Serif" font-size="10.00" fill="#000000">amr_wind::pde::BCOp</text>
<text text-anchor="middle" x="56.5" y="-85.5" font-family="Helvetica,sans-Serif" font-size="10.00" fill="#000000">&lt; PDE, typename &gt;</text>
</g>
<!-- Node1 -->
<g id="node2" class="node">
<title>Node1</title>
<g id="a_node2"><a xlink:href="structamr__wind_1_1pde_1_1_b_c_op.html" target="_top" xlink:title="amr_wind::pde::BCOp\l\&lt; PDE \&gt;">
<polygon fill="#ffffff" stroke="#000000" points="0,-.5 0,-30.5 113,-30.5 113,-.5 0,-.5"/>
<text text-anchor="start" x="8" y="-18.5" font-family="Helvetica,sans-Serif" font-size="10.00" fill="#000000">amr_wind::pde::BCOp</text>
<text text-anchor="middle" x="56.5" y="-7.5" font-family="Helvetica,sans-Serif" font-size="10.00" fill="#000000">&lt; PDE &gt;</text>
</a>
</g>
</g>
<!-- Node0&#45;&gt;Node1 -->
<g id="edge1" class="edge">
<title>Node0&#45;&gt;Node1</title>
<path fill="none" stroke="#ffa500" stroke-dasharray="5,2" d="M56.5,-68.2875C56.5,-55.9187 56.5,-41.4264 56.5,-30.7592"/>
<polygon fill="#ffa500" stroke="#ffa500" points="53.0001,-68.4608 56.5,-78.4608 60.0001,-68.4608 53.0001,-68.4608"/>
<text text-anchor="middle" x="78" y="-52" font-family="Helvetica,sans-Serif" font-size="10.00" fill="#000000"> &lt; PDE &gt;</text>
</g>
</g>
</svg>
