<?xml version="1.0" encoding="UTF-8" standalone="no"?>
<!DOCTYPE svg PUBLIC "-//W3C//DTD SVG 1.1//EN"
 "http://www.w3.org/Graphics/SVG/1.1/DTD/svg11.dtd">
<!-- Generated by graphviz version 2.40.1 (20161225.0304)
 -->
<!-- Title: amr_wind::Factory&lt; Base, Args &gt; Pages: 1 -->
<!--zoomable 593 -->
<svg id="main" version="1.1" xmlns="http://www.w3.org/2000/svg" xmlns:xlink="http://www.w3.org/1999/xlink" xml:space="preserve" onload="init(evt)">
<style type="text/css"><![CDATA[
.edge:hover path { stroke: red; }
.edge:hover polygon { stroke: red; fill: red; }
]]></style>
<script type="text/javascript"><![CDATA[
var edges = document.getElementsByTagName('g');
if (edges && edges.length) {
  for (var i=0;i<edges.length;i++) {
    if (edges[i].id.substr(0,4)=='edge') {
      edges[i].setAttribute('class','edge');
    }
  }
}
]]></script>
        <defs>
                <circle id="rim" cx="0" cy="0" r="7"/>
                <circle id="rim2" cx="0" cy="0" r="3.5"/>
                <g id="zoomPlus">
                        <use xlink:href="#rim" fill="#404040">
                                <set attributeName="fill" to="#808080" begin="zoomplus.mouseover" end="zoomplus.mouseout"/>
                        </use>
                        <path d="M-4,0h8M0,-4v8" fill="none" stroke="white" stroke-width="1.5" pointer-events="none"/>
                </g>
                <g id="zoomMin">
                        <use xlink:href="#rim" fill="#404040">
                                <set attributeName="fill" to="#808080" begin="zoomminus.mouseover" end="zoomminus.mouseout"/>
                        </use>
                        <path d="M-4,0h8" fill="none" stroke="white" stroke-width="1.5" pointer-events="none"/>
                </g>
                <g id="dirArrow">
                        <path fill="none" stroke="white" stroke-width="1.5" d="M0,-3.0v7 M-2.5,-0.5L0,-3.0L2.5,-0.5"/>
                </g>
               <g id="resetDef">
                       <use xlink:href="#rim2" fill="#404040">
                               <set attributeName="fill" to="#808080" begin="reset.mouseover" end="reset.mouseout"/>
                       </use>
               </g>
        </defs>

<script type="text/javascript">
var viewWidth = 1170;
var viewHeight = 593;
var sectionId = 'dynsection-0';
</script>
<script xlink:href="svgpan.js"/>
<svg id="graph" class="graph">
<g id="viewport">
<title>amr_wind::Factory&lt; Base, Args &gt;</title>
<polygon fill="#ffffff" stroke="transparent" points="-4,4 -4,-588.8025 1166,-588.8025 1166,4 -4,4"/>
<!-- Node0 -->
<g id="node1" class="node">
<title>Node0</title>
<polygon fill="#bfbfbf" stroke="#000000" points="0,-257.8025 0,-287.8025 104,-287.8025 104,-257.8025 0,-257.8025"/>
<text text-anchor="start" x="8" y="-275.8025" font-family="Helvetica,sans-Serif" font-size="10.00" fill="#000000">amr_wind::Factory&lt;</text>
<text text-anchor="middle" x="52" y="-264.8025" font-family="Helvetica,sans-Serif" font-size="10.00" fill="#000000"> Base, Args &gt;</text>
</g>
<!-- Node1 -->
<g id="node2" class="node">
<title>Node1</title>
<g id="a_node2"><a xlink:href="structamr__wind_1_1_factory.html" target="_top" xlink:title="amr_wind::Factory\&lt;\l PDEBase, CFDSim &amp;,\l const int \&gt;">
<polygon fill="#ffffff" stroke="#000000" points="291,-537.3025 291,-578.3025 411,-578.3025 411,-537.3025 291,-537.3025"/>
<text text-anchor="start" x="299" y="-566.3025" font-family="Helvetica,sans-Serif" font-size="10.00" fill="#000000">amr_wind::Factory&lt;</text>
<text text-anchor="start" x="299" y="-555.3025" font-family="Helvetica,sans-Serif" font-size="10.00" fill="#000000"> PDEBase, CFDSim &amp;,</text>
<text text-anchor="middle" x="351" y="-544.3025" font-family="Helvetica,sans-Serif" font-size="10.00" fill="#000000"> const int &gt;</text>
</a>
</g>
</g>
<!-- Node0&#45;&gt;Node1 -->
<g id="edge1" class="edge">
<title>Node0&#45;&gt;Node1</title>
<path fill="none" stroke="#ffa500" stroke-dasharray="5,2" d="M55.699,-297.8257C64.5624,-354.2898 88.7725,-488.9991 122,-518.8025 167.6335,-559.7336 239.8087,-565.8081 290.9197,-563.9883"/>
<polygon fill="#ffa500" stroke="#ffa500" points="59.157,-297.2846 54.1782,-287.9325 52.2383,-298.3482 59.157,-297.2846"/>
<text text-anchor="start" x="131" y="-576.8025" font-family="Helvetica,sans-Serif" font-size="10.00" fill="#000000"> &lt; PDEBase, CFDSim &amp;,</text>
<text text-anchor="middle" x="187.5" y="-565.8025" font-family="Helvetica,sans-Serif" font-size="10.00" fill="#000000"> const int &gt;</text>
</g>
<!-- Node3 -->
<g id="node4" class="node">
<title>Node3</title>
<g id="a_node4"><a xlink:href="structamr__wind_1_1_factory.html" target="_top" xlink:title="amr_wind::Factory\&lt;\l TemperatureSource,\l const CFDSim &amp;\&gt;">
<polygon fill="#ffffff" stroke="#000000" points="297,-477.3025 297,-518.3025 405,-518.3025 405,-477.3025 297,-477.3025"/>
<text text-anchor="start" x="305" y="-506.3025" font-family="Helvetica,sans-Serif" font-size="10.00" fill="#000000">amr_wind::Factory&lt;</text>
<text text-anchor="start" x="305" y="-495.3025" font-family="Helvetica,sans-Serif" font-size="10.00" fill="#000000"> TemperatureSource,</text>
<text text-anchor="middle" x="351" y="-484.3025" font-family="Helvetica,sans-Serif" font-size="10.00" fill="#000000"> const CFDSim &amp;&gt;</text>
</a>
</g>
</g>
<!-- Node0&#45;&gt;Node3 -->
<g id="edge3" class="edge">
<title>Node0&#45;&gt;Node3</title>
<path fill="none" stroke="#ffa500" stroke-dasharray="5,2" d="M57.8085,-298.0642C69.1419,-345.0821 95.4284,-443.2202 122,-464.8025 148.0732,-485.98 237.8216,-493.5714 296.9158,-496.2898"/>
<polygon fill="#ffa500" stroke="#ffa500" points="61.1512,-296.9909 55.4392,-288.0677 54.3399,-298.6054 61.1512,-296.9909"/>
<text text-anchor="start" x="137" y="-506.8025" font-family="Helvetica,sans-Serif" font-size="10.00" fill="#000000"> &lt; TemperatureSource,</text>
<text text-anchor="middle" x="187.5" y="-495.8025" font-family="Helvetica,sans-Serif" font-size="10.00" fill="#000000"> const CFDSim &amp;&gt;</text>
</g>
<!-- Node5 -->
<g id="node6" class="node">
<title>Node5</title>
<g id="a_node6"><a xlink:href="structamr__wind_1_1_factory.html" target="_top" xlink:title="amr_wind::Factory\&lt;\l MomentumSource, const\l CFDSim &amp;\&gt;">
<polygon fill="#ffffff" stroke="#000000" points="286.5,-417.3025 286.5,-458.3025 415.5,-458.3025 415.5,-417.3025 286.5,-417.3025"/>
<text text-anchor="start" x="294.5" y="-446.3025" font-family="Helvetica,sans-Serif" font-size="10.00" fill="#000000">amr_wind::Factory&lt;</text>
<text text-anchor="start" x="294.5" y="-435.3025" font-family="Helvetica,sans-Serif" font-size="10.00" fill="#000000"> MomentumSource, const</text>
<text text-anchor="middle" x="351" y="-424.3025" font-family="Helvetica,sans-Serif" font-size="10.00" fill="#000000"> CFDSim &amp;&gt;</text>
</a>
</g>
</g>
<!-- Node0&#45;&gt;Node5 -->
<g id="edge5" class="edge">
<title>Node0&#45;&gt;Node5</title>
<path fill="none" stroke="#ffa500" stroke-dasharray="5,2" d="M57.9903,-297.7412C66.6618,-328.0506 85.794,-378.2964 122,-403.8025 169.7263,-437.4243 237.0148,-443.8387 286.3029,-443.096"/>
<polygon fill="#ffa500" stroke="#ffa500" points="61.3271,-296.6718 55.3485,-287.925 54.5676,-298.491 61.3271,-296.6718"/>
<text text-anchor="start" x="126.5" y="-455.8025" font-family="Helvetica,sans-Serif" font-size="10.00" fill="#000000"> &lt; MomentumSource, const</text>
<text text-anchor="middle" x="187.5" y="-444.8025" font-family="Helvetica,sans-Serif" font-size="10.00" fill="#000000"> CFDSim &amp;&gt;</text>
</g>
<!-- Node7 -->
<g id="node8" class="node">
<title>Node7</title>
<g id="a_node8"><a xlink:href="structamr__wind_1_1_factory.html" target="_top" xlink:title="amr_wind::Factory\&lt;\l SourceTerm, const CFDSim &amp;\&gt;">
<polygon fill="#ffffff" stroke="#000000" points="271,-367.8025 271,-397.8025 431,-397.8025 431,-367.8025 271,-367.8025"/>
<text text-anchor="start" x="279" y="-385.8025" font-family="Helvetica,sans-Serif" font-size="10.00" fill="#000000">amr_wind::Factory&lt;</text>
<text text-anchor="middle" x="351" y="-374.8025" font-family="Helvetica,sans-Serif" font-size="10.00" fill="#000000"> SourceTerm, const CFDSim &amp;&gt;</text>
</a>
</g>
</g>
<!-- Node0&#45;&gt;Node7 -->
<g id="edge7" class="edge">
<title>Node0&#45;&gt;Node7</title>
<path fill="none" stroke="#ffa500" stroke-dasharray="5,2" d="M64.917,-296.7086C76.9299,-316.3906 96.7575,-343.1904 122,-356.8025 147.1369,-370.3577 215.4448,-376.88 270.962,-379.998"/>
<polygon fill="#ffa500" stroke="#ffa500" points="67.8776,-294.8379 59.8071,-287.9736 61.8355,-298.3725 67.8776,-294.8379"/>
<text text-anchor="start" x="139.5" y="-391.8025" font-family="Helvetica,sans-Serif" font-size="10.00" fill="#000000"> &lt; SourceTerm, const</text>
<text text-anchor="middle" x="187.5" y="-380.8025" font-family="Helvetica,sans-Serif" font-size="10.00" fill="#000000"> CFDSim &amp;&gt;</text>
</g>
<!-- Node9 -->
<g id="node10" class="node">
<title>Node9</title>
<g id="a_node10"><a xlink:href="structamr__wind_1_1_factory.html" target="_top" xlink:title="amr_wind::Factory\&lt;\l PostProcessBase, CFDSim\l &amp;, const std::string &amp;\&gt;">
<polygon fill="#ffffff" stroke="#000000" points="279.5,-307.3025 279.5,-348.3025 422.5,-348.3025 422.5,-307.3025 279.5,-307.3025"/>
<text text-anchor="start" x="287.5" y="-336.3025" font-family="Helvetica,sans-Serif" font-size="10.00" fill="#000000">amr_wind::Factory&lt;</text>
<text text-anchor="start" x="287.5" y="-325.3025" font-family="Helvetica,sans-Serif" font-size="10.00" fill="#000000"> PostProcessBase, CFDSim</text>
<text text-anchor="middle" x="351" y="-314.3025" font-family="Helvetica,sans-Serif" font-size="10.00" fill="#000000"> &amp;, const std::string &amp;&gt;</text>
</a>
</g>
</g>
<!-- Node0&#45;&gt;Node9 -->
<g id="edge9" class="edge">
<title>Node0&#45;&gt;Node9</title>
<path fill="none" stroke="#ffa500" stroke-dasharray="5,2" d="M97.4713,-291.4031C105.5428,-294.2108 113.9444,-296.8243 122,-298.8025 173.8585,-311.5372 233.7741,-318.8718 279.3093,-322.9777"/>
<polygon fill="#ffa500" stroke="#ffa500" points="98.4292,-288.0276 87.835,-287.9116 96.0446,-294.6089 98.4292,-288.0276"/>
<text text-anchor="start" x="138.5" y="-344.8025" font-family="Helvetica,sans-Serif" font-size="10.00" fill="#000000"> &lt; PostProcessBase,</text>
<text text-anchor="start" x="138.5" y="-333.8025" font-family="Helvetica,sans-Serif" font-size="10.00" fill="#000000"> CFDSim &amp;, const std</text>
<text text-anchor="middle" x="187.5" y="-322.8025" font-family="Helvetica,sans-Serif" font-size="10.00" fill="#000000">::string &amp;&gt;</text>
</g>
<!-- Node11 -->
<g id="node12" class="node">
<title>Node11</title>
<g id="a_node12"><a xlink:href="structamr__wind_1_1_factory.html" target="_top" xlink:title="amr_wind::Factory\&lt;\l SDRSource, const CFDSim &amp;\&gt;">
<polygon fill="#ffffff" stroke="#000000" points="271.5,-257.8025 271.5,-287.8025 430.5,-287.8025 430.5,-257.8025 271.5,-257.8025"/>
<text text-anchor="start" x="279.5" y="-275.8025" font-family="Helvetica,sans-Serif" font-size="10.00" fill="#000000">amr_wind::Factory&lt;</text>
<text text-anchor="middle" x="351" y="-264.8025" font-family="Helvetica,sans-Serif" font-size="10.00" fill="#000000"> SDRSource, const CFDSim &amp;&gt;</text>
</a>
</g>
</g>
<!-- Node0&#45;&gt;Node11 -->
<g id="edge11" class="edge">
<title>Node0&#45;&gt;Node11</title>
<path fill="none" stroke="#ffa500" stroke-dasharray="5,2" d="M114.1356,-272.8025C159.7688,-272.8025 222.1319,-272.8025 271.4134,-272.8025"/>
<polygon fill="#ffa500" stroke="#ffa500" points="114.0819,-269.3026 104.0818,-272.8025 114.0818,-276.3026 114.0819,-269.3026"/>
<text text-anchor="start" x="140" y="-286.8025" font-family="Helvetica,sans-Serif" font-size="10.00" fill="#000000"> &lt; SDRSource, const</text>
<text text-anchor="middle" x="187.5" y="-275.8025" font-family="Helvetica,sans-Serif" font-size="10.00" fill="#000000"> CFDSim &amp;&gt;</text>
</g>
<!-- Node13 -->
<g id="node14" class="node">
<title>Node13</title>
<g id="a_node14"><a xlink:href="structamr__wind_1_1_factory.html" target="_top" xlink:title="amr_wind::Factory\&lt;\l TurbulenceModel, CFDSim &amp;\&gt;">
<polygon fill="#ffffff" stroke="#000000" points="274,-208.8025 274,-238.8025 428,-238.8025 428,-208.8025 274,-208.8025"/>
<text text-anchor="start" x="282" y="-226.8025" font-family="Helvetica,sans-Serif" font-size="10.00" fill="#000000">amr_wind::Factory&lt;</text>
<text text-anchor="middle" x="351" y="-215.8025" font-family="Helvetica,sans-Serif" font-size="10.00" fill="#000000"> TurbulenceModel, CFDSim &amp;&gt;</text>
</a>
</g>
</g>
<!-- Node0&#45;&gt;Node13 -->
<g id="edge13" class="edge">
<title>Node0&#45;&gt;Node13</title>
<path fill="none" stroke="#ffa500" stroke-dasharray="5,2" d="M96.6198,-254.3064C104.942,-251.4099 113.6492,-248.7391 122,-246.8025 171.8228,-235.2488 229.0728,-229.4988 273.8671,-226.6372"/>
<polygon fill="#ffa500" stroke="#ffa500" points="95.2724,-251.0721 87.0715,-257.78 97.6655,-257.6504 95.2724,-251.0721"/>
<text text-anchor="start" x="142.5" y="-260.8025" font-family="Helvetica,sans-Serif" font-size="10.00" fill="#000000"> &lt; TurbulenceModel,</text>
<text text-anchor="middle" x="187.5" y="-249.8025" font-family="Helvetica,sans-Serif" font-size="10.00" fill="#000000"> CFDSim &amp;&gt;</text>
</g>
<!-- Node19 -->
<g id="node20" class="node">
<title>Node19</title>
<g id="a_node20"><a xlink:href="structamr__wind_1_1_factory.html" target="_top" xlink:title="amr_wind::Factory\&lt;\l Physics, CFDSim &amp;\&gt;">
<polygon fill="#ffffff" stroke="#000000" points="293.5,-159.8025 293.5,-189.8025 408.5,-189.8025 408.5,-159.8025 293.5,-159.8025"/>
<text text-anchor="start" x="301.5" y="-177.8025" font-family="Helvetica,sans-Serif" font-size="10.00" fill="#000000">amr_wind::Factory&lt;</text>
<text text-anchor="middle" x="351" y="-166.8025" font-family="Helvetica,sans-Serif" font-size="10.00" fill="#000000"> Physics, CFDSim &amp;&gt;</text>
</a>
</g>
</g>
<!-- Node0&#45;&gt;Node19 -->
<g id="edge19" class="edge">
<title>Node0&#45;&gt;Node19</title>
<path fill="none" stroke="#ffa500" stroke-dasharray="5,2" d="M72.107,-250.2702C85.0476,-237.2288 102.9631,-221.6842 122,-212.8025 176.5994,-187.3291 245.526,-178.6484 293.4257,-175.8344"/>
<polygon fill="#ffa500" stroke="#ffa500" points="69.484,-247.9487 65.0918,-257.5903 74.5379,-252.7921 69.484,-247.9487"/>
<text text-anchor="middle" x="187.5" y="-215.8025" font-family="Helvetica,sans-Serif" font-size="10.00" fill="#000000"> &lt; Physics, CFDSim &amp;&gt;</text>
</g>
<!-- Node21 -->
<g id="node22" class="node">
<title>Node21</title>
<g id="a_node22"><a xlink:href="structamr__wind_1_1_factory.html" target="_top" xlink:title="amr_wind::Factory\&lt;\l SamplerBase, CFDSim &amp;\&gt;">
<polygon fill="#ffffff" stroke="#000000" points="282,-110.8025 282,-140.8025 420,-140.8025 420,-110.8025 282,-110.8025"/>
<text text-anchor="start" x="290" y="-128.8025" font-family="Helvetica,sans-Serif" font-size="10.00" fill="#000000">amr_wind::Factory&lt;</text>
<text text-anchor="middle" x="351" y="-117.8025" font-family="Helvetica,sans-Serif" font-size="10.00" fill="#000000"> SamplerBase, CFDSim &amp;&gt;</text>
</a>
</g>
</g>
<!-- Node0&#45;&gt;Node21 -->
<g id="edge21" class="edge">
<title>Node0&#45;&gt;Node21</title>
<path fill="none" stroke="#ffa500" stroke-dasharray="5,2" d="M61.0366,-248.1411C71.618,-222.9484 91.6547,-184.7796 122,-164.8025 169.2435,-133.7009 233.4545,-124.9719 281.8619,-123.4367"/>
<polygon fill="#ffa500" stroke="#ffa500" points="57.6639,-247.1489 57.1992,-257.7336 64.1632,-249.7489 57.6639,-247.1489"/>
<text text-anchor="middle" x="187.5" y="-167.8025" font-family="Helvetica,sans-Serif" font-size="10.00" fill="#000000"> &lt; SamplerBase, CFDSim &amp;&gt;</text>
</g>
<!-- Node23 -->
<g id="node24" class="node">
<title>Node23</title>
<g id="a_node24"><a xlink:href="structamr__wind_1_1_factory.html" target="_top" xlink:title="amr_wind::Factory\&lt;\l DensitySource, const\l CFDSim &amp;\&gt;">
<polygon fill="#ffffff" stroke="#000000" points="294,-50.3025 294,-91.3025 408,-91.3025 408,-50.3025 294,-50.3025"/>
<text text-anchor="start" x="302" y="-79.3025" font-family="Helvetica,sans-Serif" font-size="10.00" fill="#000000">amr_wind::Factory&lt;</text>
<text text-anchor="start" x="302" y="-68.3025" font-family="Helvetica,sans-Serif" font-size="10.00" fill="#000000"> DensitySource, const</text>
<text text-anchor="middle" x="351" y="-57.3025" font-family="Helvetica,sans-Serif" font-size="10.00" fill="#000000"> CFDSim &amp;&gt;</text>
</a>
</g>
</g>
<!-- Node0&#45;&gt;Node23 -->
<g id="edge23" class="edge">
<title>Node0&#45;&gt;Node23</title>
<path fill="none" stroke="#ffa500" stroke-dasharray="5,2" d="M54.2433,-247.7415C59.157,-209.0005 74.5566,-135.2441 122,-98.8025 170.7581,-61.3511 243.3773,-58.7453 293.7128,-62.6625"/>
<polygon fill="#ffa500" stroke="#ffa500" points="50.7654,-247.3493 53.1175,-257.6798 57.7209,-248.1373 50.7654,-247.3493"/>
<text text-anchor="start" x="134" y="-112.8025" font-family="Helvetica,sans-Serif" font-size="10.00" fill="#000000"> &lt; DensitySource, const</text>
<text text-anchor="middle" x="187.5" y="-101.8025" font-family="Helvetica,sans-Serif" font-size="10.00" fill="#000000"> CFDSim &amp;&gt;</text>
</g>
<!-- Node25 -->
<g id="node26" class="node">
<title>Node25</title>
<g id="a_node26"><a xlink:href="structamr__wind_1_1_factory.html" target="_top" xlink:title="amr_wind::Factory\&lt;\l TKESource, const CFDSim &amp;\&gt;">
<polygon fill="#ffffff" stroke="#000000" points="272.5,-.8025 272.5,-30.8025 429.5,-30.8025 429.5,-.8025 272.5,-.8025"/>
<text text-anchor="start" x="280.5" y="-18.8025" font-family="Helvetica,sans-Serif" font-size="10.00" fill="#000000">amr_wind::Factory&lt;</text>
<text text-anchor="middle" x="351" y="-7.8025" font-family="Helvetica,sans-Serif" font-size="10.00" fill="#000000"> TKESource, const CFDSim &amp;&gt;</text>
</a>
</g>
</g>
<!-- Node0&#45;&gt;Node25 -->
<g id="edge25" class="edge">
<title>Node0&#45;&gt;Node25</title>
<path fill="none" stroke="#ffa500" stroke-dasharray="5,2" d="M55.7697,-247.6549C64.6309,-192.1727 88.5863,-62.0314 122,-34.8025 163.2856,-1.1588 223.7872,2.5626 272.2357,-1.5796"/>
<polygon fill="#ffa500" stroke="#ffa500" points="52.2854,-247.283 54.2003,-257.7033 59.2016,-248.3632 52.2854,-247.283"/>
<text text-anchor="start" x="141" y="-48.8025" font-family="Helvetica,sans-Serif" font-size="10.00" fill="#000000"> &lt; TKESource, const</text>
<text text-anchor="middle" x="187.5" y="-37.8025" font-family="Helvetica,sans-Serif" font-size="10.00" fill="#000000"> CFDSim &amp;&gt;</text>
</g>
<!-- Node2 -->
<g id="node3" class="node">
<title>Node2</title>
<g id="a_node3"><a xlink:href="classamr__wind_1_1pde_1_1_p_d_e_base.html" target="_top" xlink:title="Abstract interface defining a PDE and its solution process withn AMR&#45;WindThe exact behavior is implem...">
<polygon fill="#ffffff" stroke="#000000" points="486,-548.3025 486,-567.3025 616,-567.3025 616,-548.3025 486,-548.3025"/>
<text text-anchor="middle" x="551" y="-555.3025" font-family="Helvetica,sans-Serif" font-size="10.00" fill="#000000">amr_wind::pde::PDEBase</text>
</a>
</g>
</g>
<!-- Node1&#45;&gt;Node2 -->
<g id="edge2" class="edge">
<title>Node1&#45;&gt;Node2</title>
<path fill="none" stroke="#191970" d="M421.15,-557.8025C442.167,-557.8025 465.1205,-557.8025 485.8044,-557.8025"/>
<polygon fill="#191970" stroke="#191970" points="421.0066,-554.3026 411.0066,-557.8025 421.0066,-561.3026 421.0066,-554.3026"/>
</g>
<!-- Node4 -->
<g id="node5" class="node">
<title>Node4</title>
<g id="a_node5"><a xlink:href="classamr__wind_1_1pde_1_1_temperature_source.html" target="_top" xlink:title="Representation of a temperature source termAll temperature source terms must inherit from this class...">
<polygon fill="#ffffff" stroke="#000000" points="480.5,-482.8025 480.5,-512.8025 621.5,-512.8025 621.5,-482.8025 480.5,-482.8025"/>
<text text-anchor="start" x="488.5" y="-500.8025" font-family="Helvetica,sans-Serif" font-size="10.00" fill="#000000">amr_wind::pde::Temperature</text>
<text text-anchor="middle" x="551" y="-489.8025" font-family="Helvetica,sans-Serif" font-size="10.00" fill="#000000">Source</text>
</a>
</g>
</g>
<!-- Node3&#45;&gt;Node4 -->
<g id="edge4" class="edge">
<title>Node3&#45;&gt;Node4</title>
<path fill="none" stroke="#191970" d="M415.3966,-497.8025C436.1026,-497.8025 459.1509,-497.8025 480.2852,-497.8025"/>
<polygon fill="#191970" stroke="#191970" points="415.1229,-494.3026 405.1229,-497.8025 415.1228,-501.3026 415.1229,-494.3026"/>
</g>
<!-- Node6 -->
<g id="node7" class="node">
<title>Node6</title>
<g id="a_node7"><a xlink:href="classamr__wind_1_1pde_1_1_momentum_source.html" target="_top" xlink:title="Representation of a momentum source termAll momentum source terms must inherit from this class...">
<polygon fill="#ffffff" stroke="#000000" points="468,-428.3025 468,-447.3025 634,-447.3025 634,-428.3025 468,-428.3025"/>
<text text-anchor="middle" x="551" y="-435.3025" font-family="Helvetica,sans-Serif" font-size="10.00" fill="#000000">amr_wind::pde::MomentumSource</text>
</a>
</g>
</g>
<!-- Node5&#45;&gt;Node6 -->
<g id="edge6" class="edge">
<title>Node5&#45;&gt;Node6</title>
<path fill="none" stroke="#191970" d="M425.9792,-437.8025C439.6708,-437.8025 454.0311,-437.8025 467.941,-437.8025"/>
<polygon fill="#191970" stroke="#191970" points="425.6581,-434.3026 415.6581,-437.8025 425.658,-441.3026 425.6581,-434.3026"/>
</g>
<!-- Node8 -->
<g id="node9" class="node">
<title>Node8</title>
<g id="a_node9"><a xlink:href="classamr__wind_1_1pde_1_1_source_term.html" target="_top" xlink:title="Abstract representation of a source term. ">
<polygon fill="#ffffff" stroke="#000000" points="481,-373.3025 481,-392.3025 621,-392.3025 621,-373.3025 481,-373.3025"/>
<text text-anchor="middle" x="551" y="-380.3025" font-family="Helvetica,sans-Serif" font-size="10.00" fill="#000000">amr_wind::pde::SourceTerm</text>
</a>
</g>
</g>
<!-- Node7&#45;&gt;Node8 -->
<g id="edge8" class="edge">
<title>Node7&#45;&gt;Node8</title>
<path fill="none" stroke="#191970" d="M441.2712,-382.8025C454.5265,-382.8025 468.0119,-382.8025 480.7841,-382.8025"/>
<polygon fill="#191970" stroke="#191970" points="441.1953,-379.3026 431.1953,-382.8025 441.1952,-386.3026 441.1953,-379.3026"/>
</g>
<!-- Node10 -->
<g id="node11" class="node">
<title>Node10</title>
<g id="a_node11"><a xlink:href="classamr__wind_1_1_post_process_base.html" target="_top" xlink:title="Abstract representation of a post&#45;processing utilityProvides an interface for a runtime&#45;selectable po...">
<polygon fill="#ffffff" stroke="#000000" points="479.5,-318.3025 479.5,-337.3025 622.5,-337.3025 622.5,-318.3025 479.5,-318.3025"/>
<text text-anchor="middle" x="551" y="-325.3025" font-family="Helvetica,sans-Serif" font-size="10.00" fill="#000000">amr_wind::PostProcessBase</text>
</a>
</g>
</g>
<!-- Node9&#45;&gt;Node10 -->
<g id="edge10" class="edge">
<title>Node9&#45;&gt;Node10</title>
<path fill="none" stroke="#191970" d="M432.6676,-327.8025C448.084,-327.8025 464.1022,-327.8025 479.1883,-327.8025"/>
<polygon fill="#191970" stroke="#191970" points="432.6397,-324.3026 422.6397,-327.8025 432.6396,-331.3026 432.6397,-324.3026"/>
</g>
<!-- Node12 -->
<g id="node13" class="node">
<title>Node12</title>
<g id="a_node13"><a xlink:href="classamr__wind_1_1pde_1_1_s_d_r_source.html" target="_top" xlink:title="amr_wind::pde::SDRSource">
<polygon fill="#ffffff" stroke="#000000" points="481.5,-263.3025 481.5,-282.3025 620.5,-282.3025 620.5,-263.3025 481.5,-263.3025"/>
<text text-anchor="middle" x="551" y="-270.3025" font-family="Helvetica,sans-Serif" font-size="10.00" fill="#000000">amr_wind::pde::SDRSource</text>
</a>
</g>
</g>
<!-- Node11&#45;&gt;Node12 -->
<g id="edge12" class="edge">
<title>Node11&#45;&gt;Node12</title>
<path fill="none" stroke="#191970" d="M440.9248,-272.8025C454.4859,-272.8025 468.2966,-272.8025 481.3458,-272.8025"/>
<polygon fill="#191970" stroke="#191970" points="440.62,-269.3026 430.62,-272.8025 440.6199,-276.3026 440.62,-269.3026"/>
</g>
<!-- Node14 -->
<g id="node15" class="node">
<title>Node14</title>
<g id="a_node15"><a xlink:href="classamr__wind_1_1turbulence_1_1_turbulence_model.html" target="_top" xlink:title="Abstract representation of a turbulence modelThis class is an abstract representation of a turbulence...">
<polygon fill="#ffffff" stroke="#000000" points="496,-208.8025 496,-238.8025 606,-238.8025 606,-208.8025 496,-208.8025"/>
<text text-anchor="start" x="504" y="-226.8025" font-family="Helvetica,sans-Serif" font-size="10.00" fill="#000000">amr_wind::turbulence</text>
<text text-anchor="middle" x="551" y="-215.8025" font-family="Helvetica,sans-Serif" font-size="10.00" fill="#000000">::TurbulenceModel</text>
</a>
</g>
</g>
<!-- Node13&#45;&gt;Node14 -->
<g id="edge14" class="edge">
<title>Node13&#45;&gt;Node14</title>
<path fill="none" stroke="#191970" d="M438.1774,-223.8025C457.7112,-223.8025 477.9087,-223.8025 495.7218,-223.8025"/>
<polygon fill="#191970" stroke="#191970" points="438.0392,-220.3026 428.0391,-223.8025 438.0391,-227.3026 438.0392,-220.3026"/>
</g>
<!-- Node15 -->
<g id="node16" class="node">
<title>Node15</title>
<g id="a_node16"><a xlink:href="classamr__wind_1_1turbulence_1_1_turb_model.html" target="_top" xlink:title="Turbulence model with a specific transport modelThis templated class allows turbulence model to be sp...">
<polygon fill="#ffffff" stroke="#000000" points="671,-208.8025 671,-238.8025 799,-238.8025 799,-208.8025 671,-208.8025"/>
<text text-anchor="start" x="679" y="-226.8025" font-family="Helvetica,sans-Serif" font-size="10.00" fill="#000000">amr_wind::turbulence</text>
<text text-anchor="middle" x="735" y="-215.8025" font-family="Helvetica,sans-Serif" font-size="10.00" fill="#000000">::TurbModel&lt; Transport &gt;</text>
</a>
</g>
</g>
<!-- Node14&#45;&gt;Node15 -->
<g id="edge15" class="edge">
<title>Node14&#45;&gt;Node15</title>
<path fill="none" stroke="#191970" d="M616.419,-223.8025C634.0829,-223.8025 653.177,-223.8025 670.7749,-223.8025"/>
<polygon fill="#191970" stroke="#191970" points="616.2061,-220.3026 606.2061,-223.8025 616.206,-227.3026 616.2061,-220.3026"/>
</g>
<!-- Node16 -->
<g id="node17" class="node">
<title>Node16</title>
<g id="a_node17"><a xlink:href="classamr__wind_1_1turbulence_1_1_laminar.html" target="_top" xlink:title="Laminar modelImplementation of laminar flow model. ">
<polygon fill="#ffffff" stroke="#000000" points="853,-233.8025 853,-263.8025 969,-263.8025 969,-233.8025 853,-233.8025"/>
<text text-anchor="start" x="861" y="-251.8025" font-family="Helvetica,sans-Serif" font-size="10.00" fill="#000000">amr_wind::turbulence</text>
<text text-anchor="middle" x="911" y="-240.8025" font-family="Helvetica,sans-Serif" font-size="10.00" fill="#000000">::Laminar&lt; Transport &gt;</text>
</a>
</g>
</g>
<!-- Node15&#45;&gt;Node16 -->
<g id="edge16" class="edge">
<title>Node15&#45;&gt;Node16</title>
<path fill="none" stroke="#191970" d="M809.0595,-234.3223C823.6864,-236.4 838.8406,-238.5526 852.8499,-240.5426"/>
<polygon fill="#191970" stroke="#191970" points="809.4308,-230.84 799.0379,-232.8988 808.4463,-237.7705 809.4308,-230.84"/>
</g>
<!-- Node17 -->
<g id="node18" class="node">
<title>Node17</title>
<g id="a_node18"><a xlink:href="classamr__wind_1_1turbulence_1_1_turb_model_base.html" target="_top" xlink:title="Turbulence model aspects common to both LES and RANS modelsThis class implements more of the common m...">
<polygon fill="#ffffff" stroke="#000000" points="836,-184.8025 836,-214.8025 986,-214.8025 986,-184.8025 836,-184.8025"/>
<text text-anchor="start" x="844" y="-202.8025" font-family="Helvetica,sans-Serif" font-size="10.00" fill="#000000">amr_wind::turbulence</text>
<text text-anchor="middle" x="911" y="-191.8025" font-family="Helvetica,sans-Serif" font-size="10.00" fill="#000000">::TurbModelBase&lt; Transport &gt;</text>
</a>
</g>
</g>
<!-- Node15&#45;&gt;Node17 -->
<g id="edge17" class="edge">
<title>Node15&#45;&gt;Node17</title>
<path fill="none" stroke="#191970" d="M808.9982,-213.7119C817.9121,-212.4963 827.0227,-211.254 835.9514,-210.0364"/>
<polygon fill="#191970" stroke="#191970" points="808.4733,-210.251 799.0379,-215.0701 809.4191,-217.1868 808.4733,-210.251"/>
</g>
<!-- Node18 -->
<g id="node19" class="node">
<title>Node18</title>
<g id="a_node19"><a xlink:href="classamr__wind_1_1turbulence_1_1_smagorinsky.html" target="_top" xlink:title="Smagorinsky LES Model. ">
<polygon fill="#ffffff" stroke="#000000" points="1023,-184.8025 1023,-214.8025 1162,-214.8025 1162,-184.8025 1023,-184.8025"/>
<text text-anchor="start" x="1031" y="-202.8025" font-family="Helvetica,sans-Serif" font-size="10.00" fill="#000000">amr_wind::turbulence</text>
<text text-anchor="middle" x="1092.5" y="-191.8025" font-family="Helvetica,sans-Serif" font-size="10.00" fill="#000000">::Smagorinsky&lt; Transport &gt;</text>
</a>
</g>
</g>
<!-- Node17&#45;&gt;Node18 -->
<g id="edge18" class="edge">
<title>Node17&#45;&gt;Node18</title>
<path fill="none" stroke="#191970" d="M996.2013,-199.8025C1005.1626,-199.8025 1014.1964,-199.8025 1022.9513,-199.8025"/>
<polygon fill="#191970" stroke="#191970" points="996.1332,-196.3026 986.1332,-199.8025 996.1331,-203.3026 996.1332,-196.3026"/>
</g>
<!-- Node20 -->
<g id="node21" class="node">
<title>Node20</title>
<g id="a_node21"><a xlink:href="classamr__wind_1_1_physics.html" target="_top" xlink:title="Abstract representation of different physicsThis class defines an abstract API that represents the no...">
<polygon fill="#ffffff" stroke="#000000" points="501,-165.3025 501,-184.3025 601,-184.3025 601,-165.3025 501,-165.3025"/>
<text text-anchor="middle" x="551" y="-172.3025" font-family="Helvetica,sans-Serif" font-size="10.00" fill="#000000">amr_wind::Physics</text>
</a>
</g>
</g>
<!-- Node19&#45;&gt;Node20 -->
<g id="edge20" class="edge">
<title>Node19&#45;&gt;Node20</title>
<path fill="none" stroke="#191970" d="M418.7111,-174.8025C445.6415,-174.8025 476.0717,-174.8025 500.9514,-174.8025"/>
<polygon fill="#191970" stroke="#191970" points="418.58,-171.3026 408.58,-174.8025 418.5799,-178.3026 418.58,-171.3026"/>
</g>
<!-- Node22 -->
<g id="node23" class="node">
<title>Node22</title>
<g id="a_node23"><a xlink:href="classamr__wind_1_1sampling_1_1_sampler_base.html" target="_top" xlink:title="Abstract representation of data probes to sample flow dataThis class defines the interface by which t...">
<polygon fill="#ffffff" stroke="#000000" points="499,-110.8025 499,-140.8025 603,-140.8025 603,-110.8025 499,-110.8025"/>
<text text-anchor="start" x="507" y="-128.8025" font-family="Helvetica,sans-Serif" font-size="10.00" fill="#000000">amr_wind::sampling</text>
<text text-anchor="middle" x="551" y="-117.8025" font-family="Helvetica,sans-Serif" font-size="10.00" fill="#000000">::SamplerBase</text>
</a>
</g>
</g>
<!-- Node21&#45;&gt;Node22 -->
<g id="edge22" class="edge">
<title>Node21&#45;&gt;Node22</title>
<path fill="none" stroke="#191970" d="M430.2431,-125.8025C453.3379,-125.8025 477.9777,-125.8025 498.9373,-125.8025"/>
<polygon fill="#191970" stroke="#191970" points="430.1087,-122.3026 420.1087,-125.8025 430.1087,-129.3026 430.1087,-122.3026"/>
</g>
<!-- Node24 -->
<g id="node25" class="node">
<title>Node24</title>
<g id="a_node25"><a xlink:href="classamr__wind_1_1pde_1_1_density_source.html" target="_top" xlink:title="amr_wind::pde::DensitySource">
<polygon fill="#ffffff" stroke="#000000" points="475.5,-61.3025 475.5,-80.3025 626.5,-80.3025 626.5,-61.3025 475.5,-61.3025"/>
<text text-anchor="middle" x="551" y="-68.3025" font-family="Helvetica,sans-Serif" font-size="10.00" fill="#000000">amr_wind::pde::DensitySource</text>
</a>
</g>
</g>
<!-- Node23&#45;&gt;Node24 -->
<g id="edge24" class="edge">
<title>Node23&#45;&gt;Node24</title>
<path fill="none" stroke="#191970" d="M418.0482,-70.8025C436.3969,-70.8025 456.4118,-70.8025 475.212,-70.8025"/>
<polygon fill="#191970" stroke="#191970" points="418.0444,-67.3026 408.0443,-70.8025 418.0443,-74.3026 418.0444,-67.3026"/>
</g>
<!-- Node26 -->
<g id="node27" class="node">
<title>Node26</title>
<g id="a_node27"><a xlink:href="classamr__wind_1_1pde_1_1_t_k_e_source.html" target="_top" xlink:title="amr_wind::pde::TKESource">
<polygon fill="#ffffff" stroke="#000000" points="482.5,-6.3025 482.5,-25.3025 619.5,-25.3025 619.5,-6.3025 482.5,-6.3025"/>
<text text-anchor="middle" x="551" y="-13.3025" font-family="Helvetica,sans-Serif" font-size="10.00" fill="#000000">amr_wind::pde::TKESource</text>
</a>
</g>
</g>
<!-- Node25&#45;&gt;Node26 -->
<g id="edge26" class="edge">
<title>Node25&#45;&gt;Node26</title>
<path fill="none" stroke="#191970" d="M440.0282,-15.8025C454.2277,-15.8025 468.7258,-15.8025 482.3588,-15.8025"/>
<polygon fill="#191970" stroke="#191970" points="439.7582,-12.3026 429.7582,-15.8025 439.7582,-19.3026 439.7582,-12.3026"/>
</g>
</g>
</svg>
        <g id="navigator" transform="translate(0 0)" fill="#404254">
                <rect fill="#f2f5e9" fill-opacity="0.5" stroke="#606060" stroke-width=".5" x="0" y="0" width="60" height="60"/>
                <use id="zoomplus" xlink:href="#zoomPlus" x="17" y="9" onmousedown="handleZoom(evt,'in')"/>
                <use id="zoomminus" xlink:href="#zoomMin" x="42" y="9" onmousedown="handleZoom(evt,'out')"/>
                <use id="reset" xlink:href="#resetDef" x="30" y="36" onmousedown="handleReset()"/>
                <g id="arrowUp" xlink:href="#dirArrow" transform="translate(30 24)" onmousedown="handlePan(0,-1)">
                  <use xlink:href="#rim" fill="#404040">
                        <set attributeName="fill" to="#808080" begin="arrowUp.mouseover" end="arrowUp.mouseout"/>
                  </use>
                  <path fill="none" stroke="white" stroke-width="1.5" d="M0,-3.0v7 M-2.5,-0.5L0,-3.0L2.5,-0.5"/>
                </g>
                <g id="arrowRight" xlink:href="#dirArrow" transform="rotate(90) translate(36 -43)" onmousedown="handlePan(1,0)">
                  <use xlink:href="#rim" fill="#404040">
                        <set attributeName="fill" to="#808080" begin="arrowRight.mouseover" end="arrowRight.mouseout"/>
                  </use>
                  <path fill="none" stroke="white" stroke-width="1.5" d="M0,-3.0v7 M-2.5,-0.5L0,-3.0L2.5,-0.5"/>
                </g>
                <g id="arrowDown" xlink:href="#dirArrow" transform="rotate(180) translate(-30 -48)" onmousedown="handlePan(0,1)">
                  <use xlink:href="#rim" fill="#404040">
                        <set attributeName="fill" to="#808080" begin="arrowDown.mouseover" end="arrowDown.mouseout"/>
                  </use>
                  <path fill="none" stroke="white" stroke-width="1.5" d="M0,-3.0v7 M-2.5,-0.5L0,-3.0L2.5,-0.5"/>
                </g>
                <g id="arrowLeft" xlink:href="#dirArrow" transform="rotate(270) translate(-36 17)" onmousedown="handlePan(-1,0)">
                  <use xlink:href="#rim" fill="#404040">
                        <set attributeName="fill" to="#808080" begin="arrowLeft.mouseover" end="arrowLeft.mouseout"/>
                  </use>
                  <path fill="none" stroke="white" stroke-width="1.5" d="M0,-3.0v7 M-2.5,-0.5L0,-3.0L2.5,-0.5"/>
                </g>
        </g>
        <svg viewBox="0 0 15 15" width="100%" height="30px" preserveAspectRatio="xMaxYMin meet">
         <g id="arrow_out" transform="scale(0.3 0.3)">
          <a xlink:href="structamr__wind_1_1_factory__inherit__graph_org.svg" target="_base">
           <rect id="button" ry="5" rx="5" y="6" x="6" height="38" width="38"
                fill="#f2f5e9" fill-opacity="0.5" stroke="#606060" stroke-width="1.0"/>
           <path id="arrow"
             d="M 11.500037,31.436501 C 11.940474,20.09759 22.043105,11.32322 32.158766,21.979434 L 37.068811,17.246167 C 37.068811,17.246167 37.088388,32 37.088388,32 L 22.160133,31.978069 C 22.160133,31.978069 26.997745,27.140456 26.997745,27.140456 C 18.528582,18.264221 13.291696,25.230495 11.500037,31.436501 z"
             style="fill:#404040;"/>
          </a>
         </g>
        </svg>
</svg>
