<?xml version="1.0" encoding="UTF-8" standalone="no"?>
<!DOCTYPE svg PUBLIC "-//W3C//DTD SVG 1.1//EN"
 "http://www.w3.org/Graphics/SVG/1.1/DTD/svg11.dtd">
<!-- Generated by graphviz version 2.40.1 (20161225.0304)
 -->
<!-- Title: amr_wind::pde::PDEFields Pages: 1 -->
<svg width="260pt" height="451pt"
 viewBox="0.00 0.00 259.50 451.00" xmlns="http://www.w3.org/2000/svg" xmlns:xlink="http://www.w3.org/1999/xlink">
<g id="graph0" class="graph" transform="scale(1 1) rotate(0) translate(4 447)">
<title>amr_wind::pde::PDEFields</title>
<polygon fill="#ffffff" stroke="transparent" points="-4,4 -4,-447 255.5,-447 255.5,4 -4,4"/>
<!-- Node1 -->
<g id="node1" class="node">
<title>Node1</title>
<polygon fill="#bfbfbf" stroke="#000000" points="74.5,-.5 74.5,-19.5 208.5,-19.5 208.5,-.5 74.5,-.5"/>
<text text-anchor="middle" x="141.5" y="-7.5" font-family="Helvetica,sans-Serif" font-size="10.00" fill="#000000">amr_wind::pde::PDEFields</text>
</g>
<!-- Node2 -->
<g id="node2" class="node">
<title>Node2</title>
<g id="a_node2"><a xlink:href="classamr__wind_1_1_field.html" target="_top" xlink:title="Computational fieldThis is an abstraction of a collection of MultiFabs over multiple levels...">
<polygon fill="#ffffff" stroke="#000000" points="165.5,-111.5 165.5,-130.5 251.5,-130.5 251.5,-111.5 165.5,-111.5"/>
<text text-anchor="middle" x="208.5" y="-118.5" font-family="Helvetica,sans-Serif" font-size="10.00" fill="#000000">amr_wind::Field</text>
</a>
</g>
</g>
<!-- Node2&#45;&gt;Node1 -->
<g id="edge1" class="edge">
<title>Node2&#45;&gt;Node1</title>
<path fill="none" stroke="#9a32cd" stroke-dasharray="5,2" d="M197.2333,-102.3342C182.837,-78.4836 158.4536,-38.0873 147.3368,-19.6699"/>
<polygon fill="#9a32cd" stroke="#9a32cd" points="194.3901,-104.3969 202.5542,-111.1495 200.383,-100.7795 194.3901,-104.3969"/>
<text text-anchor="middle" x="213.5" y="-85" font-family="Helvetica,sans-Serif" font-size="10.00" fill="#000000"> src_term</text>
<text text-anchor="middle" x="213.5" y="-74" font-family="Helvetica,sans-Serif" font-size="10.00" fill="#000000">field</text>
<text text-anchor="middle" x="213.5" y="-63" font-family="Helvetica,sans-Serif" font-size="10.00" fill="#000000">diff_term</text>
<text text-anchor="middle" x="213.5" y="-52" font-family="Helvetica,sans-Serif" font-size="10.00" fill="#000000">mueff</text>
<text text-anchor="middle" x="213.5" y="-41" font-family="Helvetica,sans-Serif" font-size="10.00" fill="#000000">conv_term</text>
</g>
<!-- Node3 -->
<g id="node3" class="node">
<title>Node3</title>
<g id="a_node3"><a xlink:title="STL class. ">
<polygon fill="#ffffff" stroke="#bfbfbf" points="155.5,-340 155.5,-359 215.5,-359 215.5,-340 155.5,-340"/>
<text text-anchor="middle" x="185.5" y="-347" font-family="Helvetica,sans-Serif" font-size="10.00" fill="#000000">std::string</text>
</a>
</g>
</g>
<!-- Node3&#45;&gt;Node2 -->
<g id="edge2" class="edge">
<title>Node3&#45;&gt;Node2</title>
<path fill="none" stroke="#9a32cd" stroke-dasharray="5,2" d="M187.4766,-329.8634C192.2129,-282.8087 204.0744,-164.9671 207.5369,-130.5681"/>
<polygon fill="#9a32cd" stroke="#9a32cd" points="183.9782,-329.6723 186.459,-339.9726 190.943,-330.3734 183.9782,-329.6723"/>
<text text-anchor="middle" x="219" y="-224.5" font-family="Helvetica,sans-Serif" font-size="10.00" fill="#000000"> m_name</text>
</g>
<!-- Node6 -->
<g id="node6" class="node">
<title>Node6</title>
<polygon fill="#ffffff" stroke="#bfbfbf" points="69.5,-256.5 69.5,-286.5 179.5,-286.5 179.5,-256.5 69.5,-256.5"/>
<text text-anchor="start" x="77.5" y="-274.5" font-family="Helvetica,sans-Serif" font-size="10.00" fill="#000000">std::unordered_map</text>
<text text-anchor="middle" x="124.5" y="-263.5" font-family="Helvetica,sans-Serif" font-size="10.00" fill="#000000">&lt; std::string, size_t &gt;</text>
</g>
<!-- Node3&#45;&gt;Node6 -->
<g id="edge6" class="edge">
<title>Node3&#45;&gt;Node6</title>
<path fill="none" stroke="#9a32cd" stroke-dasharray="5,2" d="M171.6941,-331.8466C161.0811,-318.2759 146.5706,-299.7214 136.4516,-286.7824"/>
<polygon fill="#9a32cd" stroke="#9a32cd" points="169.1028,-334.2146 178.0202,-339.9357 174.6168,-329.9023 169.1028,-334.2146"/>
<text text-anchor="middle" x="172" y="-308" font-family="Helvetica,sans-Serif" font-size="10.00" fill="#000000"> keys</text>
</g>
<!-- Node4 -->
<g id="node4" class="node">
<title>Node4</title>
<g id="a_node4"><a xlink:title="STL class. ">
<polygon fill="#ffffff" stroke="#bfbfbf" points="138,-412.5 138,-442.5 233,-442.5 233,-412.5 138,-412.5"/>
<text text-anchor="start" x="146" y="-430.5" font-family="Helvetica,sans-Serif" font-size="10.00" fill="#000000">std::basic_string&lt;</text>
<text text-anchor="middle" x="185.5" y="-419.5" font-family="Helvetica,sans-Serif" font-size="10.00" fill="#000000"> char &gt;</text>
</a>
</g>
</g>
<!-- Node4&#45;&gt;Node3 -->
<g id="edge3" class="edge">
<title>Node4&#45;&gt;Node3</title>
<path fill="none" stroke="#191970" d="M185.5,-402.3962C185.5,-387.6331 185.5,-369.8138 185.5,-359.0839"/>
<polygon fill="#191970" stroke="#191970" points="182.0001,-402.4608 185.5,-412.4608 189.0001,-402.4609 182.0001,-402.4608"/>
</g>
<!-- Node5 -->
<g id="node5" class="node">
<title>Node5</title>
<g id="a_node5"><a xlink:href="classamr__wind_1_1_field_repo.html" target="_top" xlink:title="Field RepositoryFieldRepo is a database that manages handling of fields used during a simulation...">
<polygon fill="#ffffff" stroke="#000000" points="71,-178.5 71,-197.5 180,-197.5 180,-178.5 71,-178.5"/>
<text text-anchor="middle" x="125.5" y="-185.5" font-family="Helvetica,sans-Serif" font-size="10.00" fill="#000000">amr_wind::FieldRepo</text>
</a>
</g>
</g>
<!-- Node5&#45;&gt;Node1 -->
<g id="edge10" class="edge">
<title>Node5&#45;&gt;Node1</title>
<path fill="none" stroke="#9a32cd" stroke-dasharray="5,2" d="M127.2883,-168.1053C130.7199,-129.9283 138.1124,-47.6875 140.6355,-19.6174"/>
<polygon fill="#9a32cd" stroke="#9a32cd" points="123.7696,-168.1567 126.3602,-178.4299 130.7415,-168.7835 123.7696,-168.1567"/>
<text text-anchor="middle" x="143.5" y="-118.5" font-family="Helvetica,sans-Serif" font-size="10.00" fill="#000000"> repo</text>
</g>
<!-- Node5&#45;&gt;Node2 -->
<g id="edge4" class="edge">
<title>Node5&#45;&gt;Node2</title>
<path fill="none" stroke="#9a32cd" stroke-dasharray="5,2" d="M139.7184,-170.4964C145.9789,-163.3719 153.6807,-155.3404 161.5,-149 170.0578,-142.0608 180.5102,-135.6612 189.3832,-130.737"/>
<polygon fill="#9a32cd" stroke="#9a32cd" points="136.9094,-168.3974 133.1105,-178.2877 142.2479,-172.9251 136.9094,-168.3974"/>
<text text-anchor="middle" x="179.5" y="-152" font-family="Helvetica,sans-Serif" font-size="10.00" fill="#000000"> m_repo</text>
</g>
<!-- Node6&#45;&gt;Node5 -->
<g id="edge5" class="edge">
<title>Node6&#45;&gt;Node5</title>
<path fill="none" stroke="#9a32cd" stroke-dasharray="5,2" d="M124.8042,-246.1022C125.0009,-229.6775 125.2456,-209.2426 125.3862,-197.5023"/>
<polygon fill="#9a32cd" stroke="#9a32cd" points="121.3035,-246.1436 124.6834,-256.1848 128.303,-246.2275 121.3035,-246.1436"/>
<text text-anchor="middle" x="157.5" y="-230" font-family="Helvetica,sans-Serif" font-size="10.00" fill="#000000"> m_fid_map</text>
<text text-anchor="middle" x="157.5" y="-219" font-family="Helvetica,sans-Serif" font-size="10.00" fill="#000000">m_int_fid_map</text>
</g>
<!-- Node7 -->
<g id="node7" class="node">
<title>Node7</title>
<g id="a_node7"><a xlink:title="STL class. ">
<polygon fill="#ffffff" stroke="#bfbfbf" points="0,-334.5 0,-364.5 103,-364.5 103,-334.5 0,-334.5"/>
<text text-anchor="start" x="8" y="-352.5" font-family="Helvetica,sans-Serif" font-size="10.00" fill="#000000">std::unordered_map</text>
<text text-anchor="middle" x="51.5" y="-341.5" font-family="Helvetica,sans-Serif" font-size="10.00" fill="#000000">&lt; K, T &gt;</text>
</a>
</g>
</g>
<!-- Node7&#45;&gt;Node6 -->
<g id="edge7" class="edge">
<title>Node7&#45;&gt;Node6</title>
<path fill="none" stroke="#ffa500" stroke-dasharray="5,2" d="M46.0011,-324.225C45.8133,-317.5391 46.8716,-310.6254 50.5,-305 55.545,-297.1783 62.9072,-291.163 71.0565,-286.5426"/>
<polygon fill="#ffa500" stroke="#ffa500" points="42.541,-324.7776 47.1318,-334.3262 49.4976,-323.9988 42.541,-324.7776"/>
<text text-anchor="middle" x="99" y="-308" font-family="Helvetica,sans-Serif" font-size="10.00" fill="#000000"> &lt; std::string, size_t &gt;</text>
</g>
<!-- Node8 -->
<g id="node8" class="node">
<title>Node8</title>
<polygon fill="#ffffff" stroke="#bfbfbf" points="23,-418 23,-437 52,-437 52,-418 23,-418"/>
<text text-anchor="middle" x="37.5" y="-425" font-family="Helvetica,sans-Serif" font-size="10.00" fill="#000000">K</text>
</g>
<!-- Node8&#45;&gt;Node7 -->
<g id="edge8" class="edge">
<title>Node8&#45;&gt;Node7</title>
<path fill="none" stroke="#9a32cd" stroke-dasharray="5,2" d="M36.4813,-407.5823C36.4663,-399.8425 36.9201,-390.944 38.5,-383 39.7412,-376.7589 42.0571,-370.173 44.3943,-364.5078"/>
<polygon fill="#9a32cd" stroke="#9a32cd" points="32.9898,-407.9462 36.7621,-417.8467 39.9872,-407.7547 32.9898,-407.9462"/>
<text text-anchor="middle" x="51" y="-386" font-family="Helvetica,sans-Serif" font-size="10.00" fill="#000000"> keys</text>
</g>
<!-- Node9 -->
<g id="node9" class="node">
<title>Node9</title>
<polygon fill="#ffffff" stroke="#bfbfbf" points="71,-418 71,-437 100,-437 100,-418 71,-418"/>
<text text-anchor="middle" x="85.5" y="-425" font-family="Helvetica,sans-Serif" font-size="10.00" fill="#000000">T</text>
</g>
<!-- Node9&#45;&gt;Node7 -->
<g id="edge9" class="edge">
<title>Node9&#45;&gt;Node7</title>
<path fill="none" stroke="#9a32cd" stroke-dasharray="5,2" d="M77.2927,-408.6714C71.4293,-395.2202 63.6405,-377.3517 58.1615,-364.7824"/>
<polygon fill="#9a32cd" stroke="#9a32cd" points="74.1266,-410.1673 81.3309,-417.9357 80.5435,-407.3701 74.1266,-410.1673"/>
<text text-anchor="middle" x="93" y="-386" font-family="Helvetica,sans-Serif" font-size="10.00" fill="#000000"> elements</text>
</g>
</g>
</svg>
