<?xml version="1.0" encoding="UTF-8" standalone="no"?>
<!DOCTYPE svg PUBLIC "-//W3C//DTD SVG 1.1//EN"
 "http://www.w3.org/Graphics/SVG/1.1/DTD/svg11.dtd">
<!-- Generated by graphviz version 2.40.1 (20161225.0304)
 -->
<!-- Title: amr_wind::Factory&lt; Base, Args &gt; Pages: 1 -->
<svg width="1374pt" height="644pt"
 viewBox="0.00 0.00 1374.00 643.50" xmlns="http://www.w3.org/2000/svg" xmlns:xlink="http://www.w3.org/1999/xlink">
<g id="graph0" class="graph" transform="scale(1 1) rotate(0) translate(4 639.5)">
<title>amr_wind::Factory&lt; Base, Args &gt;</title>
<polygon fill="#ffffff" stroke="transparent" points="-4,4 -4,-639.5 1370,-639.5 1370,4 -4,4"/>
<!-- Node0 -->
<g id="node1" class="node">
<title>Node0</title>
<polygon fill="#bfbfbf" stroke="#000000" points="0,-280.5 0,-310.5 104,-310.5 104,-280.5 0,-280.5"/>
<text text-anchor="start" x="8" y="-298.5" font-family="Helvetica,sans-Serif" font-size="10.00" fill="#000000">amr_wind::Factory&lt;</text>
<text text-anchor="middle" x="52" y="-287.5" font-family="Helvetica,sans-Serif" font-size="10.00" fill="#000000"> Base, Args &gt;</text>
</g>
<!-- Node1 -->
<g id="node2" class="node">
<title>Node1</title>
<g id="a_node2"><a xlink:href="structamr__wind_1_1_factory.html" target="_top" xlink:title="amr_wind::Factory\&lt;\l PDEBase, CFDSim &amp;,\l const int \&gt;">
<polygon fill="#ffffff" stroke="#000000" points="305,-586 305,-627 425,-627 425,-586 305,-586"/>
<text text-anchor="start" x="313" y="-615" font-family="Helvetica,sans-Serif" font-size="10.00" fill="#000000">amr_wind::Factory&lt;</text>
<text text-anchor="start" x="313" y="-604" font-family="Helvetica,sans-Serif" font-size="10.00" fill="#000000"> PDEBase, CFDSim &amp;,</text>
<text text-anchor="middle" x="365" y="-593" font-family="Helvetica,sans-Serif" font-size="10.00" fill="#000000"> const int &gt;</text>
</a>
</g>
</g>
<!-- Node0&#45;&gt;Node1 -->
<g id="edge1" class="edge">
<title>Node0&#45;&gt;Node1</title>
<path fill="none" stroke="#ffa500" stroke-dasharray="5,2" d="M55.0155,-321.0508C62.7607,-382.1498 85.3569,-534.1072 122,-567.5 171.1084,-612.2525 250.2154,-617.0272 304.7582,-613.8789"/>
<polygon fill="#ffa500" stroke="#ffa500" points="58.4424,-320.2438 53.742,-310.7487 51.4953,-321.1026 58.4424,-320.2438"/>
<text text-anchor="start" x="138" y="-627.5" font-family="Helvetica,sans-Serif" font-size="10.00" fill="#000000"> &lt; PDEBase, CFDSim &amp;,</text>
<text text-anchor="middle" x="194.5" y="-616.5" font-family="Helvetica,sans-Serif" font-size="10.00" fill="#000000"> const int &gt;</text>
</g>
<!-- Node3 -->
<g id="node4" class="node">
<title>Node3</title>
<g id="a_node4"><a xlink:href="structamr__wind_1_1_factory.html" target="_top" xlink:title="amr_wind::Factory\&lt;\l TemperatureSource,\l const CFDSim &amp;\&gt;">
<polygon fill="#ffffff" stroke="#000000" points="311,-526 311,-567 419,-567 419,-526 311,-526"/>
<text text-anchor="start" x="319" y="-555" font-family="Helvetica,sans-Serif" font-size="10.00" fill="#000000">amr_wind::Factory&lt;</text>
<text text-anchor="start" x="319" y="-544" font-family="Helvetica,sans-Serif" font-size="10.00" fill="#000000"> TemperatureSource,</text>
<text text-anchor="middle" x="365" y="-533" font-family="Helvetica,sans-Serif" font-size="10.00" fill="#000000"> const CFDSim &amp;&gt;</text>
</a>
</g>
</g>
<!-- Node0&#45;&gt;Node3 -->
<g id="edge3" class="edge">
<title>Node0&#45;&gt;Node3</title>
<path fill="none" stroke="#ffa500" stroke-dasharray="5,2" d="M56.7611,-320.404C67.0094,-371.3148 92.6243,-484.612 122,-509.5 149.7161,-532.9819 248.0409,-541.5953 310.8012,-544.7309"/>
<polygon fill="#ffa500" stroke="#ffa500" points="60.1844,-319.6729 54.8117,-310.5414 53.3173,-321.0303 60.1844,-319.6729"/>
<text text-anchor="start" x="144" y="-555.5" font-family="Helvetica,sans-Serif" font-size="10.00" fill="#000000"> &lt; TemperatureSource,</text>
<text text-anchor="middle" x="194.5" y="-544.5" font-family="Helvetica,sans-Serif" font-size="10.00" fill="#000000"> const CFDSim &amp;&gt;</text>
</g>
<!-- Node5 -->
<g id="node6" class="node">
<title>Node5</title>
<g id="a_node6"><a xlink:href="structamr__wind_1_1_factory.html" target="_top" xlink:title="amr_wind::Factory\&lt;\l MomentumSource, const\l CFDSim &amp;\&gt;">
<polygon fill="#ffffff" stroke="#000000" points="300.5,-466 300.5,-507 429.5,-507 429.5,-466 300.5,-466"/>
<text text-anchor="start" x="308.5" y="-495" font-family="Helvetica,sans-Serif" font-size="10.00" fill="#000000">amr_wind::Factory&lt;</text>
<text text-anchor="start" x="308.5" y="-484" font-family="Helvetica,sans-Serif" font-size="10.00" fill="#000000"> MomentumSource, const</text>
<text text-anchor="middle" x="365" y="-473" font-family="Helvetica,sans-Serif" font-size="10.00" fill="#000000"> CFDSim &amp;&gt;</text>
</a>
</g>
</g>
<!-- Node0&#45;&gt;Node5 -->
<g id="edge5" class="edge">
<title>Node0&#45;&gt;Node5</title>
<path fill="none" stroke="#ffa500" stroke-dasharray="5,2" d="M55.3517,-321.124C61.5584,-357.3893 78.4476,-422.8945 122,-455.5 149.3641,-475.9861 238.1766,-482.9677 300.4774,-485.327"/>
<polygon fill="#ffa500" stroke="#ffa500" points="58.7525,-320.2167 53.7508,-310.8768 51.8364,-321.2973 58.7525,-320.2167"/>
<text text-anchor="start" x="133.5" y="-497.5" font-family="Helvetica,sans-Serif" font-size="10.00" fill="#000000"> &lt; MomentumSource, const</text>
<text text-anchor="middle" x="194.5" y="-486.5" font-family="Helvetica,sans-Serif" font-size="10.00" fill="#000000"> CFDSim &amp;&gt;</text>
</g>
<!-- Node7 -->
<g id="node8" class="node">
<title>Node7</title>
<g id="a_node8"><a xlink:href="structamr__wind_1_1_factory.html" target="_top" xlink:title="amr_wind::Factory\&lt;\l SourceTerm, const CFDSim &amp;\&gt;">
<polygon fill="#ffffff" stroke="#000000" points="285,-416.5 285,-446.5 445,-446.5 445,-416.5 285,-416.5"/>
<text text-anchor="start" x="293" y="-434.5" font-family="Helvetica,sans-Serif" font-size="10.00" fill="#000000">amr_wind::Factory&lt;</text>
<text text-anchor="middle" x="365" y="-423.5" font-family="Helvetica,sans-Serif" font-size="10.00" fill="#000000"> SourceTerm, const CFDSim &amp;&gt;</text>
</a>
</g>
</g>
<!-- Node0&#45;&gt;Node7 -->
<g id="edge7" class="edge">
<title>Node0&#45;&gt;Node7</title>
<path fill="none" stroke="#ffa500" stroke-dasharray="5,2" d="M60.285,-320.4734C70.4035,-346.6875 90.2119,-386.7763 122,-406.5 148.4871,-422.9346 224.6791,-428.7383 284.7595,-430.701"/>
<polygon fill="#ffa500" stroke="#ffa500" points="63.486,-319.0358 56.7624,-310.8477 56.9123,-321.4415 63.486,-319.0358"/>
<text text-anchor="start" x="146.5" y="-443.5" font-family="Helvetica,sans-Serif" font-size="10.00" fill="#000000"> &lt; SourceTerm, const</text>
<text text-anchor="middle" x="194.5" y="-432.5" font-family="Helvetica,sans-Serif" font-size="10.00" fill="#000000"> CFDSim &amp;&gt;</text>
</g>
<!-- Node9 -->
<g id="node10" class="node">
<title>Node9</title>
<g id="a_node10"><a xlink:href="structamr__wind_1_1_factory.html" target="_top" xlink:title="amr_wind::Factory\&lt;\l PostProcessBase, CFDSim\l &amp;, const std::string &amp;\&gt;">
<polygon fill="#ffffff" stroke="#000000" points="293.5,-356 293.5,-397 436.5,-397 436.5,-356 293.5,-356"/>
<text text-anchor="start" x="301.5" y="-385" font-family="Helvetica,sans-Serif" font-size="10.00" fill="#000000">amr_wind::Factory&lt;</text>
<text text-anchor="start" x="301.5" y="-374" font-family="Helvetica,sans-Serif" font-size="10.00" fill="#000000"> PostProcessBase, CFDSim</text>
<text text-anchor="middle" x="365" y="-363" font-family="Helvetica,sans-Serif" font-size="10.00" fill="#000000"> &amp;, const std::string &amp;&gt;</text>
</a>
</g>
</g>
<!-- Node0&#45;&gt;Node9 -->
<g id="edge9" class="edge">
<title>Node0&#45;&gt;Node9</title>
<path fill="none" stroke="#ffa500" stroke-dasharray="5,2" d="M80.1585,-316.3382C92.4375,-324.4634 107.3538,-333.104 122,-338.5 177.4934,-358.9449 244.0668,-368.3903 293.4885,-372.7538"/>
<polygon fill="#ffa500" stroke="#ffa500" points="81.9544,-313.3262 71.7252,-310.5668 78.001,-319.1029 81.9544,-313.3262"/>
<text text-anchor="start" x="145.5" y="-394.5" font-family="Helvetica,sans-Serif" font-size="10.00" fill="#000000"> &lt; PostProcessBase,</text>
<text text-anchor="start" x="145.5" y="-383.5" font-family="Helvetica,sans-Serif" font-size="10.00" fill="#000000"> CFDSim &amp;, const std</text>
<text text-anchor="middle" x="194.5" y="-372.5" font-family="Helvetica,sans-Serif" font-size="10.00" fill="#000000">::string &amp;&gt;</text>
</g>
<!-- Node11 -->
<g id="node12" class="node">
<title>Node11</title>
<g id="a_node12"><a xlink:href="structamr__wind_1_1_factory.html" target="_top" xlink:title="amr_wind::Factory\&lt;\l SDRSource, const CFDSim &amp;\&gt;">
<polygon fill="#ffffff" stroke="#000000" points="285.5,-306.5 285.5,-336.5 444.5,-336.5 444.5,-306.5 285.5,-306.5"/>
<text text-anchor="start" x="293.5" y="-324.5" font-family="Helvetica,sans-Serif" font-size="10.00" fill="#000000">amr_wind::Factory&lt;</text>
<text text-anchor="middle" x="365" y="-313.5" font-family="Helvetica,sans-Serif" font-size="10.00" fill="#000000"> SDRSource, const CFDSim &amp;&gt;</text>
</a>
</g>
</g>
<!-- Node0&#45;&gt;Node11 -->
<g id="edge11" class="edge">
<title>Node0&#45;&gt;Node11</title>
<path fill="none" stroke="#ffa500" stroke-dasharray="5,2" d="M114.1971,-300.6665C163.2731,-304.7431 232.0779,-310.4586 285.2102,-314.8721"/>
<polygon fill="#ffa500" stroke="#ffa500" points="114.2924,-297.1625 104.0369,-299.8226 113.7129,-304.1385 114.2924,-297.1625"/>
<text text-anchor="start" x="147" y="-326.5" font-family="Helvetica,sans-Serif" font-size="10.00" fill="#000000"> &lt; SDRSource, const</text>
<text text-anchor="middle" x="194.5" y="-315.5" font-family="Helvetica,sans-Serif" font-size="10.00" fill="#000000"> CFDSim &amp;&gt;</text>
</g>
<!-- Node13 -->
<g id="node14" class="node">
<title>Node13</title>
<g id="a_node14"><a xlink:href="structamr__wind_1_1_factory.html" target="_top" xlink:title="amr_wind::Factory\&lt;\l TurbulenceModel, CFDSim &amp;\&gt;">
<polygon fill="#ffffff" stroke="#000000" points="288,-257.5 288,-287.5 442,-287.5 442,-257.5 288,-257.5"/>
<text text-anchor="start" x="296" y="-275.5" font-family="Helvetica,sans-Serif" font-size="10.00" fill="#000000">amr_wind::Factory&lt;</text>
<text text-anchor="middle" x="365" y="-264.5" font-family="Helvetica,sans-Serif" font-size="10.00" fill="#000000"> TurbulenceModel, CFDSim &amp;&gt;</text>
</a>
</g>
</g>
<!-- Node0&#45;&gt;Node13 -->
<g id="edge13" class="edge">
<title>Node0&#45;&gt;Node13</title>
<path fill="none" stroke="#ffa500" stroke-dasharray="5,2" d="M111.4235,-278.2975C114.984,-277.6015 118.5285,-276.9919 122,-276.5 177.0398,-268.7015 239.789,-267.8705 287.7344,-268.901"/>
<polygon fill="#ffa500" stroke="#ffa500" points="110.4312,-274.931 101.3944,-280.4614 111.9076,-281.7735 110.4312,-274.931"/>
<text text-anchor="start" x="149.5" y="-290.5" font-family="Helvetica,sans-Serif" font-size="10.00" fill="#000000"> &lt; TurbulenceModel,</text>
<text text-anchor="middle" x="194.5" y="-279.5" font-family="Helvetica,sans-Serif" font-size="10.00" fill="#000000"> CFDSim &amp;&gt;</text>
</g>
<!-- Node22 -->
<g id="node23" class="node">
<title>Node22</title>
<g id="a_node23"><a xlink:href="structamr__wind_1_1_factory.html" target="_top" xlink:title="amr_wind::Factory\&lt;\l OversetManager, CFDSim &amp;\&gt;">
<polygon fill="#ffffff" stroke="#000000" points="289,-208.5 289,-238.5 441,-238.5 441,-208.5 289,-208.5"/>
<text text-anchor="start" x="297" y="-226.5" font-family="Helvetica,sans-Serif" font-size="10.00" fill="#000000">amr_wind::Factory&lt;</text>
<text text-anchor="middle" x="365" y="-215.5" font-family="Helvetica,sans-Serif" font-size="10.00" fill="#000000"> OversetManager, CFDSim &amp;&gt;</text>
</a>
</g>
</g>
<!-- Node0&#45;&gt;Node22 -->
<g id="edge22" class="edge">
<title>Node0&#45;&gt;Node22</title>
<path fill="none" stroke="#ffa500" stroke-dasharray="5,2" d="M80.4113,-274.7534C92.6354,-266.834 107.4429,-258.5126 122,-253.5 175.8569,-234.9547 239.9111,-227.6044 288.7313,-224.8105"/>
<polygon fill="#ffa500" stroke="#ffa500" points="78.3587,-271.9158 72.0074,-280.3959 82.2607,-277.7274 78.3587,-271.9158"/>
<text text-anchor="middle" x="194.5" y="-256.5" font-family="Helvetica,sans-Serif" font-size="10.00" fill="#000000"> &lt; OversetManager, CFDSim &amp;&gt;</text>
</g>
<!-- Node24 -->
<g id="node25" class="node">
<title>Node24</title>
<g id="a_node25"><a xlink:href="structamr__wind_1_1_factory.html" target="_top" xlink:title="amr_wind::Factory\&lt;\l Physics, CFDSim &amp;\&gt;">
<polygon fill="#ffffff" stroke="#000000" points="307.5,-159.5 307.5,-189.5 422.5,-189.5 422.5,-159.5 307.5,-159.5"/>
<text text-anchor="start" x="315.5" y="-177.5" font-family="Helvetica,sans-Serif" font-size="10.00" fill="#000000">amr_wind::Factory&lt;</text>
<text text-anchor="middle" x="365" y="-166.5" font-family="Helvetica,sans-Serif" font-size="10.00" fill="#000000"> Physics, CFDSim &amp;&gt;</text>
</a>
</g>
</g>
<!-- Node0&#45;&gt;Node24 -->
<g id="edge24" class="edge">
<title>Node0&#45;&gt;Node24</title>
<path fill="none" stroke="#ffa500" stroke-dasharray="5,2" d="M65.0498,-271.8347C77.1459,-252.3036 97.021,-225.5899 122,-211.5 179.2394,-179.213 255.5489,-172.3819 307.2711,-172.0639"/>
<polygon fill="#ffa500" stroke="#ffa500" points="62.0026,-270.1112 59.8987,-280.4951 68.0189,-273.6896 62.0026,-270.1112"/>
<text text-anchor="middle" x="194.5" y="-214.5" font-family="Helvetica,sans-Serif" font-size="10.00" fill="#000000"> &lt; Physics, CFDSim &amp;&gt;</text>
</g>
<!-- Node26 -->
<g id="node27" class="node">
<title>Node26</title>
<g id="a_node27"><a xlink:href="structamr__wind_1_1_factory.html" target="_top" xlink:title="amr_wind::Factory\&lt;\l SamplerBase, CFDSim &amp;\&gt;">
<polygon fill="#ffffff" stroke="#000000" points="296,-110.5 296,-140.5 434,-140.5 434,-110.5 296,-110.5"/>
<text text-anchor="start" x="304" y="-128.5" font-family="Helvetica,sans-Serif" font-size="10.00" fill="#000000">amr_wind::Factory&lt;</text>
<text text-anchor="middle" x="365" y="-117.5" font-family="Helvetica,sans-Serif" font-size="10.00" fill="#000000"> SamplerBase, CFDSim &amp;&gt;</text>
</a>
</g>
</g>
<!-- Node0&#45;&gt;Node26 -->
<g id="edge26" class="edge">
<title>Node0&#45;&gt;Node26</title>
<path fill="none" stroke="#ffa500" stroke-dasharray="5,2" d="M57.3596,-270.2808C65.503,-238.6392 84.2175,-185.2856 122,-158.5 172.3615,-122.7966 243.6311,-116.9515 295.9672,-118.5951"/>
<polygon fill="#ffa500" stroke="#ffa500" points="53.9313,-269.5677 54.9909,-280.1094 60.7365,-271.2078 53.9313,-269.5677"/>
<text text-anchor="middle" x="194.5" y="-161.5" font-family="Helvetica,sans-Serif" font-size="10.00" fill="#000000"> &lt; SamplerBase, CFDSim &amp;&gt;</text>
</g>
<!-- Node28 -->
<g id="node29" class="node">
<title>Node28</title>
<g id="a_node29"><a xlink:href="structamr__wind_1_1_factory.html" target="_top" xlink:title="amr_wind::Factory\&lt;\l DensitySource, const\l CFDSim &amp;\&gt;">
<polygon fill="#ffffff" stroke="#000000" points="308,-50 308,-91 422,-91 422,-50 308,-50"/>
<text text-anchor="start" x="316" y="-79" font-family="Helvetica,sans-Serif" font-size="10.00" fill="#000000">amr_wind::Factory&lt;</text>
<text text-anchor="start" x="316" y="-68" font-family="Helvetica,sans-Serif" font-size="10.00" fill="#000000"> DensitySource, const</text>
<text text-anchor="middle" x="365" y="-57" font-family="Helvetica,sans-Serif" font-size="10.00" fill="#000000"> CFDSim &amp;&gt;</text>
</a>
</g>
</g>
<!-- Node0&#45;&gt;Node28 -->
<g id="edge28" class="edge">
<title>Node0&#45;&gt;Node28</title>
<path fill="none" stroke="#ffa500" stroke-dasharray="5,2" d="M57.1264,-270.3683C67.7019,-221.1602 93.3604,-114.9352 122,-92.5 149.9277,-70.6225 245.3388,-67.9555 307.9689,-68.726"/>
<polygon fill="#ffa500" stroke="#ffa500" points="53.6869,-269.7166 55.0468,-280.2238 60.5361,-271.1618 53.6869,-269.7166"/>
<text text-anchor="start" x="141" y="-106.5" font-family="Helvetica,sans-Serif" font-size="10.00" fill="#000000"> &lt; DensitySource, const</text>
<text text-anchor="middle" x="194.5" y="-95.5" font-family="Helvetica,sans-Serif" font-size="10.00" fill="#000000"> CFDSim &amp;&gt;</text>
</g>
<!-- Node30 -->
<g id="node31" class="node">
<title>Node30</title>
<g id="a_node31"><a xlink:href="structamr__wind_1_1_factory.html" target="_top" xlink:title="amr_wind::Factory\&lt;\l TKESource, const CFDSim &amp;\&gt;">
<polygon fill="#ffffff" stroke="#000000" points="286.5,-.5 286.5,-30.5 443.5,-30.5 443.5,-.5 286.5,-.5"/>
<text text-anchor="start" x="294.5" y="-18.5" font-family="Helvetica,sans-Serif" font-size="10.00" fill="#000000">amr_wind::Factory&lt;</text>
<text text-anchor="middle" x="365" y="-7.5" font-family="Helvetica,sans-Serif" font-size="10.00" fill="#000000"> TKESource, const CFDSim &amp;&gt;</text>
</a>
</g>
</g>
<!-- Node0&#45;&gt;Node30 -->
<g id="edge30" class="edge">
<title>Node0&#45;&gt;Node30</title>
<path fill="none" stroke="#ffa500" stroke-dasharray="5,2" d="M55.4136,-270.0428C63.7493,-211.9419 87.0506,-72.2834 122,-42.5 166.6647,-4.4372 233.9571,.3891 286.4114,-3.2237"/>
<polygon fill="#ffa500" stroke="#ffa500" points="51.9108,-269.82 53.9893,-280.2089 58.8431,-270.7913 51.9108,-269.82"/>
<text text-anchor="start" x="148" y="-56.5" font-family="Helvetica,sans-Serif" font-size="10.00" fill="#000000"> &lt; TKESource, const</text>
<text text-anchor="middle" x="194.5" y="-45.5" font-family="Helvetica,sans-Serif" font-size="10.00" fill="#000000"> CFDSim &amp;&gt;</text>
</g>
<!-- Node2 -->
<g id="node3" class="node">
<title>Node2</title>
<g id="a_node3"><a xlink:href="classamr__wind_1_1pde_1_1_p_d_e_base.html" target="_top" xlink:title="Abstract interface defining a PDE and its solution process withn AMR&#45;WindThe exact behavior is implem...">
<polygon fill="#ffffff" stroke="#000000" points="500,-597 500,-616 630,-616 630,-597 500,-597"/>
<text text-anchor="middle" x="565" y="-604" font-family="Helvetica,sans-Serif" font-size="10.00" fill="#000000">amr_wind::pde::PDEBase</text>
</a>
</g>
</g>
<!-- Node1&#45;&gt;Node2 -->
<g id="edge2" class="edge">
<title>Node1&#45;&gt;Node2</title>
<path fill="none" stroke="#191970" d="M435.15,-606.5C456.167,-606.5 479.1205,-606.5 499.8044,-606.5"/>
<polygon fill="#191970" stroke="#191970" points="435.0066,-603.0001 425.0066,-606.5 435.0066,-610.0001 435.0066,-603.0001"/>
</g>
<!-- Node4 -->
<g id="node5" class="node">
<title>Node4</title>
<g id="a_node5"><a xlink:href="classamr__wind_1_1pde_1_1_temperature_source.html" target="_top" xlink:title="Representation of a temperature source termAll temperature source terms must inherit from this class...">
<polygon fill="#ffffff" stroke="#000000" points="494.5,-531.5 494.5,-561.5 635.5,-561.5 635.5,-531.5 494.5,-531.5"/>
<text text-anchor="start" x="502.5" y="-549.5" font-family="Helvetica,sans-Serif" font-size="10.00" fill="#000000">amr_wind::pde::Temperature</text>
<text text-anchor="middle" x="565" y="-538.5" font-family="Helvetica,sans-Serif" font-size="10.00" fill="#000000">Source</text>
</a>
</g>
</g>
<!-- Node3&#45;&gt;Node4 -->
<g id="edge4" class="edge">
<title>Node3&#45;&gt;Node4</title>
<path fill="none" stroke="#191970" d="M429.3966,-546.5C450.1026,-546.5 473.1509,-546.5 494.2852,-546.5"/>
<polygon fill="#191970" stroke="#191970" points="429.1229,-543.0001 419.1229,-546.5 429.1228,-550.0001 429.1229,-543.0001"/>
</g>
<!-- Node6 -->
<g id="node7" class="node">
<title>Node6</title>
<g id="a_node7"><a xlink:href="classamr__wind_1_1pde_1_1_momentum_source.html" target="_top" xlink:title="Representation of a momentum source termAll momentum source terms must inherit from this class...">
<polygon fill="#ffffff" stroke="#000000" points="482,-477 482,-496 648,-496 648,-477 482,-477"/>
<text text-anchor="middle" x="565" y="-484" font-family="Helvetica,sans-Serif" font-size="10.00" fill="#000000">amr_wind::pde::MomentumSource</text>
</a>
</g>
</g>
<!-- Node5&#45;&gt;Node6 -->
<g id="edge6" class="edge">
<title>Node5&#45;&gt;Node6</title>
<path fill="none" stroke="#191970" d="M439.9792,-486.5C453.6708,-486.5 468.0311,-486.5 481.941,-486.5"/>
<polygon fill="#191970" stroke="#191970" points="439.6581,-483.0001 429.6581,-486.5 439.658,-490.0001 439.6581,-483.0001"/>
</g>
<!-- Node8 -->
<g id="node9" class="node">
<title>Node8</title>
<g id="a_node9"><a xlink:href="classamr__wind_1_1pde_1_1_source_term.html" target="_top" xlink:title="Abstract representation of a source term. ">
<polygon fill="#ffffff" stroke="#000000" points="495,-422 495,-441 635,-441 635,-422 495,-422"/>
<text text-anchor="middle" x="565" y="-429" font-family="Helvetica,sans-Serif" font-size="10.00" fill="#000000">amr_wind::pde::SourceTerm</text>
</a>
</g>
</g>
<!-- Node7&#45;&gt;Node8 -->
<g id="edge8" class="edge">
<title>Node7&#45;&gt;Node8</title>
<path fill="none" stroke="#191970" d="M455.2712,-431.5C468.5265,-431.5 482.0119,-431.5 494.7841,-431.5"/>
<polygon fill="#191970" stroke="#191970" points="455.1953,-428.0001 445.1953,-431.5 455.1952,-435.0001 455.1953,-428.0001"/>
</g>
<!-- Node10 -->
<g id="node11" class="node">
<title>Node10</title>
<g id="a_node11"><a xlink:href="classamr__wind_1_1_post_process_base.html" target="_top" xlink:title="Abstract representation of a post&#45;processing utilityProvides an interface for a runtime&#45;selectable po...">
<polygon fill="#ffffff" stroke="#000000" points="493.5,-367 493.5,-386 636.5,-386 636.5,-367 493.5,-367"/>
<text text-anchor="middle" x="565" y="-374" font-family="Helvetica,sans-Serif" font-size="10.00" fill="#000000">amr_wind::PostProcessBase</text>
</a>
</g>
</g>
<!-- Node9&#45;&gt;Node10 -->
<g id="edge10" class="edge">
<title>Node9&#45;&gt;Node10</title>
<path fill="none" stroke="#191970" d="M446.6676,-376.5C462.084,-376.5 478.1022,-376.5 493.1883,-376.5"/>
<polygon fill="#191970" stroke="#191970" points="446.6397,-373.0001 436.6397,-376.5 446.6396,-380.0001 446.6397,-373.0001"/>
</g>
<!-- Node12 -->
<g id="node13" class="node">
<title>Node12</title>
<g id="a_node13"><a xlink:href="classamr__wind_1_1pde_1_1_s_d_r_source.html" target="_top" xlink:title="amr_wind::pde::SDRSource">
<polygon fill="#ffffff" stroke="#000000" points="495.5,-312 495.5,-331 634.5,-331 634.5,-312 495.5,-312"/>
<text text-anchor="middle" x="565" y="-319" font-family="Helvetica,sans-Serif" font-size="10.00" fill="#000000">amr_wind::pde::SDRSource</text>
</a>
</g>
</g>
<!-- Node11&#45;&gt;Node12 -->
<g id="edge12" class="edge">
<title>Node11&#45;&gt;Node12</title>
<path fill="none" stroke="#191970" d="M454.9248,-321.5C468.4859,-321.5 482.2966,-321.5 495.3458,-321.5"/>
<polygon fill="#191970" stroke="#191970" points="454.62,-318.0001 444.62,-321.5 454.6199,-325.0001 454.62,-318.0001"/>
</g>
<!-- Node14 -->
<g id="node15" class="node">
<title>Node14</title>
<g id="a_node15"><a xlink:href="classamr__wind_1_1turbulence_1_1_turbulence_model.html" target="_top" xlink:title="Abstract representation of a turbulence modelThis class is an abstract representation of a turbulence...">
<polygon fill="#ffffff" stroke="#000000" points="510,-257.5 510,-287.5 620,-287.5 620,-257.5 510,-257.5"/>
<text text-anchor="start" x="518" y="-275.5" font-family="Helvetica,sans-Serif" font-size="10.00" fill="#000000">amr_wind::turbulence</text>
<text text-anchor="middle" x="565" y="-264.5" font-family="Helvetica,sans-Serif" font-size="10.00" fill="#000000">::TurbulenceModel</text>
</a>
</g>
</g>
<!-- Node13&#45;&gt;Node14 -->
<g id="edge14" class="edge">
<title>Node13&#45;&gt;Node14</title>
<path fill="none" stroke="#191970" d="M452.1774,-272.5C471.7112,-272.5 491.9087,-272.5 509.7218,-272.5"/>
<polygon fill="#191970" stroke="#191970" points="452.0392,-269.0001 442.0391,-272.5 452.0391,-276.0001 452.0392,-269.0001"/>
</g>
<!-- Node15 -->
<g id="node16" class="node">
<title>Node15</title>
<g id="a_node16"><a xlink:href="classamr__wind_1_1turbulence_1_1_turb_model.html" target="_top" xlink:title="Turbulence model with a specific transport modelThis templated class allows turbulence model to be sp...">
<polygon fill="#ffffff" stroke="#000000" points="685,-257.5 685,-287.5 813,-287.5 813,-257.5 685,-257.5"/>
<text text-anchor="start" x="693" y="-275.5" font-family="Helvetica,sans-Serif" font-size="10.00" fill="#000000">amr_wind::turbulence</text>
<text text-anchor="middle" x="749" y="-264.5" font-family="Helvetica,sans-Serif" font-size="10.00" fill="#000000">::TurbModel&lt; Transport &gt;</text>
</a>
</g>
</g>
<!-- Node14&#45;&gt;Node15 -->
<g id="edge15" class="edge">
<title>Node14&#45;&gt;Node15</title>
<path fill="none" stroke="#191970" d="M630.419,-272.5C648.0829,-272.5 667.177,-272.5 684.7749,-272.5"/>
<polygon fill="#191970" stroke="#191970" points="630.2061,-269.0001 620.2061,-272.5 630.206,-276.0001 630.2061,-269.0001"/>
</g>
<!-- Node16 -->
<g id="node17" class="node">
<title>Node16</title>
<g id="a_node17"><a xlink:href="classamr__wind_1_1turbulence_1_1_laminar.html" target="_top" xlink:title="Laminar modelImplementation of laminar flow model. ">
<polygon fill="#ffffff" stroke="#000000" points="867,-282.5 867,-312.5 983,-312.5 983,-282.5 867,-282.5"/>
<text text-anchor="start" x="875" y="-300.5" font-family="Helvetica,sans-Serif" font-size="10.00" fill="#000000">amr_wind::turbulence</text>
<text text-anchor="middle" x="925" y="-289.5" font-family="Helvetica,sans-Serif" font-size="10.00" fill="#000000">::Laminar&lt; Transport &gt;</text>
</a>
</g>
</g>
<!-- Node15&#45;&gt;Node16 -->
<g id="edge16" class="edge">
<title>Node15&#45;&gt;Node16</title>
<path fill="none" stroke="#191970" d="M823.0595,-283.0198C837.6864,-285.0975 852.8406,-287.2501 866.8499,-289.24"/>
<polygon fill="#191970" stroke="#191970" points="823.4308,-279.5375 813.0379,-281.5963 822.4463,-286.4679 823.4308,-279.5375"/>
</g>
<!-- Node17 -->
<g id="node18" class="node">
<title>Node17</title>
<g id="a_node18"><a xlink:href="classamr__wind_1_1turbulence_1_1_turb_model_base.html" target="_top" xlink:title="Turbulence model aspects common to both LES and RANS modelsThis class implements more of the common m...">
<polygon fill="#ffffff" stroke="#000000" points="850,-233.5 850,-263.5 1000,-263.5 1000,-233.5 850,-233.5"/>
<text text-anchor="start" x="858" y="-251.5" font-family="Helvetica,sans-Serif" font-size="10.00" fill="#000000">amr_wind::turbulence</text>
<text text-anchor="middle" x="925" y="-240.5" font-family="Helvetica,sans-Serif" font-size="10.00" fill="#000000">::TurbModelBase&lt; Transport &gt;</text>
</a>
</g>
</g>
<!-- Node15&#45;&gt;Node17 -->
<g id="edge17" class="edge">
<title>Node15&#45;&gt;Node17</title>
<path fill="none" stroke="#191970" d="M822.9982,-262.4093C831.9121,-261.1938 841.0227,-259.9515 849.9514,-258.7339"/>
<polygon fill="#191970" stroke="#191970" points="822.4733,-258.9484 813.0379,-263.7676 823.4191,-265.8842 822.4733,-258.9484"/>
</g>
<!-- Node18 -->
<g id="node19" class="node">
<title>Node18</title>
<g id="a_node19"><a xlink:href="classamr__wind_1_1turbulence_1_1_one_eq_ksgs.html" target="_top" xlink:title="Base class for 1&#45;Equation subgrid scale TKE turbulence model. ">
<polygon fill="#ffffff" stroke="#000000" points="1039.5,-270.5 1039.5,-300.5 1173.5,-300.5 1173.5,-270.5 1039.5,-270.5"/>
<text text-anchor="start" x="1047.5" y="-288.5" font-family="Helvetica,sans-Serif" font-size="10.00" fill="#000000">amr_wind::turbulence</text>
<text text-anchor="middle" x="1106.5" y="-277.5" font-family="Helvetica,sans-Serif" font-size="10.00" fill="#000000">::OneEqKsgs&lt; Transport &gt;</text>
</a>
</g>
</g>
<!-- Node17&#45;&gt;Node18 -->
<g id="edge18" class="edge">
<title>Node17&#45;&gt;Node18</title>
<path fill="none" stroke="#191970" d="M1008.6649,-265.5557C1018.9878,-267.6601 1029.4337,-269.7895 1039.464,-271.8343"/>
<polygon fill="#191970" stroke="#191970" points="1009.3206,-262.1174 998.823,-263.5493 1007.9223,-268.9763 1009.3206,-262.1174"/>
</g>
<!-- Node21 -->
<g id="node22" class="node">
<title>Node21</title>
<g id="a_node22"><a xlink:href="classamr__wind_1_1turbulence_1_1_smagorinsky.html" target="_top" xlink:title="Smagorinsky LES Model. ">
<polygon fill="#ffffff" stroke="#000000" points="1037,-221.5 1037,-251.5 1176,-251.5 1176,-221.5 1037,-221.5"/>
<text text-anchor="start" x="1045" y="-239.5" font-family="Helvetica,sans-Serif" font-size="10.00" fill="#000000">amr_wind::turbulence</text>
<text text-anchor="middle" x="1106.5" y="-228.5" font-family="Helvetica,sans-Serif" font-size="10.00" fill="#000000">::Smagorinsky&lt; Transport &gt;</text>
</a>
</g>
</g>
<!-- Node17&#45;&gt;Node21 -->
<g id="edge21" class="edge">
<title>Node17&#45;&gt;Node21</title>
<path fill="none" stroke="#191970" d="M1010.2013,-242.8669C1019.1626,-242.2744 1028.1964,-241.6771 1036.9513,-241.0983"/>
<polygon fill="#191970" stroke="#191970" points="1009.8804,-239.3803 1000.1332,-243.5325 1010.3423,-246.3651 1009.8804,-239.3803"/>
</g>
<!-- Node19 -->
<g id="node20" class="node">
<title>Node19</title>
<g id="a_node20"><a xlink:href="classamr__wind_1_1turbulence_1_1_one_eq_ksgs_m84.html" target="_top" xlink:title="amr_wind::turbulence\l::OneEqKsgsM84\&lt; Transport \&gt;">
<polygon fill="#ffffff" stroke="#000000" points="1213,-294.5 1213,-324.5 1366,-324.5 1366,-294.5 1213,-294.5"/>
<text text-anchor="start" x="1221" y="-312.5" font-family="Helvetica,sans-Serif" font-size="10.00" fill="#000000">amr_wind::turbulence</text>
<text text-anchor="middle" x="1289.5" y="-301.5" font-family="Helvetica,sans-Serif" font-size="10.00" fill="#000000">::OneEqKsgsM84&lt; Transport &gt;</text>
</a>
</g>
</g>
<!-- Node18&#45;&gt;Node19 -->
<g id="edge19" class="edge">
<title>Node18&#45;&gt;Node19</title>
<path fill="none" stroke="#191970" d="M1183.5827,-295.6092C1193.2533,-296.8775 1203.1444,-298.1747 1212.8091,-299.4422"/>
<polygon fill="#191970" stroke="#191970" points="1183.9736,-292.1306 1173.6033,-294.3004 1183.0633,-299.0711 1183.9736,-292.1306"/>
</g>
<!-- Node20 -->
<g id="node21" class="node">
<title>Node20</title>
<g id="a_node21"><a xlink:href="classamr__wind_1_1turbulence_1_1_one_eq_ksgs_s94.html" target="_top" xlink:title="amr_wind::turbulence\l::OneEqKsgsS94\&lt; Transport \&gt;">
<polygon fill="#ffffff" stroke="#000000" points="1213.5,-245.5 1213.5,-275.5 1365.5,-275.5 1365.5,-245.5 1213.5,-245.5"/>
<text text-anchor="start" x="1221.5" y="-263.5" font-family="Helvetica,sans-Serif" font-size="10.00" fill="#000000">amr_wind::turbulence</text>
<text text-anchor="middle" x="1289.5" y="-252.5" font-family="Helvetica,sans-Serif" font-size="10.00" fill="#000000">::OneEqKsgsS94&lt; Transport &gt;</text>
</a>
</g>
</g>
<!-- Node18&#45;&gt;Node20 -->
<g id="edge20" class="edge">
<title>Node18&#45;&gt;Node20</title>
<path fill="none" stroke="#191970" d="M1183.7439,-274.9476C1193.5718,-273.6049 1203.6246,-272.2316 1213.4338,-270.8916"/>
<polygon fill="#191970" stroke="#191970" points="1183.0375,-271.5115 1173.6033,-276.3329 1183.9851,-278.447 1183.0375,-271.5115"/>
</g>
<!-- Node23 -->
<g id="node24" class="node">
<title>Node23</title>
<g id="a_node24"><a xlink:href="classamr__wind_1_1_overset_manager.html" target="_top" xlink:title="Overset interface manager. ">
<polygon fill="#ffffff" stroke="#000000" points="496.5,-214 496.5,-233 633.5,-233 633.5,-214 496.5,-214"/>
<text text-anchor="middle" x="565" y="-221" font-family="Helvetica,sans-Serif" font-size="10.00" fill="#000000">amr_wind::OversetManager</text>
</a>
</g>
</g>
<!-- Node22&#45;&gt;Node23 -->
<g id="edge23" class="edge">
<title>Node22&#45;&gt;Node23</title>
<path fill="none" stroke="#191970" d="M451.4652,-223.5C466.4384,-223.5 481.824,-223.5 496.2457,-223.5"/>
<polygon fill="#191970" stroke="#191970" points="451.182,-220.0001 441.182,-223.5 451.1819,-227.0001 451.182,-220.0001"/>
</g>
<!-- Node25 -->
<g id="node26" class="node">
<title>Node25</title>
<g id="a_node26"><a xlink:href="classamr__wind_1_1_physics.html" target="_top" xlink:title="Abstract representation of different physicsThis class defines an abstract API that represents the no...">
<polygon fill="#ffffff" stroke="#000000" points="515,-165 515,-184 615,-184 615,-165 515,-165"/>
<text text-anchor="middle" x="565" y="-172" font-family="Helvetica,sans-Serif" font-size="10.00" fill="#000000">amr_wind::Physics</text>
</a>
</g>
</g>
<!-- Node24&#45;&gt;Node25 -->
<g id="edge25" class="edge">
<title>Node24&#45;&gt;Node25</title>
<path fill="none" stroke="#191970" d="M432.7111,-174.5C459.6415,-174.5 490.0717,-174.5 514.9514,-174.5"/>
<polygon fill="#191970" stroke="#191970" points="432.58,-171.0001 422.58,-174.5 432.5799,-178.0001 432.58,-171.0001"/>
</g>
<!-- Node27 -->
<g id="node28" class="node">
<title>Node27</title>
<g id="a_node28"><a xlink:href="classamr__wind_1_1sampling_1_1_sampler_base.html" target="_top" xlink:title="Abstract representation of data probes to sample flow dataThis class defines the interface by which t...">
<polygon fill="#ffffff" stroke="#000000" points="513,-110.5 513,-140.5 617,-140.5 617,-110.5 513,-110.5"/>
<text text-anchor="start" x="521" y="-128.5" font-family="Helvetica,sans-Serif" font-size="10.00" fill="#000000">amr_wind::sampling</text>
<text text-anchor="middle" x="565" y="-117.5" font-family="Helvetica,sans-Serif" font-size="10.00" fill="#000000">::SamplerBase</text>
</a>
</g>
</g>
<!-- Node26&#45;&gt;Node27 -->
<g id="edge27" class="edge">
<title>Node26&#45;&gt;Node27</title>
<path fill="none" stroke="#191970" d="M444.2431,-125.5C467.3379,-125.5 491.9777,-125.5 512.9373,-125.5"/>
<polygon fill="#191970" stroke="#191970" points="444.1087,-122.0001 434.1087,-125.5 444.1087,-129.0001 444.1087,-122.0001"/>
</g>
<!-- Node29 -->
<g id="node30" class="node">
<title>Node29</title>
<g id="a_node30"><a xlink:href="classamr__wind_1_1pde_1_1_density_source.html" target="_top" xlink:title="amr_wind::pde::DensitySource">
<polygon fill="#ffffff" stroke="#000000" points="489.5,-61 489.5,-80 640.5,-80 640.5,-61 489.5,-61"/>
<text text-anchor="middle" x="565" y="-68" font-family="Helvetica,sans-Serif" font-size="10.00" fill="#000000">amr_wind::pde::DensitySource</text>
</a>
</g>
</g>
<!-- Node28&#45;&gt;Node29 -->
<g id="edge29" class="edge">
<title>Node28&#45;&gt;Node29</title>
<path fill="none" stroke="#191970" d="M432.0482,-70.5C450.3969,-70.5 470.4118,-70.5 489.212,-70.5"/>
<polygon fill="#191970" stroke="#191970" points="432.0444,-67.0001 422.0443,-70.5 432.0443,-74.0001 432.0444,-67.0001"/>
</g>
<!-- Node31 -->
<g id="node32" class="node">
<title>Node31</title>
<g id="a_node32"><a xlink:href="classamr__wind_1_1pde_1_1_t_k_e_source.html" target="_top" xlink:title="amr_wind::pde::TKESource">
<polygon fill="#ffffff" stroke="#000000" points="496.5,-6 496.5,-25 633.5,-25 633.5,-6 496.5,-6"/>
<text text-anchor="middle" x="565" y="-13" font-family="Helvetica,sans-Serif" font-size="10.00" fill="#000000">amr_wind::pde::TKESource</text>
</a>
</g>
</g>
<!-- Node30&#45;&gt;Node31 -->
<g id="edge31" class="edge">
<title>Node30&#45;&gt;Node31</title>
<path fill="none" stroke="#191970" d="M454.0282,-15.5C468.2277,-15.5 482.7258,-15.5 496.3588,-15.5"/>
<polygon fill="#191970" stroke="#191970" points="453.7582,-12.0001 443.7582,-15.5 453.7582,-19.0001 453.7582,-12.0001"/>
</g>
</g>
</svg>
