<?xml version="1.0" encoding="UTF-8" standalone="no"?>
<!DOCTYPE svg PUBLIC "-//W3C//DTD SVG 1.1//EN"
 "http://www.w3.org/Graphics/SVG/1.1/DTD/svg11.dtd">
<!-- Generated by graphviz version 2.40.1 (20161225.0304)
 -->
<!-- Title: amr_wind::pde::FieldRegOp&lt; ICNS, Scheme &gt; Pages: 1 -->
<svg width="2200pt" height="567pt"
 viewBox="0.00 0.00 2200.00 567.00" xmlns="http://www.w3.org/2000/svg" xmlns:xlink="http://www.w3.org/1999/xlink">
<g id="graph0" class="graph" transform="scale(1 1) rotate(0) translate(4 563)">
<title>amr_wind::pde::FieldRegOp&lt; ICNS, Scheme &gt;</title>
<polygon fill="#ffffff" stroke="transparent" points="-4,4 -4,-563 2196,-563 2196,4 -4,4"/>
<!-- Node1 -->
<g id="node1" class="node">
<title>Node1</title>
<polygon fill="#bfbfbf" stroke="#000000" points="1842,-87 1842,-117 1980,-117 1980,-87 1842,-87"/>
<text text-anchor="start" x="1850" y="-105" font-family="Helvetica,sans-Serif" font-size="10.00" fill="#000000">amr_wind::pde::FieldRegOp</text>
<text text-anchor="middle" x="1911" y="-94" font-family="Helvetica,sans-Serif" font-size="10.00" fill="#000000">&lt; ICNS, Scheme &gt;</text>
</g>
<!-- Node2 -->
<g id="node2" class="node">
<title>Node2</title>
<g id="a_node2"><a xlink:href="classamr__wind_1_1_c_f_d_sim.html" target="_top" xlink:title="Data structures for a CFD simulationCFDSim represents the amr&#45;wind execution environment and manages ...">
<polygon fill="#ffffff" stroke="#000000" points="1608,-226.5 1608,-245.5 1711,-245.5 1711,-226.5 1608,-226.5"/>
<text text-anchor="middle" x="1659.5" y="-233.5" font-family="Helvetica,sans-Serif" font-size="10.00" fill="#000000">amr_wind::CFDSim</text>
</a>
</g>
</g>
<!-- Node2&#45;&gt;Node1 -->
<g id="edge1" class="edge">
<title>Node2&#45;&gt;Node1</title>
<path fill="none" stroke="#9a32cd" stroke-dasharray="5,2" d="M1670.9344,-217.6741C1687.2597,-193.1936 1719.6675,-150.4236 1759,-129 1784.0669,-115.3466 1814.5838,-108.3803 1841.6779,-104.9004"/>
<polygon fill="#9a32cd" stroke="#9a32cd" points="1667.8048,-216.0677 1665.3048,-226.3634 1673.6796,-219.8739 1667.8048,-216.0677"/>
<text text-anchor="middle" x="1786.5" y="-132" font-family="Helvetica,sans-Serif" font-size="10.00" fill="#000000"> sim</text>
</g>
<!-- Node4 -->
<g id="node4" class="node">
<title>Node4</title>
<g id="a_node4"><a xlink:href="classamr__wind_1_1_i_o_manager.html" target="_top" xlink:title="Input/Output managerThis class contains infrastructure to output solution fields during the simulatio...">
<polygon fill="#ffffff" stroke="#000000" points="1854.5,-48.5 1854.5,-67.5 1967.5,-67.5 1967.5,-48.5 1854.5,-48.5"/>
<text text-anchor="middle" x="1911" y="-55.5" font-family="Helvetica,sans-Serif" font-size="10.00" fill="#000000">amr_wind::IOManager</text>
</a>
</g>
</g>
<!-- Node2&#45;&gt;Node4 -->
<g id="edge4" class="edge">
<title>Node2&#45;&gt;Node4</title>
<path fill="none" stroke="#9a32cd" stroke-dasharray="5,2" d="M1667.6976,-216.9771C1681.791,-186.5927 1713.547,-127.3483 1759,-96 1774.7863,-85.1124 1819.2937,-74.6905 1856.0952,-67.5242"/>
<polygon fill="#9a32cd" stroke="#9a32cd" points="1664.3576,-215.8715 1663.4558,-226.4279 1670.7438,-218.7379 1664.3576,-215.8715"/>
<text text-anchor="middle" x="1786.5" y="-99" font-family="Helvetica,sans-Serif" font-size="10.00" fill="#000000"> m_sim</text>
</g>
<!-- Node13 -->
<g id="node13" class="node">
<title>Node13</title>
<g id="a_node13"><a xlink:href="classamr__wind_1_1_post_process_manager.html" target="_top" xlink:title="A collection of post&#45;processing instances that are active during a simulation. ">
<polygon fill="#ffffff" stroke="#000000" points="1832,-356.5 1832,-375.5 1990,-375.5 1990,-356.5 1832,-356.5"/>
<text text-anchor="middle" x="1911" y="-363.5" font-family="Helvetica,sans-Serif" font-size="10.00" fill="#000000">amr_wind::PostProcessManager</text>
</a>
</g>
</g>
<!-- Node2&#45;&gt;Node13 -->
<g id="edge15" class="edge">
<title>Node2&#45;&gt;Node13</title>
<path fill="none" stroke="#9a32cd" stroke-dasharray="5,2" d="M1686.9106,-250.1685C1738.4772,-276.8232 1848.6673,-333.7803 1892.4795,-356.4268"/>
<polygon fill="#9a32cd" stroke="#9a32cd" points="1688.484,-247.0419 1677.9934,-245.5592 1685.2697,-253.2603 1688.484,-247.0419"/>
<text text-anchor="middle" x="1786.5" y="-315" font-family="Helvetica,sans-Serif" font-size="10.00" fill="#000000"> m_sim</text>
</g>
<!-- Node14 -->
<g id="node14" class="node">
<title>Node14</title>
<g id="a_node14"><a xlink:href="classamr__wind_1_1pde_1_1_p_d_e_mgr.html" target="_top" xlink:title="PDE systems manager. ">
<polygon fill="#ffffff" stroke="#000000" points="1849,-261.5 1849,-280.5 1973,-280.5 1973,-261.5 1849,-261.5"/>
<text text-anchor="middle" x="1911" y="-268.5" font-family="Helvetica,sans-Serif" font-size="10.00" fill="#000000">amr_wind::pde::PDEMgr</text>
</a>
</g>
</g>
<!-- Node2&#45;&gt;Node14 -->
<g id="edge26" class="edge">
<title>Node2&#45;&gt;Node14</title>
<path fill="none" stroke="#9a32cd" stroke-dasharray="5,2" d="M1721.2384,-231.1491C1749.6816,-230.1514 1783.7614,-230.7115 1814,-236 1841.5111,-240.8115 1871.5128,-252.7558 1890.7538,-261.3531"/>
<polygon fill="#9a32cd" stroke="#9a32cd" points="1720.8748,-227.6612 1711.0318,-231.5812 1721.171,-234.655 1720.8748,-227.6612"/>
<text text-anchor="middle" x="1786.5" y="-239" font-family="Helvetica,sans-Serif" font-size="10.00" fill="#000000"> m_sim</text>
</g>
<!-- Node3 -->
<g id="node3" class="node">
<title>Node3</title>
<polygon fill="#ffffff" stroke="#bfbfbf" points="2063,-139 2063,-169 2170,-169 2170,-139 2063,-139"/>
<text text-anchor="start" x="2071" y="-157" font-family="Helvetica,sans-Serif" font-size="10.00" fill="#000000">std::unique_ptr&lt; amr</text>
<text text-anchor="middle" x="2116.5" y="-146" font-family="Helvetica,sans-Serif" font-size="10.00" fill="#000000">_wind::IOManager &gt;</text>
</g>
<!-- Node3&#45;&gt;Node2 -->
<g id="edge2" class="edge">
<title>Node3&#45;&gt;Node2</title>
<path fill="none" stroke="#9a32cd" stroke-dasharray="5,2" d="M2052.8085,-146.1091C1979.8162,-139.4071 1857.5676,-135.4095 1759,-168 1722.0505,-180.217 1686.2679,-210.5779 1669.4619,-226.2681"/>
<polygon fill="#9a32cd" stroke="#9a32cd" points="2052.484,-149.594 2062.7736,-147.0692 2053.1553,-142.6263 2052.484,-149.594"/>
<text text-anchor="middle" x="1911" y="-154" font-family="Helvetica,sans-Serif" font-size="10.00" fill="#000000"> m_io_mgr</text>
</g>
<!-- Node4&#45;&gt;Node3 -->
<g id="edge3" class="edge">
<title>Node4&#45;&gt;Node3</title>
<path fill="none" stroke="#9a32cd" stroke-dasharray="5,2" d="M1970.7217,-70.2525C1977.3216,-72.2268 1983.8673,-74.4691 1990,-77 2029.9269,-93.4778 2071.9288,-121.4896 2096.0871,-138.8007"/>
<polygon fill="#9a32cd" stroke="#9a32cd" points="1971.628,-66.8718 1961.0549,-67.5494 1969.7428,-73.6132 1971.628,-66.8718"/>
<text text-anchor="middle" x="2015.5" y="-96" font-family="Helvetica,sans-Serif" font-size="10.00" fill="#000000"> ptr</text>
</g>
<!-- Node5 -->
<g id="node5" class="node">
<title>Node5</title>
<polygon fill="#ffffff" stroke="#bfbfbf" points="410,-86.5 410,-105.5 521,-105.5 521,-86.5 410,-86.5"/>
<text text-anchor="middle" x="465.5" y="-93.5" font-family="Helvetica,sans-Serif" font-size="10.00" fill="#000000">std::set&lt; std::string &gt;</text>
</g>
<!-- Node5&#45;&gt;Node4 -->
<g id="edge5" class="edge">
<title>Node5&#45;&gt;Node4</title>
<path fill="none" stroke="#9a32cd" stroke-dasharray="5,2" d="M528.465,-84.8059C591.6031,-74.5657 691.7166,-61 779,-61 779,-61 779,-61 1659.5,-61 1726.3094,-61 1803.0948,-59.9284 1854.0678,-59.0661"/>
<polygon fill="#9a32cd" stroke="#9a32cd" points="527.572,-81.4057 518.2727,-86.4823 528.7082,-88.3129 527.572,-81.4057"/>
<text text-anchor="middle" x="1233" y="-75" font-family="Helvetica,sans-Serif" font-size="10.00" fill="#000000"> m_chkvars</text>
<text text-anchor="middle" x="1233" y="-64" font-family="Helvetica,sans-Serif" font-size="10.00" fill="#000000">m_pltvars_default</text>
</g>
<!-- Node6 -->
<g id="node6" class="node">
<title>Node6</title>
<g id="a_node6"><a xlink:title="STL class. ">
<polygon fill="#ffffff" stroke="#bfbfbf" points="195.5,-146.5 195.5,-165.5 255.5,-165.5 255.5,-146.5 195.5,-146.5"/>
<text text-anchor="middle" x="225.5" y="-153.5" font-family="Helvetica,sans-Serif" font-size="10.00" fill="#000000">std::string</text>
</a>
</g>
</g>
<!-- Node6&#45;&gt;Node4 -->
<g id="edge10" class="edge">
<title>Node6&#45;&gt;Node4</title>
<path fill="none" stroke="#9a32cd" stroke-dasharray="5,2" d="M247.5533,-140.2608C257.0458,-133.037 268.0045,-124.0706 277,-115 286.1403,-105.7833 285.0785,-100.37 295,-92 360.8137,-36.4777 379.3944,0 465.5,0 465.5,0 465.5,0 1659.5,0 1744.6376,0 1841.9359,-31.9489 1886.4465,-48.4225"/>
<polygon fill="#9a32cd" stroke="#9a32cd" points="245.2863,-137.5848 239.3464,-146.3579 249.4608,-143.2038 245.2863,-137.5848"/>
<text text-anchor="middle" x="1075.5" y="-25" font-family="Helvetica,sans-Serif" font-size="10.00" fill="#000000"> m_chk_prefix</text>
<text text-anchor="middle" x="1075.5" y="-14" font-family="Helvetica,sans-Serif" font-size="10.00" fill="#000000">m_plt_prefix</text>
<text text-anchor="middle" x="1075.5" y="-3" font-family="Helvetica,sans-Serif" font-size="10.00" fill="#000000">m_restart_file</text>
</g>
<!-- Node6&#45;&gt;Node5 -->
<g id="edge6" class="edge">
<title>Node6&#45;&gt;Node5</title>
<path fill="none" stroke="#9a32cd" stroke-dasharray="5,2" d="M258.8821,-142.8997C270.2323,-138.7391 283.065,-134.3531 295,-131 332.8191,-120.375 376.1957,-111.5154 409.7328,-105.3682"/>
<polygon fill="#9a32cd" stroke="#9a32cd" points="257.4887,-139.684 249.3492,-146.4663 259.9417,-146.2402 257.4887,-139.684"/>
<text text-anchor="middle" x="343.5" y="-134" font-family="Helvetica,sans-Serif" font-size="10.00" fill="#000000"> keys</text>
</g>
<!-- Node6&#45;&gt;Node14 -->
<g id="edge27" class="edge">
<title>Node6&#45;&gt;Node14</title>
<path fill="none" stroke="#9a32cd" stroke-dasharray="5,2" d="M265.8395,-155.9346C441.4965,-156.0049 1157.0388,-159.9716 1741,-217 1773.5924,-220.1829 1786.5314,-209.171 1814,-227 1826.7244,-235.259 1819.4924,-247.4161 1832,-256 1837.0645,-259.4758 1842.7219,-262.1999 1848.6187,-264.328"/>
<polygon fill="#9a32cd" stroke="#9a32cd" points="265.7559,-152.4345 255.7559,-155.9347 265.756,-159.4345 265.7559,-152.4345"/>
<text text-anchor="middle" x="1075.5" y="-180" font-family="Helvetica,sans-Serif" font-size="10.00" fill="#000000"> m_scheme</text>
</g>
<!-- Node16 -->
<g id="node16" class="node">
<title>Node16</title>
<polygon fill="#ffffff" stroke="#bfbfbf" points="414,-275 414,-305 517,-305 517,-275 414,-275"/>
<text text-anchor="start" x="422" y="-293" font-family="Helvetica,sans-Serif" font-size="10.00" fill="#000000">std::unordered_map</text>
<text text-anchor="middle" x="465.5" y="-282" font-family="Helvetica,sans-Serif" font-size="10.00" fill="#000000">&lt; std::string, int &gt;</text>
</g>
<!-- Node6&#45;&gt;Node16 -->
<g id="edge20" class="edge">
<title>Node6&#45;&gt;Node16</title>
<path fill="none" stroke="#9a32cd" stroke-dasharray="5,2" d="M236.4551,-174.1367C248.4842,-192.4238 269.5175,-220.0267 295,-235 333.0305,-257.3463 350.1745,-241.989 392,-256 407.1978,-261.0911 423.4354,-268.3902 436.7729,-274.9213"/>
<polygon fill="#9a32cd" stroke="#9a32cd" points="239.3172,-172.1143 231.0095,-165.5391 233.4036,-175.8599 239.3172,-172.1143"/>
<text text-anchor="middle" x="343.5" y="-259" font-family="Helvetica,sans-Serif" font-size="10.00" fill="#000000"> keys</text>
</g>
<!-- Node31 -->
<g id="node31" class="node">
<title>Node31</title>
<polygon fill="#ffffff" stroke="#bfbfbf" points="410.5,-185 410.5,-215 520.5,-215 520.5,-185 410.5,-185"/>
<text text-anchor="start" x="418.5" y="-203" font-family="Helvetica,sans-Serif" font-size="10.00" fill="#000000">std::unordered_map</text>
<text text-anchor="middle" x="465.5" y="-192" font-family="Helvetica,sans-Serif" font-size="10.00" fill="#000000">&lt; std::string, size_t &gt;</text>
</g>
<!-- Node6&#45;&gt;Node31 -->
<g id="edge46" class="edge">
<title>Node6&#45;&gt;Node31</title>
<path fill="none" stroke="#9a32cd" stroke-dasharray="5,2" d="M265.9827,-163.4218C305.5848,-170.6822 366.1984,-181.7947 410.225,-189.8662"/>
<polygon fill="#9a32cd" stroke="#9a32cd" points="266.3634,-159.9334 255.8962,-161.5726 265.1011,-166.8186 266.3634,-159.9334"/>
<text text-anchor="middle" x="343.5" y="-189" font-family="Helvetica,sans-Serif" font-size="10.00" fill="#000000"> keys</text>
</g>
<!-- Node7 -->
<g id="node7" class="node">
<title>Node7</title>
<g id="a_node7"><a xlink:title="STL class. ">
<polygon fill="#ffffff" stroke="#bfbfbf" points="0,-141 0,-171 95,-171 95,-141 0,-141"/>
<text text-anchor="start" x="8" y="-159" font-family="Helvetica,sans-Serif" font-size="10.00" fill="#000000">std::basic_string&lt;</text>
<text text-anchor="middle" x="47.5" y="-148" font-family="Helvetica,sans-Serif" font-size="10.00" fill="#000000"> char &gt;</text>
</a>
</g>
</g>
<!-- Node7&#45;&gt;Node6 -->
<g id="edge7" class="edge">
<title>Node7&#45;&gt;Node6</title>
<path fill="none" stroke="#191970" d="M105.5446,-156C135.493,-156 170.7833,-156 195.3,-156"/>
<polygon fill="#191970" stroke="#191970" points="105.2008,-152.5001 95.2007,-156 105.2007,-159.5001 105.2008,-152.5001"/>
</g>
<!-- Node8 -->
<g id="node8" class="node">
<title>Node8</title>
<g id="a_node8"><a xlink:title="STL class. ">
<polygon fill="#ffffff" stroke="#bfbfbf" points="188.5,-86.5 188.5,-105.5 262.5,-105.5 262.5,-86.5 188.5,-86.5"/>
<text text-anchor="middle" x="225.5" y="-93.5" font-family="Helvetica,sans-Serif" font-size="10.00" fill="#000000">std::set&lt; K &gt;</text>
</a>
</g>
</g>
<!-- Node8&#45;&gt;Node5 -->
<g id="edge8" class="edge">
<title>Node8&#45;&gt;Node5</title>
<path fill="none" stroke="#ffa500" stroke-dasharray="5,2" d="M272.8701,-96C312.2475,-96 368.3509,-96 409.8613,-96"/>
<polygon fill="#ffa500" stroke="#ffa500" points="272.7367,-92.5001 262.7367,-96 272.7366,-99.5001 272.7367,-92.5001"/>
<text text-anchor="middle" x="343.5" y="-99" font-family="Helvetica,sans-Serif" font-size="10.00" fill="#000000"> &lt; std::string &gt;</text>
</g>
<!-- Node9 -->
<g id="node9" class="node">
<title>Node9</title>
<polygon fill="#ffffff" stroke="#bfbfbf" points="33,-94.5 33,-113.5 62,-113.5 62,-94.5 33,-94.5"/>
<text text-anchor="middle" x="47.5" y="-101.5" font-family="Helvetica,sans-Serif" font-size="10.00" fill="#000000">K</text>
</g>
<!-- Node9&#45;&gt;Node8 -->
<g id="edge9" class="edge">
<title>Node9&#45;&gt;Node8</title>
<path fill="none" stroke="#9a32cd" stroke-dasharray="5,2" d="M71.9913,-100.8095C84.2772,-99.3551 99.401,-97.7852 113,-97 138.1544,-95.5475 166.5241,-95.305 188.4813,-95.4218"/>
<polygon fill="#9a32cd" stroke="#9a32cd" points="71.5323,-97.3395 62.0349,-102.0353 72.3876,-104.2871 71.5323,-97.3395"/>
<text text-anchor="middle" x="134.5" y="-100" font-family="Helvetica,sans-Serif" font-size="10.00" fill="#000000"> keys</text>
</g>
<!-- Node17 -->
<g id="node17" class="node">
<title>Node17</title>
<g id="a_node17"><a xlink:title="STL class. ">
<polygon fill="#ffffff" stroke="#bfbfbf" points="174,-242 174,-272 277,-272 277,-242 174,-242"/>
<text text-anchor="start" x="182" y="-260" font-family="Helvetica,sans-Serif" font-size="10.00" fill="#000000">std::unordered_map</text>
<text text-anchor="middle" x="225.5" y="-249" font-family="Helvetica,sans-Serif" font-size="10.00" fill="#000000">&lt; K, T &gt;</text>
</a>
</g>
</g>
<!-- Node9&#45;&gt;Node17 -->
<g id="edge22" class="edge">
<title>Node9&#45;&gt;Node17</title>
<path fill="none" stroke="#9a32cd" stroke-dasharray="5,2" d="M71.2593,-115.9712C79.0845,-120.3099 87.6566,-125.5055 95,-131 141.9017,-166.0932 189.5394,-216.7061 212.0845,-241.7612"/>
<polygon fill="#9a32cd" stroke="#9a32cd" points="72.6871,-112.7659 62.2175,-111.1415 69.389,-118.9403 72.6871,-112.7659"/>
<text text-anchor="middle" x="134.5" y="-186" font-family="Helvetica,sans-Serif" font-size="10.00" fill="#000000"> keys</text>
</g>
<!-- Node10 -->
<g id="node10" class="node">
<title>Node10</title>
<g id="a_node10"><a xlink:title="STL class. ">
<polygon fill="#ffffff" stroke="#bfbfbf" points="1023,-474.5 1023,-493.5 1128,-493.5 1128,-474.5 1023,-474.5"/>
<text text-anchor="middle" x="1075.5" y="-481.5" font-family="Helvetica,sans-Serif" font-size="10.00" fill="#000000">std::unique_ptr&lt; T &gt;</text>
</a>
</g>
</g>
<!-- Node10&#45;&gt;Node3 -->
<g id="edge11" class="edge">
<title>Node10&#45;&gt;Node3</title>
<path fill="none" stroke="#ffa500" stroke-dasharray="5,2" d="M1138.1345,-480.271C1252.3222,-473.528 1486.0743,-460 1523.5,-460 1523.5,-460 1523.5,-460 1911,-460 2052.7448,-460 2103.0482,-230.9191 2114.0322,-169.1746"/>
<polygon fill="#ffa500" stroke="#ffa500" points="1137.907,-476.7782 1128.131,-480.8624 1138.3202,-483.766 1137.907,-476.7782"/>
<text text-anchor="middle" x="1659.5" y="-463" font-family="Helvetica,sans-Serif" font-size="10.00" fill="#000000"> &lt; amr_wind::IOManager &gt;</text>
</g>
<!-- Node12 -->
<g id="node12" class="node">
<title>Node12</title>
<polygon fill="#ffffff" stroke="#bfbfbf" points="2041,-478 2041,-508 2192,-508 2192,-478 2041,-478"/>
<text text-anchor="start" x="2049" y="-496" font-family="Helvetica,sans-Serif" font-size="10.00" fill="#000000">std::unique_ptr&lt; amr</text>
<text text-anchor="middle" x="2116.5" y="-485" font-family="Helvetica,sans-Serif" font-size="10.00" fill="#000000">_wind::PostProcessManager &gt;</text>
</g>
<!-- Node10&#45;&gt;Node12 -->
<g id="edge16" class="edge">
<title>Node10&#45;&gt;Node12</title>
<path fill="none" stroke="#ffa500" stroke-dasharray="5,2" d="M1129.5679,-496.8272C1134.5462,-498.652 1139.4309,-500.7031 1144,-503 1153.0551,-507.552 1152.6515,-513.0858 1162,-517 1258.5658,-557.4315 1290.8116,-548 1395.5,-548 1395.5,-548 1395.5,-548 1911,-548 1973.0471,-548 2042.1588,-524.3135 2082.3414,-508.029"/>
<polygon fill="#ffa500" stroke="#ffa500" points="1130.531,-493.4586 1119.937,-493.5921 1128.302,-500.0943 1130.531,-493.4586"/>
<text text-anchor="middle" x="1659.5" y="-551" font-family="Helvetica,sans-Serif" font-size="10.00" fill="#000000"> &lt; amr_wind::PostProcessManager &gt;</text>
</g>
<!-- Node19 -->
<g id="node19" class="node">
<title>Node19</title>
<polygon fill="#ffffff" stroke="#bfbfbf" points="1334.5,-489 1334.5,-519 1456.5,-519 1456.5,-489 1334.5,-489"/>
<text text-anchor="start" x="1342.5" y="-507" font-family="Helvetica,sans-Serif" font-size="10.00" fill="#000000">std::unique_ptr&lt; amr</text>
<text text-anchor="middle" x="1395.5" y="-496" font-family="Helvetica,sans-Serif" font-size="10.00" fill="#000000">_wind::pde::PDEBase &gt;</text>
</g>
<!-- Node10&#45;&gt;Node19 -->
<g id="edge32" class="edge">
<title>Node10&#45;&gt;Node19</title>
<path fill="none" stroke="#ffa500" stroke-dasharray="5,2" d="M1138.113,-492.6227C1146.1404,-493.5338 1154.2562,-494.3596 1162,-495 1220.4218,-499.8312 1287.2857,-502.0759 1334.4477,-503.1147"/>
<polygon fill="#ffa500" stroke="#ffa500" points="1138.3686,-489.1287 1128.0268,-491.4306 1137.5468,-496.0803 1138.3686,-489.1287"/>
<text text-anchor="middle" x="1233" y="-505" font-family="Helvetica,sans-Serif" font-size="10.00" fill="#000000"> &lt; amr_wind::pde::PDEBase &gt;</text>
</g>
<!-- Node24 -->
<g id="node24" class="node">
<title>Node24</title>
<polygon fill="#ffffff" stroke="#bfbfbf" points="1331,-341 1331,-371 1460,-371 1460,-341 1331,-341"/>
<text text-anchor="start" x="1339" y="-359" font-family="Helvetica,sans-Serif" font-size="10.00" fill="#000000">std::unique_ptr&lt; amr</text>
<text text-anchor="middle" x="1395.5" y="-348" font-family="Helvetica,sans-Serif" font-size="10.00" fill="#000000">_wind::OversetManager &gt;</text>
</g>
<!-- Node10&#45;&gt;Node24 -->
<g id="edge38" class="edge">
<title>Node10&#45;&gt;Node24</title>
<path fill="none" stroke="#ffa500" stroke-dasharray="5,2" d="M1108.3088,-470.0358C1120.5524,-463.6857 1133.9146,-455.2709 1144,-445 1155.7052,-433.0795 1148.2982,-421.5588 1162,-412 1214.3231,-375.4977 1243.5823,-411.4896 1304,-391 1312.6668,-388.0608 1313.6343,-384.7106 1322,-381 1330.0085,-377.4478 1338.6886,-374.0878 1347.183,-371.0513"/>
<polygon fill="#ffa500" stroke="#ffa500" points="1106.6736,-466.9394 1099.2369,-474.4858 1109.7564,-473.2241 1106.6736,-466.9394"/>
<text text-anchor="middle" x="1233" y="-415" font-family="Helvetica,sans-Serif" font-size="10.00" fill="#000000"> &lt; amr_wind::OversetManager &gt;</text>
</g>
<!-- Node27 -->
<g id="node27" class="node">
<title>Node27</title>
<polygon fill="#ffffff" stroke="#bfbfbf" points="1322,-390.5 1322,-431.5 1469,-431.5 1469,-390.5 1322,-390.5"/>
<text text-anchor="start" x="1330" y="-419.5" font-family="Helvetica,sans-Serif" font-size="10.00" fill="#000000">std::unique_ptr&lt; amr</text>
<text text-anchor="start" x="1330" y="-408.5" font-family="Helvetica,sans-Serif" font-size="10.00" fill="#000000">_wind::turbulence::Turbulence</text>
<text text-anchor="middle" x="1395.5" y="-397.5" font-family="Helvetica,sans-Serif" font-size="10.00" fill="#000000">Model &gt;</text>
</g>
<!-- Node10&#45;&gt;Node27 -->
<g id="edge43" class="edge">
<title>Node10&#45;&gt;Node27</title>
<path fill="none" stroke="#ffa500" stroke-dasharray="5,2" d="M1103.7642,-470.2338C1120.3755,-462.6548 1141.982,-453.6646 1162,-448 1165.9185,-446.8912 1254.7684,-432.9294 1321.7081,-422.4817"/>
<polygon fill="#ffa500" stroke="#ffa500" points="1102.1978,-467.1022 1094.6107,-474.4973 1105.1534,-473.4477 1102.1978,-467.1022"/>
<text text-anchor="start" x="1180" y="-462" font-family="Helvetica,sans-Serif" font-size="10.00" fill="#000000"> &lt; amr_wind::turbulence</text>
<text text-anchor="middle" x="1233" y="-451" font-family="Helvetica,sans-Serif" font-size="10.00" fill="#000000">::TurbulenceModel &gt;</text>
</g>
<!-- Node11 -->
<g id="node11" class="node">
<title>Node11</title>
<polygon fill="#ffffff" stroke="#bfbfbf" points="33,-465.5 33,-484.5 62,-484.5 62,-465.5 33,-465.5"/>
<text text-anchor="middle" x="47.5" y="-472.5" font-family="Helvetica,sans-Serif" font-size="10.00" fill="#000000">T</text>
</g>
<!-- Node11&#45;&gt;Node10 -->
<g id="edge12" class="edge">
<title>Node11&#45;&gt;Node10</title>
<path fill="none" stroke="#9a32cd" stroke-dasharray="5,2" d="M70.3263,-490.3997C103.1492,-511.0091 166.2627,-545 225.5,-545 225.5,-545 225.5,-545 779,-545 829.4516,-545 971.0071,-510.6875 1038.6316,-493.5313"/>
<polygon fill="#9a32cd" stroke="#9a32cd" points="71.8273,-487.2035 61.5245,-484.7332 68.0381,-493.0893 71.8273,-487.2035"/>
<text text-anchor="middle" x="465.5" y="-548" font-family="Helvetica,sans-Serif" font-size="10.00" fill="#000000"> ptr</text>
</g>
<!-- Node11&#45;&gt;Node17 -->
<g id="edge23" class="edge">
<title>Node11&#45;&gt;Node17</title>
<path fill="none" stroke="#9a32cd" stroke-dasharray="5,2" d="M61.8357,-457.4428C95.9269,-415.6907 181.3623,-311.0563 213.2467,-272.0068"/>
<polygon fill="#9a32cd" stroke="#9a32cd" points="58.9917,-455.392 55.3781,-465.3515 64.4139,-459.8192 58.9917,-455.392"/>
<text text-anchor="middle" x="134.5" y="-394" font-family="Helvetica,sans-Serif" font-size="10.00" fill="#000000"> elements</text>
</g>
<!-- Node12&#45;&gt;Node2 -->
<g id="edge13" class="edge">
<title>Node12&#45;&gt;Node2</title>
<path fill="none" stroke="#9a32cd" stroke-dasharray="5,2" d="M2112.1857,-467.5859C2101.7821,-415.0369 2069.996,-294.8485 1990,-241 1896.4571,-178.0326 1751.7944,-208.7841 1689.6021,-226.4803"/>
<polygon fill="#9a32cd" stroke="#9a32cd" points="2108.8042,-468.5428 2114.0908,-477.7244 2115.6838,-467.25 2108.8042,-468.5428"/>
<text text-anchor="middle" x="1911" y="-244" font-family="Helvetica,sans-Serif" font-size="10.00" fill="#000000"> m_post_mgr</text>
</g>
<!-- Node13&#45;&gt;Node12 -->
<g id="edge14" class="edge">
<title>Node13&#45;&gt;Node12</title>
<path fill="none" stroke="#9a32cd" stroke-dasharray="5,2" d="M1935.1639,-380.9334C1974.6592,-405.3417 2052.5989,-453.5088 2092.1892,-477.9758"/>
<polygon fill="#9a32cd" stroke="#9a32cd" points="1936.7925,-377.8255 1926.4459,-375.5456 1933.1125,-383.7801 1936.7925,-377.8255"/>
<text text-anchor="middle" x="2015.5" y="-436" font-family="Helvetica,sans-Serif" font-size="10.00" fill="#000000"> ptr</text>
</g>
<!-- Node14&#45;&gt;Node2 -->
<g id="edge17" class="edge">
<title>Node14&#45;&gt;Node2</title>
<path fill="none" stroke="#9a32cd" stroke-dasharray="5,2" d="M1838.987,-260.9783C1798.1132,-255.2901 1747.9099,-248.3036 1711.0017,-243.1672"/>
<polygon fill="#9a32cd" stroke="#9a32cd" points="1838.5075,-264.4452 1848.8945,-262.3571 1839.4724,-257.512 1838.5075,-264.4452"/>
<text text-anchor="middle" x="1786.5" y="-259" font-family="Helvetica,sans-Serif" font-size="10.00" fill="#000000"> m_pde_mgr</text>
</g>
<!-- Node15 -->
<g id="node15" class="node">
<title>Node15</title>
<g id="a_node15"><a xlink:href="classamr__wind_1_1_coll_mgr.html" target="_top" xlink:title="amr_wind::CollMgr\&lt;\l PDEMgr, PDEBase \&gt;">
<polygon fill="#ffffff" stroke="#000000" points="1017.5,-297 1017.5,-327 1133.5,-327 1133.5,-297 1017.5,-297"/>
<text text-anchor="start" x="1025.5" y="-315" font-family="Helvetica,sans-Serif" font-size="10.00" fill="#000000">amr_wind::CollMgr&lt;</text>
<text text-anchor="middle" x="1075.5" y="-304" font-family="Helvetica,sans-Serif" font-size="10.00" fill="#000000"> PDEMgr, PDEBase &gt;</text>
</a>
</g>
</g>
<!-- Node15&#45;&gt;Node14 -->
<g id="edge18" class="edge">
<title>Node15&#45;&gt;Node14</title>
<path fill="none" stroke="#191970" d="M1143.776,-316.3952C1301.591,-325.9192 1687.7775,-345.4125 1814,-317 1845.0929,-310.001 1877.9273,-291.8279 1896.3036,-280.5313"/>
<polygon fill="#191970" stroke="#191970" points="1143.9106,-312.897 1133.7164,-315.7829 1143.4853,-319.8841 1143.9106,-312.897"/>
</g>
<!-- Node16&#45;&gt;Node15 -->
<g id="edge19" class="edge">
<title>Node16&#45;&gt;Node15</title>
<path fill="none" stroke="#9a32cd" stroke-dasharray="5,2" d="M527.1402,-303.091C531.1455,-303.7834 535.1248,-304.428 539,-305 736.9663,-334.2198 789.1016,-329.2242 989,-320 998.1899,-319.5759 1007.9115,-318.8997 1017.3897,-318.1157"/>
<polygon fill="#9a32cd" stroke="#9a32cd" points="527.6385,-299.6244 517.1748,-301.2861 526.3909,-306.5124 527.6385,-299.6244"/>
<text text-anchor="middle" x="779" y="-330" font-family="Helvetica,sans-Serif" font-size="10.00" fill="#000000"> m_obj_map</text>
</g>
<!-- Node18 -->
<g id="node18" class="node">
<title>Node18</title>
<g id="a_node18"><a xlink:href="classamr__wind_1_1_coll_mgr.html" target="_top" xlink:title="Interface to manage objects of sub&#45;classes based on factory registrationProvides boiler&#45;plate code to...">
<polygon fill="#ffffff" stroke="#000000" points="719.5,-269.5 719.5,-310.5 838.5,-310.5 838.5,-269.5 719.5,-269.5"/>
<text text-anchor="start" x="727.5" y="-298.5" font-family="Helvetica,sans-Serif" font-size="10.00" fill="#000000">amr_wind::CollMgr&lt;</text>
<text text-anchor="start" x="727.5" y="-287.5" font-family="Helvetica,sans-Serif" font-size="10.00" fill="#000000"> Collection, Type, allow</text>
<text text-anchor="middle" x="779" y="-276.5" font-family="Helvetica,sans-Serif" font-size="10.00" fill="#000000">_duplicates &gt;</text>
</a>
</g>
</g>
<!-- Node16&#45;&gt;Node18 -->
<g id="edge25" class="edge">
<title>Node16&#45;&gt;Node18</title>
<path fill="none" stroke="#9a32cd" stroke-dasharray="5,2" d="M527.3584,-290C583.0595,-290 664.3931,-290 719.3904,-290"/>
<polygon fill="#9a32cd" stroke="#9a32cd" points="527.2682,-286.5001 517.2681,-290 527.2681,-293.5001 527.2682,-286.5001"/>
<text text-anchor="middle" x="611.5" y="-293" font-family="Helvetica,sans-Serif" font-size="10.00" fill="#000000"> m_obj_map</text>
</g>
<!-- Node33 -->
<g id="node33" class="node">
<title>Node33</title>
<g id="a_node33"><a xlink:href="classamr__wind_1_1_coll_mgr.html" target="_top" xlink:title="amr_wind::CollMgr\&lt;\l PhysicsMgr, Physics \&gt;">
<polygon fill="#ffffff" stroke="#000000" points="1014.5,-225 1014.5,-255 1136.5,-255 1136.5,-225 1014.5,-225"/>
<text text-anchor="start" x="1022.5" y="-243" font-family="Helvetica,sans-Serif" font-size="10.00" fill="#000000">amr_wind::CollMgr&lt;</text>
<text text-anchor="middle" x="1075.5" y="-232" font-family="Helvetica,sans-Serif" font-size="10.00" fill="#000000"> PhysicsMgr, Physics &gt;</text>
</a>
</g>
</g>
<!-- Node16&#45;&gt;Node33 -->
<g id="edge50" class="edge">
<title>Node16&#45;&gt;Node33</title>
<path fill="none" stroke="#9a32cd" stroke-dasharray="5,2" d="M527.1638,-276.7387C574.6904,-267.1443 642.1807,-254.8735 702,-249 811.5773,-238.2409 940.0578,-237.7931 1014.1934,-238.7126"/>
<polygon fill="#9a32cd" stroke="#9a32cd" points="526.4345,-273.3153 517.3351,-278.7422 527.8327,-280.1743 526.4345,-273.3153"/>
<text text-anchor="middle" x="779" y="-252" font-family="Helvetica,sans-Serif" font-size="10.00" fill="#000000"> m_obj_map</text>
</g>
<!-- Node17&#45;&gt;Node16 -->
<g id="edge21" class="edge">
<title>Node17&#45;&gt;Node16</title>
<path fill="none" stroke="#ffa500" stroke-dasharray="5,2" d="M286.9625,-267.7766C289.6769,-268.2006 292.3654,-268.6105 295,-269 334.8301,-274.8879 380.0664,-280.4058 413.9308,-284.3066"/>
<polygon fill="#ffa500" stroke="#ffa500" points="287.4995,-264.3181 277.0714,-266.1904 286.391,-271.2297 287.4995,-264.3181"/>
<text text-anchor="middle" x="343.5" y="-284" font-family="Helvetica,sans-Serif" font-size="10.00" fill="#000000"> &lt; std::string, int &gt;</text>
</g>
<!-- Node17&#45;&gt;Node31 -->
<g id="edge47" class="edge">
<title>Node17&#45;&gt;Node31</title>
<path fill="none" stroke="#ffa500" stroke-dasharray="5,2" d="M261.7221,-237.2592C272.2029,-232.2533 283.8338,-227.3513 295,-224 332.6496,-212.7004 376.608,-206.6767 410.4598,-203.4903"/>
<polygon fill="#ffa500" stroke="#ffa500" points="259.8738,-234.2688 252.4666,-241.844 262.981,-240.5414 259.8738,-234.2688"/>
<text text-anchor="middle" x="343.5" y="-227" font-family="Helvetica,sans-Serif" font-size="10.00" fill="#000000"> &lt; std::string, size_t &gt;</text>
</g>
<!-- Node18&#45;&gt;Node15 -->
<g id="edge24" class="edge">
<title>Node18&#45;&gt;Node15</title>
<path fill="none" stroke="#ffa500" stroke-dasharray="5,2" d="M848.6692,-295.1694C900.0292,-298.9802 969.0876,-304.1043 1017.4653,-307.6939"/>
<polygon fill="#ffa500" stroke="#ffa500" points="848.8761,-291.6752 838.6445,-294.4256 848.3581,-298.656 848.8761,-291.6752"/>
<text text-anchor="middle" x="931.5" y="-308" font-family="Helvetica,sans-Serif" font-size="10.00" fill="#000000"> &lt; PDEMgr, PDEBase &gt;</text>
</g>
<!-- Node18&#45;&gt;Node33 -->
<g id="edge51" class="edge">
<title>Node18&#45;&gt;Node33</title>
<path fill="none" stroke="#ffa500" stroke-dasharray="5,2" d="M848.7839,-278.2321C899.0642,-269.7531 966.2619,-258.4213 1014.4231,-250.2996"/>
<polygon fill="#ffa500" stroke="#ffa500" points="847.9233,-274.8277 838.6445,-279.9419 849.0873,-281.7302 847.9233,-274.8277"/>
<text text-anchor="middle" x="931.5" y="-276" font-family="Helvetica,sans-Serif" font-size="10.00" fill="#000000"> &lt; PhysicsMgr, Physics &gt;</text>
</g>
<!-- Node19&#45;&gt;Node14 -->
<g id="edge28" class="edge">
<title>Node19&#45;&gt;Node14</title>
<path fill="none" stroke="#9a32cd" stroke-dasharray="5,2" d="M1438.9633,-484.7243C1475.7375,-468.6418 1529.968,-445.455 1578,-427 1681.6523,-387.1743 1716.1858,-397.5571 1814,-345 1848.5181,-326.4529 1883.8032,-296.067 1900.7204,-280.6389"/>
<polygon fill="#9a32cd" stroke="#9a32cd" points="1437.2921,-481.6354 1429.5398,-488.8571 1440.1036,-488.046 1437.2921,-481.6354"/>
<text text-anchor="middle" x="1659.5" y="-430" font-family="Helvetica,sans-Serif" font-size="10.00" fill="#000000"> m_icns</text>
</g>
<!-- Node20 -->
<g id="node20" class="node">
<title>Node20</title>
<g id="a_node20"><a xlink:href="classamr__wind_1_1pde_1_1_p_d_e_base.html" target="_top" xlink:title="Abstract interface defining a PDE and its solution process withn AMR&#45;WindThe exact behavior is implem...">
<polygon fill="#ffffff" stroke="#000000" points="1010.5,-512.5 1010.5,-531.5 1140.5,-531.5 1140.5,-512.5 1010.5,-512.5"/>
<text text-anchor="middle" x="1075.5" y="-519.5" font-family="Helvetica,sans-Serif" font-size="10.00" fill="#000000">amr_wind::pde::PDEBase</text>
</a>
</g>
</g>
<!-- Node20&#45;&gt;Node19 -->
<g id="edge29" class="edge">
<title>Node20&#45;&gt;Node19</title>
<path fill="none" stroke="#9a32cd" stroke-dasharray="5,2" d="M1151.0543,-532.5409C1195.755,-536.9812 1253.3578,-539.5752 1304,-532 1321.2513,-529.4195 1339.744,-524.2455 1355.5576,-519.0395"/>
<polygon fill="#9a32cd" stroke="#9a32cd" points="1151.1627,-529.0333 1140.8527,-531.4737 1150.4342,-535.9953 1151.1627,-529.0333"/>
<text text-anchor="middle" x="1233" y="-539" font-family="Helvetica,sans-Serif" font-size="10.00" fill="#000000"> ptr</text>
</g>
<!-- Node21 -->
<g id="node21" class="node">
<title>Node21</title>
<g id="a_node21"><a xlink:href="structamr__wind_1_1_factory.html" target="_top" xlink:title="amr_wind::Factory\&lt;\l PDEBase, CFDSim &amp;,\l const int \&gt;">
<polygon fill="#ffffff" stroke="#000000" points="719,-475.5 719,-516.5 839,-516.5 839,-475.5 719,-475.5"/>
<text text-anchor="start" x="727" y="-504.5" font-family="Helvetica,sans-Serif" font-size="10.00" fill="#000000">amr_wind::Factory&lt;</text>
<text text-anchor="start" x="727" y="-493.5" font-family="Helvetica,sans-Serif" font-size="10.00" fill="#000000"> PDEBase, CFDSim &amp;,</text>
<text text-anchor="middle" x="779" y="-482.5" font-family="Helvetica,sans-Serif" font-size="10.00" fill="#000000"> const int &gt;</text>
</a>
</g>
</g>
<!-- Node21&#45;&gt;Node20 -->
<g id="edge30" class="edge">
<title>Node21&#45;&gt;Node20</title>
<path fill="none" stroke="#191970" d="M849.1762,-502.1537C898.0404,-506.4386 962.7391,-512.112 1010.4433,-516.2952"/>
<polygon fill="#191970" stroke="#191970" points="849.2687,-498.6485 839.0012,-501.2615 848.6572,-505.6217 849.2687,-498.6485"/>
</g>
<!-- Node22 -->
<g id="node22" class="node">
<title>Node22</title>
<g id="a_node22"><a xlink:href="structamr__wind_1_1_factory.html" target="_top" xlink:title="Runtime selection of options based on string keyword lookupFactory provides an automated way to regis...">
<polygon fill="#ffffff" stroke="#000000" points="413.5,-426 413.5,-456 517.5,-456 517.5,-426 413.5,-426"/>
<text text-anchor="start" x="421.5" y="-444" font-family="Helvetica,sans-Serif" font-size="10.00" fill="#000000">amr_wind::Factory&lt;</text>
<text text-anchor="middle" x="465.5" y="-433" font-family="Helvetica,sans-Serif" font-size="10.00" fill="#000000"> Base, Args &gt;</text>
</a>
</g>
</g>
<!-- Node22&#45;&gt;Node21 -->
<g id="edge31" class="edge">
<title>Node22&#45;&gt;Node21</title>
<path fill="none" stroke="#ffa500" stroke-dasharray="5,2" d="M512.7311,-459.4198C521.3719,-462.2972 530.3825,-464.9811 539,-467 599.2734,-481.1207 669.7649,-488.5967 718.6905,-492.3974"/>
<polygon fill="#ffa500" stroke="#ffa500" points="513.7681,-456.0751 503.1733,-456.1139 511.4799,-462.6905 513.7681,-456.0751"/>
<text text-anchor="start" x="555" y="-503" font-family="Helvetica,sans-Serif" font-size="10.00" fill="#000000"> &lt; PDEBase, CFDSim &amp;,</text>
<text text-anchor="middle" x="611.5" y="-492" font-family="Helvetica,sans-Serif" font-size="10.00" fill="#000000"> const int &gt;</text>
</g>
<!-- Node26 -->
<g id="node26" class="node">
<title>Node26</title>
<g id="a_node26"><a xlink:href="structamr__wind_1_1_factory.html" target="_top" xlink:title="amr_wind::Factory\&lt;\l OversetManager, CFDSim &amp;\&gt;">
<polygon fill="#ffffff" stroke="#000000" points="703,-377 703,-407 855,-407 855,-377 703,-377"/>
<text text-anchor="start" x="711" y="-395" font-family="Helvetica,sans-Serif" font-size="10.00" fill="#000000">amr_wind::Factory&lt;</text>
<text text-anchor="middle" x="779" y="-384" font-family="Helvetica,sans-Serif" font-size="10.00" fill="#000000"> OversetManager, CFDSim &amp;&gt;</text>
</a>
</g>
</g>
<!-- Node22&#45;&gt;Node26 -->
<g id="edge37" class="edge">
<title>Node22&#45;&gt;Node26</title>
<path fill="none" stroke="#ffa500" stroke-dasharray="5,2" d="M527.7298,-428.0269C531.539,-427.3176 535.3184,-426.6359 539,-426 593.6351,-416.5639 655.6016,-407.835 702.8825,-401.5847"/>
<polygon fill="#ffa500" stroke="#ffa500" points="526.7904,-424.6429 517.6242,-429.9563 528.1032,-431.5187 526.7904,-424.6429"/>
<text text-anchor="middle" x="611.5" y="-429" font-family="Helvetica,sans-Serif" font-size="10.00" fill="#000000"> &lt; OversetManager, CFDSim &amp;&gt;</text>
</g>
<!-- Node29 -->
<g id="node29" class="node">
<title>Node29</title>
<g id="a_node29"><a xlink:href="structamr__wind_1_1_factory.html" target="_top" xlink:title="amr_wind::Factory\&lt;\l TurbulenceModel, CFDSim &amp;\&gt;">
<polygon fill="#ffffff" stroke="#000000" points="702,-426 702,-456 856,-456 856,-426 702,-426"/>
<text text-anchor="start" x="710" y="-444" font-family="Helvetica,sans-Serif" font-size="10.00" fill="#000000">amr_wind::Factory&lt;</text>
<text text-anchor="middle" x="779" y="-433" font-family="Helvetica,sans-Serif" font-size="10.00" fill="#000000"> TurbulenceModel, CFDSim &amp;&gt;</text>
</a>
</g>
</g>
<!-- Node22&#45;&gt;Node29 -->
<g id="edge42" class="edge">
<title>Node22&#45;&gt;Node29</title>
<path fill="none" stroke="#ffa500" stroke-dasharray="5,2" d="M527.6493,-441C577.6469,-441 648.158,-441 701.7786,-441"/>
<polygon fill="#ffa500" stroke="#ffa500" points="527.6201,-437.5001 517.6201,-441 527.62,-444.5001 527.6201,-437.5001"/>
<text text-anchor="start" x="566.5" y="-455" font-family="Helvetica,sans-Serif" font-size="10.00" fill="#000000"> &lt; TurbulenceModel,</text>
<text text-anchor="middle" x="611.5" y="-444" font-family="Helvetica,sans-Serif" font-size="10.00" fill="#000000"> CFDSim &amp;&gt;</text>
</g>
<!-- Node23 -->
<g id="node23" class="node">
<title>Node23</title>
<g id="a_node23"><a xlink:href="classamr__wind_1_1_sim_time.html" target="_top" xlink:title="Time manager for simulations. ">
<polygon fill="#ffffff" stroke="#000000" points="1343.5,-263.5 1343.5,-282.5 1447.5,-282.5 1447.5,-263.5 1343.5,-263.5"/>
<text text-anchor="middle" x="1395.5" y="-270.5" font-family="Helvetica,sans-Serif" font-size="10.00" fill="#000000">amr_wind::SimTime</text>
</a>
</g>
</g>
<!-- Node23&#45;&gt;Node2 -->
<g id="edge33" class="edge">
<title>Node23&#45;&gt;Node2</title>
<path fill="none" stroke="#9a32cd" stroke-dasharray="5,2" d="M1457.7508,-264.2755C1503.4845,-257.8658 1564.8902,-249.2597 1607.9003,-243.2318"/>
<polygon fill="#9a32cd" stroke="#9a32cd" points="1457.0753,-260.8358 1447.6579,-265.69 1458.0469,-267.7681 1457.0753,-260.8358"/>
<text text-anchor="middle" x="1523.5" y="-262" font-family="Helvetica,sans-Serif" font-size="10.00" fill="#000000"> m_time</text>
</g>
<!-- Node24&#45;&gt;Node2 -->
<g id="edge34" class="edge">
<title>Node24&#45;&gt;Node2</title>
<path fill="none" stroke="#9a32cd" stroke-dasharray="5,2" d="M1437.8199,-336.7637C1495.097,-310.7286 1595.1095,-265.2684 1638.4625,-245.5625"/>
<polygon fill="#9a32cd" stroke="#9a32cd" points="1436.3238,-333.5991 1428.6685,-340.9234 1439.2205,-339.9716 1436.3238,-333.5991"/>
<text text-anchor="middle" x="1523.5" y="-316" font-family="Helvetica,sans-Serif" font-size="10.00" fill="#000000"> m_overset_mgr</text>
</g>
<!-- Node25 -->
<g id="node25" class="node">
<title>Node25</title>
<g id="a_node25"><a xlink:href="classamr__wind_1_1_overset_manager.html" target="_top" xlink:title="Overset interface manager. ">
<polygon fill="#ffffff" stroke="#000000" points="1007,-359.5 1007,-378.5 1144,-378.5 1144,-359.5 1007,-359.5"/>
<text text-anchor="middle" x="1075.5" y="-366.5" font-family="Helvetica,sans-Serif" font-size="10.00" fill="#000000">amr_wind::OversetManager</text>
</a>
</g>
</g>
<!-- Node25&#45;&gt;Node24 -->
<g id="edge35" class="edge">
<title>Node25&#45;&gt;Node24</title>
<path fill="none" stroke="#9a32cd" stroke-dasharray="5,2" d="M1141.0256,-358.1026C1148.0887,-357.2416 1155.1829,-356.5094 1162,-356 1218.9999,-351.7407 1284.0454,-352.1733 1330.9823,-353.4214"/>
<polygon fill="#9a32cd" stroke="#9a32cd" points="1140.1985,-354.6807 1130.7354,-359.445 1141.1042,-361.6219 1140.1985,-354.6807"/>
<text text-anchor="middle" x="1233" y="-359" font-family="Helvetica,sans-Serif" font-size="10.00" fill="#000000"> ptr</text>
</g>
<!-- Node26&#45;&gt;Node25 -->
<g id="edge36" class="edge">
<title>Node26&#45;&gt;Node25</title>
<path fill="none" stroke="#191970" d="M865.415,-385.2966C910.4925,-381.7999 964.8626,-377.5823 1006.9969,-374.3139"/>
<polygon fill="#191970" stroke="#191970" points="865.0554,-381.8139 855.3561,-386.0769 865.5969,-388.793 865.0554,-381.8139"/>
</g>
<!-- Node27&#45;&gt;Node2 -->
<g id="edge39" class="edge">
<title>Node27&#45;&gt;Node2</title>
<path fill="none" stroke="#9a32cd" stroke-dasharray="5,2" d="M1457.9317,-386.229C1461.7014,-384.5138 1465.416,-382.7644 1469,-381 1510.9916,-360.3281 1522.3701,-355.8317 1560,-328 1596.1283,-301.2789 1633.7337,-263.2184 1650.501,-245.6134"/>
<polygon fill="#9a32cd" stroke="#9a32cd" points="1456.2162,-383.1608 1448.4907,-390.4111 1459.0514,-389.5609 1456.2162,-383.1608"/>
<text text-anchor="middle" x="1523.5" y="-375" font-family="Helvetica,sans-Serif" font-size="10.00" fill="#000000"> m_turbulence</text>
</g>
<!-- Node28 -->
<g id="node28" class="node">
<title>Node28</title>
<g id="a_node28"><a xlink:href="classamr__wind_1_1turbulence_1_1_turbulence_model.html" target="_top" xlink:title="Abstract representation of a turbulence modelThis class is an abstract representation of a turbulence...">
<polygon fill="#ffffff" stroke="#000000" points="1020.5,-405 1020.5,-435 1130.5,-435 1130.5,-405 1020.5,-405"/>
<text text-anchor="start" x="1028.5" y="-423" font-family="Helvetica,sans-Serif" font-size="10.00" fill="#000000">amr_wind::turbulence</text>
<text text-anchor="middle" x="1075.5" y="-412" font-family="Helvetica,sans-Serif" font-size="10.00" fill="#000000">::TurbulenceModel</text>
</a>
</g>
</g>
<!-- Node28&#45;&gt;Node27 -->
<g id="edge40" class="edge">
<title>Node28&#45;&gt;Node27</title>
<path fill="none" stroke="#9a32cd" stroke-dasharray="5,2" d="M1117.0317,-400.5623C1138.5727,-390.5201 1160.6921,-380.2878 1162,-380 1223.6368,-366.4386 1241.7288,-369.7378 1304,-380 1317.4048,-382.2091 1331.4872,-386.1237 1344.4764,-390.4435"/>
<polygon fill="#9a32cd" stroke="#9a32cd" points="1115.4794,-397.4243 1107.8977,-404.8249 1118.4397,-403.7676 1115.4794,-397.4243"/>
<text text-anchor="middle" x="1233" y="-383" font-family="Helvetica,sans-Serif" font-size="10.00" fill="#000000"> ptr</text>
</g>
<!-- Node29&#45;&gt;Node28 -->
<g id="edge41" class="edge">
<title>Node29&#45;&gt;Node28</title>
<path fill="none" stroke="#191970" d="M866.2586,-434.8198C916.0875,-431.2906 977.0504,-426.9728 1020.29,-423.9103"/>
<polygon fill="#191970" stroke="#191970" points="865.8556,-431.3395 856.1279,-435.5373 866.3502,-438.322 865.8556,-431.3395"/>
</g>
<!-- Node30 -->
<g id="node30" class="node">
<title>Node30</title>
<g id="a_node30"><a xlink:href="classamr__wind_1_1_field_repo.html" target="_top" xlink:title="Field RepositoryFieldRepo is a database that manages handling of fields used during a simulation...">
<polygon fill="#ffffff" stroke="#000000" points="877,-185.5 877,-204.5 986,-204.5 986,-185.5 877,-185.5"/>
<text text-anchor="middle" x="931.5" y="-192.5" font-family="Helvetica,sans-Serif" font-size="10.00" fill="#000000">amr_wind::FieldRepo</text>
</a>
</g>
</g>
<!-- Node30&#45;&gt;Node2 -->
<g id="edge44" class="edge">
<title>Node30&#45;&gt;Node2</title>
<path fill="none" stroke="#9a32cd" stroke-dasharray="5,2" d="M996.1666,-196.1583C1097.1966,-198.2764 1298.5735,-203.7377 1469,-216 1516.0999,-219.3889 1569.561,-225.1718 1607.8348,-229.6502"/>
<polygon fill="#9a32cd" stroke="#9a32cd" points="996.1877,-192.658 986.1179,-195.9517 996.0438,-199.6566 996.1877,-192.658"/>
<text text-anchor="middle" x="1233" y="-210" font-family="Helvetica,sans-Serif" font-size="10.00" fill="#000000"> m_repo</text>
</g>
<!-- Node31&#45;&gt;Node30 -->
<g id="edge45" class="edge">
<title>Node31&#45;&gt;Node30</title>
<path fill="none" stroke="#9a32cd" stroke-dasharray="5,2" d="M530.8526,-199.2988C623.2359,-198.3076 790.3547,-196.5144 876.6467,-195.5886"/>
<polygon fill="#9a32cd" stroke="#9a32cd" points="530.7481,-195.7996 520.7863,-199.4068 530.8233,-202.7992 530.7481,-195.7996"/>
<text text-anchor="middle" x="611.5" y="-214" font-family="Helvetica,sans-Serif" font-size="10.00" fill="#000000"> m_fid_map</text>
<text text-anchor="middle" x="611.5" y="-203" font-family="Helvetica,sans-Serif" font-size="10.00" fill="#000000">m_int_fid_map</text>
</g>
<!-- Node32 -->
<g id="node32" class="node">
<title>Node32</title>
<g id="a_node32"><a xlink:href="classamr__wind_1_1_physics_mgr.html" target="_top" xlink:title="A collection of Physics models instances that are active during a simulation. ">
<polygon fill="#ffffff" stroke="#000000" points="1337.5,-225.5 1337.5,-244.5 1453.5,-244.5 1453.5,-225.5 1337.5,-225.5"/>
<text text-anchor="middle" x="1395.5" y="-232.5" font-family="Helvetica,sans-Serif" font-size="10.00" fill="#000000">amr_wind::PhysicsMgr</text>
</a>
</g>
</g>
<!-- Node32&#45;&gt;Node2 -->
<g id="edge48" class="edge">
<title>Node32&#45;&gt;Node2</title>
<path fill="none" stroke="#9a32cd" stroke-dasharray="5,2" d="M1463.9992,-235.2595C1508.8643,-235.4294 1566.5778,-235.648 1607.6417,-235.8036"/>
<polygon fill="#9a32cd" stroke="#9a32cd" points="1463.776,-231.7587 1453.7627,-235.2207 1463.7494,-238.7586 1463.776,-231.7587"/>
<text text-anchor="middle" x="1523.5" y="-239" font-family="Helvetica,sans-Serif" font-size="10.00" fill="#000000"> m_physics_mgr</text>
</g>
<!-- Node33&#45;&gt;Node32 -->
<g id="edge49" class="edge">
<title>Node33&#45;&gt;Node32</title>
<path fill="none" stroke="#191970" d="M1146.9031,-238.8843C1204.2689,-237.988 1283.8255,-236.7449 1337.3522,-235.9086"/>
<polygon fill="#191970" stroke="#191970" points="1146.7647,-235.386 1136.8206,-239.0419 1146.8741,-242.3851 1146.7647,-235.386"/>
</g>
</g>
</svg>
