<?xml version="1.0" encoding="UTF-8" standalone="no"?>
<!DOCTYPE svg PUBLIC "-//W3C//DTD SVG 1.1//EN"
 "http://www.w3.org/Graphics/SVG/1.1/DTD/svg11.dtd">
<!-- Generated by graphviz version 2.40.1 (20161225.0304)
 -->
<!-- Title: tensor_ops.H Pages: 1 -->
<svg width="345pt" height="84pt"
 viewBox="0.00 0.00 345.00 84.00" xmlns="http://www.w3.org/2000/svg" xmlns:xlink="http://www.w3.org/1999/xlink">
<g id="graph0" class="graph" transform="scale(1 1) rotate(0) translate(4 80)">
<title>tensor_ops.H</title>
<polygon fill="#ffffff" stroke="transparent" points="-4,4 -4,-80 341,-80 341,4 -4,4"/>
<!-- Node2 -->
<g id="node1" class="node">
<title>Node2</title>
<polygon fill="#bfbfbf" stroke="#000000" points="126,-56.5 126,-75.5 201,-75.5 201,-56.5 126,-56.5"/>
<text text-anchor="middle" x="163.5" y="-63.5" font-family="Helvetica,sans-Serif" font-size="10.00" fill="#000000">tensor_ops.H</text>
</g>
<!-- Node3 -->
<g id="node2" class="node">
<title>Node3</title>
<g id="a_node2"><a xlink:href="_coriolis_forcing_8cpp.html" target="_top" xlink:title="CoriolisForcing.cpp">
<polygon fill="#ffffff" stroke="#000000" points="0,-.5 0,-19.5 101,-19.5 101,-.5 0,-.5"/>
<text text-anchor="middle" x="50.5" y="-7.5" font-family="Helvetica,sans-Serif" font-size="10.00" fill="#000000">CoriolisForcing.cpp</text>
</a>
</g>
</g>
<!-- Node2&#45;&gt;Node3 -->
<g id="edge1" class="edge">
<title>Node2&#45;&gt;Node3</title>
<path fill="none" stroke="#191970" d="M134.9208,-51.8368C114.4942,-41.7139 87.5638,-28.3679 69.6719,-19.5011"/>
<polygon fill="#191970" stroke="#191970" points="133.5604,-55.0688 144.0746,-56.3733 136.6687,-48.7968 133.5604,-55.0688"/>
</g>
<!-- Node4 -->
<g id="node3" class="node">
<title>Node4</title>
<g id="a_node3"><a xlink:href="_line_sampler_8cpp.html" target="_top" xlink:title="LineSampler.cpp">
<polygon fill="#ffffff" stroke="#000000" points="119,-.5 119,-19.5 208,-19.5 208,-.5 119,-.5"/>
<text text-anchor="middle" x="163.5" y="-7.5" font-family="Helvetica,sans-Serif" font-size="10.00" fill="#000000">LineSampler.cpp</text>
</a>
</g>
</g>
<!-- Node2&#45;&gt;Node4 -->
<g id="edge2" class="edge">
<title>Node2&#45;&gt;Node4</title>
<path fill="none" stroke="#191970" d="M163.5,-46.1575C163.5,-37.155 163.5,-26.9199 163.5,-19.6427"/>
<polygon fill="#191970" stroke="#191970" points="160.0001,-46.2455 163.5,-56.2455 167.0001,-46.2456 160.0001,-46.2455"/>
</g>
<!-- Node5 -->
<g id="node4" class="node">
<title>Node5</title>
<g id="a_node4"><a xlink:href="_a_b_l_wall_function_8cpp.html" target="_top" xlink:title="ABLWallFunction.cpp">
<polygon fill="#ffffff" stroke="#000000" points="226,-.5 226,-19.5 337,-19.5 337,-.5 226,-.5"/>
<text text-anchor="middle" x="281.5" y="-7.5" font-family="Helvetica,sans-Serif" font-size="10.00" fill="#000000">ABLWallFunction.cpp</text>
</a>
</g>
</g>
<!-- Node2&#45;&gt;Node5 -->
<g id="edge3" class="edge">
<title>Node2&#45;&gt;Node5</title>
<path fill="none" stroke="#191970" d="M193.0547,-51.9741C214.4195,-41.8348 242.7116,-28.408 261.4798,-19.5011"/>
<polygon fill="#191970" stroke="#191970" points="191.3186,-48.9238 183.7849,-56.3733 194.3198,-55.2478 191.3186,-48.9238"/>
</g>
</g>
</svg>
