<?xml version="1.0" encoding="UTF-8" standalone="no"?>
<!DOCTYPE svg PUBLIC "-//W3C//DTD SVG 1.1//EN"
 "http://www.w3.org/Graphics/SVG/1.1/DTD/svg11.dtd">
<!-- Generated by graphviz version 2.40.1 (20161225.0304)
 -->
<!-- Title: trig_ops.H Pages: 1 -->
<svg width="985pt" height="84pt"
 viewBox="0.00 0.00 985.00 84.00" xmlns="http://www.w3.org/2000/svg" xmlns:xlink="http://www.w3.org/1999/xlink">
<g id="graph0" class="graph" transform="scale(1 1) rotate(0) translate(4 80)">
<title>trig_ops.H</title>
<polygon fill="#ffffff" stroke="transparent" points="-4,4 -4,-80 981,-80 981,4 -4,4"/>
<!-- Node3 -->
<g id="node1" class="node">
<title>Node3</title>
<polygon fill="#bfbfbf" stroke="#000000" points="464.5,-56.5 464.5,-75.5 526.5,-75.5 526.5,-56.5 464.5,-56.5"/>
<text text-anchor="middle" x="495.5" y="-63.5" font-family="Helvetica,sans-Serif" font-size="10.00" fill="#000000">trig_ops.H</text>
</g>
<!-- Node4 -->
<g id="node2" class="node">
<title>Node4</title>
<g id="a_node2"><a xlink:href="_body_force_8cpp.html" target="_top" xlink:title="BodyForce.cpp">
<polygon fill="#ffffff" stroke="#000000" points="0,-.5 0,-19.5 83,-19.5 83,-.5 0,-.5"/>
<text text-anchor="middle" x="41.5" y="-7.5" font-family="Helvetica,sans-Serif" font-size="10.00" fill="#000000">BodyForce.cpp</text>
</a>
</g>
</g>
<!-- Node3&#45;&gt;Node4 -->
<g id="edge1" class="edge">
<title>Node3&#45;&gt;Node4</title>
<path fill="none" stroke="#191970" d="M454.28,-62.46C381.0244,-55.9121 223.4478,-40.6692 91.5,-20 88.7888,-19.5753 86.001,-19.1068 83.195,-18.6114"/>
<polygon fill="#191970" stroke="#191970" points="454.1933,-65.9659 464.4633,-63.3626 454.8114,-58.9933 454.1933,-65.9659"/>
</g>
<!-- Node5 -->
<g id="node3" class="node">
<title>Node5</title>
<g id="a_node3"><a xlink:href="_coriolis_forcing_8cpp.html" target="_top" xlink:title="CoriolisForcing.cpp">
<polygon fill="#ffffff" stroke="#000000" points="101,-.5 101,-19.5 202,-19.5 202,-.5 101,-.5"/>
<text text-anchor="middle" x="151.5" y="-7.5" font-family="Helvetica,sans-Serif" font-size="10.00" fill="#000000">CoriolisForcing.cpp</text>
</a>
</g>
</g>
<!-- Node3&#45;&gt;Node5 -->
<g id="edge2" class="edge">
<title>Node3&#45;&gt;Node5</title>
<path fill="none" stroke="#191970" d="M454.298,-59.387C399.0352,-50.5033 297.8551,-34.1897 211.5,-20 208.478,-19.5034 205.3708,-18.991 202.2363,-18.4728"/>
<polygon fill="#191970" stroke="#191970" points="453.9657,-62.8784 464.3944,-61.0095 455.0764,-55.9671 453.9657,-62.8784"/>
</g>
<!-- Node6 -->
<g id="node4" class="node">
<title>Node6</title>
<g id="a_node4"><a xlink:href="_geostrophic_forcing_8cpp.html" target="_top" xlink:title="GeostrophicForcing.cpp">
<polygon fill="#ffffff" stroke="#000000" points="220.5,-.5 220.5,-19.5 340.5,-19.5 340.5,-.5 220.5,-.5"/>
<text text-anchor="middle" x="280.5" y="-7.5" font-family="Helvetica,sans-Serif" font-size="10.00" fill="#000000">GeostrophicForcing.cpp</text>
</a>
</g>
</g>
<!-- Node3&#45;&gt;Node6 -->
<g id="edge3" class="edge">
<title>Node3&#45;&gt;Node6</title>
<path fill="none" stroke="#191970" d="M454.3604,-55.2846C414.7139,-44.958 355.2878,-29.4796 317.205,-19.5604"/>
<polygon fill="#191970" stroke="#191970" points="453.6778,-58.7235 464.2372,-57.8571 455.4422,-51.9495 453.6778,-58.7235"/>
</g>
<!-- Node7 -->
<g id="node5" class="node">
<title>Node7</title>
<g id="a_node5"><a xlink:href="_convecting_taylor_vortex_8cpp.html" target="_top" xlink:title="ConvectingTaylorVortex.cpp">
<polygon fill="#ffffff" stroke="#000000" points="358.5,-.5 358.5,-19.5 498.5,-19.5 498.5,-.5 358.5,-.5"/>
<text text-anchor="middle" x="428.5" y="-7.5" font-family="Helvetica,sans-Serif" font-size="10.00" fill="#000000">ConvectingTaylorVortex.cpp</text>
</a>
</g>
</g>
<!-- Node3&#45;&gt;Node7 -->
<g id="edge4" class="edge">
<title>Node3&#45;&gt;Node7</title>
<path fill="none" stroke="#191970" d="M475.9324,-49.645C464.2802,-39.9058 449.8916,-27.8795 440.0368,-19.6427"/>
<polygon fill="#191970" stroke="#191970" points="473.9121,-52.5179 483.8295,-56.2455 478.4012,-47.1469 473.9121,-52.5179"/>
</g>
<!-- Node8 -->
<g id="node6" class="node">
<title>Node8</title>
<g id="a_node6"><a xlink:href="_ekman_spiral_8cpp.html" target="_top" xlink:title="EkmanSpiral.cpp">
<polygon fill="#ffffff" stroke="#000000" points="517,-.5 517,-19.5 608,-19.5 608,-.5 517,-.5"/>
<text text-anchor="middle" x="562.5" y="-7.5" font-family="Helvetica,sans-Serif" font-size="10.00" fill="#000000">EkmanSpiral.cpp</text>
</a>
</g>
</g>
<!-- Node3&#45;&gt;Node8 -->
<g id="edge5" class="edge">
<title>Node3&#45;&gt;Node8</title>
<path fill="none" stroke="#191970" d="M515.0676,-49.645C526.7198,-39.9058 541.1084,-27.8795 550.9632,-19.6427"/>
<polygon fill="#191970" stroke="#191970" points="512.5988,-47.1469 507.1705,-56.2455 517.0879,-52.5179 512.5988,-47.1469"/>
</g>
<!-- Node9 -->
<g id="node7" class="node">
<title>Node9</title>
<g id="a_node7"><a xlink:href="_free_stream_8cpp.html" target="_top" xlink:title="FreeStream.cpp">
<polygon fill="#ffffff" stroke="#000000" points="626.5,-.5 626.5,-19.5 712.5,-19.5 712.5,-.5 626.5,-.5"/>
<text text-anchor="middle" x="669.5" y="-7.5" font-family="Helvetica,sans-Serif" font-size="10.00" fill="#000000">FreeStream.cpp</text>
</a>
</g>
</g>
<!-- Node3&#45;&gt;Node9 -->
<g id="edge6" class="edge">
<title>Node3&#45;&gt;Node9</title>
<path fill="none" stroke="#191970" d="M535.301,-53.1905C567.179,-42.9309 611.1816,-28.7691 639.9787,-19.5011"/>
<polygon fill="#191970" stroke="#191970" points="533.8585,-49.9779 525.4117,-56.3733 536.0031,-56.6413 533.8585,-49.9779"/>
</g>
<!-- Node10 -->
<g id="node8" class="node">
<title>Node10</title>
<g id="a_node8"><a xlink:href="_taylor_green_vortex_8cpp.html" target="_top" xlink:title="TaylorGreenVortex.cpp">
<polygon fill="#ffffff" stroke="#000000" points="731,-.5 731,-19.5 848,-19.5 848,-.5 731,-.5"/>
<text text-anchor="middle" x="789.5" y="-7.5" font-family="Helvetica,sans-Serif" font-size="10.00" fill="#000000">TaylorGreenVortex.cpp</text>
</a>
</g>
</g>
<!-- Node3&#45;&gt;Node10 -->
<g id="edge7" class="edge">
<title>Node3&#45;&gt;Node10</title>
<path fill="none" stroke="#191970" d="M536.7844,-58.1363C590.0101,-47.9981 682.4928,-30.3823 739.6009,-19.5046"/>
<polygon fill="#191970" stroke="#191970" points="535.8533,-54.7507 526.6848,-60.06 537.1631,-61.627 535.8533,-54.7507"/>
</g>
<!-- Node11 -->
<g id="node9" class="node">
<title>Node11</title>
<g id="a_node9"><a xlink:href="_a_b_l_wall_function_8cpp.html" target="_top" xlink:title="ABLWallFunction.cpp">
<polygon fill="#ffffff" stroke="#000000" points="866,-.5 866,-19.5 977,-19.5 977,-.5 866,-.5"/>
<text text-anchor="middle" x="921.5" y="-7.5" font-family="Helvetica,sans-Serif" font-size="10.00" fill="#000000">ABLWallFunction.cpp</text>
</a>
</g>
</g>
<!-- Node3&#45;&gt;Node11 -->
<g id="edge8" class="edge">
<title>Node3&#45;&gt;Node11</title>
<path fill="none" stroke="#191970" d="M536.7048,-61.153C603.9387,-53.1569 741.3946,-36.4442 857.5,-20 860.1724,-19.6215 862.9061,-19.2261 865.6664,-18.8203"/>
<polygon fill="#191970" stroke="#191970" points="536.049,-57.7062 526.5311,-62.3602 536.8738,-64.6575 536.049,-57.7062"/>
</g>
</g>
</svg>
