<?xml version="1.0" encoding="UTF-8" standalone="no"?>
<!DOCTYPE svg PUBLIC "-//W3C//DTD SVG 1.1//EN"
 "http://www.w3.org/Graphics/SVG/1.1/DTD/svg11.dtd">
<!-- Generated by graphviz version 2.40.1 (20161225.0304)
 -->
<!-- Title: trig_ops.H Pages: 1 -->
<svg width="875pt" height="84pt"
 viewBox="0.00 0.00 875.00 84.00" xmlns="http://www.w3.org/2000/svg" xmlns:xlink="http://www.w3.org/1999/xlink">
<g id="graph0" class="graph" transform="scale(1 1) rotate(0) translate(4 80)">
<title>trig_ops.H</title>
<polygon fill="#ffffff" stroke="transparent" points="-4,4 -4,-80 871,-80 871,4 -4,4"/>
<!-- Node3 -->
<g id="node1" class="node">
<title>Node3</title>
<polygon fill="#bfbfbf" stroke="#000000" points="397.5,-56.5 397.5,-75.5 459.5,-75.5 459.5,-56.5 397.5,-56.5"/>
<text text-anchor="middle" x="428.5" y="-63.5" font-family="Helvetica,sans-Serif" font-size="10.00" fill="#000000">trig_ops.H</text>
</g>
<!-- Node4 -->
<g id="node2" class="node">
<title>Node4</title>
<g id="a_node2"><a xlink:href="_body_force_8cpp.html" target="_top" xlink:title="BodyForce.cpp">
<polygon fill="#ffffff" stroke="#000000" points="0,-.5 0,-19.5 83,-19.5 83,-.5 0,-.5"/>
<text text-anchor="middle" x="41.5" y="-7.5" font-family="Helvetica,sans-Serif" font-size="10.00" fill="#000000">BodyForce.cpp</text>
</a>
</g>
</g>
<!-- Node3&#45;&gt;Node4 -->
<g id="edge1" class="edge">
<title>Node3&#45;&gt;Node4</title>
<path fill="none" stroke="#191970" d="M387.2358,-61.2003C323.5836,-53.609 197.6863,-37.8483 91.5,-20 88.7937,-19.5451 86.0096,-19.0538 83.2064,-18.5414"/>
<polygon fill="#191970" stroke="#191970" points="386.9308,-64.6886 397.2735,-62.3912 387.7555,-57.7374 386.9308,-64.6886"/>
</g>
<!-- Node5 -->
<g id="node3" class="node">
<title>Node5</title>
<g id="a_node3"><a xlink:href="_coriolis_forcing_8cpp.html" target="_top" xlink:title="CoriolisForcing.cpp">
<polygon fill="#ffffff" stroke="#000000" points="101,-.5 101,-19.5 202,-19.5 202,-.5 101,-.5"/>
<text text-anchor="middle" x="151.5" y="-7.5" font-family="Helvetica,sans-Serif" font-size="10.00" fill="#000000">CoriolisForcing.cpp</text>
</a>
</g>
</g>
<!-- Node3&#45;&gt;Node5 -->
<g id="edge2" class="edge">
<title>Node3&#45;&gt;Node5</title>
<path fill="none" stroke="#191970" d="M387.3674,-57.6844C336.9864,-47.4991 251.8206,-30.2814 198.7861,-19.5596"/>
<polygon fill="#191970" stroke="#191970" points="386.7677,-61.1339 397.263,-59.6849 388.1549,-54.2727 386.7677,-61.1339"/>
</g>
<!-- Node6 -->
<g id="node4" class="node">
<title>Node6</title>
<g id="a_node4"><a xlink:href="_geostrophic_forcing_8cpp.html" target="_top" xlink:title="GeostrophicForcing.cpp">
<polygon fill="#ffffff" stroke="#000000" points="220.5,-.5 220.5,-19.5 340.5,-19.5 340.5,-.5 220.5,-.5"/>
<text text-anchor="middle" x="280.5" y="-7.5" font-family="Helvetica,sans-Serif" font-size="10.00" fill="#000000">GeostrophicForcing.cpp</text>
</a>
</g>
</g>
<!-- Node3&#45;&gt;Node6 -->
<g id="edge3" class="edge">
<title>Node3&#45;&gt;Node6</title>
<path fill="none" stroke="#191970" d="M393.5847,-52.7888C366.5617,-42.5639 329.786,-28.6488 305.6101,-19.5011"/>
<polygon fill="#191970" stroke="#191970" points="392.4664,-56.1078 403.0579,-56.3733 394.9437,-49.5608 392.4664,-56.1078"/>
</g>
<!-- Node7 -->
<g id="node5" class="node">
<title>Node7</title>
<g id="a_node5"><a xlink:href="_convecting_taylor_vortex_8cpp.html" target="_top" xlink:title="ConvectingTaylorVortex.cpp">
<polygon fill="#ffffff" stroke="#000000" points="358.5,-.5 358.5,-19.5 498.5,-19.5 498.5,-.5 358.5,-.5"/>
<text text-anchor="middle" x="428.5" y="-7.5" font-family="Helvetica,sans-Serif" font-size="10.00" fill="#000000">ConvectingTaylorVortex.cpp</text>
</a>
</g>
</g>
<!-- Node3&#45;&gt;Node7 -->
<g id="edge4" class="edge">
<title>Node3&#45;&gt;Node7</title>
<path fill="none" stroke="#191970" d="M428.5,-46.1575C428.5,-37.155 428.5,-26.9199 428.5,-19.6427"/>
<polygon fill="#191970" stroke="#191970" points="425.0001,-46.2455 428.5,-56.2455 432.0001,-46.2456 425.0001,-46.2455"/>
</g>
<!-- Node8 -->
<g id="node6" class="node">
<title>Node8</title>
<g id="a_node6"><a xlink:href="_free_stream_8cpp.html" target="_top" xlink:title="FreeStream.cpp">
<polygon fill="#ffffff" stroke="#000000" points="516.5,-.5 516.5,-19.5 602.5,-19.5 602.5,-.5 516.5,-.5"/>
<text text-anchor="middle" x="559.5" y="-7.5" font-family="Helvetica,sans-Serif" font-size="10.00" fill="#000000">FreeStream.cpp</text>
</a>
</g>
</g>
<!-- Node3&#45;&gt;Node8 -->
<g id="edge5" class="edge">
<title>Node3&#45;&gt;Node8</title>
<path fill="none" stroke="#191970" d="M460.3534,-52.3833C484.1785,-42.1985 516.1568,-28.5284 537.2742,-19.5011"/>
<polygon fill="#191970" stroke="#191970" points="458.839,-49.2242 451.0197,-56.3733 461.5906,-55.6608 458.839,-49.2242"/>
</g>
<!-- Node9 -->
<g id="node7" class="node">
<title>Node9</title>
<g id="a_node7"><a xlink:href="_taylor_green_vortex_8cpp.html" target="_top" xlink:title="TaylorGreenVortex.cpp">
<polygon fill="#ffffff" stroke="#000000" points="621,-.5 621,-19.5 738,-19.5 738,-.5 621,-.5"/>
<text text-anchor="middle" x="679.5" y="-7.5" font-family="Helvetica,sans-Serif" font-size="10.00" fill="#000000">TaylorGreenVortex.cpp</text>
</a>
</g>
</g>
<!-- Node3&#45;&gt;Node9 -->
<g id="edge6" class="edge">
<title>Node3&#45;&gt;Node9</title>
<path fill="none" stroke="#191970" d="M469.4721,-56.8588C515.5493,-46.5786 590.0316,-29.9611 636.8035,-19.5259"/>
<polygon fill="#191970" stroke="#191970" points="468.5271,-53.4835 459.5293,-59.0771 470.0515,-60.3155 468.5271,-53.4835"/>
</g>
<!-- Node10 -->
<g id="node8" class="node">
<title>Node10</title>
<g id="a_node8"><a xlink:href="_a_b_l_wall_function_8cpp.html" target="_top" xlink:title="ABLWallFunction.cpp">
<polygon fill="#ffffff" stroke="#000000" points="756,-.5 756,-19.5 867,-19.5 867,-.5 756,-.5"/>
<text text-anchor="middle" x="811.5" y="-7.5" font-family="Helvetica,sans-Serif" font-size="10.00" fill="#000000">ABLWallFunction.cpp</text>
</a>
</g>
</g>
<!-- Node3&#45;&gt;Node10 -->
<g id="edge7" class="edge">
<title>Node3&#45;&gt;Node10</title>
<path fill="none" stroke="#191970" d="M469.7336,-60.2123C530.5463,-51.6406 647.8535,-34.9689 747.5,-20 750.1691,-19.5991 752.9002,-19.1854 755.6583,-18.7649"/>
<polygon fill="#191970" stroke="#191970" points="469.1751,-56.7564 459.7609,-61.6168 470.1513,-63.688 469.1751,-56.7564"/>
</g>
</g>
</svg>
