<?xml version="1.0" encoding="UTF-8" standalone="no"?>
<!DOCTYPE svg PUBLIC "-//W3C//DTD SVG 1.1//EN"
 "http://www.w3.org/Graphics/SVG/1.1/DTD/svg11.dtd">
<!-- Generated by graphviz version 2.40.1 (20161225.0304)
 -->
<!-- Title: turb_utils.H Pages: 1 -->
<svg width="189pt" height="84pt"
 viewBox="0.00 0.00 188.50 84.00" xmlns="http://www.w3.org/2000/svg" xmlns:xlink="http://www.w3.org/1999/xlink">
<g id="graph0" class="graph" transform="scale(1 1) rotate(0) translate(4 80)">
<title>turb_utils.H</title>
<polygon fill="#ffffff" stroke="transparent" points="-4,4 -4,-80 184.5,-80 184.5,4 -4,4"/>
<!-- Node3 -->
<g id="node1" class="node">
<title>Node3</title>
<polygon fill="#bfbfbf" stroke="#000000" points="59.5,-56.5 59.5,-75.5 126.5,-75.5 126.5,-56.5 59.5,-56.5"/>
<text text-anchor="middle" x="93" y="-63.5" font-family="Helvetica,sans-Serif" font-size="10.00" fill="#000000">turb_utils.H</text>
</g>
<!-- Node4 -->
<g id="node2" class="node">
<title>Node4</title>
<g id="a_node2"><a xlink:href="_one_eq_ksgs_8cpp.html" target="_top" xlink:title="OneEqKsgs.cpp">
<polygon fill="#ffffff" stroke="#000000" points="0,-.5 0,-19.5 88,-19.5 88,-.5 0,-.5"/>
<text text-anchor="middle" x="44" y="-7.5" font-family="Helvetica,sans-Serif" font-size="10.00" fill="#000000">OneEqKsgs.cpp</text>
</a>
</g>
</g>
<!-- Node3&#45;&gt;Node4 -->
<g id="edge1" class="edge">
<title>Node3&#45;&gt;Node4</title>
<path fill="none" stroke="#191970" d="M77.6878,-48.5004C69.3553,-38.9775 59.3647,-27.5596 52.4373,-19.6427"/>
<polygon fill="#191970" stroke="#191970" points="75.2457,-51.0245 84.4649,-56.2455 80.5138,-46.415 75.2457,-51.0245"/>
</g>
<!-- Node5 -->
<g id="node3" class="node">
<title>Node5</title>
<g id="a_node3"><a xlink:href="turb__utils_8cpp.html" target="_top" xlink:title="turb_utils.cpp">
<polygon fill="#ffffff" stroke="#000000" points="105.5,-.5 105.5,-19.5 180.5,-19.5 180.5,-.5 105.5,-.5"/>
<text text-anchor="middle" x="143" y="-7.5" font-family="Helvetica,sans-Serif" font-size="10.00" fill="#000000">turb_utils.cpp</text>
</a>
</g>
</g>
<!-- Node3&#45;&gt;Node5 -->
<g id="edge2" class="edge">
<title>Node3&#45;&gt;Node5</title>
<path fill="none" stroke="#191970" d="M108.6247,-48.5004C117.1273,-38.9775 127.3218,-27.5596 134.3905,-19.6427"/>
<polygon fill="#191970" stroke="#191970" points="105.7587,-46.4551 101.7093,-56.2455 110.9803,-51.1172 105.7587,-46.4551"/>
</g>
</g>
</svg>
